<svg id="Capa_1" enable-background="new 0 0 512 512" height="512" viewBox="0 0 512 512" width="512" xmlns="http://www.w3.org/2000/svg"><g><g><path d="m122.65 114.663s-12.216-38.119 6.786-75.965c2.231-4.443 7.285-6.715 12.092-5.445l10.267 2.714c7.563 1.999 10.272 11.181 5.181 17.12-9.118 10.637-18.44 29.161-14.115 58.608z" fill="#893330"/><g><path d="m274.838 175.725c6.841 46.577-45.426 78.494-126.64 90.421-81.213 11.928-140.45-3.612-147.291-50.19-8.421-57.334 42.464-98.663 123.677-110.59s141.833 13.025 150.254 70.359z" fill="#893330"/><path d="m274.835 175.722c6.841 46.581-45.421 78.497-126.633 90.425-81.221 11.928-140.454-3.613-147.295-50.194-1.372-9.338-1.166-18.249.48-26.681 24.554 6.552 55.571 8.146 88.528 3.306 71.954-10.568 126.195-47.813 122.12-83.55 34.748 10.371 57.839 32.91 62.8 66.694z" fill="#6d281f"/><path d="m274.835 175.722c6.841 46.581-45.421 78.497-126.633 90.425-33.309 4.892-62.93 5.163-86.744.563 16.248 1.415 33.55.955 51.309-1.653 79.376-11.658 137.76-61.73 130.402-111.83-2.425-16.509-11.674-30.943-25.824-42.485 31.784 11.022 52.786 32.951 57.49 64.98z" fill="#591b16"/><path d="m256.509 208.526c-1.704-11.602-55.391-21.175-118.522-11.903s-111.798 33.877-110.094 45.479c15.877 108.103 54.542 149.505 101.181 157.586 8.749 1.516 16.743 5.652 23.473 11.444 5.055 4.35 11.342 6.551 17.769 5.607s11.816-4.859 15.406-10.479c4.781-7.482 11.248-13.742 19.191-17.709 42.345-21.152 67.473-71.923 51.596-180.025z" fill="#db765a"/><path d="m256.505 208.527c15.876 108.097-9.243 158.867-51.589 180.024-7.947 3.97-14.415 10.225-19.199 17.706-3.585 5.616-8.973 9.539-15.397 10.482-6.434.945-12.723-1.263-17.771-5.611-6.733-5.79-14.726-9.922-23.479-11.438-9.81-1.701-19.27-4.876-28.243-9.852 10.247 1.308 20.829 1.247 31.549-.327 63.493-9.325 107.405-68.356 98.08-131.849-3.726-25.373-15.39-47.622-32.119-64.585 33.7 1.139 57.052 7.856 58.168 15.45z" fill="#b55434"/><path d="m115.978 374.827c3.243-7.412 1.112-16.101-5.246-21.104-5.226-4.112-10.047-9.358-14.598-15.829-11.061-15.736-19.937-38.021-26.519-66.47-2.09-9.033-10.783-14.941-19.956-13.594-10.3 1.513-17.14 11.504-14.789 21.645 12.071 52.066 30.85 84.101 53.651 102.155 9.186 7.273 22.76 3.931 27.457-6.803z" fill="#ef927d"/><path d="m42.239 306.333c4.126 12.801 8.758 24.063 13.834 33.925 5.097 9.904 17.982 12.654 26.697 5.718.093-.074.187-.148.28-.223 6.584-5.24 8.553-14.393 4.701-21.874-4.281-8.313-8.147-17.833-11.589-28.531-2.665-8.282-10.941-13.419-19.549-12.155-10.918 1.603-17.759 12.638-14.374 23.14z" fill="#f9a395"/><path d="m256.505 208.527c.881 6 1.635 11.834 2.27 17.489-5.846-10.906-57.598-19.284-117.995-10.414-60.407 8.872-107.564 31.776-110.028 43.903-1.018-5.599-1.974-11.403-2.855-17.403-1.705-11.607 46.956-36.206 110.095-45.479 63.129-9.271 116.808.297 118.513 11.904z" fill="#b55434"/><path d="m26.65 180.225c6.935 3.25 15.093 1.458 20.25-4.204 1.887-2.071 3.825-3.883 5.649-5.471 16.534-14.389 43.955-24.999 77.224-29.886 9.304-1.366 18.298-2.171 26.865-2.424 10.649-.315 18.616-9.883 17.068-20.423-1.32-8.991-9.181-15.528-18.264-15.248-9.882.304-20.19 1.234-30.853 2.8-46.163 6.78-82.526 23.056-103.769 46.37-8.174 8.969-5.159 23.336 5.83 28.486z" fill="#a1412b"/><path d="m102.321 109.56c-15.297 3.535-29.228 8.231-41.544 13.98-10.16 4.742-13.294 17.712-6.512 26.639.072.095.144.19.217.285 5.052 6.651 14.031 8.83 21.608 5.314 9.989-4.635 21.512-8.494 34.211-11.443 9.032-2.097 14.939-10.785 13.592-19.959-1.51-10.272-11.455-17.153-21.572-14.816z" fill="#b55434"/></g></g><g><path d="m406.657 193.934s9.121-38.976 44.877-61.667c4.198-2.664 9.701-2.014 13.171 1.547l7.411 7.606c5.459 5.603 3.062 14.871-4.358 17.348-13.289 4.436-30.809 15.531-42.239 43.011z" fill="#893330"/><g><path d="m505.796 324.553c-18.08 43.467-79.319 43.969-155.109 12.445s-118.608-75.309-100.528-118.776c22.255-53.505 87.148-62.792 162.938-31.267s114.954 84.093 92.699 137.598z" fill="#893330"/><path d="m505.795 324.549c-18.081 43.47-79.317 43.975-155.105 12.452-75.797-31.527-118.611-75.311-100.53-118.781 3.625-8.715 8.383-16.252 14.13-22.637 17.692 18.243 43.475 35.558 74.231 48.351 67.148 27.93 132.82 23.872 147.7-8.875 24.471 26.759 32.688 57.962 19.574 89.49z" fill="#6d281f"/><path d="m505.795 324.549c-18.081 43.47-79.317 43.975-155.105 12.452-31.085-12.93-56.63-27.926-74.69-44.115 13.209 9.568 28.285 18.068 44.858 24.962 74.075 30.811 149.895 17.881 169.342-28.873 6.408-15.406 5.897-32.542-.307-49.716 21.595 25.793 28.335 55.4 15.902 85.29z" fill="#591b16"/><path d="m473.211 343.263c4.504-10.828-36.623-46.64-95.537-71.146-58.915-24.505-113.308-28.423-117.811-17.595-41.962 100.883-30.084 156.273 5.763 187.183 6.724 5.798 11.454 13.456 14.249 21.883 2.099 6.33 6.36 11.45 12.358 13.944 5.998 2.495 12.633 1.907 18.602-1.067 7.947-3.96 16.712-6.004 25.565-5.323 47.194 3.632 94.849-26.996 136.811-127.879z" fill="#db765a"/><path d="m473.206 343.262c-41.959 100.878-89.606 131.509-136.805 127.884-8.857-.681-17.621 1.359-25.57 5.316-5.962 2.974-12.601 3.568-18.596 1.075-6.004-2.497-10.263-7.625-12.358-13.949-2.798-8.428-7.53-16.081-14.257-21.882-7.54-6.503-14.021-14.09-19.159-22.971 8.117 6.39 17.224 11.778 27.228 15.94 59.253 24.646 127.267-3.409 151.912-62.662 9.849-23.678 11.284-48.759 5.657-71.909 28.32 18.303 44.896 36.071 41.948 43.158z" fill="#b55434"/><path d="m267.175 413.648c6.592-4.69 9.232-13.238 6.351-20.798-2.368-6.214-3.807-13.192-4.383-21.082-1.396-19.184 2.448-42.861 11.43-70.646 2.852-8.822-1.567-18.359-10.128-21.919-9.612-3.998-20.616 1.054-23.813 10.962-16.415 50.863-16.779 87.995-6.505 115.203 4.139 10.96 17.5 15.072 27.048 8.28z" fill="#ef927d"/><path d="m239.143 316.988c-3.042 13.101-4.859 25.142-5.577 36.21-.72 11.115 8.917 20.099 19.959 18.63.118-.016.236-.031.354-.047 8.341-1.109 14.736-7.948 15.278-16.344.602-9.331 2.181-19.484 4.729-30.429 1.972-8.474-2.485-17.135-10.518-20.476-10.188-4.239-21.729 1.709-24.225 12.456z" fill="#f9a395"/><path d="m473.206 343.262c-2.329 5.6-4.682 10.991-7.045 16.168.593-12.36-39.488-46.154-95.851-69.598-56.373-23.448-108.596-28.048-116.944-18.913 2.006-5.326 4.17-10.795 6.499-16.395 4.506-10.832 58.889-6.912 117.812 17.596 58.914 24.505 100.035 60.309 95.529 71.142z" fill="#b55434"/><path d="m290.61 200.81c4.277 6.353 12.196 9.01 19.53 6.806 2.684-.806 5.277-1.364 7.658-1.789 21.579-3.841 50.554 1.157 81.601 14.071 8.683 3.611 16.811 7.545 24.289 11.733 9.296 5.205 21.048 1.094 25.139-8.742 3.49-8.39.109-18.039-7.825-22.469-8.632-4.82-17.951-9.322-27.903-13.461-43.081-17.919-82.637-22.654-112.844-13.58-11.623 3.491-16.423 17.364-9.645 27.431z" fill="#a1412b"/><path d="m391.844 179.106c-14.938-4.833-29.301-7.967-42.82-9.369-11.152-1.156-20.509 8.356-19.281 19.501.013.119.026.237.039.356.914 8.302 7.495 14.787 15.801 15.668 10.951 1.16 22.819 3.775 35.226 7.774 8.825 2.845 18.359-1.57 21.919-10.131 3.988-9.588-1.004-20.603-10.884-23.799z" fill="#b55434"/></g></g></g></svg>