<svg viewBox="0 -45 512.001 512" xmlns="http://www.w3.org/2000/svg"><path d="m0 22.800781v184.492188c0 1.351562.296875 2.683593.871094 3.90625l19.617187 41.855469c4.355469 9.289062 13.691407 15.222656 23.953125 15.222656h423.121094c10.257812 0 19.59375-5.933594 23.949219-15.222656l19.617187-41.855469c.574219-1.222657.871094-2.558594.871094-3.90625v-184.492188c0-12.59375-10.207031-22.800781-22.800781-22.800781h-466.398438c-12.59375 0-22.800781 10.210938-22.800781 22.800781zm0 0" fill="#d0e2ea"/><path d="m20.488281 253.054688c4.355469 9.289062 13.691407 15.222656 23.953125 15.222656h423.117188c10.261718 0 19.597656-5.933594 23.953125-15.222656l19.617187-41.855469c.574219-1.222657.871094-2.558594.871094-3.90625h-512c0 1.351562.296875 2.683593.871094 3.90625zm0 0" fill="#9bb8d1"/><path d="m489.199219 0h-25.644531c12.59375 0 22.800781 10.207031 22.800781 22.800781v184.492188c0 1.351562-.296875 2.683593-.871094 3.90625l-19.621094 41.855469c-4.351562 9.289062-13.6875 15.222656-23.949219 15.222656h25.644532c10.261718 0 19.597656-5.933594 23.953125-15.222656l19.617187-41.855469c.574219-1.222657.871094-2.558594.871094-3.90625v-184.492188c0-12.589843-10.207031-22.800781-22.800781-22.800781zm0 0" fill="#9bb8d1"/><path d="m485.484375 211.199219-19.617187 41.855469c-4.355469 9.289062-13.691407 15.222656-23.953126 15.222656h25.648438c10.257812 0 19.59375-5.933594 23.949219-15.222656l19.617187-41.855469c.574219-1.222657.871094-2.558594.871094-3.90625h-25.644531c0 1.351562-.296875 2.683593-.871094 3.90625zm0 0" fill="#668daa"/><path d="m103.5625 65.105469-3.628906-2.703125 1.34375-4.324219c1.234375-3.953125-.972656-8.160156-4.929688-9.390625-3.953125-1.234375-8.15625.976562-9.390625 4.929688l-1.769531 5.6875-11.808594 3.835937v-12.414063l4.863282-3.441406c3.378906-2.394531 4.179687-7.074218 1.785156-10.453125-2.394532-3.382812-7.074219-4.183593-10.453125-1.789062l-3.695313 2.617187-3.695312-2.617187c-3.378906-2.394531-8.0625-1.59375-10.453125 1.789062-2.394531 3.378907-1.59375 8.058594 1.785156 10.453125l4.863281 3.441406v12.417969l-11.808594-3.835937-1.769531-5.691406c-1.234375-3.953126-5.4375-6.164063-9.394531-4.929688-3.953125 1.234375-6.160156 5.4375-4.929688 9.390625l1.347657 4.324219-3.628907 2.707031c-3.320312 2.472656-4.007812 7.171875-1.53125 10.492187 1.472657 1.976563 3.730469 3.019532 6.019532 3.019532 1.558594 0 3.128906-.484375 4.476562-1.488282l4.777344-3.558593 11.804688 3.835937-7.296876 10.042969-5.957031-.074219c-4.167969-.035156-7.539062 3.269532-7.589843 7.410156-.050782 4.140626 3.265624 7.539063 7.410156 7.589844l4.527344.054688 1.449218 4.289062c1.058594 3.125 3.976563 5.097656 7.101563 5.097656.796875 0 1.609375-.128906 2.40625-.398437 3.925781-1.328125 6.027343-5.585937 4.699219-9.507813l-1.910157-5.640624 7.300781-10.046876 7.296876 10.046876-1.910157 5.640624c-1.328125 3.921876.777344 8.179688 4.699219 9.507813.796875.269531 1.609375.398437 2.40625.398437 3.125 0 6.042969-1.972656 7.101562-5.097656l1.453126-4.289062 4.523437-.054688c4.144531-.050781 7.460937-3.449218 7.410156-7.589844-.050781-4.140624-3.457031-7.4375-7.589843-7.410156l-5.960938.074219-7.296875-10.042969 11.808594-3.835937 4.777343 3.558593c1.347657 1.003907 2.917969 1.488282 4.476563 1.488282 2.289063 0 4.546875-1.042969 6.019531-3.019532 2.472656-3.320312 1.785156-8.019531-1.535156-10.496093zm0 0" fill="#56a6e8"/><path d="m466.15625 72.742188c0 10.328124-8.375 18.703124-18.703125 18.703124-10.332031 0-18.707031-8.375-18.707031-18.703124 0-10.332032 8.375-18.707032 18.707031-18.707032 10.328125 0 18.703125 8.375 18.703125 18.707032zm0 0" fill="#87d1ea"/><path d="m372.949219 80.242188h-91.164063c-4.144531 0-7.5-3.359376-7.5-7.5 0-4.144532 3.355469-7.5 7.5-7.5h91.164063c4.144531 0 7.5 3.355468 7.5 7.5 0 4.140624-3.355469 7.5-7.5 7.5zm0 0" fill="#7d8eb0"/><g fill="#d0e2ea"><path d="m135.554688 422.519531c-1.835938 0-3.675782-.671875-5.125-2.023437-3.023438-2.832032-3.179688-7.578125-.351563-10.601563 3.621094-3.867187 5.804687-6.199219 5.804687-11.601562 0-5.402344-2.183593-7.738281-5.804687-11.601563-4.160156-4.449218-9.851563-10.527344-9.851563-21.855468 0-11.324219 5.695313-17.40625 9.851563-21.847657 3.621094-3.867187 5.804687-6.203125 5.804687-11.601562 0-5.398438-2.183593-7.734375-5.804687-11.597657-4.15625-4.445312-9.851563-10.523437-9.851563-21.851562 0-4.140625 3.359376-7.5 7.5-7.5 4.144532 0 7.5 3.359375 7.5 7.5 0 5.398438 2.183594 7.730469 5.800782 11.59375 4.160156 4.445312 9.855468 10.53125 9.855468 21.855469s-5.695312 17.40625-9.851562 21.851562c-3.621094 3.863281-5.804688 6.199219-5.804688 11.597657 0 5.402343 2.183594 7.734374 5.800782 11.597656 4.164062 4.449218 9.855468 10.53125 9.855468 21.855468 0 11.328126-5.691406 17.410157-9.851562 21.851563-1.476562 1.578125-3.472656 2.378906-5.476562 2.378906zm0 0"/><path d="m215.851562 422.519531c-1.835937 0-3.675781-.671875-5.125-2.023437-3.023437-2.832032-3.179687-7.578125-.351562-10.601563 3.621094-3.867187 5.804688-6.199219 5.804688-11.601562 0-5.402344-2.183594-7.738281-5.804688-11.601563-4.160156-4.449218-9.851562-10.527344-9.851562-21.855468 0-11.324219 5.695312-17.40625 9.851562-21.847657 3.621094-3.867187 5.804688-6.203125 5.804688-11.601562 0-5.398438-2.183594-7.734375-5.804688-11.597657-4.15625-4.445312-9.851562-10.523437-9.851562-21.851562 0-4.140625 3.359374-7.5 7.5-7.5 4.140624 0 7.5 3.359375 7.5 7.5 0 5.398438 2.183593 7.730469 5.800781 11.59375 4.160156 4.445312 9.855469 10.53125 9.855469 21.855469s-5.695313 17.40625-9.851563 21.851562c-3.621094 3.863281-5.804687 6.199219-5.804687 11.597657 0 5.402343 2.183593 7.734374 5.796874 11.597656 4.164063 4.449218 9.859376 10.53125 9.859376 21.855468 0 11.328126-5.695313 17.410157-9.851563 21.851563-1.476563 1.578125-3.472656 2.378906-5.476563 2.378906zm0 0"/><path d="m296.148438 422.519531c-1.835938 0-3.679688-.671875-5.125-2.023437-3.023438-2.832032-3.179688-7.578125-.351563-10.601563 3.617187-3.867187 5.804687-6.199219 5.804687-11.601562 0-5.402344-2.1875-7.738281-5.804687-11.601563-4.160156-4.449218-9.851563-10.527344-9.851563-21.855468 0-11.324219 5.695313-17.40625 9.851563-21.847657 3.617187-3.867187 5.804687-6.203125 5.804687-11.601562 0-5.398438-2.1875-7.734375-5.804687-11.597657-4.160156-4.445312-9.851563-10.523437-9.851563-21.851562 0-4.140625 3.359376-7.5 7.5-7.5 4.140626 0 7.5 3.359375 7.5 7.5 0 5.398438 2.183594 7.730469 5.800782 11.59375 4.160156 4.445312 9.855468 10.53125 9.855468 21.855469s-5.695312 17.40625-9.855468 21.851562c-3.617188 3.863281-5.800782 6.199219-5.800782 11.597657 0 5.402343 2.183594 7.734374 5.796876 11.597656 4.164062 4.449218 9.855468 10.53125 9.855468 21.855468 0 11.328126-5.691406 17.410157-9.851562 21.851563-1.472656 1.578125-3.472656 2.378906-5.472656 2.378906zm0 0"/><path d="m376.445312 422.519531c-1.835937 0-3.679687-.671875-5.125-2.023437-3.023437-2.832032-3.179687-7.578125-.351562-10.601563 3.621094-3.867187 5.804688-6.199219 5.804688-11.601562 0-5.402344-2.183594-7.738281-5.804688-11.601563-4.160156-4.449218-9.851562-10.527344-9.851562-21.855468 0-11.324219 5.695312-17.40625 9.851562-21.847657 3.621094-3.867187 5.804688-6.203125 5.804688-11.601562 0-5.398438-2.183594-7.734375-5.804688-11.597657-4.160156-4.445312-9.851562-10.523437-9.851562-21.851562 0-4.140625 3.359374-7.5 7.5-7.5 4.140624 0 7.5 3.359375 7.5 7.5 0 5.398438 2.183593 7.730469 5.800781 11.59375 4.160156 4.445312 9.855469 10.53125 9.855469 21.855469s-5.695313 17.40625-9.851563 21.851562c-3.621094 3.863281-5.804687 6.199219-5.804687 11.597657 0 5.402343 2.183593 7.734374 5.796874 11.597656 4.164063 4.449218 9.855469 10.53125 9.855469 21.855468 0 11.328126-5.691406 17.410157-9.847656 21.851563-1.476563 1.578125-3.476563 2.378906-5.476563 2.378906zm0 0"/></g><path d="m67.785156 236.492188h376.429688c4.070312 0 7.367187 3.296874 7.367187 7.367187v24.421875h-391.164062v-24.421875c0-4.070313 3.296875-7.367187 7.367187-7.367187zm0 0" fill="#7d8eb0"/></svg>