<svg id="Airplane" enable-background="new 0 0 64 64" height="512" viewBox="0 0 64 64" width="512" xmlns="http://www.w3.org/2000/svg"><g><path d="m33.475 27.237-17.006-9.818c-.509-.294-.362-1.065.219-1.152l6.343-.946c2.707-.403 5.472.098 7.864 1.428l13.569 7.543z" fill="#e9e9e9"/><path d="m37.673 26.115-4.198 1.125-17.005-9.827c-.514-.287-.361-1.06.218-1.151l3.672-.547c-.02.211.08.441.308.573z" opacity=".09"/><path d="m63.926 23.963c.436 1.627-1.19 4.13-5.788 5.363l-23.543 6.308c-15.936 4.27-23.194 2.775-27.3-2.296-3.413-4.216-5.958-7.436-7.164-8.976-.271-.346-.101-.849.324-.962 1.171-.313 3.226-.864 4.447-1.192.618-.166 1.278-.002 1.747.432l6.269 5.804 36.758-9.849c4.663-1.249 7.76 1.535 9.222 2.194 1.94.255 4.54 1.348 5.028 3.174z" fill="#f9f9f9"/><path d="m63.926 23.966c.435 1.622-1.195 4.126-5.784 5.355l-23.549 6.31c-15.933 4.269-23.191 2.779-27.295-2.29-3.419-4.215-5.957-7.435-7.165-8.977-.274-.351-.101-.853.324-.967l4.441-1.19c.623-.167 1.282-.004 1.748.433l6.272 5.803 36.752-9.848c3.175-.851 5.621.169 7.326 1.111.795.434 1.43.868 1.901 1.081 1.944.253 4.539 1.349 5.029 3.179z" fill="#f4f4f4"/><path d="m63.929 23.954.003.012c.434 1.619-1.196 4.125-5.802 5.359l-23.542 6.308c-9.906 2.654-16.463 3.087-20.983 1.805z" fill="#379add"/><g fill="#a8a8a8"><path d="m45.811 22.704c-.406.109-.642.532-.543.941.121.413.535.652.95.54.405-.109.644-.522.543-.941-.118-.403-.535-.652-.95-.54z"/><circle cx="41.519" cy="24.649" r=".768"/><circle cx="37.029" cy="25.852" r=".768"/><circle cx="32.539" cy="27.055" r=".768"/><circle cx="28.039" cy="28.261" r=".768"/><circle cx="23.549" cy="29.464" r=".768"/><path d="m56.997 19.706-4.589 1.23c-.396.106-.652.535-.543.941.114.425.545.649.941.543l6.092-1.632c-.471-.214-1.107-.648-1.901-1.082z"/></g><path d="m63.974 24.725c-.158 1.572-1.904 3.544-5.838 4.598l-23.543 6.308c-15.939 4.271-23.19 2.782-27.299-2.287-3.406-4.216-5.953-7.442-7.162-8.982-.27-.339-.098-.848.322-.96l1.823-.488c1.367 1.742 3.594 4.539 6.406 8.028 4.109 5.069 11.372 6.555 27.299 2.287l23.543-6.308c2.048-.551 3.505-1.353 4.449-2.196z" opacity=".09"/><path d="m10.307 33.105c.803-.215 1.606-.43 2.409-.645.534-.143.975.431.698.91l-3.679 6.373c-.494.856-1.308 1.48-2.262 1.736l-1.761.472c-.487.13-.918-.343-.742-.816.908-2.443 1.815-4.886 2.724-7.328.87-.235 1.741-.468 2.613-.702z" fill="#4190ef"/><path d="m7.896 41.345c-.14.05-.282.101-.425.139l-1.751.469c-.491.132-.928-.343-.745-.816l2.713-7.334 2.374-.636-2.726 7.337c-.159.416.158.832.56.841z" opacity=".09"/><path d="m34.45 30.875-9.818 17.006c-.294.509.218 1.104.766.888l5.966-2.353c2.546-1.004 4.69-2.821 6.096-5.169l7.98-13.317" fill="#f4f4f4"/><path d="m28.832 46.751c-.132.228-.106.466.02.65l-3.453 1.362c-.545.223-1.064-.371-.765-.888l9.816-17.001 4.198-1.125z" opacity=".09"/></g></svg>