<svg id="Layer_1" enable-background="new 0 0 50 50" height="512" viewBox="0 0 50 50" width="512" xmlns="http://www.w3.org/2000/svg"><g><g><g><g enable-background="new"><g><path d="m26.7434 34.82146-2.92256.91959c-.24694.14418-.4047.49612-.4047.92815-.00515.86958.61215 1.93432 1.36835 2.37162.38066.22104.73046.24163.97736.09243l1.07435-.68222z" fill="#56707b"/></g><g><path d="m25.24064 35.58051c.75865.438 1.37364 1.50307 1.37117 2.37479-.00247.87191-.62148 1.22452-1.38013.78652-.75865-.43801-1.37048-1.50124-1.36801-2.37316.00248-.87172.61833-1.22615 1.37697-.78815z" fill="#40545d"/></g><g><path d="m25.36698 36.16451c.41309.2385.74796.81843.74661 1.29309-.00135.47477-.3384.66676-.75149.42826-.41309-.23849-.74623-.81744-.74489-1.2922.00135-.47465.33668-.66764.74977-.42915z" fill="#485f69"/></g><g><path d="m24.79305 35.7791c.80795.46647 1.46267 1.60041 1.46004 2.52875-.00263.92855-.66164 1.30402-1.46959.83754-.80467-.46458-1.46269-1.60042-1.46005-2.52897.00264-.92834.66493-1.3019 1.4696-.83732zm-.00924 3.26065c.75868.43803 1.37815.08505 1.38061-.78309.00247-.87161-.61298-1.93388-1.37166-2.3719-.7554-.43613-1.37486-.08684-1.37733.78477-.00247.86813.61298 1.93408 1.36838 2.37022" fill="#40545d"/></g></g></g><g><path d="m30.45802 35.97726.00515.00502-4.54186 3.19216c.20578-.1698.32923-.46795.32923-.86405.00515-.93111-.64816-2.06292-1.4558-2.53087-.3498-.20596-.67903-.24716-.93108-.15447l5.10258-2.19926v.00502c.19033-.10801.45268-.08741.73561.07737.57614.33432 1.04424 1.14688 1.04424 1.81576 0 .319-.108.54531-.28807.65332z" fill="#485f69"/></g></g><g><g><g enable-background="new"><g><path d="m32.91123 35.87499-1.85025.58219c-.15633.09128-.25621.31409-.25621.5876-.00326.55052.38755 1.2246.86629 1.50145.24099.13993.46245.15297.61876.05852l.68016-.43191z" fill="#56707b"/></g><g><path d="m31.95985 36.35554c.48029.2773.86964.95158.86807 1.50345-.00156.552-.39346.77523-.87374.49794-.48029-.27729-.86764-.95042-.86607-1.50242.00156-.55188.39145-.77627.87174-.49897z" fill="#40545d"/></g><g><path d="m32.03983 36.72527c.26152.15099.47352.51814.47267.81864-.00085.30057-.21424.42212-.47576.27113s-.47243-.51751-.47158-.81808c.00085-.3005.21315-.42268.47467-.27169z" fill="#485f69"/></g><g><path d="m31.67649 36.48127c.51151.29531.926 1.0132.92434 1.60093-.00167.58786-.41887.82556-.93038.53024-.50943-.29412-.92601-1.01321-.92435-1.60107.00166-.58773.42096-.82422.93039-.5301zm-.00586 2.06428c.48031.27731.87249.05384.87405-.49577.00157-.55181-.38807-1.22432-.86839-1.50163-.47824-.27611-.87041-.05498-.87197.49683-.00156.54961.38808 1.22446.86631 1.50057" fill="#40545d"/></g></g></g><g><path d="m35.26292 36.60672.00326.00318-2.8754 2.02093c.13028-.1075.20843-.29625.20843-.54702.00326-.58948-.41034-1.30602-.92165-1.60227-.22145-.13039-.42989-.15647-.58946-.09779l3.23039-1.39233v.00318c.12049-.06838.28659-.05534.4657.04898.36475.21165.6611.72608.6611 1.14954 0 .20195-.06838.34522-.18237.4136z" fill="#485f69"/></g></g><g><g><g><g enable-background="new"><g><path d="m12.63262 25.16046-2.92256.9196c-.24694.14418-.4047.49612-.4047.92815-.00515.86958.61215 1.93432 1.36835 2.37162.38066.22104.73046.24163.97736.09243l1.07435-.68222z" fill="#56707b"/></g><g><path d="m11.12987 25.91952c.75865.438 1.37364 1.50307 1.37117 2.37478-.00247.87191-.62148 1.22452-1.38013.78652-.75865-.43801-1.37048-1.50124-1.36801-2.37316.00247-.87172.61832-1.22615 1.37697-.78814z" fill="#40545d"/></g><g><path d="m11.2562 26.50352c.41309.2385.74796.81843.74661 1.29309-.00135.47476-.3384.66676-.75149.42826s-.74623-.81744-.74489-1.2922c.00135-.47466.33668-.66765.74977-.42915z" fill="#485f69"/></g><g><path d="m10.68228 26.1181c.80795.46647 1.46267 1.60041 1.46004 2.52875-.00263.92855-.66164 1.30401-1.46959.83754-.80467-.46458-1.46269-1.60042-1.46005-2.52897.00263-.92833.66493-1.30189 1.4696-.83732zm-.00925 3.26065c.75868.43802 1.37815.08505 1.38061-.78309.00247-.87161-.61298-1.93388-1.37167-2.3719-.7554-.43613-1.37486-.08684-1.37733.78477-.00245.86814.61299 1.93409 1.36839 2.37022" fill="#778c95"/></g></g></g><g><path d="m16.34725 26.31627.00515.00502-4.54186 3.19216c.20578-.1698.32923-.46795.32923-.86405.00515-.93112-.64816-2.06292-1.4558-2.53087-.3498-.20597-.67903-.24716-.93108-.15447l5.10258-2.19926v.00502c.19033-.10801.45269-.08741.73561.07736.57614.33432 1.04424 1.14688 1.04424 1.81576-.00001.31901-.10801.54532-.28807.65333z" fill="#485f69"/></g></g><g><g><g enable-background="new"><g><path d="m12.56852 21.59813-1.85025.58219c-.15633.09128-.25621.31409-.25621.5876-.00326.55052.38755 1.2246.86629 1.50145.24099.13994.46244.15298.61876.05852l.68016-.43191z" fill="#56707b"/></g><g><path d="m11.61715 22.07868c.48029.2773.86964.95158.86807 1.50345-.00156.552-.39345.77523-.87375.49794s-.86764-.95042-.86607-1.50242c.00157-.55187.39146-.77626.87175-.49897z" fill="#40545d"/></g><g><path d="m11.69713 22.44841c.26152.15099.47352.51814.47267.81864-.00085.30057-.21424.42212-.47576.27113s-.47243-.51751-.47158-.81808c.00085-.3005.21315-.42268.47467-.27169z" fill="#485f69"/></g><g><path d="m11.33378 22.20441c.51151.29532.926 1.0132.92434 1.60093-.00167.58786-.41888.82556-.93038.53024-.50943-.29412-.92601-1.01321-.92435-1.60107.00167-.58772.42096-.82422.93039-.5301zm-.00585 2.06428c.48031.27731.87249.05385.87405-.49577.00156-.55181-.38807-1.22432-.86839-1.50163-.47824-.27611-.87041-.05498-.87197.49683-.00156.54962.38807 1.22446.86631 1.50057" fill="#778c95"/></g></g></g><g><path d="m14.92022 22.32986.00326.00318-2.8754 2.02093c.13027-.1075.20843-.29625.20843-.54702.00326-.58948-.41035-1.30602-.92165-1.60227-.22145-.13039-.42989-.15647-.58946-.0978l3.23039-1.39233v.00318c.1205-.06838.28659-.05534.4657.04898.36475.21165.6611.72608.6611 1.14954 0 .20196-.06838.34523-.18237.41361z" fill="#485f69"/></g></g></g><g><g><g><g enable-background="new"><g><path d="m23.62868 27.16345-.003 1.06044-8.35414 4.85489.00301-1.06044z" fill="#9aa1a5"/></g><g><path d="m15.27455 32.01834-.00301 1.06044-4.23804-16.34646.00301-1.06044z" fill="#b0b8bc"/></g><g><path d="m12.54776 15.00051 6.51273 8.49594 4.56819 3.667-8.35413 4.85489-4.23804-16.34646z" fill="#cfd8dd"/></g><path d="m23.62868 27.16345-1.88654 1.09634-9.19438-13.25928z" fill="#b0b8bc"/></g><g><g enable-background="new"><g><path d="m40.22236 17.01379-.00162.57103-4.79816 1.99909.00162-.57103z" fill="#c6c5c5"/></g><g><path d="m35.4242 19.01288-.00162.57103-1.359-5.29229.00161-.57103z" fill="#b0b8bc"/></g><g><path d="m40.22292 17.01382-4.79852 1.99881-1.35899-5.29238 1.43838-.83596 4.39105 3.84233z" fill="#cfd8dd"/></g><path d="m39.89484 16.72662-1.10331.47282-3.28774-4.31515z" fill="#b0b8bc"/></g><g><path d="m43.77217 16.02958c-.0105.35727-.49036 1.00875-1.25041 1.82134-.21716.2335-.45884.47983-.71803.73671-.60128.59425-1.30179 1.2434-2.04783 1.90771-.19381.17399-.39112.34792-.5896.52191-3.14529 2.7565-6.81247 5.61926-7.2071 5.9275-.84879.54169-14.36166 9.06344-20.95465 12.86957-1.62286.93636-2.8254 1.58778-3.31693 1.76291-1.46874.52658-3.44418 1.39635-4.88607 1.68595-.70752.14127-1.28661.14474-1.61468-.10159-.11325-.08523-.17513-.24399-.18563-.43782-.01051-.22301.04553-.49272.16579-.7472.11208-.2347.26152-.52658.44949-.86048.1833-.32574.40396-.69002.66549-1.07996.16112-.24165.33858-.49386.53356-.75188 1.01224-1.34498 2.4658-2.84993 4.45409-3.99762.06538-.03734.12959-.07354.19497-.10974l26.9487-15.9273c.07238-.03734.36893-.19263.8161-.41798.04203-.02104.0864-.04321.13193-.06539.32107-.1611.70869-.35259 1.1395-.55925.29305-.14007.60594-.28721.93051-.43782.43082-.19844.88264-.40162 1.33915-.59778.3701-.15877.74254-.31286 1.10915-.45766.14243-.05484.28371-.10974.42264-.1611.59543-.22416 1.16401-.41331 1.66488-.54288.53589-.13893.99355-.20899 1.3263-.17861.2195.01986.38411.08291.47868.19846z" fill="#dde4e7"/></g><g><path d="m43.77217 16.02958c-.0105.35727-.49036 1.00875-1.25041 1.82134-.21716.2335-.45884.47983-.71803.73671-.60128.59425-1.30179 1.2434-2.04783 1.90771-.19381.17399-.39112.34792-.5896.52191-3.14529 2.7565-6.81247 5.61926-7.2071 5.9275-.84879.54169-14.36166 9.06344-20.95465 12.86957-1.62286.93636-2.8254 1.58778-3.31693 1.76291-1.46874.52658-3.44418 1.39635-4.88607 1.68595-.70752.14127-1.28661.14474-1.61468-.10159-.11325-.08523-.17513-.24399-.18563-.43782.33975.13773.83828.11441 1.42554-.00233 1.44189-.28954 3.41733-1.15937 4.88608-1.68589.49152-.17513 1.69407-.82661 3.31692-1.76297 6.59299-3.80613 20.10587-12.32783 20.95465-12.86957.39462-.30824 4.0618-3.171 7.2071-5.9275.19848-.17393.39579-.34792.5896-.52191.74605-.66431 1.44656-1.31346 2.04783-1.90771.25919-.25688.50087-.50321.71803-.73671.55924-.59773.96554-1.10795 1.14651-1.47804.21949.01984.3841.08289.47867.19844z" fill="#778c95"/></g><g><g enable-background="new"><g><path d="m43.80794 7.7594-.47455-.27578 1.4621-.84415.47454.27578z" fill="#f17572"/></g><g><path d="m35.74961 20.40758-.47455-.27578 8.05833-12.64818.47455.27578z" fill="#ee5550"/></g><g><path d="m45.27003 6.91525-3.67441 10.11713-5.84601 3.3752 8.05833-12.64818z" fill="#cb4844"/></g></g></g><g enable-background="new"><g><path d="m49 20.31816-.00162.57104-1.4382.83579.00162-.57103z" fill="#9aa1a5"/></g><g><path d="m47.5618 21.15396-.00162.57103-9.14175-.77032.00161-.57103z" fill="#b0b8bc"/></g><g><path d="m49 20.31816-1.4382.8358-9.14176-.77032 3.43554-2.78581z" fill="#cfd8dd"/></g></g><path d="m41.59562 17.03238-2.05412 1.18595 4.48346-9.82098.9385-.63795z" fill="#fed44c"/><path d="m41.85558 17.59783-.95246.77233 8.09688 1.948z" fill="#b0b8bc"/></g><g enable-background="new"><g><path d="m47.55133 36.02848-.003.50201-1.15327.87805.003-.50201z" fill="#9aa1a5"/></g><g><path d="m46.39806 36.90653-.003.50201-28.23423-2.40141.00301-.502z" fill="#b0b8bc"/></g><g><path d="m47.55133 36.02848-1.15327.87805-28.23422-2.4014 8.35413-4.8549 6.3456 2.63408z" fill="#cfd8dd"/></g></g><g><g><path d="m33.58177 23.6793c-.18637.11263-.33363.3799-.32868.5969l.00962.42102c.00495.21666.16024.30108.34662.18845l.15678-.09475c.18652-.11272.33378-.37999.32883-.59664l-.00962-.42102c-.00496-.217-.16024-.30143-.34677-.1887z" fill="#778c95"/></g><g><path d="m32.01802 24.62433c-.18637.11263-.33363.3799-.32867.5969l.00961.42102c.00495.21666.16024.30108.34662.18845l.15678-.09475c.18652-.11272.33378-.37999.32883-.59665l-.00961-.42102c-.00496-.217-.16025-.30143-.34678-.1887z" fill="#778c95"/></g><g><path d="m30.45427 25.56936c-.18638.11263-.33363.3799-.32868.5969l.00962.42102c.00495.21666.16024.30108.34661.18845l.15678-.09475c.18653-.11272.33378-.37999.32883-.59665l-.00962-.42102c-.00496-.217-.16025-.30143-.34677-.1887z" fill="#778c95"/></g><g><path d="m28.89052 26.51439c-.18638.11263-.33363.3799-.32868.5969l.00962.42102c.00495.21666.16024.30108.34662.18845l.15663-.09466c.18667-.11281.33378-.37999.32883-.59664l-.00962-.42102c-.00496-.217-.1601-.30152-.34677-.1887z" fill="#778c95"/></g><g><path d="m27.32677 27.45942c-.18638.11263-.33363.3799-.32868.5969l.00962.42102c.00495.21666.16024.30108.34661.18845l.15663-.09466c.18667-.11281.33378-.37999.32883-.59664l-.00961-.42102c-.00496-.217-.1601-.30152-.34677-.1887z" fill="#778c95"/></g><g><path d="m25.76302 28.40445c-.18653.11272-.33363.3799-.32868.5969l.00962.42102c.00495.21666.16009.30117.34661.18845l.15663-.09466c.18667-.11281.33378-.37999.32883-.59664l-.00962-.42102c-.00496-.217-.1601-.30152-.34677-.1887z" fill="#778c95"/></g><g><path d="m19.50794 32.18459c-.18653.11272-.33363.3799-.32868.5969l.00962.42102c.00495.21666.16009.30117.34661.18845l.15663-.09466c.18653-.11272.33378-.37999.32883-.59664l-.00962-.42102c-.00496-.217-.16025-.30143-.34677-.1887z" fill="#778c95"/></g><g><path d="m17.94404 33.12971c-.18638.11263-.33348.37981-.32853.59681l.00962.42102c.00495.21666.16009.30117.34647.18853l.15678-.09475c.18653-.11272.33378-.37999.32883-.59664l-.00962-.42102c-.00496-.217-.16025-.30143-.34677-.1887z" fill="#778c95"/></g><g><path d="m16.38029 34.07475c-.18638.11263-.33364.37989-.32868.5969l.00962.42102c.00495.21666.16024.30108.34661.18845l.15678-.09475c.18652-.11272.33378-.37999.32883-.59664l-.00962-.42102c-.00496-.217-.16025-.30143-.34677-.1887z" fill="#778c95"/></g><g><path d="m14.81654 35.01978c-.18638.11263-.33363.37989-.32868.5969l.00962.42102c.00495.21666.16024.30108.34661.18845l.15678-.09475c.18653-.11272.33378-.37999.32883-.59664l-.00962-.42102c-.00496-.217-.16025-.30143-.34677-.1887z" fill="#778c95"/></g><g><path d="m13.25279 35.96481c-.18638.11263-.33363.37989-.32868.5969l.00962.42102c.00495.21666.16024.30108.34662.18845l.15663-.09465c.18667-.11282.33393-.38008.32898-.59674l-.00962-.42102c-.00496-.217-.16025-.30143-.34692-.18861z" fill="#778c95"/></g><g><path d="m11.68904 36.90984c-.18638.11263-.33363.37989-.32868.5969l.00962.42102c.00495.21666.16024.30108.34661.18845l.15663-.09465c.18667-.11282.33378-.37999.32883-.59665l-.00962-.42102c-.00496-.21701-.1601-.30152-.34677-.18871z" fill="#778c95"/></g><g><path d="m10.12529 37.85487c-.18638.11263-.33363.37989-.32868.5969l.00962.42102c.00495.21666.16024.30108.34661.18845l.15663-.09465c.18668-.11282.33378-.37999.32883-.59665l-.00962-.42102c-.00496-.21701-.1601-.30152-.34677-.18871z" fill="#778c95"/></g><g><g><path d="m8.29234 40.02874c-.03825 0-.07422-.00883-.1066-.02662-.07936-.04359-.12456-.13407-.1273-.25475l-.00964-.42102c-.00536-.2345.14828-.51358.3498-.63536v-.00001l.15666-.09465c.10438-.0631.20586-.07381.28578-.02995.07935.04361.12462.1342.12741.25512l.00958.42102c.00536.23432-.14839.5133-.34997.63512l-.1566.09465c-.06203.0375-.12308.05645-.17912.05645zm.15153-1.26281c-.17422.10529-.31212.3558-.3075.55843l.00963.42102c.002.08815.03107.15207.08192.17999.05108.02818.12171.01824.19827-.02802l.1566-.09465c.17427-.10532.31235-.35572.30767-.55817l-.00958-.42102c-.002-.08837-.03113-.15244-.08203-.18037-.05119-.02815-.1216-.01818-.19833.02813z" fill="#cfd8dd"/></g></g></g><g><path d="m2.80156 43.26319c-.70752.14127-1.28661.14474-1.61468-.10159-.24518-.18334-.24518-.711-.01985-1.18502.11208-.2347.26152-.52658.44949-.86048.62346.48919 1.0893.44027 1.18504 2.14709z" fill="#40545d"/></g><path d="m5.41447 40.58604s-.32924.70399-.47168.77525c0 0-2.42611.05017-2.66078-1.32515.16112-.24165.33858-.49386.53356-.75188.03619.26971.22183 1.33217 2.5989 1.30178z" fill="#40545d"/></g><g><g><path d="m34.73837 24.05619c-.03825 0-.07423-.00883-.10661-.02662-.07936-.0436-.12456-.13407-.1273-.25475l-.00963-.42102c-.00536-.2345.14828-.51358.3498-.63537v-.00001l.15665-.09465c.10438-.0631.20586-.0738.28578-.02994.07935.0436.12462.1342.12741.25513l.00958.42102c.00536.23432-.14839.5133-.34997.63512l-.1566.09465c-.06202.03749-.12307.05644-.17911.05644zm.15153-1.26282c-.17421.10529-.31211.3558-.3075.55844l.00964.42102c.002.08815.03107.15207.08192.17999.05108.02818.12171.01824.19827-.02802l.1566-.09465c.17427-.10532.31234-.35571.30767-.55817l-.00958-.42102c-.002-.08837-.03113-.15243-.08204-.18037-.05119-.02815-.1216-.01818-.19833.02813z" fill="#cfd8dd"/></g></g></g><path d="m26.51797 29.65023-2.18899 1.27211 23.22235 5.10614z" fill="#b0b8bc"/></g></g></svg>