<svg height="512" viewBox="0 0 48 48" width="512" xmlns="http://www.w3.org/2000/svg"><g id="_04-apple" data-name="04-apple"><path d="m43 24c0 12.16-6.71 23-15 23-2 0-1.79-1-4-1s-2 1-4 1c-8.29 0-15-10.84-15-23 0-9.94 9.06-13 19-13s19 3.06 19 13z" fill="#da1202"/><path d="m20 5c3.83 0 5.95 5.34 6 10.81a9.63 9.63 0 0 1 -2 .19 9.5 9.5 0 0 1 -1.98-.19c.89-6.85-4.02-8.81-4.02-8.81z" fill="#527710"/><path d="m43 2s-2 9-16 9h-2v-2c0-4.42 5.03-8 10-8 0 0 6 0 8 1z" fill="#63b300"/><path d="m43 24c0 12.16-6.71 23-15 23-2 0-1.79-1-4-1s-2 1-4 1c-8.29 0-15-10.84-15-23 0-9.94 9.06-13 19-13s19 3.06 19 13z" fill="#da1202"/><path d="m24 11c-9.94 0-19 3.06-19 13 0 12.16 6.71 23 15 23 2 0 1.79-1 4-1s2 1 4 1c8.29 0 15-10.84 15-23 0-9.94-9.06-13-19-13zm5.368 32c-1.684 0-1.507-.833-3.368-.833s-1.684.833-3.368.833c-6.981 0-12.632-9.033-12.632-19.167 0-8.283 7.629-11.833 16-11.833s16 3.55 16 11.833c0 10.134-5.651 19.167-12.632 19.167z" fill="#961300"/><path d="m29 14s-1-1-5-1-5 1-5 1 1 2 5 2 5-2 5-2z" fill="#961300"/><path d="m20 5c3.83 0 5.95 5.34 6 10.81a9.63 9.63 0 0 1 -2 .19 9.5 9.5 0 0 1 -1.98-.19c.89-6.85-4.02-8.81-4.02-8.81z" fill="#527710"/><path d="m19.335 5.665-1.335 1.335s4.91 1.96 4.02 8.81a9.5 9.5 0 0 0 1.956.19c-.188-4.969-2.076-8.851-4.641-10.335z" fill="#436600"/><path d="m23.967 16a9.489 9.489 0 0 1 -1.947-.188 9.489 9.489 0 0 0 1.947.188z" fill="#527710"/><path d="m23.8 14c.089.645.155 1.308.181 2h.019a9.63 9.63 0 0 0 2-.19c-.006-.608-.041-1.213-.1-1.81z" fill="#436600"/><path d="m23.976 15.999-.009-.001z" fill="#2f4700"/><path d="m22.112 14a11.965 11.965 0 0 1 -.092 1.81 9.489 9.489 0 0 0 1.947.19h.009c-.026-.691-.092-1.354-.181-2z" fill="#224326"/><path d="m22.057 13.092c-2.396.247-3.057.908-3.057.908a2.579 2.579 0 0 0 .568.667 8.4 8.4 0 0 1 2.545-.58c-.004-.346-.021-.679-.056-.995z" fill="#b31700"/><path d="m28.432 14.667a2.579 2.579 0 0 0 .568-.667s-.693-.685-3.2-.921c.046.334.085.67.115 1.01a8.354 8.354 0 0 1 2.517.578z" fill="#b31700"/><path d="m43 2s-2 9-16 9h-2v-2c0-4.42 5.03-8 10-8 0 0 6 0 8 1z" fill="#63b300"/><path d="m42.977 2.09c.015-.057.023-.09.023-.09-2-1-8-1-8-1-4.97 0-10 3.58-10 8v1.9c2.443-3.795 9.171-7.155 17.977-8.81z" fill="#9cdf00"/><path d="m37.625 16.394a4.131 4.131 0 0 0 -4.439-1.185 10.791 10.791 0 0 0 -2.007 1.036 12.886 12.886 0 0 1 -6.653 1.474c-.854-.036-1.924-.077-2.331.443a.734.734 0 0 0 .243 1.018 4.011 4.011 0 0 0 1.3.608c3.609 1.169 7.914 1.72 11.558.605a6.514 6.514 0 0 0 1.378-.57 2.292 2.292 0 0 0 .951-3.429z" fill="#f75749"/><path d="m32.8 23.17a1.591 1.591 0 0 0 -1.036.566 1.726 1.726 0 0 0 -.187.826 34.384 34.384 0 0 1 -3.034 12.191 4.982 4.982 0 0 0 -.539 1.621 1.528 1.528 0 0 0 .659 1.477 1.825 1.825 0 0 0 1.174.1 9.633 9.633 0 0 0 5.788-3.7 22.339 22.339 0 0 0 3.252-6.306 18.488 18.488 0 0 0 1.047-3.838 5.054 5.054 0 0 0 -.258-2.748c-1.198-2.659-4.866-.684-6.866-.189z" fill="#f75749"/><ellipse cx="18" cy="17" fill="#f75749" rx="1.684" ry="3.187" transform="matrix(.401 -.916 .916 .401 -4.793 26.668)"/><path d="m26 12c-.129 0-.256.009-.384.01q.1.527.179 1.069a6.848 6.848 0 0 1 3.057.81c.051.033.087.06.111.079l.006.005.031.027-.027.047v.008a2.813 2.813 0 0 1 -.535.612 5.257 5.257 0 0 1 -2.438 1.133v.008c-.064.014-.143.019-.209.032-.179.033-.365.062-.563.085-.1.012-.2.022-.306.03-.29.025-.592.043-.922.043s-.64-.018-.933-.044c-.087-.007-.171-.015-.254-.025-.27-.03-.528-.068-.764-.116h-.029a5.27 5.27 0 0 1 -2.452-1.14 2.813 2.813 0 0 1 -.535-.612v-.008l-.033-.053.024-.021.014-.011a.971.971 0 0 1 .095-.069l.022-.015c.044-.028.1-.06.164-.1l.022-.013c.072-.038.159-.079.257-.121l.064-.027c.106-.044.225-.089.363-.135l.045-.013c.132-.043.28-.084.442-.125l.087-.022c.176-.042.371-.082.583-.119l.133-.021c.229-.037.471-.072.742-.1-.029-.271-.063-.536-.112-.786a16.457 16.457 0 0 0 -8.471 3.577 38.1 38.1 0 0 0 16.383 17.521 34.424 34.424 0 0 0 1.722-8.842 1.724 1.724 0 0 1 .187-.826 1.591 1.591 0 0 1 1.034-.562c2-.5 5.666-2.469 6.866.189a5.054 5.054 0 0 1 .258 2.748 18.55 18.55 0 0 1 -1.047 3.838 22.939 22.939 0 0 1 -3.073 6.048c.9.3 1.807.584 2.734.821a25.186 25.186 0 0 0 3.462-12.981c0-8.283-7.629-11.833-16-11.833zm-5.057 6.22c-.312.878-1.883 1.043-3.508.37s-2.69-1.932-2.378-2.81 1.883-1.043 3.508-.37 2.69 1.932 2.378 2.81zm15.732 1.6a6.514 6.514 0 0 1 -1.378.57c-3.644 1.115-7.949.564-11.558-.605a4.011 4.011 0 0 1 -1.3-.608.734.734 0 0 1 -.243-1.018c.407-.52 1.477-.479 2.331-.443a12.886 12.886 0 0 0 6.653-1.474 10.791 10.791 0 0 1 2.007-1.036 4.131 4.131 0 0 1 4.439 1.185 2.292 2.292 0 0 1 -.951 3.432z" fill="#f75749"/><path d="m21.945 12.306a8.235 8.235 0 0 0 -.344-1.235 27.139 27.139 0 0 0 -9.315 1.95c.355.975.757 1.926 1.188 2.862a16.457 16.457 0 0 1 8.471-3.577z" fill="#da1202"/><path d="m26 12c8.371 0 16 3.55 16 11.833a25.186 25.186 0 0 1 -3.46 12.981c.541.139 1.087.263 1.637.378a31.535 31.535 0 0 0 2.823-13.192c0-9.473-8.231-12.69-17.607-12.972q.124.481.223.982c.128-.001.255-.01.384-.01z" fill="#da1202"/><path d="m19.662 13.627c.106-.044.225-.089.363-.135-.138.046-.257.091-.363.135z" fill="#961300"/><path d="m20.07 13.479c.132-.043.28-.084.442-.125-.162.046-.312.082-.442.125z" fill="#961300"/><path d="m19.341 13.775c.072-.038.159-.079.257-.121-.098.046-.185.083-.257.121z" fill="#961300"/><path d="m21.315 13.192c.228-.038.471-.072.742-.1-.271.028-.513.063-.742.1z" fill="#961300"/><path d="m22.111 14.088a8.4 8.4 0 0 0 -2.543.579 5.27 5.27 0 0 0 2.452 1.14c.045-.346.066-.672.082-.994.01-.248.012-.489.009-.725z" fill="#b31700"/><g fill="#961300"><path d="m25.8 13.079a6.89 6.89 0 0 1 3.057.81 6.848 6.848 0 0 0 -3.057-.81z"/><path d="m19.155 13.884c.044-.028.1-.061.164-.1-.066.04-.119.072-.164.1z"/><path d="m20.6 13.332c.176-.042.371-.082.583-.119-.213.037-.408.077-.583.119z"/><path d="m22.112 14c-.006-.315-.023-.619-.055-.908.033.3.049.626.054.959 0-.017.001-.035.001-.051z"/><path d="m19.032 14.055a2.813 2.813 0 0 0 .535.612 2.853 2.853 0 0 1 -.535-.612z"/><path d="m24.922 15.957c-.292.024-.593.043-.922.043.33 0 .632-.018.922-.043z"/><path d="m25.791 15.842c-.179.033-.364.063-.563.085.198-.027.384-.052.563-.085z"/><path d="m29 14-.027.047z"/><path d="m28.97 13.974.03.026z"/><path d="m28.853 13.89c.051.033.087.06.111.079-.024-.019-.064-.046-.111-.079z"/><path d="m23.967 16c-.32 0-.616-.018-.9-.042.293.026.6.044.933.044h-.033z"/><path d="m19.038 13.968c.021-.017.053-.041.095-.069a.971.971 0 0 0 -.095.069z"/><path d="m19 14 .024-.021z"/><path d="m19.027 14.047-.027-.047z"/><path d="m22.813 15.931c-.27-.03-.529-.067-.764-.116.236.048.494.085.764.116z"/><path d="m28.433 14.667a2.813 2.813 0 0 0 .535-.612 2.853 2.853 0 0 1 -.535.612z"/></g><path d="m26 15.8a5.257 5.257 0 0 0 2.432-1.135 8.354 8.354 0 0 0 -2.522-.578c.051.568.084 1.14.09 1.713z" fill="#b31700"/><path d="m23.123 11.017c.292 0 .583-.017.877-.017.467 0 .93.014 1.393.028l-.007-.028h-.386v-1.255c-.984-2.771-2.675-4.745-5-4.745l-.665.665a9.388 9.388 0 0 1 3.788 5.352z" fill="#527710"/><path d="m22.814 15.931c.083.01.167.018.254.025h-.02c-.08-.009-.157-.016-.234-.025z" fill="#527710"/><path d="m24 13c.685 0 1.276.031 1.8.079q-.077-.542-.179-1.069-1.107.015-2.187.116c.072.286.134.58.192.88.121-.006.242-.006.374-.006z" fill="#527710"/><path d="m22.02 15.81h.029z" fill="#527710"/><path d="m26 15.81v-.008z" fill="#527710"/><path d="m23.123 11.017c.116.355.212.73.306 1.109q1.08-.1 2.187-.116-.1-.5-.223-.982c-.463-.014-.926-.028-1.393-.028-.294 0-.585.012-.877.017z" fill="#527710"/><path d="m25.9 14c-.029-.309-.063-.617-.1-.921-.524-.048-1.115-.079-1.8-.079-.132 0-.253 0-.379.006.064.326.127.653.174.994z" fill="#527710"/><path d="m23.965 16c-.327 0-.629-.019-.918-.044h.02c.284.024.58.041.9.042z" fill="#527710"/><path d="m25.91 14.089v-.039c.053.579.088 1.164.094 1.752-.006-.575-.039-1.147-.09-1.713z" fill="#527710"/><path d="m22.049 15.815c.235.049.494.086.764.116-.269-.031-.528-.067-.764-.116z" fill="#527710"/><path d="m19.335 5.665-1.335 1.335a7.1 7.1 0 0 1 3.6 4.071c.5-.027 1.011-.044 1.522-.054a9.388 9.388 0 0 0 -3.787-5.352z" fill="#436600"/><path d="m23.621 13.006c-.058-.3-.12-.594-.192-.88q-.751.069-1.484.18c.049.25.083.515.112.786.454-.047.979-.076 1.564-.086z" fill="#436600"/><path d="m22.815 15.932c.077.009.154.016.233.023h-.008c-.077-.008-.152-.015-.225-.023z" fill="#436600"/><path d="m22.02 15.807v.003z" fill="#436600"/><path d="m22.049 15.815h-.029z" fill="#436600"/><path d="m23.429 12.126c-.094-.379-.19-.754-.306-1.109-.511.01-1.018.027-1.522.054a8.235 8.235 0 0 1 .344 1.235q.734-.106 1.484-.18z" fill="#436600"/><path d="m22.1 14.813c-.016.322-.037.648-.082.994.047-.346.072-.675.082-.994z" fill="#436600"/><path d="m23.047 15.954c.289.025.591.043.918.044-.33 0-.634-.019-.926-.045z" fill="#436600"/><path d="m23.8 14c-.047-.341-.11-.668-.174-.994-.585.01-1.11.039-1.564.086.032.289.049.593.055.908z" fill="#436600"/><path d="m22.049 15.815c.236.049.5.086.765.116-.27-.031-.529-.067-.765-.116z" fill="#436600"/><path d="" fill="#527710"/><path d="m23.965 15.998h.002z" fill="#527710"/><path d="m22.049 15.814h-.029z" fill="#527710"/><path d="m23.039 15.953c-.076-.006-.149-.013-.222-.021.071.008.146.015.222.021z" fill="#527710"/><path d="m22.816 15.932c-.272-.031-.531-.068-.767-.118.236.049.5.086.766.117z" fill="#527710"/><path d="m23.038 15.953c.292.026.6.044.926.045-.329.002-.633-.019-.926-.045z" fill="#527710"/><path d="" fill="#436600"/><path d="m25.228 15.927c-.1.012-.2.021-.306.03.105-.008.206-.018.306-.03z" fill="#436600"/><path d="m25.791 15.842c.066-.013.145-.018.209-.032v-.01c-.067.017-.139.029-.209.042z" fill="#436600"/><path d="m25.906 14.05-.006-.05h-2.1c.023.168.04.34.059.511.057.485.1.977.122 1.488h.019c.329 0 .63-.019.922-.043.1-.009.207-.018.306-.03.2-.022.384-.052.563-.085.07-.013.142-.025.209-.04-.006-.587-.041-1.172-.094-1.751z" fill="#436600"/><path d="m23.854 14.511c-.019-.171-.036-.343-.059-.511.023.168.04.341.059.511z" fill="#436600"/><path d="m22.112 14v.051s0 .024 0 .036c0 .236 0 .477-.009.725.014-.281.014-.548.009-.812z" fill="#224326"/><path d="m23.967 15.998.009.001z" fill="#224326"/><path d="m23.976 16c-.019-.511-.065-1-.122-1.488.055.486.1.977.122 1.488z" fill="#224326"/><path d="m23.967 15.998h-.002z" fill="#224326"/><path d="m23.967 15.998.009.001z" fill="#224326"/><path d="m22.02 15.807h.029z" fill="#224326"/><path d="m22.816 15.932c.073.008.146.015.222.021-.075-.006-.15-.013-.222-.021z" fill="#224326"/><path d="m22.112 14c.005.264.005.531-.01.813-.012.319-.037.648-.082.994l.029.007c.236.05.5.087.767.118.072.008.147.015.222.021.293.026.6.044.927.045h.011c-.019-.511-.067-1-.122-1.488-.019-.17-.036-.343-.059-.511z" fill="#224326"/><path d="m20.025 13.492.045-.013z" fill="#b31700"/><path d="m19.319 13.788.022-.013z" fill="#b31700"/><path d="m19.133 13.9.022-.015z" fill="#b31700"/><path d="m19.6 13.654.064-.027z" fill="#b31700"/><path d="m20.512 13.354.087-.022z" fill="#b31700"/><path d="" fill="#b31700"/><path d="m19.032 14.055v-.008z" fill="#b31700"/><path d="m19.568 14.667h-.001z" fill="#b31700"/><path d="m19.024 13.979.014-.011z" fill="#b31700"/><path d="m21.182 13.213.133-.021z" fill="#b31700"/><path d="m22.111 14.051c0-.333-.021-.654-.054-.959-.271.028-.514.062-.742.1l-.133.021c-.212.037-.407.077-.583.119l-.087.022c-.162.041-.31.082-.442.125l-.045.013c-.138.046-.257.091-.363.135l-.064.027c-.1.042-.185.083-.257.121l-.022.013c-.066.035-.12.068-.164.1l-.022.015c-.042.028-.074.052-.095.069l-.014.011-.024.017.027.047v.008a2.853 2.853 0 0 0 .535.612 8.4 8.4 0 0 1 2.543-.579z" fill="#da1202"/><path d="m22.111 14.051v.037c.002-.013 0-.025 0-.037z" fill="#b31700"/><path d="" fill="#b31700"/><path d="m28.964 13.969.006.005z" fill="#b31700"/><path d="m28.973 14.047v.008z" fill="#b31700"/><path d="m28.432 14.667h.001z" fill="#b31700"/><path d="" fill="#b31700"/><path d="m25.9 14c0 .029.005.059.007.088a8.354 8.354 0 0 1 2.522.578 2.853 2.853 0 0 0 .535-.612v-.008l.036-.046-.03-.026-.006-.005c-.024-.019-.06-.046-.111-.079a6.89 6.89 0 0 0 -3.057-.81c.041.304.078.61.104.92z" fill="#da1202"/><path d="m25.91 14.089c0-.029 0-.059-.007-.088v.049z" fill="#b31700"/><path d="m25.9 14c-.029-.31-.066-.616-.108-.921.042.3.076.612.1.921z" fill="#b31700"/><path d="m25.903 14v.001z" fill="#b31700"/><path d="m25.906 14.05c0-.016 0-.033 0-.049z" fill="#b31700"/><path d="m25.256 10.542c.045.152.09.3.13.458h1.614c14 0 16-9 16-9s-.008.033-.023.09c-8.528 1.603-15.095 4.81-17.721 8.452z" fill="#63b300"/><path d="m25 10.9v.1h.386c-.04-.156-.085-.306-.13-.458-.085.118-.179.236-.256.358z" fill="#63b300"/><path d="m42.977 2.09c.015-.057.023-.09.023-.09-2-1-8-1-8-1-4.97 0-10 3.58-10 8v.745q.138.389.256.8c2.626-3.645 9.193-6.852 17.721-8.455z" fill="#9cdf00"/><path d="m25.256 10.542q-.119-.408-.256-.8v1.158c.077-.122.171-.24.256-.358z" fill="#9cdf00"/><path d="m33.186 15.209a10.791 10.791 0 0 0 -2.007 1.036 12.886 12.886 0 0 1 -6.653 1.474c-.854-.036-1.924-.077-2.331.443a.734.734 0 0 0 .243 1.018 4.011 4.011 0 0 0 1.3.608c3.609 1.169 7.914 1.72 11.558.605a6.514 6.514 0 0 0 1.378-.57 2.292 2.292 0 0 0 .95-3.429 4.131 4.131 0 0 0 -4.438-1.185z" fill="#f7786d"/><path d="m38.879 29.945a18.55 18.55 0 0 0 1.047-3.838 5.054 5.054 0 0 0 -.258-2.748c-1.2-2.658-4.867-.684-6.866-.189a1.591 1.591 0 0 0 -1.036.566 1.724 1.724 0 0 0 -.187.826 34.424 34.424 0 0 1 -1.722 8.838 37.757 37.757 0 0 0 5.949 2.589 22.939 22.939 0 0 0 3.073-6.044z" fill="#f7786d"/><path d="m18.565 15.41c-1.625-.673-3.2-.508-3.508.37s.752 2.136 2.378 2.81 3.2.508 3.508-.37-.752-2.136-2.378-2.81z" fill="#f7786d"/><ellipse cx="35.675" cy="17.823" fill="#f6fafd" rx="1.65" ry="2.297" transform="matrix(.707 -.707 .707 .707 -2.149 30.46)"/><ellipse cx="33.675" cy="19.823" fill="#f6fafd" rx=".825" ry="1.148" transform="matrix(.707 -.707 .707 .707 -4.15 29.631)"/><ellipse cx="29.675" cy="4.823" fill="#f6fafd" rx="1.148" ry=".825" transform="matrix(.707 -.707 .707 .707 5.275 22.388)"/><ellipse cx="31.421" cy="18.323" fill="#f6fafd" rx=".413" ry=".574" transform="matrix(.707 -.707 .707 .707 -3.75 27.597)"/><ellipse cx="39.421" cy="20.323" fill="#f6fafd" rx=".413" ry=".574" transform="matrix(.707 -.707 .707 .707 -2.82 33.842)"/></g></svg>