<svg height="512pt" viewBox="0 0 512 512" width="512pt" xmlns="http://www.w3.org/2000/svg"><path d="m326.667969 185.378906s-8.828125 46.433594 8.824219 83.578125c15.714843 33.058594 10.417968 73.546875-15.886719 95.09375h-286.015625c-26.304688-21.546875-31.601563-62.035156-15.890625-95.09375 17.65625-37.144531 8.828125-83.578125 8.828125-83.578125zm0 0" fill="#7f5b53"/><path d="m353.148438 450.207031v17.65625l-18.183594 44.136719h-317.265625c-10.515625-.902344-18.371094-10.066406-17.652344-20.597656v-41.195313zm0 0" fill="#fdd7ad"/><path d="m353.148438 441.378906v17.65625h-353.101563v-17.65625c-.015625-48.308594 32.667969-90.507812 79.445313-102.574218v84.917968h35.3125v-88.273437h123.585937v88.273437h35.308594v-84.917968c28.550781 7.5625 52.742187 26.519531 66.914062 52.433593 1.675781 3.179688 3.179688 6.445313 4.589844 9.800781 2.3125 5.597657 4.144531 11.386719 5.472656 17.300782 1.632813 7.570312 2.460938 15.292968 2.472657 23.039062zm0 0" fill="#e64c3c"/><path d="m114.804688 335.449219v17.652343c0 19.503907 15.808593 35.3125 35.308593 35.3125h52.964844c19.503906 0 35.3125-15.808593 35.3125-35.3125v-17.652343zm0 0" fill="#fdd7ad"/><path d="m150.113281 288.925781h52.964844v73.003907h-52.964844zm0 0" fill="#fdd7ad"/><path d="m203.078125 288.925781v17.65625c-8.734375 1.605469-17.597656 2.402344-26.480469 2.382813-8.886718.035156-17.757812-.792969-26.484375-2.472656v-17.566407zm0 0" fill="#f09372"/><path d="m326.578125 167.722656c.089844-1.582031.089844-12.484375.089844-13.976562.996093-83.886719-66.183594-152.714844-150.070313-153.746094-83.890625 1.03125-151.066406 69.859375-150.070312 153.746094 0 1.492187 0 12.394531.089844 13.976562zm0 0" fill="#af8066"/><path d="m308.394531 158.898438h18.273438c9.71875.066406 17.582031 7.933593 17.652343 17.652343-.027343 9.738281-7.914062 17.628907-17.652343 17.65625h-300.140625c-9.738282-.027343-17.625-7.917969-17.65625-17.65625.070312-9.71875 7.9375-17.585937 17.65625-17.652343zm0 0" fill="#f09372"/><path d="m48.332031 140.183594v.085937c-.792969 3.003907-1.589843 6.003907-2.207031 9.09375-.527344 3.175781-1.058594 6.355469-1.324219 9.535157-.429687 3.777343-.636719 7.582031-.617187 11.386718.011718 4.1875.25 8.371094.707031 12.535156.441406 3.707032 1.058594 7.324219 1.851563 10.945313 12.195312 49.617187 52.917968 87.105469 103.371093 95.160156 17.511719 3.179688 35.453125 3.179688 52.964844 0 50.304687-8.109375 90.953125-45.390625 103.371094-94.808593.796875-3.707032 1.414062-7.503907 1.855469-11.296876.457031-4.164062.695312-8.347656.707031-12.535156.019531-3.804687-.1875-7.609375-.617188-11.386718-.265625-3.179688-.796875-6.359376-1.324219-9.535157-.53125-2.558593-1.148437-5.121093-1.855468-7.679687-5.832032-12.929688-13.472656-24.96875-22.6875-35.753906-105.929688 8.828124-141.242188-52.964844-141.242188-52.964844s-12.355468 43.078125-88.273437 61.792968l-4.679688 25.511719" fill="#fdd7ad"/><path d="m70.667969 423.722656h211.859375c4.875 0 8.828125 3.953125 8.828125 8.828125v79.449219h-229.515625v-79.449219c0-4.875 3.949218-8.828125 8.828125-8.828125zm0 0" fill="#2c3e50"/><path d="m114.804688 335.449219v88.273437h-35.3125v-84.917968c8.648437-2.246094 17.550781-3.371094 26.484374-3.355469zm0 0" fill="#35495e"/><path d="m273.699219 338.804688v84.917968h-35.308594v-88.273437h8.828125c8.933594-.015625 17.832031 1.109375 26.480469 3.355469zm0 0" fill="#35495e"/><path d="m105.976562 459.035156c0 4.875-3.953124 8.828125-8.828124 8.828125s-8.828126-3.953125-8.828126-8.828125 3.953126-8.828125 8.828126-8.828125 8.828124 3.953125 8.828124 8.828125zm0 0" fill="#3f5c6c"/><path d="m264.871094 459.035156c0 4.875-3.949219 8.828125-8.824219 8.828125s-8.828125-3.953125-8.828125-8.828125 3.953125-8.828125 8.828125-8.828125 8.824219 3.953125 8.824219 8.828125zm0 0" fill="#3f5c6c"/><path d="m141.285156 512s-26.480468-17.65625-8.824218-35.308594c17.652343-17.65625 23.359374 13.847656 44.136718 0 26.480469-17.65625 44.136719-8.828125 44.136719 35.308594zm0 0" fill="#955ba5"/><path d="m350.675781 418.339844-19.066406 12.710937c-1.460937.988281-3.183594 1.511719-4.941406 1.5-3.890625.007813-7.324219-2.527343-8.460938-6.242187-1.140625-3.71875.289063-7.742188 3.515625-9.910156l21.539063-14.390626c.601562-.410156 1.253906-.738281 1.941406-.96875 2.3125 5.597657 4.144531 11.386719 5.472656 17.300782zm0 0" fill="#ecf0f1"/><path d="m340.613281 391.238281-17.476562 13.066407c-1.519531 1.167968-3.382813 1.789062-5.296875 1.765624-2.777344-.019531-5.382813-1.324218-7.0625-3.53125-2.910156-3.90625-2.121094-9.425781 1.765625-12.359374l18.183593-13.59375c.089844 0 .089844-.089844.175782-.089844 3.640625 4.636718 6.890625 9.566406 9.710937 14.742187zm0 0" fill="#ecf0f1"/><path d="m509.042969 341.449219c-2.546875 7.675781-6.566407 14.78125-11.828125 20.921875-7.175782 8.625-18.40625 12.769531-29.464844 10.867187-11.054688-1.898437-20.257812-9.554687-24.140625-20.082031s-1.855469-22.324219 5.320313-30.949219c5.734374-5.683593 13.382812-9.019531 21.449218-9.355469.265625 0 .441406-.089843.707032-.089843 11.410156-2.171875 20.78125-10.285157 24.566406-21.265625.644531-1.605469 2.164062-2.691406 3.894531-2.773438 1.730469-.082031 3.347656.851563 4.140625 2.394532 8.539062 15.355468 10.472656 33.523437 5.355469 50.332031zm0 0" fill="#f9eab0"/><path d="m428.996094 428.082031c-33.234375 40-87.4375 90.578125-96.328125 83.191407-8.886719-7.382813 30.90625-69.9375 64.140625-109.9375 33.230468-39.996094 47.320312-42.292969 56.210937-34.910157 8.886719 7.386719 9.210938 21.65625-24.023437 61.65625zm0 0" fill="#af8066"/><path d="m238.390625 229.515625c-3.570313 0-6.789063-2.148437-8.152344-5.449219-1.367187-3.296875-.613281-7.09375 1.910157-9.617187l8.828124-8.828125c3.464844-3.34375 8.96875-3.296875 12.375.105468 3.40625 3.40625 3.453126 8.914063.105469 12.375l-8.824219 8.828126c-1.65625 1.660156-3.902343 2.589843-6.242187 2.585937zm0 0" fill="#2fa8cc"/><path d="m211.90625 211.863281c-3.570312-.003906-6.785156-2.152343-8.152344-5.449219-1.367187-3.300781-.613281-7.097656 1.914063-9.621093l8.824219-8.828125c3.464843-3.34375 8.972656-3.296875 12.375.109375 3.40625 3.402343 3.453124 8.910156.109374 12.375l-8.828124 8.828125c-1.652344 1.65625-3.898438 2.585937-6.242188 2.585937zm0 0" fill="#2fa8cc"/><g fill="#955ba5"><path d="m125.925781 282.128906c-30.582031-11.160156-55.75-33.578125-70.355469-62.675781 3.441407-15.1875 17.1875-25.785156 32.75-25.246094 44.140626 0 17.65625 35.308594 44.140626 44.136719 20.65625 6.886719 19.859374 29.839844-6.535157 43.785156zm0 0"/><path d="m509.042969 341.449219c-8.273438.636719-16.527344-1.472657-23.480469-6-8.222656-4.765625-13.621094-13.222657-14.476562-22.6875 11.410156-2.171875 20.78125-10.285157 24.566406-21.265625.644531-1.605469 2.164062-2.691406 3.894531-2.773438 1.730469-.082031 3.347656.851563 4.140625 2.394532 8.539062 15.355468 10.472656 33.523437 5.355469 50.332031zm0 0"/></g></svg>