<svg id="Layer_1" enable-background="new 0 0 512 512" height="512" viewBox="0 0 512 512" width="512" xmlns="http://www.w3.org/2000/svg"><g id="XMLID_1_"><g id="XMLID_3687_"><path id="XMLID_1124_" d="m163.6 169.9 165.4-150 38.6-14.9 139.4 139.4-14.9 38.6-150 165.4" fill="#ffc96f"/><path id="XMLID_1143_" d="m311.3 114s-79.6-62.9-164-40.2c0 0-62.4-17.8-62.4 40.4 0 16.5-4.7 26.6 23 31.8s40-15.4 40-15.4 43.6 5 71.1 19.9" fill="#69bdfb"/><path id="XMLID_1678_" d="m148.1 130.7s-12.3 20.6-40 15.4-23-15.4-23-31.8c0-58.3 62.4-40.4 62.4-40.4-18.4 34.1.6 56.8.6 56.8z" fill="#9cd3fc"/><path id="XMLID_1134_" d="m170.7 461.3c-16.2 4.6-35.1 61.5-65.5 41.4s-18.6-64.6-2.4-83.7 114.5-15.8 111.4-121.2c-105.4-3-102.1 95.3-121.2 111.4s-63.6 28-83.7-2.4c-20-30.4 36.8-49.4 41.4-65.5 4.6-16.2-23.3-96.6 100.7-128.5 0 0 88.7-103.1 159.9-98.7l86.7 86.7c4.3 71.3-98.7 159.9-98.7 159.9-32 123.9-112.4 96-128.6 100.6z" fill="#9cd3fc"/><path id="XMLID_1144_" d="m462.8 169.3c-24.9 24.9-64.8 31.4-64.8 31.4l-86.7-86.7s6.5-39.8 31.4-64.8c37-37 92.4-34.9 123.7-3.7s33.3 86.8-3.6 123.8z" fill="#cde9fe"/><path id="XMLID_1146_" d="m438.7 166c-17.5 17.5-46.4-4.9-67.1-25.6s-43.2-49.5-25.6-67.1c28.5-28.5 67.8-22.2 91.4 1.3 23.5 23.6 29.8 62.9 1.3 91.4z" fill="#3279af"/><g id="XMLID_1145_"><path id="XMLID_1727_" d="m421.3 90.7c-12.8-12.8-30.5-17.1-43.9-10.6l-4.4-9c17.3-8.4 39.5-3.3 55.4 12.5z" fill="#cde9fe"/></g><path id="XMLID_1141_" d="m296.4 143.3 14.9-29.3 13.3 13.3-11.9 32.4" fill="#3279af"/><circle id="XMLID_1140_" cx="211.3" cy="224.3" fill="#69bdfb" r="23.4"/><path id="XMLID_1650_" d="m204.8 234.4c-19.5-.1-59.6-1.4-86.2-10.8-13.7-4.8-23.8-11.7-25.8-21.5-7.3-35.8 101.7-33 103-33-7.7 6.6-14.7 13.1-20.7 18.9 0 0-48.4-3.3-48.8 13-.2 5.9 11.1 9.5 25.6 11.4 17.8 2.4 40.6 2.6 52.9 2.6h.1c5 0 9.2 3.5 9.8 8.4.8 6-3.9 11.1-9.9 11z" fill="#3279af"/><g id="XMLID_1138_"><path id="XMLID_1671_" d="m158.7 311.9c-63.5-34.7-62.3-78.3-62.2-80.1l10 .4c0 .1-.3 9.9 6.5 23.4 6.3 12.6 20.2 31 50.5 47.5z" fill="#3279af"/></g><g id="XMLID_1137_"><path id="XMLID_1670_" d="m103.7 366.7c-15.8 0-30.1-7.8-41.9-23-10.6-13.7-15.3-28.5-15.5-29.1l9.5-3c0 .1 4.5 13.9 14 26.2 12.2 15.6 26.7 21.6 43.3 17.8l2.2 9.7c-3.9 1-7.8 1.4-11.6 1.4z" fill="#3279af"/></g><path id="XMLID_1679_" d="m268.9 88.9c-19.3 7.8-23.6 23.6-23.6 23.6l-22.8-7.7c-2.1-17 17.2-26.8 17.8-27.1 10.4 3.4 20 7.2 28.6 11.2z" fill="#db3529"/><path id="XMLID_1133_" d="m398 200.7s62.9 79.6 40.2 164c0 0 17.8 62.4-40.4 62.4-16.5 0-26.6 4.7-31.8-23s15.4-40 15.4-40-5-43.6-19.9-71.1" fill="#69bdfb"/><path id="XMLID_2255_" d="m368.5 216s-4.5 28-32.4 52.4l-92.4-92.4c24.4-27.9 52.4-32.4 52.4-32.4z" fill="#cde9fe"/><path id="XMLID_1131_" d="m368.7 215.6 29.3-14.9-13.3-13.3-32.4 11.9" fill="#3279af"/><circle id="XMLID_1130_" cx="287.7" cy="300.7" fill="#69bdfb" r="23.4"/><path id="XMLID_1652_" d="m309.9 419.3c-9.9-2-16.7-12.1-21.5-25.8-9.3-26.7-10.7-66.8-10.8-86.3 0-6 5.1-10.7 11-9.9 5 .7 8.4 4.9 8.4 9.9v.1c0 12.3.2 35 2.6 52.9 1.9 14.5 5.4 25.7 11.3 25.6 16-.4 13.2-46.7 13.1-48.7 0 0 .1-.1.1-.1 5.8-6 11.9-12.9 18.9-20.6 0 4.7 2.1 110-33.1 102.9z" fill="#3279af"/><g id="XMLID_1128_"><path id="XMLID_1669_" d="m279.5 415.5c-6.1 0-46.7-2.4-79.4-62.2l8.8-4.8c31.8 58.1 70.5 57 70.9 57l.5 10c-.2 0-.5 0-.8 0z" fill="#3279af"/></g><g id="XMLID_1127_"><path id="XMLID_1668_" d="m197.3 465.8c-.6-.2-15.4-4.9-29.1-15.5-18.8-14.6-26.3-33.1-21.6-53.6l9.7 2.2c-9.2 40.2 43.4 57.2 44 57.4z" fill="#3279af"/></g><path id="XMLID_1708_" d="m397.8 427c-16.5 0-26.6 4.7-31.8-23s15.4-40 15.4-40 22.6 19 56.9.7c-.1-.1 17.8 62.3-40.5 62.3z" fill="#9cd3fc"/><path id="XMLID_1707_" d="m434.2 271.7c-.3.6-10 20-27.1 17.8l-7.7-22.8s15.8-4.3 23.6-23.6c4.1 8.6 7.9 18.2 11.2 28.6z" fill="#3279af"/><path id="XMLID_1723_" d="m287.5 187.4h60v20h-60z" fill="#db3529" transform="matrix(.707 .707 -.707 .707 232.553 -166.725)"/><path id="XMLID_1725_" d="m244 176v26l66.9 67h25.1z" fill="#69bdfb"/><g fill="#275e87"><path id="XMLID_1756_" d="m342.9 316.4c-7 7.6-13.1 14.6-18.9 20.6 0 0-.1.1-.1.1.1.9.6 10-.1 20.1 4.4 1.8 10.7 3.1 17.6.2 1.9-20.8 1.5-39.1 1.5-41z"/><path id="XMLID_1757_" d="m159.1 170.2c-3.6 5.2-7 11.7-7.4 18.1 11.8-1.1 23.3-.3 23.3-.3 6-5.8 13-12.3 20.7-18.9-.4 0-16.9-.4-36.6 1.1z"/></g></g></g></svg>