<svg id="_01-avocado" height="512" viewBox="0 0 64 64" width="512" xmlns="http://www.w3.org/2000/svg" data-name="01-avocado"><path d="m54.583 41.218c2.16 4.61.99 9.69-2.61 11.36s-8.25-.71-10.41-5.31-.99-9.69 2.61-11.36 8.26.71 10.41 5.31z" fill="#b48160"/><path d="m61.513 39.128c3.56 7.62.55 16.66-7.15 21.24-9.07 5.39-20.38 2.16-24.47-6.57l-.5-1.05a25.632 25.632 0 0 1 -2.393-11.43l.24-17.66a7.748 7.748 0 0 1 4.58-6.82l2.79-1.29v.01a6.291 6.291 0 0 0 -3.52 5.8c0 .1.01.21.01.32l.71 16.49a28.14 28.14 0 0 0 2.62 10.8l.48 1.01c3.92 8.36 13.67 11.96 21.08 7.39 5.93-3.66 8.13-11.25 5.48-18.23z" fill="#50761e"/><path d="m61.473 39.138c2.65 6.98.45 14.57-5.48 18.23-7.41 4.57-17.16.97-21.08-7.39l-.48-1.01a28.14 28.14 0 0 1 -2.62-10.8l-.71-16.49c0-.11-.01-.22-.01-.32a6.291 6.291 0 0 1 3.52-5.8c.01 0 .01-.01.02-.01a6.383 6.383 0 0 1 6.99 1.25l12.23 11.14a28 28 0 0 1 6.62 8.94l.48 1.01c.19.412.37.83.52 1.25zm-9.5 13.44c3.6-1.67 4.77-6.75 2.61-11.36s-6.82-6.98-10.41-5.31-4.76 6.76-2.61 11.36 6.82 6.98 10.41 5.31z" fill="#fffcc1"/><path d="m23 5.38v.62a2.006 2.006 0 0 1 -2 2h-2a2.006 2.006 0 0 1 -2-2v-3a2.006 2.006 0 0 1 2-2h2a2.006 2.006 0 0 1 2 2z" fill="#b48160"/><path d="m29.393 52.748a25.632 25.632 0 0 1 -2.393-11.43l.24-17.66a7.662 7.662 0 0 1 3.588-6.272l-.391-.866a24.864 24.864 0 0 1 -1.57-4.96 7.794 7.794 0 0 0 -5.867-6.18v.62a2.006 2.006 0 0 1 -2 2h-2a2.006 2.006 0 0 1 -2-2v-.62a7.781 7.781 0 0 0 -5.87 6.18 24.864 24.864 0 0 1 -1.57 4.96l-4.72 10.46a31.453 31.453 0 0 0 -3.84 15.02c0 11.6 8.51 21 19 21a17.914 17.914 0 0 0 12.558-5.273 15.429 15.429 0 0 1 -2.665-3.927z" fill="#50761e"/><path d="m61.513 39.128-.04.01c2.647 6.97.456 14.547-5.455 18.213l-.025.017c-7.41 4.57-17.16.97-21.08-7.39l-.48-1.01a28.14 28.14 0 0 1 -2.62-10.8l-.71-16.49c0-.11-.01-.22-.01-.32a6.291 6.291 0 0 1 3.52-5.8v-.01l-1.64.759a7.668 7.668 0 0 0 -3.73 6.351l-.243 17.66a25.632 25.632 0 0 0 2.39 11.43l.5 1.05c3.769 8.045 13.666 11.4 22.3 7.663.058-.034.118-.059.175-.093a17.992 17.992 0 0 0 6.169-6.044 15.928 15.928 0 0 0 .979-15.196z" fill="#629026"/><path d="m21 1h-2a2.006 2.006 0 0 1 2 2v3a2.006 2.006 0 0 1 -2 2h2a2.006 2.006 0 0 0 2-2v-3a2.006 2.006 0 0 0 -2-2z" fill="#dd9f76"/><path d="m54.583 41.218c-2.15-4.6-6.82-6.98-10.41-5.31a5.716 5.716 0 0 0 -1.1.68c3.437-.936 7.534 1.406 9.508 5.63 1.921 4.1 1.2 8.565-1.51 10.679a5.642 5.642 0 0 0 .9-.319c3.602-1.67 4.772-6.75 2.612-11.36z" fill="#dd9f76"/><path d="m52.614 51.1c-3.07.048-6.342-2.189-8.051-5.828a9.779 9.779 0 0 1 -.02-8.878 5.907 5.907 0 0 0 -1.468.2c-2.712 2.116-3.424 6.589-1.512 10.68 1.984 4.224 6.074 6.567 9.51 5.629a6.189 6.189 0 0 0 1.541-1.803z" fill="#8a5a3d"/><path d="m41.563 47.268c-1.649-3.528-1.344-7.338.508-9.678a5.616 5.616 0 0 0 -.9.318c-3.6 1.67-4.76 6.76-2.61 11.36s6.82 6.98 10.41 5.31a5.8 5.8 0 0 0 2.108-1.678c-3.437.938-7.531-1.4-9.516-5.632z" fill="#e0db89"/><path d="m60.949 37.893-.475-1.014a27.932 27.932 0 0 0 -6.623-8.939l-12.23-11.14a6.161 6.161 0 0 0 -10.521 4.881l.712 16.489a27.824 27.824 0 0 0 2.622 10.8l.475 1.014c3.917 8.363 13.674 11.957 21.082 7.39 6.292-3.882 8.378-12.174 4.958-19.481zm-5.742 18.2a12.057 12.057 0 0 1 -9.9 1.236 14.775 14.775 0 0 1 -9.042-7.984l-.465-1.015a26.321 26.321 0 0 1 -2.487-10.23l-.713-16.484a4.857 4.857 0 0 1 2.663-4.708 4.91 4.91 0 0 1 5.345 1l12.233 11.141a26.425 26.425 0 0 1 6.274 8.467l.475 1.013c3.079 6.571 1.195 14.124-4.383 17.564z" fill="#9cc154"/><path d="m29.969 59.849.023-.017c.45-.31.889-.636 1.312-.984s.851-.728 1.253-1.122a15.429 15.429 0 0 1 -2.664-3.926l-.5-1.05a25.632 25.632 0 0 1 -2.393-11.432l.24-17.66a7.662 7.662 0 0 1 3.588-6.272l-.391-.866q-.226-.551-.438-1.108c-.123.047-.249.081-.369.136-.01 0-.01.01-.02.01v-.01l-2.79 1.29a7.748 7.748 0 0 0 -4.58 6.82l-.24 17.66a25.632 25.632 0 0 0 2.39 11.43l.5 1.05a15.228 15.228 0 0 0 .985 1.78c-12.338-1.518-21.953-7.318-24.311-19.478a31.2 31.2 0 0 0 -.564 5.9c0 11.6 8.51 21 19 21a17.529 17.529 0 0 0 9.969-3.151" fill="#335506"/><path d="m23 7v-1a2.006 2.006 0 0 1 -2 2h-2a2.006 2.006 0 0 1 -2-2v-.62a7.785 7.785 0 0 0 -5.728 5.62h7.728a4 4 0 0 0 4-4z" fill="#335506"/><g fill="#f7fafd"><ellipse cx="49.684" cy="40.695" rx="1.642" ry="2.286" transform="matrix(.707 -.707 .707 .707 -14.221 47.073)"/><ellipse cx="52.682" cy="43.708" rx=".825" ry="1.148" transform="matrix(.707 -.707 .707 .707 -15.474 50.077)"/><ellipse cx="25.682" cy="10.708" rx=".825" ry="1.148" transform="matrix(.707 -.707 .707 .707 -.046 21.305)"/><ellipse cx="27.427" cy="14.208" rx=".413" ry=".574" transform="matrix(.707 -.707 .707 .707 -2.01 23.566)"/></g></svg>