<svg id="Flat" height="512" viewBox="0 0 64 64" width="512" xmlns="http://www.w3.org/2000/svg"><g><path d="m31.115 7.993-.23-1.986c.055-.006 5.493-.598 7.43.044l-.629 1.898c-1.12-.371-4.894-.15-6.571.044z" fill="#9e7059"/></g><path d="m43.778 41.44h-1.812c.018-.185.03-.325.034-.39 0-.03 0-.05 0-.05 0-.36-.04-.71-.1-1.05-.91-5.29-8.23-8.66-8.9-8.95-1.15-.51-2.31-.88-3.49-1.13-1.13-.25-2.27-.38-3.41-.42-2.55-.08-5.1.31-7.54.97-1.35.37-2.67.83-3.94 1.35-2.12.85-4.11 1.86-5.87 2.88h-.01c-2.39 1.37-4.38 2.75-5.75 3.78-1.26.94-1.99 2.42-1.99 3.99 0 1.6.77 3.1 2.06 4.03 2.99 5.33 9.45 13.55 20.94 13.55 5.21 0 8.91-1.78 11.55-4.27 1.25-1.15 2.26-2.48 3.07-3.85.41-.68.77-1.37 1.09-2.06.766-1.668 1.277-3.304 1.619-4.71h2.448v-3.67z" fill="#547204"/><path d="m62.11 34.07c-1.7-5.7-5.55-10.64-10.09-14.45-.34-.29-.68-.57-1.03-.84-.84-.66-1.71-1.3-2.59-1.91-2.96-2.03-6.21-3.87-9.71-4.78-.32-.08-.64-.15-.97-.22-1.61-.34-3.28-.5-4.82.12-.16.06-.32.13-.48.21-1.1.57-1.99 1.47-2.64 2.51-.26.41-.49.85-.68 1.29-1.08 2.53-1.28 5.32-.96 8.04v.01c.06.67.17 1.33.3 1.98.26 1.3.6 2.6 1.07 3.84 1.18.25 2.34.62 3.49 1.13.67.29 7.99 3.66 8.9 8.95.06.34.1.69.1 1.05v.05c0 .47-.05.92-.15 1.36v.01c-.06.4-.14.88-.24 1.42-.32 1.63-.89 3.78-1.9 5.98-.32.69-.68 1.38-1.09 2.06-.81 1.37-1.82 2.7-3.07 3.85 2.68 2.56 8.75 6.62 17.45 2.27 0 0-.1-1.2-.72-2.84h.01c.83-.16 1.67-.42 2.54-.8 7.76-3.37 9.49-12.91 7.28-20.29z" fill="#486900"/><path d="m38.69 12.09c3.5.91 6.75 2.75 9.71 4.78.88.61 1.75 1.25 2.59 1.91.35.27.69.55 1.03.84 4.54 3.81 8.39 8.75 10.09 14.45 2.21 7.38.48 16.92-7.28 20.29-.87.38-1.71.64-2.54.8h-.01c-.44-1.19-1.15-2.6-2.28-3.96 2.66-.1 5.19-.69 7-2.2 0 0-1.75-8.76-15.1-9.05-.91-5.29-8.23-8.66-8.9-8.95-1.15-.51-2.31-.88-3.49-1.13-.47-1.24-.81-2.54-1.07-3.84-.13-.65-.24-1.31-.3-1.98v-.01c-.32-2.72-.12-5.51.96-8.04.19-.44.42-.88.68-1.29.65-1.04 1.54-1.94 2.64-2.51.16-.08.32-.15.48-.21 1.54-.62 3.21-.46 4.82-.12.33.07.65.14.97.22z" fill="#547204"/><path d="m62.11 34.07c-1.7-5.7-5.55-10.64-10.09-14.45-.34-.29-.68-.57-1.03-.84-.598-.47-1.223-.914-1.844-1.36 4.238 6.689 6.106 14.355 6.854 22.58 0 1.938-.198 3.871-.578 5.749 1.279 1.767 1.578 3.251 1.578 3.251-.877.732-1.926 1.244-3.075 1.593-.556 1.298-1.22 2.534-2.012 3.678.138.306.261.605.367.89h.01c.83-.16 1.67-.42 2.54-.8 7.76-3.371 9.49-12.911 7.28-20.291z" fill="#486900"/><path d="m8.75 34.65c1.76-1.02 3.75-2.03 5.87-2.88 1.27-.52 2.59-.98 3.94-1.35 2.44-.66 4.99-1.05 7.54-.97 1.14.04 2.28.17 3.41.42 1.18.25 2.34.62 3.49 1.13.67.29 7.99 3.66 8.9 8.95.06.34.1.69.1 1.05v.05c-.01.15-.05.64-.15 1.36v.01c-.1.45-.24.89-.44 1.31-2.16 4.97-9.71 8-10.41 8.27-11.07 4.3-22.76-2.1-27.76-5.42-.06-.04-.12-.08-.18-.13-1.29-.93-2.06-2.43-2.06-4.03 0-1.57.73-3.05 1.99-3.99 1.37-1.03 3.36-2.41 5.75-3.78z" fill="#f1e4a0"/><path d="m44.42 40.12c-.79-.09-1.63-.15-2.52-.17-.91-5.29-8.23-8.66-8.9-8.95-1.15-.51-2.31-.88-3.49-1.13-.1-.27-.2-.55-.29-.83.97.05 1.94.17 2.9.39 1.17.25 2.31.62 3.45 1.13.66.29 7.88 3.66 8.78 8.95.03.2.06.4.07.61z" fill="#486900"/><path d="m41.9 39.95c-.91-5.29-8.23-8.66-8.9-8.95-1.15-.51-2.31-.88-3.49-1.13-1.13-.25-2.27-.38-3.41-.42-2.55-.08-5.1.31-7.54.97-1.35.37-2.67.83-3.94 1.35-2.12.85-4.11 1.86-5.87 2.88h-.01c-2.39 1.37-4.38 2.75-5.75 3.78-1.26.94-1.99 2.42-1.99 3.99 0 1.6.77 3.1 2.06 4.03.06.05.12.09.18.13 5 3.32 16.69 9.72 27.76 5.42.7-.27 8.25-3.3 10.41-8.27.2-.42.34-.86.44-1.31v-.01c.1-.72.14-1.21.15-1.36 0-.03 0-.05 0-.05 0-.36-.04-.71-.1-1.05zm-2.02 2.12c-.07.3-.16.57-.28.8-1.52 3.5-6.76 6.28-9.32 7.26-2.23.87-4.64 1.31-7.16 1.31-7.79 0-15.1-4.09-18.77-6.53-.04-.02-.08-.06-.12-.08-.77-.56-1.23-1.46-1.23-2.41 0-.94.44-1.83 1.19-2.39 1.17-.88 3.06-2.21 5.44-3.58.04-.02.08-.05.12-.07 1.87-1.08 3.76-2.01 5.61-2.75 1.27-.52 2.52-.95 3.73-1.28 2.23-.6 4.36-.91 6.35-.91.2 0 .4 0 .6.01 1.06.04 2.09.16 3.04.37 1.09.23 2.1.56 3.11 1.01 1.95.84 7.11 3.82 7.74 7.46.05.27.07.5.07.71 0 .05-.04.46-.12 1.07z" fill="#c1c962"/><path d="m28.44 26.03c-.13-.65-.24-1.31-.3-1.98v-.01c-.18-.24-.35-.46-.54-.69-3.33-4.14-8.32-6.62-13.61-6.72-2.24-.04-5.02.37-6.24 2.52-.17.3-.29.6-.37.9-.58 1.23-1.35 3.31-1.38 5.95-.05 4.19 1.78 7.27 2.74 8.65h.01c1.76-1.02 3.75-2.03 5.87-2.88.78-.32 1.57-.61 2.38-.87.51-.18 1.04-.34 1.56-.48 2.44-.66 4.99-1.05 7.54-.97.61.02 1.23.07 1.84.16.32.03.63.08.95.14.21.03.41.07.62.12-.47-1.24-.81-2.54-1.07-3.84z" fill="#547204"/><path d="m29.51 29.87c-.21-.05-.41-.09-.62-.12-.32-.06-.63-.11-.95-.14-.61-.09-1.23-.14-1.84-.16-2.55-.08-5.1.31-7.54.97-.52.14-1.05.3-1.56.48-.81.26-1.6.55-2.38.87-1.7-1.55-3.31-3.19-4.7-5.01-1.37-1.78-3.16-4.35-2.54-6.71.08-.3.2-.6.37-.9 1.22-2.15 4-2.56 6.24-2.52 5.29.1 10.28 2.58 13.61 6.72.19.23.36.45.54.69v.01c.06.67.17 1.33.3 1.98.26 1.3.6 2.6 1.07 3.84z" fill="#f1e4a0"/><path d="m28.76 27.43c-.25-.21-.48-.41-.66-.59-.73-.76-1.43-1.54-2.15-2.31-1.43-1.53-2.96-3.01-4.81-4.01-2.19-1.18-4.69-1.87-7.19-1.89h-.24c-1.54 0-3.51.26-4.22 1.5-.08.15-.14.29-.18.43-.41 1.59 1.48 4.05 2.2 4.99 1.08 1.4 2.34 2.62 3.55 3.91.5.52.98 1.05 1.44 1.61-.64.21-1.26.45-1.88.7-1.7-1.55-3.31-3.19-4.7-5.01-1.37-1.78-3.16-4.35-2.54-6.71.08-.3.2-.6.37-.9 1.22-2.15 4-2.56 6.24-2.52 5.29.1 10.28 2.58 13.61 6.72.19.23.36.45.54.69v.01c.06.67.17 1.33.3 1.98.09.47.2.94.32 1.4z" fill="#c1c962"/><path d="m53 58c-8.7 4.35-14.77.29-17.45-2.27 1.25-1.15 2.26-2.48 3.07-3.85 6.22 4.08 14.38 6.12 14.38 6.12z" fill="#547204"/><path d="m52.28 55.16c.62 1.64.72 2.84.72 2.84s-8.16-2.04-14.38-6.12c.41-.68.77-1.37 1.09-2.06 2.56.69 6.55 1.53 10.29 1.38 1.13 1.36 1.84 2.77 2.28 3.96z" fill="#486900"/><path d="m57 49c-1.81 1.51-4.34 2.1-7 2.2-3.74.15-7.73-.69-10.29-1.38 1.01-2.2 1.58-4.35 1.9-5.98 5.53 3.05 15.39 5.16 15.39 5.16z" fill="#547204"/><path d="m41.9 39.95c13.35.29 15.1 9.05 15.1 9.05s-9.86-2.11-15.39-5.16c.1-.54.18-1.02.24-1.42v-.01c.1-.44.15-.89.15-1.36 0-.03 0-.05 0-.05 0-.36-.04-.71-.1-1.05z" fill="#486900"/><path d="m54.922 45.11c-.713 1.14-1.689 2.012-2.832 2.655 2.807.784 4.91 1.235 4.91 1.235s-.375-1.857-2.078-3.89z" fill="#3c5102"/><path d="m36 7s.8 2.39 2.69 5.09c3.5.91 6.75 2.75 9.71 4.78.88.61 1.75 1.25 2.59 1.91.35.27.69.55 1.03.84 2.35.01 5-.46 7.98-1.62-4-23-24-11-24-11z" fill="#486900"/><path d="m60 18c-2.2-1.64-6.86-5.39-10-7-5.25-2.7-10.13-3.17-14-4 0 0 20-12 24 11z" fill="#547204"/><path d="m50 11c3.14 1.61 7.8 5.36 10 7-2.98 1.16-5.63 1.63-7.98 1.62-.34-.29-.68-.57-1.03-.84-.84-.66-1.71-1.3-2.59-1.91-2.96-2.03-6.21-3.87-9.71-4.78-1.89-2.7-2.69-5.09-2.69-5.09 3.87.83 8.75 1.3 14 4z" fill="#486900"/><path d="m32.9 11.99c-.16.06-.32.13-.48.21-1.1.57-1.99 1.47-2.64 2.51-2.06-2.98-1.96-8.09-1.84-9.98.03-.44.34-.8.76-.9l1.97-.5c.65-.16 1.27.34 1.24 1.01-.02.62-.03 1.41.01 2.29.07 1.66.32 3.65.98 5.36z" fill="#9e7059"/><path d="m32.9 11.99c-.16.06-.32.13-.48.21-1.1.57-1.99 1.47-2.64 2.51-.46-.66-.81-1.43-1.07-2.24.18-.17.37-.35.57-.51.98-.81 1.38-2.12 1.12-3.36-.23-1.12-.34-2.26-.38-3.27-.03-.67-.03-1.3-.02-1.83l.67-.17c.65-.16 1.27.34 1.24 1.01-.02.62-.03 1.41.01 2.29.07 1.66.32 3.65.98 5.36z" fill="#995b3f"/><path d="m33.811 16.42c.068-.439-.034-.815-.592-.792-.569.024-1.385.585-1.643 1.112-.312.639-.464 1.42-.478 2.144-.012.639.627 3.066 1.383 1.844.345-.558.362-1.226.474-1.866.078-.442.221-.88.427-1.27.125-.233.362-.734.429-1.172z" fill="#647f0e"/><path d="m55.12 19.36c-1.09.18-2.12.26-3.1.26-.34-.29-.68-.57-1.03-.84-.84-.66-1.71-1.3-2.59-1.91-2.96-2.03-6.21-3.87-9.71-4.78-.66-.94-1.19-1.85-1.59-2.63.54.05 1.09.14 1.62.25.33.07.65.14.97.22 3.5.91 6.75 2.75 9.71 4.78.88.61 1.75 1.25 2.59 1.91.35.27.69.55 1.03.84.72.6 1.42 1.23 2.1 1.9z" fill="#3c5102"/><path d="m9.92 26.76c1.39 1.82 3 3.46 4.7 5.01-2.12.85-4.11 1.86-5.87 2.88h-.01c-.96-1.38-2.79-4.46-2.74-8.65.03-2.64.8-4.72 1.38-5.95-.62 2.36 1.17 4.93 2.54 6.71z" fill="#547204"/><path d="m20 21c3.25.72 6.65 4.37 6.1 8.45-2.55-.08-5.1.31-7.54.97-1.4-.7-2.37-1.57-3.05-2.45-1.74-2.27-.95-5.73 1.7-6.79.84-.33 1.75-.41 2.79-.18z" fill="#eddc94"/><path d="m25.81 26.45c-1.18-1.46-2.8-2.52-4.39-2.87-1.04-.23-1.95-.15-2.79.18-1.97.79-2.91 2.9-2.55 4.87-.21-.22-.4-.44-.57-.66-1.74-2.27-.95-5.73 1.7-6.79.84-.33 1.75-.41 2.79-.18 2.42.54 4.92 2.7 5.81 5.45z" fill="#edd262"/><path d="m34.12 37.2c1.18 3.28-.24 7.06-3.42 8.51-.22.11-.46.2-.7.29-3.9 1.4-8.69.1-12.56-3.37-1.51-1.34-1.57-3.72-.06-5.07 5.23-4.66 11.35-6.07 14.62-3.56 1 .77 1.67 1.95 2.12 3.2z" fill="#995b3f"/><path d="m30.7 45.71c-.22.11-.46.2-.7.29-3.9 1.4-8.69.1-12.56-3.37-.73-.64-1.12-1.53-1.15-2.43 3.59 2.62 7.73 3.49 11.18 2.25.24-.09.48-.18.7-.29 3.15-1.44 4.57-5.16 3.45-8.42.13.08.26.17.38.26 1 .77 1.67 1.95 2.12 3.2 1.18 3.28-.24 7.06-3.42 8.51z" fill="#8c4c33"/><g fill="#547204"><path d="m41.41 43.73c.06.04.13.07.2.11-.32 1.63-.89 3.78-1.9 5.98-.32.69-.68 1.38-1.09 2.06-.81 1.37-1.82 2.7-3.07 3.85-2.64 2.49-6.34 4.27-11.55 4.27-11.49 0-17.95-8.22-20.94-13.55.06.05.12.09.18.13 5 3.32 16.69 9.72 27.76 5.42.7-.27 8.25-3.3 10.41-8.27z"/><path d="m42.72 49c-.13.33-.28.67-.43 1-.06.13-.12.27-.19.4-.88-.19-1.69-.39-2.39-.58.21-.46.4-.92.57-1.38.77.24 1.59.43 2.44.56z"/><path d="m42.1 50.4c-.31.64-.65 1.27-1.05 1.88-.86-.16-1.65-.34-2.37-.51.39-.64.73-1.3 1.03-1.95.7.19 1.51.39 2.39.58z"/></g><path d="m40.54 53.03c-.27.39-.57.77-.89 1.13-.82.96-1.78 1.85-2.9 2.62-.45-.36-.85-.72-1.2-1.05 1.25-1.15 2.26-2.48 3.07-3.85.62.41 1.27.8 1.92 1.15z" fill="#455e01"/><path d="m50 51.2c-2.803.112-5.747-.331-8.124-.851-.013-.003-.025-.006-.039-.009-.779-.171-1.497-.35-2.128-.52-.158.34-.325.679-.503 1.018-.165.313-.34.625-.527.932h.002c-.022.036-.04.073-.062.11.62.41 1.27.8 1.92 1.15.178-.245.332-.501.494-.753 2.371.453 5.174.807 7.856.703.76-.03 1.51-.09 2.24-.2-.319-.53-.689-1.06-1.129-1.58z" fill="#3c5102"/><path d="m52.09 47.765c-2.643 1.488-6.158 1.736-9.338 1.229.125-.349.273-.78.398-1.154.32-.94.57-1.91.76-2.88-.82-.36-1.59-.73-2.3-1.12-.253 1.286-.671 2.899-1.328 4.602-.176.455-.359.914-.572 1.379 2.56.69 6.55 1.53 10.29 1.38 2.66-.1 5.19-.69 7-2.2 0-.001-2.103-.452-4.91-1.236z" fill="#455e01"/><path d="m44.53 40.13c-.02 1.07-.18 2.15-.33 3.19-.08.55-.18 1.1-.29 1.64-.82-.36-1.59-.73-2.3-1.12.1-.54.18-1.02.24-1.42v-.01c.1-.44.15-.89.15-1.36 0-.03 0-.05 0-.05 0-.36-.04-.71-.1-1.05.93.02 1.81.08 2.63.18z" fill="#3c5102"/><path d="m41.41 43.73c-1.314 3.024-4.62 5.325-7.168 6.728-4.467 5.639-12.061 8.618-19.728 7.399 2.688 1.306 5.83 2.143 9.486 2.143 5.21 0 8.91-1.78 11.55-4.27 1.25-1.15 2.26-2.48 3.07-3.85.41-.68.77-1.37 1.09-2.06 1.01-2.2 1.58-4.35 1.9-5.98-.07-.04-.14-.07-.2-.11z" fill="#486900"/><path d="m30.407 36.983c1.291-.322.167-1.677-.494-1.944-.56-.226-1.221-.303-1.82-.265-.529.034-2.467.754-1.379 1.323.665.348 1.509.208 2.221.354.487.1.99.652 1.472.532z" fill="#9e7059"/></svg>