<svg id="Flat" height="512" viewBox="0 0 64 64" width="512" xmlns="http://www.w3.org/2000/svg"><path d="m60.28 9.56c.41 1.4.72 3.27.44 5.42-.06.42-.14 1.02-.35 1.69-.4 1.35-1.26 3-3.57 5.99-1.78 2.3-3.72 4.55-4.8 7.25-1.33 3.33-1.25 7.04-1.9 10.57-1.06 5.73-4.29 11.15-9.16 14.36-.95.62-8.7 5.33-16.69 1.54-3.11-1.48-5.18-3.74-6.5-5.75-1.41-2.62-2.17-5.49-1.89-8.37.56-5.64 4.71-10.3 9.27-13.68 2.65-1.97 5.5-3.65 8.24-5.47 1.99-1.31 3.92-2.7 5.67-4.32 4.19-3.85 7.38-8.99 12.51-11.46 1-.49 2.3-.86 3.81-.71 2.09.21 3.72 1.34 4.92 2.94z" fill="#dce35c"/><path d="m42.23 29.86c1.76 2.94-2.23 8.07-4.92 10.5-2.3 2.06-7.59 5.7-10.5 3.71-2.32-1.6-1.74-5.86-1.67-6.41.67-4.88 5.08-8.91 9.9-9.62.53-.08 5.63-.77 7.19 1.82z" fill="#c98c39"/><path d="m42.23 29.86c-1.56-2.59-6.66-1.9-7.19-1.82-.077.011-.152.031-.228.044.494.611 1.469 1.993 1.667 3.96.263 2.623-1.031 4.552-1.565 5.348-2.928 4.363-8.73 4.622-9.514 4.645.265.805.701 1.544 1.41 2.034 2.91 1.99 8.2-1.65 10.5-3.71 2.69-2.431 6.68-7.561 4.92-10.501z" fill="#97692b"/><path d="m60.52 9.88c1.9 2.71 2.66 6.57 2.45 9.48-.18 2.5-1.09 4.93-2.04 10.52-.99 5.89-.4 5.84-1.27 9.89-.58 2.7-2.35 10.47-8.8 16.82-2.07 2.05-4.58 4.52-8.73 5.7-6.51 1.86-12.14-.86-13.98-1.75-.83-.4-1.65-.87-2.47-1.41-3.14-2.06-6.09-5.07-7.93-8.5 1.32 2.01 3.39 4.27 6.5 5.75 7.99 3.79 15.74-.92 16.69-1.54 4.87-3.21 8.1-8.63 9.16-14.36.65-3.53.57-7.24 1.9-10.57 1.08-2.7 3.02-4.95 4.8-7.25 2.31-2.99 3.17-4.64 3.57-5.99.21-.67.29-1.27.35-1.69.28-2.15-.03-4.02-.44-5.42.09.1.16.21.24.32z" fill="#609000"/><path d="m61.766 12.18c-.161 6.241-1.399 11.935-4.054 17.731-2.762 6.031-3.553 12.285-5.857 18.413-3.38 8.989-11.604 13.607-20.367 13.592 2.682.88 6.479 1.564 10.641.375 4.15-1.18 6.66-3.65 8.73-5.7 6.45-6.35 8.22-14.12 8.8-16.82.87-4.05.28-4 1.27-9.89.95-5.59 1.86-8.02 2.04-10.52.157-2.158-.224-4.835-1.203-7.181z" fill="#486c00"/><path d="m17.75 50.63c1.84 3.43 4.79 6.44 7.93 8.5-1.53.23-3.07.33-4.6.33-5.63 0-11.49-1.3-15.35-5.42-4.46-4.75-5.94-12.06-3.69-18.17 1.57-4.31 4.77-7.86 6.49-12.11 1.17-2.86 1.63-5.93 2.21-8.97 1.09-5.65 1.55-7.02 2.95-8.72.45-.54 3.05-3.68 7.22-3.75 4.18-.07 6.91 2.99 7.54 3.75 1.31 1.58 1.83 2.9 2.96 8.72.54 2.81.98 5.65 1.96 8.32-2.74 1.82-5.59 3.5-8.24 5.47-4.56 3.38-8.71 8.04-9.27 13.68-.28 2.88.48 5.75 1.89 8.37z" fill="#609000"/><path d="m17.75 50.63c-1.41-2.62-2.17-5.49-1.89-8.37.56-5.64 4.71-10.3 9.27-13.68 2.65-1.97 5.5-3.65 8.24-5.47-.98-2.67-1.42-5.51-1.96-8.32-1.13-5.82-1.65-7.14-2.96-8.72-.268-.323-.919-1.062-1.895-1.799 1.663 5.802 2.72 13.01-.591 18.196-1.869 2.927-4.865 4.995-7.308 7.4-4.173 4.109-5.494 7.67-5.998 13.46-.365 4.18-.424 10.035-3.158 13.593 3.44 1.872 7.566 2.54 11.58 2.54 1.53 0 3.07-.1 4.6-.33-3.14-2.06-6.09-5.07-7.93-8.5z" fill="#486c00"/><path d="m27.532 36.675c-.094.588-.059 1.278.402 1.656.579.474 1.519.133 1.928-.494.41-.627.438-1.42.452-2.169.01-.495.018-1-.133-1.472-.766-2.403-2.505 1.575-2.649 2.479z" fill="#d4a361"/><path d="m13.462 12.944c-.258 1.221-1.173 4.265-.605 5.451 1.177 2.457 3.456-1.695 3.764-2.586.541-1.562 1.01-4.068-.139-5.487-.739-.913-1.386-.738-2 .057-.504.651-.809 1.567-1.02 2.565z" fill="#92c538"/></svg>