<?xml version="1.0" encoding="iso-8859-1"?>
<!-- Generator: Adobe Illustrator 19.0.0, SVG Export Plug-In . SVG Version: 6.00 Build 0)  -->
<svg version="1.1" id="Capa_1" xmlns="http://www.w3.org/2000/svg" xmlns:xlink="http://www.w3.org/1999/xlink" x="0px" y="0px"
	 viewBox="0 0 291.039 291.039" style="enable-background:new 0 0 291.039 291.039;" xml:space="preserve">
<rect x="49.854" y="28.008" transform="matrix(-0.9936 0.1134 -0.1134 -0.9936 129.6276 111.0743)" style="fill:#191E24;" width="23.603" height="62.431"/>
<rect x="52.914" y="19.432" transform="matrix(-0.9123 0.4096 -0.4096 -0.9123 156.3121 46.0085)" style="fill:#32373C;" width="40.629" height="40.626"/>
<g>
	
		<rect x="66.704" y="19.428" transform="matrix(-0.9121 0.4099 -0.4099 -0.9121 156.2657 45.9833)" style="fill:#191E24;" width="12.999" height="40.627"/>
	
		<rect x="198.175" y="47.403" transform="matrix(-0.1134 0.9936 -0.9936 -0.1134 314.2241 -161.9936)" style="fill:#191E24;" width="62.431" height="23.603"/>
</g>
<rect x="197.533" y="19.428" transform="matrix(-0.4096 0.9123 -0.9123 -0.4096 343.3272 -142.7164)" style="fill:#32373C;" width="40.626" height="40.626"/>
<g>
	
		<rect x="197.528" y="33.28" transform="matrix(-0.4099 0.9121 -0.9121 -0.4099 343.4216 -142.6139)" style="fill:#191E24;" width="40.627" height="12.999"/>
	<rect x="121.142" style="fill:#191E24;" width="48.739" height="9.478"/>
</g>
<g>
	<polygon style="fill:#32373C;" points="111.668,9.478 111.668,20.522 121.142,20.522 121.142,0 	"/>
	<polygon style="fill:#32373C;" points="179.37,9.478 179.37,20.522 169.889,20.522 169.889,0 	"/>
</g>
<path style="fill:#191E24;" d="M71.04,291.039c-6.511,0-12.629-2.544-17.233-7.14c-4.604-4.604-7.144-10.722-7.144-17.236V91.97
	c0-19.162,7.474-37.189,21.02-50.743c13.554-13.558,31.585-21.02,50.75-21.02h54.167c19.17,0,37.189,7.463,50.747,21.02
	c13.554,13.554,21.024,31.581,21.024,50.743v174.691c0,6.507-2.54,12.629-7.14,17.236c-4.604,4.6-10.722,7.14-17.24,7.14
	C219.991,291.039,71.04,291.039,71.04,291.039z"/>
<path style="fill:#32373C;" d="M71.04,284.262c-4.698,0-9.122-1.828-12.449-5.155c-3.323-3.323-5.155-7.74-5.155-12.445V91.97
	c0-17.353,6.762-33.683,19.038-45.955c12.276-12.276,28.599-19.038,45.963-19.038h54.167c17.36,0,33.686,6.762,45.963,19.038
	c12.273,12.28,19.035,28.603,19.035,45.955v174.691c0,4.705-1.828,9.126-5.155,12.449c-3.327,3.323-7.743,5.151-12.449,5.151
	C219.999,284.262,71.04,284.262,71.04,284.262z"/>
<path style="fill:#4A5054;" d="M71.04,284.262c-4.698,0-9.122-1.828-12.449-5.155c-3.323-3.323-5.155-7.74-5.155-12.445v-66.638
	c0-4.702,1.832-9.126,5.155-12.453c3.327-3.319,7.747-5.151,12.449-5.151h148.955c4.705,0,9.126,1.832,12.449,5.151
	c3.327,3.33,5.155,7.751,5.155,12.453v66.638c0,4.705-1.828,9.126-5.155,12.449c-3.327,3.323-7.744,5.151-12.449,5.151H71.04z"/>
<rect x="83.909" y="245.038" style="fill:#32373C;" width="123.229" height="24.373"/>
<path style="fill:#191E24;" d="M213.225,238.277c0,1.738-0.663,3.469-1.982,4.788c-1.319,1.319-3.053,1.986-4.784,1.986H84.583
	c-1.727,0-3.462-0.667-4.788-1.986c-1.322-1.322-1.982-3.049-1.982-4.788v-17.6h135.412
	C213.225,220.677,213.225,238.277,213.225,238.277z"/>
<rect x="83.909" y="200.192" style="fill:#FFFFFF;" width="123.229" height="2.712"/>
<rect x="172.811" y="198.173" style="fill:#CCCBCA;" width="10.838" height="6.769"/>
<path style="fill:#FFFFFF;" d="M174.86,201.548v10.156c0,0.862,0.33,1.727,0.993,2.39c0.667,0.663,1.528,0.996,2.394,0.996
	c0.865,0,1.738-0.333,2.394-0.996c0.663-0.663,0.996-1.525,0.996-2.39v-10.156H174.86z"/>
<path style="fill:#4A5054;" d="M218.564,46.015c-12.273-12.276-28.603-19.038-45.963-19.038h-54.167
	c-17.36,0-33.686,6.762-45.963,19.038C60.198,58.288,53.433,74.618,53.433,91.97v38.313c0,4.507,1.72,9.01,5.155,12.449
	c3.435,3.435,7.938,5.151,12.449,5.151h148.955c4.507,0,9.01-1.716,12.449-5.151c3.439-3.435,5.155-7.942,5.155-12.449V91.97
	C237.598,74.618,230.836,58.295,218.564,46.015z M233.538,130.283c0,3.619-1.409,7.02-3.967,9.579
	c-2.559,2.555-5.957,3.964-9.579,3.964H71.04c-3.615,0-7.017-1.409-9.572-3.964c-2.559-2.559-3.971-5.957-3.971-9.579V91.97
	c0-16.27,6.339-31.577,17.847-43.082c11.512-11.516,26.812-17.847,43.089-17.847h54.167c16.281,0,31.581,6.331,43.089,17.843
	c11.508,11.516,17.847,26.816,17.847,43.082V130.283z"/>
<path style="fill:#32373C;" d="M264.688,191.22c0-2.255-0.862-4.507-2.577-6.226c-1.72-1.72-3.975-2.577-6.223-2.577h-2.709
	c-2.255,0-4.51,0.858-6.226,2.577c-1.716,1.72-2.577,3.975-2.577,6.226v71.381c0,1.038,0.393,2.083,1.184,2.873
	c0.798,0.794,1.832,1.188,2.873,1.188h12.194c1.034,0,2.075-0.393,2.87-1.188c0.794-0.79,1.191-1.832,1.191-2.873L264.688,191.22
	L264.688,191.22z"/>
<rect x="253.168" y="182.439" style="fill:#FFFFFF;" width="2.709" height="33.866"/>
<path style="fill:#32373C;" d="M46.663,191.22c0-2.255-0.858-4.507-2.574-6.226c-1.72-1.72-3.975-2.577-6.226-2.577h-2.712
	c-2.248,0-4.507,0.858-6.223,2.577c-1.72,1.72-2.577,3.975-2.577,6.226v71.381c0,1.038,0.393,2.083,1.188,2.873
	c0.79,0.794,1.832,1.188,2.873,1.188h12.183c1.041,0,2.083-0.393,2.877-1.188c0.794-0.79,1.188-1.832,1.188-2.873L46.663,191.22
	L46.663,191.22z"/>
<rect x="35.155" y="182.439" style="fill:#FFFFFF;" width="2.712" height="33.866"/>
<g>
</g>
<g>
</g>
<g>
</g>
<g>
</g>
<g>
</g>
<g>
</g>
<g>
</g>
<g>
</g>
<g>
</g>
<g>
</g>
<g>
</g>
<g>
</g>
<g>
</g>
<g>
</g>
<g>
</g>
</svg>
