<svg id="Capa_1" enable-background="new 0 0 512 512" height="512" viewBox="0 0 512 512" width="512" xmlns="http://www.w3.org/2000/svg"><g><path d="m485.904 312.607c-5.089-3.299-10.54-7.644-16.581-13.684-16.57-16.57-20.096-28.04-25.362-42.915l-5.916-28.8c-.156.142-189.522 172.719-189.631 172.819l16.388 40.508c4.991 14.308 9.802 24.758 23.976 38.933 20.687 20.687 34.496 21.545 50.311 28.176 21.256 8.926 45.822 3.827 62.123-12.474l27.348-27.348 16.725-45.811 43.453-14.367c2.967-2.967 5.203-5.202 6.465-6.465 25.765-25.766 21.287-68.753-9.299-88.572z" fill="#fc5c5c"/><g><path d="m409.145 359.112c-16.867-16.866-20.311-28.676-25.424-43.132l-6.616-33.24-64.733 58.85 8.751 28.217c6.338 15.493 7.52 29.169 27.834 49.483 32.034 32.034 47.57 16.498 79.604 48.531l60.178-60.178c-32.035-32.034-47.56-16.498-79.594-48.531z" fill="#ffe0b6"/><path d="m349.635 382.048c2.015-4.692 5.195-10.609 13.505-18.92 10.976-10.976 17.397-13.2 28.035-16.886 1.942-.674 3.435-1.189 5.474-1.934-7.146-10.425-9.723-19.266-12.928-28.329l-6.616-33.24-64.733 58.85 8.751 28.217c5.148 12.583 6.89 23.983 18.29 38.733 4.987-10.525 7.211-19.465 10.222-26.491z" fill="#ffcb85"/><g fill="#f93e48"><path d="m377.104 282.74 6.616 33.24c3.206 9.063 5.782 17.904 12.928 28.329 12.932-4.725 28.102-11.73 46.085-29.711 8.586-8.586 14.648-16.49 19.153-23.798-11.098-13.375-14.079-23.928-17.926-34.791l-5.916-28.8z"/><path d="m339.412 408.539c-11.4-14.749-13.143-26.15-18.29-38.733l-8.751-28.217-63.957 58.437 16.388 40.508c3.015 8.643 6.171 17.346 14.059 27.694 12.869-5.888 24.272-14.021 35.748-25.497 12.883-12.883 20.076-24.217 24.803-34.192z"/></g></g><path d="m264.812 71.471c-9.796-4.312-18.733-6.147-28.872-11.444-14.222-7.43-28.65-21.71-36.55-33.933-19.818-30.575-62.806-35.064-88.571-9.299-1.262 1.262-3.497 3.497-6.465 6.465l-17.47 46.297-42.71 13.881c-13.045 13.045-23.783 23.783-27.348 27.348-16.301 16.301-21.39 40.867-12.474 62.123 6.63 15.815 7.478 29.624 28.165 50.311 7.296 7.293 13.732 12.109 19.706 15.593 0 0-.001.001-.002.001 14.198 8.281 25.767 8.988 39.934 17.185l30.068 14.825c.101-.115 168.638-192.306 168.771-192.459z" fill="#fc5c5c"/><path d="m208.502 133.469c-18.169-9.136-32.657-7.657-55.617-30.617-32.034-32.034-16.498-47.559-48.532-79.593l-60.179 60.179c32.023 32.034 16.498 47.559 48.532 79.593 19.308 19.318 32.467 21.229 47.518 27.058l38.457 16.26 54.174-61.608z" fill="#ffe0b6"/><path d="m138.7 138.71c-15.197 15.212-22.481 28.247-27.128 39.431 10.315 6.194 19.214 8.293 28.652 11.949l38.457 16.26 54.174-61.608-24.354-11.272c-13.633-6.855-25.197-7.733-39.827-17.453-8.918 4.715-18.868 11.593-29.974 22.693z" fill="#ffcb85"/><path d="m218.295 90.177c-10.962 10.971-17.375 13.196-28.001 16.881-6.433 2.231-13.611 4.723-21.62 8.958 14.63 9.72 26.194 10.598 39.827 17.453l24.354 11.272 58.139-66.377-26.183-6.894c-9.796-4.312-18.733-6.147-28.872-11.444-.248.71-.493 1.414-.733 2.107-3.691 10.634-5.918 17.051-16.911 28.044z" fill="#f93e48"/><path d="m122.223 270.823 56.458-64.474-38.46-16.26c-9.438-3.656-18.336-5.755-28.652-11.949-1.797 4.324-3.2 8.372-4.512 12.162-3.676 10.61-5.895 17.014-16.897 28.016-10.925 10.94-17.35 13.172-27.994 16.869-3.135 1.089-6.449 2.242-9.946 3.625 14.198 8.281 25.767 8.988 39.934 17.185z" fill="#f93e48"/><path d="m495.203 110.817c-1.433-1.433-3.648-3.648-6.465-6.465l-45.78-19.797-14.398-40.381c-12.435-12.435-22.888-22.888-27.348-27.348-16.302-16.301-40.868-21.39-62.124-12.474-15.815 6.63-29.613 7.478-50.3 28.165-32.032 32.032-16.502 47.553-48.542 79.593-31.994 32.021-47.565 16.52-79.593 48.531-32.076 32.105-16.471 47.543-48.532 79.603-31.929 31.974-47.592 16.531-79.593 48.531-20.687 20.687-21.535 34.495-28.176 50.311-8.916 21.256-3.827 45.822 12.474 62.123l27.348 27.348 40.123 14.657 20.056 45.522c2.967 2.967 5.203 5.202 6.465 6.465 24.096 24.096 63.249 21.735 84.433-3.687 5.191-6.23 6.413-10.782 17.823-22.192 32.022-32.022 47.578-16.517 79.593-48.531 32.013-32.013 16.514-47.586 48.532-79.603 32.016-32.016 47.553-16.491 79.593-48.531 14.605-14.605 19.332-25.786 23.169-36.647 0-.01 0-.01 0-.01 4.592-12.971 7.954-25.517 25.373-42.936 6.03-6.03 11.481-10.385 16.57-13.674 30.586-19.82 35.064-62.807 9.299-88.573z" fill="#fd7a6e"/><g><path d="m163.146 158.217c-35.327 33.507-18.107 49.109-51.025 82.027-31.929 31.974-47.592 16.531-79.593 48.531-20.687 20.687-21.535 34.495-28.176 50.311-8.916 21.256-3.827 45.822 12.474 62.123 3.565 3.565 14.303 14.303 27.348 27.348l40.123 14.657 20.056 45.522 6.465 6.465c24.096 24.096 63.249 21.735 84.433-3.687-60.843-102.283-70.81-225.221-32.105-333.297z" fill="#fc5c5c"/><path d="m428.56 44.174c-32.034 32.024-47.56 16.498-79.594 48.532-32.034 32.023-16.498 47.559-48.532 79.593s-47.559 16.498-79.593 48.531c-32.034 32.034-16.508 47.559-48.532 79.593-32.031 32.031-47.57 16.498-79.604 48.531-32.034 32.034-16.498 47.57-48.532 79.603l60.178 60.178c33.443-33.443 15.349-49.483 52.753-83.63 29.241-26.694 44.788-13.911 75.382-44.505 32.034-32.034 16.498-47.559 48.532-79.593s47.559-16.498 79.593-48.532 16.498-47.559 48.532-79.593 47.57-16.498 79.593-48.531z" fill="#fff3e4"/><path d="m92.706 348.954c-32.034 32.034-16.498 47.57-48.532 79.603l60.178 60.178c32.034-32.034 16.498-47.559 48.532-79.593 1.44-1.44 2.845-2.78 4.222-4.037-8.128-26.79-13.477-54.788-15.703-83.662-15.152 6.056-28.715 7.529-48.697 27.511z" fill="#ffe0b6"/></g></g></svg>