<svg id="Layer_1" enable-background="new 0 0 64 64" height="512" viewBox="0 0 64 64" width="512" xmlns="http://www.w3.org/2000/svg"><path d="m47.8 39.9-15.8-4.9-15.8 4.9c-4.3 1.2-7.2 5.1-7.2 9.6v11.5h46v-11.5c0-4.5-2.9-8.4-7.2-9.6z" fill="#e5e1dc"/><path d="m29 35.9-9.3 2.9 9.3 6.2v-7z" fill="#d3d1cf"/><path d="m19 53h2v8h-2z" fill="#d3d1cf"/><path d="m35 43v-5-4h-6v12z" fill="#e5e1dc"/><path d="m55 49.5c0-4.4-2.9-8.3-7.2-9.6l-3.7-1.1-18.1 8.2v14h29z" fill="#d3d1cf"/><path d="m29 50h2v2h-2z" fill="#e5e1dc"/><path d="m29 55h2v2h-2z" fill="#e5e1dc"/><path d="m40 54.8v1.2c0 2.8 2.2 5 5 5h.7c1.5 0 2.9-.7 3.8-1.8l7.3-8.8c.7-.9 1.2-2 1.2-3.2v-1.2c0-2.8-2.2-5-5-5h-.7c-1.5 0-2.9.7-3.8 1.8l-7.3 8.8c-.8.9-1.2 2-1.2 3.2z" fill="#9b5729"/><path d="m35 35.9v7.1l9.2-4.2z" fill="#c6c6c6"/><path d="m19.5 20.6c-1.1-.3-2.2.4-2.4 1.5 0 .2-.1.3-.1.5v.4c0 .6.3 1.2.8 1.6l3.2 2.4v-6z" fill="#e8c5bc"/><path d="m44.5 20.6-1.5.4v6l3.2-2.4c.5-.4.8-1 .8-1.6v-.4c0-1.1-.9-2-2-2-.2 0-.3 0-.5 0z" fill="#e8c5bc"/><path d="m42 3h-20c-2.2 0-4 1.8-4 4v1.7c0 .9.3 1.7.8 2.4l2.2 2.9v7h22v-7l2.2-2.9c.5-.7.8-1.5.8-2.4v-1.7c0-2.2-1.8-4-4-4z" fill="#e5e1dc"/><path d="m21 18v10.1c0 3.7 2 7 5.2 8.8l1 .5c3 1.6 6.6 1.6 9.6 0l1-.5c3.2-1.8 5.2-5.1 5.2-8.8v-10.1z" fill="#f7d2c4"/><path d="m37 19v-5l2.2-2.9c.5-.7.8-1.5.8-2.4v-1.7c0-2.2-1.8-4-4-4h-4v16z" fill="#edeae6"/><path d="m27 19v-5l-2.2-2.9c-.5-.7-.8-1.6-.8-2.4v-1.7c0-2.2 1.8-4 4-4h4v16z" fill="#fcf8f2"/><path d="m35.8 14h-7.5c-2.7 0-5.3 1.1-7.2 3v5c1.9-1.9 4.5-3 7.2-3h7.5c2.7 0 5.3 1.1 7.2 3v-5c-1.9-1.9-4.5-3-7.2-3z" fill="#d3d1cf"/><path d="m37 14.1c-.4-.1-.8-.1-1.2-.1h-3.8v5h5z" fill="#dddbd9"/><path d="m27 14.1c.4-.1.8-.1 1.2-.1h3.8v5h-5z" fill="#efedea"/><g fill="#b27449"><path d="m51.2 47.4-.1.3 1.9.6.1-.3c.7-2-.4-4.2-2.3-5l-1.8-.7c-.1.1-.3.3-.4.4l-1 1.2 2.5.9c.9.5 1.4 1.6 1.1 2.6z"/><path d="m48 49.8c.3.5.3 1.1.2 1.6l-.1.3 1.9.6.1-.3c.7-2-.4-4.2-2.3-5l-2.1-.8-1.4 1.6 2.7 1c.4.2.8.6 1 1"/><path d="m45.2 55.4-.1.3 1.9.6.1-.3c.7-2-.4-4.2-2.3-5l-2.3-.9-1.2 1.5c0 .1-.1.1-.1.2l3 1.1c.8.4 1.3 1.5 1 2.5z"/></g></svg>