<svg height="512" viewBox="0 0 512 512" width="512" xmlns="http://www.w3.org/2000/svg"><path d="m306 137.026v159.213a40 40 0 0 1 -40 40h-159.951a40 40 0 0 1 -40-39.974l-.124-182.8c0-50 240.075.311 240.075 23.561z" fill="#707077"/><path d="m85.92 113.46.13 182.81a40 40 0 0 0 40 39.97h-20a40 40 0 0 1 -40-39.97l-.13-182.81c0-49.27 20-39.27 20 0z" fill="#66666b"/><path d="m141 319h90v80h-90z" fill="#ffc980"/><path d="m141 322v77h30v-30.591a20.14 20.14 0 0 1 18.836-19.965 49.876 49.876 0 0 0 18.524-5.124l22.64-11.32v-10z" fill="#f9bc73"/><path d="m286 215.5h10a20 20 0 0 1 20 20 20 20 0 0 1 -20 20h-10a0 0 0 0 1 0 0v-40a0 0 0 0 1 0 0z" fill="#ffc980"/><path d="m303 235.5a20.024 20.024 0 0 1 -17 19.78v.22h10a20 20 0 0 0 0-40h-10v.22a20 20 0 0 1 17 19.78z" fill="#f9bc73"/><path d="m119.167 311.084 44.472 22.236a50 50 0 0 0 44.722 0l44.472-22.236a60 60 0 0 0 33.167-53.666v-41.918l-10-55.483c-66.667-63.165-113.333-63.165-180 0l-10 55.483v41.918a60 60 0 0 0 33.167 53.666z" fill="#ffc980"/><path d="m106 215.5v86.628a59.985 59.985 0 0 1 -20-44.71v-41.918z" fill="#f9bc73"/><path d="m56 215.5h10a20 20 0 0 1 20 20 20 20 0 0 1 -20 20h-10a0 0 0 0 1 0 0v-40a0 0 0 0 1 0 0z" fill="#ffc980" transform="matrix(-1 0 0 -1 142 471)"/><path d="m86 215.5 16.877 13.5a5 5 0 0 0 8.123-3.9v-60.08h-25z" fill="#707077"/><path d="m76 215.5h10v40h-10z" fill="#f9bc73"/><path d="m137.255 115.017h21a0 0 0 0 1 0 0v60a0 0 0 0 1 0 0h-71a0 0 0 0 1 0 0v-10a50 50 0 0 1 50-50z" fill="#787780" transform="matrix(-1 0 0 -1 245.511 290.034)"/><path d="m221.3 174.472 64.7 10.545v-30a60 60 0 0 0 -60-60h-72.712l1.687 11.811a80 80 0 0 0 66.325 67.644z" fill="#787780"/><path d="m286 215.5-16.877 13.5a5 5 0 0 1 -8.123-3.9v-60.08h25z" fill="#707077"/><circle cx="146" cy="237.798" fill="#575759" r="7.5"/><circle cx="226" cy="237.798" fill="#575759" r="7.5"/><path d="m326 85.5a50.006 50.006 0 0 0 -92.656-26.1l.009.051a50 50 0 0 0 -94.706 0l.009-.051a50 50 0 1 0 -72.731 66.032v60.068h240.075v-60.011a49.91 49.91 0 0 0 20-39.989z" fill="#f1e8dc"/><path d="m95.92 150.5v-25.07a50 50 0 0 1 15.09-87.64 50 50 0 0 0 -45.09 87.64v60.07h240.08v-15h-190.08a20 20 0 0 1 -20-20z" fill="#efdbc6"/><path d="m278.04 373.42-47.04-17.92-55.451 19.287-34.549-19.287-47.04 17.92a90 90 0 0 0 -57.96 84.104v18.976a10 10 0 0 0 10 10h280a10 10 0 0 0 10-10v-18.976a90 90 0 0 0 -57.96-84.104z" fill="#efdbc6"/><path d="m116 486.5h210a10 10 0 0 0 10-10v-18.976a90 90 0 0 0 -57.96-84.1l-47.04-17.924-108.285 37.664a10 10 0 0 0 -6.715 9.445z" fill="#f1e8dc"/><path d="m336 471.5v5a10 10 0 0 1 -10 10h-280a10 10 0 0 1 -10-10v-18.98a89.976 89.976 0 0 1 30-67.08v71.06a10 10 0 0 0 10 10z" fill="#e2cdba"/><path d="m336 471.5v5a10 10 0 0 1 -10 10h-210v-15z" fill="#efdbc6"/><path d="m93.5 456.5v30h-15v-30a7.5 7.5 0 0 1 15 0z" fill="#e2cdba"/><path d="m293.5 456.5v30h-15v-30a7.5 7.5 0 0 1 15 0z" fill="#e2cdba"/><g fill="#ea4b32"><path d="m248.094 373.63-41.177 18.994a50 50 0 0 1 -41.906-.009l-41.111-18.984a5 5 0 0 1 -2.9-4.539v-4.916a14 14 0 0 1 19.87-12.71l28.33 13.084a40 40 0 0 0 33.524.007l28.41-13.1a14 14 0 0 1 19.866 12.708v4.925a5 5 0 0 1 -2.906 4.54z"/><path d="m214.6 435.094-10.455-4.876a37.026 37.026 0 0 1 -21.153-29.524l-1.4-12.8 13.895-8.023 10.381 7.612a37.026 37.026 0 0 1 14.991 33.081l-1 11.492a3.7 3.7 0 0 1 -5.259 3.038z"/><path d="m152.145 432.061-1-11.492a37.026 37.026 0 0 1 14.991-33.081l10.381-7.612 13.895 8.023-1.4 12.8a37.026 37.026 0 0 1 -21.153 29.524l-10.459 4.871a3.7 3.7 0 0 1 -5.255-3.033z"/></g><circle cx="186" cy="391.248" fill="#d63b2b" r="18.513"/><path d="m456 456.5h-130l-20-80h170z" fill="#d78545"/><path d="m346 456.5h-20l-20-80h20z" fill="#ce783e"/><path d="m391 316.5c-62.338 0-81.57 30.783-85 60l2.33 9.32c5.94 2.61 8.13 6.55 17.87 6.55 12.96 0 12.96-8.54 25.92-8.54s12.96 8.54 25.93 8.54 12.96-8.54 25.92-8.54 12.96 8.54 25.92 8.54 12.96-8.54 25.92-8.54c8.58 0 11.74 4.4 16.63 6.93l3.56-14.26c-3.43-29.217-22.662-60-85-60z" fill="#faca31"/><rect fill="#acd1e4" height="30" rx="10" width="170" x="306" y="456.5"/><circle cx="391" cy="346.5" fill="#d88646" r="7.5"/><circle cx="421" cy="356.5" fill="#d88646" r="7.5"/><circle cx="361" cy="356.5" fill="#d88646" r="7.5"/><path d="m391 316.5c3.46 0 6.8.1 10 .28-43.545 2.512-63.345 21.563-71.182 43.214a29.6 29.6 0 0 0 4.117 27.407l1.965 2.7a19.364 19.364 0 0 1 -9.7 2.27c-9.74 0-11.93-3.94-17.87-6.55l-2.33-9.321c3.43-29.22 22.66-60 85-60z" fill="#f6a831"/><path d="m366 294a7.5 7.5 0 0 1 -7.5-7.5c0-8.107 4.331-12.438 7.2-15.3 2.345-2.344 2.8-2.955 2.8-4.7s-.459-2.353-2.8-4.7c-2.865-2.866-7.2-7.2-7.2-15.3s4.331-12.437 7.2-15.3c2.344-2.343 2.8-2.954 2.8-4.695a7.5 7.5 0 0 1 15 0c0 8.106-4.331 12.437-7.2 15.3-2.344 2.343-2.8 2.954-2.8 4.695s.459 2.353 2.8 4.7c2.865 2.867 7.2 7.2 7.2 15.3s-4.331 12.438-7.2 15.3c-2.345 2.344-2.8 2.955-2.8 4.7a7.5 7.5 0 0 1 -7.5 7.5z" fill="#efdbc6"/><path d="m406 294a7.5 7.5 0 0 1 -7.5-7.5c0-8.107 4.331-12.438 7.2-15.3 2.345-2.344 2.8-2.955 2.8-4.7s-.459-2.353-2.8-4.7c-2.865-2.866-7.2-7.2-7.2-15.3s4.331-12.437 7.2-15.3c2.344-2.343 2.8-2.954 2.8-4.695a7.5 7.5 0 0 1 15 0c0 8.106-4.331 12.437-7.2 15.3-2.344 2.343-2.8 2.954-2.8 4.695s.459 2.353 2.8 4.7c2.865 2.867 7.2 7.2 7.2 15.3s-4.331 12.438-7.2 15.3c-2.345 2.344-2.8 2.955-2.8 4.7a7.5 7.5 0 0 1 -7.5 7.5z" fill="#efdbc6"/><path d="m336 486.5h-20a10 10 0 0 1 -10-10v-10a10 10 0 0 1 10-10h10v20a10 10 0 0 0 10 10z" fill="#93becf"/></svg>