<svg id="Capa_1" enable-background="new 0 0 512 512" height="512" viewBox="0 0 512 512" width="512" xmlns="http://www.w3.org/2000/svg"><path d="m207.513 189.748c-3.392 0-6.503-2.251-7.446-5.681-8.151-29.655-40.356-43.198-46.729-45.612-7.499-2.84-13.027-3.949-13.082-3.96-4.181-.826-6.909-4.884-6.09-9.067.82-4.182 4.861-6.91 9.05-6.099.272.053 6.778 1.336 15.595 4.676 7.6 2.878 46.024 19.103 56.156 55.967 1.131 4.115-1.288 8.367-5.402 9.498-.685.188-1.375.278-2.052.278z" fill="#a1e42c"/><path d="m294.887 455.857c-.941 0-1.897-.173-2.826-.538-3.971-1.562-5.924-6.047-4.362-10.018 11.469-29.16 34.678-51.601 68.979-66.698 3.904-1.719 8.465.053 10.184 3.959 1.719 3.905-.053 8.465-3.959 10.184-30.436 13.397-50.9 32.982-60.824 58.211-1.196 3.042-4.109 4.9-7.192 4.9z" fill="#a1e42c"/><path d="m137.025 10.95c23.868 32.06 31.494 73.388 20.639 111.855l-2.183 7.737c-1.094 3.875-4.356 6.75-8.339 7.348-3.982.597-7.945-1.194-10.127-4.578l-4.357-6.756c-21.663-33.59-26.498-75.335-13.086-112.988 2.682-7.532 12.678-9.031 17.453-2.618z" fill="#7db723"/><path d="m22.15 145.37c32.06-23.868 73.388-31.494 111.855-20.639l7.737 2.183c3.875 1.094 6.75 4.356 7.348 8.339.597 3.982-1.194 7.945-4.578 10.127l-6.756 4.357c-33.59 21.663-75.335 26.498-112.988 13.086-7.532-2.682-9.031-12.679-2.618-17.453z" fill="#89c627"/><path d="m312.489 153.735c-12.418-40.07-12.44-96.665 0-136.804 0-9.312-7.619-16.931-16.931-16.931h-82.149c-6.892 0-12.478 5.587-12.478 12.478v4.453c12.418 40.067 12.44 96.665 0 136.804-1.514 4.885-.026 9.811 3.213 13.08 2.128 2.148 2.128 5.555 0 7.703-3.239 3.269-4.727 8.195-3.213 13.08 12.418 40.067 12.44 96.665 0 136.804-1.514 4.885-.026 9.811 3.213 13.08 2.128 2.148 2.128 5.555 0 7.703-3.239 3.269-4.727 8.194-3.213 13.08 12.418 40.067 12.44 96.665 0 136.804 0 9.312 7.619 16.931 16.931 16.931h82.149c8.461 0 15.219-7.314 11.352-20.691-11.359-39.3-10.988-93.956 1.126-133.044 1.514-4.885.026-9.811-3.213-13.08-2.128-2.148-2.128-5.555 0-7.703 3.239-3.269 4.727-8.195 3.213-13.08-12.418-40.07-12.44-96.665 0-136.804 1.514-4.885.026-9.811-3.213-13.08-2.128-2.148-2.128-5.555 0-7.703 3.239-3.269 4.727-8.194 3.213-13.08z" fill="#cdf09c"/><path d="m312.489 153.735c-12.418-40.07-12.44-96.665 0-136.804 0-9.312-7.619-16.931-16.931-16.931h-82.149c-6.892 0-12.478 5.587-12.478 12.478v4.453c12.418 40.067 12.44 96.665 0 136.804-1.514 4.885-.026 9.811 3.213 13.08 2.128 2.148 2.128 5.555 0 7.703-3.239 3.269-4.727 8.195-3.213 13.08 12.418 40.067 12.44 96.665 0 136.804-1.514 4.885-.026 9.811 3.213 13.08 2.128 2.148 2.128 5.555 0 7.703-3.239 3.269-4.727 8.194-3.213 13.08 12.418 40.067 12.44 96.665 0 136.804 0 9.312 7.619 16.931 16.931 16.931h82.149c8.461 0 15.219-7.314 11.352-20.691-11.359-39.3-10.988-93.956 1.126-133.044 1.514-4.885.026-9.811-3.213-13.08-2.128-2.148-2.128-5.555 0-7.703 3.239-3.269 4.727-8.195 3.213-13.08-12.418-40.07-12.44-96.665 0-136.804 1.514-4.885.026-9.811-3.213-13.08-2.128-2.148-2.128-5.555 0-7.703 3.239-3.269 4.727-8.194 3.213-13.08z" fill="#b9ea6a"/><path d="m312.489 187.598c1.514-4.885.026-9.811-3.213-13.08-2.128-2.148-2.128-5.555 0-7.703 3.24-3.269 4.727-8.194 3.213-13.08-12.418-40.07-12.44-96.665 0-136.804 0-9.312-7.619-16.931-16.931-16.931h-38.8c9.312 0 16.931 7.619 16.931 16.931-12.44 40.139-12.418 96.735 0 136.804 1.514 4.885.026 9.811-3.213 13.08-2.128 2.148-2.128 5.555 0 7.703 3.239 3.269 4.727 8.194 3.213 13.08-12.44 40.139-12.418 96.735 0 136.804 1.514 4.885.026 9.811-3.213 13.08-2.128 2.148-2.128 5.555 0 7.703 3.239 3.269 4.727 8.195 3.213 13.08-12.114 39.088-12.485 93.744-1.126 133.044 3.866 13.377-2.892 20.691-11.353 20.691h38.8c8.461 0 15.219-7.314 11.352-20.691-11.359-39.3-10.988-93.956 1.126-133.044 1.514-4.885.026-9.811-3.213-13.08-2.128-2.148-2.128-5.555 0-7.703 3.24-3.269 4.727-8.194 3.213-13.08-12.417-40.07-12.439-96.665.001-136.804z" fill="#95d528"/><path d="m369.885 262.799-.479.644c-24.892 33.435-32.844 76.534-21.523 116.651l2.277 8.068c1.141 4.042 4.543 7.04 8.696 7.663 4.153.623 8.286-1.245 10.562-4.774l4.544-7.045c22.592-35.03 27.634-78.566 13.647-117.832l-.269-.756c-2.684-7.533-12.68-9.033-17.455-2.619z" fill="#7db723"/><path d="m489.85 404.105-.644-.479c-33.435-24.892-76.534-32.844-116.651-21.523l-8.068 2.277c-4.042 1.14-7.04 4.543-7.663 8.696-.623 4.153 1.245 8.286 4.774 10.562l7.045 4.544c35.03 22.592 78.566 27.634 117.832 13.647l.756-.269c7.533-2.684 9.032-12.68 2.619-17.455z" fill="#89c627"/><g fill="#7db723"><path d="m309.276 166.815c1.64-1.655 2.828-3.734 3.408-6.018-.85.175-1.685.488-2.468.967-32.992 20.156-73.981 20.165-106.982.022-.79-.489-1.636-.809-2.497-.988.58 2.283 1.769 4.362 3.408 6.017 2.128 2.148 2.128 5.555 0 7.703-1.142 1.153-2.061 2.514-2.713 4.005 17.342 9.21 36.305 13.827 55.276 13.827 18.97 0 37.938-4.619 55.28-13.83-.652-1.489-1.57-2.85-2.712-4.002-2.129-2.148-2.129-5.555 0-7.703z"/><path d="m311.653 348.478c-.619-1.213-1.419-2.327-2.377-3.294-2.128-2.148-2.128-5.555 0-7.703 1.859-1.876 3.137-4.299 3.606-6.946-.918.164-1.822.491-2.666 1.006-32.994 20.157-73.985 20.163-106.983.022-.851-.526-1.765-.861-2.695-1.028.469 2.647 1.747 5.07 3.606 6.947 2.128 2.148 2.128 5.555 0 7.703-.959.968-1.759 2.083-2.379 3.297 17.251 9.092 36.093 13.647 54.941 13.647 18.848-.001 37.696-4.557 54.947-13.651z"/></g></svg>