<svg height="512" viewBox="0 0 48 48" width="512" xmlns="http://www.w3.org/2000/svg"><path d="m35 11c1 0 7-1 7 8s-13 25-31 25c-2 0-4-1-4-1l-1-3s1-4 7-7 10.263-5.514 12.813-8.063c2-1.999 5.187-5.937 5.187-8.937 0-1.958 2-4 2-4" fill="#ffe082"/><path d="m8 41s7-2 13-5 19-12 15-25c0 0 6-1 6 8s-13 25-31 25c-2 0-4-1-4-1z" fill="#ffca28"/><g fill="#c0ca33"><path d="m41.063 13.938c-1.875-4.021-6.063-1.938-6.063-9.938-3 0-5 2-5 2s3 3 3 6c2 0 3.612-.157 3.791 4.75 1.352-5.729 4.272-2.812 4.272-2.812z"/><path d="m31 16s-.063-1.813 2-4 4.031-.406 4.031-.406l-.24 5.156s-.875-3.25-2.25-3.333c-2.9-.175-3.541 2.583-3.541 2.583z"/></g><path d="m6 41 1 2h1v-2l-2-1z" fill="#5d4037"/><path d="m35 4c-3 0-5 2-5 2h3z" fill="#827717"/></svg>