<svg id="Baseball" enable-background="new 0 0 64 64" viewBox="0 0 64 64" xmlns="http://www.w3.org/2000/svg"><g><g><path d="m6.44841 10.16863 9.69622 16.79456c4.25598 7.37167 9.23373 14.30231 14.85994 20.68982l.00001.00001 7.36801-4.25399v-.00001c-2.71858-8.06626-6.23174-15.84249-10.48771-23.21416l-9.69623-16.79456c-1.87176-3.24202-6.01726-4.35282-9.25923-2.48103h-.00001c-3.24198 1.87179-4.35276 6.01734-2.481 9.25936z" fill="#f7bb90"/><path d="m34.017 44.566h8.508v14.328h-8.508z" fill="#f0f0fc" transform="matrix(.866 -.5 .5 .866 -20.738 26.067)"/><path d="m45.52958 55.8123-7.36899 4.2423-2.4503-4.2423-.91427-1.59085-1.28-2.2308-.91428-1.57266-1.59082-2.76116 7.36909-4.26049 1.59083 2.76116.91427 1.59084 1.28 2.23081.91427 1.57254z" fill="#f0f0fc"/><path d="m42.16511 49.97915-7.36909 4.2423.91427 1.59085 7.36909-4.2606zm-2.19427-3.82165-7.36909 4.26049.91428 1.57266 7.36909-4.2423z" fill="#cbcbd7"/><path d="m45.53311 55.80883-7.36814 4.24914-7.15604-12.40685 4.08185-2.34903c3.05165 3.22358 6.13914 5.98873 9.10033 8.17696z" opacity=".1"/><path d="m35.09077 45.30209-4.08185 2.34903c-5.62452-6.39432-10.6125-13.3186-14.86159-20.68696l-9.70251-16.79394c-.51368-.88461-.80639-1.84552-.8904-2.8057-.22236-2.54156 1.01473-5.09698 3.38062-6.46128.34277-.20066.68895-.36376 1.05891-.47208 3.93475 16.78643 14.37648 33.57267 25.09682 44.87093z" opacity=".15"/><path d="m47.27133 59.86174-6.45913 3.72924c-1.45835.84199-3.32315.34232-4.16512-1.11604l-.00002-.00002c-.84196-1.45834-.3423-3.32309 1.11603-4.16507l6.45912-3.72923c1.45835-.842 3.32315-.34233 4.16513 1.11604l.00002.00002c.84195 1.45832.3423 3.32308-1.11603 4.16506z" fill="#f7bb90"/></g><g><circle cx="47.666" cy="16.768" fill="#f0f0fc" r="10.804"/><g fill="#f56f6b"><g><path d="m58.32939 15.10828c-.29251.09141-.58515.21942-.89597.36574-1.75544.84118-3.36457 2.41373-4.55306 4.40681-1.1886 1.99319-1.81024 4.1692-1.73714 6.08917.0183.34743.05491.67656.10971.9875-.58515.21942-1.1703.36563-1.77364.45714-.09151-.42065-.14631-.89609-.16462-1.37143-.09141-2.28571.62175-4.80915 1.99316-7.09487 1.37141-2.30402 3.25475-4.11429 5.32102-5.12009.42053-.21942.85947-.38393 1.28-.49364.20113.58516.34744 1.17032.42054 1.77367z"/><path d="m52.96741 20.85158c-.16071 0-.32142-.04196-.46964-.12946l-1.64105-.98036c-.43214-.25893-.57499-.82054-.31607-1.25357.25892-.43571.81784-.57321 1.25534-.31607l1.64104.98036c.43214.25893.57499.82054.31607 1.25357-.17141.2866-.47497.44553-.78569.44553z"/><g><path d="m55.21024 17.98372c-.3 0-.59285-.14732-.76785-.41875l-1.0607-1.64464c-.27499-.42411-.15178-.99018.27143-1.26429.42499-.26964.98927-.15268 1.26427.27321l1.0607 1.64464c.27499.42411.15178.99018-.27143 1.26429-.15357.09822-.32499.14554-.49642.14554z"/><path d="m51.50672 24.18462c-.025 0-.05-.00089-.075-.00268l-1.95176-.15536c-.50178-.04018-.87856-.48036-.83749-.98393.03929-.50447.48214-.86339.98392-.83929l1.95176.15536c.50357.04018.87856.48036.83749.98393-.0375.47858-.43749.84197-.90892.84197z"/></g></g><g><path d="m44.03016 14.59634c-1.73714 2.90736-4.18733 4.90056-6.58272 5.63192-.21942-.58504-.36573-1.1885-.43883-1.81027 1.93825-.63995 4.00452-2.35882 5.44903-4.77254 1.44451-2.39542 1.97486-5.04688 1.60913-7.05826.56684-.20112 1.1703-.36574 1.79194-.45714.49373 2.46852-.09141 5.55881-1.82855 8.46629z"/><path d="m44.00326 15.49444c-.15982 0-.32143-.04196-.46785-.12946l-1.64194-.98125c-.43303-.25893-.5741-.82054-.31517-1.25446.26071-.43304.82142-.57321 1.25356-.31518l1.64105.98125c.43392.25893.57499.82054.31607 1.25447-.17145.2857-.47502.44463-.78572.44463z"/><g><path d="m45.78002 11.3364c-.025 0-.05-.00089-.075-.00268l-1.95176-.15625c-.50267-.04018-.87856-.48125-.83838-.98482.04107-.50268.47321-.88036.98481-.83839l1.95176.15625c.50356.04018.87856.48125.83749.98482-.03751.47857-.4375.84107-.90892.84107z"/><path d="m41.18276 19.02569c-.3 0-.59374-.14732-.76874-.41875l-1.06159-1.64464c-.2741-.42411-.15178-.99018.27232-1.26339.42231-.27589.98927-.15268 1.26337.27232l1.06159 1.64464c.2741.42411.15178.99018-.27232 1.26339-.15267.09911-.32499.14643-.49463.14643z"/></g></g></g><path d="m55.73383 23.97249c-3.39291 3.78845-9.09628 4.76673-13.61317 2.06072-5.12061-3.05983-6.78581-9.6793-3.72589-14.79986.91588-1.54033 2.14391-2.76851 3.58017-3.64273-1.08244 4.35039-.14572 8.8883 2.62275 12.07302 2.68513 3.08067 6.84819 4.62114 11.13614 4.30885z" opacity=".15"/></g></g></svg>