<svg id="Layer_1" enable-background="new 0 0 300 300" viewBox="0 0 300 300" xmlns="http://www.w3.org/2000/svg"><g><g><g><path d="m230.9 111.2s-19.4 5.7-25.9 7.2-18.9-2.9-18.9-2.9c-.7 1.2-1.3 2.4-1.3 3.1l-.1.4c-.3 2.7-.9 7.7-4.5 10.9-.2 2.2 1.3 19.6-16.5 28.6-6 3-11.2 1.9-15.4-.1-6.3-2.9-4.8-5.2-4.8-5.5-5.6-16.6 2.8-36.3 7.8-46.1-2.2-.6-22-9-26.2-9.5-4.5-.6-13.8-16-15.8-18.3s-6.2-1.4-6.2-1.4-48.5 11.4-53.5 14.2c-5.1 2.8-44.6 56-44.6 56 16.8-10 27-10.3 32.6-8.6 4.8 1.4 7.1 4.3 7.9 5.5 1.7-2.4 8.9-11.9 19.6-14.8 8.6-2.4 15.4-2.1 20.2.9 4 2.5 5.4 6 5.8 7.3 29.2-8.8 52.1 40.7 54.5 46 4.9-3.3 50.6-32.7 71.6-9.4 2.3-1 16.8-6.7 32.1 9.5 7.9 8.3 8.1 21.1 8.1 24.1 1-.4 3.1-1 6.1-1 7.3 0 19.5 3.8 31.4 24.5-1.9-12.7-4.8-52.4-12.6-67.2-9.5-17.8-51.4-53.4-51.4-53.4z" fill="#5b5652"/></g></g><g><g><path d="m154.4 101.2c-.2 0-.4-.1-.6-.1l-1.6 4c1.1-1.9 1.9-3.2 2.2-3.9z" fill="#5e544a"/></g><g><path d="m151.5 107 .8-1.9c-.3.6-.6 1.2-1 1.9z" fill="#7c6957"/></g></g><g><path d="m103.1 77.7s-34.8 23.8-39.7 28.3-17.9 38.6-17.9 38.6 18.7-36.3 21.9-38.6 40.7-27 40.7-27z" fill="#776e69"/></g><g><path d="m101.4 79.3-10.4 58.7 15.7-58s-.8-3.4-5.3-.7z" fill="#776e69"/></g><g><path d="m49.6 95.1c5.1-2.8 51.8-15.8 51.8-15.8s4.2-.8 6.2 1.4c2 2.3 12.9 19.4 17.5 20 4.2.5 24 5.6 26.2 6.1.4-.7.7-1.3 1-1.9l1.6-4c-10.3-2.7-21-5.6-23.6-6.3-3.7-1-7.9-6.9-12-12.5-2.7-3.7-5.2-7.2-7.3-8.8-.1-.1-.2-.2-.2-.4l.3-6.6-7.5 6.6c-.1.1-.1.1-.2.1-16.1 2.6-48.4 12.3-56.6 16.6-8.5 4.4-36.4 49.2-41.8 58 0 0 39.5-49.7 44.6-52.5z" fill="#968e89"/></g><g><path d="m230.9 114.6s24.8 42.3 26.7 48.7c2 6.5-.4 44.9-.4 44.9s7.1-30.4 3.8-46.8l-25.2-45.9z" fill="#776e69"/></g><g><path d="m230.9 114.6s-2 39-13.8 60.1c0 0 15.2-20.3 16.9-59.2z" fill="#776e69"/></g><g><path d="m282 160.9c-5-8-32.8-37.6-45.1-47.9-.1 0-.1-.1-.1-.2l-3.3-9.7-2.8 5.8c-.1.1-.2.2-.3.2-2.4.3-6.3 1.6-10.6 2.9-7.2 2.3-15.4 5-19.3 3.8-.5-.1-2.1-.7-3.9-1.4-2.1-.8-4.4-1.6-5.5-2v.1s-1.7-1.6-1.7-1.6c-.4.7-2.2 3.3-3.5 5.5 0 0 12.4 6.2 18.9 4.6 6.5-1.5 25.9-5.5 25.9-5.5s38.6 32.2 47.9 49.9c7.8 14.8 14.1 54.5 15.9 67.2.2.3.4.6.6 1-1.4-11.4-7.9-64.4-13.1-72.7z" fill="#968e89"/></g><g><path d="m151.8 100.6c-.2.3-18 30.1-10.3 52.8 0 .1 1.8 7.2 7.8 10 4 1.8 8.9 1.3 14.7-1.6 18.2-9.2 19.4-31.2 19.4-31.4 0-.1.1-.2.1-.3 3.5-3 4.1-7.9 4.4-10.5l.1-.4c.2-2.1 2.3-5.7 3.2-7.2v-.1l.3-.4s0 0 0-.1c1.5-2.4 3-4.3 3-4.4 6.6-5.5 8.3-14.3 7.4-18.9-.2-1.2-.7-2.1-1.1-2.2-.3-.1-.6 0-.9.4-1.4 1.3-4.8 3.6-8.4 6-4.5 3-9.6 6.4-11.3 8.2-.1.1-.3.2-.5.1-5.6-3-8.6-3-12.1-3.1h-.2c-.2 0-.3-.1-.4-.3-.8-2.6-4-7.8-6.9-12.3-2.1-3.5-4.2-6.7-4.9-8.4-.2-.5-.4-.7-.7-.7-.5-.1-1.3.5-2 1.6-2.7 3.8-4.9 12.5-1.3 20.1 0 .1.3 1.3.6 2.9z" fill="#c1a898"/></g><g><g><circle cx="177.5" cy="115.5" fill="#574236" r="2.8"/></g><g><circle cx="162.2" cy="111.7" fill="#574236" r="2.8"/></g></g><g><path d="m141.8 154.6s-5.9 7.2-7.1 9.9c0 0-2.1-.3-2.1.9 0 1.3 2.4 4.2 3.8 1.7l7.9-9.3z" fill="#c1a898"/></g><g><path d="m162.2 160.1 2.8 10.3s-.8 4.5 1.9 4.1c2.7-.3 3.2-2.7 1.5-4.6l-3.4-12.3z" fill="#c1a898"/></g><g><path d="m155.4 99.4s4.6-1.6 8.1-1.4c0 0-8.3-14.9-9.1-16.7 0 0-.6-1.4-1.1 2.3s-1.2 6.5 0 10.6c1.3 4.1 2.1 5.2 2.1 5.2z" fill="#8e6f5f"/></g><g><path d="m183.3 103.1s6.3-5.6 9.2-7.5 6.8-5.2 6.8-5.2.4 3.7-2.7 9.2c-3.2 5.5-7.9 10.6-7.9 10.6s-1.4-5.4-5.4-7.1z" fill="#8e6f5f"/></g></g></svg>