<svg id="Capa_1" enable-background="new 0 0 512 512" height="512" viewBox="0 0 512 512" width="512" xmlns="http://www.w3.org/2000/svg"><path d="m314.272 116.543h-116.544v-104.541c0-6.629 5.374-12.002 12.002-12.002h92.54c6.628 0 12.001 5.373 12.001 12.001v104.542z" fill="#c9e2e7"/><path d="m302.27 0h-40.856c6.628 0 12.001 5.373 12.001 12.002v104.542h40.856v-104.542c.001-6.629-5.373-12.002-12.001-12.002z" fill="#a8d0d5"/><path d="m364.665 512h-217.33c-13.073 0-23.671-10.598-23.671-23.672v-414.666c0-13.073 10.598-23.671 23.671-23.671h217.329c13.073 0 23.671 10.598 23.671 23.671v414.666c.001 13.074-10.597 23.672-23.67 23.672z" fill="#3c5959"/><path d="m364.665 49.991h-40.856c13.073 0 23.671 10.598 23.671 23.672v414.666c0 13.073-10.598 23.671-23.671 23.671h40.856c13.073 0 23.672-10.598 23.672-23.671v-414.667c-.001-13.073-10.599-23.671-23.672-23.671z" fill="#394949"/><path d="m123.664 73.662c0-13.073 10.598-23.671 23.672-23.671h217.329c13.073 0 23.672 10.598 23.672 23.671v92.207h-264.673z" fill="#89c627"/><path d="m388.336 165.87v-92.208c0-13.073-10.598-23.671-23.672-23.671h-40.855c13.073 0 23.671 10.598 23.671 23.672v92.207z" fill="#7db723"/><path d="m205.941 457.028c-7.609-6.419-8.575-17.792-2.155-25.402l63.055-74.747h-60.474c-15.299 0-23.653-17.944-13.779-29.65l88.067-104.397c6.419-7.608 17.793-8.574 25.402-2.155 7.61 6.419 8.575 17.792 2.155 25.402l-63.054 74.746h60.473c15.299 0 23.653 17.944 13.779 29.65l-88.067 104.398c-6.419 7.61-17.792 8.574-25.402 2.155z" fill="#fcdd2e"/><path d="m277.647 98.364h-14.147v-14.148c0-4.143-3.357-7.5-7.5-7.5s-7.5 3.357-7.5 7.5v14.148h-14.147c-4.143 0-7.5 3.357-7.5 7.5s3.357 7.5 7.5 7.5h14.147v14.147c0 4.143 3.357 7.5 7.5 7.5s7.5-3.357 7.5-7.5v-14.147h14.147c4.143 0 7.5-3.357 7.5-7.5s-3.357-7.5-7.5-7.5z" fill="#e8f3ff"/></svg>