<svg id="Flat" viewBox="0 0 64 64" xmlns="http://www.w3.org/2000/svg"><path d="m27.14 3.093a3 3 0 0 1 5.148-1.033 4 4 0 0 1 6.193.969 4 4 0 0 1 -.481 7.971h-10a4 4 0 0 1 -.86-7.907z" fill="#f6f6ff"/><path d="m38.86 3.093c-.009-.03-.02-.059-.03-.088a2.992 2.992 0 0 0 -2.118 1.055 4 4 0 0 0 -6.193.969 4 4 0 0 0 -3 5.942 4.021 4.021 0 0 0 .481.029h10a4 4 0 0 0 .86-7.907z" fill="#e9e9ff"/><path d="m56.807 37c-3.1 0-3.1-2-6.2-2s-3.1 2-6.2 2-3.1-2-6.2-2-3.107 2-6.207 2-3.114-2-6.213-2-3.1 2-6.2 2-3.1-2-6.2-2-3.1 2-6.2 2-3.087-2-6.187-2v28h62v-28c-3.1 0-3.1 2-6.193 2z" fill="#a7ddfc"/><path d="m56.807 39c-3.1 0-3.1-2-6.2-2s-3.1 2-6.2 2-3.1-2-6.2-2-3.107 2-6.207 2-3.114-2-6.213-2-3.1 2-6.2 2-3.1-2-6.2-2-3.1 2-6.2 2a5.107 5.107 0 0 1 -3.187-1.062v25.062h59v-26c-3.1 0-3.1 2-6.193 2z" fill="#90d2fa"/><path d="m40.8 49.419-1.449-.388 11.579-43.225a.749.749 0 0 1 .919-.53.749.749 0 0 1 .53.918z" fill="#de9086"/><path d="m51.137 7.932a16 16 0 0 1 11.314 19.6l-.518 1.932a5.122 5.122 0 0 0 -7.727-2.071 5.122 5.122 0 0 0 -7.728-2.07z" fill="#fff5ad"/><path d="m53.137 9.932a16.034 16.034 0 0 0 -2.414-.454l-4.245 15.836a5.123 5.123 0 0 1 7.728 2.071 5.122 5.122 0 0 1 7.727 2.071l.518-1.932a15.982 15.982 0 0 0 -3.195-14.424 15.935 15.935 0 0 0 -6.119-3.168z" fill="#ffee76"/><path d="m51.137 7.932-4.659 17.382a5.122 5.122 0 0 1 7.728 2.07l.517-1.932c2.288-8.53.682-16.377-3.586-17.52z" fill="#87a8f3"/><path d="m50.723 9.478-4.245 15.836a5.123 5.123 0 0 1 7.728 2.071l.517-1.932c1.675-6.248 1.263-12.127-.753-15.278-.273-.089-.551-.172-.833-.247a16.034 16.034 0 0 0 -2.414-.45z" fill="#6992f0"/><path d="m51.137 7.932a16 16 0 0 0 -19.6 11.314l-.517 1.931a5.122 5.122 0 0 1 7.727 2.071 5.122 5.122 0 0 1 7.727 2.071z" fill="#87a8f3"/><path d="m33.866 20.183a5.12 5.12 0 0 1 4.885 3.065 5.123 5.123 0 0 1 7.727 2.07l4.245-15.84a16 16 0 0 0 -16.857 10.705z" fill="#6992f0"/><path d="m51.137 7.932-4.656 17.383a5.122 5.122 0 0 0 -7.727-2.071l.518-1.932c2.284-8.531 7.597-14.524 11.865-13.38z" fill="#fff5ad"/><path d="m45.744 9.717c-2.66 2.3-5.108 6.5-6.475 11.6l-.518 1.932a5.123 5.123 0 0 1 7.727 2.07l4.245-15.841a15.891 15.891 0 0 0 -4.979.239z" fill="#ffee76"/><path d="m1 49.71c27.522-17.553 28.193 12.317 62-2v15.29h-62z" fill="#f9bd95"/><path d="m63 46.1c-26.589-11.7-28.057 14.59-62 0v16.9h62z" fill="#fce2cf"/><path d="m4 47.313v15.687h59v-16.9c-25.783-11.35-27.945 13.026-59 1.213z" fill="#facfaf"/><path d="m57 58.75h-4a.75.75 0 0 1 0-1.5h4a.75.75 0 0 1 0 1.5z" fill="#f9bd95"/><path d="m45 55.75h-4a.75.75 0 0 1 0-1.5h4a.75.75 0 0 1 0 1.5z" fill="#f9bd95"/><path d="m11 57.75h-4a.75.75 0 0 1 0-1.5h4a.75.75 0 0 1 0 1.5z" fill="#f9bd95"/><path d="m51 48.75h-3a.75.75 0 0 1 0-1.5h3a.75.75 0 0 1 0 1.5z" fill="#f9bd95"/><path d="m27 58.75h-3a.75.75 0 0 1 0-1.5h3a.75.75 0 0 1 0 1.5z" fill="#f9bd95"/><path d="m35 42.75h-6a.75.75 0 0 1 0-1.5h6a.75.75 0 0 1 0 1.5z" fill="#a7ddfc"/><path d="m10 41.75h-4a.75.75 0 0 1 0-1.5h4a.75.75 0 0 1 0 1.5z" fill="#a7ddfc"/><g fill="#fcdd44"><path d="m9.75 3.75h-1.5v-2.75a.75.75 0 0 1 .75-.75.75.75 0 0 1 .75.75z"/><path d="m9 17.75a.75.75 0 0 1 -.75-.75v-2.75h1.5v2.75a.75.75 0 0 1 -.75.75z"/><path d="m5.726 4.828-1.375-2.381a.749.749 0 0 1 .274-1.025.749.749 0 0 1 1.024.278l1.375 2.378z"/><path d="m12.351 16.3-1.375-2.381 1.3-.75 1.375 2.381a.749.749 0 0 1 -.274 1.025.749.749 0 0 1 -1.026-.275z"/><path d="m4.078 7.024-2.378-1.375a.75.75 0 0 1 -.274-1.024.749.749 0 0 1 1.024-.274l2.378 1.375z"/><path d="m15.553 13.649-2.381-1.375.75-1.3 2.378 1.377a.75.75 0 0 1 .274 1.024.749.749 0 0 1 -1.021.274z"/><path d="m3.75 9.75h-2.75a.75.75 0 0 1 -.75-.75.75.75 0 0 1 .75-.75h2.75z"/><path d="m17 9.75h-2.75v-1.5h2.75a.75.75 0 0 1 .75.75.75.75 0 0 1 -.75.75z"/><path d="m1.423 13.375a.75.75 0 0 1 .277-1.024l2.381-1.375.75 1.3-2.384 1.373a.749.749 0 0 1 -1.024-.274z"/><path d="m13.922 7.024-.75-1.3 2.381-1.375a.749.749 0 0 1 1.024.274.75.75 0 0 1 -.277 1.026z"/><path d="m4.625 16.578a.749.749 0 0 1 -.274-1.025l1.375-2.381 1.3.75-1.377 2.378a.749.749 0 0 1 -1.024.278z"/><path d="m12.274 4.828-1.3-.75 1.377-2.378a.749.749 0 0 1 1.024-.275.749.749 0 0 1 .274 1.025z"/></g><circle cx="9" cy="9" fill="#ffee76" r="6.75"/><circle cx="7" cy="7" fill="#fff5ad" r="1.5"/></svg>