<svg id="Layer_1" enable-background="new 0 0 300 300" viewBox="0 0 300 300" xmlns="http://www.w3.org/2000/svg"><g><g><path d="m42 77.7c2-2.4 5.9-5.1 9.4-6.1-1.5-3.7-8.9-10.9-13.9-9.7-.8.2-1.4.7-1.9 1.5-2 3.7.7 14.1 1.4 16.5 1.6-1.5 3.8-.9 5-2.2z" fill="#7c4225"/></g><g><path d="m125.7 174.9-13.4-31.1c-1.3-4.7-5.9-13.3-10.8-13.4l-7.2-2.7c-5.9 0-11.8 3.9-19.2 4 .9 3.3 7.4 26.6 10.3 38.4 3.3 13.7 12.5 24.3 14.1 26 8.8-10 25.4-19.7 26.2-21.2z" fill="#7c4225"/></g><g><path d="m275.2 175.3c-1.3 4.3-10.5 4.4-12.1 10.1-2.8 9.5 1.4 22.1-2 28.8.8 1.6 9 17.7 9.6 19.5.4 1.2-1.6 2.5-4.4 4.3-2.3 1.5-4.9 3.2-5.5 4.6-.3.9-.3 1.6.1 2.2.9 1.3 3.9 2.7 13 2.2 1.2-.1 2.4-.1 3.4-.1 9.3-.4 13.2-.5 15.8-11.2 3.1-12.3 4.7-31.6-16.2-56.9.1-.1-1.7-3.6-1.7-3.5z" fill="#7c4225"/></g><g><path d="m128.9 207.8c-6.8 5.2-15.5 11.3-19.1 18.8-3.5 7.4-4 8.6-7.4 8.6l-2.7 4.4c-.7.9-1.3 3.1-1.2 3.9.3 1.6 1.9 2.7 2.3 3h9.5c1.5 0 3.5 0 5.9-.1 3.7-.1 8.3-.2 13.5-.1.7-.3 7-2.8 7-8.3 0-5.4-6.8-27.1-7.8-30.2z" fill="#7c4225"/></g><g><g><path d="m277 125.8c-8.9-24.7-25.5-70.5-113.4-64.2-.2 0-14.4-2-23-9.3-7.9-6.7-23.3-8.5-43.1 6.8-.4.2-8.5 5.5-35.6 8.6-.2 0-16.1.8-21.5 7-1.9 2.2-4.3 4.5-6.8 7-4.8 4.7-9.8 9.5-12.1 14.2-.8 1.6-.2 6 0 7.6v.2c1.8 2 .6 11.7 2.1 14.2 1.8 2.9 12.1 8.4 11.8 19 2.7-.1 5.6-.2 8.5-.5 9-.9 36.7-.8 53.2-.7h.1c5.2 0 9.9 3.6 11.3 8.6l7.5 26.7v.3c-.1.1-7.9 13.3-17.4 23.9-1.2 1.3-2.3 2.6-3.6 3.8-11.2 11.2-10 26-6.7 32.7 2.1 4.2 7.5 8.5 12.9 8.5h.1c4.5 0 8.2-3 10.9-8.5 4.1-8.6 12.5-14.9 20-20.6 6.1-4.6 11.8-8.9 14.5-13.8 1-1.9 2.3-3.9 3.5-6 2.5-4.1 5.2-8.7 7.5-13.6 0 0 0 0 0-.1 0 0 0-.1.1-.1h.9l5 1.8c.3.1 36.1 10.8 44.3 7.5l.8.3c2.3 15.2 5 32.4 2.4 41.9-2.5 9.3-6.6 12-6.8 12.1 0 0-.1.1-.2.1s-11.4 1.7-10.8 8c.4 4.7 25.8 4.2 42.8 2.7 0 0 6.2-1.2 6.2-5.1 0-1.4 1.7-3.5 4.5-7 6.2-7.6 17.7-21.8 25-46.8 1.7-5.7 3.2-10.5 4.5-14.8 7.1-23.2 9-29.3.6-52.4z" fill="#905432"/></g><g><path d="m6.3 115.9c-.2.2-.4.4-.5.6l1.2-1.1z" fill="#905432"/></g><g><path d="m29.5 113.5c-1.5-2.5-6.2-7.9-7.9-9.9 0 .1-.1.1-.1.2l-14.5 11.5-1.2 1.1c-.9 1.1-1 2.7-.2 4 .6 1 1.4 2.3 2.3 3.9 2.6 4.5 6.1 10.7 9 11.4 2.6.6 9.8 1.4 18.6 1.2.2-10.6-4.3-20.5-6-23.4z" fill="#c1744d"/></g></g><g><circle cx="36.5" cy="99.6" fill="#493227" r="3.5"/></g><g><path d="m66.3 74.8s11-1.1 17.5 9.5c0 0-3.1 5.3-13.1 8z" fill="#824526"/></g><g><path d="m67.4 75.2c-.9-.3-1.8-.3-2.6.2-2.4 1.3-3.7 5.3-4.1 6.6 6 1.6 8.9 7.5 9.9 10.4.7-5.4 1.1-15.7-3.2-17.2z" fill="#bb663c"/></g></g></svg>