<svg id="flat" height="512" viewBox="0 0 512 512" width="512" xmlns="http://www.w3.org/2000/svg"><path d="m232 448h-24l-64-128v-24h88z" fill="#91591c"/><path d="m246.03714 87.99983a63.88058 63.88058 0 0 1 49.9628-23.99983h37.74835a63.99993 63.99993 0 0 1 53.25115 28.49914l13.00063 19.50093 39.99993 127.99993v168a32 32 0 0 1 32 32v8h-88l-32-144a86.83274 86.83274 0 0 0 -48 77.66556v27.34255a32.01343 32.01343 0 0 1 24 30.99189v8h-96v-104h-16a103.65079 103.65079 0 0 1 -72.00056-28.95369l.00056-.00051v93.96271l.00009-.00035a32.01342 32.01342 0 0 1 23.99991 30.99184v8h-96v-40l-39.20848-71.88222a71.99991 71.99991 0 0 1 -8.79152-34.47735v-77.64043a136 136 0 0 1 136-136z" fill="#b1712c"/><g fill="#a36522"><path d="m376 160h-44a20 20 0 0 1 -20-20 20 20 0 0 1 20-20h44z"/><path d="m424 160h44a20 20 0 0 0 20-20 20 20 0 0 0 -20-20h-44z"/><path d="m216 200h16v144h-16z"/><path d="m144.15719 314.88158a7.90746 7.90746 0 0 1 -11.56428-.12049 110.92018 110.92018 0 0 1 -28.59291-74.76109v-.06683a7.93317 7.93317 0 0 1 7.93317-7.93317h.13366a7.93317 7.93317 0 0 1 7.93317 7.93317v.06683a95.07223 95.07223 0 0 0 24.40847 63.96942 7.9021 7.9021 0 0 1 -.11325 10.76831z"/><path d="m216 152h16v24h-16z"/><path d="m410.38281 141.99609-30.03955-45.05957a55.88881 55.88881 0 0 0 -46.59521-24.93652h-45.74805a56.06322 56.06322 0 0 0 -56 56h-16a72.08156 72.08156 0 0 1 72-72h45.748a71.85421 71.85421 0 0 1 59.90771 32.06152l30.03955 45.05957z"/></g><path d="m472 184v16a32 32 0 0 1 -12.8 25.6l-19.2 14.4v8a40 40 0 0 1 -40 40 40 40 0 0 1 -40-40v-8l-19.2-14.4a32 32 0 0 1 -12.8-25.6v-16a71.99993 71.99993 0 0 1 71.99993-71.99993h.00014a71.99993 71.99993 0 0 1 71.99993 71.99993z" fill="#c78640"/><path d="m400 256a7.99967 7.99967 0 0 1 -7.15527-4.42188l-8-16a8 8 0 0 1 7.15527-11.57812h16a8 8 0 0 1 7.15527 11.57812l-8 16a7.99967 7.99967 0 0 1 -7.15527 4.42188z" fill="#a36522"/><circle cx="376" cy="192" fill="#a36522" r="8"/><circle cx="424" cy="192" fill="#a36522" r="8"/></svg>