<svg id="Capa_1" enable-background="new 0 0 512 512" height="512" viewBox="0 0 512 512" width="512" xmlns="http://www.w3.org/2000/svg"><g><g><g><path d="m65.828 280.888h380.344c2.922 0 5.767.326 8.511.927v-120.509c0-19.758-16.017-35.775-35.776-35.775h-325.814c-19.758 0-35.776 16.017-35.776 35.775v120.509c2.744-.601 5.589-.927 8.511-.927z" fill="#f6a96c"/></g></g><g><g><path d="m418.907 125.531h-41.683c19.758 0 35.776 16.017 35.776 35.775v119.582h33.172c2.922 0 5.767.326 8.511.927v-120.509c0-19.758-16.017-35.775-35.776-35.775z" fill="#ea9b58"/></g></g><g><g><path d="m25.083 421.892h46.561v50.231h-46.561z" fill="#e2dee2"/></g><path d="m25.083 421.893h46.561v43.732h-46.561z" fill="#e2dee2"/><path d="m50.726 421.893h20.917v43.732h-20.917z" fill="#cbc4cc"/><path d="m440.356 421.893h46.561v43.732h-46.561z" fill="#e2dee2"/><path d="m466 421.893h20.917v43.732h-20.917z" fill="#cbc4cc"/></g><g><path d="m504.5 479.624h-497c-4.143 0-7.5-3.358-7.5-7.5s3.357-7.5 7.5-7.5h497c4.143 0 7.5 3.358 7.5 7.5s-3.357 7.5-7.5 7.5z" fill="#ffe5c2"/></g><g><g><path d="m419.01 280.888c1.451-3.008 2.266-6.374 2.266-9.922v-52.384c0-12.643-10.344-22.988-22.988-22.988h-99.878c-12.643 0-22.988 10.345-22.988 22.988v52.384c0 3.548.815 6.914 2.266 9.922z" fill="#fff"/></g><g><path d="m398.288 195.594h-31.276c12.643 0 22.988 10.345 22.988 22.988v52.384c0 3.548-.815 6.914-2.266 9.922h31.276c1.451-3.008 2.266-6.374 2.266-9.922v-52.384c0-12.643-10.345-22.988-22.988-22.988z" fill="#f3f0f3"/></g><g><path d="m234.312 280.888c1.451-3.008 2.266-6.374 2.266-9.922v-52.384c0-12.643-10.344-22.988-22.988-22.988h-99.878c-12.643 0-22.988 10.345-22.988 22.988v52.384c0 3.548.815 6.914 2.266 9.922z" fill="#fff"/></g><g><path d="m213.59 195.594h-31.276c12.643 0 22.988 10.345 22.988 22.988v52.384c0 3.548-.815 6.914-2.266 9.922h31.276c1.451-3.008 2.266-6.374 2.266-9.922v-52.384c0-12.643-10.344-22.988-22.988-22.988z" fill="#f3f0f3"/></g></g><g><path d="m486.917 343.013v-22.379c0-22.503-18.242-40.746-40.746-40.746h-380.343c-22.503 0-40.746 18.242-40.746 40.746v22.379z" fill="#ffe5c2"/></g><g><path d="m446.172 279.888h-46.083c22.503 0 40.746 18.242 40.746 40.746v22.379h46.083v-22.379c-.001-22.503-18.243-40.746-40.746-40.746z" fill="#fed2a4"/></g><g><path d="m489.5 422.893h-467c-8.284 0-15-6.716-15-15v-50.88c0-8.284 6.716-15 15-15h467c8.284 0 15 6.716 15 15v50.88c0 8.284-6.716 15-15 15z" fill="#f6a96c"/></g><g><path d="m489.5 342.013h-50.5c8.284 0 15 6.716 15 15v50.88c0 8.284-6.716 15-15 15h50.5c8.284 0 15-6.716 15-15v-50.88c0-8.284-6.716-15-15-15z" fill="#ea9b58"/></g><g><path d="m7.5 407.893c0 8.284 6.716 15 15 15h467c8.284 0 15-6.716 15-15v-23.141h-497z" fill="#b5adb6"/></g><g><path d="m504.5 407.893v-23.141h-50.5v23.141c0 8.284-6.716 15-15 15h50.5c8.284 0 15-6.716 15-15z" fill="#a79ba7"/></g><g><path d="m157.991 76.36 10.817 19.777c.323.59.808 1.075 1.398 1.398l19.777 10.817c2.439 1.334 2.439 4.837 0 6.17l-19.777 10.817c-.59.323-1.075.808-1.398 1.398l-10.817 19.777c-1.334 2.439-4.837 2.439-6.17 0l-10.817-19.777c-.323-.59-.808-1.075-1.398-1.398l-19.777-10.817c-2.439-1.334-2.439-4.837 0-6.17l19.777-10.817c.59-.323 1.075-.808 1.398-1.398l10.817-19.777c1.334-2.439 4.836-2.439 6.17 0z" fill="#ffe177"/></g><g><g><path d="m189.983 108.351-14.348-7.847-19.741 10.797c-.59.323-1.075.808-1.398 1.398l-10.584 19.353 7.909 14.462c1.334 2.439 4.837 2.439 6.17 0l10.817-19.777c.323-.59.808-1.075 1.398-1.398l19.777-10.817c2.439-1.334 2.439-4.837 0-6.171z" fill="#ffd15b"/></g></g><g fill="#ffd15b"><path d="m236 48.128h-8.252v-8.252c0-4.142-3.357-7.5-7.5-7.5s-7.5 3.358-7.5 7.5v8.252h-8.252c-4.143 0-7.5 3.358-7.5 7.5s3.357 7.5 7.5 7.5h8.252v8.252c0 4.142 3.357 7.5 7.5 7.5s7.5-3.358 7.5-7.5v-8.252h8.252c4.143 0 7.5-3.358 7.5-7.5s-3.357-7.5-7.5-7.5z"/><path d="m295 82.128h-3.252v-3.252c0-4.142-3.357-7.5-7.5-7.5s-7.5 3.358-7.5 7.5v3.252h-3.252c-4.143 0-7.5 3.358-7.5 7.5s3.357 7.5 7.5 7.5h3.252v3.252c0 4.142 3.357 7.5 7.5 7.5s7.5-3.358 7.5-7.5v-3.252h3.252c4.143 0 7.5-3.358 7.5-7.5s-3.357-7.5-7.5-7.5z"/></g><g><path d="m362.16 37.316 8.401 15.361c.323.59.808 1.075 1.398 1.398l15.361 8.401c2.439 1.334 2.439 4.837 0 6.17l-15.361 8.401c-.59.323-1.075.808-1.398 1.398l-8.401 15.361c-1.334 2.439-4.837 2.439-6.17 0l-8.401-15.361c-.323-.59-.808-1.075-1.398-1.398l-15.361-8.401c-2.439-1.334-2.439-4.837 0-6.17l15.361-8.401c.59-.323 1.075-.808 1.398-1.398l8.401-15.361c1.334-2.439 4.836-2.439 6.17 0z" fill="#ffe177"/></g><g><g><path d="m387.321 62.476-10.738-5.873c-.219.208-.467.396-.753.553l-15.361 8.401c-.59.323-1.075.808-1.398 1.398l-8.401 15.361c-.156.285-.344.534-.552.753l5.873 10.738c1.334 2.439 4.837 2.439 6.171 0l8.401-15.361c.323-.59.808-1.075 1.398-1.398l15.362-8.401c2.437-1.334 2.437-4.837-.002-6.171z" fill="#ffd15b"/></g></g></g></svg>