<svg id="Capa_1" enable-background="new 0 0 512 512" height="512" viewBox="0 0 512 512" width="512" xmlns="http://www.w3.org/2000/svg"><g><g><g><path d="m497 90h-60c-8.284 0-15-15-15-15l30-14.992 45-.008c8.284 0 15 6.716 15 15s-6.716 15-15 15z" fill="#ff884d"/></g><g><path d="m497 160.333h-60c-8.284 0-15-6.716-15-15s6.716-15 15-15h60c8.284 0 15 6.716 15 15s-6.716 15-15 15z" fill="#ff884d"/></g><g><path d="m497 230.667h-60c-8.284 0-15-6.716-15-15s6.716-15 15-15h60c8.284 0 15 6.716 15 15s-6.716 15-15 15z" fill="#ff884d"/></g><g><path d="m497 301h-60c-8.284 0-15-6.716-15-15s6.716-15 15-15h60c8.284 0 15 6.716 15 15s-6.716 15-15 15z" fill="#ff884d"/></g><g><path d="m497 371.333h-60c-8.284 0-15-6.716-15-15s6.716-15 15-15h60c8.284 0 15 6.716 15 15s-6.716 15-15 15z" fill="#ff884d"/></g><g><path d="m497 441.667h-60c-8.284 0-15-6.716-15-15s6.716-15 15-15h60c8.284 0 15 6.716 15 15s-6.716 15-15 15z" fill="#ff884d"/></g><g><path d="m497 512h-45l-11.521-14.404 11.521-15.596h45c8.284 0 15 6.716 15 15s-6.716 15-15 15z" fill="#ff884d"/></g></g><path d="m214 176.41 70.011 193.359-70.011 124.231-141.759-1.83-48.99-20.63-6.45-59.31 58.2-50.23z" fill="#cc295f"/><path d="m452 60.25v421.75l-30.35 14.68-207.65-2.68v-317.59l87-116.16z" fill="#991f48"/><path d="m75.201 422h138.799l20.401 19.667-20.401 10.333h-139.229c-8.52 0-15.38-7.11-14.98-15.73.38-8.06 7.33-14.27 15.41-14.27z" fill="#ff4d4d"/><path d="m214 30v346.39l-57-.31-96.34-.52-60.659 61.44v-362c0-20.02 7.8-38.86 21.96-53.03 14.18-14.17 33.02-21.97 53.04-21.97h82z" fill="#ffc34d"/><path d="m372 15v392l-42.63-30-58.37-.31-57-.3v-346.39l57-30h86c8.28 0 15 6.72 15 15z" fill="#ff884d"/><g><path d="m214 0 57 188.195-57 188.195-57-.31v-376.08z" fill="#ffe6cc"/></g><path d="m271 0v376.69l-57-.3v-376.39z" fill="#fc9"/><path d="m43.171 405.18c-8.45 8.46-13.13 19.7-13.17 31.65-.09 24.85 20.95 45.17 45.79 45.17h138.209l22.023 14.68-22.023 15.32h-138.009c-41.43 0-76.16-33.89-75.99-75.32.08-19.9 7.87-38.61 21.96-52.71 14.18-14.17 33.02-21.97 53.04-21.97h139l23.878 14.69-23.879 15.31h-139c-12.019 0-23.319 4.68-31.829 13.18z" fill="#ff4d4d"/><g fill="#cc295f"><path d="m371.99 406.22c.43 25.17-20.61 45.78-45.79 45.78h-112.2v-30h113c8.52 0 15.41-7.14 14.98-15.76-.4-8.05-7.35-14.24-15.42-14.24h-112.56v-30h113c24.55 0 44.57 19.76 44.99 44.22z"/><path d="m214 482h238v30h-238z"/></g></g></svg>