<svg id="Capa_1" enable-background="new 0 0 512 512" height="512" viewBox="0 0 512 512" width="512" xmlns="http://www.w3.org/2000/svg"><g><g><path d="m436.786 101.191c0-2.761-2.238-5-5-5h-73.347v31.564l37.62 9 40.727-9z" fill="#ff7590"/><path d="m358.439 145.791h73.347c2.762 0 5-2.239 5-5v-13.035h-78.347z" fill="#ff5680"/><path d="m358.439 244.575c-4.15 0-7.515-3.364-7.515-7.515v-149.079c0-4.151 3.365-7.515 7.515-7.515s7.515 3.364 7.515 7.515v149.079c0 4.151-3.365 7.515-7.515 7.515z" fill="#0681af"/><g><path d="m419.086 271.822 3.753-29.974c1.037-8.28-4.87-15.819-13.157-16.794l-43.763-5.149-7.48 8.12-7.48-9.88-52.443-6.171-8.053 8.052-6.908-9.813-42.103-4.954c-7.01-.825-13.649 3.34-15.959 10.009l-11.235 32.452 102.811 21.097z" fill="#62dbfb"/></g><path d="m342.628 262.826 8.296 9.976 6.664-8.216 8.331-44.681-14.96-1.76z" fill="#01d0fb"/><path d="m275.224 254.895 7.828 9.921 7.132-8.161 8.331-44.681-14.96-1.76z" fill="#01d0fb"/><path d="m204.75 275.185 102.405 21.05 108.404 3.755 3.527-28.168-204.828-24.101z" fill="#dedbee"/><path d="m204.75 275.185-6 17.329 106.079 21.482 108.504 3.767 2.226-17.773z" fill="#d2cfe9"/><path d="m153.17 236.249-85.398-8.651c-5.826-.591-11.666 1.324-16.014 5.253-4.347 3.93-6.84 9.543-6.84 15.403v36.061c0 4.151 3.364 7.515 7.515 7.515s7.515-3.364 7.515-7.515v-36.061c0-1.642.671-3.153 1.889-4.253 1.218-1.101 2.787-1.62 4.422-1.45l34.607 3.506v44.842c0 4.151 3.365 7.515 7.515 7.515s7.515-3.364 7.515-7.515v-43.319l35.763 3.623c2.938.297 5.155 2.749 5.155 5.704v40.576c0 4.151 3.365 7.515 7.515 7.515s7.515-3.364 7.515-7.515v-40.576c-.004-10.7-8.031-19.581-18.674-20.658z" fill="#d2cfe9"/><path d="m464.736 359.494c2.959-9.17 5.399-19.056 7.048-29.639.436-2.796-1.552-5.397-4.363-5.728l-434.044-51.071c-3.442-.405-6.237 2.723-5.455 6.099 1.471 6.354 4.324 16.796 9.505 30.06l56.323 18.123 321.808 37.865z" fill="#fff0ad"/><path d="m94.752 402.28 12.157 7.028c8.764 0 17.529 2.978 24.677 8.932 14.296 11.91 35.058 11.91 49.354 0 7.334-6.11 16.371-9.086 25.363-8.926 8.992-.159 18.029 2.816 25.363 8.926 14.296 11.91 35.058 11.91 49.354 0 7.148-5.955 15.912-8.932 24.677-8.932s17.529 2.978 24.677 8.932c14.296 11.91 35.058 11.91 49.354 0 7.335-6.11 16.371-9.086 25.363-8.926 8.992-.159 18.029 2.816 25.363 8.926l6.918-4.402c3.111-4.369 6.312-9.247 9.468-14.603-5.872-1.29-11.506-3.965-16.386-8.03-7.335-6.11-16.371-9.085-25.363-8.926-8.992-.16-18.029 2.816-25.363 8.926-14.296 11.91-35.058 11.91-49.354 0-7.148-5.955-15.912-8.932-24.677-8.932s-17.529 2.977-24.677 8.932c-14.296 11.91-35.058 11.91-49.354 0-7.334-6.11-16.371-9.085-25.363-8.926-8.992-.16-18.029 2.816-25.363 8.926-14.296 11.91-35.058 11.91-49.354 0-7.148-5.955-15.912-8.932-24.677-8.932-7.951 0-15.898 2.459-22.643 7.36 3.309 4.182 6.797 8.402 10.486 12.647z" fill="#017297"/><path d="m84.266 389.634c6.744-4.901 14.691-7.36 22.643-7.36 8.765 0 17.529 2.977 24.677 8.932 14.296 11.91 35.058 11.91 49.354 0 7.334-6.11 16.371-9.085 25.363-8.926 8.992-.159 18.029 2.816 25.363 8.926 14.296 11.91 35.058 11.91 49.354 0 7.148-5.955 15.912-8.932 24.677-8.932s17.529 2.977 24.677 8.932c14.296 11.91 35.058 11.91 49.354 0 7.334-6.11 16.371-9.085 25.363-8.926 8.992-.159 18.029 2.816 25.363 8.926 4.88 4.065 10.514 6.74 16.386 8.03 6.581-11.171 12.961-24.453 17.894-39.742l-427.302-50.278c8.313 21.275 22.622 49.816 46.834 80.418z" fill="#0681af"/></g><path d="m455.132 431.534c-10.472 0-20.944-3.559-29.487-10.675-5.722-4.767-12.97-7.333-20.421-7.187-.088.002-.178.002-.266 0-7.443-.174-14.699 2.42-20.42 7.186-17.086 14.235-41.888 14.234-58.974.001-5.567-4.638-12.622-7.192-19.867-7.192s-14.301 2.554-19.867 7.191c-17.086 14.235-41.887 14.234-58.973.001-5.722-4.767-12.962-7.333-20.421-7.187-.088.002-.178.002-.266 0-7.45-.174-14.699 2.42-20.42 7.186-17.086 14.235-41.889 14.234-58.974.001-5.566-4.638-12.622-7.192-19.867-7.192s-14.301 2.554-19.867 7.191c-17.087 14.235-41.888 14.234-58.974.001-5.722-4.767-12.953-7.333-20.421-7.187-.045.001-.091.001-.136.001-4.088 0-7.438-3.277-7.511-7.382-.073-4.15 3.231-7.573 7.381-7.647 11.045-.184 21.815 3.592 30.307 10.666 11.51 9.59 28.221 9.59 39.734 0 8.261-6.883 18.733-10.673 29.487-10.673 10.753 0 21.225 3.791 29.487 10.673 11.512 9.591 28.222 9.59 39.734 0 8.456-7.045 19.156-10.821 30.173-10.668 11.012-.122 21.716 3.622 30.174 10.668 11.51 9.59 28.221 9.59 39.734 0 8.261-6.883 18.733-10.673 29.487-10.673 10.753 0 21.225 3.791 29.487 10.673 11.51 9.59 28.221 9.59 39.734 0 8.457-7.045 19.149-10.821 30.173-10.668 11.022-.122 21.717 3.622 30.174 10.668 11.511 9.59 28.221 9.59 39.734 0 8.262-6.883 18.734-10.673 29.487-10.673 4.15 0 7.515 3.364 7.515 7.515s-3.365 7.515-7.515 7.515c-7.245 0-14.3 2.554-19.867 7.192-8.545 7.116-19.017 10.675-29.488 10.675z" fill="#01d0fb"/></g></svg>