<svg height="512" viewBox="0 0 64 64" width="512" xmlns="http://www.w3.org/2000/svg"><g id="flat"><g id="_20-Email_copy_4" data-name="20-Email copy 4"><path d="m16.0063 31h19.9874a2.0063 2.0063 0 0 1 2.0063 2.0063v24.127a3.8667 3.8667 0 0 1 -3.8667 3.8667h-16.2666a3.8667 3.8667 0 0 1 -3.8667-3.8667v-24.127a2.0063 2.0063 0 0 1 2.0063-2.0063z" fill="#80cbc4"/><path d="m35.9937 31h-3a2.0064 2.0064 0 0 1 2.0063 2.0063v24.127a3.8666 3.8666 0 0 1 -3.8666 3.8667h3a3.8666 3.8666 0 0 0 3.8666-3.8667v-24.127a2.0064 2.0064 0 0 0 -2.0063-2.0063z" fill="#24a69a"/><path d="m16.013 26h19.975v5h-19.975z" fill="#4cb6ac"/><path d="m33 26h2.987v5h-2.987z" fill="#24a69a"/><path d="m14 40h24v12h-24z" fill="#ffe0b2"/><path d="m35 40h3v12h-3z" fill="#fecc81"/><path d="m46 47a5.0059 5.0059 0 0 1 -5-5v-22a4.4916 4.4916 0 0 0 -1.5835-3.2842l-.1821-.206c-.7105-.8057-2.8487-2.794-3.6245-3.51h-3.6099a1 1 0 0 1 0-2h4.0029c8.1294.0022 14.9971 6.7053 14.9971 14.6402v16.36a5.0059 5.0059 0 0 1 -5 5zm-7.1167-33.6719c.7358.7031 1.4658 1.4219 1.8516 1.8594l.1772.2a6.44 6.44 0 0 1 2.0879 4.6125v22a3 3 0 0 0 6 0v-16.36a12.9345 12.9345 0 0 0 -10.1167-12.3119z" fill="#fcb64d"/><path d="m23 3h6v4h-6z" fill="#24a69a"/><path d="m28 3h1v4h-1z" fill="#009789"/><path d="m36 17h-20v-4a2 2 0 0 1 2-2h16a2 2 0 0 1 2 2z" fill="#fecc81"/><path d="m34 11h-2a2 2 0 0 1 2 2v4h2v-4a2 2 0 0 0 -2-2z" fill="#fcb64d"/><g fill="#fafbfb"><path d="m26 18a1 1 0 0 1 -1-1v-6a1 1 0 0 1 2 0v6a1 1 0 0 1 -1 1z"/><path d="m31 18a1 1 0 0 1 -1-1v-6a1 1 0 0 1 2 0v6a1 1 0 0 1 -1 1z"/><path d="m21 18a1 1 0 0 1 -1-1v-6a1 1 0 0 1 2 0v6a1 1 0 0 1 -1 1z"/></g><path d="m30 4h-8a1 1 0 0 1 0-2h8a1 1 0 0 1 0 2z" fill="#4cb6ac"/><rect fill="#80cbc4" height="9" rx="2.006" width="24" x="14" y="17"/><path d="m35.9937 17h-3a2.0064 2.0064 0 0 1 2.0063 2.0063v4.9874a2.0064 2.0064 0 0 1 -2.0063 2.0063h3a2.0064 2.0064 0 0 0 2.0063-2.0063v-4.9874a2.0064 2.0064 0 0 0 -2.0063-2.0063z" fill="#4cb6ac"/><path d="m21 7h10a2 2 0 0 1 2 2v2a0 0 0 0 1 0 0h-14a0 0 0 0 1 0 0v-2a2 2 0 0 1 2-2z" fill="#4cb6ac"/><path d="m31 7h-2a2 2 0 0 1 2 2v2h2v-2a2 2 0 0 0 -2-2z" fill="#24a69a"/></g></g></svg>