<svg id="圖層_1" height="512" viewBox="0 0 512 512" width="512" xmlns="http://www.w3.org/2000/svg"><path id="_x30_4" d="m505.236 180.931c0 45.586-111.594 82.56-249.236 82.56s-249.237-36.974-249.237-82.56c0-45.612 111.594-82.572 249.237-82.572s249.236 36.959 249.236 82.572z" fill="#e2e0dd"/><path id="_x30_3" d="m349.338 380.909c0 21.822-44.093 39.496-98.463 39.496-54.371 0-98.49-17.674-98.49-39.496 0-21.796 44.12-39.471 98.49-39.471s98.463 17.675 98.463 39.471z" fill="#af4e4e"/><path id="_x30_2" d="m256 263.49c-129.928 0-236.608-32.932-248.18-74.964 0 .528-.026 1.057-.026 1.585 0 69.957 93.18 187.864 240.518 187.204 167.84-.727 256.924-116.731 256.924-186.689 0-1.929-.105-3.791-.316-5.627-6.394 43.697-115.399 78.491-248.92 78.491z" fill="#df6675"/><path id="_x30_1" d="m256 270.253c-143.547 0-256-39.232-256-89.322 0-50.091 112.453-89.336 256-89.336 143.548 0 256 39.245 256 89.336 0 50.09-112.452 89.322-256 89.322zm0-165.132c-145.04 0-242.473 39.192-242.473 75.81 0 36.604 97.433 75.796 242.473 75.796 145.041 0 242.474-39.192 242.474-75.796 0-36.618-97.433-75.81-242.474-75.81z" fill="#e99fa9"/></svg>