<svg id="Layer_1" height="512" viewBox="0 0 100 100" width="512" xmlns="http://www.w3.org/2000/svg" data-name="Layer 1"><path d="m83.83 78.82 2.86 16.03-16.15-2.74-4.53-4.53 13.29-13.29z" fill="#b3b3b3"/><path d="m86.69 95.35h-.09l-16.15-2.75a.59.59 0 0 1 -.27-.14l-4.52-4.52a.55.55 0 0 1 -.15-.36.51.51 0 0 1 .15-.35l13.34-13.29a.5.5 0 0 1 .7 0l4.53 4.52a.59.59 0 0 1 .14.27l2.86 16a.48.48 0 0 1 -.14.44.47.47 0 0 1 -.4.18zm-15.91-3.71 15.29 2.6-2.71-15.18-4.06-4.06-12.58 12.58z"/><path d="m66.47 75.96h9.25v6.82h-9.25z" fill="#b3b3b3" transform="matrix(.707 -.707 .707 .707 -35.3 73.52)"/><path d="m70.23 85.56a.49.49 0 0 1 -.35-.15l-4.82-4.82a.5.5 0 0 1 0-.71l6.54-6.54a.48.48 0 0 1 .7 0l4.83 4.82a.51.51 0 0 1 .15.35.53.53 0 0 1 -.15.36l-6.54 6.54a.51.51 0 0 1 -.36.15zm-4.11-5.33 4.11 4.12 5.84-5.84-4.07-4.11z"/><path d="m64.14 79.24h18.79v5.14h-18.79z" fill="#808080" transform="matrix(.707 -.707 .707 .707 -36.31 75.96)"/><path d="m68.71 90.77a.5.5 0 0 1 -.36-.14l-3.63-3.63a.5.5 0 0 1 0-.71l13.28-13.29a.5.5 0 0 1 .71 0l3.64 3.63a.51.51 0 0 1 0 .71l-13.29 13.29a.49.49 0 0 1 -.35.14zm-2.93-4.13 2.93 2.93 12.58-12.57-2.93-2.93z"/><path d="m59.9 85.44a2 2 0 0 1 -1.41-.58 2 2 0 0 1 0-2.83l26.45-26.45a7.19 7.19 0 0 0 0-10.14l-25-25a7.17 7.17 0 0 0 -10.14 0l-18.38 18.45a2 2 0 0 1 -2.82 0l-15.14-15a2 2 0 0 1 2.82-2.85l13.72 13.61 17-17a11.18 11.18 0 0 1 15.8 0l25 25a11.17 11.17 0 0 1 0 15.79l-26.49 26.42a2 2 0 0 1 -1.41.58z" fill="#999"/><path d="m59.9 85.94a2.49 2.49 0 0 1 -2.5-2.5 2.47 2.47 0 0 1 .73-1.76l26.45-26.45a6.68 6.68 0 0 0 0-9.43l-25-25a6.68 6.68 0 0 0 -9.43 0l-18.37 18.44a2.5 2.5 0 0 1 -3.53 0l-15.14-15a2.5 2.5 0 0 1 3.52-3.55l13.37 13.31 16.65-16.7a11.66 11.66 0 0 1 16.5 0l25 25a11.68 11.68 0 0 1 0 16.5l-26.48 26.41a2.49 2.49 0 0 1 -1.77.73zm-5-68.06a7.64 7.64 0 0 1 5.42 2.24l25 25a7.67 7.67 0 0 1 0 10.84l-26.48 26.42a1.52 1.52 0 0 0 -.44 1.06 1.5 1.5 0 0 0 .44 1.06 1.53 1.53 0 0 0 2.12 0l26.45-26.44a10.68 10.68 0 0 0 0-15.09l-25-25a10.67 10.67 0 0 0 -15.08 0l-17 17a.5.5 0 0 1 -.7 0l-13.7-13.55a1.5 1.5 0 1 0 -2.11 2.13l15.18 14.99a1.5 1.5 0 0 0 2.12 0l18.36-18.42a7.64 7.64 0 0 1 5.42-2.24z"/><rect fill="#a67c52" height="32.53" rx="1.99" transform="matrix(.707 -.707 .707 .707 -.51 61.82)" width="12.77" x="67.98" y="15.26"/><path d="m81.35 47.22a2.48 2.48 0 0 1 -1.76-.73l-20.19-20.19a2.49 2.49 0 0 1 0-3.52l6.22-6.22a2.49 2.49 0 0 1 3.52 0l20.19 20.19a2.49 2.49 0 0 1 0 3.52l-6.22 6.22a2.45 2.45 0 0 1 -1.76.73zm-14-30.39a1.49 1.49 0 0 0 -1 .44l-6.22 6.22a1.48 1.48 0 0 0 0 2.1l20.17 20.2a1.48 1.48 0 0 0 2.1 0l6.23-6.23a1.48 1.48 0 0 0 0-2.1l-20.2-20.19a1.49 1.49 0 0 0 -1.05-.44z"/><g opacity=".1"><path d="m89.42 37.79a2 2 0 0 1 -.42 2.13l-6.22 6.22a2 2 0 0 1 -2.8 0l-20.23-20.14a2 2 0 0 1 0-2.81l.39-.38a1.83 1.83 0 0 0 .45.7l14 14a10.8 10.8 0 0 0 14.83.28z"/></g><path d="m20.64 12.85 3 3a3.35 3.35 0 0 1 0 4.74 1.94 1.94 0 0 0 0 2.73 1.83 1.83 0 0 1 0 2.6l-4.88 4.89a1.85 1.85 0 0 1 -2.6 0 1.93 1.93 0 0 0 -2.74 0 3.36 3.36 0 0 1 -4.73 0l-3-3z" fill="#a67c52"/><path d="m11.05 32.28a3.84 3.84 0 0 1 -2.73-1.12l-3-3a.48.48 0 0 1 0-.7l15-15a.51.51 0 0 1 .71 0l3 3a3.85 3.85 0 0 1 0 5.44 1.45 1.45 0 0 0 0 2 2.34 2.34 0 0 1 0 3.3l-4.93 4.96a2.39 2.39 0 0 1 -3.3 0 1.47 1.47 0 0 0 -2 0 3.84 3.84 0 0 1 -2.75 1.12zm-4.66-4.47 2.61 2.64a2.85 2.85 0 0 0 4 0 2.49 2.49 0 0 1 3.44 0 1.36 1.36 0 0 0 1.89 0l4.89-4.89a1.33 1.33 0 0 0 0-1.88 2.44 2.44 0 0 1 0-3.45 2.85 2.85 0 0 0 0-4l-2.65-2.65z"/><g opacity=".1"><path d="m22.07 27.47-3.33 3.33a1.81 1.81 0 0 1 -2.59 0 1.94 1.94 0 0 0 -2.73 0 3.36 3.36 0 0 1 -4.74 0l-3-3 3.32-3.32 3 3a3.34 3.34 0 0 0 4.75 0 1.94 1.94 0 0 1 2.72 0 1.83 1.83 0 0 0 2.6-.01z"/></g><path d="m80.13 94.24a.52.52 0 0 1 -.39-.19.49.49 0 0 1 .08-.7l5.56-4.44a.51.51 0 0 1 .63.79l-5.57 4.43a.51.51 0 0 1 -.31.11z"/><path d="m75.48 93.45a.52.52 0 0 1 -.39-.19.5.5 0 0 1 .08-.7l9.52-7.56a.5.5 0 0 1 .7.08.52.52 0 0 1 -.08.71l-9.52 7.55a.51.51 0 0 1 -.31.11z"/><path d="m70.85 92.66a.52.52 0 0 1 -.39-.19.5.5 0 0 1 .08-.7l13.46-10.72a.5.5 0 0 1 .7.08.52.52 0 0 1 -.08.71l-13.46 10.71a.51.51 0 0 1 -.31.11z"/></svg>