<svg id="Capa_1" enable-background="new 0 0 512 512" height="512" viewBox="0 0 512 512" width="512" xmlns="http://www.w3.org/2000/svg"><g><path d="m464.658 202.046-45.858-20.642c-17.628-6.098-37.236-11.227-58.359-15.19l-60.94-7.768c-14.139-1.015-28.673-1.544-43.502-1.544-9.583 0-19.043.221-28.353.651l-75.723 8.592c-62.131 11.608-111.202 33.29-135.412 60.098l-8.319 38.014-5.145 27.887c0 31.926 25.881 57.807 57.806 57.807h388.194l45.601-11.371c10.708-10.491 17.352-25.115 17.352-41.29v-33.032c0-23.189-17.532-44.661-47.342-62.212z" fill="#ffc269"/><path d="m82.581 338.581c-36.486 0-66.065-29.578-66.065-66.065v-46.269c-10.644 11.803-16.516 24.644-16.516 38.011v33.032c0 31.926 25.881 57.806 57.806 57.806h396.387c15.74 0 30.031-6.31 40.455-16.516h-412.067z" fill="#ffa95f"/><g fill="#fff0af"><path d="m437.502 188.564-46.752 50.686-.726 18.061c25.181-14.769 50.411-33.315 74.597-55.233-8.167-4.81-17.233-9.333-27.119-13.514z"/><path d="m321.919 160.519-19.919 3.314c-28.353 29.682-40.361 56.24-57.667 87.5l7.2 5.16c30.94-18.297 61.944-42.214 90.928-71.198 6.255-6.255 12.203-12.659 17.98-19.081-12.351-2.317-25.225-4.223-38.522-5.695z"/><path d="m177.942 161.984-22.609 9.016c-25.052 27.419-43.482 53.208-59.333 81.75l12.764 5.119c31.875-18.602 63.89-43.154 93.786-73.049 8.899-8.899 17.161-18.051 25.098-27.266-17.143.793-33.763 2.292-49.706 4.43z"/></g><path d="m177.941 161.976c-8.829 1.19-17.631 2.602-26.017 4.17-25.052 27.419-45.796 56.234-61.647 84.776-4.235 7.625 3.509 15.369 11.134 11.134 2.463-1.368 4.887-2.748 7.353-4.187 18.554-32.188 41.857-64.727 69.177-95.893z" fill="#ffe07d"/><path d="m321.919 160.519c-7.351-.82-14.82-1.526-22.417-2.072-28.353 29.682-51.554 61.237-68.86 92.498-4.205 7.595 3.539 15.339 11.134 11.134 3.24-1.793 6.514-3.668 9.757-5.586 18.586-32.307 42.27-64.935 70.386-95.974z" fill="#ffe07d"/><path d="m437.502 188.564c-5.959-2.522-12.164-4.898-18.701-7.159-19.143 22.75-35.363 46.217-48.276 69.541-4.205 7.595 3.539 15.339 11.134 11.134 2.774-1.535 5.588-3.14 8.365-4.768 13.452-22.978 29.346-46.197 47.478-68.748z" fill="#ffe07d"/></g></svg>