<svg id="Capa_1" enable-background="new 0 0 512 512" height="512" viewBox="0 0 512 512" width="512" xmlns="http://www.w3.org/2000/svg"><g><g><path d="m319.204 448h144.148c11.782 0 21.165-9.862 20.578-21.63l-10.138-203.308c-.118-2.361.968-4.624 2.884-6.009 22.162-16.024 35.324-36.038 35.324-57.748 0-52.636-77.365-95.305-172.8-95.305h-136.43l-49.893 212.604z" fill="#c27742"/><path d="m348.436 426.37-10.138-203.308c-.118-2.361.968-4.624 2.884-6.009 22.162-16.024 35.324-36.038 35.324-57.748 0-59.096-99.236-98.522-191.888-95.088l-31.741 212.386 144.075 171.397h30.906c11.782 0 21.165-9.862 20.578-21.63z" fill="#a8673a"/><path d="m345.6 159.305c0-52.636-77.365-95.305-172.8-95.305s-172.8 42.669-172.8 95.305c0 21.71 13.162 41.724 35.324 57.748 1.916 1.385 3.002 3.648 2.884 6.009l-10.138 203.308c-.587 11.768 8.796 21.63 20.578 21.63h248.304c11.782 0 21.165-9.862 20.578-21.63l-10.138-203.308c-.118-2.361.968-4.624 2.884-6.009 22.162-16.024 35.324-36.038 35.324-57.748z" fill="#d98a54"/><path d="m284.674 408.715-10.067-201.882c-.121-2.436 1.034-4.759 3.049-6.133l11.558-7.878c9.132-6.223 24.451-18.854 24.451-33.518 0-12.911-12.748-27.65-34.1-39.427-26.558-14.648-63.612-23.282-102.259-23.906-38.648.625-75.702 9.258-102.26 23.906-21.352 11.777-34.099 26.515-34.099 39.427 0 14.663 15.319 27.294 24.451 33.518l11.558 7.878c2.015 1.374 3.17 3.697 3.049 6.133l-10.069 201.882s16.639 7.349 20.642 7.349h187.105c4.003 0 7.19-3.351 6.991-7.349z" fill="#ffeabb"/><path d="m87.292 192.823c-9.132-6.223-24.451-18.854-24.451-33.517 0-12.912 12.748-27.65 34.099-39.427 24.039-13.259 56.677-21.589 91.312-23.514-5.114-.284-10.272-.429-15.453-.429-40.262 0-79.176 8.726-106.765 23.943-21.352 11.777-34.099 26.515-34.099 39.427 0 14.663 15.319 27.294 24.451 33.517l11.558 7.878c2.015 1.374 3.17 3.697 3.049 6.133l-10.067 201.881c-.199 3.998 2.988 7.349 6.991 7.349h23.548l10.434-209.23c.121-2.436-1.034-4.759-3.049-6.133z" fill="#ffdb97"/></g><g><g><path d="m127.999 327.722c-4.211 0-7.726-3.396-7.726-7.726 0-4.332 3.532-7.719 7.728-7.719 4.255 0 7.725 3.448 7.725 7.719-.001 4.204-3.389 7.726-7.727 7.726z" fill="#ffdb97"/></g><g><path d="m96.001 359.729c-3.905 0-7.726-3.102-7.726-7.726 0-4.386 3.579-7.729 7.725-7.729 4.141 0 7.728 3.333 7.728 7.729 0 4.416-3.629 7.726-7.727 7.726z" fill="#ffdb97"/></g><g><circle cx="139.249" cy="368.002" fill="#ffdb97" r="7.726"/></g><g><path d="m240.001 154.814c-.505 0-1.01-.051-1.514-.154-3.508-.657-6.212-3.827-6.212-7.572 0-4.223 3.42-7.729 7.725-7.729 4.253 0 7.728 3.465 7.728 7.729-.001 4.142-3.366 7.726-7.727 7.726z" fill="#ffdb97"/></g><g><path d="m202.77 167.723c-4.277 0-7.726-3.459-7.726-7.726 0-4.264 3.463-7.719 7.725-7.719 4.256 0 7.728 3.471 7.728 7.719-.001 4.253-3.453 7.726-7.727 7.726z" fill="#ffdb97"/></g><g><path d="m101.822 154.814c-4.259 0-7.716-3.464-7.716-7.726 0-4.27 3.469-7.729 7.721-7.729 4.344 0 7.731 3.569 7.731 7.729 0 4.1-3.322 7.726-7.736 7.726z" fill="#ffdb97"/></g><g><path d="m127.999 183.722c-4.253 0-7.726-3.447-7.726-7.716 0-4.292 3.512-7.728 7.699-7.728 4.279 0 7.754 3.443 7.754 7.728-.001 4.267-3.448 7.716-7.727 7.716z" fill="#ffdb97"/></g><g><path d="m235.829 359.729c-4.104 0-7.716-3.329-7.716-7.726 0-4.321 3.503-7.729 7.721-7.729 4.328 0 7.731 3.536 7.731 7.729 0 4.206-3.439 7.726-7.736 7.726z" fill="#ffdb97"/></g><g><path d="m208.003 252.271c-4.172 0-7.726-3.358-7.726-7.726 0-4.26 3.461-7.719 7.692-7.719 3.712 0 7.761 2.896 7.761 7.719 0 4.171-3.391 7.726-7.727 7.726z" fill="#ffdb97"/></g><g><path d="m235.829 274.028c-4.775 0-7.716-3.988-7.716-7.726 0-4.269 3.461-7.726 7.721-7.726 4.316 0 7.731 3.534 7.731 7.726 0 4.343-3.542 7.726-7.736 7.726z" fill="#ffdb97"/></g></g></g></svg>