<?xml version="1.0" encoding="UTF-8"?>
<svg xmlns="http://www.w3.org/2000/svg" viewBox="0 0 64 64" width="512" height="512"><g id="Layer_8" data-name="Layer 8"><path d="M34.939,36.845A2.916,2.916,0,0,1,34,37a3,3,0,0,1-3-3,5.986,5.986,0,0,1-4.689-2.257l.65-6.295L33.5,18l15,3.226L52,33.473Z" style="fill:#487941"/><path d="M15,28.465a21.792,21.792,0,0,1-2.743,10.472h0a21.8,21.8,0,0,1-5.975,6.852l-2,1.5A5.709,5.709,0,0,0,2,51.855H2a5.7,5.7,0,0,0,1.413,3.759l3.774,4.314A6.067,6.067,0,0,0,11.753,62h0A6.066,6.066,0,0,0,16.8,59.3l3.213-4.82a14.647,14.647,0,0,1,8.161-5.957h0A13.551,13.551,0,0,1,31.9,48h0a13.55,13.55,0,0,1,6.729,1.789l7.3.5-5.778-4.652A18.245,18.245,0,0,0,32.6,44H32a36.051,36.051,0,0,0,8.054-7.351l3.64-5.508-5.521,2.686a64.462,64.462,0,0,1-11.4,9.064h0A7.29,7.29,0,0,1,22.908,44h0A2.911,2.911,0,0,1,20,41.086v-.05a2.8,2.8,0,0,1,.694-1.844l.037-.042A62.573,62.573,0,0,0,30.17,24.813l2.718-8.055-6.361,6.384A36.724,36.724,0,0,1,20,32h0a30.818,30.818,0,0,0-1.006-7.809l-5.436-3.247Z" style="fill:#487941"/><path d="M27.175,45.521a13.554,13.554,0,0,1,8.048.188,24.748,24.748,0,0,0,6.2,1.34l.526.036-1.8-1.448A18.245,18.245,0,0,0,32.6,44H32a36.051,36.051,0,0,0,8.054-7.351l3.64-5.508-5.521,2.686a64.462,64.462,0,0,1-11.4,9.064A7.291,7.291,0,0,1,22.73,44,2.875,2.875,0,0,1,20,41.086v-.05a2.8,2.8,0,0,1,.694-1.844l.037-.042A62.573,62.573,0,0,0,30.17,24.813l2.718-8.055-6.361,6.384A36.724,36.724,0,0,1,20,32a30.818,30.818,0,0,0-1.006-7.809l-5.436-3.247L15,28.465a21.792,21.792,0,0,1-2.743,10.472,21.8,21.8,0,0,1-5.975,6.852l-2,1.5A5.709,5.709,0,0,0,2,51.855c0,.074.017.145.02.219a5.592,5.592,0,0,0,.393.54l3.655,4.178a6.335,6.335,0,0,0,2.859,1.931A6.076,6.076,0,0,0,15.8,56.3l3.213-4.82A14.647,14.647,0,0,1,27.175,45.521Z" style="fill:#548a4b"/><path d="M62,40a2.979,2.979,0,0,1-2.14,2.86,4.946,4.946,0,0,1-2.07,7.79A5.074,5.074,0,0,1,58,52a4.978,4.978,0,0,1-8.31,3.72,5.968,5.968,0,0,1-6.46.6,4,4,0,1,1-2.91-7.25,6.6,6.6,0,0,1,.57-1.2A8.8,8.8,0,0,1,40,44a8.9,8.9,0,0,1,1.47-4.92A4,4,0,0,1,40,36a3.941,3.941,0,0,1,.17-1.09,4,4,0,0,1,.1-7.84,6.973,6.973,0,0,1,.43-1.1,4.987,4.987,0,0,1-3.94-2.34,8.978,8.978,0,0,1-11.63-1.82,4.877,4.877,0,0,1-5.52,1.97,5.891,5.891,0,0,1-2.62,1.13c0,.03.01.06.01.09a4,4,0,0,1-8,0c0-.14.03-.27.04-.4a4.989,4.989,0,0,1-.7-8.82,4.962,4.962,0,0,1,2.7-6.38C11.03,9.27,11,9.14,11,9a4.98,4.98,0,0,1,8-3.98A4.985,4.985,0,0,1,23,3a4.876,4.876,0,0,1,2.08.47A5.921,5.921,0,0,1,29,2a6,6,0,0,1,5.98,5.51c.1.04.21.08.32.12A8,8,0,0,1,49.42,9.02a7,7,0,0,1,6.54,6.21A7,7,0,0,1,59,21a7.475,7.475,0,0,1-.07.96,4.97,4.97,0,0,1,.48,7.68,4.969,4.969,0,0,1,1.18,7.83A2.969,2.969,0,0,1,62,40Z" style="fill:#609b57"/><path d="M57,51a4.949,4.949,0,0,0-1.14-3.14,2.978,2.978,0,0,0,.73-5.39,4.969,4.969,0,0,0-1.18-7.83,4.97,4.97,0,0,0-.48-7.68A7.475,7.475,0,0,0,55,26a7,7,0,0,0-3.04-5.77,7,7,0,0,0-6.54-6.21A8,8,0,0,0,31.3,12.63c-.11-.04-.22-.08-.32-.12A6,6,0,0,0,25,7a5.921,5.921,0,0,0-3.92,1.47A4.876,4.876,0,0,0,19,8a4.985,4.985,0,0,0-4,2.02,4.928,4.928,0,0,0-3.99-.92c.009.1.023.2.03.3a4.962,4.962,0,0,0-2.7,6.38,4.989,4.989,0,0,0,.7,8.82c-.01.13-.04.26-.04.4a4,4,0,0,0,8,0c0-.03-.01-.06-.01-.09a5.891,5.891,0,0,0,2.62-1.13,4.877,4.877,0,0,0,5.52-1.97,8.978,8.978,0,0,0,11.63,1.82,4.987,4.987,0,0,0,3.94,2.34,6.973,6.973,0,0,0-.43,1.1,4,4,0,0,0-.1,7.84A3.941,3.941,0,0,0,40,36a4,4,0,0,0,1.47,3.08A8.9,8.9,0,0,0,40,44a8.8,8.8,0,0,0,.89,3.87,6.6,6.6,0,0,0-.57,1.2,3.994,3.994,0,1,0,2.91,7.25,5.968,5.968,0,0,0,6.46-.6,4.928,4.928,0,0,0,4.3,1.18,5.28,5.28,0,0,0-.2-1.25A4.972,4.972,0,0,0,57,51Z" style="fill:#6aa962"/><path d="M25,16a3,3,0,0,1,0-6v2a1,1,0,0,0,0,2Z" style="fill:#609b57"/><path d="M48,16H46a2,2,0,0,0-4,0H40a4,4,0,0,1,8,0Z" style="fill:#609b57"/><path d="M47,37V35a1,1,0,0,0,0-2V31a3,3,0,0,1,0,6Z" style="fill:#609b57"/><path d="M52,50a4,4,0,0,1-4-4h2a2,2,0,0,0,4,0h2A4,4,0,0,1,52,50Z" style="fill:#609b57"/></g></svg>
