<svg id="Layer_1" height="512" viewBox="0 0 512 512" width="512" xmlns="http://www.w3.org/2000/svg" data-name="Layer 1"><path d="m352.66 266.71-.01.01-58.47 62.4a.642.642 0 0 1 -1.09-.58l13.78-60.96a35.214 35.214 0 0 1 -14.3-9.2v-.01a52.183 52.183 0 0 1 -7.39 1.82l-33.9 82.38a.646.646 0 0 1 -1.24-.23l-2.22-88.38c-17.46-2.53-22.89-13.56-24.07-23.55-3.42 1.19-6.64 2.15-9.67 2.91v.01l3.34 91.39c.02.74-.89.88-1.24.23-16.66-30.89-49.78-71.58-50.48-72.43a27.69 27.69 0 0 1 -11.34 5.86c-2.11 8.78-5.96 14.47-10.55 18.06v.01c.91 1.29 75.28 107.3 66.13 206.9a11.532 11.532 0 0 0 11.44 12.65h60.4a11.5 11.5 0 0 0 11.46-10.67c11.42-155.92 89.47-212.35 89.47-212.35-15.69 4.02-24.79-.06-30.05-6.27z" fill="#8dc63f"/><path d="m239.94 483.35c7.016-76.372-35.075-156.513-55.5-190.321a194.859 194.859 0 0 1 -18.27-39.769l-.091-.274-.379-.466a27.373 27.373 0 0 1 -11.245 5.86 34.532 34.532 0 0 1 -10.455 18.06v.01c1 1.29 75.185 107.3 66.035 206.9a11.46 11.46 0 0 0 11.345 12.65h30a11.532 11.532 0 0 1 -11.44-12.65z" fill="#75a032"/><path d="m479.76 199.88c6.52-10.32 5.39-19.3 1.53-25.9 6.99-30.04-6.91-40.82-18.44-44.67-8.29-13.31-18.65-19.85-29.24-22.4-4.21-39.79-25.42-49.14-44.15-49.28l.01-.66c-21.24-49.69-63.86-21.14-63.86-21.14a58.051 58.051 0 0 0 -43.7-3.54c-30.96-27.54-61.5-14.32-78.18-2.69 0 0-42.8-17.09-69.39 12.72-68.51-1.78-68.51 53.22-68.51 53.22-43.79 15.39-18.56 68.63-18.56 68.63-8.52 6.37-15.26 18.54-14.14 41.4 0 0-19.13 31.92 7.88 51.38 1.24 16.86 10.63 50.17 68.93 22.33 0 0 20.19 7.87 33.87-2.83v-.01c4.59-3.59 8.44-9.28 10.55-18.06a27.69 27.69 0 0 0 11.34-5.86c4.88-4.23 9.08-10.97 10.92-21.65l.09-.15c7.19 4.5 18.82 7.27 37.37 2.6 3.03-.76 6.25-1.72 9.67-2.91 1.18 9.99 6.61 21.02 24.07 23.55a60.718 60.718 0 0 0 11.89.43c5.76 4.53 13.98 7.69 25.47 5.8a52.183 52.183 0 0 0 7.39-1.82v.01a35.214 35.214 0 0 0 14.3 9.2c9.6 3.29 23.59 3.28 40.52-10.61a28.536 28.536 0 0 0 5.27 9.74c5.26 6.21 14.36 10.29 30.05 6.27 0 0 24.25 32.37 51.12 4.87 0 0 71.98 9.84 45.93-77.97z" fill="#436f1e"/><path d="m71.01 256.95c-27.01-19.46-7.88-51.38-7.88-51.38-1.12-22.86 5.62-35.03 14.14-41.4 0 0-25.23-53.24 18.56-68.63 0 0 0-55 68.51-53.22a51.077 51.077 0 0 1 27.349-16.037c-14.645-2.863-39.6-3.856-57.349 16.037-68.51-1.78-68.51 53.22-68.51 53.22-43.79 15.39-18.56 68.63-18.56 68.63-8.52 6.37-15.26 18.54-14.14 41.4 0 0-19.13 31.92 7.88 51.38 1.071 14.556 8.221 41.364 47.667 30.51-13.592-5.914-16.959-20.888-17.667-30.51z" fill="#375917"/><g fill="#355414"><path d="m389.9 120.737c-14.9-10.385-28.751-13.486-41.166-9.211-21.278 7.326-29.616 33.677-29.96 34.8a5 5 0 1 0 9.556 2.945c.07-.225 7.133-22.595 23.66-28.285 9.227-3.178 20.059-.5 32.192 7.96a5 5 0 0 0 5.718-8.2z"/><path d="m141.869 208.438c-29.105-15.458-16.944-42.883-16.407-44.053a5 5 0 0 0 -9.067-4.218c-.172.369-16.809 37.138 20.783 57.1a5 5 0 0 0 4.691-8.833z"/><path d="m269.688 117.183a5 5 0 0 0 8.655-5.01c-10.254-17.715-22.326-27.154-35.881-28.054a32.545 32.545 0 0 0 -7.628.4c-10.14-10.27-23.225-13.877-38.03-10.429a62.72 62.72 0 0 0 -18.3 7.673 34.438 34.438 0 0 0 -18.576 1.185c-12.015 4.3-18.8 14.607-21.485 19.58-6.035.769-10.966 2.92-14.745 6.458-10.063 9.425-7.423 24.638-7.306 25.281a5 5 0 0 0 4.913 4.1 5.063 5.063 0 0 0 .9-.082 5 5 0 0 0 4.022-5.816c-.019-.1-1.726-10.541 4.3-16.188 4.929-4.617 14.41-5.332 27.419-2.066a5 5 0 0 0 2.436-9.7 80.5 80.5 0 0 0 -10.16-1.9c2.8-3.761 7.137-8.157 13.139-10.283 7.269-2.562 15.69-1.332 25.039 3.668a5 5 0 1 0 4.719-8.816c-.583-.312-1.162-.6-1.741-.891 8.355-3.522 21.161-6.347 32.467 1.906a62.271 62.271 0 0 0 -19.484 15.944 5 5 0 0 0 7.912 6.117c.133-.173 13.623-17.244 29.57-16.161 10.005.683 19.375 8.449 27.845 23.084z"/><path d="m298.719 179.27c1.2-12.717 11.36-20.185 11.557-20.327a5 5 0 0 0 -5.762-8.172c-.572.4-14.014 10.025-15.735 27.391-1.363 13.753 4.933 28.061 18.712 42.527a5 5 0 1 0 7.24-6.9c-11.631-12.212-17.022-23.827-16.012-34.519z"/></g></svg>