<svg id="Capa_1" enable-background="new 0 0 512 512" height="512" viewBox="0 0 512 512" width="512" xmlns="http://www.w3.org/2000/svg"><path d="m480.538 17.688c-11.88-11.881-28.323-18.311-45.113-17.64-16.789.67-32.668 8.39-43.564 21.18l-123.818 145.339c-1.69 1.984-1.573 4.935.271 6.778l56.569 56.568c.972.972 2.252 1.464 3.536 1.464 1.15 0 2.304-.395 3.241-1.194l145.339-123.818c12.791-10.896 20.511-26.774 21.181-43.564.67-16.788-5.76-33.231-17.642-45.113zm-41.498 62.713c-5.858 5.858-15.355 5.858-21.213 0s-5.858-15.355 0-21.213 15.355-5.858 21.213 0c5.857 5.857 5.857 15.355 0 21.213z" fill="#c8841e"/><path d="m480.883 18.051-41.49 41.49c5.858 5.858 5.858 15.355 0 21.213s-15.355 5.858-21.213 0l-121.229 121.229 27.931 27.931c.972.972 2.252 1.464 3.536 1.464 1.15 0 2.304-.395 3.241-1.194l145.339-123.818c12.791-10.896 20.511-26.774 21.181-43.564.664-16.621-5.64-32.898-17.296-44.751z" fill="#9e6d05"/><path d="m309.971 401.242c-3.21 0-6.433-1.026-9.144-3.112-5.972-4.595-7.608-12.908-3.822-19.423 3.416-5.879 2.414-13.372-2.436-18.221-5.891-5.891-15.441-5.924-21.29-.076l-16.2 16.2c-7.938 7.938-18.495 12.308-29.731 12.308-.026 0-.051 0-.077 0-11.246-.02-21.823-4.416-29.784-12.376l-.578-.578c-7.965-7.965-12.36-18.542-12.38-29.788-.02-11.266 4.351-21.852 12.308-29.809l5.596-5.596c1.882-1.882 2.915-4.39 2.911-7.063-.005-2.693-1.061-5.229-2.974-7.143-3.935-3.933-10.306-3.961-14.205-.063l-5.596 5.596c-16.409 16.41-43.141 16.38-59.588-.068l-.58-.58c-16.453-16.452-16.484-43.185-.074-59.597l16.2-16.199c2.826-2.826 4.378-6.591 4.371-10.602-.007-4.031-1.586-7.826-4.447-10.687-2.86-2.86-6.655-4.44-10.687-4.447-.009 0-.019 0-.027 0-4.001 0-7.755 1.551-10.574 4.371-5.857 5.858-15.355 5.858-21.213 0s-5.858-15.355 0-21.213c.016-.016.032-.032.048-.048l63.591-63.592c2.813-2.813 6.628-4.394 10.606-4.394s7.793 1.581 10.606 4.394l197.99 197.99c2.813 2.813 4.394 6.628 4.394 10.606 0 3.979-1.58 7.793-4.394 10.606l-58.209 58.208c-2.91 2.911-6.752 4.396-10.611 4.396z" fill="#ffe146"/><path d="m280.149 218.786-77.779 77.779c1.913 1.913 2.969 4.449 2.974 7.142.004 2.673-1.029 5.181-2.911 7.063l-5.596 5.596c-7.957 7.957-12.328 18.543-12.308 29.809.02 11.246 4.415 21.823 12.38 29.788l.578.578c7.961 7.961 18.538 12.356 29.784 12.376h.077c11.236 0 21.793-4.37 29.731-12.308l16.2-16.2c5.848-5.848 15.398-5.815 21.29.076 4.85 4.85 5.852 12.342 2.436 18.221-3.786 6.516-2.15 14.828 3.822 19.423 2.711 2.086 5.934 3.113 9.144 3.112 3.859 0 7.701-1.484 10.61-4.394l58.209-58.208c2.813-2.813 4.394-6.628 4.394-10.606s-1.58-7.793-4.394-10.606z" fill="#ffc827"/><path d="m226.762 512c-24.813 0-45-20.187-45-45 0-13.756-5.357-26.688-15.084-36.415l-148.512-148.514c-5.858-5.858-5.858-15.355 0-21.213l77.782-77.782c8.486-8.486 19.773-13.158 31.786-13.158h.082c12.024.021 23.334 4.721 31.847 13.234 8.512 8.512 13.212 19.822 13.233 31.847.021 12.044-4.651 23.362-13.158 31.869l-16.199 16.199c-4.713 4.714-4.683 12.415.069 17.166l.58.58c2.313 2.313 5.375 3.587 8.626 3.592h.022c3.223 0 6.248-1.25 8.519-3.521l5.596-5.596c15.595-15.595 41-15.568 56.63.062 7.565 7.565 11.743 17.616 11.762 28.303.019 10.707-4.135 20.768-11.698 28.331l-5.596 5.595c-4.714 4.714-4.683 12.415.068 17.166l.579.578c2.313 2.313 5.376 3.588 8.628 3.594h.022c3.224 0 6.249-1.25 8.52-3.521l16.2-16.2c17.545-17.546 46.13-17.511 63.715.076 14.462 14.46 17.407 36.874 7.163 54.506-.651 1.122-1.446 2.154-2.363 3.071l-33.735 33.736c-9.727 9.727-15.083 22.659-15.083 36.416-.001 24.812-20.188 44.999-45.001 44.999z" fill="#ff7d5a"/><path d="m252.067 339.195-16.2 16.2c-2.271 2.271-5.296 3.521-8.52 3.521-.007 0-.015 0-.022 0-3.252-.006-6.314-1.281-8.628-3.594l-.579-.578c-4.751-4.751-4.782-12.452-.068-17.166l5.596-5.595c7.563-7.563 11.717-17.624 11.698-28.331-.02-10.686-4.196-20.736-11.76-28.301l-106.069 106.069 49.164 49.164c9.727 9.727 15.084 22.659 15.084 36.415 0 24.813 20.187 45 45 45s45-20.187 45-45c0-13.756 5.357-26.689 15.083-36.416l33.735-33.736c.917-.917 1.712-1.949 2.363-3.071 10.244-17.632 7.299-40.046-7.163-54.506-17.584-17.585-46.169-17.62-63.714-.075z" fill="#f05928"/><path d="m159.941 119.791 7.071-7.071c25.344-25.343 66.581-25.343 91.924 0l127.279 127.28c25.344 25.343 25.344 66.581 0 91.924l-7.071 7.071z" fill="#e59e28"/><path d="m322.576 176.359-53.033 53.033 109.601 109.601 7.071-7.071c25.344-25.343 25.344-66.581 0-91.924z" fill="#c8841e"/></svg>