<?xml version="1.0" encoding="iso-8859-1"?>
<!-- Generator: Adobe Illustrator 19.0.0, SVG Export Plug-In . SVG Version: 6.00 Build 0)  -->
<svg version="1.1" id="Layer_1" xmlns="http://www.w3.org/2000/svg" xmlns:xlink="http://www.w3.org/1999/xlink" x="0px" y="0px"
	 viewBox="0 0 460 460" style="enable-background:new 0 0 460 460;" xml:space="preserve">
<g id="XMLID_2487_">
	<path id="XMLID_1068_" style="fill:#352720;" d="M130,265h50v40c0,7.407-2.684,14.187-7.133,19.42
		C158.421,341.412,150,362.698,150,385l0,0c0,5.523-4.477,10-10,10v20h-40l7.236-14.472c1.694-3.388,5.157-5.528,8.944-5.528H130
		V265z"/>
	<path id="XMLID_1064_" style="fill:#281B15;" d="M107.236,400.528L100,415h40v-20h-23.82
		C112.393,395,108.93,397.14,107.236,400.528z"/>
	<path id="XMLID_1448_" style="fill:#352720;" d="M390,265h-50l0,0v40l0,0v90h-13.82c-3.788,0-7.25,2.14-8.944,5.528L310,415h40v-20
		c5.523,0,10-4.477,10-10c0-22.302,8.421-43.588,22.867-60.58C387.316,319.187,390,312.407,390,305h50v-40H390z"/>
	<path id="XMLID_1624_" style="fill:#281B15;" d="M350,395v20h-40l7.236-14.472c1.694-3.388,5.157-5.528,8.944-5.528H350z"/>
	<path id="XMLID_1430_" style="fill:#40332B;" d="M460,145v80c0,5.523-4.477,10-10,10v-90c0-5.523-4.477-10-10-10v100v70
		c0,7.407-2.684,14.187-7.133,19.42C418.421,341.412,410,362.697,410,385l0,0c0,5.523-4.477,10-10,10v20h-40l7.236-14.472
		c1.694-3.388,5.157-5.528,8.944-5.528H390V285H230v20c0,7.407-2.684,14.187-7.133,19.42C208.421,341.412,200,362.697,200,385l0,0
		c0,5.523-4.477,10-10,10v20h-40l7.236-14.472c1.694-3.388,5.157-5.528,8.944-5.528H180v-90l0,0c-38.66,0-70-31.34-70-70l0,0H17.071
		c-6.479,0-12.579-3.684-15.499-9.891C0.477,222.782,0,220.21,0,217.638V205l0,0c0-44.183,35.817-80,80-80h20
		c5.523,0,10-4.477,10-10l0,0c0-38.66,31.34-70,70-70l0,0c33.056,0,65.834,6.032,96.724,17.8L440,125
		C451.046,125,460,133.954,460,145z"/>
	<path id="XMLID_875_" style="fill:#6D5740;" d="M357.308,93.506C332.431,153.108,273.601,195,204.981,195
		c-2.406,0-4.356,1.95-4.356,4.356V215l0,0c-12.12,0-22.973-5.398-30.308-13.912c-2.956,29.331-27.036,52.425-56.797,53.839
		c-1.873-6.317-2.895-13.001-2.895-19.927v-40H110v-80.763C110.411,75.93,141.577,45,179.981,45l0,0
		c33.056,0,65.834,6.032,96.724,17.8L357.308,93.506z"/>
	<path id="XMLID_1062_" style="fill:#352720;" d="M390,283.74V285l0,0v20h-50v-20h-70h-40v-1.26
		c14.414-3.71,25.683-15.252,29.001-29.819C260.182,248.74,264.686,245,270,245h80c5.314,0,9.818,3.74,10.999,8.921
		C364.317,268.488,375.586,280.03,390,283.74z"/>
	<path id="XMLID_1804_" style="fill:#281B15;" d="M450,215L450,215c-11.046,0-20,8.954-20,20l0,0c0,11.046,8.954,20,20,20h10v-30
		C460,219.477,455.523,215,450,215z"/>
	<path id="XMLID_1849_" style="fill:#937A55;" d="M332.188,84.208C301.934,121.307,255.869,145,204.266,145
		c-2.406,0-4.356,1.95-4.356,4.356V165l0,0c-12.12,0-22.973-5.398-30.308-13.912c-1.977,19.616-13.41,36.431-29.663,45.848
		c-0.621,13.003-7.435,24.383-17.574,31.233c-28.009,18.922-52.75,42.281-74.747,67.945L40,305c-11.046,0-20-8.954-20-20v-40v-10
		h-2.929c-6.479,0-12.579-3.684-15.499-9.891C0.477,222.782,0,220.21,0,217.638V205l0,0c0-6.43,0.78-12.674,2.212-18.665
		c-0.227-0.397-0.442-0.805-0.64-1.226C0.477,182.782,0,180.21,0,177.638V165l0,0c0-44.183,35.817-80,80-80h20
		c5.208,0,10.178,1.006,14.741,2.817C125.353,62.659,150.247,45,179.266,45l0,0c33.056,0,65.834,6.032,96.724,17.8L332.188,84.208z"
		/>
	<path id="XMLID_1434_" style="fill:#40332B;" d="M140,155c0,1.709-0.109,3.392-0.317,5.044C139.884,161.669,140,163.32,140,165v30
		c0,13.807-6.996,25.98-17.636,33.169c-28.009,18.922-52.75,42.281-74.747,67.945L40,305c-11.046,0-20-8.954-20-20v-40v-30
		c0-5.523-4.477-10-10-10H0l0,0c0-6.43,0.78-12.674,2.212-18.665c-0.227-0.397-0.442-0.805-0.64-1.226
		C0.477,182.782,0,180.21,0,177.638V165l0,0c0-44.183,35.817-80,80-80h20c22.091,0,40,17.909,40,40V155z"/>
	<path id="XMLID_1063_" style="fill:#352720;" d="M135,125h-10c-2.761,0-5,2.239-5,5v0.367c-0.021-0.012-0.04-0.026-0.061-0.038
		c-5.982,17.49-15.334,33.413-27.277,47.004c-10.751,12.234-20.191,25.533-28.984,39.241C56.569,227.657,44.145,235,30,235H20v50
		c0,11.046,8.954,20,20,20l7.617-8.886c21.998-25.664,46.739-49.023,74.748-67.945C133.005,220.98,140,208.807,140,195v-30
		c0-3.619-0.488-7.122-1.39-10.456C145.147,152.926,150,147.037,150,140C150,131.716,143.284,125,135,125z"/>
	<path id="XMLID_1052_" style="fill:#281B15;" d="M140,135L140,135c0,5.523-4.477,10-10,10s-10-4.477-10-10v-10h10
		C135.523,125,140,129.477,140,135z"/>
	<path id="XMLID_1447_" style="fill:#6D5740;" d="M90,55v56c0,7.732-6.268,14-14,14s-14-6.268-14-14V75c0-11.046,8.954-20,20-20H90z
		"/>
	<path id="XMLID_1386_" style="fill:#AF8D5D;" d="M90,55v56c-7.732,0-14-6.268-14-14V69c0-0.041,0-0.082,0-0.123
		C76.034,61.29,82.29,55.034,89.877,55C89.918,55,89.959,55,90,55z"/>
	<path id="XMLID_1740_" style="fill:#352720;" d="M30,160c0-8.284,6.716-15,15-15s15,6.716,15,15s-6.716,15-15,15S30,168.284,30,160
		z"/>
	<path id="XMLID_1734_" style="fill:#281B15;" d="M45,155c-2.761,0-5,2.239-5,5s2.239,5,5,5s5-2.239,5-5S47.761,155,45,155z"/>
</g>
<g>
</g>
<g>
</g>
<g>
</g>
<g>
</g>
<g>
</g>
<g>
</g>
<g>
</g>
<g>
</g>
<g>
</g>
<g>
</g>
<g>
</g>
<g>
</g>
<g>
</g>
<g>
</g>
<g>
</g>
</svg>
