<svg id="Layer_1" enable-background="new 0 0 300 300" viewBox="0 0 300 300" xmlns="http://www.w3.org/2000/svg"><g><path d="m283.1 251.3c-.5.9-4.3 7.6-7.8 10.7-.2.2-.6.5-.4.7.4.8 4 .9 7.3.8l6.8-12.8c-2.6-.4-5.4.4-5.9.6z" fill="#727373"/><path d="m281.9 263.7c2.3-.1 5.3-.4 6.2-.7 3.1-1 4.7-2.8 4.7-5.4l.7-4.5c-1.4-1.2-3.3-2.2-4.6-2.6z" fill="#969595"/><path d="m233.9 260.1c-3.9 3.4-8.1 9.4-7.7 11.8.1.6.5 1.1 1.2 1.3 1.2.4 3.3.8 5.1.9.2-3.6 6.8-11.6 8.2-13.2-2.9-.6-6.1-.7-6.8-.8z" fill="#727373"/><path d="m240.6 260.7c-.3.3-7.9 9.9-8.1 13.5 5.1.4 11.7-.2 13.1-2.9 1.7-3.4 2.5-6.4 2.6-6.8-1.6-1.9-4.8-3-7.6-3.8z" fill="#969595"/><path d="m139.9 260.7c-.3 1-.7 2.8-1.2 3.3-3 3-4.3 5.7-3.7 7.8 0 .1.1.2.4.3 1.1.4 4 .4 6.7.2 1.1-3.1 3.3-10.3 4.1-12-2.5 0-5.7.4-6.3.4z" fill="#727373"/><path d="m146 260.3c-.4.8-3.7 9.2-3.9 12 4.2-.4 9-1.2 9.8-1.8 1-.6.6-6.8.2-10.1-1.2-.3-3.6-.1-6.1-.1z" fill="#969595"/><path d="m108.9 249.1c-2.2-.3-4.8.5-5.3.5-2 2.6-7 9.8-6.3 11.9.1.2.2.4.7.5 1.4.3 3.4.1 5.5-.2 0 0 .6-.2.6-.3-.1-3 4-11.1 4.8-12.4z" fill="#727373"/><path d="m108.9 249.1s-1.4 2.1-1.4 2.2c-.5.8-3.5 7.2-3.6 10.4 1.9-.3 4.1-.7 5.7-1.1 1.7-.4 3-.7 3.6-.7.8-.8.8-6.7.5-9.2-1.5-.8-3.1-1.3-4.8-1.6z" fill="#969595"/><path d="m289.3 154.7-1.6 6.2c0 .1-4.1 11.8-3.6 15.5 0 .1.3.6.3.7 1.2 5.5 2.2 9.6 3.7 13.2 2.4-1.9 5.1-6.9 5.8-8.4.3-.6.4-1.2.5-1.8.6-8-1.3-22.8-1.3-22.9s0-.3.1-.4 3-9.5 3.4-24.7c.4-13.4-6-22.2-8.1-25.3l-.7 10.4c9.5 15 1.5 37.3 1.5 37.5z" fill="#548496"/><g fill="#416e7c"><path d="m295.3 198.9c-3.8-5.5-12.4-17-13.6-52.7-.3 1.4-8.5 7-8.9 8.4-4.2 18-5.1 37.7-5.8 41.8-.4 2.5 1.1 5 1.6 7 0 0 3.9 3.2 3.9 3.2.1.1 7.8 6.3 10.3 16.6 2.2 9.1.5 24.9.1 28.3 1-.3 3.1-.8 5.7-.2h.1c1.4.4 3 1.1 4.6 2.4.8.1 2.1 0 2.6-.5.1-.1.2-.3.1-.7-.5-2.4-3.7-23.3-2.1-33.5.8-4.7 1.7-7.9 2.4-10.2.8-2.8 1.3-4.4.9-6.6 0-.6-.8-1.7-1.9-3.3z"/><path d="m232.9 177.5 15.8 11.3c-.2-5.3-.6-19.4-.7-21.1z"/><path d="m106 185.2c-1.5-1.3-3-3.4-4-4.8.4 6.3 2.8 38.8 4.9 49 2.1 9.9-2.1 18-3.4 20.3 2 0 7.5.2 10.8 2.2.9.4 1.9.3 2.6-.3.8-.6 1.2-1.5 1.1-2.4-.9-7.9-1.6-20.8-1.6-20.9s0-.1 0-.2 2.5-7.4 3.3-10.3c.7-2.6.4-21.6.4-24-3.4-1-8.6-3.7-14.1-8.6z"/></g><path d="m287 97c-3.4-5.7-21.9-9.4-34.1-11.9-5.2-1-9.6-1.9-11.9-2.7-.8-.3-1.6-.6-2.4-.9-6.2-2.3-9.9-3.7-17.1-.8-8 3.2-37.3 7.8-44.8 4.9-3.7-1.4-9.6-3.7-14.5-5.6-5.4-2-14.5-4.3-22.6-4.1-.1 0-2.4.2-2.5.1-1.9 3.4-4.5 3.3-6.7 5.2-9.2 8.1-60.6 13.1-62.1 13.3l16.9 21.7c-.3.9-4.8 2-4.9 3.3-.1.6.4 4.7.1 5.8 0 0-1.2 1.5-1.2 1.5-2.7 5.4-6.4 13.5-6.7 14.1-1.9 4.9-7.1 9.2-9.6 10.6 1.4 2 13.1 17.3 27.9 17.8 5.2.2 6.6 3.5 8.4 7.7 1.5 3.5 3.1 7.4 7.3 11 7.5 6.6 15.8 8.9 18.6 9.5.8 2.9 1.5 6.1 2 9.5.3 2.3 1.1 4.6 2.3 6.6 1.5 2.5 3.3 6 3.6 8.6.2 1.6 1.2 3.2 2.4 5.2 2.1 3.4 4.6 7.7 5.3 14.6 0 .1 1 12.1-.7 18.5 2.1-.1 10.1-.4 12.4.3.3 0 3.1-.4 4.4-2 .5-.7.8-1.5.6-2.5-.3-2.2-1.8-5.2-3.2-8.2-1.3-2.7-2.6-5.3-2.9-7.2-.2-1.2-.6-2.6-1-4.1-.9-3.1-2.1-6.9-1.7-11.4.1-1 .2-1.9.3-2.9.5-5.5 1.1-11.6.4-25.7 9.4.6 65.3 3.4 79.6-9l15.9-13.7c.1-.1.3-.1.4-.1.1.1.2.2.3.4 0 .1.4 5.5.7 12.8.1.1.1.3 0 .4.4 10.3.6 24-.7 31.9-2.2 13.5-7.2 35-11.6 40.3 2.7.3 10.9 1.5 14.1 5.4.9-.1 4.4-.9 4.4-4 0-1.2-.5-2.5-1-3.9-1-2.9-2.2-6.1.5-9.6 1.7-2.2 4.9-8.1 8.1-14.4 3.9-7.4 8.4-15.9 11.6-20.2 1.1-1.4.5-3.3-.2-5.6s-1.5-5.2-1-8.5c.7-4.2 5.1-22.8 9.3-40.9 2.4-10.3 4.7-19.9 6.1-26.2 1-4.4 2-8.7 2.7-12.6l1.2-13.5c-.2-3.1-1.1-6.2-2.7-8.8z" fill="#548496"/><path d="m19.7 104.5c-2.4 0-13.1 5.1-16.2 9.1-.6.7-.8 1.3-.7 1.8.5 1.9 5.8 2.9 10.4 3.9 3.8.8 7.4 1.5 9.4 2.7.5.3 1 .3 1.6.2 4.6-1.2 11.5-13 11.6-13.2 0 0 2.5-2.1 2.6-2.2-.2-1.7-.1-1.6-.1-3.2 0-.9 1-2.5 1.2-3.6-2.3.7-16.9 4.5-19.8 4.5z" fill="#548496"/><g fill="#d8d5d2"><path d="m75.2 98.7 13.1-2.3c.4 0 35.4-5.1 44.4-13 8.1-7.1 17.7-24.8 2.5-46.6-1.9-2.7-4.3-5.2-7.1-7.4l-2.7-2.1c-.3-.2-.6-.1-.8.1-.1.1-.1.3 0 .5 3.7 7.7 11.7 29.5 5.3 38.3-7.5 10.2-19.5 12.1-43.4 15.8l-4.4.7-8.7 1.5c.6 3.1-2 8.6.8 13.2.1 0 1 1.3 1 1.3z"/><path d="m45.9 84c-4-.7-29.1-5.5-32.1-22.3-2.8-15.6 10.9-31.7 15-36-5.5 1.8-24.9 9.8-26.3 34.3-1.5 27.7 34.8 39.4 37 40 2.1-5.7 5-13.6 6.4-16z"/></g><g><path d="m72.9 145.4c.1-.2 6.9-12.2 9.7-17.7.2-1 .4-2 .5-2.5.2-1.6 1.6-5.9 1.7-6.1 0-.1.1-.2.3-.3.2 0 4-1.1 6.3 0l.3.1c2.7 1.3 10.7 5.5 18.5-2.8 2.2-2.4 4.2-4.2 5.9-5.6.7-.6 1.1-1.4 1-2.3s-.7-1.7-1.5-2.1c-3.1-1.5-8.2-3.9-14.3-4.9-5.9 1.3-10.5 2.1-11.8 2.3-1.9.3-3.9-.2-5.5-1.4-5.5-4.3-7.9-14-8.7-18.3-3.7-.3-24.6-2-29.3-.6-.9 1.5-9.2 15-9.2 21.1 0 5.4 1.3 12.4 2.4 18 .9 4.9 1.7 8.8 1.4 10.6-.2 1.3-.8 3.3-1.5 5.4-1.3 3.9-2.9 8.8-1.8 10.9 3.7 7.3 13 9 27.8 5 2.3-1 5.8-3.5 7.8-8.8z" fill="#6a99a7"/></g><path d="m39.5 108.5c4-4.9 5.8 2.5 5.8 2.5-4.1 4.9-5.8-2.5-5.8-2.5z" fill="#37373f"/><path d="m76.2 108.5s-2.5 7.4-8.2 2.5c-.1-.1 2.4-7.5 8.2-2.5z" fill="#37373f"/><path d="m56.2 139c-1.5.3-3.2.6-5.1.6-2.2 0-4-.5-5.5-.9-.9-.3-1.7-.5-2.3-.5-.2 0-.4 0-.6.1s-.3.4-.4.9c-.2 1.4.2 3.7 1.1 6.6.3 1.1 1.3 2 2.5 2.2 5.4 1.2 8.8.9 10.7.5 1.1-.3 2-1 2.5-2 .1-.3.3-.5.4-.8.1-.2.3-.4.5-.6.9-1.2 2.4-3 1.2-5.4-1-1.5-2.3-1.3-5-.7z" fill="#9ad1e1"/><ellipse cx="55.5" cy="143.6" fill="#3e6068" rx="3.2" ry="1.6" transform="matrix(.77 -.638 .638 .77 -78.855 68.406)"/><ellipse cx="46" cy="143.1" fill="#3e6068" rx="1.2" ry="2.9" transform="matrix(.889 -.459 .459 .889 -60.484 37.036)"/></g></svg>