<svg height="512" viewBox="0 0 512 512" width="512" xmlns="http://www.w3.org/2000/svg"><path d="m472 319.837a48 48 0 0 0 -39.154-47.178l-88.846-16.659v-72h-96v72s-51.229 9.611-88.869 16.668a47.971 47.971 0 0 0 -39.131 47.17v144.162h352z" fill="#fec9a3"/><path d="m296 256a71.644 71.644 0 0 0 48-18.442v-53.558h-96v53.555a71.644 71.644 0 0 0 48 18.445z" fill="#feb784"/><path d="m472 319.84v144.16h-352v-144.16a47.974 47.974 0 0 1 39.13-47.17c28.06-5.26 63.67-11.94 79.98-15a58.426 58.426 0 0 0 16.89 18.03 65.712 65.712 0 0 0 16 8.22 71.757 71.757 0 0 0 24 4.08c24.77 0 46.25-12.31 56.89-30.33l51.61 9.68 28.35 5.31a48 48 0 0 1 39.15 47.18z" fill="#e0e0de"/><path d="m272 283.92v180.08h-16v-188.3a65.712 65.712 0 0 0 16 8.22z" fill="#bfbfbd"/><path d="m280 312h16v16h-16z" fill="#bfbfbd"/><path d="m472 319.84v144.16h-246.27c55.45-29.09 137.4-88.27 178.77-196.65l28.35 5.31a48 48 0 0 1 39.15 47.18z" fill="#d6d6d4"/><path d="m376 104h-8v48h8a24 24 0 1 0 0-48z" fill="#feb784"/><path d="m216.4 104h-.4a24 24 0 0 0 0 48h8.48l-.48-48z" fill="#feb784"/><path d="m368 96v56a72 72 0 0 1 -144 0v-56a72 72 0 0 1 144 0z" fill="#fec9a3"/><path d="m368 96v56a71.984 71.984 0 0 1 -35.44 62.04 72 72 0 0 0 3.44-22.04v-88a72.006 72.006 0 0 0 -72-72v-.51a72.013 72.013 0 0 1 104 64.51z" fill="#fec093"/><path d="m312 160h-32a8 8 0 0 1 -7.586-10.531l16-48 15.172 5.062-12.486 37.469h20.9z" fill="#f7a468"/><path d="m302.779 240h-13.558a62.514 62.514 0 0 1 -57.459-37.888 96.01 96.01 0 0 1 -7.762-37.812v-60.3l13.032 41.152a18.962 18.962 0 0 0 4.614 7.785 20.1 20.1 0 0 0 25.292 2.438 20.091 20.091 0 0 1 11.146-3.375h35.832a20.091 20.091 0 0 1 11.146 3.375l1.4.936q.512.34 1.035.647c11.053 6.451 25.255.249 28.78-12.053l11.723-40.905v60.3a96 96 0 0 1 -7.762 37.816 62.514 62.514 0 0 1 -57.459 37.884z" fill="#7a432a"/><path d="m286.891 192h-14.891v-16h14.891c10.953 0 21.547-2.52 29.078-6.91l8.062 13.82c-10.054 5.863-23.242 9.09-37.14 9.09z" fill="#fec9a3"/><g fill="#7a432a"><circle cx="260" cy="116" r="12"/><circle cx="332" cy="116" r="12"/><path d="m400 496h-208v-48l32-96h144l32 96z"/><path d="m224 400a8 8 0 0 1 -8-8v-128a8 8 0 0 1 16 0v128a8 8 0 0 1 -8 8z"/><path d="m368 400a8 8 0 0 1 -8-8v-128a8 8 0 0 1 16 0v128a8 8 0 0 1 -8 8z"/></g><path d="m238.048 496h161.952v-48l-25.777-77.332c-40.777 72.324-90.252 108.006-136.175 125.332z" fill="#743b20"/><path d="m184 352.004h16v96h-16z" fill="#bfbfbd"/><path d="m392 352.004h16v96h-16z" fill="#bfbfbd"/><path d="m160 336h-40v-16a16 16 0 0 0 -16-16h-59.612l-.868-10.11a960.612 960.612 0 0 1 .664-171.721l.2-2.169h115.616z" fill="#e0e0de"/><path d="m120 144.004h16v16h-16z" fill="#a3a3a1"/><path d="m120 336.003h40v96h-40z" fill="#7a432a"/><path d="m86.08 272a22.129 22.129 0 0 0 -7.04-16 21.7 21.7 0 0 1 0-32 21.7 21.7 0 0 0 0-32 21.7 21.7 0 0 1 0-32 21.7 21.7 0 0 0 0-32 21.279 21.279 0 0 1 -5.44-8h-29.212l-.2 2.17a960.612 960.612 0 0 0 -.665 171.721l.865 10.109h27.612a22.129 22.129 0 0 1 7.04-16 22.124 22.124 0 0 0 7.04-16z" fill="#ebebe9"/><path d="m84.062 304h19.938a16 16 0 0 1 16 16v16h40v-216h-1.284c-13.866 85.992-46.908 146.431-74.654 184z" fill="#d6d6d4"/><path d="m376 392-256 8v64a24 24 0 0 0 24 24h48l184-53.455 56-10.545 40 16v-64l-48-8z" fill="#feb784"/><path d="m216 392 256 16v56a24 24 0 0 1 -24 24h-48l-184-53.452-56-2.548h-64v-64h72z" fill="#fec9a3"/></svg>