<svg id="Flat" height="512" viewBox="0 0 64 64" width="512" xmlns="http://www.w3.org/2000/svg"><g id="Color_00000146470595291974237490000014815146961849710723_"><g><g><path d="m48.455 41.093c-1.964-3.425-5.325-5.549-8.978-6.002-.937-.116-1.763-.664-2.186-1.508-.191-.383-.291-.806-.291-1.235v-3.348h-10v3.348c0 .429-.1.852-.292 1.236-.422.844-1.249 1.392-2.186 1.508-3.652.453-7.014 2.577-8.978 6.002-1.068 1.864-1.544 4.012-1.544 6.161v13.745h31c2.761 0 5-2.239 5-5v-8.745c0-2.149-.476-4.297-1.545-6.162z" fill="#a2bdcd"/><path d="m42 48v5c-7.18 0-13-5.82-13-13v-4.059c.329.037.662.059 1 .059 4 0 6-2 7-4.363v-2.637h-10v3.348c0 .429-.1.852-.292 1.236-.422.844-1.249 1.392-2.185 1.508-3.635.451-6.982 2.556-8.95 5.953-1.089 1.879-1.573 4.049-1.573 6.221v13.734h30v-14.99c-1.104.001-2 .886-2 1.99z" fill="#769fb6"/><path d="m44 17h-12v-6c0-3.314 2.686-6 6-6 3.314 0 6 2.686 6 6z" fill="#656b76"/><path d="m41.87 12.792c-1.182.131-2.36-.282-3.201-1.123l-1.678-1.678c.678-1.614.346-3.442-.689-4.744-2.486.733-4.302 3.029-4.302 5.753v6h12v-4.748c-.668.271-1.382.457-2.13.54z" fill="#545a63"/><path d="m28 19-7 1v-7.314c0-5.349 4.337-9.686 9.686-9.686 4.175 0 6.266 5.048 3.314 8z" fill="#7b828e"/><path d="m32.603 8.959c-1.556.623-3.336.185-4.427-1.087-1.039-1.212-1.38-2.743-1.12-4.161-3.55 1.436-6.056 4.911-6.056 8.975v7.314l7-1 6-8c.637-.637 1.027-1.374 1.224-2.134-.843-.264-1.767-.249-2.621.093z" fill="#656b76"/><path d="m32 40c3.21 0 5.908-2.163 6.734-5.109-.617-.249-1.137-.697-1.443-1.308-.191-.383-.291-.806-.291-1.235v-3.348h-10v3.348c0 .429-.1.852-.292 1.236-.305.61-.826 1.059-1.443 1.308.827 2.945 3.525 5.108 6.735 5.108z" fill="#f6b98d"/><path d="m26.708 33.583c-.305.61-.826 1.059-1.443 1.308.549 1.956 1.933 3.55 3.734 4.412v-3.362c.33.037.663.059 1.001.059 4 0 6-2 7-4.363v-2.637h-10v3.348c0 .429-.1.852-.292 1.235z" fill="#f3a268"/><path d="m34.6 11.8-.6-.8c-1.889 2.518-4.852 4-8 4h-3v8c0 3.248 1.727 6.086 4.307 7.669.689 1.936 2.52 3.331 4.693 3.331s4.004-1.395 4.693-3.331c2.58-1.583 4.307-4.421 4.307-7.669v-8c-2.518 0-4.889-1.186-6.4-3.2z" fill="#f9cdae"/><path d="m39.303 28.233c-1.737-.29-3.384-1.003-4.929-1.911-.503-.296-1.125-.41-1.782-.249-.209.051-.407.135-.592.241-.184-.107-.383-.19-.592-.241-.657-.161-1.279-.047-1.782.249-1.545.908-3.192 1.621-4.929 1.911.701.973 1.584 1.807 2.609 2.436.107.301.251.583.41.855l.519-.13c.621-.155 1.203-.413 1.729-.755.611-.396 1.308-.639 2.036-.639s1.425.243 2.035.639c.525.341 1.107.599 1.729.755l.519.13c.159-.272.303-.554.41-.855 1.026-.629 1.908-1.463 2.61-2.436z" fill="#f6b98d"/><path d="m34.6 11.8-.6-.8c-1.889 2.518-4.852 4-8 4h-3v8c0 3.248 1.727 6.086 4.307 7.669.689 1.936 2.52 3.331 4.693 3.331 1.687 0 3.16-.846 4.06-2.128-.343.075-.694.128-1.06.128-2.173 0-4.004-1.395-4.693-3.331-2.58-1.583-4.307-4.421-4.307-7.669v-3c3.148 0 6.111-1.482 8-4l.6.8c1.511 2.014 3.882 3.2 6.4 3.2v-3c-2.518 0-4.889-1.186-6.4-3.2z" fill="#f6b98d"/><path d="m41 21v-4c0-1.105.895-2 2-2 1.105 0 2 .895 2 2 0 2.209-1.791 4-4 4z" fill="#f6b98d"/><path d="m23 21v-4c0-1.105-.895-2-2-2-1.105 0-2 .895-2 2 0 2.209 1.791 4 4 4z" fill="#f6b98d"/><path d="m14 61h6v-11l-6-2z" fill="#f3a268"/><path d="m46 61h-2v-11l6-2v9c0 2.209-1.791 4-4 4z" fill="#f3a268"/><path d="m40 49v-2h-16v2c0 2.209-1.791 4-4 4v8h24v-8c-2.209 0-4-1.791-4-4z" fill="#b8bebf"/><path d="m42 52.445v.555c-4.6 0-8.632-2.395-10.943-6h-7.057v2c0 2.209-1.791 4-4 4v8h24v-8c-.732 0-1.41-.211-2-.555z" fill="#93999a"/><path d="m28 47-5.751-11.501c-.228-.457-.771-.684-1.243-.49-.531.218-1.046.47-1.54.755-.468.27-.66.846-.419 1.33l4.953 9.906z" fill="#d0d8da"/><path d="m40 47 4.953-9.906c.242-.483.049-1.06-.419-1.33-.495-.286-1.009-.537-1.54-.755-.473-.194-1.015.033-1.243.49l-5.751 11.501z" fill="#e9f1f2"/><path d="m26 57h12v4h-12z" fill="#b8bebf"/><path d="m43 17v-2c-1.105 0-2 .895-2 2v4c1.312 0 2.467-.641 3.196-1.617-.722-.548-1.196-1.407-1.196-2.383z" fill="#f3a268"/><path d="m21 17v-2c1.105 0 2 .895 2 2v4c-1.312 0-2.467-.641-3.196-1.617.722-.548 1.196-1.407 1.196-2.383z" fill="#f3a268"/><path d="m24.171 43.342-3.969-7.939c-.245.121-.5.225-.736.361-.468.27-.66.846-.419 1.33l4.953 9.906h4l-1-2h-.146c-1.136 0-2.175-.642-2.683-1.658z" fill="#b8bebf"/><path d="m44.534 35.764c-.236-.136-.491-.24-.736-.361l-3.969 7.939c-.508 1.016-1.547 1.658-2.683 1.658h-.146l-1 2h4l4.953-9.906c.242-.484.049-1.06-.419-1.33z" fill="#d0d8da"/><path d="m19 61v-14c0-.552.447-1 1-1s1 .448 1 1v14z" fill="#608ea9"/><g fill="#545a63"><path d="m38 19c-.256 0-.512-.098-.707-.293-.713-.713-1.873-.713-2.586 0-.391.391-1.023.391-1.414 0s-.391-1.023 0-1.414c1.492-1.493 3.922-1.493 5.414 0 .391.391.391 1.023 0 1.414-.195.195-.451.293-.707.293z"/><circle cx="36" cy="20" r="1"/><path d="m30 19c-.256 0-.512-.098-.707-.293-.713-.713-1.873-.713-2.586 0-.391.391-1.023.391-1.414 0s-.391-1.023 0-1.414c1.492-1.493 3.922-1.493 5.414 0 .391.391.391 1.023 0 1.414-.195.195-.451.293-.707.293z"/><circle cx="28" cy="20" r="1"/></g><path d="m32 25c-.256 0-.512-.098-.707-.293l-1-1c-.312-.312-.383-.791-.174-1.18l1.073-2c.26-.487.866-.67 1.354-.409.487.261.67.868.408 1.354l-.722 1.346.475.475c.391.391.391 1.023 0 1.414-.195.195-.451.293-.707.293z" fill="#f6b98d"/><path d="m43 61v-14c0-.552.447-1 1-1s1 .448 1 1v14z" fill="#608ea9"/><circle cx="37" cy="50" fill="#e9f1f2" r="1"/><circle cx="27" cy="50" fill="#d0d8da" r="1"/><path d="m40.956 26.375c-2.352 0-4.555-.862-6.582-2.053-.503-.296-1.125-.41-1.782-.249-.209.051-.407.135-.592.241-.184-.107-.383-.19-.592-.241-.657-.161-1.279-.047-1.782.249-2.027 1.191-4.231 2.053-6.582 2.053h-.544c0 1.148.543 2.169 1.386 2.82.845.653 1.982.791 3.018.532l1.333-.333c.621-.155 1.203-.413 1.729-.755.609-.396 1.306-.639 2.034-.639.728 0 1.425.243 2.035.639.525.341 1.107.599 1.729.755l1.333.333c1.036.259 2.173.121 3.018-.532.843-.652 1.386-1.672 1.386-2.82z" fill="#7b828e"/><path d="m32.592 26.073c-.209.051-.407.135-.592.241-.184-.107-.383-.19-.592-.241-.657-.161-1.279-.047-1.782.249-2.001 1.176-4.173 2.026-6.489 2.049.211.309.453.596.748.824.845.653 1.982.791 3.018.532l1.333-.333c.621-.155 1.203-.413 1.729-.755.61-.396 1.307-.639 2.035-.639s1.425.243 2.035.639c.525.341 1.107.599 1.729.755l1.333.333c1.036.259 2.173.121 3.018-.532.296-.229.537-.515.748-.824-2.317-.023-4.489-.873-6.489-2.049-.504-.296-1.125-.41-1.782-.249z" fill="#656b76"/></g><g><path d="m16 61h-7l-5-9 5-2z" fill="#f6b98d"/><path d="m14.707 59c-1.228 0-2.414-.281-3.482-.798-1.395-.675-2.225-2.152-2.225-3.702h.5c.786 0 1.424-.607 1.488-1.377l-1.988-3.123-5 2 5 9h7l-1.273-2z" fill="#f3a268"/><path d="m4 41h4v16h-4z" fill="#ffc857"/><path d="m5 45c0-1.105.895-2 2-2h1v-2h-4v16h1c0-1.105.895-2 2-2h1v-10z" fill="#ffb41f"/><path d="m8.5 53.5c.828 0 1.5-.672 1.5-1.5s-.672-1.5-1.5-1.5c.828 0 1.5-.672 1.5-1.5s-.672-1.5-1.5-1.5c.828 0 1.5-.672 1.5-1.5s-.672-1.5-1.5-1.5h-3.5c-1.105 0-2 .895-2 2v5c0 1.105.895 2 2 2z" fill="#f9cdae"/><path d="m4 41h7v-4.205c0-2.524-.249-5.041-.744-7.516-.811-4.056-3.026-7.695-6.256-10.279z" fill="#e9f1f2"/><path d="m6 33v-5.528c0-2.941-.685-5.842-2-8.472v22h7v-2.09c-2.837-.477-5-2.938-5-5.91z" fill="#d0d8da"/><path d="m7 51.5c-1.105 0-2-.895-2-2v-5c-1.105 0-2 .895-2 2v5c0 1.105.895 2 2 2h3.5c.828 0 1.5-.672 1.5-1.5 0-.176-.036-.343-.092-.5z" fill="#f6b98d"/></g><g><path d="m49.716 45h4l.458-1.831c.317-1.267-.289-2.585-1.458-3.169z" fill="#f6b98d"/><path d="m45.716 61h2.37c2.613 0 4.785-2.012 4.985-4.617l.645-8.383h-6z" fill="#f6b98d"/><path d="m55.716 44 1.948-2.598c.59-.787 1.692-.975 2.51-.43.851.568 1.081 1.718.514 2.569l-1.488 2.232c-.927 1.391-2.488 2.227-4.16 2.227h-7.324l.432-1.728c.334-1.335 1.534-2.272 2.911-2.272z" fill="#f9cdae"/><path d="m47.716 48-.154 1h.039c1.805 0 3.201 1.582 2.977 3.372l-.397 3.179c-.114.915-.643 1.726-1.433 2.2l-2.789 1.673-.243 1.576h2.37c2.613 0 4.785-2.012 4.985-4.617l.645-8.383z" fill="#f3a268"/><path d="m60.547 41.312c-.016.027-.026.057-.044.083l-1.488 2.232c-.927 1.391-2.488 2.227-4.16 2.227h-6.563c-.056.135-.107.273-.143.419l-.433 1.727h7.324c1.672 0 3.233-.836 4.16-2.227l1.488-2.232c.472-.706.386-1.615-.141-2.229z" fill="#f6b98d"/></g><g><path d="m60.399 31.898c-.418-.661-.971-1.146-1.588-1.459-1.11-.561-1.729-1.71-1.753-2.953-.029-1.515-.744-3.015-2.161-4.003-1.618-1.127-3.831-1.176-5.488-.107-2.78 1.793-3.082 5.541-.888 7.756l5.63 5.683c1.77 1.787 4.809 1.555 6.249-.711.802-1.263.798-2.941-.001-4.206z" fill="#f15574"/><path d="m56.15 32.815-5.63-5.683c-.964-.973-1.445-2.242-1.447-3.512-2.46 1.87-2.653 5.392-.553 7.512l5.63 5.683c1.77 1.787 4.809 1.555 6.249-.711.499-.785.685-1.729.564-2.635-1.532.871-3.513.659-4.813-.654z" fill="#ee2f56"/><circle cx="52.072" cy="27.613" fill="#f47c94" r="2"/><path d="m50.52 27.132c-.103-.104-.178-.223-.27-.333-.327.732-.197 1.618.401 2.222.587.592 1.452.74 2.178.443z" fill="#f15574"/><path d="m54.932 37.421c.171-.22.257-.503.2-.798l-.263-1.343c-.147-.758.294-1.511 1.026-1.751.525-.172.811-.737.639-1.262-.173-.524-.736-.809-1.262-.638-1.651.542-2.652 2.212-2.378 3.919l1.255 1.267c.24.241.505.439.783.606z" fill="#f47c94"/><path d="m54.932 37.421c.171-.22.257-.503.2-.798l-.263-1.343c-.147-.758.294-1.511 1.026-1.751.246-.081.433-.252.552-.461-.1-.083-.204-.159-.297-.253l-1.086-1.096c-1.522.612-2.431 2.198-2.17 3.829l1.255 1.267c.189.191.399.347.614.492.057.038.111.08.169.114z" fill="#f15574"/></g></g></g></svg>