<svg id="Layer_1" enable-background="new 0 0 68 68" height="512" viewBox="0 0 68 68" width="512" xmlns="http://www.w3.org/2000/svg"><g id="_x34_5"><g><g><g><path d="m64.8 22.3-.6 6.4-.2 1.4-.1.9-.7 6.9-.1 1.4-.6 5.5c0 2-.2 3.4-3.3 4.3l-50.6 13.3c-4 1-3.9-1.1-3.9-1.1 0-.1-.5-7.3-.5-6.8l-.1-1.4c-.4-6.3-1.2-17.1-1.6-23.2l58.2-10.6c.9 1.6 2.6 2.7 4.1 3z" fill="#ef7b56"/></g><g><path d="m64 30.1-.8 7.8-.1 1.4-56.7 14.9c-1 .2-1.7.3-2.2.3l-.1-1.5-.5-7.7c.6.2 1.5.2 2.9-.1z" fill="#db6849"/></g><g><path d="m64.1 28.8-.1 1.3-.8 7.8-56.8 14.9c-1 .3-1.8.3-2.3.2 0-.1-.7-9.7-.6-9.1.5.3 1.5.4 2.9 0z" fill="#ffb961"/></g><g><path d="m63.9 31-.7 6.9-.1 1.4-.6 5.5c0 2-.2 3.4-3.4 4.3l-50.5 13.3c-1.8.4-4 .5-4-1.4.9-1.2 1.9.5 2.4-.3.3-.5.4-.6.5-.7.2-.1.4.1.5.2.4.1.8 0 1-.2.7-.5.6-1.1 1.1-.8.6.3 1.9.5 2.1.4.7-.2.8-1.1 1.1-1.2.1 0 .4.1 1.1 0 1-.1 1.2-.8 1.7-1 .4-.2.8 0 1.2.1.9.2 1.9-.2 2.4-.9.1-.1.2-.3.4-.3.1 0 .3.1.4.2.3.1.7 0 .8-.3.1-.2.2-.3.3-.3s.2.1.3.2c.2.2.6.2.8 0 .1-.1.2-.2.3-.3.2-.1.5 0 .8-.1.4 0 .6-.3 1-.4.2-.1.5 0 .7-.1 1.1-.1 2.1-1 3.2-1.1.5 0 1.1.2 1.6-.1.1-.1.2-.2.4-.3h.4c.3 0 .5-.4.7-.6.7-.8 1.4-.1 2.6-.7.4-.3.9-.5 1.4-.6.9-.1 1.9.7 3.3-.2.5-.3.9-.8 1.5-.9.3 0 .5 0 .8-.1.5-.2.7-.8 1-.8.1 0 .2 0 .2.1.5.3 1.2.3 1.8.1.5-.2 1-.7 1.6-.9.4-.1.8-.1 1.2-.1s.8-.2 1.1-.5c.1-.1.2-.4.4-.4.1 0 .3.1.4.1.5.3 1.2.3 1.7 0 .5.2 1.2-.1 1.4-.6.1-.1.1-.2.2-.3h.3c.4.1.8.2 1.2.2s.8 0 1-.2.2-.4.3-.6c.2-.2.6-.3.9-.2 7.4-2.3 5.9-14.3 5.9-14.3z" fill="#db6849"/></g><g><path d="m63.7 34.1c-1.4.6-3.5-.9-2.3-4.3.7-2 .4-3.6.1-4.4-.2-.4-.7-.5-1-.1-3.8 5.9-8.5 1.5-9.9 1-1.3-.5-2.8 7.1-7.5 8-3.1.6-6.6-6-9.3-5.3-3.5.8-3.3 9.8-6 10.3-2.6.5-3.5-4.2-6.3-7.5-2.9-3.3-7.7.2-6.8 3.8 1 3.5 1.4 8.8-2.2 9s-3.8-4.1-4.2-8.4-5.1-5.6-5.1-5.6l17.9-20.1c16.8-1.2 32.9 2.7 42.7 9.7 1.8 3.3 1.3 13.3-.1 13.9z" fill="#ce5a3e"/></g></g><g><path d="m64.5 32.6c-1.4.6-3.5-.9-2.4-4.3.7-2.1.4-3.6.1-4.4-.2-.4-.7-.5-1-.1-3.8 5.9-8.5 1.5-9.9 1-1.3-.5-2.8 7.1-7.6 8-3.1.6-6.6-6-9.3-5.3-3.5.8-3.3 9.8-6 10.3s-3.5-4.2-6.3-7.5c-2.9-3.3-7.7.2-6.8 3.8 1 3.5 1.4 8.8-2.2 9s-3.6-4.3-4-8.6-6-2.7-6.8-4.6c-2.1-5 10.3-14.6 16.3-18.8 2-1.4 4.4-2.2 6.8-2.3 14.5-.4 28.2 3 37.3 8.8 1.3.8 2.2 2.1 2.5 3.6 1 4.2.4 10.9-.7 11.4z" fill="#e9e7fc"/></g><g><g><path d="m38.6 47.8c.1.5-.2.9-.7 1.1-.5.1-1-.1-1.2-.6-.1-.5.2-1 .7-1.1.6-.1 1.1.1 1.2.6z" fill="#ce5a3e"/></g><g><path d="m20.4 37.9c.1.5-.2.9-.7 1.1-.5.1-1-.1-1.2-.6-.1-.5.2-1 .7-1.1.5-.2 1.1.1 1.2.6z" fill="#ce5a3e"/></g><g><path d="m25.1 35.5c.1.5-.2.9-.7 1.1-.5.1-1-.1-1.2-.6-.1-.5.2-1 .7-1.1.6-.1 1.1.1 1.2.6z" fill="#ce5a3e"/></g><g><path d="m20.8 33.6c-.1.4-1 .4-1.8.1-.9-.3-1.5-.9-1.4-1.3s1-.4 1.9-.1 1.5.9 1.3 1.3z" fill="#ce5a3e"/></g><g><path d="m26.3 53.6c.1.3-.2.6-.7.8-.5.1-.9 0-1-.3s.2-.7.7-.8.9 0 1 .3z" fill="#ce5a3e"/></g><g><path d="m30.7 49.9c.1.3-.2.6-.7.8-.5.1-.9 0-1-.3s.2-.7.7-.8.9 0 1 .3z" fill="#ce5a3e"/></g><g><path d="m13 53.9c0 .3-.3.4-.7.4s-.7-.2-.7-.5.3-.4.7-.4.7.2.7.5z" fill="#ce5a3e"/></g><g><path d="m49 44.1c.3.1.5.4.4.7s-.4.5-.7.4-.5-.4-.4-.7.4-.5.7-.4z" fill="#ce5a3e"/></g><g><path d="m10.9 57c.2.3 0 .7-.4 1s-.9.4-1.1.1 0-.7.4-1 .9-.4 1.1-.1z" fill="#ce5a3e"/></g><g><path d="m45.1 48.5c0 .3-.4.6-.9.6s-1-.2-1-.5.4-.6.9-.6c.5-.1 1 .1 1 .5z" fill="#ce5a3e"/></g><g><path d="m47 36.1c0 .3-.4.6-.9.6s-1-.2-1-.5.4-.6.9-.6c.5-.1 1 .2 1 .5z" fill="#f3a250"/></g><g><path d="m29.5 44.9c0 .4-.3.7-.7.7s-.7-.3-.8-.6c0-.4.3-.7.7-.7.4-.1.8.2.8.6z" fill="#f3a250"/></g><g opacity=".5"><path d="m35.5 45.3c0 .4-.3.7-.7.7s-.7-.3-.8-.6c0-.4.3-.7.7-.7.4-.1.8.2.8.6z" fill="#db6849"/></g><g opacity=".5"><path d="m52.7 40.9c0 .4-.3.7-.7.7s-.7-.3-.8-.6c0-.4.3-.7.7-.7.4-.1.7.2.8.6z" fill="#db6849"/></g><g opacity=".5"><path d="m55.5 31.1c0 .4-.3.7-.7.7s-.7-.3-.8-.6c0-.4.3-.7.7-.7.4-.1.8.2.8.6z" fill="#ef7b56"/></g><g opacity=".5"><path d="m49.1 32.2c.3.2.3.7 0 1.1s-.8.5-1.1.3-.3-.7 0-1.1.8-.6 1.1-.3z" fill="#ef7b56"/></g><g opacity=".5"><path d="m23.1 38.3c.3-.2.8.1 1 .5.2.5.1.9-.3 1.1s-.8-.1-1-.5-.1-.9.3-1.1z" fill="#ef7b56"/></g><g><path d="m16.1 45.3c0 .5-.3.9-.7.9s-.7-.4-.8-.9c0-.5.3-.9.7-.9s.7.4.8.9z" fill="#f3a250"/></g><g><path d="m20.9 47.7c-.3.2-.8.2-1-.1s-.2-.8.2-1c.3-.2.8-.2 1 .1s.1.8-.2 1z" fill="#f3a250"/></g><g><path d="m11.9 50.1c-.3.2-.8.2-.9 0-.2-.3-.1-.7.2-.9s.8-.2 1 0 .1.6-.3.9z" fill="#f3a250"/></g><g><path d="m7 46.7c0 .3-.2.6-.5.6s-.6-.2-.6-.5.2-.6.5-.6c.4-.1.6.2.6.5z" fill="#f3a250"/></g><g><path d="m6 41.1c0 .6-.2 1-.6 1.1-.3 0-.6-.4-.7-1 0-.6.2-1 .6-1.1.4 0 .7.4.7 1z" fill="#ce5a3e"/></g><g><path d="m9.1 38c0 .6-.2 1-.6 1.1-.3 0-.6-.4-.7-1 0-.6.2-1 .6-1.1.4 0 .7.4.7 1z" fill="#ce5a3e"/></g><g><path d="m6.6 34.5c0 .3-.2.6-.5.6s-.6-.2-.6-.5.2-.6.5-.6c.4 0 .6.2.6.5z" fill="#ce5a3e"/></g><g><path d="m22.8 43c0 .3-.3.6-.7.7s-.8-.1-.8-.4.3-.6.7-.7c.3-.1.7.1.8.4z" fill="#f3a250"/></g><g><path d="m33.8 40.2c0 .5-.5 1-1.2 1s-1.3-.4-1.4-.9c0-.5.5-1 1.3-1.1.6.1 1.2.5 1.3 1z" fill="#f3a250"/></g><g><path d="m44 15.5c.2.4-.1 1-.8 1.4s-1.4.4-1.6 0 .1-1 .8-1.4c.6-.4 1.3-.4 1.6 0z" fill="#d2d0ef"/></g><g><path d="m17 24.9c.2.4-.1 1-.8 1.4s-1.4.4-1.6 0 .1-1 .8-1.4c.6-.4 1.4-.4 1.6 0z" fill="#d2d0ef"/></g><g><path d="m8.4 24.5c.3.5-.1 1.3-.9 1.8s-1.7.5-2 0 .1-1.3.9-1.8 1.7-.5 2 0z" fill="#d2d0ef"/></g><g><path d="m55 17.9c.1.4-.3 1-1 1.2-.7.3-1.4.1-1.6-.3s.3-1 1.1-1.3c.7-.2 1.4 0 1.5.4z" fill="#d2d0ef"/></g><g><path d="m42.7 23.8c.2.4-.1 1-.8 1.4s-1.4.4-1.6 0 .1-1 .8-1.4c.6-.4 1.4-.4 1.6 0z" fill="#d2d0ef"/></g><g><path d="m30.4 25.5c.2.4-.1 1-.8 1.4s-1.4.4-1.6 0 .1-1 .8-1.4c.6-.4 1.3-.4 1.6 0z" fill="#d2d0ef"/></g><g><path d="m18.1 15.5c.2.4-.1 1-.8 1.4s-1.4.4-1.6 0 .1-1 .8-1.4c.6-.4 1.4-.4 1.6 0z" fill="#d2d0ef"/></g><g><path d="m39.8 41.8c.2.3 0 .8-.4 1s-.9.2-1.1-.1 0-.8.4-1 .9-.2 1.1.1z" fill="#f3a250"/></g><g><path d="m47.7 40c0 .3-.3.5-.7.5s-.7-.3-.7-.6.3-.5.7-.5c.4.1.7.3.7.6z" fill="#f3a250"/></g><g><path d="m53.4 34.8c.4.3.4 1-.1 1.5-.4.5-1.1.7-1.5.4s-.4-1 .1-1.6c.5-.5 1.1-.7 1.5-.3z" fill="#f3a250"/></g><g><path d="m57.8 37.3c.2.2.2.7-.2 1-.3.3-.8.4-1 .1-.2-.2-.2-.7.2-1 .3-.2.8-.3 1-.1z" fill="#f3a250"/></g><g><path d="m41.4 37.3c.2.2.2.7-.2 1-.3.3-.8.4-1 .1-.2-.2-.2-.7.2-1 .3-.2.8-.3 1-.1z" fill="#f3a250"/></g><g><path d="m33.6 35.2c0 .4-.3.8-.6.8-.4 0-.7-.3-.7-.7s.3-.8.6-.8c.4-.1.7.3.7.7z" fill="#ce5a3e"/></g><g><path d="m37.5 33.6c0 .3-.3.5-.6.5-.4 0-.7-.2-.7-.4 0-.3.3-.5.6-.5.4-.1.7.2.7.4z" fill="#ce5a3e"/></g><g><path d="m41.5 33.7c0 .3-.3.5-.6.5-.4 0-.7-.2-.7-.4 0-.3.3-.5.6-.5s.6.2.7.4z" fill="#ce5a3e"/></g><g><path d="m56.1 43c.2.3 0 .7-.4 1s-.9.4-1.1.1 0-.7.4-1 .9-.3 1.1-.1z" fill="#ce5a3e"/></g><g><path d="m52 29.4c.1.3-.2.7-.7.8-.5.2-1 .1-1.1-.2s.2-.7.8-.8c.4-.2.9-.1 1 .2z" fill="#ce5a3e"/></g><g><path d="m60.5 28.1c.1.2-.2.4-.5.6-.3.1-.7 0-.7-.2-.1-.2.2-.4.5-.6.3-.1.7 0 .7.2z" fill="#ce5a3e"/></g><g><path d="m56.9 30c-.1.2-.4.2-.7 0s-.5-.5-.4-.6c.1-.2.4-.2.7 0 .4.2.5.4.4.6z" fill="#ce5a3e"/></g><g><path d="m54.1 28.2c-.1.2-.4.2-.7 0s-.5-.5-.4-.6c.1-.2.4-.2.7 0 .4.1.5.4.4.6z" fill="#ce5a3e"/></g><g><path d="m35.1 31.6c-.1.3-.6.3-1.1.1s-.8-.7-.6-.9c.1-.3.6-.3 1.1-.1s.8.6.6.9z" fill="#ce5a3e"/></g><g><path d="m18.4 53.1c-.1.4-.5.6-1.1.6-.5-.1-.9-.5-.8-.9s.5-.7 1.1-.6c.4.1.8.5.8.9z" fill="#ce5a3e"/></g></g><g><path d="m38.8 17.2c0 .2-.1.5-.2.6-.2.2-.2.4-.5.6-.6.3-.9.8-1.3 1.2-.1.3-.5.4-.8.4-1.3.4-.8.2-1.5.6-.3.1-.6.2-1 .3-.8 0-.6.1-1 .3-.4.1-1.1 0-1.5-.1s-.6-.6-.6-.9.1-.6.2-1c.3-1 0-2.1.2-3.2.4-1.8 2.2-3.3 3.9-3.5.4-.1 1.7-.1 2.1 0 .3.1.5.2.7.4 2.2 1.5 1.7 1.9 1.3 4.3z" fill="#d2d0ef"/></g><g><path d="m40.2 11.1c-1.9.4-3.7 1.3-5.3 2.3-1.6 1.1-2.3 1.8-2.5 2s-.6.1-.9-.1c-.5-.4-.9-1.1-.4-1.5 2.5-2 5.7-3.6 9.1-4 .3 0 .3 1.3 0 1.3z" fill="#d2d0ef"/></g><g><g><g><path d="m37 18c-5.5 6.9-16.2 1.7-15-3.9.8-3.6 3.7-5.7 3.7-5.7 6.1-4.6 9 1.5 9 1.5 1.1.6 1.8 1.3 2.3 2 1.9 2.7.4 5.7 0 6.1z" fill="#cc104a"/></g><g><path d="m36.3 16.6c-2.3 2.9-6.3 4.1-9.8 2.8-2-.7-3.5-1.9-4.4-3.1-.2-.7-.3-1.5-.1-2.3.8-3.6 3.7-5.7 3.7-5.7 6.1-4.6 9 1.5 9 1.5 1.1.6 1.8 1.3 2.3 2 .7 2.4-.4 4.5-.7 4.8z" fill="#e93565"/></g><g><path d="m32.2 22.5-6.9.9c-.5-1.6-1.3-2.2-1.7-2.7-.9-1.1-1.1-1.4-2-2.1-.5-.5-1-.9-1.6-1.3l1-.6c.3-.1 1.8-1 2.8-.6 1 .3 1.4 1.1 1.6 1.7.1.6 0 1.1.8 1.1.8.1 1.3.3 1.6.7 1.3 1.7 1.8 1.3 4.3 1.6z" fill="#e9e7fc"/></g></g><g><path d="m35.3 12.3c-.5.4-1.6 0-2.3-.7s-.8-1.9-.4-2.3c.5-.4 1.4 0 2.1.7.7.6 1.1 1.8.6 2.3z" fill="#cc104a"/></g><g><path d="m42.5 5.4v1.3c-1.9.5-3.7 1.4-5.3 2.5s-2.3 1.9-2.4 2c-.2.2-.6.2-.9-.1-.5-.3-.9-1-.6-1.4.5-.4 1-.9 2.9-2.1 2-1 4.2-1.9 6.3-2.2z" fill="#6eb954"/></g><g><path d="m29.6 10.8c-1.6.3-3 .4-3.5-.5-.4-.9.4-2 1.9-2.7 1.4-.7 3.1-.5 3.6.8.6 1.2-.5 2-2 2.4z" fill="#f45170"/></g><g><g><path d="m25.1 12.1c-.4.5-1 .7-1.2.5-.3-.2-.2-.8.2-1.3s.9-.7 1.2-.5c.2.2.2.7-.2 1.3z" fill="#fff"/></g></g><g><g><path d="m38.8 7c-.1-.2 1.4-.9 1.5-.7.1.1-1.4.9-1.5.7z" fill="#fff"/></g><g><path d="m38.1 7.3c-.1-.2.5-.4.6-.3 0 .1-.6.5-.6.3z" fill="#fff"/></g></g><g><path d="m35 11.1c0 .2-.1.6-.3.6 0 0 0 0-.1 0 0 0 0 0-.1.1-.2.3-.5.2-.6-.1v-.1h-.1c-.2 0-.3-.1-.4-.3s0-.2-.2-.3-.2-.4-.1-.6c0-.1.1-.1.1-.2s-.1-.1-.1-.1c-.6-.2.1-.7.5-.4.1.1 1.2 1.1 1.1 1z" fill="#6eb954"/></g><g><path d="m42.5 6.3v.4c-2.9.8-5.7 2.6-7.5 4.4 0 .1-.1.6-.3.5 0 0 0 0-.1 0 0 0 0 0-.1.1-.2.3-.5.2-.6-.1v-.1h-.1c-.2 0-.3-.1-.4-.3s0-.2-.2-.3-.2-.4-.1-.6c0-.1.1-.1.1-.2s-.1-.1-.1-.1c-.3-.1-.3-.3-.1-.4.4.1.5.4.5.7.1.4.1.4.1.4.2.4.4.5.7.3.2-.1.3-.2.4-.3l.2-.2c.2-.2.6-.4 1.6-1.3 1.1-1.1 2.7-1.6 3.4-1.9.8-.4 1.7-.9 2.6-1z" fill="#4b9534"/></g></g><g><g><path d="m15 29.9c-.5 1-.8 2-.8 3 0 1.1.3 1.3.6 3.1.3 1.5.4 3.6-.3 5-.3.6-.7.8-1.5.7.3 0 .5-.1.7-.3.5-.4.6-1.5.6-2.1 0-3.2-1-4.7-.8-6.4.2-1.2.7-2.3 1.5-3z" fill="#fff"/></g><g><path d="m29.7 32.8c-.2 1.5-.3 2.4-.7 3.2-.4.7-.8.8-1.2.7-1.5-.7-2.5-4.2-4.9-7.1-.8-1.1-2.1-1.8-3.5-2 .7-.1 1.5 0 2.2.3s1.3.7 1.8 1.3c2.4 2.5 3.7 6.5 4.6 7 .1.1.3-.1.5-.3.2-.3.3-.6.4-.9.3-.8.5-1.5.8-2.2z" fill="#fff"/></g><g><path d="m48.3 26.2c-.3 1.2-.9 2.4-1.6 3.4-.4.5-.9 1-1.4 1.3-.6.3-1.2.5-1.9.5.6-.2 1.1-.6 1.5-1s.8-.8 1.2-1.3c.7-.9 1.4-1.9 2.2-2.9z" fill="#fff"/></g><g><path d="m61.7 21.9c-.7.2-1.2.5-1.4 1-.5 1-1.3 1.9-2.4 2.4-.9.4-1.9.3-2.8-.1-.8-.3-1.5-.9-2.2-1.4.8.3 1.6.6 2.4.8 1.8.5 2.9-.1 4.1-1.5.4-.4.5-.7.9-1 .5-.2 1-.3 1.4-.2z" fill="#fff"/></g></g><g><path d="m42.6 6.7c-.3 0-.3-1.3 0-1.3.1 0 .2 1.3 0 1.3z" fill="#74ca73"/></g><g><path d="m25.9 21.4c.2.4-.1 1-.8 1.4s-1.4.4-1.6 0 .1-1 .8-1.4c.6-.4 1.4-.4 1.6 0z" fill="#d2d0ef"/></g></g></g></svg>