<svg id="Layer_1" enable-background="new 0 0 512 512" height="512" viewBox="0 0 512 512" width="512" xmlns="http://www.w3.org/2000/svg"><g><g fill="#bd8f4c"><path d="m478.226 360.368c-2.222 6.784-4.922 13.365-6.847 20.275-3.787 13.568-6.002 27.661-6.354 41.676-.227 9.421.125 19.194 1.636 28.616v.008c-2.246.743-4.523 1.377-6.855 1.847-1.276.266-2.575.477-3.889.642-6.988.877-13.834.462-20.533-.986-.165-.454-.298-.892-.383-1.291-.024-.125-.048-.235-.063-.344-.07-.54-.063-1.033.023-1.487.548-2.716 3.873-3.913 6.119-5.423 2.974-2.003 5.908-4.062 8.819-6.166.274-.196.071-.626-.227-.462-3.576 1.91-7.128 3.897-10.642 5.955-1.776 1.041-4.335 2.136-5.423 4.116-.25.462-.414.923-.509 1.393-.438-.196-.852-.43-1.26-.72-1.729-1.236-2.801-3.145-3.24-5.258 1.268-1.518 3.349-2.661 5.493-3.576 2.144-.923 4.335-1.636 5.83-2.301 4.335-1.941 7.981-5.266 10.799-9.21 6.87-9.633 8.177-22.098 8.967-33.397.736-10.548.579-21.12-.532-31.527-.086-.775-.172-1.549-.266-2.324v-.008c4.484-6.307 7.911-13.53 5.071-21.026-.031-.07-.07-.11-.125-.133-.657-5.947-2.089-11.901-2.809-17.739-.219-1.737-.422-3.49-.595-5.235 1.307 3.201 2.864 6.292 4.703 9.187 3.06 4.828 7.129 8.529 10.681 12.903 5.306 6.533 5.072 13.904 2.411 21.995z"/><path d="m477.788 179.69c.086.203.156.407.235.618 4.186 11.69 3.826 23.764 1.143 36.042-3.099 14.069-8.247 27.966-7.332 42.529.501 7.926 2.684 14.953 5.908 21.51-3.513-15.704-2.16-32.818 1.604-48.663 3.388-14.281 6.925-28.24 4.663-42.787-.618-4.03-1.588-7.872-2.864-11.558-1.275-3.677-2.856-7.199-4.695-10.587.242 2.989.125 5.978-.282 9.007.587 1.267 1.127 2.566 1.62 3.889z"/><path d="m471.63 158.953c-.336-1.017-.735-2.011-1.174-3.012-1.221-2.785-2.794-5.478-4.68-8.099-10.125-13.991-25.791-22.684-34.93-37.559-9.515-15.478-10.282-35.032-20.298-50.213-4.937-7.48-12.324-13.279-21.48-14.053-8.858-.744-15.54 3.889-20.227 11.307-.313.493-.626 1.001-.931 1.526-5.979 10.055-11.174 24.031-24.915 23.35-.876-.039-1.713-.133-2.527-.258-15.916-2.535-21.159-21.049-27.99-33.443-4.672-8.459-11.511-15.846-21.785-16.26-3.537-.149-7.089.423-10.509 1.526-4.953 1.612-9.617 4.351-13.545 7.708-14.429 12.324-21.167 32.051-30.627 48.1-9.476 16.041-20.439 31.284-33.201 45.096-5.055 6.667-10.407 13.255-17.035 18.365-6.057 4.679-13.553 8.232-21.143 8.341-1.331.016-2.661-.07-3.983-.274-5-.783-10.118-3.428-13.107-7.575-6.135-5.696-10.775-13.013-13.842-20.83-4.186-10.688-4.562-21.808-2.747-33.303 1.69-10.72 4.875-21.652 4.851-32.481-3.474 2.277-7.676 3.474-11.745 3.349-4.507-.11-8.842-1.823-11.878-5.438-.196-.235.11-.595.367-.415 3.474 2.348 7.371 4.022 11.479 4.249 2.058.125 4.163-.118 6.291-.814 1.894-.618 3.764-1.604 5.438-2.872.634-.477 1.244-.994 1.808-1.55 2.958-2.887 4.898-6.722 4.492-10.798-.368-3.678-3.13-7.309-7.097-7.614-.846-.054-1.675.047-2.488.266-.165.047-.336.094-.501.149-.649.212-1.299.493-1.941.79-1.15.532-2.269 1.143-3.404 1.612-1.683.689-3.396 1.15-5.117 1.362-2.778.36-5.572.094-8.263-.846-.212-.07-.149-.454.086-.414 2.715.454 5.266.509 7.77.133 2.387-.368 4.734-1.135 7.129-2.316.367-.18.728-.36 1.087-.533-2.95-3.975-6.894-7.105-11.769-8.771-4.679-.564-9.265-1.056-13.897-.932-3.889.102-7.802.634-11.816 1.917-5 1.597-9.422 4.116-13.404 7.575-2.895 2.519-5.642 5.18-9.014 7.089-7.958 4.484-16.737 3.029-25.141 5.501-5.329 1.581-8.005 5.751-10.861 9.883-.016.032-.031.063-.063.094-.015.032-.047.055-.07.094-1.299 1.886-2.645 3.74-4.312 5.328-.336.564-.618 1.151-.806 1.769-1.424 4.554 2.136 6.69 6.15 6.729 2.105.023 4.21-.251 6.268-.751.555-.133 1.119-.289 1.667-.462 3.24-.986 6.338-2.528 9.155-4.39.102-.063.18.078.11.148-2.848 2.754-7.246 5.595-11.8 7.011-.751.752-1.542 1.464-2.355 2.152-1.393 1.166-2.887 2.183-4.39 3.193-1.62 1.08-6.416 3.85-3.067 6.589 1.518 1.252 4.131.101 5.54-.783 3.592-2.238 6.158-5.047 10.235-6.541 3.162-1.158 6.55-1.683 9.844-1.573 11.612.376 20.376 7.645 25.681 17.051 5.713 9.194 8.263 20.196 9.39 31.166 1.487 14.39 1.369 29.399 6.174 43.1 4.085 11.643 11.487 22.129 21.104 29.703 10.517 8.287 22.927 12.317 36.245 14.25 7.191 1.048 14.601 1.338 21.878 1.596 3.216.117 6.503.125 9.766.266.735.039 1.455.078 2.183.125.329.54.657 1.087.986 1.635.211.352.422.704.626 1.064 1.831 3.114 3.552 6.307 5.157 9.578 9.852 20.024 13.733 43.749 11.37 66.668-1.432 13.975-5.29 27.771-5.861 41.848-.133 3.271-.079 6.479-.384 9.726-.313 3.326.9 6.627 1.659 9.844 2.097 9.187 5.235 18.412 5.61 27.802.391 9.75-.454 19.61-4.186 28.718-3.357 8.161-9.343 15.548-17.215 19.625-3.333 1.721-6.988 2.887-10.642 2.981-.697.023-2.254-.446-2.896.055-.187.141-.321.469-.422.876-.258 1.08-.258 2.739-.25 3.263.008.54.047 1.08.125 1.597 3.686 1.095 7.379 1.675 11.12 1.737.266-.595.744-1.205 1.456-1.815.939-.798 2.136-1.205 3.161-1.847 1.894-1.165 3.412-2.692 4.765-4.468 2.082-2.715 3.568-5.83 5.407-8.709.18-.289.595-.086.5.227-1.197 3.905-3.036 7.817-5.712 10.986-1.369 1.612-2.887 2.809-4.601 4.007-.767.423-1.503.923-2.191 1.495.008.039.016.063.023.094.118.673.242 1.346.368 2.011.054.336.117.665.18 1.002.704.775 2.747 1.158 3.834 1.463 6.432 1.886 12.371 1.205 18.232-.728 1.956-.642 3.905-1.424 5.853-2.293 3.866-14.343 3.381-29.367 3.279-43.851-.047-7.653.016-15.352.923-23.021.884-7.457 2.989-14.531 5.274-21.714 2.801-8.764 3.874-16.957 2.942-25.901-.814-7.879-1.706-15.704-1.925-23.655-.689-25.352 2.621-51.456 8.334-76.661-2.934-2.762-6.181-5.282-9.766-7.496-1.424-.899-2.903-1.745-4.437-2.535-.187-.094-.023-.43.172-.344 1.487.602 2.927 1.26 4.319 1.987 3.639 1.886 6.995 4.163 10.086 6.769.83.696 1.644 1.424 2.434 2.183.454.422.9.861 1.338 1.299 6.589 6.62 11.683 14.789 15.361 23.623.133.321.266.642.391.97 6.776 16.839 8.24 35.62 8.091 54.063-.086 10.149-.876 20.314-.939 30.47-.078 10.987 2.551 20.134 6.651 29.938 3.725 8.858 6.409 17.583 7.097 27.442.642 9.327.383 19.023-.501 28.444-.618 6.682-2.144 14.202-7.418 19.038-3.021 2.762-6.761 3.725-10.415 5.086-3.905 1.448-10.07 5.618-7.723 10.509 3.216.649 6.55.814 10.008.399 3.2-.383 6.15-1.291 8.975-2.528 2.175-5.391 4.671-10.736 6.917-15.908.18-.431.806-.258.673.203-1.361 4.726-2.84 9.429-4.327 14.124-.289.947-.595 1.886-.884 2.832-.164.501-.321 1.01-.478 1.518-.555 1.753-3.772 8.326-2.198 9.679 1.15 1.01 5.994.25 7.465.078 6.542-.775 11.996-3.553 16.988-7.316 1.447-1.072 2.848-2.238 4.233-3.466 3.161-14.218-2.371-28.858-7.066-42.028-2.433-6.862-4.805-13.842-5.705-21.205-1.041-8.576.368-17.137 1.518-25.721 1.189-8.936 1.291-17.325-.626-25.964-1.854-8.38-4.499-16.471-5.399-25.102-1.729-16.636-.665-33.217 1.886-49.869 1.228-8.005 3.091-15.947 5.039-23.811.172-.657.336-1.307.509-1.948.133-.517.274-1.033.423-1.55 2.074-7.441 4.75-14.625 7.262-21.949.313-.908 1.549-.485 1.338.415-1.682 7.324-3.231 14.648-4.938 21.972 22.341 2.637 44.681 4.828 67.232 1.315 11.847-1.839 23.412-5.329 34.469-10.18 2.708-1.182 5.298-2.496 7.786-3.928-1.463-6.025-2.418-12.207-2.817-18.459-.078-1.151-.133-2.309-.165-3.467-.016-.329.524-.383.555-.062.666 7.183 1.964 14.265 3.874 21.135.164.626.344 1.245.524 1.863.039.133.078.274.125.407 2.355 7.935 5.548 15.587 9.546 22.802 3.983 7.152 8.647 13.851 14.038 19.915 2.997 3.357 6.323 6.299 9.64 9.256.454.407.916.814 1.37 1.221.258.923.509 1.847.735 2.785.117.422.227.853.329 1.283 2.23 9.124 3.506 18.522 3.772 28.107.743 26.589-6.339 53.57-20.024 77.021-6.416 10.986-14.226 21.205-23.146 30.251-4.578 4.64-9.469 8.975-14.601 12.95-2.379 1.847-4.867 3.513-7.301 5.274-1.573 1.142-3.936 2.864-4.593 4.883-.055.164-.11.329-.133.5.125.165.25.321.384.478 1.995 2.34 4.742 4.022 7.754 4.828.564.149 1.143.274 1.706.368-.431-.892-.423-1.996.25-3.349 1.565-3.138 6.244-5.767 8.85-7.903 3.052-2.511 6.057-5.149 9.312-7.363.187-.133.344.149.203.305-4.249 4.625-9.21 8.615-13.819 12.872-1.267 1.189-4.194 3.146-2.097 5.43.102.11.219.204.368.29.743.461 1.956.673 2.645.868.845.243 1.706.43 2.582.595 1.409.258 2.841.407 4.28.462 7.207.219 13.592-2.152 19.578-5.845 3.028-8.123 4.75-16.613 6.675-25.126 2.52-11.143 6.056-21.925 10.837-32.294 1.354-2.942 2.801-5.845 4.335-8.701.117-.227.234-.454.368-.688 3.654-6.753 7.793-13.24 12.386-19.344 3.076-4.092 6.73-8.083 9.813-12.317.579-.798 1.143-1.596 1.675-2.41.352-.54.689-1.08 1.01-1.619-.36.243-.744.469-1.15.657-.156.078-.313.148-.485.219-.149.062-.196-.172-.086-.251.18-.133.352-.266.509-.399 6.745-5.579 2.903-15.501 1.753-22.669-1.103-6.839-1.957-13.741-2.614-20.666-.227-2.434-.422-4.875-.579-7.316 0-.016-.008-.032-.008-.039-.195-3.02-.336-6.041-.414-9.069-.039-1.088-.055-2.168-.071-3.248-.039-3.278-.133-6.792-.047-10.298-.462.243-1.08.125-1.134-.516-.986-11.519.18-23.35 1.581-34.86 1.361-11.12 3.38-22.145 5.986-33.021 2.762-11.526 7.152-22.63 9.766-34.109.532-2.34.868-4.632 1.01-6.886.047-.79.07-1.565.078-2.34.001-4.129-.664-8.096-1.971-11.923zm-351.067-105.058c.728.172 1.432.18 2.128.063 3.326-.524 6.377-3.685 9.656-3.717.83-.008 1.69.196 2.567.689.274.164.547.352.821.564 2.034 1.58 2.653 4.663 1.236 6.69l-.008.008c-.399.571-.979 1.056-1.73 1.401-.086.039-.172.078-.274.117-.391.156-.728-.274-.407-.602.188-.188.36-.376.501-.571 1.98-2.59.814-5.971-2.034-6.8-.665-.204-1.416-.258-2.246-.134-1.62.243-2.958 1.284-4.39 2.011-1.198.61-2.363 1.056-3.561 1.119-.782.055-1.58-.062-2.41-.414-.256-.11-.123-.486.151-.424zm-82.436 12.951c-.822.391-1.643.775-2.488 1.127-.36.149-.579-.305-.258-.524.298-.196.595-.376.892-.571h-.024c-.211-.016-.219-.297-.015-.367.391-.125.767-.227 1.158-.352 2.582-1.636 5.282-3.216 7.981-4.547 1.291-.642 3.302-1.267 4.038.423 1.479 3.379-7.113 4.576-11.284 4.811zm59.72-6.722c-.11.321-.524.266-.602-.016-.806-2.841-1.189-5.391-3.271-7.113-.274.563-.751 1.064-1.299 1.377-1.362.759-3.349.861-4.664.086-1.134-.681-1.885-2.34-.931-3.545-1.667-.054-3.357.047-5.031.039-.133.008-.133-.172-.016-.212 3.561-1.001 7.7-1.565 11.088-.133.039-.015.07-.031.11-.039.203-.063.454.031.587.172.078.094.148.196.203.298.25.133.485.282.728.446 2.762 1.879 4.217 5.346 3.098 8.64z"/></g><g fill="#614927"><path d="m477.725 264.959c-1.001-14.774 2.747-28.725 5.916-43.053 2.809-12.77 4.022-25.549.978-38.178-.54-2.246-1.197-4.483-1.964-6.69-1.682-4.86-3.913-9.586-6.675-13.882-.376-2.089-.947-4.163-1.737-6.221-6.565-17.137-22.692-26.706-34.367-39.657-6.761-7.504-10.963-16.19-14.101-25.862-2.88-8.889-5.148-18.044-9.249-26.433-6.464-13.247-20.149-25.65-36.074-20.877-14.703 4.39-16.096 21.605-26.276 30.995-7.591 6.996-18.06 4.132-24.562-2.402-6.698-6.722-9.625-16.252-14.022-24.492-3.811-7.159-8.819-13.623-16.566-16.596-6.979-2.692-14.813-1.894-21.824.892-19.593 7.809-28.06 28.647-37.489 46.058-5.454 10.087-11.526 19.852-18.005 29.359 0 0 0 .008-.008.008-.008.008-.016.023-.016.032-4.131 5.078-8.239 10.188-12.395 15.266-6.095 7.434-11.784 15.399-18.522 22.325-6.307 6.479-14.195 12.113-23.256 13.333-7.003.947-13.279-1.205-17.95-5.594-1.322-1.557-2.621-3.13-3.873-4.742-.07-.101-.133-.203-.195-.313-.024-.039-.071-.063-.11-.063-5.071-6.573-9.335-13.67-11.652-21.933-3.764-13.381-.931-26.777 1.635-40.33 1.252-6.588 2.379-13.561 2.269-20.36 2.785-2.324 4.898-5.446 5.759-9.21 1.229-5.344-1.424-11.51-7.144-12.559-1.44-.258-2.801-.086-4.124.313-.297.094-.595.196-.892.305-2.285-3.076-5.18-5.65-8.569-7.363.266-.078.289-.509.008-.603-8.905-3.24-19.797-3.474-29.172-.947-4.39 1.189-8.591 3.115-12.371 5.72-3.764 2.598-7.042 5.876-10.877 8.388-8.693 5.697-18.529 3.318-27.755 6.738-5.681 2.105-8.232 6.988-11.056 11.769-4.766 3.506-9.023 11.322-2.544 14.679 2.497 1.291 5.431 1.448 8.396.877-1.385 1.135-2.848 2.191-4.382 3.162-2.386 1.518-5.696 3.169-5.704 6.385 0 2.16 1.737 3.545 3.803 3.85 3.318.501 5.853-1.886 8.303-3.85 8.787-7.074 20.501-6.886 29.367-1.197 6.181 3.975 10.321 9.867 13.404 16.354.015.015.023.031.031.047 8.576 21.769 3.701 48.413 11.566 70.644 8.153 23.068 28.663 39.641 52.654 44.054 8.012 1.471 16.292 1.972 24.461 2.113 5.469.094 10.963.548 16.448.744 6.917 13.216 11.503 27.755 13.921 42.833 1.925 11.941 2.05 24.039.884 36.277-1.291 13.631-4.758 27.184-4.953 40.924-.133 9.719 1.471 20.204 6.675 28.24.563 10.799 1.643 21.581.078 32.497-2.378 16.597-13.842 34.25-32.074 33.811-.454-.008-.869.329-1.025.751-.258.704-.469 1.417-.642 2.121-.36 1.557-.501 3.114-.376 4.601.054.603.149 1.205.289 1.784.688.289 1.369.556 2.081.806 3.311 1.142 6.863 1.761 10.455 1.823.43 1.573 2.081 2.903 3.85 3.639 7.551 3.138 18.279 3.278 26.566-.806h.008c.524-.25 1.033-.524 1.526-.814.336-.861.642-1.721.931-2.582.102-.289.196-.579.289-.868 8.49-26.128.626-54.47 8.161-80.84 2.105-7.348 4.813-14.609 5.352-22.199.556-8.06-.798-15.986-1.424-23.905-1.4-17.731-.25-35.682 2.16-53.413 1.417-10.47 3.381-20.861 5.321-31.229 19.695 20.619 24.155 53.163 23.295 82.522-.305 10.118-1.565 20.329-1.267 30.447.274 9.241 2.708 17.434 6.072 25.767 4.007 9.907 6.769 19.547 7.207 30.549.368 8.936.219 18.326-.947 27.324-.618 4.734-1.823 10.094-5.282 13.749-3.381 3.576-8.114 4.35-12.317 6.323-3.85 1.815-8.686 7.402-7.504 11.597.187.673.532 1.307 1.056 1.885.532.156 1.064.305 1.604.431.321.086.65.156.97.227 5.595 1.15 11.777.775 17.309-1.197-.868 2.293-1.666 4.601-2.34 6.893-1.761 5.994 3.561 6.268 8.068 6.08 7.332-.305 15.791-3.193 22.027-8.404.681-.556 1.33-1.15 1.956-1.777.454-1.119.837-2.261 1.166-3.427.188-.697.36-1.401.516-2.113 1.949-8.826.759-18.435-1.549-26.582-4.601-16.237-12.097-30.713-10.431-48.452.853-9.101 2.958-18.185 2.535-27.286-.375-7.997-2.652-15.595-4.468-23.24-4.061-17.144-4.327-34.602-1.706-52.294 1.495-10.118 3.748-20.173 6.221-30.095.446-1.776.877-3.552 1.291-5.321.039.008.086.016.125.023 22.857 3.756 46.308 5.579 69.22 1.823 13.819-2.262 28.358-6.941 41.042-14.476 2.144 8.17 5.243 16.033 9.179 23.428 3.85 7.222 8.56 13.96 13.889 20.055 3.795 4.328 7.981 8.858 12.754 12.293v.008c5.259 24.664 4.14 51.207-3.85 75.886-8.655 26.722-25.228 50.972-46.903 68.86-3.138 2.59-6.432 4.938-9.695 7.371-2.112 1.588-4.178 3.263-5.344 5.751-.031.047-.047.11-.063.156-.234.516-.391 1.08-.477 1.675.258.462.547.908.861 1.338.313.431.649.853 1.009 1.245 1.346 1.455 3.013 2.66 4.828 3.521 2.121 1.01 4.421 1.565 6.8 1.769h.008c1.776 1.064 4.241 1.588 5.853 1.885 7.293 1.338 16.01.079 23.005-3.991h.008c.47-.266.947-.563 1.401-.861h.008c.329-.728.65-1.455.955-2.191.188-.462.376-.923.556-1.385.008-.008.008-.008.008-.008 2.848-7.215 4.679-14.829 6.573-22.262 3.208-12.536 7.097-24.711 12.809-36.339 5.556-11.307 12.426-21.84 20.337-31.48 1.127-1.378 2.316-2.833 3.474-4.335 1.244 12.254 1.322 24.711.023 37.239-1.283 12.536-4.515 27.771-16.659 34.258-3.85 2.05-8.874 2.481-12.121 5.759-.25.251-.493.517-.72.806-.07.086-.141.18-.203.274-.031.039-.063.07-.086.11-.008.086 0 .172-.008.258-.032.931.055 1.854.258 2.747.008.039.015.07.023.11.469 2.019 1.565 3.85 3.278 5.141.657.493 1.362.884 2.105 1.158.063.438.149.884.258 1.322.015.086.039.165.062.243.079.313.181.634.29.955.736.266 1.495.516 2.254.751 9.773 2.981 21.049 2.903 31.175-.509.336-.11.665-.242 1.001-.36.391-.141.783-.274 1.166-.423-.109-.814-.219-1.644-.329-2.465-1.048-7.856-1.792-15.751-1.792-23.827 0-.618.008-1.244.016-1.863.203-14.562 2.151-29.156 6.064-43.272 1.909-6.909 4.593-13.498 6.815-20.274 1.808-5.501 3.098-11.519 1.244-17.027-1.753-5.204-5.845-8.811-9.351-12.7-4.061-4.523-7.254-9.742-9.672-15.423-.947-2.23-1.784-4.507-2.527-6.815-.384-4.335-.689-8.686-.955-13.029-.234-3.975-.462-7.95-.696-11.918-.031-.477-.047-.955-.063-1.44-.117-3.38-.008-6.831-.493-10.141.509-8.146.876-16.276 1.846-24.406 1.331-11.104 3.31-22.144 5.971-33.006 2.598-10.564 6.339-20.736 9.194-31.175.509-1.87.947-3.741 1.276-5.603.25.642.493 1.283.728 1.933.688 1.956 1.275 3.959 1.737 5.994 3.263 14.312-.446 28.358-4.217 42.419-3.412 12.723-6.073 25.47-3.514 38.459 1.635 8.302 4.977 16.839 10.259 23.475 1.346 1.69 2.809 3.255 4.405 4.663-.743-1.823-1.447-3.67-2.097-5.532-2.803-7.886-4.775-16.055-5.37-24.685zm-12.59 60.51c3.06 4.828 7.129 8.529 10.681 12.903 5.305 6.534 5.071 13.905 2.41 21.996-2.222 6.784-4.922 13.365-6.847 20.275-3.787 13.568-6.002 27.661-6.354 41.676-.227 9.421.125 19.194 1.636 28.616v.008c-3.482 1.158-7.035 2.027-10.744 2.488-6.988.877-13.834.462-20.533-.986-.165-.454-.298-.892-.383-1.291-.024-.125-.048-.235-.063-.344-.07-.54-.063-1.033.023-1.487.548-2.716 3.873-3.913 6.119-5.423 2.974-2.003 5.908-4.062 8.819-6.166.274-.196.071-.626-.227-.462-3.576 1.91-7.128 3.897-10.642 5.955-1.776 1.041-4.335 2.136-5.423 4.116-.25.462-.414.923-.509 1.393-.438-.196-.852-.43-1.26-.72-1.729-1.236-2.801-3.145-3.24-5.258 1.268-1.518 3.349-2.661 5.493-3.576 2.144-.923 4.335-1.636 5.83-2.301 4.335-1.941 7.981-5.266 10.799-9.21 6.87-9.633 8.177-22.098 8.967-33.397.79-11.331.548-22.7-.798-33.851v-.008c4.484-6.307 7.911-13.53 5.071-21.026-.031-.07-.07-.11-.125-.133-.657-5.947-2.089-11.901-2.809-17.739-.219-1.737-.422-3.49-.595-5.235 1.308 3.201 2.865 6.292 4.704 9.187zm8.389-152.242c-.141 2.246-.478 4.538-1.01 6.878-2.614 11.479-7.004 22.583-9.766 34.109-2.606 10.877-4.625 21.902-5.986 33.021-1.401 11.51-2.567 23.341-1.581 34.86.054.642.673.759 1.134.516-.086 3.506.008 7.019.047 10.298.016 1.08.032 2.16.071 3.263.078 3.013.219 6.033.414 9.054 0 .008.008.023.008.055.157 2.426.352 4.867.579 7.301.657 6.925 1.51 13.827 2.614 20.666 1.15 7.168 4.992 17.09-1.753 22.669-.156.133-.329.266-.509.399-.109.079-.063.313.086.251.172-.071.329-.141.485-.219.407-.188.79-.415 1.15-.657-.321.54-.657 1.08-1.01 1.619-.532.814-1.095 1.612-1.675 2.41-3.082 4.234-6.737 8.225-9.813 12.317-6.682 8.881-12.402 18.568-17.09 28.733-4.781 10.368-8.318 21.151-10.837 32.294-1.925 8.514-3.647 17.004-6.675 25.126-5.986 3.693-12.371 6.064-19.578 5.845-1.439-.055-2.872-.203-4.296-.462-.861-.165-1.722-.352-2.567-.595-.689-.196-1.902-.407-2.645-.868-.149-.086-.266-.18-.368-.29-2.097-2.285.83-4.241 2.097-5.43 4.609-4.257 9.57-8.247 13.819-12.872.141-.156-.016-.438-.203-.305-3.255 2.215-6.26 4.852-9.312 7.363-2.606 2.136-7.285 4.766-8.85 7.903-.673 1.354-.681 2.457-.25 3.349-.564-.094-1.142-.219-1.706-.368-3.012-.806-5.759-2.488-7.754-4.828-.134-.156-.258-.313-.384-.478.023-.172.078-.336.133-.5.657-2.019 3.02-3.741 4.593-4.883 2.434-1.761 4.922-3.427 7.301-5.274 5.133-3.975 10.023-8.31 14.601-12.95 8.921-9.046 16.73-19.265 23.146-30.251 13.685-23.452 20.767-50.432 20.024-77.021-.266-9.586-1.542-18.983-3.772-28.107-.102-.43-.211-.861-.329-1.283-.227-.939-.478-1.862-.735-2.785-.454-.407-.916-.814-1.37-1.229-3.317-2.95-6.643-5.892-9.64-9.249-5.391-6.064-10.055-12.763-14.038-19.915-3.998-7.214-7.191-14.867-9.546-22.802-.047-.133-.086-.274-.125-.407-.18-.618-.36-1.236-.524-1.863-1.91-6.87-3.208-13.952-3.874-21.135-.031-.321-.571-.267-.555.062.227 7.434 1.244 14.789 2.981 21.926-2.488 1.432-5.078 2.746-7.786 3.928-11.056 4.852-22.622 8.341-34.469 10.18-22.552 3.513-44.892 1.322-67.232-1.315 1.706-7.324 3.255-14.648 4.938-21.972.212-.9-1.025-1.322-1.338-.415-2.512 7.324-5.188 14.508-7.262 21.949-.148.517-.289 1.033-.423 1.55-.172.642-.336 1.291-.509 1.948-1.948 7.864-3.811 15.806-5.039 23.811-2.551 16.651-3.615 33.232-1.886 49.869.9 8.631 3.545 16.722 5.399 25.102 1.917 8.639 1.815 17.028.626 25.964-1.15 8.584-2.559 17.145-1.518 25.721.9 7.363 3.271 14.343 5.705 21.205 4.695 13.17 10.227 27.81 7.066 42.028-6.166 5.461-12.786 9.781-21.222 10.783-1.471.172-6.314.931-7.465-.078-1.573-1.354 1.643-7.926 2.198-9.679.156-.509.313-1.017.478-1.518.289-.947.595-1.885.892-2.832 1.479-4.695 2.958-9.398 4.319-14.124.133-.462-.493-.634-.673-.203-2.246 5.172-4.742 10.517-6.917 15.908-2.825 1.237-5.775 2.144-8.975 2.528-3.459.415-6.792.25-10.008-.399-2.347-4.891 3.819-9.061 7.723-10.509 3.654-1.361 7.395-2.324 10.415-5.086 5.274-4.836 6.799-12.356 7.418-19.038.884-9.421 1.143-19.116.501-28.444-.688-9.859-3.372-18.584-7.097-27.442-4.1-9.804-6.729-18.952-6.651-29.938.063-10.156.853-20.321.939-30.47.149-18.795-1.369-37.943-8.482-55.033-3.678-8.834-8.772-17.004-15.361-23.623-.438-.438-.884-.877-1.338-1.299-.79-.759-1.604-1.487-2.434-2.183-4.272-3.608-9.061-6.589-14.406-8.756-.196-.086-.36.25-.172.344 5.392 2.794 10.102 6.166 14.202 10.032-5.712 25.205-9.022 51.309-8.334 76.661.219 7.95 1.111 15.775 1.925 23.655.931 8.944-.141 17.137-2.942 25.901-2.285 7.183-4.39 14.257-5.274 21.714-.908 7.669-.97 15.368-.923 23.021.102 14.484.587 29.508-3.279 43.851-7.801 3.482-15.501 5.532-24.085 3.02-1.087-.305-3.13-.688-3.834-1.463-.063-.337-.125-.665-.18-1.002-.125-.665-.25-1.338-.368-2.011-.008-.031-.015-.054-.023-.094.688-.571 1.424-1.072 2.191-1.495 1.713-1.197 3.231-2.395 4.601-4.007 2.677-3.169 4.515-7.081 5.712-10.986.094-.313-.321-.516-.5-.227-1.839 2.879-3.326 5.994-5.407 8.709-1.354 1.776-2.872 3.302-4.765 4.468-1.025.642-2.223 1.049-3.161 1.847-.712.611-1.189 1.22-1.464 1.815-3.732-.062-7.426-.642-11.112-1.737-.078-.517-.117-1.056-.125-1.597-.008-.524-.008-2.183.25-3.263.102-.407.235-.735.422-.876.642-.501 2.199-.032 2.896-.055 3.654-.094 7.308-1.26 10.642-2.981 7.872-4.077 13.858-11.464 17.215-19.625 4.968-12.079 4.697-25.24 3.55-38.014-.56-6.234-3.172-12.208-4.447-18.354-1.345-6.478-2.071-13.102-1.802-19.721.571-14.077 4.429-27.873 5.861-41.848 2.363-22.919-1.518-46.644-11.37-66.668-1.604-3.271-3.326-6.464-5.157-9.578-.203-.36-.415-.712-.626-1.064-.329-.548-.657-1.096-.986-1.635-.728-.047-1.448-.086-2.183-.125-3.263-.141-6.549-.149-9.766-.266-7.277-.258-14.687-.548-21.878-1.596-13.318-1.933-25.729-5.963-36.245-14.25-9.617-7.574-17.019-18.06-21.104-29.703-4.805-13.701-4.687-28.71-6.174-43.1-1.127-10.97-3.677-21.972-9.39-31.166-5.305-9.406-14.069-16.675-25.681-17.051-3.295-.109-6.682.415-9.844 1.573-4.077 1.494-6.643 4.304-10.235 6.541-1.409.884-4.022 2.035-5.54.783-3.349-2.739 1.447-5.509 3.067-6.589 1.502-1.01 2.997-2.027 4.39-3.193.814-.688 1.604-1.4 2.355-2.152 4.554-1.416 8.952-4.257 11.8-7.011.07-.07-.007-.211-.11-.148-2.817 1.862-5.915 3.404-9.155 4.39-.548.172-1.111.329-1.675.469-2.05.493-4.155.767-6.26.744-4.014-.039-7.575-2.175-6.15-6.729.187-.618.469-1.205.806-1.769 1.667-1.588 3.013-3.443 4.312-5.328.024-.039.055-.063.07-.094.032-.031.047-.062.063-.094 2.856-4.131 5.532-8.302 10.861-9.883 8.404-2.473 17.183-1.017 25.141-5.501 3.373-1.909 6.119-4.57 9.014-7.089 3.983-3.459 8.404-5.978 13.404-7.575 8.819-2.817 17.113-2.019 25.713-.985 4.875 1.666 8.819 4.796 11.769 8.771-.36.172-.72.352-1.087.533-4.914 2.426-9.602 3.075-14.899 2.183-.235-.039-.298.344-.086.414 4.366 1.518 8.991 1.284 13.381-.516 1.134-.469 2.254-1.08 3.404-1.612.642-.298 1.291-.579 1.941-.79.165-.054.336-.102.501-.149.814-.219 1.643-.321 2.488-.266 3.967.305 6.729 3.936 7.097 7.614.407 4.076-1.534 7.911-4.492 10.798-.564.556-1.174 1.072-1.808 1.55-1.675 1.267-3.545 2.254-5.438 2.872-6.401 2.089-12.567.086-17.77-3.435-.258-.18-.563.18-.367.415 5.782 6.886 16.307 6.878 23.623 2.089.023 10.83-3.161 21.761-4.851 32.481-1.815 11.495-1.44 22.614 2.747 33.303 3.067 7.817 7.707 15.134 13.842 20.83 2.989 4.147 8.107 6.792 13.107 7.575 8.905 1.377 18.005-2.567 25.126-8.068 6.627-5.11 11.98-11.699 17.05-18.381 12.747-13.796 23.71-29.038 33.186-45.08 9.46-16.048 16.198-35.775 30.627-48.1 6.636-5.673 15.392-9.593 24.054-9.234 10.274.415 17.113 7.802 21.785 16.26 7.183 13.028 12.606 32.825 30.517 33.702 14.453.72 19.453-14.774 25.846-24.875 4.687-7.418 11.369-12.051 20.227-11.307 9.155.775 16.542 6.573 21.48 14.053 10.016 15.181 10.783 34.735 20.298 50.213 9.14 14.875 24.805 23.569 34.93 37.559 1.886 2.621 3.459 5.314 4.68 8.099.438 1.001.837 1.995 1.181 3.028 1.299 3.811 1.964 7.778 1.964 11.91-.003.769-.027 1.543-.073 2.342zm-1.691 85.652c-.915-14.563 4.233-28.46 7.332-42.529 2.684-12.277 3.044-24.352-1.143-36.042-.078-.212-.149-.415-.235-.618-.493-1.322-1.033-2.621-1.62-3.889.407-3.029.524-6.017.282-9.007 1.839 3.388 3.42 6.91 4.695 10.587 1.275 3.685 2.246 7.528 2.864 11.558 2.262 14.546-1.275 28.506-4.663 42.787-3.764 15.846-5.118 32.959-1.604 48.663-3.224-6.557-5.407-13.584-5.908-21.51z"/><path d="m120.414 54.318c2.074.876 3.983.305 5.971-.704 1.432-.728 2.77-1.769 4.39-2.011.83-.125 1.581-.07 2.246.134 2.848.829 4.014 4.209 2.034 6.8-.141.196-.313.383-.501.571-.32.329.016.759.407.602.101-.039.188-.078.274-.117.751-.344 1.331-.83 1.73-1.401l.008-.008c1.416-2.027.798-5.11-1.236-6.69-.274-.211-.548-.4-.821-.564-.877-.493-1.737-.697-2.567-.689-3.967.031-7.606 4.663-11.784 3.654-.276-.062-.409.314-.151.423z"/><path d="m94.748 51.486c-.242-.164-.477-.313-.728-.446-.055-.102-.125-.203-.203-.298-.133-.141-.384-.234-.587-.172-.039.008-.07.023-.11.039-3.388-1.432-7.527-.868-11.088.133-.117.039-.117.219.016.212 1.675.008 3.364-.094 5.031-.039-.954 1.205-.203 2.864.931 3.545 1.315.775 3.302.673 4.664-.086.548-.313 1.025-.814 1.299-1.377 2.081 1.721 2.465 4.272 3.271 7.113.078.282.493.336.602.016 1.12-3.296-.335-6.763-3.098-8.64zm-3.889.766c.118-.211.235-.415.344-.626.016-.024.016-.055.031-.079.032.008.063.023.102.031-.14.236-.297.471-.477.674zm1.73-.093c.008-.016.016-.039.023-.055.023.016.047.023.078.039-.039.008-.062.008-.101.016z"/><path d="m45.373 61.611c-2.699 1.331-5.399 2.911-7.981 4.547-.391.125-.766.227-1.158.352-.203.07-.196.352.015.367h.024c-.298.196-.595.376-.892.571-.321.219-.102.673.258.524.845-.352 1.666-.735 2.488-1.127 4.171-.235 12.763-1.432 11.283-4.812-.735-1.689-2.746-1.064-4.037-.422zm-2.872 3.115c.117-.063.227-.118.336-.165l.008-.008c.008.023.015.047.023.063-.125.047-.242.07-.367.11z"/></g><g opacity=".3"><path d="m287.9 181.02c.156 1.017.243 2.238.266 3.647-.219-2.293-.266-3.647-.266-3.647z"/><path d="m395.869 220.028c.399 6.252 1.354 12.434 2.817 18.459-2.488 1.432-5.078 2.746-7.786 3.928-11.056 4.852-22.622 8.341-34.469 10.18-22.552 3.513-44.892 1.322-67.232-1.315 1.706-7.324 3.255-14.648 4.938-21.972.212-.9-1.025-1.322-1.338-.415-2.512 7.324-5.188 14.508-7.262 21.949-.148.517-.289 1.033-.423 1.55-.172.642-.336 1.291-.509 1.948-1.948 7.864-3.811 15.806-5.039 23.811-2.551 16.651-3.615 33.232-1.886 49.869.9 8.631 3.545 16.722 5.399 25.102 1.917 8.639 1.815 17.028.626 25.964-1.15 8.584-2.559 17.145-1.518 25.721.9 7.363 3.271 14.343 5.705 21.205 4.695 13.17 10.227 27.81 7.066 42.028-1.385 1.228-2.786 2.394-4.233 3.466 2.464-20.987-6.088-44.626-11.167-58.351-5.219-14.085 1.041-38.076.517-52.685-.517-14.609-9.39-47.991-7.825-67.295 1.471-18.161 16.339-86.192 15.916-108.508 1.087 11.417 6.526 46.089 32.598 52.169 28.092 6.549 68.789-36.895 76.833-45.87-1.814 2.879-4.436 10.462-1.728 29.062z"/><path d="m399.006 189.369c-.063.079-.548.642-1.401 1.588.721-1.142 1.315-1.541 1.401-1.588z"/><path d="m340.468 81.94c-.298 0-.602-.008-.923-.039-23.991-2.089-29.211-19.304-40.166-36.519-5.391-8.467-11.91-11.886-19.194-11.62 3.419-1.103 6.972-1.675 10.509-1.526 10.274.415 17.113 7.802 21.785 16.26 6.83 12.395 12.073 30.909 27.989 33.444z"/><path d="m473.602 170.879c-.008.775-.031 1.55-.078 2.34v.008c-.141 2.246-.478 4.538-1.01 6.878-2.614 11.479-7.004 22.583-9.766 34.109-2.606 10.877-4.625 21.902-5.986 33.021-1.401 11.51-2.567 23.341-1.581 34.86.054.642.673.759 1.134.516-.086 3.506.008 7.019.047 10.298.016 1.08.032 2.16.071 3.248v.015c.078 3.013.219 6.033.414 9.054 0 .008.008.023.008.039v.015c.157 2.426.352 4.867.579 7.301.657 6.925 1.51 13.827 2.614 20.666 1.15 7.168 4.992 17.09-1.753 22.669-.156.133-.329.266-.509.399-.109.079-.063.313.086.251.172-.071.329-.141.485-.219.407-.188.79-.415 1.15-.657-.321.54-.657 1.08-1.01 1.619-.532.814-1.095 1.612-1.675 2.41-3.082 4.234-6.737 8.225-9.813 12.317-4.593 6.104-8.733 12.59-12.386 19.344 9.765-18.592 24.742-38.969 24.382-47.083-.501-11.385-3.654-27.121-9.914-59.47-6.26-32.341 8.349-70.941 10.438-101.2 2.082-30.26-11.479-47.474-28.17-63.124-16.698-15.649-8.873-26.605-23.474-50.08-12.254-19.688-29.266-18.827-39.978-11.573.305-.524.618-1.033.931-1.526 4.687-7.418 11.369-12.051 20.227-11.307 9.155.775 16.542 6.573 21.48 14.053 10.016 15.181 10.783 34.735 20.298 50.213 9.14 14.875 24.805 23.569 34.93 37.559 1.886 2.621 3.459 5.314 4.68 8.099.438 1.001.837 1.995 1.174 3.012 0 .008 0 .008.008.016 1.302 3.811 1.967 7.778 1.967 11.91z"/><path d="m478.226 360.368c-2.222 6.784-4.922 13.365-6.847 20.275-3.787 13.568-6.002 27.661-6.354 41.676-.227 9.421.125 19.194 1.636 28.616v.008c-2.246.743-4.523 1.377-6.855 1.847 1.909-2.379 3.247-5.329 3.928-8.31 1.369-6.033.586-12.308.266-18.491-.744-14.523 1.143-29.179 5.54-43.045 1.432-4.508 3.153-9.178 2.379-13.842-.782-4.663-5.203-9.116-9.797-7.966-1.15.289-2.129.853-2.966 1.612-.086-.775-.172-1.549-.266-2.324v-.008c4.484-6.307 7.911-13.53 5.071-21.026-.031-.07-.07-.11-.125-.133-.657-5.947-2.089-11.901-2.809-17.739-.219-1.737-.422-3.49-.595-5.235 1.307 3.201 2.864 6.292 4.703 9.187 3.06 4.828 7.129 8.529 10.681 12.903 5.305 6.533 5.071 13.904 2.41 21.995z"/><path d="m128.232 45.742c-2.395 1.181-4.742 1.948-7.129 2.316-.391-1.002-.861-1.972-1.416-2.903-3.333-5.548-9.554-8.702-16.033-9.648 4.632-.125 9.218.368 13.897.932 4.875 1.666 8.819 4.796 11.769 8.771-.361.172-.721.352-1.088.532z"/><path d="m164.633 161.371c-.204.016-.4.023-.603.032-14.062.532-26.91-9.546-33.326-22.066s-7.489-27.067-7.269-41.136c.14-9.304.79-18.655.626-27.943 4.069.125 8.271-1.072 11.745-3.349.023 10.83-3.161 21.761-4.851 32.481-1.815 11.495-1.44 22.614 2.747 33.303 3.067 7.817 7.707 15.134 13.842 20.83 2.989 4.147 8.107 6.792 13.107 7.575 1.322.203 2.652.289 3.982.273z"/><path d="m232.843 236.976c-5.712 25.205-9.022 51.309-8.334 76.661.219 7.95 1.111 15.775 1.925 23.655.931 8.944-.141 17.137-2.942 25.901-2.285 7.183-4.39 14.257-5.274 21.714-.908 7.669-.97 15.368-.923 23.021.102 14.484.587 29.508-3.279 43.851-1.948.868-3.896 1.651-5.853 2.293 7.809-16.847 7.981-36.441 7.935-55.166-.023-8.49-.548-16.378 1.792-24.539 2.402-8.373 3.67-17.019 4.116-25.713.868-17.066-1.377-34.125-4.147-50.925-2.097-12.747.563-25.893 1.987-38.781.845-7.661 1.799-15.314 2.801-22.958.125-.994.243-3.537.43-6.511 3.585 2.216 6.832 4.735 9.766 7.497z"/></g><g fill="#fff"><path d="m85.757 105.767c5.086 10.173 8.216 53.601 14.085 70.816 5.868 17.215 22.692 37.56 83.336 42.255-32.082-10.955-52.819-26.214-65.339-39.907s-20.735-66.121-32.082-73.164z" opacity=".1"/><path d="m205.088 134.72c22.301-25.431 53.601-87.64 64.947-91.16 11.346-3.521 20.345.391 24.649 8.999 4.304 8.607-14.867-.391-21.91 5.086-7.042 5.476-51.645 65.729-67.686 77.075z" opacity=".1"/><path d="m380.368 56.861c-7.825 2.739-15.259 29.344-35.995 35.604 16.824-1.956 24.649-25.431 39.516-25.04 14.868.391 20.736 10.955 20.736 10.955s-7.434-23.866-24.257-21.519z" opacity=".1"/><path d="m309.16 132.764c-14.522 5.647-18.78 54.383-2.348 73.163 16.433 18.78 80.597-17.215 91.552-37.951 10.956-20.736-53.991-48.906-89.204-35.212z" opacity=".1"/><path d="m417.536 178.54c-9.09 3.857-21.127 45.776 1.565 76.685 22.693 30.908 11.346-82.163-1.565-76.685z" opacity=".1"/><path d="m34.895 72.12c-3.74-8.631 18.78-12.911 31.3-14.476 0 0-26.214 26.213-31.3 14.476z" opacity=".1"/></g></g></svg>