<svg id="Capa_1" enable-background="new 0 0 497 497" height="512" viewBox="0 0 497 497" width="512" xmlns="http://www.w3.org/2000/svg"><g><path d="m490.362 122.26c2.008-1.937.861-5.338-1.91-5.662l-66.225-7.758-22.639 98.753-1.335 107.537 66.035 7.736c2.771.325 4.674-2.719 3.167-5.068l-18.927-29.518c-.851-1.327-.647-3.069.488-4.163l28.314-27.312c1.134-1.094 1.338-2.837.488-4.164l-21.234-33.117c-.851-1.327-.646-3.069.488-4.163l28.314-27.312c1.134-1.094 1.338-2.837.488-4.164l-21.235-33.117c-.851-1.327-.647-3.069.488-4.163z" fill="#fe646f"/><path d="m140.38 75.821c-2.771-.325-4.674 2.718-3.167 5.067l18.927 29.518c.851 1.327.647 3.069-.488 4.163l-28.314 27.312c-1.134 1.094-1.339 2.837-.488 4.163l21.234 33.117c.851 1.327.646 3.069-.488 4.163l-31.905 22.938c-1.134 1.094 2.253 7.211 3.104 8.538l21.234 33.117c.851 1.327.646 3.069-.488 4.163l-25.237 24.345c-2.008 1.937-.861 5.338 1.91 5.662l67.055 7.855 19.529-90.601 4.445-115.689z" fill="#fe646f"/><path d="m198.909 91.166h207.678v216.452h-207.678z" fill="#fd8087" transform="matrix(.115 -.993 .993 .115 69.741 477.098)"/><g><g><ellipse cx="302.334" cy="199.343" fill="#fe646f" rx="70.727" ry="70.727" transform="matrix(.707 -.707 .707 .707 -52.405 272.168)"/></g></g><g><g fill="#fe646f"><path d="m207.244 83.654-4.928-.578z"/><path d="m183.387 80.859 18.929 2.217z"/><path d="m276.491 122.556c-7.489-15.25-19.204-27.03-33.03-34.659l-36.217-4.243-17.713 152.417c16.527 3.246 34.206 1.328 50.492-6.67 39.575-19.434 55.902-67.271 36.468-106.845z"/></g><path d="m202.316 83.076-18.929-2.217c-4.65 1.303-9.249 3.024-13.74 5.229-7.583 3.724-14.304 8.497-20.092 14.049l6.585 10.269c.851 1.327.647 3.069-.488 4.163l-28.314 27.312c-1.134 1.094-1.339 2.837-.488 4.163l21.234 33.117c.851 1.327.646 3.069-.488 4.163l-12.923 12.466c11.733 21.669 32.212 35.831 54.858 40.279l17.713-152.417z" fill="#fd4755"/></g><g><g><path d="m232.087 191.114c-1.623 13.855.892 27.234 6.542 38.929.464-.217.932-.415 1.395-.642 36.44-17.895 53.144-59.867 40.393-97.301-25.416 8.302-45.015 30.715-48.33 59.014z" fill="#fd4755"/></g></g><g><g><path d="m358.364 156.208c-11.226-14.579-28.083-24.802-47.801-27.112-19.972-2.34-38.961 3.899-53.318 15.781 19.093 20.467 51.887 31.367 101.119 11.331z" fill="#fd4755"/></g></g><g><g><g><g><path d="m303.867 6.367c-.006 5.649 1.073 12.969 4.998 20.963 8.665 17.644 32.646 1.928 45.761 27.033 11.848 25.727-15.251 35.095-6.586 52.74 3.926 7.994 9.059 13.324 13.533 16.772 3.84 2.96 3.082 8.985-1.389 10.859-62.307 26.109-98.659 3.052-114.471-26.886-14.022-30.817-10.043-73.68 48.713-107.021 4.216-2.392 9.446.692 9.441 5.54z" fill="#ffd15b"/></g></g><path d="m298.243 101.816c-1.577-3.83-5.96-5.657-9.791-4.079-.158.066-14.054 5.508-27.179 2.43 5.571-12.277 18.299-19.871 18.56-20.024 3.577-2.071 4.806-6.648 2.742-10.232-2.066-3.59-6.651-4.825-10.242-2.758-.935.539-22.854 13.39-27.69 35.732-.009.033-.015.066-.023.099-.02.091-.044.179-.063.27-.011.052-.014.103-.024.155-.028.151-.051.302-.07.453-.012.102-.023.203-.031.304-.011.139-.019.278-.022.417-.003.116-.004.232-.001.347.003.121.009.241.017.361.009.13.02.259.036.388.013.105.029.21.047.315.023.137.048.273.078.408.022.099.048.197.074.295.036.134.073.267.116.398.033.101.069.2.106.299.046.122.093.243.145.363.047.108.098.213.15.319.052.105.104.21.16.312.063.114.13.226.199.337.056.09.112.179.171.267.078.114.16.226.244.336.061.08.123.16.188.238.089.106.181.21.276.312.072.078.145.154.22.229.093.092.189.18.287.267.09.08.181.158.274.233.09.072.182.142.276.211.112.082.227.162.344.238.085.055.171.109.259.161.131.078.265.152.402.222.047.024.089.052.137.075.062.031.126.054.189.084.07.031.139.064.209.093 6.974 3.312 14.278 4.433 20.933 4.433 13.027 0 23.56-4.245 24.22-4.517 3.828-1.577 5.655-5.961 4.077-9.791z" fill="#feb237"/></g><g><g><g><path d="m8.097 151.613c4.474 3.449 9.607 8.778 13.533 16.772 8.665 17.644-18.434 27.013-6.586 52.74 13.115 25.105 37.096 9.389 45.761 27.033 3.926 7.994 5.004 15.315 4.998 20.963-.005 4.848 5.226 7.932 9.442 5.54 58.755-33.341 62.735-76.205 48.713-107.021-15.813-29.938-52.164-52.995-114.471-26.886-4.472 1.874-5.229 7.899-1.39 10.859z" fill="#ffd15b"/></g></g><path d="m126.177 172.089c.01-.051.014-.102.024-.153.028-.152.052-.304.071-.456.012-.101.023-.201.031-.302.011-.14.019-.279.022-.418.003-.116.004-.232.002-.347-.003-.12-.009-.24-.017-.36-.009-.131-.02-.261-.036-.39-.013-.104-.029-.208-.046-.312-.023-.139-.048-.276-.078-.412-.022-.097-.047-.193-.073-.29-.036-.136-.074-.27-.118-.404-.032-.099-.068-.196-.104-.293-.047-.124-.094-.248-.147-.37-.046-.105-.096-.209-.146-.312-.053-.108-.107-.215-.165-.32-.061-.112-.127-.221-.194-.329-.057-.093-.115-.185-.177-.275-.076-.112-.157-.22-.239-.328-.063-.083-.127-.165-.194-.246-.087-.104-.177-.205-.27-.304-.075-.08-.149-.159-.227-.236-.09-.089-.183-.175-.279-.259-.092-.082-.186-.163-.283-.241-.087-.07-.176-.138-.267-.204-.115-.085-.232-.166-.353-.244-.082-.053-.166-.105-.251-.156-.134-.079-.27-.155-.41-.226-.045-.023-.087-.051-.133-.073-.081-.04-.163-.073-.245-.112-.035-.015-.069-.032-.104-.047-20.639-9.831-44.204-.345-45.201.066-3.83 1.577-5.657 5.961-4.079 9.791 1.192 2.896 3.988 4.646 6.938 4.646.951 0 1.919-.182 2.853-.567.16-.065 14.054-5.509 27.179-2.429-5.57 12.275-18.297 19.869-18.559 20.024-3.577 2.071-4.806 6.648-2.742 10.232 1.388 2.411 3.911 3.76 6.507 3.76 1.27 0 2.556-.323 3.735-1.001.935-.539 22.853-13.39 27.689-35.731.009-.034.016-.069.024-.103.019-.092.043-.179.062-.269z" fill="#feb237"/></g></g><g><g><g><circle cx="184.835" cy="137.744" fill="#ffe177" r="79.83"/></g></g><g><g><path d="m158.388 163.726c-.804 0-1.621-.13-2.424-.404-3.92-1.338-6.013-5.601-4.675-9.52l25.827-75.671c1.338-3.921 5.605-6.012 9.521-4.676 3.92 1.338 6.013 5.601 4.675 9.521l-25.827 75.671c-1.064 3.117-3.978 5.079-7.097 5.079z" fill="#faf7f7"/></g></g><g><g><path d="m184.341 199.343c-.804 0-1.621-.13-2.424-.404-3.92-1.338-6.013-5.6-4.675-9.521l25.827-75.67c1.338-3.921 5.603-6.012 9.52-4.676 3.92 1.338 6.013 5.601 4.675 9.521l-25.827 75.67c-1.063 3.118-3.977 5.08-7.096 5.08z" fill="#faf7f7"/></g></g></g><g><g><g><g><path d="m400.275 271.471c-.875 5.086-1.03 11.845 1.275 19.649 5.088 17.224 29.104 6.761 37.051 31.389 6.711 24.993-19.136 29.259-14.048 46.483 2.305 7.804 6.108 13.393 9.606 17.188 3.002 3.257 1.393 8.566-2.923 9.566-60.132 13.924-89.321-12.436-98.954-41.831-7.885-29.911 2.295-67.901 60.341-88.885 4.166-1.507 8.402 2.076 7.652 6.441z" fill="#62dbfb"/></g></g><g><g><path d="m363.75 344.677c-6.6-25.035-.536-55.727 35.648-77.374-1.391-2.099-4.094-3.244-6.775-2.274-58.046 20.984-68.227 58.974-60.342 88.885 9.633 29.395 38.823 55.755 98.954 41.831 2.738-.634 4.381-3.004 4.454-5.483-42.118 1.478-63.878-20.988-71.939-45.585z" fill="#01d0fb"/></g></g><g><g><path d="m48.103 375.499c3.498 3.794 7.301 9.384 9.606 17.188 5.088 17.224-20.759 21.49-14.049 46.483 7.947 24.628 31.964 14.165 37.051 31.389 2.305 7.804 2.15 14.562 1.275 19.649-.751 4.365 3.485 7.948 7.651 6.442 58.046-20.984 68.227-58.974 60.341-88.886-9.633-29.395-38.822-55.755-98.954-41.831-4.314 1-5.924 6.31-2.921 9.566z" fill="#62dbfb"/></g></g><g fill="#01c0fa"><path d="m386.379 353.642c-1.001-4.009-5.067-6.449-9.081-5.462-.145.037-12.958 3.086-23.99-1.706 6.19-10.357 18.657-14.01 18.865-14.07 3.977-1.1 6.321-5.21 5.237-9.196-1.086-3.997-5.205-6.356-9.205-5.27-.922.251-22.685 6.375-30.614 26.624-.398 1.016-.553 2.066-.504 3.09-.953 3.008.069 6.413 2.771 8.355 9.13 6.561 19.705 8.159 27.847 8.159 7.406 0 12.801-1.323 13.257-1.439 4.003-1.017 6.418-5.077 5.417-9.085z"/><path d="m144.58 411.521c.278-2.596-.805-5.263-3.076-6.895-17.284-12.418-39.549-7.936-40.487-7.739-4.044.847-6.627 4.803-5.794 8.85s4.795 6.657 8.845 5.836c.144-.029 12.723-2.47 23.787 2.449-6.339 9.695-18.112 13.187-18.368 13.261-3.976 1.107-6.312 5.223-5.221 9.207.913 3.332 3.934 5.52 7.229 5.52.655 0 1.323-.087 1.986-.269.923-.253 22.702-6.43 30.629-26.67.459-1.169.599-2.382.47-3.55z"/></g></g><g><g><path d="m144.728 434.444-17.739-60.053c-2.117-7.166 1.976-14.691 9.142-16.808l44.668-13.194 16.455 5.139 18.242-15.389 48.133-14.218 18.879 4.423 15.818-14.673 9.132-2.698 31.26 83.288z" fill="#c8effe"/></g></g><g><g><path d="m355.196 387.029-21.748-73.624c-2.117-7.166-9.642-11.259-16.808-9.142l-9.184 2.713 17.739 60.053c2.117 7.166-1.976 14.691-9.142 16.808l-171.326 50.608 4.009 13.571c2.117 7.166 9.642 11.259 16.808 9.142l18.316-5.41 16.94-15.004 17.756 4.755 48.133-14.218 17.994-15.315 16.703 5.066 44.668-13.194c7.166-2.118 11.259-9.644 9.142-16.809z" fill="#99e6fc"/></g></g><g><g><g><path d="m183.86 451.747-3.061-107.358 34.697-10.249 3.061 107.358" fill="#faf7f7"/></g></g><g><g><path d="m266.689 427.28-3.061-107.358 34.697-10.249 3.061 107.358" fill="#faf7f7"/></g></g><g><g><path d="m217.741 412.877-34.697 10.249.816 28.621 33.324-9.844 1.373-.405z" fill="#f3eae6"/></g></g><g><g><path d="m266.689 427.28 34.697-10.249-.816-28.621-34.697 10.249z" fill="#f3eae6"/></g></g></g></g></g></svg>