<svg id="Icons" height="512" viewBox="0 0 60 60" width="512" xmlns="http://www.w3.org/2000/svg"><path d="m16.84 42.1a.987.987 0 0 1 -.332-.057 1 1 0 0 1 -.612-1.275l4.411-12.537a1 1 0 0 1 1.887.665l-4.411 12.536a1 1 0 0 1 -.943.668z" fill="#603e26"/><path d="m56.378 31.055a2.136 2.136 0 0 0 1.452-1.321 13 13 0 0 0 1.17-5.734 25.17 25.17 0 0 0 -2.75-10.762 1 1 0 0 0 -1.8.02c-.896 2.051-3.25 4.742-9.45 4.742h-30c-6.2 0-8.554-2.693-9.45-4.74a1 1 0 0 0 -1.8-.02 25.17 25.17 0 0 0 -2.75 10.76 13 13 0 0 0 1.17 5.73 3.322 3.322 0 0 0 .941 1.321z" fill="#a56a43"/><path d="m53.2 33a3.66 3.66 0 0 1 -2.652-1.133 1.708 1.708 0 0 0 -2.429 0 3.758 3.758 0 0 1 -5.3 0 1.672 1.672 0 0 0 -2.429 0 3.757 3.757 0 0 1 -5.3 0 1.707 1.707 0 0 0 -2.428 0 3.664 3.664 0 0 1 -2.662 1.133 3.66 3.66 0 0 1 -2.652-1.133 1.708 1.708 0 0 0 -2.429 0 3.664 3.664 0 0 1 -2.653 1.133 3.662 3.662 0 0 1 -2.652-1.133 1.707 1.707 0 0 0 -2.428 0 3.758 3.758 0 0 1 -5.3 0 1.708 1.708 0 0 0 -2.429 0 3.757 3.757 0 0 1 -5.3 0 1.708 1.708 0 0 0 -2.429 0 1 1 0 1 1 -1.447-1.387 3.759 3.759 0 0 1 5.3 0 1.708 1.708 0 0 0 2.43 0 3.759 3.759 0 0 1 5.3 0 1.707 1.707 0 0 0 2.429 0 3.759 3.759 0 0 1 5.3 0 1.669 1.669 0 0 0 2.429 0 3.76 3.76 0 0 1 5.305 0 1.707 1.707 0 0 0 2.428 0 3.667 3.667 0 0 1 2.653-1.132 3.665 3.665 0 0 1 2.652 1.132 1.707 1.707 0 0 0 2.428 0 3.667 3.667 0 0 1 2.665-1.132 3.663 3.663 0 0 1 2.652 1.132 1.707 1.707 0 0 0 2.429 0 3.759 3.759 0 0 1 5.3 0 1.708 1.708 0 0 0 2.43 0 3.759 3.759 0 0 1 5.3 0 1 1 0 1 1 -1.438 1.391 1.708 1.708 0 0 0 -2.429 0 3.66 3.66 0 0 1 -2.644 1.129z" fill="#2fa8cc"/><path d="m48.467 56.188a4 4 0 0 1 -5.1-2.445l-2.8-7.953a7.975 7.975 0 0 1 -.3-1.094l-1.1-5.527a1 1 0 0 1 .649-1.138l4.023-1.416a1 1 0 0 1 1.219.481l2.6 5a7.922 7.922 0 0 1 .451 1.041l2.8 7.953a4 4 0 0 1 -2.442 5.098z" fill="#cf976a"/><path d="m24.188 21.22a1.023 1.023 0 0 1 -.333-.057 1 1 0 0 1 -.61-1.275l1.952-5.54a1 1 0 1 1 1.887.664l-1.953 5.54a1 1 0 0 1 -.943.668z" fill="#603e26"/><path d="m11.533 56.188a4 4 0 0 0 5.1-2.445l2.8-7.953a7.975 7.975 0 0 0 .3-1.094l1.1-5.527a1 1 0 0 0 -.649-1.138l-4.023-1.416a1 1 0 0 0 -1.219.481l-2.6 5a7.922 7.922 0 0 0 -.451 1.041l-2.8 7.953a4 4 0 0 0 2.442 5.098z" fill="#cf976a"/><path d="m57.44 15.99c-.47 1.93-2.46 6.01-10.89 6.01h-33.1c-8.43 0-10.42-4.08-10.89-6.01a27.053 27.053 0 0 1 1.19-2.748 1 1 0 0 1 1.8.02c.89 2.05 3.25 4.738 9.45 4.738h30c6.2 0 8.56-2.69 9.45-4.74a1 1 0 0 1 1.8-.02 27.053 27.053 0 0 1 1.19 2.75z" fill="#cf976a"/><path d="m43.155 42.1a1 1 0 0 1 -.943-.668l-9.3-26.412a1 1 0 1 1 1.887-.664l9.3 26.412a1 1 0 0 1 -.612 1.275 1.012 1.012 0 0 1 -.332.057z" fill="#603e26"/></svg>