<svg id="Capa_1" enable-background="new 0 0 512 512" height="512" viewBox="0 0 512 512" width="512" xmlns="http://www.w3.org/2000/svg" xmlns:xlink="http://www.w3.org/1999/xlink"><linearGradient id="lg1"><stop offset="0" stop-color="#78a91f"/><stop offset=".1553" stop-color="#6da423"/><stop offset=".428" stop-color="#50992e"/><stop offset=".7835" stop-color="#218741"/><stop offset="1" stop-color="#017b4e"/></linearGradient><linearGradient id="SVGID_1_" gradientTransform="matrix(.622 .783 -.783 .622 92.059 294.505)" gradientUnits="userSpaceOnUse" x1="147.261" x2="215.645" xlink:href="#lg1" y1="-270.752" y2="-196.841"/><linearGradient id="lg2"><stop offset="0" stop-color="#017b4e" stop-opacity="0"/><stop offset=".473" stop-color="#01774b" stop-opacity=".473"/><stop offset=".8807" stop-color="#016d44" stop-opacity=".881"/><stop offset="1" stop-color="#026841"/></linearGradient><linearGradient id="SVGID_00000152263917015809742380000006846613777062847413_" gradientTransform="matrix(.622 .783 -.783 .622 92.059 294.505)" gradientUnits="userSpaceOnUse" x1="130.48" x2="190.23" xlink:href="#lg2" y1="-260.445" y2="-220.381"/><linearGradient id="SVGID_00000073700584939524933930000018371889500944420024_" gradientTransform="matrix(.622 .783 -.783 .622 92.059 294.505)" gradientUnits="userSpaceOnUse" x1="204.133" x2="144.729" xlink:href="#lg2" y1="-214.315" y2="-264.51"/><linearGradient id="SVGID_00000008855181446581724250000003171131776604836487_" gradientTransform="matrix(.622 .783 -.783 .622 92.059 294.505)" gradientUnits="userSpaceOnUse" x1="180.699" x2="156.868" xlink:href="#lg2" y1="-210.842" y2="-252.288"/><linearGradient id="SVGID_00000115483359036682171000000014548418549606117254_" gradientTransform="matrix(.622 .783 -.783 .622 92.059 294.505)" gradientUnits="userSpaceOnUse" x1="163.188" x2="143.318" xlink:href="#lg2" y1="-196.404" y2="-230.961"/><linearGradient id="SVGID_00000050647206481561649100000008038750646317956493_" gradientTransform="matrix(.622 .783 -.783 .622 92.059 294.505)" gradientUnits="userSpaceOnUse" x1="113.05" x2="166.583" xlink:href="#lg2" y1="-241.479" y2="-217.303"/><linearGradient id="SVGID_00000039101491739600611290000008188392400173485217_" gradientTransform="matrix(-.783 -.622 -.622 .783 -199.115 3.331)" gradientUnits="userSpaceOnUse" x1="-521.227" x2="-464.568" xlink:href="#lg1" y1="-172.36" y2="-111.122"/><linearGradient id="SVGID_00000070829702323690252800000002020185088926551980_" gradientUnits="userSpaceOnUse" x1="379.114" x2="262.56" xlink:href="#lg2" y1="257.595" y2="182.743"/><linearGradient id="SVGID_00000160893660371595591510000017464672364111502244_" gradientTransform="matrix(-.783 -.622 -.622 .783 -199.115 3.331)" gradientUnits="userSpaceOnUse" x1="-535.131" x2="-485.626" xlink:href="#lg2" y1="-163.82" y2="-130.625"/><linearGradient id="SVGID_00000048478378443297027960000008516554558539644335_" gradientTransform="matrix(-.783 -.622 -.622 .783 -199.115 3.331)" gradientUnits="userSpaceOnUse" x1="-474.106" x2="-523.325" xlink:href="#lg2" y1="-125.599" y2="-167.188"/><linearGradient id="SVGID_00000036953728491403458930000007065414549490062728_" gradientTransform="matrix(-.783 -.622 -.622 .783 -199.115 3.331)" gradientUnits="userSpaceOnUse" x1="-493.522" x2="-513.267" xlink:href="#lg2" y1="-122.722" y2="-157.061"/><linearGradient id="SVGID_00000158716239931741083590000016203493868658585738_" gradientTransform="matrix(-.783 -.622 -.622 .783 -199.115 3.331)" gradientUnits="userSpaceOnUse" x1="-508.031" x2="-524.494" xlink:href="#lg2" y1="-110.76" y2="-139.391"/><linearGradient id="SVGID_00000138553116137754656500000006643657018661019831_" gradientTransform="matrix(-.783 -.622 -.622 .783 -199.115 3.331)" gradientUnits="userSpaceOnUse" x1="-549.572" x2="-505.218" xlink:href="#lg2" y1="-148.106" y2="-128.075"/><linearGradient id="lg3"><stop offset="0" stop-color="#d1f19e"/><stop offset="1" stop-color="#78a91f"/></linearGradient><linearGradient id="SVGID_00000110446539010015756940000010358663794544356027_" gradientTransform="matrix(.707 .707 -.707 .707 98.918 269.619)" gradientUnits="userSpaceOnUse" x1="87.994" x2="221.999" xlink:href="#lg3" y1="-263.964" y2="-226.664"/><linearGradient id="lg4"><stop offset="0" stop-color="#026841" stop-opacity="0"/><stop offset=".3243" stop-color="#046842" stop-opacity=".324"/><stop offset=".5509" stop-color="#0e6546" stop-opacity=".551"/><stop offset=".7476" stop-color="#1d614c" stop-opacity=".748"/><stop offset=".9263" stop-color="#335c54" stop-opacity=".926"/><stop offset="1" stop-color="#3e5959"/></linearGradient><linearGradient id="SVGID_00000019655471904893085690000012057725504248073386_" gradientTransform="matrix(.707 .707 -.707 .707 98.918 269.619)" gradientUnits="userSpaceOnUse" x1="179.258" x2="112.6" xlink:href="#lg4" y1="-252.365" y2="-246.494"/><linearGradient id="SVGID_00000109014230741052926280000009849062953170516621_" gradientTransform="matrix(.707 .707 -.707 .707 98.918 269.619)" gradientUnits="userSpaceOnUse" x1="174.976" x2="108.664" xlink:href="#lg4" y1="-228.016" y2="-241.831"/><linearGradient id="SVGID_00000061449880600265995040000010144300581886073994_" gradientTransform="matrix(.707 .707 -.707 .707 98.918 269.619)" gradientUnits="userSpaceOnUse" x1="194.941" x2="131.392" xlink:href="#lg4" y1="-191.727" y2="-216.248"/><linearGradient id="SVGID_00000050622295941024047790000007617488908627627708_" gradientTransform="matrix(.707 .707 -.707 .707 98.918 269.619)" gradientUnits="userSpaceOnUse" x1="140.691" x2="140.691" xlink:href="#lg4" y1="-184.627" y2="-160.794"/><linearGradient id="SVGID_00000047033444852801051360000008988973119478657935_" gradientTransform="matrix(-.707 -.707 -.707 .707 -237.043 -66.342)" gradientUnits="userSpaceOnUse" x1="-581.526" x2="-647.839" xlink:href="#lg4" y1="-228.016" y2="-241.831"/><linearGradient id="SVGID_00000057147434714931136370000013358458944005324698_" gradientTransform="matrix(-.707 -.707 -.707 .707 -237.043 -66.342)" gradientUnits="userSpaceOnUse" x1="-575.279" x2="-638.828" xlink:href="#lg4" y1="-197.02" y2="-221.542"/><linearGradient id="lg5"><stop offset="0" stop-color="#fe9738"/><stop offset="1" stop-color="#ef4424"/></linearGradient><linearGradient id="SVGID_00000036237996237339066400000017083397394015878070_" gradientTransform="matrix(.707 .707 -.516 .516 44.774 323.764)" gradientUnits="userSpaceOnUse" x1="112.433" x2="207.421" xlink:href="#lg5" y1="-82.694" y2="-82.694"/><linearGradient id="lg6"><stop offset="0" stop-color="#fd5426" stop-opacity="0"/><stop offset=".309" stop-color="#f85126" stop-opacity=".309"/><stop offset=".6816" stop-color="#ea4825" stop-opacity=".682"/><stop offset="1" stop-color="#d73d24"/></linearGradient><linearGradient id="SVGID_00000062167518334172441230000014994830448532655252_" gradientTransform="matrix(.707 .707 -.707 .707 98.918 269.619)" gradientUnits="userSpaceOnUse" x1="162.714" x2="215.672" xlink:href="#lg6" y1="-8.018" y2="9.942"/><linearGradient id="SVGID_00000031894695584938827960000010905885922341582271_" gradientTransform="matrix(.707 .707 -.707 .707 98.918 269.619)" gradientUnits="userSpaceOnUse" x1="125.206" x2="161.585" xlink:href="#lg6" y1="132.039" y2="172.563"/><linearGradient id="SVGID_00000092441242391516662010000011005821694605098413_" gradientTransform="matrix(.707 .707 -.707 .707 98.918 269.619)" gradientUnits="userSpaceOnUse" x1="124.066" x2="107.949" xlink:href="#lg6" y1="21.27" y2="102.318"/><linearGradient id="SVGID_00000071536319668760210040000001480853410488408252_" gradientTransform="matrix(.707 .707 -.707 .707 98.918 269.619)" gradientUnits="userSpaceOnUse" x1="152.687" x2="184.462" xlink:href="#lg6" y1="-36.849" y2="18.871"/><linearGradient id="SVGID_00000155857340699075475270000000064933481230777530_" gradientTransform="matrix(.707 .707 -.707 .707 98.918 269.619)" gradientUnits="userSpaceOnUse" x1="142.006" x2="135.559" xlink:href="#lg6" y1="-74.532" y2="-15.127"/><linearGradient id="SVGID_00000181776828491466566900000010820439874513337997_" gradientTransform="matrix(.707 .707 -.707 .707 98.918 269.619)" gradientUnits="userSpaceOnUse" x1="132.321" x2="147.057" xlink:href="#lg6" y1="-135.038" y2="-94.054"/><linearGradient id="SVGID_00000142169069459434707890000008039014033003297711_" gradientUnits="userSpaceOnUse" x1="244.178" x2="163.624" xlink:href="#lg6" y1="369.048" y2="356.93"/><linearGradient id="SVGID_00000179619045923739672190000005052286543292008581_" gradientTransform="matrix(.962 .274 -.274 .962 47.814 -11.415)" gradientUnits="userSpaceOnUse" x1="197.453" x2="260.433" xlink:href="#lg1" y1="94.845" y2="162.915"/><linearGradient id="SVGID_00000048487570008195219620000006960310233770030210_" gradientTransform="matrix(.962 .274 -.274 .962 47.814 -11.415)" gradientUnits="userSpaceOnUse" x1="181.998" x2="237.026" xlink:href="#lg2" y1="104.338" y2="141.235"/><linearGradient id="SVGID_00000148649653774134981290000003425390122972552104_" gradientTransform="matrix(.962 .274 -.274 .962 47.814 -11.415)" gradientUnits="userSpaceOnUse" x1="249.831" x2="195.121" xlink:href="#lg2" y1="146.822" y2="100.594"/><linearGradient id="SVGID_00000120534765295058908870000014655206569260527510_" gradientTransform="matrix(.962 .274 -.274 .962 47.814 -11.415)" gradientUnits="userSpaceOnUse" x1="228.249" x2="206.301" xlink:href="#lg2" y1="150.02" y2="111.85"/><linearGradient id="SVGID_00000157995405801496292730000007241249607144969388_" gradientTransform="matrix(.962 .274 -.274 .962 47.814 -11.415)" gradientUnits="userSpaceOnUse" x1="212.122" x2="193.822" xlink:href="#lg2" y1="163.317" y2="131.492"/><linearGradient id="SVGID_00000060741517406667278590000004853537497242337944_" gradientTransform="matrix(.962 .274 -.274 .962 47.814 -11.415)" gradientUnits="userSpaceOnUse" x1="165.946" x2="215.249" xlink:href="#lg2" y1="121.805" y2="144.07"/><linearGradient id="SVGID_00000160904887047016050060000013096510900085730485_" gradientTransform="matrix(-.999 -.05 -.05 .999 -358.477 -78.438)" gradientUnits="userSpaceOnUse" x1="-490.106" x2="-427.125" xlink:href="#lg1" y1="173.52" y2="241.59"/><linearGradient id="SVGID_00000065070881698770198460000010511882231213799061_" gradientTransform="matrix(-.999 -.05 -.05 .999 -358.477 -78.438)" gradientUnits="userSpaceOnUse" x1="-505.561" x2="-450.532" xlink:href="#lg2" y1="183.013" y2="219.91"/><linearGradient id="SVGID_00000174593988683517119790000000368731955290694073_" gradientTransform="matrix(-.999 -.05 -.05 .999 -358.477 -78.438)" gradientUnits="userSpaceOnUse" x1="-437.727" x2="-492.438" xlink:href="#lg2" y1="225.497" y2="179.269"/><linearGradient id="SVGID_00000036935325842754620800000014219181088134046339_" gradientTransform="matrix(-.999 -.05 -.05 .999 -358.477 -78.438)" gradientUnits="userSpaceOnUse" x1="-459.31" x2="-481.258" xlink:href="#lg2" y1="228.695" y2="190.525"/><linearGradient id="SVGID_00000170956731787257154950000001451901846763756700_" gradientTransform="matrix(-.999 -.05 -.05 .999 -358.477 -78.438)" gradientUnits="userSpaceOnUse" x1="-475.437" x2="-493.737" xlink:href="#lg2" y1="241.992" y2="210.166"/><linearGradient id="SVGID_00000017478609844230030630000010907613852437375164_" gradientTransform="matrix(-.999 -.05 -.05 .999 -358.477 -78.438)" gradientUnits="userSpaceOnUse" x1="-521.613" x2="-472.31" xlink:href="#lg2" y1="200.479" y2="222.745"/><linearGradient id="SVGID_00000176019783257770225700000004301431743671927180_" gradientTransform="matrix(.987 .163 -.163 .987 38.89 -35.638)" gradientUnits="userSpaceOnUse" x1="104.346" x2="227.762" xlink:href="#lg3" y1="107.668" y2="142.02"/><linearGradient id="SVGID_00000070812361387769210060000013251266089268249259_" gradientTransform="matrix(.987 .163 -.163 .987 38.89 -35.638)" gradientUnits="userSpaceOnUse" x1="188.398" x2="127.008" xlink:href="#lg4" y1="118.35" y2="123.757"/><linearGradient id="SVGID_00000005269032052076218500000005127212578396662974_" gradientTransform="matrix(.987 .163 -.163 .987 38.89 -35.638)" gradientUnits="userSpaceOnUse" x1="184.455" x2="123.383" xlink:href="#lg4" y1="140.775" y2="128.052"/><linearGradient id="SVGID_00000026881336684965241380000009430946284226200461_" gradientTransform="matrix(.987 .163 -.163 .987 38.89 -35.638)" gradientUnits="userSpaceOnUse" x1="202.842" x2="144.315" xlink:href="#lg4" y1="174.197" y2="151.613"/><linearGradient id="SVGID_00000163761561651973577790000001416642157817213074_" gradientTransform="matrix(.987 .163 -.163 .987 38.89 -35.638)" gradientUnits="userSpaceOnUse" x1="152.879" x2="152.879" xlink:href="#lg4" y1="180.735" y2="202.685"/><linearGradient id="SVGID_00000114779517856470734930000010170752245995431574_" gradientTransform="matrix(-.987 -.163 -.163 .987 -429.895 -112.97)" gradientUnits="userSpaceOnUse" x1="-596.423" x2="-657.495" xlink:href="#lg4" y1="140.775" y2="128.052"/><linearGradient id="SVGID_00000158723322274228253090000010656195106827138495_" gradientTransform="matrix(-.987 -.163 -.163 .987 -429.895 -112.97)" gradientUnits="userSpaceOnUse" x1="-590.669" x2="-649.197" xlink:href="#lg4" y1="169.322" y2="146.738"/><linearGradient id="SVGID_00000032647595154182417130000003345845405884871586_" gradientTransform="matrix(.987 .163 -.119 .72 26.428 39.913)" gradientUnits="userSpaceOnUse" x1="126.854" x2="214.335" xlink:href="#lg5" y1="396.494" y2="396.494"/><linearGradient id="SVGID_00000103985028545716671650000013440363207704601985_" gradientTransform="matrix(.987 .163 -.163 .987 38.89 -35.638)" gradientUnits="userSpaceOnUse" x1="173.162" x2="221.934" xlink:href="#lg6" y1="343.388" y2="359.928"/><linearGradient id="SVGID_00000147184452281458400690000009522778815771874995_" gradientTransform="matrix(.987 .163 -.163 .987 38.89 -35.638)" gradientUnits="userSpaceOnUse" x1="138.617" x2="172.122" xlink:href="#lg6" y1="472.377" y2="509.698"/><linearGradient id="SVGID_00000095307339337994789830000011799258482967770805_" gradientTransform="matrix(.987 .163 -.163 .987 38.89 -35.638)" gradientUnits="userSpaceOnUse" x1="137.568" x2="122.724" xlink:href="#lg6" y1="370.361" y2="445.005"/><linearGradient id="SVGID_00000107573679587229808420000000127337418521179015_" gradientTransform="matrix(.987 .163 -.163 .987 38.89 -35.638)" gradientUnits="userSpaceOnUse" x1="163.927" x2="193.19" xlink:href="#lg6" y1="316.835" y2="368.152"/><linearGradient id="SVGID_00000167386194625240101500000007669140388423371183_" gradientTransform="matrix(.987 .163 -.163 .987 38.89 -35.638)" gradientUnits="userSpaceOnUse" x1="154.09" x2="148.152" xlink:href="#lg6" y1="282.13" y2="336.84"/><linearGradient id="SVGID_00000162348917884903186660000012381989765176553362_" gradientTransform="matrix(.987 .163 -.163 .987 38.89 -35.638)" gradientUnits="userSpaceOnUse" x1="145.17" x2="158.741" xlink:href="#lg6" y1="226.405" y2="264.151"/><g><g><g><path d="m458.66 329.303c-2.757-8.953-7.743-18.062-14.729-26.436 11.666 7.854 23.431 14.564 27.746 16.375 10.023 4.207 21.559-.509 25.766-10.532s-.509-21.559-10.532-25.766c-4.603-1.932-19.12-6.008-33.882-8.882 9.374-3.895 17.482-9.175 23.808-15.28 13.542-13.069-.347-28.675-21.094-23.775l-.609.144c-5.491 1.297-10.489 3.949-13.902 7.487-5.98 6.2-13.765 11.628-22.841 15.746 7.057-4.675 12.899-10.382 17.22-16.63 9.88-14.285-5.179-28.066-22.884-21l-.519.207c-4.686 1.87-8.701 5.014-11.149 8.854-6.711 10.526-17.673 19.7-31.533 25.231-.033.013-.065.026-.098.039-5.262 2.091-10.913 2.996-16.575 2.956-27.02-.193-52.922 4.008-71.589 13.928-3.359 1.785-4.956 5.876-3.462 9.375.674 1.579 1.817 2.784 3.185 3.54 2.092 1.156 4.71 1.262 6.975.05 13.75-7.354 34.081-11.569 57.576-12.143 6.649-.162 13.078 2.692 17.302 7.83.024.029.048.058.071.087 9.46 11.542 14.621 24.871 15.408 37.329.287 4.544 2.282 9.237 5.48 13.14l.354.432c12.083 14.743 31.928 9.958 30.184-7.323-.763-7.558-3.118-15.378-7.036-22.882 5.955 7.991 10.146 16.507 12.384 24.824 1.277 4.746 4.37 9.484 8.551 13.274l.463.42c15.797 14.316 35.499 7.367 29.961-10.619z" fill="url(#SVGID_1_)"/><g><path d="m479.555 245.22c.606-.538 1.201-1.08 1.786-1.626-2.939-6.984-13.001-11.563-25.596-8.584l-.609.137c-5.493 1.295-10.486 3.952-13.904 7.485-5.986 6.205-13.765 11.631-22.843 15.751 7.06-4.682 12.898-10.386 17.22-16.629 9.883-14.289-5.174-28.067-22.879-21.004l-.527.208c-4.676 1.872-8.698 5.018-11.144 8.856-6.708 10.529-17.675 19.701-31.535 25.232-.029.011-.058.021-.094.038-5.259 2.088-10.915 2.992-16.579 2.951-18.605-.129-36.697 1.821-52.243 6.291-7.024 2.017-13.533 4.541-19.342 7.635-3.168 1.688-4.767 5.428-3.68 8.787 11.764-6.111 54.772-24.936 118.989-13.009 29.647 5.506 60.432-2.499 82.98-22.519z" fill="url(#SVGID_00000152263917015809742380000006846613777062847413_)"/></g><path d="m383.801 331.174.354.432c12.083 14.743 31.928 9.958 30.184-7.323-.763-7.558-3.118-15.378-7.036-22.882 5.955 7.991 10.146 16.507 12.384 24.824 1.277 4.746 4.37 9.484 8.551 13.274l.463.42c15.794 14.319 35.496 7.37 29.958-10.617-2.757-8.953-7.743-18.062-14.729-26.436 11.666 7.854 23.431 14.564 27.746 16.375 10.023 4.207 21.559-.509 25.766-10.532.104-.247.177-.497.27-.746-119.172-72.189-202.953-36.136-220.127-27.215.064.199.135.396.218.592.674 1.579 1.818 2.784 3.185 3.54 2.092 1.156 4.71 1.262 6.975.05 13.75-7.354 34.081-11.569 57.576-12.143 6.649-.162 13.078 2.692 17.302 7.83.024.029.048.058.071.087 9.46 11.542 14.621 24.871 15.408 37.329.288 4.545 2.283 9.238 5.481 13.141z" fill="url(#SVGID_00000073700584939524933930000018371889500944420024_)"/><path d="m383.801 331.174.354.432c12.083 14.743 31.928 9.958 30.184-7.323-.763-7.558-3.118-15.378-7.036-22.882 5.955 7.991 10.146 16.507 12.384 24.824 1.277 4.746 4.37 9.484 8.551 13.274l.463.42c9.549 8.657 20.517 9.53 26.481 4.9-5.981-17.873-14.342-32.75-23.834-45.102-17.154-22.323-43.662-35.274-71.809-35.818-43.638-.844-72.627 12.003-81.956 16.85-.001.003-.002.005-.003.008.625 1.868 1.875 3.277 3.407 4.123 2.092 1.156 4.71 1.262 6.975.05 13.768-7.363 34.133-11.58 57.665-12.145 6.641-.159 12.998 2.697 17.212 7.832l.071.087c9.46 11.542 14.621 24.871 15.408 37.329.29 4.545 2.285 9.238 5.483 13.141z" fill="url(#SVGID_00000008855181446581724250000003171131776604836487_)"/><path d="m327.956 265.724c-26.068 3.597-43.521 11.466-50.371 15.025-.001.003-.002.005-.003.008.626 1.868 1.875 3.277 3.407 4.123 2.092 1.156 4.71 1.262 6.975.05 13.768-7.363 34.133-11.58 57.665-12.145 6.641-.159 12.998 2.697 17.213 7.832l.071.087c9.46 11.542 14.621 24.871 15.408 37.329.287 4.544 2.282 9.237 5.48 13.14l.354.432c8.138 9.929 19.788 10.99 26.001 5.353-2.075-16.342-8.506-32.342-19.503-46.181-.095-.12-.191-.239-.286-.359-14.95-18.628-38.749-27.958-62.411-24.694z" fill="url(#SVGID_00000115483359036682171000000014548418549606117254_)"/><g><path d="m383.905 265.736c7.728 1.006 15.592-1.078 21.699-5.92.036-.028.071-.056.107-.085 13.124-10.429 23.112-22.92 29.484-35.818-4.612-4.838-13.172-6.873-22.465-3.164l-.527.208c-4.676 1.872-8.698 5.018-11.144 8.856-6.708 10.529-17.675 19.701-31.535 25.232-.029.011-.058.021-.094.038-5.259 2.088-10.915 2.992-16.579 2.951-17.523-.122-34.569 1.603-49.48 5.531-8.085 2.13-15.539 4.898-22.105 8.395-3.168 1.688-4.767 5.428-3.68 8.787 10.973-5.699 49.129-22.457 106.319-15.011z" fill="url(#SVGID_00000050647206481561649100000008038750646317956493_)"/></g></g><g><path d="m243.319 140.456c7.418 2.284 14.965 6.416 21.904 12.204-6.507-9.665-12.067-19.414-13.567-22.989-3.485-8.305.422-17.863 8.726-21.348 8.305-3.485 17.863.422 21.348 8.726 1.6 3.814 4.978 15.841 7.359 28.073 3.228-7.767 7.602-14.485 12.66-19.726 10.828-11.22 23.759.287 19.698 17.477l-.119.504c-1.075 4.55-3.272 8.691-6.203 11.518-5.137 4.955-9.635 11.405-13.046 18.925 3.874-5.847 8.602-10.687 13.779-14.268 11.836-8.186 23.254 4.291 17.4 18.96l-.172.43c-1.549 3.882-4.155 7.209-7.336 9.237-8.721 5.561-16.322 14.642-20.905 26.126-.011.027-.022.054-.032.081-1.732 4.36-2.482 9.042-2.449 13.733.16 22.387-3.32 43.848-11.54 59.314-1.479 2.783-4.869 4.106-7.767 2.868-1.308-.559-2.306-1.506-2.933-2.639-.958-1.734-1.045-3.902-.042-5.779 6.093-11.393 9.585-28.238 10.061-47.704.134-5.509-2.231-10.835-6.487-14.335-.024-.02-.048-.039-.072-.059-9.563-7.838-20.606-12.114-30.929-12.766-3.765-.238-7.654-1.891-10.887-4.541l-.358-.294c-12.215-10.012-8.251-26.454 6.067-25.009 6.262.632 12.741 2.583 18.959 5.83-6.621-4.934-13.677-8.406-20.568-10.261-3.932-1.058-7.858-3.621-10.998-7.085l-.348-.384c-11.863-13.084-6.105-29.408 8.797-24.819z" fill="url(#SVGID_00000039101491739600611290000008188392400173485217_)"/><path d="m243.319 140.456c7.418 2.284 14.965 6.416 21.904 12.204-6.507-9.665-12.067-19.414-13.567-22.989-3.485-8.305.422-17.863 8.726-21.348 8.305-3.485 17.863.422 21.348 8.726 1.6 3.814 4.978 15.841 7.359 28.073 3.228-7.767 7.602-14.485 12.66-19.726 10.828-11.22 23.759.287 19.698 17.477l-.119.504c-1.075 4.55-3.272 8.691-6.203 11.518-5.137 4.955-9.635 11.405-13.046 18.925 3.874-5.847 8.602-10.687 13.779-14.268 11.836-8.186 23.254 4.291 17.4 18.96l-.172.43c-1.549 3.882-4.155 7.209-7.336 9.237-8.721 5.561-16.322 14.642-20.905 26.126-.011.027-.022.054-.032.081-1.732 4.36-2.482 9.042-2.449 13.733.16 22.387-3.32 43.848-11.54 59.314-1.479 2.783-4.869 4.106-7.767 2.868-1.308-.559-2.306-1.506-2.933-2.639-.958-1.734-1.045-3.902-.042-5.779 6.093-11.393 9.585-28.238 10.061-47.704.134-5.509-2.231-10.835-6.487-14.335-.024-.02-.048-.039-.072-.059-9.563-7.838-20.606-12.114-30.929-12.766-3.765-.238-7.654-1.891-10.887-4.541l-.358-.294c-12.215-10.012-8.251-26.454 6.067-25.009 6.262.632 12.741 2.583 18.959 5.83-6.621-4.934-13.677-8.406-20.568-10.261-3.932-1.058-7.858-3.621-10.998-7.085l-.348-.384c-11.863-13.084-6.105-29.408 8.797-24.819z" fill="url(#SVGID_00000070829702323690252800000002020185088926551980_)"/><g><path d="m312.986 123.143c.446-.502.895-.995 1.347-1.48 5.787 2.435 9.581 10.771 7.112 21.208l-.114.504c-1.073 4.551-3.274 8.688-6.201 11.52-5.141 4.959-9.637 11.405-13.051 18.926 3.879-5.849 8.605-10.687 13.778-14.267 11.839-8.189 23.255 4.287 17.402 18.956l-.173.437c-1.551 3.875-4.158 7.207-7.337 9.233-8.723 5.558-16.323 14.644-20.906 26.128-.009.024-.017.048-.031.078-1.73 4.358-2.479 9.043-2.445 13.736.107 15.415-1.509 30.405-5.212 43.285-1.671 5.82-3.762 11.213-6.326 16.026-1.398 2.625-4.497 3.95-7.281 3.049 5.063-9.747 20.661-45.381 10.779-98.587-4.562-24.563 2.071-50.07 18.659-68.752z" fill="url(#SVGID_00000160893660371595591510000017464672364111502244_)"/></g><path d="m241.769 202.479-.358-.294c-12.215-10.012-8.251-26.454 6.067-25.009 6.262.632 12.741 2.583 18.959 5.83-6.621-4.934-13.677-8.406-20.568-10.261-3.932-1.058-7.858-3.621-10.998-7.085l-.348-.384c-11.864-13.086-6.106-29.41 8.796-24.821 7.418 2.284 14.965 6.416 21.904 12.204-6.507-9.665-12.067-19.414-13.567-22.989-3.485-8.305.422-17.863 8.726-21.348.204-.086.412-.146.618-.223 59.812 98.739 29.94 168.155 22.548 182.385-.165-.053-.328-.112-.49-.181-1.308-.559-2.307-1.506-2.933-2.639-.958-1.734-1.045-3.902-.042-5.779 6.093-11.393 9.585-28.238 10.061-47.704.135-5.509-2.231-10.835-6.487-14.335-.024-.02-.048-.039-.072-.059-9.563-7.838-20.606-12.114-30.929-12.766-3.765-.239-7.654-1.892-10.887-4.542z" fill="url(#SVGID_00000048478378443297027960000008516554558539644335_)"/><path d="m241.769 202.479-.358-.294c-12.215-10.012-8.251-26.454 6.067-25.009 6.262.632 12.741 2.583 18.959 5.83-6.621-4.934-13.677-8.406-20.568-10.261-3.932-1.058-7.858-3.621-10.998-7.085l-.348-.384c-7.173-7.912-7.896-16.999-4.06-21.941 14.809 4.956 27.135 11.883 37.369 19.747 18.495 14.213 29.226 36.175 29.677 59.497.699 36.156-9.945 60.174-13.961 67.904-.003.001-.004.002-.007.003-1.547-.518-2.715-1.554-3.416-2.823-.958-1.734-1.045-3.902-.042-5.779 6.101-11.407 9.594-28.28 10.062-47.778.132-5.502-2.235-10.77-6.489-14.261l-.072-.059c-9.563-7.838-20.606-12.114-30.929-12.766-3.764-.238-7.653-1.891-10.886-4.541z" fill="url(#SVGID_00000036953728491403458930000007065414549490062728_)"/><path d="m295.997 248.75c-2.98 21.598-9.5 36.059-12.449 41.735-.003.001-.004.002-.007.003-1.547-.518-2.715-1.554-3.416-2.823-.958-1.734-1.045-3.902-.042-5.779 6.101-11.407 9.594-28.28 10.062-47.778.132-5.502-2.235-10.77-6.489-14.261l-.072-.059c-9.563-7.838-20.606-12.114-30.929-12.766-3.765-.238-7.654-1.891-10.887-4.541l-.358-.294c-8.227-6.743-9.106-16.395-4.435-21.543 13.54 1.719 26.797 7.047 38.263 16.159.099.079.198.158.297.237 15.436 12.386 23.167 32.105 20.462 51.71z" fill="url(#SVGID_00000158716239931741083590000016203493868658585738_)"/><g><path d="m295.987 202.393c-.834-6.403.893-12.919 4.905-17.979.023-.029.047-.059.07-.088 8.641-10.874 18.991-19.149 29.677-24.429 4.008 3.821 5.694 10.913 2.621 18.613l-.173.437c-1.551 3.875-4.158 7.207-7.337 9.233-8.723 5.558-16.323 14.644-20.906 26.128-.009.024-.017.048-.031.078-1.73 4.358-2.479 9.043-2.445 13.736.101 14.519-1.328 28.642-4.583 40.996-1.765 6.699-4.058 12.875-6.955 18.315-1.398 2.625-4.497 3.95-7.281 3.049 4.722-9.091 18.607-40.704 12.438-88.089z" fill="url(#SVGID_00000138553116137754656500000006643657018661019831_)"/></g></g><g><path d="m427.62 212.146c-8.27-3.819-17.781-6.152-27.917-6.679 11.882-1.28 23.229-.418 33.182 2.34 5.68 1.574 12.457 1.266 18.918-.741l.716-.222c24.411-7.584 29.242-32.164 7.294-37.406-11.066-2.643-23.689-3.025-36.772-.821 15.979-10.266 31.613-22.391 36.079-26.857 9.217-9.217 9.217-24.16 0-33.376s-24.16-9.217-33.376 0c-4.466 4.466-16.591 20.1-26.857 36.079 2.203-13.083 1.822-25.706-.821-36.772-5.242-21.949-29.823-17.118-37.406 7.294l-.222.716c-2.007 6.462-2.314 13.239-.741 18.918 2.758 9.953 3.62 21.301 2.34 33.182-.527-10.137-2.86-19.647-6.679-27.917-8.731-18.908-32.139-11.756-35.632 10.833l-.102.663c-.925 5.979-.124 12.041 2.348 16.909 6.78 13.345 9.573 30.255 6.838 47.938-.009.057-.018.115-.027.172-1.481 9.451-6.089 18.134-12.853 24.899l-25.923 25.923c-2.814 2.814-3.099 7.436-.371 10.332 2.823 2.998 7.543 3.051 10.433.16l26.138-26.138c6.765-6.765 15.448-11.373 24.899-12.853.057-.009.115-.018.172-.027 17.683-2.735 34.593.058 47.938 6.838 4.868 2.473 10.93 3.273 16.909 2.348l.663-.102c22.588-3.494 29.74-26.902 10.832-35.633z" fill="url(#SVGID_00000110446539010015756940000010358663794544356027_)"/><path d="m300.068 277.713 26.138-26.138c6.765-6.765 15.448-11.373 24.899-12.853.058-.009.115-.018.172-.027 17.683-2.735 34.593.058 47.938 6.838 4.868 2.473 10.93 3.273 16.909 2.348l.663-.102c22.589-3.493 29.741-26.902 10.833-35.632-8.27-3.819-17.781-6.152-27.917-6.679 11.882-1.28 23.229-.418 33.182 2.34 5.68 1.574 12.457 1.266 18.918-.741l.716-.222c24.411-7.584 29.242-32.164 7.294-37.406-11.066-2.643-23.689-3.025-36.772-.821 15.979-10.266 31.613-22.391 36.079-26.857 9.217-9.217 9.217-24.16 0-33.376l-169.324 169.322c2.839 2.837 7.435 2.844 10.272.006z" fill="url(#SVGID_00000019655471904893085690000012057725504248073386_)"/><g><path d="m416.125 247.881.663-.102c22.589-3.493 29.741-26.902 10.833-35.632-8.27-3.819-17.781-6.152-27.917-6.679 11.882-1.28 23.229-.418 33.182 2.34 5.68 1.574 12.457 1.266 18.918-.741l.716-.222c17.605-5.469 25.021-19.776 19.558-29.297-10.575-1.497-20.338-2.261-29.286-2.485-31.503-.79-61.914 11.563-84.197 33.846l-68.799 68.799c2.838 2.837 7.434 2.843 10.272.006l26.555-26.555c6.636-6.636 15.21-10.992 24.483-12.437l.172-.027c17.683-2.735 34.593.058 47.938 6.838 4.868 2.472 10.93 3.272 16.909 2.348z" fill="url(#SVGID_00000109014230741052926280000009849062953170516621_)"/><path d="m324.976 242.528-35.18 35.18c2.838 2.837 7.434 2.843 10.272.006l26.555-26.555c6.636-6.636 15.21-10.992 24.483-12.437l.172-.027c17.683-2.735 34.593.058 47.938 6.838 4.868 2.473 10.93 3.273 16.909 2.348l.663-.102c12.839-1.985 20.682-10.405 21.596-18.907-19.512-10.486-39.797-12.862-57.332-11.836-21.172 1.238-41.08 10.496-56.076 25.492z" fill="url(#SVGID_00000061449880600265995040000010144300581886073994_)"/><path d="m329.78 206.165c-.129 3.312-.446 6.672-.97 10.061-.009.057-.018.115-.027.172-1.481 9.451-6.089 18.134-12.853 24.899l-25.923 25.923c-2.814 2.814-3.099 7.436-.371 10.333 2.823 2.997 7.543 3.051 10.433.16l26.138-26.138c6.765-6.765 15.448-11.373 24.899-12.853.058-.009.115-.018.172-.027 3.389-.524 6.748-.841 10.061-.97z" fill="url(#SVGID_00000050622295941024047790000007617488908627627708_)"/></g><g><path d="m319.623 151.379.102-.663c3.493-22.589 26.902-29.741 35.632-10.833 3.819 8.27 6.152 17.781 6.679 27.917 1.28-11.882.418-23.229-2.34-33.182-1.574-5.68-1.266-12.457.741-18.918l.222-.716c5.469-17.605 19.776-25.021 29.297-19.558 1.497 10.575 2.261 20.338 2.485 29.286.79 31.503-11.563 61.914-33.846 84.197l-68.799 68.799c-2.837-2.838-2.843-7.434-.006-10.272l26.555-26.555c6.636-6.636 10.992-15.21 12.437-24.483l.027-.172c2.735-17.683-.058-34.593-6.838-47.938-2.472-4.868-3.273-10.93-2.348-16.909z" fill="url(#SVGID_00000047033444852801051360000008988973119478657935_)"/><path d="m324.976 242.528-35.18 35.18c-2.837-2.838-2.843-7.434-.006-10.272l26.555-26.555c6.636-6.636 10.992-15.21 12.437-24.483l.027-.172c2.735-17.683-.058-34.593-6.838-47.938-2.473-4.868-3.273-10.93-2.348-16.909l.102-.663c1.985-12.839 10.405-20.682 18.907-21.596 10.486 19.512 12.862 39.797 11.836 57.332-1.239 21.172-10.496 41.08-25.492 56.076z" fill="url(#SVGID_00000057147434714931136370000013358458944005324698_)"/></g></g><g><path d="m325.266 268.977c-7.838-9.878-16.861-18.9-26.739-26.739-8.499-6.744-18.591-9.756-27.024-8.065-47.619 9.551-84.976 37.228-105.694 78.305l-108.806 176.559c-6.699 10.87 10.594 28.163 21.464 21.464l176.558-108.806c41.078-20.718 68.755-58.075 78.305-105.694 1.692-8.433-1.32-18.525-8.064-27.024z" fill="url(#SVGID_00000036237996237339066400000017083397394015878070_)"/><path d="m88.059 438.643c7.149 6.059 14.257 12.589 21.235 19.567s13.508 14.086 19.567 21.235l126.164-77.75c41.078-20.718 68.755-58.075 78.305-105.694 1.691-8.433-1.32-18.525-8.065-27.024-7.839-9.878-16.861-18.9-26.739-26.739-8.499-6.745-18.591-9.756-27.024-8.065-47.619 9.551-84.976 37.228-105.693 78.305z" fill="url(#SVGID_00000062167518334172441230000014994830448532655252_)"/><path d="m128.865 479.447-50.401 31.052c-10.867 6.701-28.16-10.593-21.459-21.459l31.052-50.401c7.146 6.064 14.265 12.593 21.24 19.568s13.504 14.094 19.568 21.24z" fill="url(#SVGID_00000031894695584938827960000010905885922341582271_)"/><g><path d="m120.076 386.689c10.842 8.409 21.69 17.944 32.242 28.496s20.087 21.4 28.496 32.242l74.21-45.733c41.078-20.718 68.755-58.075 78.305-105.694 1.691-8.433-1.32-18.525-8.065-27.024-7.839-9.878-16.861-18.9-26.739-26.739-8.499-6.745-18.591-9.756-27.024-8.065-47.619 9.551-84.976 37.228-105.693 78.305z" fill="url(#SVGID_00000092441242391516662010000011005821694605098413_)"/></g><g><path d="m151.759 335.278c14.573 10.258 29.346 22.647 43.583 36.884s26.626 29.01 36.884 43.583l22.799-14.05c41.078-20.718 68.755-58.075 78.305-105.694 1.691-8.433-1.32-18.525-8.065-27.024-7.839-9.878-16.861-18.9-26.739-26.739-8.499-6.745-18.591-9.756-27.024-8.065-47.619 9.551-84.976 37.228-105.693 78.305z" fill="url(#SVGID_00000071536319668760210040000001480853410488408252_)"/></g><g><path d="m238.366 329.138c17.82 17.82 32.75 36.481 44.22 54.537 25.92-21.516 43.521-51.656 50.745-87.674 1.691-8.433-1.32-18.525-8.065-27.024-7.839-9.878-16.861-18.9-26.739-26.739-8.499-6.745-18.591-9.756-27.024-8.065-36.018 7.224-66.158 24.825-87.674 50.745 18.056 11.47 36.716 26.4 54.537 44.22z" fill="url(#SVGID_00000155857340699075475270000000064933481230777530_)"/></g><g><path d="m281.389 286.115c15.537 15.537 28.879 31.714 39.646 47.572 5.468-11.651 9.603-24.26 12.295-37.685 1.691-8.433-1.32-18.525-8.065-27.024-7.839-9.878-16.861-18.9-26.739-26.739-8.499-6.745-18.591-9.756-27.024-8.065-13.425 2.693-26.034 6.827-37.685 12.295 15.858 10.766 32.035 24.109 47.572 39.646z" fill="url(#SVGID_00000181776828491466566900000010820439874513337997_)"/></g></g></g><g><path d="m325.265 268.977c-7.838-9.878-16.861-18.9-26.739-26.739-8.499-6.744-18.591-9.756-27.024-8.065-30.407 6.099-56.619 19.599-76.997 39.248-.805 19.305-5.843 38.206-15.111 55.933l-67.142 160.326 142.773-87.985c41.078-20.718 68.755-58.075 78.305-105.694 1.692-8.433-1.32-18.525-8.065-27.024z" fill="url(#SVGID_00000142169069459434707890000008039014033003297711_)"/></g><g><g><g><path d="m306.097 165.907c-6.867-5.223-15.487-9.365-25.21-11.886 12.946-.38 25.353-1.67 29.555-2.63 9.76-2.229 15.865-11.948 13.636-21.708s-11.949-15.865-21.708-13.636c-4.482 1.024-17.535 5.762-30.128 11.531 4.927-7.946 8.163-16.248 9.623-24.212 3.125-17.048-15.645-21.279-28.546-6.478l-.378.434c-3.415 3.917-5.733 8.584-6.389 13.063-1.15 7.849-4.064 16.09-8.649 24.042 2.774-7.286 4.085-14.692 3.967-21.688-.269-15.994-18.936-18.23-28.397-3.441l-.278.434c-2.504 3.914-3.823 8.422-3.595 12.609.624 11.48-2.659 24.228-10.066 35.805-.017.027-.035.055-.052.082-2.817 4.388-6.561 8.098-10.821 11.106-20.329 14.353-37.464 31.395-46.114 48.836-1.557 3.139-.557 7.057 2.439 8.875 1.352.82 2.854 1.109 4.283.941 2.187-.257 4.203-1.583 5.248-3.705 6.347-12.882 19.304-26.946 36.583-39.981 4.89-3.689 11.234-5.001 17.152-3.422.033.009.067.018.1.027 13.273 3.564 24.289 10.772 31.563 19.675 2.653 3.247 6.664 5.69 11.152 6.895l.497.134c16.955 4.552 29.242-9.677 18.665-21.677-4.626-5.249-10.585-9.838-17.544-13.353 8.745 2.787 16.451 6.912 22.589 11.938 3.503 2.868 8.36 4.754 13.522 5.348l.572.066c19.506 2.241 30.525-13.532 16.729-24.024z" fill="url(#SVGID_00000179619045923739672190000005052286543292008581_)"/><g><path d="m276.623 91.756c.165-.728.32-1.453.465-2.175-5.947-3.651-15.936-1.68-23.766 7.308l-.382.429c-3.417 3.917-5.729 8.584-6.392 13.063-1.152 7.856-4.063 16.092-8.648 24.047 2.773-7.292 4.082-14.695 3.967-21.687-.269-15.999-18.933-18.233-28.395-3.447l-.283.439c-2.496 3.91-3.818 8.423-3.59 12.608.628 11.48-2.66 24.23-10.067 35.807-.016.023-.032.047-.05.079-2.817 4.385-6.564 8.096-10.826 11.104-13.996 9.886-26.492 21.053-35.73 32.739-4.175 5.278-7.694 10.66-10.382 16.093-1.465 2.963-.656 6.621 1.96 8.552 5.527-10.886 27.62-48.054 82.088-73.581 25.147-11.784 43.895-34.294 50.031-61.378z" fill="url(#SVGID_00000048487570008195219620000006960310233770030210_)"/></g><path d="m251.066 207.473.497.134c16.955 4.552 29.242-9.677 18.665-21.677-4.626-5.249-10.585-9.838-17.544-13.353 8.745 2.787 16.451 6.912 22.589 11.938 3.503 2.868 8.36 4.754 13.522 5.348l.572.066c19.505 2.244 30.524-13.529 16.728-24.021-6.867-5.223-15.487-9.365-25.21-11.886 12.946-.38 25.353-1.67 29.555-2.63 9.76-2.229 15.865-11.948 13.636-21.708-.055-.24-.135-.467-.198-.703-127.938 9.905-171.307 81.845-179.376 97.737.155.114.314.224.481.326 1.352.82 2.854 1.109 4.283.941 2.187-.257 4.203-1.583 5.248-3.705 6.347-12.882 19.304-26.946 36.583-39.981 4.89-3.689 11.234-5.002 17.152-3.422.033.009.067.018.1.027 13.273 3.564 24.289 10.772 31.563 19.675 2.655 3.246 6.666 5.689 11.154 6.894z" fill="url(#SVGID_00000148649653774134981290000003425390122972552104_)"/><path d="m251.066 207.473.497.134c16.955 4.552 29.242-9.677 18.665-21.677-4.626-5.249-10.585-9.838-17.544-13.353 8.745 2.787 16.451 6.912 22.589 11.938 3.503 2.868 8.36 4.754 13.522 5.348l.572.066c11.793 1.357 20.471-3.875 22.451-10.541-14.067-10.17-28.307-16.819-42.039-20.972-24.818-7.505-51.609-2.977-72.97 11.717-33.118 22.782-47.924 47.953-52.307 56.586.001.003.001.005.002.008 1.47 1.062 3.162 1.446 4.762 1.258 2.187-.257 4.203-1.583 5.248-3.705 6.355-12.899 19.337-26.982 36.649-40.031 4.885-3.682 11.177-4.955 17.086-3.373l.1.027c13.273 3.564 24.289 10.772 31.563 19.675 2.655 3.247 6.666 5.69 11.154 6.895z" fill="url(#SVGID_00000120534765295058908870000014655206569260527510_)"/><path d="m174.147 188.445c-17.583 16.679-26.425 31.934-29.643 38.273.001.003.001.005.002.008 1.47 1.062 3.162 1.446 4.762 1.258 2.187-.257 4.203-1.583 5.248-3.705 6.355-12.899 19.336-26.982 36.648-40.031 4.885-3.682 11.177-4.955 17.087-3.373l.1.027c13.273 3.564 24.289 10.772 31.563 19.675 2.653 3.247 6.664 5.69 11.152 6.895l.497.134c11.419 3.066 20.709-2.39 22.334-9.944-10.321-11.12-23.72-19.646-39.377-24.104-.136-.039-.271-.077-.407-.115-21.185-5.923-44.006-.137-59.966 15.002z" fill="url(#SVGID_00000157995405801496292730000007241249607144969388_)"/><g><path d="m216.033 158.435c6.325-3.393 11.093-9.173 13.067-16.074.011-.04.023-.08.034-.121 4.228-14.848 5.002-29.557 2.852-42.631-6.048-1.147-13.547 1.923-18.513 9.685l-.283.439c-2.496 3.91-3.818 8.423-3.59 12.608.628 11.48-2.66 24.23-10.067 35.807-.016.023-.032.047-.05.079-2.817 4.385-6.564 8.096-10.826 11.104-13.183 9.31-25.016 19.748-34.07 30.688-4.909 5.932-9.004 12.004-12.042 18.144-1.465 2.963-.656 6.621 1.96 8.552 5.155-10.153 24.725-43.169 71.528-68.28z" fill="url(#SVGID_00000060741517406667278590000004853537497242337944_)"/></g></g><g><path d="m22.788 119.172c8.181-2.74 17.674-3.895 27.692-3.159-12.138-4.518-23.473-9.725-27.144-11.983-8.527-5.246-11.187-16.411-5.941-24.938s16.411-11.186 24.938-5.941c3.916 2.409 14.756 11.088 24.828 20.596-2.114-9.107-2.512-18.009-1.337-26.02 2.516-17.149 21.65-15.126 29.114 3.033l.219.533c1.975 4.806 2.672 9.971 1.855 14.423-1.432 7.803-1.319 16.543.469 25.546-.287-7.791.851-15.226 3.209-21.813 5.392-15.06 23.788-11.182 27.998 5.862l.124.5c1.114 4.511.915 9.203-.645 13.096-4.278 10.671-5.264 23.798-1.968 37.141.008.031.016.063.023.094 1.258 5.06 3.613 9.776 6.681 13.993 14.642 20.122 25.395 41.765 27.985 61.06.466 3.472-1.74 6.862-5.16 7.621-1.544.343-3.059.133-4.358-.485-1.988-.946-3.472-2.849-3.78-5.194-1.873-14.238-9.626-31.718-21.803-49.613-3.446-5.064-9.032-8.344-15.144-8.75-.034-.002-.069-.005-.103-.007-13.715-.888-26.461 2.4-36.21 8.496-3.556 2.223-8.139 3.248-12.776 2.948l-.514-.033c-17.519-1.135-24.585-18.556-10.714-26.523 6.067-3.485 13.184-5.917 20.903-7.011-9.177-.17-17.8 1.262-25.227 4.05-4.238 1.591-9.444 1.817-14.524.721l-.563-.121c-19.192-4.141-24.562-22.617-8.127-28.122z" fill="url(#SVGID_00000160904887047016050060000013096510900085730485_)"/><g><path d="m74.516 58.416c.078-.742.164-1.479.258-2.209 6.805-1.548 15.631 3.527 20.159 14.554l.224.529c1.978 4.807 2.669 9.97 1.858 14.424-1.433 7.81-1.321 16.544.466 25.55-.283-7.796.854-15.227 3.209-21.812 5.393-15.065 23.786-11.186 27.997 5.856l.127.506c1.108 4.505.91 9.203-.649 13.093-4.282 10.67-5.264 23.801-1.967 37.143.008.027.015.054.022.091 1.259 5.057 3.616 9.775 6.686 13.993 10.079 13.858 18.326 28.446 23.322 42.481 2.259 6.34 3.862 12.566 4.663 18.575.436 3.277-1.505 6.481-4.603 7.469-1.738-12.085-10.722-54.379-54.105-96.048-20.029-19.236-30.554-46.575-27.667-74.195z" fill="url(#SVGID_00000065070881698770198460000010511882231213799061_)"/></g><path d="m61.553 176.21-.514-.033c-17.519-1.135-24.585-18.556-10.714-26.523 6.067-3.485 13.184-5.917 20.903-7.011-9.177-.17-17.8 1.262-25.227 4.05-4.238 1.591-9.444 1.817-14.524.721l-.563-.121c-19.192-4.14-24.562-22.616-8.127-28.121 8.181-2.74 17.674-3.895 27.692-3.159-12.138-4.518-23.473-9.725-27.144-11.983-8.527-5.246-11.187-16.411-5.941-24.938.129-.21.278-.399.414-.602 117.978 50.472 135.943 132.529 138.48 150.172-.183.058-.369.112-.56.154-1.544.343-3.059.133-4.358-.485-1.988-.946-3.472-2.849-3.78-5.194-1.873-14.238-9.626-31.718-21.803-49.613-3.446-5.064-9.032-8.345-15.144-8.75-.034-.002-.069-.005-.103-.007-13.715-.888-26.461 2.4-36.21 8.496-3.557 2.222-8.14 3.247-12.777 2.947z" fill="url(#SVGID_00000174593988683517119790000000368731955290694073_)"/><path d="m61.553 176.21-.514-.033c-17.519-1.135-24.585-18.556-10.714-26.523 6.067-3.485 13.184-5.917 20.903-7.011-9.177-.17-17.8 1.262-25.227 4.05-4.238 1.591-9.444 1.817-14.524.721l-.563-.121c-11.603-2.503-18.142-10.245-17.876-17.193 16.588-5.113 32.21-6.836 46.548-6.359 25.913.863 49.83 13.756 65.34 34.533 24.046 32.212 29.983 60.804 31.361 70.388-.002.003-.003.004-.005.007-1.734.534-3.459.354-4.914-.338-1.988-.946-3.472-2.849-3.78-5.194-1.876-14.256-9.646-31.763-21.849-49.681-3.444-5.056-8.993-8.282-15.098-8.682l-.103-.007c-13.715-.888-26.461 2.4-36.21 8.496-3.555 2.222-8.138 3.247-12.775 2.947z" fill="url(#SVGID_00000036935325842754620800000014219181088134046339_)"/><path d="m140.508 182.896c11.294 21.443 14.768 38.729 15.78 45.766-.002.003-.003.004-.004.007-1.734.534-3.459.354-4.914-.338-1.988-.946-3.472-2.849-3.78-5.194-1.876-14.256-9.646-31.763-21.849-49.681-3.444-5.056-8.993-8.283-15.098-8.682l-.103-.007c-13.715-.888-26.461 2.4-36.21 8.496-3.556 2.223-8.139 3.248-12.776 2.948l-.514-.033c-11.799-.764-18.844-8.915-17.957-16.591 13.346-7.215 28.773-10.986 45.033-10.18.141.007.282.014.422.022 21.965 1.195 41.718 14.004 51.97 33.467z" fill="url(#SVGID_00000170956731787257154950000001451901846763756700_)"/><g><path d="m110.48 141.022c-4.9-5.245-7.559-12.25-7.212-19.419.002-.042.004-.083.006-.125.765-15.42 4.756-29.598 10.992-41.288 6.096.856 12.212 6.172 14.422 15.119l.127.506c1.108 4.505.91 9.203-.649 13.093-4.282 10.67-5.264 23.801-1.967 37.143.008.027.015.054.022.091 1.259 5.057 3.616 9.775 6.686 13.993 9.494 13.051 17.348 26.736 22.408 40.005 2.744 7.195 4.671 14.26 5.577 21.05.436 3.277-1.505 6.481-4.603 7.469-1.622-11.271-9.55-48.823-45.809-87.637z" fill="url(#SVGID_00000017478609844230030630000010907613852437375164_)"/></g></g></g><g><path d="m220.002 94.865c-8.239 1.579-16.61 4.935-24.481 9.979 8.207-7.333 17.164-12.776 26.094-16.052 5.096-1.869 10.004-5.736 13.763-10.705l.417-.55c14.204-18.775 4.632-39.766-14.61-31.913-9.701 3.959-19.355 10.446-27.966 19.115 6.453-16.258 11.65-33.723 12.596-39.462 1.954-11.844-6.064-23.03-17.908-24.984s-23.03 6.064-24.984 17.908c-.947 5.739-1.635 23.948-.745 41.417-5.37-10.975-12.429-20.22-20.345-27.084-15.701-13.617-31.508 3.188-24.086 25.53l.218.655c1.964 5.914 5.371 11.151 9.596 14.559 7.405 5.971 14.138 14.002 19.556 23.583-5.833-7.305-12.683-13.172-19.978-17.314-16.68-9.469-30.365 8.445-20.86 27.227l.279.551c2.516 4.971 6.367 9.08 10.83 11.397 12.235 6.352 23.399 17.511 30.84 32.215.024.048.048.095.072.143 3.963 7.869 5.172 16.841 3.738 25.534l-5.495 33.313c-.596 3.616 1.67 7.229 5.266 7.933 3.721.729 7.283-1.763 7.896-5.478l5.541-33.59c1.434-8.693 5.461-16.801 11.741-22.981.038-.038.076-.075.114-.112 11.769-11.535 25.925-18.517 39.553-20.603 4.97-.761 9.937-3.414 13.917-7.314l.441-.432c15.034-14.735 7.828-36.095-11.01-32.485z" fill="url(#SVGID_00000176019783257770225700000004301431743671927180_)"/><path d="m159.705 212.382 5.541-33.59c1.434-8.693 5.461-16.801 11.741-22.981.038-.038.076-.075.115-.113 11.769-11.535 25.925-18.517 39.553-20.603 4.97-.761 9.937-3.414 13.917-7.314l.441-.432c15.034-14.735 7.828-36.094-11.01-32.485-8.239 1.579-16.61 4.935-24.481 9.979 8.207-7.333 17.164-12.776 26.094-16.052 5.096-1.869 10.004-5.736 13.763-10.705l.417-.55c14.204-18.775 4.632-39.766-14.61-31.913-9.701 3.959-19.355 10.446-27.966 19.115 6.453-16.258 11.65-33.723 12.596-39.462 1.954-11.844-6.064-23.03-17.908-24.984l-35.895 217.596c3.646.602 7.09-1.859 7.692-5.506z" fill="url(#SVGID_00000070812361387769210060000013251266089268249259_)"/><g><path d="m230.571 127.782.441-.432c15.034-14.735 7.828-36.094-11.01-32.485-8.239 1.579-16.61 4.935-24.481 9.979 8.207-7.333 17.164-12.776 26.094-16.052 5.096-1.869 10.004-5.736 13.763-10.705l.417-.55c10.244-13.54 8.118-28.228-1.079-32.424-8.719 4.554-16.437 9.22-23.255 13.853-24.005 16.312-40.141 41.875-44.864 70.511l-14.585 88.413c3.646.601 7.09-1.86 7.692-5.507l5.629-34.125c1.407-8.528 5.488-16.389 11.653-22.446l.115-.113c11.769-11.535 25.925-18.517 39.553-20.603 4.971-.761 9.938-3.414 13.917-7.314z" fill="url(#SVGID_00000005269032052076218500000005127212578396662974_)"/><path d="m159.47 172.68-7.458 45.209c3.646.601 7.09-1.86 7.692-5.507l5.629-34.125c1.407-8.528 5.488-16.389 11.653-22.446l.115-.113c11.769-11.535 25.925-18.517 39.553-20.603 4.97-.761 9.937-3.414 13.917-7.314l.441-.432c8.545-8.375 9.898-18.885 6.021-25.74-20.231 2.62-36.691 11.725-49.266 21.902-15.183 12.287-25.118 29.898-28.297 49.169z" fill="url(#SVGID_00000026881336684965241380000009430946284226200461_)"/><path d="m143.556 142.884c1.681 2.549 3.246 5.234 4.672 8.052.024.048.048.095.072.143 3.963 7.869 5.172 16.841 3.738 25.534l-5.495 33.313c-.596 3.616 1.67 7.229 5.266 7.933 3.721.729 7.283-1.763 7.896-5.478l5.541-33.59c1.434-8.693 5.461-16.801 11.741-22.981.038-.038.076-.075.115-.113 2.256-2.211 4.6-4.251 7.01-6.124z" fill="url(#SVGID_00000163761561651973577790000001416642157817213074_)"/></g><g><path d="m106.558 107.324-.279-.551c-9.505-18.783 4.179-36.696 20.86-27.227 7.296 4.142 14.145 10.009 19.978 17.314-5.417-9.58-12.151-17.612-19.556-23.583-4.225-3.407-7.632-8.645-9.596-14.559l-.218-.655c-5.352-16.113 1.378-29.34 11.436-30.359 6.794 7.113 12.605 14.011 17.574 20.588 17.494 23.158 24.564 52.549 19.84 81.184l-14.585 88.413c-3.646-.602-6.117-4.039-5.516-7.686l5.629-34.125c1.407-8.528.067-17.283-3.826-25l-.072-.143c-7.441-14.704-18.604-25.863-30.84-32.215-4.462-2.316-8.313-6.424-10.829-11.396z" fill="url(#SVGID_00000114779517856470734930000010170752245995431574_)"/><path d="m159.47 172.68-7.458 45.209c-3.646-.602-6.117-4.039-5.516-7.686l5.629-34.125c1.407-8.528.067-17.283-3.826-25l-.072-.143c-7.441-14.704-18.604-25.863-30.84-32.215-4.463-2.317-8.314-6.425-10.83-11.397l-.279-.551c-5.403-10.676-3.308-21.064 2.565-26.31 18.318 8.979 30.981 22.888 39.621 36.565 10.434 16.514 14.185 36.382 11.006 55.653z" fill="url(#SVGID_00000158723322274228253090000010656195106827138495_)"/></g></g><g><path d="m173.879 192.324c-11.167-3.188-22.762-5.101-34.362-5.668-9.981-.488-19.151 2.672-24.556 8.463-30.52 32.699-43.633 73.46-37.101 115.324l13.286 190.541c.818 11.731 23.04 15.397 27.583 4.55l73.781-176.178c19.632-37.548 20.305-80.362 1.905-121.13-3.259-7.221-10.928-13.159-20.536-15.902z" fill="url(#SVGID_00000032647595154182417130000003345845405884871586_)"/><path d="m87.354 446.597c8.602.699 17.426 1.773 26.394 3.253 8.968 1.479 17.669 3.296 26.04 5.397l52.722-125.891c19.632-37.548 20.306-80.362 1.905-121.13-3.259-7.22-10.928-13.158-20.536-15.901-11.167-3.188-22.762-5.101-34.362-5.668-9.981-.488-19.151 2.672-24.556 8.463-30.52 32.699-43.633 73.46-37.101 115.324z" fill="url(#SVGID_00000103985028545716671650000013440363207704601985_)"/><path d="m139.792 455.247-21.066 50.286c-4.539 10.846-26.762 7.18-27.577-4.549l-3.799-54.388c8.603.705 17.435 1.773 26.398 3.251s17.671 3.304 26.044 5.4z" fill="url(#SVGID_00000147184452281458400690000009522778815771874995_)"/><g><path d="m83.444 390.53c12.628.477 25.863 1.794 39.424 4.031s26.518 5.241 38.63 8.845l31.012-74.05c19.632-37.548 20.306-80.362 1.905-121.13-3.259-7.22-10.928-13.158-20.536-15.901-11.167-3.188-22.762-5.101-34.362-5.668-9.981-.488-19.151 2.672-24.556 8.463-30.52 32.699-43.633 73.46-37.101 115.324z" fill="url(#SVGID_00000095307339337994789830000011799258482967770805_)"/></g><g><path d="m79.575 335.047c16.413-.141 34.118 1.207 52.414 4.225 18.295 3.018 35.496 7.429 50.994 12.834l9.527-22.75c19.632-37.548 20.306-80.362 1.905-121.13-3.259-7.22-10.928-13.158-20.536-15.901-11.167-3.188-22.762-5.101-34.362-5.668-9.981-.488-19.151 2.672-24.556 8.463-30.52 32.699-43.633 73.46-37.101 115.324z" fill="url(#SVGID_00000107573679587229808420000000127337418521179015_)"/></g><g><path d="m141.11 283.982c22.901 3.778 44.088 9.735 62.362 17.098 7.857-30.013 4.861-62.018-9.057-92.855-3.259-7.22-10.928-13.158-20.536-15.901-11.167-3.188-22.762-5.101-34.362-5.668-9.981-.488-19.151 2.672-24.556 8.463-23.085 24.733-36.202 54.08-38.401 85.026 19.671-1.103 41.649.06 64.55 3.837z" fill="url(#SVGID_00000167386194625240101500000007669140388423371183_)"/></g><g><path d="m150.23 228.693c19.967 3.294 38.633 8.244 55.201 14.337-2.158-11.655-5.828-23.312-11.016-34.806-3.259-7.22-10.928-13.158-20.536-15.901-11.167-3.188-22.762-5.101-34.362-5.668-9.981-.488-19.151 2.672-24.556 8.463-8.604 9.219-15.824 19.079-21.612 29.423 17.647-.449 36.915.859 56.881 4.152z" fill="url(#SVGID_00000162348917884903186660000012381989765176553362_)"/></g></g></g></g></svg>