<svg id="Capa_1" enable-background="new 0 0 512 512" viewBox="0 0 512 512" xmlns="http://www.w3.org/2000/svg"><g><g><path d="m460.447 36.674c-.578 0-1.165-.065-1.753-.201l-21.166-4.91c-4.157-.964-6.745-5.116-5.781-9.273s5.117-6.744 9.272-5.781l21.166 4.91c4.157.964 6.745 5.116 5.781 9.273-.828 3.57-4.006 5.982-7.519 5.982z" fill="#c86d36"/></g><g><path d="m409.552 24.854c-.578 0-1.166-.065-1.754-.201l-21.073-4.889c-4.157-.965-6.744-5.116-5.78-9.273.965-4.156 5.116-6.745 9.273-5.78l21.073 4.889c4.157.965 6.744 5.116 5.78 9.273-.827 3.568-4.005 5.981-7.519 5.981z" fill="#c86d36"/></g><path d="m497.384 216.76c0 5.11-1.071 10.219-3.214 14.969-4.213 9.344-12.187 16.473-21.943 19.635l-10.044 3.255-159.266 51.633-10.508-43.978 10.508-36.087 120.119-20.707 15.226-2.627-16.349-80.097 11.682-12.682 6.48-7.026 19.738 8.581 34.676 90.893c1.927 4.554 2.895 9.406 2.895 14.238z" fill="#8ebac5"/><g><path d="m497.384 216.76c0 5.11-1.071 10.219-3.214 14.969-4.213 9.344-12.187 16.473-21.943 19.635l-10.044 3.255c7.18-6.809 11.641-16.503 11.507-26.527 0-4.832-.968-9.684-2.895-14.237l-37.2-103.78 6.48-7.026 19.738 8.581 34.676 90.893c1.927 4.553 2.895 9.405 2.895 14.237z" fill="#7ca1b1"/></g><path d="m309.767 131.849c0 56.986-46.197 94.339-103.183 94.339s-103.183-37.353-103.183-94.339 46.197-93.961 103.183-93.961 103.183 36.974 103.183 93.961z" fill="#7a6d79"/><path d="m309.767 131.853c0 56.979-46.193 94.334-103.183 94.334-4.718 0-9.364-.258-13.907-.762 50.407-5.563 89.275-41.31 89.275-93.571 0-52.271-38.869-87.699-89.275-93.211 4.543-.494 9.189-.752 13.907-.752 56.99-.001 103.183 36.972 103.183 93.962z" fill="#685e68"/><g><path d="m159.06 152.899c-9.73 0-17.192-2.636-22.204-7.85-4.089-4.253-5.489-9.581-5.838-14.92-.306-4.676 3.6-8.542 8.273-8.183 4.069.313 7.186 3.749 7.103 7.829-.008.418-.013.664-.013.641-.002.095-.02 2.325 1.738 4.049 2.165 2.123 6.602 3.171 12.473 2.952 4.35-.182 7.954 3.268 8.014 7.621.058 4.242-3.504 7.695-7.743 7.832-.609.019-1.21.029-1.803.029z" fill="#685e68"/></g><path d="m160.592 137.417v32.944c0 12.48 8.894 22.883 20.69 25.215 2.89.571 5.013 3.037 5.013 5.982v24.63l40.573 9.127-9.581-23.495c0-2.946 8.726-24.084 11.616-24.655 11.796-2.332 11.299-67.003 11.299-67.003 0-7.921-20.936-9.202-20.936-9.202-16.021 14.629-35.434 23.202-58.674 26.457z" fill="#ffbd86"/><path d="m252.572 123.886v46.475c0 12.48-8.894 22.883-20.69 25.215-2.89.571-5.013 3.037-5.013 5.982v33.757l-21.634-9.129v-23.591c0-3.327 2.184-6.346 5.408-7.17 10.168-2.606 14.113-12.836 14.113-25.064v-46.461c0-4.996-2.06-9.632-5.491-12.939l.083-.075c5.316-4.827 12.776-6.511 19.651-4.434l.808.244c7.58 2.29 12.765 9.273 12.765 17.19z" fill="#f6a96c"/><path d="m302.922 226.188h-59.442l-40.734 18.042-33.057-18.042h-59.442l-3.472 29.811 3.472 50.26 13.884 130.7c.333 3.134.196 6.3-.407 9.393l-9.558 49.077c-1.673 8.589 4.905 16.571 13.655 16.571l82.965-.001 77.748-70.313 14.387-135.427v-80.071z" fill="#8ebac5"/><path d="m302.922 226.188h-27.817v80.071l-14.387 135.427h27.817l14.387-135.427z" fill="#7ca1b1"/><path d="m224.591 292.12 10.057-35.103-28.064-25.913-28.064 25.913 10.057 35.103c5.185 18.097 30.83 18.097 36.014 0z" fill="#eaf9fa"/><path d="m447.719 353.547c-5.388 14.597-6.521 26.108-6.202 34.222.191 4.855-4.676 8.179-9.17 6.333-10.103-4.151-24.342-3.518-32.851 25.48-9.856 33.649 9.705 40.552 22.655 41.617 3.925.323 6.272 4.519 4.437 8.004-4.091 7.77-5.139 16.197-4.912 25.212.237 9.622-7.417 17.585-17.05 17.585h-56.289l-7.582-7.704-8.241 7.704h-14.701l-6.43-9.251-9.414 9.251h-12.362l-6.67-7.317-9.154 7.317h-62.996c-12.197 0-20.377-12.64-15.257-23.704 13.042-28.175 35.366-47.254 27.155-74.534 0 0 39.497 26.671 47.182-23.375 4.581-29.882-8.046-36.569-18.948-37.154-4.864-.261-7.852-5.35-5.617-9.677 3.72-7.202 7.564-18.097 8.865-33.605 3.637-43.484 39.868-75.214 91.81-59.452l43.855 9.89c53.663 8.024 73 52.27 57.887 93.158z" fill="#dc8758"/><g><path d="m447.719 353.548c-5.389 14.599-6.523 26.112-6.205 34.226.19 4.853-4.675 8.175-9.167 6.329-10.103-4.151-24.342-3.518-32.851 25.48-9.855 33.648 9.704 40.551 22.654 41.617 3.925.323 6.272 4.52 4.437 8.005-4.09 7.767-5.138 16.19-4.911 25.211.237 9.622-7.417 17.585-17.05 17.585h-27.815c9.622 0 17.286-7.963 17.05-17.585-.124-4.821.123-9.478.999-13.959 1.813-9.22-3.327-18.245-11.981-21.902-10.034-4.255-18.337-14.587-11.198-38.972 6.14-20.933 15.278-27.083 23.684-27.32 9.601-.278 17.688-7.366 18.955-16.885.835-6.243 2.524-24.869 5.584-33.162 11.27-30.483 3.389-62.831-23.581-80.643 48.717 10.498 65.88 52.776 51.396 91.975z" fill="#c86d36"/></g><g><path d="m323.953 357.369-34.346 154.63h-15.824l35.088-157.999c.927-4.162 5.058-6.789 9.22-5.862 4.162.938 6.789 5.059 5.862 9.231z" fill="#eaf9fa"/><path d="m379.881 369.948-31.544 142.052h-15.823l32.286-145.41c.927-4.162 5.058-6.789 9.22-5.862s6.788 5.058 5.861 9.22z" fill="#d4f2f6"/><g><path d="m351.85 363.705-34.037 148.295h-15.844l34.83-151.766c.958-4.162 5.099-6.758 9.261-5.79 4.162.958 6.748 5.109 5.79 9.261z" fill="#eaf9fa"/></g></g><path d="m398.02 69.048 29.757 6.725-81.943 286.531-36.967-8.301z" fill="#fff5c6"/><path d="m427.775 75.77-47.898 294.181-34.043-7.647 63.717-290.655z" fill="#fef48b"/><path d="m427.778 75.776-29.76-6.733 12.682-57.092c1.829-8.234 9.993-13.421 18.224-11.58 8.213 1.838 13.387 9.98 11.562 18.196z" fill="#dc8758"/><path d="m169.689 226.188 8.832 30.829c1.549 5.409 8.402 7.066 12.252 2.964l15.811-16.848v-16.944h-36.895z" fill="#fe5ca7"/><path d="m243.48 226.188-8.832 30.829c-1.549 5.409-8.402 7.066-12.252 2.964l-15.811-16.848v-16.944h36.895z" fill="#fe3d97"/><path d="m459.811 111.632-37.897 11.12-22.507-46.469c-2.104-4.363-1.795-9.5.815-13.564 5.003-7.798 16.267-8.314 22.394-1.362l23.39 23.348c3.763 3.757 6.689 8.267 8.584 13.235z" fill="#ffbd86"/><path d="m436.593 118.45-14.68 4.301-22.507-46.469c-2.104-4.363-1.795-9.5.815-13.564 5.003-7.798 16.267-8.314 22.394-1.362l23.39 23.348c3.763 3.757 6.689 8.267 8.584 13.235z" fill="#ffbd86"/><path d="m459.813 111.63-23.22 6.82-6.83-19.069c-1.154-3.194-2.987-6.099-5.398-8.499l-25.445-25.404c-.009-.039-.017-.08-.026-.12.346-.914.781-1.807 1.324-2.641 5.007-7.798 16.267-8.314 22.396-1.36l23.39 23.34c3.766 3.758 6.693 8.271 8.589 13.242z" fill="#f6a96c"/><path d="m157.618 412.149-1.491-29.707-76.297-29.535h.007l30.411-46.648v-80.071c-15.627 0-30.027 8.471-37.619 22.13l-53.466 97.052c-11.852 22.012.505 51.008 24.993 56.444l97.271 26.448z" fill="#7ca1b1"/><path d="m110.252 226.187v80.076l-30.421 46.647h-13.985c-5.604 0-8.973-6.218-5.912-10.912l20.913-32.077c1.556-2.387 2.384-5.174 2.384-8.023v-66.171c1.648-1.329 3.389-2.524 5.202-3.595 6.5-3.823 14.01-5.945 21.819-5.945z" fill="#678d98"/><g><path d="m206.59 412.149c-2.283 0-4.542-1.007-6.067-2.937-2.646-3.348-2.075-8.207 1.273-10.852l209.598-165.592c3.348-2.647 8.206-2.076 10.852 1.273 2.646 3.348 2.075 8.207-1.273 10.852l-209.599 165.592c-1.418 1.121-3.107 1.664-4.784 1.664z" fill="#c86d36"/></g><path d="m224.925 435.648c-2.867 8.912-27.73 7.398-36.745 4.86l-46.753-12.247 14.699-45.819 61.644 32.587c3.683 1.991 8.435 16.627 7.155 20.619z" fill="#ffbd86"/><g><path d="m233.675 423.713c-1.465-3.662-4.167-6.839-7.85-8.83l-36.412-19.802c-6.298-3.425-12.913-6.233-19.753-8.383l-13.534-4.255 41.552 23.776c7.62 4.136 11.219 13.119 8.572 21.376-2.542 7.9-10.109 13.283-18.07 12.915l24.637 6.454c9.015 2.537 18.412-2.538 21.28-11.45 1.279-3.993 1.053-8.139-.422-11.801z" fill="#f6a96c"/></g><g><path d="m206.585 175.344c-4.268 0-7.726-3.459-7.726-7.726v-11.181c0-4.267 3.459-7.726 7.726-7.726s7.726 3.459 7.726 7.726v11.181c0 4.267-3.459 7.726-7.726 7.726z" fill="#f6a96c"/></g><g><path d="m435.8 230.296c-.505.093-1.01.144-1.504.144-3.616 0-6.851-2.555-7.572-6.233l-3.626-18.368c-.021-.124-.041-.237-.062-.361l15.226-2.627 3.626 18.368c.824 4.184-1.906 8.253-6.088 9.077z" fill="#7ca1b1"/></g></g><g/><g/><g/><g/><g/><g/><g/><g/><g/><g/><g/><g/><g/><g/><g/></svg>