<svg id="Filled_Line" viewBox="0 0 64 64" xmlns="http://www.w3.org/2000/svg"><path d="m43.4 45.03c-3.14 2.36-7.59 1.84-10.36-.94-1.32-1.32-2.21-2.99-2.67-4.81-.33-1.31-1.01-2.56-2.04-3.59s-2.27-1.71-3.59-2.04c-1.81-.46-3.48-1.35-4.81-2.67-2.94-2.94-3.29-7.72-.55-10.84 3-3.42 8.22-3.55 11.39-.38l.19.19c1.32 1.32 2.21 2.99 2.67 4.81.33 1.31 1.01 2.56 2.04 3.59s2.27 1.71 3.59 2.04c1.81.46 3.48 1.35 4.81 2.67l.19.19c3.31 3.31 3.02 8.86-.86 11.78z" fill="#b8c3d5"/><path d="m45.01 34.11c2.36 3.14 1.84 7.59-.94 10.36-1.32 1.32-2.99 2.21-4.81 2.67-1.31.33-2.56 1.01-3.59 2.04s-1.71 2.27-2.04 3.59c-.46 1.81-1.35 3.48-2.67 4.81-2.94 2.94-7.72 3.29-10.84.55-3.42-3-3.55-8.22-.38-11.39l.19-.19c1.32-1.32 2.99-2.21 4.81-2.67 1.31-.33 2.56-1.01 3.59-2.04s1.71-2.27 2.04-3.59c.46-1.81 1.35-3.48 2.67-4.81l.19-.19c3.31-3.31 8.86-3.02 11.78.86z" fill="#536882"/><path d="m45.01 7.14c2.36 3.14 1.84 7.59-.94 10.36-1.32 1.32-2.99 2.21-4.81 2.67-1.31.33-2.56 1.01-3.59 2.04s-1.71 2.27-2.04 3.59c-.46 1.81-1.35 3.48-2.67 4.81-2.94 2.94-7.72 3.29-10.84.55-3.42-3-3.55-8.22-.38-11.39l.19-.19c1.32-1.32 2.99-2.21 4.81-2.67 1.31-.33 2.56-1.01 3.59-2.04s1.71-2.27 2.04-3.59c.46-1.81 1.35-3.48 2.67-4.81l.19-.19c3.31-3.31 8.86-3.02 11.78.86z" fill="#536882"/><g fill="#b8c3d5"><circle cx="38.74" cy="11.8" r="3.47"/><circle cx="25.26" cy="25.29" r="3.47"/><circle cx="38.74" cy="38.77" r="3.47"/><circle cx="25.26" cy="52.26" r="3.47"/></g><path d="m44.81 32.41s-.31-.3-.33-.31c-1.36-1.26-3.06-2.19-4.97-2.68-1.18-.3-2.26-.91-3.12-1.78-.68-.68-1.19-1.48-1.53-2.36.34-.88.86-1.68 1.53-2.35.86-.86 1.95-1.48 3.13-1.78 2.04-.52 3.86-1.53 5.27-2.94 3.19-3.19 3.63-8.21 1.03-11.67-1.55-2.06-3.9-3.34-6.44-3.52-2.54-.17-5.04.75-6.84 2.56l-.19.19c-1.4 1.4-2.42 3.22-2.93 5.27-.3 1.18-.91 2.26-1.78 3.12s-1.95 1.48-3.12 1.78c-2.04.52-3.87 1.53-5.27 2.93l-.19.19c-1.71 1.71-2.65 4.09-2.57 6.51.08 2.33 1.05 4.47 2.73 6.07.01.02.34.32.37.34 1.36 1.25 3.05 2.17 4.93 2.65 1.18.3 2.26.91 3.12 1.78.67.66 1.18 1.47 1.52 2.36-.34.88-.85 1.68-1.53 2.35-.87.86-1.95 1.48-3.12 1.78-2.04.52-3.86 1.53-5.27 2.93l-.19.19c-1.71 1.71-2.65 4.09-2.57 6.51.08 2.46 1.15 4.71 3 6.34 1.62 1.42 3.65 2.12 5.7 2.12 2.34 0 4.71-.91 6.5-2.71 1.4-1.4 2.42-3.22 2.93-5.27.3-1.18.92-2.26 1.78-3.13s1.95-1.48 3.13-1.78c2.04-.52 3.86-1.53 5.27-2.93 3.19-3.19 3.63-8.21 1.03-11.67-.3-.4-.64-.76-1-1.1zm-26.35-6.9c-.06-1.9.64-3.69 1.99-5.03l.19-.19c1.15-1.15 2.65-1.98 4.34-2.41 1.53-.39 2.93-1.18 4.05-2.3s1.92-2.52 2.3-4.05c.43-1.7 1.26-3.2 2.41-4.34l.19-.19c1.28-1.28 3.01-1.99 4.81-1.99.16 0 .32 0 .48.02 1.99.14 3.76 1.11 4.98 2.73 2.01 2.67 1.65 6.56-.84 9.05-1.15 1.15-2.65 1.98-4.34 2.41-1.53.39-2.93 1.18-4.05 2.3-.94.94-1.63 2.07-2.06 3.31-.02.05-.03.1-.05.14-.07.2-.14.39-.19.59-.43 1.69-1.26 3.2-2.41 4.34-2.63 2.63-6.79 2.85-9.47.51 0 0 0 0-.01-.01-1.43-1.26-2.25-3-2.32-4.89zm8.95 8.23c1.56-.4 3.04-1.2 4.26-2.42.97-.97 1.75-2.16 2.31-3.47.3.42.62.83.99 1.2.46.47.98.86 1.53 1.21-1.49.39-2.87 1.17-3.98 2.29l-.19.19c-.97.97-1.75 2.16-2.31 3.47-.3-.43-.62-.84-.99-1.2-.49-.49-1.03-.91-1.62-1.27zm15.95 10.03c-1.15 1.15-2.65 1.98-4.34 2.41-1.53.39-2.93 1.19-4.05 2.3-1.12 1.12-1.92 2.52-2.3 4.05-.43 1.69-1.26 3.2-2.41 4.34-2.63 2.63-6.8 2.85-9.48.5-1.44-1.26-2.26-3-2.32-4.9s.64-3.69 1.99-5.03l.19-.19c1.15-1.15 2.65-1.98 4.34-2.41 1.53-.39 2.93-1.18 4.05-2.3.94-.94 1.63-2.07 2.06-3.31.03-.05.03-.11.05-.16.06-.19.14-.38.19-.58.43-1.7 1.26-3.2 2.41-4.34l.19-.19c1.28-1.28 3.01-1.99 4.81-1.99.16 0 .32 0 .48.02 1.99.14 3.76 1.11 4.98 2.73 2.01 2.67 1.65 6.56-.84 9.05zm-4.62-27.5c1.19 0 2.32-.46 3.16-1.31s1.31-1.97 1.31-3.16-.46-2.32-1.31-3.16-1.97-1.31-3.16-1.31-2.31.46-3.16 1.31-1.31 1.97-1.31 3.16.46 2.31 1.31 3.16 1.96 1.31 3.16 1.31zm-1.74-6.21c.47-.47 1.08-.72 1.74-.72s1.28.26 1.75.72c.47.47.72 1.09.72 1.75s-.26 1.28-.72 1.74c-.93.93-2.56.93-3.49 0-.47-.47-.72-1.09-.72-1.74s.26-1.28.72-1.75zm-11.74 19.7c1.19 0 2.32-.46 3.16-1.31 1.74-1.74 1.74-4.58 0-6.32-.84-.84-1.97-1.31-3.16-1.31s-2.31.46-3.16 1.31c-1.74 1.74-1.74 4.58 0 6.32.84.84 1.97 1.31 3.16 1.31zm-1.74-6.21c.47-.47 1.09-.72 1.74-.72s1.28.26 1.75.72c.96.96.96 2.53 0 3.49s-2.56.93-3.49 0c-.96-.96-.96-2.53 0-3.49zm15.23 10.76c-1.19 0-2.31.46-3.16 1.31s-1.31 1.97-1.31 3.16.46 2.31 1.31 3.16 1.96 1.31 3.16 1.31 2.32-.46 3.16-1.31 1.31-1.97 1.31-3.16-.46-2.32-1.31-3.16-1.97-1.31-3.16-1.31zm1.75 6.21c-.93.93-2.56.93-3.49 0-.47-.47-.72-1.09-.72-1.74s.26-1.28.72-1.75c.47-.47 1.08-.72 1.74-.72s1.28.26 1.75.72c.47.47.72 1.09.72 1.75s-.26 1.28-.72 1.74zm-18.39 8.58c-1.74 1.74-1.74 4.58 0 6.32.87.87 2.01 1.31 3.16 1.31s2.29-.44 3.16-1.31c1.74-1.74 1.74-4.58 0-6.32s-4.58-1.74-6.32 0zm4.9 4.9c-.96.96-2.53.96-3.49 0s-.96-2.53 0-3.49c.48-.48 1.11-.72 1.74-.72s1.26.24 1.75.72c.96.96.96 2.53 0 3.49z" fill="#1a2c3d"/></svg>