<svg id="Layer_1" enable-background="new 0 0 300 300" viewBox="0 0 300 300" xmlns="http://www.w3.org/2000/svg"><g><path d="m207.6 137.7c1.3 1.7 7.6 3.2 10.7 2.9 6.6-.6 14.6-6.5 15.3-7.8.1-.1 1-5 1.1-5.2l-28.9 1.5c.1 1.5.9 7.4 1.8 8.6z" fill="#d7a029"/><g><path d="m241.6 131.8c-.9.1-4.6 3.8-7.4 5.5 1.3 1.4 12 13.8 25.6 24.7 1.7 1.4 3.3 1.8 4.4 1.1 1-.6 1.5-2.2 1.1-4-.9-4.5-15.6-19.2-18.1-21.6-3.2-2-4.4-5.9-5.6-5.7z" fill="#d7a029"/></g><path d="m93.8 147.1c-2.8 0-11.5 1.6-16.3 1.9 0 .1.3 2.1.3 2.2s.6 8.5.4 12.6c-.1 2.2-4 9.3-8.2 16.7-3.6 6.6-7.4 13.4-8.1 16.2-1.5 5.7-6.3 6.1-9.2 6.4h-.6c-.8.1-1.3.4-1.6 1.1-.6 1.2-.3 3.2.7 4.7 1.1 1.6 5.3 1.4 8.1 1.2.8 0 1.5-.1 2-.1 2.2 0 5.4-4.4 6.8-7.4.5-1.2 4.8-6.4 10.2-13 6.8-8.3 17.1-21 17.1-22.5 0-2.7 4.7-18.2 5.1-19.5 0 0-2.5-.8-2.5-.8-2.4-.7-3.2.3-4.2.3z" fill="#d7a029"/><g><path d="m295.6 105.1c-10.5-6.3-19.5-3.8-35.8.6-1.2.3-2.4.6-3.6 1-14.6 4-29.1-4.8-38.7-10.6-2.5-1.5-4.6-2.8-6.3-3.5-6.8-3-17.3-2.4-19.3-2.3-11.5-2-28 2.3-49 7.7-6.7 1.7-13.6 3.5-21.1 5.3-.4.2-11 4-28.8-4.1-.1-.1-4.2-3-14.5-1-.2 0-19.4.7-31.1 2 0 0-.6-1-.9-1.3-1.2-1.4-2.7-1.8-3.6-1.3-.9.6-1.8 2-2.7 3.9 0 .1-.1.1-.1.2-1.7 1.2-7.6 5.6-8.8 9-.1.3-.2 1-.4 1.8-.5 3.2-1.5 8.5-4.4 10.1-1.2.7-1.2 2.3-1 3.6 1.2 1.9 2.6 6.5 5.4 6.5 4.2 0 12.2-.8 15.3-3.1 3-2.3 11-5.4 16.8-5.2l2.5 1.3-.2.5c-2.8 5.6-5.4 12.3-7.5 16.1-4.6 8.2-6.6 11.7-6.6 11.7 0 .1-.1.1-.1.1-.3.2-26 15.3-31.1 18.8-5.6 3.9-9.9 1.3-12.7-1-.6-.5-1.1-.6-1.7-.5-1.7.4-3 3.1-3.3 3.8.5 1.3 4.5 10.2 11.3 9.3 5.6-.7 26.3-10.5 39.9-17 4.7-2.2 8.7-4 10.6-4.8l18.3-21.5c2.2 0 11.6 3.1 16 5 5 2.1 27.7 3.1 42.8-7.3s23.7-13 23.7-13c.2 0 5.4-1 12.1 8.3 8.7 12.1 21.6 25.6 29.2 23.8 4.8-1.1 14.7-7.8 22.6-13.2 6.6-4.5 11.8-8 13.6-8.2 1.3-.2 3.9 1.2 7.1 3.1l.8.5c1.4.8 2.8 1.8 4.3 2.8 6.4 4.1 14.3 9.2 17.3 8.4 1.1-.3 1.7-.9 1.8-1.8.4-3-4.4-8.3-7-9.8-1-.6-3.4-1.8-6.4-3.2-7.3-3.6-17.3-8.5-20.2-11.1-.7-.6-1.6-.9-2.6-.7-1.9.4-3.9 2.3-4.5 3.6-.9 1.7-9.6 6.9-16.4 7.5-3.3.3-5.8-.5-7.2-2.4-2.1-2.8-1.6-6-.8-10.1 1-5.5 2.3-12.4-2.4-21.9-.1-.2 0-.3.1-.4s.3-.1.5-.1c1.5.9 2.6 1.9 3.9 3 2.8 2.5 6.5 5.8 17.4 10.2 18 7.2 30 2.8 39.6-.7 2.5-.9 4.9-1.8 7.2-2.4 6-1.5 8.6-.9 11.1-.3 2 .5 3.8.9 7.3.3 2.3-.4 3.6-1.2 3.9-2.3.7-1.5-1.5-3.7-1.6-3.7z" fill="#f3ba1a"/><path d="m98.6 143.3c-4.4-1.8-13.7-2.1-16-2.1-2.6 2.9-5.3 6.2-7.8 9.2 3.2-.2 15.4-1 19-1 1.1 0 2.8.6 5.1 1.3 7 2.3 18.6 6.1 30.4.8 7.8-3.5 13.3-9.1 19.1-13.6 3.1-2.4 10.7-10.4 16.7-11.9 0 0-9.1 1.5-24.2 11.8-15.2 10.3-37.3 7.6-42.3 5.5z" fill="#f7e1b0"/></g><path d="m39.5 113.9c-.1-.1-.7-1.2-1.9-1.5-.8-.2-1.7-.1-2.6.4-.3.2-.4.5-.4.8l.5 2.4c-.2.8-.7 2.5-1.3 3.3-1.1 1.4-.6 7.2-.4 9v.2l.1.4c.1.3.4.5.7.5h.1c.4 0 .6-.3.7-.7 0 0 .4-3.9 1.1-6.4l.7-2.4 1.6-3.1 1.1-2.2c.1-.3.1-.5 0-.7z" fill="#935d25"/><g fill="#935d25"><circle cx="77.6" cy="174" r="1.5"/><circle cx="82.6" cy="164.8" r="1.5"/><circle cx="57.4" cy="105.9" r="1.5"/><circle cx="67.7" cy="105.6" r="1.5"/><circle cx="66.2" cy="143" r="1.5"/><circle cx="70" cy="131.6" r="1.5"/><ellipse cx="76.9" cy="124.3" rx="3.2" ry="2.3"/><circle cx="77.3" cy="114" r="1.5"/><ellipse cx="77.6" cy="104.8" rx="3.2" ry="2.3"/><circle cx="88.7" cy="103.7" r="1.5"/><circle cx="88.7" cy="110.9" r="1.5"/><ellipse cx="87.8" cy="117.8" rx="3.2" ry="2.3"/><circle cx="130.5" cy="109.3" r="1.5"/><circle cx="111.4" cy="110.8" r="1.5"/><circle cx="99" cy="118.9" r="1.5"/><ellipse cx="100.6" cy="110.9" rx="3.2" ry="2.3"/><circle cx="106.6" cy="124.8" r="1.5"/><ellipse cx="112.3" cy="118.9" rx="3.2" ry="2.3"/><ellipse cx="117.4" cy="127.1" rx="2.8" ry="2"/><circle cx="121.9" cy="119.7" r="1.5"/><ellipse cx="121.5" cy="112.1" rx="3.2" ry="2.3"/><ellipse cx="129.4" cy="127.9" rx="2.8" ry="2"/><ellipse cx="130.3" cy="118.2" rx="3.2" ry="2.3"/><ellipse cx="139.8" cy="122" rx="2.8" ry="2"/><circle cx="138.2" cy="112.6" r="1.5"/><ellipse cx="139.9" cy="103.7" rx="3.2" ry="2.3"/><ellipse cx="146.7" cy="112.6" rx="2.8" ry="2"/><circle cx="149.1" cy="103.7" r="1.5"/><ellipse cx="157" cy="108.2" rx="2.8" ry="2"/><ellipse cx="156.8" cy="99.8" rx="3.2" ry="2.3"/><circle cx="213.1" cy="147.2" r="1.5"/><circle cx="192.7" cy="101.6" r="1.5"/><ellipse cx="192.7" cy="112.1" rx="2.8" ry="2"/><circle cx="188.1" cy="128.4" r="1.5"/><ellipse cx="182.2" cy="99.1" rx="2.8" ry="2"/><circle cx="165.7" cy="102.6" r="1.5"/><ellipse cx="171" cy="96.8" rx="3.2" ry="2.3"/><circle cx="170.3" cy="114.4" r="1.5"/><ellipse cx="173.3" cy="106.2" rx="2.8" ry="2"/><ellipse cx="178.7" cy="125.1" rx="2.8" ry="2"/><ellipse cx="179.4" cy="116.4" rx="2.8" ry="2"/><circle cx="181.7" cy="108.5" r="1.5"/><ellipse cx="187.1" cy="135.8" rx="2.8" ry="2"/><ellipse cx="190.1" cy="120.7" rx="2.8" ry="2"/><ellipse cx="194.5" cy="143.7" rx="2.8" ry="2"/><circle cx="196.8" cy="133" r="1.5"/><ellipse cx="198.5" cy="95.3" rx="2.3" ry="1.6"/><circle cx="200.3" cy="151.3" r="1.5"/><ellipse cx="204.4" cy="145.2" rx="2.8" ry="2"/><ellipse cx="208.2" cy="95.7" rx="2.3" ry="1.6"/><circle cx="215.1" cy="101" r="1.5"/><circle cx="223.8" cy="105.9" r="1.5"/></g><path d="m32 130.9c-2.8 0-5.1-2.8-6.3-4.7.1.4.2.9.2 1.1.8 3.2 3.2 6.8 5.2 6.8 1.4 0 2.8-.4 4.4-.9 2.3-.7 5-1.5 8.3-1.2 2.2.2 4.6-1.2 7.4-2.8 4.1-2.3 8.8-5 14.3-3.6 1.1-2.2 2.1-4.3 2.9-6-5.8-.2-19.1 6.2-22.1 8.4-2.9 2.4-10.1 2.9-14.3 2.9z" fill="#f7e1b0"/><path d="m42.6 102.7s.6-2.7 1.6-2 3.2 3.3 3.2 8.4c0 0-.3 1.3-1.9-1.4-1.7-2.7-3.1-4.2-3.1-4.2z" fill="#d7a029"/></g></svg>