<svg clip-rule="evenodd" fill-rule="evenodd" height="512" image-rendering="optimizeQuality" shape-rendering="geometricPrecision" text-rendering="geometricPrecision" viewBox="0 0 512 512" width="512" xmlns="http://www.w3.org/2000/svg"><g id="Layer_x0020_1"><path d="m477 462h-1l-108-21c-2 0-4-2-5-4s-1-4 0-6c0-1 0-1 0-1s0 0 0-1c0-12-10-22-21-22-10 0-19 7-21 18-1 3-5 6-8 5l-186-36c-2 0-4-2-5-3-1-2-1-4-1-6 1-3 2-6 2-9 0-11-10-21-21-21-12 0-21 9-21 21v1c0 2-1 4-3 6-1 1-3 2-5 1l-67-13c-4 0-6-3-6-7v-217c0-4 3-7 7-7s7 3 7 7v1l197 33 41-27v-1 1l23 44 223 43c1-3 4-5 7-5 4 0 7 3 7 7v80c0 4-3 7-7 7-12 0-21 10-21 22s9 21 21 21c4 0 7 3 7 7v52c0 4-3 7-7 7-10 0-19 7-21 18-1 3-4 5-7 5z" fill="#fcbf29"/><path d="m505 250h-1l-235-45c-4-1-6-4-6-7v-6c0-12-9-21-21-21-10 0-19 7-21 18-1 3-5 6-8 5l-207-40c-3-1-5-3-6-5 0-2 0-5 2-7 64-59 146-92 233-92 17 0 36 2 58 5 1 0 3 1 4 2l28 24c1 1 2 3 2 5v4c0 12 9 21 21 21h5c2-1 5-1 8 1l71 60c1 1 2 3 2 5s-1 4-2 5c-2 2-3 4-3 7 0 7 6 12 12 12 4 0 7-2 10-5 3-2 7-3 10 0l49 42c2 2 3 5 2 8-2 3-4 4-7 4z" fill="#fedb41"/><g fill="#fea832"><path d="m57 331c-17 0-31-14-31-31s14-31 31-31 31 14 31 31-14 31-31 31z"/><path d="m416 395c-15 0-26-11-26-26 0-14 12-26 26-26s26 12 26 26-12 26-26 26z"/><path d="m354 198c-14 0-26-12-26-26 0-15 12-27 26-27 15 0 26 12 26 27 0 14-12 26-26 26z"/><path d="m166 156c-16 0-29-14-29-30s13-29 29-29 30 13 30 29c0 17-13 30-30 30z"/><path d="m89 252c-14 0-26-12-26-26s12-26 26-26 26 12 26 26c0 15-11 26-26 26z"/><path d="m218 353c-14 0-26-12-26-26s12-26 26-26c15 0 27 11 27 26 0 14-12 26-27 26z"/><path d="m337 340c-17 0-31-14-31-31s14-31 31-31 31 14 31 31-14 31-31 31z"/><path d="m248 115c-12 0-22-10-22-23 0-12 10-22 22-22 13 0 23 10 23 22 0 13-10 23-23 23z"/></g></g></svg>