<svg id="Capa_1" enable-background="new 0 0 512 512" height="512" viewBox="0 0 512 512" width="512" xmlns="http://www.w3.org/2000/svg"><g><g><g><path d="m439.298 504.747v-65.984c0-25.414-16.224-47.991-40.311-56.096l-85.654-28.821c-8.029-2.702-13.437-10.227-13.437-18.699v-32.126l-80.813 1.552 2.976 32.612c0 8.471-12.534 18.259-20.563 20.961l-12.285-1.118-76.198 25.639c-24.087 8.105-40.311 30.682-40.311 56.096v66.13c0 3.925 3.182 7.106 7.107 7.104l352.238-.148c3.98.083 7.251-3.121 7.251-7.102z" fill="#d3dbfe"/></g></g><path d="m189.212 357.03c4.394 6.211 10.92 14.056 20.186 21.597 10.646 8.647 20.998 13.711 28.457 16.664l95.788-34.611-23.545.763c-8.029-2.701-17.335-15.786-17.335-24.258l-.311-34.164h-80.348v32.126c0 8.472-5.408 15.998-13.437 18.699l-9.455 3.181z" fill="#ffcebf"/><g><path d="m398.987 382.667-85.654-28.821c-8.029-2.701-13.437-10.227-13.437-18.699v-32.126h-87.793l57.347 30.446v32.126c0 8.472 5.408 15.998 13.437 18.699l85.654 28.821c24.087 8.105 40.311 30.682 40.311 56.096v42.65l23.195-.01c3.98.083 7.251-3.121 7.251-7.103v-65.984c0-25.413-16.224-47.99-40.311-56.095z" fill="#d3dbfe"/></g><path d="m269.451 365.594c0 6.193 2.898 11.871 7.589 15.538l56.602-20.451-20.308-6.833c-8.029-2.701-13.437-10.227-13.437-18.699v-32.126h-87.793l57.347 30.446z" fill="#ffb09e"/><g><path d="m359.343 235.128h-32.064v-55.175h32.064c15.236 0 27.588 12.351 27.588 27.588 0 15.235-12.352 27.587-27.588 27.587z" fill="#ffcebf"/><path d="m149.863 235.128h32.064v-55.175h-32.064c-15.236 0-27.588 12.351-27.588 27.588 0 15.235 12.352 27.587 27.588 27.587z" fill="#ffb09e"/></g><path d="m262.312 336.683-4.686.502c-15.792 0-32.333-.907-45.522-7.581-31.712-16.048-53.453-48.942-53.453-86.913v-89.715c28.733-4.63 63.02-8.054 101.689-7.78 35.033.249 66.331 3.481 93.008 7.78v89.715c0 37.971-21.739 70.864-53.451 86.913-13.189 6.674-21.792 7.079-37.585 7.079z" fill="#ffcebf"/><path d="m260.34 145.195c-6.655-.047-13.17.023-19.56.182 30.65.764 58.242 3.75 82.122 7.598v89.716c0 31.33-12.97 61.018-39.672 78.427-28.009 18.261-61.115 11.057-71.124 8.481 8.688 4.305 20.303 8.588 34.344 9.976 3.336.33 6.526.468 9.548.465 53.764 0 97.348-43.584 97.348-97.348 0-24.831 0-64.885 0-89.716-26.675-4.3-57.973-7.532-93.006-7.781z" fill="#ffb09e"/><g><path d="m379.233 67.436c-2.849-24.56-23.948-44.303-50.446-47.297-7.297-.825-14.351-.366-20.964 1.136-2.805.637-5.747-.269-7.615-2.307-10.631-11.6-26.485-18.968-44.208-18.968s-33.577 7.368-44.207 18.968c-1.868 2.038-4.81 2.944-7.615 2.307-5.463-1.24-11.226-1.769-17.179-1.451-29.451 1.575-53.182 23.785-54.515 51.054-.943 19.304 9.155 36.474 24.938 46.59 2.443 1.566 3.668 4.31 3.156 7.019l-5.716 40.697c-1.197 8.523 6.575 15.56 14.938 13.524 24.44-5.948 55.795-10.951 92.258-10.503 32.393.397 60.493 4.994 83.016 10.468 8.299 2.017 16.019-4.954 14.91-13.422-1.945-14.85-3.89-32.257-5.835-42.617-.483-2.573.596-5.193 2.831-6.787 15.292-10.914 24.536-28.728 22.253-48.411z" fill="#e7efff"/><g><path d="m356.979 115.846c15.293-10.913 24.537-28.727 22.254-48.411-2.849-24.559-23.948-44.303-50.446-47.297-7.297-.825-14.351-.366-20.964 1.136-2.805.636-5.748-.269-7.615-2.307-10.631-11.599-26.485-18.967-44.208-18.967-16.271 0-30.955 6.222-41.479 16.215 3.574-.638 7.257-.992 11.033-.992 17.723 0 33.577 7.368 44.208 18.967 1.868 2.039 4.81 2.944 7.615 2.307 6.613-1.501 13.667-1.961 20.964-1.136 26.497 2.994 47.597 22.737 50.446 47.297 2.283 19.683-6.961 37.498-22.254 48.411-2.235 1.595-3.314 4.214-2.831 6.787 1.715 9.136 3.43 23.751 5.146 37.262 5.682 1.115 11.105 2.31 16.225 3.554 8.299 2.017 16.019-4.953 14.91-13.422-1.945-14.85-3.89-32.257-5.835-42.617-.483-2.573.596-5.192 2.831-6.787z" fill="#d3dbfe"/></g><path d="m169.799 178.707c24.44-5.948 55.795-10.951 92.258-10.503 25.023.307 47.484 3.12 66.792 6.907 5.687 1.115 11.871-4.325 16.995-3.079 8.299 2.017 5.553.948 4.444-7.52-1.175-8.973 7.345-18.133 6.17-26.854-25.477-7.404-61.926-14.969-105.986-14.331-37.175.538-68.41 6.751-91.586 13.207l-4.024 28.649c-1.198 8.523 6.574 15.559 14.937 13.524z" fill="#d3dbfe"/><path d="m327.322 130.488c-.263.194-.523.391-.79.582-2.235 1.595-3.314 4.214-2.831 6.787 1.715 9.136 3.43 23.751 5.146 37.262 5.682 1.115 11.105 2.31 16.225 3.554 8.299 2.017 16.019-4.953 14.91-13.422-1.175-8.973-2.35-18.871-3.526-27.592-8.522-2.478-18.28-4.971-29.134-7.171z" fill="#b8cbff"/></g><path d="m209.249 511.943 222.798-.093c3.98.083 7.251-3.121 7.251-7.103v-65.984c0-25.414-16.224-47.991-40.311-56.096l-78.101-26.279-90.434 42.369c-12.939 6.062-21.203 19.061-21.203 33.35z" fill="#e7efff"/><path d="m398.987 382.667-78.101-26.279-46.791 21.922c2.275 2.699 5.283 4.802 8.792 5.982l85.654 28.821c24.087 8.105 40.311 30.682 40.311 56.096v42.65l23.195-.01c3.98.083 7.251-3.121 7.251-7.103v-65.984c0-25.413-16.224-47.99-40.311-56.095z" fill="#d3dbfe"/><g><g><path d="m141.205 512c-4.204 0-7.611-3.408-7.611-7.612v-45.668c0-4.204 3.408-7.611 7.611-7.611 4.204 0 7.611 3.408 7.611 7.611v45.669c.001 4.203-3.407 7.611-7.611 7.611z" fill="#b8cbff"/></g><g><path d="m370.795 512c-4.204 0-7.612-3.408-7.612-7.612v-45.668c0-4.204 3.408-7.611 7.612-7.611s7.611 3.408 7.611 7.611v45.669c0 4.203-3.407 7.611-7.611 7.611z" fill="#d3dbfe"/></g></g><g><g><path d="m323.089 208.816c-1.009 0-2.034-.202-3.019-.628-6.132-2.654-12.697-3.694-18.978-3.009-2.854.311-5.688.976-8.424 1.976-3.948 1.441-8.319-.588-9.762-4.536s.588-8.319 4.536-9.762c3.888-1.421 7.926-2.367 12-2.811 8.902-.97 18.125.471 26.675 4.172 3.858 1.669 5.632 6.151 3.962 10.008-1.244 2.873-4.047 4.59-6.99 4.59z" fill="#564e57"/></g><g><path d="m188.911 208.816c-2.944 0-5.746-1.717-6.989-4.59-1.67-3.858.104-8.339 3.962-10.008 8.55-3.701 17.774-5.142 26.675-4.171 4.073.444 8.111 1.389 11.999 2.811 3.948 1.443 5.979 5.814 4.536 9.762-1.444 3.948-5.816 5.979-9.762 4.536-2.736-1-5.57-1.665-8.424-1.976-6.283-.687-12.846.354-18.978 3.008-.984.426-2.01.628-3.019.628z" fill="#564e57"/></g><g><path d="m306.573 249.69c-4.204 0-7.611-3.408-7.611-7.611v-16.524c0-4.204 3.408-7.611 7.611-7.611s7.612 3.408 7.612 7.611v16.524c0 4.203-3.408 7.611-7.612 7.611z" fill="#564e57"/></g><g><path d="m205.427 249.69c-4.204 0-7.611-3.408-7.611-7.611v-16.524c0-4.204 3.408-7.611 7.611-7.611 4.204 0 7.611 3.408 7.611 7.611v16.524c0 4.203-3.408 7.611-7.611 7.611z" fill="#564e57"/></g></g><path d="m288.041 276.414c-9.849-3.549-12.939-9.894-20.73-9.192-3.135.282-6.39 1.649-9.165 3.701-1.279.945-3.012.945-4.291 0-2.776-2.052-6.031-3.418-9.165-3.701-7.792-.702-10.881 5.644-20.73 9.192-5.464 1.969-13.407 3.22-24.558.326-1.724-.447-2.973 1.655-1.766 2.965 15.211 16.51 32.999 24.874 47.054 20.299 2.529-.823 6.06-2.432 9.198-4.757 1.252-.928 2.973-.928 4.226 0 3.138 2.325 6.669 3.934 9.198 4.757 14.056 4.575 31.843-3.789 47.054-20.299 1.207-1.31-.042-3.412-1.766-2.965-11.152 2.894-19.094 1.643-24.559-.326z" fill="#564e57"/><g><g><g><path d="m243.786 466.331c-4.204 0-7.611-3.408-7.611-7.612v-5.616c0-4.204 3.408-7.611 7.611-7.611 4.204 0 7.612 3.408 7.612 7.611v5.616c-.001 4.204-3.408 7.612-7.612 7.612z" fill="#d3dbfe"/></g><g><path d="m243.786 512c-4.204 0-7.611-3.408-7.611-7.612v-5.616c0-4.204 3.408-7.612 7.611-7.612 4.204 0 7.612 3.408 7.612 7.612v5.616c-.001 4.204-3.408 7.612-7.612 7.612z" fill="#d3dbfe"/></g></g><g><g><path d="m274.232 466.331c-4.204 0-7.611-3.408-7.611-7.612v-5.616c0-4.204 3.408-7.611 7.611-7.611 4.204 0 7.612 3.408 7.612 7.611v5.616c-.001 4.204-3.408 7.612-7.612 7.612z" fill="#d3dbfe"/></g><g><path d="m274.232 512c-4.204 0-7.611-3.408-7.611-7.612v-5.616c0-4.204 3.408-7.612 7.611-7.612 4.204 0 7.612 3.408 7.612 7.612v5.616c-.001 4.204-3.408 7.612-7.612 7.612z" fill="#d3dbfe"/></g></g></g></g></svg>