<svg id="Layer_1" enable-background="new 0 0 64 64" height="512" viewBox="0 0 64 64" width="512" xmlns="http://www.w3.org/2000/svg"><g><path d="m50.461 42.604-12.11-4.54c-.435-.163-.925-.005-1.183.382-.017.025-1.743 2.554-5.168 2.554-3.387 0-5.1-2.454-5.168-2.555-.262-.393-.763-.551-1.202-.375l-12.22 4.862c-2.679 1.068-4.41 3.618-4.41 6.498v13.57c0 .553.448 1 1 1h44c.552 0 1-.447 1-1v-13.84c0-2.901-1.824-5.535-4.539-6.556z" fill="#f5f5f5"/><g fill="#d8d8da"><path d="m18 57c-.552 0-1 .447-1 1v6h2v-6c0-.553-.448-1-1-1z"/><path d="m46 57c-.552 0-1 .447-1 1v6h2v-6c0-.553-.448-1-1-1z"/></g><g fill="#aeadb3"><circle cx="36" cy="50" r="1"/><circle cx="28" cy="50" r="1"/><circle cx="36" cy="56" r="1"/><circle cx="28" cy="56" r="1"/><circle cx="36" cy="62" r="1"/><circle cx="28" cy="62" r="1"/></g><g><g><path d="m22.339 7.06c-.47 0-.889-.333-.981-.812-.104-.542.251-1.066.793-1.17 1.086-.208 1.922-.08 2.013-.064.545.091.913.606.822 1.151-.091.544-.6.915-1.151.822s-.575-.084-1.307.056c-.064.011-.127.017-.189.017z"/></g></g><path d="m33 0c-7.367 0-10.244 3.063-11.354 5.193-1.936.526-4.646 2.255-4.646 7.807 0 .464.319.867.771.974.453.104.917-.113 1.124-.528.557-1.121 3.365-3.22 8.53-4.079 2.771-.464 5.979-.484 8.729-.067 5.133.759 8.058 2.756 8.846 3.966v10.744c0 .465.321.87.775.974.805.187 1.577.279 2.308.279 1.637 0 3.069-.463 4.218-1.376 1.231-.98 2.699-2.97 2.699-6.887 0-8.738-10.691-17-22-17z" fill="#f5f5f5"/><g fill="#bd9b7b"><path d="m23 26v-8.96c0-.298-.133-.581-.362-.771-.23-.19-.533-.267-.825-.212-1.617.308-3 .64-4.112.988-.417.131-.701.518-.701.955v10.4c0 3.779 2.384 7.175 5.926 8.45l2.73 1c.111.04.228.061.344.061.202 0 .402-.062.573-.181.267-.187.427-.494.427-.82v-3.07c0-.28-.118-.547-.324-.737-1.373-1.259-3.676-3.857-3.676-7.103z"/><path d="m47 18c0-.437-.284-.824-.701-.955-1.112-.348-2.495-.68-4.112-.988-.295-.056-.596.022-.825.212s-.362.473-.362.771v8.96c0 3.243-2.306 5.863-3.68 7.137-.204.189-.32.455-.32.733v3.04c0 .326.16.633.427.819.17.119.371.181.573.181.116 0 .232-.021.344-.061l2.725-.998c3.547-1.276 5.931-4.672 5.931-8.451z"/></g><g><g><path d="m36.3 9.308c-.312 0-.619-.145-.814-.417-.322-.449-.218-1.074.23-1.396 2.064-1.478 5.154-1.495 5.284-1.495.552 0 .999.447.999.999.001.551-.446.999-.998 1.001-.025 0-2.584.021-4.12 1.121-.175.127-.379.187-.581.187z" fill="#e1e1e3"/></g></g><path d="m38.401 32.954c-.363-.159-.786-.087-1.079.181-2.037 1.881-4.219 2.865-5.322 2.865-1.054 0-3.278-1.015-5.323-2.896-.292-.269-.716-.339-1.079-.18s-.598.519-.598.916v5.16c0 .197.059.391.168.555.094.14 2.349 3.445 6.832 3.445s6.738-3.305 6.832-3.445c.109-.164.168-.358.168-.555v-5.13c0-.397-.235-.757-.599-.916z" fill="#eee"/><path d="m41 47c0-.345-.178-.665-.47-.848l-5.775-3.609c2.653-.91 4.005-2.88 4.077-2.988.306-.46.182-1.08-.277-1.387-.46-.307-1.081-.183-1.387.277-.015.023-1.41 2.055-4.168 2.475v-3.92c0-.553-.448-1-1-1s-1 .447-1 1v3.92c-2.721-.411-4.107-2.385-4.168-2.475-.307-.46-.927-.584-1.387-.277s-.583.927-.277 1.387c.092.137 2.249 3.282 6.523 3.431l7.309 4.569v16.445h2z" fill="#d8d8da"/><g><g><path d="m46.999 12c-.079 0-.16-.01-.24-.029-.014-.003-1.459-.351-2.93-.165-.542.075-1.049-.316-1.119-.865-.07-.548.317-1.049.865-1.119 1.853-.237 3.594.19 3.667.208.535.134.86.675.727 1.21-.112.456-.521.76-.97.76z" fill="#e1e1e3"/></g></g><g><g><path d="m27.262 9.377c-.154 0-.311-.036-.457-.111-.491-.253-.684-.856-.431-1.347 1.487-2.886 5.225-3.85 5.383-3.889.537-.133 1.079.192 1.213.728s-.191 1.078-.727 1.212c-.079.021-3.031.808-4.091 2.865-.177.345-.527.542-.89.542z" fill="#e1e1e3"/></g></g><path d="m43 17.04c0-.48-.342-.893-.814-.982-3.444-.653-7.347-1.058-10.186-1.058s-6.742.405-10.186 1.058c-.472.089-.814.502-.814.982v8.96c0 4.011 2.709 7.095 4.323 8.576 2.226 2.048 4.91 3.424 6.677 3.424 1.795 0 4.479-1.364 6.68-3.396 1.613-1.495 4.32-4.601 4.32-8.604z" fill="#f5e0cd"/><path d="m36.921 7.394c-1.555-.261-3.235-.391-4.904-.392v-.001c-.003 0-.005 0-.008 0s-.005 0-.008 0v.001c-1.67.001-3.349.13-4.904.392-8.558 1.423-10.097 5.212-10.097 5.606v6.351l1.299-.396c1.038-.325 2.346-.639 3.887-.932 3.331-.631 7.091-1.023 9.814-1.023h.016c2.723 0 6.483.392 9.814 1.022 1.541.293 2.85.607 3.887.932l1.299.396v-6.35c0-.394-1.539-4.183-10.095-5.606z" fill="#d8d8da"/><g><g><path d="m51.56 24.04c-.05.15-.1.3-.16.45h-.01c-.87.46-1.85.71-2.93.76.55-.47.96-1.09 1.19-1.8.74-2.35-.67-5.06-1.36-5.74-.39-.39-.39-1.03 0-1.42s1.03-.39 1.42 0c1.1 1.11 2.84 4.62 1.85 7.75z" fill="#e1e1e3"/></g></g></g></svg>