<svg id="Layer_1" enable-background="new 0 0 64 64" height="512" viewBox="0 0 64 64" width="512" xmlns="http://www.w3.org/2000/svg"><g><path d="m50.37 18.69c-7.02-2.35-11.67 1.7-16 10.86-6.31 11.62-12.62 16.54-18.93 17.02-4.41 1.18-9.92.6-15.43 0 5.01 5.22 13.58 9.03 29.55 6.82 15.31-1.79 27.76-16.99 26.44-27.16-.35-3.53-2.17-6.07-5.63-7.54z" fill="#e04626"/><path d="m56.66 19.62c.68-.61.75-1.24.63-1.86-.07-.36-.21-.72-.42-1.02-.18-.27-.39-.49-.6-.69.02-.02.03-.04.05-.06 1.03-1.66 4.29-5.73 6.86-4.66.3.12.64-.02.76-.32s-.02-.64-.32-.76c-4.01-1.66-8.13 4.84-8.3 5.12v.01c-.21-.11-.4-.19-.58-.25-.51-.18-1.07-.24-1.6-.11-.53.12-1.01.43-1.32 1.16-1.69 3.52-3.7 3.88-6.04 2.27.75 2.59 2.64 3.48 5.88 2.74.35 3.3 2.13 5.03 4.82 4.9-2.28-1.71-2.59-3.73.18-6.47z" fill="#7bc258"/><path d="m40.77 25.01c.54-.93 1.47-1.59 2.54-1.69.92-.09 1.8.24 1.59 1.88 0 0-1.69 8-10.61 16.25-2.45 2.27-5.45 3.93-8.71 4.65-1.66.36-3.44.49-4.95.02 0 0 4.45-.1 8.37-3.72 6.2-5.72 9.72-13.88 11.77-17.39z" fill="#f1f4f8" opacity=".5"/></g></svg>