<svg id="color_copy" height="512" viewBox="0 0 256 256" width="512" xmlns="http://www.w3.org/2000/svg" data-name="color copy"><path d="m192.8546 72.1507a65.15 65.15 0 0 0 -7.7783-39.7507 6.1193 6.1193 0 0 0 -8.8184-2.0711l-.176.1216a6.1408 6.1408 0 0 0 -1.5944 8.436c7.0522 10.8239 10.4736 27.1849 8.3 44.8868-1.3713 11.17-2.6952 20.3589-7.3972 28.5122 8.7514-8.9455 15.4032-23.3468 17.4643-40.1348z" fill="#276e04"/><ellipse cx="182.87" cy="98.568" fill="#276e04" rx="14.604" ry="15.047" transform="matrix(.122 -.993 .993 .122 62.753 268.065)"/><path d="m181.6564 93.9391a21.57 21.57 0 0 0 -23.6046 15.69c-7.5893 28.1045-28.1449 58.2413-58.7417 82.1469-19.7628 15.4411-41.0346 26.1865-61.4646 32.014-5.5511 1.5833-4.8074 9.6648.9448 10.1488 31.0762 2.6147 69.8609-10.0489 104.1128-36.81 27.8426-21.7537 47.3713-48.6675 56.3806-74.5143a21.6574 21.6574 0 0 0 -17.6272-28.6746z" fill="#3f9109"/><path d="m215.2267 180.702a64.33 64.33 0 0 0 21.8993-33.4664 6.0423 6.0423 0 0 0 -4.8074-7.5426l-.2082-.0354a6.0636 6.0636 0 0 0 -6.942 4.8656c-2.4744 12.5137-11.3325 26.44-25.07 37.4577-8.6687 6.9524-15.9384 12.5368-24.8827 15.0605 12.3532-.2933 26.9824-5.8903 40.011-16.3394z" fill="#276e04"/><ellipse cx="200.337" cy="187.275" fill="#276e04" rx="14.42" ry="14.857" transform="matrix(.78 -.626 .626 .78 -73.115 166.522)"/><path d="m203.0177 183.6044a21.4134 21.4134 0 0 0 -28.2958-4.7347c-21.5514 13.715-48.4042 19.7978-85.6494 15.7056-25.451-2.7964-44.1754-7.8563-60.7776-17.1589a4.76 4.76 0 0 0 -6.24 6.893c16.9 23.5226 46.5479 40.047 90.6025 44.8874 34.5343 3.7944 62.0613-1.5925 83.7993-13.4911a21.4225 21.4225 0 0 0 6.5614-32.1012z" fill="#d9311b"/></svg>