<svg height="433pt" viewBox="0 0 433.65822 433" width="433pt" xmlns="http://www.w3.org/2000/svg"><path d="m183.976562 235.484375-183.976562-183.976563 51.175781-51.175781 183.980469 183.976563c10.386719 10.378906 10.386719 27.21875 0 37.597656l-13.597656 13.601562c-10.386719 10.367188-27.210938 10.355469-37.582032-.023437zm0 0" fill="#274d59"/><path d="m224.917969 295.550781 70.304687-70.304687 18.488282 18.488281-70.308594 70.304687zm0 0" fill="#d36c4f"/><path d="m234.164062 304.800781 70.304688-70.304687 9.242188 9.242187-70.304688 70.304688zm0 0" fill="#c1573e"/><path d="m330.648438 292.570312-32.886719-32.886718-38.402344 38.398437 32.882813 32.914063c6.855468 6.855468 21.847656 26.238281 23.285156 35.128906 1.714844 9.242188 6.285156 17.71875 13.070312 24.226562l29.882813 29.882813c16.222656 16.652344 42.542969 17.972656 60.347656 3.03125 9.046875-7.917969 14.40625-19.226563 14.804687-31.238281.398438-12.007813-4.199218-23.648438-12.695312-32.148438l-30.9375-30.933594c-6.507812-6.785156-14.984375-11.355468-24.226562-13.070312-8.882813-1.457031-28.269532-16.449219-35.125-23.304688zm0 0" fill="#f9ad6a"/><path d="m259.355469 298.089844 38.40625-38.40625 10.625 10.625-38.40625 38.40625zm0 0" fill="#ea8c46"/><path d="m420.941406 359.863281-30.9375-30.933593c-3.292968-3.324219-7.035156-6.167969-11.117187-8.453126l-58.742188 58.738282c2.285157 4.082031 5.128907 7.828125 8.453125 11.121094l29.882813 29.882812c16.222656 16.652344 42.542969 17.972656 60.347656 3.027344 9.046875-7.914063 14.40625-19.21875 14.804687-31.230469.402344-12.011719-4.195312-23.652344-12.691406-32.152344zm0 0" fill="#d36c4f"/><path d="m420.941406 359.863281-14-14c8.496094 8.5 13.089844 20.136719 12.6875 32.148438-.398437 12.007812-5.757812 23.3125-14.800781 31.226562-17.804687 14.945313-44.125 13.625-60.347656-3.027343l14 14c16.222656 16.652343 42.542969 17.972656 60.347656 3.027343 9.042969-7.914062 14.402344-19.21875 14.800781-31.226562.402344-12.011719-4.191406-23.648438-12.6875-32.148438zm0 0" fill="#c1573e"/><path d="m344.566406 354.792969 9.898438-9.898438 48.425781 48.425781-9.898437 9.898438zm0 0" fill="#c1573e"/><g fill="#1b3c44"><path d="m235.152344 221.894531-13.597656 13.601563c-2.050782 2.039062-4.417969 3.730468-7.007813 5.007812l32.710937 32.710938 25.597657-25.597656-32.710938-32.714844c-1.273437 2.589844-2.957031 4.949218-4.992187 6.992187zm0 0"/><path d="m0 51.507812 51.175781-51.179687 17.183594 17.179687-51.179687 51.179688zm0 0"/><path d="m37.816406 48.046875 9.898438-9.898437 144.507812 144.503906-9.898437 9.902344zm0 0"/></g></svg>