<svg xmlns="http://www.w3.org/2000/svg" height="512pt" version="1.1" viewBox="-141 0 512 512.00091" width="512pt">
<g id="surface1">
<path d="M 114.757812 450.207031 C 124.511719 450.207031 132.414062 458.113281 132.414062 467.863281 C 132.414062 477.613281 124.511719 485.519531 114.757812 485.519531 L 114.757812 512 L 123.585938 512 C 143.089844 512 158.898438 496.191406 158.898438 476.691406 L 158.898438 335.449219 L 114.757812 335.449219 Z M 114.757812 450.207031 " style=" stroke:none;fill-rule:nonzero;fill:rgb(61.176471%,45.882353%,34.509804%);fill-opacity:1;" />
<path d="M 97.105469 467.863281 C 97.105469 458.113281 105.007812 450.207031 114.757812 450.207031 L 114.757812 335.449219 L 70.621094 335.449219 L 70.621094 476.691406 C 70.621094 496.191406 86.429688 512 105.929688 512 L 114.757812 512 L 114.757812 485.515625 C 105.007812 485.515625 97.105469 477.613281 97.105469 467.863281 Z M 97.105469 467.863281 " style=" stroke:none;fill-rule:nonzero;fill:rgb(54.509804%,36.862745%,23.529412%);fill-opacity:1;" />
<path d="M 97.105469 467.863281 C 97.105469 477.613281 105.007812 485.519531 114.757812 485.519531 L 114.757812 450.207031 C 105.007812 450.207031 97.105469 458.113281 97.105469 467.863281 Z M 97.105469 467.863281 " style=" stroke:none;fill-rule:nonzero;fill:rgb(76.862745%,60.392157%,42.352941%);fill-opacity:1;" />
<path d="M 132.414062 467.863281 C 132.414062 458.113281 124.511719 450.207031 114.757812 450.207031 L 114.757812 485.515625 C 124.511719 485.515625 132.414062 477.613281 132.414062 467.863281 Z M 132.414062 467.863281 " style=" stroke:none;fill-rule:nonzero;fill:rgb(80%,65.882353%,50.588235%);fill-opacity:1;" />
<path d="M 114.757812 0 L 114.757812 35.308594 L 228.414062 35.308594 L 229.519531 0 Z M 114.757812 0 " style=" stroke:none;fill-rule:nonzero;fill:rgb(72.156863%,71.764706%,73.72549%);fill-opacity:1;" />
<path d="M 114.757812 0 L 0 0 L 1.105469 35.308594 L 114.757812 35.308594 Z M 114.757812 0 " style=" stroke:none;fill-rule:nonzero;fill:rgb(67.45098%,67.058824%,69.411765%);fill-opacity:1;" />
<path d="M 114.757812 35.308594 L 1.105469 35.308594 L 6.402344 204.632812 C 7.949219 254.226562 30.296875 300.878906 67.972656 333.171875 L 70.621094 335.449219 L 114.757812 335.449219 Z M 114.757812 35.308594 " style=" stroke:none;fill-rule:nonzero;fill:rgb(87.843137%,87.843137%,88.627451%);fill-opacity:1;" />
<path d="M 114.757812 335.449219 L 158.898438 335.449219 L 161.546875 333.171875 C 199.222656 300.882812 221.570312 254.226562 223.117188 204.632812 L 228.414062 35.3125 L 114.757812 35.3125 Z M 114.757812 335.449219 " style=" stroke:none;fill-rule:nonzero;fill:rgb(91.372549%,91.372549%,91.764706%);fill-opacity:1;" />
</g>
</svg>