<svg id="Layer_1" enable-background="new 0 0 55 55" height="512" viewBox="0 0 55 55" width="512" xmlns="http://www.w3.org/2000/svg"><g id="_x31_41"><g><g><path d="m51.5017548 26.6992893-.0099488 4.7600098-23.920042 13.8999615-24.070008-13.8999615v-4.710022l.0100097-.0100098 1.8699949-4.2299804 10.0900269-5.8599854 1.0700082.6199951.7799683-1.7600107 10.0900268-5.8699951 10.1699811 5.8699951.7700195 1.7399912 1.1099853-.6499634 10.1599732 5.8699952z" fill="#8a4852"/></g></g><g><g><g><g><g enable-background="new"><g><g><path d="m51.5028992 26.7016983-.0120392 4.7590179-23.9186363 13.8999939.0062408-4.716793z" fill="#bf7d5a"/></g></g><g><g><path d="m27.5784645 40.6439171-.0062408 4.716793-24.0751219-13.8997783.0062408-4.7167912z" fill="#8a4852"/></g></g><g><g><path d="m51.5028992 26.7016983-23.9244347 13.9422188-24.0751219-13.8997765 23.9186392-13.8999939z" fill="#dba660"/></g></g></g></g><g><g><g><g><g enable-background="new"><g><g><path d="m37.5788803 15.5102777-10.0961628 5.8672476-10.1622124-5.867157 10.0961609-5.8672475z" fill="#bf7d5a"/></g></g></g></g><g><path d="m39.4567223 19.7468338-1.877842-4.2365561-10.0961628 5.8672476.0061226 5.3242817z" fill="#8a4852"/></g><g><path d="m27.4827175 21.3775253-10.1622124-5.867157-1.877841 4.2365742 12.046176 6.9548645z" fill="#aa6256"/></g></g><g><g><g enable-background="new"><g><g><path d="m49.6250572 22.4651413-10.0961609 5.8672485-10.1622142-5.867157 10.0961627-5.8672485z" fill="#bf7d5a"/></g></g></g></g><g><path d="m51.5028992 26.7016983-1.877842-4.236557-10.0961609 5.8672485.0158615 5.3380432z" fill="#8a4852"/></g><g><path d="m39.5288963 28.3323898-10.1622142-5.867157-1.877842 4.2365742 12.0559177 6.968626z" fill="#aa6256"/></g></g></g><g><g><g><g enable-background="new"><g><g><path d="m25.6358891 22.5131931-10.0961619 5.8672486-10.1622133-5.867157 10.0961618-5.8672486z" fill="#bf7d5a"/></g></g></g></g><g><path d="m27.513731 26.7497501-1.8778419-4.236557-10.0961619 5.8672486.0061226 5.3242817z" fill="#8a4852"/></g><g><path d="m15.5397272 28.3804417-10.1622133-5.867157-1.877841 4.2365742 12.0461769 6.9548645z" fill="#aa6256"/></g></g><g><g><g enable-background="new"><g><g><path d="m37.6820679 29.4680576-10.0961628 5.8672467-10.1622143-5.8671551 10.0961628-5.8672485z" fill="#bf7d5a"/></g></g></g></g><g><path d="m39.5447578 33.670433-1.8626899-4.2023754-10.0961628 5.8672467.0061226 5.3242836z" fill="#8a4852"/></g><g><path d="m27.5859051 35.3353043-10.1622143-5.8671551-1.877841 4.2365742 12.0461779 6.9548645z" fill="#aa6256"/></g></g></g></g></g><g><g><g enable-background="new"><g><g><path d="m25.1716633 26.2559128c.1214485-.0789604 2.4576778-1.5978851 2.3541565-1.5305786.275177.1799088 2.465292 1.6117878 2.3410797 1.5305786l-2.4162292-1.2218018.1495209.0001831z" fill="#8a4852"/></g></g></g></g><g><g enable-background="new"><g><g><path d="m29.8668995 32.3529587c-.1214485.0789604-2.4576797 1.5978851-2.3541565 1.5305786-.2737217-.1789551-2.4621506-1.6097336-2.3410797-1.5305786l2.416214 1.2218018-.1495209-.0001831z" fill="#8a4852"/></g></g></g></g></g><g><g><g enable-background="new"><g><g><path d="m13.095046 19.3385849 2.2791443-1.4818115.0750122-.0487671.0748444.0489502 2.2662344 1.4816284-2.4162283-1.2218018.1495209.0001831z" fill="#8a4852"/></g></g></g></g><g><g enable-background="new"><g><g><path d="m17.7902813 25.4356308-2.2791433 1.4818115-.0750122.0487671-.0748597-.0489502-2.2662201-1.4816284 2.416214 1.2218018-.1495208-.0001831z" fill="#8a4852"/></g></g></g></g></g><g><g><g enable-background="new"><g><g><path d="m25.1020737 12.1013517c.1214485-.0789604 2.4576797-1.5978851 2.3541565-1.5305786.2751789.1799088 2.465292 1.6117878 2.3410797 1.5305786l-2.4162293-1.2218017.1495209.0001831z" fill="#8a4852"/></g></g></g></g><g><g enable-background="new"><g><g><path d="m29.7973099 18.1983986c-.1214485.0789604-2.4576797 1.5978851-2.3541565 1.5305786-.2737198-.178957-2.4621506-1.6097336-2.3410797-1.5305786l2.416214 1.2218018-.1495209-.0001831z" fill="#8a4852"/></g></g></g></g></g><g><g><g enable-background="new"><g><g><path d="m37.1971397 19.1165161c.1214485-.0789604 2.4576797-1.5978851 2.3541565-1.5305786.275177.1799088 2.4652901 1.6117878 2.3410797 1.5305786l-2.4162292-1.2218018.1495209.0001831z" fill="#8a4852"/></g></g></g></g><g><g enable-background="new"><g><g><path d="m41.8923759 25.213562c-.1214485.0789604-2.4576797 1.5978851-2.3541565 1.5305786-.2737236-.178957-2.4621506-1.6097336-2.3410797-1.5305786l2.416214 1.2218018-.1495209-.0001831z" fill="#8a4852"/></g></g></g></g></g></g><g><path d="m35.8242645 18.1983871c-1.2486534 0-2.2589417 1.0102882-2.2589417 2.2589417 0-1.2488575-1.0098686-2.2589417-2.2589264-2.2589417 1.248848 0 2.2589264-1.0098877 2.2589264-2.2589207.0000001 1.2488309 1.009903 2.2589207 2.2589417 2.2589207z" fill="#fff"/></g></g></g></svg>