<?xml version="1.0" encoding="iso-8859-1"?>
<!-- Generator: Adobe Illustrator 19.0.0, SVG Export Plug-In . SVG Version: 6.00 Build 0)  -->
<svg version="1.1" id="Capa_1" xmlns="http://www.w3.org/2000/svg" xmlns:xlink="http://www.w3.org/1999/xlink" x="0px" y="0px"
	 viewBox="0 0 512 512" style="enable-background:new 0 0 512 512;" xml:space="preserve">
<path style="fill:#FFF9C5;" d="M120.955,42.571c-10.96-4.234-23.365-2.034-32.199,5.711L0,126.095l135.762,101.481l135.762,3.149
	l78.342-99.718L120.955,42.571z"/>
<path style="fill:#B3674F;" d="M420.696,98.617c-13.289-6.327-28.681-6.529-42.132-0.551l-123.115,54.712l27.996,65.707
	l84.247,36.305l119.509-63.06L512,142.089L420.696,98.617z"/>
<path style="fill:#804A39;" d="M367.692,206.219l-44.645,29.33v99.401l44.645,41.042l123.886-55.055
	C503.996,315.419,512,303.105,512,289.516V142.089L367.692,206.219z"/>
<polygon style="fill:#995844;" points="255.449,322.551 367.692,375.992 367.692,206.219 255.449,152.777 "/>
<path style="fill:#FFF9C5;" d="M368.084,182.983c-7.394,0-16.072-2.815-23.01-5.694c-4.766-1.977-20.749-9.096-26.331-17.716
	c-2.32-3.581-1.297-8.365,2.284-10.685c3.582-2.32,8.366-1.297,10.686,2.284c1.34,2.07,7.921,6.992,18.355,11.453
	c7.994,3.418,13.747,4.654,16.974,4.899c-6.05-13.759-6.208-23.921-0.466-30.208c4.523-4.951,11.774-6.196,19.9-3.414
	c1.682,0.576,3.37,1.343,5.306,2.415c16.627,9.192,22.697,7.806,23.644,7.48c0.425-1.627-0.479-9.462-12.269-23.563
	c-2.737-3.274-2.301-8.147,0.971-10.884c3.274-2.737,8.147-2.302,10.883,0.971c15.395,18.412,19.896,34.222,12.348,43.372
	c-5.156,6.251-16.812,10.655-43.054-3.853c-1.128-0.623-2.028-1.043-2.836-1.319c-1.762-0.603-2.932-0.66-3.483-0.607
	c-0.244,1.028-0.626,4.831,3.375,13.783c4.498,10.062,0.671,16.596-4.41,19.356C374.432,182.421,371.385,182.983,368.084,182.983z"
	/>
<path style="fill:#E6E0B1;" d="M271.525,329.057l-251.645-96.97C7.901,227.472,0,215.96,0,203.123v-77.028l271.525,104.629V329.057z
	"/>
<g>
	<path style="fill:#734233;" d="M194.37,186.221c-6.49,0-12.879-1.541-16.175-7.119c-6.648-11.252,7.169-26.764,21.562-40.455
		c6.362-6.052,12.983-12.584,17.879-20.022c1.49-2.263,2.325-4.17,2.731-5.45c-7.971-0.519-16.896,5.113-25.388,10.961
		c-4.013,2.763-7.837,5.741-11.885,8.894c-6.03,4.695-12.264,9.55-19.176,13.639c-13.154,7.782-32.21,17.296-45.737,10.103
		c-4.286-2.279-6.91-6.007-7.393-10.498c-0.919-8.567,6.048-18.631,22.591-32.632l0.542-0.459
		c10.302-8.783,16.749-15.18,20.774-19.68c-6.74,3.034-16.809,8.466-30.914,17.822c-12.881,8.545-24.544,14.971-33.727,18.582
		c-5.03,1.978-18.39,7.233-24.79-1.111c-6.108-7.96,1.019-19.008,7.91-27.744c8.521-10.802,22.391-24.709,41.224-41.333
		c3.199-2.824,8.081-2.52,10.905,0.679c2.824,3.199,2.52,8.082-0.679,10.905c-28.859,25.476-39.7,39.01-43.767,45.489
		c6.13-1.966,17.25-6.981,34.382-18.345c13.717-9.1,25.871-15.987,35.15-19.921c5.459-2.315,18.246-7.735,24.264,0.25
		c5.751,7.632-2.156,17.465-5.133,21.166c-5.422,6.742-14.025,15.152-25.571,24.996l-0.585,0.497
		c-12.224,10.345-15.764,15.865-16.788,18.131c3.238,0.887,11.245,0.585,29.477-10.2c6.064-3.587,11.642-7.931,17.549-12.531
		c4.047-3.151,8.23-6.409,12.616-9.428c8.344-5.745,22.31-15.363,37.054-13.471c7.447,0.956,10.484,5.291,11.632,7.79
		c3.477,7.572-1.238,16.654-4.358,21.393c-5.795,8.802-13.433,16.343-20.136,22.721c-12.392,11.788-16.484,18.064-17.833,20.88
		c4.588,0.382,14.482-1.234,22.9-3.902c4.067-1.289,8.41,0.964,9.7,5.031c1.289,4.068-0.964,8.41-5.031,9.699
		c-0.31,0.098-7.695,2.424-15.811,3.742C201.28,185.787,197.81,186.22,194.37,186.221z"/>
	<path style="fill:#734233;" d="M392.366,373.172c-8.13-59.106-36.887-156.652-131.221-156.652s-123.091,97.548-131.221,156.652
		c-5.336,38.796,17.836,76.048,55.079,88.155c18.75,6.096,43.499,10.224,76.143,10.224s57.393-4.129,76.143-10.224
		C374.53,449.22,397.702,411.967,392.366,373.172z"/>
</g>
<path style="fill:#663B2D;" d="M286.899,464.34c-32.644,0-57.393-4.129-76.143-10.224c-37.242-12.107-60.415-49.36-55.079-88.155
	c6.675-48.522,27.26-122.936,86.604-148.036c-79.388,12.088-104.798,100.283-112.359,155.247
	c-5.336,38.796,17.836,76.048,55.079,88.155c18.75,6.096,43.499,10.224,76.143,10.224c32.644,0,57.393-4.129,76.143-10.224
	c1.774-0.577,3.505-1.228,5.214-1.916C327.135,462.475,308.802,464.34,286.899,464.34z"/>
<path style="fill:#FFF9C5;" d="M252.866,444.901c-40.781,0-73.959-33.178-73.959-73.959c0-33.477,27.236-60.713,60.713-60.713
	c27.634,0,50.115,22.482,50.115,50.115c0,22.959-18.678,41.638-41.638,41.638c-19.219,0-34.855-15.636-34.855-34.855
	c0-4.267,3.459-7.726,7.726-7.726c4.267,0,7.726,3.459,7.726,7.726c0,10.698,8.704,19.402,19.402,19.402
	c14.439,0,26.185-11.746,26.185-26.185c0-19.113-15.55-34.663-34.663-34.663c-24.957,0-45.26,20.304-45.26,45.26
	c0,32.26,26.246,58.506,58.506,58.506c41.391,0,75.064-33.674,75.064-75.064c0-52.803-42.959-95.762-95.763-95.762
	c-4.267,0-7.726-3.459-7.726-7.726c0-4.267,3.459-7.726,7.726-7.726c61.324,0,111.215,49.891,111.215,111.214
	C343.383,404.295,302.777,444.901,252.866,444.901z"/>
<g>
</g>
<g>
</g>
<g>
</g>
<g>
</g>
<g>
</g>
<g>
</g>
<g>
</g>
<g>
</g>
<g>
</g>
<g>
</g>
<g>
</g>
<g>
</g>
<g>
</g>
<g>
</g>
<g>
</g>
</svg>
