<svg height="512" viewBox="0 0 512 512" width="512" xmlns="http://www.w3.org/2000/svg"><g id="flat"><path d="m304 184 56 24 48-8 8 24-45.162 12.9a50 50 0 0 1 -21.956 1.244l-36.882-6.144z" fill="#fbb540"/><path d="m120.008 208a8 8 0 0 1 -6.868-3.885l-3.317-5.53a130.119 130.119 0 0 1 -17.783-79.385 8 8 0 0 1 15.92 1.592 114.031 114.031 0 0 0 15.582 69.558l3.318 5.53a8 8 0 0 1 -6.852 12.12z" fill="#cbcbcb"/><path d="m120 208a8.007 8.007 0 0 1 -7.7-10.2l12.9-45.161a129.607 129.607 0 0 1 8.675-22.3l10.959-21.918a8 8 0 0 1 14.31 7.156l-10.944 21.923a113.515 113.515 0 0 0 -7.6 19.542l-12.9 45.161a8 8 0 0 1 -7.7 5.797z" fill="#dbdbdb"/><path d="m408 208a7.972 7.972 0 0 1 -5.555-2.244l-4.232-4.084a90.4 90.4 0 0 1 -27.332-74.472 8 8 0 0 1 15.919 1.6 74.493 74.493 0 0 0 22.521 61.363l4.233 4.085a8 8 0 0 1 -5.554 13.752z" fill="#cbcbcb"/><path d="m406.846 208h-.2a8 8 0 0 1 -7.805-8.191l.654-27.066a91.2 91.2 0 0 1 11.94-42.892l12.465-21.818a8 8 0 1 1 13.894 7.934l-12.457 21.816a75.145 75.145 0 0 0 -9.839 35.344l-.654 27.066a8 8 0 0 1 -7.998 7.807z" fill="#dbdbdb"/><path d="m295.25 113.117a32 32 0 0 0 -62.5 0 24 24 0 1 0 25.577 38.372 31.746 31.746 0 0 0 11.346 0 24 24 0 1 0 25.577-38.372z" fill="#89b140"/><path d="m232 184-64 48-24-32-16 24 18.9 28.357a28 28 0 0 0 34.67 10.055l50.43-22.412z" fill="#4799cf"/><path d="m272 184h-40v38.86a191.317 191.317 0 0 1 -11.146 64.349l-22.915 64.161a66 66 0 0 0 -2.78 34l7.023 38.63h45.818l8-32 24-56z" fill="#fbb540"/><path d="m280 336 32 32-4 16 37.6 16 19.118-31.864a48 48 0 0 0 -7.218-58.636l-29.5-29.5-24-96h-32z" fill="#4799cf"/><path d="m202.182 424 5.818 32h-8a32 32 0 0 0 -32 32h64l16-64z" fill="#dc4d41"/><circle cx="128" cy="208" fill="#eeb58e" r="24"/><circle cx="416" cy="208" fill="#eeb58e" r="24"/><path d="m56 68a56 56 0 0 0 22.4 44.8 36 36 0 0 0 21.6 7.2 36 36 0 0 0 21.6-7.2 56 56 0 0 0 22.4-44.8 44 44 0 0 0 -44-44 44 44 0 0 0 -44 44z" fill="#6cbae5"/><path d="m32.225 133.615a56 56 0 0 0 44.291 23.39 36.007 36.007 0 0 0 21.755-6.718 36 36 0 0 0 13.373-18.428 56 56 0 0 0 -7.863-49.467 44 44 0 0 0 -61.389-10.167 44 44 0 0 0 -10.167 61.39z" fill="#dc4d41"/><path d="m122.992 55.557a56 56 0 0 0 8.62 49.34 36 36 0 0 0 18.63 13.089 36 36 0 0 0 22.758-.707 56 56 0 0 0 34.3-36.5 44 44 0 0 0 -29.542-54.765 44 44 0 0 0 -54.766 29.543z" fill="#ffb1b5"/><path d="m334.842 76a56 56 0 0 0 22.4 44.8 36 36 0 0 0 21.6 7.2 36 36 0 0 0 21.6-7.2 56 56 0 0 0 22.4-44.8 44 44 0 0 0 -44-44 44 44 0 0 0 -44 44z" fill="#d970a2"/><path d="m401.834 56.06a56 56 0 0 0 8.62 49.341 36.01 36.01 0 0 0 18.63 13.089 36.009 36.009 0 0 0 22.758-.707 56 56 0 0 0 34.3-36.5 44 44 0 0 0 -29.542-54.766 44 44 0 0 0 -54.766 29.543z" fill="#ea9d2d"/><path d="m328 400a8.006 8.006 0 0 1 -7.59-10.532l10.39-31.168a16.589 16.589 0 0 0 -5.792-18.54 66.18 66.18 0 0 1 -25.221-40.018l-19.634-98.17a8 8 0 0 1 15.69-3.138l19.634 98.17a50.2 50.2 0 0 0 19.131 30.357 32.565 32.565 0 0 1 11.37 36.4l-10.389 31.169a8 8 0 0 1 -7.589 5.47z" fill="#3775a4"/><circle cx="224" cy="392" fill="#c38325" r="8"/><circle cx="248" cy="344" fill="#89b140" r="8"/><circle cx="240" cy="312" fill="#f55648" r="8"/><circle cx="224" cy="360" fill="#f55648" r="8"/><circle cx="256" cy="288" fill="#89b140" r="8"/><circle cx="248" cy="256" fill="#c38325" r="8"/><path d="m308 384-12 48 48 40 5.615-5.615a26 26 0 0 0 0-36.77l-13.615-13.615 9.6-16z" fill="#dc4d41"/><path d="m232 184 40 32 32-32z" fill="#e4e4e2"/><path d="m240 136h48a0 0 0 0 1 0 0v24a24 24 0 0 1 -24 24 24 24 0 0 1 -24-24v-24a0 0 0 0 1 0 0z" fill="#eeb58e"/><circle cx="264" cy="160" fill="#dc4d41" r="8"/></g></svg>