<?xml version="1.0" encoding="iso-8859-1"?>
<!-- Generator: Adobe Illustrator 19.0.0, SVG Export Plug-In . SVG Version: 6.00 Build 0)  -->
<svg version="1.1" id="Capa_1" xmlns="http://www.w3.org/2000/svg" xmlns:xlink="http://www.w3.org/1999/xlink" x="0px" y="0px"
	 viewBox="0 0 511.999 511.999" style="enable-background:new 0 0 511.999 511.999;" xml:space="preserve">
<circle style="fill:#ECF1F7;" cx="256" cy="269.41" r="183.13"/>
<path style="fill:#DCDEE0;" d="M439.13,269.413c0,101.14-81.991,183.131-183.131,183.131c-41.156,0-79.133-13.577-109.703-36.482
	c22.791,10.183,48.047,15.847,74.625,15.847c101.14,0,183.131-81.991,183.131-183.131c0-59.995-28.847-113.242-73.428-146.649
	C394.57,130.698,439.13,194.85,439.13,269.413z"/>
<circle style="fill:#E84661;" cx="256" cy="286.96" r="54.909"/>
<path style="fill:#CE1D4C;" d="M310.908,286.963c0,30.322-24.586,54.908-54.908,54.908c-18.261,0-34.439-8.914-44.416-22.636
	c7.016,3.27,14.847,5.086,23.09,5.086c30.333,0,54.908-24.586,54.908-54.908c0-12.061-3.89-23.214-10.482-32.272
	C297.887,245.859,310.908,264.884,310.908,286.963z"/>
<path style="fill:#00DDC2;" d="M363.222,289.43c-4.216-0.7-8.203,2.144-8.906,6.36c-3.834,22.985-15.759,44.033-33.579,59.268
	c-18.013,15.4-41.004,23.881-64.738,23.881s-46.725-8.481-64.738-23.881c-17.82-15.235-29.745-36.284-33.579-59.269
	c-0.704-4.216-4.696-7.058-8.906-6.36c-4.216,0.703-7.062,4.691-6.36,8.906c4.432,26.568,18.207,50.89,38.787,68.486
	c20.813,17.794,47.376,27.594,74.795,27.594s53.982-9.8,74.795-27.594c20.581-17.595,34.356-41.917,38.787-68.485
	C370.284,294.12,367.438,290.133,363.222,289.43z"/>
<g>
	<path style="fill:#5E6C70;" d="M154.063,228.042h13.77v13.769c0,4.273,3.464,7.738,7.738,7.738c4.273,0,7.738-3.464,7.738-7.738
		v-13.769h13.769c4.273,0,7.738-3.464,7.738-7.738s-3.464-7.738-7.738-7.738h-13.769v-13.77c0-4.273-3.464-7.738-7.738-7.738
		c-4.273,0-7.738,3.464-7.738,7.738v13.77h-13.77c-4.273,0-7.738,3.464-7.738,7.738S149.789,228.042,154.063,228.042z"/>
	<path style="fill:#5E6C70;" d="M314.921,228.042h13.769v13.769c0,4.273,3.464,7.738,7.738,7.738c4.273,0,7.738-3.464,7.738-7.738
		v-13.769h13.77c4.273,0,7.738-3.464,7.738-7.738s-3.464-7.738-7.738-7.738h-13.77v-13.77c0-4.273-3.464-7.738-7.738-7.738
		c-4.273,0-7.738,3.464-7.738,7.738v13.77h-13.769c-4.273,0-7.738,3.464-7.738,7.738S310.648,228.042,314.921,228.042z"/>
</g>
<path style="fill:#00DDC2;" d="M180.599,138.558c-1.069,2.904-2.42,5.711-4.052,8.371c-5.98,9.742-15.854,17.525-26.799,21.091
	c-4.938,1.608-10.143,2.575-15.345,2.575h-0.175c-7.552-0.021-13.588,6.015-13.567,13.567v0.175c0,0.773-0.021,1.537-0.052,2.301
	c-0.236,5.821-1.411,11.597-3.693,16.967c-4.087,9.62-11.971,18.289-21.017,23.507c-3.182,1.835-6.021,3.08-9.534,4.199
	c-21.129,6.731-44.373-1.695-56.466-20.428c-5.148-7.975-8.068-17.488-7.841-27.66c0.144-6.252,1.444-12.216,3.704-17.684
	c2.425-5.871,0.64-12.659-4.571-16.281C8.026,140.097-0.465,124.693,0.02,107.329c0.732-25.927,21.893-47.098,47.82-47.851
	c16.208-0.475,30.704,6.882,40.021,18.561c4.519,5.674,12.525,6.851,18.478,2.713c8.491-5.881,18.901-9.182,30.116-8.728
	c7.511,0.31,14.619,2.332,20.913,5.674c3.564,1.893,6.893,4.17,9.882,6.886c3.126,2.84,6.353,6.639,8.66,10.181
	C184.306,107.66,185.855,124.28,180.599,138.558z"/>
<path style="fill:#00BCA1;" d="M180.58,138.551c-1.945,5.205-4.777,10.099-8.435,14.434c-5.808,6.883-14.016,12.175-22.593,15
	c-4.872,1.604-10.009,2.609-15.151,2.609c-0.001,0-0.175,0-0.175,0c-7.552-0.021-13.588,6.015-13.567,13.567v0.175
	c0,16.627-8.696,32.58-22.854,41.628c-16.648,10.64-37.231,10.348-53.719-0.722c-4.114-2.762-7.859-6.104-10.987-9.952
	c-0.765-0.941-2.18-3.949-3.201-4.408c36.41,16.373,71.777-9.832,71.777-44.302v-0.176c-0.021-7.552,6.015-13.588,13.567-13.557
	h0.175c27.888,0,50.358-23.152,49.265-51.287c-0.34-8.708-2.982-16.858-7.315-23.864c0.794,0.423,1.568,0.856,2.322,1.311
	c8.268,4.987,15.101,12.503,19.252,21.201C184.622,112.108,185.205,126.177,180.58,138.551z"/>
<path style="fill:#00DDC2;" d="M375.548,72.028c11.209-0.455,21.625,2.838,30.107,8.724c5.957,4.134,13.962,2.955,18.483-2.714
	c9.313-11.677,23.815-19.031,40.02-18.56c25.925,0.753,47.084,21.928,47.818,47.854c0.492,17.363-8,32.769-21.165,41.925
	c-5.214,3.626-6.996,10.412-4.573,16.283c2.257,5.468,3.559,11.431,3.698,17.682c0.624,28.113-22.908,51.355-51.012,50.392
	c-26.435-0.905-47.588-22.621-47.588-49.276c0-0.058,0-0.117,0-0.175c0.026-7.555-6.01-13.591-13.564-13.564
	c-0.058,0-0.117,0-0.175,0c-27.885,0-50.364-23.149-49.267-51.279C329.326,93.825,350.054,73.063,375.548,72.028z"/>
<path style="fill:#00BCA1;" d="M511.98,107.329c0.485,17.364-8.006,32.767-21.171,41.929c-5.21,3.621-6.995,10.41-4.571,16.281
	c2.26,5.468,3.559,11.431,3.694,17.684c0.629,28.114-22.904,51.349-51.008,50.389c-13.082-0.454-24.875-5.994-33.459-14.723
	c3.24,0.794,6.613,1.269,10.069,1.382c28.104,0.97,51.638-22.275,51.019-50.389c-0.145-6.252-1.445-12.216-3.704-17.684
	c-2.424-5.871-0.64-12.649,4.581-16.281c13.165-9.151,21.656-24.565,21.161-41.919c-0.371-12.845-5.747-24.534-14.238-33.139
	C495.421,66.029,511.351,84.899,511.98,107.329z"/>
<g>
</g>
<g>
</g>
<g>
</g>
<g>
</g>
<g>
</g>
<g>
</g>
<g>
</g>
<g>
</g>
<g>
</g>
<g>
</g>
<g>
</g>
<g>
</g>
<g>
</g>
<g>
</g>
<g>
</g>
</svg>
