<?xml version="1.0" encoding="iso-8859-1"?>
<!-- Generator: Adobe Illustrator 19.0.0, SVG Export Plug-In . SVG Version: 6.00 Build 0)  -->
<svg version="1.1" id="Layer_1" xmlns="http://www.w3.org/2000/svg" xmlns:xlink="http://www.w3.org/1999/xlink" x="0px" y="0px"
	 viewBox="0 0 511.998 511.998" style="enable-background:new 0 0 511.998 511.998;" xml:space="preserve">
<path style="fill:#D7DBDB;" d="M256,511.727c-90.462,0-176.974-38.688-237.356-106.144c-26.941-30.098-24.382-76.34,5.716-103.281
	c30.098-26.944,76.338-24.381,103.281,5.716c32.666,36.494,79.45,57.423,128.358,57.423s95.692-20.93,128.358-57.423
	c26.94-30.1,73.182-32.66,103.281-5.716c30.099,26.941,32.658,73.183,5.716,103.281C432.975,473.039,346.462,511.727,256,511.727z"
	/>
<g>
	<path style="fill:#FF3B33;" d="M256,447.025c-72.082,0-141.022-30.834-189.145-84.595c-3.109-3.473-2.814-8.809,0.659-11.917
		c3.473-3.109,8.809-2.813,11.917,0.659c44.925,50.188,109.282,78.973,176.569,78.973s131.643-28.784,176.569-78.973
		c3.106-3.473,8.442-3.77,11.917-0.659c3.474,3.109,3.769,8.444,0.659,11.917C397.024,416.191,328.082,447.025,256,447.025z"/>
	<circle style="fill:#FF3B33;" cx="256" cy="191.881" r="94.793"/>
</g>
<g>
	<path style="fill:#FF8985;" d="M212.303,183.439c-4.653,0-8.44,3.787-8.44,8.44c0,4.653,3.787,8.44,8.44,8.44s8.44-3.787,8.44-8.44
		C220.742,187.225,216.957,183.439,212.303,183.439z"/>
	<path style="fill:#FF8985;" d="M246.061,207.069c-4.653,0-8.44,3.787-8.44,8.44s3.787,8.44,8.44,8.44c4.653,0,8.44-3.787,8.44-8.44
		S250.715,207.069,246.061,207.069z"/>
</g>
<g>
	<path style="fill:#39494C;" d="M439.623,8.711c0-4.661-3.778-8.44-8.44-8.44c-4.662,0-8.44,3.779-8.44,8.44v42.198h16.879V8.711z"
		/>
	<path style="fill:#39494C;" d="M422.744,109.985c0,4.661,3.778,8.44,8.44,8.44c4.662,0,8.44-3.779,8.44-8.44V67.788h-16.879
		V109.985z"/>
	<path style="fill:#39494C;" d="M380.546,50.909c-4.662,0-8.44,3.779-8.44,8.44s3.778,8.44,8.44,8.44h42.198V50.909H380.546z"/>
	<path style="fill:#39494C;" d="M481.821,50.909h-42.198v16.879h42.198c4.662,0,8.44-3.779,8.44-8.44S486.483,50.909,481.821,50.909
		z"/>
	<rect x="422.743" y="50.906" style="fill:#39494C;" width="16.879" height="16.879"/>
	<path style="fill:#39494C;" d="M134.604,50.909H92.406V8.711c0-4.661-3.778-8.44-8.44-8.44c-4.662,0-8.44,3.779-8.44,8.44v42.198
		H33.329c-4.662,0-8.44,3.779-8.44,8.44s3.778,8.44,8.44,8.44h42.198v42.198c0,4.661,3.778,8.44,8.44,8.44
		c4.662,0,8.44-3.779,8.44-8.44V67.788h42.198c4.662,0,8.44-3.779,8.44-8.44S139.264,50.909,134.604,50.909z"/>
</g>
<g>
</g>
<g>
</g>
<g>
</g>
<g>
</g>
<g>
</g>
<g>
</g>
<g>
</g>
<g>
</g>
<g>
</g>
<g>
</g>
<g>
</g>
<g>
</g>
<g>
</g>
<g>
</g>
<g>
</g>
</svg>
