<?xml version="1.0" encoding="iso-8859-1"?>
<!-- Generator: Adobe Illustrator 19.0.0, SVG Export Plug-In . SVG Version: 6.00 Build 0)  -->
<svg version="1.1" id="Capa_1" xmlns="http://www.w3.org/2000/svg" xmlns:xlink="http://www.w3.org/1999/xlink" x="0px" y="0px"
	 viewBox="0 0 511.999 511.999" style="enable-background:new 0 0 511.999 511.999;" xml:space="preserve">
<g>
	<path style="fill:#DD5B5B;" d="M37.731,184.066c-1.977,0-3.955-0.755-5.463-2.263c-3.018-3.018-3.018-7.91,0-10.928l79.38-79.38
		c3.017-3.016,7.91-3.016,10.927,0c3.018,3.018,3.018,7.91,0,10.928l-79.38,79.38C41.685,183.312,39.708,184.066,37.731,184.066z"/>
	<path style="fill:#DD5B5B;" d="M65.541,211.877c-1.977,0-3.955-0.755-5.463-2.263c-3.018-3.018-3.018-7.91,0-10.928l78.164-78.164
		c3.017-3.016,7.91-3.016,10.927,0c3.018,3.018,3.018,7.91,0,10.928l-78.164,78.164C69.496,211.122,67.518,211.877,65.541,211.877z"
		/>
	<path style="fill:#DD5B5B;" d="M93.351,239.687c-1.977,0-3.955-0.755-5.463-2.263c-3.018-3.018-3.018-7.91,0-10.928l76.379-76.378
		c3.017-3.016,7.91-3.016,10.927,0c3.018,3.018,3.018,7.91,0,10.928l-76.379,76.378C97.306,238.932,95.328,239.687,93.351,239.687z"
		/>
	<path style="fill:#DD5B5B;" d="M148.971,295.307c-1.977,0-3.955-0.755-5.463-2.263c-3.018-3.018-3.018-7.91,0-10.928l72.054-72.054
		c3.017-3.016,7.91-3.016,10.927,0c3.018,3.018,3.018,7.91,0,10.928l-72.054,72.054
		C152.926,294.553,150.949,295.307,148.971,295.307z"/>
	<path style="fill:#DD5B5B;" d="M121.161,267.497c-1.977,0-3.955-0.755-5.463-2.263c-3.018-3.018-3.018-7.91,0-10.928l74.594-74.594
		c3.018-3.017,7.91-3.015,10.927,0c3.018,3.018,3.018,7.91,0,10.928l-74.594,74.594
		C125.116,266.743,123.138,267.497,121.161,267.497z"/>
	<path style="fill:#DD5B5B;" d="M176.781,323.118c-1.977,0-3.955-0.755-5.463-2.263c-3.018-3.018-3.018-7.91,0-10.928l72.375-72.375
		c3.017-3.016,7.91-3.016,10.927,0c3.017,3.018,3.017,7.91,0,10.928l-72.375,72.375
		C180.736,322.363,178.759,323.118,176.781,323.118z"/>
</g>
<path style="fill:#F26666;" d="M150.421,39.737l16.841,17.682c50.169,52.674,98.373,107.197,144.416,163.512
	c69.561,85.079,97.651,106.286,166.485,153.94c84.981,58.833-12.292,140.563-50.566,110.852l-12.745-32.92
	c-11.308-29.208-28.577-55.741-50.706-77.906l-56.462-56.555c-13.998-9.244-36.127-3.794-47.988,8.068l-23.785,23.785
	c-6.709,6.709-17.585,6.709-24.294,0l-7.404-7.404c-1.537-1.537-1.537-4.03,0-5.567l58.826-58.827
	c4.49-4.49,4.721-11.695,0.528-16.463L101.077,77.151c-4.591-5.221-12.638-5.479-17.554-0.563l-67.167,67.167
	c-3.086,3.086-8.09,3.086-11.177,0l0,0c-5.942-5.942-6.881-15.244-2.246-22.253l48.242-72.966
	C73.746,14.398,122.196,10.102,150.421,39.737z"/>
<path style="fill:#DD5B5B;" d="M167.263,57.419l-16.841-17.682c-28.226-29.635-76.675-25.339-99.247,8.799l-9.883,14.948
	c23.271-9.568,51.44-5.02,70.447,14.935l16.841,17.682c50.169,52.674,98.373,107.197,144.416,163.512
	c69.561,85.079,97.651,106.286,166.485,153.94c34.239,23.704,38.882,51.121,29.729,73.473
	c37.359-16.423,69.662-70.127,8.953-112.156c-68.834-47.654-96.924-68.86-166.485-153.94
	C265.635,164.616,217.431,110.093,167.263,57.419z"/>
<g>
</g>
<g>
</g>
<g>
</g>
<g>
</g>
<g>
</g>
<g>
</g>
<g>
</g>
<g>
</g>
<g>
</g>
<g>
</g>
<g>
</g>
<g>
</g>
<g>
</g>
<g>
</g>
<g>
</g>
</svg>
