<svg id="Layer_1" enable-background="new 0 0 512 512" height="512" viewBox="0 0 512 512" width="512" xmlns="http://www.w3.org/2000/svg"><g><g><path d="m509.482 0c-13.993 14.415-35.089 19.757-54.174 13.358-14.144-4.742-27.886-3.226-36.256 5.395-13.587 13.996-7.871 41.418 12.768 61.248 20.638 19.83 48.384 24.559 61.971 10.563 26.972-27.784 15.691-90.564 15.691-90.564z" fill="#ffd2ac"/><g><path d="m509.482 0c-10.434 10.748-24.817 16.452-39.37 16.006 1.467 20.503.836 55.642-17.529 74.559-.807.831-1.664 1.595-2.566 2.295 16.631 8.156 33.923 7.852 43.774-2.295 26.972-27.785 15.691-90.565 15.691-90.565z" fill="#ffc594"/></g><ellipse cx="408.466" cy="104.059" fill="#ffe5cf" rx="60.935" ry="89.411" transform="matrix(.69 -.724 .724 .69 51.422 328.095)"/><path d="m450.91 60.336c-28.441-27.327-64.705-38.032-90.095-28.929 16.641 4.687 33.857 14.486 48.888 28.929 35.607 34.213 45.469 81.523 22.028 105.671-4.718 4.86-10.425 8.41-16.822 10.704 22.78 6.415 44.483 3.249 58.029-10.704 23.442-24.149 13.579-71.459-22.028-105.671z" fill="#ffdfc4"/><ellipse cx="329.856" cy="185.036" fill="#ffd2ac" rx="109.787" ry="161.094" transform="matrix(.69 -.724 .724 .69 -31.618 296.301)"/><path d="m406.329 106.26c-45.871-44.074-103.036-64.151-147.332-56.11 35.303 5.626 73.56 24.821 106.125 56.11 64.154 61.641 81.923 146.881 39.688 190.388-12.036 12.399-27.647 20.07-45.302 23.275 34.246 5.457 65.713-1.852 86.509-23.275 42.235-43.507 24.466-128.747-39.688-190.388z" fill="#ffc594"/><path d="m408.588 421.574c-58.063 59.811-272.103 137.895-360.299 53.153s-17.151-300.219 40.912-360.03 176.629-39.601 264.825 45.14 112.624 201.926 54.562 261.737z" fill="#ffe5cf"/><path d="m354.026 159.838c-60.574-58.201-135.473-85.962-195.258-78.266 50.743 5.945 106.762 32.829 154.05 78.266 88.196 84.742 112.624 201.925 54.561 261.737-36.836 37.945-136.448 83.244-226.879 89.656 99.177 7.838 225.529-45.817 268.086-89.656 58.064-59.812 33.636-176.996-54.56-261.737z" fill="#ffdfc4"/><path d="m235.32 143.166c-1.012 0-2.04-.2-3.029-.622-17.213-7.346-34.556-11.1-50.146-10.814-8.626.15-16.536 1.554-23.512 4.175-3.994 1.502-8.449-.52-9.95-4.515-1.501-3.994.521-8.449 4.516-9.95 8.633-3.244 18.282-4.98 28.678-5.161 17.76-.282 37.282 3.859 56.481 12.051 3.925 1.675 5.748 6.215 4.073 10.14-1.254 2.935-4.11 4.696-7.111 4.696z" fill="#ffd2ac"/></g><g><path d="m26.779 265.958c-27.436 109.416-12.217 198.748 32.234 209.773 21 5.208 54.097-39.547 70.74-64.605 12.245-18.436 20.583-39.26 23.824-61.154 9.637-65.089-27.518-114.453-53.957-153.797z" fill="#e68345"/></g><g fill="#ffd2ac"><path d="m81.382 123.642c2.307-2.876 3.626-4.382 3.626-4.382-1.382 1.423-2.587 2.884-3.626 4.382z"/><path d="m99.29 196.398c-18.224-30.001-30.755-54.236-17.908-72.756-12.355 15.403-53.059 70.102-71.387 143.194-24.581 98.03.583 177.128 35.911 202.679-52.858-59.577 8.962-218.354 53.384-273.117z"/></g></g></svg>