<svg id="Flat" height="512" viewBox="0 0 64 64" width="512" xmlns="http://www.w3.org/2000/svg"><g id="Color"><path d="m26.581 17h6a0 0 0 0 1 0 0v4a0 0 0 0 1 0 0h-6a2 2 0 0 1 -2-2 2 2 0 0 1 2-2z" fill="#e53935" transform="matrix(.815 .579 -.579 .815 16.29 -13.044)"/><path d="m51 44v-13a2 2 0 0 1 .8-1.6l5.2-3.9a5 5 0 0 0 2-4v-11.5a2 2 0 0 0 -2-2 2 2 0 0 0 -2 2v11.446a1 1 0 0 1 -.47.848l-5.265 3.291a6 6 0 0 0 -2.729 4.045l-2.3 13.037-1.23-6.967a13 13 0 0 0 -5.913-8.765 6.581 6.581 0 0 1 -3.093-5.583v-6.352a2 2 0 0 0 -2-2 2 2 0 0 0 -2 2v7a10 10 0 0 0 4 8l1.2.9a7 7 0 0 1 2.8 5.6v4.5h-4l-3.953-6.325a1.919 1.919 0 0 0 -2.69-.58 1.919 1.919 0 0 0 -.682 2.39 2.035 2.035 0 0 1 -.929 2.655l-.672.342a1.917 1.917 0 0 0 -.839 2.579l.075.147a1.917 1.917 0 0 0 2.579.838l2.248-1.146.531 1.167a5 5 0 0 0 4.552 2.933h3.447l-1.667 15h19z" fill="#ff7373"/><path d="m49 44 2.982 4.175-.982-4.175v-.25z" fill="#ef5350"/><path d="m29.156 38.022 1.4 2.459a5 5 0 0 0 4.344 2.519h3.1v-6.5a7 7 0 0 0 -2.8-5.6l-1.2-.9a10 10 0 0 1 -4-8v-7a2.015 2.015 0 0 1 2-2 1.987 1.987 0 0 1 1.42.6 5.661 5.661 0 0 0 -1.42 3.75v3.75a7 7 0 0 0 2.051 4.951l2.649 2.649a16.083 16.083 0 0 1 4.68 10.36l.15 2.37a8.071 8.071 0 0 0 8.06 7.57h2.59l2.82 12h-19l1.67-15h-3.45a5 5 0 0 1 -4.553-2.936l-.527-1.164-2.25 1.15a1.921 1.921 0 0 1 -2.58-.84l-.08-.15a1.881 1.881 0 0 1 .819-2.569l.7-.351a2.022 2.022 0 0 0 .92-2.66 1.969 1.969 0 0 1 -.17-.79 1.928 1.928 0 0 1 2.308-1.875 4.989 4.989 0 0 0 .349 4.207z" fill="#ef5350"/><path d="m57 12v7.5a7 7 0 0 1 -2.8 5.6l-3 2.253a7 7 0 0 0 -2.691 4.347l-.822 4.52a11.918 11.918 0 0 1 -3.452 6.446l2.3-13.037a6 6 0 0 1 2.729-4.045l5.265-3.291a1 1 0 0 0 .47-.848v-11.445a2 2 0 0 1 2-2 1.99 1.99 0 0 1 1.273.458 5.563 5.563 0 0 0 -1.272 3.542z" fill="#ef5350"/><path d="m36 27 3.414-3.414a2 2 0 0 0 .586-1.414v-3.172a2 2 0 0 1 2-2 2 2 0 0 1 2 2v3.515a6 6 0 0 1 -1.757 4.242l-3.243 3.243z" fill="#ff7373"/><path d="m49 39h3.764a2 2 0 0 0 1.789-1.106l2.507-5.015a1.856 1.856 0 0 1 2.688-.714 1.854 1.854 0 0 1 .693 2.232l-2.341 5.864a5 5 0 0 1 -4.022 3.1l-5.078.639z" fill="#ff7373"/><path d="m55.109 16.406-2.437-1.625a6 6 0 0 1 -2.672-4.992v-4.682a2.075 2.075 0 0 0 -1.664-2.08 2 2 0 0 0 -2.336 1.973v5.181l-3.508-2.151a2 2 0 0 0 -2.676.546l-.083.116a2 2 0 0 0 .462 2.782l15.805 11.368v-4.772a2 2 0 0 0 -.891-1.664z" fill="#ff7373"/><path d="m58.243 31.916a1.849 1.849 0 0 1 1.5.249 1.854 1.854 0 0 1 .693 2.232l-2.336 5.864a5 5 0 0 1 -4.022 3.1l-5.078.639 4.939-2.117a5.6 5.6 0 0 0 2.944-2.944l1.244-2.9a5.608 5.608 0 0 0 .116-4.122z" fill="#ef5350"/><path d="m41.2 9.474a1.984 1.984 0 0 1 -.814-1.431 1.985 1.985 0 0 0 -.565.533l-.083.116a2 2 0 0 0 .462 2.782l15.8 11.368v-2.719z" fill="#ef5350"/><circle cx="10" cy="15" fill="#ade8f4" r="2"/><circle cx="20" cy="22" fill="#ade8f4" r="2"/><circle cx="26" cy="7" fill="#ade8f4" r="2"/><path d="m27 8a1.992 1.992 0 0 1 -1.82-2.82 2 2 0 1 0 2.64 2.64 1.99 1.99 0 0 1 -.82.18z" fill="#48cae4"/><path d="m21 23a1.992 1.992 0 0 1 -1.82-2.82 2 2 0 1 0 2.64 2.64 1.99 1.99 0 0 1 -.82.18z" fill="#48cae4"/><path d="m11 16a1.992 1.992 0 0 1 -1.82-2.82 2 2 0 1 0 2.64 2.64 1.99 1.99 0 0 1 -.82.18z" fill="#48cae4"/><path d="m21.317 40.051a6.08 6.08 0 0 0 -5.651.949 28.344 28.344 0 0 0 -.365-3.224l.436-.725a8.894 8.894 0 0 1 5.506-4.08 1 1 0 0 0 -.485-1.94 10.862 10.862 0 0 0 -6.069 4.009c-.134-.485-.278-.968-.438-1.449a14.716 14.716 0 0 0 -1.251-2.72v-.265a5.725 5.725 0 0 1 2.555-4.774 1 1 0 0 0 -1.109-1.664 7.709 7.709 0 0 0 -3.146 4.332 14.769 14.769 0 0 0 -7.026-4.463 1 1 0 1 0 -.55 1.922 12.781 12.781 0 0 1 7.036 5.094 9.622 9.622 0 0 0 -6.077 0 1 1 0 1 0 .632 1.9 7.636 7.636 0 0 1 5.249.154l1.594.638c.062.162.139.316.195.482a26.749 26.749 0 0 1 1 4.042l-.223-.169a7.04 7.04 0 0 0 -6.446-1.047 1 1 0 1 0 .633 1.9 5.031 5.031 0 0 1 4.613.748l1.47 1.1a.986.986 0 0 0 .259.135 26.647 26.647 0 0 1 .017 3.135 8.864 8.864 0 0 0 -5.676-2.071 1 1 0 0 0 0 2 6.88 6.88 0 0 1 5.512 2.781l-.289 6.62a1 1 0 0 0 .936 1.06h.063a1 1 0 0 0 1-.937l.444-9.105c.015-.235.019-.469.028-.7 0-.005.011-.006.016-.011l.764-.764a4.09 4.09 0 0 1 4.213-.994 1 1 0 0 0 .633-1.9z" fill="#95d5b2"/><path d="m26.316 46.051a4.442 4.442 0 0 0 -5.2 1.963 7.738 7.738 0 0 0 -2.559-2.846 1 1 0 0 0 -1.11 1.664 5.724 5.724 0 0 1 2.553 4.773v4.395a1 1 0 0 0 2 0v-4.4c0-.193-.021-.382-.035-.572.153-.388.42-1.032.711-1.724a2.441 2.441 0 0 1 3.008-1.36 1 1 0 1 0 .632-1.9z" fill="#52b788"/><path d="m42 56.088a1 1 0 0 1 -1-1v-7.088a1 1 0 0 1 2 0v7.088a1 1 0 0 1 -1 1z" fill="#e53935"/><path d="m47.719 57.042a1 1 0 0 1 -.992-.881l-.72-6.043a1 1 0 0 1 1.986-.236l.72 6.042a1 1 0 0 1 -.875 1.112c-.038.004-.08.006-.119.006z" fill="#e53935"/><g fill="#ade8f4"><circle cx="20" cy="16" r="1"/><circle cx="10" cy="9" r="1"/><circle cx="8" cy="5" r="1"/><circle cx="18" cy="12" r="1"/><circle cx="31" cy="4" r="1"/></g><circle cx="16.5" cy="55.5" fill="#da9367" r="3.5"/><path d="m3 55a6 6 0 1 1 6 6h-6z" fill="#f9dbaf"/><path d="m12.5 55a5.5 5.5 0 0 1 -5.5-5.5c0-.052.006-.1.008-.154a6 6 0 0 0 -4.008 5.654v6h4.966a7.421 7.421 0 0 0 5.713-2.583 6.6 6.6 0 0 0 .47-.631 1.822 1.822 0 0 0 -1.622-2.786z" fill="#edb88e"/><path d="m46 55c-1 0-1.968.041-2.91.115a13.659 13.659 0 0 0 -10.09-4.115c-6.9 0-12.5 4.477-12.5 10h40.5c0-3.314-6.716-6-15-6z" fill="#f9dbaf"/><path d="m61 61h-40.5c0-3.95 2.87-7.38 7.04-9a3.98 3.98 0 0 0 3.46 2 13.188 13.188 0 0 1 7.33 2.22 10.61 10.61 0 0 0 5.88 1.78h4.1a13.969 13.969 0 0 1 5.19 1 13.969 13.969 0 0 0 5.19 1h2.1a2.528 2.528 0 0 1 .21 1z" fill="#edb88e"/><path d="m33 61c0-2.761-6.716-5-15-5s-15 2.239-15 5z" fill="#fcf2ad"/><path d="m33 61h-30c0-2.19 4.23-4.05 10.12-4.73 2.32 1.28 6.38 2.32 11.05 2.72a38.706 38.706 0 0 0 7.5-.05 2.694 2.694 0 0 1 1.33 2.06z" fill="#f9dbaf"/></g></svg>