<svg id="Capa_1" enable-background="new 0 0 510 510" height="512" viewBox="0 0 510 510" width="512" xmlns="http://www.w3.org/2000/svg" xmlns:xlink="http://www.w3.org/1999/xlink"><linearGradient id="lg1"><stop offset="0" stop-color="#ffdc00"/><stop offset="1" stop-color="#ffab00"/></linearGradient><linearGradient id="SVGID_1_" gradientTransform="matrix(.812 .754 -.672 .742 26.707 679.072)" gradientUnits="userSpaceOnUse" x1="-39.085" x2="-11.034" xlink:href="#lg1" y1="-523.563" y2="-495.512"/><linearGradient id="SVGID_00000178890982870271947060000003426800143823418774_" gradientTransform="matrix(.812 .754 -.672 .742 26.707 679.072)" gradientUnits="userSpaceOnUse" x1="-42.107" x2="-14.262" xlink:href="#lg1" y1="-569.593" y2="-541.749"/><linearGradient id="SVGID_00000016774994600050342970000012715964596235626421_" gradientTransform="matrix(.812 .754 -.672 .742 26.707 679.072)" gradientUnits="userSpaceOnUse" x1="-46.166" x2="-18.499" xlink:href="#lg1" y1="-615.601" y2="-587.934"/><linearGradient id="SVGID_00000142172719037080647010000004132861655266063750_" gradientTransform="matrix(.812 .754 -.672 .742 26.707 679.072)" gradientUnits="userSpaceOnUse" x1="-51.266" x2="-23.739" xlink:href="#lg1" y1="-658.449" y2="-630.921"/><linearGradient id="SVGID_00000133518719497499621580000000812119423470038456_" gradientTransform="matrix(.812 .754 -.672 .742 26.707 679.072)" gradientUnits="userSpaceOnUse" x1="-55.844" x2="-33.577" xlink:href="#lg1" y1="-697.597" y2="-675.33"/><linearGradient id="lg2"><stop offset="0" stop-color="#fea613" stop-opacity="0"/><stop offset="1" stop-color="#e94444"/></linearGradient><linearGradient id="SVGID_00000066507160615815108940000004722644272316618914_" gradientTransform="matrix(.707 .707 -.707 .707 -46.209 650.981)" gradientUnits="userSpaceOnUse" x1="22.325" x2="-17.117" xlink:href="#lg2" y1="-631.509" y2="-623.875"/><linearGradient id="SVGID_00000018954431258855555380000014023806264928498611_" gradientTransform="matrix(.812 .754 -.672 .742 26.707 679.072)" gradientUnits="userSpaceOnUse" x1="-75.523" x2="-46.812" xlink:href="#lg1" y1="-504.765" y2="-476.053"/><linearGradient id="SVGID_00000019670627108834789030000010566284368116426131_" gradientTransform="matrix(.812 .754 -.672 .742 26.707 679.072)" gradientUnits="userSpaceOnUse" x1="-74.371" x2="-45.974" xlink:href="#lg1" y1="-549.357" y2="-520.96"/><linearGradient id="SVGID_00000074443816879194027940000005522632808345076124_" gradientTransform="matrix(.812 .754 -.672 .742 26.707 679.072)" gradientUnits="userSpaceOnUse" x1="-73.048" x2="-44.982" xlink:href="#lg1" y1="-593.907" y2="-565.84"/><linearGradient id="SVGID_00000021117661465878659940000012741384958354314120_" gradientTransform="matrix(.812 .754 -.672 .742 26.707 679.072)" gradientUnits="userSpaceOnUse" x1="-72.929" x2="-44.879" xlink:href="#lg1" y1="-638.626" y2="-610.576"/><linearGradient id="SVGID_00000161597869197307494200000017863259662203588027_" gradientTransform="matrix(.812 .754 -.672 .742 26.707 679.072)" gradientUnits="userSpaceOnUse" x1="-73.761" x2="-45.916" xlink:href="#lg1" y1="-683.24" y2="-655.395"/><linearGradient id="SVGID_00000160179825583149798240000002413764283022434470_" gradientTransform="matrix(.812 .754 -.672 .742 26.707 679.072)" gradientUnits="userSpaceOnUse" x1="-74.329" x2="-46.661" xlink:href="#lg1" y1="-731.758" y2="-704.09"/><linearGradient id="SVGID_00000118377148607615538110000004822144057174558398_" gradientTransform="matrix(.812 .754 -.672 .742 26.707 679.072)" gradientUnits="userSpaceOnUse" x1="-81.916" x2="-54.389" xlink:href="#lg1" y1="-772.495" y2="-744.968"/><linearGradient id="SVGID_00000025404085800438686370000004756779448861682313_" gradientTransform="matrix(.707 .707 -.707 .707 -46.209 650.981)" gradientUnits="userSpaceOnUse" x1="-14.591" x2="-55.46" xlink:href="#lg2" y1="-656.216" y2="-654.978"/><linearGradient id="SVGID_00000166655504866522337950000006799086746268849845_" gradientTransform="matrix(.707 .707 -.707 .707 -46.209 650.981)" gradientUnits="userSpaceOnUse" x1="-160.688" x2="-136.9" xlink:href="#lg1" y1="-552.57" y2="-529.425"/><linearGradient id="SVGID_00000011730080335103993320000011020264194727644078_" gradientTransform="matrix(.707 .707 -.707 .707 -46.209 650.981)" gradientUnits="userSpaceOnUse" x1="-157.522" x2="-126.79" xlink:href="#lg1" y1="-598.967" y2="-573.997"/><linearGradient id="SVGID_00000107562407282788225150000009528864877562642828_" gradientTransform="matrix(.707 .707 -.707 .707 -46.209 650.981)" gradientUnits="userSpaceOnUse" x1="-150.097" x2="-120.808" xlink:href="#lg1" y1="-642.417" y2="-623.316"/><linearGradient id="SVGID_00000159471168210262420150000010054274772692530343_" gradientTransform="matrix(.707 .707 -.707 .707 -46.209 650.981)" gradientUnits="userSpaceOnUse" x1="-139.989" x2="-119.974" xlink:href="#lg1" y1="-686.418" y2="-667.694"/><linearGradient id="SVGID_00000167357861703727762350000006257337849179322022_" gradientTransform="matrix(.707 .707 -.707 .707 -46.209 650.981)" gradientUnits="userSpaceOnUse" x1="-128.758" x2="-109.247" xlink:href="#lg1" y1="-727.787" y2="-705.024"/><linearGradient id="SVGID_00000105394679071534054790000014857391321441716140_" gradientTransform="matrix(-.707 -.707 -.707 .707 -1286.941 -589.751)" gradientUnits="userSpaceOnUse" x1="-1607.304" x2="-1646.745" xlink:href="#lg2" y1="-629.732" y2="-622.099"/><linearGradient id="SVGID_00000071551089170473392250000011172688012054997383_" gradientTransform="matrix(.707 .707 -.707 .707 -46.209 650.981)" gradientUnits="userSpaceOnUse" x1="-125.283" x2="-104.884" xlink:href="#lg1" y1="-533.88" y2="-516.668"/><linearGradient id="SVGID_00000145774807947266735690000016095926533252412589_" gradientTransform="matrix(.707 .707 -.707 .707 -46.209 650.981)" gradientUnits="userSpaceOnUse" x1="-119.52" x2="-92.68" xlink:href="#lg1" y1="-574.995" y2="-551.351"/><linearGradient id="SVGID_00000137114052369434918410000003134382543067936657_" gradientTransform="matrix(.707 .707 -.707 .707 -46.209 650.981)" gradientUnits="userSpaceOnUse" x1="-115.807" x2="-94.494" xlink:href="#lg1" y1="-619.074" y2="-593.886"/><linearGradient id="SVGID_00000163766228019639653880000018130554793988121742_" gradientTransform="matrix(.707 .707 -.707 .707 -46.209 650.981)" gradientUnits="userSpaceOnUse" x1="-114.111" x2="-92.764" xlink:href="#lg1" y1="-664.275" y2="-639.048"/><linearGradient id="SVGID_00000126315636787148910870000015708430824611267747_" gradientTransform="matrix(.707 .707 -.707 .707 -46.209 650.981)" gradientUnits="userSpaceOnUse" x1="-111.506" x2="-91.38" xlink:href="#lg1" y1="-710.205" y2="-684.885"/><linearGradient id="SVGID_00000116232865365962189230000017872964764292736691_" gradientTransform="matrix(.707 .707 -.707 .707 -46.209 650.981)" gradientUnits="userSpaceOnUse" x1="-110.361" x2="-85.864" xlink:href="#lg1" y1="-758.292" y2="-735.085"/><linearGradient id="SVGID_00000134236504132947140200000010220794803458668700_" gradientTransform="matrix(.707 .707 -.707 .707 -46.209 650.981)" gradientUnits="userSpaceOnUse" x1="-107.534" x2="-75.518" xlink:href="#lg1" y1="-802.45" y2="-778.758"/><linearGradient id="SVGID_00000161590510094028345140000009267204200094534021_" gradientTransform="matrix(-.707 -.707 -.707 .707 -1286.941 -589.751)" gradientUnits="userSpaceOnUse" x1="-1641.884" x2="-1682.754" xlink:href="#lg2" y1="-656.009" y2="-654.77"/><linearGradient id="SVGID_00000120526316555820541480000009330154911168188318_" gradientTransform="matrix(.707 .707 -.707 .707 -46.209 650.981)" gradientUnits="userSpaceOnUse" x1="-79.863" x2="-49.173" xlink:href="#lg1" y1="-519.252" y2="-488.562"/><linearGradient id="SVGID_00000068642991753646066390000014236601725072363655_" gradientTransform="matrix(.707 .707 -.707 .707 -46.209 650.981)" gradientUnits="userSpaceOnUse" x1="-79.863" x2="-49.173" xlink:href="#lg1" y1="-562.835" y2="-532.145"/><linearGradient id="SVGID_00000072238968175952540700000000884284621725128117_" gradientTransform="matrix(.707 .707 -.707 .707 -46.209 650.981)" gradientUnits="userSpaceOnUse" x1="-79.863" x2="-49.173" xlink:href="#lg1" y1="-606.419" y2="-575.729"/><linearGradient id="SVGID_00000167388948228358726010000002598555496302769568_" gradientTransform="matrix(.707 .707 -.707 .707 -46.209 650.981)" gradientUnits="userSpaceOnUse" x1="-79.863" x2="-49.173" xlink:href="#lg1" y1="-650.003" y2="-619.313"/><linearGradient id="SVGID_00000109023533899922971070000011434583292014615475_" gradientTransform="matrix(.707 .707 -.707 .707 -46.209 650.981)" gradientUnits="userSpaceOnUse" x1="-79.863" x2="-49.173" xlink:href="#lg1" y1="-693.587" y2="-662.896"/><linearGradient id="SVGID_00000138570235411869483620000011097661301544770458_" gradientTransform="matrix(.707 .707 -.707 .707 -46.209 650.981)" gradientUnits="userSpaceOnUse" x1="-79.863" x2="-49.173" xlink:href="#lg1" y1="-737.17" y2="-706.48"/><linearGradient id="SVGID_00000052093710003590452730000010757646078354332067_" gradientTransform="matrix(.707 .707 -.707 .707 -46.209 650.981)" gradientUnits="userSpaceOnUse" x1="-79.863" x2="-49.173" xlink:href="#lg1" y1="-780.754" y2="-750.064"/><linearGradient id="SVGID_00000149372212694607929770000000338546791730732953_" gradientTransform="matrix(.707 .707 -.707 .707 -46.209 650.981)" gradientUnits="userSpaceOnUse" x1="-79.863" x2="-49.173" xlink:href="#lg1" y1="-824.338" y2="-793.648"/><linearGradient id="SVGID_00000023983736973810376790000000483727828116910743_" gradientTransform="matrix(.707 .707 -.707 .707 -46.209 650.981)" gradientUnits="userSpaceOnUse" x1="-57.765" x2="-103.82" xlink:href="#lg2" y1="-617.868" y2="-605.958"/><linearGradient id="SVGID_00000108285799557937171910000010864432482887746214_" gradientTransform="matrix(.707 .707 -.707 .707 -46.209 650.981)" gradientUnits="userSpaceOnUse" x1="-28.072" x2="-13.193" xlink:href="#lg2" y1="-538.948" y2="-496.899"/><linearGradient id="SVGID_00000090262914946059543500000003997116985701430953_" gradientTransform="matrix(.707 .707 -.707 .707 -46.209 650.981)" gradientUnits="userSpaceOnUse" x1="-190.269" x2="-35.46" y1="-528.474" y2="-461.166"><stop offset="0" stop-color="#8bc727"/><stop offset=".1842" stop-color="#77bc2d"/><stop offset=".5614" stop-color="#44a03b"/><stop offset="1" stop-color="#017b4e"/></linearGradient><linearGradient id="lg3"><stop offset="0" stop-color="#026841" stop-opacity="0"/><stop offset=".3243" stop-color="#046842" stop-opacity=".324"/><stop offset=".5509" stop-color="#0e6546" stop-opacity=".551"/><stop offset=".7476" stop-color="#1d614c" stop-opacity=".748"/><stop offset=".9263" stop-color="#335c54" stop-opacity=".926"/><stop offset="1" stop-color="#3e5959"/></linearGradient><linearGradient id="SVGID_00000157279774778242977790000010563867557724564159_" gradientTransform="matrix(.707 .707 -.707 .707 -46.209 650.981)" gradientUnits="userSpaceOnUse" x1="-71.488" x2="-147.176" xlink:href="#lg3" y1="-507.032" y2="-496.035"/><linearGradient id="SVGID_00000178891674837808888580000005739251176915930753_" gradientTransform="matrix(.707 .707 -.707 .707 -46.209 650.981)" gradientUnits="userSpaceOnUse" x1="-185.823" x2="-81.671" xlink:href="#lg3" y1="-515.21" y2="-486.746"/><linearGradient id="SVGID_00000118371843089904887170000007074876694977605053_" gradientTransform="matrix(.707 .707 -.707 .707 -46.209 650.981)" gradientUnits="userSpaceOnUse" x1="-89.461" x2="-177.44" xlink:href="#lg3" y1="-507.968" y2="-484.68"/><linearGradient id="SVGID_00000088830078294602705060000016724607806820774547_" gradientTransform="matrix(.707 .707 -.707 .707 -46.209 650.981)" gradientUnits="userSpaceOnUse" x1="-88.484" x2="-105.95" y1="-543.521" y2="-500.179"><stop offset="0" stop-color="#026841" stop-opacity="0"/><stop offset=".2713" stop-color="#056742" stop-opacity=".271"/><stop offset=".5191" stop-color="#106447" stop-opacity=".519"/><stop offset=".7577" stop-color="#23604e" stop-opacity=".758"/><stop offset=".9893" stop-color="#3d5958" stop-opacity=".989"/><stop offset="1" stop-color="#3e5959"/></linearGradient><linearGradient id="lg4"><stop offset="0" stop-color="#8bc727"/><stop offset="1" stop-color="#017b4e"/></linearGradient><linearGradient id="SVGID_00000017504318325119781190000000329057612969107901_" gradientTransform="matrix(.707 .707 -.707 .707 -46.209 650.981)" gradientUnits="userSpaceOnUse" x1="-77.829" x2="-44.19" xlink:href="#lg4" y1="-217.048" y2="-177.587"/><linearGradient id="SVGID_00000052069453672319290220000015112097648048357790_" gradientTransform="matrix(.707 .707 .707 -.707 -116.13 720.903)" gradientUnits="userSpaceOnUse" x1="-39.753" x2="-16.391" xlink:href="#lg3" y1="295.591" y2="294.361"/><linearGradient id="SVGID_00000148660652531637451760000016998395377930065082_" gradientTransform="matrix(.707 .707 -.707 .707 -46.209 650.981)" gradientUnits="userSpaceOnUse" x1="-102.183" x2="24.61" xlink:href="#lg4" y1="-483.845" y2="-243.843"/><linearGradient id="SVGID_00000005243047887833378910000006182554039015541647_" gradientTransform="matrix(.707 .707 -.707 .707 -46.209 650.981)" gradientUnits="userSpaceOnUse" x1="130.893" x2="1.512" xlink:href="#lg3" y1="-424.081" y2="-371.682"/><linearGradient id="SVGID_00000095327857419049679760000014854974105421270928_" gradientTransform="matrix(.707 .707 -.707 .707 -46.209 650.981)" gradientUnits="userSpaceOnUse" x1="-52.652" x2="-2.84" xlink:href="#lg3" y1="-371.714" y2="-338.075"/><linearGradient id="SVGID_00000182515773449493395160000017157703022604534703_" gradientTransform="matrix(-.707 -.707 -.707 .707 -1113.947 -416.756)" gradientUnits="userSpaceOnUse" x1="-1461.836" x2="-1496.337" xlink:href="#lg4" y1="-481.878" y2="-388.723"/><linearGradient id="SVGID_00000022518287438683828810000012463122180078934914_" gradientTransform="matrix(.707 .707 -.707 .707 -46.209 650.981)" gradientUnits="userSpaceOnUse" x1="-198.761" x2="22.912" xlink:href="#lg4" y1="-418.897" y2="-270.54"/><linearGradient id="SVGID_00000002356800899726928700000000298122322579385751_" gradientTransform="matrix(.707 .707 -.707 .707 -46.209 650.981)" gradientUnits="userSpaceOnUse" x1="-126.478" x2="-50.79" xlink:href="#lg3" y1="-350.252" y2="-417.531"/><linearGradient id="SVGID_00000155826018275889617360000006654854679163889550_" gradientTransform="matrix(.707 .707 -.707 .707 -46.209 650.981)" gradientUnits="userSpaceOnUse" x1="-68.48" x2="-138.346" xlink:href="#lg3" y1="-367.261" y2="-173.189"/><linearGradient id="SVGID_00000158749429222009076470000011030287845817713052_" gradientTransform="matrix(.707 .707 -.707 .707 -46.209 650.981)" gradientUnits="userSpaceOnUse" x1="-31.901" x2="-161.929" xlink:href="#lg3" y1="-339.33" y2="-377.497"/><linearGradient id="SVGID_00000137842704068966086180000010882553058206783121_" gradientTransform="matrix(.707 .707 -.707 .707 -46.209 650.981)" gradientUnits="userSpaceOnUse" x1="-85.799" x2="-120.301" xlink:href="#lg4" y1="-481.878" y2="-388.723"/><linearGradient id="SVGID_00000119819365641535417430000013246382956351324580_" gradientTransform="matrix(.707 .707 -.707 .707 -46.209 650.981)" gradientUnits="userSpaceOnUse" x1="-75.314" x2="-75.314" xlink:href="#lg3" y1="-292.838" y2="-202.268"/><g><g><g><g><g><g><g><path d="m368.601 297.187c-11.037 13.377-29.541 12.738-39.807 3.25-10.33-9.547-12.338-27.836-.398-40.399 11.357-11.95 29.347-12.965 39.442-3.579 10.177 9.461 11.347 27.9.763 40.728z" fill="url(#SVGID_1_)"/><path d="m396.014 259.682c-10.33 13.261-28.136 14.08-38.207 4.71-10.235-9.523-11.214-27.367.086-39.933 10.622-11.813 28.044-14.191 37.833-5.029 9.978 9.337 10.261 27.451.288 40.252z" fill="url(#SVGID_00000178890982870271947060000003426800143823418774_)"/><path d="m422.561 221.439c-9.601 13.062-26.766 15.364-36.593 6.155-10.049-9.417-10.1-26.925.556-39.453 9.865-11.599 26.727-15.4 36.21-6.464 9.744 9.181 9.186 27.03-.173 39.762z" fill="url(#SVGID_00000016774994600050342970000012715964596235626421_)"/><path d="m446.143 184.778c-8.85 12.77-25.38 16.635-34.966 7.585-9.827-9.277-8.999-26.51 1.012-38.958 9.087-11.3 25.402-16.586 34.574-7.885 9.477 8.99 8.126 26.637-.62 39.258z" fill="url(#SVGID_00000142172719037080647010000004132861655266063750_)"/><path d="m465.092 146.054c-7.16 10.33-20.531 13.457-28.286 6.136-7.949-7.505-7.28-21.445.818-31.515 7.351-9.141 20.549-13.417 27.969-6.378 7.666 7.272 6.574 21.548-.501 31.757z" fill="url(#SVGID_00000133518719497499621580000000812119423470038456_)"/></g></g><path d="m368.601 297.186c6.491-7.867 8.554-17.842 6.837-26.565 7.447-.343 15.073-3.875 20.576-10.939 6.195-7.953 8.43-17.954 6.843-26.63 7.211-.692 14.548-4.599 19.704-11.613 5.48-7.456 7.938-16.665 7.08-24.862 6.192-1.571 12.238-5.648 16.501-11.799 6.164-8.893 8.647-20.28 6.264-29.377 4.775-1.386 9.389-4.591 12.685-9.347 7.075-10.209 8.168-24.484.502-31.757-7.42-7.039-20.618-2.763-27.969 6.378-5.052 6.282-7.211 14.069-6.192 20.861-7.006 1.23-14.226 5.629-19.244 11.869-5.782 7.19-8.493 15.974-7.865 23.901-6.486 1.367-12.979 5.166-17.8 10.835-6.565 7.719-9.051 17.324-7.654 25.766-7.458.521-15.217 4.146-20.977 10.552-6.868 7.639-9.193 17.225-7.666 25.71-7.689.181-15.719 3.44-21.831 9.87-11.941 12.563-9.932 30.852.398 40.399 10.267 9.486 28.771 10.125 39.808-3.252z" fill="url(#SVGID_00000066507160615815108940000004722644272316618914_)"/></g><g><g><g><path d="m329.537 286.968c-12.802 13.114-33.153 8.323-44.526-1.219-10.85-9.103-14.86-30.104-1.93-41.706 12.519-11.233 33.723-9.591 44.187.861 10.171 10.16 14.448 29.588 2.269 42.064z" fill="url(#SVGID_00000018954431258855555380000014023806264928498611_)"/><path d="m359.371 253.634c-12.167 13.171-31.807 9.653-42.966.286-10.864-9.12-13.71-29.634-1.406-41.285 11.845-11.216 32.392-10.915 42.619-.634 10.113 10.167 13.344 29.085 1.753 41.633z" fill="url(#SVGID_00000019670627108834789030000010566284368116426131_)"/><path d="m389.283 220.376c-11.773 13.22-30.431 10.985-41.394 1.775-10.847-9.113-12.57-29.187-.895-40.85 11.153-11.141 31.016-11.9 41.037-2.114 9.959 9.728 12.431 28.635 1.252 41.189z" fill="url(#SVGID_00000074443816879194027940000005522632808345076124_)"/><path d="m418.369 186.334c-11.037 13.377-29.541 12.738-39.807 3.25-10.33-9.547-12.338-27.836-.398-40.399 11.357-11.95 29.347-12.965 39.442-3.579 10.177 9.462 11.347 27.9.763 40.728z" fill="url(#SVGID_00000021117661465878659940000012741384958354314120_)"/><path d="m446.61 151.532c-10.33 13.261-28.136 14.08-38.207 4.71-10.235-9.523-11.214-27.367.086-39.933 10.622-11.813 28.044-14.191 37.833-5.029 9.978 9.338 10.26 27.451.288 40.252z" fill="url(#SVGID_00000161597869197307494200000017863259662203588027_)"/><path d="m477.68 114.061c-9.601 13.062-26.766 15.364-36.593 6.155-10.049-9.417-10.1-26.925.556-39.453 9.865-11.599 26.727-15.4 36.21-6.464 9.743 9.182 9.185 27.03-.173 39.762z" fill="url(#SVGID_00000160179825583149798240000002413764283022434470_)"/><path d="m497.823 77.089c-8.85 12.77-25.38 16.635-34.966 7.585-9.827-9.277-8.999-26.51 1.012-38.958 9.087-11.3 25.402-16.586 34.574-7.885 9.477 8.991 8.127 26.638-.62 39.258z" fill="url(#SVGID_00000118377148607615538110000004822144057174558398_)"/></g></g><path d="m336.335 262.142c8.199.717 16.647-1.592 23.036-8.508 6.395-6.923 8.271-15.782 6.977-24.043 8.119.578 16.542-2.036 22.935-9.215 6.132-6.886 8.15-15.682 7.085-23.827 7.861.155 16.026-2.972 22.002-10.215 5.827-7.062 8.084-15.824 7.244-23.853 7.58-.227 15.389-3.752 20.996-10.949 6.008-7.713 8.288-17.352 6.974-25.841 8.508.76 17.885-3.18 24.096-11.631 5.789-7.876 8.206-17.709 6.905-26.238 5.012-2.013 9.73-5.67 13.239-10.734 8.747-12.62 10.097-30.267.62-39.258-9.172-8.702-25.487-3.416-34.574 7.884-6.079 7.559-8.765 16.881-7.742 25.116-5.34 1.81-10.488 5.23-14.486 9.931-6.382 7.504-8.894 16.787-7.746 25.056-8.697-.888-18.492 2.799-25.407 10.49-6.147 6.836-8.652 15.232-8.019 23.002-7.832.055-16.068 3.312-22.305 9.875-6.477 6.815-8.842 15.313-8.009 23.188-8.3-.166-17.041 2.814-23.161 8.928-6.258 6.251-8.662 14.919-7.879 23.02-8.568-.501-17.641 2.181-24.116 8.312-6.738 6.38-8.924 15.416-7.747 23.785-8.574-.633-17.577 1.708-24.17 7.625-12.929 11.602-8.92 32.602 1.93 41.705 11.372 9.542 31.724 14.333 44.526 1.219 6.865-7.033 8.499-16.277 6.796-24.824z" fill="url(#SVGID_00000025404085800438686370000004756779448861682313_)"/></g></g><g><g><g><g><path d="m212.685 141.271c-13.377 11.037-12.738 29.541-3.25 39.807 9.547 10.33 27.836 12.338 40.399.398 11.95-11.357 12.965-29.347 3.579-39.442-9.461-10.177-27.9-11.347-40.728-.763z" fill="url(#SVGID_00000166655504866522337950000006799086746268849845_)"/><path d="m250.19 113.858c-13.261 10.33-14.08 28.136-4.71 38.207 9.523 10.235 27.367 11.214 39.933-.086 11.813-10.622 14.191-28.044 5.029-37.833-9.337-9.978-27.451-10.261-40.252-.288z" fill="url(#SVGID_00000011730080335103993320000011020264194727644078_)"/><path d="m288.433 87.311c-13.062 9.601-15.364 26.766-6.155 36.593 9.417 10.049 26.925 10.1 39.453-.556 11.599-9.865 15.4-26.727 6.464-36.21-9.182-9.744-27.03-9.186-39.762.173z" fill="url(#SVGID_00000107562407282788225150000009528864877562642828_)"/><path d="m325.094 63.729c-12.77 8.85-16.635 25.38-7.585 34.966 9.277 9.827 26.51 8.999 38.958-1.012 11.3-9.087 16.586-25.402 7.884-34.574-8.99-9.477-26.636-8.126-39.257.62z" fill="url(#SVGID_00000159471168210262420150000010054274772692530343_)"/><path d="m363.818 44.78c-10.33 7.16-13.457 20.531-6.136 28.286 7.505 7.949 21.445 7.28 31.515-.818 9.141-7.351 13.417-20.549 6.378-27.969-7.273-7.667-21.548-6.574-31.757.501z" fill="url(#SVGID_00000167357861703727762350000006257337849179322022_)"/><path d="m212.685 141.271c7.867-6.491 17.842-8.554 26.565-6.837.343-7.447 3.875-15.073 10.939-20.576 7.953-6.195 17.954-8.43 26.63-6.843.692-7.211 4.599-14.548 11.613-19.704 7.456-5.48 16.665-7.938 24.862-7.08 1.571-6.192 5.648-12.238 11.799-16.501 8.893-6.164 20.28-8.647 29.377-6.264 1.386-4.775 4.591-9.389 9.347-12.685 10.209-7.075 24.484-8.168 31.757-.502 7.039 7.42 2.763 20.618-6.378 27.969-6.282 5.052-14.069 7.211-20.861 6.192-1.23 7.006-5.629 14.226-11.869 19.244-7.19 5.782-15.974 8.493-23.901 7.865-1.367 6.486-5.166 12.979-10.835 17.8-7.719 6.565-17.324 9.051-25.766 7.654-.521 7.458-4.146 15.217-10.552 20.977-7.639 6.868-17.225 9.193-25.71 7.666-.181 7.689-3.44 15.719-9.87 21.831-12.563 11.941-30.852 9.932-40.399-.398-9.485-10.267-10.124-28.771 3.252-39.808z" fill="url(#SVGID_00000105394679071534054790000014857391321441716140_)"/></g></g></g><g><g><g><path d="m222.904 180.335c-13.114 12.802-8.323 33.153 1.219 44.526 9.103 10.85 30.104 14.86 41.706 1.93 11.233-12.519 9.591-33.723-.861-44.187-10.16-10.171-29.588-14.448-42.064-2.269z" fill="url(#SVGID_00000071551089170473392250000011172688012054997383_)"/><path d="m256.238 150.501c-13.171 12.167-9.653 31.807-.286 42.966 9.12 10.864 29.634 13.71 41.285 1.406 11.216-11.845 10.915-32.392.634-42.619-10.167-10.114-29.085-13.344-41.633-1.753z" fill="url(#SVGID_00000145774807947266735690000016095926533252412589_)"/><path d="m289.496 120.589c-13.22 11.773-10.985 30.431-1.775 41.394 9.113 10.847 29.187 12.57 40.85.895 11.141-11.153 11.9-31.016 2.114-41.037-9.728-9.96-28.635-12.431-41.189-1.252z" fill="url(#SVGID_00000137114052369434918410000003134382543067936657_)"/><path d="m323.538 91.503c-13.377 11.037-12.738 29.541-3.25 39.807 9.547 10.33 27.836 12.338 40.399.398 11.95-11.357 12.965-29.347 3.579-39.442-9.462-10.178-27.9-11.347-40.728-.763z" fill="url(#SVGID_00000163766228019639653880000018130554793988121742_)"/><path d="m358.34 63.262c-13.261 10.33-14.08 28.136-4.71 38.207 9.523 10.235 27.367 11.214 39.934-.086 11.813-10.622 14.191-28.044 5.029-37.833-9.339-9.978-27.452-10.26-40.253-.288z" fill="url(#SVGID_00000126315636787148910870000015708430824611267747_)"/><path d="m395.811 32.192c-13.062 9.601-15.364 26.766-6.155 36.593 9.417 10.049 26.925 10.1 39.453-.556 11.599-9.865 15.4-26.727 6.464-36.21-9.182-9.744-27.031-9.185-39.762.173z" fill="url(#SVGID_00000116232865365962189230000017872964764292736691_)"/><path d="m432.783 12.049c-12.77 8.85-16.635 25.38-7.585 34.966 9.277 9.827 26.51 8.999 38.958-1.012 11.3-9.087 16.586-25.402 7.885-34.574-8.991-9.477-26.638-8.127-39.258.62z" fill="url(#SVGID_00000134236504132947140200000010220794803458668700_)"/><path d="m247.73 173.537c-.717-8.199 1.592-16.647 8.508-23.036 6.923-6.395 15.782-8.271 24.043-6.977-.578-8.119 2.036-16.542 9.215-22.935 6.886-6.132 15.682-8.15 23.827-7.085-.155-7.861 2.972-16.026 10.215-22.002 7.062-5.827 15.824-8.084 23.853-7.244.227-7.58 3.751-15.389 10.949-20.996 7.713-6.008 17.352-8.288 25.841-6.974-.76-8.508 3.18-17.885 11.631-24.096 7.876-5.789 17.709-8.206 26.238-6.905 2.013-5.012 5.67-9.73 10.734-13.239 12.62-8.747 30.267-10.097 39.258-.62 8.702 9.172 3.416 25.487-7.884 34.574-7.559 6.079-16.881 8.765-25.116 7.742-1.81 5.34-5.23 10.488-9.931 14.486-7.504 6.382-16.787 8.894-25.056 7.746.888 8.697-2.799 18.492-10.49 25.407-6.836 6.147-15.232 8.652-23.002 8.019-.055 7.832-3.312 16.068-9.875 22.305-6.815 6.477-15.313 8.842-23.188 8.009.166 8.3-2.814 17.041-8.928 23.161-6.251 6.258-14.919 8.662-23.02 7.879.501 8.568-2.181 17.641-8.312 24.116-6.38 6.738-15.416 8.924-23.785 7.747.633 8.574-1.708 17.577-7.625 24.17-11.602 12.929-32.602 8.92-41.705-1.93-9.542-11.372-14.333-31.724-1.219-44.526 7.033-6.865 16.277-8.499 24.824-6.796z" fill="url(#SVGID_00000161590510094028345140000009267204200094534021_)"/></g></g></g></g></g><g><path d="m286.152 267.052c-11.185 11.185-29.952 10.552-41.918-1.414s-12.599-30.733-1.414-41.918 29.952-10.552 41.918 1.414 12.599 30.734 1.414 41.918z" fill="url(#SVGID_00000120526316555820541480000009330154911168188318_)"/><path d="m316.97 236.234c-11.185 11.185-29.952 10.552-41.918-1.414s-12.599-30.733-1.414-41.918 29.952-10.552 41.918 1.414 12.599 30.733 1.414 41.918z" fill="url(#SVGID_00000068642991753646066390000014236601725072363655_)"/><path d="m347.789 205.416c-11.185 11.185-29.952 10.552-41.918-1.414s-12.599-30.733-1.414-41.918 29.952-10.552 41.918 1.414 12.599 30.733 1.414 41.918z" fill="url(#SVGID_00000072238968175952540700000000884284621725128117_)"/><path d="m378.607 174.597c-11.185 11.185-29.952 10.552-41.918-1.414s-12.599-30.733-1.414-41.918 29.952-10.552 41.918 1.414 12.599 30.733 1.414 41.918z" fill="url(#SVGID_00000167388948228358726010000002598555496302769568_)"/><path d="m409.425 143.779c-11.185 11.185-29.952 10.552-41.918-1.414s-12.599-30.733-1.414-41.918 29.952-10.552 41.918 1.414 12.599 30.733 1.414 41.918z" fill="url(#SVGID_00000109023533899922971070000011434583292014615475_)"/><path d="m440.244 112.961c-11.185 11.185-29.952 10.552-41.918-1.414s-12.599-30.733-1.414-41.918 29.952-10.552 41.918 1.414 12.599 30.733 1.414 41.918z" fill="url(#SVGID_00000138570235411869483620000011097661301544770458_)"/><path d="m471.062 82.142c-11.185 11.185-29.952 10.552-41.918-1.414s-12.599-30.733-1.414-41.918 29.952-10.552 41.918 1.414 12.599 30.733 1.414 41.918z" fill="url(#SVGID_00000052093710003590452730000010757646078354332067_)"/><path d="m501.88 51.324c-11.185 11.185-29.952 10.552-41.918-1.414s-12.599-30.733-1.414-41.918 29.952-10.552 41.918 1.414 12.599 30.733 1.414 41.918z" fill="url(#SVGID_00000149372212694607929770000000338546791730732953_)"/></g></g><path d="m409.425 143.779c6.172-6.172 8.737-14.652 7.794-23.024 8.372.943 16.852-1.623 23.024-7.794 11.185-11.185 10.552-29.952-1.414-41.918s-30.733-12.599-41.918-1.414c-6.172 6.172-8.737 14.652-7.794 23.024-8.372-.943-16.852 1.623-23.024 7.794-6.172 6.172-8.737 14.652-7.794 23.024-8.372-.943-16.852 1.623-23.024 7.794-6.172 6.172-8.738 14.652-7.794 23.024-8.372-.943-16.852 1.623-23.024 7.794-6.172 6.172-8.738 14.652-7.794 23.024-8.372-.943-16.852 1.623-23.024 7.794-6.172 6.172-8.737 14.652-7.794 23.024-8.372-.943-16.853 1.623-23.024 7.794-11.185 11.185-10.552 29.952 1.414 41.918s30.733 12.599 41.918 1.414c6.172-6.172 8.737-14.652 7.794-23.024 8.372.943 16.852-1.623 23.024-7.794 6.172-6.172 8.737-14.652 7.794-23.024 8.372.943 16.852-1.623 23.024-7.794 6.172-6.172 8.737-14.652 7.794-23.024 8.372.943 16.852-1.623 23.024-7.794 6.172-6.172 8.737-14.652 7.794-23.024 8.373.943 16.853-1.622 23.024-7.794z" fill="url(#SVGID_00000023983736973810376790000000483727828116910743_)"/><path d="m328.795 300.431c-2.552-2.351-4.593-5.233-6.038-8.435-12.415 6.395-28.224 1.747-37.738-6.249-3.696-3.092-6.596-7.566-8.298-12.579-10.594 4.062-23.466 1.491-32.487-7.529-11.966-11.966-12.598-30.73-1.409-41.919 6.166-6.166 14.647-8.737 23.018-7.795-.942-8.371 1.629-16.852 7.795-23.018 6.175-6.175 14.656-8.746 23.027-7.804-.942-8.371 1.619-16.843 7.795-23.018 6.175-6.175 14.647-8.737 23.018-7.795l78.303 78.303c-.979.211-1.958.366-2.928.458 1.592 8.673-.64 18.682-6.834 26.632-5.507 7.063-13.137 10.594-20.584 10.942 1.72 8.728-.338 18.691-6.834 26.559-11.034 13.374-29.542 12.743-39.806 3.247z" fill="url(#SVGID_00000108285799557937171910000010864432482887746214_)"/><g><path d="m186.979 326.399c82.715-82.715 171.543-187.616 228.225-292.723 5.034-9.335-4.728-19.302-14.15-14.44-106.754 55.093-221.242 134.467-304.006 217.231l-39.005 39.005c-33.821 33.821-45.111 81.422-33.592 123.524 42.102 11.519 89.703.229 123.524-33.592z" fill="url(#SVGID_00000090262914946059543500000003997116985701430953_)"/><path d="m415.204 33.676c3.432-6.364-.017-13.012-5.543-15.065-61.734 78.763-139.147 153.222-211.357 213.697l-42.29 35.418c-32.995 27.633-75.495 36.101-113.495 26.461-21.507 31.433-27.594 69.998-18.069 104.811 42.102 11.518 89.703.229 123.524-33.592l39.005-39.005c82.715-82.716 171.544-187.618 228.225-292.725z" fill="url(#SVGID_00000157279774778242977790000010563867557724564159_)"/><path d="m170.113 310.676c82.715-82.715 174.558-184.602 240.321-280.627 5.841-8.528-.221-14.796-8.788-9.078-97.065 64.782-204.968 150.742-287.732 233.506l-39.005 39.005c-33.821 33.821-51.921 74.612-50.459 106.657 32.045 1.462 72.836-16.638 106.657-50.459z" fill="url(#SVGID_00000178891674837808888580000005739251176915930753_)"/><path d="m170.113 310.676c82.715-82.715 174.558-184.602 240.321-280.627 5.841-8.528-.221-14.796-8.788-9.078-97.065 64.782-204.968 150.742-287.732 233.506l-39.005 39.005c-33.821 33.821-51.921 74.612-50.459 106.657 32.045 1.462 72.836-16.638 106.657-50.459z" fill="url(#SVGID_00000118371843089904887170000007074876694977605053_)"/><path d="m97.048 236.467-39.005 39.005c-33.821 33.821-45.111 81.422-33.592 123.524 42.102 11.518 89.703.229 123.524-33.592l39.005-39.005c58.148-58.148 119.302-127.265 170.2-199.706l-52.392-52.392c-75.783 47.557-149.593 104.019-207.74 162.166z" fill="url(#SVGID_00000088830078294602705060000016724607806820774547_)"/></g><g><path d="m33.871 498.985-22.984-22.984c-14.346-14.346-14.346-37.605 0-51.95l11.269-11.269c5.149-5.149 13.498-5.149 18.647 0l56.286 56.286c5.149 5.149 5.149 13.498 0 18.647l-11.269 11.269c-14.345 14.346-37.604 14.346-51.949.001z" fill="url(#SVGID_00000017504318325119781190000000329057612969107901_)"/><path d="m37.599 502.713-14.882-14.882 46.567-46.567 29.143 29.143c4.41 4.41 3.111 12.859-2.901 18.872l-5.353 5.353c-16.749 16.749-40.287 20.368-52.574 8.081z" fill="url(#SVGID_00000052069453672319290220000015112097648048357790_)"/></g><g><path d="m86.872 280.121c91.664-36.549 197.002-28.387 282.555 24.493-31.036 41.309-64.992 80.471-101.674 117.153l-38.975 38.975c-49.516 49.516-129.797 49.516-179.313 0-2.518-2.518-4.907-5.115-7.169-7.784-48.435-57.151-25.011-145.091 44.576-172.837z" fill="url(#SVGID_00000148660652531637451760000016998395377930065082_)"/><path d="m86.872 280.121c91.664-36.549 197.002-28.387 282.555 24.493-31.036 41.309-64.992 80.471-101.674 117.153l-38.975 38.975c-49.516 49.516-129.797 49.516-179.313 0-2.518-2.518-4.907-5.115-7.169-7.784-48.435-57.151-25.011-145.091 44.576-172.837z" fill="url(#SVGID_00000005243047887833378910000006182554039015541647_)"/><path d="m42.298 452.959c1.728 2.036 3.555 4.024 5.433 5.98.564.611 1.139 1.214 1.73 1.806 34.527 34.527 102.657 22.368 152.169-27.144l38.973-38.973c34.262-34.262 66.849-69.996 97.543-106.966-70.17-33.027-150.001-38.735-223.501-17.126-9.368 2.745-18.645 5.947-27.775 9.588-69.584 27.738-93.014 115.684-44.572 172.835z" fill="url(#SVGID_00000095327857419049679760000014854974105421270928_)"/><path d="m86.87 280.123c91.66-36.549 196.998-28.388 282.556 24.491h.018c20.402 12.607 39.669 27.757 57.362 45.45l.248.248c5.402 5.415-.74 14.263-7.75 11.204-23.138-10.095-47.612-19.125-73.216-26.905 0 0 0 0-.018 0-30.346-9.231-62.266-16.724-95.411-22.149-48.506-7.959-95.924-10.933-140.898-9.451-74.836 2.472-116.243 89.165-69.411 147.579-45.835-57.179-22.113-143.112 46.52-170.467z" fill="url(#SVGID_00000182515773449493395160000017157703022604534703_)"/></g><g><path d="m229.918 423.167c36.549-91.664 28.387-197.003-24.493-282.555-41.309 31.036-80.471 64.993-117.153 101.674l-38.975 38.975c-49.516 49.516-49.516 129.797 0 179.313 2.518 2.518 5.115 4.907 7.784 7.169 57.151 48.435 145.091 25.011 172.837-44.576z" fill="url(#SVGID_00000022518287438683828810000012463122180078934914_)"/><path d="m229.918 423.167c36.549-91.664 28.387-197.003-24.493-282.555-41.309 31.036-80.471 64.993-117.153 101.674l-38.975 38.975c-49.516 49.516-49.516 129.797 0 179.313 2.518 2.518 5.115 4.907 7.784 7.169 57.151 48.435 145.091 25.011 172.837-44.576z" fill="url(#SVGID_00000002356800899726928700000000298122322579385751_)"/><path d="m57.08 467.741c-2.036-1.728-4.024-3.555-5.98-5.433-.611-.564-1.214-1.139-1.806-1.73-34.527-34.527-22.368-102.657 27.144-152.169l38.973-38.973c34.262-34.262 69.996-66.849 106.966-97.543 33.027 70.17 38.735 150.001 17.126 223.501-2.745 9.368-5.947 18.645-9.588 27.775-27.738 69.584-115.684 93.014-172.835 44.572z" fill="url(#SVGID_00000155826018275889617360000006654854679163889550_)"/><path d="m57.08 467.741c-2.662-2.26-5.27-4.648-7.785-7.163-15.406-15.406 12.241-68.048 61.753-117.56l38.973-38.973c29.486-29.486 59.411-58.368 89.629-86.519 9.048 30.95 13.256 63.025 12.607 95.018-.741 37.628-8.197 75.147-22.341 110.625-27.739 69.584-115.685 93.014-172.836 44.572z" fill="url(#SVGID_00000158749429222009076470000011030287845817713052_)"/><path d="m229.916 423.169c36.549-91.66 28.388-196.998-24.491-282.556 0-.018 0-.001 0-.018-12.607-20.402-27.757-39.669-45.45-57.362-.083-.083-.166-.166-.248-.248-5.415-5.402-14.263.74-11.204 7.75 10.095 23.138 19.125 47.612 26.905 73.216v.018c9.231 30.346 16.724 62.266 22.149 95.411 7.959 48.506 10.933 95.924 9.451 140.898-2.47 74.836-89.163 116.243-147.577 69.411 57.177 45.835 143.111 22.113 170.465-46.52z" fill="url(#SVGID_00000137842704068966086180000010882553058206783121_)"/><path d="m49.297 281.262c-49.516 49.516-49.516 129.797 0 179.313 2.518 2.518 5.115 4.907 7.784 7.169 53.391 45.248 133.646 27.775 166.598-31.454l-164.705-164.705z" fill="url(#SVGID_00000119819365641535417430000013246382956351324580_)"/></g></g></svg>