<svg id="Layer_1" enable-background="new 0 0 1000 1000" viewBox="0 0 1000 1000" xmlns="http://www.w3.org/2000/svg"><g><g><path d="m546.84 188.86s-57.49 55.55-27.63 163.13c29.86 107.59 123.7 51.1 123.7 51.1z" fill="#65954e"/><path d="m402.13 487.48-.02.01c-4.54-1.69-8.98-3.26-13.28-4.75-28.66-9.88-58.39-16.17-88.51-19.63-114.73-13.19-193.25-77.54-195.69-79.53l-.02-.04c1.43.63 47.12 20.93 73.55 20.64 7.07-.09 14.15-.2 21.23.23 84.39 5.11 141.17 26.41 202.74 83.07z" fill="#65954e"/><g><g><path d="m763.71 730.93c-67.03 65.1-185.86 51.42-350.33-118.08-164.47-169.45-312.27-430.61-245.18-495.65 29.72-28.85 96.75-14.36 176.47 25.5 3.42 1.74 6.84 3.48 10.26 5.29 15.61 8.08 31.71 17.16 48 27.05 2.8 1.68 5.6 3.36 8.39 5.1 14.61 8.95 29.35 18.59 44.15 28.73 2.98 1.93 5.91 3.98 8.83 6.03 67.28 46.7 135.12 103.66 192.02 162.29 164.48 169.5 174.49 288.64 107.39 353.74z" fill="#ffd54d"/></g><g fill="#ffc246"><path d="m181.01 250.59c174.71 162.92 343.37 336.61 500.89 516.21-174.78-162.85-343.3-336.67-500.89-516.21z"/><path d="m209.77 159.99c192.34 181.1 378.82 373.15 553.98 570.93-192.41-181.03-378.75-373.21-553.98-570.93z"/><path d="m295.92 128.54c176.46 164.73 346.89 340.24 506.16 521.65-176.53-164.66-346.82-340.3-506.16-521.65z"/></g><g><g><g><g><path d="m263.68 215.55c14.84-24.47 37.51-43.33 65.27-54.1-17.67 21.16-40.43 39.94-65.27 54.1z" fill="#ffc246"/></g><g><path d="m227.29 178.04c14.84-24.47 37.51-43.33 65.27-54.1-17.69 21.15-40.43 39.94-65.27 54.1-.01 0-.01 0 0 0z" fill="#ffc246"/></g><g><path d="m305.45 258.6c14.84-24.47 37.51-43.33 65.27-54.1-17.67 21.16-40.43 39.94-65.27 54.1z" fill="#ffc246"/></g><g><path d="m347.22 301.65c14.83-24.47 37.51-43.33 65.27-54.1-17.68 21.16-40.43 39.95-65.27 54.1z" fill="#ffc246"/></g><g><path d="m388.99 344.7c14.84-24.46 37.51-43.33 65.27-54.1-17.68 21.15-40.42 39.95-65.27 54.1z" fill="#ffc246"/></g><g><path d="m430.76 387.75c14.84-24.46 37.51-43.34 65.27-54.1-17.67 21.15-40.42 39.95-65.27 54.1z" fill="#ffc246"/></g><g><path d="m472.54 430.8c14.84-24.47 37.51-43.34 65.27-54.1-17.69 21.16-40.43 39.95-65.27 54.1z" fill="#ffc246"/></g><g><path d="m514.31 473.85c14.83-24.47 37.51-43.33 65.27-54.1-17.68 21.15-40.43 39.94-65.27 54.1z" fill="#ffc246"/></g><g><path d="m556.08 516.9c14.84-24.46 37.51-43.33 65.27-54.1-17.68 21.15-40.43 39.94-65.27 54.1z" fill="#ffc246"/></g><g><path d="m597.85 559.95c14.83-24.47 37.52-43.33 65.27-54.1-17.68 21.16-40.43 39.94-65.27 54.1z" fill="#ffc246"/></g><g><path d="m639.62 603c14.84-24.46 37.51-43.34 65.27-54.1-17.67 21.16-40.42 39.95-65.27 54.1z" fill="#ffc246"/></g><g><path d="m685.22 645.15c14.84-24.46 37.51-43.34 65.27-54.1-17.68 21.15-40.43 39.94-65.27 54.1z" fill="#ffc246"/></g></g><g><g><path d="m354.93 147.98c-7.34 6.41-16.6 11.32-25.99 13.49 3.17-7.09 8.77-13.68 15.73-18.78 3.42 1.74 6.84 3.48 10.26 5.29z" fill="#ffc246"/></g><g><path d="m411.33 180.13c-11.38 10.45-25.62 19.09-40.6 24.37 7.59-11.87 18.97-22.07 32.21-29.47 2.79 1.68 5.59 3.36 8.39 5.1z" fill="#ffc246"/></g><g><path d="m464.31 214.88c-15.79 12.62-33.45 23.82-51.8 32.65 11.69-14.67 26.43-27.92 42.97-38.68 2.98 1.93 5.91 3.98 8.83 6.03z" fill="#ffc246"/></g><g><path d="m512.89 253.45c-24.46 6.27-44.97 19.29-58.62 37.15 23.2-8.15 44.31-20.71 60.32-35.82-.59-.41-1.16-.85-1.7-1.33z" fill="#ffc246"/></g><g><path d="m496.04 333.66c16.32-20.21 40.35-34.7 68.94-41.28-18.51 16.97-42.63 31.36-68.94 41.28z" fill="#ffc246"/></g><g><path d="m537.81 376.71c17.67-21.18 43.16-36.37 73.38-43.48-20.14 17.5-45.7 32.61-73.38 43.48z" fill="#ffc246"/></g><g><path d="m579.58 419.76c17.67-21.18 43.16-36.37 73.38-43.48-20.14 17.5-45.7 32.6-73.38 43.48z" fill="#ffc246"/></g><g><path d="m621.35 462.81c17.67-21.19 43.16-36.37 73.38-43.48-20.14 17.5-45.7 32.6-73.38 43.48z" fill="#ffc246"/></g><g><path d="m663.12 505.86c16.08-20.06 39.88-34.4 68.17-40.89-18.21 16.86-42.09 31.14-68.17 40.89z" fill="#ffc246"/></g><g><path d="m704.89 548.91c12.71-17.67 33.04-30.24 57.35-35.29-14.24 15.41-34.65 27.91-57.35 35.29z" fill="#ffc246"/></g></g><g><g><path d="m190.26 298.25c2.01.93 3.85 2.23 5.45 3.79 6.74-4.64 11.38-13.19 11.94-22.88-8.62 1.94-15.15 9.4-17.39 19.09z" fill="#ffc246"/></g><g><path d="m223.29 356.66c1.29.59 2.52 1.33 3.66 2.2 10.64-8.36 18.82-21.62 22.46-36.65-12.64 6.28-22.11 18.87-26.12 34.45z" fill="#ffc246"/></g><g><path d="m257.45 413.06c.73.65 1.41 1.36 2.04 2.11 13.74-12.48 24.98-30.11 31.7-49.9-15.95 10.27-27.89 27.19-33.74 47.79z" fill="#ffc246"/></g><g><path d="m332.96 408.31c-9.32 24.15-23.39 45.89-40.05 61.67 6.59-26.15 20.74-47.82 40.05-61.67z" fill="#ffc246"/></g><g><path d="m374.73 451.36c-10.7 26-25.82 49.67-43.34 67.66 7.44-28.36 22.64-51.97 43.34-67.66z" fill="#ffc246"/></g><g><path d="m416.5 494.41c-11.7 27.34-27.57 52.43-45.67 72.03 8.02-29.98 23.96-55 45.67-72.03z" fill="#ffc246"/></g><g><path d="m458.27 537.46c-11.7 27.34-27.57 52.43-45.67 72.03 8.02-29.98 23.96-55 45.67-72.03z" fill="#ffc246"/></g><g><path d="m500.04 580.51c-11.69 27.33-27.57 52.43-45.67 72.03 8.02-29.98 23.97-55 45.67-72.03z" fill="#ffc246"/></g><g><path d="m541.81 623.56c-10.53 25.77-25.52 49.21-42.93 66.91 7.34-28.08 22.41-51.45 42.93-66.91z" fill="#ffc246"/></g><g><path d="m583.58 666.61c-8.05 22.46-21.16 42.48-37 56.26 5.77-24.14 18.97-44.09 37-56.26z" fill="#ffc246"/></g></g><g><g><path d="m207.64 279.16c11.63-27.39 31.11-49.56 56.04-63.61-14.85 24.45-34.4 46.53-56.04 63.61z" fill="#ffc246"/></g><g><path d="m171.25 241.65c11.63-27.39 31.1-49.56 56.04-63.61-14.86 24.44-34.41 46.54-56.04 63.61z" fill="#ffc246"/></g><g><path d="m249.41 322.21c11.64-27.38 31.1-49.56 56.04-63.61-14.86 24.44-34.4 46.53-56.04 63.61z" fill="#ffc246"/></g><g><path d="m291.18 365.26c11.63-27.39 31.1-49.56 56.04-63.61-14.85 24.44-34.4 46.53-56.04 63.61z" fill="#ffc246"/></g><g><path d="m332.96 408.31c11.64-27.38 31.1-49.56 56.04-63.61-14.86 24.44-34.41 46.54-56.04 63.61z" fill="#ffc246"/></g><g><path d="m374.73 451.36c11.63-27.39 31.11-49.55 56.04-63.61-14.86 24.44-34.41 46.53-56.04 63.61z" fill="#ffc246"/></g><g><path d="m416.5 494.41c11.63-27.39 31.1-49.56 56.04-63.61-14.86 24.44-34.41 46.53-56.04 63.61z" fill="#ffc246"/></g><g><path d="m458.27 537.46c11.63-27.39 31.1-49.56 56.04-63.61-14.86 24.44-34.41 46.53-56.04 63.61z" fill="#ffc246"/></g><g><path d="m500.04 580.51c11.64-27.38 31.11-49.56 56.04-63.61-14.85 24.44-34.4 46.54-56.04 63.61z" fill="#ffc246"/></g><g><path d="m541.81 623.56c10.46-25.82 28.6-46.7 51.94-59.59-13.26 23.27-31.48 44.07-51.94 59.59z" fill="#ffc246"/></g><g><path d="m583.58 666.61c11.64-27.38 31.1-49.56 56.04-63.61-14.85 24.44-34.4 46.54-56.04 63.61z" fill="#ffc246"/></g></g></g></g></g><path d="m893.26 881.42c-2.09 3.76-5.47 6.42-9.27 8.57-2.34 1.34-4.86 2.49-7.27 3.58-6.46 2.89-13.71 5.8-20.42 3.61-6.52-2.09-10.58-8.35-14.42-14.01-16.07-24.03-36.71-45.56-62.12-59.44-10.58-5.78-22.02-10.13-33.84-12.63-16.52-3.59-33.75-3.68-50.02.71l54.84-19.9 69.17-25.14c13.38 5.63 23.59 16.26 32.52 27.98 3.53 4.67 6.91 9.55 10.17 14.35 9.97 14.63 20.03 29.35 27.73 45.28 4.1 8.49 7.48 18.8 2.93 27.04z" fill="#99cc5f"/><path d="m733.29 841.12c-24.88 4.29-52.34 2.26-81.74-4.99-64.63-15.96-121.87-54.01-162.39-106.87-9.67-12.64-18.96-26.14-27.83-40.44-34.87-56.18-80.59-104.93-135.7-141.52-15.43-10.23-31.44-20.18-47.85-29.89-10.83-6.41-22.17-11.94-33.83-16.67-102.62-41.63-139.37-117.2-139.37-117.2s79.19 66.19 195.74 79.59c30.12 3.46 59.86 9.75 88.51 19.63 43.08 14.84 100.31 39.98 143.52 78.74 24.57 22.05 51.9 40.92 82.01 54.41 14.54 6.5 30.85 12.63 48.27 17.22 18.67 4.91 36.95 11.27 54.15 20.02 26.83 13.65 49.98 30.33 66.82 50.89 40.83 49.87 13.18 126.05-50.31 137.08z" fill="#99cc5f"/><path d="m495.13 705.53c26.66 34.77 63.14 80.24 103.37 111.79-42.74-19.97-80.31-50.2-109.35-88.05-9.68-12.65-18.94-26.14-27.84-40.46-34.84-56.19-80.57-104.91-135.69-141.51-15.43-10.27-31.42-20.19-47.86-29.91-10.83-6.41-22.14-11.95-33.8-16.68-102.63-41.61-139.4-117.2-139.4-117.2s18.34 15.32 50.37 32.75c21.91 20.91 52.9 43.68 94.97 60.73 11.65 4.73 23.01 10.25 33.84 16.66 16.41 9.73 32.39 19.66 47.86 29.91 55.11 36.59 100.81 85.33 135.69 141.51 8.89 14.32 18.16 27.81 27.84 40.46z" fill="#65954e"/><path d="m833.74 773.27.02.04c-15.3 18.8-34.75 34.84-58.35 47.2 0 0 0 0-.02-.04 20.77-19.13 30.86-48.15 26.35-76.22-2.18-14.09-8.12-27.97-18.13-40.23-3.5-4.31-7.3-8.44-11.39-12.39 34.26-79.11-2.05-166.57-116.18-263.31-110.14-101.04-126.33-175.02-109.2-239.46 27.84 86.35 83.21 149.89 156.74 198.48 36.42 24.1 69.86 52.56 98.41 85.62 86.49 99.99 94.62 223.15 31.75 300.31z" fill="#99cc5f"/><g fill="#65954e"><path d="m733.31 841.13c-24.89 4.28-52.37 2.24-81.74-5.02-17.24-4.25-33.95-10.1-49.97-17.34 4.66 1.4 9.33 2.69 14.07 3.86 29.38 7.26 56.86 9.3 81.73 4.98 63.47-10.99 91.14-87.19 50.32-137.07-16.84-20.59-40-37.23-66.81-50.9-2.26-1.17-4.55-2.29-6.86-3.35 14.68 4.38 29.05 9.84 42.76 16.82 26.81 13.67 49.98 30.35 66.81 50.9 40.81 49.89 13.14 126.09-50.31 137.12z"/><path d="m833.74 773.27.02.04c-15.3 18.8-34.79 34.86-58.39 47.22 31.2-28.73 38.33-79.74 8.24-116.5-3.5-4.31-7.3-8.44-11.39-12.39 0 0 49.71 12.73 61.52 81.63z"/><path d="m846.11 805.44c2.78-2.85 5.02-6.68 6.33-10.7-8.93-11.72-19.14-22.35-32.52-27.98l-45.66 16.6 9.74 21.45-23.19 10.54c6.53 2.3 12.9 5.07 18.96 8.38 25.41 13.88 46.06 35.41 62.12 59.44 3.83 5.66 7.89 11.91 14.42 14.01 6.71 2.2 13.96-.72 20.42-3.61 2.41-1.09 4.93-2.24 7.27-3.58-7.97-10.85-18.31-20.01-30.07-26.71-7.66-4.39-16.04-7.79-22.58-13.72-6.55-5.97-10.93-15.5-7.72-23.7 3.72-9.55 15.33-13.05 22.48-20.42z"/><path d="m771.09 791.3c-26.04-4.87-50.73-17.75-69.58-36.38 24.98 8.56 48.26 20.81 69.58 36.38z"/><path d="m651.92 771.41c28.97 18.78 60.51 35.12 94.02 43 8.16 2.03 5.36 14.25-2.89 12.49-33.97-12.24-63.77-32.68-91.13-55.49z"/><path d="m617.65 741.33c7.91 5.79 16.6 10.62 23.82 16.97 2.07 2.53 3.95 5.27 4.97 9.08.09.32-.19.66-.52.62-7.52-.77-12.41-5-16.55-10.67-4.4-4.89-8.53-10.01-12.29-15.42-.26-.36.21-.84.57-.58z"/><path d="m426.34 615.4c41.86 9.42 82.68 26.84 114.51 55.95-16.89-12.7-35.81-22.3-55.68-29.23-19.54-6.85-40.4-11.86-60.81-14.07-8.73-1.12-6.74-14.24 1.98-12.65z"/><path d="m697.96 695.75c30.62 1.44 56.67 24.7 70.92 50.52 6.48 13.52 6.57 13.85-3.43 2.41-19.38-21.42-40.79-41.02-67.49-52.93z"/><path d="m833.74 773.27.02.04c-15.3 18.8-34.75 34.84-58.35 47.2 0 0 0 0-.02-.04 1.03-17 5.57-34.33 14.86-51.52 4.41-8.23 8.27-16.44 11.49-24.7 43.01-107.99-9.72-210.48-9.72-210.48s-30.66-88.53-130.99-151.69c-100.31-63.22-114.18-193.23-114.18-193.23 27.84 86.35 83.21 149.89 156.74 198.48 36.42 24.1 69.86 52.56 98.41 85.62 86.48 100 94.61 223.16 31.74 300.32z"/></g></g><path d="m511.27 584.16-146.51-73.28s93.07 15.11 146.51 73.28z" fill="#fff"/></g></svg>