<svg id="cow" enable-background="new 0 0 512 512" height="512" viewBox="0 0 512 512" width="512" xmlns="http://www.w3.org/2000/svg"><path d="m505.73495 223.51897c-9.52188 9.26836-13.25137 11.83919-18.53671 11.71242-5.27667-.12675-7.97427-6.18179-12.60846-5.79282-.64291.05078-2.9346.24527-6.43533.59212h-.00867c-22.69727 3.20508-42.1391 4.32986-44.8367 18.91742-2.40152 12.98048-50.08694 10.01192-51.9021 22.41042-2.14471 14.64969-3.8327 25.29547-12.08429 40.94217-3.23489 6.13403-2.65115 11.55569-4.94284 28.0881-2.28345 16.52417-6.89243 14.73953-8.99789 19.96585-2.53696 6.30029-3.10349 22.65515-3.11215 30.11368-.00827 7.21368 2.27475 9.96207 4.88812 14.54544 2.62119 4.5834 1.76727 10.06323-2.32556 10.06323h-17.45447c-6.30029 0-10.96832-5.45422-9.81793-18.38434.46494-5.26016-.16931-26.35077-1.15039-31.59402-.98068-5.23456-6.44308-15.91879-9.80878-28.47687-.53781-1.99625-.99344-4.81989-1.57956-8.07239-.21075-1.16956-2.08173-1.18567-2.17593.25027-.17068 2.60123-.28073 5.97745-1.05716 11.58914-2.29172 16.52417-6.90027 14.73953-8.9975 19.96585-2.53696 6.30029-3.10349 22.65515-3.11215 30.11368-.00867 7.21368 2.26651 9.96207 4.8877 14.54544 2.62161 4.5834 1.7677 10.06323-2.32553 10.06323h-17.45407c-6.30853 0-10.96832-5.45422-9.8266-18.38434.46494-5.26016-.16064-26.35077-1.14172-31.59402-.98068-5.23456-6.96799-16.02493-10.34236-28.58301-1.81808-6.78217-3.61923-22.9343-4.36372-34.45221-7.22192 1.84366-14.48598 3.78894-22.12207 5.09952-10.46954 1.79291-20.07608 1.61536-29.01451.27048-5.20071 17.53909-22.5284 30.41843-43.0946 30.41843-1.58974 0-3.15428-.07599-4.7019-.22833-3.97475 12.76947-10.86676 22.04608-14.41 26.05469-4.14363 4.69324-5.38693 26.03781-4.98103 30.68024.38896 4.45663 2.15668 8.12665 4.24521 12.70178 2.35942 5.16724-.3551 8.01678-2.10547 8.01678h-17.89421c-4.69323 0-9.05695-7.14554-9.05695-12.43958 0-6.38452 2.18185-12.10962 2.85822-16.44775.62598-4.05072.09332-19.78-.2366-23.38272-.32992-3.60229-2.39327-4.38892-4.33852-10.72266-2.03775-6.63849-2.98698-15.10635-3.34194-21.31696-.09121-1.59583-1.9944-2.12943-2.46741.07397-3.47983 16.21021-11.99981 28.15192-16.15211 32.83688-4.14364 4.69324-5.38693 26.03781-4.98103 30.68024.38897 4.45663 2.15667 8.12665 4.24521 12.70178 2.35941 5.16724-.35511 8.01678-2.09721 8.01678h-17.89385c-4.69364 0-9.05694-7.14554-9.05694-12.43958 0-6.38452 2.18145-12.10962 2.84955-16.44775.63424-4.05072.0929-19.78-.2366-23.38272-.32125-3.60229-2.39327-4.38892-4.33812-10.72266-2.02991-6.63849-3.58578-20.71857-3.56885-26.64682.01693-6.50305 1.53069-17.13281.05079-25.97009-1.47164-8.83685-6.21566-20.97208-8.17743-27.99127-6.63023-23.76262-5.87748-73.68193-.60905-106.20583-1.40351.84566-2.98499 3.7464-4.76962 9.70811-4.2448 14.25764-11.99981 67.66116-10.53684 81.05621 1.53069 13.97025.92205 19.59378-4.49874 31.0184-4.43969 9.36169-12.27068 20.13513-17.64027-4.06723-2.56257-11.53488 0-20.62567 3.49246-26.45236 3.50939-5.80109 7.45854-13.65726 7.8983-27.60191.44843-13.94507 0-31.96605 2.6468-56.66763 2.62162-24.70158 10.60456-29.76726 17.97019-35.15378 5.53062-4.02553 25.12441-11.92383 43.99972-14.45233 10.43526-1.79289 22.02092-2.20725 33.192-2.41867 44.07569-.8118 97.10676 12.00848 123.95634 11.13722 26.8409-.87952 63.06911-12.65945 77.03069-13.53049 13.97025-.87952 24.22797.87105 39.06946 3.4842 12.68484 1.75057 32.89594 4.73576 44.34616 2.2917 11.45847-2.44386 16.6088-3.34877 18.28278-7.46722 1.6748-4.11823 1.80157-7.98294 9.26877-10.4268 7.4668-2.44406 13.13287-1.92812 18.14774 5.91959 5.02316 7.85597 29.47946 40.4224 35.53448 49.56399 6.04639 9.14119 22.78195 29.86842 29.85977 37.32697 7.08687 7.46723 9.53096 15.71238-.00002 24.98074z" fill="#d6be96"/><g fill="#a56642"><path d="m23.17832 256.03461c1.53069 13.97025.92205 19.59378-4.49874 31.0184-4.43969 9.36169-12.27068 20.13513-17.64027-4.06723-2.56257-11.53488 0-20.62567 3.49246-26.45236 1.72517-2.84996 3.56018-6.19873 5.02315-10.52817 3.38262 2.78183 6.15619 5.06526 13.46278 3.93222-.0508 2.48618-.00826 4.55778.16062 6.09714z"/><path d="m148.11575 235.48534c-6.87509 15.38243-17.27911 24.0779-33.3214 17.86224-16.0346-6.21269-43.60812 2.10358-45.89982 15.19432-2.01257 11.52618-9.31048 24.56613-23.20476 23.95749-2.04642-7.50974-5.11605-15.72101-6.59595-21.02328-6.63023-23.76262-5.87748-73.68193-.60905-106.20583-.10984.06772-.22834.15236-.33818.24527 8.25341-25.09055 28.66766-31.06093 36.70139-42.53654.72715-.1183 1.46297-.21988 2.19879-.32125 4.69323-.80334 9.62347-1.3362 14.64661-1.68285 17.50525 12.30412 26.38464 22.05478 26.62991 33.32744.32993 14.7226-6.86682 36.65886 11.7884 48.44725 18.65523 11.78014 24.87914 17.34462 18.00406 32.73574z"/><path d="m249.95953 196.67519c-6.1001 25.79004-11.9502 57.83008-29.14014 66.43016-9.1499 4.58984-30.92969-.80005-33.19971-13.91014-2.30029-13.27002 6.52979-31.05981-4-42.10986-13.6001-14.28003-17.97998-27.71997-17.43994-52.6001.40967-18.2998-3.52051-25.27002-9.81006-31.49 30.62988 3.5 60 8.96021 77.82959 8.38013 2.18018-.07007 4.41016-.20996 6.7002-.43018 3.79004 22.01026 13.35987 47.53003 9.06006 65.72999z"/><path d="m381.62665 223.36702c-4.16879 5.28534-23.04019 26.8978-26.49878 42.0519-.95551 4.19482-3.6145 8.21103-6.13693 10.70004-2.4342 2.40192-6.56836 3.5564-9.71231 4.2626-20.09717 4.5144-17.0004-32.45334-34.80685-31.47598-2.78909.15309-15.37689 1.03485-17.67743-17.88058-2.32257-19.09677 7.67593-26.76625 7.22583-43.87097-.51614-19.6129-19.4198-43.06726-13.16202-63.2955 12.78641-2.89207 23.93231-5.61506 30.36765-6.0127 13.97025-.87952 24.22797.87105 39.06946 3.4842 5.8519.80334 13.31909 1.87733 20.78632 2.56236 7.72897 3.87297 15.61078 3.61944 16.87057 12.61734 1.75037 12.43956 4.5834 3.06096 10.25772 37.09862 5.6747 34.04631-10.03764 41.471-16.58323 49.75867z"/><path d="m81.56245 407.06021c2.35941 5.16724-.35511 8.01678-2.09721 8.01678h-17.89381c-4.69364 0-9.05694-7.14554-9.05694-12.43958 0-2.37634.30432-4.65936.71848-6.82428h24.2705c.60037 3.8224 2.19879 7.17942 4.05898 11.24708z"/><path d="m135.03326 407.06021c2.35942 5.16724-.3551 8.01678-2.10547 8.01678h-17.89421c-4.69323 0-9.05695-7.14554-9.05695-12.43958 0-2.37634.30432-4.65936.71889-6.82428h24.27875c.60039 3.8224 2.1988 7.17942 4.05899 11.24708z"/><path d="m294.56619 405.01376c2.62161 4.5834 1.7677 10.06323-2.32553 10.06323h-17.45407c-6.30853 0-10.96832-5.45422-9.8266-18.38434.0256-.25394.04211-.55002.05905-.87952h25.19211c.82047 3.63615 2.50311 5.96171 4.35504 9.20063z"/><path d="m344.83237 415.077h-17.45447c-6.30029 0-10.96832-5.45422-9.81793-18.38434.02518-.25394.04211-.55002.05902-.87952h25.18347c.82913 3.63614 2.51178 5.9617 4.35547 9.20062 2.62118 4.58341 1.76727 10.06324-2.32556 10.06324z"/></g><path d="m423.22296 116.88123c-3.26114-.25746-8.23871.17164-8.58197 6.26485-.34329 6.09322 6.86557 8.32452 13.21625 7.55214 6.35065-.77237 16.21994-2.6604 23.08554-11.41403 6.86557-8.75362 12.61551-18.66581 10.59872-21.58369-2.01675-2.91787-3.77606 3.08952-6.86557 6.26485-3.08951 3.17534-5.70703 6.30776-8.83945 8.45325-3.13242 2.1455-7.76669 4.11935-12.22934 4.84882-4.46261.72947-10.38418-.38619-10.38418-.38619z" fill="#bf964c"/><path d="m505.7377 223.51079c-9.52451 9.2715-13.25888 11.84537-18.53653 11.71579-3.59149-.0898-5.99277-2.91989-8.62329-4.59921-4.24002-6.5114-2.54706-12.57381 1.20062-14.8817 4.46283-2.7468 11.3269-14.16008 15.19086-14.41615 3.18945-.21288 6.31851-.60194 10.69852-2.86322.02304.02663.04642.04985.06982.07306 7.08005 7.46586 9.52738 15.70316 0 24.97143z" fill="#bf964c"/><path d="m509.78482 218.56911c-4.02081-2.07195-6.35519-7.38937-8.38037-12.17809-2.01544-4.76224 1.79233-5.53029 6.19864-5.72986 4.45306 5.51699 6.11224 11.45307 2.18173 17.90795z" fill="#3a3a3a"/><circle cx="453.925" cy="160.049" fill="#3a3a3a" r="9.269"/></svg>