<svg id="Glyph" viewBox="0 0 64 64" xmlns="http://www.w3.org/2000/svg"><path d="m57.28 39.09c.43-.05.77-.37.86-.8l.86-4.29-1.8-5.4.04-.03c.53-.4.91-.95 1.09-1.59.92-3.43 2.51-14.45-14.32-16.98 0 0 4.4 5.66 6.22 13.99-2.01-.25-5.26-1.39-7.22-5.98 0 0-3 10 8 13h.58l2.34 3.87-2.19 1.75c-2.15-2.15-6.94-6.23-13.73-7.89v-3.91c1.16-.41 2-1.51 2-2.82 0-1.65-1.35-3-3-3s-3 1.35-3 3c0 1.3.84 2.4 2 2.82v3.51c-1.27-.21-2.61-.33-4-.33s-2.73.12-4 .33v-3.51c1.16-.41 2-1.51 2-2.82 0-1.65-1.35-3-3-3s-3 1.35-3 3c0 1.3.84 2.4 2 2.82v3.91c-6.79 1.66-11.58 5.74-13.73 7.89s-2.19-1.75-2.19-1.75l2.34-3.87h.58c11-3 8-13 8-13-1.97 4.59-5.21 5.73-7.22 5.98 1.82-8.33 6.22-13.99 6.22-13.99-16.84 2.53-15.26 13.55-14.33 16.98.17.64.56 1.2 1.09 1.59l.04.03-1.8 5.4.86 4.29c.08.42.43.74.86.8l4.99.62s0 0 0 0c.12.26.23.52.36.76.32.63.67 1.21 1.03 1.77s-6.02.75-6.02.75-3 6 1 11c0 0 0-4.25.95-6.6.03 2.69.75 8.57 6.05 11.6 0 0-3-7-2-10l1.26-.84c.57 2.07 2.26 6.35 6.74 7.84 0 0-2.7-4.73-3.1-8.64 6.37 4.63 14.02 4.64 14.02 4.64s7.61 0 13.98-4.6c-.42 3.9-3.1 8.6-3.1 8.6 4.48-1.49 6.17-5.77 6.74-7.84l1.26.84c1 3-2 10-2 10 5.3-3.03 6.01-8.91 6.05-11.6.95 2.35.95 6.6.95 6.6 4-5 1-11 1-11l-5.98-.75c.37-.56.71-1.15 1.04-1.78.13-.25.24-.51.36-.76l4.99-.62zm-20.28-18.09c.55 0 1 .45 1 1s-.45 1-1 1-1-.45-1-1 .45-1 1-1zm-10 0c.55 0 1 .45 1 1s-.45 1-1 1-1-.45-1-1 .45-1 1-1z"/></svg>