<svg id="_13_Crab" enable-background="new 0 0 512 512" viewBox="0 0 512 512" xmlns="http://www.w3.org/2000/svg" xmlns:xlink="http://www.w3.org/1999/xlink"><linearGradient id="lg1"><stop offset="0" stop-color="#fd4755"/><stop offset="1" stop-color="#ca2e43"/></linearGradient><linearGradient id="SVGID_1_" gradientTransform="matrix(-1.867 1.269 -.045 -1.241 -3291.164 2894.994)" gradientUnits="userSpaceOnUse" x1="-1833.749" x2="-1827.705" xlink:href="#lg1" y1="254.341" y2="252.214"/><linearGradient id="lg2"><stop offset="0" stop-color="#a72b2b" stop-opacity="0"/><stop offset=".1678" stop-color="#a42b2a" stop-opacity=".047"/><stop offset=".3706" stop-color="#9c2c2a" stop-opacity=".182"/><stop offset=".5914" stop-color="#8f2e28" stop-opacity=".406"/><stop offset=".8235" stop-color="#7d3027" stop-opacity=".717"/><stop offset="1" stop-color="#6d3326"/></linearGradient><linearGradient id="SVGID_00000111169106812321612730000005846481457000624039_" gradientTransform="matrix(.906 .423 .423 -.906 -1018.712 1261.816)" gradientUnits="userSpaceOnUse" x1="594.915" x2="581.751" xlink:href="#lg2" y1="1392.962" y2="1402.835"/><linearGradient id="SVGID_00000134229571546365990460000015567533434886335153_" gradientTransform="matrix(1 0 0 -1 0 514)" gradientUnits="userSpaceOnUse" x1="107.437" x2="121.333" xlink:href="#lg2" y1="262.709" y2="251.398"/><linearGradient id="SVGID_00000039118115051519684460000002905434334729493436_" gradientTransform="matrix(-2.257 -.047 .682 -1.038 -4914.764 1031.54)" gradientUnits="userSpaceOnUse" x1="-1956.374" x2="-1947.496" xlink:href="#lg1" y1="892.244" y2="889.121"/><linearGradient id="SVGID_00000183234861775811105270000004472906426508865676_" gradientTransform="matrix(.906 .423 .423 -.906 -1018.712 1261.816)" gradientUnits="userSpaceOnUse" x1="558.616" x2="558.616" xlink:href="#lg2" y1="1433.933" y2="1449.691"/><linearGradient id="SVGID_00000162353455088531496640000012181708221628466059_" gradientTransform="matrix(.906 .423 .423 -.906 -1018.712 1261.816)" gradientUnits="userSpaceOnUse" x1="569.015" x2="589.386" xlink:href="#lg1" y1="1515.076" y2="1515.076"/><linearGradient id="SVGID_00000117657474859054824510000000572058297977742513_" gradientTransform="matrix(.906 .423 .423 -.906 -1018.712 1261.816)" gradientUnits="userSpaceOnUse" x1="579.894" x2="605.74" xlink:href="#lg2" y1="1515.076" y2="1515.076"/><linearGradient id="SVGID_00000004530517377904781520000009585899547221162156_" gradientTransform="matrix(.906 .423 .423 -.906 -1018.712 1261.816)" gradientUnits="userSpaceOnUse" x1="585.216" x2="577.859" xlink:href="#lg2" y1="1525.345" y2="1500.178"/><linearGradient id="SVGID_00000177465555888525061150000011693991282826057895_" gradientTransform="matrix(.906 .423 .423 -.906 -1018.712 1261.816)" gradientUnits="userSpaceOnUse" x1="539.656" x2="580.311" xlink:href="#lg1" y1="1525.932" y2="1515.091"/><linearGradient id="SVGID_00000004536788013642026480000014345559716584291734_" gradientTransform="matrix(.906 .423 .423 -.906 -1018.712 1261.816)" gradientUnits="userSpaceOnUse" x1="554.596" x2="554.596" xlink:href="#lg2" y1="1494.168" y2="1441.191"/><linearGradient id="SVGID_00000028293960056108636160000003614026461464177803_" gradientTransform="matrix(.906 .423 .423 -.906 -1018.712 1261.816)" gradientUnits="userSpaceOnUse" x1="559.227" x2="584.394" xlink:href="#lg2" y1="1476.227" y2="1453.77"/><linearGradient id="lg3"><stop offset="0" stop-color="#fd4755" stop-opacity="0"/><stop offset=".1474" stop-color="#fd4755" stop-opacity=".014"/><stop offset=".2764" stop-color="#fd4755" stop-opacity=".056"/><stop offset=".3983" stop-color="#fd4755" stop-opacity=".127"/><stop offset=".5161" stop-color="#fd4755" stop-opacity=".227"/><stop offset=".6308" stop-color="#fd4755" stop-opacity=".356"/><stop offset=".7433" stop-color="#fd4755" stop-opacity=".514"/><stop offset=".8539" stop-color="#fd4755" stop-opacity=".702"/><stop offset=".9605" stop-color="#fd4755" stop-opacity=".914"/><stop offset="1" stop-color="#fd4755"/></linearGradient><linearGradient id="SVGID_00000078010634221847375230000017560402939841650860_" gradientTransform="matrix(.906 .423 .423 -.906 -1018.712 1261.816)" gradientUnits="userSpaceOnUse" x1="554.596" x2="554.596" xlink:href="#lg3" y1="1457.746" y2="1442.522"/><linearGradient id="SVGID_00000153675431797973442600000010134972197188714382_" gradientTransform="matrix(1.867 1.269 .045 -1.241 1148.653 4149.56)" gradientUnits="userSpaceOnUse" x1="-470.071" x2="-464.026" xlink:href="#lg1" y1="2659.309" y2="2657.182"/><linearGradient id="SVGID_00000163767285278333096610000012392620590078685348_" gradientTransform="matrix(-.906 .423 -.423 -.906 -1123.799 2516.383)" gradientUnits="userSpaceOnUse" x1="-2341.092" x2="-2354.256" xlink:href="#lg2" y1="1408.14" y2="1418.014"/><linearGradient id="SVGID_00000002347570586208516610000006427428027585644188_" gradientTransform="matrix(1 0 0 -1 0 514)" gradientUnits="userSpaceOnUse" x1="402.69" x2="389.117" xlink:href="#lg2" y1="261.292" y2="249.336"/><linearGradient id="SVGID_00000000196155572674746130000000407075215247863715_" gradientTransform="matrix(2.257 -.047 -.682 -1.038 2772.252 2286.106)" gradientUnits="userSpaceOnUse" x1="-435.711" x2="-426.833" xlink:href="#lg1" y1="2032.217" y2="2029.093"/><linearGradient id="SVGID_00000164513454816117835240000007380940180656710560_" gradientTransform="matrix(-.906 .423 -.423 -.906 -1123.799 2516.383)" gradientUnits="userSpaceOnUse" x1="-2377.391" x2="-2377.391" xlink:href="#lg2" y1="1449.112" y2="1464.869"/><linearGradient id="SVGID_00000138550024909920301460000000620719243588929949_" gradientTransform="matrix(-.906 .423 -.423 -.906 -1123.799 2516.383)" gradientUnits="userSpaceOnUse" x1="-2366.992" x2="-2346.62" xlink:href="#lg1" y1="1530.255" y2="1530.255"/><linearGradient id="SVGID_00000174597518031877130250000007956648561361549735_" gradientTransform="matrix(-.906 .423 -.423 -.906 -1123.799 2516.383)" gradientUnits="userSpaceOnUse" x1="-2356.113" x2="-2330.266" xlink:href="#lg2" y1="1530.255" y2="1530.255"/><linearGradient id="SVGID_00000065058671285447591730000016832340411748262326_" gradientTransform="matrix(-.906 .423 -.423 -.906 -1123.799 2516.383)" gradientUnits="userSpaceOnUse" x1="-2350.791" x2="-2358.148" xlink:href="#lg2" y1="1540.523" y2="1515.356"/><linearGradient id="SVGID_00000087414490179376382820000000127521929398500228_" gradientTransform="matrix(-.906 .423 -.423 -.906 -1123.799 2516.383)" gradientUnits="userSpaceOnUse" x1="-2396.351" x2="-2355.696" xlink:href="#lg1" y1="1541.111" y2="1530.269"/><linearGradient id="SVGID_00000105407176373627369920000014033630271714411690_" gradientTransform="matrix(-.906 .423 -.423 -.906 -1123.799 2516.383)" gradientUnits="userSpaceOnUse" x1="-2381.41" x2="-2381.41" xlink:href="#lg2" y1="1509.346" y2="1456.369"/><linearGradient id="SVGID_00000013185121949806781700000003609369555605967252_" gradientTransform="matrix(-.906 .423 -.423 -.906 -1123.799 2516.383)" gradientUnits="userSpaceOnUse" x1="-2376.78" x2="-2351.613" xlink:href="#lg2" y1="1491.405" y2="1468.948"/><linearGradient id="SVGID_00000130643418440221693180000004317076987541763510_" gradientTransform="matrix(-.906 .423 -.423 -.906 -1123.799 2516.383)" gradientUnits="userSpaceOnUse" x1="-2381.41" x2="-2381.41" xlink:href="#lg3" y1="1472.924" y2="1457.7"/><linearGradient id="SVGID_00000181086651264255240690000013393080703173167290_" gradientTransform="matrix(1 0 0 -1 0 514)" gradientUnits="userSpaceOnUse" x1="256" x2="256" xlink:href="#lg1" y1="309.991" y2="297.319"/><linearGradient id="SVGID_00000081647666478251936930000016601461536547562377_" gradientTransform="matrix(1 0 0 -1 -392.84 1600.966)" gradientUnits="userSpaceOnUse" x1="658.778" x2="682.554" xlink:href="#lg2" y1="1382.995" y2="1382.995"/><linearGradient id="SVGID_00000073696433632005507520000006788475490566249141_" gradientTransform="matrix(1 0 0 -1 -392.84 1600.966)" gradientUnits="userSpaceOnUse" x1="648.84" x2="648.84" xlink:href="#lg2" y1="1379.422" y2="1363.865"/><linearGradient id="SVGID_00000054963221872232434820000017729159608366076349_" gradientTransform="matrix(1 0 0 -1 -392.84 1600.966)" gradientUnits="userSpaceOnUse" x1="652.747" x2="656.731" xlink:href="#lg3" y1="1375.308" y2="1364.115"/><linearGradient id="SVGID_00000005955095528059362300000004725369457460017593_" gradientTransform="matrix(1 0 0 -1 0 514)" gradientUnits="userSpaceOnUse" x1="17.683" x2="28.024" xlink:href="#lg1" y1="212.852" y2="208.112"/><linearGradient id="SVGID_00000108275846180620600150000000261564097465534596_" gradientTransform="matrix(1 0 0 -1 0 514)" gradientUnits="userSpaceOnUse" x1="29.678" x2="11.905" xlink:href="#lg2" y1="207.571" y2="210.479"/><linearGradient id="SVGID_00000075874740377812965630000016922292143704136862_" gradientTransform="matrix(1 0 0 -1 0 514)" gradientUnits="userSpaceOnUse" x1="10.322" x2="24.541" xlink:href="#lg2" y1="191.815" y2="177.165"/><linearGradient id="SVGID_00000087385503709858587690000004298709322941848226_" gradientTransform="matrix(1 0 0 -1 0 514)" gradientUnits="userSpaceOnUse" x1="40.434" x2="54.33" xlink:href="#lg2" y1="241.904" y2="252.568"/><linearGradient id="SVGID_00000023972013305631432550000011305532066483398047_" gradientTransform="matrix(-.27 .963 .963 .27 -1122.959 -751.5)" gradientUnits="userSpaceOnUse" x1="659.934" x2="672.909" xlink:href="#lg1" y1="1452.548" y2="1447.982"/><linearGradient id="SVGID_00000110435107130528468630000012924517014096710021_" gradientTransform="matrix(1 0 0 -1 0 514)" gradientUnits="userSpaceOnUse" x1="96.974" x2="118.518" xlink:href="#lg2" y1="227.237" y2="219.912"/><linearGradient id="SVGID_00000050659236723489986910000007605376052579720078_" gradientTransform="matrix(.94 -.341 -.341 -.94 106.91 496.394)" gradientUnits="userSpaceOnUse" x1="-26.458" x2="-16.117" xlink:href="#lg1" y1="158.227" y2="153.488"/><linearGradient id="SVGID_00000151502430720290830610000012631715216922063023_" gradientTransform="matrix(.94 -.341 -.341 -.94 106.91 496.394)" gradientUnits="userSpaceOnUse" x1="-14.463" x2="-32.236" xlink:href="#lg2" y1="152.946" y2="155.855"/><linearGradient id="SVGID_00000125593204219485097210000001264588196203062915_" gradientTransform="matrix(.94 -.341 -.341 -.94 106.91 496.394)" gradientUnits="userSpaceOnUse" x1="-33.819" x2="-19.6" xlink:href="#lg2" y1="137.191" y2="122.541"/><linearGradient id="SVGID_00000067932766384614946720000002495400504540178859_" gradientTransform="matrix(.94 -.341 -.341 -.94 106.91 496.394)" gradientUnits="userSpaceOnUse" x1="-3.707" x2="10.189" xlink:href="#lg2" y1="187.279" y2="197.943"/><linearGradient id="SVGID_00000143615399070341912740000001233443990382326449_" gradientTransform="matrix(.075 .997 .997 -.075 -1380.156 -310.55)" gradientUnits="userSpaceOnUse" x1="724.443" x2="737.418" xlink:href="#lg1" y1="1424.783" y2="1420.217"/><linearGradient id="SVGID_00000112612867458505500630000014994712833432243881_" gradientTransform="matrix(1 0 0 -1 0 514)" gradientUnits="userSpaceOnUse" x1="97.24" x2="120.938" xlink:href="#lg2" y1="197.893" y2="198.324"/><linearGradient id="SVGID_00000009583299348209604770000001738555821185653429_" gradientTransform="matrix(.576 -.818 -.818 -.576 244.153 398.399)" gradientUnits="userSpaceOnUse" x1="-105.611" x2="-95.27" xlink:href="#lg1" y1="147.579" y2="142.839"/><linearGradient id="SVGID_00000132090415987116232340000016664796418922231195_" gradientTransform="matrix(.576 -.818 -.818 -.576 244.153 398.399)" gradientUnits="userSpaceOnUse" x1="-93.615" x2="-111.389" xlink:href="#lg2" y1="142.298" y2="145.207"/><linearGradient id="SVGID_00000067221856054653117240000000186226276482870193_" gradientTransform="matrix(.576 -.818 -.818 -.576 244.153 398.399)" gradientUnits="userSpaceOnUse" x1="-112.972" x2="-98.753" xlink:href="#lg2" y1="126.542" y2="111.892"/><linearGradient id="SVGID_00000083787216938684436190000012614580266844970919_" gradientTransform="matrix(.576 -.818 -.818 -.576 244.153 398.399)" gradientUnits="userSpaceOnUse" x1="-82.86" x2="-68.964" xlink:href="#lg2" y1="176.631" y2="187.295"/><linearGradient id="SVGID_00000165952727413094439900000018031523123939246768_" gradientTransform="matrix(.43 .903 .903 -.43 -1486.894 243.214)" gradientUnits="userSpaceOnUse" x1="760.517" x2="773.493" xlink:href="#lg1" y1="1386.919" y2="1382.353"/><linearGradient id="SVGID_00000121280950045035600680000014290722887762623930_" gradientTransform="matrix(1 0 0 -1 0 514)" gradientUnits="userSpaceOnUse" x1="104.377" x2="125.49" xlink:href="#lg2" y1="173.709" y2="181.034"/><linearGradient id="SVGID_00000176021492872303362770000005268034426017693868_" gradientTransform="matrix(.179 -.984 -.984 -.179 284.317 315.645)" gradientUnits="userSpaceOnUse" x1="-142.416" x2="-132.075" xlink:href="#lg1" y1="143.937" y2="139.198"/><linearGradient id="SVGID_00000035501768556127269110000006620471555428711844_" gradientTransform="matrix(.179 -.984 -.984 -.179 284.317 315.645)" gradientUnits="userSpaceOnUse" x1="-130.421" x2="-148.194" xlink:href="#lg2" y1="138.657" y2="141.565"/><linearGradient id="SVGID_00000014593435391973070490000006358159441868169125_" gradientTransform="matrix(.179 -.984 -.984 -.179 284.317 315.645)" gradientUnits="userSpaceOnUse" x1="-149.777" x2="-135.558" xlink:href="#lg2" y1="122.901" y2="108.251"/><linearGradient id="SVGID_00000153678394564928306700000007743458011998377127_" gradientTransform="matrix(.179 -.984 -.984 -.179 284.317 315.645)" gradientUnits="userSpaceOnUse" x1="-119.665" x2="-105.769" xlink:href="#lg2" y1="172.989" y2="183.653"/><linearGradient id="SVGID_00000106846008199512153130000012657060095961341069_" gradientTransform="matrix(.769 .639 .639 -.769 -1351.894 901.664)" gradientUnits="userSpaceOnUse" x1="781.755" x2="794.73" xlink:href="#lg1" y1="1356.639" y2="1352.073"/><linearGradient id="SVGID_00000049917893968886704040000011972851365610763439_" gradientTransform="matrix(1 0 0 -1 0 514)" gradientUnits="userSpaceOnUse" x1="122.098" x2="134.593" xlink:href="#lg2" y1="150.163" y2="157.919"/><linearGradient id="SVGID_00000165210002351764988930000016563221230620286399_" gradientTransform="matrix(-1 0 0 -1 739.884 514)" gradientUnits="userSpaceOnUse" x1="245.568" x2="255.909" xlink:href="#lg1" y1="212.852" y2="208.112"/><linearGradient id="SVGID_00000051357841367181481670000006369209152816906628_" gradientTransform="matrix(-1 0 0 -1 739.884 514)" gradientUnits="userSpaceOnUse" x1="257.563" x2="239.789" xlink:href="#lg2" y1="207.571" y2="210.479"/><linearGradient id="SVGID_00000074423682713600264550000016570467709227299462_" gradientTransform="matrix(-1 0 0 -1 739.884 514)" gradientUnits="userSpaceOnUse" x1="238.206" x2="252.425" xlink:href="#lg2" y1="191.815" y2="177.165"/><linearGradient id="SVGID_00000134245578841774553510000016672873620963877296_" gradientTransform="matrix(-1 0 0 -1 739.884 514)" gradientUnits="userSpaceOnUse" x1="268.319" x2="282.214" xlink:href="#lg2" y1="241.904" y2="252.568"/><linearGradient id="SVGID_00000029024346010881699410000018325257791075762834_" gradientTransform="matrix(.27 .963 -.963 .27 1862.843 -751.5)" gradientUnits="userSpaceOnUse" x1="598.445" x2="611.421" xlink:href="#lg1" y1="1671.98" y2="1667.414"/><linearGradient id="SVGID_00000019652674588922033670000011170199432920281526_" gradientTransform="matrix(-1 0 0 -1 739.884 514)" gradientUnits="userSpaceOnUse" x1="324.858" x2="346.402" xlink:href="#lg2" y1="227.237" y2="219.912"/><linearGradient id="SVGID_00000148648555715728992540000012134381986746539953_" gradientTransform="matrix(-.94 -.341 .341 -.94 632.974 496.394)" gradientUnits="userSpaceOnUse" x1="187.78" x2="198.121" xlink:href="#lg1" y1="80.551" y2="75.811"/><linearGradient id="SVGID_00000152983852391662609460000006846965667410421386_" gradientTransform="matrix(-.94 -.341 .341 -.94 632.974 496.394)" gradientUnits="userSpaceOnUse" x1="199.775" x2="182.001" xlink:href="#lg2" y1="75.27" y2="78.178"/><linearGradient id="SVGID_00000032640424663462424820000014742829014821412498_" gradientTransform="matrix(-.94 -.341 .341 -.94 632.974 496.394)" gradientUnits="userSpaceOnUse" x1="180.418" x2="194.637" xlink:href="#lg2" y1="59.514" y2="44.864"/><linearGradient id="SVGID_00000039107314949521431920000007823068654147877032_" gradientTransform="matrix(-.94 -.341 .341 -.94 632.974 496.394)" gradientUnits="userSpaceOnUse" x1="210.531" x2="224.426" xlink:href="#lg2" y1="109.603" y2="120.267"/><linearGradient id="SVGID_00000060752556636527168120000015806057792096349600_" gradientTransform="matrix(-.075 .997 -.997 -.075 2120.04 -310.55)" gradientUnits="userSpaceOnUse" x1="741.432" x2="754.407" xlink:href="#lg1" y1="1652.033" y2="1647.467"/><linearGradient id="SVGID_00000096035625174188978570000017924629253369007755_" gradientTransform="matrix(-1 0 0 -1 739.884 514)" gradientUnits="userSpaceOnUse" x1="325.124" x2="348.822" xlink:href="#lg2" y1="197.893" y2="198.324"/><linearGradient id="SVGID_00000108271439224954263680000014823996766468508584_" gradientTransform="matrix(-.576 -.818 .818 -.576 495.731 398.399)" gradientUnits="userSpaceOnUse" x1="25.599" x2="35.94" xlink:href="#lg1" y1="-38.742" y2="-43.481"/><linearGradient id="SVGID_00000154410554256303152740000010465662976224940684_" gradientTransform="matrix(-.576 -.818 .818 -.576 495.731 398.399)" gradientUnits="userSpaceOnUse" x1="37.594" x2="19.821" xlink:href="#lg2" y1="-44.022" y2="-41.114"/><linearGradient id="SVGID_00000067950129061601737560000004665103374522465423_" gradientTransform="matrix(-.576 -.818 .818 -.576 495.731 398.399)" gradientUnits="userSpaceOnUse" x1="18.238" x2="32.457" xlink:href="#lg2" y1="-59.778" y2="-74.428"/><linearGradient id="SVGID_00000094595960539316663380000018039489570198126482_" gradientTransform="matrix(-.576 -.818 .818 -.576 495.731 398.399)" gradientUnits="userSpaceOnUse" x1="48.35" x2="62.246" xlink:href="#lg2" y1="-9.69" y2=".974"/><linearGradient id="SVGID_00000179641753393310386130000016778031981449783979_" gradientTransform="matrix(-.43 .903 -.903 -.43 2226.778 243.214)" gradientUnits="userSpaceOnUse" x1="858.452" x2="871.428" xlink:href="#lg1" y1="1592.686" y2="1588.12"/><linearGradient id="SVGID_00000098927766689465945510000000198810177988786853_" gradientTransform="matrix(-1 0 0 -1 739.884 514)" gradientUnits="userSpaceOnUse" x1="332.261" x2="353.374" xlink:href="#lg2" y1="173.709" y2="181.034"/><linearGradient id="SVGID_00000060731183940221206710000012522377630209953940_" gradientTransform="matrix(-.179 -.984 .984 -.179 455.567 315.645)" gradientUnits="userSpaceOnUse" x1="-101.569" x2="-91.228" xlink:href="#lg1" y1="-80.257" y2="-84.996"/><linearGradient id="SVGID_00000019663350135521893920000013878073820450600848_" gradientTransform="matrix(-.179 -.984 .984 -.179 455.567 315.645)" gradientUnits="userSpaceOnUse" x1="-89.574" x2="-107.347" xlink:href="#lg2" y1="-85.537" y2="-82.629"/><linearGradient id="SVGID_00000142136594411130175020000001155206897302772411_" gradientTransform="matrix(-.179 -.984 .984 -.179 455.567 315.645)" gradientUnits="userSpaceOnUse" x1="-108.93" x2="-94.711" xlink:href="#lg2" y1="-101.293" y2="-115.943"/><linearGradient id="SVGID_00000016796426450806300090000008343159131462336431_" gradientTransform="matrix(-.179 -.984 .984 -.179 455.567 315.645)" gradientUnits="userSpaceOnUse" x1="-78.818" x2="-64.922" xlink:href="#lg2" y1="-51.205" y2="-40.541"/><linearGradient id="SVGID_00000063621895987386727470000006810408130709557433_" gradientTransform="matrix(-.769 .639 -.639 -.769 2091.778 901.664)" gradientUnits="userSpaceOnUse" x1="957.038" x2="970.014" xlink:href="#lg1" y1="1502.265" y2="1497.699"/><linearGradient id="SVGID_00000126301523738313977950000011278885871360472496_" gradientTransform="matrix(-1 0 0 -1 739.884 514)" gradientUnits="userSpaceOnUse" x1="349.982" x2="362.478" xlink:href="#lg2" y1="150.163" y2="157.919"/><linearGradient id="SVGID_00000016758630100090159520000012910475211629606305_" gradientTransform="matrix(1 0 0 -1 0 514)" gradientUnits="userSpaceOnUse" x1="210.252" x2="335.688" xlink:href="#lg1" y1="252.525" y2="127.09"/><linearGradient id="SVGID_00000179635610483480002160000002332997777882875554_" gradientTransform="matrix(1 0 0 -1 -685.206 -33.832)" gradientUnits="userSpaceOnUse" x1="816.384" x2="1024.464" xlink:href="#lg2" y1="-221.168" y2="-566.288"/><linearGradient id="SVGID_00000116923703735860925240000006418220116480641214_" gradientTransform="matrix(1 0 0 -1 -685.206 -33.832)" gradientUnits="userSpaceOnUse" x1="851.46" x2="1059.54" xlink:href="#lg2" y1="-200.02" y2="-545.14"/><linearGradient id="SVGID_00000104704789874242464610000004721897273401542274_" gradientTransform="matrix(1 0 0 -1 -685.206 -33.832)" gradientUnits="userSpaceOnUse" x1="871.333" x2="1079.413" xlink:href="#lg2" y1="-188.038" y2="-533.157"/><linearGradient id="SVGID_00000002359598701066639610000001133324732992033922_" gradientTransform="matrix(1 0 0 -1 -685.206 -33.832)" gradientUnits="userSpaceOnUse" x1="892.749" x2="1100.829" xlink:href="#lg2" y1="-175.126" y2="-520.246"/><linearGradient id="SVGID_00000158741526803575719850000015885643037731690630_" gradientTransform="matrix(1 0 0 -1 -685.206 -33.832)" gradientUnits="userSpaceOnUse" x1="828.741" x2="1036.821" xlink:href="#lg2" y1="-213.717" y2="-558.837"/><linearGradient id="SVGID_00000079452603619495032250000013134157224731605895_" gradientTransform="matrix(1 0 0 -1 -685.206 -33.832)" gradientUnits="userSpaceOnUse" x1="809.693" x2="1017.773" xlink:href="#lg2" y1="-225.202" y2="-570.321"/><linearGradient id="SVGID_00000137102002419986020110000011009336707652608912_" gradientTransform="matrix(1 0 0 -1 -685.206 -33.832)" gradientUnits="userSpaceOnUse" x1="845.352" x2="1053.432" xlink:href="#lg2" y1="-203.702" y2="-548.822"/><linearGradient id="SVGID_00000093896564648429090560000002889663341579290264_" gradientTransform="matrix(1 0 0 -1 -685.206 -33.832)" gradientUnits="userSpaceOnUse" x1="789.468" x2="997.548" xlink:href="#lg2" y1="-237.396" y2="-582.516"/><linearGradient id="SVGID_00000043433027639535845330000009625870923981300641_" gradientTransform="matrix(1 0 0 -1 -685.206 -33.832)" gradientUnits="userSpaceOnUse" x1="878.782" x2="1086.862" xlink:href="#lg2" y1="-183.547" y2="-528.666"/><linearGradient id="SVGID_00000158721593909554691310000005752715309547563188_" gradientTransform="matrix(1 0 0 -1 -685.206 -33.832)" gradientUnits="userSpaceOnUse" x1="895.881" x2="1103.961" xlink:href="#lg2" y1="-173.237" y2="-518.357"/><linearGradient id="SVGID_00000112630816727430536190000003045781452815318928_" gradientTransform="matrix(1 0 0 -1 -685.206 -33.832)" gradientUnits="userSpaceOnUse" x1="818.747" x2="1026.827" xlink:href="#lg2" y1="-219.743" y2="-564.863"/><linearGradient id="SVGID_00000061474066937929235250000010338444092047326654_" gradientTransform="matrix(1 0 0 -1 -685.206 -33.832)" gradientUnits="userSpaceOnUse" x1="785.175" x2="993.255" xlink:href="#lg2" y1="-239.984" y2="-585.104"/><linearGradient id="SVGID_00000054950050833158780350000003962186332634558653_" gradientTransform="matrix(1 0 0 -1 -685.206 -33.832)" gradientUnits="userSpaceOnUse" x1="836.521" x2="1044.601" xlink:href="#lg2" y1="-209.027" y2="-554.147"/><linearGradient id="SVGID_00000183237186589306369520000017164367313543135369_" gradientTransform="matrix(1 0 0 -1 -685.206 -33.832)" gradientUnits="userSpaceOnUse" x1="801.05" x2="1009.13" xlink:href="#lg2" y1="-230.413" y2="-575.532"/><linearGradient id="SVGID_00000055687923924489922260000017711150217800739250_" gradientTransform="matrix(1 0 0 -1 0 514)" gradientUnits="userSpaceOnUse" x1="256" x2="256" xlink:href="#lg2" y1="154.553" y2="73.994"/><linearGradient id="SVGID_00000165953219499248602840000000548032063809567879_" gradientTransform="matrix(1 0 0 -1 0 514)" gradientUnits="userSpaceOnUse" x1="288.038" x2="372.382" xlink:href="#lg2" y1="182.241" y2="142.493"/><linearGradient id="SVGID_00000168806670371035645920000001367441295898359694_" gradientTransform="matrix(1 0 0 -1 0 514)" gradientUnits="userSpaceOnUse" x1="257.986" x2="196.909" xlink:href="#lg2" y1="208.395" y2="245.235"/><linearGradient id="lg4"><stop offset="0" stop-color="#7a6d79"/><stop offset=".2546" stop-color="#6c616c"/><stop offset=".6831" stop-color="#5b535b"/><stop offset="1" stop-color="#554e56"/></linearGradient><linearGradient id="SVGID_00000060752403979000622000000002767846975588433550_" gradientTransform="matrix(0 1 -1 0 4204.29 -2271.864)" gradientUnits="userSpaceOnUse" x1="2476.477" x2="2494.14" xlink:href="#lg4" y1="4003.127" y2="3985.464"/><linearGradient id="lg5"><stop offset="0" stop-color="#593636" stop-opacity="0"/><stop offset=".2774" stop-color="#543333" stop-opacity=".101"/><stop offset=".5956" stop-color="#482d2e" stop-opacity=".396"/><stop offset=".9328" stop-color="#332224" stop-opacity=".883"/><stop offset="1" stop-color="#2f2022"/></linearGradient><linearGradient id="SVGID_00000086666212831966803540000008644918902582169475_" gradientTransform="matrix(0 1 -1 0 4204.29 -2271.864)" gradientUnits="userSpaceOnUse" x1="2486.937" x2="2486.937" xlink:href="#lg5" y1="3997.334" y2="3977.005"/><linearGradient id="SVGID_00000121970635958239852000000014481856225932379578_" gradientTransform="matrix(0 1 -1 0 4204.29 -2271.864)" gradientUnits="userSpaceOnUse" x1="2480.544" x2="2497.081" xlink:href="#lg5" y1="3997.418" y2="3985.133"/><linearGradient id="lg6"><stop offset="0" stop-color="#fff" stop-opacity="0"/><stop offset=".1606" stop-color="#fff" stop-opacity=".013"/><stop offset=".2909" stop-color="#fff" stop-opacity=".052"/><stop offset=".4105" stop-color="#fff" stop-opacity=".119"/><stop offset=".5238" stop-color="#fff" stop-opacity=".213"/><stop offset=".6326" stop-color="#fff" stop-opacity=".335"/><stop offset=".7381" stop-color="#fff" stop-opacity=".484"/><stop offset=".8409" stop-color="#fff" stop-opacity=".661"/><stop offset=".939" stop-color="#fff" stop-opacity=".86"/><stop offset="1" stop-color="#fff"/></linearGradient><linearGradient id="SVGID_00000169556304435354158090000001231731375857750194_" gradientTransform="matrix(0 1 -1 0 4204.29 -2271.864)" gradientUnits="userSpaceOnUse" x1="2493.663" x2="2502.189" xlink:href="#lg6" y1="3985.94" y2="3977.415"/><linearGradient id="SVGID_00000032630383085757317080000000320360352402599560_" gradientTransform="matrix(0 1 -1 0 4204.29 -2271.864)" gradientUnits="userSpaceOnUse" x1="2476.477" x2="2494.14" xlink:href="#lg4" y1="3914.363" y2="3896.7"/><linearGradient id="SVGID_00000148663202378514919430000003229918706672091264_" gradientTransform="matrix(0 1 -1 0 4204.29 -2271.864)" gradientUnits="userSpaceOnUse" x1="2486.937" x2="2486.937" xlink:href="#lg5" y1="3908.57" y2="3888.241"/><linearGradient id="SVGID_00000124859160724872143710000003516364418886848683_" gradientTransform="matrix(0 1 -1 0 4204.29 -2271.864)" gradientUnits="userSpaceOnUse" x1="2480.544" x2="2497.081" xlink:href="#lg5" y1="3908.653" y2="3896.369"/><linearGradient id="SVGID_00000142170466207009221500000002571480911089272251_" gradientTransform="matrix(0 1 -1 0 4204.29 -2271.864)" gradientUnits="userSpaceOnUse" x1="2493.663" x2="2502.189" xlink:href="#lg6" y1="3897.176" y2="3888.65"/><g><g><g><path d="m131.855 263.198c-6.772-27.152-24.577-29.165-33.256-28.414-2.253.195-5.736 3.434-6.094 5.667-1.461 9.11-.573 28.657 30.918 36.68 1.568.399 2.566 1.429 2.891 2.992.502 2.421 2.915 2.156 5.041 1.393 2.061-.74 4.493-3.002 5.381-5.003.719-1.621 1.144-3.44.143-4.475-2.314-2.393-4.128-5.248-5.024-8.84z" fill="url(#SVGID_1_)"/><path d="m131.855 263.198c-6.772-27.152-24.577-29.165-33.256-28.414-2.253.195-5.736 3.434-6.094 5.667-1.461 9.11-.573 28.657 30.918 36.68 1.568.399 2.566 1.429 2.891 2.992.502 2.421 2.915 2.156 5.041 1.393 2.061-.74 4.493-3.002 5.381-5.003.719-1.621 1.144-3.44.143-4.475-2.314-2.393-4.128-5.248-5.024-8.84z" fill="url(#SVGID_00000111169106812321612730000005846481457000624039_)"/><path d="m131.855 263.198c-6.772-27.152-24.577-29.165-33.256-28.414-2.253.195-5.736 3.434-6.094 5.667-1.461 9.11-.573 28.657 30.918 36.68 1.568.399 2.566 1.429 2.891 2.992.502 2.421 2.915 2.156 5.041 1.393 2.061-.74 4.493-3.002 5.381-5.003.719-1.621 1.144-3.44.143-4.475-2.314-2.393-4.128-5.248-5.024-8.84z" fill="url(#SVGID_00000134229571546365990460000015567533434886335153_)"/><path d="m113.026 219.491c14.991-38.27-4.616-55.828-15.646-62.312-2.863-1.683-9.789-.769-12.117 1.6-9.499 9.665-25.064 33.824 5.814 70.219 1.537 1.812 1.857 3.895.916 6.042-1.458 3.326 1.656 5.062 4.85 5.956 3.097.867 7.933.228 10.698-1.413 2.239-1.329 4.296-3.145 3.978-5.236-.733-4.832-.476-9.792 1.507-14.856z" fill="url(#SVGID_00000039118115051519684460000002905434334729493436_)"/><path d="m113.026 219.491c14.991-38.27-4.616-55.828-15.646-62.312-2.863-1.683-9.789-.768-12.117 1.6-7.244 7.371-18.014 23.174-9.022 46.404l35.966 16.771c.235-.818.496-1.638.819-2.463z" fill="url(#SVGID_00000183234861775811105270000004472906426508865676_)"/><g><g><path d="m113.791 140.393 6.489 45.78 18.663-11.208c27.564-16.553 43.767-47.008 41.937-79.108-.008-.141-.016-.281-.024-.421-.429-7.341-4.781-12.998-10.519-15.796-1.756-.856-3.818.347-3.883 2.3-.276 8.171-2.286 16.814-6.194 25.195-9.939 21.314-29.052 34.309-46.469 33.258z" fill="url(#SVGID_00000162353455088531496640000012181708221628466059_)"/><path d="m113.791 140.393 6.489 45.78 18.663-11.208c27.564-16.553 43.767-47.008 41.937-79.108-.008-.141-.016-.281-.024-.421-.429-7.341-4.781-12.998-10.519-15.796-1.756-.856-3.818.347-3.883 2.3-.276 8.171-2.286 16.814-6.194 25.195-9.939 21.314-29.052 34.309-46.469 33.258z" fill="url(#SVGID_00000117657474859054824510000000572058297977742513_)"/><path d="m113.791 140.393 6.489 45.78 18.663-11.208c21.107-12.676 35.54-33.506 40.328-56.982l-19.796-9.231c-10.135 20.349-28.713 32.665-45.684 31.641z" fill="url(#SVGID_00000004530517377904781520000009585899547221162156_)"/></g><g><path d="m91.981 185.834c-1.809-1.128-3.596-2.342-5.347-3.619-1.757-1.282-3.452-2.609-5.085-3.992-24.074-20.318-22.888-57.716 1.962-77.082 28.136-21.92 52.457-35.833 70.503-44.45 7.847-3.75 16.192-2.475 22.367 1.869 1.89 1.33 1.821 4.152-.163 5.336-8.305 4.954-16.107 11.973-22.553 20.809-20.005 27.419-19.393 61.923 1.372 77.074.023.017.046.034.07.051 4.091 2.97 5.044 8.699 1.91 12.666-15.113 19.132-43.073 25.1-65.036 11.338z" fill="url(#SVGID_00000177465555888525061150000011693991282826057895_)"/><path d="m83.511 101.141c-24.85 19.366-26.036 56.764-1.962 77.082 1.633 1.383 3.327 2.71 5.085 3.992 1.751 1.277 3.538 2.491 5.347 3.619 21.963 13.762 49.923 7.794 65.036-11.338 3.134-3.967 2.181-9.696-1.91-12.666-.023-.017-.047-.034-.07-.051-11.202-8.173-16.527-21.981-15.927-37.268l-53.537-24.965c-.685.528-1.371 1.057-2.062 1.595z" fill="url(#SVGID_00000004536788013642026480000014345559716584291734_)"/><path d="m83.511 101.141c-24.85 19.366-26.036 56.764-1.962 77.082 1.633 1.383 3.327 2.71 5.085 3.992 1.751 1.277 3.538 2.491 5.347 3.619 21.963 13.762 49.923 7.794 65.036-11.338 3.134-3.967 2.181-9.696-1.91-12.666-.023-.017-.047-.034-.07-.051-11.202-8.173-16.527-21.981-15.927-37.268l-53.537-24.965c-.685.528-1.371 1.057-2.062 1.595z" fill="url(#SVGID_00000028293960056108636160000003614026461464177803_)"/><path d="m83.511 101.141c-24.85 19.366-26.036 56.764-1.962 77.082 1.633 1.383 3.327 2.71 5.085 3.992 1.751 1.277 3.538 2.491 5.347 3.619 21.963 13.762 49.923 7.794 65.036-11.338 3.134-3.967 2.181-9.696-1.91-12.666-.023-.017-.047-.034-.07-.051-11.202-8.173-16.527-21.981-15.927-37.268l-53.537-24.965c-.685.528-1.371 1.057-2.062 1.595z" fill="url(#SVGID_00000078010634221847375230000017560402939841650860_)"/></g></g></g><g><path d="m380.145 263.198c6.772-27.152 24.578-29.165 33.256-28.414 2.253.195 5.736 3.434 6.094 5.667 1.461 9.11.573 28.657-30.918 36.68-1.568.399-2.566 1.429-2.891 2.992-.502 2.421-2.915 2.156-5.041 1.393-2.061-.74-4.493-3.002-5.381-5.003-.719-1.621-1.144-3.44-.143-4.475 2.314-2.393 4.128-5.248 5.024-8.84z" fill="url(#SVGID_00000153675431797973442600000010134972197188714382_)"/><path d="m380.145 263.198c6.772-27.152 24.578-29.165 33.256-28.414 2.253.195 5.736 3.434 6.094 5.667 1.461 9.11.573 28.657-30.918 36.68-1.568.399-2.566 1.429-2.891 2.992-.502 2.421-2.915 2.156-5.041 1.393-2.061-.74-4.493-3.002-5.381-5.003-.719-1.621-1.144-3.44-.143-4.475 2.314-2.393 4.128-5.248 5.024-8.84z" fill="url(#SVGID_00000163767285278333096610000012392620590078685348_)"/><path d="m380.145 263.198c6.772-27.152 24.578-29.165 33.256-28.414 2.253.195 5.736 3.434 6.094 5.667 1.461 9.11.573 28.657-30.918 36.68-1.568.399-2.566 1.429-2.891 2.992-.502 2.421-2.915 2.156-5.041 1.393-2.061-.74-4.493-3.002-5.381-5.003-.719-1.621-1.144-3.44-.143-4.475 2.314-2.393 4.128-5.248 5.024-8.84z" fill="url(#SVGID_00000002347570586208516610000006427428027585644188_)"/><path d="m398.974 219.491c-14.991-38.27 4.616-55.828 15.646-62.312 2.863-1.683 9.789-.769 12.117 1.6 9.499 9.665 25.064 33.824-5.814 70.219-1.537 1.812-1.857 3.895-.915 6.042 1.458 3.326-1.656 5.062-4.85 5.956-3.097.867-7.933.228-10.698-1.413-2.239-1.329-4.296-3.145-3.978-5.236.732-4.832.475-9.792-1.508-14.856z" fill="url(#SVGID_00000000196155572674746130000000407075215247863715_)"/><path d="m398.974 219.491c-14.991-38.27 4.616-55.828 15.646-62.312 2.863-1.683 9.789-.768 12.117 1.6 7.244 7.371 18.014 23.174 9.022 46.404l-35.966 16.771c-.235-.818-.496-1.638-.819-2.463z" fill="url(#SVGID_00000164513454816117835240000007380940180656710560_)"/><g><g><path d="m398.209 140.393-6.489 45.78-18.663-11.208c-27.564-16.553-43.767-47.008-41.937-79.108.008-.141.016-.281.024-.421.429-7.341 4.781-12.998 10.519-15.796 1.756-.856 3.818.347 3.883 2.3.276 8.171 2.286 16.814 6.194 25.195 9.938 21.314 29.052 34.309 46.469 33.258z" fill="url(#SVGID_00000138550024909920301460000000620719243588929949_)"/><path d="m398.209 140.393-6.489 45.78-18.663-11.208c-27.564-16.553-43.767-47.008-41.937-79.108.008-.141.016-.281.024-.421.429-7.341 4.781-12.998 10.519-15.796 1.756-.856 3.818.347 3.883 2.3.276 8.171 2.286 16.814 6.194 25.195 9.938 21.314 29.052 34.309 46.469 33.258z" fill="url(#SVGID_00000174597518031877130250000007956648561361549735_)"/><path d="m398.209 140.393-6.489 45.78-18.663-11.208c-21.107-12.676-35.54-33.506-40.328-56.982l19.796-9.231c10.135 20.349 28.713 32.665 45.684 31.641z" fill="url(#SVGID_00000065058671285447591730000016832340411748262326_)"/></g><g><path d="m420.019 185.834c1.809-1.128 3.596-2.342 5.347-3.619 1.757-1.282 3.452-2.609 5.085-3.992 24.074-20.318 22.888-57.716-1.962-77.082-28.136-21.92-52.457-35.833-70.503-44.45-7.847-3.75-16.192-2.475-22.367 1.869-1.89 1.33-1.821 4.152.163 5.336 8.305 4.954 16.107 11.973 22.553 20.809 20.005 27.419 19.393 61.923-1.372 77.074-.023.017-.046.034-.07.051-4.091 2.97-5.044 8.699-1.91 12.666 15.113 19.132 43.073 25.1 65.036 11.338z" fill="url(#SVGID_00000087414490179376382820000000127521929398500228_)"/><path d="m428.489 101.141c24.85 19.366 26.036 56.764 1.962 77.082-1.633 1.383-3.327 2.71-5.085 3.992-1.751 1.277-3.538 2.491-5.347 3.619-21.963 13.762-49.923 7.794-65.036-11.338-3.134-3.967-2.181-9.696 1.91-12.666.023-.017.047-.034.07-.051 11.202-8.173 16.527-21.981 15.927-37.268l53.537-24.965c.685.528 1.371 1.057 2.062 1.595z" fill="url(#SVGID_00000105407176373627369920000014033630271714411690_)"/><path d="m428.489 101.141c24.85 19.366 26.036 56.764 1.962 77.082-1.633 1.383-3.327 2.71-5.085 3.992-1.751 1.277-3.538 2.491-5.347 3.619-21.963 13.762-49.923 7.794-65.036-11.338-3.134-3.967-2.181-9.696 1.91-12.666.023-.017.047-.034.07-.051 11.202-8.173 16.527-21.981 15.927-37.268l53.537-24.965c.685.528 1.371 1.057 2.062 1.595z" fill="url(#SVGID_00000013185121949806781700000003609369555605967252_)"/><path d="m428.489 101.141c24.85 19.366 26.036 56.764 1.962 77.082-1.633 1.383-3.327 2.71-5.085 3.992-1.751 1.277-3.538 2.491-5.347 3.619-21.963 13.762-49.923 7.794-65.036-11.338-3.134-3.967-2.181-9.696 1.91-12.666.023-.017.047-.034.07-.051 11.202-8.173 16.527-21.981 15.927-37.268l53.537-24.965c.685.528 1.371 1.057 2.062 1.595z" fill="url(#SVGID_00000130643418440221693180000004317076987541763510_)"/></g></g></g></g><g><path d="m284.144 201.346c-2.122-2.4-6.959-3.25-9.451-1.72-3.612 2.217-8.771 3.753-14.946 4.045-1.235.058-2.486.088-3.747.088-1.262 0-2.511-.03-3.747-.088-6.186-.292-11.332-1.829-14.929-4.047-2.491-1.536-7.335-.692-9.461 1.712-.061.069-.123.139-.184.208-11.684 13.243-3.748 33.592 23.072 35.366 1.731.114 3.482.173 5.248.173 1.764 0 3.513-.058 5.242-.172 26.822-1.773 34.763-22.123 23.078-35.367-.058-.066-.116-.132-.175-.198z" fill="url(#SVGID_00000181086651264255240690000013393080703173167290_)"/><path d="m284.144 201.346c-2.122-2.4-6.959-3.25-9.451-1.72-3.612 2.217-8.771 3.753-14.946 4.045-1.235.058-2.486.088-3.747.088-.934 0-1.853-.033-2.773-.065v33.34c.92.032 1.844.05 2.773.05 1.764 0 3.513-.058 5.242-.172 26.822-1.773 34.763-22.123 23.078-35.367-.059-.067-.117-.133-.176-.199z" fill="url(#SVGID_00000081647666478251936930000016601461536547562377_)"/><path d="m250.752 236.911c1.731.115 3.482.173 5.248.173 1.764 0 3.513-.058 5.242-.172 21.847-1.444 31.164-15.213 27.556-27.428h-65.595c-3.61 12.214 5.704 25.982 27.549 27.427z" fill="url(#SVGID_00000073696433632005507520000006788475490566249141_)"/><path d="m250.752 236.911c1.731.115 3.482.173 5.248.173 1.764 0 3.513-.058 5.242-.172 21.847-1.444 31.164-15.213 27.556-27.428h-65.595c-3.61 12.214 5.704 25.982 27.549 27.427z" fill="url(#SVGID_00000054963221872232434820000017729159608366076349_)"/></g><g><g><g><path d="m20.519 334.374c-3.531 1.214-6.416 3.814-7.991 7.199l-9.115 19.595c-.479 1.03-1.982 1.092-2.462.062-.004-.008-.007-.016-.011-.024-.87-1.913-1.423-4.497-.345-7.389 2.493-6.691 4.415-13.59 5.277-20.68 6.491-53.6 26.383-77.426 36.157-86.112 2.539-2.258 6.573-.789 7.072 2.575 1.741 11.913 1.819 39.184-21.209 78.753-1.647 2.83-4.277 4.957-7.373 6.021z" fill="url(#SVGID_00000005955095528059362300000004725369457460017593_)"/><path d="m20.519 334.374c3.096-1.065 5.726-3.191 7.372-6.021 22.414-38.514 22.937-65.372 21.344-77.762-22.416 35.99-45.822 110.578-45.822 110.578l9.115-19.595c1.575-3.386 4.46-5.985 7.991-7.2z" fill="url(#SVGID_00000108275846180620600150000000261564097465534596_)"/><path d="m11.322 303.958c-2.239 8.578-4.126 18.25-5.45 29.18-.861 7.09-2.783 13.989-5.277 20.68-1.079 2.892-.526 5.476.345 7.389.004.008.007.016.011.024.48 1.03 1.983.968 2.462-.062l9.115-19.595c1.575-3.386 4.46-5.985 7.991-7.199 3.096-1.065 5.726-3.191 7.372-6.021 5.089-8.744 9.046-16.886 12.11-24.396z" fill="url(#SVGID_00000075874740377812965630000016922292143704136862_)"/><path d="m42.029 247.026c-5.875 5.221-15.403 15.924-23.481 35.263l25.36 11.003c6.767-20.836 6.359-35.713 5.193-43.692-.499-3.363-4.534-4.832-7.072-2.574z" fill="url(#SVGID_00000087385503709858587690000004298709322941848226_)"/><path d="m71.107 256.354c49.858 20.712 67.429 46.3 73.161 58.052 1.488 3.051-1.019 6.544-4.385 6.113-13.735-1.761-46.43-11.13-84.81-58.241-1.91-2.345-4.397-4.162-7.214-5.263-4.364-1.706-5.866-4.95-6.321-7.586-.442-2.556 1.308-4.996 3.872-5.397 2.075-.325 4.711-.158 7.207 1.663 5.768 4.21 11.893 7.919 18.49 10.659z" fill="url(#SVGID_00000023972013305631432550000011305532066483398047_)"/><path d="m81.107 260.778v28.931c26.714 23.675 48.28 29.464 58.775 30.81 3.366.432 5.873-3.062 4.385-6.113-5.329-10.928-20.913-33.818-63.16-53.628z" fill="url(#SVGID_00000110435107130528468630000012924517014096710021_)"/></g><g><path d="m42.095 386.931c-2.906 2.345-4.732 5.772-5.059 9.492l-1.89 21.528c-.099 1.132-1.491 1.702-2.293.898-.006-.006-.012-.012-.018-.018-1.47-1.502-2.871-3.742-2.843-6.829.063-7.14-.482-14.282-2.088-21.24-12.167-52.603-1.588-81.783 4.639-93.279 1.617-2.988 5.911-2.982 7.526.01 5.697 10.606 15.066 36.218 6.905 81.266-.584 3.22-2.331 6.116-4.879 8.172z" fill="url(#SVGID_00000050659236723489986910000007605376052579720078_)"/><path d="m42.095 386.931c2.548-2.056 4.295-4.952 4.878-8.173 7.944-43.847-.719-69.275-6.44-80.38-8.806 41.475-5.387 119.574-5.387 119.574l1.89-21.529c.327-3.72 2.154-7.147 5.059-9.492z" fill="url(#SVGID_00000151502430720290830610000012631715216922063023_)"/><path d="m23.081 361.471c.819 8.827 2.342 18.564 4.823 29.29 1.607 6.959 2.152 14.1 2.088 21.24-.028 3.087 1.372 5.327 2.843 6.829.006.006.012.012.018.018.803.804 2.194.234 2.293-.898l1.89-21.528c.327-3.72 2.153-7.147 5.059-9.492 2.548-2.056 4.295-4.952 4.878-8.173 1.804-9.955 2.749-18.958 3.069-27.062z" fill="url(#SVGID_00000125593204219485097210000001264588196203062915_)"/><path d="m32.543 297.482c-3.743 6.91-9.052 20.221-10.055 41.155l27.592 1.7c-.74-21.895-6.195-35.742-10.011-42.845-1.615-2.992-5.909-2.998-7.526-.01z" fill="url(#SVGID_00000067932766384614946720000002495400504540178859_)"/><path d="m63.06 296.34c53.932 2.478 79.173 20.544 88.567 29.638 2.438 2.361 1.273 6.5-2.039 7.241-13.513 3.026-47.443 5.363-99.583-25.845-2.595-1.553-5.552-2.414-8.576-2.489-4.684-.116-7.202-2.654-8.529-4.977-1.287-2.253-.473-5.143 1.8-6.393 1.84-1.013 4.375-1.755 7.342-.893 6.86 1.991 13.882 3.39 21.018 3.718z" fill="url(#SVGID_00000143615399070341912740000001233443990382326449_)"/><path d="m73.969 297.09 9.861 27.198c33.183 13.151 55.432 11.243 65.757 8.931 3.312-.742 4.477-4.881 2.039-7.241-8.734-8.457-31.188-24.664-77.657-28.888z" fill="url(#SVGID_00000112612867458505500630000014994712833432243881_)"/></g><g><path d="m91.483 416.587c-1.04 3.586-.576 7.442 1.285 10.679l10.773 18.734c.566.985-.248 2.249-1.366 2.049-.009-.002-.017-.003-.026-.005-2.065-.39-4.496-1.425-6.24-3.973-4.035-5.891-8.569-11.435-13.87-16.221-40.086-36.169-48.114-66.151-49.588-79.143-.384-3.375 3.14-5.828 6.177-4.299 10.742 5.436 33.085 21.074 52.177 62.684 1.365 2.976 1.59 6.351.678 9.495z" fill="url(#SVGID_00000009583299348209604770000001738555821185653429_)"/><path d="m91.483 416.587c.912-3.144.687-6.519-.678-9.494-18.584-40.501-40.242-56.392-51.29-62.224 16.519 39.049 64.026 101.132 64.026 101.132l-10.773-18.735c-1.862-3.238-2.326-7.093-1.285-10.679z" fill="url(#SVGID_00000132090415987116232340000016664796418922231195_)"/><path d="m61.318 406.594c5.724 6.769 12.546 13.881 20.72 21.257 5.301 4.786 9.835 10.33 13.87 16.221 1.743 2.547 4.175 3.583 6.24 3.973.009.002.017.003.026.005 1.118.2 1.933-1.064 1.366-2.049l-10.773-18.735c-1.861-3.237-2.325-7.092-1.285-10.679.912-3.144.687-6.519-.678-9.494-4.219-9.196-8.597-17.118-12.974-23.947z" fill="url(#SVGID_00000067221856054653117240000000186226276482870193_)"/><path d="m32.45 348.708c.886 7.809 4.151 21.762 15.312 39.502l23.598-14.4c-13.14-17.53-25.538-25.761-32.733-29.402-3.037-1.529-6.561.924-6.177 4.3z" fill="url(#SVGID_00000083787216938684436190000012614580266844970919_)"/><path d="m59.413 336.61c51.185-17.172 81.248-9.445 93.292-4.358 3.127 1.32 3.535 5.601.715 7.489-11.507 7.703-42.302 22.139-102.195 11.875-2.981-.511-6.049-.245-8.896.777-4.41 1.584-7.674.127-9.751-1.56-2.013-1.636-2.299-4.625-.631-6.612 1.35-1.609 3.446-3.217 6.523-3.485 7.118-.622 14.171-1.854 20.943-4.126z" fill="url(#SVGID_00000165952727413094439900000018031523123939246768_)"/><path d="m69.857 333.368 19.021 21.799c35.693.276 55.75-9.541 64.543-15.427 2.82-1.888 2.412-6.168-.715-7.489-11.2-4.729-37.992-11.73-82.849 1.117z" fill="url(#SVGID_00000121280950045035600680000014290722887762623930_)"/></g><g><path d="m150.38 433.12c.562 3.692 2.602 6.996 5.65 9.152l17.644 12.48c.928.656.719 2.145-.38 2.433-.008.002-.017.004-.025.007-2.038.513-4.679.594-7.331-.986-6.136-3.652-12.579-6.78-19.4-8.898-51.569-15.994-71.443-39.834-78.237-51.006-1.766-2.902.402-6.608 3.801-6.496 12.032.423 38.876 5.234 73.676 34.982 2.489 2.127 4.11 5.095 4.602 8.332z" fill="url(#SVGID_00000176021492872303362770000005268034426017693868_)"/><path d="m150.38 433.12c-.493-3.237-2.113-6.205-4.602-8.332-33.872-28.955-60.202-34.283-72.677-34.936 31.389 28.504 100.573 64.9 100.573 64.9l-17.644-12.48c-3.048-2.157-5.088-5.461-5.65-9.152z" fill="url(#SVGID_00000035501768556127269110000006620471555428711844_)"/><path d="m118.808 436.716c8.038 3.74 17.215 7.33 27.731 10.592 6.821 2.118 13.264 5.246 19.4 8.898 2.652 1.58 5.293 1.499 7.331.986.008-.002.017-.004.025-.007 1.099-.288 1.308-1.777.38-2.433l-17.644-12.48c-3.049-2.156-5.089-5.46-5.65-9.152-.493-3.237-2.113-6.205-4.602-8.332-7.691-6.574-14.991-11.926-21.83-16.286z" fill="url(#SVGID_00000014593435391973070490000006358159441868169125_)"/><path d="m68.302 396.302c4.083 6.715 12.905 18.008 30.483 29.422l15.371-22.977c-19.286-10.392-33.995-12.657-42.053-12.94-3.399-.113-5.567 3.593-3.801 6.495z" fill="url(#SVGID_00000153678394564928306700000007743458011998377127_)"/><path d="m87.693 374.001c39.243-37.077 69.773-42.688 82.84-43.129 3.392-.114 5.56 3.599 3.793 6.497-7.209 11.823-29.096 37.856-87.763 53.688-2.92.788-5.593 2.317-7.747 4.441-3.337 3.289-6.911 3.338-9.505 2.678-2.514-.639-4.028-3.232-3.349-5.736.55-2.027 1.776-4.366 4.457-5.902 6.198-3.552 12.082-7.632 17.274-12.537z" fill="url(#SVGID_00000106846008199512153130000012657060095961341069_)"/><path d="m95.81 366.673 26.416 11.798c32.51-14.737 46.591-32.068 52.1-41.102 1.767-2.898-.401-6.611-3.793-6.497-12.151.41-39.407 5.306-74.723 35.801z" fill="url(#SVGID_00000049917893968886704040000011972851365610763439_)"/></g></g><g><g><path d="m491.481 334.374c3.531 1.214 6.416 3.814 7.991 7.199l9.115 19.595c.479 1.03 1.982 1.092 2.462.062.004-.008.007-.016.011-.024.87-1.913 1.423-4.497.345-7.389-2.493-6.691-4.415-13.59-5.277-20.68-6.491-53.6-26.383-77.426-36.157-86.112-2.539-2.258-6.573-.789-7.072 2.575-1.741 11.913-1.819 39.184 21.209 78.753 1.647 2.83 4.277 4.957 7.373 6.021z" fill="url(#SVGID_00000165210002351764988930000016563221230620286399_)"/><path d="m491.481 334.374c-3.096-1.065-5.725-3.191-7.372-6.021-22.414-38.514-22.937-65.372-21.344-77.762 22.416 35.99 45.822 110.577 45.822 110.577l-9.115-19.595c-1.575-3.385-4.46-5.984-7.991-7.199z" fill="url(#SVGID_00000051357841367181481670000006369209152816906628_)"/><path d="m500.678 303.958c2.239 8.578 4.126 18.25 5.45 29.18.861 7.09 2.783 13.989 5.277 20.68 1.079 2.892.526 5.476-.345 7.389-.004.008-.007.016-.011.024-.48 1.03-1.983.968-2.462-.062l-9.115-19.595c-1.575-3.386-4.46-5.985-7.991-7.199-3.096-1.065-5.725-3.191-7.372-6.021-5.089-8.744-9.046-16.886-12.11-24.396z" fill="url(#SVGID_00000074423682713600264550000016570467709227299462_)"/><path d="m469.971 247.026c5.875 5.221 15.403 15.924 23.481 35.263l-25.36 11.003c-6.767-20.836-6.359-35.713-5.193-43.692.499-3.363 4.534-4.832 7.072-2.574z" fill="url(#SVGID_00000134245578841774553510000016672873620963877296_)"/><path d="m440.893 256.354c-49.858 20.712-67.429 46.3-73.161 58.052-1.488 3.051 1.019 6.544 4.385 6.113 13.735-1.761 46.43-11.13 84.81-58.241 1.91-2.345 4.397-4.162 7.214-5.263 4.364-1.706 5.866-4.95 6.321-7.586.442-2.556-1.308-4.996-3.872-5.397-2.075-.325-4.711-.158-7.207 1.663-5.768 4.21-11.893 7.919-18.49 10.659z" fill="url(#SVGID_00000029024346010881699410000018325257791075762834_)"/><path d="m430.893 260.778v28.931c-26.714 23.675-48.28 29.464-58.775 30.81-3.366.432-5.873-3.062-4.385-6.113 5.329-10.928 20.913-33.818 63.16-53.628z" fill="url(#SVGID_00000019652674588922033670000011170199432920281526_)"/></g><g><path d="m469.905 386.931c2.906 2.345 4.732 5.772 5.059 9.492l1.89 21.528c.099 1.132 1.491 1.702 2.293.898.006-.006.012-.012.018-.018 1.47-1.502 2.871-3.742 2.843-6.829-.063-7.14.482-14.282 2.088-21.24 12.167-52.603 1.588-81.783-4.639-93.279-1.617-2.988-5.911-2.982-7.526.01-5.697 10.606-15.066 36.218-6.905 81.266.584 3.22 2.331 6.116 4.879 8.172z" fill="url(#SVGID_00000148648555715728992540000012134381986746539953_)"/><path d="m469.905 386.931c-2.548-2.056-4.295-4.952-4.878-8.173-7.944-43.847.719-69.275 6.44-80.38 8.806 41.475 5.387 119.574 5.387 119.574l-1.89-21.529c-.327-3.72-2.154-7.147-5.059-9.492z" fill="url(#SVGID_00000152983852391662609460000006846965667410421386_)"/><path d="m488.919 361.471c-.819 8.827-2.342 18.564-4.823 29.29-1.607 6.959-2.152 14.1-2.088 21.24.028 3.087-1.372 5.327-2.843 6.829-.006.006-.012.012-.018.018-.803.804-2.194.234-2.293-.898l-1.89-21.528c-.327-3.72-2.153-7.147-5.059-9.492-2.548-2.056-4.295-4.952-4.878-8.173-1.804-9.955-2.749-18.958-3.069-27.062z" fill="url(#SVGID_00000032640424663462424820000014742829014821412498_)"/><path d="m479.457 297.482c3.743 6.91 9.052 20.221 10.055 41.155l-27.592 1.7c.74-21.895 6.195-35.742 10.011-42.845 1.615-2.992 5.909-2.998 7.526-.01z" fill="url(#SVGID_00000039107314949521431920000007823068654147877032_)"/><path d="m448.94 296.34c-53.932 2.478-79.173 20.544-88.567 29.638-2.438 2.361-1.273 6.5 2.039 7.241 13.513 3.026 47.443 5.363 99.583-25.845 2.595-1.553 5.552-2.414 8.576-2.489 4.684-.116 7.202-2.654 8.529-4.977 1.287-2.253.473-5.143-1.8-6.393-1.84-1.013-4.375-1.755-7.342-.893-6.86 1.991-13.882 3.39-21.018 3.718z" fill="url(#SVGID_00000060752556636527168120000015806057792096349600_)"/><path d="m438.031 297.09-9.861 27.198c-33.183 13.151-55.432 11.243-65.757 8.931-3.312-.742-4.477-4.881-2.039-7.241 8.734-8.457 31.188-24.664 77.657-28.888z" fill="url(#SVGID_00000096035625174188978570000017924629253369007755_)"/></g><g><path d="m420.517 416.587c1.04 3.586.576 7.442-1.285 10.679l-10.773 18.734c-.566.985.248 2.249 1.366 2.049.009-.002.017-.003.026-.005 2.065-.39 4.496-1.425 6.24-3.973 4.035-5.891 8.569-11.435 13.87-16.221 40.086-36.169 48.114-66.151 49.588-79.143.384-3.375-3.14-5.828-6.177-4.299-10.742 5.436-33.085 21.074-52.177 62.684-1.365 2.976-1.59 6.351-.678 9.495z" fill="url(#SVGID_00000108271439224954263680000014823996766468508584_)"/><path d="m420.517 416.587c-.912-3.144-.687-6.519.678-9.494 18.584-40.501 40.242-56.392 51.29-62.224-16.519 39.049-64.026 101.132-64.026 101.132l10.773-18.735c1.862-3.238 2.326-7.093 1.285-10.679z" fill="url(#SVGID_00000154410554256303152740000010465662976224940684_)"/><path d="m450.682 406.594c-5.724 6.769-12.546 13.881-20.72 21.257-5.301 4.786-9.835 10.33-13.87 16.221-1.743 2.547-4.175 3.583-6.24 3.973-.009.002-.017.003-.026.005-1.118.2-1.933-1.064-1.366-2.049l10.773-18.735c1.861-3.237 2.325-7.092 1.285-10.679-.912-3.144-.687-6.519.678-9.494 4.219-9.196 8.597-17.118 12.974-23.947z" fill="url(#SVGID_00000067950129061601737560000004665103374522465423_)"/><path d="m479.55 348.708c-.886 7.809-4.151 21.762-15.312 39.502l-23.598-14.4c13.14-17.53 25.538-25.761 32.733-29.402 3.037-1.529 6.561.924 6.177 4.3z" fill="url(#SVGID_00000094595960539316663380000018039489570198126482_)"/><path d="m452.587 336.61c-51.185-17.172-81.248-9.445-93.292-4.358-3.127 1.32-3.535 5.601-.715 7.489 11.507 7.703 42.302 22.139 102.195 11.875 2.981-.511 6.049-.245 8.896.777 4.41 1.584 7.674.127 9.751-1.56 2.013-1.636 2.299-4.625.631-6.612-1.35-1.609-3.446-3.217-6.523-3.485-7.118-.622-14.171-1.854-20.943-4.126z" fill="url(#SVGID_00000179641753393310386130000016778031981449783979_)"/><path d="m442.143 333.368-19.021 21.799c-35.693.276-55.75-9.541-64.543-15.427-2.82-1.888-2.412-6.168.715-7.489 11.2-4.729 37.992-11.73 82.849 1.117z" fill="url(#SVGID_00000098927766689465945510000000198810177988786853_)"/></g><g><path d="m361.62 433.12c-.562 3.692-2.602 6.996-5.65 9.152l-17.644 12.48c-.928.656-.719 2.145.38 2.433.008.002.017.004.025.007 2.038.513 4.679.594 7.331-.986 6.136-3.652 12.579-6.78 19.4-8.898 51.569-15.994 71.443-39.834 78.237-51.006 1.766-2.902-.402-6.608-3.801-6.496-12.032.423-38.876 5.234-73.676 34.982-2.489 2.127-4.11 5.095-4.602 8.332z" fill="url(#SVGID_00000060731183940221206710000012522377630209953940_)"/><path d="m361.62 433.12c.493-3.237 2.113-6.205 4.602-8.332 33.872-28.955 60.202-34.283 72.677-34.936-31.389 28.504-100.573 64.9-100.573 64.9l17.644-12.48c3.048-2.157 5.088-5.461 5.65-9.152z" fill="url(#SVGID_00000019663350135521893920000013878073820450600848_)"/><path d="m393.192 436.716c-8.038 3.74-17.215 7.33-27.731 10.592-6.821 2.118-13.264 5.246-19.4 8.898-2.652 1.58-5.293 1.499-7.331.986-.008-.002-.017-.004-.025-.007-1.099-.288-1.308-1.777-.38-2.433l17.644-12.48c3.049-2.156 5.089-5.46 5.65-9.152.493-3.237 2.113-6.205 4.602-8.332 7.691-6.574 14.991-11.926 21.83-16.286z" fill="url(#SVGID_00000142136594411130175020000001155206897302772411_)"/><path d="m443.698 396.302c-4.083 6.715-12.905 18.008-30.483 29.422l-15.371-22.977c19.286-10.392 33.995-12.657 42.053-12.94 3.399-.113 5.567 3.593 3.801 6.495z" fill="url(#SVGID_00000016796426450806300090000008343159131462336431_)"/><path d="m424.307 374.001c-39.243-37.077-69.773-42.688-82.84-43.129-3.392-.114-5.56 3.599-3.793 6.497 7.209 11.823 29.096 37.856 87.763 53.688 2.92.788 5.593 2.317 7.747 4.441 3.337 3.289 6.911 3.338 9.505 2.678 2.514-.639 4.028-3.232 3.349-5.736-.55-2.027-1.776-4.366-4.457-5.902-6.198-3.552-12.082-7.632-17.274-12.537z" fill="url(#SVGID_00000063621895987386727470000006810408130709557433_)"/><path d="m416.19 366.673-26.416 11.798c-32.51-14.737-46.591-32.068-52.1-41.102-1.767-2.898.401-6.611 3.793-6.497 12.151.41 39.407 5.306 74.723 35.801z" fill="url(#SVGID_00000126301523738313977950000011278885871360472496_)"/></g></g></g><g><path d="m397.216 280.29c0-86.962-282.433-86.962-282.433 0s63.225 157.459 141.217 157.459 141.216-70.497 141.216-157.459z" fill="url(#SVGID_00000016758630100090159520000012910475211629606305_)"/><g><circle cx="248.821" cy="382.459" fill="url(#SVGID_00000179635610483480002160000002332997777882875554_)" r="9.438"/><path d="m306.813 389.882c-5.212 0-9.438 4.225-9.438 9.438s4.225 9.438 9.438 9.438 9.438-4.225 9.438-9.438-4.226-9.438-9.438-9.438z" fill="url(#SVGID_00000116923703735860925240000006418220116480641214_)"/><path d="m316.251 360.591c-5.212 0-9.438 4.225-9.438 9.438 0 5.212 4.226 9.438 9.438 9.438s9.438-4.225 9.438-9.438-4.226-9.438-9.438-9.438z" fill="url(#SVGID_00000104704789874242464610000004721897273401542274_)"/><circle cx="295.455" cy="287.106" fill="url(#SVGID_00000002359598701066639610000001133324732992033922_)" r="9.438"/><circle cx="208.18" cy="287.106" fill="url(#SVGID_00000158741526803575719850000015885643037731690630_)" r="6.216"/><path d="m237.864 369.106c0-3.433-2.783-6.216-6.215-6.216s-6.216 2.783-6.216 6.216 2.783 6.215 6.216 6.215 6.215-2.782 6.215-6.215z" fill="url(#SVGID_00000079452603619495032250000013134157224731605895_)"/><path d="m255.037 333.472c3.433 0 6.215-2.783 6.215-6.215 0-3.433-2.783-6.216-6.215-6.216-3.433 0-6.215 2.783-6.215 6.216-.001 3.433 2.782 6.215 6.215 6.215z" fill="url(#SVGID_00000137102002419986020110000011009336707652608912_)"/><circle cx="192.527" cy="349.961" fill="url(#SVGID_00000093896564648429090560000002889663341579290264_)" r="6.216"/><path d="m300.597 337.53c0 3.433 2.783 6.216 6.216 6.216s6.216-2.783 6.216-6.216-2.783-6.215-6.216-6.215-6.216 2.782-6.216 6.215z" fill="url(#SVGID_00000043433027639535845330000009625870923981300641_)"/><path d="m267.468 239.817c3.433 0 6.216-2.783 6.216-6.215 0-3.433-2.783-6.216-6.216-6.216s-6.216 2.783-6.216 6.216c0 3.432 2.783 6.215 6.216 6.215z" fill="url(#SVGID_00000158721593909554691310000005752715309547563188_)"/><path d="m267.899 399.319c-5.212 0-9.438 4.225-9.438 9.438s4.225 9.438 9.438 9.438c5.212 0 9.438-4.225 9.438-9.438s-4.226-9.438-9.438-9.438z" fill="url(#SVGID_00000112630816727430536190000003045781452815318928_)"/><path d="m201.965 365.884c-5.212 0-9.438 4.225-9.438 9.438 0 5.212 4.225 9.438 9.438 9.438 5.212 0 9.438-4.225 9.438-9.438 0-5.212-4.226-9.438-9.438-9.438z" fill="url(#SVGID_00000061474066937929235250000010338444092047326654_)"/><path d="m279.048 380.838c-3.433 0-6.216 2.783-6.216 6.216s2.783 6.215 6.216 6.215 6.216-2.783 6.216-6.215-2.783-6.216-6.216-6.216z" fill="url(#SVGID_00000054950050833158780350000003962186332634558653_)"/><path d="m240.022 396.326c-3.433 0-6.215 2.783-6.215 6.215 0 3.433 2.783 6.215 6.215 6.215 3.433 0 6.216-2.783 6.216-6.215s-2.783-6.215-6.216-6.215z" fill="url(#SVGID_00000183237186589306369520000017164367313543135369_)"/></g><path d="m120.944 326.409c17.683 64.458 71.456 111.34 135.056 111.34s117.373-46.882 135.056-111.34z" fill="url(#SVGID_00000055687923924489922260000017711150217800739250_)"/><path d="m227.787 216.244v218.359c9.117 2.061 18.551 3.146 28.213 3.146 77.992 0 141.216-70.497 141.216-157.459 0-49.307-90.797-70.654-169.429-64.046z" fill="url(#SVGID_00000165953219499248602840000000548032063809567879_)"/><path d="m397.216 280.29c0-43.481-70.608-65.221-141.216-65.221v222.68c77.992 0 141.216-70.497 141.216-157.459z" fill="url(#SVGID_00000168806670371035645920000001367441295898359694_)"/></g><g><g><circle cx="211.618" cy="215.069" fill="url(#SVGID_00000060752403979000622000000002767846975588433550_)" r="18.081"/><circle cx="211.618" cy="215.069" fill="url(#SVGID_00000086666212831966803540000008644918902582169475_)" r="18.081"/><circle cx="211.618" cy="215.069" fill="url(#SVGID_00000121970635958239852000000014481856225932379578_)" r="18.081"/><circle cx="211.618" cy="215.069" fill="url(#SVGID_00000169556304435354158090000001231731375857750194_)" r="18.081"/></g><g><circle cx="300.382" cy="215.069" fill="url(#SVGID_00000032630383085757317080000000320360352402599560_)" r="18.081"/><circle cx="300.382" cy="215.069" fill="url(#SVGID_00000148663202378514919430000003229918706672091264_)" r="18.081"/><circle cx="300.382" cy="215.069" fill="url(#SVGID_00000124859160724872143710000003516364418886848683_)" r="18.081"/><circle cx="300.382" cy="215.069" fill="url(#SVGID_00000142170466207009221500000002571480911089272251_)" r="18.081"/></g></g></g></svg>