<svg id="Capa_1" enable-background="new 0 0 510 510" height="512" viewBox="0 0 510 510" width="512" xmlns="http://www.w3.org/2000/svg" xmlns:xlink="http://www.w3.org/1999/xlink"><linearGradient id="lg1"><stop offset="0" stop-color="#fd3581"/><stop offset="1" stop-color="#972437"/></linearGradient><linearGradient id="SVGID_1_" gradientUnits="userSpaceOnUse" x1="255" x2="255" xlink:href="#lg1" y1="178.947" y2="334.629"/><linearGradient id="lg2"><stop offset="0" stop-color="#972437" stop-opacity="0"/><stop offset="1" stop-color="#42210b"/></linearGradient><linearGradient id="SVGID_00000029760342071639764080000004040084450742691729_" gradientUnits="userSpaceOnUse" x1="439.723" x2="397.056" xlink:href="#lg2" y1="274.761" y2="264.761"/><linearGradient id="SVGID_00000004527264806365672500000013459308595953272733_" gradientUnits="userSpaceOnUse" x1="324.667" x2="280.586" xlink:href="#lg2" y1="252.851" y2="252.851"/><linearGradient id="lg3"><stop offset="0" stop-color="#fdb97e"/><stop offset="1" stop-color="#fe7701"/></linearGradient><linearGradient id="SVGID_00000080905604752407816500000007903331999227294126_" gradientUnits="userSpaceOnUse" x1="255" x2="255" xlink:href="#lg3" y1="63.159" y2="93.255"/><linearGradient id="SVGID_00000144333763809618386880000010921259292296390537_" gradientUnits="userSpaceOnUse" x1="255" x2="255" xlink:href="#lg3" y1="89.133" y2="130.472"/><linearGradient id="SVGID_00000030482292404452203380000012264935356962432686_" gradientUnits="userSpaceOnUse" x1="255" x2="255" xlink:href="#lg2" y1="269.8" y2="349.145"/><linearGradient id="SVGID_00000097465052066316198800000011467080224706303623_" gradientUnits="userSpaceOnUse" x1="180.924" x2="135.591" xlink:href="#lg2" y1="251.109" y2="265.109"/><linearGradient id="lg4"><stop offset="0" stop-color="#fee45a"/><stop offset="1" stop-color="#fea613"/></linearGradient><linearGradient id="SVGID_00000078019456457512992990000007623239062951148467_" gradientUnits="userSpaceOnUse" x1="-9.153" x2="76.847" xlink:href="#lg4" y1="165.491" y2="219.491"/><linearGradient id="SVGID_00000024715314336472495620000013743906886783657390_" gradientUnits="userSpaceOnUse" x1="85.381" x2="170.381" xlink:href="#lg4" y1="149.901" y2="223.901"/><linearGradient id="SVGID_00000052098691236049585120000018191413622969283774_" gradientTransform="matrix(-1 0 0 1 240.565 0)" gradientUnits="userSpaceOnUse" x1="-278.589" x2="-192.589" xlink:href="#lg4" y1="165.491" y2="219.491"/><linearGradient id="SVGID_00000071552021060642599280000008710512771243386294_" gradientTransform="matrix(-1 0 0 1 240.565 0)" gradientUnits="userSpaceOnUse" x1="-184.055" x2="-99.055" xlink:href="#lg4" y1="149.901" y2="223.901"/><linearGradient id="SVGID_00000041981203944473000680000015314145858840465538_" gradientUnits="userSpaceOnUse" x1="233.008" x2="276.609" xlink:href="#lg4" y1="233.183" y2="233.183"/><linearGradient id="lg5"><stop offset="0" stop-color="#fea613" stop-opacity="0"/><stop offset="1" stop-color="#e94444"/></linearGradient><linearGradient id="SVGID_00000078027010831988393210000006902633193062149768_" gradientUnits="userSpaceOnUse" x1="144.131" x2="144.131" xlink:href="#lg5" y1="283.133" y2="329.133"/><linearGradient id="SVGID_00000125592242036704432140000011787012794462435460_" gradientUnits="userSpaceOnUse" x1="365.869" x2="365.869" xlink:href="#lg5" y1="283.133" y2="329.133"/><linearGradient id="SVGID_00000119807781625414544690000011816353327590421655_" gradientUnits="userSpaceOnUse" x1="255" x2="255" xlink:href="#lg5" y1="236.133" y2="295.269"/><linearGradient id="SVGID_00000124862233366183045520000011898702238051923362_" gradientUnits="userSpaceOnUse" x1="62.489" x2="62.489" xlink:href="#lg5" y1="283.133" y2="329.133"/><linearGradient id="SVGID_00000007414271191262767160000012289928310425620383_" gradientUnits="userSpaceOnUse" x1="447.511" x2="447.511" xlink:href="#lg5" y1="283.133" y2="329.133"/><linearGradient id="SVGID_00000121266669970307472100000005689922800895108774_" gradientUnits="userSpaceOnUse" x1="254.998" x2="255.008" xlink:href="#lg4" y1="378.476" y2="427.082"/><linearGradient id="SVGID_00000153663670353376659010000006529918211983634081_" gradientUnits="userSpaceOnUse" x1="254.997" x2="255.01" xlink:href="#lg4" y1="331.643" y2="393.769"/><linearGradient id="SVGID_00000016059876376328733080000001470782432357533589_" gradientUnits="userSpaceOnUse" x1="341.5" x2="294.497" xlink:href="#lg5" y1="373.954" y2="373.954"/><linearGradient id="SVGID_00000069376244367860045710000018249058264342185367_" gradientUnits="userSpaceOnUse" x1="215.083" x2="286.181" xlink:href="#lg4" y1="324.947" y2="396.045"/><linearGradient id="SVGID_00000111149935872640730530000012216152268902805907_" gradientUnits="userSpaceOnUse" x1="303.103" x2="204.1" xlink:href="#lg4" y1="364.864" y2="364.864"/><linearGradient id="SVGID_00000085226428376546064940000008483443217390701470_" gradientUnits="userSpaceOnUse" x1="314.434" x2="261.934" xlink:href="#lg5" y1="390.875" y2="377.875"/><linearGradient id="SVGID_00000147899103415248113420000016585445464394962099_" gradientUnits="userSpaceOnUse" x1="231.043" x2="273.71" xlink:href="#lg1" y1="352.698" y2="374.365"/><g><path d="m449.495 235.194c-1.895-56.644-51.136-96.819-101.125-85.266-27.839 6.434-59.615 10.084-93.37 10.084s-65.531-3.65-93.37-10.084c-49.989-11.553-99.23 28.622-101.125 85.266-.089 2.649-.097 5.321-.023 8.013 1.745 63.27 50.633 112.46 107.654 112.46h173.728c57.02 0 105.908-49.191 107.654-112.46.074-2.692.065-5.364-.023-8.013z" fill="url(#SVGID_1_)"/><path d="m449.495 235.194c-.974-29.125-14.467-53.893-34.141-69.517.9 7.487.723 15.15-.614 22.761-6.055 34.456-17.511 67.557-34.051 98.384l-36.925 68.82c56.202-1.078 104.029-49.869 105.755-112.435.073-2.692.064-5.364-.024-8.013z" fill="url(#SVGID_00000029760342071639764080000004040084450742691729_)"/><path d="m251.333 159.987v195.68h90.531c2.021 0 4.031-.069 6.031-.191v-205.442c-27.726 6.366-59.33 9.978-92.895 9.978-1.227 0-2.445-.015-3.667-.025z" fill="url(#SVGID_00000004527264806365672500000013459308595953272733_)"/><path d="m299.983 78.11c-.438-13.101-11.827-22.392-23.388-19.72-6.439 1.488-13.788 2.332-21.595 2.332s-15.156-.844-21.595-2.332c-11.562-2.672-22.95 6.62-23.388 19.72-.021.613-.022 1.231-.005 1.853.404 14.633 11.711 26.01 24.898 26.01h40.18c13.188 0 24.495-11.377 24.898-26.01.018-.622.016-1.24-.005-1.853z" fill="url(#SVGID_00000080905604752407816500000007903331999227294126_)"/><path d="m316.785 109.67c-.602-17.994-16.244-30.757-32.124-27.087-8.844 2.044-18.938 3.203-29.661 3.203s-20.817-1.16-29.661-3.203c-15.88-3.67-31.522 9.092-32.124 27.087-.028.842-.031 1.69-.007 2.546.554 20.099 16.085 35.726 34.199 35.726h55.188c18.114 0 33.644-15.627 34.199-35.726.022-.856.02-1.705-.009-2.546z" fill="url(#SVGID_00000144333763809618386880000010921259292296390537_)"/><path d="m60.505 235.194c-.089 2.649-.097 5.321-.023 8.013 1.745 63.27 50.633 112.46 107.654 112.46h173.728c57.02 0 105.908-49.191 107.654-112.46.074-2.692.066-5.364-.023-8.013-.227-6.772-1.137-13.305-2.637-19.546h-383.715c-1.501 6.241-2.411 12.774-2.638 19.546z" fill="url(#SVGID_00000030482292404452203380000012264935356962432686_)"/><path d="m224.605 355.668c33.662-13.945 40.438-82.007 14.923-153.616-5.596-15.706-12.289-30.294-19.695-43.394-20.684-1.602-40.264-4.584-58.203-8.73-23.148-5.35-46.131.398-64.331 13.73-.127 24.85 4.899 53.9 15.468 83.559 19.993 56.112 53.969 97.991 84.527 108.45h27.311z" fill="url(#SVGID_00000097465052066316198800000011467080224706303623_)"/><g><path d="m40.252 150.293c-3.23 5.19-6.67 13.73-4.69 24.98 4.93 28.05 14.25 54.99 27.72 80.07l37.01 68.99c4.57 8.51 1.37 19.12-7.15 23.69-2.63 1.42-5.46 2.09-8.26 2.09-6.24 0-12.28-3.35-15.43-9.23l-37.02-68.99c-15.22-28.37-25.77-58.84-31.34-90.56-3.04-17.28.32-34.88 9.45-49.54 10.31-16.55 27.32-28.04 46.66-31.52 19.74-3.55 40.16 1.45 56.02 13.7l18.83 14.56-24.95 24.95-15.28-11.81c-8.05-6.22-18.4-8.75-28.42-6.95-9.77 1.76-17.991 7.29-23.15 15.57z" fill="url(#SVGID_00000078019456457512992990000007623239062951148467_)"/><path d="m166.527 350.109c-6.24 0-12.279-3.346-15.437-9.229l-37.014-68.985c-15.225-28.375-25.77-58.843-31.343-90.559-3.038-17.285.319-34.881 9.454-49.547 10.305-16.546 27.311-28.033 46.658-31.513 19.739-3.549 40.155 1.444 56.019 13.702l40.902 31.605c7.647 5.909 9.057 16.9 3.147 24.548-5.907 7.647-16.899 9.059-24.548 3.147l-40.902-31.605c-8.047-6.218-18.404-8.752-28.422-6.95-9.768 1.757-17.987 7.286-23.145 15.568-3.232 5.189-6.67 13.736-4.692 24.986 4.928 28.042 14.252 54.981 27.713 80.069l37.014 68.985c4.569 8.517 1.369 19.125-7.147 23.694-2.632 1.414-5.465 2.084-8.257 2.084z" fill="url(#SVGID_00000024715314336472495620000013743906886783657390_)"/></g><g><path d="m469.748 150.293c3.23 5.19 6.67 13.73 4.69 24.98-4.93 28.05-14.25 54.99-27.72 80.07l-37.01 68.99c-4.57 8.51-1.37 19.12 7.15 23.69 2.63 1.42 5.46 2.09 8.26 2.09 6.24 0 12.28-3.35 15.43-9.23l37.02-68.99c15.22-28.37 25.77-58.84 31.34-90.56 3.04-17.28-.32-34.88-9.45-49.54-10.31-16.55-27.32-28.04-46.66-31.52-19.74-3.55-40.16 1.45-56.02 13.7l-18.83 14.56 24.95 24.95 15.28-11.81c8.05-6.22 18.4-8.75 28.42-6.95 9.77 1.76 17.991 7.29 23.15 15.57z" fill="url(#SVGID_00000052098691236049585120000018191413622969283774_)"/><path d="m343.473 350.109c6.24 0 12.279-3.346 15.437-9.229l37.014-68.985c15.225-28.375 25.77-58.843 31.343-90.559 3.038-17.285-.319-34.881-9.454-49.547-10.305-16.546-27.311-28.033-46.658-31.513-19.739-3.549-40.155 1.444-56.019 13.702l-40.902 31.605c-7.647 5.909-9.057 16.9-3.147 24.548 5.907 7.647 16.899 9.059 24.548 3.147l40.902-31.605c8.047-6.218 18.404-8.752 28.422-6.95 9.768 1.757 17.987 7.286 23.145 15.568 3.232 5.189 6.67 13.736 4.692 24.986-4.928 28.042-14.252 54.981-27.713 80.069l-37.014 68.985c-4.569 8.517-1.369 19.125 7.147 23.694 2.632 1.414 5.465 2.084 8.257 2.084z" fill="url(#SVGID_00000071552021060642599280000008710512771243386294_)"/></g><path d="m286.724 358.831h-63.448v-219.573c0-17.521 14.203-31.724 31.724-31.724 17.521 0 31.724 14.203 31.724 31.724z" fill="url(#SVGID_00000041981203944473000680000015314145858840465538_)"/><g><path d="m114.077 271.895 37.014 68.985c3.157 5.884 9.196 9.229 15.437 9.229 2.792 0 5.625-.67 8.258-2.083 8.517-4.569 11.717-15.178 7.147-23.694l-37.014-68.985c-.631-1.175-1.243-2.359-1.855-3.542h-38.816c3.025 6.801 6.295 13.504 9.829 20.09z" fill="url(#SVGID_00000078027010831988393210000006902633193062149768_)"/><path d="m335.215 348.026c2.633 1.413 5.466 2.083 8.258 2.083 6.24 0 12.279-3.346 15.437-9.229l37.014-68.985c3.534-6.586 6.804-13.289 9.83-20.09h-38.816c-.612 1.183-1.225 2.367-1.855 3.542l-37.014 68.985c-4.57 8.516-1.37 19.125 7.146 23.694z" fill="url(#SVGID_00000125592242036704432140000011787012794462435460_)"/><path d="m223.276 211.863h63.448v146.968h-63.448z" fill="url(#SVGID_00000119807781625414544690000011816353327590421655_)"/><path d="m32.431 271.893 37.02 68.99c3.15 5.88 9.19 9.23 15.43 9.23 2.8 0 5.63-.67 8.26-2.09 8.52-4.57 11.72-15.18 7.15-23.69l-37.01-68.99c-.631-1.174-1.243-2.356-1.855-3.539h-38.823c3.026 6.801 6.296 13.504 9.828 20.089z" fill="url(#SVGID_00000124862233366183045520000011898702238051923362_)"/><path d="m448.574 251.805c-.613 1.182-1.225 2.365-1.855 3.539l-37.01 68.99c-4.57 8.51-1.37 19.12 7.15 23.69 2.63 1.42 5.46 2.09 8.26 2.09 6.24 0 12.28-3.35 15.43-9.23l37.02-68.99c3.533-6.585 6.803-13.288 9.828-20.089z" fill="url(#SVGID_00000007414271191262767160000012289928310425620383_)"/></g><path d="m48 384.533v2.632c0 9.572 7.236 17.778 17.15 19.393 125.41 20.425 253.664 21.349 379.397 2.729 10.053-1.489 17.454-9.757 17.454-19.44v-2.585c0-12.009-11.211-21.227-23.691-19.449-121.447 17.301-245.154 16.396-366.297-2.681-12.58-1.981-24.013 7.267-24.013 19.401z" fill="url(#SVGID_00000121266669970307472100000005689922800895108774_)"/><path d="m48 333.904v18.701c0 9.572 7.236 17.778 17.15 19.393 125.41 20.425 253.664 21.349 379.397 2.729 10.053-1.489 17.454-9.757 17.454-19.44v-18.653c0-12.009-11.211-21.227-23.691-19.449-121.447 17.301-245.154 16.396-366.297-2.681-12.58-1.982-24.013 7.266-24.013 19.4z" fill="url(#SVGID_00000153663670353376659010000006529918211983634081_)"/><path d="m255 329.485v93.08c36.988.258 73.988-1.154 110.869-4.213v-93.037c-36.882 3.044-73.882 4.442-110.869 4.17z" fill="url(#SVGID_00000016059876376328733080000001470782432357533589_)"/><g><ellipse cx="255" cy="364.864" fill="url(#SVGID_00000069376244367860045710000018249058264342185367_)" rx="49.462" ry="87.206"/><ellipse cx="255" cy="364.864" fill="url(#SVGID_00000111149935872640730530000012216152268902805907_)" rx="36.701" ry="74.127"/><path d="m303.264 345.727-33.751-33.751-27.743 107.137 28.637 28.636c19.773-11.417 34.056-44.208 34.056-82.886-.001-6.574-.417-12.977-1.199-19.136z" fill="url(#SVGID_00000085226428376546064940000008483443217390701470_)"/><ellipse cx="255" cy="364.864" fill="url(#SVGID_00000147899103415248113420000016585445464394962099_)" rx="29.934" ry="60.461"/></g></g></svg>