<?xml version="1.0" encoding="iso-8859-1"?>
<!-- Generator: Adobe Illustrator 19.0.0, SVG Export Plug-In . SVG Version: 6.00 Build 0)  -->
<svg version="1.1" id="Capa_1" xmlns="http://www.w3.org/2000/svg" xmlns:xlink="http://www.w3.org/1999/xlink" x="0px" y="0px"
	 viewBox="0 0 512 512" style="enable-background:new 0 0 512 512;" xml:space="preserve">
<path style="fill:#FF2B47;" d="M429.101,211L397,228.699L425.2,241l-3.9,30l-31.5,11.1l27.6,18.9l-4.2,30l-31.5,13.2l27.6,16.8
	l-14.7,112.299C391.3,495.5,372.1,512,349.9,512H162.1c-22.2,0-41.4-16.5-44.7-38.701L102.7,361l27.9-15l-31.8-15l-4.2-30l28.2-15.3
	L90.7,271l-3.9-30l28.2-12.301L82.899,211L61,47.1c-0.601-4.2,0.901-8.701,3.6-12.001C67.599,31.8,71.499,30,76,30h360
	c4.501,0,8.401,1.8,11.4,5.099c2.699,3.3,4.2,7.8,3.6,12.001L429.101,211z"/>
<path style="fill:#D1093A;" d="M429.101,211L397,228.699L425.2,241l-3.9,30l-31.5,11.1l27.6,18.9l-4.2,30l-31.5,13.2l27.6,16.8
	l-14.7,112.299C391.3,495.5,372.1,512,349.9,512H256V30h180c4.501,0,8.401,1.8,11.4,5.099c2.699,3.3,4.2,7.8,3.6,12.001L429.101,211
	z"/>
<path style="fill:#E1E1F0;" d="M481,30c0,16.5-13.5,30-30,30H61c-16.5,0-30-13.5-30-30S44.5,0,61,0h390C467.5,0,481,13.5,481,30z"/>
<g>
	<polygon style="fill:#D1093A;" points="429.101,211 425.2,241 86.8,241 82.899,211 	"/>
	<polygon style="fill:#D1093A;" points="421.3,271 417.4,301 94.6,301 90.7,271 	"/>
	<polygon style="fill:#D1093A;" points="413.2,331 409.3,361 102.7,361 98.8,331 	"/>
</g>
<g>
	<polygon style="fill:#BD002F;" points="256,331 413.2,331 409.3,361 256,361 	"/>
	<polygon style="fill:#BD002F;" points="256,271 421.3,271 417.4,301 256,301 	"/>
	<polygon style="fill:#BD002F;" points="256,211 429.101,211 425.2,241 256,241 	"/>
</g>
<path style="fill:#D1D1E8;" d="M481,30c0,16.5-13.5,30-30,30H256V0h195C467.5,0,481,13.5,481,30z"/>
<g>
</g>
<g>
</g>
<g>
</g>
<g>
</g>
<g>
</g>
<g>
</g>
<g>
</g>
<g>
</g>
<g>
</g>
<g>
</g>
<g>
</g>
<g>
</g>
<g>
</g>
<g>
</g>
<g>
</g>
</svg>
