<svg id="Capa_1" enable-background="new 0 0 497 497" height="512" viewBox="0 0 497 497" width="512" xmlns="http://www.w3.org/2000/svg"><g><path d="m198.234 472.619c-105.172 0-154.832-21.862-143.51-43.014 5.663-10.58 64.681-56.821 90.656-42.514 38.86 21.404 52.854 85.528 52.854 85.528z" fill="#c8d2dc"/><path d="m359.575 83.82c-3.78-2.976-6.753-8.432-9.164-14.995-1.53-4.166-61.378-11.045-61.378-11.045v51.4s9.177 54.628 30.282 55.625 29.261-49.122 41.144-80.318c-.294-.227-.591-.436-.884-.667z" fill="#f0e9e6"/><path d="m322.578 166.858v-75.358l-15-2.12v81.57z" fill="#ffc250"/><path d="m443.308 193.531c-12.881-56.808-22.45-76.701-28.168-79.994-15.596-8.979-35.938-14.589-54.687-29.034-18.993 49.2-48.805 74.623-48.805 74.623l-22.615-49.947c-61.453 17.36-34.964 64.159-34.964 64.159l139.991 191.374s7.656-67.358 7.656-158.527c3.435 3.115 45.997 6.77 41.592-12.654z" fill="#766d78"/><path d="m232.555 252.93c-80.951 35.494-147.394 119.808-177.831 176.675 5.663-10.58 31.836-10.432 59.595 0 87.056 32.715 83.741 67.395 203.745 67.395 71.947 0 115.518-12.731 113.71-19.5-24.223-90.697-64.477-183.927-103.709-242.474-9.452-14.106-35.351-16.847-44.446-26.406z" fill="#e9edf1"/><path d="m300.125 199.268-2.156-16.912h-65.415v43.476l26.195 31.696c33.469 0 54.608-10.343 69.311-22.499-9.449-14.104-18.841-26.204-27.935-35.761z" fill="#c8d2dc"/><path d="m289.033 109.18c27.307 0 61.38-40.356 61.38-40.356-6.342-17.251-8.797-42.153-11.753-49.804-4.442-11.496-19.56-19.02-39-19.02s-45.591 6.499-45.591 33.339v75.841z" fill="#ebae9d"/><path d="m238.393 214.194-28.671-22.976c-9.524 11.863-10.71 30.026-7.701 37.442 4.2 10.353 13.282 17.081 23.057 21.418z" fill="#766d78"/><path d="m251.816 222.077c-2.727-1.33-5.842-2.863-9.456-4.704l-3.967-3.179c-11.286 11.413-13.115 23.385-13.315 35.884 4.999 2.218 10.174 3.814 14.978 4.939-.001-.629 11.32-32.518 11.76-32.94z" fill="#f0e9e6"/><path d="m268.474 231.459c-3.35-3.026-7.985-5.151-16.658-9.382-.44.421-1.065 1.02-1.965 1.881-8.178 7.827-9.797 21.6-9.796 28.972v2.088c8.347 1.955 15.559 2.51 18.695 2.51 13.31 0 20.841-16.028 9.724-26.069z" fill="#ebae9d"/><path d="m443.308 193.531c-1.148-5.062-11.771-15.635-23.684-26.673-1.1 7.366-21.036 28.163-28.416 29.456 6.661 6.439 14.263 13.494 20.247 18.228 13.088 10.356 36.258-1.587 31.853-21.011z" fill="#968d97"/><path d="m419.624 166.858c-4.854-4.497-9.919-9.07-14.648-13.38-.024 2.057-26.147 28.44-28.225 28.44 2.306 2.364 7.923 8.079 14.457 14.396 7.38-1.292 13.839-4.66 18.934-9.94 5.087-5.273 8.381-12.15 9.482-19.516z" fill="#f0e9e6"/><path d="m399.348 175.958c3.814-3.953 5.884-9.548 5.677-15.35-.081-2.278-.073-5.074-.049-7.131-5.366-4.89-10.297-9.443-13.982-13.155l-15.367 40.438s.406.421 1.125 1.158h7.431c6.158 0 11.402-2.061 15.165-5.96z" fill="#ebae9d"/><path d="m207.553 50.519c-18.601-11.921-38.124 2.664-38.124 19.45s12.829 26.065 32.45 29.865z" fill="#915041"/><path d="m203.846 174.412c2.768 13.624 9.299 27.222 24.451 35.522 5.372 2.943 10.016 5.377 14.053 7.434 20.173-4.511 38.278-32.3 38.278-32.3-14.601-10.946-26.048-30.688-76.782-10.656z" fill="#ebae9d"/><path d="m371.147 138.136c-5.095 4.192-39.572 35.745-39.572 35.745s-24.625-18.226-35.748-26.48c-11.124-8.255-24.517-9.401-42.412-9.401 23.648 0 35.618-10.468 35.618-22.568 0-7.777 0-28.432 0-46.891 0-6.445-1.877-12.783-5.625-18.303-6.985-10.29-81.528 14.383-81.528 49.596v51.167c0 7.054.306 15.238 1.966 23.412 51.94 0 62.181-.29 76.782 10.656 0 0 29.221 20.838 38.239 28.836s21.853 8.743 34.353-6.244c35.324-42.353 40.84-47.931 40.84-59.331 0-11.401-15.104-16.619-22.913-10.194z" fill="#ffcdbe"/><path d="m253.415 138c9.167 0 16.572-1.578 22.212-4.21-23.101-9.855-25.367-27.257-25.367-40.37 0-15.306 9.002-20.42 9.002-20.42h-31.082s-.6 11.757-.6 26.833c0 26.18 15.697 38.167 25.835 38.167z" fill="#ebae9d"/><path d="m242.36 217.373c-.003-.002-.007-.003-.01-.005-.007.001-.013.004-.019.005z" fill="#ebae9d"/><path d="m283.402 50.241c-6.985-10.29-20.46-17.741-40.392-17.741-30.623 0-41.13 21.5-41.13 40.5v26.833c34.631 6.707 81.522-10.577 81.522-49.592z" fill="#b46e5a"/></g></svg>