<svg height="512" viewBox="0 0 512 512" width="512" xmlns="http://www.w3.org/2000/svg"><g id="flat"><path d="m192 136h48a0 0 0 0 1 0 0 32 32 0 0 1 -32 32h-16a0 0 0 0 1 0 0v-32a0 0 0 0 1 0 0z" fill="#bc6549"/><path d="m156.944 96-13.789-27.578-14.31 7.156 10.211 20.422h-14.112l-13.789-27.578-14.31 7.156 16 32a8 8 0 0 0 7.155 4.422h72v-16z" fill="#e68900"/><path d="m237.657 42.343-32-32-11.314 11.314 26.344 26.343-12.687 12.686-26.343-26.343-11.314 11.314 27.923 27.923-13.421 26.842a7.994 7.994 0 0 0 -.845 3.578v40h16v-38.111l14.574-29.149 23.083-23.083a8 8 0 0 0 0-11.314z" fill="#ff9800"/><path d="m312 280h42.5a29.5 29.5 0 0 0 29.5-29.5v-34.5a53.9 53.9 0 0 1 24 44.844 53.314 53.314 0 0 1 -32.313 49l-23.687 10.156z" fill="#bc6549"/><path d="m80 344 48 40v-40l-18.667-16-5.333-32 40 16 4.978 6.223a90 90 0 0 0 70.278 33.777h76.744l2.452 4.086a119.993 119.993 0 0 0 60.764 50.62l24.784 9.294a98.478 98.478 0 0 0 41.941 62.627l14.059 9.373v-40a35.1 35.1 0 0 1 -24-33.3v-14.7l-38.54-33.034a50 50 0 0 1 -17.46-37.966 51.77 51.77 0 0 0 -39.913-50.394l-75.787-17.831a57.447 57.447 0 0 1 -32.8-21.454 57.452 57.452 0 0 1 -11.5-34.472v-68.849h-24l-64 8a29.276 29.276 0 0 0 23.534 28.707l16.466 3.293v48l-16 48-45.541-13.012a23.525 23.525 0 0 0 -19.51 3.046 23.522 23.522 0 0 0 -9.267 27.011z" fill="#dd7b58"/></g></svg>