<svg height="489pt" viewBox="-52 0 489 489.051" width="489pt" xmlns="http://www.w3.org/2000/svg"><path d="m126.6875 126.839844c-67.625 0-123.058594-53.199219-126.6523438-119.945313-.1992182-3.742187 2.7734378-6.894531 6.5195318-6.894531 3.445312 0 6.328124 2.675781 6.507812 6.113281 3.1875 59.910157 52.933594 107.671875 113.625 107.671875s110.4375-47.761718 113.621094-107.675781c.183594-3.4375 3.066406-6.109375 6.511718-6.109375 3.746094 0 6.722657 3.152344 6.519532 6.894531-3.59375 66.746094-59.027344 119.945313-126.652344 119.945313zm0 0" fill="#434444"/><path d="m125.96875 126.835938c-42.476562-.390626-76.394531-35.660157-76.394531-78.136719v-13.621094c0-3.601563 2.921875-6.523437 6.523437-6.523437h.003906c3.605469 0 6.523438 2.921874 6.523438 6.523437v13.632813c0 35.175781 27.933594 64.554687 63.109375 65.066406 35.753906.523437 65.011719-28.410156 65.011719-64.050782v-14.648437c0-3.601563 2.921875-6.523437 6.523437-6.523437h.003907c3.605468 0 6.523437 2.921874 6.523437 6.523437v14.648437c.003906 42.757813-34.980469 77.5-77.828125 77.109376zm0 0" fill="#585959"/><path d="m128.859375 126.769531c-20.261719 1.257813-36.878906-15.109375-36.878906-35.40625v-20.882812c0-3.601563 2.921875-6.523438 6.527343-6.523438h.003907c3.601562 0 6.523437 2.921875 6.523437 6.523438v21.078125c0 11.75 9.117188 21.792968 20.859375 22.214844 12.296875.441406 22.445313-9.4375 22.445313-21.640626v-21.652343c0-3.601563 2.917968-6.523438 6.523437-6.523438h.003907c3.601562 0 6.523437 2.921875 6.523437 6.523438v21.652343c0 18.40625-14.402344 33.511719-32.53125 34.636719zm0 0" fill="#7c7c7c"/><path d="m96.261719 153.585938-4.792969-.695313c-5.570312.25-12.308594-1.113281-19.035156-4.148437-3.945313-1.773438-7.1875-4.527344-9.808594-7.566407-.484375-.554687-.945312-1.117187-1.375-1.679687-3.238281-4.171875-5.390625-8.632813-6.648438-11.71875-.894531-2.191406.230469-4.675782 2.464844-5.460938 5.921875-2.074218 17.582032-5.011718 27.515625-.53125 4.269531 1.917969 8.042969 4.296875 11.125 6.898438-.671875 1.847656-1.101562 3.792968-1.285156 5.824218-.070313.679688-.101563 1.394532-.101563 2.097657 0 .261719 0 .523437.011719.78125zm0 0" fill="#d37863"/><path d="m96.324219 153.585938-4.789063-.695313c-5.570312.25-12.308594-1.113281-19.035156-4.148437-3.949219-1.773438-7.191406-4.527344-9.8125-7.566407 7.632812-5.976562 18.113281-8.292969 27.550781-5.945312 1.496094.371093 2.871094.84375 4.148438 1.375 0 .261719 0 .523437.007812.78125zm0 0" fill="#934532"/><path d="m157.113281 153.585938 4.789063-.695313c5.574218.25 12.3125-1.113281 19.039062-4.148437 3.945313-1.773438 7.1875-4.527344 9.808594-7.566407.480469-.554687.945312-1.117187 1.375-1.679687 3.234375-4.171875 5.390625-8.632813 6.648438-11.71875.894531-2.191406-.230469-4.675782-2.46875-5.460938-5.917969-2.074218-17.578126-5.011718-27.515626-.53125-4.265624 1.917969-8.039062 4.296875-11.125 6.898438.671876 1.847656 1.105469 3.792968 1.285157 5.824218.070312.679688.101562 1.394532.101562 2.097657 0 .261719 0 .523437-.011719.78125zm0 0" fill="#d37863"/><path d="m157.113281 153.585938 4.789063-.695313c5.574218.25 12.3125-1.113281 19.039062-4.148437 3.945313-1.773438 7.1875-4.527344 9.808594-7.566407-7.632812-5.976562-18.113281-8.292969-27.550781-5.945312-1.496094.371093-2.871094.84375-4.148438 1.375 0 .261719 0 .523437-.007812.78125zm0 0" fill="#934532"/><path d="m379.648438 249.902344v34.777344h-27.640626v-76.957032c0-1.660156 1.578126-2.761718 3.222657-2.761718.753906 0 1.515625.230468 2.160156.742187 3.121094 2.511719 5.941406 5.242187 8.441406 8.152344 8.90625 10.339843 13.816407 22.960937 13.816407 36.046875zm0 0" fill="#f2c59e"/><path d="m379.648438 249.902344v34.777344h-27.640626v-39.859376c7.636719 0 13.824219-6.1875 13.824219-13.824218v-17.140625c8.90625 10.339843 13.816407 22.960937 13.816407 36.046875zm0 0" fill="#934532"/><path d="m344.355469 370.027344c-8.789063-6.84375-13.675781-18.757813-16.402344-29.75-4.960937 2.171875-11.691406 4.980468-20.085937 7.320312l-6.246094 1.574219c2.089844 9.488281 8.71875 23.683594 18.007812 30.710937 8.628906 6.539063 13.910156 16.578126 13.910156 27.414063l-17.566406 64.71875h-4.851562c-9.40625 0-17.035156 7.628906-17.035156 17.035156h36.113281l27.945312-95.847656v-.007813c-1.425781-9.117187-6.375-17.390624-13.789062-23.167968zm0 0" fill="#d37863"/><path d="m329.203125 341.945312c-.023437-.042968-.03125-.09375-.039063-.132812-1.273437-5.125-2.0625-10.070312-2.5625-14.179688-.394531-3.21875-.597656-5.941406-.707031-7.867187-.09375-1.460937-1.625-2.375-2.957031-1.746094-7.886719 3.746094-21.425781 8.820313-38.816406 8.820313-16.746094 0-29.445313-2.011719-39.128906-4.699219-5.625-1.554687-10.234376-3.332031-14.03125-5.066406-.070313-.03125-.148438-.070313-.222657-.101563-2.972656-1.359375-5.625-2.730468-7.886719-4-1.644531-.914062-3.574218.660156-2.984374 2.449219 2.183593 6.636719 4.34375 16.757813 2.78125 28.867187-.082032.660157-.183594 1.316407-.285157 1.957032-.007812.0625-.019531.132812-.027343.191406.007812 0 .019531.011719.027343.011719 9.054688 2.679687 24.769531 7.472656 53.253907 7.472656 13.03125 0 24.226562-2 33.4375-4.578125 7.925781-2.210938 14.371093-4.839844 19.246093-6.953125.292969-.132813.578125-.253906.863281-.375.019532-.011719.027344-.011719.050782-.023437-.011719-.019532-.011719-.027344-.011719-.046876zm0 0" fill="#f2c59e"/><path d="m138.21875 324.019531c-10.140625-5.503906-18.375-11.046875-24.601562-17.558593l.308593 1.039062.039063.121094 10.171875 34.75 12.675781 43.316406-4.777344 86.074219h-1.4375c-9.546875 0-17.289062 7.738281-17.289062 17.289062h39.449218l10.160157-90.972656v-35.042969c0-2.722656-.367188-5.59375-1.027344-8.5h.007813c-2.316407-2.671875-7.445313-13.625-14.324219-22.191406-2.628907-3.277344-5.808594-6.070312-9.355469-8.324219zm0 0" fill="#d37863"/><path d="m384.984375 379-6.140625 51.640625v58.410156h-38.589844c0-9.410156 7.621094-17.042969 17.019532-17.042969h1.339843v-71.386718c0-11.160156-5.300781-21.5625-14.097656-28.410156-1.761719-1.382813-3.382813-2.972657-4.851563-4.730469-11.710937-13.960938-14.132812-38-14.632812-46.53125-.078125-1.460938-1.597656-2.359375-2.917969-1.738281-7.800781 3.710937-21.1875 8.730468-38.390625 8.730468-26.179687 0-42.359375-4.992187-52.578125-9.652344-3.042969-1.390624-5.722656-2.769531-8.03125-4.058593-.851562-.472657-1.777343-.269531-2.378906.289062-.109375.089844-.203125.191407-.28125.300781-.359375.480469-.511719 1.148438-.277344 1.828126.078125.230468.148438.460937.226563.703124 2.070312 6.566407 4.023437 16.296876 2.511718 27.839844-.441406 3.386719-1.121093 6.546875-1.972656 9.488282-3.566406 12.410156-10.058594 20.851562-13.429687 24.71875-.328125.371093-.5.871093-.488281 1.371093.078124 4.488281 1.019531 27.050781 11.300781 45.839844.019531.039063.039062.082031.058593.128906l29.300782 62.3125h-50c0-9.109375 7.179687-16.539062 16.191406-16.988281l-35.949219-80.191406-10.203125-22.75-5.648437-12.601563c-2.28125-2.628906-7.339844-13.417969-14.121094-21.867187-.378906-.480469-.777344-.953125-1.1875-1.402344-.0625-.078125-.121094-.148438-.203125-.21875-.160156-.191406-.328125-.371094-.5-.550781-.167969-.179688-.339844-.359375-.519531-.53125-.128907-.136719-.257813-.269531-.398438-.398438-.269531-.269531-.539062-.527343-.820312-.777343-.011719-.011719-.011719-.011719-.011719-.011719-.148438-.160157-.296875-.289063-.457031-.441407-.453125-.398437-.890625-.777343-1.351563-1.148437-.269531-.21875-.539062-.4375-.820312-.648437-.949219-.742188-1.929688-1.429688-2.941406-2.070313-.449219-.238281-.886719-.480469-1.316407-.710937-.25-.140626-.511719-.300782-.761719-.4375-3.410156-1.890626-6.578124-3.8125-9.511718-5.773438-.417969-.277344-.828125-.558594-1.25-.847656-2.328125-1.609375-4.488282-3.25-6.5-4.941406-.378906-.320313-.757813-.640626-1.128906-.988282-.589844-.511718-1.167969-1.039062-1.730469-1.582031-.320313-.289063-.648438-.597656-.949219-.917969-.371094-.359375-.730469-.730468-1.089844-1.101562-3.25-3.390625-5.949218-7.058594-8.070312-11.121094-.109375-.078125-.238282-.148438-.347656-.226562-1.210938-2.5-2.222657-5.160157-3.023438-8-.019531-.0625-.039062-.121094-.058594-.179688-.339844-1.203125-.628906-2.441406-.890625-3.710938-.078125-.410156-.160156-.820312-.230469-1.230468-.039062-.199219-.078124-.398438-.109374-.601563-.070313-.410156-.140626-.820312-.199219-1.238281-.039063-.238281-.070313-.488281-.101563-.730469-.058594-.371093-.109375-.75-.148437-1.121093-.019531-.128907-.03125-.257813-.039063-.398438-.121094-.859375-.199218-1.738281-.261718-2.648438-.039063-.339843-.058594-.691406-.078126-1.039062-.019531-.191406-.03125-.382812-.03125-.582031-.039062-.519531-.058593-1.050781-.078124-1.589844-.011719-.300781-.023438-.609375-.023438-.917969-.019531-.703125-.027344-1.402344-.027344-2.113281v-83.628906s-2.449218-7.359375-2.570312-11.121094l-4.722656-39.558594c-.40625-13.308593 10.273437-24.328125 23.59375-24.328125h20.707031c13.332031 0 24 11.019532 23.589843 24.328125l-4.71875 39.558594c-.050781 1.792969-.308593 3.632813-.75 5.480469-.121093.5-.238281 1.019531-.378906 1.53125-.011718.011718-.011718.03125-.011718.039062-.007813.011719-.007813.019532-.007813.042969-.011719.019531-.023437.046875-.03125.089844v.039062c0 .019531-.011719.019531 0 .019531v.03125c.058594 1.277344.121094 2.179688.121094 2.179688l.757812 2 6.410157 16.929688c.050781.117187.101562.238281.140624.367187l1.691407 4.460937c5.6875 15.070313 20.128906 25.050782 36.25 25.050782h120.699219c37.039062 0 64.949218 33.671875 58.078124 70.058594l-1.980468 10.53125-7.847656 23.9375c0 11.75 2.988281 22.730468 12.71875 29.3125 2.121093 1.445312 3.230468 4.695312 2.460937 9.945312zm0 0" fill="#c16a48"/><path d="m149.746094 193.894531c-4.488282 6.988281-11.308594 12.242188-18.90625 12.242188h-8.125c-6.996094 0-13.332032-4.46875-17.800782-10.632813-.449218-.625-.882812-1.265625-1.285156-1.917968.503906-5.542969 2.964844-10.53125 6.679688-14.246094 4.183594-4.1875 9.980468-6.777344 16.363281-6.777344 12.179687-.003906 22.160156 9.394531 23.074219 21.332031zm0 0" fill="#f2c59e"/><path d="m122.695312 242.808594v31.402344c0 5.445312 2.320313 10.589843 6.300782 14.195312 3.410156 3.089844 6.558594 6.5 8.878906 10.5.910156 1.53125 1.710938 3.132812 2.429688 4.773438l6.519531 15.808593 15.25 37.03125c-2.277344-2.628906-7.339844-13.421875-14.117188-21.871093-.382812-.480469-.78125-.949219-1.191406-1.398438-.058594-.082031-.121094-.148438-.199219-.222656-.160156-.1875-.332031-.367188-.5-.546875-.171875-.179688-.339844-.359375-.519531-.53125-.121094-.140625-.261719-.28125-.402344-.398438-.269531-.28125-.539062-.542969-.820312-.78125-.007813-.011719-.007813-.011719-.007813-.011719-.152344-.15625-.300781-.289062-.460937-.4375-.449219-.398437-.890625-.78125-1.351563-1.148437-.269531-.222656-.539062-.441406-.820312-.652344-.949219-.738281-1.929688-1.429687-2.9375-2.070312-.449219-.238281-.890625-.476563-1.320313-.707031-.25-.140626-.511719-.300782-.761719-.441407-3.410156-1.890625-6.578124-3.808593-9.507812-5.769531-.421875-.28125-.832031-.558594-1.25-.851562-2.332031-1.609376-4.492188-3.25-6.5-4.9375-.382812-.320313-.761719-.640626-1.132812-.992188-.589844-.507812-1.167969-1.039062-1.726563-1.578125-.320313-.289063-.652344-.601563-.953125-.921875-.367188-.359375-.730469-.726562-1.089844-1.097656-3.25-3.390625-5.949218-7.0625-8.070312-11.121094-.109375-.082031-.238282-.148438-.347656-.230469-1.210938-2.5-2.222657-5.160156-3.019532-8-.019531-.058593-.042968-.117187-.0625-.179687-.339844-1.199219-.628906-2.4375-.890625-3.710938-.078125-.410156-.15625-.820312-.226562-1.226562-.042969-.203125-.082031-.402344-.113281-.601563-.066407-.410156-.136719-.820312-.199219-1.242187-.039063-.238282-.070313-.488282-.097657-.726563-.0625-.371093-.113281-.75-.152343-1.121093-.019531-.128907-.027344-.261719-.039063-.398438-.121094-.859375-.199218-1.742188-.261718-2.652344-.039063-.339844-.058594-.6875-.078126-1.039062-.019531-.1875-.03125-.378906-.03125-.578125-.039062-.519531-.058593-1.050781-.078124-1.589844-.011719-.300781-.019532-.609375-.019532-.921875-.019531-.699219-.03125-1.398438-.03125-2.109375v-83.628906l.148438.367187c.773437 1.78125 1.671875 3.511719 2.703125 5.152344.410156.648438.839843 1.289062 1.289062 1.910156 4.46875 6.167969 10.800781 10.640625 17.800781 10.640625h8.117188c7.601562 0 14.421875-5.261719 18.910156-12.242187 1.300782-2.007813 4.25-6.460938 5.730469-9.769532-.011719.050782-.019531.082032-.019531.109376.007812-.007813.007812-.027344.019531-.050782v.03125c.078125 1.429688.378906 2.839844.878906 4.179688l6.410157 16.929687c.050781.121094.101562.242188.140624.371094.480469 1.300781.628907 2.699219.359376 4.070313-.828126 4.378906-3.808594 6.058593-7.417969 9.679687-4.269531 4.269531-10.179688 6.910156-16.679688 6.917969-9.101562.007812-16.480469 7.347656-16.480469 16.4375zm0 0" fill="#934532"/></svg>