<svg id="Capa_1" enable-background="new 0 0 512 512" height="512" viewBox="0 0 512 512" width="512" xmlns="http://www.w3.org/2000/svg"><g><circle cx="404.227" cy="131.535" fill="#fece85" r="37.934"/><path d="m442.16 131.533c0 20.95-16.983 37.933-37.933 37.933-7.925 0-15.282-2.432-21.373-6.595 19.621-1.453 35.078-17.828 35.078-37.819 0-13.026-6.564-24.516-16.56-31.338.938-.082 1.896-.113 2.855-.113 20.951-.001 37.933 16.982 37.933 37.932z" fill="#fdb441"/><path d="m221.055 341.88c32.044-21.418 62.115-45.786 89.713-72.698 12.761-12.444 24.182-12.7 37.204-.003 27.599 26.913 57.671 51.282 89.716 72.701 0 0 38.426 24.182 64.193 38.546 6.257 3.488 10.119 10.107 10.119 17.271v98.27h-204.407s-95.673-97.31-113.405-132.12z" fill="#fddeb0"/><path d="m511.997 397.694v98.269h-20.816v-84.872c0-7.172-3.864-13.788-10.119-17.271-25.773-14.365-64.2-38.551-64.2-38.551-32.038-21.414-62.119-45.785-89.716-72.702-7.183-7.007-13.891-10.068-20.6-9.316 1.422-1.35 2.824-2.7 4.225-4.07 12.758-12.438 24.176-12.696 37.201 0 27.597 26.917 57.667 51.278 89.716 72.702 0 0 38.427 24.176 64.19 38.541 6.255 3.492 10.119 10.108 10.119 17.27z" fill="#fccd7f"/><path d="m415.172 416.56c4.321 0 5.495-5.958 1.491-7.581-29.906-12.118-56.969-31.221-80.736-53.232-29.581-27.397-54.529-59.336-79.337-91.12-14.655-18.777-26.796-49.652-51.853-55.869-37.136-9.214-54.021 23.876-76.357 46.581-12.355 12.558-25.427 24.391-38.5 36.186-26.558 23.96-53.981 46.943-82.204 68.895-4.826 3.754-7.672 9.498-7.673 15.612-.001 16.42-.003 47.952-.003 47.952v71.984l254.979-79.407h160.193z" fill="#fbc56d"/><path d="m415.171 416.563h-20.425c-.103-.052-.216-.103-.33-.144-30.513-12.366-58.12-31.853-82.358-54.307-30.183-27.947-55.627-60.532-80.936-92.951-14.953-19.157-27.329-50.649-52.896-56.997-1.371-.34-2.721-.629-4.04-.845 8.646-4.091 18.539-5.534 30.544-2.556 25.062 6.214 37.201 37.088 51.855 55.864 24.815 31.791 49.763 63.726 79.338 91.117 23.763 22.012 50.835 41.117 80.74 53.236 4.001 1.626 2.826 7.583-1.492 7.583z" fill="#e9b665"/><g><g><path d="m404.227 69.368c-4.269 0-7.729-3.46-7.729-7.729v-37.877c0-4.268 3.46-7.729 7.729-7.729s7.729 3.46 7.729 7.729v37.878c0 4.268-3.46 7.728-7.729 7.728z" fill="#fdb441"/></g><g><path d="m404.227 247.037c-4.269 0-7.729-3.46-7.729-7.729v-37.878c0-4.268 3.46-7.729 7.729-7.729s7.729 3.46 7.729 7.729v37.878c0 4.268-3.46 7.729-7.729 7.729z" fill="#fdb441"/></g></g><g><g><path d="m343.689 104.317c-1.311 0-2.64-.334-3.857-1.037l-32.803-18.939c-3.696-2.134-4.963-6.861-2.829-10.558 2.133-3.697 6.859-4.965 10.558-2.829l32.803 18.939c3.696 2.134 4.963 6.861 2.829 10.558-1.431 2.48-4.03 3.866-6.701 3.866z" fill="#fdb441"/></g><g><path d="m497.554 193.152c-1.311 0-2.64-.334-3.857-1.037l-32.803-18.939c-3.696-2.134-4.963-6.861-2.829-10.558 2.133-3.696 6.858-4.963 10.558-2.829l32.803 18.939c3.696 2.134 4.963 6.861 2.829 10.558-1.431 2.479-4.03 3.866-6.701 3.866z" fill="#fdb441"/></g></g><g><g><path d="m310.9 193.152c-2.671 0-5.268-1.386-6.7-3.866-2.134-3.696-.867-8.424 2.829-10.558l32.803-18.939c3.695-2.134 8.422-.868 10.558 2.829 2.134 3.696.867 8.424-2.829 10.558l-32.803 18.939c-1.217.702-2.546 1.037-3.858 1.037z" fill="#fdb441"/></g><g><path d="m464.765 104.317c-2.671 0-5.268-1.386-6.7-3.866-2.134-3.696-.867-8.424 2.829-10.558l32.803-18.939c3.695-2.135 8.422-.867 10.558 2.829 2.134 3.696.867 8.424-2.829 10.558l-32.803 18.939c-1.217.703-2.546 1.037-3.858 1.037z" fill="#fdb441"/></g></g><g><g><path d="m439.168 78.734c-1.311 0-2.64-.334-3.857-1.037-3.696-2.134-4.963-6.861-2.829-10.558l7.969-13.803c2.132-3.697 6.858-4.964 10.558-2.829 3.696 2.134 4.963 6.861 2.829 10.558l-7.969 13.803c-1.432 2.479-4.03 3.866-6.701 3.866z" fill="#fdb441"/></g><g><path d="m361.303 213.599c-1.311 0-2.641-.334-3.857-1.037-3.696-2.134-4.963-6.861-2.829-10.558l7.969-13.803c2.132-3.697 6.862-4.965 10.558-2.829 3.696 2.134 4.963 6.861 2.829 10.558l-7.969 13.803c-1.431 2.48-4.03 3.866-6.701 3.866z" fill="#fdb441"/></g></g><g><g><path d="m369.287 78.734c-2.671 0-5.268-1.386-6.7-3.866l-7.969-13.803c-2.134-3.697-.867-8.424 2.829-10.558 3.695-2.135 8.422-.868 10.558 2.829l7.969 13.803c2.134 3.697.867 8.424-2.829 10.558-1.217.703-2.547 1.037-3.858 1.037z" fill="#fdb441"/></g><g><path d="m447.151 213.599c-2.671 0-5.268-1.386-6.7-3.866l-7.969-13.803c-2.134-3.696-.867-8.423 2.829-10.558 3.694-2.133 8.423-.868 10.558 2.829l7.969 13.803c2.134 3.696.867 8.423-2.829 10.558-1.217.702-2.547 1.037-3.858 1.037z" fill="#fdb441"/></g></g><g><g><path d="m474.122 139.171c-4.264 0-7.723-3.453-7.729-7.719-.006-4.268 3.45-7.733 7.719-7.739l15.938-.021h.01c4.264 0 7.723 3.453 7.729 7.719.006 4.268-3.45 7.733-7.719 7.739l-15.938.021c-.003 0-.007 0-.01 0z" fill="#fdb441"/></g><g><path d="m318.394 139.377c-4.264 0-7.723-3.453-7.729-7.719-.006-4.268 3.45-7.733 7.719-7.739l15.939-.021h.01c4.264 0 7.723 3.453 7.729 7.719.006 4.268-3.45 7.733-7.719 7.739l-15.939.021c-.003 0-.007 0-.01 0z" fill="#fdb441"/></g></g><path d="m372.48 495.967c-55.098-36.828-106.805-78.728-154.258-125.002-10.347-10.089-24.572-23.797-40.332-17.606-3.266 1.283-6.291 3.163-9.148 5.182-5.202 3.675-9.931 7.984-14.484 12.424-47.453 46.274-99.16 88.174-154.258 125.002z" fill="#fddeb0"/><path d="m372.478 495.963h-34.357c-51.34-35.15-99.66-74.753-144.219-118.209-5.091-4.967-16.674-15.983-26.216-18.456 3.092-2.268 6.378-4.393 9.945-5.836 15.803-6.39 30.235 7.402 40.591 17.501 47.454 46.28 99.155 88.18 154.256 125z" fill="#fccd7f"/><g fill="#d8aa5e"><circle cx="167.686" cy="277.156" r="8.215"/><circle cx="139.055" cy="297.766" r="8.215"/><circle cx="296.652" cy="387.266" r="8.215"/></g><circle cx="472.973" cy="453.364" fill="#fbc56d" r="8.215"/><circle cx="456.543" cy="416.563" fill="#fbc56d" r="8.215"/></g></svg>