<svg id="Capa_1" enable-background="new 0 0 512 512" height="512" viewBox="0 0 512 512" width="512" xmlns="http://www.w3.org/2000/svg"><g><g><path d="m462.665 446.244c-1.865-.67-3.843-1.453-5.862-2.359-2.987-1.329-6.263 1.154-5.779 4.389 2.194 14.67 6.14 25.888 9.374 33.223 1.803 4.09-2.112 8.375-6.336 6.943-2.936-.999-6.212-2.266-9.529-3.863-2.256-1.082-4.935.082-5.697 2.462-1.37 4.275-2.926 8.417-4.636 12.424-3.255 7.602-10.703 12.537-18.965 12.537h-318.47c-8.262 0-15.71-4.935-18.966-12.537-1.71-4.007-3.266-8.159-4.636-12.424-.762-2.38-3.441-3.544-5.687-2.462-3.327 1.597-6.593 2.864-9.539 3.863-4.224 1.432-8.138-2.854-6.336-6.943 3.235-7.335 7.18-18.554 9.374-33.234.484-3.224-2.792-5.707-5.779-4.378-2.009.907-3.987 1.689-5.862 2.359-4.42 1.597-8.478-3.111-6.263-7.263 5.841-10.92 13.732-30.39 17.194-59.987 2.792-23.921 10.353-40.187 18.255-51.035 13.722 19.769 347.341 6.213 354.959 0 7.901 10.848 15.463 27.114 18.255 51.035 3.461 29.597 11.353 49.067 17.194 59.987 2.215 4.151-1.844 8.859-6.263 7.263z" fill="#fdcb89"/><path d="m433.48 327.958c-13.732 19.769-30.267 33.759-40.095 41.083-5.295 3.946-11.847 6.119-18.451 6.119-3.533 0-7.005-.598-10.292-1.762-11.59 13.495-24.477 22.952-32.08 27.918-5.038 3.286-10.889 5.027-16.905 5.027-3.688 0-7.324-.649-10.745-1.916-11.569 13.444-24.415 22.88-32.008 27.836-5.037 3.297-10.889 5.037-16.905 5.037s-11.868-1.741-16.905-5.037c-7.593-4.955-20.439-14.381-32.008-27.836-3.42 1.267-7.057 1.916-10.745 1.916-6.016 0-11.868-1.741-16.905-5.027-7.603-4.966-20.49-14.423-32.08-27.918-3.286 1.164-6.758 1.762-10.292 1.762-6.604 0-13.155-2.174-18.461-6.13-9.828-7.325-26.362-21.304-40.084-41.073 10.971-15.072 22.612-19.707 23.138-19.903 34.636-59.07 90.863-103.728 154.343-103.728s119.707 44.658 154.342 103.729c.525.196 12.166 4.832 23.138 19.903z" fill="#fdc072"/></g><g><path d="m396.682 339.253c-6.109 5.872-11.693 10.343-15.607 13.258-3.461 2.586-8.169 2.73-11.775.35-1.628-1.071-3.513-2.359-5.583-3.874-2.349-1.72-5.676-1.174-7.294 1.247-1.174 1.751-2.39 3.451-3.647 5.089-.093-.072-.175-.134-.268-.196-143.37-29.7-233.408-212.557-113.217-354.557 47.378-3.235 94.756 7.273 142.134 31.524.113-.34 22.732 85.253 3.169 141.542-19.996 73.236 22.553 110.851 12.088 165.617z" fill="#ffd9a0"/><path d="m352.775 355.324c-10.745 14.062-24.065 23.9-31.472 28.732-3.43 2.246-7.85 2.246-11.281 0-1.71-1.113-3.729-2.493-5.965-4.121-2.349-1.72-5.676-1.174-7.294 1.257-11.198 16.782-26.847 28.412-35.129 33.821-3.43 2.235-7.84 2.235-11.27 0-8.283-5.408-23.931-17.039-35.129-33.821-1.617-2.431-4.945-2.977-7.294-1.257-2.236 1.628-4.255 3.008-5.965 4.121-3.431 2.246-7.85 2.246-11.281 0-8.272-5.398-23.921-17.029-35.119-33.821-1.617-2.421-4.945-2.967-7.294-1.247-2.071 1.514-3.956 2.802-5.584 3.874-3.606 2.38-8.314 2.236-11.775-.35-3.915-2.915-9.498-7.386-15.607-13.258 26.565-62.402 27.651-96.569 7.655-169.805-19.563-56.289 7.489-137.694 7.602-137.354 36.234-18.544 72.486-29.062 108.717-31.524-76.615 141.907-1.226 307.849 113.217 354.557.093.062.175.124.268.196z" fill="#fdcb89"/><path d="m436.282 257.303c0 36.633-22.025 65.087-39.6 81.951-43.072-51.674-58.504-95.477-38.508-168.713 19.559-56.289 23.37-138.785 23.25-138.449 7.094 3.63 14.19 7.57 21.285 11.819 4.12 16.246 33.573 161.604 33.573 213.392z" fill="#fdcb89"/><path d="m75.718 257.303c0 36.633 22.025 65.087 39.6 81.951 43.072-51.674 58.504-95.477 38.508-168.713-19.559-56.289-23.37-138.785-23.25-138.449-7.094 3.63-14.19 7.57-21.285 11.819-4.12 16.246-33.573 161.604-33.573 213.392z" fill="#fdc072"/></g><g fill="#666667"><path d="m191.667 162.666c-4.267 0-7.726-3.459-7.726-7.726v-12.362c0-4.267 3.459-7.726 7.726-7.726s7.726 3.459 7.726 7.726v12.362c0 4.267-3.459 7.726-7.726 7.726z"/><path d="m320.333 162.666c-4.268 0-7.726-3.459-7.726-7.726v-12.362c0-4.267 3.459-7.726 7.726-7.726s7.726 3.459 7.726 7.726v12.362c0 4.267-3.458 7.726-7.726 7.726z"/></g><path d="m378.052 175.972c18.423-54.016 14.457-106.181 3.372-143.877 39.422 4.69 58.714 53.822 86.27 91.383 18.546 25.28 31.91 41.794 37.149 83.722 4.344 34.761-3.468 76.936-35.354 113.098-16.981 19.259-47.305 18.302-63.21-1.855-35.119-44.508-44.943-81.262-28.227-142.471z" fill="#ffd9a0"/><path d="m133.948 175.972c-18.423-54.016-14.457-106.181-3.372-143.877-39.422 4.69-58.714 53.822-86.27 91.383-18.546 25.28-31.91 41.794-37.149 83.722-4.344 34.761 3.468 76.936 35.354 113.098 16.981 19.259 47.305 18.302 63.21-1.855 35.119-44.508 44.943-81.262 28.227-142.471z" fill="#fdcb89"/><g><path d="m256 353.975c-24.06 0-42.982-20.564-40.984-44.541l4.213-50.555c1.04-12.474 13.217-20.889 25.253-17.451l8.789 2.511c1.783.51 3.674.51 5.457 0l8.789-2.511c12.036-3.439 24.214 4.977 25.253 17.451l4.213 50.555c1.999 23.977-16.923 44.541-40.983 44.541z" fill="#ffa1ac"/><g><path d="m313.572 200.748c-9.812-12.383-19.625-21.593-29.437-27.644-18.755-11.349-37.511-11.349-56.268-.001-9.813 6.051-19.626 15.261-29.439 27.645-63.94 81.415 10.296 125.84 57.572 87.384 47.078 38.392 121.603-5.814 57.572-87.384z" fill="#fff1cf"/><path d="m256 288.136c-47.278 38.454-121.516-5.973-57.576-87.388 9.813-12.387 19.626-21.593 29.438-27.644 2.297-1.387 4.586-2.609 6.883-3.649-30.595 43.353-16.072 101.5 21.255 118.681z" fill="#ffeab7"/></g><path d="m225.095 223.982c0 14.508 13.837 31.524 30.905 31.524s30.905-17.015 30.905-31.524c0-14.508-13.837-21.016-30.905-21.016s-30.905 6.508-30.905 21.016z" fill="#666667"/></g></g></svg>