<svg id="Capa_1" enable-background="new 0 0 512 512" height="512" viewBox="0 0 512 512" width="512" xmlns="http://www.w3.org/2000/svg"><g><g><path d="m369.042 348.829c-1.679 23.097 17.596 47.79 12.568 72.618-5.975 29.473-33.903 62.068-56.948 90.553h-137.324c-23.045-28.484-50.973-61.079-56.948-90.553-5.027-24.827 14.247-49.521 12.568-72.618 6.326 1.546 219.748 1.546 226.084 0z" fill="#fff8e6"/><path d="m150.994 421.447c5.975 29.473 13.3 62.068 36.345 90.553h-99.908c-8.252 0-15.669-4.935-18.955-12.496-8.623-19.893-13.361-42.835-13.361-68.878 0-27.918 5.439-56.794 15.298-84.475.505-.185.999-.391 1.494-.618l28.917-44.123c1.36-.618 2.812-.938 4.306-.938 2.266 0 4.492.773 6.264 2.163 8.468 6.665 18.193 11.569 28.505 14.484 4.316 31.35 3.677 67.695 11.095 104.328z" fill="#858586"/><path d="m456.885 430.626c0 26.043-4.739 48.985-13.361 68.878-3.286 7.561-10.704 12.496-18.955 12.496h-99.907c23.045-28.484 30.37-61.079 36.345-90.553 7.417-36.644 6.779-72.988 11.095-104.337 10.312-2.905 20.037-7.819 28.505-14.474 1.772-1.391 3.997-2.163 6.274-2.163 1.483 0 2.936.319 4.296.938l28.917 44.123c.494.226.989.433 1.494.618 9.858 27.68 15.297 56.556 15.297 84.474z" fill="#858586"/><path d="m119.089 260.244c25.23 21.13 28.03 52.438 23.869 88.585-11.445-2.771-22.262-7.973-31.565-15.288-1.772-1.391-3.997-2.163-6.264-2.163-1.494 0-2.946.319-4.306.938l-28.917 13.217c-.494.227-.989.433-1.494.618 11.106-31.194 27.816-60.863 48.677-85.907z" fill="#767678"/><path d="m441.587 346.151c-.505-.185-.999-.392-1.494-.618l-28.917-13.217c-1.36-.618-2.812-.938-4.296-.938-2.277 0-4.502.773-6.274 2.163-9.302 7.314-20.119 12.517-31.565 15.288-7.048-36.052-6.034-67.552 23.869-88.585 20.862 25.044 37.572 54.713 48.677 85.907z" fill="#767678"/><path d="m392.921 260.224c-.01.01-.01.01-.01.021-18.018 22.55-21.345 53.755-23.869 88.585-6.336 1.545-12.857 2.339-19.429 2.339h-3.595c-10.075 6.912-20.016 12.249-29.71 15.988-2.369 10.838-7.623 20.985-15.329 29.185-11.62 12.352-28.011 19.44-44.978 19.44-16.977 0-33.378-7.088-44.988-19.46-7.716-8.21-12.98-18.378-15.339-29.236-9.632-3.739-19.501-9.055-29.515-15.917h-3.781c-6.562 0-13.094-.793-19.419-2.339-2.524-34.83-5.851-66.035-23.869-88.585 0-.011 0-.011-.01-.021z" fill="#ffeab7"/></g><g><path d="m291.85 330.567h-129.473c-14.103 0-27.526-4.79-38.251-13.227-9.066-7.129-21.366-8.55-31.863-3.76l-28.917 13.207c-3.74 1.71-7.86-1.432-7.232-5.491.598-3.863 1.648-8.684 3.472-13.959.948-2.782 2.122-5.738 3.544-8.757 1.988-4.234-2.194-8.715-6.542-7.006-3.503 1.381-6.706 2.782-9.478 4.09-4.162 1.978-8.592-2.122-7.016-6.449 1.432-3.904 3.42-8.499 6.191-13.475 5.347-9.756 13.774-20.995 25.373-30.05 6.521-5.09 9.653-13.434 7.912-21.511-.999-4.595-1.823-9.189-2.452-13.763.041 0 .072.01.113.01 37.019-38.647 30.525-103.204 15.597-109.261 5.553-18.729 11.548-37.798 16.462-57.206 47.574-28.773 95.426-43.463 143.556-43.948.01.011.01.011.01.021-35.634 78.511-18.564 207.087 61.873 264.602 3.164 2.257-27.082 32.689-22.879 65.933z" fill="#858586"/><path d="m464.89 295.675c-2.771-1.318-5.975-2.719-9.478-4.1-4.347-1.71-8.53 2.782-6.542 7.006 1.422 3.018 2.596 5.975 3.544 8.757 1.823 5.275 2.874 10.106 3.472 13.969.628 4.059-3.492 7.201-7.232 5.49l-28.917-13.217c-10.487-4.79-22.798-3.369-31.863 3.77-10.724 8.427-24.158 13.217-38.261 13.217h-57.763c-4.203-33.244-203.924-169.444-38.992-330.534 0-.01 0-.01-.01-.021 49.655-.505 99.608 14.114 149.86 43.948 4.914 19.408 10.91 38.477 16.462 57.206-14.423-19.718-23.426 82.59 15.597 109.261.041 0 .072 0 .113.011-.628 4.564-1.453 9.158-2.441 13.742-1.751 8.077 1.38 16.421 7.901 21.511 11.6 9.055 20.027 20.294 25.373 30.05 2.771 4.976 4.759 9.57 6.191 13.475 1.578 4.326-2.852 8.426-7.014 6.459z" fill="#919191"/><path d="m436.282 190.977c0 6.624-.536 13.125-1.514 19.45-39.023-26.671-55.784-64.726-63.191-103.863-5.553-29.288 3.243-61.364 3.243-61.364 11.579 9.498 29.929 36.248 44.352 55.966 9.146 30.844 17.11 60.771 17.11 89.811z" fill="#858586"/><path d="m75.718 190.977c0 6.624.536 13.125 1.514 19.45 39.023-26.671 55.784-64.726 63.191-103.863 5.553-29.288-3.243-61.364-3.243-61.364-11.579 9.498-29.929 36.248-44.352 55.966-9.147 30.844-17.11 60.771-17.11 89.811z" fill="#767678"/></g><path d="m256 395.182c-24.06 0-42.982-20.564-40.984-44.541l4.213-50.555c1.04-12.474 13.217-20.889 25.253-17.451l8.789 2.511c1.783.51 3.674.51 5.457 0l8.789-2.511c12.036-3.439 24.214 4.977 25.253 17.451l4.213 50.555c1.999 23.977-16.923 44.541-40.983 44.541z" fill="#ffa1ac"/><g><path d="m149.099 220.404c-20.54-13.768-47.043 6.1-39.429 29.626.037.115.075.23.112.345 13.526 41.578 69.307 98.306 112.853 102.344 27.032 2.514 33-13.233 33.031-13.171l1.03-9.355-.515-39.991c-18.605-6.058-49.644-61.399-49.644-61.399-22.466 13.45-40.865 2.71-57.438-8.399z" fill="#fab658"/><path d="m363.082 220.404c20.54-13.768 47.043 6.1 39.429 29.626-.037.115-.075.23-.112.345-13.526 41.578-69.307 98.306-112.853 102.344-27.032 2.514-33-13.233-33.031-13.171l-1.03-9.355.515-39.991c18.605-6.058 49.644-61.399 49.644-61.399 22.466 13.45 40.865 2.71 57.438-8.399z" fill="#fdc072"/><g><path d="m338.507 304.387c0 33.378-42.639 59.102-74.781 44.483-.999-.453-1.988-11.239-2.967-11.775-2.957-1.617-6.573-1.617-9.529-.01-.422.227-.855 2.4-1.277 4.831-52.453-14.377-63.873-61.971-34.439-129.051v-.01c.165-.144.33-.299.494-.443 5.985-5.367 9.725-12.795 10.333-20.82l13.217-176.347c1.535-20.325 31.348-20.325 32.883 0l13.207 176.223c.608 8.066 4.389 15.525 10.436 20.902 22.716 20.224 42.423 54.396 42.423 92.017z" fill="#fff8e6"/><path d="m249.953 341.917c-.556 3.132-1.113 6.686-1.679 6.933-31.936 14.464-74.595-10.549-74.595-43.185 0-38.168 19.367-72.411 41.836-92.799-17.112 62.687-6.069 110.415 34.438 129.051z" fill="#fff1cf"/></g><path d="m263.726 271.906v76.965c-.999-.453-1.988-.937-2.967-1.473-2.957-1.617-6.573-1.617-9.529-.01-.968.525-1.957 1.02-2.957 1.463v-76.944c0-4.275 3.461-7.726 7.726-7.726 4.266-.001 7.727 3.45 7.727 7.725z" fill="#858586"/><path d="m222.454 279.463c0 15.748 15.019 34.217 33.546 34.217s33.546-18.469 33.546-34.217-15.019-22.811-33.546-22.811-33.546 7.063-33.546 22.811z" fill="#666667"/><g><ellipse cx="331.651" cy="117.037" fill="#fdc072" rx="20.604" ry="16.483" transform="matrix(.94 -.342 .342 .94 -20.028 120.489)"/><ellipse cx="180.349" cy="117.037" fill="#fab658" rx="16.483" ry="20.604" transform="matrix(.342 -.94 .94 .342 8.688 246.481)"/></g><g fill="#666667"><path d="m191.667 189.451c-4.267 0-7.726-3.459-7.726-7.726v-12.362c0-4.268 3.459-7.726 7.726-7.726s7.726 3.459 7.726 7.726v12.362c0 4.267-3.459 7.726-7.726 7.726z"/><path d="m320.333 189.451c-4.267 0-7.726-3.459-7.726-7.726v-12.362c0-4.268 3.459-7.726 7.726-7.726s7.726 3.459 7.726 7.726v12.362c.001 4.267-3.458 7.726-7.726 7.726z"/></g></g><path d="m360.735 22.545c49.579-1.64 113.663 33.62 126.894 55.207 26.692 43.547-3.548 96.057-25.453 118.147-3.323 3.351-8.467 4.005-12.556 1.65-64.136-36.931-51.964-133.988-88.885-175.004z" fill="#919191"/><path d="m151.265 22.545c-49.579-1.64-113.663 33.62-126.894 55.207-26.692 43.547 3.548 96.057 25.453 118.147 3.323 3.351 8.467 4.005 12.556 1.65 64.136-36.931 51.964-133.988 88.885-175.004z" fill="#858586"/></g></svg>