<svg id="Layer_1" enable-background="new 0 0 512 512" height="512" viewBox="0 0 512 512" width="512" xmlns="http://www.w3.org/2000/svg"><g id="XMLID_3_"><g id="XMLID_3613_"><path id="XMLID_1601_" d="m338 13.7s47.8-8.7 91.4-8.7 56.3 13.7 58.5 24c2.3 10.3-27.8 3.6-47.8 41.4.1 0-69.2-3-102.1-56.7z" fill="#9cd3fc"/><path id="XMLID_1840_" d="m274.8 169.6c-37.8 68.6-11 106.5-29.2 105.8-18.1-.7-49.5-39.7-46.7-91.2 0 0 5.7-19.9 34.1-28.3s41.8 13.7 41.8 13.7z" fill="#69bdfb"/><path id="XMLID_1603_" d="m436.3 410.8c-70.7 17.9-59.7 83.1-59.7 83.1s5.7-23 29.8-23 39-22 39-22c8 29.7 26.4 23.1 39 30s22.5 28 22.5 28c0-80.8-43.2-96.2-43.2-96.2s43.3-68.9 43.3-181.7-86.8-224-239.5-224-232.2 114.7-220.9 180.5c0 0-41.6 39.5-41.6 60.1 0 44.9 55 11.9 112.1-22.5 63.5-38.3 186-91.6 259.4-12.5s59.8 200.2 59.8 200.2z" fill="#9cd3fc"/><path id="XMLID_1865_" d="m440.2 70.4c.1.4 44 127.7-23.2 205.1 27 67.3 19.2 135.3 19.2 135.3-70.7 17.9-59.7 83.1-59.7 83.1s5.7-23 29.8-23 39-22 39-22c8 29.7 26.4 23.1 39 30s22.5 28 22.5 28c0-80.8-43.2-96.2-43.2-96.2s43.4-68.9 43.4-181.7c0-58.4-23.2-116.3-66.8-158.6z" fill="#69bdfb"/><path id="XMLID_1866_" d="m371.7 161.7c-110-70.8-221.8-26.2-250.7 14.3-43.9 61.4-114.5 80-114.7 80 8.7 28.4 58.9-1.6 110.8-33 63.5-38.3 186-91.6 259.4-12.5 73.5 79.1 59.7 200.3 59.7 200.3s45.6-178.3-64.5-249.1z" fill="#cde9fe"/><g id="XMLID_1602_"><path id="XMLID_1843_" d="m7.5 260.9-2.3-9.7 1.1 4.9-1.2-4.9c.7-.2 71.3-17.5 111.7-77.9l8.3 5.6c-22.3 33.4-53 53.9-74.9 65.2-23.7 12.2-41.9 16.6-42.7 16.8z" fill="#275e87"/></g><path id="XMLID_1598_" d="m323.5 136c-20.7 40.7-7.5 102.4-28.6 101.1-14.9-.9-63.2-49-46-112.7 0 0 16.4-9 42.3-5.8s32.3 17.4 32.3 17.4z" fill="#9cd3fc"/><circle id="XMLID_1600_" cx="136" cy="141" fill="#275e87" r="15"/><path id="XMLID_1886_" d="m434.9 249.1c-4.8 9.2-10.7 18.1-17.9 26.3 27 67.3 19.2 135.3 19.2 135.3s21.9-85.5-1.3-161.6z" fill="#9cd3fc"/><ellipse id="XMLID_1599_" cx="177.6" cy="50.4" fill="#cde9fe" rx="13.8" ry="43.3" transform="matrix(.412 .911 -.911 .412 150.494 -132.218)"/></g></g></svg>