<svg id="Flat" height="512" viewBox="0 0 64 64" width="512" xmlns="http://www.w3.org/2000/svg"><path d="m55.38 3.12c.61.85.47 2.03-.26 2.78-2.48 2.59-9.48 10.19-11.12 15.1-.24.73-.61 1.48-1.09 2.25-.87 1.42-2.07 2.89-3.42 4.35-.84-3.96-2.49-6.6-2.49-6.6-5-3-10 8-7 9 1.32.44 2.82 1.54 4.2 2.79-2.38 2.21-4.44 4.07-5.2 5.21-1.78 2.67-3.56 5.34-3.93 12.93-.3.07-.47.11-.47.11l-2.59.69c.32-34.4 13.75-39.81 18.96-40.61 1.31-.2 2.54-.79 3.46-1.75 4.04-4.21 9.57-7.37 9.57-7.37l.05-.09c.49.31.97.71 1.33 1.21z" fill="#f8f4e8"/><path d="m24.6 51.04s.17-.04.47-.11c.37-7.59 2.15-10.26 3.93-12.93.76-1.14 2.82-3 5.2-5.21-1.242-1.125-2.579-2.123-3.796-2.634-4.203 6.638-7.117 13.903-8.146 21.508z" fill="#d6d4ce"/><path d="m37.134 21.228c.406.713 1.659 3.085 2.356 6.372 1.35-1.46 2.55-2.93 3.42-4.35.48-.77.85-1.52 1.09-2.25 1.545-4.625 7.844-11.634 10.642-14.597-6.426 4.062-12.434 9.089-17.508 14.825z" fill="#d6d4ce"/><path d="m54.05 1.91-.05.09s-5.53 3.16-9.57 7.37c-.92.96-2.15 1.55-3.46 1.75-5.21.8-18.64 6.21-18.96 40.61l-1.01.27s-.39.11-1.03.33c-2.65-4.67-9-18.45-.97-32.33.08-.14.16-.28.25-.42 2.78-4.71 5.82-8.1 8.79-10.53 7.1-5.81 13.86-6.17 16.14-6.1.51.01 1-.13 1.42-.4.92-.59 2.94-1.55 6.4-1.55 0 0 1.03.26 2.05.91z" fill="#9cdeff"/><path d="m20.799 52.06c.121-.037.201-.06.201-.06l1.01-.27c.32-34.4 13.75-39.81 18.96-40.61 1.31-.2 2.54-.79 3.46-1.75 4.04-4.21 9.57-7.37 9.57-7.37l.05-.09c-.565-.36-1.127-.597-1.522-.74-6.077 4.331-13.519 7.225-19.528 10.83-12.164 8.421-17.322 25.597-12.201 40.06z" fill="#56b8f4"/><path d="m42.91 23.25c.77 2.13 1.52 5.28 1.01 8.78-.17 1.12-1.55 1.54-2.3.71-.49-.55-1.07-1.16-1.69-1.76-.06-1.2-.22-2.34-.44-3.38 1.35-1.46 2.55-2.93 3.42-4.35z" fill="#56b8f4"/><path d="m39.93 30.98c.07 1.22.02 2.51-.17 3.84-.2 1.33-1.84 1.83-2.74.83-.8-.88-1.77-1.91-2.82-2.86-1.38-1.25-2.88-2.35-4.2-2.79-3-1 2-12 7-9 0 0 1.65 2.64 2.49 6.6.22 1.04.38 2.18.44 3.38z" fill="#9cdeff"/><path d="m25.07 50.93c2.14-.46 11.04-1.95 14.55 4.13 0 0-10.16 2.4-15.62.94-4 4-14 7-14 7 0-6.49 7.24-9.69 9.97-10.67.64-.22 1.03-.33 1.03-.33l1.01-.27 2.59-.69s.17-.04.47-.11z" fill="#9cdeff"/><path d="m28 9 .04.05c-2.97 2.43-6.01 5.82-8.79 10.53-1.52-.06-3.34.02-4.88.13-1.56.1-2.62-1.63-1.76-2.94 5.08-7.77 15.39-7.77 15.39-7.77z" fill="#56b8f4"/><g><circle cx="37" cy="8" fill="#7d7d7d" r="1"/></g><g><path d="m15.999 59c-.226 0-.452-.076-.64-.231-.424-.354-.481-.984-.128-1.409l4.896-5.876c.354-.424.983-.48 1.409-.128.424.354.481.984.128 1.409l-4.896 5.876c-.198.237-.482.359-.769.359z" fill="#c4ebff"/></g><g><path d="m31 55c-.117 0-.235-.021-.352-.063l-7.098-2.662c-.517-.194-.778-.771-.585-1.288s.771-.776 1.288-.585l7.098 2.662c.517.194.778.771.585 1.288-.15.401-.532.648-.936.648z" fill="#c4ebff"/></g><g><path d="m22.719 54c-.351 0-.691-.185-.874-.513l-.708-1.27c-.27-.482-.097-1.092.386-1.36.481-.268 1.092-.097 1.36.386l.708 1.27c.27.482.097 1.092-.386 1.36-.154.086-.321.127-.486.127z" fill="#c4ebff"/></g><path d="m30.465 11.879c-.842.466-1.734-.507-1.218-1.32.567-.894 1.55-1.979 2.96-1.921 1.592.066-.158 2.365-1.742 3.241z" fill="#c4ebff"/></svg>