<svg id="Layer_1" enable-background="new 0 0 68 68" height="512" viewBox="0 0 68 68" width="512" xmlns="http://www.w3.org/2000/svg"><g id="_x33_3"><g><g><g><g><g><path d="m65.1 39.6c0 12.9-14 23.3-31.3 23.3-17.2.1-31.2-10.4-31.2-23.3 0-.4 0-.7 0-1.1.4.3 1 .5 1.8.5 1.4.1 2.6.9 3 2.5s1.1 3 1.1 3c2.6 2.9 5.9.8 9 .6s2.2 1.7 5.6 5.6 7.5 2.2 10.9 1c3.4-1.3 7.2-7.7 16.3-5 9.2 2.7 11.7-7.7 12.3-9.7.3-1 1-1.7 1.6-2.2.7 1.5.9 3.1.9 4.8z" fill="#ffb961"/></g><g><g><path d="m52.4 10.1c-10.2-6.3-29.2-8.2-40.8 3.1-11.7 11.4-9.4 24.5-9.4 24.5.1.4.3.8.7 1s.8.2 1.2.2c1.5 0 2.7.6 3.3 1.9.3.6.5 1.9 1.4 3.6 3.4 3.6 8.8-1.6 11.4 1.1 1 1.1 2.8 5.8 6.3 6.9 2 .6 4.1 0 6.1-.7 3-1.1 1.9-.8 5.5-3.2 1.2-.9 2.5-1.7 3.9-2.2s3-.8 4.5-.7c1.5 0 3 .4 4.4.7 6.5 1.8 9.7-2.9 11.8-9.3.4-1.3 1.5-2.3 2.7-2.9.1-.1.2-.1.3-.2 1.4-3.1-1.3-16.3-13.3-23.8zm-8.4 23.9c-1.9 1.7-4.6 3-7.8 3.5h-.1c-.1 0-.1 0-.2 0-.2 0-.3 0-.5 0s-.5 0-.7.1h-.8c-.2 0-.4 0-.7 0s-.5 0-.8 0c-5.1-.3-8.8-3.1-8.3-6.1.6-3.6 6.4-6.3 12-6.3s8.9 3.6 8.7 6.7c0 .8-.3 1.5-.8 2.1z" fill="#ffa9dc"/></g><g><path d="m65 35.8c-.9.5-2 1.5-2.6 2.4.2-.6.3-1 .4-1.3.6-1.9 2.6-2.8 2.8-2.9s.2 1.3-.6 1.8z" fill="#f3a250"/></g><g><path d="m62.1 38.9c0 .1 0 8-4.6 10s-9.3-.2-11.4 0-7.7 2.1-11.7 5.4c-4.1 3.3-8.6 2.5-11.5-.7-3-3.2-2.3-4.6-9.3-4.8-7-.3-4.5-5.2-7.5-7.1s-4.1-3.2-3.9-4.4c.1 1 .9 1.4 2.3 1.5s2.6 1 3 2.8 1 2.6 1 2.6c2.6 3.3 5.8 1.5 8.9 1.3 3.1-.3 2.5 1.4 5.9 5.7s7.5 2.5 10.9 1.1 7.1-7.9 16.3-4.9c7.2 2.3 10.2-4.4 11.6-8.5z" fill="#f3a250"/></g><g><path d="m48.1 27.5c-.3 4.5-4.3 7.8-8.5 9.2-1 .3-2.4.7-3.4.8 3.2-.5 6-1.8 7.8-3.5.5-.6.8-1.3.9-2 .2-3.1-3.1-6.7-8.7-6.7s-11.4 2.7-12 6.3c-.5 3 3.2 5.7 8.3 6.1 1 .1 1 0 .1 0 0 0-.1 0-.5 0-7.5-.5-13-5.5-12.2-10.7.9-6.4 8-9.3 16.1-9.3 8.1-.1 12.4 4.2 12.1 9.8z" fill="#f37cd0"/></g><g><path d="m44 34c.5-.6.8-1.3.9-2 .2-3.1-3.1-6.7-8.7-6.7s-11.4 2.7-12 6.3c-.5 3 3.2 5.7 8.3 6.1-5.4 0-11.9-3.9-11.2-9.2.8-5.5 7.1-7.9 14.4-7.9 11.2 0 13.5 8.6 8.3 13.4z" fill="#ef65be"/></g><g><path d="m44.9 32c0 .2 0 .4-.1.6-.1.5-.4.9-.7 1.4-.7-2.7-3.4-5.2-7.7-5.2-5 0-10.2 2.7-10.7 6.3v.1c-4.7-4.4 2.3-9.8 10.5-9.8 5.6-.1 8.9 3.5 8.7 6.6z" fill="#f3a250"/></g><g><path d="m44.8 32.6c-.1.5-.4.9-.7 1.4-.7-2.7-3.4-5.2-7.7-5.2-5 0-10.2 2.7-10.7 6.3v.1c-.7-.6-1.2-1.4-1.4-2.1.9-3.4 6.5-5.9 11.9-5.9 4.8-.1 8 2.6 8.6 5.4z" fill="#febc1f"/></g></g><g><path d="m44.3 34.2c0 2.7-3.2 6.4-9.2 7.1-4.3.5-8.7-2.3-8.7-5 4.9 2.3 13.5 1 17.9-2.1z" fill="#f37cd0"/></g><g><path d="m65 38.4c-.1 3.5-1.4 7.9-3.4 10.8-4.9 7-14.7 12.7-27.7 12.9-6.9-.1-14.2-1.7-20.1-5.5-6.1-3.8-10.7-9.8-11-16.9 2.8 13.3 17.5 20.1 31.1 20.1 9.8 0 20.6-3.6 26.8-11.2 2.1-2.8 3.6-6.9 4.3-10.2z" fill="#aa6256"/></g><g><path d="m65 37.7c-.1 3.5-1.4 6.8-3.4 9.7-4.9 7-14.7 12.7-27.7 12.9-19-.2-30.7-11.7-31.2-22.4 2.7 13.2 17.6 20.1 31.2 20 3.3 0 6.6-.4 9.9-1.2 9.9-2.4 19.2-9 21.2-19z" fill="#f3a250"/></g><g><g><path d="m2.2 37.7c0 .4.3.8.7 1s.8.2 1.2.2c.9 0 1.8.2 2.5.8.4.3.6.7.8 1.1s.3.9.4 1.2c.3.8.6 1.6 1 2.3v-.1c2.9 3.2 7.1-.3 10.3.4 1.7.4 1.8 2.5 4.2 5.2 2.7 3.2 5.4 3.1 9.4 1.7.8-.3 2.1-.7 4-2.1 1.6-1.2 3.3-2.5 5.4-3.3 1.4-.5 3-.8 4.5-.7 1.5 0 3 .4 4.4.7 6.4 1.8 9.7-2.9 11.8-9.2.5-1.4 1.7-2.5 3-3.1-1.3.7-2.4 1.8-2.8 3.1-.8 2.9-1.8 5.7-3.9 7.9-1 1.1-2.4 1.9-3.9 2.3-3.5.8-5.6-.9-8.7-.8-5.6-.1-8.3 3.6-11.4 5.4-.8.4-2.8 1.1-4.2 1.5-1.5.3-3.1.5-4.6 0-2.8-.8-4.8-3.8-6.2-6.4-.7-1.2-1-1.6-3.2-1.3-1.4.2-2.8.7-4.3.8-1.7.1-3-.4-4.1-1.6-.5-.9-.8-1.7-1.1-2.5-.1-.4-.2-.9-.3-1.2-.2-.4-.4-.7-.7-1-.6-.6-1.4-.8-2.3-.9-.4 0-.9-.1-1.3-.3-.3-.3-.6-.7-.6-1.1z" fill="#eb4caa"/></g></g><g><path d="m66 31.7c0 .9-.1 1.7-.3 2.2-.1 0-.2.1-.3.2-1.2.6-2.2 1.6-2.7 2.9-2.1 6.3-5.3 11.1-11.8 9.3-1.4-.4-2.9-.7-4.4-.7s-3 .2-4.4.7c-4.2 1.5-5 3.8-9.4 5.4-3.9 1.4-6.7 1.5-9.4-1.7-2.3-2.6-2.5-4.9-4.2-5.2-3.2-.8-7.3 2.8-10.2-.4-.4-.7-.7-1.5-1-2.3-.2-.5-.3-1.5-1.2-2.3-.7-.6-1.6-.8-2.5-.8-.4 0-.9-.1-1.2-.2-.4-.2-.7-.5-.7-1 0 0-.2-1.2-.2-3.1 0-.2 0-.4 0-.7 0 1.1.1 1.8.1 1.8.1.4.3.8.7 1s.8.2 1.2.2c.9 0 1.8.2 2.5.8.3.3.6.7.8 1.1.2.3.5 1.9 1.4 3.6 2.2 2.4 5.1.9 7.9.4 2.5-.4 3.2.1 4.1 1.6 3.5 6.4 6.3 7.1 11.7 5.2 3.1-1.1 1.9-.7 5.5-3.2 2.6-1.9 5.2-3 8.4-2.9 3.4 0 5.2 1.6 8.5 1 4.2-.8 6.4-5.5 7.7-9.5.4-1.3 1.5-2.3 2.7-2.9.1-.1.2-.1.3-.2 0 0 .2-.1.4-.3z" fill="#f161bc"/></g><g><path d="m65.9 31.8c-.1.5-.1.8-.3 1.1-.1 0-.2.1-.3.2-1.2.6-2.2 1.6-2.7 2.9-2.1 6.3-5.3 11.1-11.8 9.3-1.4-.4-2.9-.7-4.4-.7s-3 .2-4.4.7c-4.1 1.5-5 3.8-9.4 5.4-5.5 1.9-8.2 1.2-11.7-5.2-.5-.9-1-1.4-1.8-1.7-3.3-.7-7.3 2.7-10.2-.4-.4-.7-.7-1.5-1-2.3-.2-.5-.3-1.5-1.2-2.3-.7-.6-1.6-.8-2.5-.8-1 0-1.9-.3-2-1.2 0-.1-.2-1.6-.1-2.7 0 1.1.1 1.8.1 1.8.1.4.3.8.7 1s.8.2 1.2.2c.9 0 1.8.2 2.5.8.3.3.6.7.8 1.1s.3.9.4 1.2c.3.8.6 1.6 1 2.3.9 1 2.3 1.5 3.7 1.3 2.5-.2 6-1.9 7.5-.4.4.4.6.8.9 1.1 3.5 6.3 6.2 7.2 11.7 5.2 3.1-1.1 1.9-.7 5.5-3.2 2.6-1.9 5.2-3 8.4-2.9 3.4 0 5.2 1.6 8.5 1 4.2-.8 6.4-5.5 7.7-9.5.4-1.3 1.5-2.3 2.7-2.9.1-.1.2-.1.3-.2-.1 0 .1-.1.2-.2z" fill="#f161bc"/></g></g></g></g><g><path d="m21.8 56.1v2.3c3.7 1.2 7.7 1.8 12.1 1.9 13-.1 22.8-5.8 27.7-12.9 2-2.9 3.3-6.3 3.4-9.7-3.2 16.2-25.2 23.9-43.2 18.4z" fill="#e5934a"/></g><g><path d="m45.6 56.2v2.3c6.4-2 12.2-5.6 16-11.1 2-2.9 3.3-6.3 3.4-9.7-1.8 9.4-10.2 15.7-19.4 18.5z" fill="#d68543"/></g><g><g opacity=".3"><g><path d="m50.9 13.7c-.4 0-.5-.3-2.7-1.8-.3-.2-.4-.7-.2-1s.7-.4 1-.2l2.3 1.7c.3.2.4.7.2 1-.2.2-.4.3-.6.3z" fill="#4c5c75"/></g><g><path d="m40.3 15.5c-.2-.4 0-.8.4-1l2.4-1.2c.4-.2.8 0 1 .4s0 .8-.4 1l-2.4 1.2c-.4.1-.8 0-1-.4z" fill="#4c5c75"/></g><g><path d="m62 29.6-3.8-.2c-.4 0-.7-.4-.7-.8s.4-.7.8-.7l3.8.2c.4 0 .7.4.7.8s-.4.7-.8.7z" fill="#4c5c75"/></g><g><path d="m56.1 38-2.1-.4c-.4-.1-.7-.5-.6-.9s.5-.7.9-.6l2.1.4c.4.1.7.5.6.9s-.5.7-.9.6z" fill="#4c5c75"/></g><g><path d="m46.3 41c-.1-.4.2-.8.6-.9l1.8-.4c.4-.1.8.2.9.6s-.2.8-.6.9l-1.8.4c-.4.1-.8-.2-.9-.6z" fill="#4c5c75"/></g><g><path d="m49.1 33.1c-.3-.3-.4-.7-.1-1.1l1-1.2c.3-.3.7-.4 1.1-.1s.4.7.1 1.1l-1 1.2c-.3.3-.8.4-1.1.1z" fill="#4c5c75"/></g><g><path d="m35.8 44.2-2.5-.2c-.4 0-.7-.4-.7-.8s.4-.7.8-.7l2.5.2c.4 0 .7.4.7.8s-.4.7-.8.7z" fill="#4c5c75"/></g><g><path d="m27.8 46-3.4-2.5c-.3-.2-.4-.7-.2-1s.7-.4 1-.2l3.4 2.5c.3.2.4.7.2 1-.2.4-.7.4-1 .2z" fill="#4c5c75"/></g><g><path d="m10.7 38.1c-.4-.1-.7-.5-.6-.9l.7-2.9c.1-.4.5-.7.9-.6s.7.5.6.9l-.7 2.9c-.1.4-.5.7-.9.6z" fill="#4c5c75"/></g><g><path d="m14.2 24.4-3.2-1.2c-.4-.2-.6-.6-.4-1s.6-.6 1-.4l3.2 1.3c.4.2.6.6.4 1-.2.3-.6.5-1 .3z" fill="#4c5c75"/></g><g><path d="m18.7 19.2c-.1-.4.2-.8.6-.9l1.8-.3c.4-.1.8.2.9.6s-.2.8-.6.9l-1.8.3c-.5.1-.9-.2-.9-.6z" fill="#4c5c75"/></g><g><path d="m22.3 13.2-1.6-.8c-.5-.2-.1-.9.3-.7l1.6.8c.2.1.3.3.2.5 0 .2-.3.3-.5.2z" fill="#4c5c75"/></g><g><path d="m16.8 30.6-1-.5c-.2-.1-.3-.3-.2-.5s.3-.3.5-.2l1 .5c.2.1.3.3.2.5s-.3.3-.5.2z" fill="#4c5c75"/></g><g><path d="m48.9 20.6c-.3 0-.7-.2-.7-.6-.1-.4.2-.8.6-.9l2.4-.5c.4-.1.8.2.9.6s-.2.8-.6.9l-2.5.5z" fill="#4c5c75"/></g><g><path d="m56.5 21.8c-.1 0-.2 0-.3-.1-.4-.2-.5-.6-.3-1l.8-1.5c.2-.4.6-.5 1-.3s.5.6.3 1l-.8 1.5c-.2.3-.4.4-.7.4z" fill="#4c5c75"/></g><g><path d="m38.1 9.5-3.3-.3c-.4 0-.7-.4-.7-.8s.4-.7.8-.7l3.3.3c.4 0 .7.4.7.8-.1.4-.4.7-.8.7z" fill="#4c5c75"/></g><g><path d="m13.4 15.8c-.3-.3-.2-.8.1-1.1l1.3-1.1c.3-.3.8-.2 1.1.1s.2.8-.1 1.1l-1.3 1.1c-.3.2-.8.2-1.1-.1z" fill="#4c5c75"/></g><g><path d="m29 12.2-3.5-2.6c-.3-.2-.4-.7-.2-1s.7-.4 1-.2l3.5 2.6c.3.2.4.7.2 1-.2.4-.7.5-1 .2z" fill="#4c5c75"/></g><g><path d="m8 30.5-2.4-1.8c-.3-.2-.4-.7-.2-1s.7-.4 1-.2l2.4 1.8c.3.2.4.7.2 1-.2.4-.7.4-1 .2z" fill="#4c5c75"/></g><g><path d="m20.4 39-2.5-.8c-.4-.1-.6-.5-.5-.9s.5-.6.9-.5l2.5.8c.4.1.6.5.5.9s-.6.6-.9.5z" fill="#4c5c75"/></g><g><path d="m39.1 39.4-.9-.2c-.5-.1-.4-.9.2-.8l.9.2c.2 0 .4.3.3.5 0 .2-.2.3-.5.3z" fill="#4c5c75"/></g><g><path d="m50.6 25.2c-.1-.4.2-.8.6-.9l1.5-.3c.4-.1.8.2.9.6s-.2.8-.6.9l-1.5.3c-.4.1-.8-.2-.9-.6z" fill="#4c5c75"/></g><g><path d="m31.4 15 2-.4c.5-.1.7.7.2.8l-2 .4c-.6.1-.7-.7-.2-.8z" fill="#4c5c75"/></g></g><g><g><path d="m51.3 13.3c-.2 0-.3 0-.4-.1l-2.3-1.7c-.3-.2-.4-.7-.2-1s.7-.4 1-.2l2.3 1.7c.3.2.4.7.2 1-.1.2-.3.3-.6.3z" fill="#df3260"/></g><g><path d="m40.9 14.9c-.2-.4 0-.8.4-1l2.4-1.2c.4-.2.8 0 1 .4s0 .8-.4 1l-2.4 1.2c-.3.1-.8 0-1-.4z" fill="#fff"/></g><g><path d="m62.5 29.2-3.8-.2c-.4 0-.7-.4-.7-.8s.4-.7.8-.7l3.8.2c.4 0 .7.4.7.8-.1.4-.4.7-.8.7z" fill="#df3260"/></g><g><path d="m56.6 37.5-2.1-.4c-.4-.1-.7-.5-.6-.9s.5-.7.9-.6l2.1.4c.4.1.7.5.6.9s-.5.7-.9.6z" fill="#fff"/></g><g><path d="m46.7 40.6c-.1-.4.2-.8.6-.9l1.8-.4c.4-.1.8.2.9.6s-.2.8-.6.9l-1.8.4c-.4 0-.8-.2-.9-.6z" fill="#6eb954"/></g><g><path d="m49.6 32.7c-.3-.3-.4-.7-.1-1.1l1-1.2c.3-.3.7-.4 1.1-.1.3.3.4.7.1 1.1l-1 1.2c-.4.3-.8.3-1.1.1z" fill="#fff"/></g><g><path d="m36.3 43.7-2.5-.2c-.4 0-.7-.4-.7-.8s.4-.7.8-.7l2.5.2c.4 0 .7.4.7.8-.1.4-.4.8-.8.7z" fill="#df3260"/></g><g><path d="m28.2 45.5-3.4-2.5c-.3-.2-.4-.7-.2-1s.7-.4 1-.2l3.4 2.5c.3.2.4.7.2 1-.2.4-.6.5-1 .2z" fill="#fff"/></g><g><path d="m11.1 37.6c-.4-.1-.7-.5-.6-.9l.7-2.9c.1-.4.5-.7.9-.6s.7.5.6.9l-.7 3c-.1.4-.5.6-.9.5z" fill="#df3260"/></g><g><path d="m14.8 23.9-3.2-1.3c-.4-.2-.6-.6-.4-1s.6-.6 1-.4l3.2 1.3c.4.2.6.6.4 1s-.6.6-1 .4z" fill="#57b3fe"/></g><g><path d="m19.1 18.7c-.1-.4.2-.8.6-.9l1.8-.3c.4-.1.8.2.9.6s-.2.8-.6.9l-1.8.4c-.4 0-.8-.2-.9-.7z" fill="#fff"/></g><g><path d="m22.8 12.8-1.6-.8c-.5-.2-.1-.9.3-.7l1.6.8c.2.1.3.3.2.5s-.3.3-.5.2z" fill="#986ff9"/></g><g><path d="m17.2 30.3-1-.5c-.2-.1-.3-.3-.2-.5s.3-.3.5-.2l1 .5c.2.1.3.3.2.5 0 .2-.3.3-.5.2z" fill="#986ff9"/></g><g><path d="m49.3 20.1c-.3 0-.7-.2-.7-.6-.1-.4.2-.8.6-.9l2.4-.5c.4-.1.8.2.9.6s-.2.8-.6.9l-2.4.5s-.1 0-.2 0z" fill="#57b3fe"/></g><g><path d="m57 21.4c-.1 0-.2 0-.3-.1-.4-.2-.5-.6-.3-1l.8-1.5c.2-.4.6-.5 1-.3s.5.6.3 1l-.9 1.5c-.1.3-.4.4-.6.4z" fill="#fff"/></g><g><path d="m38.5 9-3.3-.3c-.4 0-.7-.4-.7-.8s.4-.7.8-.7l3.3.3c.4 0 .7.4.7.8 0 .5-.4.8-.8.7z" fill="#fff"/></g><g><path d="m13.9 15.3c-.3-.3-.2-.8.1-1.1l1.3-1.1c.3-.3.8-.2 1.1.1s.2.8-.1 1.1l-1.3 1.1c-.4.3-.8.2-1.1-.1z" fill="#fff"/></g><g><path d="m29.6 11.6-3.5-2.6c-.3-.2-.4-.7-.2-1s.7-.4 1-.2l3.5 2.6c.3.2.4.7.2 1-.2.4-.7.5-1 .2z" fill="#df3260"/></g><g><path d="m8.4 30.1-2.4-1.9c-.3-.2-.4-.7-.2-1s.7-.4 1-.2l2.4 1.8c.3.2.4.7.2 1-.2.4-.6.5-1 .3z" fill="#fff"/></g><g><path d="m18.7 36.9 2.5.8" fill="#497bfe"/><path d="m21 38.4-2.5-.8c-.4-.1-.6-.5-.5-.9s.5-.6.9-.5l2.5.8c.4.1.6.5.5.9s-.5.6-.9.5z" fill="#fff"/></g><g><path d="m39.4 39.1-.9-.2c-.5-.1-.4-.9.2-.8l.9.2c.2 0 .4.3.3.5s-.3.3-.5.3z" fill="#fff"/></g><g opacity=".5"><path d="m30.2 39.4-.8-.5c-.5-.3 0-1 .4-.7l.8.5c.2.1.3.4.1.5-.1.2-.3.3-.5.2z" fill="#4c5c75"/></g><g><path d="m30.8 39.2c-.2 0-.2-.1-1-.5-.5-.3-.1-1 .4-.7l.8.5c.2.1.3.4.1.5-.1.1-.2.2-.3.2z" fill="#fff"/></g><g><path d="m51.1 24.8c-.1-.4.2-.8.6-.9l1.5-.3c.4-.1.8.2.9.6s-.2.8-.6.9l-1.5.3c-.5 0-.9-.2-.9-.6z" fill="#fff"/></g><g><path d="m32 14.4 2-.4c.2 0 .4.1.5.3 0 .2-.1.4-.3.5l-2 .4c-.5.1-.7-.7-.2-.8z" fill="#fff"/></g></g></g><g><path d="m49.8 11.1c-.2-.2-.6-.3-.5-.5s.4.1.6.3c.1 0 .1.1 0 .2z" fill="#fff"/></g><g><path d="m59.7 28.9c-.3 0-.7.1-.7-.2 0-.2.4-.1.7-.1.1 0 .1.1.1.2 0 0 0 .1-.1.1z" fill="#fff"/></g><g><path d="m12.1 34.9c-.2-.1 0-.4 0-.7 0-.2.3-.1.3.1l-.1.5s-.1.1-.2.1z" fill="#fff"/></g><g><path d="m34.4 43.2c-.3 0-.7.1-.7-.2 0-.1.1-.1.2-.1.3 0 .7-.1.7.2-.1 0-.1.1-.2.1z" fill="#fff"/></g><g><path d="m51.1 18.7c-.1 0-.1 0-.1-.1s0-.2.1-.2l.5-.1c.1 0 .2 0 .2.1s0 .2-.1.2z" fill="#fff"/></g><g><path d="m12.5 21.9c-.3-.1-.7-.1-.6-.4.1-.2.4 0 .7.1.1 0 .1.1.1.2-.1.1-.2.1-.2.1z" fill="#fff"/></g></g><g><path d="m27.5 8.8c-.2-.2-.6-.3-.5-.5s.4.1.6.3c.1 0 .1.1 0 .2.1 0 0 0-.1 0z" fill="#fff"/></g></g></svg>