<svg height="512" viewBox="0 0 48 48" width="512" xmlns="http://www.w3.org/2000/svg"><path d="m31 10.8s-3.4-.5-4 2.2c-.5 1.9-5.4 2.3-6 0-.7-2.7-4-2.2-4-2.2s3-3.2 3-7.8c1.4 1.3 3.1 4.7 4 6s2-4.1 4-6c0 4.7 3 7.8 3 7.8zm5 25.2s-4.4 3.9-1 4c4.9.1 6-6 6-6-1.6 1.4-3 1-3 1zm4-10c4.3-4.3 0-11 0-11s.4 4-1 4c-.8 0-2-1-2-1s-1.1 12.1 3 8zm-31-12s-3.9 4.7-1 11c2 4.5 3-8 3-8s-2.2 3.6-2-3zm3 24s-1.4-10.3-3-8-3 0-3 0c.3 7.8 6 8 6 8z" fill="#8bc34a"/><path d="m24 9c-8.8 0-16 8.1-16 18s7.2 18 16 18 16-8.1 16-18-7.2-18-16-18z" fill="#f50057"/><path d="m27.2 12.5s-2.7-1.2-3.2-3.5c0 0 .2 1.8-3.2 3.5h-.1c-5.6 1.7-9.7 7.5-9.7 14.5 0 8.3 5.8 15 13 15s13-6.7 13-15c0-7-4.2-12.9-9.8-14.5z" fill="#eee"/><path d="m24 15c0 .6-.4 1-1 1s-1-.4-1-1 .4-1 1-1 1 .4 1 1zm6 2c-.6 0-1 .4-1 1s.4 1 1 1 1-.4 1-1-.4-1-1-1zm-3 1c-.6 0-1 .4-1 1s.4 1 1 1 1-.4 1-1-.4-1-1-1zm2 4c0 .6.4 1 1 1s1-.4 1-1-.4-1-1-1-1 .4-1 1zm-12-3c-.6 0-1 .4-1 1s.4 1 1 1 1-.4 1-1-.4-1-1-1zm-3 7c-.6 0-1 .4-1 1s.4 1 1 1 1-.4 1-1-.4-1-1-1zm7-3c-.6 0-1 .4-1 1s.4 1 1 1 1-.4 1-1-.4-1-1-1zm4 1c-.6 0-1 .4-1 1s.4 1 1 1 1-.4 1-1-.4-1-1-1zm9 0c-.6 0-1 .4-1 1s.4 1 1 1 1-.4 1-1-.4-1-1-1zm-3 2c-.6 0-1 .4-1 1s.4 1 1 1 1-.4 1-1-.4-1-1-1zm1 6c0 .6.4 1 1 1s1-.4 1-1-.4-1-1-1-1 .4-1 1zm-3 3c0 .6.4 1 1 1s1-.4 1-1-.4-1-1-1-1 .4-1 1zm-6 2c-.6 0-1 .4-1 1s.4 1 1 1 1-.4 1-1-.4-1-1-1zm-4-2c-.6 0-1 .4-1 1s.4 1 1 1 1-.4 1-1-.4-1-1-1zm-2-6c-.6 0-1 .4-1 1s.4 1 1 1 1-.4 1-1-.4-1-1-1zm6 0c-.6 0-1 .4-1 1s.4 1 1 1 1-.4 1-1-.4-1-1-1z" fill="#455a64"/></svg>