<svg id="icons" enable-background="new 0 0 64 64" height="512" viewBox="0 0 64 64" width="512" xmlns="http://www.w3.org/2000/svg"><g><g><path d="m56 1h4v62h-4z" fill="#f7c292"/></g><g><path d="m45.99 45v18h-3.99v-22c2.22.01 3.99 1.78 3.99 4z" fill="#ffd2a6"/></g><g><path d="m51 1h5v62h-10.01v-18c0-2.22-1.771-3.99-3.99-4v-13-27z" fill="#ffd2a6"/></g><g><path d="m49.006 29.002h-10.006c-.553 0-1-.447-1-1s.447-1 1-1h10.006c.553 0 1 .447 1 1s-.447 1-1 1z" fill="#aab2bd"/></g><path d="m49.996 1v19.005c0 .553.447 1 1 1s1-.447 1-1v-19.005z" fill="#f7c292"/><path d="m41.994 39.995v2c1.654 0 3 1.346 3 3v18.005h2v-18.005c0-2.757-2.243-5-5-5z" fill="#f7c292"/><g><path d="m19.01 26h9.99v4h-9.99z" fill="#da4453"/></g><g><path d="m39 27v2 1c0 .55-.45 1-1 1h-4.002c-.55 0-1-.45-1-1v-4c0-.55.45-1 1-1h4.002c.55 0 1 .45 1 1z" fill="#ccd1d9"/></g><g><path d="m35 31v2l-6 2v-5-4-5l6 2v2z" fill="#e6e9ed"/></g><g><path d="m16 35-.43 2.99-1.57 11.01h-7l2-14z" fill="#da4453"/></g><g><path d="m20 35v3h-4.38l-.05-.01.43-2.99z" fill="#656d78"/></g><g><path d="m17 49c.55 0 1 .45 1 1v2.001c0 .55-.45 1-1 1h-12c-.55 0-1-.45-1-1v-2.001c0-.55.45-1 1-1h1 2 5 2z" fill="#656d78"/></g><g><path d="m29 30v5h-9-4-7-2c-1.65 0-3-1.35-3-3v-8c0-1.65 1.35-3 3-3h22v5h-9.99v4z" fill="#ed5565"/></g><path d="m4 51.999v5.001c0 .55.45 1 1 1h12c.55 0 1-.45 1-1v-5.001z" fill="#545c66"/></g></svg>