<?xml version="1.0" encoding="iso-8859-1"?>
<!-- Generator: Adobe Illustrator 21.0.0, SVG Export Plug-In . SVG Version: 6.00 Build 0)  -->
<svg xmlns="http://www.w3.org/2000/svg" xmlns:xlink="http://www.w3.org/1999/xlink" version="1.1" id="Capa_1" x="0px" y="0px" viewBox="0 0 512 512" style="enable-background:new 0 0 512 512;" xml:space="preserve" width="512" height="512">
<g>
	<path style="fill:#F5585C;" d="M469.777,386.738C489.652,351.33,501,310.493,501,267c0-135.31-109.69-245-245-245S11,131.69,11,267   c0,43.493,11.348,84.33,31.223,119.738L469.777,386.738z"/>
	<path style="fill:#E34450;" d="M350.463,256.681h-9.271v-29.834c21.549-0.07,39.16-17.719,39.16-39.284v-76.718   c0-21.608-17.679-39.287-39.287-39.287H170.936c-21.608,0-39.287,17.679-39.287,39.287v76.718c0,21.565,17.61,39.214,39.159,39.284   v29.834h-9.27c-60.918,0-110.76,49.842-110.76,110.76v19.298l410.445,0V367.44C461.223,306.522,411.381,256.681,350.463,256.681z    M317.468,256.681H194.531v-29.83h122.937V256.681z"/>
	<path style="fill:#6393E4;" d="M470.895,384.738c-9.843-26.974-29.802-51.857-69.692-55.118c-6.711-0.549-10.281-3.153-18.19-7.612   c-19.703-11.11-39.885-19.392-61.93-24.48c-3.107-3.107-5.493-7.076-7.329-11.467l-57.755,52.944l-58.504-51.275   c-1.629,3.516-3.641,6.709-6.138,9.333c-0.147,0.155-0.29,0.315-0.441,0.466c-22.094,5.099-42.177,13.343-61.929,24.48   c-7.909,4.46-11.479,7.063-18.19,7.612c-39.891,3.261-59.849,28.144-69.692,55.118C82.748,460.583,163.366,512,256,512   S429.252,460.583,470.895,384.738z"/>
	<g>
		<path style="fill:#F9BD91;" d="M308.007,255.027c-5.254,6.119-10.766,11.236-16.034,15.327    c-10.263,7.97-22.929,12.299-35.973,12.299c-13.044,0-25.709-4.329-35.972-12.299c-5.268-4.091-10.781-9.209-16.034-15.327    c-0.336,9.762-1.806,22.576-6.498,32.701L256,339.004l57.755-52.944C309.646,276.224,308.324,264.258,308.007,255.027z"/>
	</g>
	<path style="fill:#E5A876;" d="M203.993,255.027c-0.336,9.762-1.806,22.576-6.498,32.701l35.276,30.917l5.284-38.807   c-6.481-2.076-12.593-5.264-18.028-9.484C214.76,266.263,209.246,261.146,203.993,255.027z"/>
	<path style="fill:#5D80D3;" d="M41.105,384.738c9.976,18.169,22.191,34.932,36.27,49.926   c2.114-59.986,25.544-94.054,34.763-105.188c-0.435,0.057-0.879,0.107-1.341,0.145C70.907,332.881,50.948,357.763,41.105,384.738z"/>
	<g>
		<polygon style="fill:#494970;" points="171.238,136.752 171.238,136.752 171.237,136.753   "/>
		<path style="fill:#494970;" d="M238.27,1.112c-53.583,7.301-58.676,37.681-58.7,48.827c-0.005,2.337-1.3,4.504-3.402,5.526    c-27.872,13.559-12.845,78.907-12.845,78.907c2.799,0.187,5.729,1.32,7.914,2.379c0.535-3.33,1.409-6.608,2.642-9.777    c0.94-2.415,2.115-4.854,3.584-7.159c2.549-3.999,3.71-8.716,3.364-13.432c-1.002-13.633-0.519-40.496,17.476-48.593    c15.245-6.86,33.946-2.888,45.871,1.078c7.745,2.576,16.134,2.576,23.879,0c11.926-3.966,30.626-7.938,45.871-1.078    c17.944,8.074,18.475,34.807,17.485,48.476c-0.345,4.752,0.785,9.518,3.354,13.548c1.516,2.379,2.72,4.901,3.675,7.392    c1.187,3.097,2.031,6.296,2.553,9.544c2.754-1.334,6.691-2.788,10.059-2.312c0.412-14.289,1.731-29.693,1.731-29.693    C368.66,26.975,295.965-6.748,238.27,1.112z"/>
	</g>
	<g>
		<polygon style="fill:#3A3A60;" points="171.238,136.752 171.238,136.752 171.237,136.753   "/>
		<g>
			<path style="fill:#3A3A60;" d="M244.646,0.425c-2.141,0.176-4.27,0.401-6.376,0.688c-53.583,7.301-58.676,37.681-58.7,48.827     c-0.005,2.337-1.3,4.504-3.402,5.526c-27.872,13.559-12.845,78.907-12.845,78.907c2.799,0.187,5.729,1.32,7.914,2.379     c2.681-16.687,10.502-17.952,9.59-30.368c-1.002-13.633-0.519-40.496,17.476-48.593c13.354-6.009,29.358-3.706,41.139-0.377     C218.923,42.62,221.779,11.251,244.646,0.425z"/>
		</g>
	</g>
	<path style="fill:#F9BD91;" d="M357.072,136.295c-4.173-3.825-12.487-1.886-16.081,0.456c0.788,4.904,0.832,9.92,0.152,14.874   l-4.242,30.893c0,2.49-0.079,4.933-0.223,7.334c10.343,3.12,15.48-6.166,16.346-12.538c0.372-2.743,0.982-5.447,1.826-8.085   C357.603,160.637,367.528,145.878,357.072,136.295z"/>
	<path style="fill:#F9BD91;" d="M356.99,136.295c-4.246-3.825-12.705-1.886-16.362,0.456c0.801,4.904,0.847,9.92,0.155,14.874   l-4.316,30.893c0,2.49-0.08,4.933-0.227,7.334c10.524,3.12,15.751-6.166,16.632-12.538c0.379-2.743,0.999-5.447,1.858-8.085   C357.53,160.637,367.629,145.878,356.99,136.295z"/>
	<g>
		<path style="fill:#E5A876;" d="M338.724,166.359l-2.257,16.159c0,2.49-0.08,4.933-0.227,7.334    c10.524,3.12,15.751-6.166,16.632-12.538c0.815-5.898,2.306-9.521,3.733-12.833C352.426,170.318,344.042,171.182,338.724,166.359z    "/>
	</g>
	<path style="fill:#F9BD91;" d="M155.019,136.295c4.246-3.825,12.705-1.886,16.362,0.456c-0.801,4.904-0.847,9.92-0.155,14.874   l4.316,30.893c0,2.49,0.08,4.933,0.227,7.334c-10.524,3.12-15.751-6.166-16.632-12.538c-0.379-2.743-0.999-5.447-1.858-8.085   C154.479,160.637,144.38,145.878,155.019,136.295z"/>
	<g>
		<path style="fill:#E5A876;" d="M173.285,166.359l2.257,16.159c0,2.49,0.08,4.933,0.227,7.334    c-10.524,3.12-15.751-6.166-16.632-12.538c-0.815-5.898-2.306-9.521-3.733-12.833    C159.583,170.318,167.967,171.182,173.285,166.359z"/>
	</g>
	<path style="fill:#FCD2AE;" d="M338.431,126.856c-0.957-2.496-2.163-5.024-3.683-7.409c-2.574-4.039-3.706-8.815-3.361-13.578   c0.992-13.699,0.46-40.492-17.523-48.583c-15.278-6.875-34.018-2.894-45.969,1.08c-7.762,2.581-16.174,2.581-23.935,0   c-11.951-3.974-30.692-7.954-45.969-1.08c-18.034,8.115-18.518,35.038-17.514,48.701c0.347,4.727-0.816,9.454-3.371,13.462   c-1.472,2.31-2.65,4.755-3.592,7.174c-3.056,7.85-3.946,16.363-2.802,24.699l4.252,30.968c0,44.521,23.765,74.782,43.98,90.48   c10.552,8.194,23.573,12.645,36.984,12.645c13.411,0,26.432-4.451,36.984-12.645c20.215-15.698,43.98-45.959,43.98-90.48   l4.251-30.961C342.275,143.075,341.416,134.645,338.431,126.856z"/>
	<g>
		<path style="fill:#F9BD91;" d="M249.688,272.77c-15.149-15.698-32.958-45.959-32.958-90.48l-3.186-30.968    c-0.858-8.336-0.19-16.849,2.1-24.699c0.706-2.42,1.588-4.865,2.692-7.174c1.914-4.008,2.786-8.736,2.526-13.462    c-0.752-13.663-0.39-40.586,13.125-48.701c0.728-0.437,1.466-0.829,2.213-1.181c-11.428-2.857-25.934-4.342-38.208,1.181    c-18.034,8.115-18.518,35.038-17.514,48.701c0.347,4.727-0.816,9.454-3.371,13.462c-1.472,2.31-2.65,4.755-3.592,7.174    c-3.056,7.85-3.946,16.363-2.802,24.699l4.252,30.968c0,44.521,23.765,74.782,43.98,90.48    c10.552,8.194,23.573,12.645,36.983,12.645c4.15,0,8.262-0.428,12.276-1.26C261.492,282.3,255.148,278.429,249.688,272.77z"/>
	</g>
	<g>
		<path style="fill:#5D80D3;" d="M256.515,337.608L256,338.08l-0.869-0.762l-26.601,11.499l9.042,12.096    c1.376,1.84,2.363,3.92,2.937,6.116l20.544-23.249L256.515,337.608z"/>
	</g>
	<g>
		<path style="fill:#A0CBF9;" d="M201.562,282.917c-1.046-1.059-2.703-1.212-3.925-0.362l-27.159,18.908    c-1.407,0.98-1.673,2.955-0.574,4.271l42.619,51.085c3.642,4.366,10.035,5.184,14.659,1.876L256,338.08L201.562,282.917z"/>
	</g>
	<g>
		<path style="fill:#82B4F2;" d="M201.562,282.917c-1.046-1.059-2.703-1.212-3.925-0.362l-27.408,19.081    c-1.273,0.887-1.514,2.674-0.52,3.865l24.702,29.61c-0.016-0.37-0.028-0.742-0.028-1.117c0-13.571,11.001-24.572,24.572-24.572    c4.223,0,8.195,1.066,11.666,2.942L201.562,282.917z"/>
	</g>
	<path style="fill:#82B4F2;" d="M256,338.08l-13.211,17.969c-2.232,3.037-3.437,6.707-3.437,10.477v70.201   c0,2.565,2.08,4.645,4.645,4.645h22.286c2.565,0,4.645-2.079,4.645-4.645v-64.08c0-3.816,1.235-7.53,3.52-10.587l9.043-12.097   L256,338.08z"/>
	<g>
		<path style="fill:#A0CBF9;" d="M314.361,282.555c-1.221-0.85-2.878-0.698-3.924,0.362L256,338.08l28.819,20.616    c4.624,3.308,11.017,2.49,14.659-1.876l42.812-51.318c0.994-1.191,0.754-2.979-0.52-3.865L314.361,282.555z"/>
	</g>
	<path style="fill:#E5A876;" d="M381.337,427.617l-10.232,4.365c-10.682,4.557-23.149-0.454-27.706-11.136l-2.242-5.255   c-4.557-10.682,0.454-23.149,11.136-27.706l10.232-4.365c10.682-4.557,23.149,0.454,27.706,11.136l2.242,5.255   C397.03,410.592,392.019,423.06,381.337,427.617z"/>
	<path style="fill:#E5A876;" d="M127.866,427.617l10.232,4.365c10.681,4.557,23.149-0.454,27.706-11.136l2.242-5.255   c4.557-10.682-0.454-23.149-11.136-27.706l-10.232-4.365c-10.682-4.557-23.149,0.454-27.706,11.136l-2.242,5.255   C112.173,410.592,117.184,423.06,127.866,427.617z"/>
	<path style="fill:#494970;" d="M189.042,423.392c19.141-12.847,42.172-20.345,66.958-20.345c25.178,0,48.541,7.742,67.859,20.964   l21.56-34.072c-25.56-17.161-56.319-27.178-89.419-27.178c-32.709,0-63.128,9.786-88.507,26.578L189.042,423.392z"/>
	<g>
		<path style="fill:#3A3A60;" d="M196.017,400.211c-5.215-9.032-3.474-20.15,3.529-27.218c-11.347,4.264-22.092,9.755-32.052,16.346    l21.549,34.054c7.218-4.845,14.991-8.926,23.201-12.134C205.673,410.264,199.598,406.413,196.017,400.211z"/>
	</g>
	<path style="fill:#F5585C;" d="M343.836,388.897l-22.034,33.735c7.804,5.109,14.983,11.093,21.387,17.825   c5.883,6.184,8.194,15.161,5.547,23.276c-0.645,1.976-0.993,4.086-0.993,6.278c0,8.464,5.174,15.68,12.454,18.737   c0.013,0.006,0.026,0.012,0.039,0.018c15.715-7.399,30.513-16.418,44.184-26.843C391.975,431.912,370.708,406.484,343.836,388.897z   "/>
	<path style="fill:#E34450;" d="M107.581,461.922c13.672,10.426,28.47,19.445,44.185,26.844c0.009-0.004,0.017-0.008,0.026-0.012   c7.29-3.057,12.465-10.283,12.465-18.744c0-2.192-0.349-4.302-0.993-6.278c-2.647-8.115-0.335-17.092,5.547-23.276   c6.403-6.731,13.582-12.716,21.386-17.825l-22.034-33.735C141.292,406.484,120.025,431.912,107.581,461.922z"/>
	<path style="fill:#494970;" d="M256,512c16.89,0,33.377-1.717,49.304-4.972c-0.671-6.785-2.753-13.536-6.379-19.815   c-12.467-21.595-38.84-30.252-61.343-21.228c-0.074,0.03-0.148,0.063-0.222,0.093c-0.889,0.362-1.771,0.754-2.647,1.171   c-0.219,0.104-0.439,0.207-0.657,0.315c-0.954,0.472-1.903,0.966-2.838,1.506c-14.054,8.114-22.633,22.118-24.423,37.112   c-0.034,0.282-0.057,0.566-0.086,0.848C222.632,510.284,239.115,512,256,512z"/>
	<path style="fill:#FCD2AE;" d="M393.3,397.86l-21.181,9.036c-11.467,4.892-16.847,18.277-11.955,29.744l18.198,42.657   c20.616-11.908,39.331-26.734,55.591-43.911l-10.909-25.571C418.152,398.348,404.767,392.968,393.3,397.86z"/>
	<path style="fill:#F9BD91;" d="M372.119,406.896c-11.467,4.892-16.847,18.277-11.955,29.744l18.198,42.657   c8.583-4.958,16.836-10.422,24.721-16.35l-16.238-38.064c-3.949-9.256-1.594-19.678,5.096-26.444L372.119,406.896z"/>
	<path style="fill:#FCD2AE;" d="M137.083,406.896l-21.181-9.036c-11.467-4.892-24.852,0.488-29.744,11.955l-10.03,23.51   c16.117,17.421,34.73,32.492,55.275,44.651l17.634-41.336C153.93,425.173,148.551,411.788,137.083,406.896z"/>
	<path style="fill:#F9BD91;" d="M115.903,397.86c-11.467-4.892-24.852,0.488-29.744,11.955l-10.03,23.51   c7.512,8.12,15.556,15.741,24.097,22.784l13.872-32.517c4.499-10.546,15.535-16.375,26.401-14.851   c-1.072-0.696-2.202-1.327-3.415-1.845L115.903,397.86z"/>
</g>















</svg>
