<svg id="Capa_1" enable-background="new 0 0 512 512" height="512" viewBox="0 0 512 512" width="512" xmlns="http://www.w3.org/2000/svg"><g><g><path d="m305.167 158.074-49.167-26.857-10.666 72.168 10.666 84.334h49.167z" fill="#c57a44"/><path d="m164.821 81.41-77.239 206.309h168.418v-156.502z" fill="#d88a55"/><path d="m175.993 287.719 2.289-33.024c-15.431-6.528-31.386-13.278-41.826-24.785-7.403-8.159-11.802-22.262-5.371-32.327 4.899-7.668 12.45-11.718 21.194-16.407 8.464-4.539 18.058-9.685 25.93-18.748 10.629-12.238 14.782-30.24 10.84-46.98-1.32-5.604-6.752-23.265-24.228-34.036-17.487-12.525-39.048-10.307-54.686-1.107l-110.135 64.769v131.659z" fill="#eab065"/></g><path d="m320.082 144.182c-.029.014-.058.028-.087.042.028-.013.055-.026.083-.039z" fill="#ffcc7b"/><g><g><path d="m411.667 282.052-98.903-133.992-56.764 31.007-10.666 77.651 10.666 73.001h94.618z" fill="#eab065"/><path d="m76.667 277.028v52.691h179.333v-150.652z" fill="#ffcc7b"/></g><path d="m376.994 146.689c-17.34-10.198-37.327-13.971-64.23 1.371-20.483 12.656-26.862 33.397-28.413 39.984-4.634 19.678.222 40.806 12.671 55.14 9.341 10.754 20.944 16.977 31.182 22.468 11.309 6.064 21.074 11.302 27.669 21.624 8.518 13.333 3.937 30.907-5.255 42.443l161.382-3.756v-99.874z" fill="#ea9b58"/></g><g><path d="m512 325.963h-60.894c-64.506 0-128.896-8.124-191.381-24.145-1.24-.318-2.484-.612-3.725-.924l-10.667 66.735 10.667 71.667h256z" fill="#ffcc7b"/><path d="m60.894 276.733h-60.894v162.562h256v-138.401c-63.752-16.02-129.368-24.161-195.106-24.161z" fill="#ffdf8e"/></g></g></svg>