<svg enable-background="new 0 0 48 48" height="512" viewBox="0 0 48 48" width="512" xmlns="http://www.w3.org/2000/svg"><path d="m25 8c.015-3.596 4-6.181 4-6.181" fill="none" stroke="#f57f17" stroke-miterlimit="10" stroke-width="2"/><path d="m24 5 1.734 1.767 2.029-1.33 1.364 2.127 2.235-.835.933 2.394 2.343-.303.463 2.556 2.349.241-.028 2.607 2.252.776-.517 2.543 2.056 1.277-.985 2.368 1.772 1.721-1.409 2.091 1.409 2.091-1.772 1.721.985 2.368-2.056 1.277.517 2.543-2.252.776.028 2.607-2.349.241-.463 2.556-2.343-.303-.933 2.394-2.235-.835-1.364 2.127-2.029-1.33-1.734 1.767-1.734-1.767-2.029 1.33-1.364-2.127-2.235.835-.933-2.394-2.343.303-.463-2.556-2.349-.241.028-2.607-2.252-.776.517-2.543-2.056-1.277.985-2.368-1.772-1.721 1.409-2.091-1.409-2.091 1.772-1.721-.985-2.368 2.056-1.277-.517-2.543 2.252-.776-.028-2.607 2.349-.241.463-2.556 2.343.303.933-2.394 2.235.835 1.364-2.127 2.029 1.33z" fill="#cddc39"/><ellipse cx="24" cy="25" fill="#fff9c4" rx="14" ry="16"/><g fill="#ffc107"><path d="m23 20.859v-8.624c0-.641-.597-1.121-1.224-.984-4.678 1.023-8.393 5.212-9.456 10.59-.22 1.113.602 2.159 1.736 2.159h5.803c1.735 0 3.141-1.406 3.141-3.141z"/><path d="m28.141 24h5.803c1.134 0 1.956-1.046 1.736-2.159-1.063-5.378-4.778-9.567-9.456-10.59-.627-.137-1.224.342-1.224.984v8.624c0 1.735 1.406 3.141 3.141 3.141z"/><path d="m19.859 26h-5.803c-1.134 0-1.956 1.046-1.736 2.159 1.063 5.378 4.778 9.567 9.456 10.59.627.137 1.224-.342 1.224-.984v-8.624c0-1.735-1.406-3.141-3.141-3.141z"/><path d="m25 29.141v8.624c0 .641.597 1.121 1.224.984 4.678-1.023 8.393-5.212 9.456-10.59.22-1.113-.602-2.159-1.736-2.159h-5.803c-1.735 0-3.141 1.406-3.141 3.141z"/></g></svg>