<svg id="svg7978" height="468.521pt" preserveAspectRatio="xMidYMid" viewBox="0 0 434.64563 468.52084" width="434.646pt" xmlns="http://www.w3.org/2000/svg" xmlns:svg="http://www.w3.org/2000/svg"><path id="path7950" d="m383.32477 10.8c0 16.1-3.1 27.2-12.6 45.7-7.6 14.8-16.4 26.2-32.3 42-11.9 11.8-21.1 19-38.2 29.7-16.4 10.3-29.3 16.4-70 32.9l-13.3 5.4v4.1c0 5.6-2.7 24.6-4.6 31.9-.8 3.3-3.5 10.1-6 15.2-7.5 15.6-16.9 23.1-34.2 27.3-7.3 1.8-19.1 3.2-54.5 6.5-14.1 1.4-29.1 4.4-38.2 7.7-7.1 2.5-19.5 9.1-23.3 12.4-4.4 3.7-6.7 9-5.9 13.3.5 2.4-.1 3.3-4 6.6-5.3 4.4-7.3 8.6-7.3 15.2 0 6.3 3.5 12.9 8.9 16.7 2.2 1.6 4.3 2.7 4.6 2.5.2-.3-.1-1.9-.7-3.6-1.6-4.2-.5-6.1 4.8-8.3 8-3.5 18.4-2.1 24.8 3.2 2 1.7 7 7.1 11 12.2 13.7 17.2 20.6 23 39 33.2 14.6 8.1 21.1 17.8 21.1 31.4 0 8.1-1.3 11.5-6 16.3-3.3 3.2-5.8 3.4-10.5.6-11.7-7.2-27.2-6.1-33.4 2.4-2.4 3.3-2.7 11.7-.5 16.1 2 4.1 3.9 4.5 3.9.7 0-7.2 5.3-11.2 14-10.4 7.1.7 7.4.9 5.1 3.9-2.1 2.7-2.8 9.3-1.5 12.9.9 2.1 9.4 8.6 10.5 7.9.5-.3.2-1.8-.6-3.4-2.1-4.1-1.9-7.3.8-9.8 4.7-4.4 12.1-5.4 18.1-2.6 5.8 2.8 7.9 9.1 5.1 15.7-1.1 2.5 1.2 2.2 5.1-.8 5.8-4.4 6.6-11.2 2.3-19.8-1.7-3.1-1.7-3.7-.4-3.7 1.9 0 4.9 3 7 7 1.5 2.8 1.7 2.9 3.6 1.6 1.2-.8 2.7-2.4 3.5-3.5 2-2.7 4.1-2.7 4.9.1 1.4 4.9 4.9 12.8 5.7 12.8 1.4 0 6.8-8.2 10.3-15.5 6.1-12.7 10.2-33.7 9.1-46.8-.6-7-2.3-17.6-4.2-26.6-.5-2.2-.4-3.2.3-2.8 1.3.8 9.3 17.1 13.1 26.8 1.7 4.1 5.1 12 7.7 17.5 2.6 5.4 5.4 11.5 6.3 13.4 3.3 7.2 12.7 23.7 16.4 28.7 2.1 2.9 3.5 5.3 3.1 5.3-3.1 0-16.8-13.9-23.3-23.4l-4.1-5.9.5 3.9c3.5 25.5 6.4 38.3 10.1 44.1 1.8 2.8 12.1 7.8 20.5 10 10.1 2.6 32.8 2.4 44.4-.5 32.2-8 60.5-28.2 79-56.2 5-7.5 9.6-16.3 9.6-18.3 0-.8-4.6-2.4-13.5-4.5-30.1-7.2-52.7-16.4-83.5-34-23.6-13.5-52.5-34-75-53.1-9.6-8.2-25-23.3-25-24.6 0-.6 2.8-2.5 6.3-4.2 8-3.9 15.4-9.5 24.5-18.5 12.8-12.5 20.6-27.1 25.2-46.8 1.2-5.2 2.6-11.2 3.1-13.2 1.2-4.7 4.9-7.7 16.2-13.2 56.7-27.2 67.1-32.8 83.9-45 27.4-19.9 43.6-39.2 50.5-60.1 2.2-6.9 2.6-9.8 2.7-21 .1-13.7-1.5-21.3-6.7-32.5-3-6.4-11.6-21-12.5-21-.4 0-.7 4.8-.8 10.8zm-238.4 252.8c0 1.6-9.9 13.1-13.6 15.7-2.4 1.7-4.2 3.3-4 3.6.5.8 40.4-.5 44-1.4 2.2-.6 2.7-.5 2.1.5-1.8 2.9-26.2 12.3-35.3 13.6-7 1-8.4 2-4.7 3.4 21.1 8.4 33.9 12.4 43.2 13.6 2.9.3 5.1 1 4.8 1.4-1.1 1.8-13.8 3.5-26 3.4-11.4 0-16.5-.7-23.3-3.1-1-.4-.5.7 1.4 2.8 1.7 1.9 5.1 6.1 7.6 9.4 5.2 6.9 12.5 14 18.6 18 2.3 1.5 4.1 3 3.8 3.2-.2.2-4.7-1-10-2.8-12.1-4-23.6-10.5-30.3-17.2-2.9-2.8-5.3-4.5-5.3-3.7 0 2 2.6 10.4 4 12.9.6 1.2.9 2.1.6 2.1-1.4 0-10.3-8.6-18.8-18.2-9.8-11.1-10.5-12.7-5.5-12.8 2.7 0 2-1.7-1-2.3-7.7-1.3-19.8-3.9-20.4-4.3-1.5-.9 1.7-7.8 6.4-13.6l4.9-6.1-4.3.5c-2.5.3-6.9 2.1-10.2 4.1-5.2 3.2-6.1 3.4-9.9 2.5-8.2-1.8-7.9-3.2 2.3-9.3 10.7-6.5 24.5-10 47.4-12.1 9.4-.8 19.7-2.1 23-2.9 7.2-1.5 8.5-1.7 8.5-.9zm-83.4 35.5c3.6 2.2 3.7 3.9.3 3.9-1.1 0-3.4.7-5 1.6-1.7.8-3.3 1.3-3.6 1-.9-.8 2.8-8.6 4-8.6.5 0 2.5.9 4.3 2.1zm248.5 107.5c6.1 2.4 12.2 4.4 13.5 4.4 2.9 0 3.2 1.6.4 2.5-2.9.9-13-.5-16.5-2.3-4-2-11.2-7.9-11.9-9.8-.4-1.2-.2-1.2 1.5-.4 1.1.6 6.9 3.1 13 5.6zm-25.7 20.8c2.7 1.4 5.5 2.6 6.2 2.6.8 0 1.4.4 1.4 1 0 .5-2 1-4.3 1-6.1 0-12.6-3.7-15.4-8.6-3.5-6.1-2.7-6.9 2.5-2.5 2.6 2.1 6.9 5.1 9.6 6.5z"/><path id="path7952" d="m3.6247701 38.4c-4.09999999 10.7-4.8 30.7-1.7 46.6 2.6 12.6 4.2 17.3 9.2999999 27.5 9.7 19.3 22.2 33.4 49.1 54.9 35.2 28.2 44.1 38.8 52.2 62.3 1.8 5.2 3.4 9.7 3.7 9.9.2.2 2.8-.3 5.8-1 6.5-1.7 19.8-3.9 36.9-6.1 14.6-1.9 25-4.3 25.6-5.9.6-1.7-7.3-16.6-13.4-25.1-12.8-18.1-23.8-26.7-60.2-46.9-30.8-17.2-51.5-32-69.6-50.1-19.5-19.4-31.3-39.8-35.7999999-61.9-.8-4-1.5-5.4-1.9-4.2z"/><path id="path7956" d="m394.92477 122.7c-19.7 15.7-46.7 32.2-88.5 54-17.3 9-17.8 9.4-12.8 8.8 14.6-1.6 41.8-10.2 57.1-17.9 9.4-4.7 26.2-16.8 34.5-24.8 6.5-6.4 18.2-22.9 17.5-24.9-.2-.6-3.7 1.5-7.8 4.8z"/><path id="path7958" d="m428.72477 130.8c-9.7 12.6-32.1 28.3-53.8 37.7-4.7 2-9.8 4.2-11.5 4.9-1.6.8-6.1 2.5-10 3.9-3.8 1.4-13.1 4.8-20.5 7.6-11.1 4.1-31 11.2-55.6 19.7-6.4 2.2-15.7 6.4-15.2 6.9 1.2 1.3 44.2 3.6 54.3 3 33-2 61.1-8.1 81.1-17.6 22.3-10.6 33.5-25.8 36.9-50.2.7-5.2-.4-20.7-1.4-20.7-.4 0-2.3 2.2-4.3 4.8z"/><path id="path7962" d="m408.82477 216.4c-.6.6-27.6 6.4-35.4 7.5-16.3 2.5-57.6 5.5-91.9 6.7-23 .7-23.5 1.1-7.7 5.1 31.6 8 61.7 9.6 85.1 4.8 9.5-2 24.7-6.9 32.7-10.5 7.5-3.4 20.3-11.6 20.3-13 0-1-2.2-1.4-3.1-.6z"/><path id="path7964" d="m243.42477 248.2c1.1 2.9 30 18.2 47.5 25.1 6.1 2.4 21.1 6.8 32.3 9.6 14.8 3.5 42.7 3.8 55.2.6 10.7-2.9 18.4-7.3 26.5-15.5 7.2-7.2 15.3-20.1 13.2-20.8-.6-.2-3.8.6-7.2 1.8-3.4 1.1-12.1 3-19.3 4.1-11.7 1.8-16.5 2-41.7 1.6-37.1-.6-99.2-4.9-105.5-7.3-1-.4-1.4-.2-1 .8z"/><path id="path7966" d="m232.52477 263.2c2 3.5 12.3 15.4 17.5 20.2 12.6 11.7 25.7 19.2 43.9 25.1 9.5 3 23 5.5 30.4 5.5 10.4 0 33.7-6 37.6-9.6 1.2-1.2.6-1.4-4.3-1.4-6.9 0-22.3-2.4-33.2-5.1-22.9-5.8-58.3-19.2-81.2-30.8-11-5.5-11.8-5.8-10.7-3.9z"/><path id="path7968" d="m212.32477 275.5c1.9 5.2 9.6 16.4 16.6 24.1 11.4 12.7 22.6 20.1 38.2 25.5 8.2 2.8 10.9 3.2 22.8 3.6 13.5.4 22.2-.4 22.1-2.1 0-.5-3.3-1.8-7.3-2.8-23-5.8-42.5-16.3-90.2-48.3-3-1.9-3-1.9-2.2 0z"/></svg>