<svg clip-rule="evenodd" fill-rule="evenodd" stroke-linejoin="round" stroke-miterlimit="2" viewBox="0 0 64 64" xmlns="http://www.w3.org/2000/svg"><g fill="#fce077"><path d="m36.144 58.474-1.226-1.564c-.341-.434-.265-1.063.17-1.404.434-.34 1.063-.264 1.404.17l1.396 1.778c.326.017.767.068 1.246.203.543.152 1.14.395 1.659.809.118.094.24.188.343.305.23.262.449.538.577.897.099.276.189.534.195.86.008.414-.038.753-.183 1.231.001.002-.001.004-.003.004-.001 0-.003-.001-.003-.003-.25-.435-.502-.663-.78-.961-.121-.13-.246-.226-.37-.319l-.075-.055c-.049-.037-.099-.074-.148-.113-.009-.008-.019-.016-.028-.023.099.237.178.474.198.729.042.532.002.974-.247 1.449-.016.134-.138.229-.272.213-.133-.017-.229-.138-.212-.272-.094-.392-.347-.616-.595-.931-.087-.11-.186-.197-.276-.307-.132-.163-.276-.312-.415-.467-.285-.315-.594-.597-.867-.824-.036.078-.069.159-.093.243-.028.098-.085.185-.091.285-.003.041-.042.07-.044.111v.005c-.002.072-.068.122-.056.198.032.21-.016.38.131.615.117.067.157.216.09.333s-.216.157-.333.09c-.5-.019-.728-.21-1.034-.427-.096-.068-.134-.16-.206-.249-.151-.187-.194-.41-.248-.64-.115-.486.026-1.012.183-1.468.062-.182.137-.351.213-.501z"/><path d="m41.649 56.656c-.085-.097-.152-.21-.194-.332-.038-.111-.057-.228-.055-.344.002-.109.022-.216.058-.319.026-.072.06-.142.102-.207.131-.204.337-.356.571-.421.097-.027.198-.039.298-.036.132.004.264.034.385.089.129.058.244.145.338.251l1.251 1.425c.337-.087.774-.176 1.248-.211.686-.05 1.45-.029 2.082.265.292.136.569.29.782.532.101.114.205.214.276.354.224.44.383.894.29 1.556.025.132-.063.26-.196.284-.132.024-.26-.064-.284-.196-.125-.215-.268-.335-.41-.484-.123-.128-.266-.173-.399-.254l-.011-.007c-.184-.113-.39-.113-.596-.154-.111-.023-.224-.036-.338-.042l.002.004c.128.208.253.409.29.656.017.117.053.215.04.336-.04.399-.075.73-.388 1.14-.029.131-.159.215-.291.186-.131-.029-.215-.16-.186-.291-.048-.183-.133-.273-.205-.418-.058-.119-.161-.159-.231-.255-.086-.119-.228-.146-.336-.236-.169-.138-.37-.225-.564-.314-.24-.11-.482-.187-.677-.237-.05.05-.101.105-.148.165-.057.07-.135.133-.158.221-.007.029-.067.039-.055.073.069.201.1.429.334.715.11.134.161.251.294.409.125.05.185.193.135.318-.051.124-.193.185-.318.134-.516.03-.815-.027-1.156-.115-.119-.031-.202-.09-.297-.142-.503-.277-.661-.725-.764-1.102-.156-.57.081-1.15.39-1.626.042-.064.086-.126.131-.184z"/></g><g transform="matrix(1.101 0 0 1.101 -4.523 -3.564)"><g><g><path d="m32.596 42.703s-1.201 1.91-2.729 2.401c0 0-.46.124-1.206.334-3.605 1.016-13.879 4.056-11.075 4.961 0 0-.655 2.729 1.147 2.674 0 0 .927 2.511 2.456 1.91 0 0 1.255 1.856 3.657.874 0 0 .545 1.637 2.565.709 0 0 1.91 1.419 3.329-.546s2.293-3.438 2.293-3.438l1.546-1.621.063-9.404z" fill="#eceaec"/><g transform="matrix(.908 0 0 .908 4.442 2.82)"><path d="m29.279 45.625c1.217-.812 2.079-2.183 2.079-2.183l2.253-1.261-.07 10.351-1.702 1.785s-.303.511-.846 1.343c-1.145-1.46-2.272-4.378-1.714-10.035z" fill="#dbd8db"/></g><g transform="matrix(.908 0 0 .908 3.912 1.927)"><path d="m25.35 60.343c-.275-.331-.314-.816-.063-1.193.339-.509 2.601-3.843 2.601-3.843.31-.457.932-.576 1.389-.266s.576.932.266 1.389c0 0-2.254 3.321-2.591 3.828-.078.117-.176.213-.288.285-.479-.162-.797-.397-.797-.397-.183.084-.355.149-.517.197zm-3.569-.67c-.054-.289.017-.599.223-.839l2.851-3.326c.359-.419.991-.467 1.41-.108s.468.991.109 1.41l-2.812 3.281c-.382-.318-.518-.726-.518-.726-.459.188-.88.281-1.263.308zm-3.704-1.239c.003-.268.113-.535.327-.729l3.632-3.299c.409-.371 1.042-.341 1.413.068.371.408.34 1.041-.068 1.412l-3.583 3.255c-.517-.349-.78-.738-.78-.738-.342.135-.657.127-.941.031zm-2.608-2.377c.025-.274.161-.536.399-.712l5.249-3.901c.443-.33 1.07-.237 1.399.206s.237 1.07-.206 1.399l-5.249 3.901c-.108.08-.226.135-.349.166-.259-.441-.397-.815-.397-.815-.368.011-.643-.083-.846-.244z" fill="#dbd8db"/></g></g></g><g><path d="m43.306 44.594s1.295 2.109-.037 5.365c0 0-.888 1.295-.296 3.403l-1.369 1.221s-2.33-.185-3.107-5.956l.625-4.35z" fill="#d48c64"/></g><g><path d="m51.939 29.541 5.012-6.379s2.278-2.734.846-6.77-2.603-5.781-1.562-8.527c0 0-2.994 1.355-2.278 5.326 0 0-1.954-3.882-1.956-6.149 0 0-3.647 2.409-.197 6.965 0 0-3.538-.094-3.603-2.242 0 0-.298 3.083 2.111 4.32 0 0-1.758.651-1.042 1.888 0 0-.911.716-.52 2.148 0 0-2.539 1.692-1.367 2.864 0 0-2.604 1.236-1.497 2.343 0 0-2.669 2.148-2.539 3.515l-.086 3.872 7.26-.407z" fill="#d48c64"/></g></g><g transform="matrix(.999708 0 0 .999708 .001009 .001038)"><g><path d="m46.758 38.623s-1.697 7.438-8.725 10.494c0 0 .075-.121.013-.001-.31.597-.394 1.358-.68 2.055-.961 2.343-1.442 1.803-.841 4.386 0 0-1.291.286-1.598 1.453-.047.179-6.486-1.493-2.487-17.916l-.44-.047c-2.893-.264-3.652-3.24-3.652-3.24-2.746.422-3.379-2.745-3.379-2.745-2.534.423-2.956-2.745-2.956-2.745-2.851.634-4.118-2.217-4.118-2.217-1.583-.74.105-2.957.105-2.957-2.217 1.795-4.751-.317-4.751-.317 2.957-.527 3.168-3.273 3.168-3.273-5.385 1.162-6.969-2.322-6.969-2.322 1.373 1.794 4.857-1.373 4.857-1.373-9.292-2.007-9.925-7.392-9.925-7.392 2.64 2.851 8.025 3.168 8.025 3.168-7.286-3.801-7.919-9.397-7.919-9.397 2.745 3.801 7.919 5.174 7.919 5.174-4.118-2.534-5.761-7.848-5.761-7.848 11.957 10.271 18.538 11.155 18.538 11.155l4.494 3.291c2.89 6.501 11.706 12.716 11.706 12.716l6.63 1.038 1.646 3.959z" fill="#e29a6c"/></g><g><path d="m36.271 54.154c.028.343.11.783.254 1.403 0 0-.4.089-.807.369-.052-.747.164-1.03.553-1.772zm-27.798-48.794c-1.274-2.001-1.829-3.797-1.829-3.797 11.957 10.271 18.538 11.155 18.538 11.155l4.494 3.291c2.89 6.501 11.706 12.716 11.706 12.716l6.63 1.038 1.646 3.959-.767 1.296-1.429-3.438-6.63-1.038s-8.816-6.215-11.706-12.716l-4.494-3.291s-5.71-.767-16.159-9.175zm8.747 21.772c.077-.053.154-.11.23-.172 0 0-.093.122-.215.319-.008-.048-.013-.097-.015-.147zm-1.552-3.721c.066-.013.132-.026.199-.041 0 0-.099 1.292-1.116 2.273-.888-.305-1.502-.817-1.502-.817 1.206-.215 1.955-.799 2.419-1.415zm-4.13-2.221c-1.543-.757-2.09-1.959-2.09-1.959.654.853 1.785.584 2.791.066.478.136.982.263 1.516.378 0 0-1.046.95-2.217 1.515zm-5.008-7.052c-1.941-1.894-2.15-3.672-2.15-3.672.919.992 2.169 1.677 3.411 2.149 1.048.981 2.378 1.957 4.064 2.836 0 0-2.78-.163-5.325-1.313zm-.232-5.698c-1.599-2.322-1.812-4.203-1.812-4.203 1.014 1.404 2.36 2.477 3.653 3.271.9 1.343 2.123 2.739 3.716 3.72 0 0-2.935-.779-5.557-2.788z" fill="#d48c64"/></g></g><g transform="matrix(.999708 0 0 .999708 .001009 .001038)"><g><path d="m56.12 32c-.231-.934-1.095-2.57-4.304-2.721l-10.434-.554h.741l3.719 1.982-1.858 1.828 2.452.891-1.691 2.098 2.4.12-.387 2.979c2.24-4.248 8.08-4.074 8.08-4.074z" fill="#eceaec"/></g><g><path d="m45.966 34.336-.968 1.201-.253-.013 1.017-1.262zm5.85-5.057c.169.008.338.02.506.037.134.014.268.032.401.052.91.143 1.827.464 2.507 1.107.122.116.235.241.337.375.202.263.361.558.47.87.025.07.047.141.066.213.004.015.008.03.012.045.002.007.009.015.005.022-.423.852-.855 1.699-1.282 2.549l.812-1.64c-.062-.249-.153-.49-.274-.717-.097-.182-.212-.354-.343-.514-.101-.123-.211-.238-.33-.345-.674-.61-1.565-.916-2.45-1.055-.133-.021-.267-.038-.401-.052-.168-.017-.337-.029-.506-.038l-7.194-.382-1.947-1.037-.823-.044h.741zm-6.444 2.338-1.056 1.038-.332-.12 1.093-1.075z" fill="#dbd8db"/></g></g><g transform="matrix(1.101 0 0 1.101 -4.523 -3.564)"><path d="m55.167 32.308s2.166 1.034.424 4.136c0-.06.048-2.014-3.306-2.509.27-1.164.764-2.127 2.882-1.627z" fill="#fce077"/></g></svg>