<svg id="Layer_1" enable-background="new 0 0 3000 3000" height="512" viewBox="0 0 3000 3000" width="512" xmlns="http://www.w3.org/2000/svg"><path d="m2910.4 1547c-2.1 20.3-4.1 40.1-6.1 59.5-30.9 300.2-57.8 497.6-192 707-22 34.3-325.9 495-735.1 482.3-219.8-6.8-250.5-143.4-548.5-164.5-162.5-11.5-173.4 27.7-494.2 59.3-309.1 30.4-466 44.3-581.8-23.5-239.2-140.1-291.2-466-297.1-506.9-29.7-203.7 29-389.4 77.1-541.6 5.8-18.4 11.4-35 16.8-50.1 39.7-111.9 68.1-147.4 92.7-268.7 42-206.9-2.5-292.1 11.4-411.8 43.3-371.2 591.6-583.8 757-647.9 231.9-89.9 611.4-237 889.4-47 185.6 126.8 133.4 272.2 351.4 435.3 266.8 199.7 458.4 66.8 603.7 247.3 109.6 136 90.6 323.3 55.3 671.3z" fill="#f8eec9"/><ellipse cx="1590.5" cy="1500" fill="#f3e89e" opacity=".88" rx="567.5" ry="598"/><path d="m2099 1475.5c0 316.7-254.1 573.5-567.5 573.5-195.3 0-367.5-99.7-469.6-251.4-18.4-27.3-34.5-56.3-48-86.7-32-71.8-49.8-151.5-49.8-235.4 0-316.7 254.1-573.5 567.5-573.5 175 0 331.5 80 435.6 205.9 10.1 12.2 19.7 24.8 28.7 37.8 64.9 93.3 103.1 207 103.1 329.8z" fill="#ff9e00"/><path d="m2904.4 1606.4c-30.9 300.2-57.8 497.6-192 707-22 34.3-325.9 495-735.1 482.3-219.8-6.8-250.5-143.4-548.5-164.5-162.5-11.5-173.4 27.7-494.2 59.3-309.1 30.4-466 44.3-581.8-23.5-239.2-140.1-291.2-466-297.1-506.9-29.7-203.7 29-389.4 77.1-541.6 5.8-18.4 11.4-35 16.8-50.1-20.7 161.6-79.1 784.3 212.4 978.6 304.5 203 876.7-111.4 1347.6 72 164.4 64 347.7 60.5 508-13.3 236.7-109.1 525.2-354.1 660.3-903.5 8.4-34.3 17.2-66.1 26.5-95.8z" fill="#ffdb83" opacity=".44"/><path d="m1669 2235s-158 65 29 137 222-59 461-15 563-981 325-1039c-247.3-60.3 37 881-815 917z" fill="#ffdb83" opacity=".33"/><path d="m1922 1840c-244.5 260.7-639.4 233.4-860.1-42.4-18.4-27.3-34.5-56.3-48-86.7 108.2 70.5 713.7 389.5 953.2-603 10.1 12.2 19.7 24.8 28.7 37.8 48.8 133.9 138.6 467.8-73.8 694.3z" fill="#ff7e00"/><g opacity=".55"><path d="m1914.1 1602c1.1 4.5 2 9.1 2.6 13.7-.4-2.7-.7-5.3-1.1-8 1.7 12.9 1.5 25.8-.1 38.7.4-2.7.7-5.3 1.1-8-2.4 18-7.7 35.5-14.7 52.3 1-2.4 2-4.8 3-7.2-7.7 18.2-17.3 35.4-28.3 51.8-3 4.4-6 8.8-9.2 13.1-1.5 2-3 4-4.5 6-3.1 4.1 3.1-3.9 1.9-2.4-1 1.2-1.9 2.4-2.9 3.7-6.6 8.3-13.4 16.3-20.6 24.1-14.4 15.7-29.8 30.5-46.1 44.2-4 3.4-8.1 6.8-12.3 10-1.1.8-2.1 1.7-3.2 2.5-4.1 3.2 3.9-3 2.4-1.8-2.2 1.6-4.3 3.3-6.5 4.9-8.4 6.2-17 12.2-25.8 17.8-18.2 11.7-37.3 22.1-57.2 30.5 2.4-1 4.8-2 7.2-3-17.4 7.3-35.6 13.1-54.3 15.7 2.7-.4 5.3-.7 8-1.1-10.2 1.4-20.5 1.7-30.7.5 2.7.4 5.3.7 8 1.1-5.7-.8-11.4-2.1-16.8-4.1-7-2.5-16.9-.6-23.1 3s-12.2 10.8-13.8 17.9c-3.9 16.9 5.1 31.1 21 36.9 29.7 10.8 64.4 5.8 93.8-3.3 36.2-11.3 70.4-29.6 101.5-51.2 34.7-24 67.1-51.9 95.2-83.5 26.9-30.2 51.3-63.9 67.3-101.2 7.7-18 14.5-36.2 17.7-55.6 3.5-21.1 4-41.1.7-62.2-.6-4-1.4-8-2.4-11.9-3.8-15.2-21.8-25.8-36.9-21-15.8 5.3-25 20.7-20.9 37.1z" fill="#ffc200"/></g><g opacity=".55"><path d="m1097.4 1154.4c-43.2 61.7-74.4 132.5-90.9 206-5 22.4-8.5 45.1-11.1 67.9-.8 7.1 3.9 16.4 8.8 21.2 5.2 5.2 13.7 9.1 21.2 8.8 7.8-.3 15.8-2.9 21.2-8.8 5.7-6.2 7.8-12.9 8.8-21.2.5-4 1-8 1.5-12.1-.4 2.7-.7 5.3-1.1 8 6.7-49.4 20-97.7 39.3-143.6-1 2.4-2 4.8-3 7.2 15.4-36.2 34.5-70.8 57.1-103.1 4.3-6.1 4.9-16.2 3-23.1-1.9-7-7.3-14.5-13.8-17.9-15.3-8.2-31.4-3-41 10.7z" fill="#ffc200"/></g><path d="m1154.6 1293.7c29.2-75.7 93-196.9 215.9-254.9 121-57.1 249.9 89 144 163.5-15.7 11-35 18.5-58.9 20.6-110.3 9.4-101.4 167.6-205.7 173-64.1 3.2-114.7-51.8-95.3-102.2z" fill="#ffc200" opacity=".55"/><path d="m936.2 1222.8c-58.5 235.5-89.9 623.4 235.6 857.5 26.6 19.1 10.2 61.1-22.3 57.1-166.7-20.5-421.4-39.3-579.5 8.6-251 76-219-289-45-433 142.1-117.6 102.1-336.5 302.1-549.5 45.3-48.3 125.1-5 109.1 59.3z" fill="#ffdb83" opacity=".33"/><path d="m918.6 820.2c2.6 38.2 44.1 60.7 77.5 42.1 117.2-65.2 354.8-178.2 535.2-139.2 248.9 53.8 387.1 13 504.1 197.4 117.1 184.4 460.2 377 426.1 156.9s-313.9-319.7-422.3-437.2-448-130.8-653-201.5c-195.1-67.3-301.7 224.6-447 336.4-14 10.7-21.8 27.6-20.6 45.1z" fill="#fff" opacity=".22"/><path d="m842.8 932c17-71.2-46.9-135.5-118.5-120-81.4 17.6-229.9 60.9-276.3 150-65 125-25 345-65 441s-16 246 90 201 156-472 261-527c52.5-27.5 95-87.5 108.8-145z" fill="#fff" opacity=".33"/><g fill="#ffdb83"><ellipse cx="723.5" cy="605" opacity=".33" rx="80.5" ry="33"/><ellipse cx="2408.5" cy="851" opacity=".33" rx="80.5" ry="33"/><ellipse cx="1835.5" cy="411" opacity=".33" rx="80.5" ry="33"/><ellipse cx="2720.5" cy="1324" opacity=".33" rx="80.5" ry="33"/><ellipse cx="1163.5" cy="2367" opacity=".33" rx="80.5" ry="33"/><ellipse cx="473.5" cy="2359" opacity=".33" rx="80.5" ry="33"/><ellipse cx="1171.5" cy="864.5" opacity=".33" rx="97.5" ry="47.5"/></g></svg>