<svg id="Icons" height="512" viewBox="0 0 60 60" width="512" xmlns="http://www.w3.org/2000/svg"><path d="m33.84 54.33a20.024 20.024 0 0 0 25.16-19.33c0-18.54-8.95-34-20-34-4.18 0-8.07 2.22-11.29 5.99z" fill="#d1d4d1"/><path d="m38.32 48.98c.23.01.45.02.68.02a14 14 0 0 0 0-28c-.36 0-.71.01-1.06.04z" fill="#f29c1f"/><path d="m41 39a20 20 0 0 1 -40 0c0-18.54 8.95-34 20-34s20 15.46 20 34z" fill="#ecf0f1"/><circle cx="21" cy="39" fill="#f0c419" r="14"/><g fill="#f3d55b"><path d="m11.834 36a1 1 0 0 1 -.915-1.4 11.015 11.015 0 0 1 10.081-6.6 1 1 0 0 1 0 2 9.013 9.013 0 0 0 -8.249 5.4 1 1 0 0 1 -.917.6z"/><circle cx="11" cy="39" r="1"/></g></svg>