<svg id="Smooth" enable-background="new 0 0 128 128" height="512" viewBox="0 0 128 128" width="512" xmlns="http://www.w3.org/2000/svg" xmlns:xlink="http://www.w3.org/1999/xlink"><linearGradient id="lg1"><stop offset=".0399" stop-color="#fb9e4b"/><stop offset=".8094" stop-color="#f37e3e"/></linearGradient><linearGradient id="SVGID_1_" gradientUnits="userSpaceOnUse" x1="64" x2="64" xlink:href="#lg1" y1="-7.667" y2="-40"/><linearGradient id="lg2"><stop offset="0" stop-color="#f1a800"/><stop offset=".9973" stop-color="#ffb054"/></linearGradient><linearGradient id="SVGID_2_" gradientUnits="userSpaceOnUse" x1="54.833" x2="57.166" xlink:href="#lg2" y1="-27.55" y2="-4.217"/><linearGradient id="lg3"><stop offset="0" stop-color="#e3ddcb"/><stop offset=".6667" stop-color="#f5ebde"/></linearGradient><linearGradient id="SVGID_3_" gradientUnits="userSpaceOnUse" x1="34" x2="34" xlink:href="#lg3" y1="67.167" y2="36.832"/><linearGradient id="SVGID_4_" gradientUnits="userSpaceOnUse" x1="64" x2="64" xlink:href="#lg3" y1="67.167" y2="36.832"/><linearGradient id="SVGID_5_" gradientUnits="userSpaceOnUse" x1="94" x2="94" xlink:href="#lg3" y1="67.167" y2="36.832"/><linearGradient id="SVGID_6_" gradientUnits="userSpaceOnUse" x1="19" x2="19" xlink:href="#lg3" y1="121.625" y2="106"/><linearGradient id="SVGID_7_" gradientUnits="userSpaceOnUse" x1="49" x2="49" xlink:href="#lg3" y1="121.625" y2="106"/><linearGradient id="SVGID_8_" gradientUnits="userSpaceOnUse" x1="79" x2="79" xlink:href="#lg3" y1="121.625" y2="106"/><linearGradient id="SVGID_9_" gradientUnits="userSpaceOnUse" x1="109" x2="109" xlink:href="#lg3" y1="121.625" y2="106"/><linearGradient id="SVGID_10_" gradientUnits="userSpaceOnUse" x1="63.387" x2="63.72" xlink:href="#lg1" y1="53.905" y2="77.071"/><linearGradient id="SVGID_11_" gradientUnits="userSpaceOnUse" x1="52.712" x2="55.095" xlink:href="#lg2" y1="-29.828" y2="-5.998"/><linearGradient id="SVGID_12_" gradientUnits="userSpaceOnUse" x1="19" x2="19" xlink:href="#lg1" y1="-7.667" y2="-40"/><linearGradient id="SVGID_13_" gradientUnits="userSpaceOnUse" x1="49" x2="49" xlink:href="#lg1" y1="-7.667" y2="-40"/><linearGradient id="SVGID_14_" gradientUnits="userSpaceOnUse" x1="79" x2="79" xlink:href="#lg1" y1="-7.667" y2="-40"/><linearGradient id="SVGID_15_" gradientUnits="userSpaceOnUse" x1="109" x2="109" xlink:href="#lg1" y1="-7.667" y2="-40"/><linearGradient id="SVGID_16_" gradientUnits="userSpaceOnUse" x1="60.888" x2="62.888" xlink:href="#lg2" y1="60.015" y2="35.848"/><g><path d="m126 84h-124v-41c0-10.493 8.507-19 19-19h86c10.493 0 19 8.507 19 19z" fill="url(#SVGID_1_)"/><path d="m120 84h-112v-39c0-8.284 6.716-15 15-15h82c8.284 0 15 6.716 15 15z" fill="url(#SVGID_2_)"/><g><g><g><path d="m47 66c0 11.046-6.299 16-13 16s-13-4.954-13-16 6.299-21 13-21 13 9.954 13 21z" fill="url(#SVGID_3_)"/></g></g><g><g><path d="m77 67c0 11.046-6.299 16-13 16s-13-4.954-13-16 6.299-21 13-21 13 9.954 13 21z" fill="url(#SVGID_4_)"/></g></g><g><g><path d="m107 66c0 11.046-6.299 16-13 16s-13-4.954-13-16 6.299-21 13-21 13 9.954 13 21z" fill="url(#SVGID_5_)"/></g></g><g><g><path d="m32 80c0 11.046-6.299 16-13 16s-13-4.954-13-16 6.299-21 13-21 13 9.954 13 21z" fill="url(#SVGID_6_)"/></g></g><g><g><path d="m62 81c0 11.046-6.299 16-13 16s-13-4.954-13-16 6.299-21 13-21 13 9.954 13 21z" fill="url(#SVGID_7_)"/></g></g><g><g><path d="m92 80c0 11.046-6.299 16-13 16s-13-4.954-13-16 6.299-21 13-21 13 9.954 13 21z" fill="url(#SVGID_8_)"/></g></g><g><g><path d="m122 81c0 11.046-6.299 16-13 16s-13-4.954-13-16 6.299-21 13-21 13 9.954 13 21z" fill="url(#SVGID_9_)"/></g></g></g><g><path d="m13 87h102v19h-102z" fill="url(#SVGID_10_)"/><path d="m124 87h-120c-1.105 0-2-.895-2-2v-4h124v4c0 1.105-.895 2-2 2z" fill="url(#SVGID_11_)"/><path d="m4 87 4 20c.364 1.409 1.65 1.974 3 2 .329 1.129.659 2 2 2h12c1.341 0 1.671-.871 2-2 1.35-.026 2.636-.591 3-2l4-20z" fill="url(#SVGID_12_)"/><path d="m34 87 4 20c.364 1.409 1.65 1.974 3 2 .329 1.129.659 2 2 2h12c1.341 0 1.671-.871 2-2 1.35-.026 2.636-.591 3-2l4-20z" fill="url(#SVGID_13_)"/><path d="m64 87 4 20c.364 1.409 1.65 1.974 3 2 .329 1.129.659 2 2 2h12c1.341 0 1.671-.871 2-2 1.35-.026 2.636-.591 3-2l4-20z" fill="url(#SVGID_14_)"/><path d="m94 87 4 20c.364 1.409 1.65 1.974 3 2 .329 1.129.659 2 2 2h12c1.341 0 1.671-.871 2-2 1.35-.026 2.636-.591 3-2l4-20z" fill="url(#SVGID_15_)"/></g><path d="m33 17h62c2.209 0 4 1.791 4 4v3h-70v-3c0-2.209 1.791-4 4-4z" fill="url(#SVGID_16_)"/></g></svg>