<svg clip-rule="evenodd" fill-rule="evenodd" height="512" image-rendering="optimizeQuality" shape-rendering="geometricPrecision" text-rendering="geometricPrecision" viewBox="0 0 1.70666 1.70666" width="512" xmlns="http://www.w3.org/2000/svg"><g id="Layer_x0020_1"><g id="_532234320"><g><path id="_532235832" d="m.403949 1.66784v-.112181h-.278382c.0445709-.316461.246724-.556102.488677-.556102h.0752598l.163827.212906.163827-.212906h.0749685c.241949 0 .444094.239657.488681.556102h-.278409v.112181h-.898449zm-.280193-.0986811c.00035039-.00277953.00071654-.00554724.00109055-.00831496-.00037795.00276378-.00074016.00553543-.00109055.00831496zm1.45733-.0115512c.00042126.00303937.00083071.00608268.00122441.0091378-.00039764-.00305118-.00080315-.00609843-.00122441-.0091378z" fill="#0a5078"/><path id="_532235352" d="m.125567 1.55566c.00189764-.0134685.00404331-.026815.00650394-.0399961h.291874c.0110354 0 .0199961.00897244.0199961.0199961 0 .0110276-.00895276.02-.0199961.02h-.298378zm1.44871-.0399961c.00246063.0131811.00462992.0265236.00652756.0399961h-.298394c-.0110354 0-.0199961-.00897244-.0199961-.02 0-.0110236.00897244-.0199961.0199961-.0199961h.291866z" fill="#808da4"/><path id="_532234800" d="m1.05044.992394h.041689c.0485118 0 .0954055.00967717.139772.0276299v.361343c0 .010748-.00851181.0195787-.0192717.0199803-.108378.00022047-.125193.00526378-.142193.00526378-.0110354 0-.0199961-.0089685-.0199961-.0199961v-.39422z" fill="#f0f0f0"/><path id="_532234488" d="m.474283 1.0201c.0444173-.018.0913819-.0277047.139961-.0277047h.0414685v.388945c0 .010748-.00851575.0195827-.0192638.0199803-.0437953.00046063-.141406.00529134-.142169.00529134-.0110394 0-.0199961-.0089685-.0199961-.0199961v-.366516z" fill="#f0f0f0"/><path id="_532234776" d="m.853327.949378c-.157988 0-.280276-.159654-.329406-.311461-.048685-.0207205-.0830551-.0715157-.0830551-.124701 0-.0515787.0298661-.102913.0743346-.127728.00298425-.00166929.00634252-.00253937.00974409-.00253937h.656756c.00341732 0 .00676772.00087795.00974803.00253937.0444646.0248307.0743504.0761575.0743504.127728 0 .053185-.0343819.10398-.0830591.124701-.0491417.151807-.171441.311461-.329413.311461z" fill="#fec9a3"/><path id="_532234584" d="m1.18196.422953c-.00005906 0-.00016929.00001575-.00027953 0h-.656736c-.00539764 0-.0105787-.00217717-.0143425-.00606693-.00376378-.00387402-.00580315-.00911024-.00565354-.0145118l.00056693-.0195394c.00001575-.00059843.00005906-.00119685.0001378-.00179134l.0213858-.179276c.0166811-.139783.175835-.202339.326142-.202339.145587 0 .309839.0633189.326417.202339l.0213898.179276c.00006693.00059843.00012598.00119685.00013386.00179134l.00045669.0162047c.00025197.00126772.00037402.00256693.00037402.00390157.00001968.0110591-.00893701.0200118-.0199921.0200118z" fill="#fbc946"/><path id="_532235016" d="m1.06424.55024c-.0121102 0-.0250512-.00296063-.041437-.00669291-.0323976-.00740157-.0813622-.0185787-.170276-.0185787-.0889055 0-.137878.0111929-.170291.0185787-.0163858.00374803-.0293465.00669291-.041437.00669291-.0382441 0-.0557795-.0253583-.113898-.109374l-.018374-.0264961c-.00425197-.0061063-.00475197-.0140787-.00129134-.0206772.00344094-.00659843.0102756-.0107244.0177165-.0107244l.657047.00000787c.00744094 0 .0142598.00413386.0177205.0107205.00344094.00659843.00294488.0145669-.00130709.0206811l-.0202244.0264252c-.0581535.084063-.0756929.109437-.113949.109437z" fill="#fbac00"/><path id="_532234632" d="m1.01716.999555-.0465551-.0806417c-.036126.0192717-.0754528.0304646-.117276.0304646-.0418228 0-.0811457-.011189-.117272-.0304567l-.0465512.0806339.163827.212906.163827-.212906z" fill="#fec9a3"/><g fill="#feb593"><path id="_532234824" d="m.983996.94211-.0133937-.0231969c-.036126.0192717-.0754528.0304646-.117276.0304646-.0418228 0-.0811457-.011189-.117272-.0304567l-.0133937.0231969c.0397008.0213346.083437.0339252.130665.0339252.0472283 0 .0909685-.0125906.130669-.0339331z"/><path id="_532234752" d="m.403949 1.55566h-.278382c-.00603937.0425945-.0091811.0865866-.0091811.131571 0 .0110276.00895669.0199961.0199961.0199961h.267567v-.151567z"/><path id="_532234032" d="m1.3024 1.55566v.151567h.267583c.00009843.00001575.00020866.00001575.00027559 0 .0110551 0 .0199961-.00895669.0200236-.0199961 0-.00115354-.00009843-.00227559-.00029528-.00337402-.00015354-.043811-.00329134-.0866693-.00917717-.128197h-.278409z"/></g><path id="_532234176" d="m.859362.328508c-.00149606 0-.00300787-.00019291-.00450394-.00059843-.0076063-.00203937-.0128858-.00892126-.0128858-.0167953v-.0624685h-.0715906c-.00635433 0-.0122087-.0034685-.0152559-.00905118-.00303937-.0055748-.00281102-.0123622.00060236-.0177244l.0912638-.142598c.00413386-.00647244.0120079-.0094685.0194094-.00734252.00738583.00209843.0125079.00880315.0126181.0164843l.0008937.0653583h.0602402c.00621654 0 .0119528.00331102.0150551.00869685.0031063.00538583.0031063.0120197 0 .0173898l-.0807913.139957c-.00316142.00547638-.00895669.00869291-.0150551.00869291z" fill="#fbac00"/><path id="_532233744" d="m.370614 1.70722v-.396134c0-.0110394.00895669-.0199961.0199961-.0199961h.925122c.0110394 0 .02.0089685.02.0199961v.396134h-.965118z" fill="#fbc946"/><path id="_532233696" d="m.858354 1.66019c-.00135433 0-.00273228-.00019291-.00408661-.00055906-.00659449-.00184252-.0111654-.00785433-.0111654-.0147008v-.0813661h-.097252c-.00562205 0-.0108031-.00310236-.0134488-.00807087-.00264961-.0049685-.00235039-.0109882.00077165-.0156654l.115398-.172524c.00370866-.00553937.0105906-.00805906.0170039-.00614567.00639764.00189764.0108268.00772047.0109213.0144055l.00121654.0847795.0828031.00000787c.00550787 0 .0105787.00296457.0132835.00775197.00270866.00479134.00261417.0106654-.00022835.0153819l-.102177.169315c-.00279528.00466535-.00779528.00738976-.0130394.00738976z" fill="#0a5078"/></g><path id="_532233624" d="m.543689 1.50688c-.0357795 0-.0648661-.0291024-.0648661-.0648661 0-.0357638.0290984-.064874.0648661-.064874.0357638 0 .0648622.0291142.0648622.064874s-.0291024.0648661-.0648622.0648661z" fill="#0a5078"/><path id="_532234152" d="m1.16296 1.50688c-.0357598 0-.064878-.0291024-.064878-.0648661 0-.0357638.0291181-.064874.064878-.064874.0357598 0 .064874.0291142.064874.064874s-.0291102.0648661-.064874.0648661z" fill="#0a5078"/><g fill="#fbc946"><path id="_532233960" d="m.543689 1.4092c-.0181024 0-.0328307.0147283-.0328307.0328268 0 .0180984.0147283.0328031.0328307.0328031.0180945 0 .0328268-.0147047.0328268-.0328031s-.0147323-.0328268-.0328268-.0328268z"/><path id="_532234344" d="m1.16296 1.4092c-.0181024 0-.0328268.0147283-.0328268.0328268 0 .0180984.0147244.0328031.0328268.0328031.0180945 0 .0328268-.0147047.0328268-.0328031s-.0147323-.0328268-.0328268-.0328268z"/></g></g></g></svg>