<svg id="Icons" height="512" viewBox="0 0 60 60" width="512" xmlns="http://www.w3.org/2000/svg"><path d="m22 26v-5.22a10 10 0 0 1 6.93-9.52l20.23-6.53.86 4.29-18.19 7.7a3 3 0 0 0 -1.83 2.77v6.51z" fill="#e8ce31"/><path d="m9 46h22v6h-22z" fill="#dbba2e"/><path d="m35 40v1h-15v-15a2.006 2.006 0 0 1 2-2h3l9.38 11z" fill="#dbba2e"/><path d="m35 47h-31a2 2 0 0 1 -2-2v-9a2 2 0 0 1 2-2h16l2.25 4.5a2.713 2.713 0 0 0 2.426 1.5h10.324a2 2 0 0 1 2 2v3a2 2 0 0 1 -2 2z" fill="#e8ce31"/><rect fill="#2c4e59" height="8" rx="4" width="38" x="1" y="51"/><path d="m34.38 35h-7.38a2.006 2.006 0 0 1 -2-2v-9h6.23a2.007 2.007 0 0 1 1.99 1.75z" fill="#4078bc"/><path d="m56.99 10.01a20.435 20.435 0 0 1 -.05 2.07l-1.61 26.78-4.33.14v-29z" fill="#e8ce31"/><circle cx="54" cy="6" fill="#dbba2e" r="5"/><path d="m57 43a6.069 6.069 0 0 1 -6 6h-3.15a1.819 1.819 0 0 1 -1.81-1.38 1.748 1.748 0 0 1 1.15-2.02l1.81-.6v-7a1 1 0 0 1 1-1h1a6 6 0 0 1 6 6z" fill="#2c4e59"/><path d="m7 42a1 1 0 0 1 -1-1v-3a1 1 0 0 1 2 0v3a1 1 0 0 1 -1 1z" fill="#dbba2e"/><path d="m11 42a1 1 0 0 1 -1-1v-3a1 1 0 0 1 2 0v3a1 1 0 0 1 -1 1z" fill="#dbba2e"/><path d="m15 42a1 1 0 0 1 -1-1v-3a1 1 0 0 1 2 0v3a1 1 0 0 1 -1 1z" fill="#dbba2e"/><g fill="#d7e9fd"><path d="m9 56h-2a1 1 0 0 1 0-2h2a1 1 0 0 1 0 2z"/><path d="m17 56h-2a1 1 0 0 1 0-2h2a1 1 0 0 1 0 2z"/><path d="m25 56h-2a1 1 0 0 1 0-2h2a1 1 0 0 1 0 2z"/><path d="m33 56h-2a1 1 0 0 1 0-2h2a1 1 0 0 1 0 2z"/></g></svg>