<svg height="512" viewBox="0 0 58 58" width="512" xmlns="http://www.w3.org/2000/svg"><g id="Page-1" fill="none" fill-rule="evenodd"><g id="091---Fan" fill-rule="nonzero" transform="translate(-1 -1)"><path id="Shape" d="m34.78 21.12c-.45 1.75-.86 2.88-.86 2.88l-.06.16c-1.1442488-.7585845-2.4871376-1.1621469-3.86-1.16-.4701355.0005065-.9390739.0474003-1.4.14l-.08-.15s-.5-1.05-1.39-2.57c-.0026522 0-.0051957-.0010536-.0070711-.0029289-.0018753-.0018754-.0029289-.0044189-.0029289-.0070711-1.1148053-4.7592102-3.3928396-9.1675329-6.63-12.83-2.16-2.3-1.59-3.96-.67-4.97.7266752-.76079721 1.6953571-1.24513818 2.74-1.37 16.32-2.38 13.93 13.24 12.22 19.88z" fill="#95a5a5"/><path id="Shape" d="m40.18 57.39c-.7266752.7607972-1.6953571 1.2451382-2.74 1.37-16.35 2.39-13.92-13.31-12.21-19.92v-.01c.45-1.73.85-2.83.85-2.83l.06-.16c1.1442488.7585845 2.4871376 1.1621469 3.86 1.16.4701355-.0005065.9390739-.0474003 1.4-.14l.07.15s.5 1.06 1.41 2.6c1.1192634 4.751609 3.3969597 9.1524068 6.63 12.81 2.16 2.3 1.59 3.96.67 4.97z" fill="#95a5a5"/><path id="Shape" d="m37 30c.000679 3.3268803-2.3403362 6.194624-5.6 6.86-.4609261.0925997-.9298645.1394935-1.4.14-3.3268803.000679-6.194624-2.3403362-6.86-5.6-.0925997-.4609261-.1394935-.9298645-.14-1.4-.000679-3.3268803 2.3403362-6.194624 5.6-6.86.4609261-.0925997.9298645-.1394935 1.4-.14 3.3231271.0002835 6.1887331 2.3353764 6.86 5.59v.01c.0925997.4609261.1394935.9298645.14 1.4z" fill="#ecf0f1"/><path id="Shape" d="m27 31c-.5522847 0-1-.4477153-1-1 0-2.209139 1.790861-4 4-4 .5522847 0 1 .4477153 1 1s-.4477153 1-1 1c-1.1045695 0-2 .8954305-2 2 0 .5522847-.4477153 1-1 1z" fill="#fff"/><path id="Shape" d="m38.88 34.79c-.01-.01-.01-.01-.02-.01-1.74-.46-2.86-.86-2.86-.86l-.16-.06c.7585845-1.1442488 1.1621469-2.4871376 1.16-3.86-.0005065-.4701355-.0474003-.9390739-.14-1.4v-.01l.15-.06s1.06-.5 2.6-1.41c4.751609-1.1192634 9.1524068-3.3969597 12.81-6.63 2.3-2.16 3.96-1.59 4.97-.67.7607972.7266752 1.2451382 1.6953571 1.37 2.74 2.38 16.31-13.25 13.92-19.88 12.23z" fill="#95a5a5"/><path id="Shape" d="m23 30c.0005065.4701355.0474003.9390739.14 1.4l-.16.07s-1.07.5-2.61 1.41c-.0080001.007654-.0190075.0113232-.03.01-4.7311292 1.1288305-9.1127282 3.4020425-12.76 6.62-2.3 2.16-3.96 1.59-4.97.67-.76079721-.7266752-1.24513818-1.6953571-1.37-2.74-2.38-16.31 13.23-13.93 19.87-12.23.01.01.01.01.02.01 1.74.45 2.87.86 2.87.86l.16.06c-.7585845 1.1442488-1.1621469 2.4871376-1.16 3.86z" fill="#95a5a5"/><g fill="#7f8c8d"><path id="Shape" d="m56.56 42.17c.0224049 1.052909-.3203306 2.0811157-.97 2.91-9.88 13.25-19.25.42-22.71-5.47-.91-1.54-1.41-2.6-1.41-2.6l-.07-.15c1.8185837-.3732776 3.4151305-1.4520254 4.44-3l.16.06s1.12.4 2.86.86c.01 0 .01 0 .02.01 4.1399967 2.5439032 8.8405239 4.034063 13.69 4.34 3.16.1 3.93 1.67 3.99 3.04z"/><path id="Shape" d="m28.6 23.14c-1.8196678.370699-3.4171184 1.4500575-4.44 3l-.16-.06s-1.13-.41-2.87-.86c-.01 0-.01 0-.02-.01-4.1399967-2.5439032-8.8405239-4.034063-13.69-4.34-3.16-.1-3.93-1.67-3.99-3.04-.02240494-1.052909.32033062-2.0811157.97-2.91 9.89-13.26 19.28-.39 22.72 5.49 0 .0055228.0044772.01.01.01.89 1.52 1.39 2.57 1.39 2.57z"/><path id="Shape" d="m26.14 35.84-.06.16s-.4 1.1-.85 2.83v.01c-2.5633951 4.150727-4.0611407 8.8706867-4.36 13.74-.1 3.15-1.68 3.92-3.04 3.99-1.0531476.023985-2.0818729-.3189235-2.91-.97-13.23-9.85-.48-19.22 5.42-22.71.0109925.0013232.0219999-.002346.03-.01 1.54-.91 2.61-1.41 2.61-1.41l.16-.07c.370699 1.8196678 1.4500575 3.4171184 3 4.44z"/><path id="Shape" d="m39.61 27.12c-1.54.91-2.6 1.41-2.6 1.41l-.15.06c-.37479-1.8153017-1.4534929-3.4081863-3-4.43l.06-.16s.41-1.13.86-2.88c2.5484148-4.1415901 4.0388738-8.8464951 4.34-13.7.1-3.15 1.68-3.92 3.04-3.99 1.0531476-.02398496 2.0818729.31892346 2.91.97 13.26 9.88.43 19.26-5.46 22.72z"/></g></g></g></svg>