<svg height="512" viewBox="0 0 64 64" width="512" xmlns="http://www.w3.org/2000/svg"><g id="Layer_5" data-name="Layer 5"><path d="m44 38 11 4 2.394 4.789a47.055 47.055 0 0 1 4.606 15.211h-60a47.055 47.055 0 0 1 4.606-15.211l2.394-4.789 11-4z" fill="#9f1d21"/><path d="m55 42-11-4h-20l-5.968 2.17a13.436 13.436 0 0 0 -7.426 6.619 47.055 47.055 0 0 0 -4.606 15.211h56a47.055 47.055 0 0 0 -4.606-15.211z" fill="#cc232e"/><path d="m23 54h18v8h-18z" fill="#ef7721"/><path d="m62 62q-.252-2.016-.677-4h-58.646q-.423 1.982-.677 4z" fill="#ef7721"/><path d="m61.7 59.992v-.024q-.168-.989-.377-1.968h-54.646q-.423 1.982-.677 4h56q-.126-1.008-.3-2.008z" fill="#feb92d"/><path d="m40.19 36.19-2.302-2.302h-11.776l-2.302 2.302 2.19 4.81h12z" fill="#4c4c4c"/><path d="m40.19 36.19-1.9-1.9a15.3 15.3 0 0 1 -1.857 2.274 4.9 4.9 0 0 1 -3.462 1.436h-1.942a4.9 4.9 0 0 1 -3.464-1.434c-.285-.286-.549-.589-.81-.894a4.688 4.688 0 0 0 -.406 4.593l.335.735h11.316z" fill="#686868"/><path d="m44 18v3.528a18.949 18.949 0 0 0 2 8.472 10.242 10.242 0 0 1 -7.243 3h-13.514a10.242 10.242 0 0 1 -7.243-3 18.949 18.949 0 0 0 2-8.472v-3.528z" fill="#9f1d21"/><path d="m40.4 20 .3 1.485a15.525 15.525 0 0 1 .3 3.056 15.586 15.586 0 0 1 -4.565 11.022 4.894 4.894 0 0 1 -3.464 1.437h-1.942a4.894 4.894 0 0 1 -3.464-1.434 15.586 15.586 0 0 1 -4.565-11.023 15.525 15.525 0 0 1 .3-3.056l.3-1.487.4-3h16z" fill="#ce8c7a"/><path d="m25.3 21.487a15.584 15.584 0 0 0 4.262 14.078 4.838 4.838 0 0 0 6.87 0 15.584 15.584 0 0 0 4.268-14.078l-.3-1.487-.4-3h-14l-.4 3z" fill="#f0b8a2"/><path d="m44 16.839v-.819a12.339 12.339 0 0 0 -7.329-11.277 9.844 9.844 0 0 1 -2.964-2.036 2.414 2.414 0 0 0 -1.707-.707 2.414 2.414 0 0 0 -1.707.707 9.844 9.844 0 0 1 -2.964 2.036 12.339 12.339 0 0 0 -7.329 11.277v.819z" fill="#9f1d21"/><path d="m36.671 4.743a9.844 9.844 0 0 1 -2.964-2.036 2.408 2.408 0 0 0 -.707-.483 2.408 2.408 0 0 0 -.707.483 9.844 9.844 0 0 1 -2.964 2.036 12.339 12.339 0 0 0 -7.329 11.277v.819h22v-.819a12.339 12.339 0 0 0 -7.329-11.277z" fill="#cc232e"/><path d="m32 15a35.68 35.68 0 0 1 9.808 1.374 16.294 16.294 0 0 0 4.472.626h.72a2 2 0 0 1 2 2 2 2 0 0 1 -2 2h-.72a16.294 16.294 0 0 1 -4.472-.626 35.719 35.719 0 0 0 -9.808-1.374 35.719 35.719 0 0 0 -9.808 1.375 16.294 16.294 0 0 1 -4.472.625h-.72a2 2 0 0 1 -2-2 2 2 0 0 1 2-2h.72a16.294 16.294 0 0 0 4.472-.626 35.68 35.68 0 0 1 9.808-1.374z" fill="#ef7721"/><path d="m32 13.162a4.387 4.387 0 0 1 -3-4.162v-1h.585a3.416 3.416 0 0 0 2.415-1 3.415 3.415 0 0 0 2.414 1h.586v1a4.387 4.387 0 0 1 -3 4.162z" fill="#feb92d"/><path d="m31 41h2v21h-2z" fill="#9f1d21"/><path d="m47 17h-.72a16.294 16.294 0 0 1 -4.472-.626 35.693 35.693 0 0 0 -19.616 0 16.294 16.294 0 0 1 -4.472.626h-.72a1.972 1.972 0 0 0 -.973.263 1.993 1.993 0 0 0 1.973 1.737h.72a16.294 16.294 0 0 0 4.472-.626 35.668 35.668 0 0 1 19.616 0 16.294 16.294 0 0 0 4.472.626h.72a1.972 1.972 0 0 0 .973-.263 1.993 1.993 0 0 0 -1.973-1.737z" fill="#feb92d"/><path d="m14.426 46.6-4.415-4.967-1.011.367-.482.964 4.413 4.964a12.137 12.137 0 0 1 3.069 8.072v6h2v-6a14.141 14.141 0 0 0 -3.574-9.4z" fill="#9f1d21"/><path d="m51.069 47.928 4.413-4.964-.482-.964-1.011-.368-4.415 4.968a14.141 14.141 0 0 0 -3.574 9.4v6h2v-6a12.137 12.137 0 0 1 3.069-8.072z" fill="#9f1d21"/><path d="m17 62v-22.909l3-1.091 3-1v25z" fill="#4c4c4c"/><path d="m20 38v19a3 3 0 0 0 3 3v-23z" fill="#686868"/><path d="m47 62v-22.909l-3-1.091-3-1v25z" fill="#4c4c4c"/><path d="m44 38v19a3 3 0 0 0 3 3v-20.909z" fill="#686868"/><g fill="#9f1d21"><path d="m23 35a12.629 12.629 0 0 0 8.752 5.959l.248.041-5 6-1.757-1.172a12.308 12.308 0 0 1 -5.243-7.828z"/><path d="m41 35a12.629 12.629 0 0 1 -8.752 5.959l-.248.041 5 6 1.757-1.172a12.308 12.308 0 0 0 5.243-7.828z"/></g></g></svg>