<svg id="Layer_1" height="512" viewBox="0 0 256 256" width="512" xmlns="http://www.w3.org/2000/svg"><g><g><path d="m21.307 169.775h-7.555v-16.513h7.555v-4h-7.555v-16.512h7.555v-4h-7.555v-16.514h7.555v-4h-7.555v-16.512h7.555v-4h-7.555v-6.024c0-2.291 1.863-4.154 4.154-4.154h3.401v-1.298c0-.944.332-1.803.868-2.496-.263-.127-.555-.206-.868-.206h-3.401c-4.496 0-8.154 3.658-8.154 8.154v98.664c0 1.104.896 2 2 2s2-.896 2-2v-6.589h7.555z" fill="#414042"/><path d="m25.106 59.827h11.684v12.318h4v-12.318h16.513v12.318h4v-12.318h16.513v12.318h4v-12.318h16.513v12.318h4v-12.318h16.513v12.318h4v-12.318h16.513v12.318h4v-12.318h11.684c1.104 0 2-.896 2-2s-.896-2-2-2h-129.933c-1.104 0-2 .896-2 2s.896 2 2 2z" fill="#414042"/><g><path d="m206.813 72.145h-30.869c-4.532 0-8.205 3.674-8.205 8.205v77.779h76.51v-35.16c0-2.388-.695-4.725-2-6.725l-25.128-38.516c-2.272-3.483-6.15-5.583-10.308-5.583z" fill="#d10028"/></g><g><path d="m242.248 116.245-3.096-4.746c.059.486.095.977.095 1.47v40.16h-71.51v5h76.51v-35.16c.001-2.388-.694-4.724-1.999-6.724z" fill="#b7022d"/></g><g><path d="m196.647 72.145v-8.666c0-2.503-2.029-4.533-4.533-4.533h-4.698c-2.503 0-4.533 2.029-4.533 4.533v8.666z" fill="#ffc91d"/></g><g><g><g><path d="m173.265 65.494h-8.025c-1.104 0-2-.896-2-2s.896-2 2-2h8.025c1.104 0 2 .896 2 2s-.895 2-2 2z" fill="#ef7816"/></g><g><path d="m214.291 65.494h-8.025c-1.104 0-2-.896-2-2s.896-2 2-2h8.025c1.104 0 2 .896 2 2s-.895 2-2 2z" fill="#ef7816"/></g></g><g><g><path d="m189.765 48.994c-1.104 0-2-.896-2-2v-8.025c0-1.104.896-2 2-2s2 .896 2 2v8.025c0 1.105-.895 2-2 2z" fill="#ef7816"/></g></g><g><g><path d="m201.433 53.827c-.512 0-1.023-.195-1.414-.586-.781-.781-.781-2.047 0-2.828l5.674-5.675c.78-.781 2.047-.781 2.828 0s.781 2.047 0 2.828l-5.674 5.675c-.39.391-.902.586-1.414.586z" fill="#ef7816"/></g></g><g><g><path d="m178.098 53.827c-.512 0-1.024-.195-1.414-.586l-5.674-5.675c-.781-.781-.781-2.047 0-2.828s2.048-.781 2.828 0l5.674 5.675c.781.781.781 2.047 0 2.828-.391.391-.903.586-1.414.586z" fill="#ef7816"/></g></g></g><g><path d="m244.248 141.725v-12.821h-7.18c-1.699 0-3.077 1.378-3.077 3.077v6.667c0 1.699 1.378 3.077 3.077 3.077z" fill="#ffc91d"/></g><g><path d="m239.248 128.904h5v12.82h-5z" fill="#ffa91a"/></g><g><g><path d="m21.307 158.129v28.338c0 5.523 4.477 10 10 10h202.941c5.523 0 10-4.477 10-10v-28.338z" fill="#58595b"/></g><g><path d="m188.513 158.129v38.338h45.735c5.523 0 10-4.477 10-10v-28.338z" fill="#414042"/></g><g><path d="m77.042 158.129h55.735v38.337h-55.735z" fill="#808285"/></g></g><g><path d="m98.548 166.129h-.241c-1.104 0-2-.896-2-2s.896-2 2-2h.241c1.104 0 2 .896 2 2s-.896 2-2 2zm-8.241 0h-63c-1.104 0-2-.896-2-2s.896-2 2-2h63c1.104 0 2 .896 2 2s-.895 2-2 2z" fill="#939598"/></g><g><g><path d="m182.651 196.467h49.997c-.028-13.761-11.23-24.948-24.998-24.948s-24.971 11.187-24.999 24.948z" fill="#d1d3d4"/></g><g><path d="m32.907 196.467h49.997c-.028-13.761-11.23-24.948-24.998-24.948-13.769 0-24.971 11.187-24.999 24.948z" fill="#d1d3d4"/></g><g><path d="m98.548 196.467h49.997c-.028-13.761-11.23-24.948-24.998-24.948s-24.971 11.187-24.999 24.948z" fill="#d1d3d4"/></g><g><g><path d="m207.65 217.031c11.311 0 20.512-9.202 20.512-20.513s-9.202-20.513-20.512-20.513c-11.312 0-20.513 9.202-20.513 20.513s9.202 20.513 20.513 20.513z" fill="#58595b"/></g><g><path d="m219.422 179.746c2.349 3.336 3.741 7.391 3.741 11.772 0 11.311-9.202 20.513-20.512 20.513-4.381 0-8.437-1.392-11.773-3.741 3.715 5.277 9.842 8.741 16.773 8.741 11.311 0 20.512-9.202 20.512-20.513 0-6.93-3.464-13.057-8.741-16.772z" fill="#414042"/></g><g><path d="m207.65 204.723c4.524 0 8.205-3.681 8.205-8.205s-3.681-8.205-8.205-8.205-8.205 3.681-8.205 8.205 3.681 8.205 8.205 8.205z" fill="#e6e7e8"/></g><g><path d="m212.359 189.81c.939 1.334 1.496 2.956 1.496 4.708 0 4.524-3.681 8.205-8.205 8.205-1.752 0-3.375-.557-4.709-1.496 1.486 2.111 3.937 3.496 6.709 3.496 4.524 0 8.205-3.681 8.205-8.205 0-2.772-1.385-5.223-3.496-6.708z" fill="#d1d3d4"/></g><g><path d="m123.547 217.031c11.311 0 20.512-9.202 20.512-20.513s-9.202-20.513-20.512-20.513c-11.312 0-20.513 9.202-20.513 20.513s9.202 20.513 20.513 20.513z" fill="#58595b"/></g><g><path d="m135.319 179.746c2.349 3.336 3.741 7.391 3.741 11.772 0 11.311-9.202 20.513-20.512 20.513-4.381 0-8.437-1.392-11.773-3.741 3.715 5.277 9.842 8.741 16.773 8.741 11.311 0 20.512-9.202 20.512-20.513 0-6.93-3.464-13.057-8.741-16.772z" fill="#414042"/></g><g><path d="m123.547 204.723c4.524 0 8.205-3.681 8.205-8.205s-3.681-8.205-8.205-8.205-8.205 3.681-8.205 8.205 3.681 8.205 8.205 8.205z" fill="#e6e7e8"/></g><g><path d="m128.256 189.81c.939 1.334 1.496 2.956 1.496 4.708 0 4.524-3.681 8.205-8.205 8.205-1.752 0-3.375-.557-4.709-1.496 1.486 2.111 3.937 3.496 6.709 3.496 4.524 0 8.205-3.681 8.205-8.205 0-2.772-1.386-5.223-3.496-6.708z" fill="#d1d3d4"/></g><g><path d="m57.906 217.031c11.311 0 20.512-9.202 20.512-20.513s-9.202-20.513-20.512-20.513c-11.312 0-20.513 9.202-20.513 20.513s9.201 20.513 20.513 20.513z" fill="#58595b"/></g><g><path d="m69.677 179.746c2.349 3.336 3.741 7.391 3.741 11.772 0 11.311-9.202 20.513-20.512 20.513-4.381 0-8.437-1.392-11.773-3.741 3.715 5.277 9.842 8.741 16.773 8.741 11.311 0 20.512-9.202 20.512-20.513 0-6.93-3.463-13.057-8.741-16.772z" fill="#414042"/></g><g><path d="m57.906 204.723c4.524 0 8.205-3.681 8.205-8.205s-3.681-8.205-8.205-8.205-8.205 3.681-8.205 8.205c-.001 4.524 3.68 8.205 8.205 8.205z" fill="#e6e7e8"/></g><g><path d="m62.614 189.81c.939 1.334 1.496 2.956 1.496 4.708 0 4.524-3.681 8.205-8.205 8.205-1.752 0-3.375-.557-4.709-1.496 1.486 2.111 3.937 3.496 6.709 3.496 4.524 0 8.205-3.681 8.205-8.205 0-2.772-1.385-5.223-3.496-6.708z" fill="#d1d3d4"/></g></g></g><g><path d="m181.402 89.581v21.762c0 2.266 1.837 4.103 4.103 4.103h56.223l-19.55-29.968h-36.673c-2.266 0-4.103 1.837-4.103 4.103z" fill="#478cf7"/></g><g><path d="m222.177 85.479h-10l19.55 29.967h10z" fill="#377de2"/></g><g id="XMLID_18_"><path d="m186.706 127.197h-4.304c-1.104 0-2-.896-2-2s.896-2 2-2h4.304c1.104 0 2 .896 2 2s-.895 2-2 2z" fill="#414042"/></g><g><g><g><path d="m154.735 72.145h-129.325c-2.266 0-4.103 1.837-4.103 4.103v81.882h137.531v-81.882c0-2.266-1.837-4.103-4.103-4.103z" fill="#d10028"/></g></g><g><path d="m154.735 72.145h-.897v80.984h-132.531v5h137.531v-81.881c0-2.266-1.837-4.103-4.103-4.103z" fill="#b7022d"/></g><g><g><path d="m21.307 126.391h137.531v10.718h-137.531z" fill="#f1f2f2"/></g></g><g><path d="m153.838 126.391v5.718h-132.531v5h137.531v-10.718z" fill="#e6e7e8"/></g><g><path d="m143.74 158.13h-32.501v-67.688c0-1.105.895-2 2-2h28.501c1.105 0 2 .895 2 2z" fill="#58595b"/></g><g><g><path d="m111.239 91.604h32.501v3.5h-32.501z" fill="#808285"/></g><g><path d="m111.239 101.604h32.501v3.5h-32.501z" fill="#808285"/></g><g><path d="m111.239 111.604h32.501v3.5h-32.501z" fill="#808285"/></g><g><path d="m111.239 121.604h32.501v3.5h-32.501z" fill="#808285"/></g><g><path d="m111.239 131.604h32.501v3.5h-32.501z" fill="#808285"/></g><g><path d="m111.239 141.604h32.501v3.5h-32.501z" fill="#808285"/></g><g><path d="m111.239 151.604h32.501v3.5h-32.501z" fill="#808285"/></g></g><g><path d="m98.663 113.258h-24.398c-1.105 0-2-.895-2-2v-20.816c0-1.105.895-2 2-2h24.398c1.105 0 2 .895 2 2v20.815c0 1.105-.896 2.001-2 2.001z" fill="#478cf7"/></g><g><path d="m98.663 88.442h-5c1.105 0 2 .896 2 2v20.815c0 1.105-.895 2-2 2h5c1.105 0 2-.895 2-2v-20.815c0-1.105-.896-2-2-2z" fill="#377de2"/></g><g><path d="m59.688 113.258h-24.398c-1.105 0-2-.895-2-2v-20.816c0-1.105.895-2 2-2h24.398c1.105 0 2 .895 2 2v20.815c0 1.105-.895 2.001-2 2.001z" fill="#478cf7"/></g><g><path d="m59.688 88.442h-5c1.105 0 2 .896 2 2v20.815c0 1.105-.895 2-2 2h5c1.105 0 2-.895 2-2v-20.815c0-1.105-.895-2-2-2z" fill="#377de2"/></g></g></g></g></svg>