<svg id="Flat" height="512" viewBox="0 0 64 64" width="512" xmlns="http://www.w3.org/2000/svg"><path d="m37.222 13.778h22a2 2 0 0 1 2 2v2a0 0 0 0 1 0 0h-26a0 0 0 0 1 0 0v-2a2 2 0 0 1 2-2z" fill="#61757d" transform="matrix(.707 .707 -.707 .707 25.281 -29.477)"/><path d="m57.414 22.142-13.435-13.435a2 2 0 0 0 -2.828 0l-1.414 1.414 16.263 16.264 1.414-1.414a2 2 0 0 0 0-2.829z" fill="#546975"/><path d="m16.222 23.423h14v34.711h-14z" fill="#ffd255" transform="matrix(.707 .707 -.707 .707 35.636 -4.477)"/><path d="m6.927 36.339h34.711v11h-34.711z" fill="#fac342" transform="matrix(.707 -.707 .707 .707 -22.472 29.425)"/><rect fill="#546975" height="12" rx="2.5" transform="matrix(.707 .707 -.707 .707 34.054 -8.296)" width="5" x="24.542" y="30.958"/><path d="m1.828 52.172h14a0 0 0 0 1 0 0v3a3 3 0 0 1 -3 3h-8a3 3 0 0 1 -3-3v-3a0 0 0 0 1 0 0z" fill="#61757d" transform="matrix(.707 .707 -.707 .707 41.598 9.917)"/><path d="m13.778 60.121 2.122-2.121-7.779-7.778-2.121 2.121a3 3 0 0 0 0 4.243l3.536 3.535a3 3 0 0 0 4.242 0z" fill="#546975"/><circle cx="29.517" cy="34.483" fill="#f1fbff" r="2.5"/><path d="m37.615 8a24.331 24.331 0 0 0 -7.054 15.337l-.017.219 9.9 9.9.219-.017a24.331 24.331 0 0 0 15.337-7.054z" fill="#ffeb6e"/><g fill="#ffd255"><path d="m56 26.385-16.263-16.264a24.333 24.333 0 0 0 -7.055 15.338l-.017.219 7.779 7.778.219-.017a24.331 24.331 0 0 0 15.337-7.054z"/><rect height="2" rx="1" transform="matrix(.707 -.707 .707 .707 11.502 42.255)" width="6" x="53.757" y="6.243"/><rect height="5.999" rx="1" width="2" x="49" y="2"/><rect height="2" rx="1" width="6" x="56" y="13"/></g></svg>