<svg id="Layer_1" enable-background="new 0 0 64 64" viewBox="0 0 64 64" xmlns="http://www.w3.org/2000/svg"><g><path d="m63.92 31.99c0 .1 0 .19-.01.29-.05 7.45-2.68 14.29-7.05 19.68-1.32 1.64-2.8 3.15-4.44 4.5l-.01.01c-.34.29-.68.56-1.04.83h-.01c-.39.31-.8.61-1.21.91-.03.02-.07.04-.11.06-5.13 3.51-11.34 5.56-18.04 5.56-1.45 0-2.88-.1-4.28-.29 0 0 0 0-.01 0-3.88-.51-7.53-1.73-10.82-3.49l-.02-.01c-3.05-1.64-5.8-3.78-8.14-6.27-.61-.63-1.17-1.3-1.71-1.98-2.44-3.06-4.33-6.58-5.51-10.41-.75-2.38-1.21-4.86-1.36-7.44-.04-.65-.07-1.3-.07-1.95 0-7.11 2.33-13.65 6.27-18.95 1.7-2.29 3.72-4.36 5.98-6.11.2-.16.39-.31.6-.45.02-.01.04-.03.07-.04 2.13-1.58 4.46-2.91 6.96-3.92 3.71-1.53 7.78-2.36 12.04-2.36 13.71 0 25.39 8.61 29.91 20.71 1.3 3.45 2.01 7.21 2.01 11.12z" fill="#f1f3f7"/><g><path d="m30.51 2.6c-.02-.09-.09-.16-.16-.18-.02-.01-.03-.01-.05-.01-3.33-1.01-6.91-.94-10.35.11-2.51 1.01-4.84 2.34-6.96 3.92-.02.01-.04.03-.07.04-.21.14-.4.29-.6.45l-3.26 4.77c-.01.02-.02.04-.03.06-.03.11-.07.22-.1.32-.48 1.75-.53 3.92-.17 6.95.01.11.03.23.04.34s.08.21.16.27c.07.05.15.08.24.08h.07l11.59-1.82c.05-.03.1-.06.15-.09 0-.01.01-.01.01-.01 3.69-4.45 6.94-7.16 10.53-8.76.1-.04.2-.09.29-.13.12-.05.18-.18.15-.3zm-9.97 14.52-10.98 1.73c-.01-.05-.01-.11-.02-.16-.33-2.91-.25-4.98.24-6.6l.28-.41c.47-.68 1.04-1.5 1.56-2.27.16-.25.33-.48.48-.7.64-.93 1.13-1.63 1.13-1.63 4.92-4.05 11.11-5.52 16.58-3.97l1.29 5.25c-3.62 1.63-6.9 4.36-10.56 8.76z" fill="#c6c1c1"/></g><g><path d="m62.47 22.9c-.16-.39-.33-.78-.49-1.16-2.61-5.94-6.4-10.15-11.58-12.84-.03-.02-.07-.03-.1-.05-.13-.06-.29-.05-.41.03l-5.59 3.79c-.17.12-.23.36-.12.54.07.11.12.21.17.31 2.27 4.04 3.35 8.74 3.06 13.31-.01.1.02.18.07.26.03.03.05.08.09.1l8.13 6.26c.08.05.15.09.24.09h.07c2.41-.32 4.67-2 6.26-4.64.05-.08.1-.15.14-.23.04-.07.05-.13.05-.21l.04-5.41c.01-.05 0-.1-.03-.15zm-.82 5.45c-1.43 2.43-3.45 4-5.57 4.35l-2.09-1.61-.02-.01-.02-.02-4-3.1-.07-.04-.02-.01-1.61-1.23c.26-4.65-.87-9.43-3.17-13.53l5.06-3.45c5.25 2.77 9.39 7.81 11.92 14.08.06 1.49-.08 3.02-.41 4.57z" fill="#c6c1c1"/></g><g><path d="m54.63 52.87v.18c0 .08-.02.14-.07.21l-2.15 3.2-.01.01-.27.41c-.02.04-.05.08-.1.11-.28.19-.56.39-.86.57-.35.23-.69.44-1.04.65-.03.02-.07.04-.11.06-4.44 2.62-9.28 3.95-14.46 3.95-.84 0-1.69-.04-2.55-.11h-.01c-.03 0-.08-.01-.11-.01-.15-.01-.29-.12-.35-.27l-1.93-5.55-.1-.28c-.01-.03-.02-.07-.01-.1-.03-.18.08-.36.26-.42.21-.08.44.04.51.25l.12.36 1.83 5.23c6.66.52 12.8-1.15 18.26-4.95l2.32-3.46c.09-2.45-.47-4.71-1.65-6.71l-1.04.09-.01.01-7.93.69-1.51.13c-.07.01-.12 0-.18-.03-.14-.04-.24-.17-.26-.34-.01-.13.04-.25.13-.34.03-.03.09-.06.14-.08.03-.02.07-.03.1-.03l10.78-.94c.07 0 .14.01.2.04.08.03.14.09.18.15 1.34 2.19 1.97 4.64 1.88 7.32z" fill="#c6c1c1"/></g><g><path d="m41.35 46.42-.21-1.17v-.01l-.01-.05-1.9-10.31c-.02-.11-.09-.19-.17-.26-.03-.02-.07-.03-.1-.04l-15.03-5.08c-.08-.02-.14-.03-.21-.01-.08.01-.15.05-.21.11l-9.46 9.11c-.03.02-.05.05-.07.09-.04.06-.07.13-.07.21.12 5.56 1.27 9.68 3.58 12.68 0 .02.02.03.03.05 3.61 3.03 7.96 4.57 12.93 4.57h.16c.1-.01.2-.01.29-.01.04 0 .1-.01.15-.03.11-.04.23-.1.34-.15 3.65-1.61 7.02-4.54 9.99-8.68.03-.04.07-.1.08-.16.01-.04.01-.1 0-.15v-.02zm-10.52 9.05c-4.96.05-9.21-1.4-12.71-4.31-2.13-2.76-3.23-6.69-3.36-12.01l9.14-8.82 14.58 4.92 2.17 11.82c-2.93 4.06-6.24 6.88-9.82 8.4z" fill="#c6c1c1"/></g><g><path d="m1.46 36.47c-.06 0-.12-.01-.18-.04-.2-.1-.29-.34-.19-.54 1.14-2.32 2.72-3.88 4.71-4.63.21-.08.44.03.52.24s-.03.44-.24.52c-1.79.68-3.23 2.1-4.27 4.23-.05.14-.19.22-.35.22z" fill="#c6c1c1"/></g><path d="m14.76 39.16c3.59-3.77 7.26-6.65 9.32-8.82-.92-4.64-1.7-11.04-3.54-13.22-4.03-.9-8.72.49-11.77 1.91-2.28 4.82-2.75 9.1-2.81 12.6 2.26 3.01 5.54 6.57 8.8 7.53z" fill="#333842"/><path d="m47.83 26.85c-2.86 1.96-7.24 5.41-9 8.1.92 4.64 1.76 8.98 2.8 11.77 4.03.9 7.73.47 10.78-.95 2.28-4.82 3.5-9.15 3.56-12.64-3.11-3.39-5.11-4.89-8.14-6.28z" fill="#f0582f"/><path d="m47.83 26.85c-2.86 1.96-7.24 5.41-9 8.1.92 4.64 1.21 9.45 2.25 12.24 4.03.9 8.28 0 11.33-1.42 2.28-4.82 3.5-9.15 3.56-12.64-3.11-3.39-5.11-4.89-8.14-6.28z" fill="#333842"/><g><path d="m14.08 55.77c-.04.18-.21.3-.39.3-.03 0-.07 0-.1-.01-.11-.02-.21-.05-.31-.09-1.45-.42-3.04-1.28-4.57-2.21-.61-.63-1.17-1.3-1.71-1.98.08 0 .14.02.21.06 2.17 1.43 4.44 2.81 6.33 3.35.09.03.16.05.25.08.22.07.36.29.29.5z" fill="#c6c1c1"/></g><g fill="#333842"><path d="m44.48 13.56c-4.19-2.81-8.79-4.34-12.93-4.52l-1.5-6.54c7.79-3.02 16.6.26 20.86 6.67z"/><path d="m33.47 61.86c-.13.09-.28.17-.46.26-1.31.64-3.65 1.14-5.3 1.43 0 0 0 0-.01 0-3.88-.51-7.53-1.73-10.82-3.49l-.02-.01-3.57-4.07h-.01l-.12-.4.38-.37 3.97-3.54.61-.51c4.41 3.64 9.34 4.31 12.4 4.31.25-.01.66-.15.66-.15l.27.84 1.8 5.16z"/><path d="m13.23 7.07s-.49.7-1.13 1.63c-.15.23-.31.45-.48.7-.52.77-1.1 1.59-1.56 2.27l-1.13.41-2.58.95c1.7-2.29 3.72-4.36 5.98-6.11.2-.16.39-.31.6-.45.02-.01.04-.03.07-.04z"/><path d="m1.49 41.38c-.73-2.38-1.19-4.86-1.34-7.44l1.19 1.49.55.68v.01c.02.26.1 4.37-.4 5.26z"/><path d="m56.86 51.97c-1.32 1.64-2.8 3.15-4.44 4.5l-.01.01-.27.41c-.02.04-.05.08-.1.11-.28.19-.56.39-.86.57.05-.09.12-.17.17-.26h.01c1.34-1.96 2.86-4.27 2.86-4.27l.4-.16z"/><path d="m63.92 31.99c0 .1 0 .19-.01.29l-1.64-3.4-.62-.54c.37-.85.53-4.39.34-6.61-.02-.32-.05-.63-.08-.88 1.3 3.47 2.01 7.23 2.01 11.14z"/></g></g></svg>