<svg id="Capa_1" enable-background="new 0 0 512 512" height="512" viewBox="0 0 512 512" width="512" xmlns="http://www.w3.org/2000/svg"><g><path d="m508.988 62.786c-3.538-2.873-8.684-2.345-11.533 1.161l-96.933 118.513c-3.658 4.473-10.381 4.804-14.461.712-3.696-3.706-3.809-9.669-.256-13.512l104.63-113.197c3.073-3.321 2.865-8.508-.456-11.581-3.322-3.073-8.5-2.873-11.581.456l-103.638 112.122c-3.763 4.072-10.159 4.193-14.074.267l-6.29-6.307c-3.907-3.918-3.778-10.298.286-14.054l112.11-103.633c3.322-3.073 3.53-8.26.456-11.581-3.089-3.329-8.268-3.521-11.581-.456l-113.11 104.558c-3.851 3.56-9.828 3.439-13.532-.275l-.205-.205c-4.075-4.086-3.732-10.796.737-14.446l-14.057-3.828c-16.461 13.055-19.692 28.373-14 47 3.712 12.147-.305 30.237-9.5 39l-60.5 56.5 46.29 19.161c30.576-32.056 38.455-40.314 44.341-46.477 8.766-9.178 21.905-11.7 34.039-7.982 18.636 5.711 39.865.042 52.93-16.43l101.048-123.953c2.866-3.514 2.345-8.676-1.16-11.533z" fill="#dad8db"/><path d="m449.216 3.014c-2.857-3.506-8.012-4.034-11.533-1.161l-123.954 101.048c-16.461 13.055-22.133 34.264-16.442 52.891 3.712 12.147 1.164 25.314-8.031 34.077l-46.471 44.287 8.911 22.123 56.311-53.744c9.195-8.762 11.742-21.929 8.031-34.077-5.692-18.627-4.341-42.684 13.519-57.133 0 0-.022.018-.039.032.009-.007.016-.013.039-.032l118.498-96.778c3.506-2.857 4.027-8.019 1.161-11.533z" fill="#c8c5c9"/><path d="m232 263.25-171 159.75c-10.303 10.098-24.71 16.837-30.667 18.667-19.052 5.851-30.386 14.566-26.333 36.333 1.57 8.434 2.621 16.938 8.682 22.719 5.559 5.302 12.588 9.068 20.319 10.526 21.641 4.081 40.778-8.853 46.797-27.698 1.939-6.07 4.741-11.787 9.14-16.397 13.565-14.211 102.151-107.094 166.781-174.852z" fill="#f6d190"/><path d="m40.335 452.042c5.957-1.83 11.516-4.764 21.819-14.862l176.283-168.245-18.8-12.718-168.925 160.987c-10.303 10.098-15.862 13.032-21.819 14.862-19.052 5.851-32.209 25.064-28.156 46.831 1.564 8.397 5.925 16.05 11.945 21.822-.137-.584-.393-1.254-.503-1.846-4.053-21.768 9.103-40.98 28.156-46.831z" fill="#ecbd83"/><path d="m255.72 292.299c7.79-8.167 15.177-15.911 22.071-23.138l-19.333-19.333-19.505 3.729-3.626 18.348z" fill="#c8c5c9"/><path d="m235.325 271.904 23.132-22.077-15.671-15.671-8.155 7.773-14.993 14.288z" fill="#b6b1b7"/></g></svg>