<svg height="512" viewBox="0 0 512 512" width="512" xmlns="http://www.w3.org/2000/svg"><g><path d="m464 488c20.46-7.93 26.322-31.92 22.813-53.58s-23.826-40.673-34.008-60.111-18.076-42.533-12.961-63.871c10.36-7.338 16.655-20.63 18.378-33.208 11.364-2.334 25.085-13.321 31.443-23.025-9.659-2.5-20.94-8.169-27.228-15.916 6.82-6.76 18.324-15.807 25.145-22.567-12.037-1.015-27.7-6.551-34.67-16.418 19.169-57 21.925-118.195 3.088-175.3-8.707 29.963-30.906 52.268-47.272 78.835s-31.628 54.361-24.88 84.827c-31.71-5.078-64.677-6.134-96.24-.214-.971-32.239-16.616-62.131-33.977-89.314s-34.901-43.722-45.631-74.138c-11.368 59.285-11.579 116.125 4.607 174.279-12.637 14.55-28.746 23.014-47.843 20.427 3.693 9.659 11 18.7 20.259 23.316-6.983 9.651-14.258 18.679-25.464 22.718 11.576 7.627 28.236 10.238 41.008 4.847 3.554 13.242 4.763 25.8 15.433 34.413-.448 16.7-10.643 28.57-26.334 34.293s-32.882 5.05-49.574 4.478-27.743-3.041-43.178 3.341c-17.474-21.966-16.939-55.012-2.286-78.958s36.742-42.35 53.743-64.685c19.474-25.585 27.834-50.317 27.629-82.469s-10.959-56.446-36.672-75.75c-32.763-24.6-81.6-26.823-115.771-4.216 22.113 9.223 50.937 33.79 52.261 57.713s-1.946 40.422-11.818 62.253-25.74 48.873-32 72c-13.512 49.916 3.9 90.975 40 128-16 8-41.515 37.629-45.22 61.153s-2.78 50.847 6.22 66.847z" fill="#f98800"/><path d="m452.805 374.309c-10.181-19.437-18.076-42.533-12.961-63.871 10.36-7.338 16.655-20.63 18.378-33.208 11.364-2.334 25.085-13.321 31.443-23.025-9.659-2.5-20.94-8.169-27.228-15.916 6.82-6.76 18.324-15.807 25.145-22.567-12.037-1.015-27.7-6.551-34.67-16.418 19.169-57 21.925-118.195 3.088-175.3-8.708 29.963-30.906 52.268-47.272 78.835s-31.628 54.361-24.88 84.827c-31.71-5.078-64.677-6.134-96.241-.214-.97-32.239-16.615-62.131-33.976-89.314s-34.901-43.721-45.631-74.138c-11.368 59.285-11.579 116.125 4.607 174.279-12.637 14.549-28.746 23.014-47.843 20.427 3.694 9.659 11 18.7 20.259 23.316-6.983 9.651-14.258 18.679-25.464 22.718 11.576 7.627 28.236 10.239 41.008 4.847 3.554 13.242 4.763 25.8 15.433 34.413 5.114 21.339-2.624 50.872-12.805 70.309s-30.5 38.45-34.008 60.111 2.353 45.65 22.813 53.58h272c20.46-7.93 26.322-31.92 22.813-53.58s-23.826-40.673-34.008-60.111z" fill="#f98800"/><path d="m440.961 82.348c8.637-15.26 14.332-33.155 12.325-50.316-10 26.043-29.688 46.665-44.558 70.8-16.105 26.142-31.125 53.481-25.171 83.376.939-18.953 10.011-36.95 20.876-52.7 11.905-17.262 26.2-32.908 36.528-51.16z" fill="#e2710c"/><path d="m267.567 133.507c7.613 11.039 14.343 23.18 18.016 35.979-4.9-25.438-17.861-49.286-31.952-71.348-12.342-19.324-24.773-33.273-34.785-50.65 1.52 12.141 6.131 24.15 12.193 34.86 10.328 18.252 24.623 33.898 36.528 51.159z" fill="#e2710c"/><g fill="#35495e"><path d="m432.571 112.214c9.326-22.815 20.961-57.529 23.087-87.1-8.393 27.636-28.189 48.806-43.958 73.034l.088 22.085z"/><path d="m251.314 94.578c-16.46-24.917-32.8-41.263-43.067-69.9 1.621 28.641 11.772 58.277 22.576 87.69l20.389 7.867z"/></g><path d="m406.56 320.21c-9.14 39.87-36.07 72.71-55.86 108.65l-40.45 9.36c-19.97-39.7-50.88-74.7-60.81-118.01h.73c12.01 6.81 23.64 11.51 33.34 15.64 7.32 3.11 14.75 6.29 21 11.68s6.98 11.48 7.49 20.47l8 16h16l8-16c.51-8.99 1.24-15.09 7.49-20.47s13.68-8.57 21-11.68a261.988 261.988 0 0 0 32.07-15.64z" fill="#ede6d6"/><path d="m245.3 459.522a8 8 0 0 1 -6.8-12.207c1.663-2.69 3.109-7.378 4.509-11.913 1.695-5.5 3.448-11.177 6.187-15.609a8 8 0 1 1 13.61 8.413c-1.663 2.69-3.11 7.379-4.509 11.913q-.133.435-.269.871 2.954-.528 5.846-1.037c6.4-1.13 13.013-2.3 19.778-3.657 10.239-2.055 21.963-3.659 31.506 3.364a8 8 0 0 1 -9.484 12.886c-4.285-3.155-11.988-1.944-18.873-.562-6.948 1.394-13.656 2.579-20.144 3.725-6.4 1.13-13.012 2.3-19.778 3.657a8.033 8.033 0 0 1 -1.579.156z" fill="#f76f00"/><path d="m433.726 456.458a7.98 7.98 0 0 1 -1.9-.23l-65.432-16.041c-8.4-2.058-17.07-4.182-25.3-3.734-7.984.439-14.866 3.606-18.41 8.472a8 8 0 0 1 -12.934-9.425c6.438-8.839 17.542-14.316 30.464-15.027 10.594-.585 20.895 1.942 29.984 4.17l51.156 12.541c-.451-1.337-.88-2.724-1.273-4.184a8 8 0 0 1 15.453-4.15c.733 2.728 1.7 5.3 2.722 8.028 1.112 2.962 2.263 6.025 3.2 9.5a8 8 0 0 1 -7.726 10.075z" fill="#f76f00"/><g fill="#ede6d6"><path d="m256.321 192.839c-10.061-53.923-44.946-112.9-48.074-168.163-.082-.227-.166-.447-.247-.676-11.219 58.506-11.56 114.631 3.99 171.988 6.741-6.875 13.248-14.51 13.2-23.842 10.446 6.654 20.688 14.04 31.131 20.693z"/><path d="m415.938 192.917c8.043-6.921 16.316-11.635 24.36-18.556 3.141 6.539 9.483 14.751 13.634 21.817 18.23-56.106 20.561-116.11 2.068-172.178-.109.375-.229.743-.342 1.115-2.18 30.333-14.368 66.083-23.805 88.845-10.401 25.089-19.26 52.003-15.915 78.957z"/></g><g><path d="m200 272c12.938-11.507 30.657-18.376 46.579-14.19s30.138 14.9 41.807 28.091c16.637 18.814 25.964 40.009 31.614 66.099-1.421 4.626-6.579 11.374-8 16-.513-8.989-1.235-15.088-7.487-20.473s-13.684-8.567-21-11.679c-23.897-10.161-59.513-23.848-83.513-63.848z" fill="#f2f2f2"/><path d="m456 272c-12.938-11.507-30.657-18.376-46.579-14.19s-30.138 14.9-41.807 28.091c-16.637 18.814-25.964 40.009-31.614 66.099 1.421 4.626 6.579 11.374 8 16 .513-8.989 1.235-15.088 7.487-20.473s13.684-8.567 21-11.679c23.897-10.161 56.213-24.433 83.513-63.848z" fill="#f2f2f2"/><path d="m320 352-8 16 8 16h16l8-16-8-16z" fill="#35495e"/></g><path d="m296.006 304a8 8 0 0 1 -7.167-4.436c-2.172-4.361-10.15-10.423-14.227-10.81a13.919 13.919 0 0 0 -11.974 5.238 8 8 0 0 1 -12.723-9.7 29.652 29.652 0 0 1 26.21-11.465c10.377.986 22.832 11.165 27.036 19.607a8 8 0 0 1 -7.155 11.566z" fill="#35495e"/><path d="m359.994 304a8 8 0 0 1 -7.155-11.568c4.2-8.442 16.659-18.621 27.035-19.607a29.683 29.683 0 0 1 26.211 11.465 8 8 0 0 1 -12.723 9.7 13.936 13.936 0 0 0 -11.975-5.238c-4.076.387-12.054 6.449-14.226 10.81a8 8 0 0 1 -7.167 4.438z" fill="#35495e"/><path d="m386 488c12.885-12.276 15.548-30.271 14-48v.19l-31.706-7.773c-9.075-2.225-18.311-4.466-27.641-3.952s-18.936 4.2-24.438 11.75-5.529 19.318 1.475 25.5c5.669 5.007 14.341 5.293 21.44 2.68s12.994-7.653 18.724-12.593c7.855-.8 14.974 4.456 20.486 10.111a26.727 26.727 0 0 1 7.261 21.717z" fill="#475d72"/><path d="m272.32 488.082a41.309 41.309 0 0 1 -6.32-40.082h-1.691c6.871-1.214 13.726-2.417 20.916-3.86 8.517-1.71 18.194-3.186 25.19 1.963l5.8-5.888c-5.5 7.552-5.529 19.318 1.475 25.5 5.669 5.007 14.341 5.293 21.44 2.68s12.994-7.653 18.724-12.593c7.855-.8 14.974 4.456 20.486 10.111a26.727 26.727 0 0 1 7.261 21.717z" fill="#35495e"/><path d="m79.569 463.283a8 8 0 0 1 -2.369-15.643c13.476-4.177 24-8.436 34.816-16.748 13-9.991 16.308-22.414 15.069-30.71a8 8 0 0 1 15.824-2.364c2.44 16.329-5.662 33.864-21.143 45.761-12.71 9.766-24.663 14.642-39.828 19.343a7.986 7.986 0 0 1 -2.369.361z" fill="#f76f00"/><path d="m72 488c-2.911-12.328 1.669-22.029 8-33l-.428.281c11.656-6.227 24.325-10.94 37.5-11.958s26.925 1.9 37.578 9.718 14.262 21.776 13.35 34.959z" fill="#35495e"/><path d="m78.565 200.754c11.091-21.654 26.397-41.754 31.422-65.564 5.654-26.792-3.438-56.224-23.219-75.158-15.74-15.066-37.824-23.071-59.552-22.281-1.235.733-2.458 1.489-3.659 2.283 22.113 9.223 50.937 33.79 52.261 57.713s-1.946 40.422-11.818 62.253-25.74 48.873-32 72c-13.053 48.222 2.758 88.177 36.394 124.216-17.867-50.302-14.167-107.93 10.171-155.462z" fill="#e2710c"/><path d="m111.63 119.85-35.54-14.22c-.01-.63-.02-1.27-.04-1.92-.01-.55-.03-1.1-.04-1.66-.05-1.4-.11-2.84-.19-4.3-1.33-23.93-30.15-48.49-52.26-57.72.6-.39 1.2-.78 1.82-1.16.6-.38 1.22-.75 1.84-1.12h.03c21.71-.78 43.79 7.23 59.52 22.28 16.05 15.37 25.06 37.65 24.86 59.82z" fill="#ddd2bc"/><path d="m76.05 103.71c.02.65.03 1.29.04 1.92h-.01z" fill="#ede6d6"/><path d="m152 55.41v40.59l-40-16v40l-.37-.15c.2-22.17-8.81-44.45-24.86-59.82-15.73-15.05-37.81-23.06-59.52-22.28 33.92-20.11 80.48-17.23 112.08 6.5a103.646 103.646 0 0 1 12.67 11.16z" fill="#ede6d6"/><g><path d="m79.572 455.281c.126-.067.255-.132.381-.2l.047-.081z" fill="#35495e"/><path d="m154.65 453.041c-10.653-7.818-24.4-10.736-37.578-9.718-13.032 1.007-25.568 5.632-37.119 11.759l-.14.246c8.037-.246 16.1-.19 23.928 1.562 9.49 2.125 18.741 7.067 24.009 15.24a28.5 28.5 0 0 1 4.45 15.87h35.8c.913-13.183-2.7-27.14-13.35-34.959z" fill="#475d72"/></g><path d="m327.745 457.132c6.25-1.521 11.983-4.623 17.985-6.936a75.435 75.435 0 0 1 54.641.445 98.262 98.262 0 0 0 -.371-10.641v.19l-31.706-7.773c-9.075-2.225-18.312-4.466-27.641-3.952s-18.936 4.2-24.438 11.75a21.39 21.39 0 0 0 -3.619 16.124c4.604 2.061 10.157 2.009 15.149.793z" fill="#627789"/><path d="m342.514 466.928a34.23 34.23 0 0 1 -3.384 1.47c-7.1 2.613-15.771 2.327-21.441-2.68a15.592 15.592 0 0 1 -4.3-6.442c-.791-.04-1.582-.076-2.371-.1a160.546 160.546 0 0 0 -47.55 5.559 41.173 41.173 0 0 0 8.847 23.349l84.845-.336c-1.303-8.483-7.209-16.198-14.646-20.82z" fill="#2e4251"/><g><path d="m69.323 361.494c-16.023 9.706-39.038 37.406-42.543 59.659-3.705 23.524-2.78 50.847 6.22 66.847h33.978c-18.92-39.4-18.148-87.849 2.345-126.506z" fill="#e2710c"/><path d="m116.148 361.332c14.758 3.884 30.1 6.389 45.273 4.76s30.248-7.723 40.6-18.935c8.058-8.729 12.805-20.787 12.2-32.519-3.6 11.144-12.438 19.235-24.556 23.655-15.691 5.724-32.882 5.05-49.574 4.478s-27.743-3.041-43.178 3.341c-.125-.157-.24-.32-.363-.478l-16.25 11.159c11.9-2.57 24.081 1.441 35.848 4.539z" fill="#f98800"/></g><g fill="#f76f00"><path d="m198.8 477.181c-7.4-9.58-9.586-22.378-8.5-34.434s5.137-23.618 9.157-35.035q6.39-18.142 12.779-36.284c3.541-10.052 7.124-20.343 7.135-31a39.24 39.24 0 0 0 -2.165-12.942 133.073 133.073 0 0 1 -14.006 46.823c-10.182 19.438-30.5 38.45-34.008 60.111s2.348 45.65 22.808 53.58h21.92a32.827 32.827 0 0 1 -15.12-10.819z"/><path d="m452.805 374.309c-7.318-13.972-13.455-29.833-14.428-45.574a39.593 39.593 0 0 0 -1.743 11.692c.011 10.658 3.594 20.949 7.135 31q6.389 18.143 12.779 36.284c4.02 11.417 8.074 22.98 9.157 35.035s-1.1 24.854-8.5 34.434a32.827 32.827 0 0 1 -15.125 10.82h21.92c20.46-7.93 26.322-31.92 22.813-53.58s-23.826-40.673-34.008-60.111z"/></g></g></svg>