<svg id="Layer_1" height="512" viewBox="0 0 64 64" width="512" xmlns="http://www.w3.org/2000/svg" data-name="Layer 1"><path d="m32.861 54c-4.108 2-10.269 7-17.458 0a11.181 11.181 0 0 1 -3.583-7.83c-.175-3.61 1-7.2.934-10.42a10.522 10.522 0 0 0 1.623-4.75 17.735 17.735 0 0 1 4.107 3 11.87 11.87 0 0 0 1.027-5 11.335 11.335 0 0 0 4.108 2l.708-3.44a30.318 30.318 0 0 1 4.108 9.62 14.046 14.046 0 0 1 .318 2.82c0 6 1.027 6 1.027 6s7.188 6 3.081 8z" fill="#ff7b22"/><path d="m38.149 58.91a1 1 0 0 1 -.154.09 13.389 13.389 0 0 1 -1.263.49c-.554.18-1.232.39-1.982.6-4.15 1.15-10.65 2.38-12.158.91-1.561-1.52 4.6-3.62 7.64-4.54.955-.29 1.6-.46 1.6-.46s.421.1 1.047.27c.894.25 2.229.63 3.348 1.05 1.44.54 2.528 1.14 1.922 1.59z" fill="#724a29"/><path d="m32.861 54c-4.108 2-10.269 7-17.458 0a11.181 11.181 0 0 1 -3.583-7.83 12.6 12.6 0 0 0 6.664 1.83c4.262 0 8.031-6.69 9.951-10.82a14.046 14.046 0 0 1 .318 2.82c0 6 1.027 6 1.027 6s7.188 6 3.081 8z" opacity=".1"/><path d="m63.75 61c-1.551 1.51-8.328.18-12.467-1-.051-.01-.113-.03-.164-.04a22.415 22.415 0 0 1 -2.577-.88 1.148 1.148 0 0 1 -.2-.08c-1.252-.61 1.305-1.59 3.492-2.26.462-.14.914-.27 1.3-.38.8-.22 1.366-.36 1.366-.36s.8.21 1.93.56c3.14.96 8.829 2.97 7.32 4.44z" fill="#724a29"/><path d="m59.56 52a9.665 9.665 0 0 1 -3.122 4.56 21.106 21.106 0 0 1 -5.155 3.44c-.072.03-.133.07-.2.1a21.421 21.421 0 0 1 -3.461 1.25 18.464 18.464 0 0 1 -7.373.47 16.486 16.486 0 0 1 -3.07-.73 17.176 17.176 0 0 1 -2.424-1 19.126 19.126 0 0 1 -1.894-1.09 9.37 9.37 0 0 1 -2.629-2.54 10.38 10.38 0 0 1 -1.52-3.47.01.01 0 0 0 -.01-.01c-1.674-6.78 1.889-16.28 4.857-22.52.555 2.76 1.571 5.75 3.409 7.54 0 0 1.027 0 4.108-3 0 0 0 7 3.081 10 0 0 5.134-5 5.134-10a6.41 6.41 0 0 0 3.081 5 19.234 19.234 0 0 0 1.8-6.82c2.29 5.74 4.847 12.75 5.36 16.7a6.407 6.407 0 0 1 .028 2.12z" fill="#ff6700"/><path d="m37.3 9-5.443 3.03-1.748.97a5.44 5.44 0 0 1 -.606-.44 3.221 3.221 0 0 1 -.411-.34c-4.909-4.26-3.092-12.22-3.092-12.22 4.477 0 8.41 4.75 10.228 7.35.689.98 1.072 1.65 1.072 1.65z" fill="#ff6700"/><path d="m34.052 9s-2.052-5-6.161-6a10.033 10.033 0 0 0 2.916 9z" fill="#724a29"/><path d="m57.322 12.37a4.747 4.747 0 0 1 -.514.4 3.86 3.86 0 0 1 -.329.23l-.729-.41-6.459-3.59s.36-.63 1.007-1.56c1.786-2.58 5.76-7.44 10.289-7.44 0 0 1.859 8.15-3.265 12.37z" fill="#ff6700"/><path d="m52.372 9s2.054-5 6.161-6a10.414 10.414 0 0 1 -3.08 9z" fill="#724a29"/><path d="m24.327 27.56-.708 3.44a11.335 11.335 0 0 1 -4.108-2 11.87 11.87 0 0 1 -1.027 5 17.735 17.735 0 0 0 -4.107-3 10.522 10.522 0 0 1 -1.623 4.75 8.518 8.518 0 0 0 -.431-2.75c-1.91-5.57-10.9-8.56-12.169-8.95-.103-.03-.154-.05-.154-.05 5.514-7.16 13.493-5.51 18.053-2.93a13.8 13.8 0 0 1 1.458.93 21.375 21.375 0 0 1 4.816 5.56z" fill="#fdedc7"/><path d="m57.72 42.84c-12.75 4.94-17.77 2.87-22.81 1.82a8.836 8.836 0 0 1 -5.52-3.14 65.882 65.882 0 0 1 4.17-11.06c.55 2.76 1.57 5.75 3.41 7.54 0 0 1.03 0 4.11-3 0 0 0 7 3.08 10 0 0 5.13-5 5.13-10a6.411 6.411 0 0 0 3.08 5 19.3 19.3 0 0 0 1.8-6.82c1.23 3.08 2.53 6.52 3.55 9.66z" fill="#ff7b22"/><path d="m54.169 33.18a19.234 19.234 0 0 1 -1.8 6.82 6.41 6.41 0 0 1 -3.081-5c0 5-5.134 10-5.134 10-3.081-3-3.081-10-3.081-10-3.081 3-4.108 3-4.108 3-1.838-1.79-2.854-4.78-3.409-7.54 1.821-3.85 3.412-6.46 3.412-6.46h13.35s1.828 4.08 3.851 9.18z" fill="#fdedc7"/><path d="m63.637 21.93c-2.773-2.38-6.377-4.93-9.109-4.93-4.159 0-8.985 4.28-10.371 10-.113.01-.925 0-1.027 0-.072 0-.955.01-1.027 0-1.386-5.72-6.11-10-10.269-10-2.762 0-6.429 2.61-9.211 5.02-.023-.02-.031-.02-.031-.02a31.9 31.9 0 0 1 6.008-9.27q.231-.255.493-.51c.318-.33.657-.65 1.017-.97a21.717 21.717 0 0 1 3.717-2.73 17.689 17.689 0 0 1 2.4-1.17 18.009 18.009 0 0 1 6.903-1.35 18.309 18.309 0 0 1 7.17 1.44 19.843 19.843 0 0 1 2.259 1.15 22.287 22.287 0 0 1 3.594 2.65c.411.37.8.75 1.171 1.13.174.18.338.35.5.53a32.059 32.059 0 0 1 5.813 9.03z" fill="#ff7b22"/><path d="m43.13 28c-6.11-.13-19.8-5.7-20.507-5.98 2.782-2.41 6.449-5.02 9.211-5.02 4.159 0 9.242 4 11.296 11z" fill="#ffe2a9"/><path d="m63.668 22s-14.213 5.8-20.538 6c2.054-7 7.239-11 11.4-11 2.732 0 6.336 2.55 9.109 4.93a.721.721 0 0 0 .029.07z" fill="#ffe2a9"/><path d="m41.289 25h3.682a.541.541 0 0 1 .363.917l-1.841 1.926a.5.5 0 0 1 -.726 0l-1.841-1.926a.54.54 0 0 1 .363-.917z" fill="#751515"/><path d="m40.542 59.6a18.643 18.643 0 0 1 -.3 2.22c-.257 1.35-.657 2.18-1.222 2.18-.667 0-1.283-1.13-1.848-2.91-.154-.49-.308-1.02-.442-1.6-.113-.4-.215-.83-.308-1.27-.072-.29-.133-.59-.2-.9-.637-3.05-1.15-6.69-1.54-9.84a5.89 5.89 0 0 0 2.286-1.48s0 1 3.081 1a1.587 1.587 0 0 0 .452-.07 106.741 106.741 0 0 1 .041 12.67z" fill="#724a29"/><path d="m53.327 47c-.37 3.06-.873 6.65-1.489 9.74-.031.22-.082.43-.123.64-.185.92-.391 1.79-.6 2.58-.01.05-.031.09-.041.14-.637 2.33-1.356 3.9-2.146 3.9-.637 0-1.048-1.02-1.315-2.65-.092-.55-.154-1.18-.215-1.86a101.6 101.6 0 0 1 .02-11.87 5.2 5.2 0 0 0 2.9-1.62s0 .98 3.009 1z" fill="#724a29"/><path d="m40.5 46.93a1.587 1.587 0 0 1 -.452.07c-3.081 0-3.081-1-3.081-1a5.89 5.89 0 0 1 -2.279 1.48c-.514-4.16-.8-7.48-.8-7.48h6.161s.257 3.03.451 6.93z" fill="#ff7b22"/><path d="m54.066 40s-.267 3.06-.739 7c-3.009-.02-3.009-1-3.009-1a5.2 5.2 0 0 1 -2.9 1.62c.2-4.23.483-7.62.483-7.62z" fill="#ff7b22"/><ellipse cx="33.888" cy="21.5" fill="#724a29" rx="1.027" ry="1.5"/><ellipse cx="52.372" cy="21.5" fill="#724a29" rx="1.027" ry="1.5"/><path d="m63.75 61c-1.551 1.51-8.328.18-12.467-1-.072.03-.133.07-.2.1-.637 2.33-1.356 3.9-2.146 3.9-.637 0-1.048-1.02-1.315-2.65a18.464 18.464 0 0 1 -7.373.47c-.257 1.35-.657 2.18-1.222 2.18-.667 0-1.283-1.13-1.848-2.91a17.176 17.176 0 0 1 -2.424-1c-4.155 1.15-10.655 2.38-12.163.91-1.561-1.52 4.6-3.62 7.64-4.54a10.38 10.38 0 0 1 -1.52-3.47 30.909 30.909 0 0 0 4.169 3.28 25.959 25.959 0 0 0 3.543 1.95c.555.25 1.13.49 1.725.69a18.779 18.779 0 0 0 2.393.69 17.089 17.089 0 0 0 3.615.4 10.889 10.889 0 0 0 3.245-.51 11.025 11.025 0 0 0 1.14-.41 17.017 17.017 0 0 0 3.173-1.7c.493-.32.965-.66 1.427-1.02a37.8 37.8 0 0 0 6.387-6.48 6.407 6.407 0 0 1 .031 2.12 9.665 9.665 0 0 1 -3.122 4.56c3.132.96 8.821 2.97 7.312 4.44z" opacity=".1"/><g fill="#fff"><path d="m18.053 21.07c-2.553 1.88-6.603 4.19-9.838 2.93a11.909 11.909 0 0 0 -8.061.05c-.103-.03-.154-.05-.154-.05 5.514-7.16 13.493-5.51 18.053-2.93z" opacity=".4"/><path d="m57.322 12.37c.174.18.338.35.5.53-.329-.03-.668-.08-1.017-.13s-.7-.11-1.058-.18c-4.515-.81-9.691-2.59-13.647-2.59-3.183 0-6.767 1.15-10.249 2.03-.79.2-1.581.38-2.351.53-.308.07-.606.12-.9.17q.231-.255.493-.51c-4.91-4.26-3.093-12.22-3.093-12.22 4.477 0 8.41 4.75 10.228 7.35a18.009 18.009 0 0 1 6.902-1.35 18.309 18.309 0 0 1 7.17 1.44c1.784-2.58 5.758-7.44 10.287-7.44 0 0 1.859 8.15-3.265 12.37z" opacity=".1"/></g></svg>