<svg id="Layer_1" enable-background="new 0 0 300 300" viewBox="0 0 300 300" xmlns="http://www.w3.org/2000/svg"><g><g><path d="m265.8 175.6c-5.4-6.6-11.6-16.6-16.3-24.5-.1-.2-.3-.5-.4-.7-.1-.1-.2-.3-.3-.4-7.4-12.3-15.4-24.6-27.8-33.9-16.7-12.5-42.6-18.8-44.2-19.1 0 0 14.3 10.4 15.7 20.3l-11.5 14.6 9.7 30 16.6 9.6c2.4 1.8 4.8 3.5 7.4 5.2.2.1.3.2.5.3.3.2.6.4.9.6h.1c7.1 4.5 14.7 8.7 21.9 12.2l2.5 1.2 8.3 1.9s6.7-.7 9-1.8l-5.6-6.8s12 3.2 15.7 1.4c0-.1-5.4-8.7-2.2-10.1z" fill="#db4a27"/></g><g><g><path d="m98 185.8c1.8-.9 3.6-4.5 5.2-4.5-.3-5.9-.8-11.1-1.2-14.8-4 3.8-10.2 8.8-16.4 11.6l.9 5c.2-.1 6.4 5.3 11.5 2.7z" fill="#db4a27"/></g><g><path d="m92.6 216.3c-4.8 1.9-7.6 4.4-8 6-.1.4-.1.8.1 1 1 1.5 5.9 4 14.8 2.1 5.2-1.1 4.9-25.7 3.8-44.2-1.6 0-3.4.2-5.2 1.2-5.1 2.7-11.4.6-11.4.6l6.1 32.8c.1.3-.1.5-.2.5z" fill="#6d2a1d"/></g></g><g><g><path d="m158.5 179.4c3-.9 8.2-1.9 11.5-1.2-1-5.1-3-8.9-3.2-9.1-7.7-4.5-13.1-9.7-17.6-14.9-2.8 4.2-4 10.6-3.1 15.4.5 2.6 1.6 5 2.8 7.1 2.8.8 6.8 3.5 9.6 2.7z" fill="#db4a27"/></g><g><path d="m154.7 183.5c.8.5 1 2 .5 4.4-1.2 6.2-6.7 18.2-11.2 19-3 .6-5.9 3.2-5.7 5.2.1 1.7 2.1 2.7 5.7 2.9 9.8.5 17.6-11.4 24.2-22.7 2.7-4.7 2.7-9.9 1.8-14.3-3.3-.6-8.4-1.4-11.5-.4-2.8.9-6.8-.2-9.6-1.1 2.1 3.7 4.7 6.2 5.8 7z" fill="#6d2a1d"/></g></g><g><g><path d="m48.8 118.1c-3.2-.9-5.8-.8-7.8.5-2.6 1.6-3.3 4.3-3.3 4.4-.1.3 0 .6.3.8.1.1.3.2.5.2.1 0 .3 0 .4-.1 5.8-3.1 9.9-4.2 9.9-4.2.4-.1.6-.4.6-.8s-.2-.7-.6-.8z" fill="none"/></g><g><path d="m17.6 114.2c-.4 0-.7.3-.8.6s0 .7.3.9c0 0 2.7 1.8 6 5.7.2.2.4.3.6.3h.2c.3-.1.5-.4.6-.7 0-.1.3-2.9-1.6-4.9-1.1-1.4-2.9-2-5.3-1.9z" fill="none"/></g><g><g><path d="m203 186.6c2.4-1.2 5.4-5 7.4-5.2-.1-.3-.2-.5-.3-.8-1-3.1-2.2-6.1-3.5-9-.5-1-1-2-1.5-3-1.4-2.6-2.7-4.4-3.9-5.8l-.5-.6c-.1-.1-.3-.3-.4-.4l-.9-.8-.7-.6c-.7-.5-1.4-1.1-2.1-1.6l-1-.8c-1.9-1.4-4.5-3.7-6-6.7-1.2-2.4-1.8-5.3-1.7-8.5 0-2.6.5-4.9.9-7.2l.1-.3c.5-2 1-4.3 1.7-6.4l.3-.8c.4-1.2.7-2.3.9-3.4.2-1.3.4-3 .7-5 0-.9 0-1.8-.1-2.7v-.1c-1.4-9.9-15.7-20.3-15.7-20.3-.1 0-.1 0-.2 0-2.4-1.2-4.9-2.3-7.5-3.3-19.9-6.9-80.7-3.4-98.1.1v-.4c0-.2-.9-12.8-3.4-18.1-2.3.3-18.1 2.7-20.5 14.6 0 .2-.2.3-.3.3-.2 0-.3 0-.4-.2 0 0-3.2-4-17.9-2-.1 0-.3 0-.4-.1.1 0-8.4-10.3-23-15.6.1 2.7 1.1 14.2 8.1 25.8.1.1.1.2 0 .3 0 .1-3.5 10.8-1.8 14.6l.4.8c1.9 4.3 5.6 12.3 6.1 17.6.3 2.6-.8 5-1.9 7.2-1.3 2.7-2.5 5.3-1.6 8.5.4 1.5 2.1 6.3 6.6 7.7 3.7 1.2 8.2-.4 13.3-4.6 3.4-2.8 6.8-5.2 9.9-7.2 0 0 .1-.1.1-.1 8.3-5.4 15-8.2 15.1-8.2.2-.1.5 0 .5.2.1.2 0 .5-.2.5-.1 0-3.1 1.1-11.1 6.1 3.1 1.7 12.9 5.7 15.3 8.9 2.6 3.4 13 13.4 13.1 13.4.1.1.2.2.2.4s-.1.3-.3.4c-.1 0-5.8 2.5-11.4 5.1 0 0 .8 4.2 3.7 6s7.2 6.7 7.2 6.7c12-4.5 27-11.5 28.5-20.1.6-3.8-1.5-7.7-6.4-11.6l-.5-.4 44.1-4.9c.1 0 .3.1.4.2.1.3 15.2 25.2 37.6 31.1.1 0 8.7 1.3 14.1 7s4.6 5.4 8.9 3.3zm-178.4-65.7c0 .3-.3.6-.6.7-.1 0-.2 0-.2 0-.2 0-.5-.1-.6-.3-3.3-3.9-6-5.7-6-5.7-.3-.2-.4-.6-.3-.9s.4-.6.8-.6c2.4-.1 4.3.6 5.5 1.9 1.7 2 1.4 4.8 1.4 4.9zm24.2-1.2s-4.1 1.1-9.9 4.2c-.1.1-.3.1-.4.1-.2 0-.4-.1-.5-.2-.3-.2-.4-.5-.3-.8 0-.1.7-2.8 3.3-4.4 2-1.2 4.7-1.4 7.8-.5.4.1.6.4.6.8s-.3.7-.6.8z" fill="#f26738"/></g></g><g><path d="m196.1 215c0 .1-.1.2-.3.3-.1 0-7.6 2.2-9.3 5.4-.4.7-.4 1.4-.2 2.1 1.4 3.8 3.3 6.6 14.4 4.8 4.7-.8 8.4-4.5 9.1-9.1 1.2-7.6 2.5-18.7 2.2-29.3 0-1-.2-2-.4-3 0-.1-.1-.3-.1-.4-.3-1.3-.7-2.7-1.2-4.2-2.1.2-5 .7-7.4 1.9-4.4 2.1-8.9 0-8.9 0 1.8 1.9 3.2 4.2 3.8 7.1 2.8 11.5-1.6 24.2-1.7 24.4z" fill="#6d2a1d"/></g></g><g><g><path d="m48.8 118.1c-3.2-.9-5.8-.8-7.8.5-2.6 1.6-3.3 4.3-3.3 4.4-.1.3 0 .6.3.8.1.1.3.2.5.2.1 0 .3 0 .4-.1 5.8-3.1 9.9-4.2 9.9-4.2.4-.1.6-.4.6-.8s-.2-.7-.6-.8z" fill="none"/></g><g><path d="m17.6 114.2c-.4 0-.7.3-.8.6s0 .7.3.9c0 0 2.7 1.8 6 5.7.2.2.4.3.6.3h.2c.3-.1.5-.4.6-.7 0-.1.3-2.9-1.6-4.9-1.1-1.4-2.9-2-5.3-1.9z" fill="none"/></g><g><path d="m71.2 174.9c-2.9-1.8-4.5-5.8-4.5-5.9-9.7 4.6-23 11.4-24.1 15.5-1.8 6.9 2.2 18.7 7 26.8 0 .1.5 1.1 1.6 1.2 1 .1 2.8-.6 5.6-4.2 1-1.4 1.5-3.1 1.2-4.8-.1-.9-.3-1.7-.4-2.6-.9-5.1-2-10.8 4.8-13.5 1.1-.5 2.8-1 5-1.8 2.5-.9 5.6-1.9 8.9-3.2.1 0-2.2-5.7-5.1-7.5z" fill="#6d2a1d"/></g></g><g><g><path d="m17.6 114.2c-.4 0-.7.3-.8.6s0 .7.3.9c0 0 2.7 1.8 6 5.7.2.2.4.3.6.3h.2c.3-.1.5-.4.6-.7 0-.1.3-2.9-1.6-4.9-1.1-1.4-2.9-2-5.3-1.9z" fill="none"/></g><g><path d="m192.6 119.7c.1-.9.1-1.8 0-2.8v.1z" fill="none"/></g><g><path d="m48.8 118.1c-3.2-.9-5.8-.8-7.8.5-2.6 1.6-3.3 4.3-3.3 4.4-.1.3 0 .6.3.8.1.1.3.2.5.2.1 0 .3 0 .4-.1 5.8-3.1 9.9-4.2 9.9-4.2.4-.1.6-.4.6-.8s-.2-.7-.6-.8z" fill="none"/></g></g><g><g><circle cx="21.9" cy="146.2" fill="#3e1910" r="3.9"/></g><g><path d="m21.9 150c-2.1 0-3.9-1.7-3.9-3.9 0-2.1 1.7-3.9 3.9-3.9 2.1 0 3.9 1.7 3.9 3.9s-1.8 3.9-3.9 3.9z" fill="#3e1910"/></g><g><path d="m23.2 121.4c.2.2.4.3.6.3h.2c.3-.1.5-.4.6-.7 0-.1.3-2.9-1.6-4.9-1.2-1.3-3.1-2-5.5-1.9-.4 0-.7.3-.8.6s0 .7.3.9c.2 0 2.8 1.8 6.2 5.7z" fill="#3e1910"/></g><g><path d="m48.8 118.1c-3.2-.9-5.8-.8-7.8.5-2.6 1.6-3.3 4.3-3.3 4.4-.1.3 0 .6.3.8.1.1.3.2.5.2.1 0 .3 0 .4-.1 5.8-3.1 9.9-4.2 9.9-4.2.4-.1.6-.4.6-.8s-.2-.7-.6-.8z" fill="#3e1910"/></g></g><g><path d="m239.7 190.6s13.2 1.7 16.5 0c0 0-5-4.1-7-8.1 0 0 11 3.5 17.8 2.8 0 0-5-9.7-4.4-13.8 0 0 23.7 26.6 32.4 28.3 0-.1-25.5 6.7-55.3-9.2z" fill="#feddc7"/></g><g><path d="m67 100c1 .8-.6-12.8-1.3-18.5-.2-1.3-1.4-2.1-2.6-1.7-11 3.8-12.3 12.3-12.3 12.3l.7.2s6.2.4 15.5 7.7z" fill="#bb3e26"/></g><g><path d="m44.3 142.8s17.9 10.1 20.2 13.2 12 7.5 12 7.5-5.9-10.7-4.5-15.9c1.5-5.3-10.6-13.9-12.5-13-2.1.8-9.4 4.2-15.2 8.2z" fill="#feddc7"/></g><g><path d="m16.8 93.6s3.8-3.1 7-4.4c0 0-6-7.2-13.7-11.7-.4-.2-.9.2-.7.6 1.1 3.5 4.7 13.4 7.4 15.5z" fill="#bb3e26"/></g></g></svg>