<svg id="Capa_1" enable-background="new 0 0 512 512" height="512" viewBox="0 0 512 512" width="512" xmlns="http://www.w3.org/2000/svg"><g><path d="m27.809 77.044h456.382v56.35h-456.382z" fill="#26a6fe"/><path d="m453.207 77.035h30.988v56.352h-30.988z" fill="#0598e2"/><g><path d="m74.04 421.975h-46.231v43.62c0 5.647 4.578 10.225 10.225 10.225h25.781c5.647 0 10.225-4.578 10.225-10.225z" fill="#7a6d79"/><path d="m484.191 421.975h-46.231v43.62c0 5.647 4.578 10.225 10.225 10.225h25.781c5.647 0 10.225-4.578 10.225-10.225z" fill="#685e68"/></g><path d="m499.953 442.728h-487.906c-6.653 0-12.047-5.394-12.047-12.047v-297.729c0-6.653 5.394-12.047 12.047-12.047h186.825l57.128 19.048 57.128-19.048h186.825c6.653 0 12.047 5.394 12.047 12.047v297.729c0 6.653-5.393 12.047-12.047 12.047z" fill="#dff6fd"/><path d="m512 132.955v297.722c0 6.655-5.398 12.053-12.043 12.053h-30.988c6.655 0 12.053-5.398 12.053-12.053v-297.722c0-6.655-5.398-12.053-12.053-12.053h30.988c6.645 0 12.043 5.398 12.043 12.053z" fill="#c8effe"/><path d="m499.953 89.527h-487.906c-6.653 0-12.047-5.393-12.047-12.046v-29.255c0-6.653 5.394-12.046 12.047-12.046h487.907c6.653 0 12.047 5.394 12.047 12.047v29.255c-.001 6.652-5.394 12.045-12.048 12.045z" fill="#dff6fd"/><path d="m512 48.223v29.257c0 6.655-5.398 12.043-12.043 12.043h-30.988c6.655 0 12.053-5.388 12.053-12.043v-29.257c0-6.645-5.398-12.043-12.053-12.043h30.988c6.645 0 12.043 5.398 12.043 12.043z" fill="#c8effe"/><path d="m198.872 120.905h83.276l19.239 22.432c0 8.651-26.252 15.664-34.902 15.664h-51.949c-8.651 0-15.664-7.013-15.664-15.664z" fill="#99e6fc"/><path d="m282.149 120.905v22.432c0 8.651-7.013 15.664-15.664 15.664h30.979c8.651 0 15.664-7.013 15.664-15.664v-22.432z" fill="#62dbfb"/><path d="m101.519 396.356h-44.519c-8.615 0-15.598-6.984-15.598-15.598 0-8.615 6.984-15.598 15.598-15.598h44.518c8.615 0 15.598 6.984 15.598 15.598.001 8.614-6.983 15.598-15.597 15.598z" fill="#a2e62e"/><g><path d="m74.04 166.728h-32.638c-4.267 0-7.726-3.459-7.726-7.726s3.459-7.726 7.726-7.726h32.638c4.267 0 7.726 3.459 7.726 7.726s-3.459 7.726-7.726 7.726z" fill="#c8effe"/></g><g><path d="m117.117 196.344h-75.715c-4.267 0-7.726-3.459-7.726-7.726s3.459-7.726 7.726-7.726h75.715c4.267 0 7.726 3.459 7.726 7.726s-3.459 7.726-7.726 7.726z" fill="#c8effe"/></g><g fill="#f2fbff"><path d="m475.642 350.312-17.628-10.377h13.708c4.268 0 7.726-3.459 7.726-7.726s-3.459-7.726-7.726-7.726h-13.707l17.627-10.376c3.677-2.165 4.903-6.901 2.738-10.578-2.164-3.677-6.901-4.902-10.577-2.739l-40.249 23.693h-12.252v-12.253l23.693-40.248c2.165-3.677.939-8.413-2.738-10.578-3.679-2.164-8.413-.939-10.577 2.739l-10.377 17.628v-13.708c0-4.267-3.459-7.726-7.726-7.726-4.268 0-7.726 3.459-7.726 7.726v13.708l-10.377-17.628c-2.164-3.678-6.902-4.901-10.577-2.739-3.677 2.165-4.903 6.901-2.738 10.578l23.693 40.248v12.253h-12.253l-40.248-23.693c-3.679-2.165-8.413-.939-10.577 2.739-2.165 3.677-.939 8.413 2.738 10.578l17.626 10.376h-13.707c-4.268 0-7.726 3.459-7.726 7.726s3.459 7.726 7.726 7.726h13.707l-17.627 10.377c-3.677 2.165-4.903 6.901-2.738 10.578 1.44 2.447 4.018 3.808 6.665 3.808 1.332 0 2.682-.345 3.912-1.069l40.248-23.694h12.253v12.254l-23.693 40.247c-2.165 3.677-.939 8.413 2.738 10.578 3.677 2.163 8.412.937 10.577-2.739l10.377-17.628v13.708c0 4.267 3.459 7.726 7.726 7.726 4.268 0 7.726-3.459 7.726-7.726v-13.708l10.377 17.628c1.44 2.447 4.018 3.808 6.665 3.808 1.332 0 2.682-.345 3.912-1.069 3.677-2.165 4.903-6.901 2.738-10.578l-23.693-40.247v-12.254h12.252l40.249 23.694c1.231.725 2.58 1.069 3.912 1.069 2.647 0 5.225-1.362 6.665-3.808 2.166-3.677.94-8.413-2.737-10.578z"/><g><g><circle cx="360.347" cy="378.89" r="7.726"/><circle cx="455.69" cy="378.89" r="7.726"/></g><g><circle cx="360.347" cy="285.534" r="7.726"/><circle cx="455.69" cy="285.534" r="7.726"/></g></g></g></g></svg>