<svg id="Layer_1" enable-background="new 0 0 75 75" viewBox="0 0 75 75" xmlns="http://www.w3.org/2000/svg"><g id="_x34_1"><g><path d="m47.4165001 69.428772c-.7599487-.25-.6799927-1.2599487-.6799927-1.2599487l-8.7600098-4.1000366s-2.75.1500244-3.1900024 1.8400269-.4400024 1.7799683-.4400024 1.7799683.3400269 2.0200195-.8999634 1.7900391c-1.25-.2200317-.5599976-1.6800537-.5599976-1.6800537s1.1699829-4.62994.8300171-4.8599815c-.3400269-.2199707-4.6000366-1.4199829-7.6900024-1.9699707-3.0800171-.5599976-7.1199951-3.3200073-5.2300415-5.1000366 1.8900146-1.789978 7.5599976-1.4400024 7.5599976-1.4400024s-3.2199707-1.75-4.8099976-3.1199951c-.1499634-.1300049-.289978-.25-.4099731-.3699951-.3500366-.3599854-.5400391-.6699829-.4400024-.8900146.4500122-1.0499878 8.7799683-.2699585 11.4699707 1.0400391.1000023.0493965 4.7975082.9263153 5.1300049 3.7199707.1600342 1.3300171-.2600098 2.1100464-.7399902 2.5499878-.5299683.5-1.1499634.5900269-1.1499634.5900269s.2599487.8599854 1.3599854.9899902c1.7979813.1636353 3.5666084.1730957 3.9199829.1900024 0 0 1.0800171-.8800049 1.7299805 0 .6500244.8900146.2600098 1.6300049-1.1399536 1.4299927-1.3900146-.1900024-2.3000488-.1699829-2.3000488-.1699829s-2.1199951.25-.8699951 1.8800049c.8200073 1.0599976 2.3800049 2.010006 2.3800049 2.010006l5.0100098 2.9299927s1.3499756-.3300171 1.4799805.75-.8099979 1.7199702-1.5599979 1.4699702z" fill="#b2ce47"/><g><path d="m21.705492 59.0086441c2.6891689.2588387 12.7534504 1.1617279 14.7105694-.6928711.5739365-.4620743.6913567-1.2813835.3006592-1.8026733-1.3986816-2.1538048-5.7155476-2.1979942-8.3647137-2.0853882 2.2131042-.4049683 4.5344524-.5551758 6.7948589.1268921 1.101593.3344116 2.275238 1.145874 2.5207825 2.5331421.0661011.6887207-.2434082 1.3775024-.7613831 1.8146973-1.5090141 1.3697472-6.3293362 1.361393-8.5055828 1.1671753-2.2603149-.1845094-4.5012512-.519043-6.6951904-1.0609742z" fill="#7da715"/></g><path d="m28.0964928 37.6488075s-5.3999634 12.3999634-5.8099976 12.1099854c-.4199829-.2799683-1.3499756-3.4899902-1.3499756-3.4899902s-1.8400269 2.8399658-3.5599976 1.3800049c-1.7199717-1.460022-1.0900269-5.1799927.3400269-8.2200317 1.4299927-3.039978 2.4499512-7.2099609 2.3999634-8.4299927-.0499878-1.2099609-4.1599741-5.1400146-4.1599741-5.1400146s-.5499878.1600342-1.1600342-.2799683c-.6099854-.4500122-.1699829-1.8200073.8600464-1.6799927 1.0199594.1499634.7999887 1.1199951.7999887 1.1199951l.8899536.6799927c4.1200562 2.9799805 3.6200562-2.2199707 3.6200562-2.2199707l-.5200195-5.7000122c-.5599976-.75-.039978-2.1500244 1.2700195-1.5900269 1.3199463.5599976.2199707 2 .2199707 2 .6711578 6.7245979.7278233 6.9852791.7399902 7.0900269.1699829 1.5799561 2.3500366 1.8599854 2.9299927.3800049l.5200195-1.3500366c-.0999756-.8699951.9000244-1.4500122 1.8699951-1 .9799805.4400024.0800171 1.3600464-.7700195 1.7999878-.8499756.4500122-2.1199951 5.1300049-2.1199951 5.1300049s1.9700317-1.5199585 3.6300049.4400024c1.670044 1.9600219-.6400146 6.9700316-.6400146 6.9700316z" fill="#b2ce47"/><path d="m20.9398365 46.2699966c1.5352688-2.8078041 4.8997784-8.8871994 5.1075745-12.0887451-.0006313-.774353-.015173-2.4247284-.3058167-3.1461201-.1210938-.3126831-.2793274-.6378784-.6304016-.7985229.4025574-.0419312.7746887.2735596 1.0104065.5895996.2320557.3363647.3842468.7090454.5012207 1.0861816.2031555.7645893.2407837 1.5318623.200531 2.3027973-.1138916 1.602356-.7292786 2.9951172-1.3198853 4.371521-1.1957149 2.5631142-2.9345359 5.4600716-4.5636291 7.6832886z" fill="#7da715"/><ellipse cx="54.816" cy="28.413" fill="#451e09" rx="1.371" ry="2.17" transform="matrix(.664 -.747 .747 .664 -2.841 50.497)"/><path d="m52.7765465 13.4688148c-.3000488.4099731-1.1600342.4599609-1.1600342.4599609s-4.25 2.9500122-4.0700073 4.5100098.6799927 2.1400146.6799927 2.1400146.9900513-.2800293.6500244.7799683c-.3499756 1.0500488-1.0700073.7700195-1.4899902-.0899658-.4367905-.912077-1.922924-1.6344967-2.0700073-1.3400269-.1500244.3099976-4.9500122 6.3300171 2.6199951 8.2800293l-6.6799927-.5300293s-1.8499756-1.9799805-.6300049-5.2599487c.8713074-2.3354645 1.2806892-3.5955296 3.2639503-8.0918875.2500458-.5668926.469532-1.1870756.556057-1.7581491.0299683-.2399902.0499878-.4699707.0299683-.6799927-.1300049-1.6900024-1.0599976-3.1400146-.0599976-3.6199951 1-.4899902 1.6400146.6500244 1.3300171 1.0200195-.3200073.3699951.5100098 3.0199585.5100098 3.0199585l2.5-4.6900024s-.289978-1.9099731.9899902-2.0999756c1.2800293-.1900024.9100342 1.3699951.3200073 2.3099976-.5900269.9500122-3.2800293 7.1500244-2.3400269 7.2199707.9400024.0800171 3.0800171-1.8299561 3.0800171-1.8299561s-.0599976-1.2999878 1.0100098-1.1100464c1.0800171.2000123 1.25.9400025.960022 1.3600464z" fill="#b2ce47"/><path d="m53.2026443 41.1802368s-5.7433052 3.9516258-7.8719902 5.705822c-2.1286888 1.7541962-5.7907867 2.7903328-5.7907867 2.7903328s.9026909-4.7416306 1.0209503-4.9781494c.1182594-.2365227 2.0498466-2.5031815 2.2272377-2.5820198.1773911-.0788422 4.7501259-.2365227 4.8092537-.2365227.0591316 0 5.6053352-.6994629 5.6053352-.6994629z" fill="#eeecdd"/><g><path d="m60.4764977 35.4688148c.2700195 3.6699829-11.6300049 6.9799805-12.3299561 7.5899658-.7000122.6000366-4.2200317.0100098-6.0800171 1.5200195-1.8699951 1.5100098-1.0900269 4.0499878-3.1400146 5.7199707-2.0599976 1.6700439-8.4599609.2200317-9.3800049 0-.9199829-.2199707-3.7299805-.5699463-6.3399658-.2199707-2.6100464.3499756-.4700317-5.7299805 2.3399658-8.7399902 2.7999878-3.0200195 1.7700195-5.7200317 4.75-7.1799927.0400391-.0200195.0800171-.0400391.1300049-.0700073 1.8099976-.9199829 9.7200317-5.7200317 11.1699829-6.6799927 1.4900513-.9800415 5.4800415 1.0599976 7.3500366.8499756 1.8599854-.210022 3-2.1099854 5.0999756-1.3599854 2.1000366.7600098 2.3300171 3.6300049 2.3300171 3.6300049s0 0 .0100098.0100098c.2299804.1499635 3.9299926 2.6799927 4.0899658 4.9299927z" fill="#6eab4b"/><path d="m57.8565025 52.2987709c-.4199829.2400513-1.4400024-.5299683-1.4400024-.5299683s-2.1399536-.6099854-3.0099487-.0800171c-.8700562.5400391-1.2900391 1.3300171-.8200073 2.1900024.4699707.8599854 1.7399902 2.7399902 1.7399902 2.7399902.0299683 0 .5.0100098.5299683.7200317.0400391.7299805-.3899536 1.1699829-1.2199707 1.0199585-.8300171-.1399536-.4299927-1-.4299927-1s-1-2.1299438-2.1300049-2.9699707v-.0100096c-.4550323-.3639412-.5603409-.2696342-2.0300293-.6599731-2.5599976-.6300049-7.3099976-1.9500122-8.0999756-3.2900391-1.0499878-1.7799683.5-3.8599854.5-3.8599854 2-2.5200195 3.7399902-2.7700195 4.25-2.6099854.1799927.0599976.210022.3300171.1699829.6699829-.0100098.1099854-.0299683.210022-.0499878.3200073-.1500244.6699829-.5499878 1.2800293-1.0999756 1.7200317-.7200317.5899658-.8600464.7699585-.5500488 1.2799683.4100342.6500244 2.0700073 1.2700195 2.0700073 1.2700195l-.2399902-1.5599976s-.7000122-.8500366 0-1.3699951c.6900024-.5100098 1.4799805-.0300293 1.2600098.5599976-.2200317.5899658-.3300171.6599731-.3300171.6599731l1.2399902 2.1799927s3.1100464-3.1099854 3.2800293-3.4299927c.1599731-.3300171.1300049-1.1300049.6900024-1.1699829.5599976-.0400391 1.5999756.3200073 1.1199951 1.2000122s-1.0300293.9299927-1.0300293.9299927-1.5 2.0899658-1.4199829 2.4699707c0 0 4.8300171.2999878 6.039978 1.0300293 0 0 .3600464-.5599976.960022-.2800293.6000367.2900392.4799805 1.630005.0499878 1.8599855z" fill="#b2ce47"/><path d="m52.3484154 34.9720879s2.3753853-.8996887 3.9878616-.6916275c0 0 1.4044113-.4969406 1.5864677.3302002.1820526.8271408-1.0403099.879158-1.7555199.4630318 0 0-2.1163788-.1712456-2.9860077 1.3870621.0196801-.7057115-.2641372-1.1975518-.8328017-1.4886666z"/></g><g><path d="m53.2868347 35.8783836c.4559937 1.6613007-.7506065 3.4494743-2.7038269 3.9856033-1.9452362.5339394-3.8956261-.3876877-4.3516197-2.0489883-.4559937-1.6612968.7506104-3.4494705 2.6958466-3.9834099 1.9532165-.536129 3.9036064.3854981 4.3596 2.0467949z" fill="#4d9031"/><path d="m53.2264175 35.6582603c.4227142 1.5400581-.6958313 3.197731-2.5065002 3.6947327-1.8032761.4949722-3.6113243-.3593941-4.0340385-1.8994522-.4227142-1.5400543.6958275-3.1977272 2.4991035-3.6926994 1.8106689-.4970017 3.618721.3573646 4.0414352 1.8974189z" fill="#fff"/><path d="m52.4852295 36.4277878c.304245 1.1084442-.5008163 2.3015442-1.8040352 2.659256-1.2978935.3562546-2.5992241-.2586708-2.9034691-1.367115s.5008202-2.3015442 1.7987099-2.657795c1.3032188-.3577156 2.6045494.2572098 2.9087944 1.365654z" fill="#5c290e"/><path d="m52.1514206 36.0489578c.2137566.7787666-.3518639 1.6170082-1.2674713 1.8683281-.911869.2502975-1.8261566-.181736-2.0399094-.9605026-.2137566-.7787666.35186-1.617012 1.2637291-1.8673058.9156113-.2513198 1.829895.1807137 2.0436516.9594803z" fill="#7d421a"/><path d="m47.8132935 38.1482925s.5366898-.5065651.673439-.8571701.7008514-1.080616 1.3224182-1.1238174c.6215668-.0431976 2.0867767.6794891 2.7603951.2688904 0 0-.139801.3660049-.9158974.4297791 0 0-.6744995 1.0042152-1.4535828 1.1234131s-1.6839561-.1370774-2.3867721.1589049z"/><path d="m50.3417625 37.0682335c.0641747.2338142-.0663109.4814034-.3001289.5455856-.2461319.0675583-.4848061-.078701-.5489845-.3125153s.0664063-.4813499.312542-.548912c.2338142-.0641785.472393.0820275.5365714.3158417z" fill="#fff"/></g><path d="m36.9865074 52.08881c-8.6901703-1.6303558-13.8499756-1.1500244-13.8499756-1.1500244-.3500366-.3599854-.5400391-.6699829-.4400024-.8900146.4500122-1.0499878 8.7799683-.2699585 11.4699707 1.0400391 0-.0000001 1.460022.2799681 2.8200073.9999999z" fill="#7da715"/><path d="m60.4764977 35.4688148c.2700195 3.6699829-9.8852844 7.2123337-12.3638 7.7410088-1.9555702.4171333-4.5530205.0813065-6.0461731 1.3689766-1.8201828 1.5696945-1.0900269 4.0499878-3.1400146 5.7199707-2.0599976 1.6700439-8.4599609.2200317-9.3800049 0-.9199829-.2199707-3.7299805-.5699463-6.3399658-.2199707-2.6100464.3499756-.4700317-5.7299805 2.3399658-8.7399902 2.7999878-3.0200195 1.7700195-5.7200317 4.75-7.1799927.0400391-.0200195.0800171-.0400391.1300049-.0700073-.4099731.5899658-1.0299683 1.539978-1.4899902 2.4699707-.7600098 1.5200195-.5891018 4.9305038-3.2991238 6.8205185-2.7000122 1.8999634-2.6942463 5.4243011-2.6942463 5.4243011 3.2700195-.9500122 10.2077713.8398285 12.177803.359787 1.9799805-.4799805 2.2999878-1.0899658 3.8200073-4.1799927 1.5200195-3.0799561 6.2355499-4.0570602 9.2955475-3.9070816 3.0700073.1500092 10.4712524-3.643013 11.28125-5.5529861.7900391-1.8400269-2.9012451-4.7745438-3.1312256-4.9845047.2299804.1499634 3.9299926 2.6799926 4.0899658 4.9299926z" fill="#54962c"/><path d="m57.8565025 52.2987709c-.4199829.2400513-1.4400024-.5299683-1.4400024-.5299683s-2.1399536-.6099854-3.0099487-.0800171c-.8700562.5400391-1.2900391 1.3300171-.8200073 2.1900024.4699707.8599854 1.7399902 2.7399902 1.7399902 2.7399902.0299683 0 .5.0100098.5299683.7200317.0400391.7299805-.3899536 1.1699829-1.2199707 1.0199585-.8300171-.1399536-.4299927-1-.4299927-1s-1-2.1299438-2.1300049-2.9699707v-.0100096c.9599609-.9599609.8999634-2.9699707-1.6799927-4.0599976-2.7200317-1.1499634-3.1600342-1.0999756-3.1600342-1.0999756l-.2399902-1.5599976s-.7000122-.8500366 0-1.3699951c.6900024-.5100098 1.4799805-.0300293 1.2600098.5599976-.2200317.5899658-.3300171.6599731-.3300171.6599731l1.2399902 2.1799927s3.1100464-3.1099854 3.2800293-3.4299927c.1599731-.3300171.1300049-1.1300049.6900024-1.1699829.5599976-.0400391 1.5999756.3200073 1.1199951 1.2000122s-1.0300293.9299927-1.0300293.9299927-1.5 2.0899658-1.4199829 2.4699707c0 0 4.8300171.2999878 6.039978 1.0300293 0 0 .3600464-.5599976.960022-.2800293.6000367.2900391.4799805 1.6300049.0499878 1.8599854z" fill="#7da715"/><path d="m52.7765465 13.4688148c-.3000488.4099731-1.1600342.4599609-1.1600342.4599609s-4.25 2.9500122-4.0700073 4.5100098.6799927 2.1400146.6799927 2.1400146.9900513-.2800293.6500244.7799683c-.3499756 1.0500488-1.0700073.7700195-1.4899902-.0899658-.3400269-.710022-1.4000244-1.3699951-1.8599854-1.4000244.4499512-.1900024 1.5935669-1.3436222.8235474-4.2236261-.4000244-1.4899902-1.2635498-2.2063665-1.9035645-3.0763617.0299683-.2399902.0499878-.4699707.0299683-.6799927-.1300049-1.6900024-1.0599976-3.1400146-.0599976-3.6199951 1-.4899902 1.6400146.6500244 1.3300171 1.0200195-.3200073.3699951.5100098 3.0199585.5100098 3.0199585l2.5-4.6900024s-.289978-1.9099731.9899902-2.0999756c1.2800293-.1900024.9100342 1.3699951.3200073 2.3099976-.5900269.9500122-3.2800293 7.1500244-2.3400269 7.2199707.9400024.0800171 3.0800171-1.8299561 3.0800171-1.8299561s-.0599976-1.2999878 1.0100098-1.1100464c1.0800171.2000123 1.25.9400025.960022 1.3600464z" fill="#7da715"/><path d="m27.2264977 25.1087685c-.8499756.4500122-2.1199951 5.1300049-2.1199951 5.1300049-2.6199951-2.4333096-4.9899902.7600098-4.9899902.7600098-.0499878-1.2099609-4.1599741-5.1400146-4.1599741-5.1400146s-.5499878.1600342-1.1600342-.2799683c-.6099854-.4500122-.1699829-1.8200073.8600464-1.6799927 1.0199594.1499634.7999887 1.1199951.7999887 1.1199951l.8899536.6799927c4.1200562 2.9799805 3.6200562-2.2199707 3.6200562-2.2199707l-.5200195-5.7000122c-.5599976-.75-.039978-2.1500244 1.2700195-1.5900269 1.3199463.5599976.2199707 2 .2199707 2 .6711578 6.7245979.7278233 6.9852791.7399902 7.0900269.1699829 1.5799561 2.3500366 1.8599854 2.9299927.3800049l.5200195-1.3500366c-.0999756-.8699951.9000244-1.4500122 1.8699951-1 .9799805.4400023.0800171 1.3600463-.7700195 1.7999877z" fill="#7da715"/><path d="m47.4165001 69.428772c-.7599487-.25-.6799927-1.2599487-.6799927-1.2599487l-8.7600098-4.1000366s-2.75.1500244-3.1900024 1.8400269-.4400024 1.7799683-.4400024 1.7799683.3400269 2.0200195-.8999634 1.7900391c-1.25-.2200317-.5599976-1.6800537-.5599976-1.6800537s1.1699829-4.62994.8300171-4.8599815c4.3999634-.3800049 5.4199829-3.9599609 5.4199829-3.9599609h.0100098c1.2600098.0999756 3.539978.1499634 3.539978.1499634s1.0800171-.8800049 1.7299805 0c.6500244.8900146.2600098 1.6300049-1.1399536 1.4299927-1.3900146-.1900024-2.3000488-.1699829-2.3000488-.1699829s-2.1199951.25-.8699951 1.8800049c.8200073 1.0599976 2.3800049 2.010006 2.3800049 2.010006l5.0100098 2.9299927s1.3499756-.3300171 1.4799805.75-.8099977 1.7199703-1.5599977 1.4699703z" fill="#7da715"/><g fill="#4d9031"><path d="m45.7945442 30.1510868c-.8126106.1690598-1.5131531.0807133-1.5713577-.204977-.0521049-.2729168.5520287-.6322441 1.3613625-.7918434.8092995-.1596794 1.5098381-.0713329 1.5619431.2015858.0615386.2762508-.5520288.632244-1.3519479.7952346z"/><path d="m39.2275162 31.6150036c-.8126106.1690598-1.5131531.0807133-1.5713577-.204977-.0521049-.2729187.5520287-.6322441 1.3613625-.7918453.8092957-.1596775 1.5098381-.071331 1.5619431.2015877.0615386.2762507-.5520288.632244-1.3519479.7952346z"/><path d="m34.7126503 47.4572182c-.9539375.3995399-1.8519287.1168213-1.9909096-.2188339-.128479-.3214798.5252914-.9043121 1.4774628-1.2915077.9521103-.3872795 1.8300209-.4453735 1.9584999-.1238937.1408157.3233222-.5052071 1.2451247-1.4450531 1.6342353z"/><ellipse cx="32.044" cy="36.229" rx="1.672" ry=".868" transform="matrix(.443 -.897 .897 .443 -14.626 48.927)"/><ellipse cx="25.846" cy="46.393" rx="1.228" ry=".637" transform="matrix(.824 -.567 .567 .824 -21.756 22.849)"/><ellipse cx="43.3" cy="39.675" rx="1.513" ry=".558" transform="matrix(.918 -.397 .397 .918 -12.183 20.425)"/><ellipse cx="42.071" cy="35.26" rx="2.153" ry=".796" transform="matrix(.893 -.45 .45 .893 -11.362 22.684)"/><ellipse cx="36.684" cy="39.975" rx="1.623" ry=".6" transform="matrix(.893 -.45 .45 .893 -14.058 20.765)"/><ellipse cx="30.435" cy="41.486" rx="1.202" ry=".444" transform="matrix(.893 -.45 .45 .893 -15.405 18.117)"/><ellipse cx="54.102" cy="31" rx=".448" ry="1.205" transform="matrix(.106 -.994 .994 .106 17.542 81.51)"/></g><path d="m49.046505 53.7188148c-2.5599976-.6300049-7.3099976-1.9500122-8.0999756-3.2900391-1.0499878-1.7799683.5-3.8599854.5-3.8599854 2-2.5200195 3.7399902-2.7700195 4.25-2.6099854.1799927.0599976.210022.3300171.1699829.6699829-.0100098.1099854-.0299683.210022-.0499878.3200073-.0300293-.1300049-.2700195-1.0700073-1.7700195-.2999878-1.6099854.8300171-4.1099854 4.3399658-2.3499756 5.9400024 1.4799805 1.3399661 5.6199951 2.0999759 7.3499756 3.1300051z" fill="#7da715"/><g opacity=".5"><path d="m42.6747284 47.0608902c-.3690262 2.6819878.9864731 3.0608253 2.6896362 4.144043-1.0365868.0951767-2.2339363-.2965508-2.8634338-1.114563-.6818314-.9043007-.633564-2.1698914.1737976-3.02948z" fill="#fff"/></g><g opacity=".5"><path d="m31.5785694 52.4909439c2.3132534-.484623 6.0758381.074646 6.7783184 2.2486572.0506973.3643723.1417427.3823166-.0059204 1.0983887-.103241-.7244263-.4980469-1.2435913-1.0095215-1.5966797-1.3549766-.9203415-3.4849205-1.1971931-5.7628765-1.7503662z" fill="#fff"/></g></g><g opacity=".5"><path d="m22.6551991 36.22892c.9146194 4.7254982-2.1020241 10.002388-4.3760376 9.9036255-.6807861.0111084-1.1587524-.9174194-.651001-1.3009033-.3469315.4654503.3318024 1.7163963 1.8423767.1567993 1.1651058-1.2814713 2.7465172-4.4502335 3.1846619-8.7595215z" fill="#fff"/></g><g fill="#7ca817"><ellipse cx="30.225" cy="57.468" rx=".383" ry=".968" transform="matrix(.067 -.998 .998 .067 -29.14 83.773)"/><ellipse cx="46.938" cy="51.155" rx=".383" ry=".968" transform="matrix(.545 -.839 .839 .545 -21.529 62.66)"/><ellipse cx="18.859" cy="42.215" rx=".968" ry=".383" transform="matrix(.436 -.9 .9 .436 -27.355 40.756)"/></g></g></svg>