<svg id="Layer_1" enable-background="new 0 0 75 75" viewBox="0 0 75 75" xmlns="http://www.w3.org/2000/svg"><g id="_x31_0"><g><g><path d="m68.8362579 20.1485119c.0499878.7600098-.0900269 1.3599854-.3600464 1.8599854-.3899536.7399902-1.0499878 1.2600098-1.7399902 1.75 2.1400146 17.3200054-14.9600182 15.4400005-14.9600182 15.4400005-2.4599609.0799561-3.6699829 3.7799683-6.3199463 7.0299683-2.4300537 2.9800415-7.9900513 8.4899902-15.7200336 9.0499878-.1199951.0100098-.2399902.0200195-.3599854.0200195-.6000366.0300293-1.210022.0300293-1.8300171 0-8.8599854-.4500122-15.0800161-13.1199951-15.0800161-13.1199951 2.6700439-13.5900249 6.1500235-18.669981 16.2300415-20.7499981 10.0700092-2.0799561 13.7500019-3.8800049 13.7500019-3.8800049 2.6300049-3.8099976 9.2699585-5.25 9.2699585-5.25s1.6700439-4.2999883 5.3000488-3.539978c3.6300049.7700195 4.4099731 4.1500244 4.4099731 4.1500244s5.9799767 1.4299927 7.7100182 4.6199951c-.0000009 0 .9899894 1.4699707-.2999887 2.6199951z" fill="#6aaa50"/><path d="m66.7362213 23.7584972c2.1400146 17.3200054-14.9600182 15.4400005-14.9600182 15.4400005-2.4599609.0799561-3.6699829 3.7799683-6.3199463 7.0299683-2.4300537 2.9800415-7.9900513 8.4899902-15.7200336 9.0499878-.1199951.0100098-.2399902.0200195-.3599854.0200195-.289978-2.1099854-.3900146-4.6400146-.3400269-7.3399658.1300049-6.8700562 9.5200214-22.1199932 18.0599995-22.6600323 8.5400391-.5299683 16.2800293-2.75 16.2800293-2.75l5.0999718-.539978c-.3899536.7399903-1.0499877 1.2600098-1.7399902 1.75z" fill="#4d9031"/><path d="m66.7362213 23.7584972v.0100098c2.1300049 17.3099957-14.9600182 15.4299908-14.9600182 15.4299908-2.4599609.0799561-3.6699829 3.7799683-6.3199463 7.0299683-2.3000488 2.8200073-7.4000244 7.9100342-14.5000019 8.9200439-.4000244.0599976-.8099976.0999756-1.2200317.1299438-.0599976-.3499756-.0599976-.7199707-.0299683-1.1199951.0099487-.1199951.0299683-.2399902.0499878-.3699951.5999756-3.9799805 5.0100117-9.6499634 5.0999775-11.6699829.1400146-2.8699951 3.8400269-7.1799927 7.3400269-10.9500103 3.5100098-3.7599487 5.7799683-4.1199951 11.3699951-5.0199585 5.5899658-.9000244 15.2700157-6 15.2700157-6 .1299439 1.8800049-.9400024 2.7799682-2.1000366 3.6099853z" fill="#eeecdd"/><path d="m68.8374329 20.144371c-.2646484.9669018-1.2207794 2.086422-1.9539795 2.700222-2.8316956 2.3935299-5.8066025 2.9806709-9.1434364 3.9780807-3.6182632 1.0553322-9.5628548 2.7646351-12.2191772 4.7040424 2.6276894-2.6643772 8.557106-4.6152287 11.9384155-5.6491184 2.6084213-.8130722 6.365715-1.541872 9.1017494-3.4488125.8899536-.5998019 1.7276611-1.3228682 2.2764282-2.2844142z" fill="#d6d2c8"/><path d="m51.7762032 39.1984978c-2.4599609.0799561-3.6699829 3.7799683-6.3199463 7.0299683-2.3000488 2.8200073-7.4000244 7.9100342-14.5000019 8.9200439-.5500488-.4300537-.9800415-.7700195-1.25-.9900513-.2300415-.1900024-.3500366-.2999878-.3500366-.3200073.0400391-.0099487.1699829-.0199585.4000244-.0499878 1.0100098-.1399536 4.0299702-.7699585 10.7299824-4.4099731 8.2600098-4.5 6.2800293-8.9100342 7.9299927-10.5499878 1.6500244-1.6500244 8.5599976-1.0599976 13.460022-4.6799927 4.8099937-3.5500469 4.8599815-10.1199932 4.8599815-10.380003 2.1300048 17.3099957-14.9600182 15.4299908-14.9600182 15.4299908z" fill="#d6d2c8"/><g fill="#b3cd46"><path d="m51.0962105 60.8384514c-1.3800049.4000244-2.8399658.9800415-3.9599609 1.3800049-1.7700195.6199951-1.9000244.6199951-3.6300049.3099976-1.7200317-.3099976-3.4000244-2.1499634-6.3400269-3.6499634-4.5696983-2.3314743-4.7981415-8.466774-3.0999756-13.4100342 1.2057838-3.5100784 4.0740471-6.0174599 7.3800049-6.9599609 4.8200073-1.2399902 3.1400146 4.9199829.8200073 7.8999634-2.3600464 3.0200195-2.75 4.6300049-2.75 4.6300049 2.4599609.4899902 4.5799561 4.7900391 4.5799561 4.7900391s1.4900513-3.2800293 2.1700439-3.1300049c.6699829.1399536-.460022 3.2000122.8399658 3.8899536 1.2999878.6900024 3.7399902-3.289978 4.5400391-3.8499756.789978-.5599976.7399902.9199829.3899536 2.0599976-.3499756 1.1300049-1.8999634 3.8800049-1.8999634 3.8800049 3.2799683-.6500244 4.8699951.4700317 5.0700073 1.2700195.2796708 1.1329421-.4802512-.1854974-4.1100463.8899535z"/><path d="m50.9862251 39.39851c-.0299683 0-.0599976 0-.0899658.0099487-.0100098-.0099487-.0100098-.0099487-.0100098-.0099487z"/><path d="m58.6362495 43.8684807c-.8462524.0169449-4.4053459-1.4496956-3.9299927 0 .4599609 1.4299927 3.3099976 5.0200195 2.1599731 5.5-1.1599731.4699707-1.1699829-.6699829-2.3099976-1.8400269-1.1500244-1.1699829-3.4699707-2.4499512-3.6099854-1.2799683-.1400146 1.1599731.75 2.8300171-.5200195 2.6300049-1.2700195-.1900024-.8099976-3.8599854-1.8399658-4.2000122-1.0300293-.3499756-1.8700562-.1599731-1.8700562-.1599731s2.3500366-4.8900146 4.1800537-5.1100464c.0199585.0300293.0799561.1000366.1699829.2000122.3800049.4100342 1.3200073 1.3200073 2.2700195 1.3400269 1.2399902.039978 3.9199829.5199585 5.1499634 1.5899658 1.220032 1.0599976 1.0000002 1.3099976.1500246 1.3300171z"/><path d="m14.4884577 34.1331177s-2.0245161 1.2044373-2.9924068 2.8515472c-.9678898 1.6471138 1.1778851 4.1580162 1.1778851 4.1580162s1.4617633-6.6687698 1.8145217-7.0095634z"/></g><ellipse cx="53.169" cy="18.411" fill="#4d9031" rx="4.964" ry="5.463" transform="matrix(.996 -.092 .092 .996 -1.464 4.953)"/></g><path d="m51.0962105 60.8384514c.0200195-.0799561.0599976-.1499634.1199951-.2199707.2800293-.3400269.9000244-.3900146.9800415-.8200073.0700073-.3900146-.4200439-.6499634-.8099976-.6499634-.4000244.0099487-.8200073.1499634-1.1799927-.0100098-.4500122-.2000122-.6100464-.7700195-.5100098-1.25.2015266-.9474754 1.1959-1.642868 1.0700073-2.6500244-.8600464.4799805-1.7200317.960022-2.5800171 1.4400024-.5599976.3200073-1.25.6400146-1.8400269.3699951-.75-.3599854-.7999878-1.3900146-.7399902-2.210022-.2600098-.1199951-.5299683.1600342-.5899658.4300537-.0599976.2799683-.0100098.5699463-.1000366.8399658-.2299805.6600342-1.25.6799927-1.7799683.2299805-.5400391-.4599609-.75-1.1799927-1.0599976-1.8199463-.7300415-1.5200195-2.1300049-2.710022-3.75-3.1900024 1.4499512-3.3099976 2.8999634-6.6199951 4.3499756-9.9299927.210022-.4700317.4199829-.9800415.3400269-1.4900513-.1199951-.7099609-.7800293-1.2099609-1.4700317-1.3800049-.0299683-.0099487-.0700073-.0199585-.0999756-.0199585 4.8200073-1.2399902 3.1400146 4.9199829.8200073 7.8999634-2.3600464 3.0200195-2.75 4.6300049-2.75 4.6300049 2.4599609.4899902 4.5799561 4.7900391 4.5799561 4.7900391s1.4900513-3.2800293 2.1700439-3.1300049c.6699829.1399536-.460022 3.2000122.8399658 3.8899536 1.2999878.6900024 3.7399902-3.289978 4.5400391-3.8499756.789978-.5599976.7399902.9199829.3899536 2.0599976-.3499756 1.1300049-1.8999634 3.8800049-1.8999634 3.8800049 3.2799683-.6500244 4.8699951.4700317 5.0700073 1.2700195.2796709 1.1329423-.4802511-.1854972-4.1100462.8899537z" fill="#7da715"/><path d="m50.9862251 39.39851c-.0299683 0-.0599976 0-.0899658.0099487-.0100098-.0099487-.0100098-.0099487-.0100098-.0099487z" fill="#7da715"/><path d="m56.86623 49.3684807c-1.1599731.4699707-1.1699829-.6699829-2.3099976-1.8400269-1.1500244-1.1699829-3.4699707-2.4499512-3.6099854-1.2799683-.1400146 1.1599731.75 2.8300171-.5200195 2.6300049-1.2700195-.1900024-.8099976-3.8599854-1.8399658-4.2000122-1.0300293-.3499756-1.8700562-.1599731-1.8700562-.1599731s2.3500366-4.8900146 4.1800537-5.1100464c.0199585.0300293.0799561.1000366.1699829.2000122-.1799927.9000244-.7200317 1.7399902-1.5 2.2399902-.3699951.2399902-.8400269.4800415-.8800049.9200439-.0700073.6099854.7299805.9199829.9899902 1.4799805.2804337.5607529-.0701408 1.2798386.1500244 1.8599854.1099854.2999878.4099731.5499878.7199707.5-.2600098-.2999878-.2000122-.7999878.0700073-1.0899658.2800293-.2800293.710022-.3800049 1.0999756-.3300171.4000244.0499878.7600098.2199707 1.1100464.4099731 1.1199951.6199951 2.1300049 1.4000244 3.1399536 2.1900024-2.0305786-4.1319351-2.0011292-3.9974098-2.0299683-4.2999878-.0200195-.2000122.0499878-.4199829.2199707-.5299683.1800537-.1100464.4100342-.0700073.6100464-.0200195.3299561.0800171.6599731.1900024.9799805.3200073-.7299805-.0900269-1.2399902 0-1.039978.6099854.4599611 1.4299928 3.3099977 5.0200196 2.1599733 5.5000001z" fill="#7da715"/><path d="m56.8459511 32.7140846c-2.7686272.4598808-6.993084.2477341-8.8925247 3.1555634-.8989983 1.3762665-.9709854 3.1675529-1.8669472 4.5457993.180233-1.3765221-.9469795-2.7859077-2.3294563-2.91259-.4873238-.0446548-.9864082.0487289-1.4639549-.0581818-1.9733009-.4417763-2.0723419-3.7058296 1.1769371-3.6880302.8061333.0044136 1.6038513.1883659 2.4099846.1843452 1.1826706-.0059013 2.3589973-.4320641 3.2710114-1.1850395 1.3500748-1.1146488 2.1720085-2.929884 3.8147392-3.5353451 1.3596268-.5011177 2.8841743-.009449 4.3165131-.2288322 1.7645416-.2702656 3.1532669-1.5417614 4.8644829-1.9620266 1.7296219-.4247875 2.5501175.9515972 1.6168709 2.41576-1.1229441 1.7617778-4.8227999 2.9206123-6.9176561 3.2685775z" fill="#fefdec"/><g><path d="m56.7561836 17.4181061c.6182251 2.2038078-.485424 4.4520664-2.474968 5.010006-1.9814186.5556622-4.0934792-.7907944-4.7117043-2.9946022-.6182289-2.2038078.4854202-4.4520664 2.4668388-5.0077276 1.9895479-.5579415 4.1016084.788515 4.7198335 2.9923238z" fill="#fff"/><path d="m55.9943314 18.4443226c.4449654 1.5861759-.3493805 3.2043419-1.7813416 3.605917-1.4261093.3999329-2.9462509-.56917-3.3912125-2.155344-.4449654-1.586174.3493767-3.2043419 1.7754898-3.6042747 1.4319611-.4015742 2.9521027.5675277 3.3970643 2.1537017z" fill="#5c290e"/><path d="m55.5838699 17.8841267c.3126183 1.1144085-.2454681 2.2512951-1.2515297 2.533432-1.0019531.280983-2.0699692-.3998852-2.3825912-1.5142937-.3126183-1.1144104.2454681-2.251297 1.2474213-2.53228 1.0060615-.2821369 2.0740776.3987313 2.3866996 1.5131417z" fill="#7d421a"/><path d="m50.9015312 20.5014286s.5563545-.6717033.6775513-1.155077c.1211929-.4833736.6876221-1.4678383 1.3824234-1.4797955s2.4091911 1.1219215 3.1284027.5962524c0 0-.1231995.5048389-.9898224.5336285 0 0-.6650848 1.362236-1.5299225 1.4689064s-1.9059562-.3257484-2.6686325.0360852z"/><path d="m53.6439476 19.178236c.0938606.3345852-.0298576.6732655-.2867737.7453136-.2704468.0758419-.5523605-.1490822-.6462212-.4836693-.0938606-.3345852.0299721-.6731796.3004189-.7490234.2569161-.0720482.5387154.152792.632576.4873791z" fill="#fff"/></g><g><path d="m66.3279343 18.8514576c-.6727295.0946903-1.1595764-.5526047-1.7570038-.7364922-.4631958-.1342926-.5211639.1713161-.8239441.461935-.9181976.9144192-2.3322334.794384-3.1067505-.0054588-.1596375-.1491756-.299118-.3767586-.2261505-.574297.0654564-.2076492.2853966-.2940464.4750481-.3576412 1.7674713-.5544643 3.7283592-.4308071 5.3893166.346384.673027.2997171.5298308.8091527.0494842.8655702z" fill="#451e09"/><path d="m64.2850571 18.0926342c-.2225494.0407944-.3082428.2636738-.5380707.4842663-.4467659.4449272-1.0526962.694355-1.7420654.6303768.0454712-.0659447.0933685-.1494751.1590118-.2306061.9012108-1.1379127 2.1211243-.884037 2.1211243-.884037z"/></g><g><path d="m30.956255 55.14851-1.2300415.1299438s-.0899658-.4099731-.0799561-.4799805c0-.0599976.1599731-.3699951.2599487-.3800049.1000366-.0199585.7800293-.1599731.8099976-.1599731h.0700073z" fill="#d6d2c8"/><path d="m30.6462574 50.9084587c-.2300415 3.2800293-.9100342 4.3699951-.9100342 4.3699951-1.1601563.080162-3.8582153.035778-6.4500122 0l-10.8200064-13.0999756s.2400513-2.6199951 6.4400015-1.039978c6.1900025 1.5799561 11.9700318 6.4799805 11.7400513 9.7699585z" fill="#4d9031"/><path d="m35.1962471 64.2784576c-1.7200317.0100098-6.2500019-.5600014-8.7000141-.6299477-.0100098 0-.0100098 0-.0100098 0-.9899902-.0300293-1.6400146.0199585-1.6300049.2299805.0549355.7316704 3.2470531 2.1228218 1.4700317 2.4299965-.8900146.1500244-3.5100098-.4299927-6.4899902-1.7800293-.0300293 0-.0500488-.0099487-.0500488-.0099487-2.9299927-1.3200111-6.1900015-3.3800087-8.4899893-6.200016-4.6400146-5.710022-5.8900146-6.4800415-5.789978-11.1199951.0999756-4.6500244 2.75-5.1300049 3.8300171-4.6900024 1.0899658.4400024 3.7599487.6699829 3.1299438-.3300171 0 0 1.9700317-2.4099731 10.3800039 2.2200317 8.4100342 4.6199951 8.0100098 9.2999878 2.5400391 11.9699707 0 0 3.6399536 2.0800171 2.8899536 2.9799805 0 0 5.0000019.3099976 5.0000019 1.5599976 0 .75-.6199951 1.0100098-1.1099854 1.1000366 1.7900391-.1300049 7.1700439-.4100342 7.4800415.6400146.3699952 1.2599487-2.0200194 1.6199989-4.4500121 1.6299476z" fill="#b3cd46"/><g fill="#7da715"><path d="m27.2562428 57.6284904s-3.1799927 1.2299805-8.4100342.3800049c-4.1099844-.6700439-9.1900015-5.6199951-11.1599722-7.710022.8900146.7700195 2.710022 2.1099854 6.4099731 4.3099976 6.9700308 4.1500244 11.2900381 1.7600098 11.2900381 1.7600098z"/><path d="m26.3262501 66.3084869c-.8900146.1500244-3.5100098-.4299927-6.4899902-1.7800293.5299683.1700439 5.2999878 1.5800171 6.1599731 1.25.2000122-.0799561.3400269-.2199707.4299927-.3999634.4899902.4299927.7100219.7899781-.0999756.9299927z"/><path d="m35.1962471 64.2784576c-1.7200317.0100098-6.2500019-.5600014-8.7000141-.6299477.4099731.0099487 11.2799702.1399536 11.830019-.4000244.5599976-.5499878.5899658-.710022-3.2600098-.9199829-3.5000019-.1799927-3.6600361-.2600098-3.6600361-.2800293 0 0 .7100239-.4699707 1.1100483-1.2600098.3899536-.7799683-4.2400532-1.4400024-4.2400532-1.4400024s5.0000019.3099976 5.0000019 1.5599976c0 .75-.6199951 1.0100098-1.1099854 1.1000366 1.7900391-.1300049 7.1700439-.4100342 7.4800415.6400146.3699952 1.2599488-2.0200194 1.619999-4.4500121 1.6299477z"/></g></g><g><ellipse cx="25.717" cy="26.048" fill="#4d9031" rx="2.867" ry="1.185" transform="matrix(.927 -.376 .376 .927 -7.9 11.566)"/></g><g><ellipse cx="36.758" cy="25.513" fill="#4d9031" rx="2.024" ry=".836" transform="matrix(.905 -.425 .425 .905 -7.358 18.037)"/></g><g><ellipse cx="19.364" cy="36.375" fill="#4d9031" rx="2.024" ry=".836" transform="matrix(.905 -.425 .425 .905 -13.621 11.675)"/></g><g><ellipse cx="44.927" cy="19.17" fill="#4d9031" rx="2.024" ry=".836" transform="matrix(.905 -.425 .425 .905 -3.888 20.907)"/></g><g><ellipse cx="29.946" cy="37.934" fill="#4d9031" rx="2" ry=".826" transform="matrix(.711 -.703 .703 .711 -18.02 32.023)"/></g><g fill="#7ca817"><ellipse cx="20.867" cy="54.768" rx=".753" ry="1.797" transform="matrix(.558 -.83 .83 .558 -36.233 41.555)"/><ellipse cx="19.612" cy="45.624" rx=".753" ry="1.797" transform="matrix(.558 -.83 .83 .558 -29.197 36.468)"/><ellipse cx="9.453" cy="45.009" rx=".52" ry="1.241" transform="matrix(.558 -.83 .83 .558 -33.181 27.762)"/><ellipse cx="19.612" cy="61.051" rx=".753" ry="1.797" transform="matrix(.462 -.887 .887 .462 -43.588 50.206)"/></g></g><g opacity=".4"><path d="m24.7350121 52.7303734c.6834106-.2625046 1.309021-.5362587 1.6816406-.9025574.3403282-.3478584.3531075-.1471176-1.2174072-2.5641365-.3706665-.566494-.7307739-1.1573067-1.026062-1.8404884 2.344492.8817215 5.1898327 4.2045174 2.8359985 5.3175087-.7948609.3750305-1.5993653.2941742-2.2741699-.0103264z" fill="#fff"/></g><g opacity=".4"><path d="m39.4683495 54.146698c-.6160583 1.3582344-1.8647232 2.0326309-2.729187 2.0408287-.1000023-.0261307-.520237.1042252-1.0263672-.352829-1.3305779-1.3309784-1.1792831-4.7999191-.5209351-6.6181602.2788086.8451385.4536743 1.6715355.612854 2.4869728.70718 3.5427132.6608505 3.3124695 1.4387817 3.2720718.687439-.071373 1.4487305-.4165611 2.2248536-.8288841z" fill="#fff"/></g></g></svg>