<svg id="Layer_1" height="512" viewBox="0 0 64 64" width="512" xmlns="http://www.w3.org/2000/svg" data-name="Layer 1"><path d="m63 56v8h-8v-9a3.995 3.995 0 0 1 -4-4v-8.2l3.51 1.23a12.688 12.688 0 0 1 8.49 11.97z" fill="#fc8347"/><path d="m50.998 42.8v6.2h-5v-7.95z" fill="#27935d"/><path d="m49 17c2 0 3 2.44 3 4 0 2.56-1.2 3.72-3.11 4.87l-1.89 1.13v-8a1.959 1.959 0 0 1 2-2z" fill="#e09b8d"/><path d="m49 14v3a1.959 1.959 0 0 0 -2 2s-8 3-11-5z" fill="#4d4d4d"/><path d="m56.408 10.59a1.955 1.955 0 0 1 .592 1.41 2.006 2.006 0 0 1 -2 2h-38a2.015 2.015 0 0 1 -2-2 2.006 2.006 0 0 1 2-2h38a1.955 1.955 0 0 1 1.408.59z" fill="#f46d22"/><path d="m49 7v3h-26v-3a3.857 3.857 0 0 1 1.91-3.36 21.878 21.878 0 0 1 11.09-2.64 21.878 21.878 0 0 1 11.09 2.64 3.859 3.859 0 0 1 1.91 3.36z" fill="#fc8347"/><path d="m23 14h13c-3 8-11 5-11 5a1.959 1.959 0 0 0 -2-2z" fill="#4d4d4d"/><path d="m25 19v8l-1.89-1.13c-1.91-1.15-3.11-2.31-3.11-4.87 0-1.56 1-4 3-4a1.959 1.959 0 0 1 2 2z" fill="#e09b8d"/><path d="m43 35.49a11.016 11.016 0 0 1 -14 0 10.409 10.409 0 0 1 -.78-.71 10.965 10.965 0 0 1 -3.22-7.78v-8s8 3 11-5c3 8 11 5 11 5v8a10.993 10.993 0 0 1 -4 8.49z" fill="#f4baa6"/><path d="m43 35.49v4.51s0 7-7 7-7-7-7-7v-4.51a11.016 11.016 0 0 0 14 0z" fill="#e09b8d"/><path d="m24.998 58h22v6h-22z" fill="#27935d"/><path d="m46 41.05v7.95s0 4-10 4-10-4-10-4v-7.85l3-1.15s0 7 7 7 7-7 7-7z" fill="#fc8347"/><path d="m55 55v9h-8v-6h-22v6h-8v-9a3.995 3.995 0 0 0 4-4v-2h5s0 4 10 4 10-4 10-4h5v2a3.995 3.995 0 0 0 4 4z" fill="#39b278"/><path d="m25.998 41.15v7.85h-5v-5.92z" fill="#27935d"/><path d="m16 45v9l-5-2v-11a2.5 2.5 0 0 0 -5 0v11l-5 2v-17.33c0-5.42 7.5-8.67 7.5-8.67s7.5 3.25 7.5 8.67z" fill="#b3b3b3"/><path d="m16 54v-9l5-1.92v7.92a3.995 3.995 0 0 1 -4 4v9h-6v-12z" fill="#fc8347"/><path d="m5.998 56h5v8h-5z" fill="#f46d22"/><path d="m11 52v4h-5v-15a2.5 2.5 0 1 1 5 0z" fill="#999"/><circle cx="39.497" cy="23.5" fill="#995e55" r="1.5"/><circle cx="32.497" cy="23.5" fill="#995e55" r="1.5"/><g fill="#d1897d"><path d="m36 30a1 1 0 0 0 1-1v-3a1 1 0 0 0 -2 0v3a1 1 0 0 0 1 1z"/><path d="m32.29 31.293a1 1 0 0 0 0 1.414 5.306 5.306 0 0 0 3.71 1.293 5.306 5.306 0 0 0 3.7-1.293.993.993 0 0 0 .006-1.4 1.006 1.006 0 0 0 -1.408-.03 3.457 3.457 0 0 1 -2.298.723 3.477 3.477 0 0 1 -2.3-.717 1 1 0 0 0 -1.41.01z"/></g></svg>