<svg id="Capa_1" enable-background="new 0 0 512 512" height="512" viewBox="0 0 512 512" width="512" xmlns="http://www.w3.org/2000/svg" xmlns:xlink="http://www.w3.org/1999/xlink"><linearGradient id="lg1"><stop offset="0" stop-color="#d1f19e"/><stop offset="1" stop-color="#78a91f"/></linearGradient><linearGradient id="SVGID_1_" gradientUnits="userSpaceOnUse" x1="172.881" x2="156.875" xlink:href="#lg1" y1="101.553" y2="109.556"/><linearGradient id="SVGID_00000093878081438860123790000004740953557953095058_" gradientUnits="userSpaceOnUse" x1="166.299" x2="186.436" xlink:href="#lg1" y1="68.277" y2="69.051"/><linearGradient id="SVGID_00000176739443983652010360000002192861030029547395_" gradientUnits="userSpaceOnUse" x1="178.588" x2="196.401" xlink:href="#lg1" y1="78.286" y2="82.159"/><linearGradient id="SVGID_00000125592528024450510160000002103734087057318589_" gradientUnits="userSpaceOnUse" x1="174.751" x2="182.496" y1="90.764" y2="125.358"><stop offset="0" stop-color="#c4573a" stop-opacity="0"/><stop offset=".2571" stop-color="#c05539" stop-opacity=".257"/><stop offset=".5166" stop-color="#b45137" stop-opacity=".517"/><stop offset=".7761" stop-color="#a04833" stop-opacity=".776"/><stop offset="1" stop-color="#883f2e"/></linearGradient><linearGradient id="SVGID_00000008123316575051397940000017221949817315304606_" gradientUnits="userSpaceOnUse" x1="171.043" x2="188.609" y1="484.144" y2="528.311"><stop offset="0" stop-color="#f89580"/><stop offset="1" stop-color="#c4573a"/></linearGradient><linearGradient id="lg2"><stop offset="0" stop-color="#fffbf5"/><stop offset=".4893" stop-color="#fff8ec"/><stop offset="1" stop-color="#fff2de"/></linearGradient><linearGradient id="SVGID_00000057839641156942041150000015027837753861521293_" gradientTransform="matrix(.966 -.26 .26 .966 -24.638 86.244)" gradientUnits="userSpaceOnUse" x1="117.559" x2="224.103" xlink:href="#lg2" y1="285.519" y2="285.519"/><linearGradient id="lg3"><stop offset="0" stop-color="#fff2de" stop-opacity="0"/><stop offset=".2223" stop-color="#ffedd7" stop-opacity=".222"/><stop offset=".5516" stop-color="#ffdfc3" stop-opacity=".552"/><stop offset=".9456" stop-color="#ffc8a2" stop-opacity=".946"/><stop offset="1" stop-color="#ffc49d"/></linearGradient><linearGradient id="SVGID_00000021116251246981013150000010786281467948556428_" gradientTransform="matrix(.966 -.26 .26 .966 -24.638 86.244)" gradientUnits="userSpaceOnUse" x1="204.196" x2="307.966" xlink:href="#lg3" y1="291.052" y2="317.955"/><linearGradient id="SVGID_00000079450598764507124370000014270172702441665975_" gradientTransform="matrix(.966 -.26 .26 .966 -24.638 86.244)" gradientUnits="userSpaceOnUse" x1="181.379" x2="192.909" xlink:href="#lg3" y1="360.998" y2="454.198"/><linearGradient id="SVGID_00000113349340272576549260000018052754897112566942_" gradientUnits="userSpaceOnUse" x1="80.227" x2="120.501" xlink:href="#lg2" y1="287.38" y2="312.164"/><linearGradient id="SVGID_00000101088349808337977390000014597789167834690492_" gradientTransform="matrix(.966 .26 -.26 .966 167.336 -36.861)" gradientUnits="userSpaceOnUse" x1="75.712" x2="179.482" xlink:href="#lg3" y1="354.788" y2="381.691"/><linearGradient id="SVGID_00000044151087615305639420000008157236642608969869_" gradientTransform="matrix(.966 .26 -.26 .966 167.336 -36.861)" gradientUnits="userSpaceOnUse" x1="52.896" x2="64.426" xlink:href="#lg3" y1="424.734" y2="517.934"/><linearGradient id="SVGID_00000090293989387444823480000002597670423446186897_" gradientUnits="userSpaceOnUse" x1="107.438" x2="221.948" xlink:href="#lg2" y1="306.78" y2="306.78"/><linearGradient id="SVGID_00000029761747407924644130000008277478616185025198_" gradientUnits="userSpaceOnUse" x1="200.553" x2="312.08" xlink:href="#lg3" y1="312.727" y2="341.641"/><linearGradient id="SVGID_00000178906219631456779920000004499115221961507749_" gradientUnits="userSpaceOnUse" x1="176.03" x2="188.422" xlink:href="#lg3" y1="387.902" y2="488.07"/><linearGradient id="SVGID_00000069378304347246503240000011992226870743082155_" gradientUnits="userSpaceOnUse" x1="156.975" x2="290.188" xlink:href="#lg3" y1="298.726" y2="376.176"/><linearGradient id="lg4"><stop offset="0" stop-color="#c4573a" stop-opacity="0"/><stop offset=".235" stop-color="#be5539" stop-opacity=".235"/><stop offset=".539" stop-color="#ae4e35" stop-opacity=".539"/><stop offset=".8794" stop-color="#934330" stop-opacity=".879"/><stop offset="1" stop-color="#883f2e"/></linearGradient><linearGradient id="SVGID_00000170257059979835013800000002192209790377910932_" gradientUnits="userSpaceOnUse" x1="177.244" x2="177.244" xlink:href="#lg4" y1="459.547" y2="509.115"/><linearGradient id="SVGID_00000097482862488491518800000000600855249691298713_" gradientUnits="userSpaceOnUse" x1="219.291" x2="333.351" xlink:href="#lg4" y1="392.882" y2="489.832"/><linearGradient id="SVGID_00000133508796252304312180000005275991230429202304_" gradientUnits="userSpaceOnUse" x1="375.819" x2="418.591" xlink:href="#lg2" y1="401.176" y2="455.71"/><linearGradient id="SVGID_00000099629841076484996150000010867965748154266752_" gradientUnits="userSpaceOnUse" x1="372.018" x2="353.484" xlink:href="#lg3" y1="451.003" y2="515.161"/><linearGradient id="SVGID_00000028317712794028600130000006641422324390598582_" gradientUnits="userSpaceOnUse" x1="356.511" x2="471.996" xlink:href="#lg3" y1="383.304" y2="478.354"/><linearGradient id="SVGID_00000032632867650085669100000012921662728285527960_" gradientUnits="userSpaceOnUse" x1="367.65" x2="385.234" xlink:href="#lg3" y1="441.606" y2="504.338"/><linearGradient id="SVGID_00000158022523812625629370000011191629396810254744_" gradientUnits="userSpaceOnUse" x1="280.29" x2="244.171" xlink:href="#lg4" y1="450.138" y2="450.614"/><g><g><path d="m141.51 50.902c19.844 34.319 29.276 72.319 27.81 112.224h17.32c.709-20.701-1.262-40.906-5.921-60.663-.065-.279-.135-.557-.204-.835-1.78-7.253-4.429-14.214-7.862-20.736-6.67-12.696-16.294-23.738-28.197-32.1-.117-.083-.231-.165-.348-.244-1.576-1.1-3.56.692-2.598 2.354z" fill="url(#SVGID_1_)"/><g><path d="m166.926 136.621.023-78.445c.041-15.72-2.73-31.512-8.077-46.328-2.085-5.778 2.257-11.864 8.4-11.848 3.737.01 7.074 2.354 8.341 5.87 6.033 16.745 9.159 34.59 9.112 52.353l-.023 78.445z" fill="url(#SVGID_00000093878081438860123790000004740953557953095058_)"/></g><path d="m214.583 26.29c-19.844 34.319-29.276 72.319-27.81 112.224h-17.32c-.709-20.701 1.262-40.906 5.921-60.663.065-.279.135-.557.204-.835 1.78-7.253 4.429-14.214 7.862-20.736 6.67-12.696 16.294-23.738 28.197-32.1.117-.083.231-.165.348-.244 1.575-1.1 3.559.692 2.598 2.354z" fill="url(#SVGID_00000176739443983652010360000002192861030029547395_)"/><path d="m154.512 77.548c5.852 14.518 10.002 29.559 12.418 45.007l-.004 14.065 1.714.005c.76 8.727 1.009 17.563.68 26.501h17.32c.284-8.283.118-16.484-.457-24.612h.589c-.769-20.935 1.491-41.337 6.65-60.966z" fill="url(#SVGID_00000125592528024450510160000002103734087057318589_)"/><g><g><path d="m138.261 497.403c-2.403 1.354-1.606 4.946 2.208 6.648 12.408 4.736 23.799 7.205 36.774 7.949 12.974-.743 24.366-3.214 36.774-7.949 3.814-1.701 4.611-5.293 2.208-6.648-7.772-4.38-16.092-10.886-18.873-22.711-13.043 4.433-27.166 3.904-40.218 0-2.78 11.825-11.101 18.332-18.873 22.711z" fill="url(#SVGID_00000008123316575051397940000017221949817315304606_)"/></g><g><g><g><path d="m283.567 286.201c-37.884-27.781-70.997-88.821-93.273-138.575-4.249-9.489-18.55-5.634-17.453 4.705 5.75 54.209 7.803 123.621-10.984 166.68-55.599 127.424 30.589 188.789 110.372 167.282s123.449-117.879 11.338-200.092z" fill="url(#SVGID_00000057839641156942041150000015027837753861521293_)"/><path d="m190.294 147.626c-2.223-4.966-7.197-6.272-11.279-4.912l92.658 343.72c.185-.049.371-.091.556-.141 79.783-21.508 123.449-117.879 11.338-200.092-37.885-27.781-70.997-88.821-93.273-138.575z" fill="url(#SVGID_00000021116251246981013150000010786281467948556428_)"/><path d="m272.229 486.293c69.034-18.61 111.003-93.268 48.438-166.307l-173.904 46.88c-17.376 94.589 56.432 138.037 125.466 119.427z" fill="url(#SVGID_00000079450598764507124370000014270172702441665975_)"/></g><g><path d="m192.631 319.011c-18.787-43.059-16.733-112.471-10.983-166.68 1.097-10.339-13.204-14.194-17.453-4.705-22.276 49.754-55.389 110.793-93.274 138.575-112.112 82.212-68.446 178.584 11.337 200.091 79.783 21.508 165.971-39.857 110.373-167.281z" fill="url(#SVGID_00000113349340272576549260000018052754897112566942_)"/><path d="m181.648 152.331c.574-5.41-3.07-9.04-7.282-9.916l-92.66 343.719c.185.051.366.108.552.158 79.783 21.508 165.971-39.857 110.373-167.281-18.787-43.058-16.733-112.471-10.983-166.68z" fill="url(#SVGID_00000101088349808337977390000014597789167834690492_)"/><path d="m82.258 486.292c69.034 18.61 142.842-24.838 125.466-119.427l-173.904-46.88c-62.565 73.039-20.596 147.697 48.438 166.307z" fill="url(#SVGID_00000044151087615305639420000008157236642608969869_)"/></g></g><g><path d="m244.983 293.632c-31.542-39.427-48.828-112.032-58.026-169.894-1.754-11.036-17.673-11.036-19.428 0-9.198 57.862-26.484 130.467-58.026 169.894-93.341 116.676-21.069 204.467 67.74 204.467s161.081-87.79 67.74-204.467z" fill="url(#SVGID_00000090293989387444823480000002597670423446186897_)"/><path d="m186.957 123.738c-.918-5.775-5.714-8.522-10.331-8.253v382.605c.206.001.411.01.617.01 88.809 0 161.081-87.791 67.74-204.467-31.541-39.428-48.827-112.033-58.026-169.895z" fill="url(#SVGID_00000029761747407924644130000008277478616185025198_)"/><path d="m177.243 498.099c76.843 0 141.281-65.734 96.789-159.03h-193.577c-44.492 93.296 19.945 159.03 96.788 159.03z" fill="url(#SVGID_00000178906219631456779920000004499115221961507749_)"/><path d="m218.941 293.632c-19.415-39.427-30.056-112.032-35.718-169.894-1.08-11.036-10.879-11.036-11.959 0-5.662 57.862-16.302 130.467-35.718 169.894-57.456 116.676-12.969 204.467 41.697 204.467s99.153-87.79 41.698-204.467z" fill="url(#SVGID_00000069378304347246503240000011992226870743082155_)"/></g></g><path d="m18.895 443.024c14.128 20.557 36.726 36.088 63.363 43.268 16.141 4.351 32.543 5.308 47.979 3.014 4.422 1.754 8.991 3.253 13.675 4.495-1.858 1.354-3.77 2.542-5.65 3.602-2.403 1.354-1.606 4.946 2.208 6.648 12.408 4.736 23.799 7.205 36.774 7.949 12.974-.743 24.366-3.214 36.774-7.949 3.814-1.701 4.611-5.294 2.208-6.648-1.881-1.06-3.792-2.247-5.65-3.601 4.684-1.242 9.252-2.741 13.674-4.495 15.436 2.294 31.838 1.337 47.979-3.014 26.637-7.181 49.236-22.711 63.363-43.269z" fill="url(#SVGID_00000170257059979835013800000002192209790377910932_)"/></g></g><path d="m283.567 286.201c-19.761-14.491-38.222-38.031-54.524-64.298-80.112 18.224-139.908 89.882-139.908 175.512 0 28.751 6.752 55.921 18.74 80.029 19.324 13.292 43.653 20.655 69.369 20.655 16.573 0 32.569-3.059 47.021-8.79 15.433 2.29 31.829 1.333 47.964-3.016 79.783-21.508 123.449-117.879 11.338-200.092z" fill="url(#SVGID_00000097482862488491518800000000600855249691298713_)"/><g><path d="m506.491 374.622c4.284-2.686 2.215-9.315-2.835-9.061-35.821 1.805-109.268 7.656-167.284 26.303-26.321 8.46-45.976 18.037-59.419 25.813-14.678 8.491-19.862 27.136-11.715 42.008 33.537 61.219 116.953 83.354 189.38-15.414 23.636-32.231 22.19-51.036 51.873-69.649z" fill="url(#SVGID_00000133508796252304312180000005275991230429202304_)"/><path d="m505.797 365.927c-.271-.02-.554-.025-.85-.007-25.507 1.489-70.359 4.986-115.404 12.725-18.159 3.472-36.316 7.803-53.171 13.221-26.321 8.46-45.976 18.037-59.419 25.813-9.858 5.702-15.425 15.986-15.556 26.629.132.251.261.502.405.75 27.951 48.123 108.399 64.256 188.153-15.629 26.027-26.07 26.179-41.009 57.029-56.348.682-.339 1.209-.754 1.621-1.205.678-2.324-.476-4.996-2.808-5.949z" fill="url(#SVGID_00000099629841076484996150000010867965748154266752_)"/><path d="m454.232 409.375c26.531-17.941 31.565-28.453 54.516-39.633-.353-2.287-2.25-4.324-5.092-4.18-35.821 1.805-109.268 7.656-167.284 26.303-26.321 8.46-45.976 18.037-59.419 25.813-7.015 4.058-11.859 10.435-14.116 17.611-2.291 7.284 1.723 15.065 8.884 17.716 39.098 14.474 108.221 6.607 182.511-43.63z" fill="url(#SVGID_00000028317712794028600130000006641422324390598582_)"/><path d="m273.628 419.905c-12.089 9.223-15.887 26.096-8.391 39.781 33.536 61.219 116.953 83.354 189.38-15.414 6.667-9.092 11.338-17.115 15.276-24.367z" fill="url(#SVGID_00000032632867650085669100000012921662728285527960_)"/><path d="m355.144 386.401c-6.385 1.689-12.667 3.501-18.772 5.464-26.321 8.46-45.976 18.037-59.419 25.813-14.678 8.49-19.862 27.136-11.715 42.008 18.354 33.505 51.65 55.301 89.907 51.979v-125.264z" fill="url(#SVGID_00000158022523812625629370000011191629396810254744_)"/></g></g></svg>