<svg id="Layer_1" enable-background="new 0 0 100 100" viewBox="0 0 100 100" xmlns="http://www.w3.org/2000/svg"><path d="m84.2002258 39.5499878-1.8998413-5.7003899s5.700386-12.3502827 4.7500381-13.2997818l-7.600235-7.6002388-12.3502808 5.7003918-6.6498947-2.8501968s-4.750042-12.3502817-5.700386-12.3502817h-10.4504318l-4.750042 13.2997808-6.6498909 1.899847s-12.3502827-5.7003899-13.2997856-4.750042l-6.6498899 6.6498909c-.9502802.9502811 4.7500429 13.2997837 4.7500429 13.2997837l-1.8998489 5.7003899s-13.2997799 4.7500458-13.2997799 5.7003937v10.4504318l13.2997799 4.750042 1.8998489 5.7003899s-5.7003918 12.3502808-4.7500429 13.2997818l7.6002378 7.600235 12.3502808-5.700386 6.6498909 2.8501968s4.750042 12.3502808 5.7003899 12.3502808h10.450428l4.7500458-13.2997818 6.6498871-1.8998489s12.3502884 5.7003937 13.2997818 4.7500458l6.6498871-6.6498947c.9502869-.9502792-4.7500381-13.2997818-4.7500381-13.2997818l1.8998413-5.700386s13.2997818-4.7500458 13.2997818-5.7003899v-10.4504358l-13.2997818-4.750042zm-19.0001678 10.4504318c0 8.5497398-6.6498909 15.2004776-15.2004738 15.2004776-8.5497398 0-15.2004738-6.6498947-15.2004738-15.2004776 0-8.549736 6.6498909-15.2004738 15.2004738-15.2004738 8.549736 0 15.2004738 6.6498909 15.2004738 15.2004738z" fill="#3daded"/></svg>