<svg clip-rule="evenodd" fill-rule="evenodd" stroke-linejoin="round" stroke-miterlimit="2" viewBox="0 0 64 64" xmlns="http://www.w3.org/2000/svg"><g transform="matrix(1.056 0 0 1.038 -1.609 -.139)"><path d="m47.064 3.758-17.785 10.928c-.47.289-.617.905-.328 1.376.289.47.905.617 1.376.328l17.785-10.928c.47-.289.617-.905.328-1.376-.289-.47-.905-.617-1.376-.328z" fill="#e29a6c"/></g><g><path d="m50.899 3.705c-.263-2.623.299-2.528.866-1.899.473.526.527.417.527.417 1.316-3.052 1.14.15 2.089 1.463 3.391-.763 2.797 2.204 2.797 2.204 3.985 5.001 3.222 5.34 3.222 5.34-2.035 1.696-4.409-1.355-4.409-1.355-1.922.349-3.283-.066-4.219-.674l-3.305-.595-.209-3.31.06-.035c-2.351-3.522-2.027-4.19-.945-3.83 1.045.347 2.799 1.656 3.526 2.274z" fill="#fce077"/></g><g transform="matrix(1.063 0 0 1.063 -1.628 -1.427)"><g><path d="m9.454 29.7c-1.545.43-2.831 1.505-3.768 3.029-1.296 2.108-1.923 5.1-1.658 8.247.044.517.499.901 1.016.858.517-.044.901-.499.858-1.016-.229-2.708.27-5.291 1.386-7.104.67-1.091 1.564-1.895 2.67-2.202.5-.139.793-.658.654-1.158s-.658-.793-1.158-.654z" fill="#fcc244"/></g><g><g transform="matrix(.941 0 0 .941 1.532 1.343)"><path d="m20.003 58.108-.042 1.509-3.204-.085.108-1.506z" fill="#615260"/></g><g transform="matrix(.941 0 0 .941 1.532 1.343)"><path d="m16.865 58.026.062-.868-1.018-1.102s-1.95-8.139-3.137-9.919c0 0-.115-.439-.036-1.959l.017-4.077 2.677-3.536 3.853 1.348s-2.204 4.154-2.967 6.613c-.763 2.458 2.374 8.478 3.73 12.039l-.043 1.543z" fill="#fcc244"/></g><path d="m31.086 56.885.16 1.995 4.691.079-1.656-2.225z" fill="#615260"/><path d="m34.281 56.734-.897-1.205s-1.835-4.787-1.037-10.77c0 0-.08-1.755-.958-2.793-.877-1.037.319-7.419.319-7.419l.492-1.937-5.773 2.864.351 1.307 1.436 5.505s-1.356 2.233 1.117 5.983l.319 7.021 1.436 1.595z" fill="#fcc244"/></g><g><g transform="matrix(.941 0 0 .941 1.532 1.343)"><g><path d="m20.724 60.853v1.443l4.222.422s0-.908-.476-1.607z" fill="#615260"/></g><g><path d="m7.607 59.495.288 1.355 4.377.295-.841-2.171z" fill="#615260"/></g><g><path d="m11.431 58.974s.583-3.643.713-3.8c-.738-1.518-1.243-3.735-.847-8.647 0 0 .865-3.222 5.358-8.987l-.109-.339c.991.635 2.635.979 5.365.373l-.122-.373c.111.813.286 1.742.546 2.798 0 0-.509 3.391-1.78 7.206 0 0 .508 1.441-.17 6.104l-.593 6.019.932 1.525 3.746.258c-.252-.368-.635-.678-1.22-.765 0 0-.678-8.139 1.611-11.615s-2.891-1.522 2.28-11.525c0 0-.086-.342.035-.376 2.525-.7 7.019-2.505 6.096-6.326 0 0-1.018-2.667-.255-4.665 0 0 .186-.577.281-.651 7.089-5.492 18.097-16.307 18.097-16.307l-3.034-3.585s-16.192 11.105-23.652 13.734c0 0-2.883 1.695-5.002 5.425 0 0-10.428 2.657-11.021 6.642l.366-.963s-1.583 7.123.736 11.476c0 0-3.9 3.221-1.696 5.764 0 0 0 6.274.255 9.157.05.576.234 1.152.234 1.152l-.974 1.812z" fill="#fce077"/></g></g><g transform="matrix(.941 0 0 .941 1.733 1.343)"><path d="m22.679 38.637c-.02-.132-.039-.261-.056-.388l.121.373-.065.015c.111.717.27 1.519.489 2.41 0 0-.509 3.391-1.779 7.206 0 0 .507 1.441-.17 6.104l-.593 6.019.291.477h-.406l-.932-1.525.593-6.019c.678-4.663.17-6.104.17-6.104 1.271-3.815 1.78-7.206 1.78-7.206-.104-.422-.194-.823-.272-1.205.264-.042.541-.094.829-.157zm25.47-33.341c-.606.086 2.73 4.146 3.435 3.886l-.614-.112-.402.385c-1.205-.553-2.046-1.331-2.523-2.332 0 0-16.241 10.749-22.503 12.956 0 0-2.883 1.695-5.001 5.425 0 0-10.428 2.657-11.021 6.642l.366-.963s-1.583 7.123.736 11.475c0 0-3.9 3.221-1.696 5.764 0 0 0 6.274.255 9.157.05.576.233 1.152.233 1.152l-.3.559-1.72.205.974-1.812s-.184-.576-.234-1.152c-.255-2.883-.255-9.157-.255-9.157-2.204-2.543 1.696-5.764 1.696-5.764-2.319-4.353-.735-11.476-.735-11.476l-.367.963c.593-3.985 11.021-6.642 11.021-6.642 2.119-3.73 5.002-5.425 5.002-5.425 7.46-2.629 23.653-13.734 23.653-13.734z" fill="#fcc244"/></g></g></g><g transform="translate(-.721 .007)"><path d="m2.763 42.228.124 3.464c.03.827.725 1.475 1.553 1.445.827-.03 1.475-.725 1.445-1.553l-.124-3.464c-.03-.827-.725-1.475-1.553-1.445-.827.03-1.475.725-1.445 1.553z" fill="#e29a6c"/></g><g transform="translate(2.794 13.69)"><path d="m24.313 7.003.593 1.873-1.977.773-1.396-1.358 1.069-1.141z" fill="#e29a6c"/></g><g transform="translate(11.706 9.034)"><path d="m24.313 7.003.593 1.873-1.977.773-1.396-1.358 1.069-1.141z" fill="#e29a6c"/></g><g transform="translate(17.529 5.156)"><path d="m24.313 7.003.593 1.873-1.977.773-1.396-1.358 1.069-1.141z" fill="#e29a6c"/></g><g transform="translate(7.916 11.455)"><path d="m24.313 7.003.593 1.873-1.977.773-1.396-1.358 1.069-1.141z" fill="#e29a6c"/></g><g transform="matrix(-.707 .707 -.707 -.707 53.628 12.137)"><path d="m24.313 7.003.593 1.873-1.977.773-1.396-1.358 1.069-1.141z" fill="#e29a6c"/></g><g transform="matrix(0 .702 -.705 0 34.754 5.104)"><path d="m24.313 7.003.593 1.873-1.977.773-1.396-1.358 1.069-1.141z" fill="#e29a6c"/></g><g transform="matrix(0 .702 -.705 0 30.885 12.612)"><path d="m24.313 7.003.593 1.873-1.977.773-1.396-1.358 1.069-1.141z" fill="#e29a6c"/></g><g transform="matrix(.709 .709 -.712 .712 18.647 7.516)"><path d="m24.313 7.003.593 1.873-1.977.773-1.396-1.358 1.069-1.141z" fill="#e29a6c"/></g><g transform="matrix(-.351 -.608 .611 -.353 37.546 37.184)"><path d="m24.313 7.003.593 1.873-1.977.773-1.396-1.358 1.069-1.141z" fill="#e29a6c"/></g><g transform="matrix(-.351 -.608 .611 -.353 41.531 32.449)"><path d="m24.313 7.003.593 1.873-1.977.773-1.396-1.358 1.069-1.141z" fill="#e29a6c"/></g><g transform="matrix(.461 -.123 .174 .648 31.247 10.556)"><path d="m24.313 7.003.593 1.873-1.977.773-1.396-1.358 1.069-1.141z" fill="#e29a6c"/></g><g transform="matrix(0 .477 -.671 0 49.177 -.143)"><path d="m24.313 7.003.593 1.873-1.977.773-1.396-1.358 1.069-1.141z" fill="#e29a6c"/></g><g transform="matrix(-.413 -.238 .336 -.581 47.471 26.425)"><path d="m24.313 7.003.593 1.873-1.977.773-1.396-1.358 1.069-1.141z" fill="#e29a6c"/></g><g transform="matrix(.351 .608 -.611 .353 34.711 .483)"><path d="m24.313 7.003.593 1.873-1.977.773-1.396-1.358 1.069-1.141z" fill="#e29a6c"/></g><g transform="matrix(.707 -.707 .707 .707 1.379 35.155)"><path d="m24.313 7.003.593 1.873-1.977.773-1.396-1.358 1.069-1.141z" fill="#e29a6c"/></g><g transform="matrix(.707 -.707 .707 .707 -4.302 43.63)"><path d="m24.313 7.003.593 1.873-1.977.773-1.396-1.358 1.069-1.141z" fill="#e29a6c"/></g><g transform="matrix(1.011 -1.011 1.2 1.2 -12.01 42.108)"><path d="m24.313 7.003.593 1.873-1.977.773-1.396-1.358 1.069-1.141z" fill="#e29a6c"/></g><g transform="matrix(-.5 .866 -.866 -.5 30.864 15.011)"><path d="m24.313 7.003.593 1.873-1.977.773-1.396-1.358 1.069-1.141z" fill="#e29a6c"/></g><g transform="matrix(-.354 -1.322 .992 -.266 11.866 69.032)"><path d="m24.313 7.003.593 1.873-1.977.773-1.396-1.358 1.069-1.141z" fill="#e29a6c"/></g><g transform="matrix(.928 -.928 1.2 1.2 -4.034 37.671)"><path d="m24.313 7.003.593 1.873-1.977.773-1.396-1.358 1.069-1.141z" fill="#e29a6c"/></g><g transform="matrix(-.165 -1.302 1.683 -.213 5.764 61.471)"><path d="m24.313 7.003.593 1.873-1.977.773-1.396-1.358 1.069-1.141z" fill="#e29a6c"/></g><g transform="matrix(-.165 -1.302 1.683 -.213 16.102 64.637)"><path d="m24.313 7.003.593 1.873-1.977.773-1.396-1.358 1.069-1.141z" fill="#e29a6c"/></g></svg>