<svg id="Capa_1" enable-background="new 0 0 512 512" height="512" viewBox="0 0 512 512" width="512" xmlns="http://www.w3.org/2000/svg"><g><path d="m197.641 13.096c-1.799-1.949-4.33-3.057-6.982-3.057h-13.292c-3.499 0-6.715 1.923-8.371 5.005l-107.097 199.345c-.349.649-1.025 1.053-1.762 1.053h-11.259c-6.099 0-11.402 4.184-12.822 10.115l-13.948 58.281 119.651 10 220.606-10v-92.315z" fill="#d8ecfe"/><path d="m183.355 10.039h-5.988c-.712 0-1.406.099-2.083.252 1.844.426 3.538 1.391 4.844 2.805l5.447 5.899z" fill="#b3dafe"/><path d="m190.658 10.039h-7.303v59.874c0 2.03.744 3.989 2.091 5.507l46.649 52.573c2.858 3.22 3.426 7.873 1.427 11.686l-61.204 116.771v27.388h190.048v-92.315l-164.725-178.427c-1.799-1.949-4.331-3.057-6.983-3.057z" fill="#b3dafe"/><path d="m295.574 119.176-25.242 48.29c-.926 1.773-2.761 2.884-4.761 2.884h-23.273c-5.79 0-11.09 3.252-13.713 8.414l-33.229 65.825v39.25h167.01v-92.315z" fill="#8ac9fe"/><path d="m197.641 13.096c-1.799-1.949-4.33-3.057-6.982-3.057h-7.303v6.552l161.498 174.932v92.315h17.513v-92.315z" fill="#8ac9fe"/><path d="m379.137 64.975c-1.679-3.578-5.275-5.863-9.227-5.863h-21.403c-3.115 0-5.97 1.735-7.405 4.499l-55.379 106.659-1.231 12.909c-.226.436-6.346 1.091-6.837 1.091h-25.728c-5.79 0-11.09 3.252-13.713 8.414l-26.375 51.905v39.25l114.4 10 155.588-10z" fill="#d8ecfe"/><path d="m481.826 283.839-102.689-218.864c-1.679-3.578-5.275-5.863-9.227-5.863h-21.403c-.687 0-1.357.098-2.006.259l26.547 86.57c.65 2.119.317 4.417-.907 6.264l-28.141 42.467c-2.303 3.476-1.285 8.167 2.252 10.376l23.544 14.702c2.582 1.612 3.915 4.641 3.36 7.634l-10.464 56.454h119.134z" fill="#b3dafe"/><path d="m379.137 64.975c-1.679-3.578-5.275-5.863-9.227-5.863h-17.513c3.952 0 7.548 2.285 9.227 5.863l102.689 218.864h17.513z" fill="#8ac9fe"/><path d="m324.709 177.27c0-3.866-3.134-7-7-7h-31.986l-6.901 13.291c-.226.436-.676.709-1.167.709h40.054c3.866 0 7-3.134 7-7z" fill="#b3dafe"/><path d="m259.542 222.659h-51.27c-2.184 0-5.263-1.466-6.178-3.449l-19.287-44.62c-.895-1.94-2.316-3.098-4.452-3.098l-14.913-.218c-.246 0-.605-.06-.845-.028-1.841.247-3.452 1.415-4.244 3.131l-50.53 109.463 75.532 10 121.899-8.009-36.429-54.162c-2.659-4.023-4.462-9.01-9.283-9.01z" fill="#b3dafe"/><path d="m271.381 227.368c-2.659-4.021-7.158-6.439-11.978-6.439h-51.005c-2.185 0-4.17-1.27-5.085-3.253l-19.987-43.299c-.896-1.94-2.837-3.182-4.974-3.182h-15.025c-.246 0-.489.018-.729.051 1.84.247 3.453 1.415 4.245 3.131l25.395 54.393c.916 1.983 2.901 3.253 5.085 3.253h51.006c4.82 0 9.319 2.419 11.978 6.439l31.933 45.377h16.483z" fill="#8ac9fe"/><path d="m60.137 215.442h29.952c5.09 0 9.832-2.517 12.686-6.733l16.105-23.803c2.167-3.202 1.327-7.554-1.875-9.72-3.204-2.168-7.555-1.328-9.721 1.875l-16.104 23.801c-.246.363-.654.58-1.091.58h-21.235l-6.955 12.947c-.349.648-1.025 1.053-1.762 1.053z" fill="#b3dafe"/><path d="m5.151 283.839h16.958l233.891 30 225.826-30h25.023c2.845 0 5.151 2.306 5.151 5.151v207.82c0 2.845-2.306 5.151-5.151 5.151h-501.698c-2.845 0-5.151-2.306-5.151-5.151v-207.82c0-2.845 2.306-5.151 5.151-5.151z" fill="#01d0fb"/><path d="m22.109 283.839 30.594 47.049c2.58 3.968 6.993 6.362 11.726 6.362h94.228c5.095 0 8.541 1.282 10.512 4.296l4.416 9.704 64.328 98.353c4.682 7.158 15.018 7.582 20.27.832l47.852-61.5c1.665-2.14 4.226-3.392 6.938-3.392h38.144c3.135 0 5.92-2.004 6.917-4.977l10.328-30.82c.909-2.714 3.451-4.543 6.313-4.543h66.733c3.662 0 7.038-1.976 8.833-5.168l31.585-56.196z" fill="#08a9f1"/><path d="m464.313 283.839-27.73 44.994c-1.794 3.192-5.171 5.168-8.832 5.168h-66.733c-2.862 0-5.404 1.829-6.313 4.543l-9.852 30.169c-.996 2.973-3.781 4.977-6.917 4.977h-35.053c-2.712 0-5.272 1.252-6.938 3.392l-55.275 73.352c-.337.433-.696.834-1.071 1.208 5.15 5.111 13.891 4.824 18.585-1.208l47.852-61.5c1.665-2.14 4.226-3.392 6.938-3.392h38.144c3.135 0 5.92-2.004 6.917-4.977l10.328-30.82c.909-2.714 3.451-4.543 6.313-4.543h66.733c3.662 0 7.039-1.976 8.833-5.168l31.585-56.196h-17.514z" fill="#0290cf"/><g fill="#08a9f1"><path d="m454.385 414.279c-10.083 0-15.375-4.239-19.627-7.645-3.438-2.753-5.707-4.572-10.875-4.572-5.167 0-7.438 1.819-10.873 4.571-4.253 3.406-9.544 7.646-19.628 7.646-3.866 0-7-3.134-7-7s3.134-7 7-7c5.168 0 7.438-1.819 10.875-4.572 4.252-3.406 9.543-7.645 19.626-7.645s15.375 4.239 19.627 7.645c3.438 2.753 5.707 4.572 10.875 4.572 5.169 0 7.439-1.819 10.877-4.572 4.252-3.406 9.545-7.645 19.629-7.645 3.866 0 7 3.134 7 7s-3.134 7-7 7c-5.169 0-7.439 1.819-10.877 4.572-4.252 3.407-9.545 7.645-19.629 7.645z"/><path d="m188.615 474.219c-9.982 0-15.387-3.035-19.73-5.474-3.805-2.137-6.555-3.681-12.875-3.681s-9.069 1.544-12.875 3.681c-4.342 2.438-9.747 5.474-19.729 5.474s-15.387-3.035-19.729-5.474c-3.805-2.137-6.555-3.681-12.875-3.681-3.866 0-7-3.134-7-7s3.134-7 7-7c9.982 0 15.386 3.035 19.729 5.474 3.805 2.137 6.555 3.681 12.875 3.681s9.069-1.544 12.875-3.681c4.342-2.438 9.747-5.474 19.729-5.474s15.387 3.035 19.729 5.474c3.806 2.137 6.555 3.681 12.875 3.681 3.866 0 7 3.134 7 7s-3.133 7-6.999 7z"/><path d="m145.965 397.119c-9.983 0-15.388-3.035-19.731-5.473-3.806-2.137-6.556-3.681-12.878-3.681s-9.072 1.544-12.878 3.681c-4.343 2.438-9.749 5.473-19.731 5.473s-15.387-3.035-19.73-5.473c-3.805-2.137-6.555-3.681-12.875-3.681-3.866 0-7-3.134-7-7s3.134-7 7-7c9.982 0 15.387 3.035 19.73 5.473 3.805 2.137 6.555 3.681 12.875 3.681 6.322 0 9.072-1.544 12.878-3.681 4.343-2.438 9.749-5.473 19.731-5.473s15.388 3.035 19.731 5.473c3.806 2.137 6.556 3.681 12.878 3.681 3.866 0 7 3.134 7 7s-3.134 7-7 7z"/></g><path d="m213.44 343.37c-2.708-3.833-7.127-6.121-11.821-6.121h-42.962c3.601 0 6.959 1.816 8.93 4.83l5.998 9.17h28.034c.154 0 .299.075.387.2l22.957 32.487c1.364 1.93 3.526 2.961 5.723 2.961 1.396 0 2.807-.417 4.034-1.284 3.157-2.231 3.908-6.599 1.677-9.756z" fill="#0290cf"/></g></svg>