<svg id="svg5" height="24" viewBox="0 0 6.3499757 6.3500061" width="24" xmlns="http://www.w3.org/2000/svg" xmlns:svg="http://www.w3.org/2000/svg"><g id="layer1" transform="translate(-14.288 -338.138)"><g id="g61636" stroke-linecap="round" stroke-linejoin="round" transform="translate(.205 -.197)"><path id="path52863" d="m15.619202 339.463a.1322915.1322915 0 0 0 -.119373.14418l.361735 3.92224v-.0119c.000135.11337.06191.21062.144177.28319.08228.0726.187297.12892.312643.1757.250693.0936.580856.14674.945162.14676.364305-.00002.694985-.0532.945678-.14676.125347-.0468.231916-.10313.314193-.1757.08228-.0726.144558-.16982.144694-.28319v.0119l.361218-3.92224a.1322915.1322915 0 0 0 -.120923-.14418.1322915.1322915 0 0 0 -.142627.11885l-.001.0124h-3.000334l-.001-.0124a.1322915.1322915 0 0 0 -.144243-.11885z" fill="#80e5ff" paint-order="stroke fill markers"/><path id="path52860" d="m18.908406 339.463a.1322915.1322915 0 0 0 -.142627.11885l-.001.0124h-.140043l-.353984 3.84162v-.0119c-.000136.11337-.06241.21058-.144694.28318-.08228.0726-.188846.1289-.314192.1757-.250693.0936-.581375.14674-.945679.14676-.175916-.00001-.343788-.0123-.498678-.0356.244011.0827.555032.12917.89607.12919.364304-.00002.694986-.0532.945678-.14676.125347-.0468.231916-.10313.314193-.1757.08228-.0726.144558-.16982.144694-.28319v.0119l.361218-3.92224a.1322915.1322915 0 0 0 -.120956-.14421z" fill="#5df" paint-order="stroke fill markers"/><path id="path52857" d="m17.264369 342.96119c-.366517 0-.697505.0541-.947193.14722-.124845.0466-.230599.10308-.309752.1728-.07915.0697-.135314.15864-.135314.2602 0 .10153.05616.19203.135314.26177.07915.0697.184907.12628.309752.17279.249688.0929.580676.14721.947193.14721.366516 0 .699134-.0541.948823-.14721.124843-.0466.228967-.10309.308122-.17279.07915-.0697.13572-.16024.13572-.26177 0-.10156-.05656-.19048-.13572-.2602-.07915-.0697-.183279-.1263-.308122-.1728-.249689-.093-.582307-.14722-.948823-.14722z" fill="#2ad4ff" paint-order="stroke fill markers"/><path id="path52854" d="m17.263546 338.83203c-.464713 0-.884377.0711-1.200961.19327-.158292.0611-.29238.13533-.392741.22686-.10036.0915-.171565.20827-.171565.34158s.0712.25212.171565.34365c.100361.0915.234449.1658.392741.22686.316584.12212.736248.19327 1.200961.19327.464712 0 .886443-.0711 1.203027-.19327.158292-.0611.290313-.13533.390674-.22686.100361-.0915.172082-.21034.172082-.34365s-.07172-.25005-.172082-.34158c-.100361-.0915-.232382-.1658-.390674-.22686-.316584-.12212-.738315-.19327-1.203027-.19327z" fill="#aef" paint-order="stroke fill markers"/><path id="path52851" d="m17.350362 338.83306c.39326.009.749107.0785 1.02061.19224.145689.0611.267298.13536.359668.22686s.158129.20827.158129.34158-.06576.25215-.158129.34365c-.09237.0915-.213979.16576-.359668.22686-.271503.11383-.62735.18328-1.02061.19223.430403-.008.819414-.0777 1.116211-.19223.158292-.0611.290313-.13533.390674-.22686.100361-.0915.172082-.21034.172082-.34365s-.07172-.25005-.172082-.34158c-.100361-.0915-.232382-.1658-.390674-.22686-.296797-.11449-.685808-.18397-1.116211-.19224z" fill="#d5f6ff" paint-order="stroke fill markers"/><path id="path52848" d="m17.176729 338.83306c-.430176.008-.817346.0777-1.114144.19224-.158292.0611-.29238.13533-.392741.22686-.100359.0915-.171565.20827-.171565.34158s.0712.25212.171565.34365c.100361.0915.234449.1658.392741.22686.296798.11448.683968.18397 1.114144.19223-.393017-.009-.747051-.0784-1.018542-.19223-.14569-.0611-.268849-.13536-.361219-.22686-.09238-.0915-.158129-.21034-.158129-.34365s.06576-.25008.158129-.34158c.09237-.0915.215529-.16576.361219-.22686.271491-.11383.625525-.18328 1.018542-.19224z" fill="#d5f6ff" paint-order="stroke fill markers"/><path id="path52845" d="m17.264579 342.96098c-.366517 0-.697541.0541-.947229.14727-.124845.0466-.230906.1034-.310058.17312-.07915.0697-.135393.15837-.135393.25993 0 .10153.05624.19226.135393.262.07915.0697.185213.12609.310058.1726.01644.006.033.0123.05013.0181.000307.0001.000727-.00011.001 0 .154612.0232.322106.0356.497644.0356.364303-.00002.694986-.0532.945679-.14676.125345-.0468.231912-.1031.314192-.1757s.144558-.16981.144694-.28318v.0119l.02687-.29249c-.02704-.0121-.05484-.0242-.08423-.0351-.249688-.093-.582263-.14727-.948779-.14727zm1.273824.82578c-.005.005-.0098.009-.01499.014-.08228.0726-.188846.1289-.314193.1757-.09302.0347-.196868.0639-.309542.0868.114372-.0231.220043-.0524.313676-.0873.124843-.0466.228837-.1029.307992-.1726.006-.005.01137-.0111.01705-.0165zm-1.567346.32453c.01427.001.02846.002.04289.003-.01447-.001-.02858-.002-.04289-.003z" fill="#5df" paint-order="stroke fill markers"/><g fill="#aef" stroke-dasharray="2.117 .529 .265 .529" stroke-dashoffset="1.905"><path id="path52842" d="m16.398133 341.56076a.11069129.11069129 0 0 0 -.09969.12093l.161787 1.76332a.11069129.11069129 0 0 0 .120933.0997.11069129.11069129 0 0 0 .09969-.11929l-.163423-1.76333a.11069129.11069129 0 0 0 -.119297-.10132z" paint-order="stroke fill markers"/><path id="path52839" d="m16.337667 340.90054a.11069129.11069129 0 0 0 -.101323.11929l.02124.22063a.11069129.11069129 0 0 0 .119299.0997.11069129.11069129 0 0 0 .101321-.1193l-.02124-.22061a.11069129.11069129 0 0 0 -.119298-.0997z" paint-order="stroke fill markers"/></g></g></g></svg>