<svg clip-rule="evenodd" fill-rule="evenodd" height="512" image-rendering="optimizeQuality" shape-rendering="geometricPrecision" text-rendering="geometricPrecision" viewBox="0 0 1707 1707" width="512" xmlns="http://www.w3.org/2000/svg"><g id="Layer_x0020_1"><g id="_355288640"><path d="m1042 665-1033-369-9-296h1707v1707l-297-9z" fill="#ffb531"/><path d="m1392 348-9-25-25-9" fill="none"/><path d="m270 614 822 823-35 35c-39 39-103 39-142 0l-680-680c-39-39-40-103 0-142z" fill="#323d2c"/><path d="m1707 0h-1231l907 323 324 907z" fill="#f35244"/><g fill="#323d2c"><path d="m1673 0h34v34l-482 481c-9 10-24 10-34 0-9-9-9-24 0-33z"/><path d="m283 682c-13 3-25-6-27-19s6-26 19-28l929-160c13-2 26 6 28 19v9l-160 930c-2 13-14 22-27 20-13-3-22-15-20-28l154-897z"/></g></g></g></svg>