<svg clip-rule="evenodd" fill-rule="evenodd" height="512" stroke-linejoin="round" stroke-miterlimit="2" viewBox="0 0 64 64" width="512" xmlns="http://www.w3.org/2000/svg"><g transform="translate(5.657 -8.905)"><path d="m19.933 15.685c-1.041-1.177-.999-2.979.127-4.105 1.17-1.17 3.07-1.17 4.24 0l14.6 14.59c1.11 1.11 2.11 2.33 2.98 3.63l4.35 6.52 9.9 9.9-15.56 15.56-9.9-9.9-7.27-1.04c-1.7-.24-3.28-1.03-4.5-2.25l-10.15-10.14c-1.17-1.17-1.17-3.07 0-4.24s3.07-1.17 4.24 0l.001-.004-9.901-9.896c-1.17-1.17-1.17-3.07 0-4.24s3.07-1.17 4.24 0l-2.82-2.84c-1.17-1.17-1.17-3.07 0-4.24s3.07-1.17 4.24 0l4.25 4.24c-1.17-1.17-1.17-3.07 0-4.24s3.07-1.17 4.24 0z" fill="#615260" fill-rule="nonzero"/></g><g transform="matrix(.707 -.707 .707 .707 -11.425 22.337)"><path d="m37.775 13.552c.547-.724 1.415-1.192 2.392-1.192 1.654 0 2.998 1.344 2.998 2.999l.007 20.64c0 1.57-.156 3.14-.46 4.674l-1.534 7.686v14.001h-3v-12.871l1.534-7.686c.304-1.535.46-3.104.46-4.674l-.007-20.641c0-1.446-1.027-2.655-2.39-2.936z" fill="#4e3d4d"/></g><g transform="matrix(.707 -.707 .707 .707 -11.425 22.337)"><path d="m25.782 3.554c.548-.724 1.416-1.192 2.392-1.192 1.655 0 2.998 1.343 2.998 2.998l.066 23.079-3.059-.03-.007-21.919c0-1.446-1.026-2.655-2.39-2.936z" fill="#4e3d4d"/></g><g transform="matrix(.707 -.707 .707 .707 -12.845 29.447)"><path d="m25.782 3.554c.548-.724 1.416-1.192 2.392-1.192 1.655 0 2.998 1.343 2.998 2.998l.004 18.529-2.998.184-.006-17.583c0-1.446-1.026-2.655-2.39-2.936z" fill="#4e3d4d"/></g><g transform="matrix(.707 -.707 .707 .707 -11.425 22.337)"><path d="m31.786 9.557c1.709-2.259 5.39-.992 5.39 1.806l-.015 17.196-2.992-.066.007-16c0-1.446-1.027-2.655-2.39-2.936z" fill="#4e3d4d"/></g><g transform="translate(5.657 -8.905)"><path d="m47.64 37.74-12.73 12.73 5.66 5.66 12.73-12.73z" fill="#ffe077" fill-rule="nonzero"/></g><g transform="translate(8.404 -13.229)"><path d="m42.777 44.18 5.66 5.66 2.117-2.116-5.66-5.66z" fill="#ffc244"/></g><g transform="translate(5.657 -8.905)"><path d="m46.933 42.693-7.07 7.07c-.39.39-.39 1.024 0 1.414s1.024.39 1.414 0l7.07-7.07c.39-.39.39-1.024 0-1.414s-1.024-.39-1.414 0z" fill="#ffc244"/></g><g transform="translate(5.657 -8.905)"><path d="m34.2 27.135-1.41 1.42c-.388.392-.386 1.026.005 1.415.392.388 1.026.386 1.415-.005l1.41-1.42c.388-.392.386-1.026-.005-1.415-.392-.388-1.026-.386-1.415.005z" fill="#ffc244"/></g><path d="m19.933 15.685c-1.041-1.177-.999-2.979.127-4.105 1.17-1.17 3.07-1.17 4.24 0l14.6 14.59c1.11 1.11 2.11 2.33 2.98 3.63l4.35 6.52 9.9 9.9-15.56 15.56-9.9-9.9-7.27-1.04c-1.7-.24-3.28-1.03-4.5-2.25l-10.15-10.14c-1.17-1.17-1.17-3.07 0-4.24s3.07-1.17 4.24 0l.001-.004-9.901-9.896c-1.17-1.17-1.17-3.07 0-4.24s3.07-1.17 4.24 0l-2.82-2.84c-1.17-1.17-1.17-3.07 0-4.24s3.07-1.17 4.24 0l4.25 4.24c-1.17-1.17-1.17-3.07 0-4.24s3.07-1.17 4.24 0z" fill="#615260" fill-rule="nonzero"/><g transform="matrix(.707 -.707 .707 .707 -17.083 31.242)"><path d="m37.775 13.552c.547-.724 1.415-1.192 2.392-1.192 1.654 0 2.998 1.344 2.998 2.999l.007 20.64c0 1.57-.156 3.14-.46 4.674l-1.534 7.686v14.001h-3v-12.871l1.534-7.686c.304-1.535.46-3.104.46-4.674l-.007-20.641c0-1.446-1.027-2.655-2.39-2.936z" fill="#4e3d4d"/></g><g transform="matrix(.707 -.707 .707 .707 -17.083 31.242)"><path d="m25.782 3.554c.548-.724 1.416-1.192 2.392-1.192 1.655 0 2.998 1.343 2.998 2.998l.066 23.079-3.059-.03-.007-21.919c0-1.446-1.026-2.655-2.39-2.936z" fill="#4e3d4d"/></g><g transform="matrix(.707 -.707 .707 .707 -18.503 38.352)"><path d="m25.782 3.554c.548-.724 1.416-1.192 2.392-1.192 1.655 0 2.998 1.343 2.998 2.998l.004 18.529-2.998.184-.006-17.583c0-1.446-1.026-2.655-2.39-2.936z" fill="#4e3d4d"/></g><g transform="matrix(.707 -.707 .707 .707 -12.845 52.473)"><path d="m25.782 3.554c.548-.724 1.416-1.192 2.392-1.192 1.655 0 2.998 1.343 2.998 2.998l.005 13.607-2.998-.031-.007-12.446c0-1.446-1.026-2.655-2.39-2.936z" fill="#4e3d4d"/></g><g transform="matrix(.707 -.707 .707 .707 -17.083 31.242)"><path d="m31.786 9.557c1.709-2.259 5.39-.992 5.39 1.806l-.015 17.196-2.992-.066.007-16c0-1.446-1.027-2.655-2.39-2.936z" fill="#4e3d4d"/></g><path d="m47.64 37.74-12.73 12.73 5.66 5.66 12.73-12.73z" fill="#ffe077" fill-rule="nonzero"/><g transform="translate(2.746 -4.324)"><path d="m42.777 44.18 5.66 5.66 2.117-2.116-5.66-5.66z" fill="#ffc244"/></g><g fill="#ffc244"><path d="m46.933 42.693-7.07 7.07c-.39.39-.39 1.024 0 1.414s1.024.39 1.414 0l7.07-7.07c.39-.39.39-1.024 0-1.414s-1.024-.39-1.414 0z"/><path d="m25.715 38.45 1.42-1.41c.391-.389.393-1.023.005-1.415-.389-.391-1.023-.393-1.415-.005l-1.42 1.41c-.391.389-.393 1.023-.005 1.415.389.391 1.023.393 1.415.005z"/><path d="m29.967 34.207 1.41-1.41c.39-.39.39-1.024 0-1.414s-1.024-.39-1.414 0l-1.41 1.41c-.39.39-.39 1.024 0 1.414s1.024.39 1.414 0z"/><path d="m34.2 27.135-1.41 1.42c-.388.392-.386 1.026.005 1.415.392.388 1.026.386 1.415-.005l1.41-1.42c.388-.392.386-1.026-.005-1.415-.392-.388-1.026-.386-1.415.005z"/></g></svg>