<svg id="Flat" height="512" viewBox="0 0 128 128" width="512" xmlns="http://www.w3.org/2000/svg"><path d="m119.408 42.977a7.011 7.011 0 0 1 -1.887 1.576s-3 5.287-1 10.628c0 0-5.818-4.343-5.552-11.361a8.256 8.256 0 0 0 -9.666 6.743s-3.959 16.8-10.473 25.408a.028.028 0 0 1 -.009.018 13.671 13.671 0 0 1 -4.837 4.311 6.462 6.462 0 0 1 -1.952.605 1.756 1.756 0 0 0 -.036.211 66.438 66.438 0 0 1 -4.444 15.182s-4.728 8.961-3.473 12.892a7.022 7.022 0 0 1 3.281 4.746.317.317 0 0 1 .009.055c.018.146.036.265.055.394a.993.993 0 0 1 -1.008.943h-7.238a.994.994 0 0 1 -1-1.1l.9-8.494a50.582 50.582 0 0 0 -.422-13.459 59.889 59.889 0 0 1 -.733-9.74h-.009c-.577.22-1.145.422-1.713.614a49.622 49.622 0 0 1 -32.518-.577c-.046-.019-.082-.028-.119-.046-1.136-.422-1.75-.715-1.75-.715-.11.138-.211.266-.32.394 0 .009-.01.009-.01.009a69.835 69.835 0 0 1 -7.32 7.532 25.744 25.744 0 0 0 -3.117 5.254 15.03 15.03 0 0 0 2.309 15.466l1.026 1.237a.692.692 0 0 1 -.531 1.136h-6.918a.687.687 0 0 1 -.687-.714c.092-5.883-1.75-14.046-2.6-17.537a2.968 2.968 0 0 1 .916-2.905c7.22-6.89 4.426-12.543 4.426-12.543-6.6-11.682-6.359-22.017-6.359-22.017-5.958-3.16-8.01-10.435-8.129-10.893a7.6 7.6 0 0 0 5.4 3.4c-4.548-5.33-1.341-12.123-1.341-12.123s-.449 8.127 10.253 12.122c0 0 11.407-8.64 24.958-3.647 0 0 10.958 3.922 17.913 1.063 0 0 11.233-2.675 17.115-3.463 0 0 6.89.714 13.936-10.006a32.7 32.7 0 0 1 -8.411-3.72 10.8 10.8 0 0 0 4.361-2.437 5.49 5.49 0 0 1 3.821-1.787 11.587 11.587 0 0 1 4.6.962 8.2 8.2 0 0 1 1.181-1.062 7.67 7.67 0 0 1 6.964-1.4 10.549 10.549 0 0 1 4.38 2.822 16.785 16.785 0 0 1 2.941 4.1 20.225 20.225 0 0 0 3.4 4.6s-2.631 5.051 1.437 7.323z" fill="#d3ac7c"/><path d="m69.922 82.531h-.009c-.577.22-1.145.422-1.713.614a49.622 49.622 0 0 1 -32.518-.577c-.046-.019-.082-.028-.119-.046-1.136-.422-1.75-.715-1.75-.715.019-.2.019-.4.019-.659a12.147 12.147 0 0 1 -.019-1.824s.614.293 1.75.715c.037.018.073.027.119.046a49.622 49.622 0 0 0 32.518.577c.568-.192 1.136-.394 1.713-.614h.009c0 .861-.022 1.695 0 2.483z" opacity=".1"/><path d="m14.1 49.629a7.756 7.756 0 0 1 -2.978-1.045c-3.363-5.131-.559-11.077-.559-11.077a10.263 10.263 0 0 0 1.118 4.572 10.427 10.427 0 0 0 2.419 7.55z" opacity=".1"/><path d="m21.132 112.84h-2.2a.687.687 0 0 1 -.687-.714c.092-5.883-1.75-14.046-2.6-17.537a2.968 2.968 0 0 1 .916-2.905c7.22-6.89 4.426-12.543 4.426-12.543-6.6-11.682-6.359-22.017-6.359-22.017-5.956-3.161-8.009-10.436-8.128-10.894a7.162 7.162 0 0 0 3.244 2.785c1.145 2.52 3.344 6.13 7.082 8.109 0 0-.238 10.335 6.359 22.017 0 0 2.794 5.653-4.426 12.543a2.968 2.968 0 0 0 -.916 2.905c.852 3.491 2.694 11.654 2.6 17.537a.687.687 0 0 0 .689.714z" opacity=".1"/><path d="m121.333 40.04a14.425 14.425 0 0 1 -1.925 2.932c-4.068-2.263-1.438-7.311-1.438-7.311a16.8 16.8 0 0 0 2.813 2.327 1.6 1.6 0 0 1 .55 2.052z" fill="#666667"/><path d="m79.193 113.261a122.714 122.714 0 0 1 -1.168-13.683" fill="none"/><path d="m84.718 96.874s-1.869 3.3-1.779 11.5c0 0 4.025 2.2 4.51 5.8a1.006 1.006 0 0 1 -.988 1.159h-6.029a1 1 0 0 1 -1-.863c0-.027-.009-.054-.009-.09a.98.98 0 0 0 -.018-.224.956.956 0 0 0 -.036-.171c0-.018-.009-.036-.009-.054-.054-.233-.108-.449-.171-.665a122.951 122.951 0 0 1 -1.167-13.683c.808-1.905 1.527-3.279 1.527-3.279a66.493 66.493 0 0 0 4.483-15.4c2.48-.342 4.762-2.22 6.783-4.906a41.393 41.393 0 0 0 -3.252 12.821 42.915 42.915 0 0 1 -2.845 8.055z" fill="#bb8d5c"/><path d="m34.968 98.955a11.839 11.839 0 0 0 2.767 10.271 17.4 17.4 0 0 1 1.905 2.584.688.688 0 0 1 -.6 1.026h-6.693a.7.7 0 0 1 -.7-.651c-.119-2.254-.678-9.978-2.731-16.007a3.662 3.662 0 0 1 .733-3.509c1.925-2.272 5.186-6.514 6.029-10.1a48.658 48.658 0 0 0 8.732 2.318s-7.683 6.243-9.442 14.068z" fill="#bb8d5c"/><path d="m107.25 24.125a7.672 7.672 0 0 0 -6.964 1.411c-3.655-13.844-20.477-10.836-22.017-10.509 21.495-7.092 27.451 3.573 28.981 9.098z" fill="#808080"/><path d="m107.856 30.476a1.209 1.209 0 1 0 1.209 1.209 1.209 1.209 0 0 0 -1.209-1.209z"/></svg>