<svg id="Flat" enable-background="new 0 0 123.999 112.661" height="512" viewBox="0 0 123.999 112.661" width="512" xmlns="http://www.w3.org/2000/svg"><g><g id="XMLID_9_"><path d="m122.76 96.271s-7.16-2.83-10.58-7.35-4.94-23.96-4.94-23.96 0-.66-.21-1.77c-.57-2.86-2.6-8.69-9.91-13.55-10.12-6.73-22.91-2.26-27.88-3.96-4.98-1.7-14.43-6.77-17.67-11.92-3.24-5.14-7.5-19.04-11.41-25.26-3.56-5.65-9.66-8.38-16.82-8.5-1.28-.03-2.43.82-2.8 2.05l-.24.8c-.26.86-.91 1.55-1.76 1.86-1.75.64-5.03 2.29-8.29 6.37-1.18 1.48-2.09 3.08-2.78 4.65-2.11 4.77-2.25 9.27-2.25 9.27v.02c-1.44-.12-2.7.26-3.57 1.29-1.65 1.93.78 5.66.78 5.66s-2.43.46-2.43 3.17c0 2.72 1.69 5.48 6.43 7.41 4.02 1.64 10.48 1.03 12.36.81-.4 4.47 1 8.52 2.64 11.59 0 0-.85 4.83-2.06 7.11s-5 4.74-6.54 9.48-.52 29.22-.52 29.22c-3 1.65-4.71 4.2-5.37 7.5-.46 2.28 1.31 4.4 3.64 4.4l8.82-.01s3.21 0 3.71-2.06c0 0 3.95.6 4.15-2.76.19-3.24-2.76-4.82-2.98-4.93.8-.1 1.49-.35 1.91-.93.67-.93.72-1.73.57-2.34-.27-1.08.03-2.22.74-3.08 1.83-2.19 4.96-6.03 7.37-9.5-.07 5.44 1.25 9.83 3.83 13.26.52.69.48 1.66-.14 2.26-.83.8-1.82 2.03-2.01 3.48-.16 1.21.31 2.3.85 3.11.61.92 1.63 1.47 2.73 1.47h7.88c1.55 0 2.54-1.06 2.79-2.27 0 0 3.57-1.03 3.57-4.88 0-3.74-4.07-4.82-4.31-4.88.79-4.18.39-13.12-1.81-18.93 4.78 2.39 10.45 3.81 16.89 4.4h.01c-.61 9.02 1 20.97 1 20.97-2.05.32-3.71.77-4.85 1.65-1.65 1.28-.68 3.94 1.41 3.94h18.37c1.74 0 2.96-1.71 2.4-3.35l-.42-1.24c4.77-4.14 5.69-10.55 3.78-18.62 3.44 10.5 12.08 16.42 25.07 18.48.85.14 1.31 1.01 1.05 1.83-.43 1.3-.27 2.55.25 3.55.41.79 1.53.84 2.06.12l8.16-11.05c.97-1.3.67-3.15-.67-4.08z" fill="#5d5560"/><g><path d="m54.37 103.481c0 3.85-3.57 4.88-3.57 4.88.26-1.24-.25-2.64-1.73-3.23-.24-.09-.49-.18-.75-.26-1.06-.32-1.36-1.67-.54-2.42.62-.57 1.23-1.25 1.69-2.04.24-.39.43-1.02.58-1.81h.01c.24.06 4.31 1.14 4.31 4.88z" fill="#504256"/><path d="m24.28 102.901c.22.11 3.17 1.69 2.98 4.93-.2 3.36-4.15 2.76-4.15 2.76.12-.48.08-1.08-.18-1.82-1.01-2.04-4.2-1.65-3.89-4.19.26-2.16 3.11-1.41 5.24-1.68z" fill="#5d5560"/><path d="m107.24 64.961s1.52 19.44 4.94 23.96 10.58 7.35 10.58 7.35c1.34.93 1.64 2.78.67 4.08l-8.16 11.05c-.53.72-1.65.67-2.06-.12-.52-1-.68-2.25-.25-3.55.26-.82-.2-1.69-1.05-1.83-12.99-2.06-21.63-7.98-25.07-18.48 0 0 7.88-1.64 13.57-6.88 5.7-5.23 6.61-17.35 6.61-17.35h.01c.21 1.11.21 1.77.21 1.77z" fill="#524956"/><path d="m38.04 81.561c1.68-4.8 1.26-8.69 1.26-8.69 2.48 2.81 5.48 5.06 8.95 6.8 2.2 5.81 2.6 14.75 1.81 18.93-.01 0-.01 0-.01 0-.15.79-.34 1.42-.58 1.81-.46.79-1.07 1.47-1.69 2.04-.82.75-.52 2.1.54 2.42.26.08.51.17.75.26 1.48.59 1.99 1.99 1.73 3.23-.25 1.21-1.24 2.27-2.79 2.27h-7.88c-1.1 0-2.12-.55-2.73-1.47-.54-.81-1.01-1.9-.85-3.11.19-1.45 1.18-2.68 2.01-3.48.62-.6.66-1.57.14-2.26-2.58-3.43-3.9-7.82-3.83-13.26 1.47-2.12 2.68-4.1 3.17-5.49z" fill="#524956"/><path d="m24.28 102.901c-2.13.27-4.98-.48-5.24 1.68-.31 2.54 2.88 2.15 3.89 4.19.26.74.3 1.34.18 1.82-.5 2.06-3.71 2.06-3.71 2.06l-8.82.01c-2.33 0-4.1-2.12-3.64-4.4.66-3.3 2.37-5.85 5.37-7.5 0 0-1.02-24.48.52-29.22s5.33-7.2 6.54-9.48 2.06-7.11 2.06-7.11c-1.64-3.07-3.04-7.12-2.64-11.59.19-2.15.8-4.39 2.01-6.68 1.79-3.4 4.08-5.33 6.46-6.34l-1.77-2.99c3.15.13 6.58-2.47 5.47-6.57-1.09-4.05-5.7-3.35-6.22-.53l-2.13-4.26-2.46.78-1.43-2.05-4.59.84-2.02-1.67-4.64 1.84c.69-1.57 1.6-3.17 2.78-4.65 3.26-4.08 6.54-5.73 8.29-6.37.85-.31 1.5-1 1.76-1.86l.24-.8c.37-1.23 1.52-2.08 2.8-2.05 7.16.12 13.26 2.85 16.82 8.5 3.91 6.22 8.17 20.12 11.41 25.26 3.24 5.15 12.69 10.22 17.67 11.92 4.97 1.7 17.76-2.77 27.88 3.96 7.31 4.86 9.34 10.69 9.91 13.55h-.01s-.91 12.12-6.61 17.35c-5.69 5.24-13.57 6.88-13.57 6.88 1.91 8.07.99 14.48-3.78 18.62l.42 1.24c.56 1.64-.66 3.35-2.4 3.35h-18.37c-2.09 0-3.06-2.66-1.41-3.94 1.14-.88 2.8-1.33 4.85-1.65 0 0-1.61-11.95-1-20.97h-.01c-6.44-.59-12.11-2.01-16.89-4.4-3.47-1.74-6.47-3.99-8.95-6.8 0 0 .42 3.89-1.26 8.69-.49 1.39-1.7 3.37-3.17 5.49-2.41 3.47-5.54 7.31-7.37 9.5-.71.86-1.01 2-.74 3.08.15.61.1 1.41-.57 2.34-.42.58-1.11.83-1.91.93z" fill="#5d5560"/><path d="m27.26 30.341c-2.38 1.01-4.67 2.94-6.46 6.34-1.21 2.29-1.82 4.53-2.01 6.68-1.88.22-8.34.83-12.36-.81-4.74-1.93-6.43-4.69-6.43-7.41 0-2.71 2.43-3.17 2.43-3.17s-2.43-3.73-.78-5.66c.87-1.03 2.13-1.41 3.57-1.29v-.02s.14-4.5 2.25-9.27l4.64-1.84 2.02 1.67 4.59-.84 1.43 2.05 2.46-.78 2.13 4.26c.52-2.82 5.13-3.52 6.22.53 1.11 4.1-2.32 6.7-5.47 6.57zm-11.11-9.56c0-1.11-.9-2.02-2.02-2.02-1.11 0-2.02.91-2.02 2.02 0 1.12.91 2.02 2.02 2.02 1.12 0 2.02-.9 2.02-2.02z" fill="#97929b"/><circle cx="14.13" cy="20.781" fill="#543927" r="2.02"/></g><g><g><path d="m12.689 34.951c-.169 0-.341-.043-.499-.134-.477-.275-.641-.884-.369-1.362.162-.289 1.472-2.838-1.214-4.924-1.921-1.494-2.268-1.713-4.011-2.204-.532-.149-.841-.702-.691-1.233s.702-.84 1.233-.691c2.044.575 2.628.94 4.696 2.549 3.305 2.566 2.571 6.028 1.722 7.5-.185.32-.521.499-.867.499z" fill="#655f68"/></g><g><path d="m6.609 30.871c-.125 0-.253-.024-.377-.075l-1.74-.71c-.511-.208-.757-.792-.548-1.304.208-.511.789-.759 1.304-.548l1.74.71c.511.208.757.792.548 1.304-.159.388-.532.623-.927.623z" fill="#655f68"/></g><g><path d="m25.61 61.839c-.146 0-.294-.033-.435-.103-.271-.135-1.72-.994-3.701-4.708-.26-.488-.076-1.093.412-1.353.488-.259 1.094-.076 1.353.412 1.688 3.165 2.846 3.868 2.857 3.875.465.272.646.873.389 1.347-.181.335-.521.53-.875.53z" fill="#524956"/></g><g><path d="m40.9 32.691c-.25 0-.499-.093-.693-.279-.151-.145-3.79-3.533-9.611-1.932-.53.146-1.083-.167-1.229-.699s.167-1.083.699-1.229c6.946-1.914 11.345 2.242 11.53 2.421.396.384.407 1.017.022 1.414-.196.202-.457.304-.718.304z" fill="#524956"/></g><g fill="#d6eae8"><path d="m82.473 84.72c3.891 9.718-3.587 19.907-3.587 19.907 4.254 5.849-16.175 6.004-16.175 6.004h18.37c1.74 0 2.96-1.71 2.4-3.35l-.42-1.24c4.77-4.14 5.69-10.55 3.78-18.62 0 0 7.88-1.64 13.57-6.88 5.7-5.23 6.61-17.35 6.61-17.35-5.441 16.978-24.548 21.529-24.548 21.529z"/><path d="m62.584 69.331c-6.348 4.873-10.581 0-10.581 0 7.255-16.352-4.852-32.79-4.852-32.79s6.48 11.45 4.08 22.78-11.93 13.55-11.93 13.55c2.48 2.81 5.48 5.06 8.95 6.8 4.78 2.39 10.45 3.81 16.89 4.4h.01c.1-1.75.3-3.39.61-4.81 1.9-8.76 14.79-24.39 14.79-24.39-6.006 1.605-11.619 9.586-17.967 14.46z"/></g></g></g></g></svg>