<svg id="fLAT" height="512" viewBox="0 0 64 64" width="512" xmlns="http://www.w3.org/2000/svg"><path d="m22.48 26.42c.74.74 1.31 1.58 1.7 2.48-.92.39-1.79.98-2.54 1.73-2.15 2.15-2.88 5.17-2.19 7.92-2.26-.57-4.7-.18-6.69 1.18-.74-.39-1.45-.89-2.07-1.52-.73-.73-1.3-1.56-1.69-2.45-1.41-3.07-.84-6.81 1.69-9.34 1.55-1.55 3.54-2.35 5.56-2.42 2.25-.11 4.52.71 6.23 2.42z" fill="#9d2888"/><path d="m24.18 28.9c-.39-.9-.96-1.74-1.7-2.48-.262-.262-.541-.496-.827-.716-3.858 2.45-4.946 7.589-7.653 10.296-.831 1.247-2.353 1.285-4.063 1.334.23.304.476.599.753.876.62.63 1.33 1.13 2.07 1.52 1.99-1.36 4.43-1.75 6.69-1.18-.69-2.75.04-5.77 2.19-7.92.75-.75 1.62-1.34 2.54-1.73z" fill="#813990"/><path d="m11.092 31.191c.186-.985.751-2.638 2.459-3.618.832-.477 1.924-.112 2.309.766.341.78.588 1.867.28 3.169-.085.359-.314.666-.608.889-.822.625-2.576 1.63-4.023.224-.376-.365-.515-.914-.417-1.43z" fill="#c47eb8"/><path d="m44.37 19.69v.01l-1.68 1.67c-.35-.36-.72-.66-1.11-.93 1.57-.36 2.66-.71 2.79-.75z" fill="#c47eb8"/><path d="m42.69 21.37 1.68-1.67c-.05.16-.39 1.24-.74 2.78-.28-.39-.58-.76-.94-1.11z" fill="#9d2888"/><path d="m63 29-3.46.79s3.46 4.21 3.37 15.16c0 0-5.26-5.26-12.29-7.64-.93-.32-1.89-.58-2.87-.78-2.43-.49-3.74-2.1-4.37-4.15-.96-3.1-.36-7.2.25-9.89v-.01c.35-1.54.69-2.62.74-2.78 0 0 0 0 0-.01.01-.01.01-.01.01-.01s12.72 3.42 18.62 9.32z" fill="#80a53f"/><path d="m60.563 42.913c1.481 1.176 2.347 2.037 2.347 2.037.09-10.95-3.37-15.16-3.37-15.16l3.46-.79c-4.884-4.884-14.436-8.067-17.582-9.018 6.802 6.244 10.511 15.004 15.145 22.931z" fill="#24725f"/><path d="m50.27 7.05 2.53 2.53s-3.37 1.68-5.05 6.73l-.05.02c-1.26-2.31-1.13-5.57 2.57-9.28z" fill="#80a53f"/><path d="m50.62 37.31c.94 2.88.27 6.18-2.03 8.48-2.31 2.31-5.63 2.98-8.52 2.02h-.01c.11-2.25-.71-4.52-2.42-6.23-.74-.74-1.57-1.3-2.48-1.7.62-1.37.83-2.88.64-4.35 2.45.31 5.01-.49 6.89-2.37.26-.25.48-.51.69-.78.63 2.05 1.94 3.66 4.37 4.15.98.2 1.94.46 2.87.78z" fill="#813990"/><path d="m50.62 37.31c-.93-.32-1.89-.58-2.87-.78-2.43-.49-3.74-2.1-4.37-4.15-.21.27-.43.53-.69.78-.561.561-1.188 1.014-1.849 1.382.033.148.079.299.159.458 2 3 8 4 6 8-1.496 2.243-4.11 2.809-7.006 3.37.061.477.089.959.066 1.44h.01c2.89.96 6.21.29 8.52-2.02 2.3-2.3 2.97-5.6 2.03-8.48z" fill="#620774"/><path d="m41.58 20.44c-2.69.6-6.79 1.2-9.89.25-2.05-.63-3.67-1.94-4.16-4.38-.2-.98-.46-1.94-.78-2.87-2.38-7.03-7.64-12.29-7.64-12.29 10.89-.15 15.16 3.37 15.16 3.37l3.37-3.37c5.9 5.9 6.74 18.53 6.74 18.53s0 0-.01.01c-.13.04-1.22.39-2.79.75z" fill="#80a53f"/><path d="m42.755 20.151c.919-.24 1.521-.432 1.615-.461.01-.01.01-.01.01-.01s-.84-12.63-6.74-18.53l-3.37 3.37s-3.951-3.233-13.895-3.362c9.068 3.54 17.128 10.898 22.38 18.993z" fill="#24725f"/><path d="m43.63 22.48v.01c-.61 2.69-1.21 6.79-.25 9.89-.21.27-.43.53-.69.78-1.88 1.88-4.44 2.68-6.89 2.37-1.79-.2-3.52-.99-4.9-2.37s-2.17-3.11-2.37-4.9c-.31-2.45.49-5.01 2.37-6.89.26-.26.52-.48.79-.68 3.1.95 7.2.35 9.89-.25.39.27.76.57 1.11.93.36.35.66.72.94 1.11z" fill="#9d2888"/><path d="m43.63 22.49v-.01c-.28-.39-.58-.76-.94-1.11-.35-.36-.72-.66-1.11-.93-2.69.6-6.79 1.2-9.89.25-.27.2-.53.42-.79.68-.457.457-.848.956-1.177 1.482 2.42.488 4.869 1.237 7.177 1.307 1.147.035 2.009 1.043 1.812 2.173-.192 1.105-.313 2.067.288 2.668.979.979 2.491 1.737 4.083 2.117-.503-2.886.017-6.289.547-8.627z" fill="#620774"/><path d="m28.23 55.03c-.86-.39-1.67-.95-2.38-1.66-.62-.62-1.13-1.33-1.52-2.07 1.36-1.99 1.75-4.43 1.18-6.69 2.75.69 5.77-.04 7.92-2.19.76-.76 1.34-1.62 1.73-2.54.91.4 1.74.96 2.48 1.7 1.71 1.71 2.53 3.98 2.42 6.23-.07 2.02-.87 4.01-2.42 5.56-2.55 2.55-6.32 3.1-9.41 1.66z" fill="#813990"/><path d="m37.64 41.58c-.219-.219-.449-.418-.684-.606 1.278 4.591 2.49 8.914-2.956 12.026-3.704 1.482-5.763-3.07-8.614-3.904-.239.771-.585 1.515-1.056 2.204.39.74.9 1.45 1.52 2.07.71.71 1.52 1.27 2.38 1.66 3.09 1.44 6.86.89 9.41-1.66 1.55-1.55 2.35-3.54 2.42-5.56.11-2.25-.71-4.52-2.42-6.23z" fill="#620774"/><path d="m35.8 35.53c.19 1.47-.02 2.98-.64 4.35-.39.92-.97 1.78-1.73 2.54-2.15 2.15-5.17 2.88-7.92 2.19-1.42-.35-2.76-1.08-3.87-2.19s-1.84-2.45-2.19-3.87c-.69-2.75.04-5.77 2.19-7.92.75-.75 1.62-1.34 2.54-1.73 1.37-.61 2.88-.83 4.35-.64.2 1.79.99 3.52 2.37 4.9s3.11 2.17 4.9 2.37z" fill="#9d2888"/><path d="m35.8 35.53c-1.79-.2-3.52-.99-4.9-2.37s-2.17-3.11-2.37-4.9c-1.47-.19-2.98.03-4.35.64-.92.39-1.79.98-2.54 1.73-.274.274-.523.562-.751.861 4.488-.027 7.896 2.108 10.739 5.37 1.254 1.439.804 3.638-.858 4.577-1.583.893-3.057 2.035-4.156 3.368 2.43.272 4.95-.521 6.816-2.386.76-.76 1.34-1.62 1.73-2.54.62-1.37.83-2.88.64-4.35z" fill="#620774"/><path d="m31.69 20.69c-.27.2-.53.42-.79.68-1.88 1.88-2.68 4.44-2.37 6.89-1.47-.19-2.98.03-4.35.64-.39-.9-.96-1.74-1.7-2.48-1.71-1.71-3.98-2.53-6.23-2.42-.96-2.9-.29-6.22 2.02-8.53 2.3-2.3 5.6-2.97 8.48-2.03.32.93.58 1.89.78 2.87.49 2.44 2.11 3.75 4.16 4.38z" fill="#9d2888"/><path d="m31.69 20.69c-2.05-.63-3.67-1.94-4.16-4.38-.2-.98-.46-1.94-.78-2.87-.751-.245-1.531-.375-2.314-.401 1.332 5.391 4.071 12.533-.569 15.225.114.208.219.42.312.635 1.37-.61 2.88-.83 4.35-.64-.31-2.45.49-5.01 2.37-6.89.261-.259.521-.479.791-.679z" fill="#813990"/><path d="m25.85 53.37c.71.71 1.52 1.27 2.38 1.66-1.34 2.93-4.3 4.97-7.73 4.97-1.38 0-2.68-.33-3.83-.92.77-1.2 1.25-2.61 1.32-4.13 1.95-.12 3.85-.94 5.33-2.42.38-.38.72-.79 1.01-1.23.39.74.9 1.45 1.52 2.07z" fill="#813990"/><path d="m25.51 44.61c.57 2.26.18 4.7-1.18 6.69-.29.44-.63.85-1.01 1.23-1.48 1.48-3.38 2.3-5.33 2.42-2.31.16-4.68-.64-6.46-2.42-1.79-1.79-2.6-4.19-2.42-6.52.14-1.92.95-3.8 2.42-5.27.38-.38.79-.72 1.23-1.01 1.99-1.36 4.43-1.75 6.69-1.18.35 1.42 1.08 2.76 2.19 3.87s2.45 1.84 3.87 2.19z" fill="#9d2888"/><path d="m25.51 44.61c-1.42-.35-2.76-1.08-3.87-2.19s-1.84-2.45-2.19-3.87c-2.26-.57-4.7-.18-6.69 1.18-.411.271-.794.59-1.153.94 3.615.198 6.99 1.523 8.393 4.33 3.61 6.499-1.642 7.263-6.347 9.067 1.357.689 2.859.985 4.337.883 1.95-.12 3.85-.94 5.33-2.42.38-.38.72-.79 1.01-1.23 1.36-1.99 1.75-4.43 1.18-6.69z" fill="#620774"/><path d="m11.53 52.53c1.78 1.78 4.15 2.58 6.46 2.42-.07 1.52-.55 2.93-1.32 4.13h-.01c-1.51 2.36-4.16 3.92-7.16 3.92-4.69 0-8.5-3.81-8.5-8.5 0-3.01 1.56-5.65 3.92-7.16 1.22-.78 2.66-1.26 4.19-1.33-.18 2.33.63 4.73 2.42 6.52z" fill="#9d2888"/><path d="m11.53 52.53c-1.79-1.79-2.6-4.19-2.42-6.52-1.53.07-2.97.55-4.19 1.33-.965.617-1.786 1.431-2.431 2.374 4.817.156 9.272 4.718 8.511 9.286-.547 2.19-3.493 1.983-6.539 2.331 1.412 1.044 3.151 1.669 5.039 1.669 3 0 5.65-1.56 7.16-3.92h.01c.77-1.2 1.25-2.61 1.32-4.13-2.31.16-4.68-.64-6.46-2.42z" fill="#620774"/><path d="m12.76 39.73c-.44.29-.85.63-1.23 1.01-1.47 1.47-2.28 3.35-2.42 5.27-1.53.07-2.97.55-4.19 1.33-.59-1.15-.92-2.46-.92-3.84 0-3.44 2.05-6.41 5-7.74.39.89.96 1.72 1.69 2.45.62.63 1.33 1.13 2.07 1.52z" fill="#9d2888"/><g fill="#c47eb8"><path d="m19.092 20.191c.186-.985.751-2.638 2.459-3.618.832-.477 1.924-.112 2.309.766.341.78.588 1.867.28 3.169-.085.359-.314.666-.608.889-.822.625-2.576 1.63-4.023.224-.376-.365-.515-.914-.417-1.43z"/><path d="m6.079 41.823c.105-.555.423-1.485 1.385-2.037.468-.269 1.084-.063 1.3.432.192.439.331 1.051.158 1.784-.048.202-.177.375-.342.501-.463.352-1.451.918-2.265.126-.213-.207-.291-.516-.236-.806z"/><path d="m23.104 39.029c-.348-.51-.822-1.477-.505-2.648.155-.57.79-.887 1.34-.672.489.191 1.07.557 1.503 1.259.12.193.153.427.123.652-.086.631-.412 1.833-1.655 1.851-.324.004-.623-.175-.806-.442z"/><path d="m32.699 30.035c-.411-.602-.971-1.743-.596-3.125.182-.673.932-1.047 1.581-.793.577.226 1.262.658 1.774 1.485.141.228.181.504.145.77-.101.744-.487 2.163-1.953 2.184-.382.005-.736-.205-.951-.521z"/><path d="m41.699 43.035c-.411-.602-.971-1.743-.596-3.125.182-.673.932-1.047 1.581-.793.577.226 1.262.658 1.774 1.485.141.228.181.504.145.77-.101.744-.487 2.163-1.953 2.184-.382.005-.736-.205-.951-.521z"/><path d="m31.699 50.035c-.411-.602-.971-1.743-.596-3.125.182-.673.932-1.047 1.581-.793.577.226 1.262.658 1.774 1.485.141.228.181.504.145.77-.101.744-.487 2.163-1.953 2.184-.382.005-.736-.205-.951-.521z"/><path d="m12.33 47.671c-.334-.49-.79-1.418-.485-2.543.148-.548.758-.852 1.287-.645.469.184 1.027.535 1.443 1.209.115.186.147.41.118.626-.082.606-.396 1.76-1.589 1.777-.312.004-.599-.167-.774-.424z"/><path d="m4.33 55.671c-.334-.49-.79-1.418-.485-2.543.148-.548.758-.852 1.287-.645.469.184 1.027.535 1.443 1.209.115.186.147.41.118.626-.082.606-.396 1.76-1.589 1.777-.312.004-.599-.167-.774-.424z"/></g><path d="m29.476 5.576c-.832-.449-1.644-.833-2.414-1.141-.514-.206-1.095.046-1.299.558-.205.514.045 1.095.558 1.3.698.279 1.44.63 2.204 1.043.151.082.314.12.475.12.355 0 .7-.189.881-.524.261-.487.08-1.093-.405-1.356z" fill="#cccb6a"/><path d="m59.626 36.999c-2.918-7.295-11.141-15.011-13.783-17.366l1.669-1.669c.021-.012.044-.023.066-.036 1.87 2.312 5.05 3.562 7.117 2.704 1.358-.563 1.961-1.937 1.614-3.673-.218-1.092-.822-1.896-1.747-2.322-1.461-.677-3.513-.256-5.196.333 1.574-3.28 3.78-4.448 3.883-4.501.288-.144.488-.417.54-.734.051-.317-.053-.64-.28-.867l-2.527-2.526c-.391-.391-1.023-.391-1.414 0-4.284 4.284-3.884 7.848-3.024 9.873-.053.028-.094.051-.124.067-.081.045-.156.102-.221.167l-1.771 1.771c-1.641-1.84-5.917-6.421-10.862-10.028-.446-.326-1.072-.228-1.397.219-.325.445-.228 1.071.219 1.396 4.813 3.511 9.089 8.112 10.622 9.83l-1.022 1.022c-.391.391-.391 1.023 0 1.414.195.195.451.293.707.293s.512-.098.707-.293l1.022-1.022c2.426 2.166 10.586 9.791 13.345 16.689.157.392.532.629.929.629.124 0 .249-.022.371-.071.513-.204.762-.786.557-1.299zm-5.903-20.546c.228.105.505.303.625.899.232 1.163-.241 1.359-.419 1.434-.927.384-2.998-.204-4.454-1.725 1.573-.612 3.325-1.037 4.248-.608zm-3.427-7.969.938.938c-.889.694-2.156 1.919-3.244 3.859.081-1.522.857-3.151 2.306-4.797z" fill="#cccb6a"/></svg>