<svg clip-rule="evenodd" fill-rule="evenodd" height="512" image-rendering="optimizeQuality" shape-rendering="geometricPrecision" text-rendering="geometricPrecision" viewBox="0 0 1.70666 1.70666" width="512" xmlns="http://www.w3.org/2000/svg"><g id="Layer_x0020_1"><g id="_378836512"><g fill="#b5d9dd"><path id="_382734456" d="m1.27381 1.70638h-.136913c-.00864961 0-.016315-.00555118-.0189961-.0137717l-.0521457-.159374c-.00422835-.0129134.00539764-.0262283.0189921-.0262283h.189063c.0110354 0 .0199921.0089685.0199921.0199961v.159374c.00001575.0110512-.00895669.0200039-.0199921.0200039z"/><path id="_382734720" d="m.569776 1.70638h-.136921c-.0110354 0-.0199961-.0089685-.0199961-.0199921v-.15937c0-.0110354.00896063-.0199961.0199961-.0199961h.189071c.0135591 0 .0232323.0132795.0190079.0262283l-.0521496.159378c-.00269291.00820079-.0103543.013752-.0190079.013752z"/></g><g fill="#a6c6ca"><path id="_382733856" d="m1.07898 1.57368-.0132323-.0404409c-.00422835-.0129134.00539764-.0262283.0189921-.0262283h.189063c.0110354 0 .0199921.0089685.0199921.0199961v.0466732h-.214815z"/><path id="_382733736" d="m.412858 1.57368v-.0466575c0-.0110354.00896063-.0199961.0199961-.0199961h.189071c.0135591 0 .0232323.0132795.0190079.0262283l-.0132283.0404252h-.214846z"/></g><path id="_382733520" d="m1.40809 1.2895h-1.10953c-.0110354 0-.0199921-.00896457-.0199921-.0199921v-.735327c0-.0110354.00895669-.0199921.0199921-.0199921h1.10953c.0110354 0 .0199921.00895669.0199921.0199921v.735327c0 .0110354-.00895669.0199921-.0199921.0199921z" fill="#b5d9dd"/><path id="_382734000" d="m1.30235 1.2895h-.898031c-.0110354 0-.0199921-.00896457-.0199921-.0199921v-.735327c0-.0110354.00895669-.0199921.0199921-.0199921h.898031c.0110354 0 .0199921.00895669.0199921.0199921v.735327c0 .0110354-.00895669.0199921-.0199921.0199921z" fill="#6c717d"/><path id="_382734120" d="m1.21741 1.2895h-.728146c-.0110354 0-.0199921-.00896457-.0199921-.0199921v-.735327c0-.0110354.00895669-.0199921.0199921-.0199921h.72813c.0110394 0 .0199961.00895669.0199961.0199921v.735327c.00001575.0110354-.00894094.0199921-.0199803.0199921zm-.708154-.04h.688146v-.695327h-.688146z" fill="#888c96"/><path id="_382733952" d="m1.21741 1.16402h-.728146c-.0110354 0-.0199921-.0089685-.0199921-.0199961v-.161461c0-.0110354.00895669-.0199921.0199921-.0199921h.72813c.0110394 0 .0199961.0089685.0199961.0199921v.161457c.00001575.0110236-.00894094.02-.0199803.02zm-.708154-.0400039h.688146v-.121457h-.688146z" fill="#888c96"/><path id="_382733448" d="m1.21741 1.00258h-.728146c-.0110354 0-.0199921-.0089685-.0199921-.0199961v-.161457c0-.0110354.00895669-.0199961.0199921-.0199961h.72813c.0110394 0 .0199961.00896063.0199961.0199961v.161453c.00001575.0110394-.00894094.02-.0199803.02zm-.708154-.0400039h.688146v-.121469h-.688146z" fill="#888c96"/><path id="_382733928" d="m1.21741.841106h-.728146c-.0110354 0-.0199921-.00895669-.0199921-.0199921v-.161461c0-.0110354.00895669-.0199921.0199921-.0199921h.72813c.0110394 0 .0199961.00895669.0199961.0199921v.161457c.00001575.0110551-.00894094.0199961-.0199803.0199961zm-.708154-.0399843h.688146v-.121472l-.688146-.00000394v.121476z" fill="#888c96"/><path id="_382734192" d="m.778437 1.2895h-.14978c-.0110354 0-.0199921-.00896457-.0199921-.0199921v-.735327c0-.0110354.00895669-.0199921.0199921-.0199921h.14978c.0110354 0 .0199921.00895669.0199921.0199921v.735311c0 .0110512-.00894094.0200079-.0199921.0200079zm-.129787-.04h.109795v-.695327h-.109795z" fill="#888c96"/><path id="_382733880" d="m.928232 1.2895h-.149795c-.0110354 0-.0199921-.00896457-.0199921-.0199921v-.735327c0-.0110354.00895669-.0199921.0199921-.0199921h.149783c.0110354 0 .0199961.00895669.0199961.0199921v.735311c.00000787.0110512-.00896063.0200079-.0199843.0200079zm-.129803-.04h.109799v-.695327h-.109799z" fill="#888c96"/><path id="_382732680" d="m1.07802 1.2895h-.149783c-.0110354 0-.0199921-.00896457-.0199921-.0199921v-.735327c0-.0110354.0089685-.0199921.0199921-.0199921h.149783c.0110354 0 .0199921.00895669.0199921.0199921v.735311c0 .0110512-.00895669.0200079-.0199921.0200079zm-.129791-.04h.109783v-.695327h-.109783z" fill="#888c96"/><path id="_382733424" d="m.943866.440732c-.0155827 0-.0253819-.0173268-.0168307-.0307402.013811-.0216496.056437-.0509528.0564252-.0602717-.00001575-.0137717-.0645079-.0468228-.0645079-.0854134 0-.0386378.0645236-.0715984.0645039-.0855315-.00001968-.0137677-.0645039-.0467992-.0645039-.0854134 0-.036563.0514488-.0616772.0633543-.0828465.0128937-.0229331.0477441-.00334646.0348504.0195984-.0134173.023878-.0582283.0533858-.0582047.0632874.0000315.0137953.0645039.046811.0645039.0854134 0 .0386378-.0645197.0715748-.0645039.0855276.00001575.0137717.0645039.0468228.0645039.0854134 0 .0358031-.0488346.0600472-.0627008.0817244-.00383465.00598819-.0103071.00925197-.0168898.00925197z" fill="#ff8a87"/><path id="_382733400" d="m.708157.440732c-.015563 0-.0253819-.0173425-.0168307-.0307402.0138386-.0216654.0564331-.0509803.0564134-.0602717-.0000315-.0137874-.0644921-.0468071-.0644921-.0854134 0-.0386575.0645236-.0715827.0644921-.0855315-.0000315-.0137874-.0644921-.0467913-.0644921-.0854134 0-.036563.0514409-.0616969.0633543-.0828425.0129055-.0229094.047752-.00334646.0348465.0196024-.013437.0238976-.0582362.053378-.0582165.0632835.0000315.0137953.0644921.0467992.0644921.0854134 0 .0386535-.0645079.0715748-.0644921.0855276.00001575.0137677.0644921.046811.0644921.0854173 0 .0358268-.0488622.0600709-.0626772.0817087-.00382283.00598031-.0102795.00925984-.0168898.00925984z" fill="#ff8a87"/><path id="_382732800" d="m.472476.440732c-.0155787 0-.025378-.0173425-.0168307-.0307402.0138189-.0216654.0564055-.050937.0563976-.0602717-.00001575-.0137795-.0644921-.0467992-.0644921-.0854134 0-.0386654.0645-.0715591.0644921-.0855315-.00001181-.0137953-.0644921-.0467756-.0644921-.0854134 0-.036563.0514409-.0616969.0633543-.0828425.0129055-.0229094.047752-.00334646.0348465.0196024-.013437.0238976-.0582362.053378-.0582165.0632835.0000315.0137953.0644764.046815.0644764.0854134 0 .0386496-.0644921.0715669-.0644764.0855276.00001575.0137835.0644921.0467992.0644921.0854173 0 .0358228-.0489094.0601417-.0626772.0817244-.00380709.00598031-.0102795.00924409-.016874.00924409z" fill="#ff8a87"/><path id="_382732872" d="m1.17956.440732c-.0155827 0-.0253858-.0173268-.0168307-.0307402.013811-.0216496.056437-.0509528.0564252-.0602717-.00001575-.0137717-.0645079-.0468228-.0645079-.0854134 0-.0386378.0645236-.0715984.0645039-.0855315-.00001968-.0137677-.0645039-.0467992-.0645039-.0854134 0-.0365512.0514449-.0616732.0633701-.0828425.0129134-.0229134.0477441-.00331102.0348504.0196181-.0134331.0238858-.0582362.0533622-.0582165.0632795.0000315.0137953.0645079.046811.0645079.0854134 0 .0386378-.0645236.0715748-.0645079.0855276.00001575.0137717.0645079.0468228.0645079.0854134 0 .0357992-.0488189.0600315-.0627047.0817244-.00383071.00597244-.0102992.00923622-.0168937.00923622z" fill="#ff8a87"/><path id="_382733352" d="m1.40809 1.54701h-1.10953c-.0110354 0-.0199921-.0089685-.0199921-.0199921v-.257508c0-.0110354.00895669-.0199921.0199921-.0199921h1.10953c.0110354 0 .0199921.0089685.0199921.0199921v.257508c0 .0110236-.00895669.0199921-.0199921.0199921z" fill="#d6eaec"/><path id="_382733232" d="m.506854 1.49518c-.0534409 0-.0969134-.0434843-.0969134-.0969094 0-.0534252.0434724-.0969134.0969134-.0969134.053437 0 .0969094.0434882.0969094.0969134s-.0434724.0969094-.0969094.0969094z" fill="#6c717d"/><path id="_382732992" d="m1.19981 1.49518c-.0534409 0-.0969134-.0434843-.0969134-.0969094 0-.0534252.0434882-.0969134.0969134-.0969134s.0969094.0434882.0969094.0969134-.0434685.0969094-.0969094.0969094z" fill="#6c717d"/><path id="_382732968" d="m1.0176 1.46225h-.330492c-.0110354 0-.0199921-.0089685-.0199921-.0199921v-.0880118c0-.0110354.00895669-.0199921.0199921-.0199921h.330496c.0110354 0 .0199961.0089685.0199961.0199921v.0880118c0 .0110354-.00896063.0199921-.02.0199921z" fill="#6c717d"/><path id="_382733376" d="m1.38316 1.70637h-1.05964c-.026315 0-.026315-.0399882 0-.0399882h1.05964c.0263189 0 .0263189.0399882 0 .0399882z" fill="#6c717d"/><g fill="#ff8a87"><path id="_378831640" d="m.509256.554177v.085484h.099409v-.085484z"/><path id="_378838768" d="m.64865.554177v.085484h.109795v-.085484z"/><path id="_378838696" d="m.798429.554177v.085484h.109799v-.085484z"/><path id="_378838624" d="m.948224.554177-.000007.085484h.109793v-.085484z"/><path id="_378838888" d="m1.09801.554177v.085484h.09939v-.085484z"/><path id="_378838840" d="m1.09801.67965v.121472h.09939v-.121472z"/><path id="_378838576" d="m.948224.67965-.000007.12148h.109793v-.12148z"/><path id="_378838816" d="m.798429.679646v.121484h.109799l.000012-.12148z"/><path id="_378838480" d="m.64865.679646v.121476l.109795.000008v-.121484z"/><path id="_378838312" d="m.509256.679646v.121476l.099409.000008v-.121484z"/><path id="_378838192" d="m.509256.841106v.121469h.099409v-.121469z"/><path id="_378838000" d="m.64865.841106v.121469h.109795v-.121469z"/><path id="_378838096" d="m.798429.841106v.121469h.109811v-.121469z"/><path id="_378838048" d="m.948224.841106-.000007.121469h.109793v-.121469z"/><path id="_378838024" d="m1.09801.841106v.121469h.09939v-.121469z"/><path id="_378837880" d="m1.09801 1.00256v.12146h.09939v-.12146z"/><path id="_378838336" d="m.948224 1.00256-.000007.12146h.109793v-.12144z"/><path id="_378836968" d="m.798429 1.00256v.12146h.109799l.000012-.12144z"/><path id="_378837616" d="m.64865 1.00256v.12146h.109795v-.12146z"/><path id="_378837448" d="m.509256 1.00256v.12146h.099409v-.12144z"/><path id="_378837352" d="m.608665 1.16402h-.099409v.08548l.099409.00002z"/><path id="_378837472" d="m.64865 1.16402v.08548h.109795v-.08548z"/><path id="_378837304" d="m.798429 1.16402v.08548h.109799l.000012-.08548z"/><path id="_378837256" d="m.948224 1.16402-.000007.0855.109793-.00002v-.08548z"/><path id="_378837232" d="m1.09801 1.16402v.08548h.09939v-.08548z"/></g><path id="_378836128" d="m.506854 1.30136c-.0534409 0-.0969134.0434882-.0969134.0969134 0 .0340118.017622.064.0442165.0812953-.0165787-.0173976-.0267677-.0409331-.0267677-.0667992 0-.0534252.0434724-.0969134.0969134-.0969134.0194134 0 .0375118.00574016.052689.0156102-.0176614-.0185354-.0425748-.0301063-.0701378-.0301063z" fill="#616671"/><path id="_378836152" d="m.68711 1.33425c-.0110354 0-.0199921.00895669-.0199921.0199921v.0880118c0 .0104173.008.019.0181929.0199134-.00048425-.00172441-.00074409-.00353937-.00074409-.00541732v-.0880118c0-.0110354.00895669-.0199921.0199921-.0199921h.330496c.0006063 0 .00120866.00002756.00180315.00007874-.00236614-.00840157-.0100945-.0145748-.019252-.0145748h-.330496z" fill="#616671"/><path id="_378836752" d="m1.19981 1.30136c-.0534252 0-.0969134.0434882-.0969134.0969134 0 .0340118.017622.064.0442165.0812953-.0165787-.0173976-.0267677-.0409331-.0267677-.0667992 0-.0534252.0434882-.0969134.0969134-.0969134.0194094 0 .0375079.00574016.052689.0156142-.0176654-.0185394-.0425787-.0301102-.0701378-.0301102z" fill="#616671"/></g></g></svg>