<?xml version="1.0"?>
<svg xmlns="http://www.w3.org/2000/svg" viewBox="0 0 64 64" width="512" height="512"><g id="flat"><polygon points="51.375 33.875 42 45 40 45 28 32.375 23.625 33.625 37 48 39 51 39 61 43 61 43 51 45 48 55 36 51.375 33.875" style="fill:#616161"/><polygon points="37 48 40 45 42 45 45 48 43 51 39 51 37 48" style="fill:#919191"/><path d="M4,35.04H4A32,32,0,0,1,33.087,3.171,34.014,34.014,0,0,1,38,3.04H54l-1,4,.578.575A25.7,25.7,0,0,1,61,23h0l-4,8.04H37l-11,4Z" style="fill:#4398d1"/><path d="M4.38,30.129A32.319,32.319,0,0,0,4,35.04H26l11-4H57L61,23A25.688,25.688,0,0,0,55.521,9.811C41.818,22.172,17.1,27.9,4.38,30.129Z" style="fill:#388dc7"/><path d="M43,27.04h3a10,10,0,0,0,8-4H38.75a10.946,10.946,0,0,0-8.451,4H43Z" style="fill:#616161"/><path d="M40.814,7.04a33.416,33.416,0,0,0-27.8,14.88L9.6,27.04h1.322a6.512,6.512,0,0,0,5.419-2.9h0a29.421,29.421,0,0,1,24.478-13.1H43.17a6,6,0,0,0,5.654-4h-8.01Z" style="fill:#616161"/><path d="M38.934,15.04a21.014,21.014,0,0,0-17.25,9.014L19.607,27.04h4.019a1.632,1.632,0,0,0,1.341-.7h0a17.017,17.017,0,0,1,13.969-7.3h8.817a6.027,6.027,0,0,0,5.676-4h-14.5Z" style="fill:#616161"/><path d="M33.074,24.637q1.642,1.114,3.234,2.4h6a48.219,48.219,0,0,0-4.515-3.946A10.9,10.9,0,0,0,33.074,24.637Z" style="fill:#2e7db3"/><path d="M20.436,13.989a33.293,33.293,0,0,0-3.529,3.12c1.341.4,2.775.885,4.271,1.449a29.472,29.472,0,0,1,3.771-2.86C23.392,15.043,21.878,14.477,20.436,13.989Z" style="fill:#2e7db3"/><path d="M28.969,17.561a20.96,20.96,0,0,0-3.832,2.647c1.3.594,2.619,1.253,3.942,1.985A17.069,17.069,0,0,1,33.32,20C31.869,19.1,30.413,18.291,28.969,17.561Z" style="fill:#2e7db3"/><path d="M43.071,23.04a44.177,44.177,0,0,1,2.612,4H46a9.961,9.961,0,0,0,3.835-.782q-.892-1.667-1.889-3.218Z" style="fill:#2e7db3"/><path d="M37.56,11.23c-1.414-1.223-2.823-2.336-4.19-3.336a33.5,33.5,0,0,0-4.889,1.513c1.266.842,2.6,1.8,3.972,2.859A29.374,29.374,0,0,1,37.56,11.23Z" style="fill:#2e7db3"/><path d="M36.009,15.253c1.284,1.164,2.558,2.426,3.794,3.787h5.272c-1.124-1.421-2.3-2.754-3.5-4H38.934A20.905,20.905,0,0,0,36.009,15.253Z" style="fill:#2e7db3"/><polygon points="42 31.04 50 35.04 54 40.04 57 40.04 57 31.04 42 31.04" style="fill:#919191"/><polygon points="57 33 57 31.04 42 31.04 45.92 33 57 33" style="fill:#7d7d7d"/></g></svg>
