<svg id="Capa_1" enable-background="new 0 0 512 512" height="512" viewBox="0 0 512 512" width="512" xmlns="http://www.w3.org/2000/svg"><g><g><g><g><g><path d="m255.998 239.957c23.698 0 44.954-14.904 52.689-37.304 14.462-41.881 39.263-81.632 54.354-93.612 28.612-22.711 13.191-69.202-23.331-69.972-.769-.016-1.545-.024-2.327-.024-.019 0-.038.003-.057.003-11.019-1.42-25.99-5.287-36.241-15.607-18.035-18.156-45.086-17.53-45.086-17.53s-27.052-.626-45.086 17.529c-10.252 10.32-25.222 14.187-36.241 15.607-.019 0-.038-.003-.057-.003-.783 0-1.558.008-2.327.024-36.522.77-51.943 47.261-23.331 69.972 15.092 11.979 39.892 51.73 54.354 93.612 7.734 22.401 28.99 37.305 52.687 37.305z" fill="#ea1c1c"/><path d="m363.044 109.04c-15.09 11.983-39.898 51.735-54.354 93.617-7.743 22.396-28.996 37.299-52.691 37.299s-44.959-14.903-52.691-37.299c-3.585-10.382-7.805-20.629-12.357-30.357 3.482.343 7.015.52 10.58.52 58.75 0 106.38-47.63 106.38-106.38 0-16.68-3.835-32.456-10.673-46.497 1.32 1.081 2.598 2.245 3.845 3.492 10.258 10.32 25.223 14.196 36.239 15.61h.062c.779 0 1.559.01 2.328.021 36.521.769 51.943 47.266 23.332 69.974z" fill="#d10000"/><path d="m319.245 175.967c-11.451 14.938-35.161 9.925-39.946-8.278-5.31-20.202-13.768-33.273-23.3-33.273s-17.99 13.07-23.3 33.271c-4.785 18.203-28.496 23.217-39.946 8.278-.081-.106-.162-.212-.242-.318 3.949 8.719 7.628 17.813 10.798 27.011 7.732 22.396 28.996 37.299 52.691 37.299s44.948-14.903 52.691-37.299c3.17-9.198 6.849-18.291 10.798-27.011-.081.106-.162.213-.244.32z" fill="#af0000"/></g></g><g><g><path d="m232.365 262.612c7.323-22.538-.283-47.36-19.197-61.638-35.363-26.696-65.504-62.567-72.234-80.621-12.758-34.23-61.738-33.93-73.757.566-.253.726-.501 1.462-.742 2.206-.006.018-.009.037-.015.055-4.755 10.041-13.06 23.084-26.042 29.644-22.839 11.542-30.603 37.463-30.603 37.463s-8.955 25.534 2.739 48.296c6.647 12.939 5.699 28.372 3.644 39.29-.006.018-.014.035-.02.054-.242.744-.474 1.485-.696 2.221-10.553 34.972 28.897 64.005 59.338 43.811 16.056-10.651 61.526-21.954 105.826-22.766 23.693-.433 44.436-16.043 51.759-38.581z" fill="#ea1c1c"/><path d="m232.367 262.613c-7.327 22.542-28.071 38.152-51.766 38.578-44.294.811-89.762 12.118-105.818 22.77-27.406 18.177-62.117-3.544-61.057-33.589 13.5 5.809 28.382 9.021 44.013 9.021 61.649 0 111.618-49.968 111.618-111.618 0-11.245-1.663-22.095-4.76-32.332 13.032 15.111 30.087 31.573 48.575 45.53 18.914 14.281 26.521 39.099 19.195 61.64z" fill="#d10000"/><path d="m191.051 182.687c10.668 15.506-1.426 36.507-20.217 35.433-20.854-1.192-35.899 2.812-38.844 11.878-2.946 9.066 6.872 21.148 24.442 32.441 15.834 10.176 13.275 34.276-4.471 40.549-.126.044-.251.088-.377.132 9.513-1.061 19.299-1.75 29.025-1.923 23.689-.433 44.434-16.05 51.756-38.586s-.284-47.354-19.191-61.638c-7.768-5.857-15.28-12.166-22.352-18.616.076.109.153.219.229.33z" fill="#af0000"/></g></g><g><g><g><path d="m279.634 262.612c-7.323-22.538.283-47.36 19.197-61.638 35.363-26.696 65.504-62.567 72.234-80.621 12.758-34.23 61.738-33.93 73.757.566.253.726.501 1.462.742 2.206.006.018.009.037.015.055 4.755 10.041 13.06 23.084 26.042 29.644 22.839 11.542 30.603 37.463 30.603 37.463s8.955 25.534-2.739 48.296c-6.647 12.939-5.699 28.372-3.644 39.29.006.018.014.035.02.054.242.744.474 1.485.696 2.221 10.553 34.972-28.897 64.005-59.338 43.811-16.056-10.651-61.526-21.954-105.826-22.766-23.693-.433-44.436-16.043-51.759-38.581z" fill="#ea1c1c"/><path d="m499.49 238.58c-6.65 12.94-5.7 28.38-3.65 39.29.01.02.02.04.02.06.24.74.48 1.48.7 2.22 10.55 34.97-28.9 64-59.34 43.81-16.06-10.65-61.53-21.95-105.83-22.77-23.22-.42-43.6-15.42-51.29-37.24 17.88 10.31 38.62 16.2 60.74 16.2 67.27 0 121.81-54.53 121.81-121.8 0-4.09-.2-8.14-.6-12.12 2.86 2.55 6.04 4.81 9.57 6.6 22.84 11.54 30.61 37.46 30.61 37.46s8.949 25.53-2.74 48.29z" fill="#d10000"/><path d="m320.948 182.687c-10.668 15.506 1.426 36.507 20.217 35.433 20.854-1.192 35.899 2.812 38.844 11.878 2.946 9.066-6.872 21.148-24.442 32.441-15.834 10.176-13.275 34.276 4.471 40.549.126.044.251.088.377.132-9.513-1.061-19.299-1.75-29.025-1.923-23.689-.433-44.434-16.05-51.756-38.586s.284-47.354 19.191-61.638c7.768-5.857 15.28-12.166 22.352-18.616-.076.109-.153.219-.229.33z" fill="#af0000"/></g></g></g><g><g><path d="m272.201 293.207c19.172-13.929 45.129-14.365 64.553-.79 36.317 25.382 79.746 42.964 98.997 43.785 36.497 1.556 51.348 48.232 22.254 70.322-.613.465-1.235.928-1.869 1.388-.016.011-.032.02-.048.032-8.08 7.625-17.918 19.554-20.146 33.928-3.919 25.288-26.172 40.682-26.172 40.682s-21.517 16.407-46.779 12.32c-14.36-2.323-28.745 3.347-38.493 8.676-.016.011-.029.024-.045.036-.633.46-1.266.909-1.897 1.348-30 20.844-69.802-7.704-60.004-42.895 5.168-18.562 1.867-65.299-11.05-107.682-6.909-22.669 1.527-47.221 20.699-61.15z" fill="#ea1c1c"/><path d="m458 406.52c-.61.47-1.23.93-1.86 1.39-.02.01-.04.02-.05.03-8.08 7.63-17.92 19.56-20.15 33.93-3.92 25.29-26.17 40.68-26.17 40.68s-16.75 12.77-38.05 12.97c18.25-19.13 29.47-45.05 29.47-73.59 0-58.87-47.72-106.59-106.58-106.59-15.61 0-30.43 3.36-43.79 9.39 3.14-12.4 10.55-23.65 21.38-31.52 19.17-13.93 45.13-14.37 64.55-.79 36.32 25.38 79.75 42.96 99 43.78 36.5 1.56 51.349 48.23 22.25 70.32z" fill="#d10000"/><path d="m360.981 307.801c-18.044-5.354-34.28 12.638-27.451 30.177 7.578 19.465 8.419 35.011.707 40.614s-22.236 0-38.406-13.221c-14.571-11.914-36.7-2.033-37.183 16.782-.003.133-.006.267-.009.4-1.93-9.375-4.299-18.895-7.141-28.199-6.909-22.664 1.534-47.219 20.704-61.147s45.124-14.363 64.552-.795c7.971 5.578 16.292 10.772 24.612 15.505-.128-.039-.256-.078-.385-.116z" fill="#af0000"/></g></g><g><g><g><path d="m239.798 293.207c-19.172-13.929-45.129-14.365-64.553-.79-36.317 25.382-79.746 42.964-98.997 43.785-36.497 1.556-51.347 48.232-22.254 70.322.613.465 1.235.928 1.869 1.388.016.011.032.02.048.032 8.08 7.625 17.918 19.554 20.146 33.928 3.919 25.288 26.172 40.682 26.172 40.682s21.517 16.407 46.779 12.32c14.36-2.323 28.745 3.347 38.493 8.676.016.011.029.024.045.036.633.46 1.266.909 1.897 1.348 30 20.844 69.802-7.704 60.004-42.895-5.168-18.562-1.867-65.299 11.05-107.682 6.909-22.669-1.527-47.221-20.699-61.15z" fill="#ea1c1c"/><path d="m260.5 354.36c-12.92 42.38-16.22 89.12-11.05 107.68 9.8 35.19-30.01 63.74-60.01 42.89-.63-.44-1.26-.88-1.89-1.34-.02-.02-.03-.03-.05-.04-4.85-2.65-10.84-5.38-17.4-7.17 25.62-18.32 42.32-48.32 42.32-82.21 0-47.52-32.82-87.38-77.02-98.14 13.25-6.62 27-14.63 39.85-23.61 19.42-13.58 45.38-13.14 64.55.79 19.169 13.93 27.609 38.48 20.7 61.15z" fill="#d10000"/><path d="m53.997 406.521c.623.475 1.256.95 1.9 1.414.004.003.008.006.012.01 3.519 3.32 7.368 7.454 10.777 12.249 5.98 8.411 17.142 11.203 26.281 6.409.231-.121.461-.242.692-.363 10.773-5.637 14.359-19.436 7.403-29.408-4.646-6.66-10.201-13.065-16.614-19.119l-.52-.488c15.53-1.914 37.56-8.693 61.692-19.925 11.38-5.297 15.479-19.428 8.611-29.934-.076-.116-.152-.233-.228-.349-5.629-8.615-16.726-11.741-26.044-7.373-21.297 9.983-40.562 16.086-51.711 16.561-36.5 1.558-51.351 48.232-22.251 70.316z" fill="#ef4343"/><path d="m107.479 328.293c-2.102.785-4.155 1.517-6.151 2.193-11.421 3.868-17.021 16.791-12.052 27.777.059.131.119.263.178.394 4.315 9.57 15.136 14.438 25.094 11.115 2.426-.809 4.904-1.679 7.429-2.608 10.713-3.941 16.137-15.91 11.968-26.536-.101-.256-.201-.512-.302-.768-4.072-10.37-15.727-15.465-26.164-11.567z" fill="#f75e5e"/><path d="m151.018 307.801c18.044-5.354 34.28 12.638 27.451 30.177-7.578 19.465-8.419 35.011-.707 40.614s22.236 0 38.406-13.221c14.571-11.914 36.7-2.033 37.183 16.782.003.133.006.267.009.4 1.93-9.375 4.299-18.895 7.141-28.199 6.909-22.664-1.534-47.219-20.704-61.147s-45.124-14.363-64.552-.795c-7.971 5.578-16.292 10.772-24.612 15.505.128-.039.256-.078.385-.116z" fill="#af0000"/><path d="m262.89 338.012c.031 5.435-.748 10.944-2.39 16.337-2.837 9.312-5.207 18.832-7.14 28.206 0-.135 0-.27-.01-.405-.478-18.811-22.615-28.694-37.185-16.784-16.161 13.23-30.69 18.832-38.401 13.23-7.711-5.612-6.87-21.149.707-40.615.613-1.569 1.029-3.139 1.278-4.687 14.467 6.682 30.565 10.414 47.547 10.414 12.429 0 24.401-1.996 35.594-5.696z" fill="#9b0000"/></g></g></g><path d="m360.041 302.989c.125.042.249.083.374.135-9.509-1.07-19.299-1.756-29.027-1.923-4.791-.083-9.468-.8-13.926-2.068 14.633-19.112 23.321-42.995 23.321-68.914 0-4.074-.218-8.106-.634-12.066.333 0 .676-.01 1.018-.031 20.848-1.195 35.896 2.806 38.838 11.879 2.951 9.062-6.87 21.149-24.433 32.436-15.838 10.174-13.282 34.275 4.469 40.552z" fill="#9b0000"/><path d="m361.371 307.915c-.135-.042-.26-.073-.395-.114-18.042-5.352-34.275 12.638-27.447 30.18 7.576 19.465 8.418 35.003.707 40.615-7.711 5.602-22.24 0-38.401-13.23-14.571-11.91-36.707-2.027-37.185 16.784-.01.135-.01.27-.01.405-1.933-9.374-4.303-18.894-7.14-28.206-1.289-4.219-2.037-8.501-2.286-12.773 32.82-6.402 60.569-26.969 76.636-55.071 3.793 1.528 7.452 3.492 10.902 5.903 7.97 5.582 16.295 10.778 24.619 15.507z" fill="#9b0000"/><path d="m320.868 264.886c6.03-.223 11.857-2.394 16.472-6.279 7.622-6.416 11.423-12.783 9.773-17.862-1.751-5.389-9.321-8.344-20.262-8.812-5.018-.215-9.994 1.052-14.369 3.518l-2.305 1.299c-20.753 11.696-45.514-6.843-40.134-30.05l1.387-5.984c1.258-5.427.822-11.115-1.219-16.298-3.778-9.597-8.756-15.427-14.213-15.427s-10.435 5.83-14.212 15.426c-2.041 5.184-2.477 10.871-1.219 16.298l1.387 5.985c5.38 23.207-19.381 41.746-40.135 30.049l-2.303-1.298c-4.375-2.466-9.352-3.733-14.37-3.518-10.941.468-18.511 3.423-20.262 8.812-1.65 5.079 2.151 11.446 9.773 17.862 4.616 3.886 10.443 6.057 16.472 6.279 24.213.895 35.427 30.475 17.893 47.197l-5.138 4.9c-3.512 3.349-6.106 7.569-7.423 12.239-3.008 10.664-2.564 18.871 2.054 22.227 4.365 3.172 11.702 1.456 20.274-3.941 4.92-3.098 8.709-7.717 10.836-13.129l.88-2.238c9.104-23.162 41.883-23.163 50.988-.001l.88 2.24c2.127 5.411 5.915 10.03 10.835 13.128 8.572 5.398 15.909 7.113 20.274 3.942 4.618-3.355 5.062-11.563 2.054-22.226-1.317-4.67-3.912-8.89-7.424-12.239l-5.138-4.9c-17.534-16.724-6.32-46.304 17.894-47.199z" fill="#7f0000"/><path d="m337.343 258.602c-4.614 3.887-10.445 6.059-16.472 6.288-24.215.894-35.429 30.471-17.896 47.193l5.134 4.905c3.513 3.346 6.111 7.566 7.431 12.232 3.004 10.663 2.557 18.873-2.058 22.23-4.365 3.17-11.702 1.455-20.276-3.939-4.916-3.107-8.709-7.722-10.829-13.136l-.883-2.234c-9.104-23.165-41.883-23.165-50.987 0l-.883 2.234c-2.12 5.415-5.913 10.029-10.829 13.136-8.574 5.394-15.911 7.109-20.276 3.939-4.625-3.357-5.061-11.567-2.058-22.23 1.32-4.666 3.918-8.886 7.42-12.232l5.144-4.905c1.84-1.756 3.367-3.658 4.594-5.654 3.565.665 7.254 1.008 11.016 1.008 33.205 0 60.122-26.917 60.122-60.122 0-3.492-.301-6.901-.873-10.226 7.691 4.126 17.366 4.698 26.294-.343l2.307-1.299c4.375-2.463 9.353-3.731 14.363-3.513 10.944.468 18.52 3.419 20.266 8.813 1.651 5.072-2.153 11.442-9.771 17.855z" fill="#6b0000"/><path d="m408.003 140.977c1.329 2.807 2.733 5.525 4.208 8.152 5.974 10.641 19.808 13.892 29.922 7.062.116-.078.232-.157.348-.235 8.802-5.948 11.369-17.664 6.138-26.91-1.141-2.017-2.151-3.992-3.036-5.863-.001-.002-.001-.004-.002-.005-.244-.756-.5-1.513-.755-2.258-12.024-34.493-61.005-34.795-73.757-.561-4.514 12.099-19.543 32.199-39.613 52.179-6.887 6.857-8.052 17.594-2.786 25.761l.228.354c7.097 11.007 22.557 12.704 31.833 3.459 22.763-22.687 39.335-45.385 46.982-61.767z" fill="#ef4343"/><path d="m378.865 182.554c3.301-3.861 6.391-7.666 9.255-11.383 6.26-8.126 5.557-19.616-1.637-26.927-.106-.107-.211-.215-.317-.322-8.726-8.866-23.226-7.925-30.866 1.892-2.432 3.125-5.082 6.354-7.924 9.648-6.863 7.955-6.692 19.786.455 27.487l.283.305c8.385 9.037 22.74 8.669 30.751-.7z" fill="#f75e5e"/><path d="m359.314 472.12c-1.904-11.774-13.402-19.482-25.007-16.725-9.854 2.341-19.799 6.241-29.743 11.674l-.624.343c2.384-12.312 3.085-29.564 1.607-49.534-.89-12.02-11.745-20.794-23.675-19.076-10.819 1.558-18.604 11.243-17.741 22.14 1.397 17.632.83 32.434-1.585 41.097-9.79 35.19 30.004 63.738 60.008 42.891.634-.437 1.268-.883 1.902-1.341.01-.01.021-.031.041-.042 5.28-2.882 11.921-5.868 19.181-7.631 10.531-2.558 17.443-12.613 15.714-23.311z" fill="#ef4343"/><path d="m337.669 477.509c-3.559-12.343-17.477-18.393-28.951-12.62-1.384.696-2.769 1.423-4.153 2.179l-.624.343c.621-3.21 1.127-6.757 1.51-10.601 1.175-11.817-7.631-22.524-19.49-23.136-11.103-.573-20.579 7.658-21.702 18.589-.389 3.787-.96 7.079-1.712 9.775-9.79 35.19 30.004 63.738 60.008 42.891.634-.437 1.268-.883 1.902-1.341.01-.01.021-.031.042-.042.857-.468 1.749-.937 2.675-1.403 8.894-4.478 13.401-14.571 10.64-24.137-.049-.165-.097-.331-.145-.497z" fill="#f75e5e"/></g><path d="m140.932 120.358c-12.752-34.234-61.733-33.932-73.757.561-.255.745-.511 1.501-.755 2.257-.001.003-.002.005-.003.008-4.749 10.039-13.053 23.082-26.034 29.64-22.843 11.546-30.607 37.466-30.607 37.466s-8.959 25.535 2.733 48.295c1.094 2.128 1.981 4.322 2.692 6.553 2.748 8.628 10.744 14.498 19.799 14.498 14.067 0 24.051-13.682 19.805-27.093-1.428-4.509-3.201-8.837-5.318-12.956-2.338-4.562-1.278-12.492-.353-15.859l.821-2.089-.229.374c1.413-3.45 5.051-9.894 9.405-12.087 18.645-9.416 34.15-26.345 44.855-48.95l.301-.644c1.181 2.527 2.572 5.202 4.164 8.002 6.424 11.301 21.525 13.862 31.309 5.303.104-.091.209-.182.313-.274 7.306-6.381 9.181-16.963 4.458-25.435-1.544-2.767-2.756-5.308-3.599-7.57z" fill="#ef4343"/><path d="m57.687 137.768c-1.705 2.252-3.587 4.448-5.655 6.503-6.357 6.316-7.87 16.034-3.828 24.033 6.315 12.496 23.046 15.417 32.994 5.565 3.459-3.426 6.731-7.181 9.796-11.244 7.912-10.486 4.103-25.603-7.855-31.041l-.53-.241c-8.785-3.994-19.096-1.268-24.922 6.425z" fill="#f75e5e"/></g><g><g><g><path d="m248.665 294.344c-24.256-28.53-80.559-107.144-121.63-260.617l14.837-4.244s40.037 152.521 126.629 247.204c4.118 4.503 4.714 11.198 1.37 16.302-4.853 7.407-15.47 8.101-21.206 1.355z" fill="#ef4343"/><path d="m177.319 128.391c-23.961-55.169-35.448-98.908-35.448-98.908l-14.837 4.244c10.174 38.018 21.283 71.436 32.608 100.644 5.871-2.056 11.775-4.014 17.677-5.98z" fill="#ef4343"/><path d="m234.201 233.132c-16.679-24.29-31.006-50.01-43.051-74.7-2.181-4.471-7.327-6.637-12.044-5.056l-.186.063c-5.513 1.848-8.237 8.036-5.902 13.36 14.303 32.616 28.501 58.804 41.17 79.318 3.31 5.36 10.254 7.196 15.759 4.134.071-.04.143-.08.214-.119 6.079-3.395 7.981-11.261 4.04-17z" fill="#f75e5e"/><path d="m186.067 194.931c5.148 10.495 10.224 20.165 15.16 29.046 2.958 5.324 9.607 7.333 15.005 4.513l.206-.108c5.772-3.015 7.793-10.297 4.373-15.839-5.592-9.058-10.872-18.214-15.85-27.35-2.679-4.916-8.713-6.904-13.769-4.5-.063.03-.125.06-.188.089-5.298 2.519-7.52 8.884-4.937 14.149z" fill="#fd7574"/><ellipse cx="134.931" cy="19.441" fill="#af0000" rx="22.827" ry="18.383" transform="matrix(.884 -.467 .467 .884 6.525 65.225)"/><circle cx="128.561" cy="16" fill="#d10000" r="11.663"/></g></g><circle cx="174.773" cy="98.725" fill="#ff993a" r="9.853"/><circle cx="127.035" cy="80.056" fill="#ffc751" r="9.853"/><path d="m127.907 74.319c3.724 12.12 7.611 23.982 11.662 35.572 3.433 9.822 14.368 14.775 24.039 10.936.526-.209 1.051-.417 1.577-.626 9.365-3.713 14.001-14.292 10.332-23.674-4.877-12.469-8.986-23.862-12.339-33.66-3.211-9.386-13.293-14.475-22.772-11.548-.116.036-.233.072-.349.108-9.674 2.983-15.123 13.215-12.15 22.892z" fill="#ffe059"/><path d="m163.185 62.867c3.35 9.798 7.455 21.188 12.33 33.665 3.671 9.376-.967 19.954-10.329 23.676-.531.202-1.055.411-1.578.62-6.697 2.664-14.01 1.102-19.013-3.377 2.391-1.831 4.596-3.996 6.551-6.465 12.858-16.238 10.111-39.823-6.119-52.674-2.754-2.181-5.715-3.916-8.808-5.199 1.185-.692 2.466-1.256 3.837-1.681.122-.036.235-.079.35-.107 9.475-2.929 19.566 2.157 22.779 11.542z" fill="#ffc751"/><g fill="#fff370"><circle cx="131.471" cy="58.74" r="9.853"/><circle cx="158.503" cy="58.74" r="9.853"/><circle cx="164.682" cy="86.311" r="9.853"/><circle cx="134.931" cy="87.603" r="9.853"/><circle cx="168.811" cy="118.599" r="9.853"/><circle cx="140.226" cy="114.466" r="9.853"/></g></g><path d="m185.112 57.163c2.904 11.612 15.524 17.781 26.507 13.022 10.705-4.638 20.039-10.871 27.671-18.555 4.05-4.08 12.43-5.58 16.18-5.71l1.18.04.17-.04c1.631.078 4.096.41 6.689 1.09 6.814 1.787 14.066-.212 19.064-5.177 10.939-10.866 6.001-29.595-8.916-33.499-9.94-2.601-17.657-2.424-17.657-2.424s-27.05-.62-45.09 17.53c-4.249 4.278-9.308 7.446-14.561 9.79-8.994 4.014-13.73 13.991-11.334 23.544.032.13.065.26.097.389z" fill="#ef4343"/><circle cx="227.728" cy="35.174" fill="#f75e5e" r="20"/></g></svg>