<svg id="Layer_1" height="512" viewBox="0 0 512 512" width="512" xmlns="http://www.w3.org/2000/svg" data-name="Layer 1"><path d="m275.44 353.15c5.52 6.65 3.6 16.79-4.25 20.41a29.955 29.955 0 0 1 -11.49 2.59l-10.44.22a13.5 13.5 0 0 0 -3.11-7.6c-2.94-3.55-5.64-9.26-5.33-18.2.65-19.19 1.26-36.57 8.18-43.22 0 0 7.95 5.18 22.01 8.95v.01c-.47 5.77-.69 12.1-.91 18.65-.31 8.94 2.4 14.65 5.34 18.19z" fill="#636466"/><path d="m410.95 361.21a5.757 5.757 0 0 1 -3.39 6.2c-6 2.57-9.11 5.93-10.59 9.24h-21.28a5.146 5.146 0 0 1 -5.09-4.3c-.79-4.84.06-12.69 11.59-17.62a5.775 5.775 0 0 0 3.38-6.21c-1.33-8.36 2.36-19.07 2.33-25.41-.01-2.05-7.38-15.7-7.92-17.68 8.68-.88 15.39.17 20.4 4.62 3.56 3.16 6.25 8.03 8.18 15.13a23.482 23.482 0 0 1 .79 6.08c.04 6.34.27 21.58 1.6 29.95z" fill="#636466"/><path d="m150.18 292.67c-12.41 7.88-32.77.87-33.18.73h-.01c-12.32 4.03-23.19-4.47-23.19-4.47s-21.41 39.28-55.61 13.5c-20.16 10.3-27.19-21.7-27.19-35.07 0-14.95 40.07-27.88 35.96-48.93-2.73-14.01 6.33-24.09 9.67-26.42a34.643 34.643 0 0 0 6.64-5.98c6.96-8.16 19.18-20.57 41.94-23.75a29.783 29.783 0 0 0 12.77-4.92c5.35-3.68 14.19-7.46 23.28-1.41 0 0 11-12.36 32.54-7.48 0 0 239.55-73.7 297.48 13.16 21.37 32.04 30.47 50.83 29.67 72.46-.15 4.03-2.01 29.58-6.06 29.59 0 0-9.83-36.58-10.87-40.43-.76-2.78-1.67-5.58-2.66-8.32h-.01s1.55 69.4-13.56 79.69c-11.75 8.01-8.96 30.97-7.14 40.78.32 1.69-.07 7.7-.65 13.33a64.741 64.741 0 0 0 1.97 23.51l.23.82a15.178 15.178 0 0 1 -15.13 16.28h-46a5.156 5.156 0 0 1 -5.09-4.3 14.693 14.693 0 0 1 .98-8.39h.01c1.48-3.31 4.59-6.67 10.59-9.24a5.757 5.757 0 0 0 3.39-6.2c-1.33-8.37-1.56-23.61-1.6-29.95a23.482 23.482 0 0 0 -.79-6.08c-1.93-7.1-4.62-11.97-8.18-15.13-5.01-4.45-11.72-5.5-20.4-4.62-12.55 1.27-29.2 6.57-50.75 11.48-24.22 5.52-44.24 3.16-58.22-.61-14.06-3.77-22.01-8.95-22.01-8.95-6.92 6.65-7.53 24.03-8.18 43.22-.31 8.94 2.39 14.65 5.33 18.2a13.5 13.5 0 0 1 3.11 7.6 12.781 12.781 0 0 1 -7.35 12.8 30 30 0 0 1 -11.5 2.59l-45.12.95a3.716 3.716 0 0 1 -3.67-4.28l.58-3.79a21.991 21.991 0 0 1 5.93-12c7.21-7.41 11.09-13.26 7.1-26.25-6.37-20.73-8.48-38.06-8.08-52.36-16.07-5.9-36.97-1.36-36.97-1.36z" fill="#76777b"/><path d="m173.8 148.47c-21.54-4.88-32.54 7.48-32.54 7.48-9.09-6.05-17.93-2.27-23.28 1.41a29.783 29.783 0 0 1 -12.77 4.92c-22.76 3.18-34.98 15.59-41.94 23.75a34.643 34.643 0 0 1 -6.64 5.98c-3.34 2.33-12.4 12.41-9.67 26.42 4.11 21.05-35.96 33.98-35.96 48.93 0 13.37 7.03 45.37 27.19 35.07 15.376 11.59 28.164 10.028 37.586 4.8a51.865 51.865 0 0 1 -7.586-4.8c-20.16 10.3-27.19-21.7-27.19-35.07 0-14.95 40.07-27.88 35.96-48.93-2.73-14.01 6.33-24.09 9.67-26.42a34.643 34.643 0 0 0 6.64-5.98c6.96-8.16 19.18-20.57 41.94-23.75a29.783 29.783 0 0 0 12.77-4.92 24.355 24.355 0 0 1 12.282-4.571 95.465 95.465 0 0 0 23.2-3.921q.687-.21 1.411-.4z" fill="#909193"/><path d="m211.62 388.43.58-3.79a21.991 21.991 0 0 1 5.93-12c7.21-7.41 11.09-13.26 7.1-26.25-6.37-20.73-8.48-38.06-8.08-52.36-13.64-5.008-30.753-2.495-35.619-1.621a43.816 43.816 0 0 1 5.619 1.621c-.4 14.3 1.71 31.63 8.08 52.36 3.99 12.99.11 18.84-7.1 26.25a21.991 21.991 0 0 0 -5.93 12l-.58 3.79a3.716 3.716 0 0 0 3.67 4.28l28.029-.59a3.693 3.693 0 0 1 -1.699-3.69z" fill="#909193"/><path d="m107.029 181.571a14.935 14.935 0 0 0 -11.921-.555c-9.034 3.4-14.139 14.745-14.692 16.027l13.377 18.513a6.077 6.077 0 0 0 1.3-.143c7.382-1.636 24.68-6.6 25.9-17.327 1.062-9.375-10.248-14.749-13.964-16.515z" fill="#636466"/></svg>