<svg id="Capa_1" enable-background="new 0 0 512 512" height="512" viewBox="0 0 512 512" width="512" xmlns="http://www.w3.org/2000/svg"><g><path d="m472.406 8.228-261.145 409.094c-4.434 6.945-12.547 10.621-20.692 9.375l-166.607-25.501c-12.603-1.929-23.962 7.824-23.962 20.574v59.011c0 17.242 13.977 31.219 31.22 31.219h142.194c21.588 0 41.644-11.151 53.037-29.489l282.867-455.3c1.753-2.822 2.682-6.078 2.682-9.4 0-9.836-7.975-17.811-17.812-17.811h-6.768c-6.081 0-11.742 3.102-15.014 8.228z" fill="#f1d59d"/><path d="m502.823 2.238-282.728 455.075c-.033.053-.066.106-.099.159-1.362 2.177-4.551 1.895-5.681-.412-3.382-6.905-10.464-11.662-18.673-11.662h-131.122c-11.495 0-20.813 9.318-20.813 20.813v10.183c0 5.747-4.659 10.407-10.407 10.407h-8.437c-10.148 0-19.162-4.845-24.864-12.346v6.325c.001 17.243 13.978 31.22 31.221 31.22h142.194c21.588 0 41.644-11.151 53.037-29.488l282.867-455.3c1.753-2.822 2.682-6.078 2.682-9.4 0-6.703-3.706-12.534-9.177-15.574z" fill="#ecc373"/><path d="m308.526 350.403 21.977-35.373-38.354-24.422-22.401 35.093z" fill="#dd636e"/><path d="m308.526 350.403 21.977-35.373-15.771-10.043-21.975 35.371z" fill="#da4a54"/><g><path d="m369.587 252.118-21.979 35.372-38.004-24.216 22.395-35.091z" fill="#dd636e"/></g><path d="m347.608 287.49 21.979-35.372-15.77-10.042-21.974 35.369z" fill="#da4a54"/><path d="m185.34 512h-110.518c-5.69 0-10.302-4.612-10.302-10.302v-25.185c0-5.69 4.612-10.302 10.302-10.302h110.518c5.69 0 10.302 4.612 10.302 10.302v25.185c0 5.69-4.612 10.302-10.302 10.302z" fill="#595959"/></g></svg>