<svg id="Flat" height="512" viewBox="0 0 64 64" width="512" xmlns="http://www.w3.org/2000/svg"><path d="m50.22 32.48-2.22-1.48-3 2v4l-3 2v4l-3 2v4l3 2v4l3 2v.7c-.15.28-.31.55-.47.82a6.933 6.933 0 0 1 -4.51 3.26 43 43 0 0 1 -8.02.99 43 43 0 0 1 -8.02-.99 6.933 6.933 0 0 1 -4.51-3.26 57.52 57.52 0 0 1 -3.69-7.37 1.427 1.427 0 0 0 .28-.58 1.5 1.5 0 0 0 -1.11-1.81l-.48-.11a4.967 4.967 0 0 0 -.32-3.24 1.5 1.5 0 0 0 .26-2.95l-1.46-.35 3.21-13.38c2.47.74 8.63 1.27 15.84 1.27 8.14 0 14.95-.67 16.61-1.57a19.32 19.32 0 0 1 1.61 4.05z" fill="#faa307"/><path d="m43.78 56.19c-.3.56-.63 1.14-.97 1.72a5.009 5.009 0 0 1 -3.21 2.32c-.2.04-.41.08-.63.13a35.174 35.174 0 0 1 -13.94 0c-.22-.05-.43-.09-.62-.13a4.91 4.91 0 0 1 -2.39-1.29 35.1 35.1 0 0 0 8.98 1.06c5.08 0 8.88-1.72 11.58-4.61z" fill="#faa307"/><path d="m43.78 56.19-1.2-.8c-2.7 2.89-6.5 4.61-11.58 4.61a35.1 35.1 0 0 1 -8.98-1.06 4.592 4.592 0 0 1 -.82-1.03c-6.11-10.38-6.87-18.02-5.76-23.36a3.586 3.586 0 0 1 3.98-2.79 110.4 110.4 0 0 0 12.58.64 110.4 110.4 0 0 0 12.58-.64 3.586 3.586 0 0 1 3.98 2.79c1.05 5.04.43 12.13-4.78 21.64z" fill="#ffba08"/><path d="m24.473 45.562a16.412 16.412 0 0 1 -.516-10.124c1.164-4.357-5.586-6.216-6.749-1.861a23.032 23.032 0 0 0 .515 13.846c1.52 4.204 8.287 2.39 6.75-1.861z" fill="#f9cb70"/><path d="m50.22 32.48-2.22-1.48-.94.63a18.586 18.586 0 0 0 -.94-2.52 9.127 9.127 0 0 0 2.49-.68 19.32 19.32 0 0 1 1.61 4.05z" fill="#f48c06"/><path d="m45 57v.7c-.15.28-.31.55-.47.82a6.933 6.933 0 0 1 -4.51 3.26 43 43 0 0 1 -8.02.99 43 43 0 0 1 -8.02-.99 6.933 6.933 0 0 1 -4.51-3.26c-.1-.17-.2-.34-.29-.5a22.461 22.461 0 0 0 2.84.92 4.91 4.91 0 0 0 2.39 1.29c.19.04.4.08.62.13a35.174 35.174 0 0 0 13.94 0c.22-.05.43-.09.63-.13a5.009 5.009 0 0 0 3.21-2.32c.34-.58.67-1.16.97-1.72z" fill="#f48c06"/><path d="m47.97 27.31c.22.35.44.73.64 1.12-1.66.9-8.47 1.57-16.61 1.57-7.21 0-13.37-.53-15.84-1.27l.37-1.56c2.68-.69 8.6-1.17 15.47-1.17 7.34 0 13.59.55 15.97 1.31z" fill="#ffba08"/><path d="m43 22a17.035 17.035 0 0 1 4.97 5.31c-2.38-.76-8.63-1.31-15.97-1.31-6.87 0-12.79.48-15.47 1.17l.23-.97a16.384 16.384 0 0 1 4.24-4.2v-1.2c1.85.7 6.08 1.2 11 1.2s9.15-.5 11-1.2z" fill="#dcc"/><path d="m44.375 25.118a108.889 108.889 0 0 0 -12.375-.618 108.53 108.53 0 0 0 -12.381.617 12.857 12.857 0 0 1 2.164-1.837l.712-.44v-.09a51.892 51.892 0 0 0 9.5.75 51.871 51.871 0 0 0 9.5-.749v.092l.72.438a13.015 13.015 0 0 1 2.16 1.837z" fill="#eaeaea"/><path d="m51 33v4l-3 2-3-2v-4l3-2 2.22 1.48z" fill="#ffba08"/><path d="m49.76 32.18-1.5 1.12c-.44-.43-1.81.44-1.89 1.49-.04.51.26.66.63.58v2.96l-2-1.33v-4l3-2z" fill="#faa307"/><path d="m48.26 33.3-.86.65a1.014 1.014 0 0 0 -.4.8v.62c-.37.08-.67-.07-.63-.58.08-1.05 1.45-1.92 1.89-1.49z" fill="#ffba08"/><path d="m48.39 33.78a1.979 1.979 0 0 1 -1.39 1.59v-.62a1.014 1.014 0 0 1 .4-.8l.86-.65a.591.591 0 0 1 .13.48z" fill="#f9cb70"/><path d="m57 33v4l-3 2-3-2v-4l3-2 2.22 1.48z" fill="#ffba08"/><path d="m55.76 32.18-1.5 1.12c-.44-.43-1.81.44-1.89 1.49-.04.51.26.66.63.58v2.96l-2-1.33v-4l3-2z" fill="#faa307"/><path d="m54.26 33.3-.86.65a1.014 1.014 0 0 0 -.4.8v.62c-.37.08-.67-.07-.63-.58.08-1.05 1.45-1.92 1.89-1.49z" fill="#ffba08"/><path d="m54.39 33.78a1.979 1.979 0 0 1 -1.39 1.59v-.62a1.014 1.014 0 0 1 .4-.8l.86-.65a.591.591 0 0 1 .13.48z" fill="#f9cb70"/><path d="m48 39v4l-3 2-3-2v-4l3-2 2.22 1.48z" fill="#ffba08"/><path d="m46.76 38.18-1.5 1.12c-.44-.43-1.81.44-1.89 1.49-.04.51.26.66.63.58v2.96l-2-1.33v-4l3-2z" fill="#faa307"/><path d="m45.26 39.3-.86.65a1.014 1.014 0 0 0 -.4.8v.62c-.37.08-.67-.07-.63-.58.08-1.05 1.45-1.92 1.89-1.49z" fill="#ffba08"/><path d="m45.39 39.78a1.979 1.979 0 0 1 -1.39 1.59v-.62a1.014 1.014 0 0 1 .4-.8l.86-.65a.591.591 0 0 1 .13.48z" fill="#f9cb70"/><path d="m54 39v4l-3 2-3-2v-4l3-2 2.22 1.48z" fill="#ffba08"/><path d="m52.76 38.18-1.5 1.12c-.44-.43-1.81.44-1.89 1.49-.04.51.26.66.63.58v2.96l-2-1.33v-4l3-2z" fill="#faa307"/><path d="m51.26 39.3-.86.65a1.014 1.014 0 0 0 -.4.8v.62c-.37.08-.67-.07-.63-.58.08-1.05 1.45-1.92 1.89-1.49z" fill="#ffba08"/><path d="m51.39 39.78a1.979 1.979 0 0 1 -1.39 1.59v-.62a1.014 1.014 0 0 1 .4-.8l.86-.65a.591.591 0 0 1 .13.48z" fill="#f9cb70"/><path d="m60 39v4l-3 2-3-2v-4l3-2 2.22 1.48z" fill="#ffba08"/><path d="m58.76 38.18-1.5 1.12c-.44-.43-1.81.44-1.89 1.49-.04.51.26.66.63.58v2.96l-2-1.33v-4l3-2z" fill="#faa307"/><path d="m57.26 39.3-.86.65a1.014 1.014 0 0 0 -.4.8v.62c-.37.08-.67-.07-.63-.58.08-1.05 1.45-1.92 1.89-1.49z" fill="#ffba08"/><path d="m57.39 39.78a1.979 1.979 0 0 1 -1.39 1.59v-.62a1.014 1.014 0 0 1 .4-.8l.86-.65a.591.591 0 0 1 .13.48z" fill="#f9cb70"/><path d="m45 45v4l-3 2-3-2v-4l3-2 2.22 1.48z" fill="#faa307"/><path d="m43.76 44.18-1.5 1.12c-.44-.43-1.81.44-1.89 1.49-.04.51.26.66.63.58v2.96l-2-1.33v-4l3-2z" fill="#f48c06"/><path d="m42.26 45.3-.86.65a1.014 1.014 0 0 0 -.4.8v.62c-.37.08-.67-.07-.63-.58.08-1.05 1.45-1.92 1.89-1.49z" fill="#faa307"/><path d="m42.39 45.78a1.979 1.979 0 0 1 -1.39 1.59v-.62a1.014 1.014 0 0 1 .4-.8l.86-.65a.591.591 0 0 1 .13.48z" fill="#ffba08"/><path d="m51 45v4l-3 2-3-2v-4l3-2 2.22 1.48z" fill="#faa307"/><path d="m49.76 44.18-1.5 1.12c-.44-.43-1.81.44-1.89 1.49-.04.51.26.66.63.58v2.96l-2-1.33v-4l3-2z" fill="#f48c06"/><path d="m48.26 45.3-.86.65a1.014 1.014 0 0 0 -.4.8v.62c-.37.08-.67-.07-.63-.58.08-1.05 1.45-1.92 1.89-1.49z" fill="#faa307"/><path d="m48.39 45.78a1.979 1.979 0 0 1 -1.39 1.59v-.62a1.014 1.014 0 0 1 .4-.8l.86-.65a.591.591 0 0 1 .13.48z" fill="#ffba08"/><path d="m57 45v4l-3 2-3-2v-4l3-2 2.22 1.48z" fill="#faa307"/><path d="m55.76 44.18-1.5 1.12c-.44-.43-1.81.44-1.89 1.49-.04.51.26.66.63.58v2.96l-2-1.33v-4l3-2z" fill="#f48c06"/><path d="m54.26 45.3-.86.65a1.014 1.014 0 0 0 -.4.8v.62c-.37.08-.67-.07-.63-.58.08-1.05 1.45-1.92 1.89-1.49z" fill="#faa307"/><path d="m54.39 45.78a1.979 1.979 0 0 1 -1.39 1.59v-.62a1.014 1.014 0 0 1 .4-.8l.86-.65a.591.591 0 0 1 .13.48z" fill="#ffba08"/><path d="m63 45v4l-3 2-3-2v-4l3-2 2.22 1.48z" fill="#faa307"/><path d="m61.76 44.18-1.5 1.12c-.44-.43-1.81.44-1.89 1.49-.04.51.26.66.63.58v2.96l-2-1.33v-4l3-2z" fill="#f48c06"/><path d="m60.26 45.3-.86.65a1.014 1.014 0 0 0 -.4.8v.62c-.37.08-.67-.07-.63-.58.08-1.05 1.45-1.92 1.89-1.49z" fill="#faa307"/><path d="m60.39 45.78a1.979 1.979 0 0 1 -1.39 1.59v-.62a1.014 1.014 0 0 1 .4-.8l.86-.65a.591.591 0 0 1 .13.48z" fill="#ffba08"/><path d="m48 51v4l-3 2-3-2v-4l3-2 2.22 1.48z" fill="#faa307"/><path d="m46.76 50.18-1.5 1.12c-.44-.43-1.81.44-1.89 1.49-.04.51.26.66.63.58v2.96l-2-1.33v-4l3-2z" fill="#f48c06"/><path d="m45.26 51.3-.86.65a1.014 1.014 0 0 0 -.4.8v.62c-.37.08-.67-.07-.63-.58.08-1.05 1.45-1.92 1.89-1.49z" fill="#faa307"/><path d="m45.39 51.78a1.979 1.979 0 0 1 -1.39 1.59v-.62a1.014 1.014 0 0 1 .4-.8l.86-.65a.591.591 0 0 1 .13.48z" fill="#ffba08"/><path d="m54 51v4l-3 2-3-2v-4l3-2 2.22 1.48z" fill="#faa307"/><path d="m52.76 50.18-1.5 1.12c-.44-.43-1.81.44-1.89 1.49-.04.51.26.66.63.58v2.96l-2-1.33v-4l3-2z" fill="#f48c06"/><path d="m51.26 51.3-.86.65a1.014 1.014 0 0 0 -.4.8v.62c-.37.08-.67-.07-.63-.58.08-1.05 1.45-1.92 1.89-1.49z" fill="#faa307"/><path d="m51.39 51.78a1.979 1.979 0 0 1 -1.39 1.59v-.62a1.014 1.014 0 0 1 .4-.8l.86-.65a.591.591 0 0 1 .13.48z" fill="#ffba08"/><path d="m60 51v4l-3 2-3-2v-4l3-2 2.22 1.48z" fill="#faa307"/><path d="m58.76 50.18-1.5 1.12c-.44-.43-1.81.44-1.89 1.49-.04.51.26.66.63.58v2.96l-2-1.33v-4l3-2z" fill="#f48c06"/><path d="m57.26 51.3-.86.65a1.014 1.014 0 0 0 -.4.8v.62c-.37.08-.67-.07-.63-.58.08-1.05 1.45-1.92 1.89-1.49z" fill="#faa307"/><path d="m57.39 51.78a1.979 1.979 0 0 1 -1.39 1.59v-.62a1.014 1.014 0 0 1 .4-.8l.86-.65a.591.591 0 0 1 .13.48z" fill="#ffba08"/><path d="m51 57v4l-3 2-3-2v-4l3-2 2.22 1.48z" fill="#faa307"/><path d="m49.76 56.18-1.5 1.12c-.44-.43-1.81.44-1.89 1.49-.04.51.26.66.63.58v2.96l-2-1.33v-4l3-2z" fill="#f48c06"/><path d="m48.26 57.3-.86.65a1.014 1.014 0 0 0 -.4.8v.62c-.37.08-.67-.07-.63-.58.08-1.05 1.45-1.92 1.89-1.49z" fill="#faa307"/><path d="m48.39 57.78a1.979 1.979 0 0 1 -1.39 1.59v-.62a1.014 1.014 0 0 1 .4-.8l.86-.65a.591.591 0 0 1 .13.48z" fill="#ffba08"/><path d="m57 57v4l-3 2-3-2v-4l3-2 2.22 1.48z" fill="#faa307"/><path d="m55.76 56.18-1.5 1.12c-.44-.43-1.81.44-1.89 1.49-.04.51.26.66.63.58v2.96l-2-1.33v-4l3-2z" fill="#f48c06"/><path d="m54.26 57.3-.86.65a1.014 1.014 0 0 0 -.4.8v.62c-.37.08-.67-.07-.63-.58.08-1.05 1.45-1.92 1.89-1.49z" fill="#faa307"/><path d="m54.39 57.78a1.979 1.979 0 0 1 -1.39 1.59v-.62a1.014 1.014 0 0 1 .4-.8l.86-.65a.591.591 0 0 1 .13.48z" fill="#ffba08"/><path d="m45 37v-2.135c-.17.829-.34 1.656-.512 2.476z" fill="#ffba08"/><path d="m43 19.2v1.6c-1.85.7-6.08 1.2-11 1.2s-9.15-.5-11-1.2v-3c1.85.7 6.08 1.2 11 1.2s9.15-.5 11-1.2z" fill="#eaeaea"/><path d="m43 16.2v1.6c-1.85.7-6.08 1.2-11 1.2s-9.15-.5-11-1.2v-3.3c0 .83 4.92 1.5 11 1.5s11-.67 11-1.5z" fill="#dcc"/><ellipse cx="32" cy="14.5" fill="#eaeaea" rx="11" ry="1.5"/><path d="m22.59 2.66a1.982 1.982 0 0 1 .08 2.3l-1.33 2.14-3.89-.93-.22-2.51a1.9 1.9 0 0 1 2.35-2.12l1.95.47a1.951 1.951 0 0 1 1.06.65z" fill="#e0aa94"/><path d="m-2.801 22.14h36.001v4h-36.001z" fill="#ffd5c2" transform="matrix(.233 -.973 .973 .233 -11.813 33.31)"/><path d="m14.95 48.76a1.5 1.5 0 0 1 1.11 1.81 1.427 1.427 0 0 1 -.28.58 1.5 1.5 0 0 1 -1.18.57 1.447 1.447 0 0 1 -.35-.04l-.48-.12-9.73-2.33-.48-.11a1.5 1.5 0 0 1 .35-2.96 1.447 1.447 0 0 1 .35.04l.48.12 9.73 2.33z" fill="#ffd5c2"/><path d="m6.48 43.58a1.5 1.5 0 0 1 .77-2.79 1.447 1.447 0 0 1 .35.04l1.46.35 3.89.93 1.46.35a1.5 1.5 0 0 1 -.26 2.95.277.277 0 0 1 -.09.01 1.393 1.393 0 0 1 -.35-.04l-6.81-1.63a1.944 1.944 0 0 1 -.42-.17z" fill="#ffd5c2"/><path d="m13.56 54.6a1.5 1.5 0 0 1 -.34 2.95 1.472 1.472 0 0 1 -.36-.04l-.49-.12-9.72-2.32-.49-.12a1.5 1.5 0 0 1 .35-2.96 1.393 1.393 0 0 1 .35.04l.48.12 9.73 2.33z" fill="#ffd5c2"/><g fill="#e0aa94"><path d="m14.15 45.41a4.967 4.967 0 0 1 .32 3.24l-9.73-2.33a5 5 0 0 1 1.74-2.74 1.944 1.944 0 0 0 .42.17l6.81 1.63a1.393 1.393 0 0 0 .35.04.277.277 0 0 0 .09-.01z"/><path d="m7.054 46.852h3.003v10.005h-3.003z" transform="matrix(.233 -.972 .972 .233 -43.866 48.086)"/><path d="m16.06 50.57a1.427 1.427 0 0 1 -.28.58 1.5 1.5 0 0 1 -1.18.57 1.447 1.447 0 0 1 -.35-.04l-.48-.12-1.84-.44c.14-.97.27-1.96.4-2.98l2.14.51.48.11a1.5 1.5 0 0 1 1.11 1.81z"/><path d="m15.52 44.27a1.5 1.5 0 0 1 -1.37 1.14.277.277 0 0 1 -.09.01 1.393 1.393 0 0 1 -.35-.04l-1.01-.24.37-3 1.34.32a1.506 1.506 0 0 1 1.11 1.81z"/><path d="m14.66 56.41a1.5 1.5 0 0 1 -1.8 1.1l-.49-.12-1.46-.35c.19-.94.37-1.93.54-2.95l1.62.39.49.12a1.492 1.492 0 0 1 1.1 1.81z"/></g><path d="m14.47 48.65-2.14-.51c.03-.24.06-.47.09-.71l.28-2.29 1.01.24a1.393 1.393 0 0 0 .35.04.277.277 0 0 0 .09-.01 4.967 4.967 0 0 1 .32 3.24z" fill="#d58936"/><path d="m13.77 51.56-.7 2.92-1.62-.39q.24-1.44.48-2.97z" fill="#d58936"/><path d="m12.37 57.39v.01l-.23.97a5.005 5.005 0 0 1 -1.1 2.12 1.54 1.54 0 0 0 -.83-.52l-6.8-1.63a1.472 1.472 0 0 0 -.36-.04 1.6 1.6 0 0 0 -.62.13 5.076 5.076 0 0 1 -.02-2.39l.24-.97z" fill="#e0aa94"/><path d="m12.37 57.39v.01l-.23.97a5.005 5.005 0 0 1 -1.1 2.12 1.548 1.548 0 0 0 -.77-.5c.22-.94.44-1.92.64-2.95z" fill="#d58936"/><path d="m11.04 60.49a1.459 1.459 0 0 1 .28 1.28 1.508 1.508 0 0 1 -1.81 1.11l-6.8-1.63a1.49 1.49 0 0 1 -1.11-1.81 1.514 1.514 0 0 1 .83-1.01 1.6 1.6 0 0 1 .62-.13 1.472 1.472 0 0 1 .36.04l6.8 1.63a1.54 1.54 0 0 1 .83.52z" fill="#ffd5c2"/><path d="m22.67 4.96-1.33 2.14-1.52-.36.15-.64 1.33-2.14a2.04 2.04 0 0 0 .13-1.97l.1.02a1.951 1.951 0 0 1 1.06.65 1.982 1.982 0 0 1 .08 2.3z" fill="#d58936"/><path d="m21.34 7.1-8.39 35.01c-.02-.01-1.522-.364-1.522-.364l8.392-35.006z" fill="#efa88f"/><path d="m11.32 61.77a1.508 1.508 0 0 1 -1.81 1.11l-6.8-1.63a1.482 1.482 0 0 1 -1.05-.92l6.48 1.55a1.508 1.508 0 0 0 1.81-1.11 1.429 1.429 0 0 0 -.05-.87l.31.07a1.54 1.54 0 0 1 .83.52 1.459 1.459 0 0 1 .28 1.28z" fill="#efa88f"/><path d="m43 19.477a.478.478 0 0 0 -.5.477s-.084.157-.615.384c-1.684.7-5.66 1.162-9.893 1.162s-8.209-.467-9.887-1.16a3.681 3.681 0 0 1 -.613-.347.5.5 0 0 0 -1 .007c0 .739.918 1.131 1.226 1.262 1.829.752 5.862 1.238 10.282 1.238s8.453-.486 10.28-1.24c.3-.129 1.22-.521 1.22-1.26a.517.517 0 0 0 -.5-.523z" fill="#c1aeae"/><path d="m21.726 18.262c1.821.752 5.854 1.238 10.274 1.238s8.453-.486 10.28-1.24c.3-.129 1.22-.521 1.22-1.26a.517.517 0 0 0 -.5-.523.478.478 0 0 0 -.5.477s-.084.157-.615.384c-1.684.7-5.66 1.162-9.893 1.162s-8.209-.467-9.887-1.16a2.862 2.862 0 0 1 -.613-.347.5.5 0 0 0 -1 .007c.008.739.926 1.131 1.234 1.262z" fill="#c1aeae"/><path d="m19.064 31.808c-2.412.9-2.543 6.285-.128 5.384s2.543-6.285.128-5.384z" fill="#f7da9a"/><path d="m18.152 38.1a1 1 0 0 0 0 2 1 1 0 0 0 0-2z" fill="#f7da9a"/></svg>