<svg height="512" viewBox="0 0 64 64" width="512" xmlns="http://www.w3.org/2000/svg"><g id="_14-honey" data-name="14-honey"><path d="m28 27h5.73a2 2 0 0 1 -1.73 1h-4z" fill="#ffbf1d"/><path d="m62 5v4h-23v-3-1z" fill="#d26d28"/><path d="m52 35v2h-11a3 3 0 0 0 -3-3h-2a3 3 0 0 0 0-6h-4a2 2 0 0 0 1.73-1h10.27a8 8 0 0 1 8 8z" fill="#faf6c8"/><path d="m41 37h11a12.783 12.783 0 0 1 -1.23 5.47l-7.77 17.53h-22l-7.77-17.53a12.783 12.783 0 0 1 -1.23-5.47z" fill="#ffd31d"/><path d="m47 20v3h-13v-4l.38.38a2.12 2.12 0 0 0 3.62-1.5v-.88h9z" fill="#cfcfcf"/><path d="m50.09 25.06-3.09-2.06h-13v3a2 2 0 0 1 -.27 1h10.27a8 8 0 0 1 8 8v2a12.783 12.783 0 0 1 -1.23 5.47l-7.77 17.53h-22l-7.77-17.53a12.783 12.783 0 0 1 -1.23-5.47v-2a8 8 0 0 1 8-8h8v-4h-11l-3.09 2.06a13.259 13.259 0 0 0 -4.7 16.57l9.79 21.37h26l9.79-21.37a13.259 13.259 0 0 0 -4.7-16.57z" fill="#f0f0f0"/><path d="m41 37h-14.5a1.5 1.5 0 0 1 0-3h11.5a3 3 0 0 1 3 3z" fill="#ffd31d"/><path d="m38 11.73a2 2 0 0 1 -3-1.73v-3a7.745 7.745 0 0 1 4-1v4a2 2 0 0 1 -1 1.73z" fill="#ffd31d"/><path d="m39 5v1a7.745 7.745 0 0 0 -4 1v-3a2.006 2.006 0 0 1 2-2 2.015 2.015 0 0 1 2 2z" fill="#d26d28"/><path d="m36 28a3 3 0 0 1 0 6h-.5a1.5 1.5 0 0 0 0-3h-8a1.5 1.5 0 0 1 0-3z" fill="#ffd31d"/><path d="m38 17v.88a2.121 2.121 0 0 1 -3.62 1.5l-.38-.38v4h-6v-6z" fill="#f0af4c"/><path d="m38 11.73v5.27h-10a2.015 2.015 0 0 0 -2-2 2.006 2.006 0 0 1 -2-2v-1.27a2 2 0 0 0 3-1.73v1a2 2 0 0 0 4 0 2 2 0 0 0 4 0v-1a2 2 0 0 0 3 1.73z" fill="#ffbb1d"/><path d="m35 7v4a2 2 0 0 1 -4 0v-3a7.745 7.745 0 0 0 4-1z" fill="#ffd31d"/><path d="m35 4v3a7.745 7.745 0 0 1 -4 1v-5a2.006 2.006 0 0 1 2-2 1.955 1.955 0 0 1 1.41.59 1.955 1.955 0 0 1 .59 1.41z" fill="#d26d28"/><path d="m31 8v3a2 2 0 0 1 -4 0v-3.56a16.027 16.027 0 0 0 4 .56z" fill="#ffd31d"/><path d="m31 3v5a16.027 16.027 0 0 1 -4-.56v-4.44a2.006 2.006 0 0 1 2-2 1.955 1.955 0 0 1 1.41.59 1.955 1.955 0 0 1 .59 1.41z" fill="#d26d28"/><path d="m28 27v1h-.5a1.5 1.5 0 0 0 0 3h-2.5a3 3 0 0 0 0 6h-13v-2a8 8 0 0 1 8-8z" fill="#faf6c8"/><path d="m17 20v-3h11v6h-11z" fill="#cfcfcf"/><path d="m24 11.73a2 2 0 0 1 -1-1.73v-4a22.284 22.284 0 0 0 4 1.44v2.56a2 2 0 0 1 -3 1.73z" fill="#ffd31d"/><path d="m27 4v3.44a22.284 22.284 0 0 1 -4-1.44v-2a2.006 2.006 0 0 1 2-2 2.015 2.015 0 0 1 2 2z" fill="#d26d28"/><g fill="#ffd31d"><rect height="3" rx=".5" width="1" x="34" y="8"/><rect height="2" rx=".5" width="1" x="30" y="8.5"/><rect height="2" rx=".5" width="1" x="26" y="7.5"/></g><path d="m35.5 31a1.5 1.5 0 0 1 0 3h-9a1.5 1.5 0 0 0 0 3h-1.5a3 3 0 0 1 0-6z" fill="#ffbf1d"/><path d="m34 25v1a2 2 0 0 1 -.27 1h-5.73v-4h6z" fill="#f4ad1c"/><path d="m42 5a2 2 0 0 0 2 2h18v2h-23v-4z" fill="#a14722"/><path d="m25 9v-2.177a20.741 20.741 0 0 1 -2-.823v4a1.992 1.992 0 0 0 3.735.973 1.993 1.993 0 0 1 -1.735-1.973z" fill="#ffbb1d"/><path d="m25 2a2.006 2.006 0 0 0 -2 2v2a20.741 20.741 0 0 0 2 .823z" fill="#b95227"/><path d="m37 9v-2.785a8.873 8.873 0 0 0 -2 .785v3a2 2 0 0 0 3.741.974 1.993 1.993 0 0 1 -1.741-1.974z" fill="#ffbb1d"/><path d="m37 2a2.006 2.006 0 0 0 -2 2v3a8.873 8.873 0 0 1 2-.785z" fill="#b95227"/><path d="m29 10v-2.153a18.028 18.028 0 0 1 -2-.407v3.56a1.992 1.992 0 0 0 3.735.973 1.993 1.993 0 0 1 -1.735-1.973z" fill="#ffbb1d"/><path d="m29 1a2.006 2.006 0 0 0 -2 2v4.44a18.028 18.028 0 0 0 2 .407z" fill="#b95227"/><path d="m33 10v-2.215a8.54 8.54 0 0 1 -2 .215v3a1.992 1.992 0 0 0 3.735.973 1.993 1.993 0 0 1 -1.735-1.973z" fill="#ffbb1d"/><path d="m33 1a2.006 2.006 0 0 0 -2 2v5a8.54 8.54 0 0 0 2-.215z" fill="#b95227"/><path d="m31 13a2 2 0 0 0 4 0v-1a2 2 0 0 0 3 1.73v-2a2 2 0 0 1 -3-1.73v1a2 2 0 0 1 -4 0 2 2 0 0 1 -4 0v-1a2 2 0 0 1 -3 1.73v1.27a1.962 1.962 0 0 0 .045.415v.009a1.946 1.946 0 0 0 .124.378 2 2 0 0 0 1.831 1.198 2.015 2.015 0 0 1 2 2h10v-1h-7a1.991 1.991 0 0 1 -1.737-1.027 2 2 0 0 0 1.737-1.973z" fill="#ffa11d"/><path d="m34 19v1h1.88a2.119 2.119 0 0 1 -1.5-.62z" fill="#cfcfcf"/><path d="m38 17v.88a2.117 2.117 0 0 1 -2.12 2.12h11.12v-3z" fill="#e4e4e4"/><path d="m34 20v3h13v-3h-11.12z" fill="#cfcfcf"/><path d="m34 20v-1l.38.38a2.12 2.12 0 0 0 3.62-1.5v-.88h-10v3z" fill="#f4ad1c"/><path d="m28 20h6v3h-6z" fill="#dea246"/><path d="m17 17h11v3h-11z" fill="#e4e4e4"/><path d="m17 20h11v3h-11z" fill="#cfcfcf"/><path d="m38 36h-12.5a1.489 1.489 0 0 1 -.43-.07 1.493 1.493 0 0 0 1.43 1.07h12.5a1 1 0 0 0 -1-1z" fill="#ffa11d"/><path d="m35.5 31a1.493 1.493 0 0 1 1.408 1 1.477 1.477 0 0 0 .092-.5 1.5 1.5 0 0 0 -1.5-1.5h-7.5a2 2 0 0 1 -1.825-1.19 1.489 1.489 0 0 0 1.325 2.19z" fill="#ffa11d"/><path d="m37 32.5a1.489 1.489 0 0 0 -.092-.5 1.5 1.5 0 0 1 -1.408 1h-10a1.5 1.5 0 0 0 -.43 2.93 1.48 1.48 0 0 1 1.43-1.93h9a1.5 1.5 0 0 0 1.5-1.5z" fill="#ffd31d"/><path d="m19.941 44.367-1.02-2.3a10.734 10.734 0 0 1 -.921-4.356c0-.239.021-.475.036-.711h-6.036a12.783 12.783 0 0 0 1.23 5.47l7.77 17.53h22l2.089-4.712a12.625 12.625 0 0 1 -6.348 1.712 20.728 20.728 0 0 1 -18.8-12.633z" fill="#ffa11d"/><path d="m21.378 29.934 3.233-2.934h-4.611a8 8 0 0 0 -8 8v2h6.036a10.459 10.459 0 0 1 3.342-7.066z" fill="#faf5bb"/><rect fill="#ffef96" height="3" rx=".5" width="1" x="38" y="7"/><rect fill="#f7f7f7" height="1" rx=".5" width="4" x="32.5" y="28.5"/><rect fill="#ffef96" height="1" rx=".5" width="4" x="29" y="31.5"/><rect fill="#f7f7f7" height="1" rx=".5" width="4" x="35" y="34.5"/><rect fill="#ffef96" height="1" rx=".5" width="2" x="34" y="31.5"/><rect fill="#ffef96" height="1" rx=".5" width="2" x="32" y="34.5"/><path d="m13.1 42.159a12.779 12.779 0 0 1 -1.1-5.159v-2a7.955 7.955 0 0 1 1.583-4.764 4.477 4.477 0 0 0 -3.083-1.236c-.15 0-.293.03-.439.044-.166.264-.343.521-.491.8a13.327 13.327 0 0 0 -1.57 6.256 13.18 13.18 0 0 0 1.21 5.53l.6 1.3a4.4 4.4 0 0 0 .69.07 4.463 4.463 0 0 0 2.6-.841z" fill="#f7f7f7"/><path d="m56 36.1a13.247 13.247 0 0 0 -2.062-7.056c-.146-.014-.288-.044-.438-.044a4.477 4.477 0 0 0 -3.083 1.236 7.955 7.955 0 0 1 1.583 4.764v2a12.779 12.779 0 0 1 -1.1 5.159 4.463 4.463 0 0 0 2.6.841 4.4 4.4 0 0 0 .694-.07l.6-1.3a13.18 13.18 0 0 0 1.206-5.53z" fill="#f7f7f7"/><path d="m43 61.5a1.5 1.5 0 0 0 -1.5-1.5h-19a1.5 1.5 0 0 0 0 3h19a1.5 1.5 0 0 0 1.5-1.5z" fill="#e4e4e4"/><path d="m17 25a2 2 0 0 0 2 2h9v-4h-9a2 2 0 0 0 -2 2z" fill="#e4e4e4"/><path d="m34 26a2 2 0 0 1 -.27 1h11.27a2 2 0 0 0 0-4h-11z" fill="#e4e4e4"/><path d="m45.917 46.959a2.307 2.307 0 0 0 -3.434-1.622c-1.255.727-1.779 2.092-2.36 3.22q-.979 1.9-1.8 3.858a2.05 2.05 0 0 0 -.144 1.862 2 2 0 0 0 1.946.7 4.426 4.426 0 0 0 1.956-.91 10.231 10.231 0 0 0 3.556-4.6 4.36 4.36 0 0 0 .28-2.508z" fill="#fff9d6"/><rect fill="#ffef96" height="3" rx="1" width="2" x="36" y="13.5"/><path d="m36.046 7.106a10.507 10.507 0 0 1 -1.775.972 3.458 3.458 0 0 0 -.682.171.476.476 0 0 0 0 .882 3.211 3.211 0 0 0 1.92-.021 10.822 10.822 0 0 0 2.174-.583.985.985 0 0 0 .609-.443.973.973 0 0 0 -.032-.819 1.185 1.185 0 0 0 -.485-.459.89.89 0 0 0 -.414-.061 2.766 2.766 0 0 0 -.515.038 2.835 2.835 0 0 0 -.8.323z" fill="#f7f7f7"/><path d="m24.327 8.038a4.46 4.46 0 0 0 3.114.946c.241-.021.542-.129.558-.4a.509.509 0 0 0 -.127-.334 1.933 1.933 0 0 0 -.721-.524 7.755 7.755 0 0 0 -2.419-.721c-.694-.084-1.024.55-.405 1.033z" fill="#f7f7f7"/><path d="m19 35.492a2.539 2.539 0 0 0 -.456-1.718 3.283 3.283 0 0 0 -4.12-.094 5.07 5.07 0 0 0 -1.378 3.177c-.006.047-.008.095-.013.143h5.933c.019-.5.034-1.005.034-1.508z" fill="#f7f7f7"/><path d="m13.033 37a3.722 3.722 0 0 0 .162 1.709 3.981 3.981 0 0 0 2.973 2.211 2.373 2.373 0 0 0 2.4-.584 2.18 2.18 0 0 0 .289-1.147q.067-1.093.111-2.189z" fill="#fff9d6"/><path d="m50 35.784a9.244 9.244 0 0 0 -.341-2.844c-.994-3.259-5.137-6.195-8.495-4.389a2.108 2.108 0 0 0 -1.141 1.428 2.728 2.728 0 0 0 .422 1.675c.913 1.717 2.274 3.229 2.8 5.1.023.082.037.166.057.249h6.625c.037-.403.065-.813.073-1.219z" fill="#f7f7f7"/><path d="m43.3 37a19.2 19.2 0 0 1 .084 5.09 1.982 1.982 0 0 0 .315 1.385 1.459 1.459 0 0 0 .691.42 2.911 2.911 0 0 0 2.324-.366 5.255 5.255 0 0 0 1.647-1.729 10.983 10.983 0 0 0 1.563-4.8z" fill="#fff9d6"/><rect fill="#f07c2e" height="2" rx="1" width="15" x="45" y="5"/></g></svg>