<svg enable-background="new 0 0 128 128" viewBox="0 0 128 128" xmlns="http://www.w3.org/2000/svg"><g id="Crocodile"/><g id="Kangaroo"/><g id="Flamingo"/><g id="Eagle"/><g id="Tapir"/><g id="Pangolin"/><g id="Hedgehog"/><g id="Komodo"/><g id="Ferret"/><g id="Hipotatamus"/><g id="Gorilla"/><g id="Koala"/><g id="Panda"/><g id="Rhinoceros"/><g id="Racoon"/><g id="Donkey"/><g id="Cow"/><g id="Goat"/><g id="Deer"/><g id="Jaguar"/><g id="Fox"/><g id="Tiger"/><g id="hyena"/><g id="Polar_Bear"/><g id="Squirrel"/><g id="Monkey"/><g id="Giraffe"/><g id="Elephant"/><g id="Lion"/><g id="Horse"><g><path d="m69.368 7.604c-.004-.01-.002-.025-.011-.031-8.467-5.234-13.45.761-13.45.761l2.086 1.985-4.102-.027s-2.041 2.925-2.811 4.96c-.998 2.637-1.386 5.155-1.421 7.578l4.271.272-4.239 1.517c.276 5.068 1.914 9.718 2.561 14.149l3.389.215-3.158 1.994c.22 3.85-.637 7.556-4.195 11.254 2.699.301 11.815-5.868 10.681-9.847-2.714-9.522-9.134-32.231 10.399-34.78z" fill="#515389"/><path d="m39.74 97.12c-.28-3.73-.7-4.38-2.07-5.56.47 5.02-.67 7.92-3.99 11.71-3.33 3.79-8.25 6.12-13.29 6.3 5.42-2.02 8.49-7.38 9.28-13.11-2.96 2.59-5.68 4.44-9.6 4.84 3.92-2.61 6.74-6.8 7.69-11.41.42-2.09.48-4.24.9-6.34.42-2.09 1.26-4.2 2.92-5.54-2.25 1.15-4.5 2.29-6.76 3.44 1.36-4.45 4.57-8.3 8.7-10.44 2.11-1.09 5.31-2.07 8.26-2.13 0 0 0 0-.01.01-.89 1.95-.91 4.22-.42 6.57.83 6.39 1.26 8.47 1.5 11.89s-.82 5.92-3.11 9.77z" fill="#515389"/><path d="m39.74 97.12c-.28-3.73-.7-4.38-2.07-5.56.47 5.02-.67 7.92-3.99 11.71-3.33 3.79-8.25 6.12-13.29 6.3 11.685-3.678 13.953-14.143 14.385-18.582.101-1.035 1.112-1.724 2.107-1.423l1.117.338c1.082.327 2.175-.512 2.113-1.641-.082-1.503-.436-3.938-1.472-7.792-2.18-8.09 2.87-11.42 3.13-11.58-.89 1.95-.91 4.22-.42 6.57.83 6.39 1.26 8.47 1.5 11.89s-.82 5.92-3.11 9.77z" fill="#303355"/><path d="m84.99 111.69-7.33-.22-1.43-2.87s-.49-1.27-2.04-2.88c-1.05-1.08-6.25-5.5-9.52-8.26-1.48-1.25-2-3.32-1.23-5.09.58-1.33 1.12-2.96 1.2-4.47.03-.35.03-.68-.01-1.01-.03-.4-.11-.78-.24-1.13-.18-.48-.49-1.06-.89-1.69.04-.25.07-.49.09-.73.45-5.09-.37-9.99-.37-9.99 1.45-1.88 3.23-3.95 5.26-6.16.01-.01.01-.01.01-.01.41.65.83 1.35 1.26 2.07 2.3 3.91 4.63 8.63 4.19 11.14-.6 3.38-3.2 8.29-4.66 10.86-.6 1.06-.49 2.37.28 3.31 2.12 2.54 6.46 7.48 10.02 9.69 5.19 3.23 5.41 7.44 5.41 7.44z" fill="#ca6f63"/><path d="m113.53 37.65c-1.71 1.34-6.56 1.43-8.45.24.09-1.27-.28-1.96-1.15-2.73-2.43.59-5.82.31-9.6-.1-1.9 2.49-5.92 5.78-9.09 7.95-.01.01-.02.01-.03.02-.16.11-.32.22-.48.32-.08 1.21-.19 2.3-.35 3.3-.67 3.99-2.18 6.56-5.48 9.92-5.25 5.13-10 9.97-13.53 14.13-.78.92-1.5 1.8-2.15 2.65 0 0 .04.26.11.71.2 1.54.61 5.35.26 9.28-.69 7.83-10.41 17.21-10.41 17.21.8 6.29 2.81 14.54 2.81 14.54s.35 2.64 1.83 3.64c1.12.37 4.66 3.24 4.38 5.27h-7.62l-2.52-5.45c-1.27-6.43-2.07-9.05-5-16.13 0 0-2.46-3.25-1.41-4.92s2.57-4.59 2.62-6.53c.06-1.94-11.57-16.42-5.48-23.69 6.09-7.28 18.9-15.34 16.18-24.9-2.72-9.55-9.19-32.38 10.59-34.81 1.36-2.15 3.46-3.31 6.22-3.57l-1.39 4.11c3.12 1.24 7.2 8.05 12.19 11.15.37 1.17-1.11 2.42-1.2 4.01-.5 1.2-2.13.8-3.91.19-1.14-2.01-4.46-.76-7.84-2.18-.38-.15-.76-.35-1.14-.58.02 1.13.13 2.23.34 3.3.65 3.47 2.33 6.64 5.61 9.57.72.65 1.53 1.29 2.42 1.92.25-.05.51-.11.78-.18 3.79-.98 9.33-3.82 12.32-5.42 4.4.33 8.59.98 11.42.61 2.5 2.4 7.82 3.35 8.15 7.15z" fill="#ca6f63"/><g fill="#9e443d"><path d="m113.53 37.65c-1.71 1.34-6.56 1.43-8.45.24 0 0 3.87-4.14 8.45-.24z"/><path d="m66.279 73.228c-.395.452-.561 1.056-.457 1.647.387 2.209 1.085 7.95-1.182 12.015h-.01c-.03-.4-.11-.78-.24-1.13-.18-.48-.49-1.06-.89-1.69.04-.25.07-.49.09-.73.45-5.09-.37-9.99-.37-9.99-.01-2.29-.07-4.62-.28-6.92-.05-.4.54-.55.69-.18.415.947.797 1.907 1.161 2.874.264.701 1.183.867 1.677.304.638-.726 1.309-1.472 2.012-2.238.01-.01.01-.01.01-.01.41.65.83 1.35 1.26 2.07z"/><path d="m81.81 46.26 2.92-2.91c-.08 1.21-.19 2.3-.35 3.3l-1.84.72c-.66.29-1.25-.63-.73-1.11z"/><path d="m80.86 35.49c-8.93-3.65-11.37-13.34-11.87-15.94-.06-.21-.11-.43-.11-.63v-.01c.01-.29.12-.52.47-.58.18 0 .34.1.42.24.29.58.86 1.04 1.49 1.44.37.24.8.49 1.23.69.02 1.13.13 2.23.34 3.3.65 3.47 2.33 6.64 5.61 9.57.72.65 1.53 1.29 2.42 1.92z"/></g><path d="m105.67 57.88c-1.87-.27-5.2-2.41-6.3-4.56l1.4-4.13c-1.54-1.65-1.97-2.43-4.45-4.34-4.75 2.51-8.93 3.57-12.93 5.41.78-1.92 1.17-4.07 1.34-6.91.61-.4 1.27-.87 1.94-1.36 1.17-.13 2.39-.32 3.63-.56 2.93-.54 5.94-1.31 8.55-1.96 1.68 2.72 4.22 6.42 6.08 8.06 1.3 1.14.38 3.57.38 3.57 1.1 2.28 1.2 4.87.36 6.78z" fill="#ca6f63"/><path d="m105.67 57.88c-1.87-.27-5.2-2.41-6.3-4.56 0 0 5.87 4.26 5.94-2.22 1.1 2.28 1.2 4.87.36 6.78z" fill="#9e443d"/><path d="m90.3 41.43v.01s-2.89 6.12-6.91 8.82c.78-1.92 1.17-4.07 1.34-6.91.61-.4 1.27-.87 1.94-1.36 1.17-.13 2.39-.32 3.63-.56z" fill="#9e443d"/></g></g></svg>