<svg id="Capa_1" enable-background="new 0 0 510 510" height="512" viewBox="0 0 510 510" width="512" xmlns="http://www.w3.org/2000/svg" xmlns:xlink="http://www.w3.org/1999/xlink"><linearGradient id="SVGID_1_" gradientUnits="userSpaceOnUse" x1="194.333" x2="311.63" y1="386.328" y2="386.328"><stop offset="0" stop-color="#537983"/><stop offset="1" stop-color="#3e5959"/></linearGradient><linearGradient id="lg1"><stop offset="0" stop-color="#ffe177"/><stop offset="1" stop-color="#fe9738"/></linearGradient><linearGradient id="SVGID_2_" gradientUnits="userSpaceOnUse" x1="237.002" x2="293.232" xlink:href="#lg1" y1="448.973" y2="505.204"/><linearGradient id="lg2"><stop offset="0" stop-color="#fe9738" stop-opacity="0"/><stop offset="1" stop-color="#fe7701"/></linearGradient><linearGradient id="SVGID_3_" gradientUnits="userSpaceOnUse" x1="260.964" x2="250.735" xlink:href="#lg2" y1="479.344" y2="407.383"/><linearGradient id="SVGID_4_" gradientUnits="userSpaceOnUse" x1="255" x2="255" xlink:href="#lg2" y1="481.324" y2="514.157"/><linearGradient id="SVGID_5_" gradientTransform="matrix(0 1 1 0 2848.758 -2848.758)" gradientUnits="userSpaceOnUse" x1="3254.091" x2="3289.846" xlink:href="#lg1" y1="-2593.758" y2="-2593.758"/><linearGradient id="SVGID_6_" gradientUnits="userSpaceOnUse" x1="255" x2="255" xlink:href="#lg2" y1="427.388" y2="440.363"/><linearGradient id="lg3"><stop offset="0" stop-color="#fe646f"/><stop offset="1" stop-color="#fb2b3a"/></linearGradient><linearGradient id="SVGID_7_" gradientUnits="userSpaceOnUse" x1="342.129" x2="404.078" xlink:href="#lg3" y1="185.186" y2="185.186"/><linearGradient id="SVGID_8_" gradientUnits="userSpaceOnUse" x1="221.754" x2="268.98" xlink:href="#lg3" y1="183.205" y2="183.205"/><linearGradient id="SVGID_9_" gradientUnits="userSpaceOnUse" x1="255" x2="255" y1="291" y2="361.257"><stop offset="0" stop-color="#f82814" stop-opacity="0"/><stop offset="1" stop-color="#c0272d"/></linearGradient><linearGradient id="lg4"><stop offset="0" stop-color="#edf5ff"/><stop offset="1" stop-color="#c7e9ff"/></linearGradient><linearGradient id="SVGID_10_" gradientUnits="userSpaceOnUse" x1="306.589" x2="355.899" xlink:href="#lg4" y1="183.212" y2="183.212"/><linearGradient id="SVGID_11_" gradientUnits="userSpaceOnUse" x1="155.261" x2="188.685" xlink:href="#lg4" y1="183.212" y2="183.212"/><linearGradient id="lg5"><stop offset="0" stop-color="#7bacdf" stop-opacity="0"/><stop offset="1" stop-color="#7bacdf"/></linearGradient><linearGradient id="SVGID_12_" gradientUnits="userSpaceOnUse" x1="315.681" x2="315.681" xlink:href="#lg5" y1="292" y2="353"/><linearGradient id="SVGID_13_" gradientUnits="userSpaceOnUse" x1="194.32" x2="194.32" xlink:href="#lg5" y1="292" y2="353"/><linearGradient id="SVGID_14_" gradientUnits="userSpaceOnUse" x1="272.67" x2="272.746" xlink:href="#lg4" y1="366.42" y2="366.42"/><linearGradient id="SVGID_15_" gradientUnits="userSpaceOnUse" x1="237.273" x2="237.319" xlink:href="#lg4" y1="366.42" y2="366.42"/><g><path d="m285.491 327.167h-60.982-64.965l55.961 118.322h23.729 31.533 23.729l55.961-118.322zm-60.488 103.322-41.772-88.322h43.145l10.991 88.322zm27.479 0-10.991-88.322h27.018l-10.991 88.322zm32.515 0h-12.363l10.991-88.322h43.145z" fill="url(#SVGID_1_)"/><g><path d="m309.325 510h-108.651c-9.258 0-16.42-6.585-15.269-14.038l11.707-75.788h115.774l11.707 75.788c1.152 7.453-6.01 14.038-15.268 14.038z" fill="url(#SVGID_2_)"/><path d="m309.328 509.997h-28.771l-86.48-70.173 3.035-19.65h115.774l11.707 75.788c1.154 7.455-6.008 14.035-15.265 14.035z" fill="url(#SVGID_3_)"/><path d="m185.406 495.962c-1.151 7.453 6.011 14.038 15.269 14.038h108.65c9.258 0 16.42-6.585 15.269-14.038l-4.288-27.759h-130.612z" fill="url(#SVGID_4_)"/><g><path d="m322.21 429.781v-13.141c0-6.245-5.062-11.307-11.307-11.307h-111.806c-6.245 0-11.307 5.062-11.307 11.307v13.141c0 6.245 5.062 11.307 11.307 11.307h111.806c6.244.001 11.307-5.062 11.307-11.307z" fill="url(#SVGID_5_)"/><path d="m187.789 424.526v5.432c0 6.147 5.143 11.131 11.486 11.131h111.447c6.344 0 11.486-4.983 11.486-11.131v-5.432z" fill="url(#SVGID_6_)"/></g></g><g><path d="m255 365.598c16.273 0 31.454 1.527 44.719 4.215 7.107 1.44 14.691.054 20.879-3.711 30.434-18.519 63.337-49.992 83.585-84.454 61.063-103.936 71.359-281.648-149.183-281.648s-210.246 177.712-149.182 281.647c20.247 34.463 53.151 65.935 83.585 84.454 6.188 3.766 13.772 5.151 20.879 3.711 13.264-2.687 28.445-4.214 44.718-4.214z" fill="url(#SVGID_7_)"/><path d="m292.133 290.08c-4.196 29.55-10.582 56.97-16.967 76.33-6.477-.53-13.218-.81-20.166-.81-6.947 0-13.688.28-20.166.81-6.386-19.36-12.771-46.78-16.967-76.33-15.201-107.05-17.769-290.08 37.133-290.08s52.334 183.03 37.133 290.08z" fill="url(#SVGID_8_)"/><path d="m86.156 241c5.593 14.335 12.252 28.035 19.661 40.647 20.247 34.463 53.151 65.935 83.585 84.455 6.188 3.765 13.772 5.151 20.879 3.711 13.265-2.688 28.446-4.215 44.719-4.215s31.454 1.526 44.719 4.215c7.107 1.44 14.69.054 20.879-3.711 30.434-18.519 63.337-49.991 83.585-84.455 7.41-12.612 14.069-26.312 19.661-40.647z" fill="url(#SVGID_9_)"/><g><path d="m255 0c54.899 0 52.336 183.033 37.136 290.079-4.198 29.562-10.581 56.979-16.974 76.34-.002 0-.004 0-.005 0 8.708.708 61.749-68.791 72.985-100.34 38.125-107.046 44.553-266.079-93.142-266.079z" fill="url(#SVGID_10_)"/><path d="m161.858 266.079c11.236 31.55 64.277 101.049 72.985 100.34-.002 0-.004 0-.005 0-6.393-19.361-12.776-46.779-16.974-76.34-15.2-107.046-17.763-290.079 37.136-290.079-137.695 0-131.267 159.033-93.142 266.079z" fill="url(#SVGID_11_)"/></g><g><path d="m356.195 241c-2.465 8.6-5.17 16.99-8.048 25.08-11.155 31.3-63.443 99.95-72.775 100.35-.069 0-.138 0-.206-.01v-.01c6.386-19.36 12.771-46.78 16.967-76.33 2.144-15.09 4.035-31.69 5.537-49.08z" fill="url(#SVGID_12_)"/><path d="m234.834 366.41v.01c-.069.01-.138.01-.206.01-9.332-.4-61.62-69.05-72.775-100.35-2.878-8.09-5.583-16.48-8.048-25.08h58.525c1.502 17.39 3.393 33.99 5.537 49.08 4.196 29.55 10.582 56.97 16.967 76.33z" fill="url(#SVGID_13_)"/></g></g><g><path d="m272.77 366.43c-.06 0-.12 0-.18-.01v-.01c.06 0 .12.01.18.02z" fill="url(#SVGID_14_)"/><path d="m237.41 366.41v.01c-.05.01-.1.01-.16.01.05-.01.11-.02.16-.02z" fill="url(#SVGID_15_)"/></g></g></svg>