<svg id="Capa_1" enable-background="new 0 0 56 56" viewBox="0 0 56 56" xmlns="http://www.w3.org/2000/svg"><g><g clip-rule="evenodd" fill-rule="evenodd" transform="translate(-400)"><path d="m452.472 16.199c2.034.626 3.521 2.52 3.528 6.554.009 5.524-1.578 9.901-11.672 17.273-5.638 4.118-18.597 8.732-29.595 8.389-2.425-.075-8.502-1.799-8.284-6.443.283-6.005 6.33-7.623 12.506-8.113 6.175-.491 16.277-4.597 22.472-11.216s8.723-7.157 11.045-6.444zm-38.571 13.096c.301-.171.611-.309.938-.401.552-.154 1.048-.212 1.514-.213 2.29-.63 4.655-1.446 6.948-2.474.457-.471 1.03-.923 1.809-1.306.742-.365 1.387-.554 1.978-.64 2.608-1.498 4.922-2.872 7.416-4.589.244-.487.596-.927 1.143-1.299.455-.309.942-.476 1.446-.563 1.339-1.005 2.764-2.135 4.334-3.451.718-.603 1.325-1.225 1.862-1.837.35-.596.748-1.089 1.167-1.498-.433-.262-4.089-2.303-7.632 1.192-3.773 3.721-9.356 7.995-19.096 11.716 0 0-5.508 2.16-10.358 3.262 0 0-3.124 1.012-3.16 4.343 1.49-.642 3.434-1.156 5.921-1.531 1.191-.179 2.458-.414 3.77-.711z" fill="#f3a63a"/><path d="m444.694 10.803c1.037-1.318 1.917-2.414 3.176-2.888 2.315-.871 5.036-.162 6.443 2.762 1.214 2.522-.352 5.278-.805 5.986-.324-.198-.671-.351-1.036-.464-2.322-.713-4.85-.175-11.045 6.444s-16.297 10.725-22.472 11.216c-6.176.49-12.223 2.108-12.506 8.113-.031.667.067 1.274.266 1.824-.097.008-.187.013-.268.017-3.642.164-6.294-2.806-6.441-6.443s2.301-6.184 10.125-7.364c1.191-.179 2.458-.414 3.77-.711-.576.327-1.118.774-1.685 1.238-.939.771-1.991 1.598-3.796 1.377-2.117-.26-3.355-.16-4.226.358-.893.529-1.488 1.528-2.126 3.348-.183.521.092 1.092.613 1.275.52.182 1.092-.092 1.274-.613.421-1.199.671-1.941 1.259-2.29.609-.362 1.483-.275 2.962-.093 2.121.26 3.523-.453 4.696-1.331.888-.665 1.579-1.484 2.506-1.743 1.02-.286 1.774-.073 2.579.064 1.089.186 2.244.301 3.894-.333.808-.311 1.336-.889 1.849-1.609.511-.717 1.021-1.622 2.293-2.248 1.244-.612 2.123-.519 3.003-.436 1.189.113 2.38.217 4.08-.568 2.006-.928 2.495-2.233 2.786-3.526.089-.395.153-.787.261-1.157.108-.371.264-.72.647-.98.747-.507 1.639-.309 2.502-.285 1.015.028 2.003-.067 2.882-.669.834-.571 1.618-1.629 2.13-3.692 1.036-4.175 4.635-4.316 4.635-4.316.552-.013.989-.471.976-1.023s-.471-.989-1.023-.977c0 0-2.249.028-4.178 1.737zm-21.393 15.404c-.371.381-.665.774-.932 1.152-.392.555-.649 1.1-1.236 1.326-1.481.57-2.433.295-3.401.13-.447-.076-.897-.135-1.38-.134 2.29-.63 4.656-1.446 6.949-2.474zm11.203-6.535c-.224.448-.357.937-.465 1.447-.204.963-.281 2.053-1.802 2.756-1.27.587-2.164.477-3.052.393-.671-.064-1.34-.119-2.097-.007 2.608-1.498 4.922-2.872 7.416-4.589zm8.786-7.151c-.387.66-.715 1.445-.947 2.379-.342 1.378-.762 2.142-1.319 2.524-.513.351-1.104.336-1.696.32-.754-.021-1.512-.06-2.235.066 1.339-1.005 2.764-2.135 4.334-3.451.718-.603 1.325-1.225 1.863-1.838z" fill="#bd451a"/><path d="m448.872 9.066s-5.097.062-6.529 5.834c-.342 1.378-.762 2.142-1.319 2.524-.513.351-1.104.336-1.696.32-1.28-.036-2.574-.122-3.681.629-1.051.714-1.382 1.681-1.608 2.746-.204.963-.281 2.053-1.802 2.756-1.27.587-2.164.477-3.052.393-1.196-.113-2.384-.199-4.075.633-1.41.694-2.145 1.614-2.741 2.458-.392.555-.649 1.1-1.236 1.326-1.481.57-2.433.295-3.401.13-.879-.149-1.769-.235-2.893.079-.956.268-1.76.933-2.623 1.639-.939.771-1.991 1.598-3.796 1.377-2.117-.26-3.355-.16-4.226.358-.893.529-1.488 1.528-2.126 3.348-.183.521.092 1.092.613 1.275.52.182 1.092-.092 1.274-.613.421-1.199.671-1.941 1.259-2.29.609-.362 1.483-.275 2.962-.093 2.121.26 3.523-.453 4.696-1.331.888-.665 1.579-1.484 2.506-1.743 1.02-.286 1.774-.073 2.579.064 1.089.186 2.244.301 3.894-.333.808-.311 1.336-.889 1.849-1.609.511-.717 1.021-1.622 2.293-2.248 1.244-.612 2.123-.519 3.003-.436 1.189.113 2.38.217 4.08-.568 2.006-.928 2.495-2.233 2.786-3.526.089-.395.153-.787.261-1.157.108-.371.264-.72.647-.98.747-.507 1.639-.309 2.502-.285 1.015.028 2.003-.067 2.882-.669.834-.571 1.618-1.629 2.13-3.692 1.036-4.175 4.635-4.316 4.635-4.316.552-.013.989-.471.976-1.023s-.471-.989-1.023-.977z" fill="#f5e20a"/></g></g><g/><g/><g/><g/><g/><g/><g/><g/><g/><g/><g/><g/><g/><g/><g/></svg>