<svg id="Icons" height="512" viewBox="0 0 60 60" width="512" xmlns="http://www.w3.org/2000/svg"><path d="m6 16h-3a2 2 0 0 0 -2 2v6a2 2 0 0 0 2 2h3z" fill="#144075"/><path d="m19 21a5.119 5.119 0 0 1 -4 5h-1v-10h1a5.119 5.119 0 0 1 4 5z" fill="#144075"/><path d="m15 15v12a2.006 2.006 0 0 1 -2 2v1h-6v-1a2.006 2.006 0 0 1 -2-2v-12a2.006 2.006 0 0 1 2-2h6a2.006 2.006 0 0 1 2 2z" fill="#aec3d3"/><path d="m42.92 27.27-2.94-4.7a1.937 1.937 0 0 1 -.29-1.01 1.907 1.907 0 0 1 3.4-1.19l2.91 3.63v2z" fill="#2c65a8"/><path d="m59 41a6 6 0 0 1 -6 6h-46a6 6 0 0 1 -6-6 6.172 6.172 0 0 1 2-4.88 5.381 5.381 0 0 1 2-1.12l1-1h49l1.9 1a11.583 11.583 0 0 1 2.1 6z" fill="#144075"/><path d="m56.9 35h-51.9v-4a2.006 2.006 0 0 1 2-2h29c8 0 10-5 10-5s7.23 5.17 10.9 11z" fill="#c8d9e8"/><g fill="#0d2f60"><path d="m24.76 47h-2.05a30.331 30.331 0 0 1 -.71-6 1 1 0 0 1 2 0 28.759 28.759 0 0 0 .76 6z"/><path d="m16.24 43.06a12.921 12.921 0 0 1 -.24-2.06 1 1 0 0 0 -2 0 16.282 16.282 0 0 0 1.38 6h2.22a14.8 14.8 0 0 1 -1.36-3.94z"/><path d="m8.37 43a8.352 8.352 0 0 1 -.37-2 1 1 0 0 0 -2 0 12.132 12.132 0 0 0 2.02 6h2.46a11.453 11.453 0 0 1 -2.11-4z"/><path d="m31 41v6h-2v-6a1 1 0 0 1 2 0z"/><path d="m38 41a30.331 30.331 0 0 1 -.71 6h-2.05a28.759 28.759 0 0 0 .76-6 1 1 0 0 1 2 0z"/><path d="m46 41a16.282 16.282 0 0 1 -1.38 6h-2.22a14.752 14.752 0 0 0 1.6-6 1 1 0 0 1 2 0z"/><path d="m54 41a12.132 12.132 0 0 1 -2.02 6h-2.46a10.828 10.828 0 0 0 2.48-6 1 1 0 0 1 2 0z"/></g></svg>