<svg id="Capa_1" enable-background="new 0 0 512 512" viewBox="0 0 512 512" xmlns="http://www.w3.org/2000/svg"><g><g><path d="m501.04 302.791v.01c-.26 1.13-20.38 87.42-99.32 94.26-79.46 6.89-108.93 76.07-108.93 76.07h.04c-11.47 3.05-23.88 4.72-36.83 4.72-39.35 0-73.69-15.4-91.96-38.27-6.14-7.68-13.72-13.84-22.19-18.32-.94-1.33-31.28-43.9-73.92-48.31-41.7-4.32-34.86-65.95 6.6-109.11 9.93-2.21 20.48-3.4 31.42-3.4h300.1c41.64 0 77.67 17.25 94.99 42.35z" fill="#5cceff"/><path d="m76.25 357.871-17.29 46.86c-34.94-12.43-58.96-38.3-58.96-68.2 0-16.7 7.5-32.15 20.2-44.69l35.48 35.27c-3.76 3.61-5.68 7.05-5.68 9.42 0 5.14 9.05 15.33 26.25 21.34z" fill="#73e1ff"/><path d="m172.04 415.881c-.34.34-.67.69-1.01 1.03-7.64 7.85-19.49 9.52-29.16 4.38-6.66-3.53-13.87-6.03-21.35-7.41l9.73-49.08-.01-.01c12.74 2.39 24.9 6.72 36.09 12.79 14.12 7.67 16.91 26.78 5.71 38.3z" fill="#73e1ff"/><path d="m55.676 327.114c8.16-7.851 24.996-16.503 49.604-16.66v-50.004c-34.985.157-65.948 12.488-85.084 31.392-15.781 15.589-4.548 42.513 17.634 42.513h.287c6.58-.001 12.818-2.679 17.559-7.241z" fill="#b6f0ff"/><g><path d="m106.669 362.614-.716.001c-11.659 0-21.591-1.906-29.706-4.745-8.801-3.079-18.597-1.17-25.358 5.251-.161.153-.322.307-.483.46-13.293 12.698-8.764 34.991 8.554 41.157 14.161 5.042 30.116 7.877 46.994 7.877.158 0 .316 0 .473-.001 4.761-.015 9.479.413 14.091 1.265 10.691 1.975 21.454-3.006 26.595-12.586.079-.147.158-.295.237-.442 7.901-14.711-.69-32.963-17.1-36.051-7.675-1.443-15.563-2.186-23.581-2.186z" fill="#b6f0ff"/></g><g fill="#27b2ff"><path d="m301.67 415.021 28.34 41.18c-10.51 7.38-23.16 13.2-37.22 16.93-2.18.58-4.36.86-6.49.86-13.38 0-24.98-10.83-24.98-25 0-11.26 7.49-21.25 18.37-24.1 8.98-2.36 16.45-5.91 21.98-9.87z"/><path d="m446.44 406.881c-12.45 3.7-26.09 5.73-40.39 5.73h-.87c-7.68-.04-15.19 1.13-22.32 3.39l-15.5-47.6h-.02c12.07-3.8 24.85-5.79 37.99-5.79h.72c9.97 0 18.67-1.39 26.06-3.57z"/><path d="m512 336.531c0 16-6.88 30.84-18.63 43.09l-36.51-34.2c3.4-3.41 5.14-6.63 5.14-8.89 0-1.44-.71-3.27-2.11-5.3-6.35-9.21-5.73-21.52 1.49-30.07.11-.13.22-.26.32-.39 10.54-12.49 30.05-11.43 39.34 2.02 7.01 10.17 10.96 21.62 10.96 33.74z"/></g><g><path d="m308.901 408.368c-1.803 2.256-4.234 4.516-7.229 6.656-9.28 6.632-13.009 18.624-8.88 29.257l.181.466c5.769 14.859 23.976 20.598 37.034 11.456 6.785-4.75 12.684-10.149 17.502-16.06 9.334-11.453 21.637-19.805 35.357-24.142 10.288-3.252 17.157-12.967 17.157-23.757 0-16.96-16.487-28.926-32.666-23.84-22.908 7.2-43.237 20.919-58.456 39.964z" fill="#008cff"/></g><g><path d="m456.856 345.424c-4.888 4.91-13.213 10.217-24.748 13.614-10.517 3.097-17.638 12.895-17.638 23.859v.035c0 16.646 16.007 28.687 31.966 23.957 19.09-5.657 35.374-15.205 46.938-27.267 14.981-15.628 3.537-41.655-18.112-41.655h-.894c-6.608-.001-12.849 2.773-17.512 7.457z" fill="#008cff"/></g></g><g><path d="m256.008 166.255-184.432-74.544c1.689-1.919 3.934-3.415 6.524-4.202l106.089-32.216h.019l144.33.23 105.36 31.986c2.59.787 4.855 2.264 6.543 4.202z" fill="#cbe1ff"/><path d="m268.135 274.262-8.73 79.591h-107.145l-74.141-22.508c-6.064-1.842-10.189-7.406-10.189-13.738v-67.713c.595-2.053 33.176-113.15 103.748-127.79l74.141 22.507c6.063 1.842 10.189 7.407 10.189 13.739z" fill="#7cbaf7"/><path d="m444.086 215.682v101.925c0 6.332-4.126 11.896-10.17 13.738l-38.203 11.589-89.588-15.082-50.118-124.125v-45.377c0-6.332 4.144-11.896 10.189-13.739l174.243-52.9c2.303 2.552 3.646 5.929 3.646 9.536v55.702c.001 0-31.045 29.108.001 58.733z" fill="#48acff"/><path d="m256.008 241.202 7.368 49.62h-64.797v-49.62c0-15.868 12.856-28.724 28.724-28.724 15.85 0 28.705 12.856 28.705 28.724z" fill="#48acff"/><g fill="#229bff"><path d="m313.437 203.728v55.184h-57.429v-55.184c0-7.924 3.204-15.12 8.404-20.319 5.2-5.181 12.376-8.404 20.32-8.404 15.849 0 28.705 12.855 28.705 28.723z"/><path d="m395.714 342.935-35.939 10.918-16.693-54.953 35.958-10.918c2.782-.844 5.603-1.247 8.366-1.247 13.451 0 25.654 9.575 28.225 23.582 2.609 14.352-5.949 28.378-19.917 32.618z"/><path d="m198.58 290.824v7.387c0 4.819-4.653 8.269-9.264 6.87l-20.374-6.185c-18.444-5.599-37.058 8.203-37.057 27.478 0 12.646 8.274 23.804 20.375 27.478l99.576 30.228c1.364.416 2.771.632 4.178.632l12.122-49.464-12.123-44.425c0-15.86-12.857-28.716-28.716-28.716-15.861.001-28.717 12.857-28.717 28.717z"/></g><path d="m343.083 298.895-17.626 5.351c-5.979 1.815-12.012-2.659-12.012-8.907v-36.42c0-15.86-12.857-28.716-28.716-28.716-15.86 0-28.716 12.857-28.716 28.716l.001 125.793c1.407 0 2.814-.216 4.178-.632l99.575-30.23c12.101-3.674 20.374-14.832 20.374-27.478 0-26.933-18.614-33.077-37.058-27.477z" fill="#037cff"/><g><path d="m67.93 215.682h57.429v34.231c0 7.925-3.223 15.1-8.404 20.301-5.2 5.181-12.395 8.404-20.32 8.404-15.849 0-28.705-12.856-28.705-28.705z" fill="#a9cffc"/><path d="m192.036 149.581c0 19.265-18.612 33.08-37.051 27.477l-20.358-6.198c-4.624-1.381-9.268 2.053-9.268 6.869l-57.448-20.78v-55.702c0-3.608 1.362-6.984 3.665-9.536l100.103 30.393c6.044 1.823 11.129 5.546 14.717 10.381 3.568 4.816 5.64 10.783 5.64 17.096z" fill="#a9cffc"/><path d="m67.92 156.944v58.739c0 15.859 12.857 28.716 28.716 28.716 15.859 0 28.716-12.857 28.716-28.716v-58.739c0-15.859-12.857-28.716-28.716-28.716-15.859 0-28.716 12.856-28.716 28.716z" fill="#cbe1ff"/><path d="m386.656 156.942v58.739c0 15.86 12.857 28.716 28.716 28.716 15.859 0 28.716-12.857 28.716-28.716v-58.739c0-15.86-12.857-28.716-28.716-28.716-15.859-.001-28.716 12.856-28.716 28.716z" fill="#229bff"/></g><path d="m232.407 40.652 16.789 55.338v.019l-48.219 14.621c-7.809 2.36-16.252 1.324-23.255-2.858-9.536-5.718-14.065-15.235-14.065-24.695 0-11.915 7.157-23.716 20.531-27.784z" fill="#e3f0ff"/><path d="m340.453 103.147c-.154.173-.326.326-.48.499-7.483 7.445-18.44 10.189-28.532 7.119l-48.065-14.582v-.02l16.789-55.337 48.372 14.698c20.685 6.273 27.228 32.369 11.916 47.623z" fill="#e3f0ff"/><path d="m260.175 34.761c-.043-.014-.086-.029-.129-.029-2.685-.79-5.528-.775-8.199.029h-.014l-19.428 5.899c-15.279 4.639-23.904 20.786-19.266 36.065 4.639 15.279 20.785 23.905 36.064 19.267l2.63-.798h.014c2.671-.804 5.514-.818 8.199-.029.043 0 .086.014.129.029l3.195.97c15.264 4.636 31.399-3.967 36.056-19.225 4.666-15.288-3.958-31.461-19.253-36.106z" fill="#f5faff"/></g></g><g/><g/><g/><g/><g/><g/><g/><g/><g/><g/><g/><g/><g/><g/><g/></svg>