<svg id="Flat" viewBox="0 0 340 340" xmlns="http://www.w3.org/2000/svg"><path d="m65.6 42.478s7.416-1.514 13.633-10.188a2.159 2.159 0 0 1 3.908 1.51c-.529 3.748-2.12 7.895-6.225 10.289l1.714.327s13.388-1.667 21.6-12.058a1.976 1.976 0 0 1 3.391 1.905c-1.815 5.3-6.237 11.74-16.606 16.592l1.325 1.867s9.385 1.656 17.514-1.462a1.742 1.742 0 0 1 1.96 2.735 19.439 19.439 0 0 1 -10.68 6.669l3.123 3.014s9.125 4.024 17.835.358a1.748 1.748 0 0 1 2.018 2.7 15.822 15.822 0 0 1 -8.894 5.991l3.487 2.621a21.742 21.742 0 0 0 14.171 2.375 2.236 2.236 0 0 1 1.891 3.814 16.883 16.883 0 0 1 -9.7 4.585s-36.583-35.05-55.465-43.644z" fill="#645e4a"/><path d="m129.84 92.213a47.146 47.146 0 0 0 27.948-9.522 2.194 2.194 0 0 1 3.067 3.089c-4.191 5.244-11.065 10.709-22.2 13.163l2.056 1.775a31.55 31.55 0 0 0 18.506.294 2.2 2.2 0 0 1 2.089 3.785 23.386 23.386 0 0 1 -11.366 4.97l2.361 2.043s8.577 3.236 17.287.138a2.754 2.754 0 0 1 3.153 4.242c-1.628 2.087-4.321 4.167-8.766 5.539l4.2 2.908s7.83 4.648 18.163-.573a18.456 18.456 0 0 1 11.457-1.839 1.478 1.478 0 0 1 .083 2.906 21.346 21.346 0 0 0 -8.153 3.69s-5.606 6.269-11.943 5.9l2.446 1.687s6.912 5.75 15.687 3.292a2.461 2.461 0 0 1 2.485 4.045c-2.517 2.579-6.537 4.67-12.865 3.913l2.465 6.222a34.332 34.332 0 0 0 12.337 1.985 2.057 2.057 0 0 1 1.07 3.853 14.533 14.533 0 0 1 -9.351 1.655l6.49 6.429s3.837 5.424 14.859 2.2a13.781 13.781 0 0 0 8.818-7.694 1.271 1.271 0 0 1 2.4.744 16.819 16.819 0 0 1 -9.725 13.16l14.014 1.121a27.388 27.388 0 0 0 13.262-10.488 1.616 1.616 0 0 1 2.991.914 15.437 15.437 0 0 1 -6.07 12.088l9.358.849s7.437-7.849 17.464-9.6a1.632 1.632 0 0 1 1.292 2.9 22.133 22.133 0 0 0 -6.9 8.2l8.876 1.588a34.6 34.6 0 0 1 16.411-6.425 1.887 1.887 0 0 1 1.2 3.47c-2.593 1.676-5.378 3.98-6.866 6.786l9.8 3.217a27.687 27.687 0 0 1 15.172-4.3 2.112 2.112 0 0 1 .809 4.047 24.606 24.606 0 0 0 -7.656 5.163l8.8 4.489a29.865 29.865 0 0 1 10.554-1.071 3.111 3.111 0 0 1 1.007 5.948 44.135 44.135 0 0 0 -4.473 2.257s-31.767-16.761-52.041-18.91-59.829-5.239-59.829-5.239z" fill="#645e4a"/><path d="m229.482 176.873 17.006 1.337c18.881 2.278 49.3 8.406 69.11 24.826a39.715 39.715 0 0 1 10.823 46.7 85.556 85.556 0 0 1 -9.314 16.074l-26.433 23.99a125.244 125.244 0 0 1 -36.374 14.563q-.825.2-1.651.386l-29.8 3.734a171.329 171.329 0 0 1 -19.26-.534 265.567 265.567 0 0 1 -28.221-3.863l.131-15.807c9.261.418 19.446.5 30.512.089a127.307 127.307 0 0 0 16.989-1.774c9.021.307 16.724-1.638 22.835-6.3q3.992-1.543 7.872-3.387a90.138 90.138 0 0 0 19.523-12.262s9.036-7.748 10.675-12.1a43.079 43.079 0 0 0 3.231-6.423 32.384 32.384 0 0 0 2.664-13.6l-27.477-11.958z" fill="#bed876"/><path d="m298.041 230.765a21.3 21.3 0 0 0 -8.888-16.457 53.2 53.2 0 0 0 -14.4-7.373 22.466 22.466 0 0 1 -11.5-8.829 112.633 112.633 0 0 0 -16.771-19.895c-10.178-1.228-17.006-1.339-17.006-1.339l21.484 28.582 11.356 15.108 27.391 12.587a36.918 36.918 0 0 1 -2.578 12.968 15.519 15.519 0 0 0 6.172-3.768 15.742 15.742 0 0 0 4.735-11.53z" fill="#79755b"/><g fill="#7f7d54"><path d="m315.6 203.036a91.99 91.99 0 0 0 -24.612-14.082 49.717 49.717 0 0 0 -15.047 18.405l-3.733 15.741 2.6 1.344 12.637 3.944 9.119-4.644a47.079 47.079 0 0 1 27.536-10.879 39.275 39.275 0 0 0 -8.5-9.829z"/><path d="m317.1 265.8c-6.85-10.556-23.814-12.838-33.2-13.264a52.125 52.125 0 0 1 -10.68 12.1c12.3 6.459 16.208 18.287 17.443 25.144a91.747 91.747 0 0 0 26.437-23.98z"/><path d="m222.844 308.482a154.712 154.712 0 0 0 29.8-3.741c-.4-12.339-4.2-20.348-6.814-24.454a120.033 120.033 0 0 1 -22.834 6.3 76.858 76.858 0 0 1 -.152 21.895z"/><path d="m175.364 304.081a34.635 34.635 0 0 0 .13-15.807 279.4 279.4 0 0 1 -51.847-6.842 2.117 2.117 0 0 0 -1.544 3.893c16.692 9.696 35.947 15.4 53.261 18.756z"/></g><path d="m72.609 123.785-14.589 25.042a48.259 48.259 0 0 0 -5.745 15.406c-1.284 6.848-2.986 17.219-4.077 28.9a19.344 19.344 0 0 1 -9.313.576 13.8 13.8 0 0 0 -8.891 1.476 17.667 17.667 0 0 0 -5.811 5.19 1.476 1.476 0 0 0 1.243 2.323c3.311-.088 8.909.047 12.786 1.638a27.948 27.948 0 0 0 20.527 2.048 28.418 28.418 0 0 1 18.429 1.263 1.474 1.474 0 0 0 2-1.751c-1.336-4.594-5.224-12.763-15.99-12.763 0 0 2.519-8.955 4.541-16.637a21.485 21.485 0 0 1 6.747-10.8l20.613-17.777-8.369-21.582z" fill="#79755b"/><path d="m42.312 85.185a28.965 28.965 0 0 1 5.442 14.133 23.659 23.659 0 0 1 -.146 5.156c-.647 5.291-.964 23.006 23.583 24.028 0 0 13.476.482 19.733 5.776 0 0-19.493-42.114-48.612-49.093z" fill="#79755b"/><path d="m44.75 39.563a109.152 109.152 0 0 1 -28.29 13.31 8.787 8.787 0 0 0 -5.5 12.062 12.415 12.415 0 0 0 3.454 4.284l1.227 4.281a11.378 11.378 0 0 0 9.346 6.99s16.339 2.63 34.623 19.084c5.039 2.622 9.1 5.927 10.585 11.014q2.786 3.333 5.533 7.161a106.231 106.231 0 0 1 15.551 32.828c5.467 19.243 25.522 62.784 95.31 64.976h62.949l-37.732-34.967a85.864 85.864 0 0 1 -21.012-29.829q-.345-.825-.682-1.676c-9.395-23.724-44.863-49.092-64.124-61.541a31.324 31.324 0 0 0 -10.388-13.894s-15.973-13.439-25.081-24.546a15.269 15.269 0 0 0 -9.464-5.4c-6.126-.959-15.637-2.765-23-5.607a14.519 14.519 0 0 0 -13.305 1.47z" fill="#bed876"/><path d="m240.377 207.063 4.4-.488-41.1-28.436s-6.036 12.3 2.934 19.586l.06.048a1.768 1.768 0 0 1 -1.631 3.053c-13.548-4.021-19.255-13.374-20.295-15.275-.058-.117-.123-.231-.182-.347a28.54 28.54 0 0 0 -3.506-5.285c-5.557-6.637-17.962-20.04-31.269-25.064l-21.333 1.7s-9.525 14.789 13.186 36.035a21.66 21.66 0 0 1 6.714 12.637 18.409 18.409 0 0 1 .156 3.954c7.731 2.586 26.331 5.572 26.331 5.572 28.7 4.148 74.7.8 74.7.8z" fill="#79755b"/><path d="m289.048 214.229a52.385 52.385 0 0 0 -13.105-6.869 56.553 56.553 0 0 0 -5.189 16.139l1.425 1.592 12.327 5.665 3.839 1.764a51.33 51.33 0 0 1 8.221-8.769 22.557 22.557 0 0 0 -7.518-9.522z" fill="#4f4738"/><path d="m222.728 196.435c-5.508.574-15.686.067-19.518-10.508 0 0-2.417-8.781 2.012-12.118 0 0 12.136 1.062 21.877 1.273a18.506 18.506 0 0 1 13.713 6.524 260.962 260.962 0 0 1 20.341 27.227 28.06 28.06 0 0 0 10.59 9.729c4.884 2.566 13.186 7.479 18.294 13.264a1.385 1.385 0 0 1 -1.052 2.3c-4.748-.038-14.462-.458-21.647-3.049a20.214 20.214 0 0 0 -12.212-.408c-6.617 1.817-16.733 3.61-24.521.614a2.17 2.17 0 0 1 -.238-3.975 59.467 59.467 0 0 1 15.766-5.1 68.542 68.542 0 0 0 -16.086-23.326 9.387 9.387 0 0 0 -7.319-2.447z" fill="#bed876"/><path d="m44.991 67.688a63.415 63.415 0 0 0 -30.574 1.531 14.982 14.982 0 0 0 1.225 4.281c9.2-3.17 21.379-3.8 29.136-3.822a1.009 1.009 0 0 0 .213-1.99z" fill="#79755b"/><path d="m134.278 93.054c-2.976-2.035-5.773-3.887-8.29-5.514 0 0 5.7 13.752-8.628 15.367 0 0-14.8 1.728-24.257 3.83a1.245 1.245 0 0 0 .307 2.469 123.558 123.558 0 0 1 16.009-.5 16.618 16.618 0 0 1 -5.84 9.033 11.4 11.4 0 0 0 -1.63 1.366c-1.173 1.243-3.178 3.685-3.647 6.283a1.8 1.8 0 0 0 3.222 1.49 19.558 19.558 0 0 1 7.1-6.365c5.19-2.773 7.053-6.589 7.673-9.494a1.651 1.651 0 0 1 1.934-1.306l.086.018c11.202 2.388 17.164-5.853 15.961-16.677z" fill="#79755b"/><path d="m45.844 50.548 8.892-3.09a1.319 1.319 0 0 1 1.758 1.284c-.089 2.033-.776 5.123-3.985 6.1a6.672 6.672 0 0 1 -7.209-2.152 1.326 1.326 0 0 1 .544-2.142z" fill="#645e4a"/><path d="m59.605 99.579a107.793 107.793 0 0 1 10.58 11.021c3.165-.31 8.333-1.024 11.966-4.7 9.213-9.325 4.385-19.766 1.882-23.822a6.644 6.644 0 0 1 -.851-4.814c1.62-8.094-.425-13.5-2.425-16.609a2.078 2.078 0 0 0 -1.767-.986 2.169 2.169 0 0 0 -1.7.836 2.106 2.106 0 0 0 -.358 1.836c.81 3.111 1.042 7.783-1.581 13.613-.464-.037-1.059-.069-1.761-.069-3.288 0-7.936.669-11.4 3.854a2.555 2.555 0 0 0 -.673 2.858 2.66 2.66 0 0 0 2.483 1.711 2.858 2.858 0 0 0 .607-.067 11.284 11.284 0 0 1 2.458-.29 7.892 7.892 0 0 1 3.182.654l-4.447 7.032z" fill="#79755b"/><path d="m58.869 98.918s9.269 11.4 19.135.98a11.842 11.842 0 0 0 3.382-7.155c.882-9.289-9.449-15.715-17.524-11.038a20.352 20.352 0 0 0 -3.115 2.244c-6.547 5.679-1.878 14.969-1.878 14.969z" fill="#bed876"/><path d="m143.205 150.544a10.3 10.3 0 0 0 -15.158 10.046 31.34 31.34 0 0 0 9.973 19.9l11.462 10.545a21.876 21.876 0 0 1 6.72 11.987 78.951 78.951 0 0 1 .3 27.074s-16.178-10.5-26.908 8.606a1.6 1.6 0 0 0 1.809 2.314c4.606-1.176 12.856-2.459 19.263 1.076 0 0-3.037 5.567-2.179 16.7a1.6 1.6 0 0 0 2.927.776 42.44 42.44 0 0 1 7.538-8.856 10.841 10.841 0 0 1 6.4-2.492c4.167-.225 12.289-1.383 17.937-6.749a4.47 4.47 0 0 1 5.865-.352 13.367 13.367 0 0 1 1.89 1.833 1.6 1.6 0 0 0 2.821-.915 27.544 27.544 0 0 0 -.922-8.278 6.083 6.083 0 0 0 -7.849-4.2 26.674 26.674 0 0 1 -10.438 1.513s4.81-20.309 3.756-37.638a19.611 19.611 0 0 0 -3.185-9.459c-5.285-8.154-17.804-25.707-32.022-33.431z" fill="#bed876"/></svg>