<?xml version="1.0" encoding="iso-8859-1"?>
<!-- Generator: Adobe Illustrator 19.0.0, SVG Export Plug-In . SVG Version: 6.00 Build 0)  -->
<svg version="1.1" id="Capa_1" xmlns="http://www.w3.org/2000/svg" xmlns:xlink="http://www.w3.org/1999/xlink" x="0px" y="0px"
	 viewBox="0 0 511.999 511.999" style="enable-background:new 0 0 511.999 511.999;" xml:space="preserve">
<path style="fill:#96695A;" d="M352,209.983c0,0-36.667,43.703-45.333,160.471l32.667,7.512
	c4.667-118.134,26.667-168.666,26.667-168.666L352,209.983z"/>
<path style="fill:#825A50;" d="M352,209.983c0,0-36.667,43.703-45.333,160.471l18.942,4.355
	c1.199-76.596,17.097-125.594,23.629-142.529c1.476-3.826,5.627-5.852,9.579-4.754l1.031,0.287
	c3.563-12.459,6.152-18.514,6.152-18.514L352,209.983z"/>
<path style="fill:#96695A;" d="M184.001,96.968l-11.375-4.125l-6.125,9.625c0,0,33.5,109.499,33.5,269.498h48
	C232.001,195.967,184.001,96.968,184.001,96.968z"/>
<path style="fill:#825A50;" d="M188.613,116.852l2.267-3.838c-4.231-10.558-6.88-16.046-6.88-16.046l-11.375-4.125l-6.125,9.625
	c0,0,33.5,109.499,33.5,269.498h23.07c-3.185-124.606-28.55-217.549-36.012-242.401
	C185.772,125.279,186.338,120.704,188.613,116.852z"/>
<path style="fill:#FFDC64;" d="M255.999,363.965c-87.782,0-164.738,35.166-207.998,87.975v7.968l415.997-0.004l0.019-7.939
	C420.762,399.14,343.795,363.965,255.999,363.965z"/>
<path style="fill:#FFC850;" d="M159.982,451.941c29.538-44.644,78.559-76.582,135.838-85.422
	c-12.972-1.617-26.246-2.553-39.82-2.553c-87.782,0-164.738,35.166-207.998,87.975v7.968l111.98-0.001V451.941z"/>
<path style="fill:#7FE1FF;" d="M463.999,459.905c-0.487,0.012-0.853,0.061-1.383,0.061c-7.359,0-10.375-1.164-14.93-2.922
	c-5.844-2.262-13.125-5.078-26.461-5.078c-13.328,0-20.609,2.816-26.453,5.078c-4.547,1.758-7.555,2.922-14.898,2.922
	s-10.344-1.16-14.891-2.922c-5.844-2.262-13.117-5.078-26.438-5.078s-20.602,2.816-26.445,5.078
	c-4.547,1.758-7.547,2.922-14.898,2.922c-7.344,0-10.344-1.16-14.891-2.922c-5.844-2.262-13.117-5.078-26.437-5.078
	c-13.328,0-20.602,2.816-26.445,5.078c-4.547,1.762-7.547,2.922-14.891,2.922s-10.344-1.16-14.891-2.922
	c-5.844-2.262-13.117-5.078-26.438-5.078s-20.594,2.816-26.445,5.082c-4.539,1.758-7.539,2.918-14.875,2.918
	c-7.328,0-10.32-1.16-14.859-2.918c-5.844-2.266-13.109-5.082-26.43-5.082s-20.594,2.816-26.445,5.082
	c-4.539,1.758-7.539,2.918-14.875,2.918c-0.492,0-0.827-0.046-1.281-0.056v8.124c0,14.215,14.273,24.054,27.53,18.924
	c0.061-0.023,0.121-0.047,0.181-0.07c4.547-1.762,7.547-2.922,14.891-2.922c7.336,0,10.328,1.16,14.867,2.918
	c5.844,2.266,13.109,5.082,26.422,5.082c13.32,0,20.586-2.816,26.43-5.078c4.547-1.762,7.547-2.922,14.891-2.922
	s10.344,1.16,14.891,2.922c5.844,2.262,13.117,5.078,26.438,5.078s20.594-2.816,26.438-5.078c4.547-1.758,7.547-2.922,14.898-2.922
	c7.344,0,10.344,1.16,14.891,2.922c5.844,2.262,13.117,5.078,26.438,5.078c13.321,0,20.602-2.816,26.445-5.078
	c4.547-1.758,7.547-2.922,14.898-2.922c7.344,0,10.344,1.16,14.891,2.922c5.844,2.262,13.117,5.078,26.438,5.078
	c13.321,0,20.602-2.816,26.445-5.078c4.547-1.758,7.555-2.922,14.906-2.922c7.359,0,10.375,1.164,14.93,2.922
	c0.104,0.04,0.208,0.081,0.313,0.121c13.257,5.127,27.531-4.711,27.531-18.924L463.999,459.905z"/>
<path style="fill:#00C3FF;" d="M462.616,475.965c-13.336,0-20.617-2.816-26.461-5.078c-4.555-1.758-7.57-2.922-14.93-2.922
	c-7.352,0-10.359,1.164-14.906,2.922c-5.844,2.262-13.125,5.078-26.445,5.078c-13.32,0-20.594-2.816-26.438-5.078
	c-4.547-1.762-7.547-2.922-14.891-2.922c-7.352,0-10.352,1.164-14.898,2.922c-5.844,2.262-13.125,5.078-26.445,5.078
	c-13.32,0-20.594-2.816-26.438-5.078c-4.547-1.762-7.547-2.922-14.891-2.922c-7.352,0-10.352,1.164-14.898,2.922
	c-5.844,2.262-13.117,5.078-26.438,5.078s-20.594-2.816-26.438-5.078c-4.547-1.762-7.547-2.922-14.891-2.922
	s-10.344,1.16-14.891,2.922c-5.844,2.262-13.109,5.078-26.43,5.078c-13.313,0-20.578-2.816-26.422-5.082
	c-4.539-1.758-7.531-2.918-14.867-2.918c-7.344,0-10.344,1.16-14.891,2.922c-5.844,2.262-13.109,5.078-26.43,5.078
	c-13.313,0-20.586-2.816-26.422-5.082c-3.172-1.227-5.453-2.113-8.953-2.574c-8.766-1.156-14.922-9.199-13.766-17.957
	c1.156-8.766,9.258-14.922,17.953-13.77c7.305,0.965,12.305,2.906,16.328,4.465c4.531,1.758,7.531,2.918,14.859,2.918
	c7.336,0,10.336-1.16,14.875-2.918c5.852-2.266,13.125-5.082,26.445-5.082s20.586,2.816,26.43,5.082
	c4.539,1.758,7.531,2.918,14.859,2.918c7.336,0,10.336-1.16,14.875-2.918c5.852-2.266,13.125-5.082,26.445-5.082
	s20.594,2.816,26.438,5.078c4.547,1.762,7.547,2.922,14.891,2.922s10.344-1.16,14.891-2.922c5.844-2.262,13.117-5.078,26.445-5.078
	c13.32,0,20.594,2.816,26.437,5.078c4.547,1.762,7.547,2.922,14.891,2.922c7.352,0,10.352-1.164,14.898-2.922
	c5.844-2.262,13.125-5.078,26.445-5.078s20.594,2.816,26.438,5.078c4.547,1.762,7.547,2.922,14.891,2.922s10.352-1.164,14.898-2.922
	c5.844-2.262,13.125-5.078,26.453-5.078c13.336,0,20.617,2.816,26.461,5.078c4.555,1.758,7.57,2.922,14.93,2.922
	s10.367-1.164,14.922-2.922c4.031-1.563,9.055-3.504,16.383-4.461c8.656-1.164,16.797,5.02,17.945,13.785
	c1.148,8.762-5.023,16.793-13.789,17.941c-3.523,0.461-5.82,1.352-9,2.582C483.225,473.153,475.944,475.965,462.616,475.965z"/>
<g>
	<path style="fill:#A0D755;" d="M251.834,94.301c0,0-75.966,3.558-75.81,3.301l-59.356,36.866
		c-0.669,29.902,13.965,46.309,23.713,53.889c3.631,2.823,8.923,0.628,9.547-3.929c2.474-18.081,8.8-59.722,24.756-86.812
		c29.438,11.392,61.029,40.391,74.188,53.202c3.257,3.171,8.698,1.744,9.936-2.63C262.139,136.421,265.034,115.109,251.834,94.301z"
		/>
	<path style="fill:#A0D755;" d="M183.743,50.226c-8.299-16.025-23.817-31.085-34.422-27.434
		c-10.525,3.623-12.831,24.606-9.653,42.177l35.69,33.468L183.743,50.226z"/>
</g>
<path style="fill:#B4E66E;" d="M306.014,92.921c-14.717-19.986-56.148-61.021-119.85-4.734c-0.853,0.753-2.228-0.043-1.825-1.107
	c7.054-18.646,28.109-40.985,66.591-56.658c3.139-1.278,2.844-5.86-0.443-6.687c-23.954-6.026-83.9-13.315-80.513,54.542
	c0.104,2.074-2.563,3.027-3.766,1.334c-38.891-54.724-80.931-13.225-96.041,6.19c-2.082,2.675,0.506,6.467,3.767,5.543
	c35.957-10.192,69.451-3.763,84.436,3.502c1.071,0.519,0.534,2.087-0.655,2.033c-82.21-3.706-89.429,53.143-88.729,77.656
	c0.134,4.678,5.582,7.132,9.19,4.151c17.214-14.22,57.369-47.389,80.302-66.332c10.873-8.981,24.618-13.707,38.715-13.322
	l104.092,2.84C305.976,101.999,308.797,96.7,306.014,92.921z"/>
<path style="fill:#A0D755;" d="M362,206.967c-45.209-46.362-75.422-5.844-84.52,9.557c-1.317,2.229,0.51,4.986,3.085,4.716
	l68.732-7.209c6.392-0.67,12.779,1.304,17.678,5.464l53.62,45.534c1.963,1.667,5.011,0.447,5.206-2.121
	C427.146,245.148,425.595,194.572,362,206.967z"/>
<path style="fill:#B4E66E;" d="M425.077,196.461c-10.005-13.487-35.04-39.192-59.148,0.147c-0.836,1.364-2.939,0.724-2.872-0.875
	c1.93-46.199-32.67-39.2-48.298-33.732c-2.643,0.925-2.721,4.597-0.122,5.639c24.237,9.714,33.354,25.262,37.936,34.659
	c1.209,2.479,3.199,4.445,5.699,5.612l0,0c3.296,1.538,7.116,1.549,10.352-0.109c10.011-5.13,28.395-12.188,53.412-6.6
	C424.762,201.811,426.741,198.704,425.077,196.461z"/>
<g>
</g>
<g>
</g>
<g>
</g>
<g>
</g>
<g>
</g>
<g>
</g>
<g>
</g>
<g>
</g>
<g>
</g>
<g>
</g>
<g>
</g>
<g>
</g>
<g>
</g>
<g>
</g>
<g>
</g>
</svg>
