<svg id="Capa_1" enable-background="new 0 0 496.27 496.27" height="512" viewBox="0 0 496.27 496.27" width="512" xmlns="http://www.w3.org/2000/svg"><g><path d="m338.566 236.671-18.92-.361-25.38 24.13-24.072 19.313-11.308 194.941 36.14 20.065c1.13-.59 2.17-1.34 3.1-2.25l132.7-129.21 6.73-27.638z" fill="#7bacdf"/><g><path d="m261.666 472.706c-1.92 0-3.839-.732-5.304-2.197-2.929-2.929-2.929-7.678.001-10.606l32.604-32.599 106.521-103.729c.089-.086.179-.17.271-.252l14.747-13.007c3.106-2.738 7.847-2.441 10.586.664 2.739 3.106 2.442 7.846-.664 10.586l-14.608 12.885-106.318 103.529-32.533 32.529c-1.465 1.464-3.384 2.197-5.303 2.197z" fill="#5f99d7"/></g><path d="m294.266 260.44v232.72l.76 1.6c1.13-.59 2.17-1.34 3.1-2.25l21.14-20.584v-235.255z" fill="#5f99d7"/><path d="m294.266 443.215 5.236-5.235 19.764-19.246v-20.936l-25 24.344z" fill="#5f99d7"/><path d="m282.746 0h-190.38c-6.37 0-11.53 5.16-11.53 11.53v47.13l18.518 20.371h176.083l18.828-20.371v-47.13c.001-6.37-5.159-11.53-11.519-11.53z" fill="#98bce5"/><path d="m170.927 38.66c-7.61 0-13.779-6.169-13.779-13.779v-13.351c0-6.37 5.16-11.53 11.53-11.53h-76.312c-6.368 0-11.53 5.162-11.53 11.53v47.13l18.518 20.371h176.083l18.828-20.371v-20z" fill="#7bacdf"/><path d="m294.266 493.16.76 1.6c-1.88.98-3.99 1.51-6.15 1.51h-178.62c-5.34 0-9.91-3.82-10.86-9.08l-56.08-312.65c-.61-3.39-.34-6.88.79-10.14l36.73-105.74h213.43z" fill="#7bacdf"/><g><g id="XMLID_669_"><g><path d="m294.266 84.019v-25.359h-213.43l-36.73 105.74c-1.13 3.26-1.4 6.75-.79 10.14l56.08 312.65c.95 5.26 5.52 9.08 10.86 9.08h71.373l-41.01-228.634c-.403-2.245 1.919-3.994 3.966-2.989l18.655 9.166c3.951 1.951 8.369 2.982 12.777 2.982 4.396 0 8.808-1.026 12.751-2.966l47.825-23.502c9.957-4.897 16.143-14.836 16.143-25.938v-105.879c0-15.961-12.939-28.9-28.9-28.9h-31.309c-3.602 0-3.763-5.418-.164-5.56.517-.02 1.036-.031 1.556-.031z" fill="#5f99d7"/><path d="m224.22 124.168h-93.666l-11.258 17.932v82.29c0 3.39 1.93 6.49 4.97 7.99l47.83 23.5c2.47 1.22 5.37 1.22 7.85 0l47.82-23.5c3.05-1.5 4.97-4.6 4.97-7.99v-82.29z" fill="#98bce5"/><g fill="#7bacdf"><path d="m173.982 232.38c-3.04-1.5-4.97-4.6-4.97-7.99v-82.29l11.258-17.932h-49.716l-11.258 17.932v82.29c0 3.39 1.93 6.49 4.97 7.99l47.83 23.5c2.47 1.22 5.37 1.22 7.85 0l20.931-10.286z"/><path d="m232.736 118.51v23.59h-113.44v-23.59c0-4.92 3.98-8.9 8.9-8.9h95.65c4.91 0 8.89 3.98 8.89 8.9z"/><path d="m177.912 109.61h-49.716c-4.92 0-8.9 3.98-8.9 8.9v23.59h49.716v-23.59c0-4.92 3.98-8.9 8.9-8.9z"/></g></g></g><path d="m251.386 262.116c-4.143 0-7.5 3.357-7.5 7.5v226.654h15v-226.654c0-4.143-3.357-7.5-7.5-7.5z" fill="#5f99d7"/><g id="XMLID_667_"><g><g id="XMLID_672_"><g><path d="m450.786 330.59c3.52 4.01 3.27 10.08-.55 13.81l-19.41 18.9-.65-.67-109.89-125.65-.64-.67 18.94-18.01c4.14-3.93 10.72-3.63 14.48.67z" fill="#d5e3f4"/></g></g></g></g></g></g></svg>