<svg id="Capa_1" enable-background="new 0 0 512 512" height="512" viewBox="0 0 512 512" width="512" xmlns="http://www.w3.org/2000/svg"><g><path d="m427.717 170.038c-3.77-2.835-5.24-7.743-3.6-12.166 1.433-3.866 2.216-8.047 2.216-12.412 0-8.301-2.833-15.94-7.584-22.004-3.019-3.854-3.019-9.208 0-13.061 4.751-6.064 7.584-13.703 7.584-22.004 0-11.853-5.776-22.353-14.666-28.847-6.874-5.022-14.318-12.837-19.869-22.115-14.358-23.997-42.013-49.805-91.028-30.901-4.707 1.815-9.939 1.815-14.646 0-.123-.047-.243-.09-.366-.137h-6.513l-29.403 23.482-19.832 26.013-18.028 21.892 15.321 45.679v38.539l-27.426 18.543-5.408 31.163 4.636 20.089 16.548 8.834c6.065-5.229 10.887-11.926 13.669-19.338l127.75-1.384c5.877 17.441 23.051 31.272 41.528 31.984 25.947.999 47.296-19.739 47.296-45.464-.001-14.877-7.14-28.084-18.179-36.385z" fill="#ccc6ce"/><path d="m442.712 316.026c-2.839-1.099-34.324-13.293-61.931-23.984l-13.454 4.393-43.827 28.691h-63.357l-41.61-33.27h-13.496l-9.659 3.772-12.414 6.73-17.342 24.54-1.717 8.426v70.225s-.532.033-1.432.078l4.08 30.498 48.176 75.875h204.578l6.954-10.3v-122.077l35.049-39.791v-11.505c-5.581-5.33-11.913-9.549-18.598-12.301z" fill="#7b6c79"/><path d="m195.379 295.628-52.229 20.398c-5.874 2.418-12.425 6.616-18.508 12.405v9.211l34.285 41.465 2.884 21.558c2.387-.701 3.812-1.126 3.812-1.126s0-23.952 0-57.304c0-20.037 16.545-36.585 29.756-46.607z" fill="#665e68"/><g><path d="m200.156 206.421c0-14.876 7.139-28.082 18.178-36.384 3.77-2.835 5.24-7.743 3.6-12.166-1.433-3.866-2.216-8.047-2.216-12.412 0-8.301 2.833-15.94 7.584-22.004 3.019-3.854 3.019-9.208 0-13.061-4.751-6.064-7.584-13.703-7.584-22.004 0-11.853 5.776-22.353 14.666-28.847 6.874-5.022 14.318-12.837 19.869-22.115 7.014-11.722 17.203-23.874 31.503-31.037-48.786-18.633-76.341 7.101-90.663 31.037-5.502 9.195-12.927 17.043-19.869 22.115-8.89 6.494-14.666 16.994-14.666 28.847 0 8.301 2.833 15.94 7.584 22.004 3.019 3.854 3.019 9.208 0 13.061-4.751 6.064-7.584 13.703-7.584 22.004 0 4.373.786 8.561 2.224 12.433 1.641 4.417.157 9.312-3.608 12.144-7.082 5.326-12.545 12.677-15.562 21.186l4.239 4.511h22.407v47.646l6.536 7.498c3.686.801 7.537 1.16 11.497 1.008 10.041-.387 19.694-4.651 27.36-11.261-9.497-8.339-15.495-20.57-15.495-34.203z" fill="#b7aeb8"/></g><path d="m338.802 275.785c-2.85-1.102-4.744-3.844-4.753-6.916l-.02-30.467c-11.521 7.539-25.271 11.941-40.038 11.941-1.34 0-2.661-.042-3.973-.102v60.016h30.305l18.543-21.978.871-12.132c-.426-.165-.751-.291-.935-.362z" fill="#ffcebe"/><path d="m292.858 250.323c-15.809-.205-29.71-4.671-41.09-12.031l.001 30.531c0 3.063-1.473 4.868-3.169 6.019l-2.615 1.021v6.749l16.82 27.644h30.053z" fill="#ffb1a0"/><path d="m151.012 355.375-26.37-26.954c-1.434 1.364-2.842 2.818-4.209 4.357l-3.573 3.527v48.469l-13.927 14.568v36.784l6.373 5.137h45.843l11.405-5.137v-42.64c.001-14.247-5.578-27.927-15.542-38.111z" fill="#544e55"/><path d="m469.526 512c7.401 0 13.402-6 13.402-13.402 0-4.51 0-115.693 0-120.192 0-19.806-8.832-37.871-21.618-50.079l-26.461 27.048c-9.963 10.184-15.542 23.865-15.542 38.112v118.513z" fill="#665e68"/><path d="m120.434 381.842v-127.387h-35v127.387c0 9.665 7.835 17.5 17.5 17.5s17.5-7.835 17.5-17.5z" fill="#bd7b62"/><path d="m187.159 436.126h-58.123l-4.393 1.016-8.382 6.61-4.035 10.559v28.599h96.285v-25.433c-.001-11.792-9.56-21.351-21.352-21.351z" fill="#bd7b62"/><path d="m134.896 436.126h-64.2c-11.792 0-21.352 9.559-21.352 21.352v25.433h64.199v-25.433c.001-11.793 9.56-21.352 21.353-21.352z" fill="#ad6a50"/><path d="m352.82 465.395-37.518-123.068-23.088-2.326-17.799 142.313c6.661.78 13.506 1.197 20.531 1.205 18.96.022 37.15-3.481 53.967-9.879 3.289-1.252 4.991-4.897 3.907-8.245z" fill="#dbedff"/><path d="m270.564 342.293-37.47 122.927c-1.108 3.421.714 7.076 4.091 8.311 8.824 3.228 18.127 5.733 27.867 7.428l15.266-13.256 13.344-120.955-4.549-6.743z" fill="#b5dcff"/><path d="m315.829 440.319c-.525-4.235-4.387-7.246-8.618-6.717-4.235.525-7.242 4.383-6.718 8.618l5.072 40.941c5.187-.357 10.303-.986 15.341-1.856z" fill="#8bcaff"/><path d="m265.052 480.96c4.996.869 10.109 1.521 15.329 1.951l5.042-40.691c.525-4.235-2.483-8.093-6.718-8.618-4.234-.527-8.093 2.483-8.618 6.717z" fill="#8bcaff"/><path d="m335.476 310.257-12.207-6.755c-9.007 4.012-18.946 6.243-29.379 6.231-.348-.001-.686-.022-1.032-.026l-1.38 1.838v33.996l1.38 1.196c.269.004.534.013.804.013 19.606.023 36.931-10.337 46.948-25.808z" fill="#b5dcff"/><path d="m292.858 309.706c-11.043-.144-21.163-2.348-30.134-6.184l-11.337 5.017-6.281 12.574c9.597 14.885 26.4 25.341 47.752 25.623z" fill="#8bcaff"/><path d="m205.038 291.856 27.706 27.707c3.969 3.97 10.406 3.97 14.375 0l14.094-14.094c3.97-3.97 3.97-10.405 0-14.375l-15.229-15.229z" fill="#938493"/><path d="m338.885 319.563c3.969 3.97 10.406 3.97 14.375 0l27.521-27.521c-19.227-7.446-36.561-14.159-41.043-15.895l-14.947 14.947c-3.97 3.97-3.97 10.405 0 14.375z" fill="#938493"/><path d="m218.213 477h-178.577c-5.834 0-10.564 4.729-10.564 10.564v13.872c0 5.834 4.73 10.564 10.564 10.564h178.577c5.834 0 10.564-4.729 10.564-10.564v-13.872c0-5.834-4.73-10.564-10.564-10.564z" fill="#ffe559"/><path d="m31.312 226.64 4.636 2.962h32.58v-33.61l-6.002-4.768h-22.96c-5.796 0-10.494 4.698-10.494 10.494v19.939z" fill="#fbc700"/><path d="m39.566 228.54c-5.796 0-10.494-4.698-10.494-10.494v37.316c0 5.796 4.698 10.494 10.494 10.494h22.96l6.002-2.901v-37.316l-6.002 2.901z" fill="#eab900"/><path d="m141.457 229.601h28.287l4.893-3.391 2.158-4.188v-20.305c0-5.796-4.698-10.494-10.494-10.494h-22.96l-1.885 1.763v36.615z" fill="#fbc700"/><path d="m166.301 228.54h-22.96l-1.884-2.644v37.316l1.884 2.644h22.96c5.796 0 10.494-4.698 10.494-10.494v-37.316c0 5.795-4.698 10.494-10.494 10.494z" fill="#eab900"/><path d="m62.526 191.224h80.816v38.378h-80.816z" fill="#ffe559"/><path d="m62.526 228.54h80.816v37.316h-80.816z" fill="#ffd500"/><path d="m363.975 114.528c-22.557.481-41.799-7.32-54.564-14.455-9.908-5.538-21.964-5.578-31.869-.034-2.743 1.536-5.804 3.099-9.117 4.608l-2.873 5.581v97.353l17.771 28.588 26.721 14.616 3.863 1.136 4.135.293c28.616-10.153 49.286-37.787 49.286-69.723v-64.7c0-.012 0-.023 0-.034-.003-1.819-1.537-3.267-3.353-3.229z" fill="#ffdecf"/><path d="m268.425 183.034v-78.387c-12.326 5.615-28.358 10.434-46.503 9.853-1.829-.059-3.384 1.394-3.388 3.224v.066 65.244c0 38.299 29.987 73.282 75.356 73.335 8.453.01 16.577-1.469 24.151-4.156-30.616-10.348-49.616-38.703-49.616-69.179z" fill="#ffcebe"/><path d="m218.213 477h-117.445l-2.558.555-4.25 3.992-1.841 3.992v18.543l3.193 5.344 3.638 1.964 2.742.609h116.52c5.834 0 10.564-4.729 10.564-10.564v-13.872c.001-5.833-4.729-10.563-10.563-10.563z" fill="#ffe559"/><path d="m93.271 501.436v-13.872c0-5.834 4.73-10.564 10.564-10.564h-64.199c-5.834 0-10.563 4.73-10.563 10.564v13.872c0 5.834 4.73 10.564 10.563 10.564h64.199c-5.834 0-10.564-4.729-10.564-10.564z" fill="#ffd500"/></g></svg>