<svg height="512pt" viewBox="0 0 512 512" width="512pt" xmlns="http://www.w3.org/2000/svg"><path d="m512 256c0 26.644531-4.074219 52.328125-11.640625 76.476562v.011719c-4.542969 14.59375-10.386719 28.640625-17.355469 41.972657-6.570312 12.570312-14.148437 24.511718-22.632812 35.746093-20.929688 27.667969-47.332032 50.96875-77.613282 68.25-12.257812 7.003907-25.152343 13.019531-38.570312 17.941407-9.863281 3.617187-20.007812 6.648437-30.394531 9.039062-2.109375.492188-4.242188.953125-6.375 1.390625-2.253907.460937-4.535157.898437-6.8125 1.296875-3.667969.644531-7.367188 1.210938-11.085938 1.691406-2.214843.304688-4.429687.5625-6.664062.792969-8.382813.878906-16.886719 1.347656-25.496094 1.378906-.21875.011719-.449219.011719-.667969.011719h-.691406c-12.289062 0-24.367188-.867188-36.183594-2.539062-13.742187-1.945313-27.136718-4.972657-40.074218-9.007813-2.527344-.792969-5.046876-1.617187-7.542969-2.484375-5.433594-1.882812-10.785157-3.941406-16.039063-6.167969-17.324218-7.34375-33.667968-16.539062-48.785156-27.34375-.929688-.65625-1.859375-1.328125-2.78125-2.007812-2.226562-1.640625-4.429688-3.3125-6.601562-5.015625-7.910157-6.203125-15.445313-12.882813-22.570313-19.964844-7.285156-7.253906-14.136719-14.945312-20.511719-23.03125-34.386718-43.582031-54.910156-98.617188-54.910156-158.4375 0-38.871094 8.664062-75.714844 24.167969-108.710938 3.492187-7.429687 7.324219-14.660156 11.496093-21.671874 2.347657-3.980469 4.816407-7.886719 7.375-11.722657 3.742188-5.601562 7.703126-11.054687 11.871094-16.332031 15.023438-19.050781 32.695313-35.902344 52.464844-50.019531 6.664062-4.765625 13.5625-9.207031 20.675781-13.324219 7.105469-4.105469 14.421875-7.875 21.933594-11.292969.910156-.417969 1.820313-.835937 2.738281-1.234375 1.136719-.511718 2.289063-1.003906 3.4375-1.492187 7.679688-3.25 15.546875-6.144531 23.582032-8.652344 24.085937-7.503906 49.695312-11.546875 76.257812-11.546875.449219 0 .910156 0 1.359375.0117188 17.136719.0820312 33.875 1.8476562 50.058594 5.1601562 10.03125 2.046875 19.855469 4.671875 29.414062 7.867187 2.46875.816407 4.921875 1.671876 7.355469 2.5625 5.738281 2.097657 11.371094 4.398438 16.910156 6.894532 7.007813 3.15625 13.855469 6.636718 20.507813 10.398437.386719.207031.765625.425781 1.152343.648438 9.488282 5.410156 18.597657 11.417969 27.269532 17.960937 2.019531 1.523438 4.011718 3.070313 5.976562 4.648438 4.359375 3.492187 8.589844 7.125 12.707032 10.886718 11.191406 10.230469 21.460937 21.441407 30.6875 33.492188.324218.417969.648437.84375.972656 1.273438 8.410156 11.128906 15.933594 22.957031 22.457031 35.402343 18.628906 35.492188 29.171875 75.921875 29.171875 118.792969zm0 0" fill="#142f01"/><g fill="#358d1e"><path d="m381.605469 32.894531-114.121094 336.140625-12.875 37.941406-34.792969 102.484376c-13.742187-1.945313-27.136718-4.972657-40.074218-9.007813-2.527344-.792969-5.046876-1.617187-7.542969-2.484375l56.65625-166.863281 12.871093-37.9375 95.105469-280.128907c2.46875.816407 4.921875 1.671876 7.355469 2.5625 13 4.761719 25.507812 10.550782 37.417969 17.292969zm0 0"/><path d="m313.792969 505.4375c-2.109375.492188-4.242188.953125-6.375 1.390625-2.253907.460937-4.535157.898437-6.8125 1.296875-3.667969.644531-7.367188 1.210938-11.085938 1.691406l-34.910156-102.839844-25.753906-75.871093-100.804688-296.886719c7.105469-4.105469 14.421875-7.875 21.933594-11.292969l91.742187 270.242188 25.757813 75.867187zm0 0"/><path d="m500.359375 332.476562v.011719c-4.542969 14.59375-10.386719 28.640625-17.355469 41.972657l-54.292968-307.421876c11.191406 10.230469 21.460937 21.441407 30.6875 33.492188zm0 0"/><path d="m104.59375 462.449219c-2.226562-1.640625-4.429688-3.3125-6.601562-5.015625-7.910157-6.203125-15.445313-12.882813-22.570313-19.964844l-51.253906-290.179688c5.464843-11.640624 11.785156-22.789062 18.871093-33.394531zm0 0"/></g><path d="m344.1875 15.601562v480.796876c-11.867188 4.359374-24.144531 7.859374-36.769531 10.429687v-501.65625c12.625 2.570313 24.902343 6.070313 36.769531 10.429687zm0 0" fill="#156000"/><path d="m460.371094 101.804688v308.402343c-20.929688 27.667969-47.332032 50.96875-77.613282 68.25v-444.914062c30.289063 17.28125 56.695313 40.582031 77.613282 68.261719zm0 0" fill="#156000"/><path d="m54.910156 97.5625v316.875c-34.386718-43.582031-54.910156-98.617188-54.910156-158.4375s20.523438-114.855469 54.910156-158.4375zm0 0" fill="#156000"/><path d="m156.160156 20.199219v471.601562c-17.324218-7.34375-33.667968-16.539062-48.785156-27.34375v-416.914062c15.117188-10.804688 31.460938-20 48.785156-27.34375zm0 0" fill="#156000"/><path d="m257.359375.0117188v511.9765622c-.21875.011719-.449219.011719-.667969.011719h-.691406c-16.519531 0-32.683594-1.566406-48.335938-4.554688-9.507812-1.820312-18.820312-4.160156-27.921874-6.992187v-488.90625c9.089843-2.832031 18.414062-5.171875 27.921874-6.992187 15.652344-2.988282 31.804688-4.554688 48.335938-4.554688.449219 0 .910156 0 1.359375.0117188zm0 0" fill="#286d12"/><path d="m207.664062 4.554688v502.890624c-9.507812-1.820312-18.820312-4.160156-27.921874-6.992187v-488.90625c9.089843-2.832031 18.414062-5.171875 27.921874-6.992187zm0 0" fill="#156000"/><path d="m374.117188 342.214844c-3.710938-6.9375-13.960938-5.964844-16.144532 1.578125-1.914062 6.582031-4.566406 12.988281-8.191406 19.007812-25.277344 41.753907-56.71875 17.363281-34.160156-12.769531 13.019531-17.355469 14.359375-38.410156 13.167968-53.132812-.472656-5.582032-3.605468-10.554688-8.328124-13.511719-5.265626-3.300781-10.847657-6.320313-16.75-9.007813-2.832032-1.285156-5.613282-2.496094-8.308594-3.644531-5.171875-2.183594-10.511719 2.589844-9.046875 8.003906 5.378906 19.800781-2.625 36.308594-11.746094 47.769531-4.804687 6.019532-14.417969 2.027344-13.542969-5.609374 3.4375-29.601563-6.277344-50.867188-12.671875-61.242188-1.964843-3.195312-5.140625-5.453125-8.820312-6.226562l-.125-.019532c-3.792969-.785156-7.460938 1.859375-7.921875 5.714844-1.261719 10.761719-5.566406 19.265625-10.699219 25.796875-5.851563 7.429687-17.636719 2.289063-16.164063-7.050781 1.203126-7.753906 1.671876-16.21875.175782-23.679688-.949219-4.753906-4.574219-8.460937-9.246094-9.738281-9.488281-2.582031-18.890625-6.082031-28.871094-11.628906-5.652344-3.144531-11.972656-3.101563-17.261718-.792969v-.023438c-6.070313 2.644532-10.792969 8.308594-11.628907 15.675782-2.714843 23.800781-11.242187 40.289062-20.742187 60.625-2.621094 5.933594-1.753906 12.453125 1.445312 18.671875 5.335938 10.375 17.144532 19.957031 30.175782 24.890625 6.875 2.609375 7.554687 12.023437 1.085937 15.527344-11.859375 6.414062-28.378906 10.4375-43.1875-3.566407-3.675781-3.46875-9.769531-1.710937-11 3.199219-1.277344 5.109375-2.488281 10.511719-3.617187 16.269531-1.503907 7.691407-2.328126 15.285157-2.582032 22.734375.230469 4.945313 1.609375 9.875 3.941406 14.410156 8.265626 16.070313 28.398438 27.105469 50.96875 15.496094 28.976563-14.898437 41.066407-55.222656 60.929688-31.347656 18.160156 21.851562-60.90625 73.917969-101.167969 50.847656l-.125-.054687c-2.382812-1.378907-5.089843-.113281-5.964843 2.046875 43.519531 34.179687 98.375 54.566406 158.007812 54.566406h.691406c2.894532-6.007812 5.210938-12.371094 6.800782-18.933594.929687-3.855468 2.777343-7.199218 5.265624-9.882812 2.183594-2.394532 4.890626-4.265625 7.867188-5.464844.0625-.03125.136719-.042969.199219-.074219 1.890625-.753906 3.886719-1.246093 5.945312-1.441406h.011719c3.425781-.335937 7 .132813 10.492188 1.546875 39.085937 15.722656 88.238281 3.949219 98.332031-27.566406 7.609375-23.71875 3.699219-68.097656-17.488281-107.96875zm-199.796876 18.347656c1.652344-14.210938 43.394532 5.046875 41.742188 19.246094 0 0-43.394531-5.046875-41.742188-19.246094zm27.886719 128.960938s34.148438-44.09375 39.289063-34.105469c5.132812 9.980469-24.054688 48.984375-39.289063 34.105469zm51.085938-99.546876s13.355469-41.578124 26.949219-37.21875c13.613281 4.355469-13.332032 41.597657-26.949219 37.21875zm104.847656 31.953126c-13.835937 19.757812-53.941406 27.742187-55.621094 12.195312 0 0 69.464844-31.933594 55.621094-12.195312zm0 0" fill="#5cae4a"/><path d="m300.605469 508.125c-5.851563 1.03125-11.765625 1.859375-17.75 2.484375-4.285157-9.800781-9.21875-19.296875-14.097657-27.425781-2.550781-4.222656-5.078124-8.078125-7.492187-11.414063l8.390625-13.164062c.324219.375.636719.742187.953125 1.128906 4.3125 5.128906 8.367187 10.699219 12.160156 16.46875h.011719c6.824219 10.386719 12.789062 21.449219 17.824219 31.921875zm0 0" fill="#358d1e"/><path d="m270.609375 459.734375c-32.132813-78.691406-120.101563-143.191406-121.148437-227.703125v-.023438c-6.070313 2.644532-10.792969 8.308594-11.628907 15.675782-2.714843 23.800781-11.242187 40.289062-20.742187 60.625-2.621094 5.933594-1.753906 12.453125 1.445312 18.671875 5.335938 10.375 17.144532 19.957031 30.175782 24.890625 6.875 2.609375 7.554687 12.023437 1.085937 15.527344-11.859375 6.414062-28.378906 10.4375-43.1875-3.566407-3.675781-3.46875-9.769531-1.710937-11 3.199219-1.277344 5.109375-2.488281 10.511719-3.617187 16.269531-1.503907 7.691407-2.328126 15.285157-2.582032 22.734375.230469 4.945313 1.609375 9.875 3.941406 14.410156 8.265626 16.070313 28.398438 27.105469 50.96875 15.496094 28.976563-14.898437 41.066407-55.222656 60.929688-31.347656 18.160156 21.851562-60.90625 73.917969-101.167969 50.847656l-.125-.054687c-2.382812-1.378907-5.089843-.113281-5.964843 2.046875 43.519531 34.179687 98.375 54.566406 158.007812 54.566406h.691406c2.894532-6.007812 5.210938-12.371094 6.800782-18.933594.929687-3.855468 2.777343-7.199218 5.265624-9.882812 2.183594-2.394532 4.890626-4.265625 7.867188-5.464844.0625-.03125.136719-.042969.199219-.074219-1.722657-6.0625-3.8125-12.027343-6.214844-17.910156zm-96.289063-99.171875c1.652344-14.210938 43.394532 5.046875 41.742188 19.246094 0 0-43.394531-5.046875-41.742188-19.246094zm27.886719 128.960938s34.148438-44.09375 39.289063-34.105469c5.132812 9.980469-24.054688 48.984375-39.289063 34.105469zm0 0" fill="#358d1e"/><path d="m482.828125 137.207031c-4.421875 2.296875-10.117187 1.386719-13.492187-2.824219-11.222657-13.988281-25.976563-23.863281-31.125-16.96875-5.476563 7.316407 5.035156 25.539063 12.191406 40.730469 2.320312 4.902344.648437 10.730469-3.863282 13.742188-3.574218 2.382812-7.191406 4.566406-10.847656 6.5625-5.464844 2.964843-12.371094.761719-14.996094-4.890625-5.628906-12.164063-16.164062-23.175782-21.898437-21.328125-7.324219 2.363281-1.933594 14.941406-.878906 28.589843.46875 6.089844-4.222657 11.429688-10.332031 11.648438-13.636719.492188-26.898438-2.183594-39.027344-8.410156-12.132813-6.21875-22.039063-15.421875-29.59375-26.789063-3.382813-5.089843-1.785156-12.019531 3.4375-15.183593 11.703125-7.105469 25.066406-10.0625 22.707031-17.386719-1.851563-5.746094-16.929687-7.871094-30.105469-5.363281-6.109375 1.171874-11.929687-3.144532-12.703125-9.320313-.511719-4.125-.847656-8.347656-1.003906-12.640625-.1875-5.425781 3.574219-10.179688 8.914063-11.160156 16.507812-3.039063 37.4375-5.128906 40.195312-13.84375 2.589844-8.214844-14.03125-14.429688-31.953125-15.394532-7.03125-.375-11.816406-7.25-9.800781-14 1.421875-4.753906 3.050781-9.496093 4.878906-14.242187 1.378906-3.542969 4.515625-6.144531 8.265625-6.769531 12.183594-2.027344 26.507813-.566406 39.300781.53125 7.007813 3.15625 13.855469 6.636718 20.507813 10.398437.386719.207031.765625.425781 1.152343.648438 16.570313 9.453125 31.972657 20.707031 45.953126 33.496093 11.191406 10.230469 21.460937 21.441407 30.6875 33.492188.324218.417969.648437.84375.972656 1.273438 8.410156 11.128906 15.933594 22.957031 22.457031 35.402343zm0 0" fill="#5cae4a"/><path d="m416.003906 56.152344-26.84375 44.285156 20.867188-48.933594c2.019531 1.523438 4.011718 3.070313 5.976562 4.648438zm0 0" fill="#358d1e"/><path d="m156.160156 54.480469c0 58.097656-31.066406 105.191406-69.382812 105.191406-20.226563 0-38.441406-13.125-51.113282-34.054687 2.347657-3.980469 4.816407-7.886719 7.375-11.722657 3.742188-5.601562 7.703126-11.054687 11.871094-16.332031 15.023438-19.050781 32.695313-35.902344 52.464844-50.019531 6.664062-4.765625 13.5625-9.207031 20.675781-13.324219 7.105469-4.105469 14.421875-7.875 21.933594-11.292969.910156-.417969 1.820313-.835937 2.738281-1.234375 2.234375 10.3125 3.4375 21.335938 3.4375 32.789063zm0 0" fill="#5cae4a"/></svg>