<svg id="Layer_1" enable-background="new 0 0 300 300" viewBox="0 0 300 300" xmlns="http://www.w3.org/2000/svg"><g><g><path d="m294.9 14.3c-4.5-.1-5.8-.4-16.3 7-11.3 7.9-17.3 18.1-19.3 22.7 1.2.5 7.4 4.4 10.3 6.6 0 0 0 0 0-.1.1.5.2 1 .4 1.4 12.2-2 18.2-17.3 21.1-27 1.1-3.5 1.9-6.2 2.8-7.7 1-1.2 1.3-2.3 1-2.9z" fill="#b86440"/></g><g><path d="m294 17.2s-2.2-.8-6.5 5c-6.7 8.9-14.7 17.1-17.9 28.4l1 1.3s9.8.1 16.5-16c4.9-12 6.9-18.7 6.9-18.7z" fill="#a55134"/></g><g><g><path d="m247.3 261.6s-5.6-2.8-3.1-4.5c-4.4-.7-9.2-1.3-13.6-1.9-10.3-1.4-19.9-2.7-23.1-3.9-1.3-.5-2.7-1.3-4-2.2-5.6-4-9-10.8-8.9-18.2 0-6.8 1.8-24.4 5.6-42.7l-25 12.2c-1.6 4-3.7 17.4-3.4 24 .2 3.7-.1 9.7 0 13.9.1 14.7.8 24.2 7.4 28.8l55.5-.1c.6-1.5 7.9-4.6 12.6-5.4z" fill="#b86440"/></g><g><path d="m262.2 261.6-.1-.1c-1.1-1.5-8.9-3-17.9-4.3-2.5 1.7-2.4 4.5-2.4 4.5-4.7.8-6.5 3.8-7.2 5.4h24.7c1.3 0 2.6-.8 3.2-2s.5-2.5-.3-3.5z" fill="#7f4a2e"/></g></g><g><g><path d="m274.8 63.1-2.1-6.8c-.6-1.8-1.3-3.4-2.3-5-2.3-4.9-11.2-8.7-11.5-8.9-2.5-.8-5-1.2-7.5-1.2-2.5 0-5 .4-7.3 1.2-7.1 1.2-13.9 12.5-14 12.6-2.5 3.4-5.6 9.9-6 21.2v.2c-.4 2.5-.7 4.6-.9 6.7-.9 9-3.1 11.5-7.3 13.3-.6.3-2.5.7-4.6 1.3-2.3.6-4.8 1.2-6.3 1.7-1.9.6-5.4 1.3-9.8 2-15.4 2.7-44.1 7.8-66.4 24.9-13.7 10.4-22.7 25.7-25.6 43.1-3.8 23.1-11.3 63.6-19.3 74.6-6.5 9.2-26.7 12.2-46.3 15.1-9.6 1.4-18.7 2.8-26.1 4.8-1.6.6-6 2.8-6.2 5.2-.1 1.1.7 2.1 2.4 3.1 1.4.8 3.3.6 7.6.1 4.9-.6 13-1.5 26.7-1.5h3.4c23.4 0 43.7 0 52.2-5.7 12.2-5.9 18.4-20.8 23.3-32.8 1.9-4.5 3.6-8.8 5.5-12.2 2.3-4 3.9-6.1 6-7.2l1.5-.9h1.1c1.9-.4 4.3-.4 7.5-.4 2.6 0 5.5-.2 8.5-.6h.1c.2 0 .4.1.4.3 4.5 15.9 6.7 48.5 5.1 61.3-.6 4.9.3 8.5 2.8 10.9 4.6 4.4 13.2 2.9 13.3 2.9h48.4c.6-2.4 9.6-6.1 13.9-6 0 0-7.1-2.1-6-3.9-4-.5-7.9-1-11.2-1.5-1 0-26.2-1.3-34.8-7.2-7-4.8-7.2-20.3-7.3-35.3 0-4.2-.1-8.1-.3-11.9-.3-6.8.9-12.1 2.5-16.2 0-.1 0-.1.1-.2.4-1 .8-1.9 1.3-2.7h.1l20.4-12.7c5.5-3.3 10.7-4.9 15.5-8.5 3.4-2.6 6.7-5.2 9.9-8l1-3-.1-.1c1.8.2 3.6 0 4.1.8.1 0 .2.1.3.2l.4.9v.1c2.1 5.6 3.3 10.1 3.3 10.2v.3c-.7 2.2-1.5 4.9-2 7.6.9-.1 2 1.5 3 .6 0 0 1.8 1.2 4.1-1.1 0 0 1.4-1.1 4-2.4v-.3c.4-6.1-.6-11.7-3.2-18.8-.4-1.1-.7-2.8-.9-5l.8-4.5c9.2-6.3 11.4-12.4 12.7-16.4 0-.1.1-.2.2-.3 4.1-11.7 7.5-29 7.7-29.9.3-1.6 1.6-5.1 2.5-8 1.2-.5 2.4-1.2 3.7-2.1 10.8-10.1 12.6-26.4 8-38z" fill="#d28052"/></g><g><path d="m221.1 286.5h25c1.3 0 2.6-.8 3.2-2s.5-2.5-.3-3.5l-.1-.1c-1.1-1.5-10.6-3.1-19.9-4.4-1.2 1.8-1.4 3.9-1.4 3.9-4.3-.1-5.9 3.7-6.5 6.1z" fill="#7f4a2e"/></g></g><g><path d="m239.1 187.1c-2.3 2.3-4.1 1.1-4.1 1.1-1 .8-2.1 1.1-3 1.2-.8 3.9-1.2 7.6-.1 8.5.1.1.5.4 1.6 0 .4-.2.8-.3 1.1-.5.1-.1.3-.1.4 0s.2.2.2.4c0 .4.8.7.8.7 1.6.1 1.9-.2 2.6-1.9.2-.5.4-1.1.6-1.8 0-.1.1-.2.2-.2l.1-.1c.1-.1.3-.2.4-.1.1 0 .3.1.3.2.1.2.2.3.3.4.2.1.3.1.5.1.6-.2 1.3-1 1.7-1.7.2-.4.3-.8.3-1.2v-5.4c-2.5 1.1-3.9.3-3.9.3z" fill="#7f4a2e"/></g><g><g><path d="m240 34.4c-1.7-7-13.2-20.7-23.1-21.1-.8 1.8-5.4 13.5 2.4 29 1.1 2.2 2.7 4.2 4.7 6 1.7 1.4 4.8 4.8 6.3 7.1.7-1.1 2.6-2.3 4.7-4.7l1.4-1c2.4-2.5 4.8-4.6 7.9-5.4-1.3-2.1-3.7-7.1-4.3-9.9z" fill="#d28052"/></g></g><g><circle cx="241.5" cy="68.2" fill="#5b361e" r="3.7"/></g><g><path d="m270.4 67.8c0 2-1.6 3.6-3.6 3.6s-3-1.6-3-3.6 1.1-3.6 3-3.6c2 .1 3.6 1.7 3.6 3.6z" fill="#5b361e"/></g><g><path d="m263.8 102.9s-3.5 1.5-9.3 1.1c-3.3-.3-5.9-1-9.4-3.2-3.2-2.1-8.7-6.3-9.6-7.2 0 0 7.5 11.4 8.8 17.2s3.1 10-.9 24c-2.4 8.6-5.8 16-5.8 16l1.3 11.6s13.7-4 20.5-38z" fill="#f8dfcd"/></g><g><path d="m224.1 158.8s-20.6 18-34.1 22.4c0 0-2.2 9.5-7.2 14.9 0 0-3.7 3.5-5.3 9.3 0 0 6.2-4.4 9.3-6s22.3-11 38.2-25.2l5-4.1z" fill="#f8dfcd"/></g><g><path d="m264.7 85.9c0-.1 0-.6-.4-1.1-.8-.9-2.5-1.5-5.1-1.6-2.5.1-4.2.7-5 1.6-.4.4-.4.8-.4 1-.1.4-.2 1.8 2 3.2s3 1.9 3.1 1.9l.2.2c.1 0 .1.1.2.1h.1c.1 0 .2 0 .2-.1l3.9-2.4c.5-.2 1.5-1.1 1.2-2.8z" fill="#5b361e"/></g><g><g><path d="m258.2 173c1.3-.1 4.3-1.1 6.3.5 0-.7.1-1.5 0-2.3-.3-10.8 1.5-23.6 1.5-23.7 4-12.7.4-24.2-2.4-33.5-.1-.4-1.9-4.9-2-5.2-1 5-3 17.3-6.4 27.1l2.2 12.7c1.2 5.1 2.3 9.8 2.3 9.9s0 .3-.1.4c0 0-2 2.9-3.7 10.7 0 .2-.1.4-.1.6.6.5 1.4 2.9 2.4 2.8z" fill="#d28052"/></g><g><path d="m254.3 179.8c2.3-.4 3.8-2.6 3.8-2.6.1-.2.4-.3.6-.2s.3.3.2.6c-.7 2.2-1.7 3.7-2.5 4.7-.3.3 0 .9.5.8 1.9-.3 3.8-.9 5.2-2.3 1.5-1.6 2.3-4 2.5-7.3-2-1.5-5-2.4-6.3-2.3-1.1.1-1.8-.5-2.3-1-1.2 5.6-1.9 6.5-3.5 8.6-.1 1.2.8 1.2 1.8 1z" fill="#7f4a2e"/></g></g><g><path d="m240.1 45.1s-1.4-4.3-6.8-14.2c-3.1-5.7-11.7-8.7-11.7-8.7s-3.6 4.5-1.3 11.3c2.3 6.9 12.7 17.1 12.7 17.1s3.9-4.3 7.1-5.5z" fill="#ab5d36"/></g></g></svg>