<?xml version="1.0" encoding="iso-8859-1"?>
<!-- Generator: Adobe Illustrator 19.0.0, SVG Export Plug-In . SVG Version: 6.00 Build 0)  -->
<svg version="1.1" id="Capa_1" xmlns="http://www.w3.org/2000/svg" xmlns:xlink="http://www.w3.org/1999/xlink" x="0px" y="0px"
	 viewBox="0 0 512 512" style="enable-background:new 0 0 512 512;" xml:space="preserve">
<g>
	<path style="fill:#86A9BF;" d="M42.672,479.571c-4.143,0-7.5-3.357-7.5-7.5v-26.829c0-10.86,8.834-19.695,19.691-19.695h41.45
		c4.143,0,7.5,3.357,7.5,7.5s-3.357,7.5-7.5,7.5h-41.45c-2.543,0-4.691,2.15-4.691,4.695v26.829
		C50.172,476.214,46.814,479.571,42.672,479.571z"/>
	<path style="fill:#86A9BF;" d="M123.135,479.571c-4.143,0-7.5-3.357-7.5-7.5v-26.829c0-10.86,8.834-19.695,19.692-19.695h41.45
		c4.143,0,7.5,3.357,7.5,7.5s-3.357,7.5-7.5,7.5h-41.45c-2.544,0-4.692,2.15-4.692,4.695v26.829
		C130.635,476.214,127.277,479.571,123.135,479.571z"/>
	<path style="fill:#86A9BF;" d="M259.681,479.571c-4.143,0-7.5-3.357-7.5-7.5v-26.829c0-2.545-2.147-4.695-4.689-4.695H206.04
		c-4.143,0-7.5-3.357-7.5-7.5s3.357-7.5,7.5-7.5h41.452c10.856,0,19.689,8.835,19.689,19.695v26.829
		C267.181,476.214,263.823,479.571,259.681,479.571z"/>
	<path style="fill:#86A9BF;" d="M335.271,479.571c-4.143,0-7.5-3.357-7.5-7.5v-26.829c0-2.545-2.148-4.695-4.692-4.695h-41.45
		c-4.142,0-7.5-3.357-7.5-7.5s3.358-7.5,7.5-7.5h41.45c10.858,0,19.692,8.835,19.692,19.695v26.829
		C342.771,476.214,339.413,479.571,335.271,479.571z"/>
</g>
<path style="fill:#3A5792;" d="M385.255,493.819c0,2.793-2.284,5.077-5.075,5.077H5.075c-2.791,0-5.075-2.284-5.075-5.077v-19.112
	c0-2.792,2.284-5.077,5.075-5.077H380.18c2.791,0,5.075,2.285,5.075,5.077V493.819z"/>
<g style="opacity:0.1;">
	<path style="fill:#1B003F;" d="M42.606,493.819v-19.112c0-2.792,2.283-5.077,5.075-5.077H5.075c-2.791,0-5.075,2.285-5.075,5.077
		v19.112c0,2.793,2.284,5.077,5.075,5.077h42.606C44.89,498.897,42.606,496.612,42.606,493.819z"/>
</g>
<path style="fill:#C1262C;" d="M451.242,293.671l-28.454-28.461c-1.185-1.184-3.344-1.475-4.8-0.647l-62.013,35.31
	c4.704,15.591,7.245,32.112,7.245,49.218v36.929l88.021-88.042C452.427,296.794,452.427,294.854,451.242,293.671z"/>
<g style="opacity:0.1;">
	<path style="fill:#1B003F;" d="M422.788,265.21c-1.185-1.184-3.344-1.475-4.8-0.647l-62.013,35.31
		c2.671,8.85,4.649,17.997,5.854,27.385l75.769-43.142c1.326-0.756,3.229-0.571,4.453,0.36L422.788,265.21z"/>
</g>
<g>
	<path style="fill:#3A5792;" d="M252.179,23.49c1.433,2.044,2.28,4.525,2.28,7.205c0,3.316-1.298,6.328-3.399,8.579
		c52.137,22.657,88.694,74.658,88.694,135.047v88.498c6.123,10.406,11.174,21.516,15,33.176V174.321
		C354.754,105.923,312.197,47.28,252.179,23.49z"/>
	<path style="fill:#3A5792;" d="M130.797,30.695c0-2.681,0.849-5.163,2.281-7.206C73.058,47.279,30.5,105.922,30.5,174.321v121.677
		c3.826-11.661,8.877-22.771,15-33.178v-88.499c0-60.389,36.559-112.391,88.696-135.047
		C132.095,37.022,130.797,34.011,130.797,30.695z"/>
</g>
<path style="fill:#EF5050;" d="M226.698,162.133c0,12.307-9.974,22.284-22.276,22.284h-23.588c-12.303,0-22.276-9.977-22.276-22.284
	l0,0c0-12.305,9.974-22.282,22.276-22.282h23.588C216.725,139.851,226.698,149.827,226.698,162.133L226.698,162.133z"/>
<g style="opacity:0.1;">
	<path style="fill:#1B003F;" d="M183.094,162.133c0-12.146,9.719-22.016,21.802-22.27c-0.157-0.003-0.315-0.013-0.474-0.013h-23.588
		c-12.303,0-22.276,9.978-22.276,22.282c0,12.307,9.974,22.284,22.276,22.284h23.588c0.158,0,0.316-0.01,0.474-0.013
		C192.813,184.15,183.094,174.281,183.094,162.133z"/>
</g>
<path style="fill:#EF5050;" d="M24.059,411.423c-3.88,0-7.024-3.147-7.024-7.025v-55.306c0-96.843,78.772-175.632,175.593-175.632
	s175.594,78.789,175.594,175.632v55.306c0,3.879-3.144,7.025-7.023,7.025H24.059z"/>
<path style="fill:#3A5792;" d="M69.773,223.736H315.48c-31.69-31.078-75.068-50.276-122.854-50.276
	C144.844,173.46,101.466,192.658,69.773,223.736z"/>
<g style="opacity:0.1;">
	<path style="fill:#1B003F;" d="M49.232,404.398v-55.306c0-91.413,70.19-166.727,159.494-174.886
		c-5.304-0.485-10.671-0.746-16.1-0.746c-96.82,0-175.593,78.789-175.593,175.632v55.306c0,3.879,3.144,7.025,7.024,7.025h32.197
		C52.376,411.423,49.232,408.276,49.232,404.398z"/>
</g>
<path style="fill:#3A5792;" d="M259.459,30.695c0,9.716-7.876,17.592-17.588,17.592h-98.486c-9.713,0-17.588-7.876-17.588-17.592
	l0,0c0-9.715,7.875-17.59,17.588-17.59h98.486C251.583,13.105,259.459,20.98,259.459,30.695L259.459,30.695z"/>
<g style="opacity:0.1;">
	<path style="fill:#1B003F;" d="M157.847,30.695c0-9.715,7.875-17.59,17.588-17.59h-32.05c-9.713,0-17.588,7.875-17.588,17.59
		c0,9.716,7.875,17.592,17.588,17.592h32.05C165.722,48.287,157.847,40.411,157.847,30.695z"/>
</g>
<path style="fill:#FFFFFF;" d="M87.795,378.566c0,2.793-2.283,5.077-5.075,5.077H53.561c-2.791,0-5.075-2.284-5.075-5.077v-37.031
	c0-2.792,2.284-5.076,5.075-5.076H82.72c2.792,0,5.075,2.284,5.075,5.076V378.566z"/>
<path style="fill:#FFC554;" d="M476.561,128.946h-42.37c-15.639,0-28.361,12.831-28.361,28.603
	c0,15.769,12.723,28.597,28.361,28.597h6.324c4.143,0,7.5-3.357,7.5-7.5s-3.357-7.5-7.5-7.5h-6.324
	c-7.367,0-13.361-6.1-13.361-13.597c0-7.5,5.994-13.603,13.361-13.603h42.37c4.143,0,7.5-3.357,7.5-7.5
	C484.061,132.303,480.704,128.946,476.561,128.946z"/>
<path style="fill:#FCE591;" d="M483.636,170.189H475.4c-4.143,0-7.5,3.357-7.5,7.5s3.357,7.5,7.5,7.5h8.236
	c7.369,0,13.364,6.1,13.364,13.598s-5.995,13.599-13.364,13.599h-20.043c-9.365,0-16.984,7.763-16.984,17.305v21.235
	c0,4.143,3.357,7.5,7.5,7.5s7.5-3.357,7.5-7.5V229.69c0-1.249,0.909-2.305,1.984-2.305h20.043c15.64,0,28.364-12.829,28.364-28.599
	C512,183.018,499.275,170.189,483.636,170.189z"/>
<g>
</g>
<g>
</g>
<g>
</g>
<g>
</g>
<g>
</g>
<g>
</g>
<g>
</g>
<g>
</g>
<g>
</g>
<g>
</g>
<g>
</g>
<g>
</g>
<g>
</g>
<g>
</g>
<g>
</g>
</svg>
