<svg enable-background="new 0 0 520 520" height="512" viewBox="0 0 520 520" width="512" xmlns="http://www.w3.org/2000/svg"><g id="_x35_33_x2C__Computer_x2C__Keyboard_x2C__Hardware_x2C__Connection"><g><path d="m485 294v152c0 11.87-9.619 21.5-21.5 21.5h-407c-11.87 0-21.5-9.63-21.5-21.5v-152c0-11.87 9.63-21.5 21.5-21.5h407c11.881 0 21.5 9.63 21.5 21.5z" fill="#57606f"/><path d="m240 442.5c-24.98 0-95.02 0-120 0v-30h30 30 30 30z" fill="#95e6f9"/><path d="m430 412.5v-30h30v60h-30z" fill="#ff4957"/><path d="m270 412.5v-30h30v-30h30v60h-30z" fill="#ff4957"/><g fill="#a0b5c5"><path d="m270 412.5h30v30h-30z"/><path d="m90 412.5h30v30h-30z"/><path d="m60 382.5h30v30h-30z"/><path d="m120 382.5h30v30h-30z"/><path d="m180 382.5h30v30h-30z"/><path d="m240 382.5h30v30h-30z"/><path d="m270 352.5h30v30h-30z"/><path d="m210 352.5h30v30h-30z"/><path d="m150 352.5h30v30h-30z"/><path d="m90 352.5h30v30h-30z"/><path d="m210 297.5h30v30h-30z"/><path d="m270 297.5h30v30h-30z"/><path d="m150 297.5h30v30h-30z"/><path d="m370 382.5h30v30h-30z"/><path d="m400 352.5h30v30h-30z"/></g><path d="m400 412.5h30v30h-30z" fill="#59d9a4"/><circle cx="462.5" cy="120" r="7.5"/><path d="m440 182.5h25v20h-25z" fill="#a0b5c5"/><circle cx="457.5" cy="240" r="7.5"/><path d="m430 352.5h30v30h-30z" fill="#ffd400"/><path d="m430 302.5h30v20h-30z" fill="#ff4957"/><path d="m440 202.5v10h-40v-40h40v10z" fill="#7d89aa"/><path d="m400 382.5h30v30h-30z" fill="#d0dce7"/><path d="m400 302.5h30v20h-30z" fill="#95e6f9"/><path d="m405 52.5c13.811 0 25 11.19 25 25s-11.189 25-25 25-25-11.19-25-25 11.189-25 25-25z" fill="#f88f19"/><path d="m370 412.5h30v30h-30z" fill="#d0dce7"/><path d="m370 352.5h30v30h-30z" fill="#d0dce7"/><path d="m370 302.5h30v20h-30z" fill="#d7e816"/><path d="m400 172.5v40h-20v-20-20z" fill="#5c6887"/><path d="m300 412.5h30v30h-30z" fill="#d0dce7"/><path d="m300 297.5h30v30h-30z" fill="#d0dce7"/><circle cx="317.5" cy="100" r="7.5"/><circle cx="302.5" cy="220" r="7.5"/><path d="m280 257.5v15h-40v-15c0-11.05 8.96-20 20-20 5.53 0 10.53 2.24 14.14 5.86 3.621 3.62 5.86 8.62 5.86 14.14z" fill="#414a56"/><path d="m240 412.5h30v30h-30z" fill="#d0dce7"/><path d="m240 352.5h30v30h-30z" fill="#d0dce7"/><path d="m240 297.5h30v30h-30z" fill="#d0dce7"/><path d="m210 382.5h30v30h-30z" fill="#d0dce7"/><path d="m180 352.5h30v30h-30z" fill="#d0dce7"/><path d="m180 297.5h30v30h-30z" fill="#d0dce7"/><path d="m150 382.5h30v30h-30z" fill="#d0dce7"/><circle cx="167.5" cy="55" r="7.5"/><circle cx="167.5" cy="230" r="7.5"/><path d="m120 352.5h30v30h-30z" fill="#d0dce7"/><path d="m120 297.5h30v30h-30z" fill="#d0dce7"/><path d="m90 382.5h30v30h-30z" fill="#d0dce7"/><path d="m90 202.5c11.05 0 20 8.95 20 20s-8.95 20-20 20c-11.04 0-20-8.95-20-20s8.96-20 20-20z" fill="#f88f19"/><path d="m60 412.5h30v30h-30z" fill="#d0dce7"/><path d="m60 352.5h30v30h-30z" fill="#d0dce7"/><path d="m60 297.5h30v30h-30z" fill="#95e6f9"/><circle cx="67.5" cy="105" r="7.5"/><path d="m463.5 472.5h-407c-14.612 0-26.5-11.888-26.5-26.5v-152c0-14.612 11.888-26.5 26.5-26.5h183.5c2.761 0 5 2.238 5 5s-2.239 5-5 5h-183.5c-9.098 0-16.5 7.402-16.5 16.5v152c0 9.098 7.402 16.5 16.5 16.5h407c9.098 0 16.5-7.402 16.5-16.5v-152c0-9.098-7.402-16.5-16.5-16.5h-183.5c-2.761 0-5-2.238-5-5s2.239-5 5-5h183.5c14.612 0 26.5 11.888 26.5 26.5v152c0 14.612-11.888 26.5-26.5 26.5z"/><path d="m90 332.5h-30c-2.761 0-5-2.238-5-5v-30c0-2.762 2.239-5 5-5h30c2.761 0 5 2.238 5 5v30c0 2.762-2.239 5-5 5zm-25-10h20v-20h-20z"/><path d="m150 332.5h-30c-2.761 0-5-2.238-5-5v-30c0-2.762 2.239-5 5-5h30c2.761 0 5 2.238 5 5s-2.239 5-5 5h-25v20h25c2.761 0 5 2.238 5 5s-2.239 5-5 5z"/><path d="m180 332.5h-30c-2.761 0-5-2.238-5-5v-30c0-2.762 2.239-5 5-5h30c2.761 0 5 2.238 5 5s-2.239 5-5 5h-25v20h25c2.761 0 5 2.238 5 5s-2.239 5-5 5z"/><path d="m210 332.5h-30c-2.761 0-5-2.238-5-5v-30c0-2.762 2.239-5 5-5h30c2.761 0 5 2.238 5 5s-2.239 5-5 5h-25v20h25c2.761 0 5 2.238 5 5s-2.239 5-5 5z"/><path d="m240 332.5h-30c-2.761 0-5-2.238-5-5v-30c0-2.762 2.239-5 5-5h30c2.761 0 5 2.238 5 5s-2.239 5-5 5h-25v20h25c2.761 0 5 2.238 5 5s-2.239 5-5 5z"/><path d="m270 332.5h-30c-2.761 0-5-2.238-5-5v-30c0-2.762 2.239-5 5-5h30c2.761 0 5 2.238 5 5s-2.239 5-5 5h-25v20h25c2.761 0 5 2.238 5 5s-2.239 5-5 5z"/><path d="m300 332.5h-30c-2.761 0-5-2.238-5-5v-30c0-2.762 2.239-5 5-5h30c2.761 0 5 2.238 5 5s-2.239 5-5 5h-25v20h25c2.761 0 5 2.238 5 5s-2.239 5-5 5z"/><path d="m330 332.5h-30c-2.761 0-5-2.238-5-5v-30c0-2.762 2.239-5 5-5h30c2.761 0 5 2.238 5 5v30c0 2.762-2.239 5-5 5zm-25-10h20v-20h-20z"/><path d="m430 327.5h-30c-2.761 0-5-2.238-5-5s2.239-5 5-5h30c2.761 0 5 2.238 5 5s-2.239 5-5 5z"/><path d="m430 307.5h-30c-2.761 0-5-2.238-5-5s2.239-5 5-5h30c2.761 0 5 2.238 5 5s-2.239 5-5 5z"/><path d="m400 327.5h-30c-2.761 0-5-2.238-5-5v-20c0-2.762 2.239-5 5-5h30c2.761 0 5 2.238 5 5v20c0 2.762-2.239 5-5 5zm-25-10h20v-10h-20z"/><path d="m460 327.5h-30c-2.761 0-5-2.238-5-5v-20c0-2.762 2.239-5 5-5h30c2.761 0 5 2.238 5 5v20c0 2.762-2.239 5-5 5zm-25-10h20v-10h-20z"/><path d="m60 387.5c-2.761 0-5-2.238-5-5v-30c0-2.762 2.239-5 5-5h30c2.761 0 5 2.238 5 5s-2.239 5-5 5h-25v25c0 2.762-2.239 5-5 5z"/><path d="m90 387.5c-2.761 0-5-2.238-5-5v-30c0-2.762 2.239-5 5-5h30c2.761 0 5 2.238 5 5s-2.239 5-5 5h-25v25c0 2.762-2.239 5-5 5z"/><path d="m120 387.5c-2.761 0-5-2.238-5-5v-30c0-2.762 2.239-5 5-5h30c2.761 0 5 2.238 5 5s-2.239 5-5 5h-25v25c0 2.762-2.239 5-5 5z"/><path d="m150 387.5c-2.761 0-5-2.238-5-5v-30c0-2.762 2.239-5 5-5h30c2.761 0 5 2.238 5 5s-2.239 5-5 5h-25v25c0 2.762-2.239 5-5 5z"/><path d="m180 387.5c-2.761 0-5-2.238-5-5v-30c0-2.762 2.239-5 5-5h30c2.761 0 5 2.238 5 5s-2.239 5-5 5h-25v25c0 2.762-2.239 5-5 5z"/><path d="m210 387.5c-2.761 0-5-2.238-5-5v-30c0-2.762 2.239-5 5-5h30c2.761 0 5 2.238 5 5s-2.239 5-5 5h-25v25c0 2.762-2.239 5-5 5z"/><path d="m240 387.5c-2.761 0-5-2.238-5-5v-30c0-2.762 2.239-5 5-5h30c2.761 0 5 2.238 5 5s-2.239 5-5 5h-25v25c0 2.762-2.239 5-5 5z"/><path d="m270 387.5c-2.761 0-5-2.238-5-5v-30c0-2.762 2.239-5 5-5h30c2.761 0 5 2.238 5 5s-2.239 5-5 5h-25v25c0 2.762-2.239 5-5 5z"/><path d="m60 417.5c-2.761 0-5-2.238-5-5v-30c0-2.762 2.239-5 5-5h30c2.761 0 5 2.238 5 5s-2.239 5-5 5h-25v25c0 2.762-2.239 5-5 5z"/><path d="m90 417.5c-2.761 0-5-2.238-5-5v-30c0-2.762 2.239-5 5-5h30c2.761 0 5 2.238 5 5s-2.239 5-5 5h-25v25c0 2.762-2.239 5-5 5z"/><path d="m120 417.5c-2.761 0-5-2.238-5-5v-30c0-2.762 2.239-5 5-5h30c2.761 0 5 2.238 5 5s-2.239 5-5 5h-25v25c0 2.762-2.239 5-5 5z"/><path d="m150 417.5c-2.761 0-5-2.238-5-5v-30c0-2.762 2.239-5 5-5h30c2.761 0 5 2.238 5 5s-2.239 5-5 5h-25v25c0 2.762-2.239 5-5 5z"/><path d="m180 417.5c-2.761 0-5-2.238-5-5v-30c0-2.762 2.239-5 5-5h30c2.761 0 5 2.238 5 5s-2.239 5-5 5h-25v25c0 2.762-2.239 5-5 5z"/><path d="m210 417.5c-2.761 0-5-2.238-5-5v-30c0-2.762 2.239-5 5-5h30c2.761 0 5 2.238 5 5s-2.239 5-5 5h-25v25c0 2.762-2.239 5-5 5z"/><path d="m240 417.5c-2.761 0-5-2.238-5-5v-30c0-2.762 2.239-5 5-5h30c2.761 0 5 2.238 5 5s-2.239 5-5 5h-25v25c0 2.762-2.239 5-5 5z"/><path d="m330 417.5c-2.761 0-5-2.238-5-5v-55h-20v25c0 2.762-2.239 5-5 5h-25v25c0 2.762-2.239 5-5 5s-5-2.238-5-5v-30c0-2.762 2.239-5 5-5h25v-25c0-2.762 2.239-5 5-5h30c2.761 0 5 2.238 5 5v60c0 2.762-2.239 5-5 5z"/><path d="m90 447.5h-30c-2.761 0-5-2.238-5-5v-30c0-2.762 2.239-5 5-5h30c2.761 0 5 2.238 5 5s-2.239 5-5 5h-25v20h25c2.761 0 5 2.238 5 5s-2.239 5-5 5z"/><path d="m120 447.5h-30c-2.761 0-5-2.238-5-5v-30c0-2.762 2.239-5 5-5h30c2.761 0 5 2.238 5 5s-2.239 5-5 5h-25v20h25c2.761 0 5 2.238 5 5s-2.239 5-5 5z"/><path d="m240 447.5h-120c-2.761 0-5-2.238-5-5v-30c0-2.762 2.239-5 5-5h120c2.761 0 5 2.238 5 5s-2.239 5-5 5h-115v20h115c2.761 0 5 2.238 5 5s-2.239 5-5 5z"/><path d="m270 447.5h-30c-2.761 0-5-2.238-5-5v-30c0-2.762 2.239-5 5-5h30c2.761 0 5 2.238 5 5s-2.239 5-5 5h-25v20h25c2.761 0 5 2.238 5 5s-2.239 5-5 5z"/><path d="m300 447.5h-30c-2.761 0-5-2.238-5-5v-30c0-2.762 2.239-5 5-5h30c2.761 0 5 2.238 5 5s-2.239 5-5 5h-25v20h25c2.761 0 5 2.238 5 5s-2.239 5-5 5z"/><path d="m330 447.5h-30c-2.761 0-5-2.238-5-5v-30c0-2.762 2.239-5 5-5h30c2.761 0 5 2.238 5 5v30c0 2.762-2.239 5-5 5zm-25-10h20v-20h-20z"/><path d="m430 357.5h-30c-2.761 0-5-2.238-5-5s2.239-5 5-5h30c2.761 0 5 2.238 5 5s-2.239 5-5 5z"/><path d="m460 387.5c-2.761 0-5-2.238-5-5v-25h-20v25c0 2.762-2.239 5-5 5s-5-2.238-5-5v-30c0-2.762 2.239-5 5-5h30c2.761 0 5 2.238 5 5v30c0 2.762-2.239 5-5 5z"/><path d="m430 387.5h-30c-2.761 0-5-2.238-5-5s2.239-5 5-5h30c2.761 0 5 2.238 5 5s-2.239 5-5 5z"/><path d="m430 447.5h-30c-2.761 0-5-2.238-5-5s2.239-5 5-5h30c2.761 0 5 2.238 5 5s-2.239 5-5 5z"/><path d="m430 417.5h-30c-2.761 0-5-2.238-5-5s2.239-5 5-5h30c2.761 0 5 2.238 5 5s-2.239 5-5 5z"/><path d="m400 387.5c-2.761 0-5-2.238-5-5v-25h-20v25c0 2.762-2.239 5-5 5s-5-2.238-5-5v-30c0-2.762 2.239-5 5-5h30c2.761 0 5 2.238 5 5v30c0 2.762-2.239 5-5 5z"/><path d="m400 417.5c-2.761 0-5-2.238-5-5v-25h-20v25c0 2.762-2.239 5-5 5s-5-2.238-5-5v-30c0-2.762 2.239-5 5-5h30c2.761 0 5 2.238 5 5v30c0 2.762-2.239 5-5 5z"/><path d="m400 447.5h-30c-2.761 0-5-2.238-5-5v-30c0-2.762 2.239-5 5-5h30c2.761 0 5 2.238 5 5v30c0 2.762-2.239 5-5 5zm-25-10h20v-20h-20z"/><path d="m460 447.5h-30c-2.761 0-5-2.238-5-5v-60c0-2.762 2.239-5 5-5h30c2.761 0 5 2.238 5 5v60c0 2.762-2.239 5-5 5zm-25-10h20v-50h-20z"/><path d="m280 277.5h-40c-2.761 0-5-2.238-5-5v-15c0-13.785 11.215-25 25-25 6.688 0 12.967 2.603 17.681 7.329 4.718 4.718 7.319 10.996 7.319 17.671v15c0 2.762-2.239 5-5 5zm-35-10h30v-10c0-4.004-1.561-7.771-4.396-10.604-2.828-2.836-6.593-4.396-10.604-4.396-8.271 0-15 6.729-15 15z"/><path d="m380 197.5h-120c-2.761 0-5-2.239-5-5s2.239-5 5-5h120c2.761 0 5 2.239 5 5s-2.239 5-5 5z"/><path d="m260 197.5h-107.5c-12.686 0-24.613-4.942-33.585-13.915-8.973-8.973-13.915-20.9-13.915-33.585 0-26.191 21.309-47.5 47.5-47.5h43.5c38.047 0 69 30.953 69 69v21c0 2.761-2.239 5-5 5zm-107.5-85c-20.678 0-37.5 16.822-37.5 37.5 0 10.014 3.901 19.43 10.986 26.514 7.083 7.084 16.5 10.986 26.514 10.986h102.5v-16c0-32.533-26.467-59-59-59z"/><path d="m260 242.5c-2.761 0-5-2.239-5-5v-45c0-2.761 2.239-5 5-5s5 2.239 5 5v45c0 2.761-2.239 5-5 5z"/><path d="m440 217.5h-60c-2.761 0-5-2.239-5-5v-40c0-2.761 2.239-5 5-5h60c2.761 0 5 2.239 5 5v10c0 2.761-2.239 5-5 5s-5-2.239-5-5v-5h-50v30h50v-5c0-2.761 2.239-5 5-5s5 2.239 5 5v10c0 2.761-2.239 5-5 5z"/><path d="m465 207.5h-25c-2.761 0-5-2.239-5-5v-20c0-2.761 2.239-5 5-5h25c2.761 0 5 2.239 5 5v20c0 2.761-2.239 5-5 5zm-20-10h15v-10h-15z"/><path d="m400 217.5c-2.761 0-5-2.239-5-5v-40c0-2.761 2.239-5 5-5s5 2.239 5 5v40c0 2.761-2.239 5-5 5z"/><path d="m405 107.5c-16.542 0-30-13.458-30-30s13.458-30 30-30 30 13.458 30 30-13.458 30-30 30zm0-50c-11.027 0-20 8.972-20 20s8.973 20 20 20 20-8.972 20-20-8.973-20-20-20z"/><path d="m90 247.5c-13.785 0-25-11.215-25-25s11.215-25 25-25 25 11.215 25 25-11.215 25-25 25zm0-40c-8.271 0-15 6.729-15 15s6.729 15 15 15 15-6.729 15-15-6.729-15-15-15z"/><path d="m485 294v152c0 11.87-9.619 21.5-21.5 21.5h-407c-11.87 0-21.5-9.63-21.5-21.5v-152c0-11.87 9.63-21.5 21.5-21.5h407c11.881 0 21.5 9.63 21.5 21.5z" fill="#57606f"/><path d="m240 442.5c-24.98 0-95.02 0-120 0v-30h30 30 30 30z" fill="#95e6f9"/><path d="m430 412.5v-30h30v60h-30z" fill="#ff4957"/><path d="m270 412.5v-30h30v-30h30v60h-30z" fill="#ff4957"/><path d="m270 412.5h30v30h-30z" fill="#a0b5c5"/><path d="m90 412.5h30v30h-30z" fill="#a0b5c5"/><path d="m60 382.5h30v30h-30z" fill="#a0b5c5"/><path d="m120 382.5h30v30h-30z" fill="#a0b5c5"/><path d="m180 382.5h30v30h-30z" fill="#a0b5c5"/><path d="m240 382.5h30v30h-30z" fill="#a0b5c5"/><path d="m270 352.5h30v30h-30z" fill="#a0b5c5"/><path d="m210 352.5h30v30h-30z" fill="#a0b5c5"/><path d="m150 352.5h30v30h-30z" fill="#a0b5c5"/><path d="m90 352.5h30v30h-30z" fill="#a0b5c5"/><path d="m210 297.5h30v30h-30z" fill="#a0b5c5"/><path d="m270 297.5h30v30h-30z" fill="#a0b5c5"/><path d="m150 297.5h30v30h-30z" fill="#a0b5c5"/><path d="m370 382.5h30v30h-30z" fill="#a0b5c5"/><path d="m400 352.5h30v30h-30z" fill="#a0b5c5"/><path d="m400 412.5h30v30h-30z" fill="#59d9a4"/><circle cx="462.5" cy="120" r="7.5"/><path d="m440 182.5h25v20h-25z" fill="#a0b5c5"/><circle cx="457.5" cy="240" r="7.5"/><path d="m430 352.5h30v30h-30z" fill="#ffd400"/><path d="m430 302.5h30v20h-30z" fill="#ff4957"/><path d="m440 202.5v10h-40v-40h40v10z" fill="#7d89aa"/><path d="m400 382.5h30v30h-30z" fill="#d0dce7"/><path d="m400 302.5h30v20h-30z" fill="#95e6f9"/><path d="m405 52.5c13.811 0 25 11.19 25 25s-11.189 25-25 25-25-11.19-25-25 11.189-25 25-25z" fill="#f88f19"/><path d="m370 412.5h30v30h-30z" fill="#d0dce7"/><path d="m370 352.5h30v30h-30z" fill="#d0dce7"/><path d="m370 302.5h30v20h-30z" fill="#d7e816"/><path d="m400 172.5v40h-20v-20-20z" fill="#5c6887"/><path d="m300 412.5h30v30h-30z" fill="#d0dce7"/><path d="m300 297.5h30v30h-30z" fill="#d0dce7"/><circle cx="317.5" cy="100" r="7.5"/><circle cx="302.5" cy="220" r="7.5"/><path d="m280 257.5v15h-40v-15c0-11.05 8.96-20 20-20 5.53 0 10.53 2.24 14.14 5.86 3.621 3.62 5.86 8.62 5.86 14.14z" fill="#414a56"/><path d="m240 412.5h30v30h-30z" fill="#d0dce7"/><path d="m240 352.5h30v30h-30z" fill="#d0dce7"/><path d="m240 297.5h30v30h-30z" fill="#d0dce7"/><path d="m210 382.5h30v30h-30z" fill="#d0dce7"/><path d="m180 352.5h30v30h-30z" fill="#d0dce7"/><path d="m180 297.5h30v30h-30z" fill="#d0dce7"/><path d="m150 382.5h30v30h-30z" fill="#d0dce7"/><circle cx="167.5" cy="55" r="7.5"/><circle cx="167.5" cy="230" r="7.5"/><path d="m120 352.5h30v30h-30z" fill="#d0dce7"/><path d="m120 297.5h30v30h-30z" fill="#d0dce7"/><path d="m90 382.5h30v30h-30z" fill="#d0dce7"/><path d="m90 202.5c11.05 0 20 8.95 20 20s-8.95 20-20 20c-11.04 0-20-8.95-20-20s8.96-20 20-20z" fill="#f88f19"/><path d="m60 412.5h30v30h-30z" fill="#d0dce7"/><path d="m60 352.5h30v30h-30z" fill="#d0dce7"/><path d="m60 297.5h30v30h-30z" fill="#95e6f9"/><circle cx="67.5" cy="105" r="7.5"/><path d="m463.5 472.5h-407c-14.612 0-26.5-11.888-26.5-26.5v-152c0-14.612 11.888-26.5 26.5-26.5h183.5c2.761 0 5 2.238 5 5s-2.239 5-5 5h-183.5c-9.098 0-16.5 7.402-16.5 16.5v152c0 9.098 7.402 16.5 16.5 16.5h407c9.098 0 16.5-7.402 16.5-16.5v-152c0-9.098-7.402-16.5-16.5-16.5h-183.5c-2.761 0-5-2.238-5-5s2.239-5 5-5h183.5c14.612 0 26.5 11.888 26.5 26.5v152c0 14.612-11.888 26.5-26.5 26.5z"/><path d="m90 332.5h-30c-2.761 0-5-2.238-5-5v-30c0-2.762 2.239-5 5-5h30c2.761 0 5 2.238 5 5v30c0 2.762-2.239 5-5 5zm-25-10h20v-20h-20z"/><path d="m150 332.5h-30c-2.761 0-5-2.238-5-5v-30c0-2.762 2.239-5 5-5h30c2.761 0 5 2.238 5 5s-2.239 5-5 5h-25v20h25c2.761 0 5 2.238 5 5s-2.239 5-5 5z"/><path d="m180 332.5h-30c-2.761 0-5-2.238-5-5v-30c0-2.762 2.239-5 5-5h30c2.761 0 5 2.238 5 5s-2.239 5-5 5h-25v20h25c2.761 0 5 2.238 5 5s-2.239 5-5 5z"/><path d="m210 332.5h-30c-2.761 0-5-2.238-5-5v-30c0-2.762 2.239-5 5-5h30c2.761 0 5 2.238 5 5s-2.239 5-5 5h-25v20h25c2.761 0 5 2.238 5 5s-2.239 5-5 5z"/><path d="m240 332.5h-30c-2.761 0-5-2.238-5-5v-30c0-2.762 2.239-5 5-5h30c2.761 0 5 2.238 5 5s-2.239 5-5 5h-25v20h25c2.761 0 5 2.238 5 5s-2.239 5-5 5z"/><path d="m270 332.5h-30c-2.761 0-5-2.238-5-5v-30c0-2.762 2.239-5 5-5h30c2.761 0 5 2.238 5 5s-2.239 5-5 5h-25v20h25c2.761 0 5 2.238 5 5s-2.239 5-5 5z"/><path d="m300 332.5h-30c-2.761 0-5-2.238-5-5v-30c0-2.762 2.239-5 5-5h30c2.761 0 5 2.238 5 5s-2.239 5-5 5h-25v20h25c2.761 0 5 2.238 5 5s-2.239 5-5 5z"/><path d="m330 332.5h-30c-2.761 0-5-2.238-5-5v-30c0-2.762 2.239-5 5-5h30c2.761 0 5 2.238 5 5v30c0 2.762-2.239 5-5 5zm-25-10h20v-20h-20z"/><path d="m430 327.5h-30c-2.761 0-5-2.238-5-5s2.239-5 5-5h30c2.761 0 5 2.238 5 5s-2.239 5-5 5z"/><path d="m430 307.5h-30c-2.761 0-5-2.238-5-5s2.239-5 5-5h30c2.761 0 5 2.238 5 5s-2.239 5-5 5z"/><path d="m400 327.5h-30c-2.761 0-5-2.238-5-5v-20c0-2.762 2.239-5 5-5h30c2.761 0 5 2.238 5 5v20c0 2.762-2.239 5-5 5zm-25-10h20v-10h-20z"/><path d="m460 327.5h-30c-2.761 0-5-2.238-5-5v-20c0-2.762 2.239-5 5-5h30c2.761 0 5 2.238 5 5v20c0 2.762-2.239 5-5 5zm-25-10h20v-10h-20z"/><path d="m60 387.5c-2.761 0-5-2.238-5-5v-30c0-2.762 2.239-5 5-5h30c2.761 0 5 2.238 5 5s-2.239 5-5 5h-25v25c0 2.762-2.239 5-5 5z"/><path d="m90 387.5c-2.761 0-5-2.238-5-5v-30c0-2.762 2.239-5 5-5h30c2.761 0 5 2.238 5 5s-2.239 5-5 5h-25v25c0 2.762-2.239 5-5 5z"/><path d="m120 387.5c-2.761 0-5-2.238-5-5v-30c0-2.762 2.239-5 5-5h30c2.761 0 5 2.238 5 5s-2.239 5-5 5h-25v25c0 2.762-2.239 5-5 5z"/><path d="m150 387.5c-2.761 0-5-2.238-5-5v-30c0-2.762 2.239-5 5-5h30c2.761 0 5 2.238 5 5s-2.239 5-5 5h-25v25c0 2.762-2.239 5-5 5z"/><path d="m180 387.5c-2.761 0-5-2.238-5-5v-30c0-2.762 2.239-5 5-5h30c2.761 0 5 2.238 5 5s-2.239 5-5 5h-25v25c0 2.762-2.239 5-5 5z"/><path d="m210 387.5c-2.761 0-5-2.238-5-5v-30c0-2.762 2.239-5 5-5h30c2.761 0 5 2.238 5 5s-2.239 5-5 5h-25v25c0 2.762-2.239 5-5 5z"/><path d="m240 387.5c-2.761 0-5-2.238-5-5v-30c0-2.762 2.239-5 5-5h30c2.761 0 5 2.238 5 5s-2.239 5-5 5h-25v25c0 2.762-2.239 5-5 5z"/><path d="m270 387.5c-2.761 0-5-2.238-5-5v-30c0-2.762 2.239-5 5-5h30c2.761 0 5 2.238 5 5s-2.239 5-5 5h-25v25c0 2.762-2.239 5-5 5z"/><path d="m60 417.5c-2.761 0-5-2.238-5-5v-30c0-2.762 2.239-5 5-5h30c2.761 0 5 2.238 5 5s-2.239 5-5 5h-25v25c0 2.762-2.239 5-5 5z"/><path d="m90 417.5c-2.761 0-5-2.238-5-5v-30c0-2.762 2.239-5 5-5h30c2.761 0 5 2.238 5 5s-2.239 5-5 5h-25v25c0 2.762-2.239 5-5 5z"/><path d="m120 417.5c-2.761 0-5-2.238-5-5v-30c0-2.762 2.239-5 5-5h30c2.761 0 5 2.238 5 5s-2.239 5-5 5h-25v25c0 2.762-2.239 5-5 5z"/><path d="m150 417.5c-2.761 0-5-2.238-5-5v-30c0-2.762 2.239-5 5-5h30c2.761 0 5 2.238 5 5s-2.239 5-5 5h-25v25c0 2.762-2.239 5-5 5z"/><path d="m180 417.5c-2.761 0-5-2.238-5-5v-30c0-2.762 2.239-5 5-5h30c2.761 0 5 2.238 5 5s-2.239 5-5 5h-25v25c0 2.762-2.239 5-5 5z"/><path d="m210 417.5c-2.761 0-5-2.238-5-5v-30c0-2.762 2.239-5 5-5h30c2.761 0 5 2.238 5 5s-2.239 5-5 5h-25v25c0 2.762-2.239 5-5 5z"/><path d="m240 417.5c-2.761 0-5-2.238-5-5v-30c0-2.762 2.239-5 5-5h30c2.761 0 5 2.238 5 5s-2.239 5-5 5h-25v25c0 2.762-2.239 5-5 5z"/><path d="m330 417.5c-2.761 0-5-2.238-5-5v-55h-20v25c0 2.762-2.239 5-5 5h-25v25c0 2.762-2.239 5-5 5s-5-2.238-5-5v-30c0-2.762 2.239-5 5-5h25v-25c0-2.762 2.239-5 5-5h30c2.761 0 5 2.238 5 5v60c0 2.762-2.239 5-5 5z"/><path d="m90 447.5h-30c-2.761 0-5-2.238-5-5v-30c0-2.762 2.239-5 5-5h30c2.761 0 5 2.238 5 5s-2.239 5-5 5h-25v20h25c2.761 0 5 2.238 5 5s-2.239 5-5 5z"/><path d="m120 447.5h-30c-2.761 0-5-2.238-5-5v-30c0-2.762 2.239-5 5-5h30c2.761 0 5 2.238 5 5s-2.239 5-5 5h-25v20h25c2.761 0 5 2.238 5 5s-2.239 5-5 5z"/><path d="m240 447.5h-120c-2.761 0-5-2.238-5-5v-30c0-2.762 2.239-5 5-5h120c2.761 0 5 2.238 5 5s-2.239 5-5 5h-115v20h115c2.761 0 5 2.238 5 5s-2.239 5-5 5z"/><path d="m270 447.5h-30c-2.761 0-5-2.238-5-5v-30c0-2.762 2.239-5 5-5h30c2.761 0 5 2.238 5 5s-2.239 5-5 5h-25v20h25c2.761 0 5 2.238 5 5s-2.239 5-5 5z"/><path d="m300 447.5h-30c-2.761 0-5-2.238-5-5v-30c0-2.762 2.239-5 5-5h30c2.761 0 5 2.238 5 5s-2.239 5-5 5h-25v20h25c2.761 0 5 2.238 5 5s-2.239 5-5 5z"/><path d="m330 447.5h-30c-2.761 0-5-2.238-5-5v-30c0-2.762 2.239-5 5-5h30c2.761 0 5 2.238 5 5v30c0 2.762-2.239 5-5 5zm-25-10h20v-20h-20z"/><path d="m430 357.5h-30c-2.761 0-5-2.238-5-5s2.239-5 5-5h30c2.761 0 5 2.238 5 5s-2.239 5-5 5z"/><path d="m460 387.5c-2.761 0-5-2.238-5-5v-25h-20v25c0 2.762-2.239 5-5 5s-5-2.238-5-5v-30c0-2.762 2.239-5 5-5h30c2.761 0 5 2.238 5 5v30c0 2.762-2.239 5-5 5z"/><path d="m430 387.5h-30c-2.761 0-5-2.238-5-5s2.239-5 5-5h30c2.761 0 5 2.238 5 5s-2.239 5-5 5z"/><path d="m430 447.5h-30c-2.761 0-5-2.238-5-5s2.239-5 5-5h30c2.761 0 5 2.238 5 5s-2.239 5-5 5z"/><path d="m430 417.5h-30c-2.761 0-5-2.238-5-5s2.239-5 5-5h30c2.761 0 5 2.238 5 5s-2.239 5-5 5z"/><path d="m400 387.5c-2.761 0-5-2.238-5-5v-25h-20v25c0 2.762-2.239 5-5 5s-5-2.238-5-5v-30c0-2.762 2.239-5 5-5h30c2.761 0 5 2.238 5 5v30c0 2.762-2.239 5-5 5z"/><path d="m400 417.5c-2.761 0-5-2.238-5-5v-25h-20v25c0 2.762-2.239 5-5 5s-5-2.238-5-5v-30c0-2.762 2.239-5 5-5h30c2.761 0 5 2.238 5 5v30c0 2.762-2.239 5-5 5z"/><path d="m400 447.5h-30c-2.761 0-5-2.238-5-5v-30c0-2.762 2.239-5 5-5h30c2.761 0 5 2.238 5 5v30c0 2.762-2.239 5-5 5zm-25-10h20v-20h-20z"/><path d="m460 447.5h-30c-2.761 0-5-2.238-5-5v-60c0-2.762 2.239-5 5-5h30c2.761 0 5 2.238 5 5v60c0 2.762-2.239 5-5 5zm-25-10h20v-50h-20z"/><path d="m280 277.5h-40c-2.761 0-5-2.238-5-5v-15c0-13.785 11.215-25 25-25 6.688 0 12.967 2.603 17.681 7.329 4.718 4.718 7.319 10.996 7.319 17.671v15c0 2.762-2.239 5-5 5zm-35-10h30v-10c0-4.004-1.561-7.771-4.396-10.604-2.828-2.836-6.593-4.396-10.604-4.396-8.271 0-15 6.729-15 15z"/><path d="m380 197.5h-120c-2.761 0-5-2.239-5-5s2.239-5 5-5h120c2.761 0 5 2.239 5 5s-2.239 5-5 5z"/><path d="m260 197.5h-107.5c-12.686 0-24.613-4.942-33.585-13.915-8.973-8.973-13.915-20.9-13.915-33.585 0-26.191 21.309-47.5 47.5-47.5h43.5c38.047 0 69 30.953 69 69v21c0 2.761-2.239 5-5 5zm-107.5-85c-20.678 0-37.5 16.822-37.5 37.5 0 10.014 3.901 19.43 10.986 26.514 7.083 7.084 16.5 10.986 26.514 10.986h102.5v-16c0-32.533-26.467-59-59-59z"/><path d="m260 242.5c-2.761 0-5-2.239-5-5v-45c0-2.761 2.239-5 5-5s5 2.239 5 5v45c0 2.761-2.239 5-5 5z"/><path d="m440 217.5h-60c-2.761 0-5-2.239-5-5v-40c0-2.761 2.239-5 5-5h60c2.761 0 5 2.239 5 5v10c0 2.761-2.239 5-5 5s-5-2.239-5-5v-5h-50v30h50v-5c0-2.761 2.239-5 5-5s5 2.239 5 5v10c0 2.761-2.239 5-5 5z"/><path d="m465 207.5h-25c-2.761 0-5-2.239-5-5v-20c0-2.761 2.239-5 5-5h25c2.761 0 5 2.239 5 5v20c0 2.761-2.239 5-5 5zm-20-10h15v-10h-15z"/><path d="m400 217.5c-2.761 0-5-2.239-5-5v-40c0-2.761 2.239-5 5-5s5 2.239 5 5v40c0 2.761-2.239 5-5 5z"/><path d="m405 107.5c-16.542 0-30-13.458-30-30s13.458-30 30-30 30 13.458 30 30-13.458 30-30 30zm0-50c-11.027 0-20 8.972-20 20s8.973 20 20 20 20-8.972 20-20-8.973-20-20-20z"/><path d="m90 247.5c-13.785 0-25-11.215-25-25s11.215-25 25-25 25 11.215 25 25-11.215 25-25 25zm0-40c-8.271 0-15 6.729-15 15s6.729 15 15 15 15-6.729 15-15-6.729-15-15-15z"/></g></g></svg>