<svg id="Layer_2" height="512" viewBox="0 0 128 128" width="512" xmlns="http://www.w3.org/2000/svg" data-name="Layer 2"><path d="m49.9741 64.214c.1083-30.6338 8.6105-45.9318 34.4372-45.9034h1.9772c26.0449-.0392 34.4843 15.4937 34.4647 46.6086 0 .29 0 .58-.01.87.01.29.01.58.01.87.02 31.5-8.63 47.03-35.44 46.6-12.1559.195-20.5785-2.8911-26.1523-9.2592z" fill="#ad7753"/><path d="m120.8533 64.9193c.016-25.4364-5.6275-40.4532-21.9148-45.0679 2.4425 7.2547 3.2914 16.4981 2.9638 27.7648-.0081.29-.0163.58-.0346.8693.0017.29-.0065.58-.0147.87-.8755 31.4878-9.9631 46.7657-36.75 45.5739a55.0335 55.0335 0 0 1 -8.1143-.6646l2.272 9.7352c5.5739 6.3681 13.9965 9.4542 26.1524 9.2592 26.81.43 35.46-15.1 35.44-46.6 0-.29 0-.58-.01-.87.0102-.2899.0102-.5799.0102-.8699z" fill="#96674d"/><circle cx="44" cy="77.268" fill="#bf8166" r="36"/><circle cx="44" cy="77.268" fill="#97c655" r="34"/><circle cx="44" cy="77.268" fill="#b1d873" r="17.747"/><path d="m66.6252 51.9169a33.9771 33.9771 0 0 1 -47.9768 47.9753 33.9805 33.9805 0 1 0 47.9768-47.9753z" fill="#87aa4f"/><circle cx="44" cy="77.268" fill="#ddf49d" r="10.855"/><g fill="#363f25"><path d="m44 62.5254a1 1 0 0 1 -1-1v-4.6567a1 1 0 1 1 2 0v4.6567a1 1 0 0 1 -1 1z"/><path d="m39.5254 61.6064a1.0007 1.0007 0 0 1 -.9649-.7417l-.582-2.17a1 1 0 1 1 1.9317-.5175l.582 2.17a1.0017 1.0017 0 0 1 -.9668 1.2592z"/><path d="m36.13 64.6343a1 1 0 0 1 -.8672-.5l-2.3281-4.0327a1 1 0 1 1 1.7324-1l2.3281 4.0327a1 1 0 0 1 -.8652 1.5z"/><path d="m31.7939 66.0752a.9969.9969 0 0 1 -.707-.293l-1.5879-1.5888a1 1 0 1 1 1.4141-1.4141l1.5879 1.5889a1 1 0 0 1 -.7071 1.707z"/><path d="m30.3652 70.3965a.9946.9946 0 0 1 -.499-.1338l-4.0322-2.3281a1 1 0 0 1 1-1.7325l4.0322 2.3279a1 1 0 0 1 -.501 1.8662z"/><path d="m27.334 73.8115a.9916.9916 0 0 1 -.26-.0342l-2.17-.581a1 1 0 0 1 .5176-1.9317l2.17.5811a1 1 0 0 1 -.2578 1.9658z"/><path d="m28.2578 78.2676h-4.6572a1 1 0 0 1 0-2h4.6572a1 1 0 1 1 0 2z"/><path d="m25.167 83.3232a1 1 0 0 1 -.2578-1.9658l2.17-.581a1 1 0 0 1 .5176 1.9316l-2.17.5811a.9967.9967 0 0 1 -.2598.0341z"/><path d="m26.335 88.4678a1 1 0 0 1 -.501-1.8662l4.0322-2.3282a1 1 0 0 1 1 1.7325l-4.0322 2.3281a.9946.9946 0 0 1 -.499.1338z"/><path d="m30.2188 92.0625a1 1 0 0 1 -.7071-1.707l1.5889-1.5889a1 1 0 1 1 1.414 1.4141l-1.5888 1.5893a.9969.9969 0 0 1 -.707.2925z"/><path d="m33.8 95.9346a1 1 0 0 1 -.8652-1.5l2.3281-4.0332a1 1 0 1 1 1.7324 1l-2.3283 4.0332a1.0012 1.0012 0 0 1 -.867.5z"/><path d="m38.9629 97.1045a1 1 0 0 1 -.9668-1.2588l.582-2.17a1 1 0 0 1 1.9317.5176l-.5821 2.17a1 1 0 0 1 -.9648.7412z"/><path d="m44 98.667a1 1 0 0 1 -1-1v-4.6563a1 1 0 1 1 2 0v4.6563a1 1 0 0 1 -1 1z"/><path d="m49.0547 97.1006a1 1 0 0 1 -.9649-.7412l-.582-2.1709a1 1 0 0 1 1.9317-.5176l.582 2.1709a1 1 0 0 1 -.9668 1.2588z"/><path d="m54.2 95.9346a.9991.9991 0 0 1 -.8672-.5l-2.3281-4.0332a1 1 0 0 1 1.7324-1l2.3281 4.0332a1 1 0 0 1 -.8652 1.5z"/><path d="m57.7939 92.05a.9969.9969 0 0 1 -.707-.293l-1.5879-1.589a1 1 0 1 1 1.4141-1.4141l1.5879 1.5889a1 1 0 0 1 -.7071 1.707z"/><path d="m61.665 88.4678a.9946.9946 0 0 1 -.499-.1338l-4.0322-2.3281a1 1 0 0 1 1-1.7325l4.0322 2.3282a1 1 0 0 1 -.501 1.8662z"/><path d="m62.8379 83.3057a.9964.9964 0 0 1 -.26-.0342l-2.17-.5811a1 1 0 1 1 .5176-1.9316l2.17.581a1 1 0 0 1 -.2578 1.9659z"/><path d="m64.3994 78.2676h-4.6572a1 1 0 1 1 0-2h4.6572a1 1 0 0 1 0 2z"/><path d="m60.6611 73.7939a1 1 0 0 1 -.2578-1.9658l2.17-.582a1 1 0 1 1 .5176 1.9316l-2.17.5821a.9956.9956 0 0 1 -.2598.0341z"/><path d="m57.6348 70.3965a1 1 0 0 1 -.501-1.8662l4.0322-2.3282a1 1 0 0 1 1 1.7325l-4.0322 2.3281a.9946.9946 0 0 1 -.499.1338z"/><path d="m56.1924 66.0625a1 1 0 0 1 -.707-1.707l1.5888-1.5889a1 1 0 0 1 1.4141 1.4141l-1.5889 1.5893a.9969.9969 0 0 1 -.707.2925z"/><path d="m51.87 64.6343a1 1 0 0 1 -.8652-1.5l2.3281-4.0327a1 1 0 1 1 1.7324 1l-2.3281 4.0327a1 1 0 0 1 -.8672.5z"/><path d="m48.457 61.6016a1.0021 1.0021 0 0 1 -.9668-1.2593l.5821-2.17a1 1 0 1 1 1.9316.5176l-.582 2.17a1.0008 1.0008 0 0 1 -.9649.7417z"/></g><path d="m89.0141 20.0492a22.8245 22.8245 0 0 1 -7.202 0l.826-4.5h5.55z" fill="#7f523b"/><path d="m88.1882 15.5494h-2.3217l.1743.9494a1.8537 1.8537 0 0 1 -1.6767 2.1872 23.0149 23.0149 0 0 1 -2.3094.0414l-.2426 1.3219a22.8311 22.8311 0 0 0 7.2021 0z" fill="#6d4432"/></svg>