<svg height="512" viewBox="0 0 58 58" width="512" xmlns="http://www.w3.org/2000/svg"><g id="Page-1" fill="none" fill-rule="evenodd"><g id="033---Knife" fill-rule="nonzero"><path id="Shape" d="m53.82 2.5c-9.18 5.68-19.69 13.32-27.36 20.68-.7179052-.3317593-1.5646404-.2017952-2.15.33l-1.49 1.33c-.5328559.4762888-.7727248 1.1997029-.63 1.9-3.33 3.07-16.04 15-20.57 22.46-.87822785 1.241187-1.4348498 2.680845-1.62 4.19 0 6.61 12 5.67 14 0 .3763739-1.0363895.8379522-2.0398205 1.38-3 3.5610118-6.0014331 8.5354637-11.0411125 14.49-14.68l.15.17c.3511009.3978646.8468186.6386797 1.3765964.668738.5297779.0300583 1.049553-.1531402 1.4434036-.508738l1.49-1.34c.6103772-.542474.8283017-1.4022849.55-2.17 2.04-1.49 4.69-3.43 8.12-5.95 10.12-7.42 15-18.33 15-26.58-1.35.78-2.75 1.62-4.18 2.5z" fill="#e57e25"/><path id="Shape" d="m53.82 2.5v.01c-.58 3.99-3.01 13.38-13.19 20.84l-8.32 6.1-5.18-5.78c-.1838514-.2114132-.4128127-.3788624-.67-.49 7.67-7.36 18.18-15 27.36-20.68z" fill="#a5a5a4"/><path id="Shape" d="m58 0c0 8.25-4.88 19.16-15 26.58-3.43 2.52-6.08 4.46-8.12 5.95-.0930554-.2367946-.2248544-.4564595-.39-.65l-2.18-2.43 8.32-6.1c10.18-7.46 12.61-16.85 13.19-20.84v-.01c1.43-.88 2.83-1.72 4.18-2.5z" fill="#d1d4d1"/><path id="Shape" d="m34.33 34.7-1.49 1.34c-.3938506.3555978-.9136257.5387963-1.4434036.508738-.5297778-.0300583-1.0254955-.2708734-1.3765964-.668738l-.15-.17-7.21-8.04c-.3551532-.3959963-.537926-.9171588-.5079003-1.4482382s.270376-1.0283197.6679003-1.3817618l1.49-1.33c.5853596-.5317952 1.4320948-.6617593 2.15-.33.2571873.1111376.4861486.2785868.67.49l5.18 5.78 2.18 2.43c.1651456.1935405.2969446.4132054.39.65.2783017.7677151.0603772 1.627526-.55 2.17z" fill="#f29c1f"/><path id="Shape" d="m15.38 50.39c-.5420478.9601795-1.0036261 1.9636105-1.38 3-2 5.67-14 6.61-14 0 .1851502-1.509155.74177215-2.948813 1.62-4.19 1.08 1.31 3.57 2.4 6.55 2.71 3.19.33 6.01-.31 7.21-1.52z" fill="#d25627"/><g fill="#805333"><circle id="Oval" cx="10" cy="47" r="1"/><circle id="Oval" cx="22" cy="35" r="1"/></g></g></g></svg>