<svg enable-background="new 0 0 128 128" viewBox="0 0 128 128" xmlns="http://www.w3.org/2000/svg"><g id="Crocodile"/><g id="Kangaroo"/><g id="Flamingo"/><g id="Eagle"/><g id="Tapir"/><g id="Pangolin"/><g id="Hedgehog"/><g id="Komodo"/><g id="Ferret"/><g id="Hipotatamus"/><g id="Gorilla"/><g id="Koala"><g><path d="m111.15 68.49c-9.71 16.63-10.64 36.41-11.02 55.51h-53.23c1.02-3.82 1.25-8.09 1.68-12.01.3-.08.6-.16.87-.26 2.98-1.07 4.91-2 5.02-2.04v.01c-.63 3.7.66 8.55 3.88 10.52 7.22 4.42 16.85-3.97 19.78-7.19.13-.14.25-.27.35-.39 1.87-2.19 3.49-5.37 1.96-7.81-1.25-1.96-4.1-2.35-6.26-1.49-2.16.87-3.79 2.66-5.34 4.4 1.05-5.2 2.1-10.82.04-15.63.94-3.06 1.61-6.24 2.16-9.33.35-1.94.68-3.88.96-5.81.92-.04 1.8-.17 2.64-.38 7.17-1.84 15.19-9.1 18.33-17.27 1.19-3.07.57-7.48-2.15-7.34-1.69.08-2.51 2.69-4.18 2.52-1.73-.18-2.19-3.1-3.92-3.07-1.28.01-1.85 1.7-1.56 2.94.28 1.25 1.03 2.43.91 3.7-.16 1.72-1.76 2.88-3.21 3.8-1.58 1-3.31 2.05-5.17 2.05.3-3.03.57-6.06.75-9.1 4.13-3.04 6.79-7.57 7.18-13.73.1-1.53.05-3.04-.14-4.52.26.06.5.08.73.06 5.96-1.43 8.22-3.92 8.43-6.19.11-1.26-.03-3.22.78-4.36.56-.78 1.67-1.29 2.15-2.1.63-1.04-.04-2.19-.89-3.02s-1.93-1.58-2.27-2.64c-.26-.82-.03-1.78-.58-2.51-.77-1.03-5.49-2.69-12.96.53-1.69.72-3.68 2.14-4.98 3.6-1.3-1.03-2.72-1.94-4.22-2.73.24-2.1.48-4.2.72-6.3.23-1.96.43-4.69 1.01-6.91h36.32c1 18.53-2.3 36.75-1.31 55.29 3.12-3.01 5.43-8.67 7.86-13.82 1.34-.47 4.98-.03 7.56 1.68.32 3.21-6.47 17.57-8.68 21.34z" fill="#fd8759"/><path d="m78.13 113.03-7.92 10.97h-23.31c1.02-3.82 1.25-8.09 1.68-12.01.3-.08.6-.16.87-.26 2.98-1.07 4.91-2 5.02-2.04v.01c-.63 3.7.66 8.55 3.88 10.52 7.22 4.42 16.85-3.97 19.78-7.19z" fill="#cf522d"/><path d="m93.497 57.046s-4.573 16.232-13.771 21.153c-2.311 1.237-3.987 3.401-4.827 5.885l-1.644 4.86c-.739 2.185-.71 4.54-.013 6.738.962 3.033 1.676 7.781-1.353 11.531l-9.06 3.574-4.34-12.511-1.965-14.17-.556-7.277 11.329-8.426 11.617-.638z" fill="#cf522d"/><path d="m81.62 41.09c-.39 6.16-3.05 10.69-7.18 13.73-5.18 3.84-12.68 5.32-20.93 4.74-9.64-.68-17.92-4.01-22.26-10.09-2.34-3.26-3.55-7.3-3.24-12.15.02-.26.04-.52.07-.77.7-7.26 4.64-13.52 10.38-17.61 4.95-3.52 11.24-5.42 17.96-4.95 5.9.42 11.24 2.6 15.47 5.95 5.23 4.13 8.77 10.05 9.59 16.63.19 1.48.24 2.99.14 4.52z" fill="#878799"/><path d="m92.97 59.32c-3.14 8.17-11.16 15.43-18.33 17.27-.75.19-1.54.31-2.36.36-.09 0-.18.01-.28.02-.14.97-.3 1.93-.45 2.9-.01.04-.01.09-.02.13-.16.93-.32 1.85-.49 2.78-.32 1.82-.69 3.68-1.13 5.52-.3 1.28-.64 2.55-1.03 3.81 2.06 4.81 1.01 10.43-.04 15.63 1.55-1.74 3.18-3.53 5.34-4.4 2.16-.86 5.01-.47 6.26 1.49 1.53 2.44-.09 5.62-1.96 7.81-2.44 2.86-12.6 12.19-20.13 7.58-3.22-1.97-4.51-6.82-3.88-10.52v-.01c-.11.04-2.04.97-5.02 2.04-10.99 3.94-43.23-8.54-26.18-45 1.16-2.47 2.29-4.58 3.42-6.42 2.27-3.72 4.52-6.28 6.83-8.25 4.65 4.44 11.83 6.92 19.99 7.5 8.25.58 15.75-.9 20.93-4.74-.12 2.04-.28 4.07-.47 6.1-.09 1-.18 2-.28 3h.15c1.8-.06 3.48-1.08 5.02-2.05 1.45-.92 3.05-2.08 3.21-3.8.12-1.27-.63-2.45-.91-3.7-.29-1.24.28-2.93 1.56-2.94 1.73-.03 2.19 2.89 3.92 3.07 1.67.17 2.49-2.44 4.18-2.52 2.72-.14 3.34 4.27 2.15 7.34z" fill="#878799"/><path d="m74.44 54.82s-12.76 14.02-41.95 7.17c-2.18-.51-4.11-1.08-5.8-1.68 2.27-3.72 4.52-6.28 6.83-8.25 4.65 4.44 11.83 6.92 19.99 7.5 8.25.58 15.75-.9 20.93-4.74z" fill="#3a3a4f"/><path d="m38.46 18.94c-1.28.91-2.47 1.93-3.55 3.05-2.71 2.78-4.76 6.15-5.9 9.92-.46 1.49-.78 3.04-.93 4.64-.17.02-.33.02-.48.01-6.28-1.51-8.67-4.13-8.88-6.53-.12-1.32.02-3.39-.83-4.59-.59-.82-1.76-1.36-2.27-2.22-.66-1.09.04-2.3.94-3.18s2.04-1.67 2.4-2.78c.27-.88.03-1.89.61-2.65.81-1.09 5.78-2.84 13.67.56 1.77.75 3.85 2.24 5.22 3.77z" fill="#878799"/><path d="m34.91 21.99c-2.71 2.78-4.76 6.15-5.9 9.92-3.26-.29-5.81-3.03-5.81-6.36 0-3.54 2.86-6.4 6.4-6.4 2.21 0 4.17 1.13 5.31 2.84z" fill="#3a3a4f"/><path d="m93.57 23.98c-.48.81-1.59 1.32-2.15 2.1-.81 1.14-.67 3.1-.78 4.36-.21 2.27-2.47 4.76-8.43 6.19-.23.02-.47 0-.73-.06-.12-.94-.29-1.87-.52-2.78-.99-4.02-3.02-7.72-5.81-10.8-.99-1.1-2.08-2.12-3.26-3.05 1.3-1.46 3.29-2.88 4.98-3.6 7.47-3.22 12.19-1.56 12.96-.53.55.73.32 1.69.58 2.51.34 1.06 1.42 1.81 2.27 2.64s1.52 1.98.89 3.02z" fill="#878799"/><g fill="#3a3a4f"><path d="m86.04 27.53c0 3.08-2.18 5.65-5.08 6.26-.99-4.02-3.02-7.72-5.81-10.8 1.15-1.15 2.74-1.86 4.5-1.86 3.53 0 6.39 2.87 6.39 6.4z"/><path d="m72 76.97c-.14.97-.3 1.93-.45 2.9-.01.04-.01.09-.02.13-.16.93-.32 1.85-.49 2.78-.32 1.82-.69 3.68-1.13 5.52-.3 1.28-.64 2.55-1.03 3.81-4.62-9.04-15.8-10.95-24.8-7.61-.88.32-1.41-1.03-.52-1.39 5.94-2.551 12.791-2.866 18.551-.565 1.04.416 2.11-.509 1.864-1.602-.334-1.486-.395-2.213-.395-2.213l.05.01c-3.38-1.25-6.37-3.45-8.32-6.59-.21-.3-.13-.71.17-.92.28-.19.65-.14.87.12.96 1.15 1.96 2.27 3.21 3.08 3.51 2.49 8.28 3.22 12.44 2.54z"/><path d="m71.456 39.014c-.311 0-.617-.145-.812-.416-.409-.568-.954-.884-1.534-.89-.005 0-.01 0-.016 0-.593 0-1.18.329-1.612.906-.331.441-.957.529-1.4.199-.441-.331-.53-.958-.199-1.4.814-1.085 1.983-1.705 3.212-1.705h.035c1.215.012 2.358.639 3.138 1.722.322.447.221 1.072-.228 1.396-.178.126-.382.188-.584.188z"/><path d="m46.169 38.602c-.311 0-.617-.145-.812-.415-.409-.568-.954-.885-1.534-.891-.005 0-.01 0-.016 0-.593 0-1.18.329-1.612.906-.331.441-.958.529-1.4.199-.441-.332-.53-.958-.199-1.4.814-1.085 1.983-1.705 3.212-1.705h.035c1.214.012 2.357.64 3.138 1.721.322.448.222 1.073-.227 1.396-.178.127-.383.189-.585.189z"/><path d="m63.581 44.807c0 4.547-3.159 6.578-7.063 6.578-3.891 0-7.05-2.031-7.05-6.578 0-1.175.244-2.401.671-3.576 1.232-3.385 3.928-6.335 6.379-6.335 2.903 0 5.404 2.963 6.477 6.361.379 1.174.586 2.388.586 3.55z"/></g></g></g><g id="Panda"/><g id="Rhinoceros"/><g id="Racoon"/><g id="Donkey"/><g id="Cow"/><g id="Goat"/><g id="Deer"/><g id="Jaguar"/><g id="Fox"/><g id="Tiger"/><g id="hyena"/><g id="Polar_Bear"/><g id="Squirrel"/><g id="Monkey"/><g id="Giraffe"/><g id="Elephant"/><g id="Lion"/><g id="Horse"/></svg>