<svg id="Layer_1" enable-background="new 0 0 512 512" viewBox="0 0 512 512" xmlns="http://www.w3.org/2000/svg"><g clip-rule="evenodd" fill-rule="evenodd"><path d="m122.018 147.199h239.528c32.372 0 32.372 43.739 0 43.739h-239.528c-32.343 0-32.343-43.739 0-43.739z" fill="#ffec41"/><path d="m360.639 147.199c-6.151-51.732-38.013-83.735-78.662-98.815v98.815zm-92.665-112.224c-13.351-9.468-39.033-9.468-52.356 0v112.224h52.356zm-66.359 13.409c-40.648 15.08-72.51 47.083-78.689 98.815h78.689z" fill="#f60"/><path d="m281.977 48.384c-1.956-.737-3.94-1.417-5.953-2.069-1.049-4.649-3.969-8.447-8.05-11.339v112.224h14.003zm-66.359-13.409c-4.082 2.92-7.001 6.69-8.079 11.339-1.984.652-3.969 1.332-5.925 2.069v98.815h14.003v-112.223z" fill="#dc3300"/><path d="m347.628 190.938c-1.531 50.995-13.408 85.748-40.734 117.78-41.442 48.586-91.077 48.586-132.52 0-27.298-32.031-39.175-66.784-40.734-117.78z" fill="#fc9"/><path d="m104.698 484.125c.822-37.616-1.616-74.013-8.844-104.343-22.677 13.549-40.649 32.74-49.294 60.406-3.09 9.978-7.229 25.739-11.736 43.937zm341.774 0c-4.536-18.198-8.646-33.959-11.764-43.937-8.618-27.666-26.589-46.857-49.266-60.406-7.229 30.331-9.695 66.728-8.873 104.343z" fill="#bddfdf"/><path d="m104.698 484.125c.822-37.616-1.616-74.013-8.844-104.343 21.401-12.756 46.998-20.495 72.907-25.512 17.008 48.784 28.091 61.654 71.887 111.005 43.795-49.351 54.879-62.22 71.887-111.005 25.909 5.017 51.505 12.756 72.907 25.512-7.229 30.331-9.695 66.728-8.873 104.343z" fill="#ff5d27"/><path d="m66.629 323.883c-39.515 8.759-71.688-29.367-55.219-66.529l30.529 36.624 25.37-4.592 9.099-24.123-30.528-36.653c39.543-9.496 71.207 29.027 55.502 66.331l52.214 62.589c-15.959 3.855-31.521 8.929-45.723 15.789z" fill="#b3b3b3"/><path d="m383.769 265.149-8.418 2.495-16.583-15.506 48.558-49.465 17.83 17.121-4.819 8.901 15.193 16.044c32.06.482 49.805 28.602 40.479 53.065 21.571 19.842 32.173 54.057 28.148 82.176l-25.965-13.153c1.446-13.266-4.762-31.238-30.302-42.179-29.764 7.682-55.559-21.402-48.047-43.994z" fill="#666"/><path d="m424.39 323.372-45.354 52.81c-14.258-7.597-30.076-13.181-46.46-17.433l67.918-59.159c3.742 10.29 12.614 19.502 23.896 23.782z" fill="#ffec41"/><path d="m240.648 465.275c-43.795-49.351-54.879-62.22-71.887-111.005 3.43-3.317 15.563-15.704 25.71-26.249 29.905 22.847 62.447 22.847 92.353 0 10.148 10.545 22.28 22.932 25.71 26.249-17.007 48.784-28.09 61.654-71.886 111.005z" fill="#ffb76f"/></g></svg>