<svg id="Capa_1" enable-background="new 0 0 512 512" height="512" viewBox="0 0 512 512" width="512" xmlns="http://www.w3.org/2000/svg"><path d="m476.022 194.536h3.373c8.433 0 13.293-9.578 8.315-16.384l-30.663-41.916c-4.116-5.626-12.513-5.626-16.629 0l-30.663 41.916c-4.979 6.806-.118 16.384 8.315 16.384h3.373l-21.012 28.722c-4.979 6.806-.118 16.384 8.314 16.384h3.373l-21.012 28.722c-4.979 6.806-.118 16.384 8.314 16.384h98.624c8.433 0 13.293-9.578 8.315-16.384l-21.012-28.723h3.373c8.433 0 13.293-9.578 8.315-16.384z" fill="#5bbd93"/><path d="m498.041 284.754h-23.179c8.437 0 13.3-9.581 8.314-16.39l-19.017-26.002c-.826-1.13-.019-2.719 1.38-2.719 8.437 0 13.3-9.581 8.314-16.38l-19.018-26.013c-.826-1.13-.019-2.719 1.38-2.719h.001c8.437 0 13.289-9.57 8.313-16.38l-27.382-37.447 3.266-4.471c4.121-5.625 12.517-5.625 16.637 0l30.658 41.918c4.976 6.81.124 16.38-8.313 16.38h-3.369l21.005 28.732c4.986 6.799.124 16.38-8.314 16.38h-3.369l21.006 28.721c4.987 6.81.124 16.39-8.313 16.39z" fill="#2db181"/><path d="m204.082 177.84h3.147c7.867 0 12.401-8.936 7.757-15.285l-28.606-39.103c-3.839-5.248-11.674-5.248-15.513 0l-28.606 39.103c-4.645 6.349-.11 15.285 7.757 15.285h3.147l-19.602 26.795c-4.645 6.349-.11 15.285 7.757 15.285h3.147l-19.602 26.795c-4.645 6.349-.11 15.285 7.757 15.285h92.005c7.867 0 12.401-8.936 7.757-15.285l-19.604-26.795h3.147c7.867 0 12.401-8.936 7.757-15.285z" fill="#5bbd93"/><path d="m224.621 261.998h-23.179c7.87 0 12.403-8.932 7.757-15.278l-17.739-24.259c-.771-1.054-.018-2.536 1.287-2.536 7.871 0 12.403-8.942 7.757-15.288l-17.749-24.258c-.771-1.054-.018-2.537 1.287-2.537h.009c7.86 0 12.403-8.942 7.757-15.288l-24.776-33.862 3.832-5.243c3.843-5.244 11.672-5.244 15.514 0l28.608 39.106c4.646 6.346.103 15.288-7.757 15.288h-3.152l19.604 26.795c4.646 6.346.113 15.288-7.757 15.288h-3.142l19.594 26.795c4.648 6.345.115 15.277-7.755 15.277z" fill="#2db181"/><path d="m512 328.809c0 29.082-23.478 47.048-37.468 55.177-14.423 8.386-33.779 15.587-57.515 21.418-43.566 10.702-100.751 16.595-161.017 16.595s-117.451-5.893-161.017-16.596c-23.735-5.831-43.092-13.032-57.515-21.418-13.99-8.128-37.468-26.094-37.468-55.176s23.478-47.059 37.468-55.187c14.423-8.375 33.78-15.587 57.515-21.417 18.461-4.533 39.384-8.2 61.935-10.93 36.345-4.389 68.033-26.785 84.176-59.648l16.112-32.822c3.771-7.685 14.711-7.685 18.482 0l22.355 45.534 8.52 17.348.041.082 56.958-116.009c3.771-7.675 14.721-7.675 18.492 0l81.621 166.251c2.38 4.842 6.13 8.87 10.796 11.569l.062.041c13.989 8.129 37.467 26.106 37.467 55.188z" fill="#bcea73"/><path d="m512 328.805c0 29.082-23.478 47.059-37.468 55.187-12.29 7.139-28.155 13.413-47.254 18.729 10.621-3.822 19.872-8.015 27.681-12.548 13.99-8.128 37.468-26.105 37.468-55.187s-23.478-47.059-37.468-55.187l-.062-.031c-4.667-2.71-8.417-6.737-10.796-11.569l-81.621-166.261c-.319-.639-.68-1.226-1.092-1.762l2.174-4.42c3.771-7.675 14.721-7.675 18.492 0l81.621 166.261c2.38 4.831 6.13 8.859 10.796 11.569l.062.031c13.989 8.129 37.467 26.106 37.467 55.188z" fill="#a3e440"/><ellipse cx="256" cy="328.805" fill="#68dbf9" rx="197.028" ry="52.011"/><path d="m453.032 328.805c0 28.722-88.215 52.014-197.032 52.014-105.048 0-190.893-21.706-196.713-49.047 27.64 19.903 100.061 34.109 185.041 34.109 108.818 0 197.032-23.292 197.032-52.014 0-.999-.103-1.988-.319-2.967 7.757 5.584 11.991 11.611 11.991 17.905z" fill="#24d1f8"/><path d="m377.815 237.873h-1.06c-4.268 0-7.726-3.459-7.726-7.726s3.459-7.726 7.726-7.726h1.06c4.268 0 7.726 3.459 7.726 7.726s-3.459 7.726-7.726 7.726z" fill="#a3e440"/><path d="m244.153 242.61h-1.06c-4.268 0-7.726-3.459-7.726-7.726s3.459-7.726 7.726-7.726h1.06c4.268 0 7.726 3.459 7.726 7.726s-3.458 7.726-7.726 7.726z" fill="#2db181"/><path d="m407.074 264.455h-1.06c-4.268 0-7.726-3.459-7.726-7.726s3.459-7.726 7.726-7.726h1.06c4.268 0 7.726 3.459 7.726 7.726.001 4.267-3.458 7.726-7.726 7.726z" fill="#5bbd93"/><path d="m306.561 211.687-10.868 20.954c-1.37 2.658-4.069 4.172-6.861 4.172-1.195 0-2.411-.278-3.554-.865-3.781-1.968-5.264-6.624-3.297-10.415l16.061-31.194z" fill="#a3e440"/><g fill="#9ce6fb"><path d="m161.109 322.451c-3.463 0-6.614-2.345-7.49-5.857-1.034-4.14 1.485-8.334 5.625-9.368 5.971-1.49 12.969-2.278 20.235-2.278s14.263.788 20.235 2.278c4.14 1.033 6.658 5.227 5.625 9.367s-5.226 6.659-9.367 5.626c-4.767-1.19-10.47-1.818-16.493-1.818-6.024 0-11.727.629-16.493 1.818-.628.157-1.258.232-1.877.232z"/><path d="m266.167 349.206c-.62 0-1.248-.075-1.876-.232-4.767-1.189-10.47-1.818-16.494-1.818s-11.727.629-16.494 1.818c-4.14 1.034-8.333-1.486-9.367-5.626-1.032-4.14 1.486-8.334 5.627-9.367 5.972-1.49 12.969-2.278 20.234-2.278s14.263.788 20.234 2.278c4.141 1.033 6.659 5.227 5.627 9.367-.877 3.512-4.028 5.858-7.491 5.858z"/><path d="m396.185 333.249c-.62 0-1.25-.075-1.877-.232-4.766-1.19-10.469-1.818-16.493-1.818s-11.727.629-16.493 1.818c-4.135 1.031-8.334-1.484-9.367-5.625-1.034-4.14 1.485-8.334 5.625-9.368 5.971-1.49 12.969-2.278 20.235-2.278s14.265.788 20.235 2.278c4.14 1.034 6.659 5.227 5.625 9.368-.876 3.512-4.027 5.857-7.49 5.857z"/></g></svg>