<?xml version="1.0" encoding="iso-8859-1"?>
<!-- Generator: Adobe Illustrator 19.0.0, SVG Export Plug-In . SVG Version: 6.00 Build 0)  -->
<svg version="1.1" id="Layer_1" xmlns="http://www.w3.org/2000/svg" xmlns:xlink="http://www.w3.org/1999/xlink" x="0px" y="0px"
	 viewBox="0 0 512 512" style="enable-background:new 0 0 512 512;" xml:space="preserve">
<path style="fill:#84C9FE;" d="M304.526,506.592H207.48c-9.423,0-17.062-7.639-17.062-17.062v-99.79h131.168v99.79
	C321.588,498.954,313.949,506.592,304.526,506.592z"/>
<path style="fill:#70B9E5;" d="M290.322,389.74v87.603c0,16.154-13.096,29.249-29.249,29.249h43.455
	c9.423,0,17.062-7.639,17.062-17.062v-99.79H290.322z"/>
<path style="fill:#FEE570;" d="M191.741,402.543h128.378c10.7,0,19.983-7.314,22.564-17.699
	c6.502-26.146,16.582-51.39,30.036-75.001c11.154-19.573,17.525-42.222,17.525-66.361c0-74.775-61.138-135.271-136.153-134.226
	c-72.621,1.011-131.753,60.523-132.323,133.149c-0.19,24.266,6.058,47.055,17.14,66.765c13.444,23.913,23.666,49.377,30.285,75.738
	C171.792,395.262,181.065,402.543,191.741,402.543z"/>
<g>
	<path style="fill:#FDBF00;" d="M254.09,109.255c-4.62,0.065-9.186,0.368-13.686,0.895c66.757,7.76,118.573,64.493,118.573,133.333
		c0,24.139-6.372,46.79-17.525,66.361c-13.454,23.611-23.534,48.854-30.036,75.001c-2.582,10.384-11.864,17.699-22.564,17.699
		h31.266c10.7,0,19.983-7.314,22.564-17.699c6.502-26.146,16.582-51.39,30.036-75.001c11.154-19.573,17.525-42.222,17.525-66.361
		C390.244,168.707,329.106,108.21,254.09,109.255z"/>
	<path style="fill:#FDBF00;" d="M256.004,92.113c-4.981,0-9.019-4.038-9.019-9.019V14.427c0-4.981,4.038-9.019,9.019-9.019
		c4.981,0,9.019,4.038,9.019,9.019v68.667C265.023,88.075,260.985,92.113,256.004,92.113z"/>
	<path style="fill:#FDBF00;" d="M77.686,270.423H9.019c-4.981,0-9.019-4.038-9.019-9.019c0-4.981,4.038-9.019,9.019-9.019h68.667
		c4.981,0,9.019,4.038,9.019,9.019C86.705,266.385,82.667,270.423,77.686,270.423z"/>
	<path style="fill:#FDBF00;" d="M502.981,270.43h-68.667c-4.981,0-9.019-4.038-9.019-9.019s4.038-9.019,9.019-9.019h68.667
		c4.981,0,9.019,4.038,9.019,9.019S507.962,270.43,502.981,270.43z"/>
	<path style="fill:#FDBF00;" d="M129.916,144.338c-2.308,0-4.617-0.88-6.377-2.642L74.983,93.14c-3.522-3.522-3.522-9.233,0-12.754
		c3.522-3.522,9.233-3.522,12.754,0l48.555,48.555c3.522,3.522,3.522,9.233,0,12.754
		C134.533,143.457,132.224,144.338,129.916,144.338z"/>
	<path style="fill:#FDBF00;" d="M430.639,445.072c-2.308,0-4.617-0.88-6.377-2.642l-48.555-48.555
		c-3.522-3.522-3.522-9.233,0-12.754c3.522-3.522,9.233-3.522,12.754,0l48.555,48.555c3.522,3.522,3.522,9.233,0,12.754
		C435.255,444.191,432.948,445.072,430.639,445.072z"/>
	<path style="fill:#FDBF00;" d="M81.355,445.067c-2.308,0-4.617-0.88-6.377-2.642c-3.522-3.522-3.522-9.233,0-12.754l48.555-48.555
		c3.522-3.522,9.233-3.522,12.754,0c3.522,3.522,3.522,9.233,0,12.754l-48.555,48.555C85.972,444.185,83.664,445.067,81.355,445.067
		z"/>
	<path style="fill:#FDBF00;" d="M382.09,144.342c-2.308,0-4.617-0.88-6.377-2.642c-3.522-3.522-3.522-9.233,0-12.754l48.555-48.555
		c3.522-3.522,9.233-3.522,12.754,0c3.522,3.522,3.522,9.233,0,12.754L388.467,141.7
		C386.706,143.462,384.397,144.342,382.09,144.342z"/>
	<path style="fill:#FDBF00;" d="M297.292,302.983h-8.488c-4.981,0-9.019-4.038-9.019-9.019c0-4.981,4.038-9.019,9.019-9.019h8.488
		c4.981,0,9.019,4.038,9.019,9.019C306.311,298.945,302.272,302.983,297.292,302.983z"/>
</g>
<path style="fill:#9DD7FC;" d="M190.42,473.762v15.769c0,0.771,0.069,1.525,0.168,2.269h130.831
	c0.099-0.744,0.168-1.498,0.168-2.269v-15.769H190.42z"/>
<path style="fill:#49BAED;" d="M290.322,477.343c0,5.261-1.396,10.193-3.827,14.458h34.924l0,0c0.041-0.309,0.073-0.622,0.101-0.934
	c0.035-0.441,0.067-0.884,0.067-1.335v-15.769h-31.266V477.343L290.322,477.343z"/>
<rect x="190.422" y="410.366" style="fill:#9DD7FC;" width="131.173" height="18.038"/>
<rect x="290.317" y="410.366" style="fill:#49BAED;" width="31.266" height="18.038"/>
<rect x="190.422" y="442.065" style="fill:#9DD7FC;" width="131.173" height="18.038"/>
<rect x="290.317" y="442.065" style="fill:#49BAED;" width="31.266" height="18.038"/>
<g>
	<path style="fill:#FEF3CA;" d="M213.761,225.852c-6.002,7.658-10.609,16.371-13.559,25.644c-0.776,2.439-3.284,3.876-5.764,3.24
		c-14.188-3.642-28.374-7.285-42.561-10.927c-2.677-0.688-4.219-3.499-3.365-6.128c5.622-17.303,13.581-32.388,24.724-46.77
		c1.692-2.184,4.882-2.492,6.958-0.667c11,9.674,21.999,19.349,32.999,29.023C215.115,220.956,215.34,223.838,213.761,225.852z"/>
	<path style="fill:#FEF3CA;" d="M253.219,198.481c-9.272,2.95-17.985,7.556-25.643,13.557c-2.014,1.579-4.897,1.354-6.588-0.568
		c-9.674-11-19.349-21.999-29.023-32.999c-1.824-2.074-1.516-5.265,0.667-6.958c14.381-11.143,29.466-19.102,46.77-24.724
		c2.629-0.854,5.44,0.688,6.128,3.365c3.643,14.188,7.285,28.374,10.927,42.561C257.094,195.197,255.657,197.706,253.219,198.481z"
		/>
</g>
<g>
	<path style="fill:#FDBF00;" d="M247.386,402.543v-99.558h3.808c4.981,0,9.019-4.038,9.019-9.019c0-4.981-4.038-9.019-9.019-9.019
		h-12.827c-4.981,0-9.019,4.038-9.019,9.019v108.577H247.386z"/>
</g>
<g>
</g>
<g>
</g>
<g>
</g>
<g>
</g>
<g>
</g>
<g>
</g>
<g>
</g>
<g>
</g>
<g>
</g>
<g>
</g>
<g>
</g>
<g>
</g>
<g>
</g>
<g>
</g>
<g>
</g>
</svg>
