<svg id="Capa_1" enable-background="new 0 0 512 512" height="512" viewBox="0 0 512 512" width="512" xmlns="http://www.w3.org/2000/svg"><g><path d="m213.216 7.304h-12.25l-23.596 12.484-22.581 24.357-17.76 38.058v60.131h144.873l4.475-6.998v-32.326c-.001-45.558-31.127-84.193-73.161-95.706z" fill="#665e68"/><path d="m234.053 276.146-1.691-.655c-2.808-1.085-4.673-3.787-4.682-6.813l-.02-28.239c-11.349 7.427-24.895 11.763-39.442 11.763-1.608 0-3.191-.057-4.759-.145v69.153c1.621.075 3.196.114 4.659.116 5.143.006 12.231-.546 17.077-1.589l-.084-9.779 28.944-27.683v-6.129z" fill="#ffcebe"/><path d="m140.054 103.01c0-45.558 31.126-84.193 73.161-95.706-8.308-2.276-17.039-3.498-26.043-3.498-54.562 0-99.204 44.642-99.204 99.204v32.326l4.828 6.998h52.086l-4.828-6.998z" fill="#544e55"/><path d="m152.334 508.194 4.822-2.45h60.808l3.809 2.45 1.234-.886 26.418-191.6h-5.581l-16.461 17.592-9.141-3.595h-62.139l-8.711 3.595-15.692-15.461h-5.92z" fill="#b5dcff"/><path d="m207.301 399.322-2.022.368-14.716 105.293 2.028 3.212h29.182l.325-1.554z" fill="#bd7b62"/><path d="m202.047 361.215-3.872-2.036h-21.651l-4.225 2.036-20.143 146.089.179.89h40.257l14.71-108.873z" fill="#ad6a50"/><path d="m187.054 252.182c-15.555-.211-29.233-4.608-40.432-11.851l.001 28.303c0 3.018-1.451 4.796-3.121 5.93l-3.446 1.346v6.366l28.181 26.498v6.14l1.015 4.669c5.009 1.061 12.085 1.657 17.803 1.73v-69.131z" fill="#ffb1a0"/><path d="m208.577 319.583-5.449-1.589c-.002-.003-.005-.006-.007-.01.001.003.003.006.005.009-4.845 1.043-9.865 1.595-15.009 1.589-5.878-.007-11.488-.617-16.807-1.744l-4.343.83-10.864 10.402v4.426l16.196 27.719h29.748l16.196-27.719v-3.791z" fill="#bd7b62"/><path d="m374.198 372.379-12.319-34.813c-7.123-10.198-16.7-18.13-27.152-22.432-2.519-.975-27.935-10.818-52.832-20.461l-2.869 3.782 2.638 65.29-22.597 41.102 10.656 28.838-19.391 65.207 4.403 9.301h106.408c7.291 0 13.202-5.911 13.202-13.202 0-4.443 0-113.973 0-118.405 0-1.412-.058-2.813-.147-4.207z" fill="#665e68"/><path d="m106.667 441.045 9.81-26.048-20.974-115.696-3.283-4.711-35.747 13.961-6.978 4.112-15.223 27.909v160.519l5.201 4.884 6.099 2.218h73.801l4.381-10.992z" fill="#665e68"/><g fill="#544e55"><path d="m36.197 494.992c0-4.523 0-133.777 0-138.286 0-20.739 9.212-37.159 20.276-48.155l-16.854 6.583c-16.938 6.971-39.619 28.905-39.619 61.452v118.405c0 7.291 5.911 13.202 13.202 13.202h36.197c-7.291.001-13.202-5.91-13.202-13.201z"/><path d="m68.714 508.194v-117.378c0-4.204-3.408-7.612-7.612-7.612s-7.612 3.408-7.612 7.612v117.378z"/><path d="m320.854 508.194v-117.378c0-4.204-3.408-7.612-7.612-7.612s-7.612 3.408-7.612 7.612v117.378z"/></g><path d="m169.792 305.646-29.737-29.738-16.301 6.367-1.695 4.136 3.891 31.427 2.645 2.702 13.151 13.151c3.91 3.911 10.251 3.911 14.161 0l13.885-13.885c3.91-3.909 3.91-10.25 0-14.16z" fill="#dbedff"/><path d="m250.332 282.45c-7.556-2.926-13.436-5.204-16.279-6.304l-29.5 29.5c-3.911 3.91-3.911 10.251 0 14.161l13.885 13.885c3.91 3.911 10.251 3.911 14.161 0l12.88-12.88 3.778-2.974 3.89-31.427z" fill="#dbedff"/><g><path d="m500.343 276.978c-2.672 0-5.265-1.41-6.657-3.91l-27.379-49.17c-2.045-3.672-.725-8.308 2.948-10.353s8.308-.725 10.353 2.947l27.379 49.17c2.045 3.672.725 8.308-2.948 10.353-1.172.653-2.443.963-3.696.963z" fill="#938493"/></g><g><path d="m431.053 276.978c-1.253 0-2.523-.31-3.696-.963-3.673-2.045-4.993-6.68-2.948-10.353l27.379-49.17c2.045-3.673 6.681-4.991 10.353-2.947 3.673 2.045 4.993 6.68 2.947 10.353l-27.379 49.17c-1.391 2.501-3.984 3.91-6.656 3.91z" fill="#938493"/></g><g><path d="m284.295 276.978c-1.253 0-2.523-.31-3.696-.963-3.672-2.045-4.992-6.68-2.947-10.353l27.379-49.17c2.046-3.672 6.68-4.991 10.353-2.947 3.672 2.045 4.992 6.68 2.947 10.353l-27.379 49.17c-1.392 2.501-3.985 3.91-6.657 3.91z" fill="#938493"/></g><g><path d="m353.585 276.978c-2.672 0-5.265-1.41-6.657-3.91l-27.379-49.17c-2.045-3.672-.725-8.308 2.947-10.353 3.673-2.045 8.308-.725 10.353 2.947l27.379 49.17c2.045 3.672.725 8.308-2.947 10.353-1.172.653-2.443.963-3.696.963z" fill="#938493"/></g><path d="m282.536 163.646 10.402-8.753 3.001-8.899c-4.849-9.249-14.535-15.562-25.702-15.562-3.43 0-6.719.6-9.774 1.693l-4.779 3.92v27.601z" fill="#ffcebe"/><path d="m270.237 161.556c-3.46 0-6.777-.609-9.854-1.72l-4.699-4.309v26.894l4.699 4.309c3.077 1.111 6.394 1.72 9.854 1.72 16.021 0 29.008-12.988 29.008-29.009 0-4.854-1.198-9.426-3.307-13.447-4.848 9.249-14.535 15.562-25.701 15.562z" fill="#ffb1a0"/><path d="m78.406 145.994v4.797l13.883 12.855h25.372v-28.31l-3.78-3.211c-3.054-1.093-6.343-1.693-9.774-1.693-11.166.001-20.852 6.314-25.701 15.562z" fill="#ffcebe"/><path d="m104.108 161.556c-11.167 0-20.853-6.313-25.702-15.562-2.108 4.021-3.307 8.593-3.307 13.447 0 16.021 12.987 29.009 29.008 29.009 3.454 0 6.765-.607 9.838-1.714l3.716-3.976v-26.894l-3.716 3.976c-3.072 1.107-6.383 1.714-9.837 1.714z" fill="#ffb1a0"/><g><path d="m392.319 353.602c-4.204 0-7.612-3.408-7.612-7.612v-173.241c0-4.204 3.408-7.612 7.612-7.612s7.612 3.408 7.612 7.612v173.242c0 4.204-3.408 7.611-7.612 7.611z" fill="#dbedff"/></g><g><path d="m480.268 223.905h-175.284c-4.204 0-7.612-3.408-7.612-7.612s3.408-7.612 7.612-7.612h175.284c4.204 0 7.612 3.408 7.612 7.612s-3.408 7.612-7.612 7.612z" fill="#dbedff"/></g><g><g><g><g><path d="m459.856 270.202v7.18l5.083 13.529 7.386 8.64 7.559 2.85c4.234-.624 8.164-2.696 10.942-6.013 5.935-7.088 9.51-16.217 9.51-26.185h-40.48z" fill="#ffe559"/></g></g></g><g><g><g><path d="m471.922 296.387c-5.935-7.088-9.51-16.217-9.51-26.185h-31.352c0 9.968 3.575 19.098 9.51 26.185 3.357 4.009 8.388 6.233 13.618 6.233h23.02c1.414 0 2.81-.176 4.166-.493-3.659-.853-7.003-2.815-9.452-5.74z" fill="#ffd500"/></g></g></g><g><g><g><path d="m313.098 270.202v7.18l5.083 13.529 7.386 8.64 7.559 2.85c4.234-.624 8.164-2.696 10.942-6.013 5.935-7.088 9.51-16.217 9.51-26.185h-40.48z" fill="#ffe559"/></g></g></g><g><g><g><path d="m325.164 296.387c-5.935-7.088-9.51-16.217-9.51-26.185h-31.352c0 9.968 3.575 19.098 9.51 26.185 3.357 4.009 8.388 6.233 13.618 6.233h23.02c1.414 0 2.81-.176 4.166-.493-3.658-.853-7.002-2.815-9.452-5.74z" fill="#ffd500"/></g></g></g><g><g><g><path d="m424.476 337.566h-27.849l-1.512.428-3.106 2.071-2.071 4.375v22.623l2.561 3.318 2.806 1.648 2.066.35h27.105c4.653 0 8.425-3.772 8.425-8.425v-17.963c0-4.653-3.772-8.425-8.425-8.425z" fill="#ffe559"/></g></g></g><g><g><g><path d="m390.478 363.954v-17.963c0-4.653 3.772-8.425 8.425-8.425h-38.741c-4.653 0-8.425 3.772-8.425 8.425v17.963c0 4.653 3.772 8.425 8.425 8.425h38.741c-4.653 0-8.425-3.772-8.425-8.425z" fill="#ffd500"/></g></g></g><g><g><g><path d="m402.535 197.954h-1.397l-4.542 2.131-3.14 6.546v20.495l4.08 5.841 3.173 1.47 1.826.197c4.794-1.06 8.383-5.329 8.383-10.443v-15.794c0-5.114-3.589-9.383-8.383-10.443z" fill="#ffe559"/></g></g></g><g><g><g><path d="m394.153 224.191v-15.794c0-5.113 3.588-9.382 8.382-10.442-.747-.165-1.522-.259-2.319-.259h-15.795c-5.91 0-10.702 4.791-10.702 10.702v15.794c0 5.91 4.791 10.702 10.702 10.702h15.795c.797 0 1.571-.094 2.319-.259-4.794-1.062-8.382-5.331-8.382-10.444z" fill="#ffd500"/></g></g></g></g><g><path d="m504.388 277.813h-77.382c-4.204 0-7.612-3.408-7.612-7.612s3.408-7.612 7.612-7.612h77.382c4.204 0 7.612 3.408 7.612 7.612s-3.408 7.612-7.612 7.612z" fill="#dbedff"/></g><g><path d="m357.632 277.813h-77.382c-4.204 0-7.612-3.408-7.612-7.612s3.408-7.612 7.612-7.612h77.382c4.204 0 7.612 3.408 7.612 7.612-.001 4.204-3.409 7.612-7.612 7.612z" fill="#dbedff"/></g><path d="m221.773 508.194h32.962l19.525-68.747c1.313-4.623.979-9.558-.944-13.962l-5.231-11.979c-2.964-6.788-2.082-14.642 2.314-20.603l13.137-17.812c2.985-4.047 4.397-9.042 3.973-14.053l-5.614-66.365c-11.376-4.406-22.637-8.767-31.563-12.224z" fill="#7b6c79"/><path d="m123.753 282.275-31.533 12.316-5.62 66.447c-.424 5.011.988 10.006 3.973 14.053l13.137 17.812c4.396 5.961 5.279 13.815 2.314 20.603l-5.231 11.979c-1.923 4.404-2.257 9.339-.944 13.962l19.525 68.747h32.961z" fill="#7b6c79"/><path d="m210.03 94.699c-7.357 3.569-15.006 5.92-22.858 5.92-3.861 0-7.673-.574-11.426-1.576h-9.822l-7.499 16.905v100.346l41.398 35.14 12.122.824c28.172-10.012 48.518-37.226 48.518-68.674v-57.76c0-25.906-27.126-42.433-50.433-31.125z" fill="#ffdecf"/><g><path d="m163.103 184.119v-58.296c0-11.164 5.045-20.577 12.644-26.781-3.878-1.036-7.693-2.53-11.432-4.343-23.306-11.308-50.433 5.219-50.433 31.124v58.296c0 37.73 29.541 72.193 74.236 72.244 8.341.01 16.356-1.451 23.828-4.107-30.14-10.203-48.843-38.127-48.843-68.137z" fill="#ffcebe"/></g></g></svg>