<svg clip-rule="evenodd" fill-rule="evenodd" height="512" image-rendering="optimizeQuality" shape-rendering="geometricPrecision" text-rendering="geometricPrecision" viewBox="0 0 1.70666 1.70666" width="512" xmlns="http://www.w3.org/2000/svg"><g id="Layer_x0020_1"><path d="m1.67763 1.70593c-.00005906 0-.00016929 0-.00027953 0h-1.64833c-.00625591 0-.0121575-.00294488-.0159409-.00793701-.00377953-.005-.00498425-.0114764-.00327559-.0174961l.122106-.430571c.0302087-.124685.267075-.176807.405563-.196732.00785827-.0011378.0156811.00252756.0198583.00930709l.150701.244776.130528-.140669c.00756299-.00816142.0217283-.00816142.0292913 0l.130512.140669.150689-.24476c.00417323-.00677165.0119488-.010437.019874-.00930709.138488.0199252.37537.072063.405756.197453l.121035.426744c.00122047.00259843.00191339.00549606.00191339.00853543-.00000394.0110315-.00895276.0199882-.0199961.0199882z" fill="#58595b"/><path d="m.856382.953421c-.163024 0-.298736-.145319-.315709-.338-.00035433-.00400394.0005-.00783465.00225591-.0111339l.0246535-.226024.0198425.00211024-.0198819-.00216929c.00048819-.00446457.00240945-.0084252.00525591-.0114724l.129287-.160319.0155472.0125-.0155669-.0125551c.00472441-.00585827.0120787-.00835039.0190039-.00714961l.256567.0285079-.00218898.0198425.00220866-.019878c.00129528.00014173.00254724.00040945.00374803.00077953l.206752.0465197-.00437402.0194528.00438976-.0195118c.0105039.00235827.0172008.0125906.0152874.0230866l-.0291339.312028c-.00026378.00292126-.00114961.00564173-.00250787.00803543-.0178268.188882-.154697.33535-.315437.33535z" fill="#ffddcf"/><path d="m.560567.633673c-.00717717 0-.013878-.0038622-.0174449-.0102441-.118287-.211748-.0854803-.354445-.0371063-.436843.0672795-.114638.207504-.18585.365961-.18585.14315 0 .265768.0598898.32802.160209.0496535.0800394.0848701.223787-.0293228.454185-.00373622.00750787-.0118228.0118819-.0200512.0109961-.00833858-.00090158-.0152205-.00691339-.0172362-.0150433l-.0448071-.18015c-.00715748-.0288071-.0115157-.0504449-.0144724-.0654449-.013063.0124803-.0328346.0289803-.0630157.0455039-.0954055.0522362-.219618.0654055-.362118.037622-.0129488.0179016-.0435472.068-.0690118.169909-.00198031.00795276-.00863386.013878-.016752.0149606-.00088189.00013386-.00176772.00018898-.00264173.00018898z" fill="#8c3f0a"/><path d="m.986937 1.35372-.133764-.144154-.133744.144157c-.00379921.00408268-.00911811.0063937-.0146417.0063937l-.00195669-.00011024c-.0026063-.00025591-.00510236-.00101575-.0073622-.00220866l.15587.345091c.00045276.00099606.00082677.00200787.00112205.0030315h.00174016c.00029528-.00102362.00066929-.00203543.00112205-.0030315l.155937-.345244c-.00235039.00129528-.0049685.00212598-.00770866.0023937l-.00196063.00007874c-.00552362 0-.0108346-.00229921-.0146535-.00639764z" fill="#fff"/><path d="m.936079 1.66733c-.00007087 0-.0001811 0-.00027953 0l-.0833386.0385984-.0818819-.0385984c-.00569291 0-.0111024-.00242913-.0148898-.00664567-.0037874-.00424803-.00559055-.00988189-.0049685-.0155315l.0385512-.310087c.00112205-.0101181.00966929-.0177913.0198543-.0177913h.088126c.010185 0 .018748.00767323.0198701.0177913l.038189.306799c.00048819.00174409.00076378.00359055.00076378.00549606-.00001575.0110118-.00895276.0199685-.0199961.0199685z" fill="#db4360"/><path d="m.912874 1.35724h-.11937c-.00868504 0-.0163898-.00562205-.0190394-.0139055l-.022063-.0689528c-.00219291-.00687008-.0005315-.0143937.00438189-.0196772l.081752-.0881181c.00754724-.00814567.0217283-.00817323.0292913 0l.0817598.0881181c.00491732.00528346.00659449.0128228.00437008.019689l-.0220787.0689528c-.00262992.00827559-.0103189.0138937-.0190039.0138937z" fill="#d61a3e"/><path d="m.704787 1.36012c-.00064961 0-.00130709-.00003937-.00195669-.00011024-.0062126-.0006063-.0117795-.00409449-.0150591-.00940945l-.141929-.271063c-.00487008-.0078937-.00364961-.0181181.00294488-.0246614l.0423189-.0719449c.00699606-.00693701.0180118-.00775591.025937-.00188583l.24802.183063c.00456299.00337008.00749606.0085315.00801969.0141969.00052362.00566535-.00138976.0112835-.00524409.0154567l-.148409.159965c-.00379921.00408268-.00911811.0063937-.0146417.0063937z" fill="#e6e6e6"/><path d="m1.00159 1.36012c-.00552362 0-.0108346-.00229921-.0146535-.00639764l-.148402-.159929c-.00387008-.00417323-.00578346-.00979921-.00524409-.0154567.00052756-.00566535.00345669-.0108268.00803543-.0141969l.24802-.183063c.00794882-.00587008.0189291-.00505118.0259528.00188583l.0452008.0708268c.00659449.00655118.00781496.0167638.00294488.0246614l-.144823.272181c-.00327559.00531496-.00885433.00879921-.0150709.00940945-.00066142.00004331-.00131102.00007874-.00196063.00007874z" fill="#e6e6e6"/><path d="m.912197 1.70593h-.0579961c.00029528-.00102362.00066929-.00203543.00112205-.0030315l.276906-.613063.0168189-.0273189c.00417323-.00677165.0119488-.010437.019874-.00930709.0522283.00751575.118449.0196142.182307.0384921l-.0356339.0624213.0520827.0502126c.0042874.00415354.00673228.00983858.00677953.0157795.0000315.00596457-.00232283.0116772-.00655906.0158622l-.455701.469953z" fill="#414042"/><path d="m.852461 1.70593h-.0579921l-.455705-.469953c-.00423622-.0041811-.00659055-.00989764-.00655906-.0158583.00004724-.00594882.00249213-.0116339.00677953-.0157835l.0520827-.0502126-.0357008-.0625394c.0637913-.0188071.129929-.0308819.182102-.0383898.00785827-.0011378.0156811.00252756.0198583.00930709l.0178701.0290276.276142.61137c.00045276.00099213.00082677.00200787.00112205.0030315z" fill="#414042"/><path d="m.64011.852709-.0293583.125217c.0022126.00064173.00434646.0016811.00629134.00312205l.236173.174319.23613-.174287c.00195276-.00144094.00408661-.00248031.00629921-.00312205l-.0283543-.120945c-.0564921.0599685-.130732.0964094-.210909.0964094-.0832795 0-.159433-.0379252-.216272-.100713z" fill="#fcc4ae"/><path d="m.64011.852709-.00371654.0158465c.0337087.0355315.0747992.063878.122862.081185.0312126.0112402.0639488.0170118.097126.0170118.0280984 0 .055937-.00428346.0827717-.0125945.0513189-.0158898.0955315-.0445866.131815-.0814685l-.00367717-.0156772c-.0564921.0599685-.130732.0964094-.210909.0964094-.0832795 0-.159433-.0379252-.216272-.100713z" fill="#fcb09d"/></g></svg>