<svg height="70" viewBox="0 0 70 70" width="70" xmlns="http://www.w3.org/2000/svg" xmlns:sketch="http://www.bohemiancoding.com/sketch/ns"><g id="Page-1" fill="none" fill-rule="evenodd"><g id="flower" transform="translate(-695 -895)"><g id="leaves-leaf-green-bamboo-branch" transform="translate(698 895)"><g fill="#9ebc74"><path id="Rectangle-141" d="m46.515 6.79342131c1.7278061 6.76924539-.9153234 17.59548959-3.3658333 24.14794919-2.8318878-1.1479153.0094557-17.3787038 3.3658333-24.14794919z"/><path id="Rectangle-141" d="m63.6058329 13.2496308c-2.9520406 3.4158481-11.2739706 15.601572-18.2670829 14.6476634-1.6741402 0 10.2269199-12.18881 18.2670829-14.6476634z"/><path id="Rectangle-141" d="m39.8016667 15.362519c.9588074 2.6707909-.4496472 19.6320616-3.1658334 24.3605296-2.7946428-.4368989 0-20.4711312 3.1658334-24.3605296z"/><path id="Rectangle-141" d="m63.2695833 25.3488233c-3.7904166 4.8514315-15.2154166 10.8007817-24.7641666 11.8361761 2.4512755-4.7902752 16.8328917-11.8361761 24.7641666-11.8361761z"/><path id="Rectangle-141" d="m29.5329168 26.3558737c-2.3754165 10.5527701-2.7922453 21.3862612-6.5804168 25.9257098-2.7946429-.4368989-.1979165-18.1169017 6.5804168-25.9257098z"/><path id="Rectangle-141" d="m51.0933333 44.294374c-5.8632653 3.5909147-19.9433333 9.719119-27.2949999 7.4257455 2.8408163-3.8530028 19.363725-7.4257455 27.2949999-7.4257455z"/><path id="Rectangle-141" d="m21.8775001 32.7174638c0 4.3070501-2.1470833 19.6945864-6.0004168 24.9966062-2.7946429-.4368989-.1090686-17.2742199 6.0004168-24.9966062z"/><path id="Rectangle-141" d="m41.2245832 55.365675c-6.5043377 4.0380515-23.8249744 9.2341099-30.65125 6.1919421 5.4218925-4.7779897 22.7199751-6.1919421 30.65125-6.1919421z"/><path id="Rectangle-141" d="m35.145417 22.1246784c-.9495835 8.2535609-2.0000002 21.2168327-5.8500003 25.1195694-2.7946429-.4368989.8133332-19.7917064 5.8500003-25.1195694z"/><path id="Rectangle-141" d="m57.2991666 34.5198171c-5.8632653 3.5909147-14.9965723 11.1289702-24.7507389 10.0018742 4.6125-5.9072502 19.910943-10.0018742 24.7507389-10.0018742z"/></g><path id="Rectangle-140" d="m49.8330526 14.4161683c-2.7597202 27.6532266-48.72411713 55.1476455-48.72411713 55.1476455-1.29554264.5754201-.67518547-1.2119423-.67518547-1.2119423s42.9279173-24.9378335 49.3993026-53.9357032z" fill="#807a54"/><path id="Rectangle-141" d="m55.5391666.56146395c.530102 6.31775764-3.8607616 19.04760735-7.0041666 19.46991735 0 0-1.1096091-13.8711105 7.0041666-19.46991735z" fill="#9ebc74"/></g></g></g></svg>