<svg id="_x32_1_Leaf" viewBox="0 0 512 512" xmlns="http://www.w3.org/2000/svg"><path d="m16.3141 70.2559c-3.7085-4.7398-2.4052-11.6635 2.7715-14.7328 106.7706-63.3046 350.3159-89.4905 454.0055 97.0664 63.8364 114.8536-16.1529 272.817-16.1529 272.817s-158.3725 36.2375-269.743-51.9679c-106.2822-84.1755-121.6864-240.3082-170.8811-303.1827z" fill="#7ac74f"/><path d="m473.0911 152.5895c-103.6896-186.5569-347.2349-160.371-454.0055-97.0664-2.6164 1.5513-4.2392 4.0878-4.7297 6.8287 80.877 13.9427 263.9203 80.5457 336.7206 179.3716 95.7447 129.9727 105.8617 183.6831 105.8617 183.6831s79.9893-157.9635 16.1529-272.817z" fill="#61ab36"/><path d="m322.7636 220.2481c-.1108 0-.2222-.0039-.3345-.0107-2.7554-.1816-4.8413-2.5635-4.6597-5.3184 5.79-87.6875-24.6636-146.542-24.9722-147.126-1.2881-2.4414-.3555-5.4658 2.0845-6.7559 2.4404-1.2871 5.4629-.3604 6.7544 2.0781 1.3135 2.4805 32.0996 61.7764 26.1118 152.4619-.1748 2.6436-2.373 4.6709-4.9844 4.6709z" fill="#467c27"/><path d="m125.1869 177.3789c-2.0869 0-4.0342-1.3164-4.7378-3.4033-.8823-2.6162.5215-5.4512 3.1372-6.335 2.6611-.8975 65.981-21.8623 135.5757-9.165 2.7168.4961 4.5171 3.0996 4.0215 5.8164-.4961 2.7168-3.1074 4.5195-5.8164 4.0215-66.9707-12.2227-129.9551 8.5908-130.583 8.8018-.5293.1787-1.0679.2637-1.5972.2637z" fill="#61ab36"/><path d="m393.1938 304.4951c-.7524 0-1.5161-.1699-2.2349-.5303-66.5815-33.3359-175.0088-8.8447-176.0962-8.5928-2.6963.6172-5.3765-1.0566-5.9976-3.7461-.6216-2.6904 1.0552-5.376 3.7456-5.998 1.145-.2637 28.4575-6.5029 64.7109-8.5713 48.9878-2.7949 88.7241 3.25 118.1147 17.9668 2.4692 1.2363 3.4683 4.2402 2.2319 6.709-.8765 1.751-2.6416 2.7627-4.4746 2.7627z" fill="#61ab36"/><path d="m95.1247 77.5975c172.5456 48.3211 302.6234 163.1568 372.0304 328.3791 6.6945 15.9873 18.577 43.4524 24.4818 59.5126 1.3062 3.4993 3.0575 8.328 4.2078 11.9213 7.3775 25.3-28.3563 37.3833-37.7668 12.6141-.7841-2.1366-.7858-4.3488-1.3885-6.4833-2.7025-10.6001-5.8171-21.0808-9.0442-31.5657-54.3572-178.5234-178.2049-306.1905-355.4691-364.9462-2.5903-.8716-3.9833-3.6862-3.1025-6.2745.8522-2.5078 3.5323-3.8808 6.051-3.1574z" fill="#467c27"/></svg>