<svg id="Capa_1" enable-background="new 0 0 512 512" height="512" viewBox="0 0 512 512" width="512" xmlns="http://www.w3.org/2000/svg"><g><path d="m291.423 410.048-.04-75.518-1.441-.542-.572.676-33.37 57.798-1-1.732v89.614l1 5.212c41.712 0 75.839-34.128 75.839-75.839v-23.032z" fill="#edf9d9"/><path d="m256 392.462-33.796-58.537-1.439.551-.149.746-.04 74.826-40.416-23.363v23.032c0 41.711 34.128 75.839 75.839 75.839z" fill="#dbf4b2"/><g><path d="m215.187 415.688c-.034-.056-.075-.105-.108-.162l-6.489-11.253-28.429-16.433v21.876c0 35.428 24.626 65.373 57.602 73.594-13.917-13.769-22.576-32.843-22.576-53.845z" fill="#d1f19e"/></g><g><g><path d="m218.24 327.061-.684.114c-2.895.484-5.751.729-8.49.729-28.203 0-51.148-22.945-51.148-51.148 0-12.725 4.704-24.921 13.245-34.342l.609-.672-.609-.672c-8.541-9.421-13.245-21.618-13.245-34.342s4.704-24.921 13.245-34.342l.609-.672-.609-.672c-8.541-9.421-13.245-21.617-13.245-34.342 0-5.677.916-11.137 2.603-16.242-14.432-8.736-32.703-10.217-48.796-2.811-.807-1.88-1.718-3.737-2.765-5.553-14.386-24.948-46.275-33.511-71.225-19.124s-33.512 46.276-19.125 71.226c1.047 1.816 2.197 3.534 3.421 5.175-21.765 15.368-28.624 45.072-15.052 68.609 6.732 11.675 17.297 19.76 29.19 23.586-2.646 12.209-.94 25.403 5.792 37.078s17.297 19.76 29.19 23.586c-2.646 12.209-.94 25.403 5.792 37.078 14.387 24.95 46.276 33.512 71.226 19.125 2.557-1.474 4.921-3.151 7.126-4.967l66.281 38.314.041-76.558c.364-.136.726-.286 1.089-.43z" fill="#bbec6c"/><g><g><path d="m120.619 350.844c-6.732-11.675-8.438-24.869-5.792-37.078-11.892-3.826-22.457-11.911-29.19-23.586-6.732-11.675-8.438-24.869-5.792-37.078-11.892-3.826-22.457-11.911-29.19-23.586-13.572-23.536-6.714-53.24 15.051-68.609-1.223-1.64-2.374-3.359-3.421-5.175-13.427-23.284-6.86-52.607 14.355-68.112-12.71-3.236-26.644-1.72-38.905 5.35-24.95 14.387-33.512 46.276-19.125 71.226 1.047 1.816 2.197 3.534 3.421 5.175-21.765 15.368-28.624 45.072-15.052 68.609 6.732 11.675 17.297 19.76 29.19 23.586-2.646 12.209-.94 25.403 5.792 37.078s17.297 19.76 29.19 23.586c-2.646 12.209-.94 25.403 5.792 37.078 14.387 24.95 46.276 33.513 71.226 19.125 1.661-.958 3.234-2.009 4.742-3.12-13.145-3.353-24.98-11.789-32.292-24.469z" fill="#a2e62e"/></g></g><path d="m187.375 337.457 1.495-13.717c-5.2-2.244-9.959-5.323-14.1-9.073l-.085.782-1.097-1.903c-6.843-6.602-11.854-15.083-14.191-24.61l-1.151-1.996.263-2.415c-.388-2.534-.589-5.128-.589-7.769 0-6.39 1.188-12.646 3.45-18.484l2.921-26.81c-4.154-7.511-6.371-15.998-6.371-24.734 0-1.458.069-2.909.192-4.35-3.342.448-6.079 3.111-6.461 6.612l-6.096 55.941-16.44-28.509 8.317-76.324c.449-4.118-2.526-7.82-6.644-8.269-4.116-.441-7.819 2.526-8.269 6.644l-6.096 55.941-34.232-59.364c-2.069-3.589-6.656-4.82-10.244-2.75-3.588 2.069-4.82 6.655-2.75 10.244l34.232 59.364-51.47-22.746c-3.789-1.675-8.217.039-9.892 3.828-1.674 3.789.04 8.217 3.828 9.892l70.225 31.034 16.439 28.509-51.47-22.746c-3.79-1.675-8.218.039-9.892 3.828s.04 8.217 3.828 9.892l70.224 31.034 16.439 28.509-51.47-22.746c-3.788-1.674-8.217.04-9.892 3.828-1.674 3.789.04 8.217 3.828 9.892l70.224 31.034 40.698 70.578c1.389 2.408 3.911 3.755 6.504 3.755 1.271 0 2.56-.324 3.74-1.004 3.588-2.069 4.82-6.655 2.75-10.244z" fill="#97d729"/></g><g><path d="m489.969 169.371c1.223-1.64 2.374-3.359 3.421-5.175 14.387-24.95 5.824-56.839-19.125-71.226-24.95-14.387-56.839-5.824-71.226 19.125-1.047 1.816-1.958 3.672-2.765 5.553-16.093-7.406-34.364-5.925-48.796 2.811 1.687 5.105 2.603 10.564 2.603 16.242 0 12.725-4.704 24.921-13.245 34.342l-.609.672.609.672c8.541 9.421 13.245 21.617 13.245 34.342s-4.704 24.921-13.245 34.342l-.609.672.609.672c8.541 9.42 13.245 21.617 13.245 34.342 0 28.203-22.945 51.148-51.148 51.148-2.739 0-5.595-.246-8.49-.729l-.684-.114-4.464 7.732c.363.144.724.294 1.089.43l.041 76.558 66.281-38.314c2.206 1.816 4.569 3.493 7.126 4.967 24.95 14.387 56.839 5.825 71.226-19.125 6.732-11.675 8.438-24.869 5.792-37.078 11.892-3.826 22.457-11.911 29.19-23.586s8.438-24.869 5.792-37.078c11.892-3.826 22.457-11.911 29.19-23.586 13.571-23.539 6.712-53.243-15.053-68.611z" fill="#a2e62e"/><g fill="#97d729"><path d="m471.07 203.712c-1.626-3.81-6.034-5.581-9.842-3.955l-52.902 22.574 34.476-59.787c2.069-3.588.838-8.175-2.75-10.244s-8.174-.838-10.244 2.75l-34.476 59.787-6.962-57.093c-.501-4.112-4.243-7.039-8.353-6.537-4.112.501-7.039 4.241-6.537 8.353l9.379 76.908-16.657 28.886-6.962-57.093c-.376-3.083-2.572-5.502-5.381-6.306.147 1.58.222 3.172.222 4.773 0 9.155-2.446 18.03-6.993 25.801l2.97 24.352c2.629 6.232 4.023 12.974 4.023 19.875 0 2.715-.217 5.379-.627 7.981l.274 2.248-1.125 1.95c-2.337 9.527-7.348 18.008-14.191 24.61l-1.341 2.326-.118-.965c-4.131 3.688-8.858 6.721-14.023 8.924l1.667 13.673-40.672 70.531c-2.069 3.588-.838 8.175 2.75 10.244 1.18.681 2.468 1.004 3.74 1.004 2.593 0 5.115-1.347 6.504-3.755l40.672-70.531 71.262-30.408c3.81-1.626 5.581-6.032 3.955-9.842s-6.033-5.582-9.842-3.955l-52.902 22.574 16.657-28.885 71.262-30.408c3.81-1.626 5.581-6.032 3.955-9.842s-6.033-5.581-9.842-3.955l-52.902 22.574 16.657-28.885 71.262-30.408c3.812-1.628 5.583-6.034 3.957-9.844z"/><path d="m474.265 92.97c-24.95-14.387-56.839-5.824-71.226 19.125-1.047 1.816-1.958 3.672-2.765 5.553-15.778-7.261-33.652-5.983-47.946 2.303 1.783 5.257 2.754 10.889 2.754 16.75 0 13.477-5.113 25.759-13.504 35.014.361.398.707.809 1.056 1.218 13.782-22.886 42.494-31.482 66.397-20.481.807-1.88 1.718-3.737 2.765-5.553 14.387-24.95 46.276-33.512 71.226-19.125 7.039 4.059 12.773 9.512 17.056 15.809 2.068-19.854-7.404-39.998-25.813-50.613z"/></g></g></g><g><g><path d="m341.577 171.714c8.391-9.255 13.504-21.537 13.504-35.014 0-27.169-20.78-49.475-47.312-51.917.241-2.032.378-4.095.378-6.192 0-28.801-23.348-52.148-52.148-52.148s-52.148 23.348-52.148 52.148c0 2.096.138 4.16.378 6.192-26.532 2.441-47.312 24.748-47.312 51.917 0 13.477 5.113 25.759 13.504 35.014-8.391 9.255-13.504 21.537-13.504 35.014s5.113 25.759 13.504 35.014c-8.391 9.255-13.504 21.537-13.504 35.014 0 28.801 23.348 52.148 52.148 52.148 2.952 0 5.837-.272 8.655-.743l38.28 66.301 38.279-66.301c2.818.471 5.703.743 8.655.743 28.801 0 52.148-23.348 52.148-52.148 0-13.477-5.113-25.759-13.504-35.014 8.391-9.255 13.504-21.537 13.504-35.014s-5.114-25.758-13.505-35.014z" fill="#bbec6c"/></g><g><path d="m271.756 314.17c-1.001-1.734-2.937-2.676-4.928-2.462-1.776.191-3.579.295-5.406.295-28.801 0-52.148-23.348-52.148-52.148 0-13.477 5.113-25.759 13.504-35.014-8.391-9.255-13.504-21.537-13.504-35.014s5.113-25.759 13.504-35.014c-8.391-9.255-13.504-21.537-13.504-35.014 0-27.169 20.78-49.475 47.312-51.917-.24-2.032-.378-4.095-.378-6.191 0-12.857 4.662-24.619 12.375-33.71-4.03-.999-8.242-1.538-12.582-1.538-28.801 0-52.148 23.348-52.148 52.148 0 2.096.138 4.16.379 6.192-26.532 2.441-47.312 24.747-47.312 51.917 0 13.477 5.113 25.759 13.504 35.014-8.391 9.255-13.504 21.537-13.504 35.014s5.113 25.759 13.504 35.014c-8.391 9.255-13.504 21.537-13.504 35.014 0 28.801 23.348 52.148 52.148 52.148 2.952 0 5.837-.272 8.655-.743l38.277 66.301 31.056-53.791z" fill="#a2e62e"/></g><path d="m310.397 251.126c2.5-3.302 1.851-8.006-1.451-10.507s-8.007-1.851-10.507 1.451l-34.939 46.142v-33.466l46.897-61.934c2.5-3.302 1.851-8.006-1.452-10.506-3.302-2.501-8.006-1.851-10.506 1.451l-34.939 46.142v-33.466l46.897-61.934c2.5-3.302 1.851-8.006-1.452-10.506-3.302-2.501-8.006-1.851-10.506 1.452l-34.939 46.14v-61.258c0-4.142-3.358-7.5-7.5-7.5s-7.5 3.358-7.5 7.5v61.257l-34.939-46.141c-2.5-3.302-7.203-3.953-10.507-1.451-3.302 2.5-3.952 7.205-1.451 10.507l46.897 61.933v33.466l-34.939-46.141c-2.5-3.301-7.203-3.953-10.507-1.451-3.302 2.5-3.952 7.205-1.451 10.507l46.897 61.933v33.466l-34.939-46.14c-2.499-3.302-7.204-3.952-10.507-1.451-3.302 2.5-3.952 7.205-1.451 10.507l46.897 61.932v81.403c0 4.142 3.358 7.5 7.5 7.5s7.5-3.358 7.5-7.5v-81.403z" fill="#97d729"/></g></g></svg>