<svg id="Layer_1" height="512" viewBox="0 0 256 256" width="512" xmlns="http://www.w3.org/2000/svg"><g><g><g><g><g><path d="m54.616 149.115h69.824c6.18 0 12.094 1.128 17.557 3.178v-103.835c0-20.748-16.819-37.567-37.567-37.567h-29.804c-20.748 0-37.567 16.819-37.567 37.567v103.834c5.464-2.049 11.378-3.177 17.557-3.177z" fill="#58595b"/></g></g><g><g><path d="m136.998 48.458v102.248c1.705.441 3.371.975 5 1.586v-103.834c0-20.748-16.819-37.567-37.567-37.567h-5c20.748 0 37.567 16.819 37.567 37.567z" fill="#414042"/></g></g><g><g><g><g><path d="m135.528 70.448v17.592c0 3.325-.361 6.564-1.031 9.689.342.025.683.052 1.031.052 7.548 0 13.667-6.119 13.667-13.667s-6.119-13.666-13.667-13.666z" fill="#ffd2c0"/></g></g><g><g><path d="m144.137 73.506c1.91 2.351 3.058 5.345 3.058 8.609 0 7.092-5.402 12.92-12.316 13.599-.113.674-.238 1.345-.38 2.009.342.025.681.059 1.029.059 7.548 0 13.667-6.119 13.667-13.667 0-4.283-1.974-8.103-5.058-10.609z" fill="#fcc4ae"/></g></g><g><g><path d="m135.528 77.115v10.926c0 1.032-.046 2.053-.113 3.069.038 0 .075.005.113.005 3.866 0 7-3.134 7-7s-3.134-7-7-7z" fill="#f2ad97"/></g></g></g><g><g><g><path d="m43.528 88.041v-17.593c-7.548 0-13.667 6.119-13.667 13.667s6.119 13.667 13.667 13.667c.348 0 .69-.027 1.031-.052-.67-3.126-1.031-6.365-1.031-9.689z" fill="#ffd2c0"/></g></g><g><g><path d="m43.528 88.041v-10.926c-3.866 0-7 3.134-7 7s3.134 7 7 7c.038 0 .075-.005.113-.005-.066-1.016-.113-2.037-.113-3.069z" fill="#f2ad97"/></g></g></g></g><g><g><g><path d="m164.441 245.109h-149.825c-5.523 0-10-4.477-10-10v-35.994c0-27.614 22.386-50 50-50h69.824c27.614 0 50 22.386 50 50v35.994c.001 5.523-4.477 10-9.999 10z" fill="#8c3f0a"/></g></g><g><g><path d="m154.441 159.115c6.278 8.357 10 18.743 10 30v35.994c0 5.523-4.477 10-10 10h-149.825c0 5.523 4.477 10 10 10h149.824c5.523 0 10-4.477 10-10v-35.994c.001-16.358-7.856-30.878-19.999-40z" fill="#7c3108"/></g></g><g><g><path d="m157.198 161.357c7.62 8.775 12.243 20.223 12.243 32.757v35.994c0 5.523-4.477 10-10 10h-149.825c-1.466 0-2.855-.323-4.11-.89 1.569 3.471 5.053 5.89 9.11 5.89h149.824c5.523 0 10-4.477 10-10v-35.994c.001-15.079-6.685-28.589-17.242-37.757z" fill="#6d2e03"/></g></g><g><g><path d="m10.616 219.333c-1.104 0-2-.896-2-2v-18.218c0-11.966 4.588-23.308 12.92-31.935.767-.795 2.033-.816 2.828-.049.795.768.817 2.033.049 2.828-7.607 7.877-11.797 18.231-11.797 29.155v18.218c0 1.106-.895 2.001-2 2.001z" fill="#995222"/></g></g><circle cx="29.167" cy="163.34" fill="#995222" r="1.982"/><g><g><path d="m133.882 215.017 7.306-6.679c2.072-1.894 3.253-4.573 3.253-7.381v-11.843c0-27.614-22.386-50-50-50h-9.824c-27.614 0-50 22.386-50 50v11.843c0 2.808 1.18 5.486 3.253 7.381l7.306 6.679-9.114 13.027c-.941 1.344-1.445 2.945-1.445 4.586v12.479h109.824v-12.479c0-1.641-.504-3.242-1.445-4.586z" fill="#6d2e03"/></g></g><g><g><path d="m105.695 149.115h-32.333c-7.18 0-13 5.82-13 13v82.994h58.333v-82.994c0-7.18-5.82-13-13-13z" fill="#ef7816"/></g></g></g><g><g><path d="m89.529 134.04c-5.691 0-11.136-1.04-16.167-2.929v23.589c0 .916.314 1.803.889 2.515l12.167 15.052c1.601 1.98 4.621 1.98 6.222 0l12.167-15.052c.575-.712.889-1.599.889-2.515v-23.589c-5.031 1.889-10.477 2.929-16.167 2.929z" fill="#ffd2c0"/></g></g><g><g><path d="m89.529 134.04c-5.691 0-11.136-1.04-16.167-2.929v5c5.03 1.889 10.476 2.929 16.167 2.929 5.691 0 11.136-1.04 16.167-2.929v-5c-5.031 1.889-10.477 2.929-16.167 2.929z" fill="#f2ad97"/></g></g><g><g><g><path d="m89.528 134.04c-25.405 0-46-20.595-46-46v-23.467c0-4.743 3.326-8.83 7.97-9.79 6.412-1.326 15.455-3.784 22.336-7.993 5.784-3.538 9.652-6.978 12.1-9.582 2.003-2.13 5.388-2.078 7.342.097 2.017 2.246 4.942 5.217 8.993 8.722 5.798 5.016 17.082 7.681 24.888 8.988 4.828.808 8.371 4.97 8.371 9.866v23.159c0 25.405-20.594 46-46 46z" fill="#ffd2c0"/></g></g></g><g><g><g><path d="m129.638 55.772c.57 1.26.89 2.65.89 4.109v23.159c0 25.405-20.595 46-46 46-11.43 0-21.877-4.178-29.922-11.078 8.437 9.837 20.947 16.078 34.922 16.078 25.405 0 46-20.595 46-46v-23.159c0-4.009-2.378-7.523-5.89-9.109z" fill="#fcc4ae"/></g></g></g><g><g><circle cx="109.528" cy="78.407" fill="#995222" r="5.292"/></g></g><path d="m135.528 65.996-11.568 5.652c-2.575-5.394-8.068-9.139-14.432-9.139-7.964 0-14.568 5.855-15.782 13.483-2.792-.566-5.644-.566-8.436 0-1.214-7.627-7.818-13.482-15.782-13.482-6.372 0-11.87 3.754-14.442 9.158l-11.558-5.648v4.452l10.293 5.028c-.187.976-.293 1.979-.293 3.008 0 8.822 7.178 16 16 16 8.305 0 15.147-6.361 15.922-14.466 2.69-.653 5.466-.653 8.155 0 .775 8.105 7.618 14.466 15.922 14.466 8.822 0 16-7.178 16-16 0-1.037-.107-2.048-.297-3.031l10.297-5.031v-4.45zm-66 24.513c-6.617 0-12-5.383-12-12s5.383-12 12-12 12 5.383 12 12-5.383 12-12 12zm40 0c-6.617 0-12-5.383-12-12s5.383-12 12-12 12 5.383 12 12-5.383 12-12 12z" fill="#414042"/><g><g><circle cx="69.528" cy="78.407" fill="#995222" r="5.292"/></g></g><g><g><path d="m89.528 111.532c6.259 0 11.333-3.026 11.333-6.76h-22.666c0 3.733 5.074 6.76 11.333 6.76z" fill="#995222"/></g></g></g></g><g><g><g><g><path d="m249.384 225.05h-114.435c-1.105 0-2 .895-2 2v16.059c0 1.105.895 2 2 2h114.434c1.105 0 2-.895 2-2v-16.059c.001-1.104-.895-2-1.999-2z" fill="#ffc91d"/></g></g><g><g><path d="m249.384 225.05h-3v13.059c0 1.105-.895 2-2 2h-111.435v3c0 1.105.896 2 2 2h114.434c1.105 0 2-.895 2-2v-16.059c.001-1.104-.895-2-1.999-2z" fill="#ffa91a"/></g></g><g><g><g><g><path d="m145.134 225.05h7.245v20.059h-7.245z" fill="#995222"/></g></g><g><g><path d="m158.307 225.05h7.245v20.059h-7.245z" fill="#995222"/></g></g></g><g><g><g><path d="m218.781 225.05h7.245v20.059h-7.245z" fill="#995222"/></g></g><g><g><path d="m231.954 225.05h7.245v20.059h-7.245z" fill="#995222"/></g></g></g></g></g><g><g><g><path d="m250.066 159.626h-100.651c-9.215 0-16.685 7.47-16.685 16.685 0 9.215 7.47 16.685 16.685 16.685h100.651c.728 0 1.317-.59 1.317-1.317v-30.736c.001-.728-.589-1.317-1.317-1.317z" fill="#e63950"/></g></g><g><g><path d="m250.066 159.626h-3.683v27.054c0 .727-.59 1.317-1.317 1.317h-100.651c-3.327 0-6.42-.985-9.022-2.663 2.97 4.606 8.134 7.663 14.022 7.663h100.651c.728 0 1.317-.59 1.317-1.317v-30.736c.001-.729-.589-1.318-1.317-1.318z" fill="#d10028"/></g></g><g><g><path d="m251.384 166.212h-101.969c-5.578 0-10.099 4.522-10.099 10.099 0 5.578 4.522 10.099 10.099 10.099h101.968v-20.198z" fill="#f1f2f2"/></g></g><g><g><g><path d="m251.384 171.701v-2.635h-108.996c-.786.763-1.445 1.652-1.951 2.635z" fill="#e6e7e8"/></g></g><g><g><path d="m251.384 174.994h-111.972c-.056.432-.096.87-.096 1.317 0 .448.039.885.096 1.317h111.972z" fill="#e6e7e8"/></g></g><g><g><path d="m251.384 180.922h-110.947c.506.983 1.165 1.872 1.951 2.635h108.995v-2.635z" fill="#e6e7e8"/></g></g></g></g><g><g><g><path d="m246.384 159.626h-108.654c-2.761 0-5-2.239-5-5v-24.521c0-2.761 2.239-5 5-5h108.654c2.761 0 5 2.239 5 5v24.521c0 2.761-2.239 5-5 5z" fill="#893add"/></g></g><g><g><path d="m246.384 125.105v24.521c0 2.761-2.239 5-5 5h-108.654c0 2.761 2.239 5 5 5h108.654c2.761 0 5-2.239 5-5v-24.521c0-2.762-2.239-5-5-5z" fill="#6c2bc1"/></g></g><g><g><path d="m223.281 152.779h-62.449c-1.437 0-2.602-1.165-2.602-2.602v-15.623c0-1.437 1.165-2.602 2.602-2.602h62.449c1.437 0 2.602 1.165 2.602 2.602v15.623c.001 1.437-1.164 2.602-2.602 2.602z" fill="#b171f4"/></g></g><g><g><g><path d="m142.49 125.105h7.459v34.521h-7.459z" fill="#b171f4"/></g></g><g><g><path d="m234.164 125.105h7.459v34.521h-7.459z" fill="#b171f4"/></g></g></g></g><g><g><g><path d="m246.782 110.482h-109.45c-1.105 0-2 .895-2 2v10.623c0 1.105.895 2 2 2h109.45c1.105 0 2-.895 2-2v-10.623c0-1.104-.896-2-2-2z" fill="#377de2"/></g></g><g><g><path d="m246.782 110.482h-3v7.623c0 1.104-.895 2-2 2h-106.45v3c0 1.104.895 2 2 2h109.45c1.105 0 2-.896 2-2v-10.623c0-1.104-.896-2-2-2z" fill="#2266d3"/></g></g><g><g><g><g><path d="m144.959 110.482h5.725v14.623h-5.725z" fill="#414042"/></g></g><g><g><path d="m155.368 110.482h5.725v14.623h-5.725z" fill="#414042"/></g></g></g><g><g><g><path d="m223.021 110.482h5.725v14.623h-5.725z" fill="#414042"/></g></g><g><g><path d="m233.43 110.482h5.725v14.623h-5.725z" fill="#414042"/></g></g></g></g></g><g><g><g><g><path d="m134.047 192.997h104.164c7.275 0 13.173 5.898 13.173 13.173v5.708c0 7.275-5.898 13.173-13.173 13.173h-104.164c-.728 0-1.317-.59-1.317-1.317v-29.419c0-.729.59-1.318 1.317-1.318z" fill="#648940"/></g></g><g><g><path d="m244.679 194.701c1.081 1.912 1.705 4.115 1.705 6.468v5.708c0 7.275-5.898 13.173-13.173 13.173h-100.481v3.683c0 .727.59 1.317 1.317 1.317h104.164c7.275 0 13.173-5.898 13.173-13.173v-5.708c0-4.922-2.705-9.207-6.705-11.468z" fill="#5a7a39"/></g></g><g><g><path d="m132.73 199.583h105.481c3.638 0 6.586 2.949 6.586 6.586v5.708c0 3.638-2.949 6.586-6.586 6.586h-105.481z" fill="#f1f2f2"/></g></g></g><g><g><g><path d="m132.73 206.718h112.068v-.549c0-.73-.123-1.43-.343-2.086h-111.725z" fill="#e6e7e8"/></g></g><g><g><path d="m132.73 211.329v2.635h111.725c.219-.656.343-1.356.343-2.086v-.549z" fill="#e6e7e8"/></g></g></g></g></g></g></svg>