<svg id="Lime" enable-background="new 0 0 450 450" height="512" viewBox="0 0 450 450" width="512" xmlns="http://www.w3.org/2000/svg"><g clip-rule="evenodd" fill-rule="evenodd"><path d="m43.227 153.462c-6.884-28.934-.025-38.189 25.125-45.913 69.836-78.263 182.615-72.61 243.446 17.041 92.12 135.753 24.057 257.604-160.273 229.137-65.133-10.056-107.748-70.094-115.457-135.529-2.595-22.017-.552-44 7.159-64.736" fill="#91c745"/><path d="m261.404 350.728c-3.983 1.077-8.084 2.04-12.311 2.881m23.886-6.46c-3.734 1.307-7.59 2.502-11.571 3.579zm-74.282-293.604.157.014 2.028.222.043.006 1.947.241.037.005 2.022.281.037.005 1.902.292c.799.13 1.599.258 2.396.402l1.633.303 2.434.48 1.54.328c.882.194 1.759.399 2.64.609l1.394.339 2.437.634 1.953.535 2.205.645 1.661.508 2.449.795 1.671.572 2.382.85 1.7.633 2.244.881 1.607.651c.828.342 1.653.696 2.477 1.055l1.535.679 2.497 1.144 1.264.607c.926.445 1.848.901 2.766 1.369l1.145.592c.911.474 1.823.957 2.729 1.451l1.091.606c.976.541 1.952 1.093 2.919 1.663l.796.477c.985.586 1.967 1.181 2.946 1.792l.803.508c.987.625 1.971 1.263 2.951 1.916l.676.454c1.038.702 2.073 1.411 3.099 2.14l.435.312c1.05.749 2.093 1.517 3.131 2.298l.535.404c1.018.771 2.032 1.56 3.035 2.359l.598.482c.968.78 1.932 1.571 2.889 2.379l.67.572c.926.789 1.849 1.596 2.763 2.413l.634.564c.988.892 1.972 1.798 2.945 2.72l.342.326c1.001.954 1.998 1.925 2.985 2.909l.373.373c1.004 1.009 2 2.04 2.988 3.08l.272.289c.997 1.058 1.983 2.13 2.96 3.223l.266.295c.994 1.11 1.975 2.246 2.948 3.394l.205.241c.957 1.133 1.905 2.283 2.842 3.45l.272.333c.962 1.204 1.919 2.432 2.858 3.672l.13.168c.936 1.237 1.859 2.486 2.771 3.753l.154.213.073.104c.951 1.324 1.888 2.671 2.816 4.036 1.439 2.121 2.838 4.241 4.202 6.354 1.36 2.115 2.685 4.222 3.966 6.328 1.286 2.104 2.527 4.208 3.734 6.303 1.206 2.096 2.373 4.185 3.504 6.272 1.13 2.084 2.218 4.166 3.273 6.241 1.052 2.076 2.064 4.14 3.04 6.206.977 2.058 1.917 4.115 2.816 6.162.901 2.048 1.762 4.09 2.587 6.124.824 2.035 1.61 4.059 2.359 6.076.749 2.02 1.462 4.032 2.134 6.031s1.31 3.991 1.91 5.975v.002c.601 1.983 1.162 3.958 1.686 5.922.524 1.966 1.012 3.919 1.464 5.863v.003c.451 1.944.861 3.879 1.24 5.803h.003c.375 1.925.718 3.838 1.02 5.74.303 1.902.57 3.793.8 5.672h.003c.23 1.879.423 3.745.581 5.602l.003.002c.156 1.854.28 3.697.364 5.527v.002c.087 1.833.135 3.648.149 5.451.015 1.804-.005 3.593-.064 5.372h-.003c-.058 1.778-.152 3.54-.28 5.29-.128 1.748-.295 3.48-.494 5.2v.003c-.199 1.72-.434 3.425-.706 5.114v.002c-.272 1.689-.578 3.361-.917 5.019v.005c-.342 1.658-.718 3.299-1.131 4.923-.412 1.627-.858 3.237-1.338 4.83-.482 1.593-.993 3.17-1.546 4.727h-.002c-.55 1.557-1.134 3.099-1.754 4.619v.006c-.62 1.523-1.273 3.027-1.961 4.513-.687 1.483-1.408 2.957-2.165 4.401-.757 1.451-1.546 2.882-2.37 4.292h-.003c-.824 1.408-1.68 2.802-2.572 4.172v.002c-.893 1.37-1.818 2.718-2.778 4.048v.006c-.959 1.329-1.952 2.636-2.979 3.927-1.027 1.287-2.084 2.553-3.179 3.801v.003c-1.093 1.248-2.215 2.468-3.377 3.671h-.002c-1.159 1.203-2.348 2.385-3.574 3.541h-.003c-1.223 1.156-2.482 2.292-3.773 3.402v.003c-1.29 1.11-2.611 2.196-3.969 3.263h-.003c-1.355 1.066-2.741 2.106-4.163 3.124h-.003c-1.419 1.016-2.875 2.012-4.359 2.977v.003c-2.97 1.936-6.07 3.772-9.298 5.506h-.003c-1.613.867-3.263 1.709-4.937 2.522v.002c-1.677.816-3.388 1.602-5.128 2.362-1.742.763-3.515 1.498-5.318 2.208-1.807.709-3.636 1.388-5.504 2.04h-.003c-3.734 1.304-7.59 2.502-11.571 3.579h-.003c-3.983 1.077-8.084 2.04-12.311 2.881h-.003c-2.112.424-4.258.81-6.432 1.173v.006c-2.173.358-4.378.69-6.614.987v.003c-2.236.301-4.502.567-6.797.806-2.298.236-4.617.44-6.976.615h-.003c-2.353.173-4.74.317-7.153.426h-.003c-2.415.11-4.858.185-7.333.231h-.002c-2.475.045-4.977.053-7.51.028-2.532-.022-5.096-.078-7.688-.168-2.593-.09-5.215-.216-7.866-.376-2.651-.156-5.33-.353-8.036-.583-2.71-.231-5.445-.491-8.211-.792-2.766-.297-5.559-.636-8.385-1.009-2.824-.373-5.674-.777-8.556-1.223-19.122-2.951-46.677-19.035-70.079-36.686-10.895-11.122-20.062-24.168-27.305-38.452 84.257-27.885 158.673-90.534 142.681-225.227z" fill="#81b833"/><path d="m100.682 206.58c5.278 17.109-1.336 35.128-14.772 40.245-13.438 5.119-28.609-4.607-33.888-21.714-5.276-17.112 1.335-35.129 14.774-40.248 13.439-5.117 28.609 4.606 33.886 21.717" fill="#aedb70"/><path d="m105.074 354.624c-27.476 22.901-14.508 21.072 10.62 23.176 19.869 7.512 14.926 8.208 34.483-.329 33.26 7.114 38.138 2.993 71.454-4.084-22.741-22.836-45.479-45.673-68.22-68.508-18.909 13.487-35.835 29.349-48.337 49.745" fill="#5fbd2f"/><path d="m148.315 273.683c-12.943-.676-20.943-1.06-29.838 8.603-11.341 1.266-15.139-1.281-21.983 8.129-11.664 1.795-16.896-1.349-18.96 10.056-27.795 14.138-54.208 21.12-13.619 37.956 2.115 8.224 20.669 7.868 27.762 9.313 2.665 1.949 5.333 3.902 7.995 5.857 13.431 9.787 85.525 1.36 103.141-1.975-20.921-25.13-33.581-52.808-54.498-77.939" fill="#70cc42"/><path d="m193.824 370.866c-37.762-25.491-53.308-61.21-44.343-118.779 13.736-88.215 142.166-192.584 223.222-118.3 37.086 33.984 52.2 98.061 35.582 155.972-28.931 100.816-131.483 137.11-214.461 81.107" fill="#91c745"/><path d="m382.672 141.958c34.129 50.739 10.533 133.545-52.711 184.958-63.241 51.411-142.176 51.953-176.306 1.214-34.132-50.742-10.533-133.548 52.708-184.957 63.244-51.412 142.177-51.956 176.309-1.215" fill="#e3f7c3"/><path d="m364.812 156.046c28.144 41.838 4.601 109.307-47.546 151.697-52.148 42.393-117.792 48.138-145.936 6.3-28.143-41.835-6.272-112.357 45.875-154.751 52.147-42.392 119.464-45.087 147.607-3.246" fill="#c2ed85"/><path d="m256.9 218.305c10.14-8.379 23.288-7.995 29.358.861 6.073 8.856 2.775 22.833-7.368 31.215-10.141 8.379-23.289 7.995-29.359-.861-6.073-8.855-2.771-22.833 7.369-31.215" fill="#e3f7c3"/></g></svg>