<svg id="Layer_1" height="512" viewBox="0 0 512 512" width="512" xmlns="http://www.w3.org/2000/svg" data-name="Layer 1"><path d="m467.93 152.81-34.23-21.41a215.225 215.225 0 0 0 -17.83-20.17s6.58-22.2 5.48-41.22h.02c15.65 16.85 33.04 43.66 46.56 82.8z" fill="#8f4b39"/><path d="m421.35 70.01c-.67-11.69-4.25-22.19-14.03-25.61-5.98-2.09-12.7-1.3-19.33.99-18.2 6.23-35.78 23.66-35.78 23.66a164.128 164.128 0 0 1 17.81 8.13l30.67 20.37a198.524 198.524 0 0 1 15.18 13.68s6.58-22.2 5.48-41.22z" fill="#dfa97a"/><path d="m123.94 45.58c-6.53-2.41-13.21-3.29-19.26-1.18-9.84 3.43-13.41 14.04-14.07 25.82-1.06 19 5.45 41.07 5.45 41.07l.01.01a200.408 200.408 0 0 1 15.84-14.24l30.48-20.1a166.543 166.543 0 0 1 15.75-7.26s-16.56-17.63-34.2-24.12z" fill="#dfa97a"/><path d="m96.06 111.29.01.01a213.745 213.745 0 0 0 -17.77 20.1l-34.23 21.41c13.52-39.14 30.8-65.75 46.45-82.6l.09.01c-1.06 19 5.45 41.07 5.45 41.07z" fill="#8f4b39"/><path d="m352.21 69.05a164.128 164.128 0 0 1 17.81 8.13 187.431 187.431 0 0 1 30.67 20.37 198.524 198.524 0 0 1 15.18 13.68 215.225 215.225 0 0 1 17.83 20.17s45.23 59.26 31.78 123.84c-.87-9.43-6.17-17.98-11.67-24.49q-5.34-6.33-10.05-13.14l-.01.01c3.79 10.62 13.15 54.05-1.65 113.89 5.6-22.93-15.11-61.32-15.68-62.38.42 1.43 21.28 72.8-28.98 131.98 9.08-17.11-6.69-56.83-6.69-56.83s3.17 63.76-33.18 86.92c13.22-25.36 8.44-66.53 8.44-66.53s-4.4 58.08-46.63 92.26c10.24-15.81 3.43-47.78 3.43-47.78s-6.23 46.19-32.96 67.29c1.07-13.35-4.36-38.36-4.36-38.36s-1.2 47.38-28.64 67.65a1.38 1.38 0 0 1 -1.64 0c-27.45-20.27-28.7-67.65-28.7-67.65s-5.43 25.01-4.36 38.36c-26.73-21.1-32.96-67.29-32.96-67.29s-6.81 31.97 3.43 47.78c-42.23-34.18-46.63-92.26-46.63-92.26s-4.78 41.17 8.44 66.53c-36.35-23.16-33.18-86.92-33.18-86.92s-15.77 39.72-6.69 56.83c-50.26-59.18-29.4-130.55-28.98-131.98-.57 1.06-21.28 39.45-15.68 62.38-14.8-59.84-5.44-103.27-1.65-113.89l-.01-.01q-4.71 6.795-10.05 13.14c-5.5 6.51-10.8 15.06-11.67 24.49-13.45-64.58 31.78-123.84 31.78-123.84a213.745 213.745 0 0 1 17.77-20.1 200.408 200.408 0 0 1 15.84-14.24 186.739 186.739 0 0 1 30.48-20.1 166.543 166.543 0 0 1 15.75-7.26s-16.56-17.63-34.2-24.12l.1-.28c14.21-6.2 25.16-6.27 25.16-6.27l-42.76-9.76s49.96-20.82 93.38 0l-36.23-23.22s62.04-2.18 88.35 23.44a4.944 4.944 0 0 0 6.93 0c26.41-25.63 89.54-23.44 89.54-23.44l-36.23 23.22c43.42-20.82 93.38 0 93.38 0l-42.76 9.76s10.95.07 25.16 6.27l.03.09c-18.2 6.23-35.78 23.66-35.78 23.66z" fill="#b46b50"/><path d="m309.26 322.23s1.39 40.8-49.83 42.44c-.44.01-.88.03-1.31.04-.54.01-1.08.02-1.63.02h-.98c-.55 0-1.09-.01-1.63-.02-.43-.01-.87-.03-1.31-.04-51.22-1.64-49.83-42.44-49.83-42.44a38.484 38.484 0 0 0 30.7-.95 102.189 102.189 0 0 0 23.1-15.68 3.58 3.58 0 0 0 .85 1.13 87.366 87.366 0 0 0 21.17 14.55 38.484 38.484 0 0 0 30.7.95z" fill="#d3a074"/><path d="m399.24 66.23c7.58 5.29 8.93 20.58 1.45 31.32a187.431 187.431 0 0 0 -30.67-20.37c7.47-10.74 21.63-16.24 29.22-10.95z" fill="#a57b5b"/><path d="m142.39 76.96a186.739 186.739 0 0 0 -30.48 20.1c-7.47-10.74-6.73-25.54.85-30.83s22.16 0 29.63 10.73z" fill="#a57b5b"/><g fill="#965744"><path d="m252.15 476.44c-26.73-21.1-32.96-67.29-32.96-67.29s-6.81 31.97 3.43 47.78c-15.235-12.331-25.545-27.771-32.5-42.474 2.529 12.74 10.833 45.25 32.032 61.984-1.07-13.35 4.36-38.36 4.36-38.36s1.25 47.38 28.7 67.65a1.38 1.38 0 0 0 1.64 0 55.574 55.574 0 0 0 14.174-15.881c-13.735-22.388-14.514-51.769-14.514-51.769s-5.432 25.01-4.362 38.36z"/><path d="m356.609 20.022-14.429 9.248a94.164 94.164 0 0 1 28.864-8.342 134.111 134.111 0 0 0 -14.435-.906z"/><path d="m229.82 29.27-33.209-21.284a218.422 218.422 0 0 0 -33.021-1.936l21.8 13.972c14.08-.104 29.634 2.153 44.43 9.248z"/><path d="m192.62 456.93c-8.578-13.244-5.193-37.818-3.868-45.449a156.883 156.883 0 0 1 -12.762-46.811s-4.78 41.17 8.44 66.53c-36.35-23.16-33.18-86.92-33.18-86.92s-15.77 39.72-6.69 56.83a138.688 138.688 0 0 1 -22.534-36.748c2.1 20.726 9.2 52.053 32.4 66.838-13.22-25.36-8.44-66.53-8.44-66.53s4.404 58.08 46.634 92.26z"/><path d="m115.58 269.13c-.57 1.06-21.28 39.45-15.68 62.38-14.8-59.84-5.44-103.27-1.65-113.89l-.01-.01q-4.71 6.795-10.05 13.14c-5.5 6.51-10.8 15.06-11.67 24.49-13.45-64.58 31.78-123.84 31.78-123.84a213.745 213.745 0 0 1 17.77-20.1 200.408 200.408 0 0 1 15.84-14.24 186.739 186.739 0 0 1 30.48-20.1 166.543 166.543 0 0 1 15.75-7.26s-16.56-17.63-34.2-24.12l.1-.28c14.21-6.2 25.16-6.27 25.16-6.27l-42.76-9.76a141.277 141.277 0 0 1 34.516-8.342c-34.036-4.36-64.516 8.342-64.516 8.342l42.76 9.76s-10.95.07-25.16 6.27l-.1.28c17.64 6.49 34.2 24.12 34.2 24.12a166.543 166.543 0 0 0 -15.75 7.26 186.739 186.739 0 0 0 -30.48 20.1 200.408 200.408 0 0 0 -15.84 14.24 213.745 213.745 0 0 0 -17.77 20.1s-45.23 59.26-31.78 123.84c.87-9.43 6.17-17.98 11.67-24.49q5.34-6.33 10.05-13.14l.01.01c-3.79 10.62-13.15 54.05 1.65 113.89-5.6-22.93 15.11-61.32 15.68-62.38-.42 1.43-21.28 72.8 28.98 131.98-6.329-11.926-.585-34.834 3.477-47.622-14.191-44.198-2.767-83.303-2.457-84.358z"/><path d="m348.41 6.05s-48.179-1.67-77.967 15a55.536 55.536 0 0 1 11.5 8.444 4.944 4.944 0 0 0 6.93 0c13.668-13.264 37.169-19.076 56.666-21.6z"/></g><path d="m232.74 322.23h-30s-1.39 40.8 49.83 42.44c.44.01.88.03 1.31.04.54.01 1.08.02 1.63.02h.98c.55 0 1.09-.01 1.63-.02.43-.01.87-.03 1.31-.04a82.2 82.2 0 0 0 11.57-1.155c-39.425-6.915-38.26-41.285-38.26-41.285z" fill="#b58968"/><path d="m328.64 305.6a38.908 38.908 0 0 1 -50.08 15.68 87.366 87.366 0 0 1 -21.17-14.55 3.58 3.58 0 0 1 -.85-1.13 102.189 102.189 0 0 1 -23.1 15.68 38.908 38.908 0 0 1 -50.08-15.68c-6.76-8.03-68.99-101.7-22.56-156.21 32.34-37.95 59.53-31.27 78.52-12.58 9.96 9.8 16.8 16.59 16.8 16.59s6.6-6.79 16.56-16.59c18.99-18.69 46.18-25.37 78.52 12.58 46.43 54.51-15.8 148.18-22.56 156.21z" fill="#dfa97a"/><path d="m252.86 266.72c29.41-23.01 37.38 1.74 37.58 2.38-5.46 4.66-13.51 8.98-25.11 12.45.6 2.46.73 8.59-6.15 10.06a3.811 3.811 0 0 0 -2.06 1.22h-.01c-11.62-1.51-11.54-7.37-10.89-10a1.428 1.428 0 0 0 -.98-1.71c-13.14-4.12-21.54-9.35-26.71-14.92l1.81-.07s9.67-23.67 32.36.38z" fill="#50565f"/><path d="m322.84 173.06c4.19 7.27.96 17.08-6.31 21.28s-18.52 1.2-22.7-6.71c5.86-13.7 19.55-15.3 29.01-14.58z" fill="#e2e4ed"/><path d="m218.17 187.63c-4.18 7.91-15.44 10.91-22.7 6.71s-10.5-14.01-6.31-21.28v-.01c9.46-.72 23.15.88 29.01 14.58z" fill="#e2e4ed"/><path d="m213.36 305.6c-6.76-8.03-68.99-101.7-22.56-156.21 11.029-12.942 21.458-20.69 31.169-24.545-16.891-7.038-37.67-3.031-61.169 24.545-46.43 54.51 15.8 148.18 22.56 156.21a38.9 38.9 0 0 0 48.627 16.315 38.721 38.721 0 0 1 -18.627-16.315z" fill="#c6946d"/><g fill="#20374f"><path d="m153.447 262.3c-19.762 1.714-31.48 8.646-32.313 9.153a5 5 0 0 0 5.207 8.538c.188-.115 11.76-6.954 31.53-7.9 1.768 3.7 3.548 7.194 5.291 10.456-13.766 1.855-25.626 6.306-34.851 13.189a5 5 0 1 0 5.981 8.015c10.025-7.481 22.439-10.687 34.178-11.743 2.093 3.555 4.027 6.645 5.686 9.183a75.13 75.13 0 0 0 -32.48 18.451 5 5 0 1 0 6.939 7.2 65.611 65.611 0 0 1 31.66-16.762 43.244 43.244 0 0 0 12.853 12.809 44.775 44.775 0 0 0 4.748 2.646 46.869 46.869 0 0 0 13.156 28.8c10.216 10.225 25.263 15.4 44.768 15.4h.2.2c19.5 0 34.552-5.172 44.768-15.4a46.863 46.863 0 0 0 13.156-28.8 44.677 44.677 0 0 0 4.748-2.646 43.225 43.225 0 0 0 13.348-13.565 66.307 66.307 0 0 1 35.28 17.518 5 5 0 1 0 6.939-7.2 75.444 75.444 0 0 0 -36.019-19.335c1.571-2.43 3.357-5.309 5.276-8.578 12.852.662 26.97 3.7 38.127 12.022a5 5 0 0 0 5.981-8.015c-10.08-7.522-23.3-12.144-38.721-13.641 1.692-3.182 3.418-6.587 5.131-10.176 21.786.081 34.74 7.581 35.573 8.081a5 5 0 0 0 5.193-8.547c-.888-.541-14.141-8.371-36.315-9.413 2.1-4.94 4.109-10.129 5.935-15.51 14.145-41.694 10.827-76.4-9.6-100.379-15.968-18.743-32.218-28.6-48.3-29.312-13.246-.584-25.88 4.935-37.53 16.4-5.6 5.515-10.177 10.111-13.1 13.075-2.967-2.939-7.605-7.525-13.245-13.075-11.649-11.465-24.286-16.985-37.53-16.4-16.079.707-32.329 10.569-48.3 29.312-20.426 23.975-23.744 58.685-9.6 100.379 1.863 5.477 3.914 10.754 6.052 15.77zm20.385 18.947c-1.551-2.814-3.148-5.835-4.751-9.032 2.2.148 4.459.365 6.8.679a39.368 39.368 0 0 0 -2.049 8.354zm119.96 66.123c-7.76 7.7-19.353 11.825-34.522 12.311v-.006q-1.673.054-3.291.055-1.6 0-3.248-.055c-15.174-.489-26.763-4.609-34.523-12.31a36.188 36.188 0 0 1 -9.686-18.251 43.191 43.191 0 0 0 27.043-3.31 105.878 105.878 0 0 0 20.726-13.4 90.429 90.429 0 0 0 20.145 13.4 43.188 43.188 0 0 0 27.042 3.31 36.18 36.18 0 0 1 -9.686 18.257zm-47.051-71.025q-13.257-4.155-20.8-10.109c1.2-1.934 3.493-4.8 6.81-5.4 4.067-.735 9.294 2.01 15.186 7.938a4.944 4.944 0 0 0 .705 1.271 5 5 0 0 0 7.022.827c9.136-7.21 16.839-10.139 22.27-8.48a11.649 11.649 0 0 1 6.284 5.222q-7.672 5.346-20.32 9.148a5 5 0 0 0 -3.421 5.978 4.272 4.272 0 0 1 -.291 2.858c-.123.195-.494.789-2.05 1.123a8.711 8.711 0 0 0 -2.254.827c-2.728-.57-4.212-1.425-4.685-2.12a1.556 1.556 0 0 1 -.121-1.377 6.443 6.443 0 0 0 -4.335-7.705zm91.43 4.9a39.494 39.494 0 0 0 -1.85-7.778c2.2-.384 4.344-.682 6.431-.917-1.546 3.07-3.086 5.979-4.581 8.693zm-173.561-128.608c14.1-16.544 27.932-25.226 41.125-25.806 10.365-.463 20.487 4.1 30.077 13.538 9.945 9.786 16.778 16.578 16.783 16.582a5 5 0 0 0 7.07-.022c.014-.014.023-.031.037-.045.065-.068 6.685-6.878 16.482-16.519 9.592-9.439 19.711-14 30.077-13.538 13.193.58 27.03 9.262 41.125 25.806 18.273 21.45 20.878 51.959 7.74 90.681-2.215 6.528-4.756 12.847-7.409 18.78a115.327 115.327 0 0 0 -16.131 2.073 42.81 42.81 0 0 0 -4.987-5.97l1-7.507a24.036 24.036 0 0 0 -3.06-15.225l-10.959-18.751a5 5 0 1 0 -8.633 5.046l10.962 18.755a13.991 13.991 0 0 1 1.781 8.86l-.229 1.717a33.984 33.984 0 0 0 -3.729-1.96 5 5 0 1 0 -3.923 9.2 34.2 34.2 0 0 1 8.148 5.489l.065.057a35.046 35.046 0 0 1 2.9 2.923 142.125 142.125 0 0 0 -15.485 5.523 5 5 0 1 0 3.888 9.213 130.685 130.685 0 0 1 17.083-5.892 29.379 29.379 0 0 1 1.735 6.258 131.53 131.53 0 0 0 -22.032 3.33 5 5 0 0 0 2.535 9.674 124.838 124.838 0 0 1 19.513-2.948 32.29 32.29 0 0 1 -1.7 6.5 78.491 78.491 0 0 0 -20.667.828 5 5 0 0 0 2.029 9.792 65.171 65.171 0 0 1 12.818-.86 33.866 33.866 0 0 1 -39.963 8.537 82.786 82.786 0 0 1 -19.526-13.367v-7.113a12.446 12.446 0 0 0 7.5-5.365 12.836 12.836 0 0 0 1.878-5.764q14.4-4.846 22.976-12.111c.088-.068.171-.14.253-.214a34.116 34.116 0 0 0 10.327-14.447c5.2-14.593-2.584-27.824-5.094-31.532-3.762-5.558-5.474-16.978-5.816-20.913a5 5 0 1 0 -9.963.854c.146 1.709 1.6 16.953 7.5 25.664 1.312 1.939 7.672 12.141 3.955 22.571a21.64 21.64 0 0 1 -3.091 5.663 20.913 20.913 0 0 0 -10.584-7.8c-7.894-2.478-17.174-.029-27.625 7.256-7.88-7.361-15.436-10.431-22.5-9.116a19.768 19.768 0 0 0 -11.805 7.646 20.817 20.817 0 0 1 -1.778-3.762c-3.628-10.389 2.694-20.527 4-22.453 5.9-8.711 7.352-23.955 7.5-25.664a5 5 0 0 0 -9.963-.857c-.341 3.933-2.053 15.357-5.816 20.916-2.492 3.682-10.231 16.826-5.156 31.355 4.071 11.66 15.215 20.664 33.145 26.789a11.2 11.2 0 0 0 1.938 6.075c1.723 2.53 4.494 4.382 8.224 5.567v7.04a97.624 97.624 0 0 1 -19.833 13.087 33.863 33.863 0 0 1 -39.774-8.32 69.922 69.922 0 0 1 16.75.645 5 5 0 0 0 2.019-9.794 80.746 80.746 0 0 0 -24.619-.41 32.356 32.356 0 0 1 -1.9-7.172 128.133 128.133 0 0 1 23.662 3.2 5 5 0 0 0 2.54-9.68 134.924 134.924 0 0 0 -26.112-3.56 29.345 29.345 0 0 1 2.06-6.936 126.431 126.431 0 0 1 20.838 6.8 5 5 0 0 0 3.889-9.213 140.2 140.2 0 0 0 -18.8-6.447c.616-.65 1.236-1.252 1.852-1.813a4.9 4.9 0 0 0 .563-.5 33.721 33.721 0 0 1 7.905-5.227 5 5 0 0 0 -3.923-9.2 34.3 34.3 0 0 0 -3.729 1.961l-.229-1.716a13.993 13.993 0 0 1 1.781-8.861l10.962-18.755a5 5 0 1 0 -8.633-5.046l-10.962 18.755a24.036 24.036 0 0 0 -3.06 15.225l1 7.507a42.975 42.975 0 0 0 -4.513 5.3 112.207 112.207 0 0 0 -16.675-1.559c-2.629-5.887-5.144-12.153-7.339-18.623-13.143-38.722-10.538-69.235 7.735-90.685z"/><path d="m290.818 200.029a5.051 5.051 0 0 0 .861.075 4.994 4.994 0 0 0 4.463-2.8 23.034 23.034 0 0 0 6.463 3.014 23.285 23.285 0 0 0 6.43.919 19.962 19.962 0 0 0 10-2.572 21.464 21.464 0 0 0 10.625-19.509c.942.221 1.5.386 1.558.4a5 5 0 0 0 2.944-9.556c-.8-.248-19.8-5.97-33.895 2.664-7.259 4.448-11.808 11.709-13.521 21.58a5 5 0 0 0 4.072 5.785zm14.642-18.814c4.243-2.612 9.384-3.343 13.955-3.305a11.5 11.5 0 0 1 -5.386 12.1 11.387 11.387 0 0 1 -8.659.7 12.331 12.331 0 0 1 -5.754-3.486 17.076 17.076 0 0 1 5.844-6.009z"/><path d="m180.78 179.561c.029-.008.595-.176 1.562-.4a21.464 21.464 0 0 0 10.625 19.509 19.962 19.962 0 0 0 10 2.572 23.3 23.3 0 0 0 6.431-.919 23.041 23.041 0 0 0 6.462-3.014 4.994 4.994 0 0 0 4.463 2.8 5.051 5.051 0 0 0 .861-.075 5 5 0 0 0 4.072-5.781c-1.713-9.871-6.262-17.132-13.521-21.58-14.093-8.634-33.091-2.912-33.9-2.664a5 5 0 0 0 2.942 9.557zm11.805-1.651c4.571-.038 9.712.693 13.955 3.305a17.076 17.076 0 0 1 5.844 6.009 12.331 12.331 0 0 1 -5.754 3.486 10.824 10.824 0 0 1 -14.045-12.8z"/><path d="m222.609 291.7a5 5 0 1 0 -3.54-1.47 5.04 5.04 0 0 0 3.54 1.47z"/><path d="m222.609 306.38a4.985 4.985 0 1 0 -3.54-1.46 5.031 5.031 0 0 0 3.54 1.46z"/><path d="m235.18 300.09a5 5 0 1 0 -5-5 4.983 4.983 0 0 0 1.469 3.53 5.044 5.044 0 0 0 3.531 1.47z"/><path d="m293.51 281.7a5 5 0 1 0 3.53 1.46 5.034 5.034 0 0 0 -3.53-1.46z"/><path d="m293.51 296.38a5.019 5.019 0 1 0 3.53 1.47 5.044 5.044 0 0 0 -3.53-1.47z"/><path d="m280.93 290.09a5 5 0 1 0 3.53 1.46 5 5 0 0 0 -3.53-1.46z"/><path d="m41.624 256.257a5 5 0 0 0 4.89 3.982 5.066 5.066 0 0 0 1.024-.106 4.985 4.985 0 0 0 3.937-4.438h.023c.513-5.571 2.911-11.4 7.135-17.372-2.941 22.052-3.231 55.361 6.411 94.355v.013.013a5 5 0 0 0 9.709-2.387c-1.407-5.753-.993-13.444 1.177-22.646q.009 2.541.1 5.194c.846 24.084 7.555 59.506 34.71 91.481a5 5 0 0 0 8.223-5.579c-2.653-5-2.929-13.894-.845-25.4.333 2.164.722 4.391 1.174 6.662 5.179 26.015 16.4 45.166 32.44 55.385a4.986 4.986 0 0 0 7.1-6.52l.018-.009a70.919 70.919 0 0 1 -6.24-18.792c7.143 17.074 18.587 35.935 36.853 50.719a4.986 4.986 0 0 0 7.322-6.595l.019-.012c-2.234-3.443-3.534-8.023-4.213-12.971 5.283 13.742 13.611 29 26.447 39.131a5 5 0 0 0 8.082-4.325 51.9 51.9 0 0 1 -.088-5.781c5.38 17.838 13.842 31.108 25.2 39.494a6.342 6.342 0 0 0 7.572 0c11.164-8.244 19.8-21.808 25.139-39.411a51.379 51.379 0 0 1 -.092 5.7 5 5 0 0 0 8.083 4.325c12.836-10.135 21.164-25.39 26.447-39.133-.678 4.95-1.979 9.529-4.212 12.973l.019.012a4.987 4.987 0 0 0 7.321 6.595c18.266-14.784 29.71-33.647 36.854-50.721a70.933 70.933 0 0 1 -6.24 18.794l.018.009a4.988 4.988 0 0 0 7.1 6.52c16.044-10.219 27.262-29.37 32.44-55.385.452-2.271.841-4.5 1.174-6.661 2.084 11.5 1.808 20.4-.845 25.394a5 5 0 0 0 8.224 5.579c27.154-31.975 33.863-67.4 34.71-91.481q.093-2.652.1-5.194c2.169 9.2 2.582 16.893 1.175 22.646a5 5 0 0 0 9.709 2.387v-.013l.006-.029c9.638-38.988 9.348-72.29 6.408-94.339 4.223 5.974 6.621 11.8 7.135 17.372h.023a4.983 4.983 0 0 0 3.936 4.438 5.059 5.059 0 0 0 1.024.106 5 5 0 0 0 4.891-3.982c9.255-44.449-7.892-85.856-20.679-108.948l15.577 9.743a5 5 0 0 0 7.378-5.87c-14.666-42.548-33.127-68.642-46.427-83.305-1.592-18.518-9.85-25.618-17.232-28.2-6.5-2.27-13.6-1.71-20.563.383-.946-.391-1.883-.766-2.8-1.108l21.071-4.811a5 5 0 0 0 .809-9.49c-1.611-.672-31.059-12.674-64.8-9l8.427-5.4a5 5 0 0 0 -2.525-9.207c-2.663-.084-65.582-1.941-93.157 24.859-27.523-26.8-89.4-24.943-92.019-24.851a5 5 0 0 0 -2.522 9.207l8.427 5.4c-33.735-3.673-63.189 8.323-64.8 9a5 5 0 0 0 .811 9.49l21.07 4.811c-.988.37-2 .778-3.027 1.2-6.813-2.157-13.81-2.756-20.332-.48-11.841 4.134-16.179 15.986-17.246 28.29-13.281 14.607-31.75 40.661-46.441 83.214a5 5 0 0 0 7.378 5.87l15.571-9.742c-12.786 23.091-29.932 64.499-20.676 108.948zm384.468-172.989c9.962 12.711 21.615 31.3 32.046 57.524l-21.062-13.174a221.169 221.169 0 0 0 -15.619-17.855 164.086 164.086 0 0 0 4.635-26.495zm-20.423-34.148c14.618 5.1 11.306 35.08 7.462 52.576q-3-2.754-5.986-5.283c6.055-12.248 4.079-27.913-5.045-34.285-4.972-3.466-12-3.872-19.284-1.108a37.02 37.02 0 0 0 -14.142 9.864c-2.517-1.256-4.947-2.4-7.27-3.426 11.22-9.509 31.072-22.947 44.265-18.338zm-6.583 40.793a192.661 192.661 0 0 0 -21.259-14.131 26.349 26.349 0 0 1 8.532-5.412c4.086-1.551 7.83-1.564 10.016-.039 4.208 2.934 5.694 11.745 2.711 19.582zm-292.754-40.793c13.183-4.607 32.313 9.253 42.951 18.929q-2.688 1.218-5.546 2.632a36.647 36.647 0 0 0 -14.414-9.8c-7.377-2.675-14.455-2.219-19.419 1.243-9 6.281-10.71 21.489-4.472 33.8q-3.3 2.779-6.626 5.831c-3.835-17.517-7.122-47.522 7.526-52.635zm28.212 26.452a192.524 192.524 0 0 0 -21.06 13.913c-3.157-7.81-1.932-16.313 2.14-19.154 2.23-1.556 6.077-1.571 10.291-.044a26.167 26.167 0 0 1 8.629 5.285zm-80.68 65.22c10.421-26.2 22.068-44.75 32.014-57.426a164.664 164.664 0 0 0 4.6 26.462 221.033 221.033 0 0 0 -15.553 17.789zm28.4-6.337c31.807-40.816 67.639-57.1 86.17-63.18a5 5 0 0 0 -3.116-9.5c-1.824.6-3.806 1.29-5.927 2.086a123.848 123.848 0 0 0 -22.815-17.684 57.348 57.348 0 0 1 12.66-2.143 5 5 0 0 0 1.08-9.875l-24.296-5.549c17.765-4.04 46.106-7.076 71.639 5.166a5 5 0 0 0 4.86-8.718l-21.163-13.558c19.707 1.3 50.991 5.888 67.1 21.573a9.921 9.921 0 0 0 13.9.012c16.236-15.759 48.282-20.321 68.309-21.6l-21.184 13.573a5 5 0 0 0 4.861 8.718c25.534-12.243 53.873-9.206 71.638-5.166l-24.294 5.547a5 5 0 0 0 1.066 9.875 56.307 56.307 0 0 1 11.966 1.953 131.212 131.212 0 0 0 -23.678 17.3c-1.532-.556-2.992-1.062-4.355-1.509a5 5 0 0 0 -3.116 9.5c18.531 6.077 54.364 22.364 86.17 63.181.72.951 34.87 46.688 33.16 100.113a70.691 70.691 0 0 0 -5.269-7.05 180.042 180.042 0 0 1 -20.352-29.92 105.933 105.933 0 0 0 -41.49-41.885 5 5 0 1 0 -4.859 8.741 95.943 95.943 0 0 1 37.571 37.936 198.117 198.117 0 0 0 10.733 17.459c.959 2.891 4.622 15.147 5.666 36.5a241.667 241.667 0 0 1 -1.5 40.4 183.228 183.228 0 0 0 -12.6-30.038 5 5 0 0 0 -9.177 3.834c.053.176 5.247 17.843 4.33 42.332-.965 25.745-7.983 48.99-20.857 69.369-1.159-17.69-8.526-36.847-9.7-39.811a5 5 0 0 0 -9.641 2.091 154.864 154.864 0 0 1 -2.907 33.766c-2.174 10.828-6.259 24.083-13.905 34.954 4.928-23.281 2.2-47.813 2.041-49.148a5 5 0 0 0 -4.965-4.422h-.1a5 5 0 0 0 -4.89 4.614c-.037.491-3.693 43.328-31.431 75.711 1.549-15.331-1.695-30.948-1.9-31.9a5 5 0 0 0 -9.845.372c-.053.39-4.943 34.853-23.219 56.365a244.346 244.346 0 0 0 -4.262-27.825 5 5 0 0 0 -9.884.935c-.011.436-1.347 42.575-24.462 62.059-23.063-19.447-24.508-61.632-24.52-62.065a5 5 0 0 0 -9.885-.929 244.8 244.8 0 0 0 -4.26 27.825c-18.277-21.512-23.167-55.974-23.219-56.363a5 5 0 0 0 -9.846-.374c-.2.949-3.446 16.566-1.9 31.9-27.738-32.383-31.393-75.22-31.431-75.706a5 5 0 0 0 -9.952-.2c-.155 1.335-2.886 25.867 2.041 49.148-7.646-10.871-11.731-24.125-13.9-34.954a154.925 154.925 0 0 1 -2.907-33.763 5 5 0 0 0 -9.641-2.094c-1.177 2.964-8.544 22.121-9.7 39.811-12.873-20.379-19.892-43.624-20.857-69.369-.917-24.489 4.278-42.156 4.329-42.327a5 5 0 0 0 -9.176-3.839 183.358 183.358 0 0 0 -12.601 30.04 241.675 241.675 0 0 1 -1.5-40.4c1.045-21.356 4.708-33.613 5.667-36.5a198.422 198.422 0 0 0 10.733-17.458 95.951 95.951 0 0 1 37.572-37.935 5 5 0 0 0 -4.859-8.741 105.957 105.957 0 0 0 -41.492 41.884 180.022 180.022 0 0 1 -20.35 29.917 70.839 70.839 0 0 0 -5.265 7.043c-1.68-53.35 32.444-99.16 33.155-100.105z"/></g></svg>