<svg id="Layer_1" viewBox="0 0 64 64" xmlns="http://www.w3.org/2000/svg" data-name="Layer 1"><g fill="#343433"><path d="m59.49393 27.5608a18.313 18.313 0 0 0 -6.04767-6.27429c-.76221-.52965-1.59573-.94131-2.39784-1.40561a15.89019 15.89019 0 0 1 3.21184 1.10344 13.0381 13.0381 0 0 1 6.523 6.49074 17.43656 17.43656 0 0 0 -2.09226-5.65043 21.049 21.049 0 0 0 -6.03069-6.55949 5.54235 5.54235 0 0 1 2.31806-1.60338 3.63279 3.63279 0 0 1 3.24749.80721 6.9191 6.9191 0 0 0 -2.48951-2.76622 6.65849 6.65849 0 0 0 -3.66426-.999 8.50477 8.50477 0 0 0 .96254-.60773 4.91168 4.91168 0 0 0 1.77313-3.21609 2.33269 2.33269 0 0 1 -1.437.915 2.10281 2.10281 0 0 1 -1.50492-.62641 20.13419 20.13419 0 0 0 -5.45945-3.45629 10.11556 10.11556 0 0 0 -4.41374-.79362 6.1965 6.1965 0 0 0 -3.70671 1.49637 7.25461 7.25461 0 0 1 .556-2.60495 10.70739 10.70739 0 0 0 -4.44094 2.72125 12.859 12.859 0 0 0 -2.36813 3.19741c-.02122-.02546-.06366-.07555-.08488-.10016a13.29912 13.29912 0 0 0 -2.10671-2.88081 11.39723 11.39723 0 0 0 -4.77108-2.98352 7.246 7.246 0 0 1 .606 2.65249 6.75645 6.75645 0 0 0 -5.6037-1.40391 15.92306 15.92306 0 0 0 -7.40744 3.72537c-.58991.46343-1.18067 1.09834-1.99467 1.06523a2.35051 2.35051 0 0 1 -1.53039-.89632 7.20489 7.20489 0 0 0 .36668 1.28677 4.92176 4.92176 0 0 0 2.35965 2.4997 7.03022 7.03022 0 0 0 -2.75858.5288 6.76268 6.76268 0 0 0 -3.3782 3.23051 3.56019 3.56019 0 0 1 3.15836-.80466 5.96575 5.96575 0 0 1 2.414 1.57537c-.19353.17824-.41931.3166-.623.48126a21.21137 21.21137 0 0 0 -4.29914 4.42986 18.57291 18.57291 0 0 0 -3.14734 7.303c.16212-.27416.26143-.57888.41761-.85559a12.48607 12.48607 0 0 1 3.51143-4.0411 14.63776 14.63776 0 0 1 5.72343-2.6533 23.988 23.988 0 0 0 -3.5709 2.26373 18.4718 18.4718 0 0 0 -4.44089 4.794 16.08209 16.08209 0 0 0 -2.279 6.46782 18.95307 18.95307 0 0 0 .07889 4.93065 26.49518 26.49518 0 0 0 .96848 4.35431 9.1524 9.1524 0 0 1 1.1943-4.91621 20.75012 20.75012 0 0 1 5.95345-6.19366c.09591-.08572.2436-.14684.26736-.286a13.96624 13.96624 0 0 1 1.54906-4.42986 14.59375 14.59375 0 0 1 3.42658-4.03687 8.19759 8.19759 0 0 1 1.06184-.82248c-1.01091-.18334-2.03795-.27331-3.04887-.45411a12.81619 12.81619 0 0 0 4.1905-1.78331 8.33533 8.33533 0 0 0 2.31382-2.60326c-.713-.42779-1.50576-.69771-2.2527-1.05845.80041-.07554 1.60422-.12986 2.39869-.25634a1.71344 1.71344 0 0 0 .96169-.72826 8.013 8.013 0 0 1 1.78417-1.61016 4.3833 4.3833 0 0 1 3.312-.65358 5.91139 5.91139 0 0 1 3.09047 2.02183c-.34461-.02291-.6765-.12307-1.01941-.15617a2.991 2.991 0 0 1 -.83606-.16637.12261.12261 0 0 0 -.12817.00679 17.69078 17.69078 0 0 1 2.06171 2.46826 21.08277 21.08277 0 0 1 2.111 4.07591 17.18726 17.18726 0 0 1 4.137-6.54845c-.67649.13411-1.36656.18673-2.038.34715a8.18561 8.18561 0 0 1 1.70184-1.4718 4.16474 4.16474 0 0 1 3.17959-.5704 6.18473 6.18473 0 0 1 3.25088 2.18735c.30048.33018.60265.7444 1.08306.79532.76307.12223 1.53378.18928 2.30448.24275-.74948.34631-1.52019.65443-2.2527 1.04233a7.80283 7.80283 0 0 0 2.04644 2.47763 11.45933 11.45933 0 0 0 4.51729 1.92c-1.00158.16976-2.004.34037-3.01068.477a19.17334 19.17334 0 0 1 1.96242 1.68061 13.85816 13.85816 0 0 1 3.12611 4.52153 15.35923 15.35923 0 0 1 .92264 3.14988 12.4184 12.4184 0 0 0 1.07373.8802 18.299 18.299 0 0 1 5.28884 5.97552 8.688 8.688 0 0 1 .98375 4.5054 24.54831 24.54831 0 0 0 1.16031-5.81849 16.31274 16.31274 0 0 0 -1.97598-9.34864zm-42.93035-12.76757a3.66605 3.66605 0 0 0 -1.11192 3.19571 6.603 6.603 0 0 0 .22323.84116 4.22392 4.22392 0 0 1 -1.32836-2.62533 3.14176 3.14176 0 0 1 3.11507-3.38329 3.60422 3.60422 0 0 1 2.31212.84285 4.33467 4.33467 0 0 0 -3.21014 1.1289zm2.96824-5.33977a8.20412 8.20412 0 0 0 -5.14625-.82246 4.616 4.616 0 0 1 2.63636-1.4956 3.78431 3.78431 0 0 1 3.41724 1.07033 4.98809 4.98809 0 0 1 1.33683 2.98012 7.89855 7.89855 0 0 0 -2.24418-1.73239zm22.66452 1.73239a4.93964 4.93964 0 0 1 1.60592-3.2025 3.72776 3.72776 0 0 1 3.20505-.83352 4.70766 4.70766 0 0 1 2.59391 1.47181 8.12009 8.12009 0 0 0 -7.40488 2.56421zm6.07312 7.65358a3.48188 3.48188 0 0 0 -.16721-3.155 4.21765 4.21765 0 0 0 -3.93416-2.01589 3.49479 3.49479 0 0 1 2.40209-.85133 3.1968 3.1968 0 0 1 3.065 2.69916 3.96226 3.96226 0 0 1 -1.36572 3.32306z"/><path d="m26.531 26.98447a2.19421 2.19421 0 0 0 -.2139-1.56772c-.17485-.30472-.50334-.51862-.5619-.8853-.421-1.72729-.69092-3.48769-1.06354-5.226a36.522 36.522 0 0 1 -.43628 3.68123 12.73819 12.73819 0 0 0 -6.03324.2402 5.90588 5.90588 0 0 1 .98546.3896 4.23628 4.23628 0 0 1 1.55159 1.1637 4.17311 4.17311 0 0 0 1.33685 1.454 3.38807 3.38807 0 0 0 2.31976.28435 2.765 2.765 0 0 1 .86152 1.46163 5.13155 5.13155 0 0 1 -.08912 2.43519 10.26555 10.26555 0 0 0 1.3428-3.43088zm-3.284-1.38608a1.78557 1.78557 0 0 1 -1.26555-1.04147 2.14362 2.14362 0 0 1 -.056-.86068c.27756-.00255.55512.00849.83352.01018a1.0419 1.0419 0 0 0 .5271 1.08392 1.6966 1.6966 0 0 0 1.50322-.2504c.15194.16382.29962.33188.44137.50588a2.25011 2.25011 0 0 1 -1.98366.55257z"/><path d="m39.69409 26.54055a3.05417 3.05417 0 0 0 2.76622-.78c.43883-.427.66376-1.03044 1.13993-1.42088a7.79439 7.79439 0 0 1 2.06342-1.11532 13.19837 13.19837 0 0 0 -5.93986-.2453c-.16806-1.21972-.37178-2.43774-.44223-3.66765-.34036 1.67722-.6332 3.36463-1.02364 5.03166a1.59264 1.59264 0 0 1 -.46854.80636 2.34986 2.34986 0 0 0 -.34206 2.0736 9.321 9.321 0 0 0 1.39287 3.20335 4.00726 4.00726 0 0 1 .39384-3.57766c.12902-.13071.23851-.37861.46005-.30816zm-.50588-2.01419a1.83 1.83 0 0 0 1.49133.27671 1.0167 1.0167 0 0 0 .50758-1.06948c.28095-.01868.5619-.03141.8437-.0399a2.10554 2.10554 0 0 1 -.08233.94047 1.8056 1.8056 0 0 1 -1.57112 1.02449 2.32106 2.32106 0 0 1 -1.63648-.6315q.21135-.261.44732-.50079z"/><path d="m51.1316 30.12756c-.859-.926-1.70014-1.8716-2.61429-2.74415a11.07147 11.07147 0 0 1 1.0975 4.05129 19.05 19.05 0 0 0 -2.89015-2.82139 5.87516 5.87516 0 0 1 .25463 2.0074 7.38024 7.38024 0 0 1 -1.37419 4.37384 9.88 9.88 0 0 1 -3.149 2.64909c.07469.41.13071.825.1757 1.24009-1.94459.31745-3.89767.58736-5.84565.88105 1.95986-.04329 3.91718.09846 5.87705.07045a12.46321 12.46321 0 0 1 -.02037 1.29611c-.83351.15278-1.67976.21729-2.52347.28944-1.05.04414-2.09992.15957-3.15072.12137.79277.14769 1.60337.1443 2.40039.25974 1.04487.14259 2.09822.18843 3.14479.31405a4.10377 4.10377 0 0 1 -2.57864 2.6754 5.84293 5.84293 0 0 1 -3.39094.11035 17.94185 17.94185 0 0 1 -4.24482-2.19923 6.30779 6.30779 0 0 1 1.30544-3.576 6.62917 6.62917 0 0 1 2.55739-1.25446 2.19938 2.19938 0 0 0 1.03808-1.005 8.96492 8.96492 0 0 0 .76392-1.99891 3.92165 3.92165 0 0 1 -.97782.60858 7.38379 7.38379 0 0 1 -2.12623.25889 6.16116 6.16116 0 0 0 -2.8146.876c-.34631-.146-.66121-.35735-1.01516-.48552a6.50607 6.50607 0 0 0 -1.93944-.39134c-.51353-.039-1.03129-.01358-1.54142-.08828a3.2185 3.2185 0 0 1 -1.54226-.79956 8.32842 8.32842 0 0 0 .84965 2.17546 2.14732 2.14732 0 0 0 1.11786.93877 5.7036 5.7036 0 0 1 2.425 1.19 6.649 6.649 0 0 1 1.29356 3.54541 17.42522 17.42522 0 0 1 -4.39339 2.23574 5.71305 5.71305 0 0 1 -3.55475-.236 4.025 4.025 0 0 1 -2.279-2.58034c.64423-.06536 1.29186-.09336 1.93355-.17909 1.19-.15024 2.38766-.21814 3.57767-.365-1.87923-.10864-3.7661-.15278-5.6309-.432-.03141-.43544-.02377-.87257-.0382-1.308 1.98533.04329 3.969-.10694 5.9543-.0679-.803-.16382-1.6229-.23-2.43265-.359-1.15436-.16212-2.30278-.36838-3.45969-.51183.03989-.40827.1078-.814.185-1.21717a15.08934 15.08934 0 0 1 -1.5881-1.07287 7.17979 7.17979 0 0 1 -2.44707-3.2424 7.63589 7.63589 0 0 1 -.24615-4.76 22.95778 22.95778 0 0 0 -2.88501 2.8451 11.45771 11.45771 0 0 1 1.072-4.05215q-.97017.96253-1.89451 1.96751a40.03143 40.03143 0 0 0 -5.63091 7.27163 11.178 11.178 0 0 0 -1.47775 5.70644 18.72975 18.72975 0 0 0 1.03553 5.82529 22.16949 22.16949 0 0 0 1.9047 4.20577 16.64331 16.64331 0 0 1 -.4592-3.08452 16.50225 16.50225 0 0 0 2.644 3.60653 22.5569 22.5569 0 0 0 3.60738 2.97757 17.34668 17.34668 0 0 1 -3.177-6.66389 12.55228 12.55228 0 0 1 1.70607-9.53875c-.00594.05262-.017.15787-.02207.20965a15.67253 15.67253 0 0 0 -.20455 5.52735 20.181 20.181 0 0 0 3.85183 9.24932 14.8606 14.8606 0 0 0 6.1249 5.10465 9.60789 9.60789 0 0 1 -1.31822-1.12714 5.21405 5.21405 0 0 1 -1.179-2.12284 10.32969 10.32969 0 0 1 -.10016-4.41034 31.17719 31.17719 0 0 1 .78346-3.32982 12.75829 12.75829 0 0 0 .89548 3.33491 17.01114 17.01114 0 0 0 5.89573 7.10009 12.102 12.102 0 0 1 -.18165-2.672 16.16527 16.16527 0 0 0 1.47945 2.72718 27.15746 27.15746 0 0 0 2.25525 2.97757 25.796 25.796 0 0 0 3.74658-5.69542 14.81684 14.81684 0 0 1 -.15363 2.63721 18.47766 18.47766 0 0 0 3.548-3.29842 13.67511 13.67511 0 0 0 3.15578-7.10612c.05093.23342.12478.46259.19523.69177a17.29352 17.29352 0 0 1 .82333 4.84407 6.5144 6.5144 0 0 1 -1.16455 3.9817 7.39334 7.39334 0 0 1 -1.64666 1.51 14.91261 14.91261 0 0 0 5.93647-4.84654 21.65339 21.65339 0 0 0 3.51232-7.0119 16.76973 16.76973 0 0 0 .25718-8.25793 9.92376 9.92376 0 0 1 1.02959 1.88857 12.78324 12.78324 0 0 1 .66885 7.98547 17.52587 17.52587 0 0 1 -3.04972 6.3354c.69516-.50079 1.39287-1.00073 2.04475-1.55754a17.3858 17.3858 0 0 0 4.1192-4.99261 17.08526 17.08526 0 0 1 -.44731 3.02935 19.63241 19.63241 0 0 0 1.11616-2.18734 20.55328 20.55328 0 0 0 1.81218-7.67311 10.73337 10.73337 0 0 0 -1.11363-5.22688 33.74681 33.74681 0 0 0 -5.25828-7.15792zm-13.40926 22.56012a6.2271 6.2271 0 0 0 -2.13472-3.7279 10.6328 10.6328 0 0 1 -1.47436 3.75082c-.30726.48721-.63744.96169-.97527 1.42937.07131-.8106.062-1.62544.06366-2.43859-.36922.657-.82417 1.26046-1.17812 1.92592-.376-.65273-.83182-1.25537-1.23075-1.89366.02037.803.04668 1.60677.06535 2.40973a3.11394 3.11394 0 0 0 -.30047-.47278 11.126 11.126 0 0 1 -2.17631-4.71 5.95283 5.95283 0 0 0 -2.1101 3.677c-.95235-2.07192-1.82152-4.18626-2.68389-6.29976a5.81778 5.81778 0 0 0 4.62848.14174c1.19255-.455 2.28155-1.25621 3.5904-1.34788a6.42835 6.42835 0 0 1 3.18722.98036 6.39193 6.39193 0 0 0 2.84092.77579 5.92047 5.92047 0 0 0 2.56845-.55086c-.83097 2.14237-1.78583 4.23466-2.68049 6.3507z"/></g></svg>