<svg id="Layer_1" enable-background="new 0 0 300 300" viewBox="0 0 300 300" xmlns="http://www.w3.org/2000/svg"><g><g><g><path d="m43.9 88.5c-1-3.6-6.5-8.5-10.3-11.7 0 0-1.2.4-1.3.4-4.5.7-5.8 1.5-6.2 1.9-3.2 3.7-9.9 9-15.2 13.3-2.1 1.7-4 3.2-5.4 4.4-1.1.9-.4 2.3.8 4.2.3.6.7 1.2 1 1.7.3.6.3 1.3.4 1.9 0 .4.6 2.2.7 2.6 3.6 2.1 5.6 2.1 8.1.9 3.9-1.9 8.9-3.7 10.7-.8s.4 4.9-1.5 5.8c-1.5.7-6.9 3.7-8.4 7.4.7.9 1.7 1.8 3.3 2.2 3.4.9 5.7-.9 8.2-2.9 1.2-.9 2.4-1.9 3.7-2.6.1-.1 2.9-1.8 3-2 12-5 9.8-21.7 8.4-26.7z" fill="#fcb766"/></g><g><path d="m28.9 107.5c-1.8-2.9-6.4-2-10.5-.9-3.1.8-4.2 1.4-6.4 1.5-2.7-.1-3.9-1.3-3.6-.8.4.3 4 3 7.1 2 .1 0 .3 0 .4.1l4 3.6-.1-4.7c0-.2.1-.4.3-.4 2-.3 5.6-.5 6.9.7.7.7 1 1.6.9 2.5 0 .1-.1.3-.2.3-1.1.4-3.9 1.5-7.3 3.5-.1.1-.2.1-.3 0l-2.6-1 .4 2.3c0 .1 0 .3-.2.4-1 .7-1.4 1-1.5 1.1.1.7.5 1.8 1.2 2.8 3.1-3 9.9-6.7 11.4-7.4 1.8-.8 1.9-2.7.1-5.6z" fill="#684532"/></g></g><g><path d="m258.7 177.6c-3.5-2.8-4.5-6.7-7.1-11.9-3.5-7-13.6-27.7-16.1-33-.3 3.8-2.9 18.9-8.6 31-2.1 4.4-3 9.8-4 16.5 2.3 1.8 31.4 24.4 34.3 25.8 3.2 1.6 8.6 13.1 8.9 13.6v.1c0 .2.5 3.8-5.8 7-1.4.7-1.7 3.2-1.2 5.2.3 1.4 1 2.3 1.5 2.3.3 0 .7 0 1.4.1 3.3.3 12.2 1 16-2.3 1.1-.9 1.7-2.1 1.7-3.6.5-8.5-12.6-36.9-12.8-37.2l-5.8-8.8c.2 0-2.4-4.8-2.4-4.8z" fill="#d18f4d"/></g><g><path d="m120.8 177.5c-7.2.2-14.9-.3-18.9-1.7 2.2 4.3 13.4 25.3 17 29.3 3.5 3.9 6.2 14.6 4.9 17.3-.3.7-.8.8-1.1.8l-2.5-.1c-.4.2-2.8 1.2-3.3 4.8-.1 1.1.9 1.9 1.9 2.5 3.6 2 11.6 2.8 15.4-.2 5-4 4.4-17.8 2-22.6s-6.5-29.2-7-32.3c-3 .6-5.7 2.1-8.4 2.2z" fill="#d18f4d"/></g><g><g><path d="m273.9 184.1c-16.5-3.8-32.3-53.7-32.9-55.9-10.6-31.1-62.9-22.9-65.1-22.5l-17.4 1.5c-15.3 1.3-29-1.2-40-3.2-1.5-.3-8.2-1.6-9.6-1.8l-17.3 6.8 5.7 4.1c.1.1.2.2.2.3s-.1.3-.2.3c-6.7 2.8-7.4-.4-11.7-.5-.9 0-7.8 2.9-8.3 2.9 2.6 1.7 6.4 4 6.5 4 .1.1 1.7 1.7 1.7 1.8s-.1.3-.2.3c-4 2.1-4.4 1.1-7.4 1.5-3.6.5-5 2.3-7.4 5.4-.1.2-.3.4-.5.8l-.1.2c-.1.3-.2.5-.4.8l-.1.2c-.1.4-.3.8-.4 1.2l-.1.3c-.1.4-.2.8-.3 1.2l-.1.3c-.2 1-.4 2.2-.5 3.5v.2c-.2 1.3-.3 2.7-.4 4.1-.6 9.1 1.2 20.3 1.4 25 0 1-1.4 1.7-1.4 2.1v1c0 .1.1.1.1.2 0 1.5.1 1 .1 1s1.5 1.6 1.5 1.6c-.1.2-5.3 17.5-11.4 26.2s-6.6 17.3-7.1 26.4c-.2 3.4.4 5.8 1.8 7.3 1.8 1.9 4.9 2.1 8.1 2.1 4.4 0 6.3-10.1 7-13.9.2-.9.3-1.5.4-1.8 0-.1 4.1-11.9 12.4-19.6 7.6-7.1 19.8-23.8 19.9-24h.8c1.9.8 11.3 4.6 20.6 4.3 3.7-.1 7.9-1.1 12.3-2.1s8.9-2 13.6-2.4c14.1-1.2 21.7-5.9 26.7-8.9 3.5-2.1 5.9-3.6 8.7-3.1 3.8.7 4.9 6 6 11.5 1 4.8 2.1 9.8 4.9 11.9 4.1 3.1 7 10.8 9.8 18.2 1.4 3.8 2.8 7.4 4.2 10 4.1 7.8 0 16.1 0 16.2-.1.2-.3.3-.5.2 0 0-2.5-.9-7.4 1.5-1.9 1-2.3 2.5-1.2 4.8.9 1.9 3 3.2 5.3 3.2h10.6c4.3 0 5.8-2.8 5.8-2.9s4.6-8.7 5.1-17.3c.3-5.7-.9-8.2-1.7-10.1-.5-1-.8-1.8-.8-2.7 0-.2 0-.7 0-1.2-.6-18.8 1.4-33.1 5.7-42.3 7.1-15 7.1-27.5 7.1-27.6 0-.2.1-.3.3-.4.2 0 .3 0 .4.2s11.8 25 15.9 33.2c8.2 16.3 24 18.8 27.8 18h1.8l-1.8-3.8c-3 1.1-6.3.3-6.5.2z" fill="#fcb766"/></g><g><path d="m284 188.9c3.2 1.1 6.8 2.3 10.1-2.3 1-1.3 1.2-2.5.7-3.4-.7-1.4-3.1-2.4-6.1-2.5-2.6-.1-4.9.6-5.5 1.6-.6 1.1-1.8 1.7-3 2l.4 3.8c.9-.1 2 .3 3.4.8z" fill="#5e381b"/></g></g><g><g><path d="m43.2 77.2 1.7-2.4c.6-.9 1.4-1.4 2.3-1.6.5-.1 1-.1 1.4.1.1.1.8.7.8 5.4 0 .2.1.3.3.4l3.1.8h.1c.1 0 .1 0 .2-.1s.1-.2.2-.3c.1-.5 1.5-12.4-3.8-13.2-5.2-.7-9.8 9.3-10 9.7v.3c0 .1.1.2.2.2l3.1.8c.2 0 .3 0 .4-.1zm-2.8-1.3c.9-1.9 4.9-9.5 9-8.9s3.4 9.8 3.2 11.9l-2.4-.6c0-4.6-.7-5.5-1.2-5.8s-1.2-.4-1.9-.2c-1.1.2-2.1.9-2.8 1.9l-1.5 2.2z" fill="#eb994a"/></g><g><path d="m96.3 109.1 17.4-6.6c1.4-.6 2.6-1.2 3.5-1.7-6.2-.4-15.9-6.5-21.5-10.2-3.8-3.4-6.2-6-7.3-7.8-1.9-3.2-6.5-7.3-12.3-10.9-.1-.2-.1-.4-.1-.5 0-.2.2-.3.3-.3 2.4-.4 4.9-1.1 6.6-1.7-1.8-.2-4.9-.9-10-2.5-4.5-1.4-8-2.1-10.5-2-.1 0-.1 0-.1 0l-.5-.2c-.1-.1-.2-.2-.2-.3 0-.2.1-.3.2-.4 3.9-1.8 6.2-4 7.3-5.3-1.6.5-5.1 1.2-12.4 1.5-4.3.2-8.2.7-11.6 1.6-8.7 1.4-10.8 9.3-11.9 13.2-.2.7-.4 1.3-.5 1.7v.1c0 .1-.1.1-.1.2 3.8 3.3 8.7 8 9.7 11.5 1.4 5.1 3.2 8.5-9.4 28.3l.3.8c-.3 1.5.3 5.9.6 8 .1.4.1.8.1 1v.1c.1.8 1 6.9 5.1 10.1 2.5 1.9 3.8 3.5 4.6 4.4-.1-1.6-.4-4.1-.8-6 0-.1 0-.3.1-.4s.3-.1.4 0c.7.4 1.4.8 2.1 1.3 2.5 1.6 3.9 5.8 5.6 11.1l.5 1.5c0 .2 2.3 12.3 3.8 16.6 1.1 3.2 4 6.2 5.3 7.6-.2-1.3-.5-3.7-.7-5.9 0-.2.1-.3.2-.4h.2c.1 0 .2 0 .3.1 2.5 2.8 5.3 4.9 8.6 6.5.2-.7.4-1.6.6-2.5.1-.6.1-1.2.1-1.7 0-.4 0-1.1-.1-2.1-.2-4.8-.5-16 .1-25.1.1-1.5.2-2.9.4-4.2v-.2c.2-1.3.3-2.5.6-3.6l.1-.3c.1-.4.2-.9.3-1.3l.1-.3c.1-.5.3-.9.4-1.3v-.1c.2-.4.3-.7.4-1l.1-.3c.2-.4.4-.6.5-.9 2.6-3.3 5.7-3.7 9.3-4.1 2.8-.4 5.9-.8 9.5-2.5-1.8-1-7.3-4.1-9.2-5.4-.1-.1-.5-.3-.4-.7.2-.5.8-.5 3.5-.4 4.2.1 11.7.3 18.1-2.1l-7.4-3.6c-.1-.1-.2-.2-.2-.4.1.2.2 0 .3 0z" fill="#ad6628"/></g></g><g><path d="m33.9 86.7c-2.4-1.2-4.5-1.4-6.1-.7-2.3 1.1-2.9 3.7-2.9 3.8 0 .2 0 .4.1.6s.3.3.5.3h.7c3.2 0 7.5-2.6 7.7-2.8.2-.1.4-.4.4-.7 0-.2-.2-.4-.4-.5z" fill="#5e381b"/></g><g><path d="m47 72.3c.7-.2 1.4-.1 1.9.2s1.2 1.2 1.2 5.8l2.4.6c.2-2.1.9-11.3-3.2-11.9s-8.1 7-9 8.9l2.4.6 1.5-2.2c.7-1.1 1.7-1.8 2.8-2z" fill="#fcb766"/></g></g></svg>