<svg height="512" viewBox="0 0 64 64" width="512" xmlns="http://www.w3.org/2000/svg"><g id="Layer_32" data-name="Layer 32"><path d="m62 38.87v6.13a10 10 0 0 1 -20 0 6 6 0 0 1 9.61-4.79 18.731 18.731 0 0 0 -2.92-6.85l-9.17-.69a25.945 25.945 0 0 1 -4.13.33 28.013 28.013 0 0 1 -6.77-.83l-7.04-1.27a34.446 34.446 0 0 1 -9.27-2.02 34.627 34.627 0 0 1 -8.39-4.49 4.638 4.638 0 0 1 -.9-6.66l.48-.61a8.308 8.308 0 0 1 6.5-3.12l3.94-3.94a3.621 3.621 0 0 1 5.12 0 6.534 6.534 0 0 1 1.64 2.74h.01l.69-.31a28.871 28.871 0 0 1 40.6 26.38z" fill="#82ab00"/><path d="m52 55a10 10 0 0 0 10-10v-6.13a28.871 28.871 0 0 0 -40.6-26.38l-.69.31h-.01a6.534 6.534 0 0 0 -1.64-2.74 3.621 3.621 0 0 0 -5.12 0l-3.94 3.94a8.408 8.408 0 0 0 -3.61.82 8.5 8.5 0 0 0 -2.1 1.456c2.427 4.613 9.41 12.338 29.18 13.724 0 0 10.854-.534 16.513 2.6a4.652 4.652 0 0 1 1.417 6.8c.068.271.153.537.209.81a6 6 0 0 0 -9.609 4.79 10 10 0 0 0 10 10z" fill="#8dbf00"/><path d="m50 50a4.995 4.995 0 0 1 -5-5 3.017 3.017 0 0 1 3-3 3 3 0 0 1 3 3h-2a1 1 0 0 0 -1-1 .957.957 0 0 0 -.694.288.978.978 0 0 0 -.306.712 3.018 3.018 0 0 0 .882 2.128 3.089 3.089 0 0 0 4.246-.01 3.01 3.01 0 0 0 .872-2.118 4.93 4.93 0 0 0 -1.464-3.53 5.616 5.616 0 0 0 -.536-.47l1.223-1.582a7.438 7.438 0 0 1 .724.633 6.913 6.913 0 0 1 2.053 4.949 4.995 4.995 0 0 1 -5 5z" fill="#82ab00"/><path d="m49 27-6.8-.972a2.765 2.765 0 0 0 -.4-.028 2.8 2.8 0 0 0 -2.8 2.8 2.765 2.765 0 0 0 .028.4l.972 6.8h-3a2 2 0 0 0 -2 2 2 2 0 0 0 2 2h5l1.287 1.287 4.228-2.267a7.577 7.577 0 0 1 -1.515-4.545v-.475a6 6 0 0 0 4.8-2.4l1.2-1.6" fill="#8dbf00"/><g fill="#719301"><circle cx="11" cy="17" r="3"/><path d="m18.748 20.64 1.022-.507a5.454 5.454 0 0 0 3.019-4.893v-1.5a7.354 7.354 0 0 0 -.226-1.731c-.39.154-.779.31-1.163.481l-.69.31h-.01a5.433 5.433 0 0 1 .088.94v1.5a3.509 3.509 0 0 1 -1.914 3.1l-1.53.759a1 1 0 0 0 -.556.9 3 3 0 0 1 -3 3v2a5.007 5.007 0 0 0 4.96-4.359z"/><path d="m12.371 22.071a28.88 28.88 0 0 0 -10.318-2.071 4.692 4.692 0 0 0 -.053.63 4.634 4.634 0 0 0 .219 1.386 26.834 26.834 0 0 1 9.41 1.913z"/></g><path d="m28.888 26.416a4.743 4.743 0 0 1 -1.888-3.775v-.641h-2v.641a6.722 6.722 0 0 0 2.687 5.375 3.237 3.237 0 0 1 .919 4.151h.014c.663.165 1.332.3 2 .413a5.264 5.264 0 0 0 -1.737-6.167z" fill="#82ab00"/><path d="m21.594 30.9a5.6 5.6 0 0 1 -1.594-3.9h-2a7.6 7.6 0 0 0 .895 3.579c.889.139 1.784.253 2.685.321z" fill="#82ab00"/><path d="m20 27a5.607 5.607 0 0 0 2.5 4.664l.5.336-.5.336a9.907 9.907 0 0 1 -5.5 1.664 2 2 0 0 0 -2 2 2 2 0 0 0 2 2h6l1.488 2.975a1.854 1.854 0 0 0 1.658 1.025 1.854 1.854 0 0 0 1.854-1.854 4.853 4.853 0 0 0 -.512-2.171l-1.488-2.975 2.039-2.039a3.282 3.282 0 0 0 .961-2.32 3.278 3.278 0 0 0 -1.313-2.625 6.722 6.722 0 0 1 -2.687-5.375v-.641" fill="#8dbf00"/><path d="m52.4 32.8 1.2-1.6-1.6-1.2-1.2 1.6a6 6 0 0 1 -2.109 1.762 18.758 18.758 0 0 1 1.03 1.689 7.95 7.95 0 0 0 2.679-2.251z" fill="#82ab00"/><path d="m39.524 32.67-.5-3.473a2.765 2.765 0 0 1 -.024-.397 2.8 2.8 0 0 1 2.8-2.8 2.765 2.765 0 0 1 .4.028l6.8.972.283-1.98-6.8-.971a4.731 4.731 0 0 0 -.683-.049 4.806 4.806 0 0 0 -4.8 4.8 4.857 4.857 0 0 0 .049.679l.489 3.428c.665-.055 1.327-.132 1.982-.238z" fill="#82ab00"/><path d="m33.13 10a28.887 28.887 0 0 0 -9.816 1.73c1.317 2.516 3.185 4.794 5.866 5.643 3.37 1.069 4.769-1.152 8.616-1.025 8.646.284 10.478 11.793 19.284 12.616a11.192 11.192 0 0 0 3.111-.161 28.884 28.884 0 0 0 -27.061-18.803z" fill="#a6d305"/></g></svg>