<svg id="Layer_1" enable-background="new 0 0 38 38" viewBox="0 0 38 38" xmlns="http://www.w3.org/2000/svg"><g id="Aztec_Chameleon"><path d="m22.9929028 19.3734684c-.460083.0322266-1.3909912.1499023-1.6264038.652832-.0534668.1069336-.0213623.2353516.0748901.3100586.1819458.1394043.5029297.3852539.7597046.5778809.2140503.1713867.4922485.2355957.7597656.1713867l1.508606-.3103027c.2353516-.0537109.3851929-.2675781.3638306-.5029297l-.1177368-.994873c-.0213623-.2036133.2033081-.3532715.3745117-.2460938l1.6905518.994873c.1283569.0749512.2996216.0212402.3638306-.1176758.345377-.8311119.1293812-1.899044-.6419678-2.5251465-.0214233-.0109863-.0428467-.0319824-.064209-.0319824l-2.0757446-.8132324c-.2461548-.0964355-.524353 0-.652771.2246094l-.3851929.6635742c-.2707462.4314651-.1398544.9064178-.1069336 1.6689453.0106811.1391602-.0856324.267334-.2247315.2780762z"/><path d="m17.889082 16.0888004c-.1411457-.0560074.0135975-.0200615-2.5037222-.064209-.2247314-.0107422-.4173584.1496582-.4494019.3742676l-.1390991.7919922c-.0987883.6912384.2367039 1.0647316.4066162 1.5515137.1069336.2141113.0106201.4814453-.2033081.5883789-.3424072.1713867-.8239136.4492188-1.048645.8024902-.1604614.2460938-.0320435.5883789.2461548.6743164.2781372.0854492.6526489.1923828.9094238.2780762.1712036.0532227.3531494.0214844.5028687-.0749512l1.4980459-.9416504c.2032471-.128418.2674561-.3850098.1605225-.5883789l-.2996826-.588623c-.1711426-.331543.1177368-.717041.4815063-.652832l1.3695679.2573242c.2996216.0424805.5671387-.1928711.5349731-.4819336 0-.0214844 0-.0532227-.0106201-.074707-.056408-.7328415-.6210118-1.5482827-1.4552002-1.8510743z"/><path d="m4.1076498 13.9274244c.0321655.0319824.0748901.0427246.1177368.0532227 3.5951538.7597656 5.7778931.4604492 7.0726318-.0427246 1.0271606-.4169922 1.7547607-1.3588867 1.9259033-2.4606934.015976-.1014347.4902525-3.1126966.460083-2.9211426.0856323-.5134277-.3851318-.920166-.8773193-.7705078-1.2462244.3303194-2.2243165.3693819-3.4239501.2036133-.8961182-.1203041-1.7919493.0695572-2.4181519.6953125-1.7548218 1.2734375-2.7606201 3.3811035-3.1886597 4.4619141-.1283569.3100586.0322266.6630859.3317261.7810058zm4.6051636-4.4187011c.8776855 0 1.5891113.7114258 1.5891113 1.5891113s-.7114258 1.5891113-1.5891113 1.5891113c-.8777466 0-1.5892334-.7114258-1.5892334-1.5891113s.7114868-1.5891113 1.5892334-1.5891113z"/><circle cx="8.713" cy="11.098" r=".375"/><path d="m16.2333813 7.2399244c1.3713455-.2933488 3.608778-1.4346542 7.2016602-.8508301 1.6051025.2607422 3.3323975.7543945 4.6121826 1.7954102.6333008.5151367 1.2820435 1.0212402 1.7523193 1.6967773.4669914.6707878.8052025 1.6080723 1.5987549 1.9714355.4144897.1911621.3397827-.2895508.2874756-.5302734-.0751953-.3461914-.2766113-.6535645-.5288086-.8974609-.1557007-.1506348-.2388916-.364502-.2057495-.5783691.1496582-.9675293-.2169189-1.5310059-.6364136-1.6879883-.1578369-.0585938-.2731934-.1984863-.2996216-.3647461-.164917-1.0383301-.980835-1.3022461-1.4603882-1.3666992-.473877-.0637207-.5863647-.7687988-.9421387-1.0402832-.3768921-.2875977-.8799438-.4138184-1.3491211-.3679199-.2255249.0219727-.4639282.0742188-.6707153-.0183105-.1239014-.0554199-.2200317-.1567383-.3248291-.2429199-.4987183-.4106445-1.2576294-.4697266-1.8140259-.1418457-.1253052.0739746-.248291.1677246-.3933105.1782227-.2138062.0153809-.3901367-.1513672-.5646362-.2758789-.5257568-.3752441-1.2737427-.4084473-1.8308716-.0817871-.2025146.1186523-.3980713.2856445-.6328735.2858887-.1499634.0002441-.2895508-.0695801-.4315796-.1174316-.6965332-.2358398-1.5404053.1066895-1.8759155.7609863-.083374.1623535-.1629639.3623047-.3406372.4050293-.0654297.015625-.1339111.0058594-.2010498.0007324-.600708-.0456543-1.2102652.3293457-1.4401846.8862305-.1671143.4045408.0740966.6708982.4904775.582031z"/><path d="m32.6287079 18.7438297c-.6957397-1.6379967-.608696-2.8688507-1.3597431-4.7373037-2.4042969-5.9834251-9.4739437-7.9876409-14.765625-5.9399414-.456562.1762085-1.4662189.5860147-1.7535391.9824219-.3769579.5197048-.2727623 1.7891283-.6300659 3.0568848-.3522949 1.2512207-1.2467041 2.2861328-2.4580078 2.7736816-.9592505.3865995-2.2488976.5778809-3.1777954.5778809-2.2455854 0-4.1952233-.3851833-4.6116333-.5349121-.2139893-.0749512-.5029297-.1711426-.7061768-.0429688-1.0430298.7229004 3.1032104 2.2927237 3.6430664 2.4538565 1.8301554.5497627 4.2402468.8086224 6.2654419.5358887.1420288-.019043.2897949-.0446777.4041138-.1308594.2677355-.2020283.2406883-.6261749.3092651-1.0168457.02948-.1679688.0593872-.3361816.088623-.5046387.1283569-.7380362.7597046-1.2624502 1.4979858-1.2624502 2.0117807.0550842 2.3793001-.04212 2.8889761.128418.395874.1494141 1.1555176.5349121 1.6691284 1.369628.592001.9609642.2225037 1.3942299.9343262 1.4760742.4123535.0473633 1.1413574.1391602 1.2686768-.3886719.1177177-.4876842.3670082-.8028011.6431274-1.3122559.5036621-.8576651 1.4682007-.8930655 2.309082-.5646963.5575562.2177734 1.1098022.4387197 1.6673584.6528311.8275146.3178711 1.385437 1.2905273 1.5557251 2.1171875.1105347.5366211.0210571 1.0910645.125061 1.6279297.1351318.6975098.9088745 1.2006836 1.3361206 1.730957.5772705.7165527 1.0720215 1.4995117 1.4699097 2.3293457 1.3346577 2.7834473.2041626 5.7595215-2.9533691 6.3710938-1.8424072.3571777-4.3837891-.0183105-5.6955566-1.4885254-1.0391846-1.1645508-.937561-2.8354492.1815186-3.9003906.777771-.7399902 2.003418-1.0673828 2.9655151-.5910645.6003418.2971191 1.0617676.9536133.9554443 1.6149902-.1062622.661377-.9244385 1.1567383-1.4992065.8127441-.2246094-.1342773-.3892212-.3686523-.6378174-.4506836-.4741821-.1567383-.9517212.3918457-.8894653.887207.0623779.4958496.4779053.8742676.9163208 1.1132813 1.3348389.7282715 3.2659302.3977051 4.0020142-.9328613.4211426-.7614746.4019775-1.7104492.1099243-2.5300293-.5994263-1.6818848-2.3378296-2.861084-4.12323-2.888916-1.7854614-.027832-3.5202026 1.0454102-4.3780518 2.6118164-.8578491 1.565918-.8463135 3.5515137-.059021 5.1540527 1.5739136 3.2038593 5.8399658 4.4721699 9.1529541 3.630373 2.312439-.5874023 4.3414936-2.3049335 5.224062-4.4995136 1.4468384-3.5974274-.672905-7.4359475-1.885437-10.2910157zm-12.699709-4.3400869c-.0963135.0913086-.2199707.1367188-.3430786.1367188-.4454479 0-.6688919-.5453167-.3460083-.8571777.0646973-.064209 1.4069824-1.4414063.5805664-4.5231934-.0715332-.265625.0861816-.5390625.352356-.6103516.2681885-.0700684.5387573.0866699.6102905.3525391.9918823 3.6967773-.7781982 5.4291992-.854126 5.5014648zm4.3675538-.2963867c-.0963745.0913086-.2200317.1367188-.3431396.1367188-.446003 0-.6673813-.5451975-.3469849-.8562012.0491333-.0495605.9806519-1.0258789.394165-3.2111816-.0715332-.265625.0861816-.5385742.352356-.6101074.2628174-.0715332.5392456.0861816.6103516.3522949.751892 2.802246-.6088868 4.1328124-.6667481 4.1884765z"/></g></svg>