<svg id="flat" height="512" viewBox="0 0 512 512" width="512" xmlns="http://www.w3.org/2000/svg"><path d="m398 248 18 24-8 16h80l-8-16-32-8-16-32v-72h-32z" fill="#a2ba18"/><path d="m476 128-13.36656-26.73313a24 24 0 0 0 -21.46626-13.26687h-41.56918l.402 40z" fill="#acc221"/><path d="m488 141.3999a18.60332 18.60332 0 0 1 -18.6 18.6001h-37.4a128.00321 128.00321 0 0 1 -128 128h-189.18994a50.81051 50.81051 0 0 0 -5.93006 101.28l11.12 1.30984 40 4.7002 28.87 3.3999a12.58846 12.58846 0 0 1 11.13 12.51006 12.799 12.799 0 0 1 -12.8 12.8h-83.2a79.95071 79.95071 0 0 1 -80-80v-20c0-1.34009.03-2.66992.09009-4a99.98066 99.98066 0 0 1 99.90991-96h92l144-88v-8.3999a39.5979 39.5979 0 0 1 67.6-28l12.4 12.3999 35.28 11.76a18.59571 18.59571 0 0 1 12.72 17.6399z" fill="#b9cd2a"/><path d="m432 160a128.00321 128.00321 0 0 1 -128 128h-88v-40h96.00009a87.99991 87.99991 0 0 0 87.99991-87.99991v-.00009z" fill="#acc221"/><path d="m400 112h8a8 8 0 0 1 8 8v8a0 0 0 0 1 0 0h-8a8 8 0 0 1 -8-8v-8a0 0 0 0 1 0 0z" fill="#93ad10"/><path d="m320 224v72l24 32-8 16h80l-8-16-32-8-16-32v-64z" fill="#b9cd2a"/><path d="m192 248v32l-32 64h80l-8-16-24-8a63.63246 63.63246 0 0 0 40-59.08126v-12.91874z" fill="#b9cd2a"/><g fill="#a2ba18"><path d="m64 338.81006a50.94715 50.94715 0 0 0 1.62 12.79l-39.69007 9.90994a79.62878 79.62878 0 0 1 -1.92993-17.51v-20c0-1.34009.03-2.66992.09009-4h43.50991a50.66249 50.66249 0 0 0 -3.6 18.81006z"/><path d="m95.15991 385.68994-17.01991 34.04006a79.98368 79.98368 0 0 1 -34.09-22.77l32.68-24.5a51.10649 51.10649 0 0 0 18.42991 13.22994z"/><path d="m160 395.29v28.71h-40v-33.41z"/></g></svg>