<svg id="h" height="512" viewBox="0 0 48 48" width="512" xmlns="http://www.w3.org/2000/svg"><path d="m16.42 42.86s.09.06.13.08c0 0 2.15 1.11 6.45 1.11.49 0 1-.18 1.49-.56.53-.41 1.05-1.08 1.46-1.88.58-1.14.93-2.55.82-3.8-.08-.96-.42-1.83-1.07-2.47-.32-.32-1.03-.55-2.01-.43-1.73.21-4.7 1.29-6.18 1.86-.17-.42-.39-.82-.66-1.25-.38-.62-1.02-.87-1.8-.96.02.16 0 .33-.05.49 0 0-2.38 3.79-3.29 4.71-.6.6-2.47 1.39-3.94 1.87 2.16 2.12 4.69 2.42 6.22 2.42.63 0 1.61-.46 2.42-1.19zm3.9-1.87 3-1c.52-.17.81-.74.63-1.26-.17-.52-.74-.81-1.26-.63l-3 1c-.52.17-.81.74-.63 1.26.17.52.74.81 1.26.63zm-7-6.97c-1.1.33-3.45 1.02-4.31 1.02-.76 0-3.12-.54-4.62-.9.42 2.54 1.17 4.42 2.06 5.82 1.05-.27 3.38-1.15 3.85-1.63.75-.75 2.83-3.98 2.83-3.98.04-.12.11-.23.2-.33zm1.69-1.99h-.01c0 1.05.1 1.68.35 2.04l.54-.25c.49-.25.69-.85.45-1.34-.25-.49-.84-.69-1.33-.45zm1.91-2.29c-.35.2-.69.41-.99.65-.34.27-.63.57-.8.96l2.18.54.79 1.59c.25.49.85.69 1.34.45.49-.25.69-.85.45-1.34l-1-2c-.13-.26-.37-.45-.65-.52zm4.29-5.06c.36.55 2.07 3.11 3.64 4.27.84.62 1.69.85 2.38.67.21.9.6 1.82 1.34 2.58 1 1.04 2.65 1.84 5.42 1.84 1.03 0 2.37-.48 3.73-1.2 2.88-1.51 5.91-4.04 5.91-4.04.32-.27.44-.71.3-1.11s-.52-.66-.94-.66c0 0-6.55.03-10.29-3.71-.86-.86-2.07-.84-3.21-.16-.56.34-1.09.84-1.52 1.41-.3-.37-.64-.74-.97-1.07.51-.18.98-.37 1.41-.57 1.33-.63 2.69-2.15 3.81-3.77 1.05-1.53 1.89-3.13 2.34-4.02.92.13 2.5.26 4.09 0 1.6-.27 3.18-.94 4.2-2.3.68-.91 1.14-2.14 1.14-3.81 0-1.03-.41-2.16-1.08-3.08-.7-.95-1.67-1.67-2.71-1.89-1.03-.22-2.3-.11-3.81.13-2 .32-4.47.85-7.4.85-.55 0-1 .45-1 1s.45 1 1 1c3.06 0 5.63-.55 7.72-.88 1.22-.19 2.24-.32 3.07-.15.59.13 1.12.58 1.51 1.12.42.57.7 1.27.7 1.9 0 1.14-.27 1.99-.74 2.61-.71.94-1.83 1.35-2.93 1.53-.55.09-1.1.13-1.61.13.51-.72.71-1.62.16-2.71-.95-1.9-2.74-2.44-4.82-2.35-1.53.07-3.23.49-4.71.74-.82.13-1.56.22-2.13.09-1-.23-2.02-.82-2.97-1.39-1.11-.67-2.14-1.32-2.94-1.59-1.1-.37-3.47-.04-3.47-.04-.55.08-.92.59-.84 1.14s.59.92 1.14.84c0 0 1.73-.31 2.53-.04.7.23 1.58.83 2.55 1.41 1.13.68 2.36 1.34 3.54 1.62.67.16 1.5.14 2.41.01 1.17-.16 2.51-.48 3.81-.67.77-.11 1.53-.17 2.21-.09.81.1 1.5.41 1.9 1.22.23.46-.07.79-.36 1.02-.31.25-.67.42-.88.51-1.21-.13-6.69-.71-11.03-.64-2.14.03-4.03.25-5.09.68-1.36.16-10.07 1.47-12.87 10.07 1.02.12 3.42.45 4.45 1.01.72.39 1.3.9 1.58 1.45.78 1.56 3.11 3.6 3.86 4.25.22-.13.45-.25.67-.38.61-.33 1.19-.64 1.61-.97.41-.32.7-.67.87-1.04.21-.48.32-1.13.33-1.8 0-.37 0-.75-.04-1.11.43.09.9.14 1.41.16s1.05.02 1.61-.02zm-16.85.39c-.24 1.2-.37 2.52-.37 3.97 0 1.09.04 2.1.12 3.03.7.17 4.11.97 4.88.97.86 0 4-1 4-1 0-.34.09-.63.24-.89-.9-.78-3.27-2.96-4.13-4.67-.18-.36-.7-.59-1.2-.81-.79-.34-2.73-.54-3.54-.61zm15.86 1c-.04.52-.14 1-.31 1.38-.12.28-.32.54-.57.78l.71 2.13c.17.52.74.81 1.26.63.52-.17.81-.74.63-1.26l-1-3c-.11-.34-.39-.58-.72-.66zm13.15-3.76c1.6 1.32 3.55 2.07 5.28 2.51.27-.35.61-.68 1-1.01.28-.24.41-.62.33-.98s-.36-.65-.72-.75c-2.06-.55-4.01-.44-5.89.23z" fill-rule="evenodd"/></svg>