<svg id="flat" height="512" viewBox="0 0 64 64" width="512" xmlns="http://www.w3.org/2000/svg"><path d="m40 51h-7.5c-.97 0-1.9-.35-2.63-.99l-3.76-3.29c1.5-1.16 1.89-2.72 1.89-2.72l4 4z" fill="#ffa69f"/><path d="m63 19v8c0 6.56-3.88 9.68-6.54 11.05.28-2.42-1.3-5.05-3.46-5.05 0 0-.75 0-1.76.24.87-4.52 5.76-4.24 5.76-4.24l4-9z" fill="#fc5744"/><path d="m45 1-1 2-9 4s.28 4.89-4.24 5.76c.24-1.01.24-1.76.24-1.76 0-2.16-2.63-3.74-5.05-3.46 1.37-2.66 4.49-6.54 11.05-6.54z" fill="#fc5744"/><path d="m16.89 55.09c1.13 1.52 2.8 4.48 2.11 7.91h-2l-2.51-2.51c1.87-2.07 2.4-3.95 2.4-5.4z" fill="#fc5744"/><path d="m8.91 47.11c-1.45 0-3.33.53-5.4 2.4l-2.51-2.51v-2c3.43-.69 6.39.98 7.91 2.11z" fill="#fc5744"/><g fill="#ffa69f"><path d="m32 55h-7.5c-.97 0-1.9-.35-2.63-.99l-2.95-2.58c1.22-.53 1.98-1.36 2.44-2.07l2.64 2.64z"/><path d="m12 40 2.64 2.64c-.71.46-1.54 1.22-2.07 2.44l-2.58-2.95c-.64-.73-.99-1.66-.99-2.63v-7.5z"/><path d="m16 32 4 4s-1.56.39-2.72 1.89l-3.29-3.76c-.64-.73-.99-1.66-.99-2.63v-7.5z"/><path d="m48 47h-7.5c-.97 0-1.9-.35-2.63-.99l-4.82-4.22c.73-.92.95-1.79.95-1.79h1.8c.06 0 .13 0 .19-.01l4.01 4.01z"/><path d="m24.01 28.01c-.01.06-.01.13-.01.19v1.8s-.87.22-1.79.95l-4.22-4.82c-.64-.73-.99-1.66-.99-2.63v-7.5l3 8z"/></g><path d="m46.78 22.36c.73.43 1.22 1.23 1.22 2.14 0 1.38-1.12 2.5-2.5 2.5-.33 0-.65-.06-.94-.19l-.56-2.81 1.18-1.97c.11-.02.21-.03.32-.03.47 0 .91.13 1.28.36z" fill="#616570"/><path d="m42 18.5c0 .11-.01.21-.03.32l-1.97 1.18-2.81-.56c-.13-.29-.19-.61-.19-.94 0-1.38 1.12-2.5 2.5-2.5.91 0 1.71.49 2.14 1.22.23.37.36.81.36 1.28z" fill="#616570"/><path d="m47.43 18.29c5.95-2.65 12.67-4.1 13.49-4.27-5.68 1.45-11.35 5.9-14.14 8.34-.37-.23-.81-.36-1.28-.36-.11 0-.21.01-.32.03l2.24-3.74z" fill="#db381d"/><path d="m49.98 3.08c-.17.82-1.62 7.54-4.27 13.49v.01l-3.74 2.24c.02-.11.03-.21.03-.32 0-.47-.13-.91-.36-1.28 2.44-2.79 6.89-8.46 8.34-14.14z" fill="#db381d"/><path d="m57 19v10s-4.89-.28-5.76 4.24c-.75.18-1.65.5-2.49 1.05.3-9.72 8.25-15.29 8.25-15.29z" fill="#db381d"/><path d="m53 33c2.16 0 3.74 2.63 3.46 5.05-.22 2.05-1.79 3.95-5.46 3.95-5.81 0-9.77-2.81-11.51-4.34l2.48-3.89 4.31 1.91c.4.18.87.08 1.15-.24.4-.47.85-.85 1.32-1.15.84-.55 1.74-.87 2.49-1.05 1.01-.24 1.76-.24 1.76-.24z" fill="#db381d"/><path d="m50 14-2.57 4.29h-.01l-2.24 3.74-1.18 1.97.56 2.81.12.61c.21 1.02.01 2.07-.54 2.94l-2.17 3.41-2.48 3.89-.31.49c-.71 1.1-1.89 1.78-3.19 1.84-.06.01-.13.01-.19.01h-1.8l-10-10v-1.8c0-.06 0-.13.01-.19.06-1.3.74-2.48 1.84-3.19l.49-.31 3.89-2.48 3.41-2.17c.87-.55 1.92-.75 2.94-.54l.61.12 2.81.56 1.97-1.18 3.74-2.24v-.01z" fill="#fc5744"/><path d="m39.73 37.29-.24.37-.31.49c-.71 1.1-1.89 1.78-3.19 1.84-.06.01-.13.01-.19.01h-1.8l-10-10v-1.8c0-.06 0-.13.01-.19.06-1.3.74-2.48 1.84-3.19l.49-.31.37-.24c-.18.42-.28.87-.3 1.34-.01.06-.01.13-.01.19v1.8l10 10h1.8c.06 0 .13 0 .19-.01.47-.02.92-.12 1.34-.3z" fill="#db381d"/><path d="m35 7h10s-5.57 7.95-15.29 8.25c.55-.84.87-1.74 1.05-2.49 4.52-.87 4.24-5.76 4.24-5.76z" fill="#db381d"/><path d="m24 30 10 10s-.22.87-.95 1.79c-.85 1.07-2.38 2.21-5.05 2.21l-8-8c0-2.67 1.14-4.2 2.21-5.05.92-.73 1.79-.95 1.79-.95z" fill="#fc5744"/><path d="m34 40s-.22.87-.95 1.79c-.85 1.07-2.38 2.21-5.05 2.21l-8-8c0-1.48.35-2.61.84-3.47l6.923 6.923c.538.538 1.295.831 2.047.718 1.339-.202 2.315-.724 3.031-1.331z" fill="#db381d"/><path d="m31 11s0 .75-.24 1.76c-.18.75-.5 1.65-1.05 2.49-.3.47-.68.92-1.15 1.32-.32.28-.42.75-.24 1.15l1.91 4.31-3.89 2.48c-1.53-1.74-4.34-5.7-4.34-11.51 0-3.67 1.9-5.24 3.95-5.46 2.42-.28 5.05 1.3 5.05 3.46z" fill="#db381d"/><path d="m20 36 8 8s-.39 1.56-1.89 2.72c-.91.71-2.23 1.28-4.11 1.28l-6-6c0-1.88.57-3.2 1.28-4.11 1.16-1.5 2.72-1.89 2.72-1.89z" fill="#fc5744"/><path d="m28 44s-.39 1.56-1.89 2.72c-.91.71-2.23 1.28-4.11 1.28l-6-6c0-.98.16-1.81.41-2.51l5.59 5.59c1.88 0 3.2-.57 4.11-1.28.34-.26.62-.55.86-.83z" fill="#db381d"/><path d="m16 42 6 6s-.15.61-.64 1.36c-.46.71-1.22 1.54-2.44 2.07-.78.35-1.74.57-2.92.57l-4-4c0-1.18.22-2.14.57-2.92.53-1.22 1.36-1.98 2.07-2.44.75-.49 1.36-.64 1.36-.64z" fill="#fc5744"/><path d="m21.38 49.33c-.01.01-.01.02-.02.03-.46.71-1.22 1.54-2.44 2.07-.78.35-1.74.57-2.92.57l-4-4c0-1.18.22-2.14.57-2.92.53-1.22 1.36-1.98 2.07-2.44.01-.01.02-.01.03-.02-.16.23-.3.49-.42.78-.35.78-.57 1.74-.57 2.92l4 4c1.18 0 2.14-.22 2.92-.57.29-.12.55-.26.78-.42z" fill="#db381d"/><path d="m16.89 55.08v.01c0 1.45-.53 3.33-2.4 5.4l-4.49-4.49c5 0 6-4 6-4s.89 1.19.89 3.08z" fill="#db381d"/><path d="m12 48 4 4s-1 4-6 4l-2-2c0-5 4-6 4-6z" fill="#fc5744"/><path d="m12 48s-4 1-4 6l-4.49-4.49c2.07-1.87 3.95-2.4 5.4-2.4h.01c1.89 0 3.08.89 3.08.89z" fill="#db381d"/><path d="m39.73 26.614v3.202c0 .103-.026.204-.075.294l-1.268 2.32c-.169.309-.043.697.275.849l.353.168c.273.13.601.042.771-.208l2.106-3.083c.071-.101.108-.222.108-.346v-3.196c0-.339-.275-.614-.614-.614h-1.042c-.339 0-.614.275-.614.614z" fill="#ffa69f"/></svg>