<svg id="Layer_3" enable-background="new 0 0 128 128" height="512" viewBox="0 0 128 128" width="512" xmlns="http://www.w3.org/2000/svg" xmlns:xlink="http://www.w3.org/1999/xlink"><linearGradient id="lg1"><stop offset="0" stop-color="#f9ddd1"/><stop offset=".5137" stop-color="#f8dbce"/><stop offset=".8222" stop-color="#f6d3c6"/><stop offset="1" stop-color="#f4cabd"/></linearGradient><linearGradient id="SVGID_1_" gradientUnits="userSpaceOnUse" x1="30" x2="42" xlink:href="#lg1" y1="58" y2="58"/><linearGradient id="SVGID_2_" gradientUnits="userSpaceOnUse" x1="98" x2="86" xlink:href="#lg1" y1="58" y2="58"/><linearGradient id="lg2"><stop offset="0" stop-color="#f7d0bf"/><stop offset="1" stop-color="#f1beae"/></linearGradient><linearGradient id="SVGID_3_" gradientTransform="matrix(.964 -.266 .266 .964 159.652 -272.499)" gradientUnits="userSpaceOnUse" x1="-208.708" x2="-201.83" xlink:href="#lg2" y1="286.17" y2="286.17"/><linearGradient id="SVGID_4_" gradientTransform="matrix(-.964 -.266 -.266 .964 -1905.652 -272.499)" gradientUnits="userSpaceOnUse" x1="-2015.041" x2="-2008.163" xlink:href="#lg2" y1="-212.865" y2="-212.865"/><linearGradient id="SVGID_5_" gradientUnits="userSpaceOnUse" x1="54" x2="74" xlink:href="#lg1" y1="81" y2="101"/><linearGradient id="SVGID_6_" gradientUnits="userSpaceOnUse" x1="57.09" x2="76.814" y1="77.575" y2="97.299"><stop offset="0" stop-color="#eeae9a"/><stop offset=".3161" stop-color="#efb4a0"/><stop offset=".7381" stop-color="#f4c3b1"/><stop offset="1" stop-color="#f7d0bf"/></linearGradient><linearGradient id="lg3"><stop offset="0" stop-color="#f1f2f2"/><stop offset="1" stop-color="#e6e7e8"/></linearGradient><linearGradient id="SVGID_7_" gradientUnits="userSpaceOnUse" x1="64" x2="64" xlink:href="#lg3" y1="98" y2="126"/><linearGradient id="SVGID_8_" gradientUnits="userSpaceOnUse" x1="41.374" x2="86.626" xlink:href="#lg1" y1="31.901" y2="77.152"/><linearGradient id="SVGID_9_" gradientUnits="userSpaceOnUse" x1="64" x2="64" y1="56" y2="70"><stop offset="0" stop-color="#f7d0bf"/><stop offset="1" stop-color="#eeae9a"/></linearGradient><linearGradient id="SVGID_10_" gradientUnits="userSpaceOnUse" x1="64" x2="64" y1="21.099" y2="51.376"><stop offset="0" stop-color="#9d766a"/><stop offset="1" stop-color="#53371a"/></linearGradient><linearGradient id="SVGID_11_" gradientUnits="userSpaceOnUse" x1="54" x2="54" xlink:href="#lg3" y1="89.735" y2="116.211"/><linearGradient id="SVGID_12_" gradientUnits="userSpaceOnUse" x1="74" x2="74" xlink:href="#lg3" y1="84.572" y2="112.931"/><linearGradient id="lg4"><stop offset="0" stop-color="#58595b"/><stop offset="1" stop-color="#414042"/></linearGradient><linearGradient id="SVGID_13_" gradientUnits="userSpaceOnUse" x1="34" x2="34" xlink:href="#lg4" y1="98.569" y2="126"/><linearGradient id="lg5"><stop offset="0" stop-color="#6c6f73"/><stop offset="1" stop-color="#56585b"/></linearGradient><linearGradient id="SVGID_14_" gradientUnits="userSpaceOnUse" x1="43" x2="43" xlink:href="#lg5" y1="98.569" y2="126"/><linearGradient id="SVGID_15_" gradientTransform="matrix(-1 0 0 1 910 0)" gradientUnits="userSpaceOnUse" x1="816" x2="816" xlink:href="#lg4" y1="98.569" y2="126"/><linearGradient id="SVGID_16_" gradientTransform="matrix(-1 0 0 1 910 0)" gradientUnits="userSpaceOnUse" x1="825" x2="825" xlink:href="#lg5" y1="98.569" y2="126"/><linearGradient id="SVGID_17_" gradientUnits="userSpaceOnUse" x1="64" x2="64" y1="95.176" y2="109.825"><stop offset="0" stop-color="#e15c63"/><stop offset=".4062" stop-color="#de585f"/><stop offset=".8264" stop-color="#d44b53"/><stop offset="1" stop-color="#ce444c"/></linearGradient><linearGradient id="SVGID_18_" gradientUnits="userSpaceOnUse" x1="64" x2="64" xlink:href="#lg5" y1="36.306" y2="45.095"/><linearGradient id="SVGID_19_" gradientUnits="userSpaceOnUse" x1="20.584" x2="101.872" xlink:href="#lg4" y1="20" y2="20"/><linearGradient id="SVGID_20_" gradientUnits="userSpaceOnUse" x1="22.461" x2="100.234" y1="33" y2="33"><stop offset="0" stop-color="#e15c63"/><stop offset="1" stop-color="#ce444c"/></linearGradient><linearGradient id="SVGID_21_" gradientTransform="matrix(.866 .5 -.5 .866 79.491 -82.665)" gradientUnits="userSpaceOnUse" x1="108.643" x2="117.432" xlink:href="#lg3" y1="124.287" y2="124.287"/><linearGradient id="SVGID_22_" gradientUnits="userSpaceOnUse" x1="99.546" x2="103.336" xlink:href="#lg5" y1="104.71" y2="106.858"/><path d="m41.546 56.443c1.262 4.333-.199 8.543-3.262 9.402-3.063.86-6.569-1.956-7.831-6.289s.199-8.543 3.262-9.402c3.064-.859 6.57 1.956 7.831 6.289z" fill="url(#SVGID_1_)"/><path d="m86.454 56.443c-1.262 4.333.199 8.543 3.262 9.402 3.063.86 6.569-1.956 7.831-6.289s-.199-8.543-3.262-9.402c-3.064-.859-6.57 1.956-7.831 6.289z" fill="url(#SVGID_2_)"/><path d="m41.321 57.105c.609 2.153-.383 4.298-2.217 4.793s-3.815-.85-4.424-3.002c-.609-2.153.383-4.298 2.217-4.793s3.814.849 4.424 3.002z" fill="url(#SVGID_3_)"/><path d="m86.679 57.105c-.609 2.153.383 4.298 2.217 4.793 1.834.494 3.815-.85 4.424-3.002.609-2.153-.383-4.298-2.217-4.793s-3.814.849-4.424 3.002z" fill="url(#SVGID_4_)"/><path d="m76 99h-24l2-18h20z" fill="url(#SVGID_5_)"/><path d="m74 81h-20l-.581 6.39 15.61 11.61h6.971z" fill="url(#SVGID_6_)"/><path d="m78 98h-28c-29.269 0-34 28-34 28h96s-4.731-28-34-28z" fill="url(#SVGID_7_)"/><path d="m64 90c-14.3 0-26-13.7-26-28v-16c0-14.3 11.7-26 26-26 14.3 0 26 11.7 26 26v16c0 14.3-11.7 28-26 28z" fill="url(#SVGID_8_)"/><path d="m54.263 58h-.527c-.955 0-1.736-.781-1.736-1.737v-2.527c0-.955.781-1.736 1.737-1.736h.527c.955 0 1.736.781 1.736 1.737v2.527c0 .955-.781 1.736-1.737 1.736z" fill="#51251f"/><path d="m74.263 58h-.527c-.955 0-1.736-.781-1.736-1.737v-2.527c0-.955.781-1.736 1.737-1.736h.527c.955 0 1.736.781 1.736 1.737v2.527c0 .955-.781 1.736-1.737 1.736z" fill="#51251f"/><path d="m64.158 70h-.316c-1.563 0-2.842-1.279-2.842-2.842v-8.316c0-1.563 1.279-2.842 2.842-2.842h.316c1.563 0 2.842 1.279 2.842 2.842v8.316c0 1.563-1.279 2.842-2.842 2.842z" fill="url(#SVGID_9_)"/><path d="m51 49c-.544 0-.99-.437-1-.982-.01-.552.43-1.008.982-1.018l6-.105c.568-.002 1.008.431 1.018.982s-.43 1.008-.982 1.018l-6 .105c-.006 0-.013 0-.018 0z" fill="#7a5954"/><path d="m77 49c-.006 0-.012 0-.018 0l-6-.105c-.552-.01-.992-.466-.982-1.018.01-.553.514-.982 1.018-.982l6 .105c.552.01.992.466.982 1.018-.01.545-.456.982-1 .982z" fill="#7a5954"/><path d="m64 20c-14.3 0-26 11.7-26 26v5.127c18.155-2.218 33.317-8.702 41.232-14.009-.506 5.598 2.397 12.295 10.768 14.309v-5.427c0-14.3-11.7-26-26-26z" fill="url(#SVGID_10_)"/><path d="m52 91 12 7-9 15-11-15z" fill="url(#SVGID_11_)"/><path d="m76 91-12 7 9 15 11-15z" fill="url(#SVGID_12_)"/><path d="m43.183 98.569c-23.194 3.928-27.183 27.431-27.183 27.431h36z" fill="url(#SVGID_13_)"/><path d="m43.183 98.569c-2.396.406-4.576 1.03-6.578 1.806l-2.605 15.625 4 5-4 2 2 3h16z" fill="url(#SVGID_14_)"/><path d="m84.817 98.569c23.194 3.928 27.183 27.431 27.183 27.431h-36z" fill="url(#SVGID_15_)"/><path d="m84.817 98.569c2.396.406 4.576 1.03 6.578 1.806l2.605 15.625-4 5 4 2-2 3h-16z" fill="url(#SVGID_16_)"/><path d="m71 73v1.22c0 3.729-3.15 6.78-7 6.78-3.85 0-7-3.051-7-6.78v-1.22z" fill="#f09890"/><path d="m57 73v1.22c0 .264.02.524.051.78h13.899c.03-.257.05-.516.05-.78v-1.22z" fill="#f1f2f2"/><path d="m73.09 98.499c-1.374-1.408-5.211.529-6.592 1.298-.288-.308-.666-.5-1.086-.5h-2.824c-.42 0-.799.192-1.086.5-1.381-.768-5.217-2.705-6.592-1.298-1.688 1.733-1.037 10.653 2.027 9.376 0 0 3.274-1.325 4.846-3.151.239.161.511.261.805.261h2.824c.295 0 .567-.099.805-.261 1.572 1.826 4.846 3.151 4.846 3.151 3.064 1.277 3.714-7.643 2.027-9.376z" fill="url(#SVGID_17_)"/><path d="m29 38h70v6h-70z" fill="url(#SVGID_18_)"/><path d="m87.809 2h-47.618c-2.271 0-4.071 1.916-3.929 4.182l1.738 31.818h52l1.739-31.818c.141-2.266-1.659-4.182-3.93-4.182z" fill="url(#SVGID_19_)"/><path d="m37.454 28 .546 10h52l.546-10z" fill="url(#SVGID_20_)"/><path d="m115.825 85.291 2.907-5.25-3.464-2-3.093 5.143z" fill="url(#SVGID_21_)"/><path d="m117 31-2.318 5.682-5.682 2.318 5.682 2.318 2.318 5.682 2.318-5.682 5.682-2.318-5.682-2.318z" fill="#e0b8cd"/><path d="m109 49-1.738 4.262-4.262 1.738 4.262 1.738 1.738 4.262 1.738-4.262 4.262-1.738-4.262-1.738z" fill="#e4c2d4"/><path d="m119 63-1.738 4.262-4.262 1.738 4.262 1.738 1.738 4.262 1.738-4.262 4.262-1.738-4.262-1.738z" fill="#eacfdd"/><path d="m112.175 83.184-25.731 42.784h6.854l22.527-40.677z" fill="url(#SVGID_22_)"/></svg>