<svg id="Layer_1" enable-background="new 0 0 512 512" height="512" viewBox="0 0 512 512" width="512" xmlns="http://www.w3.org/2000/svg"><g><path d="m432.383 152.558c-10.58-43.805-37.48-104.241-128.49-130.462-105.778-30.477-189.75 66.581-209.589 106.948s-63.645 109.221-76.464 122.423-46.795 83.428 36.156 118.138c82.819 34.655 167.788 28.039 274.541-28.797s112.168-153.792 103.846-188.25z" fill="#f25226"/><g><g><path d="m393.789 179.331c38.818 63.716 115.753 88.044 115.753 88.044s13.998-78.977-24.82-142.693-96.308-56.127-96.308-56.127-33.443 47.06 5.375 110.776z" fill="#57a633"/></g><g><path d="m509.544 267.384s13.991-78.993-24.821-142.694c-38.812-63.718-96.314-56.142-96.314-56.142z" fill="#407a26"/></g></g><g><path d="m382.986 75.44c-3.044.614-6.324-.37-8.523-2.87-3.275-3.722-2.912-9.394.809-12.67 2.53-2.226 9.668-8.596 12.289-11.305 3.449-3.564 9.13-3.657 12.694-.21 3.563 3.447 3.657 9.13.21 12.693-3.597 3.717-12.348 11.433-13.333 12.3-1.223 1.077-2.657 1.761-4.146 2.062z" fill="#66390f"/></g><path d="m372.515 310.709c-37.849-63.664-114.589-124.492-161.934-185.437-26.992-34.745-29.484-65.123-22.608-89.183-47.803 25.428-81.943 69.093-93.67 92.954-19.838 40.368-63.644 109.222-76.463 122.424-12.818 13.202-46.795 83.428 36.156 118.138 82.819 34.655 167.788 28.039 274.541-28.797 17.161-9.137 31.691-19.315 43.978-30.099z" fill="#f27126"/><path d="m81.829 152.674c-21.894 39.356-53.438 87.926-63.989 98.793-12.818 13.202-46.795 83.428 36.156 118.138 41.888 17.528 84.332 24.478 129.861 19.732-70.791-76.21-94.916-167.819-102.028-236.663z" fill="#f29018"/><path d="m393.323 289.503c-248.672 116.309-348.273 2.432-374.64-38.938-.292.321-.577.628-.843.902-12.818 13.202-46.795 83.428 36.156 118.138 82.819 34.655 167.788 28.039 274.541-28.797 28.077-14.949 49.135-32.673 64.786-51.305z" fill="#9e441a" opacity=".17"/><path d="m276.21 236.866-231.189 167.509 9.141 23.421c53.629 36.7 126.672 37.841 182.315-2.475s77.31-110.08 59.142-172.473z" fill="#f25226"/><path d="m267.136 243.441-213.041 154.36 9.544 23.129c49.582 32.003 115.743 32.219 166.404-4.488s71.064-99.643 56.099-156.727z" fill="#ffcb2e"/><path d="m231.3 428.919c-108.74 3.656-152.215-22.005-168.413-37.488l-17.866 12.945 9.141 23.421c51.982 35.571 122.202 37.736 177.138 1.122z" fill="#9e441a" opacity=".17"/><path d="m343.259 492.408c82.276-17.389 134.878-98.184 117.489-180.461l-297.949 62.972c17.389 82.277 98.184 134.878 180.46 117.489z" fill="#f25226"/><path d="m341.079 482.089c76.578-16.185 125.536-91.384 109.351-167.961l-277.312 58.61c16.184 76.578 91.383 125.536 167.961 109.351z" fill="#ffcb2e"/><path d="m168.824 395.9c25.593 69.999 99.393 112.368 174.436 96.508 29.062-6.142 54.414-20.203 74.294-39.438-123.217 43.803-212.497-22.23-248.73-57.07z" fill="#9e441a" opacity=".17"/></g></svg>