<svg clip-rule="evenodd" fill-rule="evenodd" height="512" image-rendering="optimizeQuality" shape-rendering="geometricPrecision" text-rendering="geometricPrecision" viewBox="0 0 1.70666 1.70666" width="512" xmlns="http://www.w3.org/2000/svg"><g id="Layer_x0020_1"><g id="_273015776"><path id="_272986544" d="m1.35464.971236c-.00339764 0-.00683071-.00087795-.00998031-.00268504-.00956693-.00550787-.0128425-.0177441-.0073189-.027311l.123051-.213146c.00552756-.00956693.0177874-.0127992.027315-.00731496.00956693.00550787.0128425.0177441.00731496.027311l-.123051.21313c-.00370866.00641732-.0104291.0100157-.0173307.0100157z" fill="#e6e6e6"/><path id="_272986784" d="m1.47676.758461c-.0035 0-.00698425-.00091732-.0100984-.00273228-.00526378-.00308268-.00884252-.00838976-.00970472-.0144449l-.0138307-.0967756c-.00062205-.00442913.00025197-.00896063.00248819-.0128346l.0610197-.105661c.00552756-.00956693.0177874-.012815.027311-.00731496l.105665.0610197c.00459449.00264961.00794094.00701181.00931496.0121496.00138976.00512205.00066535.0105787-.002.0151772l-.0610197.105661c-.00227559.00393307-.0058189.00698819-.0100669.00864173l-.0918307.0357717c-.00234646.00090158-.00480315.00134252-.00724803.00134252z" fill="#e6e6e6"/><path id="_272986880" d="m1.36568 1.16052c-.00520472 0-.0102362-.00202362-.0140118-.00572047-.0517323-.0507559-.108913-.0853031-.169972-.102689-.00593307-.0016811-.0107323-.00601575-.0130551-.0117205-.00230315-.00570472-.0018622-.0121772.00122441-.0175118l.0772205-.133756c.00264961-.00459843.00702756-.00794094.0121339-.00931496.0051378-.00137402.0105984-.00066535.0151772.002l.1805.104201c.00459843.00265354.00794094.00702756.0093189.0121378.00138976.00512205.00066535.0105945-.002.0151772l-.0792087.137185c-.00309843.00535827-.00848819.0089685-.014626.0098189-.0008937.00012598-.00179921.00019291-.00270079.00019291z" fill="#ff5959"/><path id="_273018632" d="m.444823 1.08328c-.00691732 0-.0136378-.00359449-.0173465-.0100118l-.135213-.234197c-.00551181-.00957087-.00225197-.0218031.00731496-.027315.00958661-.00552756.0218031-.00223622.027315.00731496l.135213.234217c.00550787.00955118.00224803.0217835-.0073189.027311-.00313386.00180709-.00656299.0026811-.00996457.0026811z" fill="#e6e6e6"/><path id="_273018752" d="m1.57039 1.70722c-.00006693.00001575-.00017717.00001575-.00027559 0h-1.4336c-.0110394 0-.0199961-.0089685-.0199961-.0199961 0-.379185.223335-.687673.497858-.687673h.0752598l.163827.212906.163827-.212906h.0749685c.273705 0 .496528.306681.497858.684299.00019685.00109843.00029528.00222047.00029528.00337402-.00002756.0110394-.0089685.0199961-.0200236.0199961z" fill="#3c5174"/><g fill="#808da4"><path id="_273018656" d="m.125697 1.55565c.00189764-.0134685.00404331-.026815.00650394-.0399961h.291874c.0110354 0 .0199961.00897244.0199961.0199961 0 .0110276-.00895276.02-.0199961.02h-.298378zm1.44871-.0399961c.00246063.0131811.00462992.0265236.00652756.0399961h-.298394c-.0110354 0-.0199961-.00897244-.0199961-.02 0-.0110236.00897244-.0199961.0199961-.0199961h.291866z"/><path id="_273018296" d="m1.05057.999551h.041689c.0485118 0 .0954055.00967717.139772.0276299v.354181c0 .010748-.00851181.0195787-.0192717.0199803-.0106378.00001575-.0198976-.00780709-.0206772-.0185276-.00194488-.0263583-.0241929-.0470197-.0506772-.0470197-.0280354 0-.0508228.0227992-.0508228.0508071-.00001575.0110354-.00898819.0200039-.0200157.0200039-.0110354 0-.0199961-.0089685-.0199961-.0199961v-.387059z"/><path id="_273017936" d="m.474413 1.02726c.0444173-.018.0913819-.0277047.139961-.0277047h.0414685v.381783c0 .010748-.00851575.0195827-.0192638.0199803-.0105118.00011024-.0198858-.0077874-.0206772-.0185276-.00194488-.0263583-.0242087-.0470197-.050685-.0470197-.0280236 0-.0508268.0227992-.0508268.050811.00001575.0110591-.00892126.0200276-.0199803.0200276-.0110394 0-.0199961-.0089685-.0199961-.0199961v-.359354z"/><path id="_273018128" d="m.404079 1.70722v-.32061c0-.0110394.00895669-.0199961.0199961-.0199961h.858453c.0110394 0 .02.0089685.02.0199961v.32061h-.898449z"/></g><path id="_273018224" d="m.585228 1.70722h-.0399921v-.249787c0-.0110394.00895669-.0199961.0199961-.0199961.0110354 0 .0199961.0089685.0199961.0199961v.249787z" fill="#334562"/><path id="_273017168" d="m.565232 1.47743c-.0500748 0-.0908189-.0407598-.0908189-.0908307 0-.0500591.0407441-.0908189.0908189-.0908189s.0908189.0407598.0908189.0908189c0 .0500866-.0407441.0908307-.0908189.0908307z" fill="#334562"/><path id="_273017576" d="m.853457.949374c-.157988 0-.280276-.159654-.329406-.311461-.048685-.0207205-.0830551-.0715157-.0830551-.124701 0-.0515787.0298661-.102913.0743346-.127728.00298425-.00166929.00634252-.00253937.00974409-.00253937h.656756c.00341732 0 .00676772.00087795.00974803.00253937.0444646.0248307.0743504.0761575.0743504.127728 0 .053185-.0343819.10398-.0830591.124701-.0491417.151807-.171441.311461-.329413.311461z" fill="#fec9a3"/><path id="_273017360" d="m1.18209.422949c-.00005906 0-.00016929.00001575-.00027953 0h-.656736c-.00539764 0-.0105787-.00217717-.0143425-.00606693-.00376378-.00387402-.00580315-.00911024-.00565354-.0145118l.00056693-.0195394c.00001575-.00059843.00005906-.00119685.0001378-.00179134l.0213858-.179276c.0166811-.139783.175835-.202339.326142-.202339.145587 0 .309839.0633189.326417.202339l.0213898.179276c.00006693.00059843.00012598.00119685.00013386.00179134l.00045669.0162047c.00025197.00126772.00037402.00256693.00037402.00390157.00001968.0110591-.00893701.0200118-.0199921.0200118z" fill="#3c5174"/><path id="_273017528" d="m1.06437.550236c-.0121102 0-.0250512-.00296063-.041437-.00669291-.0323976-.00740157-.0813622-.0185787-.170276-.0185787-.0889055 0-.137878.0111929-.170291.0185787-.0163858.00374803-.0293465.00669291-.041437.00669291-.0382441 0-.0557795-.0253583-.113898-.109374l-.018374-.0264961c-.00425197-.0061063-.00475197-.0140787-.00129134-.0206772.00344094-.00659843.0102756-.0107244.0177165-.0107244l.657047.00000787c.00744094 0 .0142598.00413386.0177205.0107205.00344094.00659843.00294488.0145669-.00130709.0206811l-.0202244.0264252c-.0581535.084063-.0756929.109437-.113949.109437z" fill="#49648e"/><path id="_273017480" d="m1.02634.283713h-.345776c-.0110394 0-.0199961-.00896063-.0199961-.0199961v-.105067c0-.0110354.00895669-.0199961.0199961-.0199961l.345776-.00000394c.0110354 0 .0199961.00896063.0199961.0199961v.105063c.00000394.0110591-.00895669.0200039-.0199961.0200039z" fill="#d6d6d4"/><path id="_273017672" d="m.232417.87039c-.0624803.00001575-.120673-.033563-.151894-.087622-.0348268-.0603346-.0306181-.135563.0107362-.19165.00399606-.00542913.0103189-.00853937.0172047-.00809843.00673228.00037402.0128307.00412598.0162047.00997244l.0628661.108886.0729055-.0420906-.0628661-.108886c-.00337402-.00584646-.00356693-.013-.00052756-.0190276.00303937-.00602362.00891732-.0101063.015622-.0108583.00643307-.00072441.0129724-.00108268.0194567-.00108268.0624803 0 .120673.0335827.151878.087626.0233976.0405315.029622.087748.0175079.132965-.0121102.0452008-.0411063.0829882-.081626.106386-.0266339.0153583-.0568819.0234803-.0874685.0234803z" fill="#e6e6e6"/><path id="_273016448" d="m1.01729.999551-.0465551-.0806417c-.036126.0192717-.0754528.0304646-.117276.0304646-.0418228 0-.0811457-.011189-.117272-.0304567l-.0465512.0806339.163827.212906.163827-.212906z" fill="#fec9a3"/><path id="_273016928" d="m.984126.942106-.0133937-.0231969c-.036126.0192717-.0754528.0304646-.117276.0304646-.0418228 0-.0811457-.011189-.117272-.0304567l-.0133937.0231969c.0397008.0213346.083437.0339252.130665.0339252.0472283 0 .0909685-.0125906.130669-.0339331z" fill="#feb593"/><g fill="#334562"><path id="_273017048" d="m1.16137 1.70722h-.0399921v-.249787c0-.0110394.00895669-.0199961.0199961-.0199961.0110354 0 .0199961.0089685.0199961.0199961v.249787z"/><path id="_273016664" d="m1.14138 1.47743c-.0500748 0-.0908189-.0407598-.0908189-.0908307 0-.0500591.0407441-.0908189.0908189-.0908189s.0908189.0407598.0908189.0908189c0 .0500866-.0407441.0908307-.0908189.0908307z"/></g><path id="_273016616" d="m.404079 1.55565h-.278382c-.00603937.0425945-.0091811.0865866-.0091811.131571 0 .0110276.00895669.0199961.0199961.0199961h.267567v-.151567z" fill="#fec9a3"/><path id="_273016856" d="m1.30253 1.55565v.151567h.267583c.00009843.00001575.00020866.00001575.00027559 0 .0110551 0 .0199961-.00895669.0200236-.0199961 0-.00115354-.00009843-.00227559-.00029528-.00337402-.00015354-.043811-.00329134-.0866693-.00917717-.128197h-.278409z" fill="#fec9a3"/></g></g></svg>