<?xml version="1.0" encoding="iso-8859-1"?>
<!-- Generator: Adobe Illustrator 19.0.0, SVG Export Plug-In . SVG Version: 6.00 Build 0)  -->
<svg xmlns="http://www.w3.org/2000/svg" xmlns:xlink="http://www.w3.org/1999/xlink" version="1.1" id="Capa_1" x="0px" y="0px" viewBox="0 0 512 512" style="enable-background:new 0 0 512 512;" xml:space="preserve" width="512" height="512">
<g>
	<path style="fill:#857E87;" d="M16.516,437.677c0,4.56,3.697,8.258,8.258,8.258h19.67c3.128,0,5.987-1.767,7.386-4.565   l14.234-28.467H16.516V437.677z"/>
	<polygon style="fill:#6F6571;" points="16.516,429.419 57.806,429.419 66.065,412.903 16.516,412.903  "/>
	<path style="fill:#857E87;" d="M495.484,437.677c0,4.56-3.697,8.258-8.258,8.258h-19.67c-3.128,0-5.987-1.767-7.386-4.565   l-14.234-28.467h49.548V437.677z"/>
	<polygon style="fill:#6F6571;" points="495.484,429.419 454.194,429.419 445.935,412.903 495.484,412.903  "/>
	<path style="fill:#DAD8DB;" d="M495.484,66.065H16.516C7.395,66.065,0,73.459,0,82.581v313.806c0,9.122,7.395,16.516,16.516,16.516   h478.968c9.122,0,16.516-7.395,16.516-16.516V82.581C512,73.459,504.605,66.065,495.484,66.065z"/>
	<path style="fill:#FFC269;" d="M313.806,346.839H82.581c-9.122,0-16.516-7.395-16.516-16.516V148.645   c0-9.122,7.395-16.516,16.516-16.516h231.226c9.122,0,16.516,7.395,16.516,16.516v181.677   C330.323,339.444,322.928,346.839,313.806,346.839z"/>
	<circle style="fill:#5D5360;" cx="454.194" cy="322.065" r="24.774"/>
	<path style="fill:#ECEAEC;" d="M437.677,272.516h-8.258c-4.565,0-8.258-3.698-8.258-8.258s3.694-8.258,8.258-8.258h8.258   c4.565,0,8.258,3.698,8.258,8.258S442.242,272.516,437.677,272.516z"/>
	<path style="fill:#ECEAEC;" d="M478.968,272.516h-8.258c-4.565,0-8.258-3.698-8.258-8.258S466.145,256,470.71,256h8.258   c4.565,0,8.258,3.698,8.258,8.258S483.532,272.516,478.968,272.516z"/>
	<path style="fill:#ECEAEC;" d="M437.677,239.484h-8.258c-4.565,0-8.258-3.698-8.258-8.258c0-4.56,3.694-8.258,8.258-8.258h8.258   c4.565,0,8.258,3.698,8.258,8.258C445.935,235.786,442.242,239.484,437.677,239.484z"/>
	<path style="fill:#ECEAEC;" d="M478.968,239.484h-8.258c-4.565,0-8.258-3.698-8.258-8.258c0-4.56,3.694-8.258,8.258-8.258h8.258   c4.565,0,8.258,3.698,8.258,8.258C487.226,235.786,483.532,239.484,478.968,239.484z"/>
	<path style="fill:#ECEAEC;" d="M437.677,206.452h-8.258c-4.565,0-8.258-3.698-8.258-8.258c0-4.56,3.694-8.258,8.258-8.258h8.258   c4.565,0,8.258,3.698,8.258,8.258C445.935,202.754,442.242,206.452,437.677,206.452z"/>
	<path style="fill:#ECEAEC;" d="M478.968,206.452h-8.258c-4.565,0-8.258-3.698-8.258-8.258c0-4.56,3.694-8.258,8.258-8.258h8.258   c4.565,0,8.258,3.698,8.258,8.258C487.226,202.754,483.532,206.452,478.968,206.452z"/>
	<path style="fill:#FFC269;" d="M470.71,115.613h-33.032c-4.561,0-8.258,3.697-8.258,8.258v24.774c0,4.561,3.697,8.258,8.258,8.258   h33.032c4.561,0,8.258-3.697,8.258-8.258v-24.774C478.968,119.31,475.27,115.613,470.71,115.613z"/>
	<path style="fill:#FFFFFF;" d="M189.935,305.548c-4.565,0-8.258-3.698-8.258-8.258c0-12.685,5.685-19.31,10.25-24.633   c3.774-4.403,6.266-7.31,6.266-13.887c0-6.585-2.492-9.496-6.274-13.899c-4.565-5.327-10.242-11.956-10.242-24.645   c0-12.69,5.677-19.323,10.242-24.649c3.782-4.403,6.274-7.315,6.274-13.899c0-4.56,3.694-8.258,8.258-8.258   s8.258,3.698,8.258,8.258c0,12.69-5.677,19.323-10.242,24.649c-3.782,4.403-6.274,7.315-6.274,13.899   c0,6.581,2.492,9.492,6.266,13.895c4.573,5.327,10.25,11.956,10.25,24.649c0,12.685-5.685,19.315-10.25,24.637   c-3.774,4.403-6.266,7.31-6.266,13.883C198.194,301.851,194.5,305.548,189.935,305.548z"/>
	<path style="fill:#FFFFFF;" d="M239.484,305.548c-4.565,0-8.258-3.698-8.258-8.258c0-12.685,5.685-19.31,10.25-24.633   c3.774-4.403,6.266-7.31,6.266-13.887c0-6.585-2.492-9.496-6.274-13.899c-4.565-5.327-10.242-11.956-10.242-24.645   c0-12.69,5.677-19.323,10.242-24.649c3.782-4.403,6.274-7.315,6.274-13.899c0-4.56,3.694-8.258,8.258-8.258   s8.258,3.698,8.258,8.258c0,12.69-5.677,19.323-10.242,24.649c-3.782,4.403-6.274,7.315-6.274,13.899   c0,6.581,2.492,9.492,6.266,13.895c4.573,5.327,10.25,11.956,10.25,24.649c0,12.685-5.685,19.315-10.25,24.637   c-3.774,4.403-6.266,7.31-6.266,13.883C247.742,301.851,244.048,305.548,239.484,305.548z"/>
	<path style="fill:#FFFFFF;" d="M140.387,305.548c-4.565,0-8.258-3.698-8.258-8.258c0-12.685,5.685-19.31,10.25-24.633   c3.774-4.403,6.266-7.31,6.266-13.887c0-6.585-2.492-9.496-6.274-13.899c-4.565-5.327-10.242-11.956-10.242-24.645   c0-12.69,5.677-19.323,10.242-24.649c3.782-4.403,6.274-7.315,6.274-13.899c0-4.56,3.694-8.258,8.258-8.258   s8.258,3.698,8.258,8.258c0,12.69-5.677,19.323-10.242,24.649c-3.782,4.403-6.274,7.315-6.274,13.899   c0,6.581,2.492,9.492,6.266,13.895c4.573,5.327,10.25,11.956,10.25,24.649c0,12.685-5.685,19.315-10.25,24.637   c-3.774,4.403-6.266,7.31-6.266,13.883C148.645,301.851,144.952,305.548,140.387,305.548z"/>
	<path style="fill:#C8C5C9;" d="M16.516,330.323V66.065C7.395,66.065,0,73.459,0,82.581v313.806c0,9.122,7.395,16.516,16.516,16.516   h478.968c9.121,0,16.516-7.395,16.516-16.516H82.581C46.094,396.387,16.516,366.809,16.516,330.323z"/>
	<path style="fill:#FFA95F;" d="M82.581,289.032V132.129c-9.121,0-16.516,7.394-16.516,16.516v181.677   c0,9.122,7.395,16.516,16.516,16.516h231.226c9.121,0,16.516-7.395,16.516-16.516H123.871   C101.067,330.323,82.581,311.836,82.581,289.032z"/>
	<path style="fill:#C8C5C9;" d="M388.129,66.065v57.806c0,4.561-3.697,8.258-8.258,8.258h0c-9.122,0-16.516,7.395-16.516,16.516   v181.677c0,9.122,7.395,16.516,16.516,16.516h0c4.561,0,8.258,3.697,8.258,8.258v57.806h16.516V66.065H388.129z"/>
	<rect x="388.129" y="396.387" style="fill:#B6B1B7;" width="16.516" height="16.516"/>
</g>















</svg>
