<svg id="Layer_1" enable-background="new 0 0 512 512" height="512" viewBox="0 0 512 512" width="512" xmlns="http://www.w3.org/2000/svg"><g><g><path d="m170.502 511.796c9.085 0 16.579-7.114 17.05-16.187l17.317-333.019c.254-4.882-3.636-8.98-8.525-8.98h-187.807c-4.889 0-8.779 4.098-8.525 8.98l17.317 333.02c.472 9.073 7.965 16.187 17.05 16.187h136.123z" fill="#d3effb"/><path d="m43.083 333.324 7.084 136.232c.236 4.536 3.983 8.093 8.525 8.093h87.497c4.542 0 8.289-3.557 8.525-8.093l7.084-136.232c.254-4.882-3.636-8.98-8.525-8.98h-101.665c-4.889 0-8.779 4.098-8.525 8.98z" fill="#f9f5f8"/><path d="m196.344 153.61h-23.692c4.889 0 8.779 4.098 8.525 8.98l-17.316 333.02c-.472 9.073-7.965 16.187-17.05 16.187h23.692c9.085 0 16.579-7.114 17.05-16.187l17.317-333.019c.253-4.883-3.637-8.981-8.526-8.981z" fill="#b1e4f9"/><path d="m153.273 324.344h-23.692c4.889 0 8.779 4.098 8.525 8.98l-7.084 136.232c-.236 4.536-3.983 8.093-8.525 8.093h23.692c4.542 0 8.289-3.557 8.525-8.093l7.084-136.232c.254-4.882-3.636-8.98-8.525-8.98z" fill="#e2d8ec"/></g><path d="m499.661 170.113-41.219-58.884c-4.016-5.737-6.17-12.57-6.17-19.572v-74.566h-153.584v74.566c0 7.003-2.154 13.836-6.17 19.572l-41.218 58.884c-8.031 11.473-12.339 25.139-12.339 39.144v268.587c0 18.849 15.28 34.13 34.13 34.13h204.779c18.849 0 34.13-15.28 34.13-34.13v-268.587c0-14.005-4.308-27.671-12.339-39.144z" fill="#d3effb"/><path d="m499.661 170.113-41.218-58.884c-4.016-5.737-6.17-12.57-6.17-19.572v-74.566h-23.692v74.566c0 7.003 2.154 13.836 6.17 19.572l41.218 58.884c8.031 11.473 12.339 25.139 12.339 39.144v268.587c0 18.849-15.28 34.13-34.13 34.13h23.692c18.85 0 34.13-15.281 34.13-34.13v-268.587c0-14.005-4.308-27.671-12.339-39.144z" fill="#b1e4f9"/><path d="m442.006 153.61h-133.05c-2.784 0-5.393 1.359-6.99 3.64l-22.705 32.436c-4.016 5.737-6.169 12.569-6.169 19.572v251.522c0 9.425 7.64 17.065 17.065 17.065h170.65c9.425 0 17.065-7.64 17.065-17.065v-251.523c0-7.002-2.154-13.835-6.169-19.572l-22.705-32.435c-1.599-2.281-4.208-3.64-6.992-3.64z" fill="#f9f5f8"/><path d="m471.701 189.685-22.705-32.436c-1.597-2.281-4.206-3.639-6.99-3.639h-23.692c2.784 0 5.393 1.358 6.99 3.639l22.705 32.436c4.016 5.737 6.17 12.57 6.17 19.572v251.522c0 9.425-7.64 17.065-17.065 17.065h23.692c9.425 0 17.065-7.64 17.065-17.065v-251.522c-.001-7.002-2.155-13.835-6.17-19.572z" fill="#e2d8ec"/><g><path d="m427.74 341.325h-104.52c-8.837 0-16-7.163-16-16v-36.26c0-8.837 7.163-16 16-16h104.52c8.836 0 16 7.163 16 16v36.26c0 8.836-7.163 16-16 16z" fill="#6bbef6"/><g><g><path d="m409.61 314.921h-68.26c-4.267 0-7.726-3.458-7.726-7.726 0-4.267 3.458-7.726 7.726-7.726h68.26c4.267 0 7.726 3.458 7.726 7.726-.001 4.267-3.459 7.726-7.726 7.726z" fill="#d3effb"/></g></g><path d="m427.259 273.065h-23.692c9.102 0 16.481 7.379 16.481 16.481v35.297c0 9.102-7.379 16.481-16.481 16.481h23.692c9.102 0 16.481-7.379 16.481-16.481v-35.297c0-9.102-7.379-16.481-16.481-16.481z" fill="#5ea5ec"/></g><path d="m453.338 34.156h-155.715c-8.837 0-16-7.163-16-16v-10.13c0-4.418 3.582-8 8-8h171.714c4.418 0 8 3.582 8 8v10.13c.001 8.836-7.163 16-15.999 16z" fill="#6bbef6"/><path d="m461.097.026h-23.692c4.551 0 8.241 3.689 8.241 8.241v9.408c0 9.102-7.379 16.481-16.481 16.481h23.692c9.102 0 16.481-7.379 16.481-16.481v-9.409c0-4.551-3.69-8.24-8.241-8.24z" fill="#5ea5ec"/></g></svg>