<svg id="Flat" enable-background="new 0 0 354.165 495.999" height="512" viewBox="0 0 354.165 495.999" width="512" xmlns="http://www.w3.org/2000/svg"><g><path d="m348.833 120.259c6.83 7.85 7.08 19.29.86 27.39l-12.6 16.39c-4.64 6.04-6.38 13.79-4.82 21.24 4.18 19.9 6.42 40.95 6.42 62.72 0 56.9-15.28 108.85-40.46 148.39-4.09 6.41-4.53 14.49-1.27 21.37l8.43 17.76c1.5 3.16 2.23 6.54 2.23 9.89 0 6-2.33 11.9-6.76 16.33-6.58 6.58-16.78 7.84-24.77 3.08l-15.26-9.12c-6.95-4.15-15.56-4.12-22.6-.12-9.27 5.26-18.97 9.37-29.01 12.18 4.24 7.29 4.53 18.08-2.5 24.15-8.29 7.17-22.93 4.32-29.64-3.96-6.71 8.28-21.35 11.13-29.64 3.96-7.03-6.07-6.74-16.86-2.5-24.15-10.04-2.81-19.74-6.92-29.01-12.18-7.04-4-15.65-4.03-22.6.12l-14.4 8.6c-3.44 2.06-7.27 3.06-11.09 3.06-5.25 0-10.46-1.91-14.54-5.62-7.04-6.4-9.07-16.66-4.99-25.26l8.89-18.72c3.26-6.88 2.82-14.96-1.27-21.37-25.18-39.54-40.46-91.49-40.46-148.39 0-21.77 2.24-42.82 6.42-62.72 1.56-7.45-.18-15.2-4.82-21.24l-12.6-16.39c-6.22-8.1-5.97-19.54.86-27.39 5.83-6.7 15.29-8.94 23.7-6.09l6.11 2.06c5.41 1.84 11.35-.46 14.14-5.45 23.31-41.71 56.99-71.69 95.67-82.52-4.25-7.29-4.55-18.1 2.49-24.17 8.29-7.17 22.93-4.32 29.64 3.96 6.71-8.28 21.35-11.13 29.64-3.96 7.04 6.07 6.74 16.88 2.49 24.17 38.68 10.83 72.36 40.81 95.67 82.52 2.79 4.99 8.73 7.29 14.14 5.45l6.11-2.06c8.41-2.85 17.87-.61 23.7 6.09z" fill="#ffc05a"/><path d="m294.343 192.369c3.8 17.54 5.85 36.23 5.85 55.63 0 100.57-55.12 182.1-123.11 182.1-25.66 0-49.49-11.61-69.21-31.48 38.205-101.459 99.337-171.609 186.47-206.25z" fill="#c3ddda"/><path d="m194.393 67.689c-37.22 56.65-81.814 97.04-133.78 121.17 16.6-71.54 62.48-122.96 116.47-122.96 5.88 0 11.65.61 17.31 1.79z" fill="#c3ddda"/><path d="m279.083 145.999c-44.92 92.028-112.92 160.028-204 204-13.32-29.1-21.11-64.21-21.11-102 39.747-71.325 98.04-126.408 174.88-165.25v-.01c20.38 13.99 37.74 35.99 50.23 63.26z" fill="#c3ddda"/><path d="m294.343 192.369-186.47 206.25c-12.89-12.99-24.04-29.51-32.79-48.62l204-204c6.48 14.16 11.66 29.74 15.26 46.37z" fill="#e7f2f1"/><path d="m228.853 82.739v.01l-174.88 165.25c0-20.7 2.34-40.6 6.64-59.14l133.78-121.17c12.15 2.52 23.73 7.67 34.46 15.05z" fill="#e7f2f1"/><path d="m177.083 430.099c6.98 0 12.64 18.21 12.64 25.19s-5.66 12.64-12.64 12.64-12.64-5.66-12.64-12.64 5.66-25.19 12.64-25.19z" fill="#e15c63"/><path d="m177.083 28.069c6.98 0 12.64 5.66 12.64 12.64s-5.66 25.19-12.64 25.19-12.64-18.21-12.64-25.19 5.66-12.64 12.64-12.64z" fill="#e15c63"/><path d="m294.343 192.369c3.8 17.54 5.85 36.23 5.85 55.63 0 100.57-55.12 182.1-123.11 182.1-24.25 0-46.87-10.37-65.93-28.29 5.73 1.21 11.59 1.84 17.55 1.84 63.75 0 116.19-71.68 122.47-163.53z" fill="#b8d3cf"/><path d="m294.343 192.369-43.17 47.75c.43-6.11.64-12.3.64-18.57 0-15.37-1.29-30.3-3.72-44.56l30.99-30.99c6.48 14.16 11.66 29.74 15.26 46.37z" fill="#d6eae8"/><path d="m228.853 82.739c20.38 13.99 37.74 35.99 50.23 63.26l-30.99 30.99c-.63-3.74-1.34-7.43-2.13-11.07-3.6-16.63-8.78-32.21-15.26-46.37-4.15-9.06-8.84-17.54-13.99-25.33l12.14-11.47z" fill="#b8d3cf"/><path d="m228.853 82.739v.01l-12.14 11.47c-6.63-10.03-14.04-18.92-22.08-26.48 12.06 2.54 23.56 7.67 34.22 15z" fill="#d6eae8"/><g fill="#f9b132"><path d="m142.194 51.424c-.837-2.044-3.173-3.023-5.217-2.186-30.853 12.634-58.264 40.133-77.182 77.432-1 1.97-.212 4.377 1.758 5.377.58.294 1.198.434 1.806.434 1.459 0 2.866-.801 3.571-2.191 18.05-35.586 44.003-61.742 73.079-73.648 2.044-.839 3.023-3.174 2.185-5.218z"/><path d="m83.112 405.399c.791.963 1.937 1.461 3.093 1.461.893 0 1.792-.298 2.536-.909 1.708-1.402 1.955-3.923.552-5.63-4.782-5.822-9.34-12.197-13.547-18.948-22.843-36.621-35.424-83.987-35.424-133.373 0-22.217 2.514-44.043 7.471-64.874.512-2.149-.816-4.306-2.965-4.817-2.152-.513-4.306.816-4.817 2.965-5.102 21.437-7.688 43.886-7.688 66.726 0 50.863 13.011 99.733 36.635 137.605 4.39 7.044 9.151 13.703 14.154 19.794z"/><path d="m144.688 441.149c-10.965-3.884-21.593-9.77-31.59-17.494-1.748-1.351-4.26-1.028-5.611.719-1.351 1.748-1.029 4.261.719 5.611 10.669 8.245 22.045 14.538 33.811 18.705.441.156.892.23 1.335.23 1.647 0 3.189-1.024 3.771-2.666.737-2.082-.352-4.368-2.435-5.105z"/><path d="m85.067 424.888-20.92 20.58c-1.575 1.55-1.596 4.082-.046 5.656.783.796 1.817 1.195 2.852 1.195 1.013 0 2.026-.382 2.805-1.148l20.92-20.58c1.575-1.55 1.596-4.082.046-5.656-1.549-1.575-4.082-1.597-5.657-.047z"/><path d="m49.569 157.59c1.265 0 2.509-.599 3.287-1.715 1.262-1.813.815-4.306-.998-5.568l-25.46-17.72c-1.812-1.261-4.307-.814-5.568.998-1.262 1.813-.815 4.306.998 5.568l25.46 17.72c.696.484 1.493.717 2.281.717z"/><path d="m290.806 132.48c.608 0 1.226-.14 1.806-.434 1.97-1 2.757-3.407 1.758-5.377-18.918-37.299-46.329-64.798-77.182-77.432-2.044-.837-4.381.141-5.217 2.186-.837 2.044.142 4.38 2.186 5.217 29.076 11.906 55.029 38.062 73.079 73.648.705 1.391 2.111 2.192 3.57 2.192z"/><path d="m309.337 178.308c-2.149.511-3.477 2.668-2.965 4.817 4.957 20.83 7.471 42.657 7.471 64.874 0 58.856-17.85 114.377-48.973 152.324-1.401 1.708-1.152 4.228.556 5.629.744.61 1.642.907 2.534.907 1.157 0 2.305-.499 3.095-1.464 32.276-39.353 50.787-96.722 50.787-157.396 0-22.84-2.587-45.29-7.688-66.726-.511-2.149-2.666-3.476-4.817-2.965z"/><path d="m241.067 423.655c-9.997 7.725-20.625 13.61-31.59 17.494-2.083.737-3.172 3.023-2.435 5.105.581 1.642 2.124 2.666 3.771 2.666.443 0 .894-.074 1.335-.23 11.766-4.167 23.141-10.46 33.811-18.705 1.748-1.351 2.07-3.863.719-5.611s-3.862-2.07-5.611-.719z"/><path d="m269.098 424.888c-1.575-1.549-4.107-1.528-5.657.047-1.549 1.574-1.528 4.106.046 5.656l20.92 20.58c.779.767 1.792 1.148 2.805 1.148 1.034 0 2.069-.399 2.852-1.195 1.549-1.574 1.528-4.106-.046-5.656z"/><path d="m333.336 133.584c-1.262-1.813-3.755-2.259-5.568-.998l-25.46 17.72c-1.813 1.262-2.26 3.755-.998 5.568.777 1.117 2.021 1.715 3.287 1.715.789 0 1.585-.233 2.282-.717l25.46-17.72c1.812-1.262 2.259-3.754.997-5.568z"/></g></g></svg>