<svg id="Layer_1" height="512" viewBox="0 0 512 512" width="512" xmlns="http://www.w3.org/2000/svg" data-name="Layer 1"><path d="m376.06 382c8.12 7.97-18.64 62.85-18.64 62.85-2.05 4.65-10.94 7.4-16.07 6.92l-11.04-.57-4.94-.12a2.489 2.489 0 0 1 -1.9-4.02l10.89-14.02a15.409 15.409 0 0 1 4.74-4.06c3.04-1.67 6.93-3.61 7.61-5.71l3.25-9.99a41.673 41.673 0 0 0 -7.2-39.01c-10.15-12.59-21.8-37.12-21.8-65.82 34.93-9.27 48.18-25.36 48.18-25.36a82.715 82.715 0 0 0 0 26.67s-11.69 53.94 6.92 72.24z" fill="#a07250"/><path d="m491.14 377.98c-4.85-2.9-12.53-7.63-20.75-13.31-22.42-15.49-32.69-43.63-24.86-69.69 6.45-21.47 7.81-51.37-19.37-76.35a3.909 3.909 0 0 1 .48-6.14c13.18-8.73 52.8-37.18 68.76-73.77 20.96-48.03-19.99-101.06-71.79-92.51-21.14 3.49-48.6 16.49-53.06 56.45-1.07 9.56 1.66 20.39 7.03 23.74 8.88 5.55 12.52 6.87 33.91 4.4 2.89-.34 3.11-5.22.25-5.72-17.58-3.1-30.54-20.58-13.35-39.34 10.94-11.93 21.51-13.66 31.41-13.57 12.48.12 29.07 8.02 36.48 18.04 23.82 32.18-13.94 66.67-42.54 86.5a68.931 68.931 0 0 1 -49.11 11.7c-65.21-9.46-90.86 36.7-119.15 19.34-14.92-9.17-39.31-11.58-51.1-12.21a10.5 10.5 0 0 1 -9.11-6.37c-16.26-37.85-58.21-34.38-73.59-25.67a31.193 31.193 0 0 0 -16.05 29.61 25.9 25.9 0 0 0 1.34 6.62c3.37 9.19-12.82 13.9-11.47 25.35s8.77 27.19 20.91 21c5.75-2.93 14.82-3.09 22.78-2.44a19.547 19.547 0 0 1 17.9 21.19c-1.02 11.13-5.69 25.64-20.35 38.96-29.17 26.48-49.76 26.48-66.06 52.17-11.88 18.72-29.09 30.65-37.53 35.73a48.041 48.041 0 0 0 -10.12 8.17l-10.67 11.3a4.928 4.928 0 0 0 3.75 8.31l10.71-.37a24.423 24.423 0 0 0 16.61-7.55c12.29-12.62 44.5-15.6 58.99-36.76 16.65-24.31 69.6-45.22 81.63-69.18a11.7 11.7 0 0 1 16.61-4.68c7.99 4.98 17.49 14.99 23.24 35.15 11.37 39.86 5.31 82.97 12.89 95.07 5.88 9.39-14.22 14.22-23.55 15.92a9.422 9.422 0 0 0 -6.68 4.92l-.49.94a9.423 9.423 0 0 0 8.38 13.77h30.36a11.745 11.745 0 0 0 9.57-4.92c3.5-4.9 8.01-12.83 7.66-20.79-.1-2.22-.21-4.43-.14-6.64.4-13.06 2.44-52.38 12.53-77.32 5.89-14.56.29-30.04-7.1-42.19 21.8 0 39.49-2.64 53.63-6.39 34.93-9.27 48.18-25.36 48.18-25.36a82.715 82.715 0 0 0 0 26.67c2.05 11.52 7.34 23.13 18.48 32.25 28.53 23.34 65.59 41.48 77.3 46.94a6.524 6.524 0 0 1 3.76 5.83l.34 29.75a15.611 15.611 0 0 1 -2.63 8.87l-9.38 14.03a2.7 2.7 0 0 0 2.25 4.19h19.18a11.281 11.281 0 0 0 11.22-10.02l6.08-54.37a9.513 9.513 0 0 0 -4.6-9.25z" fill="#bf8a5e"/><path d="m95.5 225.08c1.35 11.44 8.77 27.19 20.91 21 4.5-2.293 11.035-2.886 17.479-2.725-4.116-4.548-6.654-12.046-7.389-18.275-1.35-11.45 14.84-16.16 11.47-25.35a25.9 25.9 0 0 1 -1.34-6.62 31.193 31.193 0 0 1 16.05-29.61 40.778 40.778 0 0 1 9.477-3.7c-15.742-4.252-32.075-1.058-40.477 3.7a31.193 31.193 0 0 0 -16.05 29.61 25.9 25.9 0 0 0 1.34 6.62c3.37 9.19-12.82 13.9-11.47 25.35z" fill="#d39b71"/><path d="m43.36 411.16 10.67-11.3a48.041 48.041 0 0 1 10.12-8.17c8.44-5.08 25.65-17.01 37.53-35.73 16.3-25.69 36.89-25.69 66.06-52.17 14.66-13.32 19.33-27.83 20.35-38.96a19.547 19.547 0 0 0 -17.9-21.19c-7.96-.65-17.03-.49-22.78 2.44-.05.025-.1.043-.148.068a19.474 19.474 0 0 1 9.828 18.682c-1.02 11.13-5.69 25.64-20.35 38.96-29.17 26.48-49.76 26.48-66.06 52.17-11.88 18.72-29.09 30.65-37.53 35.73a48.041 48.041 0 0 0 -10.12 8.17l-10.67 11.3a4.928 4.928 0 0 0 3.75 8.31l10.71-.37a24.274 24.274 0 0 0 15.626-6.6 5.028 5.028 0 0 1 .914-1.34z" fill="#d39b71"/><path d="m178.389 193.774c-3.223-7.879-8.045-10.117-11.523-10.607-8.553-1.206-15.467 6.957-16.767 8.6l11.7 24.381c.128.006.368.014.7.014 2.624 0 11-.5 15.3-6.609 2.036-2.881 3.787-7.962.59-15.779z" fill="#a07250"/></svg>