<svg id="Layer_1" enable-background="new 0 0 512 512" height="512" viewBox="0 0 512 512" width="512" xmlns="http://www.w3.org/2000/svg"><path d="m88.165 380.068c8.595 0 16.827 1.544 24.441 4.363 6.316 2.339 13.29-.529 16.528-6.435 4.653-8.489 13.946-13.822 23.895-13.227 3.219.193 6.097-1.982 6.623-5.163 5.371-32.472 33.563-57.239 67.556-57.239 27.412 0 51.05 16.106 61.995 39.368 3.145 6.682 10.168 10.734 17.509 9.923 25.513-2.821 48.774 14.4 54.932 38.202 6.264-3.706 13.569-5.835 21.376-5.835 20.877 0 38.191 15.211 41.49 35.153.323 1.954 2.091 3.289 4.067 3.171 4.84-.289 9.419 1.713 12.537 5.146 37.305-42.99 59.886-99.105 59.886-160.495 0-135.31-109.69-245.001-245-245.001s-245 109.691-245 245.001c0 46.427 12.916 89.836 35.347 126.835 11.723-8.646 26.188-13.767 41.818-13.767z" fill="#514bbf"/><path d="m410.148 289.251c-25.642 8.948-53.588 12.98-82.717 10.944-98.625-6.891-185.351-94.712-191.088-193.411-2.028-34.891 4.631-68.035 18.006-97.482 2.657-5.851-3.82-11.643-9.333-8.34-59.438 35.609-99.459 100.293-100.383 174.403-1.013 81.183 45.521 152.272 113.55 186.746 1.289-1.072 2.206-2.578 2.496-4.334 5.402-32.662 33.382-56.367 66.529-56.367 26.007 0 49.971 15.219 61.051 38.771 3.363 7.146 10.835 11.361 18.565 10.514 13.597-1.508 26.914 2.972 37.083 11.369 29.298-14.843 54.583-36.459 73.769-62.81 3.785-5.198-1.458-12.12-7.528-10.003z" fill="#fdca00"/><g fill="#feac00"><path d="m93.043 140.202c.677-54.265 22.317-103.474 57.192-139.918-1.622-.496-3.468-.37-5.219.678-59.438 35.609-99.459 100.293-100.383 174.403-1.013 81.182 45.521 152.272 113.551 186.746 1.288-1.072 2.205-2.578 2.496-4.334 2.906-17.567 12.348-32.534 25.607-42.625-56.802-37.437-94.153-102.13-93.244-174.95z"/><ellipse cx="135.808" cy="266.389" rx="16.781" ry="16.781" transform="matrix(.926 -.379 .379 .926 -90.787 71.295)"/><path d="m181.264 301.301c0 6.969-5.65 12.619-12.619 12.619s-12.619-5.65-12.619-12.619 5.649-12.619 12.619-12.619c6.969 0 12.619 5.65 12.619 12.619z"/><circle cx="147.636" cy="245.226" r="8.391"/><path d="m153.924 220.353c8.242 0 15.871-2.604 22.128-7.021-15.127-20.562-26.63-43.687-33.338-68.156-15.75 4.798-27.211 19.436-27.211 36.755-.001 21.22 17.201 38.422 38.421 38.422z"/></g><path d="m257.136 510.958h-4.307c-5.678 0-11.109-2.427-14.901-6.659-3.844-4.29-5.611-9.837-4.975-15.616 1.003-9.119 8.343-16.514 17.45-17.586 2.591-.304 5.15-.124 7.61.536 3.806 1.022 7.748-.256 10.052-3.246 5.513-7.151 13.343-12.278 22.049-14.436 5.821-1.442 10.032-6.542 10.478-12.69.587-8.068 4.578-15.737 10.952-21.041 6.416-5.338 14.416-7.784 22.532-6.887 4.922.546 9.673-2.142 11.811-6.686 3.519-7.481 9.188-13.561 16.043-17.68-5.711-24.375-29.31-42.173-55.219-39.309-7.34.812-14.364-3.24-17.509-9.923-10.945-23.263-34.583-39.368-61.995-39.368-33.994 0-62.185 24.767-67.556 57.239-.526 3.181-3.404 5.355-6.623 5.163-9.949-.595-19.241 4.738-23.895 13.227-3.237 5.906-10.212 8.774-16.528 6.435-7.614-2.82-15.846-4.363-24.441-4.363-15.995 0-30.779 5.352-42.644 14.368 42.766 71.604 121.017 119.564 210.48 119.564.38 0 .756-.013 1.136-.014z" fill="#8589e5"/><path d="m147.218 449.504c7.884-3.424 16.05-5.287 24.157-5.734 6.725-.371 11.98-5.78 12.596-12.486.887-9.64 7.285-18.233 16.648-21.65 3.029-1.106 4.803-4.246 4.018-7.374-8.009-31.924 7.983-65.871 39.164-79.413 9.242-4.014 18.883-5.821 28.341-5.667-12.024-10.469-27.735-16.811-44.934-16.811-33.994 0-62.185 24.767-67.556 57.239-.526 3.181-3.404 5.355-6.623 5.163-9.949-.595-19.241 4.738-23.895 13.227-3.237 5.906-10.212 8.774-16.528 6.435-7.614-2.82-15.846-4.363-24.441-4.363-15.995 0-30.779 5.352-42.644 14.368 18.673 31.266 44.113 58.022 74.298 78.247 7.007-8.959 16.266-16.346 27.399-21.181z" fill="#7a79de"/><path d="m298.278 194.052c2.775-2.705 1.244-7.418-2.591-7.975l-9.074-1.319c-1.523-.221-2.839-1.178-3.52-2.558l-4.058-8.222c-1.715-3.475-6.67-3.475-8.385 0l-4.058 8.222c-.681 1.38-1.998 2.336-3.52 2.558l-9.074 1.319c-3.835.557-5.366 5.27-2.591 7.975l6.566 6.4c1.102 1.074 1.605 2.622 1.345 4.138l-1.55 9.037c-.655 3.819 3.354 6.732 6.784 4.929l8.116-4.267c1.362-.716 2.989-.716 4.351 0l8.116 4.267c3.43 1.803 7.439-1.11 6.784-4.929l-1.55-9.037c-.26-1.517.243-3.064 1.345-4.138z" fill="#fff442"/><path d="m270.892 209.378 1.55-9.037c.26-1.517-.243-3.064-1.345-4.138l-6.566-6.4c-1.488-1.45-1.729-3.474-1.049-5.129-.136.032-.271.065-.411.086l-9.074 1.318c-3.835.557-5.366 5.27-2.591 7.975l6.566 6.4c1.102 1.074 1.605 2.622 1.345 4.138l-1.55 9.037c-.655 3.819 3.354 6.732 6.784 4.929l8.116-4.267c.118-.062.241-.112.363-.163-1.506-.945-2.487-2.714-2.138-4.749z" fill="#fdca00"/><path d="m256.356 104.994c3.702-3.608 1.659-9.895-3.456-10.638l-12.104-1.759c-2.031-.295-3.788-1.571-4.696-3.412l-5.413-10.968c-2.288-4.635-8.898-4.635-11.186 0l-5.413 10.968c-.908 1.841-2.665 3.117-4.696 3.412l-12.104 1.759c-5.116.743-7.158 7.03-3.457 10.638l8.759 8.538c1.47 1.433 2.141 3.497 1.794 5.521l-2.068 12.055c-.874 5.095 4.474 8.98 9.049 6.575l10.827-5.692c1.817-.955 3.988-.955 5.805 0l10.826 5.692c4.576 2.405 9.923-1.48 9.049-6.575l-2.068-12.055c-.347-2.023.324-4.088 1.794-5.521z" fill="#ffe400"/><path d="m220.564 125.483 2.068-12.055c.347-2.023-.324-4.088-1.794-5.521l-8.759-8.538c-2.078-2.026-2.345-4.895-1.275-7.154-.45.18-.924.311-1.414.382l-12.104 1.759c-5.116.743-7.158 7.03-3.456 10.638l8.759 8.538c1.47 1.433 2.141 3.497 1.794 5.521l-2.068 12.055c-.873 5.095 4.474 8.98 9.05 6.575l10.826-5.692c.292-.154.596-.274.903-.378-1.827-1.302-2.97-3.561-2.53-6.13z" fill="#fdca00"/><path d="m294.867 142.972c-1.999 0-3.998-.763-5.523-2.288-3.051-3.05-3.051-7.997-.001-11.047l12.029-12.03c3.051-3.051 7.998-3.05 11.047-.001 3.051 3.05 3.051 7.997.001 11.047l-12.029 12.03c-1.526 1.526-3.525 2.289-5.524 2.289z" fill="#fdca00"/><path d="m441.96 426.501c-3.097-4.046-8.088-6.468-13.385-6.151-1.977.118-3.744-1.217-4.067-3.171-3.299-19.942-20.612-35.153-41.49-35.153-16.835 0-31.352 9.892-38.074 24.178-1.931 4.104-6.245 6.592-10.753 6.094-17.551-1.94-33.377 11.559-34.637 28.888-.409 5.623-4.218 10.398-9.69 11.754-9.144 2.267-17.058 7.592-22.624 14.811-2.089 2.709-5.654 3.76-8.958 2.875-2.512-.673-5.21-.892-8-.564-9.604 1.129-17.306 8.894-18.364 18.506-1.34 12.175 7.718 22.548 19.412 23.372 1.554.029 3.109.059 4.67.059 74.39.001 141.028-33.16 185.96-85.498z" fill="#7a79de"/><path d="m306.896 142.972c-2 0-3.999-.763-5.524-2.289l-12.029-12.03c-3.05-3.05-3.05-7.997.001-11.047 3.049-3.05 7.996-3.049 11.047.001l12.029 12.03c3.05 3.05 3.05 7.997-.001 11.047-1.525 1.525-3.524 2.288-5.523 2.288z" fill="#ffe400"/><path d="m440.82 106.174c-12.941 6.898-22.438 19.431-25.169 34.36-.917 5.015-5.226 8.777-10.322 8.914-23.187.627-42.674 17.648-46.769 40.138-.962 5.287-5.772 9.165-11.138 8.874-15.864-.859-30.609 11.481-31.01 28.704-.387 16.59 13.576 30.173 30.171 30.173h154.21c-2.241-57.761-24.465-110.392-59.973-151.163z" fill="#4843a7"/></svg>