<svg id="Layer_1" enable-background="new 0 0 512 512" viewBox="0 0 512 512" xmlns="http://www.w3.org/2000/svg"><g clip-rule="evenodd" fill-rule="evenodd"><path d="m333.962 286.265c-5.795 18.835-14.902 35.808-26.287 51.539-5.588 27.735-14.902 95.21 0 119.428 2.484 4.346 5.175 8.072 8.072 11.384 6.831 8.693 5.589 11.177-7.244 7.865.207 4.553-8.9 3.725-19.042 2.07-5.796-8.9-11.384-17.8-17.18-26.7.414-23.389.621-46.985 1.035-70.58 7.658-29.184 15.316-58.369 22.768-87.553 12.627-2.485 25.252-4.968 37.878-7.453z" fill="#381306"/><path d="m309.746 476.894c-.414-.207-.828-.207-1.242-.414 0 .414 0 .827-.207 1.242-2.069-4.14-5.174-8.693-8.279-13.04 3.311 3.933 6.623 7.866 9.728 12.212z" fill="#270e02"/><path d="m158.443 317.106c-58.161 28.563-44.086 66.854-44.707 122.946 1.656 4.761 3.933 9.314 6.83 13.661 12.419 18.421-10.142 13.04-15.316 7.451-5.381-5.588-9.935-12.833-12.625-22.974-4.968-30.219-9.729-60.439-8.486-93.348 2.484-11.591 4.967-23.182 7.451-34.773 11.591-10.969 23.182-21.94 34.772-32.702 14.696 3.725 29.391 7.244 44.294 10.97-4.14 9.52-8.073 19.248-12.213 28.769z" fill="#381306"/><path d="m52.883 229.76c-15.938 14.489-11.798 30.426-3.726 48.019 1.449 2.07 3.519 2.898 5.796 3.105-2.277-10.556-4.554-21.319-4.761-32.289-.207-7.244.622-13.453 2.691-18.835z" fill="#381306"/><path d="m341.621 147.796c-5.796 9.521-16.352 16.144-37.67 17.179-32.703-.62-55.678 4.761-73.478 13.454-43.673 21.112-67.268 27.115-111.769 25.666-49.675-1.449-71.822 12.419-70.994 45.122.828 36.015 22.353 68.304.828 105.974-9.521 16.351-8.693 7.658-4.761 27.114 4.553 23.596 6.416 47.192 4.14 70.58-1.035 9.935 3.933 14.282 10.349 20.905 3.312 3.518 31.461 13.868 18.421-3.518-7.865-10.763-13.454-17.593-13.661-33.117 0-27.529 4.346-54.643 12.418-81.344 11.591-10.969 22.768-22.768 30.426-40.361 46.985 9.107 99.557 6.831 152.751 3.105-2.277 27.942 1.656 52.573 8.28 75.961-3.726 23.389-5.175 46.157-2.07 68.303 8.9 15.731 21.733 28.77 30.633 21.526 18.008-3.312 1.242-12.212-10.763-25.872 0-47.398.62-94.797 18.835-144.886 38.291-30.013 65.406-65.199 83.206-104.732 2.277 9.935 3.933 19.663 4.554 29.598 1.656 29.391 10.763 25.044 16.144.414 2.069-10.142 7.451-20.491 14.902-31.047 7.244 4.346 34.359 12.833 26.701-2.898 11.797 3.519 18.214.828 21.94-10.763.414-13.868-7.244-28.356-27.528-31.461-33.945-2.277-27.736-29.391-58.162-26.493-22.767-4.347-32.909-6.83-43.672 11.591z" fill="#502618"/><path d="m76.479 479.999c1.035 0 1.863-.207 2.484-.621-3.518-5.588-7.658-10.556-12.005-15.523 3.933 5.588 7.865 11.384 9.521 16.144z" fill="#381306"/><path d="m296.085 484.139c.621 0 1.035-.207 1.656-.414-3.105-4.347-6.416-8.28-9.935-12.419 3.104 4.346 6.209 8.9 8.279 12.833z" fill="#381306"/><g fill="#270e02"><path d="m105.87 315.45c47.398 9.107 100.385 6.831 153.993 3.105-4.14-6.831-12.212-9.935-21.112-11.798-28.356 2.277-56.505 2.277-84.448-3.725-13.868-2.898-21.112-9.314-32.91-2.484-6.208 3.518-11.59 8.071-15.523 14.902z"/><path d="m123.877 464.062c-.414 1.035-1.242 1.656-2.276 1.863-1.035-5.174-5.382-11.384-9.935-17.8 4.347 5.174 8.693 10.348 12.211 15.937z"/><path d="m445.111 184.432c2.069 3.725 4.967 5.588 8.072 7.451 9.314 4.967.207 7.865-4.554 3.105-2.483-2.691-4.139-6.003-3.518-10.556z"/></g><path d="m414.685 119.647c-6.416 4.554-4.14 1.449-3.726-3.726 4.554-42.845-7.658-4.553-10.142-.414-13.661 23.595-50.296 18.214-37.256-40.775 6.416-28.977-4.346-16.765-10.97 1.035-2.691 7.037-5.795 30.013-13.661 16.765-1.449-2.484-2.69-6.002-3.105-10.556-1.035-12.212-3.518-14.074-6.209-.621-3.519 16.352-8.072 1.449-9.729-7.037-1.035-6.416-1.863-14.696-2.483-24.838-.414-11.384-2.07-20.698-8.28-2.483-2.691 7.865-5.382 16.558-8.486.828-2.484-12.419-4.76-11.591-5.589-4.554-.414 4.346.414 15.731-6.416 6.623-2.277-2.691-4.761-7.244-7.865-13.246-7.037-13.868-10.763-16.559-6.831 2.897 1.035 5.588 2.484 10.97 1.449 11.798-1.449 1.035-4.554-3.312-9.107-12.212-10.349-20.077-7.037 3.518-7.659 10.556-1.035 25.044-17.386-17.8-21.319-9.728-14.075 43.88 73.892 82.999 122.739 91.485 3.519.828 18.835 3.518 15.731 9.107-4.14 7.038-4.967 8.072 7.244 5.175 13.661-2.898 24.631-8.28 32.082-17.18 13.662-16.558 15.939-20.076-.412-8.899z" fill="#d4b26b"/></g></svg>