<?xml version="1.0" encoding="iso-8859-1"?>
<!-- Generator: Adobe Illustrator 19.0.0, SVG Export Plug-In . SVG Version: 6.00 Build 0)  -->
<svg version="1.1" id="Layer_1" xmlns="http://www.w3.org/2000/svg" xmlns:xlink="http://www.w3.org/1999/xlink" x="0px" y="0px"
	 viewBox="0 0 512.001 512.001" style="enable-background:new 0 0 512.001 512.001;" xml:space="preserve">
<path style="fill:#BCAE8A;" d="M417.896,199.08l-34.843-46.845c-5.769-7.639-15.129-7.639-20.899,0l-28.787,38.109l-32.506-42.873
	l-34.842-46.844c-5.771-7.639-15.129-7.639-20.903,0L128.31,255.269l-23.761-31.946c-5.771-7.639-15.129-7.639-20.899,0
	L6.925,324.901h4.684c38.388-26.309,94.412-42.897,156.822-42.897c50.456,0,96.747,10.841,132.913,28.896
	c27.174-7.827,57.556-12.211,89.624-12.211c44.543,0,85.83,8.453,119.78,22.854l-76.872-101.387"/>
<g>
	<path style="fill:#CEBF9F;" d="M331.353,187.689c0.059,0.087,0.109,0.177,0.171,0.263l26.84,37.131
		c1.636,2.263,4.193,3.466,6.787,3.466c1.699,0,3.413-0.515,4.895-1.586c3.743-2.706,4.586-7.937,1.88-11.681l-26.84-37.131
		c-0.407-0.563-0.878-1.053-1.387-1.484l-10.331,13.678L331.353,187.689z"/>
	<path style="fill:#CEBF9F;" d="M324.437,276.679c-2.595,0-5.151-1.202-6.787-3.466l-52.519-72.655
		c-2.708-3.745-1.866-8.974,1.878-11.681c3.745-2.706,8.975-1.865,11.682,1.88l52.519,72.655c2.706,3.744,1.865,8.974-1.88,11.681
		C327.849,276.163,326.136,276.679,324.437,276.679z"/>
	<path style="fill:#CEBF9F;" d="M167.027,279.52l-12.129-16.779l-0.007,0.009l-9.011-12.465l-0.033,0.045l-6.752-9.341
		l-10.549,13.966l9.118,12.615c0.174,0.242,0.365,0.464,0.559,0.682l6.227,8.615c0.035,0.049,0.077,0.09,0.114,0.138l8.904,12.318
		c1.635,2.263,4.192,3.466,6.787,3.466c1.697,0,3.412-0.516,4.894-1.587C168.892,288.494,169.733,283.265,167.027,279.52z"/>
</g>
<path style="fill:#B0E046;" d="M390.967,297.574c-32.068,0-61.333,3.269-88.508,11.096c-168.625-72.802-290.85,15.116-290.85,15.116
	h-0.78c-2.405,0.096-9.584,1.173-9.584,10.616v159.752h509.511V320.422C476.806,306.021,435.51,297.574,390.967,297.574z"/>
<path style="fill:#EDE1CA;" d="M255.271,142.912c12.584,0,23.907-5.392,31.793-13.989l-21.046-28.296
	c-5.771-7.639-15.129-7.639-20.903,0l-21.49,28.45C231.505,137.582,242.764,142.912,255.271,142.912z"/>
<path style="fill:#36CC6B;" d="M508.983,457.16c-48.591-45.298-142.288-73.439-244.526-73.439
	c-59.271,0-115.827,9.264-163.556,26.791c-45.183,16.593-80.219,40.302-98.656,66.761c-0.651,0.936-1.001,2.048-1.001,3.188v25.961
	c0,3.081,2.496,5.577,5.577,5.577h498.357c3.081,0,5.577-2.496,5.577-5.577v-45.183C510.756,459.693,510.113,458.215,508.983,457.16
	z"/>
<g>
	<path style="fill:#2DA555;" d="M123.483,403.04c-0.24-2.311-0.393-3.754-0.393-3.756c0.069-0.811,0.112-1.629,0.112-2.456
		c0-16.017-12.985-29.002-29.002-29.002c-8.309,0-15.795,3.5-21.082,9.099c1.932-3.432,3.047-7.388,3.047-11.608
		c0-13.09-10.613-23.703-23.702-23.703c-13.091,0-23.704,10.613-23.704,23.703c0,1.22,0.122,2.407,0.299,3.577
		c-2.083-0.685-4.305-1.069-6.619-1.069c-11.706,0-21.194,9.489-21.194,21.194v10.265v26.546v52.908
		C22.729,446.741,66.603,419.935,123.483,403.04z"/>
	<path style="fill:#2DA555;" d="M497.087,404.787c-4.935,0-9.562,1.298-13.573,3.564c-0.987-17.595-15.564-31.562-33.407-31.562
		c-17.255,0-31.457,13.063-33.263,29.839c38.504,12.743,70.336,30.175,92.29,50.681c0.551-0.268,1.093-0.55,1.623-0.853v-48.05
		C506.723,406.107,502.061,404.787,497.087,404.787z"/>
</g>
<g>
	<path style="fill:#B8E5F4;" d="M378.436,67.573c7.299,0,13.911,2.93,18.734,7.676c2.811-15.58,16.429-27.402,32.819-27.402
		c18.17,0,32.939,14.53,33.34,32.604c2.174-0.767,4.511-1.189,6.948-1.189c11.525,0,20.867,9.342,20.867,20.866
		s-9.342,20.866-20.867,20.866h-91.841c-14.754,0-26.712-11.96-26.712-26.712S363.681,67.573,378.436,67.573z"/>
	<path style="fill:#B8E5F4;" d="M378.436,67.573c6.147,0,11.802,2.085,16.318,5.575h2.876c3.597-14.493,16.656-25.248,32.248-25.298
		c0.023-0.468,0.037-0.939,0.037-1.414c0-14.752-11.959-26.71-26.71-26.71c-7.301,0-13.913,2.93-18.737,7.676
		C381.657,11.822,368.038,0,351.651,0c-18.172,0-32.941,14.53-33.343,32.604c-2.174-0.769-4.51-1.189-6.948-1.189
		c-11.525,0-20.865,9.342-20.865,20.866s9.34,20.866,20.865,20.866h50.749C366.625,69.656,372.285,67.573,378.436,67.573z"/>
	<path style="fill:#B8E5F4;" d="M110.256,61.592c0-9.654,7.826-17.482,17.482-17.482h59.751c9.656,0,17.482,7.827,17.482,17.482l0,0
		c0,9.654-7.826,17.481-17.482,17.481h-59.751C118.082,79.074,110.256,71.246,110.256,61.592L110.256,61.592z"/>
	<circle style="fill:#B8E5F4;" cx="64.518" cy="61.596" r="17.482"/>
</g>
<path style="fill:#97BC33;" d="M300.047,307.66c14.991,7.837,27.914,16.897,38.451,26.97c1.621,1.551,3.701,2.319,5.78,2.319
	c2.203,0,4.405-0.866,6.048-2.585c3.192-3.34,3.074-8.635-0.266-11.828c-7.235-6.916-15.446-13.377-24.54-19.331
	c-7.855,1.495-15.542,3.3-23.061,5.465C301.652,308.322,300.853,308.002,300.047,307.66z"/>
<g>
	<path style="opacity:0.1;fill:#231F20;enable-background:new    ;" d="M11.609,323.786h-0.78
		c-2.405,0.096-9.584,1.173-9.584,10.616v54.618v10.265v26.546v52.908v1.724v13.691v12.27c0,3.081,2.496,5.577,5.577,5.577h12.27
		v-17.848v-36.147v-0.062v-89.829v-49.117C14.19,321.933,11.609,323.786,11.609,323.786z"/>
	<path style="opacity:0.1;fill:#231F20;enable-background:new    ;" d="M344.297,205.624l39.454-52.449l-0.699-0.939
		c-5.769-7.639-15.129-7.639-20.899,0l-28.787,38.109L344.297,205.624z"/>
	<path style="opacity:0.1;fill:#231F20;enable-background:new    ;" d="M105.249,224.263l-0.699-0.94
		c-5.771-7.639-15.129-7.639-20.899,0L6.925,324.901h4.684c9.233-6.328,19.495-12.086,30.612-17.194L105.249,224.263z"/>
	<path style="opacity:0.1;fill:#231F20;enable-background:new    ;" d="M137.665,267.57l1.882,2.512l127.169-168.518l-0.697-0.938
		c-5.771-7.639-15.129-7.639-20.903,0L128.547,254.955L137.665,267.57z"/>
</g>
<g>
</g>
<g>
</g>
<g>
</g>
<g>
</g>
<g>
</g>
<g>
</g>
<g>
</g>
<g>
</g>
<g>
</g>
<g>
</g>
<g>
</g>
<g>
</g>
<g>
</g>
<g>
</g>
<g>
</g>
</svg>
