<svg id="Layer_1" enable-background="new 0 0 512 512" viewBox="0 0 512 512" xmlns="http://www.w3.org/2000/svg"><g><path d="m77.93 181.458c4.413 0 8.006 3.592 8.006 8.006 0 4.413-3.592 8.006-8.006 8.006-4.419 0-8.012-3.592-8.012-8.006s3.592-8.006 8.012-8.006z" fill="#696462"/><g fill="#fbceb6"><path d="m122.842 175.156c.039-.078.078-.151.117-.229 3.022-5.883 5.704-11.878 8.067-18.018.128-.341.262-.682.391-1.022 1.335-3.548 2.57-7.146 3.698-10.799.832-2.698 1.871-5.81 4.631-7.101 2.866-1.341 6.196.095 8.52 1.86 6.179 4.704 9.771 12.877 9.604 20.57-.017.9-.089 1.794-.212 2.682-.05.324-.101.648-.157.972-1.1 6.045-4.519 11.671-9.319 15.492-6.179 4.916-15.643 5.341-20.772 11.336 1.536.196 3.028.782 4.252 1.704 5.408-6.218 14.928-5.235 21.409-9.928 5.492-3.977 8.307-10.29 8.984-16.855.039-.335.067-.67.09-1.006.179-2.564.039-5.151-.386-7.637-.883-5.14-2.804-10.068-5.246-14.654-2.269-4.268-4.956-9.151-9.442-11.408-5.922-2.978-10.794.352-13.045 5.939-1.894 4.705-3.324 9.626-4.983 14.414-.491 1.419-.983 2.838-1.469 4.262-.128.363-.251.727-.374 1.095-2.145 6.257-4.302 12.554-6.709 18.716.626-.274 1.296-.419 1.961-.413.133.006.261.011.39.028z"/><path d="m156.123 162.513c-.039.324-.095.648-.151.966-.681 3.794-2.235 7.447-4.587 10.57-2.05 2.721-4.704 5.045-7.927 6.727-.961.503-1.989.961-3.056 1.414-4.704 1.989-10.079 3.76-13.191 7.598-.055-5.028-1.558-10.386-4.033-14.503.011-.022.028-.05.039-.073 2.073-3.653 3.972-7.408 5.704-11.235.006-.006.011-.017.011-.022 1.04-2.302 2.023-4.631 2.944-6.983.134-.336.263-.676.391-1.017.078-.201.157-.408.234-.609.587-1.554 1.117-3.129 1.631-4.71.738-2.252 1.441-4.515 2.24-6.744.726-2.028 1.715-4.162 3.799-5.072 2.843-1.246 5.888.463 8.056 2.296 6.527 5.53 8.985 13.698 7.896 21.397z"/><path d="m483.66 340.101c-2.246-7.252-8.096-12.699-14.627-16.336-1.128-.631-2.279-1.207-3.43-1.726-5.984-2.704-12.397-4.33-18.789-5.978-.039.017-.078.022-.128.022-2.643-.14-5.196-.514-7.66-1.095-7.497-1.771-14.14-5.469-19.917-10.375-1-.843-1.966-1.726-2.911-2.637-7.218-5.034-15.363 2.654-20.213 8.129-1.787 2.017-3.854 4.112-6.156 5.771 0 0 0 0-.006 0-.352.257-.709.503-1.078.732-.212.14-.43.274-.648.402 7.347 1.034 14.643 2.441 21.912 4.056-.654-1.687-.85-3.57-.57-5.252.631-3.76 3.447-6.536 7.045-7.564.129-.039.223.168.095.223-3.128 1.324-5.559 4.062-6.073 7.487-.318 2.106.156 3.855 1.045 5.452 4.905 1.101 9.799 2.29 14.688 3.52 3.24.81 6.564 1.547 9.878 2.369-2.285-3.498-1.464-8.917 2.765-11.358.022-.017.05-.023.078-.023.128 0 .24.173.117.274-4.073 3.442-3.727 8.492-.581 11.71 4.19 1.1 8.318 2.402 12.179 4.229 2.207 1.045 4.408 2.397 6.324 4.039-.776-6.218 4.621-12.291 11.531-11.498.413.051.827.117 1.252.218.106.028.083.201-.023.19-7.464-.726-12.598 5.565-11.553 12.207 2.525 2.503 4.363 5.598 4.749 9.257.056.508.078 1.017.072 1.52.754-.419 1.598-.698 2.341-.787 4.408-.542 8.839 1.385 11.571 4.832.084.106-.039.234-.146.151-2.363-1.939-10.849-5.933-13.827-3.028-.508 5.67-4.436 10.682-9.14 13.715-.291.184-.581.369-.871.542.882.296 1.704.782 2.352 1.43 2.235 2.229 1.966 5.676.246 8.107-.123.179-.413.017-.296-.168 1.33-2.145.805-5.134-1.072-6.816-1.006-.899-2.229-1.274-3.492-1.324h-.022c-6.145 3.05-13.263 4.352-19.866 5.693-4.017.816-8.051 1.514-12.101 2.106.642.374 1.212.866 1.592 1.374 1.324 1.743 1.011 4.078-.201 5.799-.028.039-.062.051-.095.051-.078 0-.151-.073-.101-.168.905-1.637.698-3.637-.458-5.106-.922-1.173-2.039-1.341-3.285-1.587 0 0-.006 0-.011 0-8.604 1.162-17.269 1.866-25.945 2.246.128.101.246.201.357.308 1.129 1.061 1.592 2.514 1.112 4.017-.022.061-.078.09-.128.09-.067 0-.134-.045-.128-.129.044-1.217-.531-2.391-1.414-3.24-.564-.542-1.173-.799-1.827-.961h-.006c-3.559.14-7.118.224-10.677.263-9.218.106-18.437-.078-27.649-.391-4.603-.157-9.213-.335-13.816-.576-2.475-.134-4.945-.318-7.419-.458-.95-.056-1.989-.212-2.939-.084-2.129.291-2.335.436-2.86 2.352 6.056.592 12.112 1.218 18.179 1.732 10.962.927 21.951 1.576 32.94 2.078 5.833.268 11.693.548 17.565.76 9.515.341 19.062.503 28.56.134 3.207-.123 6.408-.307 9.604-.57 16.531-1.341 34.851-5.509 47.119-17.481 6.222-6.072 9.552-14.279 6.887-22.871z"/><path d="m337.079 342.564c4.017.051 10.883-.558 10.933-6.011.017-2.67-2.089-4.771-3.905-6.681-10.403 1.726-21.045 1.704-30.895-2.279-6.24 4.028-14.229 4.927-21.654 4.536-6.487-.341-12.889-1.531-19.364-1.983-5.743-.402-12.783-.592-16.073 4.558 2.503-1.045 5.369-.905 7.967.33.134.067.039.268-.095.229-2.877-.844-6.302-.419-8.799 1.302v.006c-.017.039-.028.072-.045.112-.084.212-.307.318-.514.307-.257.207-.508.436-.737.681-1.676 1.76-2.285 3.844-2.33 6.034.246-.642.598-1.257 1.017-1.793 2.592-3.296 7.24-3.173 11.034-2.944.218.011.212.318 0 .329-2.877.179-6.011.336-8.47 2-2.235 1.509-3.737 4.995-1.452 7.067 1.933 1.765 4.939 1.056 7.274.615 2.704-.514 5.408-1.017 8.118-1.475 17.967-3.045 36.163-4.721 54.388-4.995 4.535-.068 9.066.005 13.602.055z"/><path d="m158.24 324.497c-3.961-2.251-8.403-2.156-12.677-1.212-2.352 1.805-4.849 3.442-7.424 4.961-2.453 2.358-5.017 4.592-7.699 6.67-2.536 1.967-5.168 3.805-7.855 5.565-1.313.866-2.732 1.692-3.799 2.866-.782.872-1.218 1.642-1.52 2.776-.475 1.028-.391 2.056.24 3.078.084.051.168.101.252.151.877-1.218 2.173-2.218 3.274-3.129 2.659-2.19 5.581-4.011 8.576-5.715.218-.123.391.19.196.335-3.335 2.414-6.699 5.095-9.615 8.023-.431.43-.771.883-1.022 1.341-.218.397-.374.799-.464 1.201-.441 1.989.748 3.866 3.352 4.486 1.391.33 2.894.268 4.347.369-.146-.542-.235-1.106-.263-1.693-.285-6.123 5.71-9.559 10.392-12.017.167-.084.302.151.145.252-3.234 2.078-7.391 4.654-8.509 8.592-.866 3.039.229 7.939 4.084 8.101 3.899.168 6.944-4.352 9.375-6.804 2.469-2.492 5.061-4.866 7.743-7.118 3.843-3.229 7.861-6.19 12.006-8.928.564-2.223 1.794-3.715 1.352-6.257-.459-2.626-2.208-4.593-4.487-5.894z"/></g><path d="m396.104 269.975c-9.124-24.241-11.152-50.818-22.616-74.215-1.955-3.989-4.196-7.833-6.693-11.503-10.514-15.481-25.559-27.839-42.985-34.822-23.699-9.498-49.695-8.576-73.304.592-11.553 4.486-22.599 10.414-34.007 15.179-.006 0-.011 0-.017.006-2.525 1.051-5.072 2.05-7.643 2.955-3.257.911-6.536 1.687-9.844 2.251-7.481 1.291-15.079 1.514-22.733-.156-4.424-.967-8.715-2.397-12.956-3.972-.296 2.665-.944 5.285-1.966 7.743-1.274 3.067-3.134 5.877-5.631 8.207-3.062 2.855-6.799 4.319-10.777 5.419-4.492 1.24-9.341 2.067-12.85 5.28-.145.128-.291.268-.43.408-.145-.078-.285-.151-.425-.218-1.369-.676-2.704-1.101-4.073-1.291-.145-.022-.291-.039-.436-.056-.14-.017-.279-.034-.419-.039.006-.223.006-.447.006-.665 0-2.268-.106-4.52-.57-6.827-.62-3.028-1.76-5.794-3.028-8.559h-.145c-.81.011-1.587.139-2.302.436-.379.157-.743.363-1.078.62.05-.173.095-.346.151-.519 1.146-4.028 2.391-8.039 3.699-12.04.799-2.447 1.62-4.888 2.453-7.324-12.185.491-24.247 4.732-35.398 9.263-13.85 5.632-27.186 12.554-39.784 20.599-6.364 4.067-12.671 8.364-18.554 13.113-3.788 3.056-6.375 7.106-3.302 11.755 1.106 1.676 2.665 2.855 4.397 3.777.296.162.603.313.911.458 1.43.676 2.933 1.218 4.38 1.743.352.129.207.603-.151.548-1.33-.196-2.749-.565-4.134-1.106.597 5.76 3.452 11.073 9.006 13.995 3.927 2.067 7.956 2.324 11.822 1.425.363-.078.721-.173 1.078-.279 3.078-.882 6.034-2.469 8.738-4.408.19-.134.43.128.313.313-.793 1.229-1.788 2.28-2.917 3.145-1.235.955-2.637 1.693-4.128 2.229 10.414 6.134 23.291 6.788 35.336 7.76 13.308 1.078 25.42 4.76 36.599 12.157 10.028 6.637 20.045 15.392 26.794 25.414 3.168 4.704 4.855 9.732 5.118 14.805.324 6.023-1.347 12.107-4.9 17.789-2.615 4.178-5.916 7.687-9.626 10.721 4.654-.967 9.889-.056 13.464 2.911 2.023 1.682 3.52 4.023 3.659 6.699.056 1.061-.067 2.38-.525 3.475 17.638-11.185 37.509-18.665 56.823-26.47 2.592-1.045 5.201-2.073 7.793-3.134.302-.123.603-.246.9-.374 1.011-.419 2.022-.843 3.023-1.274 2.598-1.123 5.156-2.302 7.659-3.604.659-.341 1.318-.698 1.972-1.067 4.341-2.447 8.486-5.492 11.224-9.699 8.603-13.235-2.118-27.168-9.123-38.225-.134-.207.167-.436.335-.257 2.235 2.346 4.38 4.793 6.29 7.391 3.073 4.184 5.531 8.755 6.755 13.922 1.698 7.146.536 14.459-4.157 20.208-4 4.894-9.688 8.145-15.33 10.782-2.045.956-4.112 1.872-6.19 2.76 10.202 3.827 20.744 6.95 31.303 9.307 7.235 1.615 14.537 3.012 21.9 3.827 5.733.637 11.487.922 17.23 1.341-6.33-5.833-10.347-13.894-9.939-22.911.006-.179.273-.179.279 0 .156 8.76 5.034 16.486 11.587 22.051.453.385.916.754 1.386 1.117.196.145.391.296.592.436 2.665 1.95 5.559 3.492 8.593 4.66.195.078.391.151.586.223 4.76 1.749 9.861 2.603 14.995 2.754 4.19.123 8.319-.185 12.403-.782.553-.084 1.106-.168 1.659-.263 11.559-1.91 22.789-6.028 34.136-9.224.145-.039.29-.084.436-.123 1.034-.285 2.067-.57 3.1-.838h.006c1.33-.347 2.665-.682 4.006-.989.519-.117 1.033-.234 1.553-.346 5.307-3.509 9.28-10.213 14.09-13.945 3.179-2.469 7.95-4.196 11.883-3.268-7.676-8.377-13.458-18.875-17.335-29.177zm-318.174-89.634c5.028 0 9.123 4.089 9.123 9.123s-4.095 9.123-9.123 9.123c-5.034 0-9.129-4.089-9.129-9.123s4.095-9.123 9.129-9.123z" fill="#968f8c"/><g fill="#4f4139"><path d="m486.359 345.587c-.497-7.442-5.269-14.47-10.917-19.079-12.431-10.145-29.141-10.71-43.823-15.973-.006 0-.017-.006-.023-.006-16-8.173-27.163-24.269-33.638-41.068-9.14-23.727-11.207-49.656-21.962-72.841-9.296-20.045-25.682-36.677-45.571-46.309-21.85-10.581-47.6-12.464-70.729-5.084-18.079 5.771-34.75 16.185-52.639 22.621-10.889 2.659-21.939 3.777-33.269.793-3.52-.922-6.967-2.101-10.386-3.363.201-2.492.095-5.017-.285-7.469-.86-5.576-3.033-10.872-5.665-15.833-2.134-4.012-4.581-8.319-8.414-10.945-3.29-2.257-7.827-3.084-11.358-.899-3.369 2.078-4.916 6.012-6.173 9.575-1.877 5.319-3.783 10.665-5.637 16.04-14.179.318-28.001 5.626-40.884 11.162-14.71 6.319-28.806 14.073-42.018 23.113-3.85 2.637-7.648 5.363-11.33 8.235-2.369 1.844-4.95 3.933-5.743 6.984-1.402 5.38 2.419 9.285 6.95 11.352.246 6.263 4.006 12.587 9.313 15.615 4.067 2.319 9.57 2.939 14.353 1.62 6.224 4.357 14.056 6.38 21.548 7.38 13.481 1.805 27.035 1.665 39.683 7.33 11.397 5.106 21.274 13.162 29.906 22.084 4.324 4.47 8.508 9.336 10.866 15.157 2.43 6.006 2.308 12.537.078 18.582-3.006 8.151-8.889 14.163-15.677 19.191-.251.128-.497.268-.737.413-.056.033-.067.101-.033.151-.782.575-1.576 1.129-2.386 1.676-.011.011-.022.022-.033.022-2.118 1.788-4.28 3.498-6.475 5.162-4.207 3.184-8.537 6.201-12.906 9.246-2.548 1.771-5.369 4.453-4.732 7.894.19 1.039.721 1.916 1.452 2.503-.151.397-.257.816-.291 1.263-.43 5.224 6.011 6.458 9.956 5.357 1.324 3.173 4.653 5.045 8.263 3.626 3.006-1.179 5.118-3.922 7.263-6.19 2.631-2.782 5.425-5.391 8.358-7.855 3.989-3.347 8.207-6.414 12.576-9.252 2.268-1.469 4.581-2.883 6.922-4.24 14.576-8.442 30.281-14.66 45.89-20.889 4.855-1.939 9.749-3.832 14.581-5.866 10.28 4.503 20.856 8.017 31.923 10.503 7.039 1.581 14.174 2.598 21.341 3.402 6.392.721 12.8 1.235 19.219.983 2.765 2.374 5.928 4.33 9.324 5.788.011.006.022.011.034.011-8.855 4.777-19.9 4.012-29.767 2.765-7.123-.905-25.911-5.006-28.241 5.621-.486.335-.944.726-1.374 1.173-2.593 2.682-3.699 7.157-1.81 10.498.028.045.056.084.089.106.251.86.748 1.648 1.542 2.274 2.815 2.218 6.972.972 10.123.386 6.095-1.14 12.218-2.123 18.364-2.939 11.961-1.598 24.012-2.587 36.074-2.972 6.051-.19 12.101-.223 18.152-.112 4.073.073 8.771.246 11.889-2.844 4.235-4.201 1.531-7.989-1.704-11.632 5.157-.944 10.235-2.296 15.112-3.777 6.754-2.05 13.364-4.542 20.062-6.771.737-.252 1.486-.492 2.229-.732.296-.101.592-.196.888-.285.017 0 .039.006.062.006h.006c.464.073.922.145 1.391.218 8.626 1.357 17.207 3.089 25.716 5.028.626.14 1.257.285 1.883.43 2.816.654 5.615 1.324 8.414 2.011 6 1.47 12.218 2.738 18.23 4.47 2.576.737 5.112 1.564 7.576 2.525 4.33 1.687 8.855 4.486 11.553 8.235 1.793 2.48 2.777 5.38 2.369 8.654v.006c-.386.57-.559 1.223-.391 1.911-.073.274-.162.547-.257.827-1.844 5.296-6 8.665-10.816 10.955-.006 0-.011 0-.017.006-.586.134-1.145.374-1.642.737h-.005c-2.648 1.112-5.425 1.939-8.079 2.626-7.922 2.05-15.995 3.553-24.107 4.642-1.369.19-2.738.363-4.112.525-7.989.944-16.012 1.508-24.046 1.805-10.509.391-21.045.324-31.56.044-5.14-.139-10.28-.324-15.414-.525-4.872-.184-10.313-1.045-15.141-.279-1.793.279-4.117 1.402-4.76 3.257-.162.453-.218.956-.14 1.497.006.022.006.045.011.067.419.056.844.112 1.263.162 15.749 2.006 31.728 2.95 47.488 3.833 19.755 1.106 39.901 2.257 59.662.676 16.766-1.341 34.733-5.369 47.61-16.905 5.644-5.054 10.079-12.038 9.56-19.876zm-359.159-188.762c.123-.368.246-.732.374-1.095.486-1.424.978-2.843 1.469-4.262 1.66-4.788 3.09-9.71 4.983-14.414 2.251-5.586 7.123-8.916 13.045-5.939 4.486 2.257 7.173 7.14 9.442 11.408 2.441 4.587 4.363 9.514 5.246 14.654.425 2.486.565 5.072.386 7.637-.022.336-.051.671-.09 1.006-.676 6.565-3.492 12.878-8.984 16.855-6.481 4.693-16.001 3.71-21.409 9.928-1.223-.922-2.715-1.509-4.252-1.704 5.129-5.995 14.593-6.419 20.772-11.336 4.799-3.821 8.218-9.448 9.319-15.492.056-.324.106-.648.157-.972.123-.888.196-1.782.212-2.682.168-7.693-3.425-15.866-9.604-20.57-2.324-1.766-5.654-3.202-8.52-1.86-2.76 1.29-3.799 4.402-4.631 7.101-1.129 3.654-2.363 7.252-3.698 10.799-.129.341-.263.682-.391 1.022-2.363 6.14-5.045 12.135-8.067 18.018-.039.078-.078.151-.117.229-.129-.017-.257-.022-.391-.028-.665-.006-1.335.139-1.961.413 2.408-6.162 4.564-12.458 6.71-18.716zm.011 32.963c-.055-5.028-1.558-10.386-4.033-14.503.011-.022.028-.05.039-.073 3.324-5.86 6.201-11.967 8.659-18.241.134-.336.263-.676.391-1.017.078-.201.157-.408.234-.609 1.425-3.777 2.514-7.66 3.872-11.453.726-2.028 1.715-4.162 3.799-5.072 2.843-1.246 5.888.463 8.056 2.296 6.525 5.531 8.984 13.699 7.895 21.398-.039.324-.095.648-.151.966-1.279 7.101-5.592 13.694-12.514 17.297-5.213 2.709-12.431 4.301-16.247 9.011zm34.163 146.86c-4.145 2.738-8.162 5.699-12.006 8.928-2.682 2.251-5.274 4.626-7.743 7.118-2.43 2.453-5.475 6.972-9.375 6.804-3.855-.162-4.95-5.061-4.084-8.101 1.117-3.939 5.274-6.514 8.509-8.592.157-.101.022-.336-.145-.252-4.682 2.458-10.677 5.894-10.392 12.017.028.587.117 1.151.263 1.693-1.453-.101-2.955-.039-4.347-.369-2.604-.62-3.793-2.497-3.352-4.486.089-.402.246-.805.464-1.201.251-.458.592-.911 1.022-1.341 2.916-2.928 6.279-5.609 9.615-8.023.196-.145.022-.458-.196-.335-2.994 1.704-5.916 3.526-8.576 5.715-1.101.911-2.397 1.911-3.274 3.129-.084-.05-.168-.101-.252-.151-.631-1.022-.715-2.05-.24-3.078.302-1.134.737-1.905 1.52-2.776 1.067-1.173 2.486-2 3.799-2.866 2.687-1.76 5.319-3.598 7.855-5.565 2.682-2.078 5.246-4.313 7.699-6.67 2.575-1.52 5.072-3.157 7.424-4.961 4.274-.944 8.716-1.039 12.677 1.212 2.279 1.302 4.028 3.268 4.486 5.894.443 2.542-.786 4.034-1.351 6.257zm186.639-.095c-.05 5.453-6.917 6.062-10.933 6.011-4.536-.05-9.067-.123-13.604-.056-18.224.273-36.421 1.95-54.388 4.995-2.71.458-5.414.961-8.118 1.475-2.335.442-5.341 1.151-7.274-.615-2.285-2.073-.782-5.559 1.452-7.067 2.458-1.665 5.593-1.821 8.47-2 .212-.011.218-.318 0-.329-3.793-.229-8.442-.352-11.034 2.944-.419.536-.771 1.151-1.017 1.793.045-2.19.654-4.273 2.33-6.034.229-.246.481-.475.737-.681.207.011.43-.095.514-.307.017-.039.028-.073.045-.112v-.006c2.497-1.721 5.922-2.146 8.799-1.302.134.039.229-.162.095-.229-2.598-1.235-5.464-1.375-7.967-.33 3.29-5.151 10.33-4.961 16.073-4.558 6.475.452 12.877 1.642 19.364 1.983 7.425.391 15.414-.508 21.654-4.536 9.85 3.983 20.492 4.006 30.895 2.279 1.817 1.911 3.923 4.011 3.907 6.682zm37.901-19.844c-1.341.307-2.676.642-4.006.989h-.006c-1.034.268-2.067.553-3.1.838-.145.039-.291.084-.436.123-11.347 3.195-22.577 7.313-34.136 9.224-.553.095-1.106.179-1.659.263-4.084.598-8.213.905-12.403.782-5.134-.151-10.235-1.006-14.995-2.754-.196-.073-.391-.146-.586-.223-3.034-1.168-5.928-2.71-8.593-4.66-.201-.14-.396-.291-.592-.436-.47-.363-.933-.732-1.386-1.117-6.553-5.565-11.431-13.291-11.587-22.051-.006-.179-.274-.179-.279 0-.408 9.017 3.609 17.079 9.939 22.911-5.743-.419-11.497-.704-17.23-1.341-7.363-.816-14.665-2.212-21.9-3.827-10.559-2.358-21.101-5.48-31.303-9.307 2.078-.888 4.146-1.804 6.19-2.76 5.643-2.637 11.33-5.889 15.33-10.782 4.693-5.749 5.855-13.062 4.157-20.208-1.984-8.38-7.224-15.201-13.045-21.313-.168-.179-.47.05-.335.257 7.006 11.057 17.727 24.99 9.123 38.225-3.151 4.838-8.162 8.146-13.196 10.766-3.469 1.805-7.057 3.38-10.682 4.877-.296.128-.598.251-.9.374-2.592 1.061-5.201 2.089-7.793 3.134-19.314 7.805-39.186 15.286-56.823 26.47.458-1.095.581-2.414.525-3.475-.139-2.676-1.637-5.017-3.659-6.699-3.576-2.967-8.81-3.877-13.464-2.911 3.71-3.034 7.012-6.543 9.626-10.721 6.542-10.47 6.709-22.303-.218-32.594-6.749-10.023-16.766-18.777-26.794-25.414-11.179-7.397-23.291-11.079-36.599-12.157-12.045-.972-24.923-1.626-35.336-7.76 2.86-1.022 5.38-2.799 7.045-5.375.117-.185-.123-.447-.313-.313-2.704 1.939-5.66 3.526-8.738 4.408-.357.106-.715.201-1.078.279-3.866.9-7.894.642-11.822-1.425-5.553-2.922-8.408-8.235-9.006-13.995 1.385.542 2.804.911 4.134 1.106.358.056.503-.419.151-.548-1.447-.525-2.95-1.067-4.38-1.743-.307-.145-.615-.296-.911-.458-1.732-.922-3.291-2.101-4.397-3.777-3.073-4.648-.486-8.698 3.302-11.755 5.883-4.749 12.19-9.045 18.554-13.113 12.598-8.045 25.934-14.967 39.784-20.599 11.151-4.531 23.213-8.771 35.398-9.263-2.196 6.419-4.302 12.872-6.151 19.364-.056.173-.101.347-.151.519.335-.257.698-.463 1.078-.62.715-.296 1.492-.425 2.302-.436h.145c1.268 2.765 2.408 5.531 3.028 8.559.464 2.308.57 4.559.57 6.827 0 .218 0 .441-.006.665.139.006.279.023.419.039.145.017.291.033.436.056 1.368.19 2.704.615 4.073 1.291.139.067.279.139.425.218.139-.139.285-.279.43-.408 3.509-3.212 8.358-4.039 12.85-5.28 3.978-1.1 7.715-2.564 10.777-5.419 4.492-4.19 6.928-9.955 7.598-15.95 4.241 1.575 8.531 3.005 12.956 3.972 7.654 1.67 15.252 1.447 22.733.156 3.307-.564 6.587-1.341 9.844-2.251 2.57-.905 5.118-1.905 7.643-2.955.006-.006.011-.006.017-.006 11.408-4.765 22.454-10.693 34.007-15.179 23.61-9.168 49.605-10.09 73.304-.592 21.554 8.637 39.471 25.504 49.678 46.326 11.464 23.397 13.492 49.974 22.616 74.215 3.877 10.302 9.659 20.8 17.335 29.174-3.933-.927-8.704.799-11.883 3.268-4.81 3.732-8.782 10.436-14.09 13.945-.522.115-1.036.233-1.555.35zm90.858 46.264c-12.269 11.973-30.588 16.14-47.119 17.481-3.195.262-6.397.447-9.604.57-9.498.369-19.045.207-28.56-.134-5.871-.212-11.732-.492-17.565-.76-10.989-.502-21.978-1.151-32.94-2.078-6.067-.514-12.123-1.14-18.179-1.732.525-1.916.732-2.061 2.86-2.352.95-.128 1.989.028 2.939.084 2.475.139 4.945.324 7.419.458 4.603.241 9.213.419 13.816.576 9.213.313 18.431.497 27.649.391 3.559-.039 7.118-.123 10.677-.263h.006c.653.162 1.262.419 1.827.961.882.849 1.458 2.022 1.414 3.24-.006.084.061.129.128.129.05 0 .106-.028.128-.09.481-1.503.017-2.955-1.112-4.017-.112-.107-.229-.207-.357-.308 8.676-.38 17.341-1.084 25.945-2.246h.011c1.246.246 2.363.414 3.285 1.587 1.157 1.469 1.364 3.469.458 5.106-.051.095.022.168.101.168.033 0 .067-.011.095-.051 1.212-1.721 1.525-4.056.201-5.799-.38-.508-.95-1-1.592-1.374 4.051-.592 8.084-1.291 12.101-2.106 6.603-1.341 13.721-2.643 19.866-5.693h.022c1.263.05 2.486.425 3.492 1.324 1.877 1.682 2.402 4.671 1.072 6.816-.117.184.173.347.296.168 1.721-2.43 1.989-5.878-.246-8.107-.648-.648-1.47-1.134-2.352-1.43.291-.173.581-.357.871-.542 4.704-3.034 8.632-8.045 9.14-13.715 2.978-2.905 11.464 1.089 13.827 3.028.106.084.229-.045.146-.151-2.732-3.447-7.163-5.375-11.571-4.832-.743.089-1.586.368-2.341.787.006-.503-.017-1.011-.072-1.52-.386-3.659-2.224-6.754-4.749-9.257-1.045-6.643 4.09-12.934 11.553-12.207.106.011.129-.162.023-.19-.425-.101-.838-.167-1.252-.218-6.911-.793-12.307 5.28-11.531 11.498-1.916-1.643-4.117-2.995-6.324-4.039-3.861-1.827-7.989-3.129-12.179-4.229-3.145-3.218-3.492-8.268.581-11.71.123-.101.011-.274-.117-.274-.028 0-.056.006-.078.023-4.23 2.441-5.051 7.86-2.765 11.358-3.313-.821-6.637-1.559-9.878-2.369-4.888-1.23-9.783-2.419-14.688-3.52-.888-1.598-1.363-3.347-1.045-5.452.514-3.425 2.944-6.163 6.073-7.487.128-.056.034-.262-.095-.223-3.598 1.028-6.414 3.804-7.045 7.564-.279 1.682-.084 3.564.57 5.252-7.268-1.615-14.565-3.023-21.912-4.056.218-.128.436-.263.648-.402.369-.229.727-.475 1.078-.732h.006c2.302-1.659 4.369-3.754 6.156-5.771 4.85-5.475 12.995-13.162 20.213-8.129.945.91 1.911 1.793 2.911 2.637 5.777 4.906 12.42 8.604 19.917 10.375 2.464.581 5.017.956 7.66 1.095.05 0 .089-.006.128-.022 6.392 1.648 12.805 3.274 18.789 5.978 1.151.52 2.302 1.095 3.43 1.726 6.531 3.637 12.381 9.084 14.627 16.336 2.666 8.591-.664 16.798-6.887 22.871z"/><path d="m77.93 180.341c-5.034 0-9.129 4.089-9.129 9.123s4.095 9.123 9.129 9.123c5.028 0 9.123-4.089 9.123-9.123s-4.095-9.123-9.123-9.123zm0 17.128c-4.419 0-8.012-3.592-8.012-8.006 0-4.413 3.592-8.006 8.012-8.006 4.413 0 8.006 3.592 8.006 8.006s-3.593 8.006-8.006 8.006z"/></g><path d="m141.239 181.452c-.268.257-.547.503-.838.738-4.704 1.989-10.079 3.76-13.191 7.598-.055-5.028-1.558-10.386-4.033-14.503.011-.022.028-.05.039-.073 2.073-3.653 3.972-7.408 5.704-11.235.006-.006.011-.017.011-.022.218-.341.436-.682.648-1.022 1.324-2.101 2.687-4.241 4.654-5.754 1.961-1.514 4.682-2.296 6.973-1.335 2.508 1.05 3.816 3.827 4.492 6.469 1.703 6.653.525 14.407-4.459 19.139z" opacity=".3"/><path d="m152.542 166.206c-.045 2.654-.464 5.285-1.157 7.844-2.05 2.721-4.704 5.045-7.927 6.727-.961.503-1.989.961-3.056 1.414-4.704 1.989-10.079 3.76-13.191 7.598-.055-5.028-1.558-10.386-4.033-14.503.011-.022.028-.05.039-.073 2.073-3.653 3.972-7.408 5.704-11.235.006-.006.011-.017.011-.022 1.04-2.302 2.023-4.631 2.944-6.983.134-.336.263-.676.391-1.017.078-.201.157-.408.234-.609.587-1.554 1.117-3.129 1.631-4.71.743-.609 1.514-1.201 2.308-1.771 1.357-.977 2.894-1.855 4.57-1.899 2.251-.062 4.279 1.385 5.81 3.044 3.99 4.301 5.822 10.329 5.722 16.195z" opacity=".2"/><path d="m80.908 183.877c-2.779-.287-2.794 5.028 0 5.214 2.793.187 2.7-4.935 0-5.214z" fill="#fff"/><path d="m72.061 186.019c-3.352 7.915 4.842 12.943 10.988 8.753-8.38 2.047-11.266-4.005-10.988-8.753z" fill="#fff" opacity=".2"/><path d="m161.609 293.568c-.263-5.073-1.95-10.101-5.118-14.805-6.749-10.023-16.766-18.777-26.794-25.414-11.179-7.397-23.291-11.079-36.599-12.157-12.045-.972-24.923-1.626-35.336-7.76 1.491-.536 2.894-1.274 4.128-2.229 16.023 7.531 35.488 2.475 52.527 7.604 12.984 3.905 23.448 13.352 33.437 22.526 6.397 5.877 13.174 12.425 14.526 21.006.592 3.737.084 7.52-.771 11.229z" opacity=".2"/><path d="m239.88 300.306c-2.503 1.302-5.062 2.481-7.659 3.604 3.061-1.788 6.402-3.185 9.631-4.671-.654.368-1.313.726-1.972 1.067z"/><path d="m413.439 299.149c-3.933-.927-8.704.799-11.883 3.268-4.81 3.732-8.782 10.436-14.09 13.945-.52.112-1.034.229-1.553.346-1.341.307-2.676.642-4.006.989h-.006c-1.034.268-2.067.553-3.1.838-.145.039-.291.084-.436.123-11.347 3.195-22.577 7.313-34.136 9.224-.553.095-1.106.179-1.659.263-4.084.598-8.213.905-12.403.782-5.134-.151-10.235-1.006-14.995-2.754-.196-.073-.391-.146-.586-.223-3.034-1.168-5.928-2.71-8.593-4.66-.201-.14-.396-.291-.592-.436-.47-.363-.933-.732-1.386-1.117-6.553-5.565-11.431-13.291-11.587-22.051-.006-.179-.274-.179-.279 0-.408 9.017 3.609 17.079 9.939 22.911-5.743-.419-11.497-.704-17.23-1.341-7.363-.816-14.665-2.212-21.9-3.827-10.559-2.358-21.101-5.48-31.303-9.307 2.078-.888 4.146-1.804 6.19-2.76 5.643-2.637 11.33-5.889 15.33-10.782 4.693-5.749 5.855-13.062 4.157-20.208-1.223-5.168-3.682-9.738-6.755-13.922 8.816 8.201 20.454 13.33 32.454 14.241 2.911.218 5.956.229 8.553 1.559-.893 9.542 1.889 18.347 6.017 26.995 3.693 7.732 9.57 14.772 17.493 18.04 5.955 2.458 12.587 2.626 19.017 2.369 15.169-.603 30.247-3.391 44.622-8.257 6.699-2.263 13.486-5.14 18.191-10.414 1.676-1.871 3.078-4.106 3.386-6.603.424-3.447-1.28-6.749-2.783-9.878-9.308-19.37-12.749-40.929-17.475-61.891-3.106-13.799-6.978-27.772-13.258-40.353 2.498 3.671 4.738 7.514 6.693 11.503 11.464 23.397 13.492 49.974 22.616 74.215 3.878 10.301 9.66 20.799 17.336 29.173z" opacity=".2"/><g fill="#fff"><path d="m201.024 192.816c-3.618 18.087 76.539 51.399 122.909 49.164 46.371-2.235 43.577-67.042-3.911-84.92-47.487-17.878-117.322 27.376-118.998 35.756z" opacity=".1"/><path d="m312.76 260.975c-17.531.634-5.587 38.549 17.319 46.37 22.906 7.822 53.633-4.47 55.868-13.967s-11.732-62.013-18.437-68.717c-6.704-6.705-8.38 34.638-54.75 36.314z" opacity=".1"/><path d="m221.695 235.275c-13.967-9.497-39.666-26.258-41.901-41.901-1.006-7.039-8.28-13.989-18.453-19.341-1.274 3.067-3.134 5.877-5.631 8.207-3.062 2.855-6.799 4.319-10.777 5.419-4.492 1.24-9.341 2.067-12.85 5.28-.145.128-.291.268-.43.408-.145-.078-.285-.151-.425-.218-1.369-.676-2.704-1.101-4.073-1.291-.145-.022-.291-.039-.436-.056-.14-.017-.279-.034-.419-.039.006-.223.006-.447.006-.665 0-2.268-.106-4.52-.57-6.827-.62-3.028-1.76-5.794-3.028-8.559h-.145c-.81.011-1.587.139-2.302.436-.379.157-.743.363-1.078.62.05-.173.095-.346.151-.519 1.146-4.028 2.391-8.039 3.699-12.04-1.956-.033-3.9.006-5.81.134-27.135 1.804-68.159 29.61-68.159 29.61-5.028 7.821 6.145 24.582 18.995 25.699s65.365 5.586 92.182 27.934c26.817 22.347 10.056 52.516 2.235 63.131-7.822 10.615 6.704 11.174 22.347 5.587s58.662-23.465 62.014-35.197c3.351-11.732-11.175-36.314-25.142-45.812zm-143.765-36.688c-5.034 0-9.129-4.089-9.129-9.123s4.095-9.123 9.129-9.123c5.028 0 9.123 4.089 9.123 9.123 0 5.033-4.095 9.123-9.123 9.123z" opacity=".1"/></g></g></svg>