<svg id="Layer_1" enable-background="new 0 0 38 38" height="512" viewBox="0 0 38 38" width="512" xmlns="http://www.w3.org/2000/svg"><g id="Mouse"><g><g><g><g><g><path d="m12.7041912 32.0513c-1.0313072 2.3842278-6.6248941 2.2567253-9.2099609 1.9901123-.2900391-.0300293-.5-.2900391-.4700317-.5699463 0-.0400391.0100098-.0800781.039978-.1201172.0700073-.2299805.2900391-.3798828.5400391-.3499756 2.789978.2900391 7.4699702.1800537 8.1400146-1.369997.2399902-.5500488.1099854-.7900391.0699463-.8800049-.3299561-.6400146-1.8299561-.9899902-3.1699829-1.289917-1.4899898-.3500977-3.0399776-.7000732-3.8599849-1.5600586-1.8825572-1.9321461 1.9912939-5.0640602 4.2499995-6.5700684.25-.1599121.5700073-.0899658.7299805.1500244.1600342.25.0900269.5699463-.1499634.7301025-1.5700073 1.0198975-4.1199946 3.1098633-4.2600093 4.3798828-.0300293.2399902.0299683.4200439.1900024.5800781 1.3807154 1.4725761 6.197165 1.1212597 7.2099605 3.1099854.25.5100099.2400513 1.1099855-.0499878 1.7698995z" fill="#4c5c75"/></g></g><g><g><path d="m12.7041912 32.0513c-1.0313072 2.3842278-6.6248941 2.2567253-9.2099609 1.9901123-.2900391-.0300293-.5-.2900391-.4700317-.5699463 0-.0400391.0100098-.0800781.039978-.1201172 1.710022.2700195 4.2299004.6976852 6.2000117.2399902 3.3878107-.787056 3.410327-1.8944168 3.240696-2.8730621-.2648163-1.5277843-5.9906955-1.4568958-7.3107028-3.5668812s4.5700068-5.6700439 4.5700068-5.6700439c.1600342.25.0900269.5699463-.1499634.7301025-1.5700073 1.0198975-4.1199946 3.1098633-4.2600093 4.3798828-.0300293.2399902.0299683.4200439.1900024.5800781 1.3807154 1.4725761 6.197165 1.1212597 7.2099605 3.1099854.2500005.5100098.2400518 1.1099854-.0499873 1.7698994z" fill="#31445b"/></g></g></g><g><g><g><path d="m33.9073143 15.9217176c-2.4105072 2.2371874-6.7628403 5.0040884-9.9166393 7.4048357-3.2656517 2.4855804-5.8508186 4.1973305-9.8080111 3.7469559h-.0012217c-3.0427284-.3527126-4.251029-1.8212032-5.9426603-3.5811825l5.7034454-.1255035 4.6379347-1.647686 1.7697392-1.8100109 7.0997009-7.852767c-.0333538-.1016083-2.699091-8.2227764-2.6650162-8.118969 0 0 6.4681187.2674375 9.1227283 5.576653.0000001.0000005 2.4105035 4.170486.0000001 6.4076743z" fill="#1d2943"/></g></g><g><g><path d="m32.5858192 15.460928c-2.4105072 2.2371883-5.9490509 5.1465321-9.10285 7.5472775-3.2656517 2.4855804-5.8508167 4.1973324-9.8080101 3.7469578h-.0012217c-3.0427294-.3527126-4.0017366-1.7611313-5.6933684-3.5211105l5.4541535-.1855755 4.6379356-1.6476879 1.7697372-1.810009 7.0997009-7.8527679c-.0605698-.1023798-4.9524117-8.3710041-4.6475925-7.855773 0 0 6.9298134-1.0211205 10.2915154 5.1710148.0000001-.0000002 2.4105035 4.1704853.0000001 6.4076737z" fill="#31445b"/></g></g><g><g><path d="m27.1249733 16.5089951c-2.4070206 2.3782711-6.4252262 6.8054104-9.4760361 8.080986-2.9707155 1.2534657-7.4914865 1.2729988-9.8507261-1.5646858-2.7011142-3.2516613-2.2020817-8.0617371 1.0520782-10.7038755 2.8645325-2.3262825 2.6961012-2.3262825 5.5508738-4.8222332 4.0595722-3.5446017 9.8100948-4.9131799 13.7124195-1.3718514l.0061073.0073304c2.8547669 3.2294625 2.7937413 6.6310214-.9947166 10.3743295z" fill="#e3e7f0"/></g></g><g><g><path d="m25.8995838 17.1534271c-2.6363049 2.6045628-5.1725178 5.4593353-8.2506466 7.436554-2.8523302 1.2034359-7.1338787 1.2693329-9.5590296-1.2400265-2.9441738-3.0497456-2.7054763-8.2145128.7603817-11.0285349 4.3198843-3.508173 5.4843693-5.1054273 7.8942537-6.5199509 3.4949055-1.6204424 7.3599472-1.5558734 10.1436501.9702988l.0061016.0073304c2.8547726 3.2294622 2.793747 6.6310211-.9947109 10.3743291z" fill="#c9cee2"/></g></g><g><g><path d="m26.5122757 16.0940189c-2.5777168 2.5472012-5.0590134 5.3421707-8.0773296 7.2632504-2.7241783 1.734354-8.0639067 2.2005825-10.6757927-.9398003-1.1167688-1.3437824-1.6720991-2.9670506-1.6928453-4.586668.1214418-2.109561 1.1159015-4.0837221 2.7839808-5.4373608 2.8645325-2.3262978 2.6961012-2.3262978 5.5508738-4.8222332 3.0744629-2.6863418 6.7469711-3.904408 9.927618-3.2746358 1.1436253.3087926 2.2103481.8763323 3.1440334 1.7233734l.0061092.0060935c3.0726114 3.4783593 2.3355928 6.8076726-.9666476 10.0679808z" fill="#9ea9c9"/></g></g><g><g><path d="m29.2442303 9.0913372c-.4300537.6400146-.9700317 1.2800293-1.6300049 1.9300537-2.5800171 2.539917-5.0599976 5.3399658-8.0800171 7.2600098-2.7200317 1.7399902-8.0599976 2.1999512-10.6799927-.9400635-.7999878-.9699707-1.3200068-2.0899658-1.5499873-3.2399902.3199463-.4799805 1.019958-1.3399658 1.97998-2.3699951 3.4299927-3.6700439 10.1699829-9.4499512 15.039978-7.4300532 1.1500244.3000488 2.210022.8701172 3.1500244 1.7200928.8900147 1.0100097 1.4899903 2.0299066 1.7700196 3.0699457z" fill="#b0b8cf"/></g></g><g><g><path d="m27.4742107 6.0213914c-2.3699951 2.3800044-4.710022 4.9000239-7.5 6.6800532-2.7200317 1.7399902-8.0599976 2.1999512-10.6699829-.9400635-.0100098-.0100098-.0200195-.0200195-.0200195-.0300293 3.4299927-3.6700439 10.1699829-9.4499512 15.039978-7.4300532 1.1500244.3000488 2.210022.8701172 3.1500244 1.7200928z" fill="#c9cee2"/></g></g><g opacity=".3"><g><path d="m9.4667034 22.4541302c-1.0957766 0-1.7782736-1.2084122-1.0908203-2.1923828 3.3066406-4.7705078 7.2050781-8.7832031 11.5849609-11.9257813 1.0457344-.7286162 2.2138672.0117559 2.2138672 1.0751953 0 .3886719-.1708984.7412109-.46875.96875-4.046875 3.0917969-7.828125 6.9882813-11.2402344 11.5800781-.2285156.3134766-.5927734.4941407-.9990234.4941407z" fill="#4c5c75"/></g></g><g><g><path d="m21.7741985 9.4114056c0 .25-.0999756.4899902-.3099976.6499023-4.0700073 3.1101074-7.8499756 6.9899902-11.3200073 11.6601563-.3200073.4399414-.9799805.4299316-1.3699951.0499268-.3499756-.3399658-.3499756-.8800049-.0700073-1.2800293 3.25-4.6900635 7.1400146-8.7099609 11.4899902-11.8299561.7770901-.5439864 1.5800171.0114879 1.5800171.75z" fill="#fff"/></g></g><g><g><path d="m21.2030602 10.0573835c-2.8889446 2.2225428-5.0846386 4.4756136-5.7498178 5.1761847-.1135073.1208286-.3014622.1330309-.4308434.0292912l-.8360462-.6676149c-.1584578-.1252193-.1768074-.3646927-.0317345-.5126228 2.8437853-2.8730841 5.718091-5.018734 5.718091-5.018734.7042274-.544342 1.1399517-.491869 1.3645287-.3710394h.0012207c.0829945.043951.1379185.0964251.165987.1330462.368597.457691.2001667.9226969-.2013855 1.231489z" fill="#31445b"/></g></g><g><g><path d="m21.0090027 9.8889532c-2.8877296 2.2213211-5.0834246 4.4755983-5.7486029 5.1761694-.1147289.1208286-.3014631.1330462-.4320583.0292912l-.7017927-.560195c-.1013041-.1330462-.0952034-.3258963.0280695-.4515972 2.8437853-2.8730841 5.718091-5.018734 5.718091-5.018734.7042274-.544342 1.1399517-.491869 1.3645287-.3710394h.0012207c.3331966.4467106.1623229.8958645-.229456 1.196105z" fill="#4c5c75"/></g></g><g><g><path d="m11.0518332 20.2423954-.8998823 1.2079391c-.5315857.7771263-1.2160549.1737232-1.2160549.1737232-.2445192-.1874561-.3358679-.698637.0196934-1.1743488l.9045134-1.2206917c.0833826-.1123371.2432079-.1308708.3497553-.0405331.1018696.086071.9009933.7612667.7991238.6751957.1123369.0949746.1308716.2605821.0428513.3787156z" fill="#df3260"/></g></g><g><g><path d="m10.8781109 20.0837307-.8998823 1.2091122c-.4215603.6161289-.9392557.3648052-1.1349831.2339478-.1733131-.2348728-.1882238-.6749477.1123438-1.0770817l.9045134-1.2206917c.0833826-.1123371.2432079-.1308708.3497553-.0405331l.672883.568655c.0683336.0961208.0694933.2281513-.0046301.3265915z" fill="#f45170"/></g></g><g><g><path d="m15.0834236 15.7034464c-.0929041.1005192-.599411.6485415-.5065069.5480223-.0954828.104557-.1842995.1200905-.2856016.1586571-.4229908.1454182-.844758.3919544-1.1899967.7371922-.7431898.7239895-.8740959 1.6345215-.9227047 1.7392254 0 .0012226 0 .0036659-.0012217.0048866-.0195255.0427151-.0439367.0829868-.0744495.1196079-.080801.1001396-.5958519.7384644-.5150518.6383247-.1281519.1574497-.3600512.1794109-.5150585.0476017l-.0903168-.0768929h-.0012217l-.0500374-.0427151c-.0024433-.0024433-.003665-.0036659-.0048866-.0036659l-.6065893-.5162716c-.1830769-.1550083-.2538681-.4076462-.1733103-.6334534.5952702-1.6742973 1.7549639-3.3266935 3.3954573-3.8311644.208703-.0671339.438159-.0244198.6126909.1098337.1017752.0787296.9048729.6999798.8030968.6212502v.0012217l.1000834.0768776c.0964173.0732422.1074046.2135887.0256251.3014622z" fill="#31445b"/></g></g><g><g><path d="m14.4902582 16.3234749c-.0378351.0268478-.0781145.0451584-.1220512.059803-1.644022.5370274-2.0638771 1.9674606-2.1541939 2.3958607-.0085449.0390491-.0207539.0768929-.0366211.1122913l-.378355-.169651.2355576-.9568748.7005711-1.2241745 1.5988712-.6956854z" fill="#1d2943"/></g></g><g><g><path d="m14.9101133 15.5167198-.1867332.2013865c-.2871046.2886419-.3334427.4197779-.5370274.4845381-.9946899.3314133-1.6823149 1.0251923-2.0297079 1.9345055v.0012207c-.1674032.4327145-.1203852.5486126-.2575254.7201042-.0839796.1036015-.6063604.7480335-.5223818.6444321-.0964174.1208305-.2550821.162323-.3942223.1171646h-.0012217c-.0329485-.0097733-.0634613-.0244045-.0927591-.0439358-.0024366-.0024452-.0036583-.0036659-.00488-.0036659l-.6126976-.5211601c-.1842909-.1562138-.2563038-.4113102-.1745319-.6395454.5824795-1.6504574 1.6823902-3.2338266 3.2990398-3.8250723h.0012217c.04638-.0183105.0890951-.0329561.1305885-.04638.211153-.0683403.4430447-.0256405.6187983.1110706l.7811298.604146c.0158663.0207396.0256329.0439367.0305119.0683565v.0012217c.0170889.0646752.0024443.137903-.0476017.191613z" fill="#4c5c75"/></g></g><g><g><g><path d="m30.6405983 15.214613c-.7761364 1.0586414-1.683157 2.0055332-2.7139149 2.8495064-.0301743.0237007-.062706.043663-.097517.057415l.006176-.0010548.058733.0974293-.2904625-.0769463-.0024586-.0000706c-.3375568-.0773525-.4566841-.5433483-.1582031-.8000832.887167-.7630749 1.6959381-1.622941 2.4504261-2.5745211.1221275-.1540289.3062973-.2141304.455183-.1836357l.0024529.0000687c.1019115.0263128.4595699.1186571.3576584.0923443l-.1092186.0362082c.1351299.1351776.153717.3481293.0411453.5033398z" fill="#f45170"/></g></g><g><g><path d="m30.945734 15.2944317c-.7761383 1.0586414-1.6831913 2.0067596-2.7139149 2.8494911-.1533623.1225548-.3719101.1104164-.51087-.0217495-.2047653-.1948586-.1878643-.5175552.0271378-.7015591.8924789-.7638302 1.7110691-1.6210842 2.4504242-2.5745192.3619519-.4667586 1.0655842.0156556.7472229.4483367z" fill="#df3260"/></g></g></g><g><g><g><path d="m26.720417 19.1602268c-.8284512 1.0182228-1.7819939 1.9182472-2.8539371 2.7092552-.0313301.02215-.0648251.0404491-.1002827.052433l.0062199-.000742.0537529.1002617c-.2863636-.0999928-.3684788-.092804-.4688148-.1994095-.1946945-.2049217-.1481533-.511446.0624256-.6992931 2.6596146-2.3724251 2.5762768-2.6959724 3.043232-2.6081772.1004581.0314121.4530144.1416454.3525562.1102352l-.1109047.0306625c.1281547.1418096.1359958.3554288.0157527.5047742z" fill="#f45170"/></g></g><g><g><path d="m27.0211468 19.2553062c-.8284512 1.0182228-1.7820911 1.9194717-2.8539352 2.70924-.159338.1146793-.3769989.0915527-.5091267-.0474415-.1946945-.2049217-.1586285-.5226231.0624237-.6993046.9175797-.7334175 1.7815571-1.546196 2.5769329-2.4478779.1982422-.2247562.512598-.223568.7011795-.027317.1343746.1410675.145319.3623085.0225258.512701z" fill="#df3260"/></g></g></g><g><g><path d="m20.3341961 9.9813519c-.1900024.1400146-.4400024.1300049-.5700073-.0299072-.1300049-.1501465-.0799561-.3901367.1000366-.5400391.1900024-.1400146.4499512-.1199951.5700073.0300293.1299439.1599121.0799561.3999023-.1000366.539917z" fill="#fff"/></g></g><g><g><path d="m19.0141888 10.5314007c.1500244.1300049.1400146.3800049-.0199585.5499268-.1600342.1700439-.4100342.2000732-.5700073.0600586-.1500244-.1300049-.1400146-.3800049.0199585-.5500488.1600341-.169922.4200439-.1899415.5700073-.0599366z" fill="#fff"/></g></g><g><g><path d="m16.2342205 12.9813519c.1599731.1300049.1499634.3699951 0 .5400391-.1600342.1800537-.4100342.2099609-.5700073.0799561-.1500244-.1199951-.1500244-.3699951 0-.5400391.1599731-.1799317.4099731-.209961.5700073-.0799561z" fill="#fff"/></g></g><g><g><path d="m17.6341839 11.7114544c.1500244.1298828.1400146.3798828-.0199585.5499268-.1700439.1700439-.4200439.2000732-.5700073.0599365-.1500244-.1298828-.1500244-.3798828.0199585-.5499268.1600341-.1700439.4100341-.1900635.5700073-.0599365z" fill="#fff"/></g></g><g><g><g><path d="m9.0199347 21.8328552-.8372679 1.032547-.0927591.4845524c-.0683489-.0707989-.1354752-.1440258-.2013798-.2184753l.0951958-.4589138.8482552-.9959393z" fill="#fff"/></g></g></g><g opacity=".49"><g><path d="m12.1786137 18.8865433c0 .0012226 0 .0036659-.0012217.0048866-.048955.1070995-.0744743.1117573-.4906397.6346607-.3598604-.3067951-1.6247072-1.3851242-1.523201-1.298624.10497-.278265.2172546-.5358067.3344259-.7737999.1014853.086525 1.7858201 1.5225544 1.6806365 1.4328766z" fill="#111d33"/></g></g><g opacity=".49"><g><path d="m12.7400522 17.5769405c-.1806402.2575245-.3026915.5126076-.385685.7298622l-.1977224-.1684322v-.0012207c-.1014957-.0865116-1.4904356-1.2703991-1.3889399-1.1838875.1452408-.2489891.2965832-.4735584.4503679-.6749458.3100654.2645512 1.6234599 1.3851528 1.5219794 1.298624z" fill="#111d33"/></g></g><g opacity=".49"><g><path d="m13.7591743 16.6505623c-.2599688.1452484-.4760017.3149014-.657856.4967556-.1014748-.0865364-1.5856104-1.3522043-1.4841366-1.265667l-.0390568-.0329561c.1977215-.2160177.3966656-.4003162.5907297-.554101.3598338.3068247 1.6917621 1.442543 1.5903197 1.3559685z" fill="#111d33"/></g></g><g opacity=".49"><g><path d="m14.9174366 15.8840942-.3405199.3673744c-.0954828.104557-.1842995.1200905-.2856016.1586571-.1014547-.0865593-1.7845745-1.5225916-1.6794224-1.4328766.2990265-.1891851.5699835-.3124428.7835722-.3905573h.0012217c.1014738.0865374 1.4281664 1.2179527 1.3266935 1.1314144z" fill="#111d33"/></g></g></g></g><g><g><g><path d="m20.963335 6.2187443c.0399246 1.0967255-.0770531 1.1967926-.1417122-.0088639-1.2278156 1.3356338-1.3133831 1.0988784-.1770573-.1594386-1.1063347.0395508-1.2008972-.077002-.0177288-.141603-1.2863083-1.2021341-1.1055984-1.3327847.1771126-.1947856-.0419846-1.1535482.0713444-1.1395302.1327934.0088634 1.2067509-1.2901802 1.3566475-1.1465783.1771126.1593308 1.2527981-.0223932 1.0529785.0851865.0177269.1417112 1.2352811 1.1541978 1.1613866 1.3741513-.1682472.1947857z" fill="#fff"/></g></g></g></g></g></svg>