<svg id="Flat" enable-background="new 0 0 475.04 496" height="512" viewBox="0 0 475.04 496" width="512" xmlns="http://www.w3.org/2000/svg"><g><g fill="#cdc7b9"><path d="m401.623 221.59c-1.616-1.504-4.15-1.41-5.652.207-1.504 1.619-1.411 4.149.207 5.653l10.9 10.13c.77.716 1.747 1.07 2.722 1.07 1.073 0 2.144-.429 2.931-1.277 1.504-1.619 1.411-4.149-.207-5.653z"/><path d="m379.793 245.08c-1.617-1.504-4.15-1.41-5.652.207-1.504 1.619-1.411 4.149.207 5.653l10.9 10.13c.77.716 1.747 1.07 2.722 1.07 1.073 0 2.144-.429 2.931-1.277 1.504-1.618 1.411-4.148-.207-5.652z"/><path d="m473.763 288.62-10.853-10.086c-1.564-1.503-4.05-1.481-5.593.063-1.563 1.562-1.558 4.1.005 5.661.034.035.069.068.105.102l10.89 10.12c.77.716 1.747 1.07 2.722 1.07 1.073 0 2.143-.429 2.931-1.277 1.504-1.619 1.411-4.149-.207-5.653z"/><path d="m441.034 301.99c-1.617-1.504-4.15-1.413-5.652.207-1.504 1.618-1.411 4.148.207 5.652l10.9 10.13c.77.716 1.747 1.07 2.722 1.07 1.073 0 2.144-.429 2.931-1.277 1.504-1.618 1.411-4.148-.207-5.652z"/></g><path d="m231.801 332.44-30.62 25.18c-11.539.166-14.27 5.925-6.6 16.75 21.726 28.144 69.007 33.473 75.72 17.42 19.91 5.19 24.314-1.067 15.72-16.92-17.93-20.39-37.18-33.76-54.22-42.43z" fill="#655f68"/><path d="m162.701 357.62-30.44-25.95c-25.76 11.69-58.03 32.39-82.62 68.38v.01c-5.365 15.471 8.624 21.349 25.13 25.98l10.026 23.115 26.164 5.346c29.894 9.708 52.888-6.013 62.09-72.55 6.098-12.891 1.867-21.991-10.35-24.331z" fill="#655f68"/><path d="m325.091 143.6c-16.67-18.01-12.87-59.76-26.28-79.48-13.4-19.7-38.81-23.35-38.81-23.35 14.26-1.94 23.92-10.11 31.08-21.64-32.08 6.79-77.2-19.13-107.46-19.13-30.2 0-41.68 24.99-41.68 24.99s-21.17-10.55-42.17.93c-21.01 11.48-32.38 52.86-55.92 67.14 10.17 2.24 19.59.75 28.45-3.51-.57.6-18.62 19.78-22.27 42.16-3.7 22.74 8.02 49.81 2.45 71.05 6.06-1.7 10.92-4.97 14.93-9.38l.01-.01 226.17-6.1c9.44-15.34 11.93-32.38 5.63-51.59 7.67 6.43 16.36 8.78 25.87 7.92z" fill="#ad6a6a"/><path d="m293.591 187.27c4.66 7.24 5.81 17.48 2.25 27.23-4.68 12.82-15.96 20.7-26.75 19.4h-.01c-18.052-18.787-18.405-39.216 11.1-55.98 1.21.23 2.35.54 3.53 1.02 4.12 1.65 7.47 4.59 9.88 8.33z" fill="#fec4b9"/><path d="m94.801 233.9c-10.8 1.3-22.08-6.58-26.76-19.4-2.65-7.25-2.69-14.76-.63-21.12l.01-.01c2.15-6.61 6.58-11.96 12.75-14.43 1.18-.48 2.32-.79 3.53-1.02 26.527 14.138 26.634 34.972 11.1 55.98z" fill="#fec4b9"/><path d="m247.791 267.52c-17.719-4.601-34.067 1.789-41.85 26.39v.01c-12.449 3.558-13.514 8.13 0 14l22.4 14.11c4.75-5.97 7.46-13.21 7.42-22.19 5.59 6.39 13.64 9.72 23.56 10.71-8.11-11.88-11.96-26.21-11.53-43.03z" fill="#a35757"/><path d="m157.941 293.92v-.01c-1.425-28.745-20.182-32.55-41.85-26.39.43 16.82-3.42 31.15-11.53 43.03 9.92-.99 17.97-4.32 23.56-10.71-.04 8.98 2.67 16.22 7.42 22.19l22.4-14.11c13.784-4.91 15.399-9.605 0-14z" fill="#a35757"/><path d="m424.531 312.75-14.36 15.46-19.883-6.18-15.636-12.967-7.841-21.143 14.36-15.45 32.189 7.038z" fill="#c3ddda"/><path d="m54.261 496h-48.79c5.49-6.52 12.41-13.2 20.66-17.74 1.991-1.067 3.141-.286 3.77 1.64 20.066-2.405 26.664 3.951 24.36 16.1z" fill="#e0ac69"/><path d="m362.141 439.1c.9 19.61.08 38.61-2.72 56.9h-28.18c-21.471-7.427-33.497-33.85-16.85-51.23 3.7-20.938 34.163-25.252 47.75-5.67z" fill="#fec4b9"/><path d="m266.871 160.63c-3.96-12.42-1.52-27.73-11.2-42.42 1.1 7.53.53 15.13-1.73 21.86-5.31-15.64-28.03-22.56-46.12-33.6-12.11-7.4-21.06-18.28-25.88-27.89 8.31 19.7 7.03 37.04-3.46 52.13 0 0 1.69-16.06-3.4-25.47-4.88-9.01-12.59-11.14-18.04-18.81-5.44-7.67-5.46-24.6-5.46-24.6s-3.11 20.78-10.41 32.37c-7.69 12.2-21.21 18.82-22.62 32.22-8.2-5.69-12.83-14.89-14.47-27.03-2.58 33.6-9.16 60.14-20.38 78.53 2.09 21.42 5.97 41.13 11.1 55.98 2.17 6.29 4.57 11.71 7.15 16.02 3.31 5.51 8.13 11.63 14.14 17.6 10.78 10.72 25.38 20.97 41.85 26.39v.01 14c-6.467 17.689-5.526 34.346 4.76 49.7 2.18 7.59 6.41 16.69 10.35 24.33l21.53-7.58c2.66-5.66 5.11-11.56 6.6-16.75 11.107-12.234 13.65-28.365 4.76-49.7v-14-.01c16.47-5.42 31.07-15.67 41.85-26.39 6.01-5.97 10.83-12.09 14.14-17.6 2.58-4.31 4.98-9.73 7.15-16.02 5.13-14.85 9.01-34.56 11.1-55.98 0 0-9.34-4.87-13.31-17.29z" fill="#ffd7d2"/><path d="m203.471 194.3c1.64 5.81-1.76 11.87-7.57 13.52-4.61 1.31-9.31 1.97-13.96 1.97-4.66 0-9.35-.66-13.96-1.97-5.82-1.65-9.21-7.72-7.56-13.54 1.32-4.7 5.66-7.98 10.55-7.98 1.01 0 2.02.14 3 .42 2.64.75 5.32 1.12 7.97 1.12 2.64 0 5.33-.38 7.98-1.13.97-.27 1.97-.41 2.98-.41 4.9 0 9.24 3.29 10.57 8z" fill="#f48ca7"/><path d="m228.341 322.03c1.48 2.88 2.6 6.54 3.46 10.41 2.57 11.63 2.7 25.18 2.7 25.18-11.59-2.71-22.7-2.71-33.32 0 4.76-16.55 4.76-49.7 4.76-49.7s14.75 1.83 21.53 12.59c.3.48.59.99.87 1.52z" fill="#6fceae"/><path d="m135.541 322.03c.28-.53.57-1.04.87-1.52 6.78-10.76 21.53-12.59 21.53-12.59s0 33.15 4.76 49.7c-10.62-2.71-21.73-2.71-33.32 0 0 0 .14-14.16 2.88-25.95.83-3.59 1.9-6.95 3.28-9.64z" fill="#6fceae"/><path d="m314.391 444.77c3.407-5.478 1.818-8.399-4.03-9.14l-40.06-43.84c-.58-.31-41.77-21.89-75.72-17.42-6.46.85-12.65 2.64-18.26 5.7-1.12.61-2.21 1.24-3.27 1.88-32.1 19.32-33.7 48.3-53.52 66.56-2.48 2.29-5.36 4.26-8.57 5.99 12.197 19.27 30.231 32.652 52.76 41.5 34.099-14.483 67.557-15.09 100.29 0h67.23c0-10.5-10.79-37.1-16.85-51.23z" fill="#e0ac69"/><path d="m393.497 317.906-.716-5.849-8.59-7.984-6.247-.172.386-5.275-11.52-10.707-80.79 86.95-15.72 16.92-31.91 34.34 14.45 13.43 14.46 13.43 14.45 13.43 28.61-30.79c0-.01 0-.01 0-.01 15.617-6.084 26.703-16.165 30.43-32.74l55.3-59.52 14.08-15.15-11.529-10.707z" fill="#604533"/><path d="m248.001 459.27c-2.47-2.3-5.12-4.3-7.89-6.01-19.94-12.28-46.43-9.21-62.98 8.61-8.97 9.66-13.41 21.91-13.41 34.13h31.22l6.383-2.097 4.538 2.097h16.01l5.628-1.365 5.293 1.365h31.219c0-10.32-3.17-20.61-9.45-29.31-1.891-2.64-4.081-5.12-6.561-7.42z" fill="#604533"/><path d="m163.721 496h-109.46l-24.36-16.1s-11.297-27.733 1.723-44.303c13.02-16.56 43.147-9.557 43.147-9.557l14.01 11.02 22.18 17.44z" fill="#ffd7d2"/><path d="m59.211 405.94 15.56 20.1s-19.65 0-32.67 16.56c-13.02 16.57-12.2 37.3-12.2 37.3l-3.77-1.64-16.36-7.09c-5.39-2.33-9.06-7.42-9.55-13.26-.77-8.97.08-22.79 8.99-36.13 9.2-13.75 23.89-19.35 33.81-21.62 2.22-.5 4.47-.53 6.62-.1 3.73.72 7.16 2.76 9.57 5.88z" fill="#6fceae"/><path d="m460.151 281.43c-2.49 4.24-5.66 8.86-9.53 13.03s-8.26 7.68-12.31 10.46c-7.45 5.13-13.78 7.83-13.78 7.83l-21.68-20.14-21.68-20.14s2.23-6.52 6.8-14.33c2.48-4.24 5.65-8.87 9.52-13.04 3.88-4.17 8.26-7.67 12.31-10.45 7.45-5.13 13.78-7.83 13.78-7.83l43.36 40.28s-2.23 6.52-6.79 14.33z" fill="#a35757"/><path d="m205.941 293.92v14s0 .74-.02 2.06c-27.67 11.46-47.98-3.79-47.98-3.79v-12.27c7.66 2.52 15.72 4 24 4s16.34-1.48 24-4z" fill="#fec4b9"/><path d="m90.94 409.795-2.159 27.265-14.01-11.02c3.404-5.064 4.837-12.533 5.432-17.35.333-2.701 2.634-4.72 5.355-4.72 3.149 0 5.63 2.685 5.382 5.825z" fill="#5d5560"/><path d="m255.772 442.282 60.439-65.05c.002-.002.003-.004.004-.006l52.545-56.544c.034-.036.067-.073.1-.11l15.331-16.499-2.93-2.723-2.93-2.723-67.797 72.963-.178.193c-.002.002-.004.003-.005.005l-60.439 65.05-13.394 14.416-41.577 44.746h5.46 5.461l37.599-40.467z" fill="#e7f2f1"/><path d="m395.711 314.78-2.93-2.723v.001l-69.33 74.62-59.084 63.587-12.31 13.248-30.186 32.487h5.46 5.461l24.039-25.871 13.397-14.418 59.084-63.588 69.33-74.62z" fill="#e7f2f1"/><path d="m237.363 136.798c-9.985-7.027-23.21-4.795-23.767-4.698-2.171.383-3.618 2.449-3.241 4.622.377 2.172 2.45 3.633 4.619 3.258.103-.018 10.555-1.728 17.785 3.36.7.492 1.503.729 2.298.729 1.258 0 2.496-.592 3.275-1.699 1.272-1.805.837-4.3-.969-5.572z" fill="#ad6a6a"/><path d="m131.143 143.341c7.215-5.075 17.636-3.383 17.783-3.36 2.167.378 4.241-1.074 4.624-3.247.383-2.176-1.069-4.25-3.245-4.634-.56-.097-13.781-2.329-23.766 4.698-1.807 1.271-2.241 3.766-.97 5.573.779 1.107 2.018 1.699 3.275 1.699.796 0 1.6-.237 2.299-.729z" fill="#ad6a6a"/><path d="m141.941 157.92c-8.586 0-15.57 6.98-15.57 15.56 0 2.209 1.791 4 4 4s4-1.791 4-4c0-4.168 3.396-7.56 7.57-7.56s7.57 3.392 7.57 7.56c0 2.209 1.791 4 4 4s4-1.791 4-4c0-8.58-6.984-15.56-15.57-15.56z" fill="#543927"/><path d="m221.941 157.92c-8.586 0-15.57 6.98-15.57 15.56 0 2.209 1.791 4 4 4s4-1.791 4-4c0-4.168 3.396-7.56 7.57-7.56s7.57 3.392 7.57 7.56c0 2.209 1.791 4 4 4s4-1.791 4-4c0-8.58-6.984-15.56-15.57-15.56z" fill="#543927"/><path d="m365.841 317.95c2.16.21 4.27 1.11 5.97 2.7l9.87 9.23 14.41 13.48.6.56c2.08 1.95 3.54 4.47 4.19 7.25 1.88 7.99 5.59 24.96 5 31.67-.79 8.9-24.62 45.7-43.74 56.26-18.89 10.43-47.75 5.67-47.75 5.67-2.3-5.34-3.92-8.9-4.03-9.14 0-.01 0-.01 0-.01l30.43-32.74-14.41-13.48-10.07-9.42c-1.62-1.52-2.64-3.44-3.03-5.47-.6-3.09.24-6.41 2.55-8.88 2-2.14 4.7-3.22 7.42-3.22 2.49 0 4.98.91 6.94 2.74-4.1-3.83-4.31-10.26-.48-14.35 2-2.14 4.7-3.22 7.42-3.22 2.48 0 4.97.91 6.93 2.74-2.14-2-3.22-4.71-3.22-7.42 0-2.49.91-4.98 2.74-6.94 3.83-4.09 10.26-4.31 14.36-.48-2.14-2-3.22-4.7-3.22-7.41 0-2.49.91-4.98 2.74-6.94 2.24-2.39 5.36-3.46 8.38-3.18z" fill="#ffd7d2"/><path d="m349.042 409.851c-.376-2.177-2.447-3.641-4.621-3.262-2.178.375-3.638 2.444-3.262 4.621l2.33 13.501c.336 1.946 2.026 3.32 3.937 3.32.226 0 .455-.02.686-.06 2.177-.376 3.637-2.445 3.261-4.622z" fill="#fec4b9"/><path d="m363.472 396.75c-1.045-4.86-3.52-9.23-7.159-12.641l-19.043-17.814c-1.612-1.508-4.145-1.425-5.653.188-1.51 1.613-1.425 4.145.188 5.653l19.04 17.813c2.443 2.289 4.104 5.222 4.806 8.485l2.26 10.46c.405 1.875 2.063 3.156 3.906 3.156.279 0 .564-.029.849-.091 2.159-.467 3.531-2.596 3.065-4.755z" fill="#fec4b9"/><path d="m377.316 382.35c-1.009-5.144-3.564-9.746-7.383-13.301l-18.535-17.342c-1.612-1.509-4.145-1.425-5.653.188-1.51 1.612-1.425 4.144.188 5.653l18.542 17.349c2.582 2.404 4.309 5.515 4.99 8.99l1.79 9.16c.373 1.909 2.047 3.233 3.922 3.233.254 0 .512-.024.771-.075 2.168-.424 3.582-2.524 3.158-4.693z" fill="#fec4b9"/><path d="m392.431 375.38-1.32-7.534c-.926-5.256-3.577-10.155-7.468-13.797l-19.09-17.859c-1.612-1.508-4.144-1.425-5.653.188s-1.425 4.145.188 5.653l19.089 17.858c2.632 2.465 4.428 5.783 5.054 9.341l1.319 7.53c.341 1.942 2.029 3.311 3.936 3.311.229 0 .462-.021.695-.061 2.176-.381 3.631-2.454 3.25-4.63z" fill="#fec4b9"/></g></svg>