<svg id="Capa_1" enable-background="new 0 0 497 497" height="512" viewBox="0 0 497 497" width="512" xmlns="http://www.w3.org/2000/svg"><g><path d="m440.345 497h-355.162c-13.807 0-25-11.193-25-25v-15.218l10-15-10-35.798v-66.124l10-15-10-35.798v-66.124l10-35.798-10-15v-66.124l10-15-10-35.798v-30.218c0-13.807 11.193-25 25-25h355.161c13.807 0 25 11.193 25 25v447c.001 13.807-11.192 25-24.999 25z" fill="#9dc6fb"/><path d="m405.252 195.868h-218.039c-2.761 0-5-2.239-5-5v-131.378c0-2.761 2.239-5 5-5h218.039c2.761 0 5 2.239 5 5v131.378c0 2.761-2.239 5-5 5z" fill="#f9d065"/><path d="m127.149 0h15v497h-15z" fill="#f2fdff"/><path d="m80.812 420.984h-20.629v35.798h20.629c9.885 0 17.899-8.014 17.899-17.899s-8.014-17.899-17.899-17.899z" fill="#80b4fb"/><path d="m450.345 0h-30c13.807 0 25 11.193 25 25v447c0 13.807-11.193 25-25 25h30c13.807 0 25-11.193 25-25v-447c0-13.807-11.193-25-25-25z" fill="#80b4fb"/><g><path d="m386.882 114.149h-171.299c-4.143 0-7.5-3.358-7.5-7.5s3.357-7.5 7.5-7.5h171.299c4.143 0 7.5 3.358 7.5 7.5s-3.358 7.5-7.5 7.5z" fill="#f2fdff"/></g><g><path d="m386.882 153.793h-171.299c-4.143 0-7.5-3.358-7.5-7.5s3.357-7.5 7.5-7.5h171.299c4.143 0 7.5 3.358 7.5 7.5s-3.358 7.5-7.5 7.5z" fill="#f2fdff"/></g><path d="m415.252 54.49h-19c2.761 0 5 2.239 5 5v131.378c0 2.761-2.239 5-5 5h19c2.761 0 5-2.239 5-5v-131.378c0-2.761-2.239-5-5-5z" fill="#f5b84c"/><g fill="#80b4fb"><path d="m80.812 70.218h-20.629v35.798h20.629c9.885 0 17.899-8.014 17.899-17.899s-8.014-17.899-17.899-17.899z"/><path d="m80.812 304.062h-20.629v35.798h20.629c9.885 0 17.899-8.014 17.899-17.899s-8.014-17.899-17.899-17.899z"/><path d="m80.812 187.14h-20.629v35.798h20.629c9.885 0 17.899-8.014 17.899-17.899s-8.014-17.899-17.899-17.899z"/></g><path d="m78.812 324.86h-39.257c-9.885 0-17.899-8.014-17.899-17.899 0-9.885 8.014-17.899 17.899-17.899h39.257c9.885 0 17.899 8.014 17.899 17.899 0 9.885-8.014 17.899-17.899 17.899z" fill="#89828d"/><path d="m78.812 441.782h-39.257c-9.885 0-17.899-8.014-17.899-17.899 0-9.885 8.014-17.899 17.899-17.899h39.257c9.885 0 17.899 8.014 17.899 17.899 0 9.885-8.014 17.899-17.899 17.899z" fill="#89828d"/><path d="m80.812 289.062h-20c9.885 0 17.899 8.014 17.899 17.899 0 9.886-8.014 17.899-17.899 17.899h20c9.885 0 17.899-8.014 17.899-17.899s-8.014-17.899-17.899-17.899z" fill="#746f78"/><path d="m80.812 405.984h-20c9.885 0 17.899 8.014 17.899 17.899s-8.014 17.899-17.899 17.899h20c9.885 0 17.899-8.014 17.899-17.899s-8.014-17.899-17.899-17.899z" fill="#746f78"/><path d="m78.812 91.016h-39.257c-9.885 0-17.899-8.014-17.899-17.899 0-9.885 8.014-17.899 17.899-17.899h39.257c9.885 0 17.899 8.014 17.899 17.899 0 9.885-8.014 17.899-17.899 17.899z" fill="#89828d"/><path d="m80.812 55.218h-20c9.885 0 17.899 8.014 17.899 17.899s-8.014 17.899-17.899 17.899h20c9.885 0 17.899-8.014 17.899-17.899s-8.014-17.899-17.899-17.899z" fill="#746f78"/><path d="m78.812 207.938h-39.257c-9.885 0-17.899-8.014-17.899-17.899 0-9.885 8.014-17.899 17.899-17.899h39.257c9.885 0 17.899 8.014 17.899 17.899 0 9.885-8.014 17.899-17.899 17.899z" fill="#89828d"/><path d="m80.812 172.14h-20c9.885 0 17.899 8.014 17.899 17.899 0 9.886-8.014 17.899-17.899 17.899h20c9.885 0 17.899-8.014 17.899-17.899s-8.014-17.899-17.899-17.899z" fill="#746f78"/></g></svg>