<svg id="Layer_1" height="512" viewBox="0 0 512 512" width="512" xmlns="http://www.w3.org/2000/svg" data-name="Layer 1"><path d="m356.7 339.457-15.8-3.246c46.491-18.367 65.992-52.431 56.463-99.247l-.847-4.16c-13.269-65.259-24.776-121.744-57.82-154.4l6.475-36.626a4 4 0 0 0 -1.575-3.924c-21.575-15.796-53.502-24.854-87.596-24.854-34.019 0-65.9 9.058-87.474 24.851a4 4 0 0 0 -1.575 3.924l6.458 36.525c-33.126 32.647-44.641 89.185-57.925 154.516l-.844 4.148c-9.526 46.8 10.011 80.86 56.569 99.244l-15.8 3.251c-29.777 6.2-61.594 25.833-61.594 62.325v93.216a4 4 0 0 0 4 4h316.366a4 4 0 0 0 4-4v-93.216c0-36.473-31.754-56.11-61.481-62.327z" fill="#ffd4cf"/><path d="m356.7 339.457-27.721-5.681 1.76 41.164a4 4 0 0 1 -2.381 4.952l-21.683 8.29.412 17.921a4 4 0 0 1 -2.771 3.9l-48.316 10.63-48.313-10.633a4 4 0 0 1 -2.77-3.9l.412-17.921-21.683-8.29a4 4 0 0 1 -2.382-4.952l1.76-41.164-27.611 5.683c-29.777 6.2-61.594 25.833-61.594 62.325v93.219a4 4 0 0 0 4 4h316.362a4 4 0 0 0 4-4v-93.216c0-36.473-31.754-56.11-61.481-62.327z" fill="#64b9fc"/><g fill="#4faded"><path d="m356.7 339.457-4.177-.856c21.171 10.468 38.662 29.239 38.662 57.8v98.375a4.115 4.115 0 0 1 -4 4.221h27a4 4 0 0 0 4-4v-93.213c-.004-36.473-31.758-56.11-61.485-62.327z"/><path d="m369.759 499a97.668 97.668 0 0 0 -1.964-41.93 8 8 0 1 0 -15.464 4.1 81 81 0 0 1 1.124 37.83z"/><path d="m159.668 461.17a8 8 0 1 0 -15.465-4.1 96.418 96.418 0 0 0 -1.866 41.93h16.321a79.276 79.276 0 0 1 1.01-37.83z"/></g><path d="m343.593 37.851c-21.572-15.793-53.499-24.851-87.593-24.851-34.019 0-65.9 9.058-87.474 24.851a4 4 0 0 0 -1.575 3.924l11.086 62.7a4 4 0 0 0 5.8 2.842c22.949-12.1 121.491-12.1 144.437 0a4 4 0 0 0 5.805-2.842l11.085-62.7a4 4 0 0 0 -1.571-3.924z" fill="#e9f1f3"/><path d="m397.36 236.964-.847-4.16c-13.269-65.259-24.776-121.744-57.82-154.4l-4.61 26.074a4 4 0 0 1 -5.805 2.842c-22.946-12.1-121.488-12.1-144.437 0a4 4 0 0 1 -5.8-2.842l-4.632-26.178c-33.126 32.647-44.641 89.185-57.925 154.516l-.844 4.148c-9.527 46.8 10.041 80.855 56.613 99.234l46.416-9.553v-23.292a81.092 81.092 0 0 1 -42.554-71.313v-.529h-4.464a24.92 24.92 0 0 1 .238-49.84h8.311c31.388-.408 43.223-10.275 56.926-21.7 13.953-11.634 29.769-24.819 67.8-30.468a3.991 3.991 0 0 1 4.128 2.095 135.446 135.446 0 0 0 14.463 21.985c6.29 8.112 11.04 14.242 13.2 28.087h5.511a24.92 24.92 0 0 1 .161 49.84h-4.389v.529a81.074 81.074 0 0 1 -42.674 71.342v23.262l46.522 9.558c46.511-18.363 66.042-52.415 56.512-99.237z" fill="#748e99"/><path d="m270.066 49.171h-6.066v-6.066a8 8 0 0 0 -16 0v6.066h-5.947a8 8 0 1 0 0 16h5.947v6.066a8 8 0 0 0 16 0v-6.066h6.066a8 8 0 0 0 0-16z" fill="#fb4a59"/><path d="m346.474 434.7h-33.258a8 8 0 0 1 0-16h33.258a8 8 0 1 1 0 16z" fill="#e9f1f3"/><path d="m256 420.633-48.313-10.633a4 4 0 0 1 -2.77-3.9l.412-17.921-21.683-8.29a4 4 0 0 1 -2.382-4.952l1.76-41.164 12.386-2.55 60.59 72.111z" fill="#95cfef"/><path d="m256 420.633 48.312-10.633a4 4 0 0 0 2.771-3.9l-.412-17.921 21.682-8.29a4 4 0 0 0 2.382-4.952l-1.76-41.164-12.385-2.55-60.59 72.111z" fill="#87cae8"/><path d="m256 420.633-8-1.761v80.128h16v-80.128z" fill="#4faded"/><path d="m175.115 201.763c0-6.764.023-15.105.133-16.424a4 4 0 0 1 3.934-3.668h-8.293a24.92 24.92 0 0 0 -.238 49.84h4.464z" fill="#f9c9c5"/><path d="m341.23 181.671h-5.511a131.513 131.513 0 0 1 1.281 20.092v29.748h4.387a24.92 24.92 0 0 0 -.161-49.84z" fill="#f9c9c5"/><path d="m322.518 153.584a135.446 135.446 0 0 1 -14.463-21.984 3.991 3.991 0 0 0 -4.128-2.095c-5.065.752-9.725 1.642-14.05 2.64 2.735 4.377 5.276 7.868 7.641 11.116 8.724 11.979 14.486 19.892 14.486 51.3v32.239c0 43.092-29.834 78.9-68.665 85.25a80.978 80.978 0 0 0 93.661-80.01v-30.277c0-29.496-5.758-36.929-14.482-48.179z" fill="#f9c9c5"/><path d="m343.593 37.851a107.3 107.3 0 0 0 -17.325-10.224c.019.1 13.151 69.523-69.023 70.617 29.974.078 59.709 3.1 71.033 9.073a4 4 0 0 0 5.805-2.842l11.085-62.7a4 4 0 0 0 -1.575-3.924z" fill="#d1d9db"/><path d="m397.36 236.964-.847-4.16c-13.064-64.25-24.435-119.978-56.319-152.854l-1.918.807-4.193 23.718a4 4 0 0 1 -5.805 2.842c-6.653-3.509-19.666-6-35.343-7.472s-12.893 10.634-3.058 32.3c4.326-1 8.985-1.888 14.05-2.64a3.991 3.991 0 0 1 4.128 2.095 135.446 135.446 0 0 0 14.463 21.985c6.29 8.112 11.04 14.242 13.2 28.087h5.511a24.92 24.92 0 0 1 .161 49.84h-4.39v.529a81.074 81.074 0 0 1 -42.674 71.342v23.262l46.522 9.558c46.511-18.365 66.042-52.417 56.512-99.239z" fill="#6a8993"/></svg>