<svg clip-rule="evenodd" fill-rule="evenodd" height="512" image-rendering="optimizeQuality" shape-rendering="geometricPrecision" text-rendering="geometricPrecision" viewBox="0 0 1.70666 1.70666" width="512" xmlns="http://www.w3.org/2000/svg"><g id="Layer_x0020_1"><g id="_506193944"><path id="_506195984" d="m1.20399.438028c-.00679134 0-.0132913-.0034685-.0170118-.0094685-.0574331-.0927323-.172189-.13976-.341146-.13976-.168953 0-.283709.0470118-.341142.13976-.00470866.00762992-.0139291.0112087-.0225551.0086811-.00861024-.00248425-.0145157-.0104134-.0144449-.019374l.00144094-.17763c.0127047-.165461.204169-.240209.376717-.240209.172551 0 .364016.0747323.376638.238839l.00150394.178996c.00006693.00897244-.00585039.0168858-.0144567.019374-.00182283.00053937-.00369685.00079134-.00554331.00079134z" fill="#00b2b1"/><path id="_506195768" d="m.853335 1.23768c-.0889449 0-.163508-.0609252-.177925-.141858l-.093315.0359409c-.00401575.00157087-.00844882.00174803-.0126102.00058268-.0626811-.0176378-.170811-.0621496-.190795-.162094-.00119685-.00595669.00038583-.0121339.00430315-.0167913.00391732-.00466535.00962598-.00719685.0158071-.00712205.00202362 0 .044689-.0003189.0642165-.028.0149449-.0211535.0144724-.0545276-.00140157-.0991496-.0221772-.0623622-.0863701-.277394.0184724-.425961.0676339-.0958465.190685-.144441.365736-.144441.175047 0 .298098.0485945.365752.144441.104839.148563.0406378.363598.0184528.425961-.0158622.044622-.0163346.0779803-.00138976.0991496.0195276.0276693.0621772.028.0639724.028.006 0 .0120236.0026811.0158465.00730709.00379134.0046378.0056811.0107244.0045.0165984-.0192756.0964016-.121941.141217-.181429.159354-.00425197.00127559-.00885827.0011378-.0130276-.00047244l-.0872638-.033626c-.0143543.0812559-.0888661.142181-.177902.142181z" fill="#414042"/><g fill="#fff"><path id="_506196416" d="m.90211.147484h-.112512c-.0110394 0-.02-.00895669-.02-.0199961 0-.0110394.00896063-.02.02-.02h.112512c.0110354 0 .0199961.00896063.0199961.02 0 .0110394-.00895276.0199961-.0199961.0199961z"/><path id="_506195720" d="m.845846.203748c-.0110394 0-.0199961-.00896063-.0199961-.02v-.112528c0-.0110394.00895669-.02.0199961-.02.0110394 0 .02.00896063.02.02v.112528c0 .0110551-.00896063.02-.02.02z"/></g><path id="_506196392" d="m1.27094 1.70664h-.835209v-.114205h-.163453v-.300531c0-.0829016.0846378-.115913.152634-.142441l.260795-.100469c.00048425-.00018898.00097244-.00035433.00146457-.00050394.00572047.0867874.0779134.155409.16615.155409.0883425 0 .160606-.0687913.166169-.155732.00048425.00014567.00096457.00031102.00143701.00049606l.261425.100772c.0677362.026126.152012.058622.152012.141858v.301142h-.163425v.114205z" fill="#00b2b1"/><g fill="#46c7c6"><g><path id="_506195264" d="m.475736 1.70664h-.04v-.169228c0-.0110394.00896063-.02.02-.02.0110394 0 .02.00897244.02.02z"/><path id="_506195024" d="m.272283 1.59243v-.04h.183453c.0110394 0 .02.00897244.02.02 0 .0110276-.00895669.02-.02.02z"/><path id="_506195000" d="m1.27094 1.70664h-.0399961v-.169228c0-.0110394.0089685-.02.0199961-.02.0110315 0 .02.00897244.02.02z"/><path id="_506195552" d="m1.43437 1.55243v.04h-.183441c-.0110354 0-.0199961-.00897244-.0199961-.02 0-.0110276.0089685-.02.0199961-.02z"/></g><g><path id="_506195648" d="m.724587 1.70664h-.0399843v-.255339c0-.00719685.00385039-.0138228.0101024-.017378l.536008-.304398.0482402.0185945-.554366.314807v.243713z"/><path id="_506194784" d="m.48985 1.12444.0419724-.0161693.287102.255602c.00827953.00730709.00903937.0199567.00173622.0282205-.00395276.00445669-.00945276.00674803-.0149803.00674803-.00470866 0-.00944488-.00165354-.013248-.00502756l-.302583-.269374z"/></g><path id="_506194472" d="m.819142 1.54341h-.0312402c-.0110394 0-.02-.0089685-.02-.02 0-.0110276.00896063-.0199961.02-.0199961h.0312402c.0110394 0 .0199961.0089685.0199961.0199961 0 .0110315-.00895669.02-.0199961.02z"/><path id="_506194208" d="m.819142 1.63454h-.0312402c-.0110394 0-.02-.0089685-.02-.0199961 0-.0110315.00896063-.02.02-.02h.0312402c.0110394 0 .0199961.0089685.0199961.02 0 .0110276-.00895669.0199961-.0199961.0199961z"/><path id="_506194256" d="m.593799 1.39115h-.145827c-.0110394 0-.02-.0089685-.02-.0199961 0-.0110315.00896063-.02.02-.02h.145827c.0110394 0 .02.0089685.02.02 0 .0110276-.00895669.0199961-.02.0199961z"/><path id="_506194520" d="m1.25869 1.39115h-.145827c-.0110394 0-.0199961-.0089685-.0199961-.0199961 0-.0110315.0089685-.02.0199961-.02h.145827c.0110394 0 .02.0089685.02.02 0 .0110276-.0089685.0199961-.02.0199961z"/></g><path id="_506194640" d="m.435736 1.59243h-.163453v.0942047c0 .0110315.00896063.02.02.02h.143453v-.114205z" fill="#ffcfbf"/><path id="_506194232" d="m1.27094 1.59243v.114205h.143441c.0110394 0 .0200079-.00896063.0199843-.02v-.0942047h-.163425z" fill="#ffcfbf"/><path id="_506194568" d="m1.01948 1.04843-.0316063-.117898c-.0428819.0387559-.0930866.0387795-.148154.0387795-.0462441 0-.087626.00771654-.125776-.0207953l-.0267677.0999764c.00572047.0867874.0779134.155409.16615.155409.0882323 0 .160429-.068622.166169-.155409-.00001968-.00002362-.00001968-.00004331-.00001575-.00006299z" fill="#ffbaac"/><path id="_506193968" d="m.840374.999909c-.15198 0-.274354-.187409-.274354-.342571 0-.00722047.00027953-.0143622.00083465-.0214331.00030709-.00397244.00179134-.00775984.00427953-.0108858.0810669-.102122.153299-.126634.217004-.148248.0452244-.0153465.0879291-.0298307.131819-.0707992.0056378-.00526378.0138189-.0068189.0209685-.00398425.00237402.00092913.00473622.00191732.00708268.00291732.0076378.00322441.0124882.0108189.0122087.0191142-.00165354.0479843.0858858.128677.141453.168256.0041811.00297244.00705512.00744488.00804331.0124882.00335039.0172756.00505512.0349685.00505512.0525827-.00002756.155154-.122409.342563-.274394.342563z" fill="#ffcfbf"/></g></g></svg>