<svg id="Capa_1" enable-background="new 0 0 512 512" viewBox="0 0 512 512" xmlns="http://www.w3.org/2000/svg"><g><g><path d="m359.514 205.172c1.237 0 2.493-.057 3.732-.168 6.16-.556 12.419-.837 18.603-.837 28.971 0 57.094 5.941 83.588 17.659l46.563 20.593v-61.316c0-2.672-2.044-4.912-4.708-5.124-17.357-1.384-32.573-10.355-42.34-23.593-2.079-2.819-6.224-2.819-8.304 0-10.641 14.423-27.75 23.78-47.048 23.78s-36.407-9.358-47.048-23.78c-2.08-2.819-6.224-2.819-8.304 0-8.317 11.273-20.596 19.427-34.773 22.461 5.345 17.808 21.543 30.325 40.039 30.325z" fill="#99e6fc"/><g><path d="m507.292 175.979c-14.469-1.154-27.437-7.592-37.014-17.367v64.262l41.722 18.452v-60.223c0-2.672-2.044-4.912-4.708-5.124z" fill="#62dbfb"/></g><g><g><path d="m34.561 277.649 21.867 8.335.21-.008c10.927-.415 35.496-1.978 63.129-7.823-6.525-8.539-10.036-19.503-8.89-31.315 2.026-20.888 18.794-37.665 39.681-39.705 5.738-.56 11.278-.025 16.438 1.421 6.228 1.745 10.811-5.675 6.493-10.49-15.588-17.386-38.386-28.173-63.692-27.658-43.87.893-79.194 35.13-81.362 78.955-.472 9.543.67 18.753 3.169 27.387.995.245 1.984.53 2.957.901z" fill="#01d0fb"/></g><g><path d="m173.489 198.062c-6.537-7.291-14.346-13.416-23.073-18.039.387 4.112-3.396 8.117-8.149 6.786-5.158-1.445-10.696-1.98-16.433-1.42-21.065 2.057-37.896 19.088-39.725 40.174-.205 2.359-.224 4.683-.07 6.959.981 14.571-9.232 27.519-23.732 29.258-13.304 1.596-24.106 2.215-30.393 2.453l-.21.008-2.82-1.075c.535 4.654 1.451 9.192 2.721 13.58.995.246 1.984.531 2.957.902l21.867 8.335.21-.008c10.927-.415 35.496-1.978 63.129-7.823-6.525-8.539-10.036-19.503-8.89-31.315 2.026-20.888 18.794-37.665 39.681-39.705 5.738-.56 11.278-.025 16.438 1.421 6.227 1.745 10.81-5.675 6.492-10.491z" fill="#01c0fa"/></g><g><path d="m171.973 133.984c34.722-7.336 87.704 19.283 61.363 72.842-34.511 70.172-153.274 77.455-179.318 78.207l33.923 12.931c22.903 8.73 46.936 13.156 71.431 13.156 39.741-.001 78.22-11.65 111.277-33.688 32.811-21.874 71.002-33.437 110.444-33.437 27.897 0 54.984 5.724 80.509 17.013l50.391 22.287.007-.003v-41.966l-46.159-20.415c-32.74-14.48-68.088-20.025-102.685-16.903-21.062 1.9-39.761-12.876-43.763-33.642-4.482-23.254-17.755-44.96-44.85-60.377-42.488-24.174-84.455 1.659-105.158 18.603-2.497 2.044-.57 6.059 2.588 5.392z" fill="#62dbfb"/></g><g><path d="m470.278 222.873v40.879l41.722 18.453v-40.879z" fill="#01d0fb"/></g><g><g><path d="m84.018 352.025c23.845 9.089 48.867 13.697 74.372 13.697 39.846 0 78.664-11.318 112.259-32.73 33.263-21.201 71.699-32.407 111.151-32.407 28.978 0 57.113 5.945 83.625 17.671l46.522 20.575.054-.018v-56.608l-49.994-22.111c-62.584-27.679-134.973-21.453-191.912 16.506-53.726 35.817-121.46 43.429-181.796 20.431l-53.37-20.344c-16.859-6.427-34.929 6.024-34.929 24.065v19.247z" fill="#c8effe"/></g></g><g><path d="m470.278 320.401v.001l41.668 18.428.054-.017v-56.608l-41.722-18.453z" fill="#99e6fc"/></g><g><path d="m47.877 398.18c.795-1.077 2.006-1.696 3.323-1.696 1.316 0 2.528.618 3.322 1.696 11.18 15.152 29.077 24.199 47.877 24.199s36.698-9.046 47.877-24.199c.795-1.077 2.006-1.695 3.323-1.695s2.528.618 3.323 1.695c11.179 15.152 29.077 24.199 47.877 24.199s36.698-9.046 47.877-24.199c.779-1.055 1.99-1.661 3.323-1.661s2.544.606 3.323 1.661c11.18 15.152 29.077 24.199 47.877 24.199 18.799 0 36.697-9.046 47.877-24.199.795-1.077 2.006-1.695 3.323-1.695s2.528.618 3.323 1.695c11.18 15.152 29.077 24.199 47.877 24.199s36.698-9.046 47.877-24.199c.795-1.077 2.006-1.696 3.323-1.696 1.316 0 2.528.618 3.322 1.696 11.18 15.152 29.077 24.199 47.877 24.199v-84.651l-46.159-20.415c-63.615-28.136-137.089-22.577-195.747 14.81-55.425 35.326-124.295 42.349-185.709 18.939l-84.383-32.166v103.483c18.8 0 36.698-9.047 47.877-24.199z" fill="#62dbfb"/></g><g><path d="m512 422.379v-84.651l-41.722-18.453v85.959c11.046 10.852 26.064 17.145 41.722 17.145z" fill="#01d0fb"/></g><g><circle cx="72.113" cy="103.791" fill="#99e6fc" r="18.028"/></g><g><circle cx="300.813" cy="50.736" fill="#99e6fc" r="18.028"/></g><g><circle cx="409.497" cy="358.761" fill="#fff" r="20.604"/></g><g><circle cx="410.527" cy="118.728" fill="#99e6fc" r="15.453"/></g><g><circle cx="304.418" cy="317.553" fill="#fff" r="15.453"/></g></g><g><g><path d="m512 421.349c-19.299 0-36.407-9.358-47.048-23.78-2.08-2.819-6.224-2.819-8.304 0-10.641 14.423-27.75 23.78-47.048 23.78-19.299 0-36.407-9.358-47.048-23.78-2.08-2.819-6.224-2.819-8.304 0-10.641 14.423-27.749 23.78-47.048 23.78s-36.407-9.358-47.048-23.78c-2.045-2.772-6.258-2.772-8.304 0-10.641 14.423-27.749 23.78-47.048 23.78s-36.407-9.358-47.048-23.78c-2.08-2.819-6.224-2.819-8.304 0-10.641 14.423-27.749 23.78-47.048 23.78s-36.407-9.358-47.048-23.78c-2.08-2.819-6.224-2.819-8.304 0-10.641 14.423-27.75 23.78-47.048 23.78v47.641c0 5.69 4.612 10.302 10.302 10.302h491.396c5.69 0 10.302-4.612 10.302-10.302z" fill="#01c0fa"/></g></g><g><path d="m512 421.348c-16.354.003-31.117-6.73-41.722-17.554v32.535c0 5.69-4.612 10.302-10.302 10.302h-459.976v22.359c0 5.69 4.612 10.302 10.302 10.302h491.396c5.69 0 10.302-4.612 10.302-10.302z" fill="#08a9f1"/></g></g></g><g/><g/><g/><g/><g/><g/><g/><g/><g/><g/><g/><g/><g/><g/><g/></svg>