<svg id="a23fbb02-026b-4de4-a3d2-cdee25ba781f" height="512" viewBox="0 0 512 512" width="512" xmlns="http://www.w3.org/2000/svg" data-name="Icons"><path d="m43 287.37c27.62-4.87 34 20.63 34 20.63s-20.1-12.75-29.78-1.32-2.63 26.38 19.34 29.9 61.56-11.43 99.37-34.3a131.17 131.17 0 0 0 14.66-10.24 210.45 210.45 0 0 1 -73.42-29.4c-6-3.87-11.79-8-17.32-12.28 6 4.37 15 8.08 28.16 10.62 58 11.21 70.79-20.31 70.79-20.31-16.37-7.41-37.9-22.85-54.53-39.48-20.22-20.23-23.74-58 0-99.36s111.18-30.39 145.09 12.3c23.73 29.91 28.13 64.19 34.29 69.47s18.46-5.28 35.17 10.55c9 8.55 9.08 20.27 7.23 29.23.83.09 40.39 3.62 54.1-29 6.93-16.49 6.2-31 .74-40.51 1.45 2.43 23 39.68 4.18 72.83-7.17 12.66-15.86 20.18-23.95 24.63-13.84 7.61-26 6.25-26 6.25 8.09 12.14 19.23 28.54 32 46.49 26.38 36.93 69.47 18.47 58-11.42-10.53-27.56-31.13 2-31.13 2-21.54-11.65 19.34-76.26 58.62-23.75 23.53 31.47 11.79 81-34.44 91.22a85.72 85.72 0 0 1 -22.06 1.8c-2.69-.11-5.29-.35-7.83-.69-20.45-2.81-36-13-48.13-24.7a172.72 172.72 0 0 1 -15.64-17.57c-12.4-15.7-20.09-28.78-26.88-24.78-11.48 6.82-34.16 75.67-70.63 112.2-10.69 10.75-22.58 18.69-35.73 21.43-12.85 2.69-22.87 2.46-30.48.18 44.79-30.79 76.69-92.72 80.6-142.62 0 0-64.41 37.8-126.56 61-11.5 4.3-22.92 8.09-33.85 11.06-13.52 3.69-26.29 6.09-37.49 6.58a77.92 77.92 0 0 1 -13.13-.41c-17.8-2.2-29-8.84-35.33-17.41-16.51-22.31-.13-57.65 17.97-60.82z" fill="#a17098"/><path d="m410.87 153.87-.08-.13a.74.74 0 0 1 .08.13z" fill="#a17098"/><path d="m19.4 316.23c-4.66 20.38 3.52 44.77 41 49.39 64.19 7.92 211-78.25 211-78.25a171.52 171.52 0 0 1 -6.68 34.89s11-14.76 13.4-30.21 4.16-20.22-14.76-11.3-139.16 65.38-186.12 69.54-57.84-34.06-57.84-34.06z" fill="#7e4970"/><path d="m89.83 250.37a211.41 211.41 0 0 0 90.74 41.68c1.38-.51 45.59-17 64.31-38.21 15-17.05 25.5-26.57 28.47-35.49s0-15.45-10-12.63-10.21-7-31.6-13.52-34.48 20.53-34.48 20.53-10.1.27-41-15.18-37.74-51.84-37.74-51.84c-3.11 23.12 3 42.78 15.7 55.5 16.63 16.63 38.16 32.07 54.53 39.48 0 0-12.75 31.52-70.79 20.31-13.17-2.55-22.18-6.26-28.14-10.63z" fill="#7e4970"/><path d="m134.25 101.84c-8.82 15.34-13.87 30.2-15.7 43.86 0 0 25.84-56.76 78.16-53.36 60.5 3.93 100.94 63.88 113.08 84.42-5-12.62-11.7-39-30.45-62.62-33.91-42.69-121.34-53.63-145.09-12.3z" fill="#b487aa"/><path d="m202.75 420.82a139.17 139.17 0 0 1 -11.93 9.18c7.61 2.28 17.63 2.51 30.48-.18 57.89-12.12 91.45-124.82 106.4-133.66s34.3 65.14 98.48 67.74a95.21 95.21 0 0 0 10-.12s-37.43-5.17-65.37-40.24-45.2-58-55.27-47.25c-11.85 12.71-23.73 53.79-44.54 87.49-37.83 61.29-68.25 57.04-68.25 57.04z" fill="#7e4970"/><path d="m351.48 236.67s-10.34 21 38.73 80.61c31.69 38.49 81.29 26.15 82.28-3.84.81-24.45-10-44.07-24.37-45.17-14.63-1.13-29.3 9.47-29.3 9.47-1.74 7.23-.36 13.86 5.25 16.89 0 0 20.6-29.54 31.13-2 11.44 29.89-31.65 48.36-58 11.42-12.81-17.95-24-34.35-32-46.49-8.62-12.83-13.72-20.89-13.72-20.89z" fill="#b487aa"/><path d="m348.8 194.16c9 8.55 9.09 20.27 7.23 29.23.83.09 40.39 3.62 54.1-29 6.93-16.49 6.2-31 .74-40.51 1.45 2.43 23 39.68 4.18 72.83-19.42 34.29-49.92 30.88-49.92 30.88-8.55-12.85-13.65-20.91-13.65-20.91a48.87 48.87 0 0 0 2.23-5.22s-3.13-25.1-21.49-29.75c-16.51-4.17-18.59-.59-18.59-.59v-17.5c6.16 5.27 18.46-5.29 35.17 10.54z" fill="#7e4970"/><path d="m240 206.34 20.94 8.66a18.47 18.47 0 1 1 -20.94-8.66z" fill="#8a6e82"/><g fill="#380f31"><path d="m243.47 232.8c-3.49 0-6.4-1.35-8-3.8a7 7 0 0 1 -.12-7.6c1.83-3 5.59-4.44 10-3.94 5.49.61 8.77-1.34 10.44-2.88.61-.72 1.2-1.45 1.75-2.17a4.25 4.25 0 0 1 7.09 4.65 16.05 16.05 0 0 1 -2.33 3c-3.57 4.23-10.67 11.73-16.83 12.6a14.18 14.18 0 0 1 -2 .14z"/><path d="m262.57 211.07-20.92-8.65a4.22 4.22 0 0 0 -2.76-.17 22.72 22.72 0 1 0 25.75 10.64 4.27 4.27 0 0 0 -2.07-1.82zm-4.51 18.51a14.23 14.23 0 1 1 -18.22-18.71l18 7.46a14.11 14.11 0 0 1 .22 11.25z"/><path d="m505.29 302.57a6.65 6.65 0 0 1 -.57-4.36 4.25 4.25 0 0 0 -5.45-5.25l-1.84.63a63.51 63.51 0 0 0 -2.71-9.41l2.4-1.12a4.25 4.25 0 0 0 .38-7.51 6.36 6.36 0 0 1 -2.06-3.5 4.25 4.25 0 0 0 -7.09-2.64l-.91.83c-.44-.64-.89-1.28-1.36-1.9a76.48 76.48 0 0 0 -7.65-8.79l1.44-1.55a4.25 4.25 0 0 0 .87-4.27 4.3 4.3 0 0 0 -3.36-2.82 6.25 6.25 0 0 1 -2.95-2.29 4.25 4.25 0 0 0 -7.56.23l-.72 1.53c-6.85-3.59-14.86-5.36-23.75-3-15.84 4.27-26.86 20.08-28.36 32.9-1 8.21 2 14.79 8 18.06a4.25 4.25 0 0 0 5.51-1.3c2.92-4.17 10.7-12.58 16.16-11.89 3.54.44 6 5.13 7.52 9 4.5 11.77-1.11 19.84-7.85 23.46-10.9 5.85-28.93 3.34-42.76-16-10.62-14.86-20.13-28.74-27.68-40 1.1-.12 2.27-.3 3.52-.52l1.06 3.78a4.23 4.23 0 0 0 3.19 3 3.94 3.94 0 0 0 .9.1 4.25 4.25 0 0 0 3.26-1.52c1.09-1.3 4.71-2.88 7.05-2.76a4.25 4.25 0 0 0 3.76-6.57l-1.68-2.5a58.44 58.44 0 0 0 6.79-4.56l2.9 3.4a4.25 4.25 0 0 0 7.34-1.65c.44-1.64 3.06-4.59 5.23-5.48a4.25 4.25 0 0 0 .64-7.54l-3.3-2.06c1.41-1.92 2.78-4 4.11-6.24l3.94 2a4.24 4.24 0 0 0 6.15-4.31c-.21-1.68 1.1-5.41 2.77-7.06a4.24 4.24 0 0 0 -2.26-7.21l-3.38-.58a65.79 65.79 0 0 0 1.56-8.45l3.71.34h.38a4.24 4.24 0 0 0 3.71-6.32 8.68 8.68 0 0 1 0-5.69 4.26 4.26 0 0 0 -4.82-5.84l-3 .65c-.29-2.62-.7-5.17-1.2-7.62l2.42-.52a4.25 4.25 0 0 0 2-7.24 6.7 6.7 0 0 1 -1.26-4 4.25 4.25 0 0 0 -6.34-4.13l-1.27.72a87 87 0 0 0 -6.45-13.65 29.68 29.68 0 0 0 -3.32-4.67c-7.14-8.18-17.77-11.12-29.15-8.07-13 3.48-15.89 11.82-16.46 16.48-1.19 9.67 5 19.5 11.45 23.06 4 2.22 8 2.06 11.12-.42a4.25 4.25 0 1 0 -5.35-6.6c-.3.23-1.18-.15-1.65-.41-3.87-2.14-7.82-9-7.14-14.6.55-4.5 4-7.63 10.23-9.3 8.25-2.21 15.54-.28 20.54 5.45a21.72 21.72 0 0 1 2.43 3.41v.05l.18.31c5 9 4.72 22.52-1.13 36.47-5.18 12.32-15 20.51-29.18 24.34a66.53 66.53 0 0 1 -16 2.2c1-9.15-.46-19.85-9.28-28.2-11.93-11.3-22.32-10.64-29.2-10.21-3.21.2-5.23.29-6.13-.49-1.37-1.17-3.71-7.86-5.77-13.78-4.93-14.13-12.39-35.48-28-55.1-10.46-13.16-26-23.92-44.91-31.12-17.76-6.76-37.23-9.76-54.83-8.44-24.53 1.84-43.13 11.71-52.36 27.78-23 40.05-22.74 81.06.68 104.48 15.86 15.8 35.51 30.19 51.66 38.33-5.21 7.24-21.59 22.48-64 14.29q-17.69-3.42-26.47-9.93c-.39-.3-.78-.58-1.16-.88a20.7 20.7 0 0 1 -5.63-6.85c-4.87-10 1.64-22.7 6-31.08.72-1.41 1.41-2.75 2-4 3.77-7.92 1.15-17-6.68-23.23s-18.24-6.85-24.95-1.44a4.25 4.25 0 0 0 5.32 6.59c4.21-3.39 10.36-1.58 14.29 1.52 3.66 2.9 6.7 7.8 4.27 12.91-.22.46-.46.95-.72 1.46l-1.07-.8a4.25 4.25 0 0 0 -6.87 3.17 6.51 6.51 0 0 1 -1.77 3.68 4.25 4.25 0 0 0 .95 7.46l2.07.78a51.18 51.18 0 0 0 -2.55 9.08l-2.1-.47a4.25 4.25 0 0 0 -4.83 5.83 7.28 7.28 0 0 1 -.09 4.79 4.26 4.26 0 0 0 3.7 6.33h.38l4.31-.38c.21.52.43 1 .68 1.53.35.73.74 1.44 1.16 2.13l-3.04 2.15a4.25 4.25 0 0 0 1.07 7.5 8 8 0 0 1 3.93 3.81 4.25 4.25 0 0 0 3.34 2.85 4 4 0 0 0 .69.06 4.26 4.26 0 0 0 3.39-1.68l2.45-3.22c1.81 1.36 3.63 2.68 5.47 4l-1 1a4.24 4.24 0 0 0 2.08 7.27 8.69 8.69 0 0 1 5 3.71 4.26 4.26 0 0 0 3.7 2.37h.12a4.25 4.25 0 0 0 3.7-2.16l1.41-2.51c1.71 1 3.44 2 5.17 3l-2.05 2.39a4.24 4.24 0 0 0 2.85 7 9.54 9.54 0 0 1 5.91 3.55 4.27 4.27 0 0 0 3.59 2h.34a4.26 4.26 0 0 0 3.57-2.57l1.83-4.28q2.61 1.19 5.25 2.29l-1.61 2.45a4.25 4.25 0 0 0 3.71 6.58 10.3 10.3 0 0 1 6.94 3.11 4.26 4.26 0 0 0 7.37-1.55l1.17-4.12q7.55 2.4 15.35 4.29-3.28 2.26-6.94 4.49c-39.06 23.62-76.95 36.87-96.49 33.73-10-1.6-17.27-6-19.4-11.7-1.35-3.66-.42-7.65 2.63-11.25 7-8.32 24.09 2.06 24.25 2.16a4.25 4.25 0 0 0 6.31-4.74c-2.49-10-13.56-27.63-37.71-24l-.59-2.32a4.25 4.25 0 0 0 -7.37-1.68 6.54 6.54 0 0 1 -3.66 1.83 4.26 4.26 0 0 0 -3.8 6.49l1.57 2.54a41.23 41.23 0 0 0 -5.85 6.61l-2.25-1.81a4.25 4.25 0 0 0 -6.91 3.08 6.89 6.89 0 0 1 -2 3.95 4.25 4.25 0 0 0 .85 7.47l3.26 1.28a53.28 53.28 0 0 0 -2.18 9.3l-3.64-.56a4.24 4.24 0 0 0 -4.44 6.11 7.28 7.28 0 0 1 .21 4.78 4.25 4.25 0 0 0 3.83 6.1 3.52 3.52 0 0 0 .64-.05l3.86-.59a40.44 40.44 0 0 0 3.22 9.47l-2.72 1.46a4.25 4.25 0 0 0 .15 7.56 7.71 7.71 0 0 1 3.26 4 4.26 4.26 0 0 0 3 3.24 4.46 4.46 0 0 0 1.2.17 4.25 4.25 0 0 0 3.05-1.29l2.24-2.31a48.76 48.76 0 0 0 14.4 8.07l-1.38 3.1a4.25 4.25 0 0 0 4.83 5.81 8.12 8.12 0 0 1 5.36 1.19 4.26 4.26 0 0 0 4.34.69 4.27 4.27 0 0 0 2.63-3.52l.33-3.47c.35.05.69.11 1 .15a75.32 75.32 0 0 0 8.42.53l-.35 2.75a4.27 4.27 0 0 0 4.22 4.79 4.16 4.16 0 0 0 2-.52 8.41 8.41 0 0 1 5.83-.32 4.25 4.25 0 0 0 5.93-4.63l-.59-3.25c3-.41 6.12-.93 9.29-1.53v2.55a4.24 4.24 0 0 0 2.42 3.78 4.18 4.18 0 0 0 1.88.44 4.24 4.24 0 0 0 2.53-.83 8.71 8.71 0 0 1 6.08-1.17 4.25 4.25 0 0 0 5.22-5.42l-1.09-3.28c3.69-1 7.43-2.08 11.21-3.24l.3 2.84a4.22 4.22 0 0 0 2.68 3.52 4.16 4.16 0 0 0 1.54.29 4.23 4.23 0 0 0 2.82-1.06 9.09 9.09 0 0 1 6.3-1.79 4.25 4.25 0 0 0 4.72-5.86l-1.54-3.54c3.73-1.33 7.48-2.72 11.22-4.16l.53 3.19a4.24 4.24 0 0 0 2.89 3.36 4.1 4.1 0 0 0 1.3.2 4.23 4.23 0 0 0 3-1.24 9.5 9.5 0 0 1 6.52-2.24 4.25 4.25 0 0 0 4.37-6.13l-1.89-3.88q5-2.08 9.9-4.23l.49 2.39a4.26 4.26 0 0 0 3 3.24 4.08 4.08 0 0 0 1.14.16 4.21 4.21 0 0 0 3.12-1.37 9.84 9.84 0 0 1 6.76-2.59 4.26 4.26 0 0 0 4.11-6.3l-1.74-3.11q3.16-1.47 6.26-2.94l.62 2.66a4.26 4.26 0 0 0 3.11 3.15 4 4 0 0 0 1 .13 4.27 4.27 0 0 0 3.2-1.45 10.39 10.39 0 0 1 7-2.91 4.25 4.25 0 0 0 3.94-6.4l-2-3.39c21.61-10.74 39.29-20.49 48.73-25.83-3 22.14-11.26 46.2-23.61 68.64-14 25.53-32.66 47.27-52.58 61.44a22.89 22.89 0 0 1 -9.23-6.11c-6.55-7.34-7.85-19.63-3.47-32.88 1.75-5.29 5.23-11.43 11.87-10.65 5.11.59 8.78 4.55 9.09 6a4.25 4.25 0 0 0 7.94 3c1.24-3 .43-6.55-2.21-9.84-3.67-4.57-11.2-8.85-19-7.44-5 .9-11.64 4.39-15.57 15.82l-1.22-.55a4.25 4.25 0 0 0 -5.91 4.73 6.18 6.18 0 0 1 -.75 3.66 4.25 4.25 0 0 0 2.71 7l2.13.25a43.71 43.71 0 0 0 1 12.62l-2.76.61a4.25 4.25 0 0 0 -1.93 7.31 6.48 6.48 0 0 1 1.69 3.74 4.25 4.25 0 0 0 6.36 4l3.47-2 .22.27a30.13 30.13 0 0 0 6.67 5.51l-1.33 2.34a4.25 4.25 0 0 0 4.16 6.32 6.75 6.75 0 0 1 4.25 1.39 4.26 4.26 0 0 0 3.08 1.32 4.16 4.16 0 0 0 1.16-.16 4.24 4.24 0 0 0 3-3.21l.61-2.89a57.55 57.55 0 0 0 8.08.55c1.18 0 2.39 0 3.64-.1l-.11 1.92a4.26 4.26 0 0 0 2.07 3.92 4.27 4.27 0 0 0 4.43-.06 7.22 7.22 0 0 1 4.81-.63 4.25 4.25 0 0 0 5.61-5l-.63-2.5c1.82-.45 3.62-1 5.39-1.62l1 3.26a4.25 4.25 0 0 0 7.43 1.39 7.65 7.65 0 0 1 4.63-2.39 4.18 4.18 0 0 0 3.77-2.25 4.23 4.23 0 0 0 -.23-4.39l-2-2.94q3.61-2.36 7.06-5.14l1.05 2a4.25 4.25 0 0 0 3.75 2.26h.18a4.25 4.25 0 0 0 3.75-2.36 8 8 0 0 1 4.4-3.46 4.25 4.25 0 0 0 2.17-7.2l-2.86-2.81q3-3.19 5.79-6.62l1.37 1.76a4.26 4.26 0 0 0 3.35 1.64 4.15 4.15 0 0 0 .79-.08 4.23 4.23 0 0 0 3.29-3 8.44 8.44 0 0 1 4-4.43 4.25 4.25 0 0 0 .89-7.47l-3.29-2.26q3-4.27 5.75-8.69l1.29 1.3a4.26 4.26 0 0 0 3 1.25 4.43 4.43 0 0 0 1.29-.19 4.24 4.24 0 0 0 2.9-3.34 8.8 8.8 0 0 1 3.69-5.17 4.25 4.25 0 0 0 0-7.52l-3-1.6q2-3.57 3.95-7.11l1.53 1.37a4.23 4.23 0 0 0 2.85 1.1 4.15 4.15 0 0 0 1.5-.28 4.24 4.24 0 0 0 2.72-3.49 9.23 9.23 0 0 1 3.62-5.66 4.25 4.25 0 0 0 -.42-7.51l-3.38-1.55q2.14-4.19 4.14-8.15l1.69 1.44a4.23 4.23 0 0 0 2.76 1 4.13 4.13 0 0 0 1.61-.32 4.24 4.24 0 0 0 2.62-3.57 9.73 9.73 0 0 1 3.67-6.07 4.24 4.24 0 0 0 -.62-7.49l-3.34-1.42c4.32-8.15 8.16-14.62 10.46-16s9.61 8.33 15 15.39c2 2.64 4.13 5.46 6.42 8.36l-3.1 2.2a4.25 4.25 0 0 0 1 7.46 9.68 9.68 0 0 1 4.89 5.14 4.24 4.24 0 0 0 3.32 2.93 4.62 4.62 0 0 0 .74.06 4.24 4.24 0 0 0 3.38-1.68l1.7-2.23c2.52 2.65 5.2 5.26 8 7.78l-2.57 3.12a4.25 4.25 0 0 0 2.92 6.94 9.35 9.35 0 0 1 5.76 3.52 4.24 4.24 0 0 0 3.59 2h.39a4.27 4.27 0 0 0 3.55-2.65l.86-2.13q3.62 2.19 7.55 4.08l-1.46 3.3a4.26 4.26 0 0 0 4.68 5.9 8.85 8.85 0 0 1 6.17 1.77 4.25 4.25 0 0 0 2.84 1.08 4.16 4.16 0 0 0 1.51-.28 4.23 4.23 0 0 0 2.71-3.5l.22-2.33c2 .47 4 .86 6.12 1.19l-.56 4a4.25 4.25 0 0 0 6.1 4.4 8.61 8.61 0 0 1 6.08 0 4.23 4.23 0 0 0 4.41-.4 4.26 4.26 0 0 0 1.66-4.11l-.48-2.9c1.77-.06 3.51-.17 5.23-.32l.53 3.73a4.25 4.25 0 0 0 7.08 2.54 8.25 8.25 0 0 1 5.54-1.53 4.25 4.25 0 0 0 4.58-6l-.95-2c1.58-.49 3.13-1 4.64-1.63l1.4 2.94a4.23 4.23 0 0 0 3.66 2.42h.18a4.25 4.25 0 0 0 3.67-2.12 7.78 7.78 0 0 1 4.57-2.9 4.25 4.25 0 0 0 2.54-7.11l-1.25-1.34a56.73 56.73 0 0 0 5.06-4.21l2.15 2a4.24 4.24 0 0 0 2.88 1.13 4.09 4.09 0 0 0 1.42-.25 4.25 4.25 0 0 0 2.79-3.4 7.42 7.42 0 0 1 3-4.11 4.25 4.25 0 0 0 -.26-7.56l-1.54-.72c.52-.88 1-1.77 1.52-2.69.6-1.16 1.17-2.33 1.69-3.51l2.83 1.08a4.07 4.07 0 0 0 1.53.29 4.25 4.25 0 0 0 4.13-5.23 7.16 7.16 0 0 1 1.2-4.59 4.24 4.24 0 0 0 -3-6.93l-2.15-.16a63.7 63.7 0 0 0 .67-6.62l3.27-.08a4.25 4.25 0 0 0 3.34-6.74zm-137.8-49.14c-5.41-8.14-9.29-14.15-11.16-17.07a63.51 63.51 0 0 0 3-8.57h.73a75 75 0 0 0 18.94-2.43c16.76-4.45 28.89-14.59 35.08-29.33a71 71 0 0 0 3.46-10.35c1.86 11.88 1.71 26.09-6.16 38.92-10.05 16.34-24.76 26.02-43.89 28.83zm-246.62 12.4a124.13 124.13 0 0 0 20.59 1.84c31.27 0 44.54-14.47 49.17-21.58a60.25 60.25 0 0 0 6.82 2.3 5 5 0 0 1 4.17 4.57c1 6.85-5.57 20.64-22.13 34.52a208.37 208.37 0 0 1 -58.62-21.65zm362.13 13.32c9 16.07 10.89 36.38 1.22 51.92a67.5 67.5 0 0 1 -19 19.85c-10.07 7-23.84 9.35-38.93 8.74-38.38-1.56-60.27-30.46-74.76-49.58-9.63-12.72-17.24-22.76-26-17.58-5.16 3-10.6 12.62-19.52 30.73-7.24 14.71-15.63 30.82-25.55 47.34-15.78 26.28-36 50.05-60 55.08a75.32 75.32 0 0 1 -19.05 1.8c39.61-31.59 70.27-88.61 74.28-139.75a4.26 4.26 0 0 0 -6.39-4c-.73.43-45.52 26.42-91 46.35-41.91 18.59-88.58 34.95-117.39 31.36-14.07-1.74-37.78-8.45-38.43-34-.38-14.51 9-33.76 21.22-35.91 9.79-1.72 18.26.76 23.9 7.66-7.55-2.22-17.15-2.86-23.6 4.84-5 5.95-6.54 13.13-4.11 19.69 3.25 8.77 12.74 15 26 17.15 21.75 3.48 60.92-9.88 102.23-34.86 13.49-8.16 24.66-17.86 32.31-28.05 7.23-9.65 10.65-18.93 9.61-26.14a13.57 13.57 0 0 0 -10.4-11.59c-15.81-4.18-42.62-22.23-62.37-42-20.63-20.62-20.36-57.61.68-94.24 7.79-13.55 24-21.91 45.62-23.53 34.77-2.61 73.64 12.69 92.45 36.37 14.68 18.48 21.85 39 26.6 52.62 3.21 9.21 5.15 14.77 8.26 17.43 3.56 3.06 7.95 2.78 12.2 2.51 6.36-.4 13.57-.85 22.81 7.9 14.14 13.39 2 37.21 1.84 37.44a4.25 4.25 0 0 0 .17 4.25c.19.31 19.67 31 45.82 67.6 16.81 23.54 39.61 26.12 53.69 18.57 12.48-6.7 17.1-20 11.77-34-3.36-8.78-8.21-13.62-14.43-14.38-8.71-1.08-16.94 6.71-21.21 11.68a11.75 11.75 0 0 1 -1-7.13c1.15-9.8 9.93-22.4 22.13-25.68 11.62-3.13 23.52 3.1 34.66 17.81a49.09 49.09 0 0 1 3.67 5.73z"/></g></svg>