<svg height="512" viewBox="0 0 48 48" width="512" xmlns="http://www.w3.org/2000/svg"><g id="_08-orange" data-name="08-orange"><path d="m20 8c-2.948 0-6-1.909-6-7 4 0 6 3.131 6 7z" fill="#63b300"/><path d="m21 5.994a7.246 7.246 0 0 0 10 0 7.269 7.269 0 0 0 -10 0z" fill="#63b300"/><circle cx="18" cy="26" fill="#ff7f00" r="17"/><path d="m45 29h-30a1.908 1.908 0 0 0 -2 1.8v1.8c0 7.953 7.611 14.4 17 14.4s17-6.447 17-14.4v-1.8a1.908 1.908 0 0 0 -2-1.8z" fill="#f8ef00"/><path d="m20.24 40.016a13.935 13.935 0 0 0 7.414 3.784 2.009 2.009 0 0 0 2.346-1.975v-12.825l-9.645 8.037a2.009 2.009 0 0 0 -.115 2.979z" fill="#ffc501"/><path d="m16 29v1a13.849 13.849 0 0 0 1.5 6.276 1.994 1.994 0 0 0 3.052.6l9.448-7.876z" fill="#ffc501"/><path d="m32.346 43.8a13.935 13.935 0 0 0 7.414-3.787 2.009 2.009 0 0 0 -.115-2.979l-9.645-8.034v12.825a2.009 2.009 0 0 0 2.346 1.975z" fill="#ffc501"/><path d="m44 29h-14l9.451 7.876a1.994 1.994 0 0 0 3.052-.6 13.849 13.849 0 0 0 1.497-6.276z" fill="#ffc501"/><circle cx="18" cy="26" fill="#ff7f00" r="17"/><path d="m20 38a16.966 16.966 0 0 1 -16.583-20.7 16.989 16.989 0 1 0 31.166 12.4 16.974 16.974 0 0 1 -14.583 8.3z" fill="#e86300"/><ellipse cx="19" cy="14.5" fill="#e86300" rx="4" ry="1.5"/><path d="m24.08 12.5a1.038 1.038 0 0 1 .224.621c0 3.217-4.09 3.217-5.434 3.217-1.23 0-4.746-.008-5.34-2.468a10.409 10.409 0 0 0 -5.53 8.904c0 5.926 5.6 10.726 12.5 10.726s12.5-4.8 12.5-10.726c0-4.855-3.762-8.952-8.92-10.274z" fill="#ffa008"/><path d="m30 0a11.246 11.246 0 0 0 -8.644 3.38c-3 3.237-3.366 7.82-3.377 9.764-.579.175-.979.491-.979.856 0 .552.895 1 2 1s2-.448 2-1c0-.373-.413-.694-1.018-.866.015-1.677.332-5.685 2.842-8.395a9.332 9.332 0 0 1 7.176-2.739 1 1 0 0 0 0-2z" fill="#436600"/><path d="m20 8c-2.948 0-6-1.909-6-7 4 0 6 3.131 6 7z" fill="#63b300"/><path d="m19 14v1c1.105 0 2-.448 2-1 0-.373-.413-.694-1.018-.866.015-1.677.332-5.685 2.842-8.395a9.332 9.332 0 0 1 7.176-2.739 1 1 0 0 0 1-1h-1c-12 0-11 13-11 13z" fill="#527710"/><path d="m17.275 13.5a.67.67 0 0 0 -.275.5c0 .552.895 1 2 1s2-.448 2-1a.67.67 0 0 0 -.276-.5 2.748 2.748 0 0 1 -1.724.5 2.74 2.74 0 0 1 -1.725-.5z" fill="#5d881d"/><path d="m21 5.994a7.246 7.246 0 0 0 10 0 7.269 7.269 0 0 0 -10 0z" fill="#63b300"/><path d="m31 5.994a7.269 7.269 0 0 0 -10 0l.008.006h9.984z" fill="#8bc808"/><path d="m14 1 6 7c0-3.869-2-7-6-7z" fill="#8bc808"/><path d="m45 29h-30a1.908 1.908 0 0 0 -2 1.8v1.8c0 7.953 7.611 14.4 17 14.4s17-6.447 17-14.4v-1.8a1.908 1.908 0 0 0 -2-1.8z" fill="#fdf48b"/><path d="m18.246 42.988a14.252 14.252 0 0 1 -4.509-6.194 17 17 0 0 1 -4.652-2.768 13.461 13.461 0 0 0 4.478 8.374 17 17 0 0 0 4.437.6c.083 0 .163-.011.246-.012z" fill="#cc5700"/><path d="m13 31.34v-.54a1.908 1.908 0 0 1 2-1.8h-4a2.2 2.2 0 0 0 -.589.088 1.831 1.831 0 0 0 -1.411 1.712v1.8a12.464 12.464 0 0 0 .085 1.426 17 17 0 0 0 4.652 2.768 12.389 12.389 0 0 1 -.737-4.194z" fill="#e86300"/><path d="m45.882 29.192a1.717 1.717 0 0 1 .118.608v1.8c0 7.953-7.163 14.4-16 14.4s-16-6.447-16-14.4v-1.8a1.717 1.717 0 0 1 .118-.608 1.789 1.789 0 0 0 -1.118 1.608v1.8c0 7.953 7.611 14.4 17 14.4s17-6.447 17-14.4v-1.8a1.789 1.789 0 0 0 -1.118-1.608z" fill="#ffc501"/><path d="m20.24 40.016a13.935 13.935 0 0 0 7.414 3.784 2.009 2.009 0 0 0 2.346-1.975v-12.825l-9.645 8.037a2.009 2.009 0 0 0 -.115 2.979z" fill="#faba01"/><path d="m16 29v1a13.849 13.849 0 0 0 1.5 6.276 1.994 1.994 0 0 0 3.052.6l9.448-7.876z" fill="#faba01"/><path d="m32.346 43.8a13.935 13.935 0 0 0 7.414-3.787 2.009 2.009 0 0 0 -.115-2.979l-9.645-8.034v12.825a2.009 2.009 0 0 0 2.346 1.975z" fill="#faba01"/><path d="m44 29h-14l9.451 7.876a1.994 1.994 0 0 0 3.052-.6 13.849 13.849 0 0 0 1.497-6.276z" fill="#faba01"/><path d="m44 29v1a13.852 13.852 0 0 1 -1.5 6.276 1.994 1.994 0 0 1 -3.052.6l.194.161a2.009 2.009 0 0 1 .115 2.979 13.935 13.935 0 0 1 -7.411 3.784 2.009 2.009 0 0 1 -2.346-1.975 2.009 2.009 0 0 1 -2.346 1.975 13.935 13.935 0 0 1 -7.414-3.787 2.009 2.009 0 0 1 .115-2.979l.194-.161a1.994 1.994 0 0 1 -3.052-.6 13.852 13.852 0 0 1 -1.497-6.273v-1h-1v1.079a15.025 15.025 0 0 0 1.6 6.77 2.128 2.128 0 0 0 3.27.647l-.208.174a2.178 2.178 0 0 0 -.123 3.214 14.9 14.9 0 0 0 7.944 4.085 2.158 2.158 0 0 0 2.517-2.134 2.158 2.158 0 0 0 2.513 2.134 14.9 14.9 0 0 0 7.944-4.085 2.178 2.178 0 0 0 -.123-3.214l-.208-.174a2.128 2.128 0 0 0 3.27-.647 15.025 15.025 0 0 0 1.6-6.77v-1.079z" fill="#f8ef00"/><path d="m27.963 41.975a12.066 12.066 0 0 1 -6.437-3.32 1.767 1.767 0 0 1 -.4-1.9c-.071-.062-.147-.119-.217-.182l-.361.3-.194.161a2.009 2.009 0 0 0 -.115 2.979 13.935 13.935 0 0 0 7.415 3.787 2.009 2.009 0 0 0 2.346-1.975v-1.584a1.751 1.751 0 0 1 -2.037 1.734z" fill="#ffd417"/><path d="m20.3 35.972a1.88 1.88 0 0 1 -1.91-.872 10.721 10.721 0 0 1 -1.39-5.261v-.839h-1v1a13.852 13.852 0 0 0 1.5 6.276 1.994 1.994 0 0 0 3.052.6l.361-.3c-.213-.194-.413-.398-.613-.604z" fill="#ffd417"/><path d="m39.09 36.575c-.07.063-.146.12-.217.182a1.767 1.767 0 0 1 -.4 1.9 12.066 12.066 0 0 1 -6.437 3.32 1.751 1.751 0 0 1 -2.036-1.736v1.584a2.009 2.009 0 0 0 2.346 1.975 13.935 13.935 0 0 0 7.414-3.787 2.009 2.009 0 0 0 -.115-2.979l-.194-.161z" fill="#ffd417"/><path d="m43 29v.839a10.721 10.721 0 0 1 -1.39 5.261 1.88 1.88 0 0 1 -1.908.867c-.2.206-.4.41-.612.6l.361.3a1.994 1.994 0 0 0 3.052-.6 13.852 13.852 0 0 0 1.497-6.267v-1z" fill="#ffd417"/><path d="m39.451 36.876a2 2 0 0 0 1.333.459l-10.003-8.335h-1.562l-10 8.335a2 2 0 0 0 1.333-.459l-.194.161a1.978 1.978 0 0 0 -.685 1.223l9.83-8.192v13.067a1.976 1.976 0 0 0 .5-1.31 1.976 1.976 0 0 0 .5 1.31v-13.067l9.83 8.192a1.978 1.978 0 0 0 -.685-1.223z" fill="#fdf48b"/><g fill="#ffa008"><ellipse cx="40" cy="33" rx=".825" ry="1.148" transform="matrix(.707 -.707 .707 .707 -11.617 37.967)"/><ellipse cx="37" cy="37" rx=".825" ry="1.148" transform="matrix(.707 -.707 .707 .707 -15.326 37.018)"/><ellipse cx="36" cy="39" rx=".825" ry="1.148" transform="matrix(.707 -.707 .707 .707 -17.034 36.897)"/><ellipse cx="32" cy="38" rx=".825" ry="1.148" transform="matrix(.707 -.707 .707 .707 -17.499 33.774)"/><ellipse cx="37" cy="31" rx=".825" ry="1.148" transform="matrix(.707 -.707 .707 .707 -11.082 35.259)"/><ellipse cx="37.746" cy="33.5" rx=".413" ry=".574" transform="matrix(.707 -.707 .707 .707 -12.632 36.52)"/><ellipse cx="33.746" cy="40.5" rx=".413" ry=".574" transform="matrix(.707 -.707 .707 .707 -18.756 35.742)"/><ellipse cx="33.746" cy="38.5" rx=".413" ry=".574" transform="matrix(.707 -.707 .707 .707 -17.341 35.156)"/><ellipse cx="34.746" cy="35.5" rx=".413" ry=".574" transform="matrix(.707 -.707 .707 .707 -14.926 34.984)"/><ellipse cx="33.746" cy="36.5" rx=".413" ry=".574" transform="matrix(.707 -.707 .707 .707 -15.926 34.57)"/><ellipse cx="31.746" cy="40.5" rx=".413" ry=".574" transform="matrix(.707 -.707 .707 .707 -19.342 34.328)"/><ellipse cx="32.746" cy="34.5" rx=".413" ry=".574" transform="matrix(.707 -.707 .707 .707 -14.805 33.276)"/><ellipse cx="41.746" cy="31.5" rx=".413" ry=".574" transform="matrix(.707 -.707 .707 .707 -10.044 38.763)"/><ellipse cx="39.746" cy="30.5" rx=".413" ry=".574" transform="matrix(.707 -.707 .707 .707 -9.923 37.055)"/><ellipse cx="20.246" cy="33" rx="1.148" ry=".825" transform="matrix(.707 -.707 .707 .707 -17.402 23.969)"/><ellipse cx="23.246" cy="37" rx="1.148" ry=".825" transform="matrix(.707 -.707 .707 .707 -19.351 27.26)"/><ellipse cx="24.246" cy="39" rx="1.148" ry=".825" transform="matrix(.707 -.707 .707 .707 -20.472 28.552)"/><ellipse cx="28.246" cy="38" rx="1.148" ry=".825" transform="matrix(.707 -.707 .707 .707 -18.595 31.087)"/><ellipse cx="23.246" cy="31" rx="1.148" ry=".825" transform="matrix(.707 -.707 .707 .707 -15.11 25.504)"/><ellipse cx="22.5" cy="33.5" rx=".574" ry=".413" transform="matrix(.707 -.707 .707 .707 -17.095 25.708)"/><ellipse cx="26.5" cy="40.5" rx=".574" ry=".413" transform="matrix(.707 -.707 .707 .707 -20.873 30.584)"/><ellipse cx="26.5" cy="38.5" rx=".574" ry=".413" transform="matrix(.707 -.707 .707 .707 -19.459 29.999)"/><ellipse cx="25.5" cy="35.5" rx=".574" ry=".413" transform="matrix(.707 -.707 .707 .707 -17.631 28.414)"/><ellipse cx="26.5" cy="36.5" rx=".574" ry=".413" transform="matrix(.707 -.707 .707 .707 -18.045 29.414)"/><ellipse cx="28.5" cy="40.5" rx=".574" ry=".413" transform="matrix(.707 -.707 .707 .707 -20.288 31.998)"/><ellipse cx="27.5" cy="34.5" rx=".574" ry=".413" transform="matrix(.707 -.707 .707 .707 -16.339 29.535)"/><ellipse cx="18.5" cy="31.5" rx=".574" ry=".413" transform="matrix(.707 -.707 .707 .707 -16.852 22.296)"/><ellipse cx="20.5" cy="30.5" rx=".574" ry=".413" transform="matrix(.707 -.707 .707 .707 -15.56 23.417)"/><path d="m13.53 13.87c.594 2.461 4.11 2.468 5.34 2.468 1.344 0 5.434 0 5.434-3.217a1.038 1.038 0 0 0 -.224-.621c5.158 1.322 8.92 5.419 8.92 10.274a10.458 10.458 0 0 1 -5.789 9.039 37.946 37.946 0 0 0 5.357 2.917 16.993 16.993 0 0 0 -21.141-24.41 37.924 37.924 0 0 0 1.378 4.025c.239-.161.472-.329.725-.475z"/></g><path d="m33 22.774c0-4.855-3.762-8.952-8.92-10.274a1.038 1.038 0 0 1 .224.621c0 3.217-4.09 3.217-5.434 3.217-1.23 0-4.746-.007-5.34-2.468-.253.146-.486.314-.725.475a38.083 38.083 0 0 0 14.406 17.468 10.458 10.458 0 0 0 5.789-9.039z" fill="#ffc501"/><path d="m45.882 29.192a2.108 2.108 0 0 1 .448.272 2.044 2.044 0 0 0 -.448-.272z" fill="#fdf48b"/><path d="m46.338 29.47a1.931 1.931 0 0 1 .346.366 1.871 1.871 0 0 0 -.346-.366z" fill="#fdf48b"/><path d="m43.4 36.849a2.042 2.042 0 0 1 -.686.777c.563.078 1.129.147 1.7.2a13.144 13.144 0 0 0 1.586-6.226v-1.8a1.717 1.717 0 0 0 -.118-.608 2.159 2.159 0 0 0 -.882-.192v1.079a15.025 15.025 0 0 1 -1.6 6.77z" fill="#fdf1c1"/><path d="m46.926 30.341a1.592 1.592 0 0 1 .074.459 1.627 1.627 0 0 0 -.074-.459z" fill="#fdf48b"/><path d="m46.7 29.858a1.671 1.671 0 0 1 .193.379 1.671 1.671 0 0 0 -.193-.379z" fill="#fdf48b"/><path d="m46.684 29.836.013.022z" fill="#ffc501"/><path d="m46.89 30.237c.013.034.026.068.036.1-.01-.032-.026-.066-.036-.1z" fill="#ffc501"/><path d="m46.33 29.464.008.006z" fill="#ffc501"/><path d="" fill="#ffc501"/><path d="m46 31.6a13.144 13.144 0 0 1 -1.59 6.227q.683.063 1.373.1a12.459 12.459 0 0 0 1.217-5.327v-1.8a1.592 1.592 0 0 0 -.074-.459c-.01-.036-.023-.07-.036-.1a1.671 1.671 0 0 0 -.193-.379l-.013-.022a1.931 1.931 0 0 0 -.346-.366l-.008-.006a2.108 2.108 0 0 0 -.448-.272 1.717 1.717 0 0 1 .118.604z" fill="#f8ef00"/><path d="m29.5 30.068-2.178 1.815q1.065.693 2.178 1.316z" fill="#ffd417"/><path d="m29.219 29h-5.777a37.858 37.858 0 0 0 3.01 2.3z" fill="#ffd417"/><path d="m32.443 34.027a.634.634 0 0 1 .7.313c.161.25.124.517-.072.617.392.168.79.322 1.189.476a.339.339 0 0 1 .183-.406.634.634 0 0 1 .7.313.506.506 0 0 1 .07.453q.523.186 1.055.356a.545.545 0 0 1 .126-.1 1.23 1.23 0 0 1 1.316.528c.3.085.6.174.907.251l-8.117-6.76v3.667q.9.468 1.832.888c-.141-.25-.098-.512.111-.596z" fill="#ffd417"/><path d="m39.7 35.972a1.88 1.88 0 0 0 1.91-.872 10.721 10.721 0 0 0 1.39-5.261v-.839h-12.219l8.667 7.222c.084-.084.172-.165.252-.25zm1.741-4.945a.634.634 0 0 1 .7.313c.168.261.126.545-.094.634a.638.638 0 0 1 -.7-.313c-.166-.261-.124-.546.096-.634zm-2-1a.634.634 0 0 1 .7.313c.168.261.126.545-.094.634a.638.638 0 0 1 -.7-.313c-.166-.261-.124-.546.096-.634zm-3.238 1.294c-.335-.523-.251-1.091.189-1.268a1.271 1.271 0 0 1 1.4.626c.335.523.251 1.091-.189 1.268a1.271 1.271 0 0 1 -1.398-.626zm1.844 2.653a.638.638 0 0 1 -.7-.313c-.167-.262-.125-.546.095-.634a.634.634 0 0 1 .7.313c.169.26.127.545-.093.634zm1.345-1.921a1.271 1.271 0 0 1 1.4.626c.335.523.251 1.091-.189 1.268a1.271 1.271 0 0 1 -1.4-.626c-.333-.521-.249-1.091.191-1.268z" fill="#ffd417"/><path d="m42.5 36.276a1.917 1.917 0 0 1 -.581.687 1.984 1.984 0 0 1 -.794.344 2.153 2.153 0 0 1 -.242.02q.906.171 1.824.3a2.042 2.042 0 0 0 .686-.777 15.025 15.025 0 0 0 1.6-6.77v-1.08h-.993v1a13.852 13.852 0 0 1 -1.5 6.276z" fill="#fdf48b"/><path d="m39.451 36.876h.001z" fill="#f8ef00"/><path d="m39.8 37.105h.001z" fill="#ffd417"/><path d="m40.886 37.327a2.153 2.153 0 0 0 .242-.02 2.153 2.153 0 0 1 -.242.02z" fill="#ffd417"/><path d="m41.128 37.307a1.984 1.984 0 0 0 .794-.344 1.984 1.984 0 0 1 -.794.344z" fill="#ffd417"/><path d="m39.8 37.105h.001z" fill="#ffd417"/><path d="m41.61 35.1a1.88 1.88 0 0 1 -1.908.867c-.082.085-.17.166-.254.25l1.3 1.079.143.026a2.153 2.153 0 0 0 .242-.02 1.984 1.984 0 0 0 .794-.344 1.917 1.917 0 0 0 .581-.687 13.852 13.852 0 0 0 1.492-6.271v-1h-1v.839a10.721 10.721 0 0 1 -1.39 5.261z" fill="#f8ef00"/><path d="m26.88 31.6 3.12-2.6z" fill="#fdf48b"/><path d="m39.451 36.876-.361-.301.01.008z" fill="#fdf48b"/><path d="m39.09 36.575-9.09-7.575z" fill="#fdf48b"/><path d="m39.1 36.583.351.293z" fill="#fdf48b"/><path d="m39.684 37.078c-.015-.013-.026-.029-.041-.042.017.014.027.029.041.042z" fill="#fdf48b"/><path d="m39.451 36.876a2 2 0 0 0 .183.121 2.158 2.158 0 0 1 -.183-.121z" fill="#fdf48b"/><path d="m39.645 37.037-.194-.161z" fill="#fdf48b"/><path d="" fill="#fdf48b"/><path d="m39.09 36.575.01.008z" fill="#fdf48b"/><path d="" fill="#fdf48b"/><path d="m39.1 36.583-.01-.008.361.301z" fill="#fdf48b"/><path d="m39.8 37.1c-.057-.031-.11-.072-.165-.108.055.041.108.082.165.108z" fill="#fdf48b"/><path d="m39.448 36.222-8.667-7.222h-1.562l-2.767 2.3c.143.1.284.2.428.3s.3.188.442.283l2.178-1.815v3.132c.167.093.332.189.5.28s.334.169.5.256v-3.668l8.117 6.764c.1.025.193.043.289.067.258.063.518.121.778.179-.014-.013-.024-.028-.039-.041l-.194-.161a2.158 2.158 0 0 0 .184.121c.055.036.108.077.165.108.313.069.626.135.942.2z" fill="#fdf1c1"/><path d="m40.606 33.947c.44-.177.524-.745.189-1.268a1.271 1.271 0 0 0 -1.4-.626c-.44.177-.524.745-.189 1.268a1.271 1.271 0 0 0 1.4.626z" fill="#f8ef00"/><path d="m36.394 36.053a.545.545 0 0 0 -.126.1c.476.154.958.3 1.442.432a1.23 1.23 0 0 0 -1.316-.532z" fill="#f8ef00"/><path d="m37.8 30.679a1.271 1.271 0 0 0 -1.4-.626c-.44.177-.524.745-.189 1.268a1.271 1.271 0 0 0 1.4.626c.435-.177.519-.747.189-1.268z" fill="#f8ef00"/><path d="m37.443 33.027c-.22.088-.262.372-.095.634a.638.638 0 0 0 .7.313c.22-.089.262-.373.094-.634a.634.634 0 0 0 -.699-.313z" fill="#f8ef00"/><path d="m35.143 35.34a.634.634 0 0 0 -.7-.313.339.339 0 0 0 -.183.406c.316.123.632.245.953.36a.506.506 0 0 0 -.07-.453z" fill="#f8ef00"/><path d="m33.143 34.34a.634.634 0 0 0 -.7-.313c-.209.084-.252.346-.111.6.246.112.49.228.739.334.196-.104.229-.371.072-.621z" fill="#f8ef00"/><path d="m42.049 31.974c.22-.089.262-.373.094-.634a.634.634 0 0 0 -.7-.313c-.22.088-.262.372-.095.634a.638.638 0 0 0 .701.313z" fill="#f8ef00"/><path d="m40.049 30.974c.22-.089.262-.373.094-.634a.634.634 0 0 0 -.7-.313c-.22.088-.262.372-.095.634a.638.638 0 0 0 .701.313z" fill="#f8ef00"/><ellipse cx="19" cy="14.5" fill="#ff7f00" rx="4" ry="1.5"/><path d="m30 0a11.246 11.246 0 0 0 -8.644 3.38c-3 3.237-3.366 7.82-3.377 9.764-.579.175-.979.491-.979.856 0 .552.895 1 2 1s2-.448 2-1c0-.373-.413-.694-1.018-.866.015-1.677.332-5.685 2.842-8.395a9.332 9.332 0 0 1 7.176-2.739 1 1 0 0 0 0-2z" fill="#3f7000"/><path d="m20 8c-2.948 0-6-1.909-6-7 4 0 6 3.131 6 7z" fill="#63b300"/><path d="m19 14v1c1.105 0 2-.448 2-1 0-.373-.413-.694-1.018-.866.015-1.677.332-5.685 2.842-8.395a9.332 9.332 0 0 1 7.176-2.739 1 1 0 0 0 1-1h-1c-12 0-11 13-11 13z" fill="#589e00"/><path d="m17.275 13.5a.67.67 0 0 0 -.275.5c0 .552.895 1 2 1s2-.448 2-1a.67.67 0 0 0 -.276-.5 2.748 2.748 0 0 1 -1.724.5 2.74 2.74 0 0 1 -1.725-.5z" fill="#4e8c00"/><path d="m21 5.994a7.246 7.246 0 0 0 10 0 7.269 7.269 0 0 0 -10 0z" fill="#63b300"/><path d="m31 5.994a7.269 7.269 0 0 0 -10 0l.008.006h9.984z" fill="#8bc808"/><path d="m14 1 6 7c0-3.869-2-7-6-7z" fill="#8bc808"/><ellipse cx="27" cy="16" fill="#f6fafd" rx="1.65" ry="2.297" transform="matrix(.707 -.707 .707 .707 -3.403 23.789)"/><ellipse cx="30" cy="19" fill="#f6fafd" rx=".825" ry="1.148" transform="matrix(.707 -.707 .707 .707 -4.646 26.79)"/><ellipse cx="40" cy="34" fill="#f6fafd" rx=".825" ry="1.148" transform="matrix(.707 -.707 .707 .707 -12.324 38.261)"/><ellipse cx="23" cy="26" fill="#f6fafd" rx=".825" ry="1.148" transform="matrix(.707 -.707 .707 .707 -11.649 23.891)"/><ellipse cx="27.746" cy="19.5" fill="#f6fafd" rx=".413" ry=".574" transform="matrix(.707 -.707 .707 .707 -5.66 25.342)"/><ellipse cx="37.746" cy="32.5" fill="#f6fafd" rx=".413" ry=".574" transform="matrix(.707 -.707 .707 .707 -11.924 36.227)"/></g></svg>