<svg id="Flat" enable-background="new 0 0 455.998 496" height="512" viewBox="0 0 455.998 496" width="512" xmlns="http://www.w3.org/2000/svg"><g><path d="m310.9 237.35c-41.62-13.3-74.46-45.63-87.62-87.41-10.83-34.42-21.67-68.84-32.51-103.27l-.13-.76c3.27-.54 6.52-1.08 9.79-1.63 7.85-1.31 13.61-8.13 13.61-16.11 0-9.14-7.43-16.34-16.25-16.34-.77 0-1.55.06-2.34.17-3.28.47-6.56.94-9.85 1.41-2.64.38-5.34.11-7.84-.81-15.87-5.84-40.35-12.6-70.74-12.6-16.08 0-41.64 1.89-70.76 12.61-2.5.91-5.19 1.18-7.82.8-3.28-.47-6.57-.94-9.85-1.41-9.81-1.41-18.59 6.23-18.59 16.17 0 3.99 1.44 7.69 3.86 10.56 2.42 2.86 5.82 4.89 9.75 5.55 3.7.62 7.39 1.24 11.1 1.86-4.56 15.2-8.32 36.56-4.56 61.21.49 3.23 1.09 6.35 1.76 9.33 4.853 11.164 10.954 16.96 28.162 12.684l-20.612 10.656c-1.68 34.23-1.98 71.73 0 112.01 1.97 40.36 5.95 77.8 11.02 111.96 1.78 11.99-1.87 24.15-9.9 33.22l-7.71 8.71c-2.74 3.09-4.26 7.09-4.26 11.23 0 9.34 7.55 16.91 16.86 16.91h31.31c7.57 0 14.18-5.06 16.24-12.37 2.13-7.52 4.02-15.86 5.39-24.97 3.66-24.31 2.29-45.28 0-60.67 3.01 11.11 7.29 20.44 12.08 28.29 8.68 14.23 20.2 25.47 33.3 34.35-1.75 1.5-3.69 2.79-5.78 3.84l-8.39 4.21c-4.87 2.44-7.95 7.43-7.95 12.9 0 3.98 1.61 7.58 4.21 10.2 2.6 2.6 6.2 4.22 10.17 4.22h28.41c10.34 0 19.87-5.51 25.01-14.38 49.02 14.7 100.36 10.97 109.65 10.19-.42 1.32-.64 2.73-.64 4.19 0 3.86 1.56 7.36 4.09 9.9 2.53 2.53 6.01 4.1 9.87 4.1h39.58c-14.98 5.06-31.3 9.84-48.88 14-36.56 8.66-69.72 12.54-97.71 14.01 18.12 5.49 38.34 10.42 60.48 14 36.11 5.84 69.45 6.82 98.84 5.28 47.37-2.49 88.08-35.63 98.68-82 1.55-6.82 2.47-13.93 2.56-21.3.76-60.89-55.01-125.91-145.09-154.7z" fill="#7f5d46"/><path d="m192.12 116.68c-2.02 8.95-4.75 16.77-7.54 23.34 0 85.06-33.88 154.02-77.56 154.02-43.69 0-77.56-68.96-77.56-154.02-2.8-6.57-5.53-14.39-7.55-23.34 8.55 4.3 22.04 9.59 38.58 9.34 21.1-.32 25.6-9.34 46.53-9.34s25.42 9.02 46.53 9.34c16.54.25 30.02-5.04 38.57-9.34z" fill="#ffdbac"/><path d="m115.35 70.01c6.92 0 10.87 7.93 6.72 13.48-2.78 3.72-5.56 7.44-8.34 11.15-3.36 4.5-10.08 4.5-13.44 0-2.78-3.71-5.56-7.43-8.34-11.15-4.15-5.55-.2-13.48 6.72-13.48h8.34z" fill="#524956"/><path d="m158.2 51.34c5.14 0 9.31 4.18 9.31 9.34 0 5.15-4.17 9.33-9.31 9.33s-9.3-4.18-9.3-9.33c0-5.16 4.16-9.34 9.3-9.34z" fill="#543927"/><path d="m55.84 51.34c5.14 0 9.3 4.18 9.3 9.34 0 5.15-4.16 9.33-9.3 9.33s-9.31-4.18-9.31-9.33c0-5.16 4.17-9.34 9.31-9.34z" fill="#543927"/><g fill="#6d513e"><path d="m381.54 359.38s40.12 49.36 14.1 83.4c-26.02 34.05-88.22 15.7-88.22 15.7 12.22-3.24 23.76-6.76 34.6-10.42h9.38c14.24 0 26.94-9.15 31.29-22.74 1.42-4.44 2.64-9.31 3.51-14.6 3.82-23.31-1.4-42.13-4.66-51.34z"/><path d="m339.67 420.06h-37.23c-6.25 0-11.55 4.12-13.32 9.81-9.29.78-60.63 4.51-109.65-10.19.36-.62.7-1.25 1.01-1.9 8.59-17.79 17.18-38.87 24.25-63.06 7.61-26.05 11.74-49.83 13.96-70.01 0 0 13.18 25.45 3.35 74.67-9.82 49.23 24.89 40.72 28.16 4.05 3.28-36.67 23.69-74.6 66.2-69.39-27.03 11.31-43.84 38.01-41.87 65.34 2.3 32.12 30.1 59.19 65.14 60.68z"/><path d="m144.24 312.71c2.05 10.34 3.7 23.79 3.1 39.46-.45 11.61-2.05 21.98-4.04 30.83-1.4 6.19-4.77 11.67-9.5 15.69h-.01c-13.1-8.88-24.62-20.12-33.3-34.35-4.79-7.85-9.07-17.18-12.08-28.29 47.1 27.63 55.83-23.34 55.83-23.34z"/><path d="m190.77 46.67c4.2 13.34 8.4 26.68 12.6 40.01 0 0 .03.11.09.32 1.21 4.62 14.31 57.84-20.42 84.06 1.01-10.03 1.54-20.41 1.54-31.04 2.79-6.57 5.52-14.39 7.54-23.34.68-2.98 1.28-6.1 1.77-9.33 3.76-24.65-.01-46.01-4.57-61.21l.02-.01c.43-.07.87-.14 1.3-.22z"/></g><path d="m156.887 142.484c-1.218-1.843-3.699-2.349-5.543-1.131-17.553 11.604-35.304 13.337-44.324 13.337-21.004 0-36.787-8.356-44.325-13.337-1.843-1.217-4.325-.71-5.542 1.132s-.711 4.324 1.132 5.542c8.287 5.476 25.639 14.663 48.735 14.663 9.917 0 29.437-1.905 48.736-14.663 1.843-1.218 2.349-3.7 1.131-5.543z" fill="#eac8a0"/></g></svg>