<svg id="Capa_1" enable-background="new 0 0 512 512" height="512" viewBox="0 0 512 512" width="512" xmlns="http://www.w3.org/2000/svg"><g><g><path d="m152.382 301.823 48.833 114.276c.969 2.268.892 4.846-.211 7.052l-31.835 63.671h50.361l25.18-75.883-41.967-83.935z" fill="#fcdbb2"/></g><g><path d="m179.595 478.426h-41.967c-8.836 0-17.492 3.586-23.738 9.836l-9.41 9.41c-3.279 3.279-3.279 8.59 0 11.869s8.59 3.279 11.869 0l9.41-9.41c3.123-3.127 7.451-4.918 11.869-4.918h29.026z" fill="#f4aa73"/></g><g><path d="m201.08 338.607 33.674 77.473c.99 2.278.921 4.878-.19 7.1l-31.821 63.642h15.36l42.278-49.324c5.216-6.085 8.082-13.835 8.082-21.849v-43.315z" fill="#ffeac6"/></g><g><path d="m261.497 415.647c0 4.004-1.434 7.885-4.041 10.922l-52.23 60.252h22.697l42.278-49.324c5.216-6.085 8.083-13.835 8.083-21.849v-43.315l-.003-.001h-16.784z" fill="#fcdbb2"/></g><g><path d="m269.891 512c-2.148 0-4.295-.82-5.934-2.459l-9.41-9.41c-3.123-3.127-7.451-4.918-11.869-4.918h-63.082c-4.418 0-8.746 1.791-11.869 4.918l-9.41 9.41c-3.279 3.279-8.59 3.279-11.869 0s-3.279-8.59 0-11.869l9.41-9.41c6.246-6.25 14.902-9.836 23.738-9.836h63.082c8.836 0 17.492 3.586 23.738 9.836l9.41 9.41c3.279 3.279 3.279 8.59 0 11.869-1.64 1.639-3.788 2.459-5.935 2.459z" fill="#fbbd80"/></g><g><path d="m401.041 478.523-26.663 9.855c-8.113 3.005-17.18-.648-20.945-8.437l-39.555-82.428 65.401 7.178z" fill="#ffe09c"/></g><g><path d="m357.973 409.135 38.429 95.105c1.679 4.154 6.324 6.257 10.553 4.778l4.605-1.611c8.342-2.918 12.993-11.803 10.637-20.321l-16.712-63.253" fill="#f4aa73"/></g><path d="m372.706 285.828-52.317-58.465c-26.009-29.065-57.281-52.949-92.166-70.391-9.389-4.695-17.355-11.822-23.058-20.636l-48.888-75.555-41.224-48.759c-7.921-3.889-16.289-6.89-24.95-8.921l-63.913 162.526c3.18 4.658 6.792 9.053 10.808 13.122l55.157 56.402 314.77 176.649v-36.418c0-33.044-12.183-64.929-34.219-89.554z" fill="#f4aa73"/><g><path d="m326.043 220.254c-26.009-29.065-57.281-52.948-92.166-70.391l-.006-.003c-9.389-4.695-17.349-11.82-23.052-20.633l-48.888-75.555c-11.705-18.089-28.14-32.405-46.879-41.649l82.781 128.038c7.115 10.996 17.18 19.668 29.09 25.082 30.508 13.869 57.303 33.562 79.656 58.533l59.271 66.242c19.312 21.57 29.943 49.398 29.943 78.357v27.534l16.787 8.882v-36.418c0-33.045-12.183-64.93-34.219-89.554z" fill="#e29a6c"/></g><g><path d="m26.19 165.627c49.229-1.889 88.694-44.32 88.694-96.532 0-25.47-9.474-48.721-24.782-65.993-8.723-2.053-17.663-3.102-26.828-3.102h-.03c-34.211 0-61.944 27.733-61.944 61.944v33.448l8.393 5.755v11.064c0 19.205 5.806 37.776 16.497 53.416z" fill="#ffeac6"/></g><path d="m292.898 309.029 48.489-10.21-156.542-118.516c-25.265-19.127-60.072-19.84-86.153-1.507-26.444 18.589-28.891 53.335-6.104 76.26l39.522 39.761c44.328 44.596 97.937 78.88 157.014 100.412l161.456 58.848c13.604 4.958 28.26 6.313 42.542 3.933l4.463-.744-7.449-15.567z" fill="#d48c64"/><g><path d="m192.876 285.693 257.705 168.384c13.604 4.959 28.259 6.313 42.542 3.932l11.982-1.997c5.97-.995 7.656-8.774 2.634-12.152l-197.239-132.669z" fill="#c6805d"/></g><g><path d="m507.739 443.86-197.239-132.669-44.379-9.62 231.465 155.694 7.518-1.253c5.97-.995 7.657-8.774 2.635-12.152z" fill="#af6e4d"/></g><g><circle cx="60.054" cy="66.806" fill="#70393c" r="8.393"/></g><g><path d="m349.722 316.895c5.116.744 7.86-5.816 3.738-8.936l-12.073-9.14-111.896-16.273c-28.328-4.119-54.123-16.877-74.582-36.898l-11.689-11.43c-3.311-3.242-8.639-3.172-11.869.131-3.246 3.316-3.18 8.627.131 11.869l11.689 11.43c23.016 22.521 52.033 36.877 83.91 41.512z" fill="#c6805d"/></g><g><path d="m37.845 75.124c-3.025-3.516-8.32-3.914-11.836-.91l-24.709 21.178v11.243c0 4.272 5.011 6.576 8.254 3.796l27.373-23.471c3.524-3.016 3.934-8.315.918-11.836z" fill="#fcdbb2"/></g></g></svg>