<svg clip-rule="evenodd" fill-rule="evenodd" height="512" image-rendering="optimizeQuality" shape-rendering="geometricPrecision" text-rendering="geometricPrecision" viewBox="0 0 43.3492 43.3492" width="512" xmlns="http://www.w3.org/2000/svg"><g id="Layer_x0020_1"><g id="_222744480" fill-rule="nonzero"><path id="_222746472" d="m17.7354 37.521h-11.1605l-5.4261 1.2952-.3527-1.4888 5.5137-1.3162.0877-.0209h.0887 11.2492z"/><path id="_222746976" d="m14.434 37.2101c-.0064-.0086-2.1967-2.9778-4.6952-3.544l.3349-1.4889c3.0565.6927 5.5787 4.1142 5.586 4.124z"/><path id="_222746928" d="m21.7495 32.9506c-.3248 0-.592.2672-.592.592v3.6018c0 .3248.2672.592.592.592.3249 0 .5921-.2672.5921-.592v-3.6018c0-.3248-.2672-.592-.5921-.592z"/><path id="_222746832" d="m20.3818 37.1419v.0025c0 .3248-.2672.592-.5921.592-.3249 0-.592-.2671-.592-.592v-3.6018c0-.3249.2671-.592.592-.592.3249 0 .5921.2672.5921.592v.0025z"/><path id="_222746952" d="m27.2748 33.537-.0001 3.6074c.004.7834-1.1713.7811-1.1713.0064v-3.6145c0-.7784 1.1714-.7619 1.1714 0z"/><path id="_222746712" d="m29.685 6.6526c1.0518 0 1.887.8714 1.887 1.9152s-.8352 1.9152-1.887 1.9152-1.8869-.8714-1.8869-1.9152.8352-1.9152 1.8869-1.9152z"/><path id="_222745848" d="m32.1606 16.9192c1.9856-.7572 3.312-2.4228 3.989-4.4054.9927 7.0665-.6633 14.5182-5.8024 19.6851-.2792.0531-.526.1892-.7248.3913-.5446-.5538-1.4124-.5541-1.958-.0019-.5346-.5436-1.3964-.5545-1.9371-.0138-.2465.2465-.3996.587-.3996.9618v3.6145c0 .3748.1531.7152.3996.9617.5407.5407 1.4025.5298 1.9371-.0138.5456.5522 1.4133.5519 1.958-.0019l.0074.0075c.2298 2.2317-2.4544 2.514-2.909 1.6295-.0502-.1179-.1281-.2359-.2446-.3002-.3746-.2068-.5151-.0124-.9154.7127-.2677.4846-.7364 1.0756-1.3479 1.0756-1.2996 0-1.7937-2.9069-2.496-1.5114-.4705.9349-3.2677.5965-2.8183-1.5301.5523.476 1.3617.4332 1.8711-.0836.5371.5462 1.4029.5571 1.9461.0139.2477-.2477.4015-.5898.4015-.9663v-3.6018c0-.3765-.1538-.7185-.4015-.9662s-.5898-.4015-.9663-.4015c-.3765 0-.7186.1538-.9662.4015l-.0136.0138-.0137-.0138c-.2477-.2477-.5898-.4015-.9663-.4015-.3765 0-.7186.1538-.9663.4015l-.0117.0119-.0136-.0138c-.1874-.1874-.429-.3208-.6988-.374-5.1476-5.1703-6.7977-12.6133-5.8039-19.6867.6771 1.9827 2.0036 3.6483 3.9892 4.4056-.3462 11.3788 7.7433 15.2416 7.7667 15.2531l-.0002.001c.1212.0597.2584.0503.3669-.013.4822-.2406 8.0784-4.2071 7.7426-15.2413z"/><path id="_222746184" d="m23.3038 11.337c-.8314.7995.2943 2.307.9187 3.0066.6042-.6768 1.7388-2.218.9187-3.0066-.4596-.442-1.3778-.442-1.8374 0z"/><path id="_222745800" d="m23.9225 15.1581c-.2007-.2097-.3803-.413-.5409-.61-1.2341 2.2246-3.9143 3.1793-6.3309 2.607-.2055 9.7701 6.0524 13.6237 7.1718 14.2343 1.1194-.6107 7.3774-4.4643 7.1718-14.2345-2.4164.5722-5.0965-.3826-6.3305-2.607-.2051.2516-.7486 1.0894-1.1413.6102z"/><path id="_222745872" d="m16.6025 1.8246c4.1083.3005 6.4242 3.6147 7.0954 4.5754.4112.5889.6379.5888 1.0493 0 .6711-.9607 2.987-4.2749 7.0952-4.5754 1.7117.5668 3.3479.8322 5.147-.0526-.1239 1.5073-1.3098 2.0027-1.3179 2.0062l-.0002-.0003c-.5122.2199-.1808 1.4832.4044.9847.0826-.054.1584-.0532.2152-.018.0587.0364.1106.1018.1481.185.0421.0935.0622.2035.051.3168-.0759.7715-1.1863.5921-.961 1.226 1.3453 3.7865-.4089 9.4752-4.8809 10.0303-2.0634.2561-4.1973-.7104-5.0732-2.6579 1.0245-1.6147.7859-3.6147-1.3524-3.6147-2.1385 0-2.3769 2.0002-1.3521 3.615-1.3479 2.9969-5.3653 3.4906-7.819 1.473-2.1784-1.7912-3.274-6.1218-2.1436-8.8263l.0006.0003c.2681-.6412-.8778-.4768-.9534-1.2457-.0166-.1696.0455-.4066.1991-.5018.189-.1172.4824.348.7768-.0447.1464-.1951.1501-.8036-.1705-.9275-.1298-.059-1.1881-.5811-1.3048-2.0004 1.7991.8848 3.4352.6194 5.1469.0526zm2.1575 3.2408c-1.9262 0-3.4303 1.5967-3.4303 3.5024s1.5041 3.5024 3.4303 3.5024c1.9261 0 3.4303-1.5967 3.4303-3.5024 0-1.9058-1.5042-3.5024-3.4303-3.5024zm10.925 0c-1.9261 0-3.4303 1.5967-3.4303 3.5024s1.5042 3.5024 3.4303 3.5024c1.9262 0 3.4304-1.5967 3.4304-3.5024s-1.5043-3.5024-3.4304-3.5024z"/><path id="_222746160" d="m30.3383 1.2801c-3.3842.8283-5.3768 3.4752-6.1158 4.5227-.739-1.0475-2.7316-3.6944-6.1158-4.5227 2.1729-.8205 3.7184-1.2795 6.0719-1.2801 2.3991-.0007 3.9422.444 6.1597 1.2801z"/><path id="_222744744" d="m18.422 37.1508c0 .3213-.2643.5856-.5857.5856-.3213 0-.5857-.2643-.5857-.5856v-3.6145c0-.3214.2644-.5857.5857-.5857.3214 0 .5857.2643.5857.5857v.0022.0041z"/><path id="_222745416" d="m42.5531 37.521h-11.9404v-1.5307h11.9404z"/><path id="_222744960" d="m13.3057 37.4522c-.0175.0078-6.1121 2.6858-7.4851 5.897l-1.4051-.5979c1.6118-3.7699 8.2492-6.6838 8.2683-6.6923z"/><path id="_222745320" d="m6.6974 37.3177c-.0058-.0054-2.0441-1.8791-2.5659-1.917l.1076-1.5247c1.0535.0765 3.4798 2.3112 3.4867 2.3176z"/><path id="_222745224" d="m30.0102 33.5426v3.6018c0 .7868 1.1842.7701 1.1842 0v-3.6018c0-.783-1.1842-.7831-1.1842 0z"/><path id="_222744888" d="m29.2346 37.1444c0 .7701-1.1842.7868-1.1842 0v-3.6018c0-.7868 1.1842-.7702 1.1842 0z"/><path id="_222744864" d="m37.0256 13.2936c2.2034 3.3173.5811 8.8876-1.3871 12.0112 1.433-3.8098 1.8284-7.9774 1.3871-12.0112z"/><path id="_222744528" d="m12.7969 25.2851c-1.975-3.121-3.5874-8.6776-1.3773-11.9933-.4412 4.0276-.0497 8.1879 1.3773 11.9933z"/><path id="_222744552" d="m18.7599 6.6526c1.0518 0 1.887.8714 1.887 1.9152s-.8352 1.9152-1.887 1.9152-1.8869-.8714-1.8869-1.9152.8352-1.9152 1.8869-1.9152z"/></g></g></svg>