<svg height="512pt" viewBox="0 0 512 511" width="512pt" xmlns="http://www.w3.org/2000/svg"><path d="m497 512.324219h-482c-8.285156 0-15-6.71875-15-15v-46.242188c0-34.589843 22.476562-63.738281 55.925781-72.535156l137.257813-36.097656c1.246094-.324219 2.527344-.492188 3.816406-.492188h118c1.289062 0 2.570312.167969 3.816406.492188l137.257813 36.097656c33.449219 8.796875 55.925781 37.945313 55.925781 72.535156v46.242188c0 8.285156-6.714844 15-15 15zm0 0" fill="#00eccf"/><path d="m456.074219 378.546875-137.257813-36.097656c-1.246094-.324219-2.527344-.492188-3.816406-.492188h-59v170.367188h241c8.285156 0 15-6.71875 15-15v-46.242188c0-34.589843-22.476562-63.738281-55.925781-72.535156zm0 0" fill="#00cab1"/><path d="m196.09375 342.398438c17.78125 10.640624 38.582031 16.761718 60.8125 16.761718 21.476562 0 41.621094-5.710937 59-15.691406v-79.570312h-119.8125zm0 0" fill="#fdd1a3"/><path d="m256 263.898438v95.246093c.304688 0 .601562.015625.90625.015625 21.476562 0 41.621094-5.707031 59-15.691406v-79.570312zm0 0" fill="#ffbb85"/><path d="m335.742188 57.464844c-3.238282 0-6.5-1.042969-9.242188-3.195313-6.523438-5.109375-7.664062-14.539062-2.554688-21.058593l21.132813-26.964844c5.109375-6.519532 14.542969-7.664063 21.058594-2.550782 6.523437 5.109376 7.664062 14.539063 2.554687 21.058594l-21.132812 26.964844c-2.960938 3.773438-7.367188 5.746094-11.816406 5.746094zm0 0" fill="#97002c"/><path d="m256 315.449219c-62.308594 0-113-50.691407-113-113v-93c0-8.285157 6.714844-15 15-15h196c8.285156 0 15 6.714843 15 15v93c0 62.308593-50.691406 113-113 113zm0 0" fill="#ffe4c1"/><path d="m354 94.449219h-98v221c62.308594 0 113-50.691407 113-113v-93c0-8.285157-6.714844-15-15-15zm0 0" fill="#fdd1a3"/><path d="m378.972656 205.246094c-4.191406 0-8.65625-.214844-13.421875-.679688-4.460937-.433594-8.496093-2.839844-11-6.5625-36.367187-54.105468-99.4375-73.230468-192.8125-58.460937-4.21875.671875-8.523437-.496094-11.832031-3.199219-3.3125-2.707031-5.308594-6.691406-5.496094-10.960938l-.722656-16.554687c-2.070312-47.304687 31.808594-88.570313 78.800781-95.988281 90.082031-14.226563 165.464844 31.140625 200.21875 82.40625 20.917969 30.859375 25.769531 62.148437 12.972657 83.699218-7.382813 12.433594-23.148438 26.300782-56.707032 26.300782zm0 0" fill="#ff193d"/><path d="m309.34375 232.226562c-3.503906-7.507812-12.433594-10.75-19.9375-7.25-8.082031 3.769532-17.105469.160157-19.242188-4.113281-2.746093-5.5-8.417968-8.566406-14.1875-8.269531-5.753906-.277344-11.402343 2.78125-14.144531 8.265625-2.136719 4.277344-11.15625 7.890625-19.238281 4.117187-7.515625-3.503906-16.433594-.257812-19.9375 7.25-3.503906 7.507813-.257812 16.433594 7.25 19.9375 6.417969 2.992188 13.265625 4.40625 19.992188 4.40625 9.460937 0 18.664062-2.8125 26.097656-7.933593 7.4375 5.121093 16.640625 7.933593 26.101562 7.933593 6.726563 0 13.578125-1.414062 19.996094-4.40625 7.507812-3.503906 10.753906-12.429687 7.25-19.9375zm0 0" fill="#00347b"/><path d="m309.34375 232.226562c-3.503906-7.507812-12.433594-10.75-19.9375-7.25-8.082031 3.769532-17.105469.160157-19.242188-4.113281-2.742187-5.492187-8.402343-8.554687-14.164062-8.269531v36.042969c7.4375 5.121093 16.640625 7.933593 26.097656 7.933593 6.726563 0 13.578125-1.414062 19.996094-4.40625 7.507812-3.503906 10.753906-12.429687 7.25-19.9375zm0 0" fill="#001737"/><path d="m422.707031 95.246094c-30.347656-44.761719-91.667969-85.023438-166.707031-85.050782v127.394532c43.554688 7.023437 76.132812 27.066406 98.550781 60.414062 2.503907 3.726563 6.539063 6.132813 11 6.566406 4.765625.460938 9.230469.675782 13.421875.675782 33.558594 0 49.324219-13.867188 56.707032-26.300782 12.796874-21.546874 7.945312-52.839843-12.972657-83.699218zm0 0" fill="#be003b"/></svg>