<svg id="a" height="512" viewBox="0 0 24 24" width="512" xmlns="http://www.w3.org/2000/svg"><path d="m14.0906 4.6841-3.9707.4467c-.07-1.0565.7009-1.9932 1.7643-2.1171 1.0687-.1245 2.0386.6179 2.2064 1.6705zm-10.0906 4.3159v8c0 2.2091 1.7908 4 4 4h8c2.2092 0 4-1.7909 4-4v-8z" fill="#cbd5e1"/><path d="m21.6465 10.6465-1.1465 1.1465v-2.793c0-.2764-.2236-.5-.5-.5h-16c-.2764 0-.5.2236-.5.5v2.793l-1.1465-1.1465c-.1953-.1953-.5117-.1953-.707 0s-.1953.5117 0 .707l1.8535 1.8535v3.793c0 2.4814 2.0186 4.5 4.5 4.5h8c2.4814 0 4.5-2.0186 4.5-4.5v-3.793l1.8535-1.8535c.1953-.1953.1953-.5117 0-.707s-.5117-.1953-.707 0zm-2.1465 6.3535c0 1.9297-1.5703 3.5-3.5 3.5h-8c-1.9297 0-3.5-1.5703-3.5-3.5v-7.5h15zm-5.0225-12.8068c-.3714-1.0972-1.4535-1.8151-2.6503-1.6761-1.2015.1399-2.1011 1.1111-2.1947 2.2818l-5.6949.7119c-.2734.0342-.4678.2842-.4336.5581.0312.2529.2471.438.4951.438.0215 0 .042-.0015.0635-.0039l16-2c.2734-.0342.4678-.2842.4336-.5581-.0342-.2749-.291-.4688-.5586-.4341l-5.46.6825zm-3.8186.4774c.1365-.6054.6357-1.0847 1.2835-1.1603.6538-.0742 1.2334.2669 1.5063.8116l-2.7899.3488z" fill="#0f172a"/></svg>