<svg id="Capa_1" enable-background="new 0 0 512 512" height="512" viewBox="0 0 512 512" width="512" xmlns="http://www.w3.org/2000/svg"><g><g><path d="m210.904 308.834h51.472v111.523h-51.472z" fill="#98db7c"/></g><g><path d="m185.768 411.779c-8.621 0-16.63 4.285-21.413 11.461l-12.064 18.096c-2.631 3.942-1.567 9.27 2.379 11.896 3.954 2.622 9.266 1.562 11.896-2.379l12.064-18.096c1.592-2.392 4.264-3.82 7.138-3.82h32.63l10.266-17.157h-42.896z" fill="#c9c5c9"/></g><g><path d="m98.109 106.261-57.261 15.788-6.987-50.913 65.214-7.919z" fill="#b8b2b8"/></g><g><path d="m94.417 67.41-38.908 21.868c-5.441 3.136-8.734 8.995-8.585 15.274l.606 25.434c.11 4.63-5.89 6.539-8.476 2.697l-15.264-22.68c-8.917-13.249-11.179-29.886-6.123-45.035l4.504-13.496 44.762-16.204z" fill="#c9c5c9"/></g><path d="m360.48 242.931c-25.477-52.17-65.534-95.833-115.319-125.704h9.563c-6.281-3.769-21.362-8.684-25.829-14.49l-42.971-55.862-41.54-38.49c-13.867-5.473-28.801-8.385-44.09-8.385h-11.499c-29.54 0-55.765 18.901-65.107 46.925l-1.516 4.547h12.82c14.804 0 28.562 7.634 36.396 20.196l40.047 64.213c14.624 23.449 23.367 50.082 25.487 77.635l.869 11.292c2.831 36.795 22.421 70.247 53.127 90.718l35.2 23.467c11.933 7.955 19.101 21.348 19.101 35.689v45.674h25.736l51.472-42.894 57.781 23.331 66.947 78.719 32.209 26.353 2.491-14.406z" fill="#b8eb7c"/><g><path d="m388.345 359.092-23.058 2.944c-19.098 15.139-42.86 15.428-42.86 15.428l124.728 102.05z" fill="#dbf180"/></g><path d="m371.805 265.552-90.354 17.063s64.132 102.524 133.971 92.321l-3.503-27.245z" fill="#77cc7d"/><g fill="#98db7c"><path d="m358.054 242.931c-18.81-38.516-45.566-72.396-78.316-99.511l-21.019-23.754c-1.324-.823-2.656-1.636-3.995-2.439h-.001c-6.281-3.769-11.798-8.684-16.265-14.49l-42.971-55.862c-13.379-17.393-31.216-30.607-51.105-38.489l80.477 104.81c5.792 7.533 12.864 13.836 21.014 18.731-9.281 9.98-19.989 24.263-27.302 42.667-10.195 25.656-3.301 54.884 16.519 74.103 31.093 30.15 89.431 70.348 149.523 63.16l1.961-17.513z"/><path d="m496.174 501.198-63.955-130.956-14.871-7.565-1.926 12.259 63.942 130.93 5.367 4.392c6.204 5.076 14.961-1.857 11.443-9.06z"/></g><g><circle cx="99.38" cy="42.894" fill="#ffaa5a" r="8.579"/></g><path d="m370.044 242.931c-24.793-50.768-63.391-93.479-111.324-123.265-3.374 2.817-7.955 7.049-12.82 12.275 47.057 28.236 84.655 69.22 108.732 118.517l29.984 61.397 11.719 6.351 5.689-9.795z" fill="#77cc7d"/><g><path d="m331.014 454.672c-2.773 0-5.496-1.34-7.146-3.82l-12.064-18.096c-1.592-2.392-4.264-3.82-7.138-3.82h-76.002c-2.874 0-5.546 1.428-7.138 3.82l-12.064 18.096c-2.631 3.942-7.942 5.001-11.896 2.379-3.946-2.626-5.01-7.955-2.379-11.896l12.064-18.096c4.784-7.175 12.793-11.461 21.413-11.461h76.002c8.621 0 16.63 4.285 21.413 11.461l12.064 18.096c2.631 3.942 1.567 9.27-2.379 11.896-1.466.976-3.116 1.441-4.75 1.441z" fill="#dbd8db"/></g><g><path d="m402.023 308.412c-5.829 1.632-11.589 2.751-17.408 3.443l30.809 63.079c5.586-.813 11.166-2.328 16.794-4.693z" fill="#52bd7e"/></g></g></svg>