<svg id="Layer_1" height="512" viewBox="0 0 50 50" width="512" xmlns="http://www.w3.org/2000/svg"><g><g><path d="m27.615 31.0446c4.82 8.75 12.04 15.24 14.47 17.28-2.6-2.64-6.04-10.3-7.8-14.48-1.13-.4-4.31-1.56-6.67-2.8z"/><path d="m42.085 48.3246c.29.29.57.52.83.68 0 0-.3-.23-.83-.68z"/><path d="m8.475 9.2346c.29.29.7.51 1.2.61.03-.37.04-.96-.07-1.52-.07-.42-.21-.83-.46-1.13-.01-.02-.03-.03-.05-.05-.18-.2-.52-.44-1.21-.45l-.5-.01c-.49 1.26-.57 2.99 1.3 4.67-.29-.63-.5-1.53-.21-2.12z"/><path d="m10.635 10.2146c-.02.61.02 1.23.11 1.85.78-1.14 2.01-1.96 3.38-2.18.74-.1201 1.33-.14 1.77-.14l.72.01c.86 0 1.25 0 3.02-3.59l.25-.51c-.1-.17-.18-.33-.26-.48-3.03-6.05-11.74-5.23-11.73.52 3.46.04 2.74 4.52 2.74 4.52zm1.66-6.05s.94-.16 1.5.79c0 0-1.07 2.31-3.06.79 0 0 .19-1.45 1.56-1.58z"/><path d="m33.635 27.8046c-.12.31-.52 1.03-1.69 1.03-.15 0-.31-.0099-.49-.04-.21-.03-.41-.07-.61-.12-.35.41-.95.64-1.68.64-.25 0-.5-.03-.75-.08-.12.24-.32.51-.67.75 2.82 1.54 7.27 3.05 7.27 3.05.12-.4.15-.85.11-1.33-.01-.12-.02-.24-.04-.36-.05-.27-.11-.55-.18-.83-.03-.11-.06-.22-.09-.3199-.32-1.08-.81-2.08-1.11-2.65-.01.0899-.04.1699-.07.2599z"/><path d="m13.155 5.1746c0-.42-.34-.76-.76-.76.21 0 .38.17.38.38s-.17.38-.38.38-.38-.17-.38-.38.17-.38.38-.38c-.42 0-.76.34-.76.76s.34.76.76.76.76-.34.76-.76z"/><path d="m29.685 27.2046c.6.3 1.25.5 1.91.6 2.07.3 1.02-1.92-.53-3.31 1.27 1.14 2.21 1.05 2.59.44.22-.33.26-.82.1-1.36-.28-.9-.9-1.6-1.6-2.17-.46-.39-.96-.72-1.43-1.02.25 0 .5-.07.74-.25v-.01c-1.16-2.08-1.49-2.52-1.64-2.77.05-.5-.27-1.22-.51-1.67l.02-.02c-.57-1.07-1.41-2.09-1.41-2.09-1.3834-4.3293-5.7742-4.8309-7.4-6.97-2.72 5.54-2.85 3.72-6.24 4.27-1.4.22-2.72 1.26-3.22 2.77-.11 0 .63 2.01.93 2.82l.01.01c.084.2099.729 1.5472.83 1.75.01.13.02.26.04.39 0-.01-.01-.01-.01-.01.1677 1.0051.2311 1.0132.35 1.33v.01c.331.7879.661.9846.97 1.17.83 1.99 1.9901 2.6 2.14 2.66 0 0 0 0 .01.01.07.09.15.18.23.27-.08-.09-.15-.18-.22-.27.6578.8459 1.637 1.5209 2.4047 1.9754l-.0767 1.5496s-2.2336-.9547-2.5299 1.0066c0 0 1.3445-.5127 1.715.9196 0 0 .3499 1.4183-.2562 1.883 0 0 .7255 1.043 1.1946-.173 0 0 .2963-2.0047-.5927-2.7957 0 0 .9872-.1516 2.0985.8362l.6058-.4714-.7549-1.8434c.207.2245.4142.4296.6118.6131 1.7318 1.0646 3.8981 2.682 5.93 2.08.97-.26 1.3-1.03.21-2.08 1.82 1.85 4.38.81 2.78-.08z"/><path d="m16.675 29.2246c-.08 0-.17.02-.19.03l-1.55.52.08-.61-7.93 6.17.3.39.8 1.04.8 1.03 7.8199-6.09c-.0099-.0099-.02-.0099-.02-.02l-.55-.78.7-.53c.05-.18.02-.63-.05-.9-.0599-.25-.1099-.25-.2099-.25z"/></g></g></svg>