<svg id="Layer_1" enable-background="new 0 0 1417.3 1417.3" height="512" viewBox="0 0 1417.3 1417.3" width="512" xmlns="http://www.w3.org/2000/svg"><g><g><g><path d="m736.7 211.9s38.8-88.8-82.3-169.9-298.6-12.4-298.6-12.4 69.4 94.7 194.9 115 170.4 51.6 186 67.3z" fill="#9db24a"/><path d="m550.7 144.6c-125.5-20.4-194.9-115-194.9-115s251.1-18 380.9 182.3c-15.6-15.7-60.5-46.9-186-67.3z" fill="#96a944"/><path d="m454.4 74.8 10.6-5.9 10.4-6.9c17 4 34.8 9 53 15.4l-17 15.5 11-4.2 18.1-6.9c9.7 3.7 19.5 7.7 29.3 12.3 6.4 2.9 12.6 6 18.7 9.2l-21.2 12 14-1.6 19.8-3.6c18.2 10.3 35.3 21.7 51.3 34.2-28-7.8-59.6-14.6-94.6-20.2-27.3-4.4-54.2-12.7-79.9-24.6-31.9-14.8-57.9-33.2-77.5-49.8 18.7 1.7 40.7 4.8 64.6 9.9z" fill="#92a03c"/><g fill="#a9bc56"><path d="m451.2 24c-2.6-.3-5.1-.7-7.5-.9 2.4-.4 5-.9 7.5-1.3z"/><path d="m459.2 20.6c16-2.3 33.3-3.9 51.4-4.1l-1.2.2 1.4 19.1c-17.8-4.7-34.8-8.1-50.4-10.4z"/><path d="m646.9 67.8-4.7-13.2 1.2 42.3c-18.8-13.4-38.1-24.5-57.4-33.7l-7.7-29.9-2.9-7.3-2.1 31.4c-17.5-7.6-34.8-13.6-51.5-18.5l-5.3-22.4c34.1.2 70.3 5.6 103.3 20.9 9 4.1 17.6 9 25.5 14.3 71.3 47.8 79.9 97.2 77.9 124.6-20.3-28.1-43.3-51.2-67.5-70.1z"/></g><path d="m355.8 29.6s41.3-3 99.1 6.9l-.3-20 4.9 20.8c17.4 3.1 36.2 7.4 55.8 13.3l-2.4-34.1 8.5 36c18.1 5.7 36.7 12.8 55.4 21.5v-41.4l8.4 45.5c21.3 10.5 42.6 23.3 63.1 38.8l-3.5-50.2 10.4 55.6c29.7 23.5 57.7 52.9 81.5 89.7-2.9-2.9-6.8-6.4-12.1-10.2-30.6-42.8-66.9-74.7-104.7-98.5l-39.3 7.2 30.7-12.5c-18.1-10.8-36.4-19.8-54.5-27.3l-35 15.7 26.8-19c-20.4-8-40.5-14.1-59.5-18.8l-26.1 17.4 21.5-18.6c-60.4-14.2-109.5-14.1-125.3-13.6-2.3-2.7-3.4-4.2-3.4-4.2z" fill="#79923b"/></g><g><g><path d="m782.7 186.2s3.1-145.6 219.4-179.9 415.2 171.4 415.2 171.4-154.4 85.4-338.5 34-265-37-296.1-25.5z" fill="#9db24a"/><path d="m1078.8 211.7c184.1 51.4 338.5-34 338.5-34s-331.2-183-634.6 8.5c31.1-11.5 112-25.8 296.1 25.5z" fill="#96a944"/><path d="m1254.4 177.2-10.7-14.7-9.8-16c-25.7-5.3-53.2-9.6-82.1-12.4l13.3 31.9-12.4-12.6-20.3-20.8c-15.6-1.1-31.5-1.7-47.7-1.7-10.5 0-21 .3-31.4.8l21.3 29.7-18.1-10.9-24.7-17.4c-31.2 2.5-61.8 7.3-91.5 14.3 43.2 7 90.5 17.7 141.8 32 40.1 11.2 82 16.9 124.6 16.9 52.8 0 100-8.7 137.2-19-26.6-9.4-58.5-19.2-94.4-27.3z" fill="#89a045"/><g fill="#a9bc56"><path d="m1290.7 109.9c3.7 1.1 7.3 2.3 10.9 3.5-3.1-2.1-6.2-4.3-9.4-6.5z"/><path d="m1281.9 100.2c-20.3-13.2-43-26.3-67.5-38l1.6 1-13.9 25.2c27.3 4.8 52.6 11 75.3 17.5z"/><path d="m996.1 46.2 14.8-15-28.3 57c34.1-6.5 67.4-9.5 99.5-9.8l29.4-35.9 8.6-8.2-16.9 44.2c28.6.7 56.1 3.3 81.9 7.2l21.3-27.2c-46.7-21.2-99.4-36.7-154.2-36.7-14.8 0-29.6 1.1-43.9 3.4-127.4 20.2-170.3 82.2-184.8 120.9 45.5-25.5 91.3-42.5 136.3-53.1z"/></g><path d="m1417.3 177.7s-54.5-30.1-139.5-53.1l13-27.1-19.8 25.4c-25.7-6.7-54.1-12.7-84.5-17l24.9-45.1-34.3 43.8c-28.2-3.6-58.1-5.7-89.2-5.6l26.2-56.5-40.2 56.7c-35.7.9-72.8 5-110.6 13.1l36.4-66.3-49.3 69.3c-55.4 13.4-112.1 35.8-167.8 71 5.8-2.2 13.3-4.4 23-6.3 68.7-39 138.4-59.7 205-68.4l49.1 34.6-34-36.4c31.5-3.3 62.1-4.1 91.5-2.9l37.8 43.5-24.6-42.9c32.9 2 64.1 6.3 93 11.9l24.8 40.3-17.6-38.9c91.4 18.7 158.3 49.9 179.5 60.6 4.7-2.3 7.2-3.7 7.2-3.7z" fill="#79923b"/></g><g><path d="m739.4 205.2s9.1-66.9-7.1-102.5c-8.7-19.1-16.4-44.7-21.6-64.3-4-14.9 7.2-29.6 22.7-29.6h26.5c12.9 0 23.4 10.4 23.5 23.3 0 18.2 1.5 43.1 8.3 59.8 11.9 29.1-12 136.2-12 136.2z" fill="#564925"/></g><path d="m791.7 91.9c-6.8-16.7-8.3-41.6-8.3-59.8 0-12.9-10.5-23.3-23.5-23.3h-23c12.9 0 23.4 10.4 23.5 23.3 0 18.2 1.5 43.1 8.3 59.8 4.2 10.3 3.9 30.3 1.8 51.8-1.3 13.7-15.8 21.9-28.4 16.2l-.3-.1c.3 24.6-2.5 45.5-2.5 45.5l19.7 11.2 20.5 11.7c.2 0 24.1-107.1 12.2-136.3z" fill="#42351a"/><g><g><g><path d="m1044.1 148c-133.2-34.1-228 9.4-274.3 37.8 281.6 222.1 512.5 749.6-63.1 1229.1.7 0 1.4-.1 2.1-.1s1.4.1 2.1.1v-.1c155.2-5.5 676-268.2 704.7-687.5 21.2-311.5-140.2-520.1-371.5-579.3z" fill="#ee8730"/><path d="m850.6 1341.3c94.2-85.8 167.1-177.3 217.3-273.3 63-120.3 89.7-245 79.3-370.6-16.7-203.2-135.3-397-307.5-509.3 34.4-13.2 70.6-19.9 108.4-19.9 28.1 0 57.3 3.8 86.6 11.3 232.1 59.4 364.5 268.4 345.5 545.6-21.3 311.1-328.4 530-529.6 616.2z" fill="#f2994a"/><path d="m769.7 185.8c-95.3-49.9-222.9-82.2-396.5-37.8-231.3 59.2-392.7 267.8-371.3 579.2 28.7 419.3 549.4 682 704.7 687.5v.1c648.4-472.9 409.6-1047.7 63.1-1229z" fill="#f79338"/><path d="m769.7 185.8c-66.4-34.8-148.6-61-251-58.6 90.9 2.1 165.1 26.7 226.1 58.6 345.9 181 584.5 754.3-60.1 1226.8 7.9 1.2 15.2 1.9 21.9 2.1v.1c648.4-472.9 409.6-1047.7 63.1-1229z" fill="#e87d2b"/><path d="m621.8 1362.6c-171.3-57.2-560.3-281.4-584.7-637.4-19-277.2 113.4-486.2 345.5-545.6 51.5-13.2 101.5-19.8 148.7-19.8 78.5 0 150.8 17.9 221 54.6 180.5 94.4 293.4 312.5 286.9 515.2-14.2 447.6-398.7 639.2-417.4 633z" fill="#f6a34e"/></g></g></g><ellipse cx="347.5" cy="645.2" fill="#fbb778" rx="247.9" ry="314.7"/><path d="m1090.8 333.5c61.5 75.3 110.2 198.5 127.8 341.6 8.3 67.3 8.7 132 2.6 190.8 73.9-52.2 117.1-159.4 102.8-276.4-18-146.7-120.1-256.4-233.2-256z" fill="#f6a34e"/><path d="m766 379c61.5 75.3 110.2 198.5 127.8 341.6 8.3 67.3 8.7 132 2.6 190.8 73.9-52.2 117.1-159.4 102.8-276.4-18-146.7-120.1-256.5-233.2-256z" fill="#faab62"/><path d="m737 20.2s-19.6 12.8-13 27.6 23.7 70.6 23.7 70.6 0-36 0-64-10.7-34.2-10.7-34.2z" fill="#665833"/></g></g><g fill="#b8cc63"><ellipse cx="1042.6" cy="53.8" rx="24" ry="10.8" transform="matrix(.967 -.255 .255 .967 20.679 267.361)"/><ellipse cx="547.1" cy="30.1" rx="7" ry="15.6" transform="matrix(.073 -.997 .997 .073 477.224 573.5)"/></g></g></svg>