<svg id="Layer_1" enable-background="new 0 0 512 512" height="512" viewBox="0 0 512 512" width="512" xmlns="http://www.w3.org/2000/svg"><g><g><g><g><g><path d="m209.749 334.058 90.293-.018 138.754 15.853c63.205 13.838 62.393 57.516 34.527 77.568-11.959 8.606-28.742 13.563-46.253 14.853-3.451 16.758-17.501 36.499-45.299 43.05-18.548 3.801-37.741 2.956-53.948-1.287-11.174 16.078-39.054 27.923-72.888 27.923h1.065c-33.833 0-61.714-11.845-72.887-27.923-16.207 4.243-35.4 5.087-53.948 1.287-27.798-6.55-41.848-26.292-45.299-43.05-17.511-1.29-34.294-6.247-46.253-14.853-27.866-20.052-28.678-63.731 34.527-77.568l138.754-15.853 90.293.018" fill="#ffd2ac"/></g><g fill="#ffe5cf"><path d="m420.868 405.358-105.269-69.541-13.285-1.518 23.497 102.045s19.026 19.878 2.012 47.733c16.207 4.243 35.4 5.088 53.948 1.287 27.798-6.55 41.848-26.292 45.298-43.05 0 0 5.825-20.639-6.201-36.956z"/><path d="m186.189 436.344 24.069-102.232-13.69 1.564-105.436 69.682c-12.026 16.318-7.265 36.956-7.265 36.956 3.451 16.758 17.501 36.5 45.298 43.05 18.548 3.801 37.741 2.956 53.948-1.287-17.014-27.855 3.076-47.733 3.076-47.733z"/></g></g><g><g><path d="m16.256 166.109c-30.591 39.4-16.383 97.049 29.009 117.7l166.101 67.856h63.116l-137.075-186.53c-31.22-38.903-90.56-38.426-121.151.974z" fill="#ffd2ac"/><path d="m495.744 166.109c30.591 39.4 16.383 97.049-29.009 117.7l-166.101 67.856h-63.116l137.075-186.53c31.22-38.903 90.56-38.426 121.151.974z" fill="#ffd2ac"/><path d="m495.744 166.109c-20.139-25.938-52.736-35.007-81.568-27.077 15.355 4.221 29.627 13.253 40.361 27.077 30.591 39.4 16.383 97.049-29.009 117.7l-166.101 67.856h41.207l166.101-67.856c45.392-20.651 59.6-78.3 29.009-117.7z" fill="#ffc594"/><path d="m395.239 52.337c-46.817-17.171-97.379 13.912-103.228 63.46h-72.021c-5.85-49.548-56.411-80.63-103.228-63.46-46.817 17.171-65.326 73.585-37.788 115.179l125.388 174.565c3.732 5.195 2.313 12.463-3.098 15.871l-12.984 8.179c-22.413 14.045-19.467 49.293 5.63 58.393 20.877 7.657 43.423-6.204 46.032-28.298h32.116c2.609 22.095 25.155 35.955 46.032 28.298 25.045-9.185 28.081-44.299 5.697-58.375l-13.116-8.206c-5.435-3.4-6.867-10.688-3.124-15.894l125.48-174.534c27.538-41.593 9.029-98.007-37.788-115.178z" fill="#ffe5cf"/><g><path d="m433.027 167.516c27.538-41.594 9.029-98.008-37.788-115.178-15.939-5.846-32.312-6.098-47.207-1.934 2.004.559 4.005 1.202 6 1.934 46.817 17.171 65.326 73.585 37.788 115.178l-125.48 174.534c-3.743 5.206-2.31 12.494 3.124 15.894l13.116 8.206c19.464 12.241 19.707 40.389 2.97 53.563 8.915 6.696 20.983 9.051 32.54 4.812 25.045-9.185 28.081-44.299 5.698-58.375l-13.116-8.206c-5.435-3.4-6.867-10.688-3.124-15.894z" fill="#ffdfc4"/></g></g><path d="m339.415 105.669c12.829-53.912-28.028-105.669-83.415-105.669-55.387 0-96.244 51.757-83.415 105.669l62.183 235.596c1.781 6.747 1.398 13.883-1.094 20.401l-12.975 33.938c-9.52 24.9 8.948 51.339 35.282 51.948 26.417 0 44.673-27.385 35.282-51.948l-12.966-33.914c-2.492-6.519-2.874-13.656-1.093-20.404z" fill="#ffd2ac"/><path d="m339.415 105.669c12.829-53.912-28.028-105.669-83.415-105.669-7.137 0-14.033.859-20.604 2.472 44.422 10.902 73.987 56.232 62.811 103.197l-62.211 235.617c-.245.929-.449 1.865-.613 2.805.652 3.773.648 7.621-.004 11.377.365 2.113.936 4.197 1.71 6.222l12.966 33.914c6.618 17.311-.494 36.022-14.518 45.563 5.825 3.857 12.803 6.208 20.443 6.385 26.417 0 44.673-27.385 35.282-51.948l-12.966-33.914c-2.492-6.518-2.874-13.656-1.093-20.404z" fill="#ffc594"/><path d="m202.567 105.914c-3.515 0-6.693-2.413-7.521-5.984-4.319-18.644.008-37.95 11.872-52.968 11.94-15.114 29.829-23.783 49.081-23.783 4.267 0 7.726 3.459 7.726 7.726s-3.459 7.726-7.726 7.726c-14.495 0-27.965 6.528-36.956 17.909-8.937 11.313-12.197 25.857-8.943 39.901.963 4.157-1.626 8.308-5.783 9.271-.586.137-1.173.202-1.75.202z" fill="#f2ae74"/></g><path d="m212.797 325.023-140.657 24.87c-39.603 7.798-51.999 29.567-25.309 44.445 11.455 6.385 27.529 10.063 44.301 11.02-4.81 13.222 11.994 26.958 43.387 31.941 17.765 2.82 36.148 2.193 51.671-.955 10.702 11.929 37.406 20.718 69.811 20.718 32.405 0 59.109-8.789 69.811-20.718 15.523 3.148 33.905 3.775 51.67.955 31.393-4.983 48.197-18.72 43.386-31.941 16.772-.957 32.847-4.635 44.301-11.02 26.69-14.878 14.293-36.647-25.309-44.445l-140.58-24.857z" fill="#ff7db1"/><g><path d="m439.86 349.893-140.58-24.857-86.482-.014-.037.006 45.312.007 140.581 24.856c39.603 7.798 51.999 29.567 25.309 44.445-11.454 6.385-27.529 10.063-44.301 11.02 4.81 13.222-11.993 26.958-43.386 31.941-.865.137-1.732.266-2.6.387 13.681 1.918 28.96 1.97 43.808-.387 31.393-4.983 48.197-18.72 43.386-31.941 16.772-.957 32.847-4.635 44.301-11.02 26.688-14.876 14.292-36.645-25.311-44.443z" fill="#ff69a5"/></g><path d="" fill="#ffefd1"/></g></g><g><g><ellipse cx="255.468" cy="334.04" fill="#fff" rx="61.947" ry="61.984"/></g><g><path d="m236.427 364.684c9.943 0 9.96-15.453 0-15.453-9.944 0-9.96 15.453 0 15.453z" fill="#fae7c3"/></g></g></g></svg>