<svg id="Layer_1" enable-background="new 0 0 512 512" height="512" viewBox="0 0 512 512" width="512" xmlns="http://www.w3.org/2000/svg"><g><path d="m192.851 56.26h-12.767c-2.775 0-5.045-2.27-5.045-5.045v-41.197c0-2.775 2.27-5.045 5.045-5.045h12.767c2.775 0 5.045 2.27 5.045 5.045v41.197c0 2.775-2.27 5.045-5.045 5.045z" fill="#61391a"/><g><path d="m186.468 470.378c10.356 0 13.235 3.422 49.465 5.107s92.681-42.425 108.69-150.273c13.489-90.876-45.076-126.981-74.145-196.913-30.992-74.558-31.175-96.052-84.01-96.052s-53.018 21.494-84.01 96.052c-29.069 69.932-87.635 106.037-74.145 196.913 16.009 107.848 72.46 151.958 108.69 150.273s39.108-5.107 49.465-5.107z" fill="#cad624"/></g><g fill="#aeb81f"><circle cx="125.357" cy="190.723" r="13.464"/><circle cx="161.488" cy="171.598" r="12.159"/><circle cx="124.04" cy="156.445" r="7.991"/><circle cx="157.519" cy="127.205" r="21.249"/></g><path d="m449.353 150.456-9.955-6.971c-2.164-1.515-2.694-4.525-1.179-6.688l22.493-32.123c1.515-2.164 4.525-2.694 6.688-1.179l9.955 6.971c2.164 1.515 2.694 4.525 1.179 6.688l-22.493 32.123c-1.515 2.163-4.524 2.694-6.688 1.179z" fill="#61391a"/><path d="m299.537 180.926c-61.077 39.071-127.795 35.694-166.997 114.125-17.547 35.106-25.602 66.259-27.264 92.431-5.928-17.025-10.743-36.379-13.985-58.215-14.256-96.043 47.639-134.201 78.361-208.109 18.81-45.25 26.884-72.001 40.922-86.582-6.63-1.613-14.494-2.329-24.107-2.329-52.836 0-53.018 21.494-84.01 96.052-29.069 69.932-87.635 106.037-74.145 196.913 16.009 107.848 72.46 151.958 108.69 150.273 12.103-.563 20.483-1.323 26.65-2.08 12.321-1.511 15.919-3.027 22.815-3.027 10.356 0 13.235 3.422 49.465 5.107s92.681-42.425 108.69-150.273c9.722-65.485-17.973-102.53-45.085-144.286z" opacity=".15"/><path d="m218.275 469.877c8.075 5.654 8.452 9.894 35.782 30.989s95.431 17.521 166.797-57.832c60.135-63.495 34.182-123.623 49.697-194.024 16.542-75.057 28.134-91.917-13.064-120.764s-53.076-12.187-117.949 29.028c-60.848 38.658-126.227 34.835-165.325 113.06-46.4 92.834-26.466 158.05 2.704 176.517s33.282 17.372 41.358 23.026z" fill="#cad624"/><path d="m184.088 433.272c-11.779-8.249-19.919-26.829-21.776-49.702-1.761-21.681 1.247-57.74 25.569-106.404 23.844-47.706 58.147-61.417 97.865-77.294 20.202-8.075 41.09-16.424 61.986-29.7 21.003-13.344 55.178-37.617 69.305-40.573 7.481-1.566 15.391-.244 31.684 11.165 16.294 11.409 20.24 18.389 21.328 25.954 1.792 12.462-9.49 56.623-14.422 79.004-5.328 24.176-6.03 46.66-6.709 68.404-1.334 42.753-2.487 79.677-39.16 118.399-37.411 39.502-70.268 54.661-91.244 60.422-22.127 6.078-42.37 4.781-54.148-3.466-15.694-10.989-23.684-19.751-27.432-23.495-3.059-3.055-5.701-5.694-9.894-8.629-4.192-2.935-7.575-4.516-11.493-6.346-4.213-1.965-16.335-7.147-31.459-17.739z" fill="#f9ffd6"/><path d="m457.883 147.793c-2.511-2.16-5.528-4.483-9.162-7.028-3.635-2.545-6.85-4.585-9.738-6.206l-93.105 132.968c-27.12-5.336-68.637 20.869-84.042 42.869-15.404 22-12.716 51.249 4.94 70.101l-49.834 71.17c3.349 1.577 6.411 3.111 10.098 5.692s6.176 4.934 8.803 7.542l49.834-71.17c23.754 10.144 52.159 2.665 67.563-19.334 15.405-22 25.83-69.976 11.539-93.636z" fill="#ecf29e"/><path d="m301.542 332.866c-5.993 8.559-16.461 12.171-21.307 13.44-1.471.385-2.797-.544-2.938-2.057-.465-4.988-.651-16.06 5.342-24.619s16.461-12.171 21.307-13.44c1.471-.385 2.797.544 2.938 2.057.464 4.989.65 16.061-5.342 24.619z" fill="#623a14"/><path d="m337.447 358.007c-5.993 8.559-16.461 12.171-21.307 13.44-1.471.385-2.797-.544-2.938-2.057-.465-4.988-.651-16.06 5.342-24.619s16.461-12.171 21.307-13.44c1.471-.385 2.797.544 2.938 2.057.464 4.989.65 16.061-5.342 24.619z" fill="#623a14"/><g><path d="m272.602 5.55c48.032 20.229 66.819 84.476 66.819 84.476s-59.09 31.449-107.122 11.22-42.758-74.343-42.758-74.343 35.029-41.583 83.061-21.353z" fill="#67a633"/></g><g><path d="m339.427 90.025s-59.102 31.447-107.123 11.22c-48.033-20.223-42.77-74.345-42.77-74.345z" fill="#4c7a26"/></g></g></svg>