<svg id="Layer_1" enable-background="new 0 0 512 512" viewBox="0 0 512 512" xmlns="http://www.w3.org/2000/svg"><g><path d="m278.983 512h116.337c-27.438-33.439-51.919-40.347-60.643-41.774z"/><path d="m309.125 164.617-1.983 7.937c-4.833 19.328-5.854 39.126-3.037 58.845l13.472 94.303c3.202 22.411-1.82 45.011-14.138 63.636-16.262 24.584-36.264 37.577-57.844 37.577-6.147 0-11.13-4.984-11.13-11.13v-64.287c0-11.557-2.866-23.009-8.281-33.179-10.576 36.36-26.149 109.116-13.982 193.68h29.681l81.916-61.441c100.512-118.507 34.752-284.553 9.349-337.822-11.15 15.548-19.327 33.098-24.023 51.881z"/><path d="m192.773 195.98c2.826-5.46 9.542-7.595 15.001-4.769s7.594 9.542 4.768 15.001c-.799 1.544-4.228 10.852 6.749 42.605 3.849 11.134 9.079 23.76 14.925 36.174.031.069.067.135.096.205 3.511 7.447 7.243 14.815 11.029 21.734 7.447 13.61 11.384 29.021 11.384 44.569v51.077c12.085-4.549 21.691-15.76 28.146-25.517 9.31-14.076 13.099-31.196 10.668-48.208l-13.472-94.303c-3.226-22.583-2.057-45.257 3.477-67.391l1.983-7.938c6.889-27.551 20.296-52.794 39.055-73.85.249-.313.517-.614.802-.901 3.214-3.558 6.565-7.009 10.084-10.313l5.732-5.383v-52.715c-13.516-11.409-27.84-16.91-41.642-15.95-24.566 1.715-47.662 15.378-61.776 36.548l-55.916 83.869c-6.462 9.698-13.704 19.64-23.479 32.232-50.469 65.07-33.077 214.404-32.567 218.632 8.907 62.484 1.052 108.428-23.346 136.558-1.238 1.427-2.492 2.776-3.76 4.053h89.008c-14.971-109.814 14.456-200.503 22.248-221.943-13.673-29.571-30.017-73.172-19.197-94.076zm114.155-162.367c15.736-2.839 18.154 21.736 2.17 22.039-13.078.299-15.07-19.8-2.17-22.039z"/><path d="m365.462 57.67 45.824-12.628c-20.117-18.804-35.43-22.758-45.824-23.248z"/></g></svg>