<svg id="Capa_1" enable-background="new 0 0 512 512" height="512" viewBox="0 0 512 512" width="512" xmlns="http://www.w3.org/2000/svg"><g><g><path d="m249.707 446.984v32.508c0 8.977-7.277 16.254-16.254 16.254h-32.508c-4.488 0-8.127 3.639-8.127 8.127 0 4.488 3.639 8.127 8.127 8.127h32.508l61.618-8.373v-56.643z" fill="#ffc244"/></g><g><path d="m282.215 446.984v32.508c0 8.977-7.277 16.254-16.254 16.254h-32.508c-4.488 0-8.127 3.639-8.127 8.127 0 4.488 3.639 8.127 8.127 8.127h65.016c8.977 0 16.254-7.277 16.254-16.254v-48.762z" fill="#ffd05b"/></g><path d="m371.238 433.439v-176.999c0-40.373-9.4-80.191-27.455-116.301l-44.731-89.464-29.261-39.298c-13.303-7.329-28.46-11.377-44.232-11.377h-.019c-10.779 0-21.524 1.606-31.726 5.084-5.91 2.015-12.111 3.043-18.354 3.043l-31.655 32.508c9.969 0 18.934 6.07 22.636 15.326l4.964 12.411c3.344 8.361 3.817 17.596 1.343 26.255l-1.42 4.972 129.391 340.608 38.385 23.032 3.993 9.983c6.878 17.196 22.838 28.893 41.054 30.47l7.137-6.423c-11.505-18.648-20.05-41.887-20.05-63.83z" fill="#615260"/><path d="m322.85 392.101c0 8.958-12.496 12.263-16.237 4.124-.03-.066-.061-.133-.09-.199l-8.197-18.443c-10.622-23.9-16.111-49.764-16.111-75.918v-117.868c0-14.728 3.724-29.003 8.623-42.892 4.229-11.991 1.226-25.404-7.822-34.452l-1.323-1.323c-19.601-19.601-48.599-26.438-74.892-17.656l-35.475 12.125-7.235 25.323c-13.132 45.965-14.115 94.55-2.853 141.009l35.784 147.61c7.07 29.162 33.179 49.698 63.186 49.698h62.64l9.145-59.52z" fill="#eceaec"/><g><circle cx="217.199" cy="40.635" fill="#4e3d4d" r="8.127"/></g><g><path d="m379.738 433.439v-176.999c0-40.373-9.4-80.191-27.455-116.301l-44.731-89.464c-8.446-16.892-21.852-30.49-37.762-39.298l67.952 136.02c16.929 33.856 25.742 71.188 25.742 109.04v177c0 24.868 7.237 49.353 20.666 70.254 0 0 1.497.182 4.22.182h7.778c3.343 0 5.421-3.626 3.664-6.47-6.999-11.324-20.074-36.191-20.074-63.964z" fill="#4e3d4d"/></g><path d="m176.564 8.127h-48.762c-8.977 0-16.254 7.277-16.254 16.254l13.732 8.749h53.756l13.783-8.749c-.001-8.977-7.278-16.254-16.255-16.254z" fill="#ffaa5a"/><g><path d="m339.104 463.238v-260.063c0-4.492-3.635-8.127-8.127-8.127s-8.127 3.635-8.127 8.127v260.064h16.254z" fill="#dbd8db"/></g><g><path d="m127.802 40.635h48.762c8.977 0 16.254-7.277 16.254-16.254h-81.27c0 8.977 7.277 16.254 16.254 16.254z" fill="#ff8b57"/></g></g></svg>