<svg id="Layer_3" height="512" viewBox="0 0 64 64" width="512" xmlns="http://www.w3.org/2000/svg" data-name="Layer 3"><path d="m52 63v-15a11.715 11.715 0 0 0 -8.7-11.319l-1.35-.36-1.95-1.321h-16l-1.954 1.321-1.35.36a11.715 11.715 0 0 0 -8.696 11.319v15z" fill="#0059be"/><path d="m52 48a11.715 11.715 0 0 0 -8.7-11.319l-1.35-.36-1.95-1.321h-16l-1.954 1.321-1.35.36a11.716 11.716 0 0 0 -1.832.656 11.692 11.692 0 0 0 -2.864 7.663 15 15 0 0 0 15 15h21z" fill="#006bdb"/><path d="m26 35h12v28h-12z" fill="#a5badb"/><path d="m31 60h7v-25h-12v24.128a14.926 14.926 0 0 0 5 .872z" fill="#c1cfe8"/><path d="m22 46v-9a5.006 5.006 0 0 1 5-5v4a1 1 0 0 0 -1 1v9z" fill="#785349"/><path d="m42 46v-9a5.006 5.006 0 0 0 -5-5v4a1 1 0 0 1 1 1v9z" fill="#785349"/><path d="m43 46h-7l-2-2h-4l-2 2h-7v12h22z" fill="#a37765"/><path d="m23.18 46a11.994 11.994 0 0 0 11.82 10h8v-10h-7l-2-2h-4l-2 2z" fill="#bf9377"/><circle cx="32" cy="52" fill="#383838" r="4"/><path d="m39 46h4v4h-4z" fill="#fff"/><path d="m21 46h4v12h-4z" fill="#383838"/><path d="m17 54h2v9h-2z" fill="#004180"/><path d="m45 54h2v9h-2z" fill="#004180"/><path d="m37 36-.336.5a5.607 5.607 0 0 1 -4.664 2.5 5.607 5.607 0 0 1 -4.664-2.5l-.336-.5v-5.516h10z" fill="#d08d78"/><path d="m36.664 36.5.336-.5v-4.518a8.947 8.947 0 0 1 -8 .995v3.523l.336.5a5.6 5.6 0 0 0 3.664 2.4 5.6 5.6 0 0 0 3.664-2.4z" fill="#f2b9a1"/><path d="m20 18.764v-8.764a8 8 0 0 1 8-8h7a4 4 0 0 1 4 4h1a4 4 0 0 1 4 4v8.764" fill="#212121"/><path d="m40 6h-1a4 4 0 0 0 -4-4h-3a8 8 0 0 0 -8 8v8.764h20v-8.764a4 4 0 0 0 -4-4z" fill="#383838"/><g fill="#d08d78"><path d="m41 16v7a9 9 0 0 1 -9 9 9 9 0 0 1 -9-9v-7h6.9a6.22 6.22 0 0 0 6.1-5z"/><path d="m23 18h-1a3 3 0 0 0 -3 3 3 3 0 0 0 3 3h1.055"/><path d="m41 18h1a3 3 0 0 1 3 3 3 3 0 0 1 -3 3h-1.055"/></g><path d="m33 31.941a9 9 0 0 0 8-8.941v-7l-5-5a6.22 6.22 0 0 1 -6.1 5h-4.9v7a9 9 0 0 0 8 8.941z" fill="#f2b9a1"/><path d="m25 46h-1.82a11.943 11.943 0 0 0 1.82 4.6z" fill="#4c4c4c"/><circle cx="32" cy="52" fill="#4c4c4c" r="3"/><path d="m30 45h4v2h-4z" fill="#fff"/></svg>