<svg id="Layer_1" enable-background="new 0 0 74 74" height="512" viewBox="0 0 74 74" width="512" xmlns="http://www.w3.org/2000/svg"><g><path d="m41.02 16.25-2.36 16.66h-1l2.36-16.66z" fill="#3f4346"/><g><path d="m14.52 48.83h2.03v13.62h-2.03z" fill="#3f4346"/><path d="m13.12 47.97h4.82v3.31h-4.82z" fill="#5f6163"/><path d="m5.66 49.81h19.74c.37 0 .66-.3.66-.66v-.01c0-1.79-1.45-3.24-3.24-3.24h-14.58c-1.79 0-3.24 1.45-3.24 3.24v.01c0 .36.3.66.66.66z" fill="#eb4745"/><path d="m5.03 48.83c-.01.11-.03.21-.03.31v.01c0 .37.3.66.66.66h19.74c.37 0 .66-.3.66-.66v-.01c0-.11-.02-.21-.03-.31z" fill="#edd9d2"/><g fill="#3f4346"><path d="m11.5 63.93c0 .53-.43.96-.96.96s-.94-.43-.94-.96.42-.94.94-.94c.53-.01.96.41.96.94z"/><path d="m21.46 63.93c0 .53-.43.96-.96.96s-.94-.43-.94-.96.42-.94.94-.94c.53-.01.96.41.96.94z"/></g><g fill="#5f6163"><path d="m15.53 61.37-5.72.87v1.12h5.72z"/><path d="m15.53 61.37 5.72.87v1.12h-5.72z"/></g></g><g><path d="m32.56 34.9s2.81.03 3.61 1.54c.91 1.72-1.29 2.05-1.74 1.16s-1.4-.78-2.26-1.17z" fill="#fdc5ae"/><path d="m22.63 23.29c1.3 2.87 2.15 9.28 2.75 9.54l8.27 1.88-.55 2.33s-8.23-.23-10.61-1.34c-1.49-.7-2.88-4.15-3.52-7.22z" fill="#558cce"/><path d="m36.5 58.84s.5 1.03 1.05 1.08c.52.04 3.6-.76 3.56.23-.03.57-1.01 1.12-3.18 1.82-1.34.43-2.26.77-2.51.19s-.93-2.4-.93-2.4z" fill="#eb4745"/><path d="m34.6 60.66-7.2-15.95.49-4.22s4.02.54 5.48 3.26c1.21 2.25 3.8 15.66 3.8 15.66z" fill="#253b54"/><path d="m28.39 60.54s-.38 1.09-.02 1.51c.34.4 3.09 2.01 2.35 2.68-.42.38-1.5.08-3.53-.96-1.25-.65-2.14-1.05-1.91-1.64s1.04-2.36 1.04-2.36z" fill="#eb4745"/><path d="m28.59 61.3s4.29-16.25 2.7-19.11-12.89-2.7-14.56-3.74l-5.85 2.15s-.76 4.49 2.43 5.33 12.45.28 12.45.28l-.16 14.38z" fill="#2f4565"/><path d="m10.81 40.74v-14.77c0-2.5 1.68-4.73 4.12-5.29.28-.06.58-.12.9-.17 2.22-.35 4 .25 5.21.93 1.16.65 1.85 1.91 1.85 3.24l-.01 14.8c-3.8-.38-7.79 2.45-12.07 1.26z" fill="#6da1e8"/><g fill="#558cce"><path d="m22.88 33.49v1.05c-1.54-.26-3.07-.53-4.61-.82l-.06-.01h-.01c-.11-.06-.22-.15-.31-.25-.06-.07-.07-.12-.11-.18-.07-.12-.11-.22-.15-.34-.09-.2-.16-.4-.22-.61-.12-.4-.25-.81-.35-1.21l-.65-2.41c-.2-.81-.4-1.6-.65-2.39-.23-.79-.48-1.59-.83-2.35.88 1.43 1.42 3.03 2 4.58l.79 2.37c.13.38.27.77.41 1.15.08.19.15.38.23.55.03.09.08.17.11.22l.03.04c.01 0 .02 0 .03.01v.01c1.45.18 2.91.38 4.35.59z"/><path d="m21.59 36.5c.42 0 .85 0 1.29-.01v1.07c-.44.01-.87 0-1.31-.02-1.59-.07-3.19-.15-4.79-.46-.39-.09-.79-.19-1.21-.35-.44-.17-.78-.47-1.07-.77-.57-.63-1-1.32-1.35-2.05-.68-1.45-1.2-2.96-1.51-4.52.55 1.48 1.15 2.94 1.97 4.27.41.65.85 1.3 1.38 1.81.27.25.55.45.86.55.34.1.72.17 1.08.22 1.52.2 3.1.25 4.66.26z"/><path d="m18.53 32.9v.01c-.01-.01-.02-.01-.03-.01z"/></g><path d="m18.27 31.54.13.01c-.01 0-.04 0-.05-.01z" fill="#5488c6"/><path d="m18.27 31.62.11.01c-.01 0-.03 0-.04-.01z" fill="#5488c6"/><path d="m16.35 17.28-.7 3.24s1.68 3.49 3.24 2.43l.14-4.57z" fill="#efb19c"/><path d="m15.91 17.28s1.38 3.3 4.66 3.08 1.95-8.97 1.95-8.97l-4.32.25-3.41 2.06z" fill="#fdc5ae"/><path d="m15.98 18.98s.17-1.28.67-2.43c0 0-.94-.91-.5-2.06.44-1.16 1.72 0 1.72 0s1.21-.16 1.15-1.03c-.06-.88 1.57-.53 2.48-.53s1.88-.53 1.65-1.74c-.23-1.2-1.13-1.6-2.39-1.83-1.18-.21-6.27-.97-5.98 2.16-2.22 1.77-1.61 4.31 1.2 7.46z" fill="#3f4346"/><path d="m25.64 34.89s2.81-.16 3.71 1.29c1.02 1.66-1.15 2.13-1.66 1.28s-1.45-.68-2.33-1.02z" fill="#fdc5ae"/><path d="m14.95 23.98c1.5 2.78 2.77 9.11 3.39 9.33l8.37 1.31-.4 2.36s-8.23.33-10.68-.62c-1.54-.6-3.16-3.94-4-6.97z" fill="#6da1e8"/></g><path d="m69 33.69v.83h-32.96v-.83c0-.62.5-1.12 1.12-1.12h30.73c.61.01 1.11.51 1.11 1.12z" fill="#c47544"/><path d="m69 34.52v3.64h-34.24c.94-1.03 1.46-2.22 1.27-3.64z" fill="#aa6139"/><g><path d="m35.42 46.22h1.63v17.41h-1.63z" fill="#3f4346"/><g fill="#edd9d2"><path d="m34.55 41.12h3.37v5.51h-3.37z"/><path d="m34.55 62.89h3.37v1.99h-3.37z"/></g></g><g><path d="m64.96 46.22h1.63v17.41h-1.63z" fill="#3f4346"/><g fill="#edd9d2"><path d="m64.1 41.12h3.37v5.51h-3.37z"/><path d="m64.1 62.89h3.37v1.99h-3.37z"/></g></g><path d="m69 38.17v4h-39.38v-2.39c0-.89.72-1.61 1.61-1.61z" fill="#c47544"/><path d="m43.01 31.81-4.15-17.18c-.15-.63.32-1.23.97-1.23h5.43c.16 0 .3.08.39.21 1.93 2.97 5.34 4.64 8.88 4.33l5.47-.47c4.21-.36 7.9 2.79 8.2 7.01.31 4.38-3.16 8.1-7.55 8.1h-16.67c-.46 0-.86-.32-.97-.77z" fill="#aa6139"/><path d="m42.82 18.38h1.12v9.68h-1.12z" fill="#3f4346" transform="matrix(.972 -.235 .235 .972 -4.241 10.84)"/><g><path d="m44.07 26.93c-.02-.11.04-.21.15-.23.1-.03.21.03.23.13.02.11-.03.21-.15.23-.01.01-.03.01-.04.01-.09 0-.17-.05-.19-.14zm-.26-1.05c-.02-.1.04-.21.15-.23.11-.02.21.03.23.15.03.1-.03.21-.13.23-.02 0-.03.01-.06.01-.08-.01-.17-.08-.19-.16zm-.25-1.04c-.02-.11.03-.21.15-.24.1-.03.21.03.23.13.02.11-.04.21-.15.25-.01 0-.03 0-.04 0-.09 0-.16-.06-.19-.14zm-.25-1.06c-.02-.1.04-.21.15-.23.11-.02.21.04.23.15.03.1-.03.21-.15.23-.01 0-.02.01-.04.01-.09 0-.17-.07-.19-.16zm-.25-1.04c-.03-.11.03-.21.15-.23.1-.03.2.03.23.13.02.11-.04.21-.15.25-.02 0-.03 0-.04 0-.09 0-.17-.06-.19-.15zm-.26-1.05c-.02-.1.04-.21.15-.23.1-.02.21.04.23.15.02.1-.03.21-.15.23-.01.01-.02.01-.04.01-.09 0-.16-.07-.19-.16zm-.25-1.04c-.02-.11.04-.21.15-.23.11-.03.21.03.23.13.03.11-.03.21-.13.25-.02 0-.03 0-.04 0-.1 0-.19-.06-.21-.15zm-.25-1.05c-.02-.1.03-.21.15-.23.1-.02.21.04.23.15.02.1-.04.21-.15.23-.01.01-.03.01-.04.01-.09 0-.17-.07-.19-.16z" fill="#f9d557"/></g></g></svg>