<svg id="Layer_1" enable-background="new 0 0 512 512" viewBox="0 0 512 512" xmlns="http://www.w3.org/2000/svg"><g><path d="m141.869 280.39 6.939 38.659c.887 4.942.585 10.025-.881 14.828l-13.121 42.983c-1.08 3.537-4.343 5.953-8.041 5.953h-18.439c-3.531 0-5.97-3.532-4.721-6.834l13.005-34.371c.645-1.704.806-3.553.467-5.343l-12.506-65.939z" fill="#fd8087"/><path d="m339.52 305.735 2.49 11.848c1.234 5.87.773 11.969-1.327 17.587l-15.773 42.191c-1.226 3.278-4.358 5.451-7.857 5.451h-24.34c-3.448 0-5.263-4.088-2.95-6.645l11.119-12.293c2.34-2.586 3.951-5.748 4.669-9.16l4.269-20.285c.524-2.49-.166-5.081-1.868-6.973-7.659-8.513-28.998-33.704-30.783-52z" fill="#fd8087"/><path d="m433.65 223.384c0 22.097-17.027 39.616-28.244 52.076l-24.088 54.867c.544-2.946-.534-5.953-2.822-7.913-3.767-3.223-9.75-8.98-14.902-16.77-.123-.195-.257-.37-.411-.544-.031-.031-.051-.072-.082-.103-1.498-1.724-3.838-2.525-6.127-2.083-3.828.749-7.79 1.426-11.895 2.032-18.094 2.709-38.877 4.116-62.277 4.711-20.917.534-41.956.051-62.216-1.067-3.51-.185-7.01-.4-10.468-.626-2.709-.174-4.875 2.237-4.403 4.916l1.109 6.168c.893 4.947.585 10.027-.872 14.83l-13.127 42.982c-1.078 3.541-4.341 5.953-8.036 5.953h-18.443c-3.531 0-5.973-3.53-4.721-6.835l13.004-34.371c.647-1.704.811-3.551.472-5.337l-5.46-28.788c-.349-1.806-1.837-3.182-3.674-3.377-4.382-.472-8.662-.965-12.829-1.468-37.902-4.526-66.557-9.842-75.896-11.659-2.042-.39-4.105-.493-6.178-.339-18.977 1.406-41.094-8.129-48.34-11.557-1.714-.811-3.531-1.365-5.409-1.673l-10.438-1.683c-3.962-.636-6.877-4.054-6.877-8.077v-25.227c0-4.085 3.017-7.523 7.061-8.088 14.389-2.032 29.045-12.439 43.085-25.052 2.966-2.658 5.912-5.419 8.816-8.221 1.396-1.344 1.252-3.582-.267-4.752-.01 0-.01-.01-.01-.01-7.79-5.973-15.436-13.958-21.943-24.632-2.576-4.228.708-9.616 5.655-9.339l50.751 2.812s2.083-.8 5.173-1.426c.616-.462 1.232-.913 1.837-1.344 6.928-4.906 15.302-8.714 24.19-11.649 25.525-8.426 55.319-9.617 67.46-8.642 16.37 1.303 53.03-1.314 94.267-7.205s142.71 5.891 147.297 79.868c.186 2.967.278 5.851.278 8.642z" fill="#ffc4c8"/><g><path d="m426.477 213.319c-3.061 0-5.954-1.838-7.155-4.855-1.57-3.95.358-8.424 4.306-9.996 4.695-1.874 12.554-5.609 20.382-10.475-6.148-5.597-9.574-11.839-11.425-16.403-4.714-11.626-4.186-24.741 1.282-31.893 5.256-6.875 17.995-12.571 29.397-9.79 6.092 1.486 16.792 6.706 20.008 24.973 2.035 11.556-3.333 21.778-10.984 30.104.78.153 1.519.28 2.212.382.161.024.322.053.481.087 7.326 1.565 21.282 3.493 27.536 2.003 4.134-.985 8.287 1.57 9.271 5.705.985 4.135-1.57 8.286-5.705 9.271-11.329 2.701-30.883-1.2-34.088-1.874-5.126-.78-9.627-2.039-13.581-3.628-.38.268-.758.53-1.135.79-13.474 9.247-27.376 14.819-27.961 15.053-.932.371-1.895.546-2.841.546zm30.592-68.746c-4.686 0-9.575 2.648-10.973 4.476-1.333 1.743-2.527 8.663.756 16.758 2.334 5.756 5.998 9.859 10.054 12.783 7.356-6.479 12.478-13.807 11.204-21.039-1.295-7.36-4.153-11.628-8.494-12.687-.826-.201-1.683-.291-2.547-.291z" fill="#fd8087"/></g><path d="m433.65 223.384c0 20.256-4.804 35.931-14.245 48-1.818 2.324-2.843 5.17-3.074 8.111l-2.922 37.362c-.258 3.304-.882 6.569-1.859 9.736l-15.525 50.307c-1.078 3.51-4.331 5.912-8.015 5.912h-25.258c-3.448 0-5.265-4.074-2.966-6.64l12.688-14.102c2.428-2.698 4.063-6.014 4.725-9.582l5.032-27.098 3.613-45.579c.257-3.161 1.386-6.199 3.325-8.713 10.592-13.712 15.251-32.021 13.743-56.355-2.802-45.24-42.048-69.759-81.551-80.648 46.79 3.367 108.461 23.349 112.012 80.648.185 2.966.277 5.85.277 8.641z" fill="#fdb4ba"/><g><path d="m69.544 245.149c-4.252 0-7.697-3.446-7.697-7.697v-3.929c0-4.252 3.446-7.697 7.697-7.697 4.252 0 7.697 3.446 7.697 7.697v3.929c0 4.251-3.445 7.697-7.697 7.697z" fill="#7a6d79"/></g><g fill="#fdb4ba"><path d="m104.459 217.524c-.051 4.218-3.49 7.595-7.697 7.595h-.103c-1.437-.021-23.821-.575-46.513-15.836 2.966-2.658 5.912-5.419 8.816-8.221 1.396-1.344 1.252-3.582-.267-4.752 19.141 12.921 37.881 13.404 38.169 13.414 4.249.051 7.646 3.551 7.595 7.8z"/><path d="m131.81 171.668c-3.777 1.971-8.426.503-10.386-3.264-4.557-8.734-18.453-3.643-19.049-3.418-.995.37-2.094.554-3.161.493l-6.065-.339s2.083-.8 5.173-1.426c.616-.462 1.232-.913 1.837-1.344 6.928-4.906 15.302-8.714 24.19-11.649 4.229 2.042 8.026 5.378 10.725 10.561 1.96 3.776.503 8.426-3.264 10.386z"/></g><g><path d="m363.101 304.997c-1.498-1.724-3.838-2.525-6.127-2.083-3.828.749-7.79 1.426-11.895 2.032-4.824-9.278-8.087-20.537-6.938-33.386.38-4.239 4.116-7.348 8.354-6.989 4.228.38 7.359 4.126 6.979 8.354-1.211 13.567 3.438 23.779 9.627 32.072z" fill="#fdb4ba"/></g><g fill="#fdb4ba"><path d="m169.64 307.481c-.349-1.806-1.837-3.182-3.674-3.377-4.382-.472-8.662-.965-12.829-1.468l-5.85-30.872c-.801-4.177 1.95-8.211 6.127-9.001 4.167-.79 8.2 1.95 8.991 6.127z"/><path d="m220.587 308.589c-3.51-.185-7.01-.4-10.468-.626-2.709-.174-4.875 2.237-4.403 4.916l-5.829-32.493c-.749-4.187 2.032-8.18 6.22-8.929 4.187-.77 8.18 2.022 8.929 6.209z"/></g></g><g/><g/><g/><g/><g/><g/><g/><g/><g/><g/><g/><g/><g/><g/><g/></svg>