<svg id="Capa_1" enable-background="new 0 0 512 512" height="512" viewBox="0 0 512 512" width="512" xmlns="http://www.w3.org/2000/svg"><g><path d="m9.509 107.533c.964.964 1.777 2.054 2.431 3.228-6.952 16.075-11.94 59.855-11.94 111.352 0 51.052 4.902 94.522 11.76 110.932-.611 1.019-1.34 1.972-2.192 2.824l-3.932 3.932c-7.088 7.088-7.157 18.559-.154 25.731 7.122 7.295 18.832 7.365 26.041.156l1.073-1.073c.342-.342.825-.505 1.304-.44 136.469 18.39 274.788 18.39 411.257 0 .48-.065.962.098 1.304.44l1.229 1.229c7.148 7.148 18.738 7.148 25.887 0 7.148-7.148 7.149-18.738 0-25.887l-4.088-4.088c-.884-.884-1.638-1.874-2.263-2.936 6.833-16.497 11.712-59.887 11.712-110.82 0-51.363-4.962-95.05-11.887-111.226.665-1.222 1.498-2.356 2.496-3.354l3.962-3.962c7.186-7.186 7.186-18.836 0-26.022l-.362-.362c-6.932-6.932-18.154-6.991-25.158-.131-1.919 1.88-4.595 2.766-7.259 2.415-133.557-17.616-268.849-17.616-402.406 0-2.663.352-5.338-.535-7.257-2.414-6.856-6.712-17.818-6.72-24.684-.017l-1.063 1.037c-7.036 6.87-7.103 18.163-.15 25.116z" fill="#e2e2e2"/><ellipse cx="51.375" cy="222.113" fill="#528fd8" rx="17.819" ry="117.929"/><g fill="#b2caec"><path d="m37.143 293.07c.63 5.53 1.333 10.678 2.098 15.388h24.27c.765-4.711 1.468-9.859 2.098-15.388-.312-.038-.629-.064-.951-.064h-26.564c-.323 0-.639.026-.951.064z"/><path d="m34.8 265.481c.32 5.345.696 10.499 1.125 15.427h30.899c.429-4.929.806-10.082 1.126-15.427-.169-.011-.337-.026-.509-.026h-32.132c-.171.001-.34.015-.509.026z"/><path d="m33.716 237.914c.107 5.266.266 10.421.474 15.443h34.371c.208-5.022.367-10.177.474-15.443-.065-.002-.129-.01-.195-.01h-34.929c-.066 0-.129.008-.195.01z"/><path d="m69.194 222.113c0-3.969-.03-7.892-.088-11.76h-35.461c-.058 3.868-.088 7.791-.088 11.76 0 1.236.004 2.466.01 3.693h.001 35.618c.005-1.227.008-2.457.008-3.693z"/><path d="m33.922 198.24c.094.004.186.014.281.014h34.345c.095 0 .187-.011.281-.014-.164-5.285-.383-10.438-.65-15.439h-33.607c-.267 5.002-.486 10.155-.65 15.439z"/><path d="m35.337 170.673c.204.016.409.031.618.031h30.84c.209 0 .414-.015.618-.031-.395-5.383-.85-10.534-1.36-15.422h-29.356c-.509 4.888-.965 10.039-1.36 15.422z"/><path d="m40.763 127.376c-.929 4.566-1.789 9.713-2.567 15.366.36.051.724.087 1.098.087h24.108c.392 0 .774-.039 1.15-.095-.777-5.649-1.637-10.794-2.565-15.358z"/></g><path d="m473.577 339.957-4.088-4.088c-.884-.884-1.638-1.874-2.263-2.936 6.833-16.497 11.712-59.887 11.712-110.82 0-13.866-.364-27.163-1.029-39.521-4.484-1.142-9.433.001-12.976 3.471-1.47 1.44-3.52 2.119-5.56 1.85-102.295-13.493-205.918-13.493-308.213 0-2.039.27-4.089-.409-5.559-1.849-5.251-5.141-13.647-5.147-18.906-.013l-.814.795c-5.389 5.262-5.441 13.911-.115 19.237l3.323 3.323c.739.738 1.361 1.573 1.862 2.472-5.325 12.312-9.146 45.845-9.146 85.287 0 32.417 2.582 60.829 6.457 76.764 105.602 7.651 211.795 4.407 316.892-9.755.48-.064.962.098 1.304.441l1.229 1.229c7.148 7.148 18.739 7.148 25.887 0 7.152-7.148 7.152-18.739.003-25.887z" fill="#cecece"/><path d="m152.453 238.608c.739.739 1.361 1.573 1.862 2.472-5.325 12.312-9.146 45.844-9.146 85.287 0 39.102 3.754 72.397 9.007 84.965-.468.78-1.026 1.51-1.679 2.163l-3.012 3.012c-5.429 5.429-5.481 14.215-.118 19.708 5.455 5.587 14.424 5.641 19.946.12l.822-.822c.262-.262.632-.387.999-.337 104.525 14.085 210.467 14.085 314.992 0 .367-.049.737.075.999.337l.941.941c5.475 5.475 14.352 5.475 19.827 0 5.475-5.475 5.475-14.352 0-19.827l-3.131-3.131c-.677-.677-1.255-1.435-1.733-2.249 5.234-12.636 8.971-45.869 8.971-84.88 0-39.341-3.801-72.801-9.104-85.191.51-.936 1.147-1.804 1.912-2.569l3.034-3.034c5.504-5.504 5.504-14.427 0-19.931l-.277-.277c-5.31-5.31-13.904-5.354-19.269-.1-1.47 1.44-3.52 2.119-5.56 1.85-102.295-13.493-205.918-13.493-308.213 0-2.039.269-4.089-.41-5.559-1.849-5.251-5.141-13.647-5.147-18.906-.013l-.814.795c-5.389 5.262-5.441 13.912-.115 19.237z" fill="#c4e2ff"/><ellipse cx="186.569" cy="326.368" fill="#82aee3" rx="13.648" ry="81.899"/><path d="m507.565 215.366c-3.703-3.706-9.259-5.002-14.322-3.191-.176.063-.353.122-.527.192-1.603.651-3.109 1.614-4.42 2.899-1.47 1.44-3.52 2.119-5.56 1.85-5.87-.774-11.745-1.499-17.623-2.184l11.501 23.325c5.304 12.39 9.104 45.851 9.104 85.191 0 39.01-3.737 72.244-8.971 84.879 0 0-4.887 22.088-22.406 30.686 10.607-1.137 21.203-2.411 31.784-3.837.795-.107 1.33.669 1.94 1.279 4.993 4.993 12.808 5.417 18.3 1.303.583-.437 1.171-.947 1.522-1.298.002-.002.004-.003.006-.005 2.738-2.737 4.106-6.325 4.106-9.913 0-.064-.008-.128-.009-.192-.022-1.583-.355-3.45-1.017-5.083-1.288-3.177-2.978-4.536-6.211-7.769-.677-.677-1.255-1.435-1.733-2.249 6.702-16.185 8.552-56.184 8.874-74.072.389-21.605-.663-76.502-9.008-95.998.986-1.811 1.748-2.405 4.946-5.604 5.504-5.504 5.504-14.427 0-19.931z" fill="#b3dafe"/></g></svg>