<svg id="Layer_1" enable-background="new 0 0 280.3 289.5" height="512" viewBox="0 0 280.3 289.5" width="512" xmlns="http://www.w3.org/2000/svg"><g><path d="m102.3 152.3h75.7v85.6h-75.7z" fill="#f9d7aa"/><path d="" fill="none" stroke="#dcb089" stroke-miterlimit="10" stroke-width="1.003"/><path d="" fill="none" stroke="#dcb089" stroke-miterlimit="10" stroke-width=".943"/><path d="m279 254.3c0-27-25.2-36.9-37.2-39.3-12-2.5-47-11.7-64.1-15.1-9.9 16.2-33.4 22.8-37.6 23.8-4.2-1-27.7-7.6-37.6-23.8-17.1 3.4-52.1 12.6-64.1 15.1s-37.2 12.3-37.2 39.3c19.1 8.6 64.7 28.9 138.8 28.9 74.3-.1 120-20.3 139-28.9z" fill="#f7f7f7"/><g><path d="m102.3 152.3v13.8s14.8 36.5 44.8 36.5c14.4 0 24.4-6.9 31-13.2l-.1-35.9z" fill="#e8ac6b"/></g><g fill="#f9d7aa"><path d="m194.8 111.9 4.7-15s8.3-2.3 12.6 6.6-7.1 27.2-16.9 28.7c-2.7-7-.4-20.3-.4-20.3z"/><path d="m84.9 111.9-4.7-15s-8.3-2.3-12.6 6.6 7.1 27.2 16.9 28.7c2.7-7 .4-20.3.4-20.3z"/><path d="m199.2 112c0-.6 0-1.3 0-1.9 0-39 11.4-83.1-57.9-83.7-.3 0-1.5 0-1.6 0 0 0-1.2 0-1.6 0-69.2.6-57.8 44.7-57.8 83.7v1.9s-.1 29.1 4.2 36.3c4.3 7.3 29.7 40.5 53.8 40.5h2.8c24.1 0 49.5-33.2 53.8-40.5 4.4-7.3 4.3-36.3 4.3-36.3z"/></g><path d="m194.4 43c-5.6-6.9-11.8-11.3-18-14.2-1.8-2.4-4.8-3.7-7.3-4.4-73.4-25.7-80.8 16.3-80.8 16.3-1.6.2-2.8.7-4 1.5-7.8 5.3-13.8 17.5-6.7 55 1.5.1 4.5-1.2 6.7 7.9.5 1.5 3.3 2.5 3.8 0-.2-2.3-3.2-18.7 5-23.2 2-1.3 3.5-4 2.5-8.3s-2.5-14.3-3-16.4c-.5-2-.4-4.5 5.1-3.3 5.4 1.3 30.9 9.6 42.6 9.6 0 0 0-.1.1-.1 0 0 0 .1.1.1 11.6 0 37.1-8.3 42.6-9.6 5.4-1.3 5.6 1.3 5.1 3.3s-2 12.1-3 16.4.5 7 2.5 8.3c8.2 4.5 5.2 20.9 5 23.2.5 2.5 3.3 1.5 3.8 0 2.2-9.1 5.2-7.8 6.7-7.9 4.2-37.9.3-44.4-8.8-54.2z" fill="#3a2a1f"/><path d="m140.2 6.3c-38.7 0-66.9 17.7-81.4 41.2 3.3 5.7 15.7 17.5 15.7 17.5 10.8 2.9 51.3 8.6 65.6 8.6 14.3 0 54.8-5.6 65.6-8.6 0 0 12.5-11.8 15.8-17.5-14.4-23.4-42.7-41.2-81.3-41.2z" fill="#031525"/><path d="m140.2 68c-.1 0-.1 0 0 0-10.8 0-52.7-.9-65.7-2.9 2 7.7 40.2 16.2 65.6 16.2 25.4 0 63.6-8.6 65.6-16.2-12.9 2-54.8 2.9-65.5 2.9z" fill="#010101"/><path d="m140.1 214.4c-5.2 0-13.4 3.6-11.2 13 .9 3.9 3.8 11.3 11.2 11.9 7.4-.6 10.4-8 11.2-11.9 2.3-9.4-5.9-13-11.2-13z" fill="#010101"/><path d="m178 193.8-37.9 20.6 16.5 18.5c.9 1 2.5 1 3.4 0l24.4-23.5z" fill="#eee"/><path d="m102.3 193.8 37.9 20.6-16.5 18.5c-.9 1-2.5 1-3.4 0l-24.4-23.5z" fill="#eee"/><g><path d="m151.7 283.1-4.4-49.8h-14.3l-4.4 49.8c6 0 16.2.2 23.1 0z" fill="#010101"/></g><path d="m147 34.7c-1.4-2.3-3.9-3.9-6.8-3.9s-5.4 1.6-6.8 3.9h-23.9s.7 4.1 3.7 4.1h3.5c.2.8.9 2.5 2.5 2.5h3.5c.2.8.9 2.5 2.5 2.5h9c1.4 1.7 3.6 2.7 5.9 2.7 2.4 0 4.5-1.1 5.9-2.7h9c1.7 0 2.3-1.7 2.5-2.5h3.5c1.7 0 2.3-1.7 2.5-2.5h3.5c3 0 3.7-4.1 3.7-4.1z" fill="#ffbb16"/><path d="m140.2 52.8s-37.1.3-66.7 11.1c.1.6.3.9.5 1.2.4.6.9.7.9.7s37-8.4 65.3-8.4c28.3 0 65.3 8.4 65.3 8.4s.5-.1.9-.7c.2-.3.4-.6.5-1.2-29.7-10.7-66.7-11.1-66.7-11.1z" fill="#ffbb16"/><path d="m183.9 201.2s-8.1 28.7-35 82c19.8-1 89-6.4 130.1-28.9-1.6-11.1-1.4-26.2-27.3-36.4-29-7.5-67.8-16.7-67.8-16.7z" fill="#031525"/><path d="m148.9 283.1 29.2-89.3 19.9 26.8-10.9 7.7 10.6 11.1c-16.3 22-34.6 43.1-34.6 43.1z" fill="#010101"/><path d="m96.7 201.2s8.1 28.7 35 82c-19.8-1-89-6.4-130.1-28.9 1.6-11.1 1.4-26.2 27.3-36.4 28.9-7.5 67.8-16.7 67.8-16.7z" fill="#031525"/><path d="m131.7 283.1-29.2-89.3-19.9 26.8 10.9 7.7-10.6 11.1c16.3 22 34.6 43.1 34.6 43.1z" fill="#010101"/><path d="m213.8 255.5c-.9-1.6-2.6-2.7-4.6-2.7s-3.7 1.1-4.6 2.7h-16.2s.4 2.8 2.5 2.8h2.4c.2.6.6 1.7 1.7 1.7h2.4c.2.6.6 1.7 1.7 1.7h6.1c1 1.1 2.4 1.8 4 1.8s3-.7 4-1.8h6.1c1.1 0 1.6-1.2 1.7-1.7h2.4c1.1 0 1.6-1.2 1.7-1.7h2.4c2.1 0 2.5-2.8 2.5-2.8z" fill="#ffbb16"/></g></svg>