<svg id="Layer_1" height="512" viewBox="0 0 50 50" width="512" xmlns="http://www.w3.org/2000/svg"><g id="XMLID_4271_"><g id="XMLID_4285_"><g id="XMLID_4358_"><path d="m19.5 22.4h10.9v15.4h-10.9z" fill="#fbc791"/></g><g id="XMLID_4355_"><path d="m33.6 17.3c0 5.3-3.9 12-8.6 12-4.8 0-8.6-6.7-8.6-12s3.9-8.2 8.6-8.2c4.8 0 8.6 2.9 8.6 8.2z" fill="#ffe0b2"/></g><g id="XMLID_4354_"><ellipse cx="33.2" cy="20.4" fill="#ffe0af" rx="2" ry="1.2" transform="matrix(.261 -.965 .965 .261 4.828 47.133)"/></g><g id="XMLID_4353_"><ellipse cx="16.8" cy="20.4" fill="#ffe0af" rx="2" ry="1.2" transform="matrix(-.261 -.965 .965 -.261 1.475 41.952)"/></g><g id="XMLID_4352_"><path d="m31.5 33.5-1.4 8.9-2.1 5.3h-6l-2.1-5.3-1.4-8.9.5-3.1 6 .7 6-.7z" fill="#e6e6e5"/></g><g id="XMLID_4351_"><path d="m46.9 37.2c-.2-1.1-.9-2-1.9-2.4-3.3-1.6-11.2-3.9-14.1-4.4 0 0-.9 9.6-3.1 17.4h21z" fill="#525252"/></g><g id="XMLID_4350_"><path d="m28 47.7h2.1l5.5-9.8-2.8-2.6 2.1-.4-1.8-4c-.8-.3-1.5-.5-2-.6-.1.1-1 9.7-3.1 17.4z" fill="#676767"/></g><g id="XMLID_4349_"><path d="m3.1 37.2c.2-1.1.9-2 1.9-2.4 3.3-1.6 11.2-3.9 14.1-4.4 0 0 .9 9.6 3.1 17.4h-21.2z" fill="#525252"/></g><g id="XMLID_4348_"><path d="m22 47.7h-2.1l-5.5-9.8 2.8-2.6-2-.3 1.8-4c.8-.3 1.5-.5 2-.6 0 0 .9 9.6 3 17.3z" fill="#676767"/></g><g id="XMLID_4347_"><path d="m26.8 47.7-.8-12.4h-2l-.8 12.4z" fill="#ed7161"/></g><g id="XMLID_4346_"><path d="m27.2 32.7-1.1-1.6h-2.2l-1.1 1.6 1.2 2.6h2z" fill="#d66556"/></g><g id="XMLID_4345_"><path d="m31 30.4-.5-2.5-5.5 3.2 1.7 3.4z" fill="#cdcccc"/></g><g id="XMLID_4344_"><path d="m19 30.4.5-2.5 5.5 3.2-1.7 3.4z" fill="#cdcccc"/></g><g id="XMLID_4341_"><g id="XMLID_4343_"><path d="m39.9 41.3-4.7.6 4.7.6 4.7-.6z" fill="#ffcc67"/></g><g id="XMLID_4342_"><circle cx="39.9" cy="41.9" fill="#ffcc67" r="1.3"/></g></g><g id="XMLID_4311_"><g id="XMLID_4328_"><path d="m33.5 18.7c-.1.7-.2 1.4-.4 2.1h-.7c.1-3-1-5.6-2.7-6.6l.4-3.5c2.4.7 3.9 4.1 3.4 8z" fill="#a67c51"/></g><g id="XMLID_4327_"><path d="m19.8 10.7.4 3.5c-1.7 1-2.8 3.6-2.7 6.6h-.7c-.2-.6-.3-1.3-.4-2.1-.4-3.9 1.1-7.3 3.4-8z" fill="#a67c51"/></g></g><g id="XMLID_4290_"><path d="m15.2 12.8h19.5c.9-.4 2.3-1.4 2.3-2.5 0-3.3-5.4-8-12.1-8s-12.1 4.7-12.1 8c.1 1.1 1.5 2 2.4 2.5z" fill="#525252"/></g><g id="XMLID_4288_"><path d="m15.2 14.7c-.9 2.6 3.5 4.3 9.7 4.3s10.7-1.7 9.8-4.3z" fill="#525252"/></g><g id="XMLID_4287_"><path d="m15.2 12.8h19.5v2h-19.5z" fill="#ffcc67"/></g><g id="XMLID_4286_"><path d="m26.4 7.3-.4-.6c-.2-.3-.6-.5-1-.5s-.7.2-1 .5l-.4.6h-3l.7 1.1h.7l.7 1.1h.7l.7 1.1h1.2l.7-1.1h.7l.7-1.1h.7l.7-1.1z" fill="#ffcc67"/></g></g><g id="XMLID_4272_"><g id="XMLID_4279_"><g id="XMLID_4284_"><path d="m42.5 33-6.2-2c-.3-.1-.5.1-.6.3l-.5 1.5c-.1.3.1.5.3.6l6.2 2.1c.3.1.5-.1.6-.3l.5-1.5c.1-.3-.1-.6-.3-.7z" fill="#333"/></g><g id="XMLID_4280_"><g id="XMLID_4283_"><path d="m36.5 31.3h1v2.5h-1z" fill="#ffcc67" transform="matrix(.949 .317 -.317 .949 12.219 -10.056)"/></g><g id="XMLID_4282_"><path d="m38.5 32h1v2.5h-1z" fill="#ffcc67" transform="matrix(.949 .317 -.317 .949 12.523 -10.63)"/></g><g id="XMLID_4281_"><path d="m40.4 32.6h1v2.5h-1z" fill="#ffcc67" transform="matrix(.949 .317 -.317 .949 12.819 -11.199)"/></g></g></g><g id="XMLID_4273_"><g id="XMLID_4278_"><path d="m7.5 33 6.2-2.1c.3-.1.5.1.6.3l.5 1.5c.1.3-.1.5-.3.6l-6.2 2.1c-.3.1-.5-.1-.6-.3l-.5-1.5c-.1-.2.1-.5.3-.6z" fill="#333"/></g><g id="XMLID_4274_"><g id="XMLID_4277_"><path d="m12.4 31.3h1v2.5h-1z" fill="#ffcc67" transform="matrix(-.949 .317 -.317 -.949 35.524 59.398)"/></g><g id="XMLID_4276_"><path d="m10.5 32h1v2.5h-1z" fill="#ffcc67" transform="matrix(-.949 .317 -.317 -.949 32.007 61.243)"/></g><g id="XMLID_4275_"><path d="m8.6 32.6h1v2.5h-1z" fill="#ffcc67" transform="matrix(-.949 .317 -.317 -.949 28.485 63.091)"/></g></g></g></g></g></svg>