<svg id="Pinecone" enable-background="new 0 0 64 64" viewBox="0 0 64 64" xmlns="http://www.w3.org/2000/svg"><g><g><path d="m44.61707 22.11239c0-9.78108-6.90366-22.10882-12.61707-22.10882s-12.61708 12.32774-12.61708 22.10882 5.64886 13.3116 12.61707 13.3116 12.61708-3.53052 12.61708-13.3116z" fill="#ad6340"/><path d="m34.50053.70984c-8.01361 4.9315-13.72964 13.9165-14.88778 24.50794-.14947-.95269-.22415-1.98006-.22415-3.1008.00001-9.78822 6.89287-22.11698 12.6089-22.11698.82192 0 1.66242.26155 2.50303.70984z" opacity=".1"/></g><g><path d="m11.94794 32.36012c-1.51276-9.66339 3.40121-22.91053 9.04588-23.79417s14.37188 10.22803 15.88464 19.89142-3.52209 14.02508-10.40647 15.1028c-6.88437 1.07771-13.01129-1.53666-14.52405-11.20005z" fill="#9a5136"/><path d="m19.38861 29.234c0 5.21163 1.10205 10.14314 3.06341 14.49557-5.13696-.41101-9.28382-3.64259-10.49806-11.37607-1.51306-9.65745 3.39974-22.9015 9.04109-23.7794 1.28891-.20545 2.74588.22415 4.24036 1.12074-3.67999 5.4359-5.8468 12.19799-5.8468 19.53916z" opacity=".1"/></g><path d="m51.75345 32.36012c1.51276-9.66339-3.40121-22.91053-9.04588-23.79417s-14.37188 10.22803-15.88464 19.89142 3.52209 14.02508 10.40647 15.1028c6.88437 1.07771 13.0113-1.53666 14.52405-11.20005z" fill="#9a5136"/><path d="m44.61707 37.56071c0-9.78108-6.90366-22.10882-12.61707-22.10882s-12.61708 12.32775-12.61708 22.10882 5.64886 13.31159 12.61707 13.31159 12.61708-3.53051 12.61708-13.31159z" fill="#be7d59"/><g><path d="m6.56827 47.65376c-2.46031-9.46659 1.12049-23.1345 6.65021-24.57163 5.52971-1.43714 15.31229 8.75771 17.77261 18.2243 2.46031 9.46659-2.11887 14.30449-8.86304 16.05726s-13.09947-.24334-15.55978-9.70993z" fill="#ad6340"/><path d="m29.08345 53.44311c-1.69993 1.92397-4.14698 3.19418-6.94896 3.92272-6.74339 1.75591-13.11328-.24285-15.56034-9.71354-2.46575-9.4707 1.12086-23.12565 6.65002-24.56392 1.8307-.467 4.10959.31753 6.42587 1.92397-.18675 1.38229-.26143 2.78328-.26143 4.22166 0 9.62004 3.73597 18.25023 9.69484 24.20911z" opacity=".1"/></g><path d="m57.65952 47.65376c2.46031-9.46659-1.12049-23.1345-6.65021-24.57163-5.52971-1.43714-15.31229 8.75771-17.77261 18.2243-2.46031 9.46659 2.11887 14.30449 8.86304 16.05726s13.09947-.24334 15.55978-9.70993z" fill="#ad6340"/><path d="m44.61707 50.68841c0-9.78108-6.90366-22.10882-12.61707-22.10882s-12.61708 12.32774-12.61708 22.10882 5.64885 13.31159 12.61707 13.31159 12.61708-3.53052 12.61708-13.31159z" fill="#9a5136"/><g><path d="m9.55432 56.28385c7.03879 6.28915 15.85318 7.70763 22.44567 7.70763s15.40698-1.41848 22.44567-7.70763c7.03879-6.28915 8.96235-16.28642 4.51205-18.80967-4.38148-2.48416-19.76517 1.34786-26.95773 7.46864-7.19246-6.12078-22.57614-9.9528-26.95773-7.46864-4.45028 2.52325-2.52663 12.52052 4.51207 18.80967z" fill="#be7d59"/><path d="m45.72713 61.58749c-4.80073 1.86798-9.67614 2.40966-13.72964 2.40966-6.59404 0-15.41087-1.41969-22.43451-7.71479-7.04234-6.29509-8.9663-16.28876-4.5206-18.81061 2.63392-1.49436 9.24654-.70984 15.67241 1.49448 3.43716 12.25397 13.20667 21.36963 25.01234 22.62126z" opacity=".1"/></g></g></svg>