<svg id="Capa_1" enable-background="new 0 0 512 512" viewBox="0 0 512 512" xmlns="http://www.w3.org/2000/svg"><g><path d="m256 0c-17.457 0-31.608 14.151-31.608 31.608v44.496h63.215v-44.496c0-17.457-14.151-31.608-31.607-31.608z" fill="#d97c41"/><path d="m353.177 378.172c0 66.942-62.151 114.454-87.051 130.803-2.627 1.72-5.573 2.709-8.571 2.957-30.178-14.367-42.703-89.624-21.047-119.327l1.051-109.859c5.965-1.154 12.136-1.751 18.44-1.751 53.674-.001 97.178 43.504 97.178 97.177z" fill="#df8a57"/><path d="m257.555 511.931c-4.028.35-8.149-.639-11.682-2.957-24.9-16.349-87.051-63.861-87.051-130.803 0-47.368 33.883-86.814 78.737-95.426l-1.051 109.859c-9.13 53.291 1.206 101.963 21.047 119.327z" fill="#d97c41"/><path d="m240.684 336.316c-12.861-49.988 17.239-100.938 67.227-113.798 49.989-12.86 100.938 17.239 113.798 67.227 16.043 62.36-30.464 121.507-49.734 142.695-4.765 5.239-12.168 7.144-18.87 4.854-27.102-9.257-96.378-38.618-112.421-100.978z" fill="#e4996d"/><path d="m271.316 336.316c12.861-49.988-17.239-100.938-67.227-113.798-49.989-12.86-100.938 17.239-113.798 67.227-16.043 62.36 30.464 121.507 49.734 142.695 4.765 5.239 12.168 7.144 18.87 4.854 27.102-9.257 96.377-38.618 112.421-100.978z" fill="#df8a57"/><path d="m349.458 273.546c0 64.387-59.771 110.086-83.713 125.807-4.224 2.771-9.313 3.564-14.031 2.39-36.425-26.42-47.432-90.514-25.909-129.175l-.762-87.226c9.684-3.41 20.109-5.254 30.957-5.254 51.612-.001 93.458 41.845 93.458 93.458z" fill="#d97c41"/><path d="m251.714 401.742c-1.906-.474-3.75-1.267-5.46-2.39-23.942-15.721-83.713-61.42-83.713-125.807 0-40.765 26.105-75.43 62.501-88.205l.762 87.226c-3.729 56.334 3.602 107.433 25.91 129.176z" fill="#c76d33"/><path d="m207.474 283.175c23.459-45.977 7.924-100.879-34.697-122.625s-96.189-2.102-119.648 43.875c-28.704 56.258-1.746 120.723 11.211 145.902 3.486 6.774 10.894 10.554 18.424 9.4 27.99-4.287 96.006-20.294 124.71-76.552z" fill="#d97c41"/><path d="m304.525 283.175c-23.459-45.977-7.924-100.879 34.697-122.625s96.189-2.102 119.648 43.875c28.704 56.258 1.746 120.723-11.211 145.902-3.486 6.774-10.894 10.554-18.424 9.4-27.989-4.287-96.005-20.294-124.71-76.552z" fill="#df8a57"/><path d="m491.635 278.058c-.69 6.336-6.027 11.126-12.393 11.147h-1.319c-29.906 0-107.644-4.656-152.931-49.933-18.945 24.982-43.021 42.753-56.228 51.427-5.944 3.904-13.619 3.904-19.563 0-1.916-1.257-4.049-2.699-6.377-4.337-68.782-70.427-58.226-188.467-3.348-219.348 80.241-3.997 162.44 18.142 210.766 62.615 47.667 43.865 44.463 120.253 41.393 148.429z" fill="#e4996d"/><path d="m242.824 286.361c-13.743-9.673-33.79-25.858-50.026-47.337-45.926 45.926-130.391 50.222-161.317 50.16-6.748-.01-12.249-5.357-12.486-12.094-1.01-29 1.37-104.492 48.934-147.461 43.371-39.189 106.82-59.401 171.547-62.615-38.421 61.526-41.258 152.535 3.348 219.347z" fill="#df8a57"/><ellipse cx="174.041" cy="180.667" fill="#fff" rx="30.241" ry="24.082"/><ellipse cx="337.958" cy="180.667" fill="#fff" rx="30.241" ry="24.082"/><g><path d="m191.666 164.985c-4.142 0-7.5-3.357-7.5-7.5v-12.362c0-4.143 3.358-7.5 7.5-7.5s7.5 3.357 7.5 7.5v12.362c0 4.143-3.358 7.5-7.5 7.5z" fill="#495560"/></g><g><path d="m320.334 164.985c-4.142 0-7.5-3.357-7.5-7.5v-12.362c0-4.143 3.358-7.5 7.5-7.5s7.5 3.357 7.5 7.5v12.362c0 4.143-3.358 7.5-7.5 7.5z" fill="#495560"/></g><g><path d="m256 172.343c-8.669 0-16.912-3.754-22.616-10.299-2.721-3.123-2.396-7.86.727-10.582 3.123-2.721 7.861-2.396 10.582.727 2.854 3.275 6.976 5.154 11.307 5.154s8.453-1.879 11.308-5.154c2.721-3.123 7.458-3.448 10.582-.727 3.123 2.722 3.448 7.459.726 10.582-5.705 6.546-13.948 10.299-22.616 10.299z" fill="#495560"/></g></g><g/><g/><g/><g/><g/><g/><g/><g/><g/><g/><g/><g/><g/><g/><g/></svg>