<svg height="512" viewBox="0 0 48 48" width="512" xmlns="http://www.w3.org/2000/svg"><g id="_17-pineapple" data-name="17-pineapple"><path d="m22 19c-5.527 0-10 6.681-10 12.552 0 9.606 3.684 15.448 7 15.448h10c3.316 0 7-5.842 7-15.448 0-5.871-4.473-12.552-10-12.552z" fill="#cc5700"/><path d="m31.16 8.44a9.048 9.048 0 0 1 2.84-.44c-3 3-4 4-4 6l.03.19a7.571 7.571 0 0 0 -3.2 1.41l-.81-1.89a6.011 6.011 0 0 1 2.11-3.55 8.581 8.581 0 0 1 3.03-1.72z" fill="#abcc00"/><path d="m21.17 15.6a7.571 7.571 0 0 0 -3.2-1.41l.03-.19c0-2-1-3-4-6a9.048 9.048 0 0 1 2.84.44 8.581 8.581 0 0 1 3.03 1.72 6.011 6.011 0 0 1 2.11 3.55z" fill="#abcc00"/><path d="m23.09 3.04-2.1 4.73a4.534 4.534 0 0 0 -2.07-3.1l-.92-3.67c1.66 0 5 2 5 2z" fill="#abcc00"/><path d="m30 1-.92 3.67a4.534 4.534 0 0 0 -2.07 3.1l-2.1-4.73.09-.04s3.34-2 5-2z" fill="#abcc00"/><path d="m29.08 4.67c1.32-.93 3.47-1.67 6.92-1.67-.95.95-3.71 1.9-4.84 5.44a8.581 8.581 0 0 0 -3.03 1.72l-.13-.16-.99-2.22v-.01a4.534 4.534 0 0 1 2.07-3.1z" fill="#7eaf31"/><path d="m18.92 4.67a4.534 4.534 0 0 1 2.07 3.1v.01l-.99 2.22-.13.16a8.581 8.581 0 0 0 -3.03-1.72c-1.13-3.54-3.89-4.49-4.84-5.44 3.45 0 5.6.74 6.92 1.67z" fill="#7eaf31"/><path d="m26.02 13.71.81 1.89a4.31 4.31 0 0 0 -1.83 3.4h-2a4.31 4.31 0 0 0 -1.83-3.4l.81-1.89 2.02-4.71z" fill="#7eaf31"/><path d="m28 10 .13.16a6.011 6.011 0 0 0 -2.11 3.55l-2.02-4.71-2.02 4.71a6.011 6.011 0 0 0 -2.11-3.55l.13-.16.99-2.22v-.01l2.1-4.73.91-2.04.91 2.04 2.1 4.73v.01z" fill="#527710"/><path d="m16 14a10.367 10.367 0 0 1 1.97.19 7.571 7.571 0 0 1 3.2 1.41 4.31 4.31 0 0 1 1.83 3.4h-4c0-2-1.89-5-3-5z" fill="#527710"/><path d="m32 14c-1.11 0-3 3-3 5h-4a4.31 4.31 0 0 1 1.83-3.4 7.571 7.571 0 0 1 3.2-1.41 10.367 10.367 0 0 1 1.97-.19z" fill="#527710"/><path d="m34 41 .7-.47a15.284 15.284 0 0 1 -1.09 2.6q.2-.39.39-.81z" fill="#cc5700"/><path d="m12.17 29.55a14.065 14.065 0 0 1 1.16-3.77c-.12.26-.23.52-.33.79v2.43z" fill="#cc5700"/><path d="m26 19a7.508 7.508 0 0 1 4.18 1.33c-.21-.13-.41-.26-.62-.37l-1.56 1.04-3-2z" fill="#cc5700"/><path d="m25 19-3 2-2.36-1.57v-.01a6.746 6.746 0 0 1 2.36-.42z" fill="#cc5700"/><path d="m13 36v3l-.12.08a27.968 27.968 0 0 1 -.82-5.5c.04.66.1 1.29.17 1.91z" fill="#cc5700"/><path d="m16 44-.76.51c-.12-.17-.24-.34-.35-.52s-.23-.37-.34-.57c-.1-.17-.19-.36-.29-.54-.01-.02-.02-.05-.03-.07-.11-.22-.21-.44-.31-.66-.2-.46-.39-.94-.56-1.45-.09-.26-.17-.52-.25-.79s-.16-.55-.23-.83l.12-.08 3 2z" fill="#f6a000"/><path d="m35.99 31.11c.01.15.01.29.01.44 0 .64-.02 1.27-.05 1.88q-.03.465-.06.9c-.02.29-.05.59-.08.87l-1.81-1.2v-3l1.86-1.24a3.469 3.469 0 0 1 .06.45c.03.3.06.6.07.9z" fill="#ffc501"/><path d="m35.73 29.03c.05.24.09.49.13.73l-1.86 1.24-3-2v-3l2.79-1.86c.13.21.26.43.38.65s.24.44.35.67.22.46.31.69.2.47.28.7c.11.27.2.54.28.81.13.45.25.91.34 1.37z" fill="#f6a000"/><path d="m25 46 3-2 3 2 1.24-.83a4.418 4.418 0 0 1 -3.24 1.83h-10c-1.28 0-2.62-.87-3.76-2.49l.76-.51 3 2 3-2z" fill="#cc5700"/><path d="m34 41v1.32q-.2.42-.39.81c0 .01 0 .02-.02.03a10.983 10.983 0 0 1 -1.35 2.01l-1.24.83-3-2v-3l3-2z" fill="#e86300"/><path d="m35.81 35.2c-.05.46-.11.91-.17 1.35a24.5 24.5 0 0 1 -.94 3.98l-.7.47-3-2v-3l3-2z" fill="#fc6b00"/><path d="m22 21v3l-3 2-3-2v-2.16a9.543 9.543 0 0 1 3.64-2.41z" fill="#fc6b00"/><path d="m19 29-3 2-3-2v-2.43c.1-.27.21-.53.33-.79l2.67-1.78 3 2z" fill="#e86300"/><path d="m16 31v3l-3 2-.77-.51c-.07-.62-.13-1.25-.17-1.91s-.06-1.33-.06-2.03a12.368 12.368 0 0 1 .17-2l.83-.55z" fill="#fc6b00"/><path d="m22 41v3l-3 2-3-2v-3l3-2z" fill="#fc6b00"/><path d="m25 36v3l-3 2-3-2v-3l3-2z" fill="#e86300"/><path d="m28 31v3l-3 2-3-2v-3l3-2z" fill="#fc6b00"/><path d="m33.79 24.14-2.79 1.86-3-2v-3l1.56-1.04c.21.11.41.24.62.37a10.622 10.622 0 0 1 1.71 1.39c.35.36.69.74 1.01 1.14a13.936 13.936 0 0 1 .89 1.28z" fill="#fc6b00"/><path d="m31 26v3l-3 2-3-2v-3l3-2z" fill="#e86300"/><path d="m19.64 19.43a9.543 9.543 0 0 0 -3.64 2.41v2.16l-2.67 1.78a11.7 11.7 0 0 1 6.31-6.36z" fill="#fc6b00"/><path d="m28 41v3l-3 2-3-2v-3l3-2z" fill="#faba01"/><path d="m31 36v3l-3 2-3-2v-3l3-2z" fill="#f6a000"/><path d="m22 31v3l-3 2-3-2v-3l3-2z" fill="#f6a000"/><path d="m19 39-3 2-3-2v-3l3-2 3 2z" fill="#faba01"/><path d="m34 34-3 2-3-2v-3l3-2 3 2z" fill="#faba01"/><path d="m25 26v3l-3 2-3-2v-3l3-2z" fill="#faba01"/><path d="m28 21v3l-3 2-3-2v-3l3-2z" fill="#f6a000"/><path d="m19 19h10v1h-10z" fill="#527710"/><path d="m22 19c-5.525 0-10 6.681-10 12.552 0 9.606 3.682 15.448 7 15.448h10c3.315 0 7-5.842 7-15.448 0-5.871-4.471-12.552-10-12.552z" fill="#cc5700"/><path d="m25.994 19a7.5 7.5 0 0 1 4.178 1.33c-.209-.13-.409-.26-.619-.37l-1.56 1.04-3-2z" fill="#cc5700"/><path d="m25 19-3 2-2.359-1.57v-.01a6.741 6.741 0 0 1 2.359-.42z" fill="#cc5700"/><path d="m16 44-.759.51c-.12-.17-.24-.34-.35-.52s-.23-.37-.34-.57c-.1-.17-.19-.36-.29-.54-.01-.02-.02-.05-.03-.07-.11-.22-.21-.44-.31-.66-.2-.46-.39-.94-.56-1.45-.09-.26-.169-.52-.249-.79s-.16-.55-.23-.83l.118-.08 3 2z" fill="#f8ef00"/><path d="m35.98 31.11c.01.15.01.29.01.44 0 .64-.02 1.27-.05 1.88q-.03.465-.06.9c-.02.29-.05.59-.08.87l-1.809-1.2v-3l1.859-1.24a3.469 3.469 0 0 1 .06.45c.03.3.06.6.07.9z" fill="#f8ef00"/><path d="m35.72 29.03c.05.24.09.49.13.73l-1.859 1.24-3-2v-3l2.789-1.86c.13.21.26.43.38.65s.24.44.35.67.22.46.309.69.2.47.28.7c.11.27.2.54.28.81.131.45.251.91.341 1.37z" fill="#f8ef00"/><path d="m25 46 3-2 3 2 1.24-.83a4.418 4.418 0 0 1 -3.247 1.83h-9.993c-1.279 0-2.619-.87-3.758-2.49l.758-.51 3 2 3-2z" fill="#cc5700"/><g fill="#c8da00"><path d="m33.991 41v1.32q-.2.42-.39.81c0 .01 0 .02-.02.03a11.032 11.032 0 0 1 -1.349 2.01l-1.24.83-3-2v-3l3-2z"/><path d="m35.8 35.2c-.05.46-.11.91-.17 1.35a24.612 24.612 0 0 1 -.939 3.98l-.7.47-3-2v-3l3-2z"/><path d="m22 21v3l-3 2-3-2v-2.16a9.539 9.539 0 0 1 3.639-2.41z"/><path d="m19 29-3 2-3-2v-2.43c.1-.27.209-.53.329-.79l2.671-1.78 3 2z"/><path d="m16 31v3l-3 2-.77-.51c-.07-.62-.13-1.25-.17-1.91s-.06-1.33-.06-2.03a12.368 12.368 0 0 1 .17-2l.83-.55z"/><path d="m21.996 41v3l-2.999 2-2.999-2v-3l2.999-2z"/><path d="m24.995 36v3l-2.999 2-2.999-2v-3l2.999-2z"/><path d="m27.993 31v3l-2.998 2-2.999-2v-3l2.999-2z"/><path d="m33.781 24.14-2.789 1.86-3-2v-3l1.56-1.04c.21.11.41.24.619.37a10.622 10.622 0 0 1 1.71 1.39c.35.36.689.74 1.009 1.14a13.936 13.936 0 0 1 .891 1.28z"/><path d="m30.992 26v3l-2.999 2-2.998-2v-3l2.998-2z"/></g><path d="m27.993 41v3l-2.998 2-2.999-2v-3l2.999-2z" fill="#faba01"/><path d="m30.992 36v3l-2.999 2-2.998-2v-3l2.998-2z" fill="#faba01"/><path d="m21.996 31v3l-2.999 2-2.999-2v-3l2.999-2z" fill="#faba01"/><path d="m18.997 39-2.999 2-2.998-2v-3l2.998-2 2.999 2z" fill="#faba01"/><path d="m33.991 34-2.999 2-2.999-2v-3l2.999-2 2.999 2z" fill="#faba01"/><path d="m24.995 26v3l-2.999 2-2.999-2v-3l2.999-2z" fill="#faba01"/><path d="m27.993 21v3l-2.998 2-2.999-2v-3l2.999-2z" fill="#faba01"/><path d="m24.995 26v3l-2.999 2-2.999-2v-3l2.999-2z" fill="#fc6b00"/><path d="m19 28v1l3 2 3-2v-1l-2.45 1.63a1 1 0 0 1 -1.109 0z" fill="#e86300"/><path d="m24 26.135v1.565a1 1 0 0 1 -.36.769l-1 .833a1 1 0 0 1 -1.28 0l-1-.833a1 1 0 0 1 -.36-.769v-1.565a1 1 0 0 1 .359-.768l1.641-1.367 1.639 1.367a1 1 0 0 1 .361.768z" fill="#f6a000"/><path d="m23 26.5v1a1.936 1.936 0 0 1 -.292 1.058.789.789 0 0 1 -1.414 0 1.936 1.936 0 0 1 -.294-1.058v-1a1.936 1.936 0 0 1 .293-1.058.789.789 0 0 1 1.414 0 1.936 1.936 0 0 1 .293 1.058z" fill="#ffc501"/><path d="m21.642 26.647h.707v.707h-.707z" fill="#4f4600" transform="matrix(.707 -.707 .707 .707 -12.649 23.454)"/><path d="m24.995 36v3l-2.999 2-2.999-2v-3l2.999-2z" fill="#fc6b00"/><path d="m19 38v1l3 2 3-2v-1l-2.45 1.63a1 1 0 0 1 -1.109 0z" fill="#e86300"/><path d="m24 36.135v1.565a1 1 0 0 1 -.36.769l-1 .833a1 1 0 0 1 -1.28 0l-1-.833a1 1 0 0 1 -.36-.769v-1.565a1 1 0 0 1 .359-.768l1.641-1.367 1.639 1.367a1 1 0 0 1 .361.768z" fill="#f6a000"/><path d="m23 36.5v1a1.936 1.936 0 0 1 -.292 1.058.789.789 0 0 1 -1.414 0 1.936 1.936 0 0 1 -.294-1.058v-1a1.936 1.936 0 0 1 .293-1.058.789.789 0 0 1 1.414 0 1.936 1.936 0 0 1 .293 1.058z" fill="#ffc501"/><path d="m21.642 36.647h.707v.707h-.707z" fill="#4f4600" transform="matrix(.707 -.707 .707 .707 -19.718 26.382)"/><path d="m27.993 31v3l-2.998 2-2.999-2v-3l2.999-2z" fill="#fc6b00"/><path d="m22 33v1l3 2 3-2v-1l-2.444 1.63a1 1 0 0 1 -1.109 0z" fill="#e86300"/><path d="m26.994 31.135v1.565a1 1 0 0 1 -.36.769l-1 .833a1 1 0 0 1 -1.279 0l-1-.833a1 1 0 0 1 -.355-.769v-1.565a1 1 0 0 1 .36-.768l1.64-1.367 1.639 1.367a1 1 0 0 1 .355.768z" fill="#f6a000"/><path d="m25.994 31.5v1a1.928 1.928 0 0 1 -.293 1.058.788.788 0 0 1 -1.413 0 1.928 1.928 0 0 1 -.288-1.058v-1a1.928 1.928 0 0 1 .293-1.058.788.788 0 0 1 1.413 0 1.928 1.928 0 0 1 .288 1.058z" fill="#ffc501"/><path d="m24.641 31.647h.707v.707h-.707z" fill="#4f4600" transform="matrix(.707 -.707 .707 .707 -15.306 27.038)"/><path d="m12.17 29.55-.001.004.831-.554z" fill="#c8da00"/><path d="m12.23 35.49.77.51-.77-.514z" fill="#c8da00"/><path d="m13 29-.831.554c-.008.051-.011.1-.019.154z" fill="#fc6b00"/><path d="m13 29 1.639 1.367a1 1 0 0 1 .36.768v1.565a1 1 0 0 1 -.36.768l-1 .834a1 1 0 0 1 -1.28 0l-.255-.212c.009.113.02.223.03.335l.31.207a1 1 0 0 0 1.109 0l2.447-1.632v-2z" fill="#fc6b00"/><path d="m12.445 34.63-.31-.207c.031.355.056.718.1 1.063l.765.514 3-2v-1l-2.444 1.63a1 1 0 0 1 -1.111 0z" fill="#e86300"/><path d="m12 31.55c0 .7.02 1.37.06 2.03.011.175.032.336.045.508l.255.212a1 1 0 0 0 1.28 0l1-.834a1 1 0 0 0 .36-.766v-1.565a1 1 0 0 0 -.36-.768l-1.64-1.367-.85.708a12.264 12.264 0 0 0 -.15 1.842z" fill="#f6a000"/><path d="m14 31.5v1a1.928 1.928 0 0 1 -.293 1.058.788.788 0 0 1 -1.413 0 1.928 1.928 0 0 1 -.294-1.058v-1a1.928 1.928 0 0 1 .293-1.058.788.788 0 0 1 1.413 0 1.928 1.928 0 0 1 .294 1.058z" fill="#ffc501"/><path d="m12.646 31.647h.707v.707h-.707z" fill="#4f4600" transform="matrix(.707 -.707 .707 .707 -18.817 18.558)"/><path d="m13.329 25.78 2.669-1.78z" fill="#c8da00"/><path d="m16 24-2.669 1.78c-.119.26-.229.52-.329.79v2.43l3 2 3-2v-3z" fill="#fc6b00"/><path d="m13 28v1l3 2 3-2v-1l-2.444 1.63a1 1 0 0 1 -1.109 0z" fill="#e86300"/><path d="m18 26.135v1.565a1 1 0 0 1 -.359.769l-1 .833a1 1 0 0 1 -1.28 0l-1-.833a1 1 0 0 1 -.361-.769v-1.565a1 1 0 0 1 .36-.768l1.64-1.367 1.64 1.367a1 1 0 0 1 .36.768z" fill="#f6a000"/><path d="m17 26.5v1a1.928 1.928 0 0 1 -.293 1.058.788.788 0 0 1 -1.413 0 1.928 1.928 0 0 1 -.294-1.058v-1a1.928 1.928 0 0 1 .293-1.058.788.788 0 0 1 1.413 0 1.928 1.928 0 0 1 .294 1.058z" fill="#ffc501"/><path d="m15.645 26.647h.707v.707h-.707z" fill="#4f4600" transform="matrix(.707 -.707 .707 .707 -14.404 19.214)"/><path d="m35.8 35.2-1.809-1.2 1.808 1.206z" fill="#c8da00"/><path d="m35.758 35.533c.013-.11.029-.216.041-.327l-1.808-1.206 1.639 1.367a.941.941 0 0 1 .128.166z" fill="#fc6b00"/><path d="m34.545 39.63.492-.328c.041-.151.088-.291.126-.446l-.532.444a1 1 0 0 1 -1.28 0l-1-.834a1 1 0 0 1 -.359-.768v-1.563a1 1 0 0 1 .359-.768l1.64-1.367-3 2v2l2.444 1.63a1 1 0 0 0 1.11 0z" fill="#fc6b00"/><path d="m35.037 39.3-.492.328a1 1 0 0 1 -1.109 0l-2.444-1.628v1l3 2 .7-.47c.128-.387.234-.812.345-1.23z" fill="#e86300"/><path d="m31.992 36.135v1.565a1 1 0 0 0 .359.768l1 .834a1 1 0 0 0 1.28 0l.532-.444c.18-.731.339-1.493.467-2.306.045-.332.087-.674.128-1.017a.941.941 0 0 0 -.128-.166l-1.639-1.369-1.64 1.367a1 1 0 0 0 -.359.768zm1 .362a1.936 1.936 0 0 1 .293-1.058.789.789 0 0 1 1.414 0 1.936 1.936 0 0 1 .291 1.061v1a1.936 1.936 0 0 1 -.292 1.058.789.789 0 0 1 -1.414 0 1.936 1.936 0 0 1 -.293-1.058z" fill="#f6a000"/><path d="m34.7 38.561a1.936 1.936 0 0 0 .29-1.061v-1a1.936 1.936 0 0 0 -.292-1.058.789.789 0 0 0 -1.414 0 1.936 1.936 0 0 0 -.293 1.058v1a1.936 1.936 0 0 0 .293 1.058.789.789 0 0 0 1.416.003zm-.709-2.061.5.5-.5.5-.5-.5z" fill="#ffc501"/><path d="m33.637 36.647h.707v.707h-.707z" fill="#4f4600" transform="matrix(.707 -.707 .707 .707 -16.207 34.862)"/><path d="m34.545 29.63 1.136-.757c-.026-.125-.062-.248-.092-.372l-.958.8a1 1 0 0 1 -1.28 0l-1-.834a1 1 0 0 1 -.359-.768v-1.564a1 1 0 0 1 .359-.768l1.444-1.2-.014-.024-2.789 1.857v2l2.444 1.63a1 1 0 0 0 1.109 0z" fill="#fc6b00"/><path d="m35.681 28.873-1.136.757a1 1 0 0 1 -1.109 0l-2.444-1.63v1l3 2 1.859-1.24c-.04-.24-.08-.49-.13-.73-.011-.053-.029-.105-.04-.157z" fill="#e86300"/><path d="m35.1 26.85c-.031-.09-.073-.183-.11-.275v.925a1.936 1.936 0 0 1 -.292 1.058.789.789 0 0 1 -1.414 0 1.936 1.936 0 0 1 -.293-1.058v-1a1.936 1.936 0 0 1 .293-1.058.775.775 0 0 1 1.037-.343c-.054-.1-.1-.205-.16-.306-.116-.212-.241-.423-.366-.626l-1.444 1.2a1 1 0 0 0 -.359.768v1.565a1 1 0 0 0 .359.768l1 .834a1 1 0 0 0 1.28 0l.958-.8c-.068-.281-.129-.565-.209-.841s-.17-.541-.28-.811z" fill="#f6a000"/><path d="m33.284 25.439a1.936 1.936 0 0 0 -.293 1.058v1.003a1.936 1.936 0 0 0 .293 1.058.789.789 0 0 0 1.414 0 1.936 1.936 0 0 0 .292-1.058v-.928c-.056-.143-.109-.285-.17-.425-.089-.23-.2-.46-.309-.69-.06-.125-.126-.243-.19-.364a.775.775 0 0 0 -1.037.346zm.707 2.061-.5-.5.5-.5.5.5z" fill="#ffc501"/><path d="m33.637 26.647h.707v.707h-.707z" fill="#4f4600" transform="matrix(.707 -.707 .707 .707 -9.137 31.934)"/><path d="m27.993 21v3l-2.998 2-2.999-2v-3l2.999-2z" fill="#fc6b00"/><path d="m22 23v1l3 2 3-2v-1l-2.444 1.63a1 1 0 0 1 -1.109 0z" fill="#e86300"/><path d="m26.994 21.135v1.565a1 1 0 0 1 -.36.769l-1 .833a1 1 0 0 1 -1.279 0l-1-.833a1 1 0 0 1 -.355-.769v-1.565a1 1 0 0 1 .36-.768l1.64-1.367 1.639 1.367a1 1 0 0 1 .355.768z" fill="#f6a000"/><path d="m25.994 21.5v1a1.928 1.928 0 0 1 -.293 1.058.788.788 0 0 1 -1.413 0 1.928 1.928 0 0 1 -.288-1.058v-1a1.928 1.928 0 0 1 .293-1.058.788.788 0 0 1 1.413 0 1.928 1.928 0 0 1 .288 1.058z" fill="#ffc501"/><path d="m24.641 21.647h.707v.707h-.707z" fill="#4f4600" transform="matrix(.707 -.707 .707 .707 -8.236 24.111)"/><path d="m21.996 31v3l-2.999 2-2.999-2v-3l2.999-2z" fill="#cc5700"/><path d="m16 33v1l3 2 3-2v-1l-2.444 1.63a1 1 0 0 1 -1.109 0z" fill="#e86300"/><path d="m21 31.135v1.565a1 1 0 0 1 -.359.769l-1 .833a1 1 0 0 1 -1.28 0l-1-.833a1 1 0 0 1 -.361-.769v-1.565a1 1 0 0 1 .36-.768l1.64-1.367 1.64 1.367a1 1 0 0 1 .36.768z" fill="#f6a000"/><path d="m20 31.5v1a1.936 1.936 0 0 1 -.293 1.058.789.789 0 0 1 -1.414 0 1.936 1.936 0 0 1 -.293-1.058v-1a1.936 1.936 0 0 1 .293-1.058.789.789 0 0 1 1.414 0 1.936 1.936 0 0 1 .293 1.058z" fill="#ffc501"/><path d="m18.644 31.647h.707v.707h-.707z" fill="#4f4600" transform="matrix(.707 -.707 .707 .707 -17.061 22.798)"/><path d="m35.907 33.931-.557-.465a1 1 0 0 1 -.36-.768v-1.563a1 1 0 0 1 .36-.768l.523-.436c-.009-.057-.012-.114-.023-.171l-1.859 1.24v2l1.894 1.263c.007-.108.015-.222.022-.332z" fill="#cc5700"/><path d="m35.88 34.33v-.067l-1.889-1.263v1l1.809 1.2c.03-.28.06-.58.08-.87z" fill="#e86300"/><path d="m35.99 31.55c0-.15 0-.29-.01-.44-.01-.3-.04-.6-.07-.9-.006-.093-.023-.186-.037-.279l-.523.436a1 1 0 0 0 -.36.768v1.565a1 1 0 0 0 .36.768l.557.465c.011-.167.022-.329.033-.5.03-.613.05-1.243.05-1.883z" fill="#f6a000"/><path d="m30.992 39-3 2v2l2.445 1.63a1 1 0 0 0 1.109 0l1.921-1.282c.037-.065.077-.121.113-.188.02-.01.02-.02.02-.03q.2-.39.39-.81v-1.32z" fill="#cc5700"/><path d="m33.468 43.348-1.921 1.282a1 1 0 0 1 -1.109 0l-2.445-1.63v1l3 2 1.24-.83a10.758 10.758 0 0 0 1.235-1.822z" fill="#e86300"/><path d="m32.991 41.135v1.565a1 1 0 0 1 -.359.769l-1 .833a1 1 0 0 1 -1.28 0l-1-.833a1 1 0 0 1 -.36-.769v-1.565a1 1 0 0 1 .36-.768l1.64-1.367 1.64 1.367a1 1 0 0 1 .359.768z" fill="#f6a000"/><path d="m31.992 41.5v1a1.936 1.936 0 0 1 -.293 1.058.789.789 0 0 1 -1.414 0 1.936 1.936 0 0 1 -.293-1.058v-1a1.936 1.936 0 0 1 .293-1.058.789.789 0 0 1 1.414 0 1.936 1.936 0 0 1 .293 1.058z" fill="#ffc501"/><path d="m30.639 41.647h.707v.707h-.707z" fill="#4f4600" transform="matrix(.707 -.707 .707 .707 -20.619 34.205)"/><path d="m30.992 36v3l-2.999 2-2.998-2v-3l2.998-2z" fill="#cc5700"/><path d="m25 38v1l3 2 3-2v-1l-2.444 1.63a1 1 0 0 1 -1.109 0z" fill="#e86300"/><path d="m29.992 36.135v1.565a1 1 0 0 1 -.359.769l-1 .833a1 1 0 0 1 -1.28 0l-1-.833a1 1 0 0 1 -.36-.769v-1.565a1 1 0 0 1 .36-.768l1.64-1.367 1.64 1.367a1 1 0 0 1 .359.768z" fill="#f6a000"/><path d="m28.993 36.5v1a1.928 1.928 0 0 1 -.293 1.058.788.788 0 0 1 -1.413 0 1.928 1.928 0 0 1 -.293-1.058v-1a1.928 1.928 0 0 1 .293-1.058.788.788 0 0 1 1.413 0 1.928 1.928 0 0 1 .293 1.058z" fill="#ffc501"/><path d="m27.64 36.647h.707v.707h-.707z" fill="#4f4600" transform="matrix(.707 -.707 .707 .707 -17.963 30.622)"/><path d="m21.996 41v3l-2.999 2-2.999-2v-3l2.999-2z" fill="#cc5700"/><path d="m16 43v1l3 2 3-2v-1l-2.444 1.63a1 1 0 0 1 -1.109 0z" fill="#e86300"/><path d="m21 41.135v1.565a1 1 0 0 1 -.359.769l-1 .833a1 1 0 0 1 -1.28 0l-1-.833a1 1 0 0 1 -.361-.769v-1.565a1 1 0 0 1 .36-.768l1.64-1.367 1.64 1.367a1 1 0 0 1 .36.768z" fill="#f6a000"/><path d="m20 41.5v1a1.936 1.936 0 0 1 -.293 1.058.789.789 0 0 1 -1.414 0 1.936 1.936 0 0 1 -.293-1.058v-1a1.936 1.936 0 0 1 .293-1.058.789.789 0 0 1 1.414 0 1.936 1.936 0 0 1 .293 1.058z" fill="#ffc501"/><path d="m18.644 41.647h.707v.707h-.707z" fill="#4f4600" transform="matrix(.707 -.707 .707 .707 -24.131 25.725)"/><path d="m30.992 26v3l-2.999 2-2.998-2v-3l2.998-2z" fill="#cc5700"/><path d="m25 28v1l3 2 3-2v-1l-2.444 1.63a1 1 0 0 1 -1.109 0z" fill="#e86300"/><path d="m29.992 26.135v1.565a1 1 0 0 1 -.359.769l-1 .833a1 1 0 0 1 -1.28 0l-1-.833a1 1 0 0 1 -.36-.769v-1.565a1 1 0 0 1 .36-.768l1.64-1.367 1.64 1.367a1 1 0 0 1 .359.768z" fill="#f6a000"/><path d="m28.993 26.5v1a1.928 1.928 0 0 1 -.293 1.058.788.788 0 0 1 -1.413 0 1.928 1.928 0 0 1 -.293-1.058v-1a1.928 1.928 0 0 1 .293-1.058.788.788 0 0 1 1.413 0 1.928 1.928 0 0 1 .293 1.058z" fill="#ffc501"/><path d="m27.64 26.647h.707v.707h-.707z" fill="#4f4600" transform="matrix(.707 -.707 .707 .707 -10.893 27.694)"/><path d="m33.991 31v3l-2.999 2-2.999-2v-3l2.999-2z" fill="#ff7f00"/><path d="m27.993 33v1l3 2 3-2v-1l-2.444 1.63a1 1 0 0 1 -1.109 0z" fill="#cc5700"/><path d="m32.991 31.135v1.565a1 1 0 0 1 -.359.769l-1 .833a1 1 0 0 1 -1.28 0l-1-.833a1 1 0 0 1 -.36-.769v-1.565a1 1 0 0 1 .36-.768l1.64-1.367 1.64 1.367a1 1 0 0 1 .359.768z" fill="#f6a000"/><path d="m31.992 31.5v1a1.936 1.936 0 0 1 -.293 1.058.789.789 0 0 1 -1.414 0 1.936 1.936 0 0 1 -.293-1.058v-1a1.936 1.936 0 0 1 .293-1.058.789.789 0 0 1 1.414 0 1.936 1.936 0 0 1 .293 1.058z" fill="#ffc501"/><path d="m30.639 31.647h.707v.707h-.707z" fill="#4f4600" transform="matrix(.707 -.707 .707 .707 -13.55 31.278)"/><path d="m29.553 19.96-1.56 1.04z" fill="#c8da00"/><path d="m31.547 24.63 1.759-1.173c-.123-.176-.235-.358-.366-.527a.988.988 0 0 1 -.308.536l-1 .834a1 1 0 0 1 -1.28 0l-1-.834a1 1 0 0 1 -.36-.768v-1.563a1 1 0 0 1 .36-.768l.367-.307c-.055-.032-.11-.07-.167-.1l-1.559 1.04v2l2.445 1.63a1 1 0 0 0 1.109 0z" fill="#ff7f00"/><path d="m31.547 24.63a1 1 0 0 1 -1.109 0l-2.445-1.63v1l3 2 2.789-1.86c-.144-.235-.315-.456-.475-.683z" fill="#cc5700"/><path d="m31.992 21.844v.656a1.936 1.936 0 0 1 -.293 1.058.789.789 0 0 1 -1.414 0 1.936 1.936 0 0 1 -.293-1.058v-1a1.936 1.936 0 0 1 .293-1.058c0-.007.011-.009.016-.016-.044-.029-.085-.065-.129-.093-.153-.095-.3-.183-.452-.27l-.367.307a1 1 0 0 0 -.36.768v1.562a1 1 0 0 0 .36.768l1 .834a1 1 0 0 0 1.28 0l1-.834a.988.988 0 0 0 .308-.536c-.018-.023-.031-.048-.049-.07-.286-.362-.592-.693-.9-1.018z" fill="#f6a000"/><path d="m29.992 21.5v1a1.936 1.936 0 0 0 .293 1.058.789.789 0 0 0 1.414 0 1.936 1.936 0 0 0 .293-1.058v-.659c-.038-.04-.072-.085-.11-.124a10.752 10.752 0 0 0 -1.581-1.3c0 .007-.011.009-.016.016a1.936 1.936 0 0 0 -.293 1.067z" fill="#ffc501"/><path d="m30.639 21.647h.707v.707h-.707z" fill="#4f4600" transform="matrix(.707 -.707 .707 .707 -6.48 28.351)"/><path d="m18.997 36v3l-2.999 2-2.998-2v-3l2.998-2z" fill="#ff7f00"/><path d="m13 38v1l3 2 3-2v-1l-2.444 1.63a1 1 0 0 1 -1.109 0z" fill="#cc5700"/><path d="m18 36.135v1.565a1 1 0 0 1 -.359.769l-1 .833a1 1 0 0 1 -1.28 0l-1-.833a1 1 0 0 1 -.361-.769v-1.565a1 1 0 0 1 .36-.768l1.64-1.367 1.64 1.367a1 1 0 0 1 .36.768z" fill="#f6a000"/><path d="m17 36.5v1a1.928 1.928 0 0 1 -.293 1.058.788.788 0 0 1 -1.413 0 1.928 1.928 0 0 1 -.294-1.058v-1a1.928 1.928 0 0 1 .293-1.058.788.788 0 0 1 1.413 0 1.928 1.928 0 0 1 .294 1.058z" fill="#ffc501"/><path d="m15.645 36.647h.707v.707h-.707z" fill="#4f4600" transform="matrix(.707 -.707 .707 .707 -21.474 22.142)"/><path d="m27.993 41v3l-2.998 2-2.999-2v-3l2.999-2z" fill="#ff7f00"/><path d="m22 43v1l3 2 3-2v-1l-2.444 1.63a1 1 0 0 1 -1.109 0z" fill="#cc5700"/><path d="m26.994 41.135v1.565a1 1 0 0 1 -.36.769l-1 .833a1 1 0 0 1 -1.279 0l-1-.833a1 1 0 0 1 -.355-.769v-1.565a1 1 0 0 1 .36-.768l1.64-1.367 1.639 1.367a1 1 0 0 1 .355.768z" fill="#f6a000"/><path d="m25.994 41.5v1a1.928 1.928 0 0 1 -.293 1.058.788.788 0 0 1 -1.413 0 1.928 1.928 0 0 1 -.288-1.058v-1a1.928 1.928 0 0 1 .293-1.058.788.788 0 0 1 1.413 0 1.928 1.928 0 0 1 .288 1.058z" fill="#faba01"/><path d="m24.641 41.647h.707v.707h-.707z" fill="#4f4600" transform="matrix(.707 -.707 .707 .707 -22.375 29.965)"/><path d="m15.239 44.51.759-.51-.761.508z" fill="#f8ef00"/><path d="m12.88 39.08.12-.08z" fill="#f8ef00"/><path d="m13 39-.12.08v.016z" fill="#ff7f00"/><path d="m13 39 1.639 1.367a1 1 0 0 1 .36.768v1.565a1 1 0 0 1 -.36.768l-.039.032c.06.107.123.209.185.31l1.215-.81v-2z" fill="#ff7f00"/><path d="m14.889 43.99c.109.179.229.348.348.518l.763-.508v-1l-1.216.811c.034.059.067.123.105.179z" fill="#cc5700"/><path d="m13.11 39.91c.013.046.028.089.042.134a.892.892 0 0 1 .554.4 1.928 1.928 0 0 1 .294 1.056v.823c.075.164.148.327.23.49.01.02.02.05.03.07.1.18.19.37.29.54.016.028.033.053.048.081l.042-.035a1 1 0 0 0 .36-.769v-1.565a1 1 0 0 0 -.36-.768l-1.64-1.367-.116.1c.069.271.137.545.226.81z" fill="#f6a000"/><path d="m13.919 42.15c.026.057.054.113.08.17v-.82a1.928 1.928 0 0 0 -.293-1.058.892.892 0 0 0 -.554-.4c.067.222.133.44.207.656.17.512.36.992.56 1.452z" fill="#faba01"/><path d="m19.637 19.43c-.028.01-.054.025-.082.035l1.082.9a1 1 0 0 1 .359.768v1.567a1 1 0 0 1 -.359.768l-1 .834a1 1 0 0 1 -1.28 0l-1-.834a1 1 0 0 1 -.357-.768v-1.565a1 1 0 0 1 .052-.235 11.144 11.144 0 0 0 -1.052.94v2.16l3 2 3-2v-3z" fill="#cc5700"/><path d="m17 21.135v1.565a1 1 0 0 0 .36.768l1 .834a1 1 0 0 0 1.28 0l1-.834a1 1 0 0 0 .36-.768v-1.565a1 1 0 0 0 -.359-.768l-1.082-.9a8.957 8.957 0 0 0 -2.5 1.435 1 1 0 0 0 -.059.233zm1 .362a1.936 1.936 0 0 1 .293-1.058.789.789 0 0 1 1.414 0 1.936 1.936 0 0 1 .293 1.061v1a1.936 1.936 0 0 1 -.293 1.058.789.789 0 0 1 -1.414 0 1.936 1.936 0 0 1 -.293-1.058z" fill="#f6a000"/><path d="m19.7 23.561a1.936 1.936 0 0 0 .3-1.061v-1a1.936 1.936 0 0 0 -.293-1.058.789.789 0 0 0 -1.414 0 1.936 1.936 0 0 0 -.293 1.058v1a1.936 1.936 0 0 0 .293 1.058.789.789 0 0 0 1.407.003z" fill="#ffc501"/><path d="m16 23v1l3 2 3-2v-1l-2.444 1.63a1 1 0 0 1 -1.109 0z" fill="#e86300"/><path d="m18.644 21.647h.707v.707h-.707z" fill="#4f4600" transform="matrix(.707 -.707 .707 .707 -9.992 19.871)"/><path d="m15.3 44.585.7-.585-.759.51c.016.027.036.049.059.075z" fill="#cc5700"/><path d="m18 46.135v.69a3.1 3.1 0 0 0 1 .175v-1l-3-2 1.64 1.367a1 1 0 0 1 .36.768z" fill="#cc5700"/><path d="m15.684 45.092a.773.773 0 0 1 1.021.347 1.873 1.873 0 0 1 .266.853 4.162 4.162 0 0 0 1.029.533v-.69a1 1 0 0 0 -.359-.768l-1.641-1.367-.7.585c.123.177.252.348.384.507z" fill="#f6a000"/><path d="m16.971 46.292a1.873 1.873 0 0 0 -.266-.853.773.773 0 0 0 -1.021-.347 6.49 6.49 0 0 0 1.287 1.2z" fill="#ffc501"/><path d="m20 47v-.865a1 1 0 0 1 .359-.768l1.641-1.367-3 2v1z" fill="#cc5700"/><path d="m24 46.135v.865h1v-1l-3-2 1.639 1.367a1 1 0 0 1 .361.768z" fill="#cc5700"/><path d="m20 46.135v.865h1v-.5a1.936 1.936 0 0 1 .293-1.058.789.789 0 0 1 1.414 0 1.936 1.936 0 0 1 .293 1.058v.5h1v-.865a1 1 0 0 0 -.36-.768l-1.64-1.367-1.64 1.367a1 1 0 0 0 -.36.768z" fill="#f6a000"/><path d="m23 46.5a1.936 1.936 0 0 0 -.292-1.058.789.789 0 0 0 -1.414 0 1.936 1.936 0 0 0 -.294 1.058v.5h2z" fill="#ffc501"/><path d="m25.994 47v-.865a1 1 0 0 1 .36-.768l1.639-1.367-3 2v1z" fill="#ff7f00"/><path d="m27.993 44 1.64 1.367a1 1 0 0 1 .359.768v.686a4.086 4.086 0 0 0 1-.508v-.313z" fill="#ff7f00"/><path d="m25.994 46.135v.865h1v-.5a1.928 1.928 0 0 1 .293-1.058.788.788 0 0 1 1.413 0 1.928 1.928 0 0 1 .293 1.058v.5a3.1 3.1 0 0 0 1-.179v-.686a1 1 0 0 0 -.359-.768l-1.641-1.367-1.639 1.367a1 1 0 0 0 -.36.768z" fill="#f6a000"/><path d="m28.993 46.5a1.928 1.928 0 0 0 -.293-1.058.788.788 0 0 0 -1.413 0 1.928 1.928 0 0 0 -.293 1.058v.5h2z" fill="#faba01"/><path d="m31.152 8.44a9.041 9.041 0 0 1 2.839-.44c-3 3-4 4-4 6l.03.19a7.563 7.563 0 0 0 -3.2 1.41l-.81-1.89a6.014 6.014 0 0 1 2.109-3.55 8.585 8.585 0 0 1 3.032-1.72z" fill="#689629"/><path d="m21.166 15.6a7.563 7.563 0 0 0 -3.2-1.41l.034-.19c0-2-1-3-4-6a9.041 9.041 0 0 1 2.839.44 8.585 8.585 0 0 1 3.029 1.72 6.014 6.014 0 0 1 2.109 3.55z" fill="#689629"/><path d="m23.085 3.04-2.1 4.73a4.536 4.536 0 0 0 -2.069-3.1l-.916-3.67c1.66 0 5 2 5 2z" fill="#2f4700"/><path d="m29.992 1-.919 3.67a4.536 4.536 0 0 0 -2.073 3.1l-2.1-4.73.1-.04s3.333-2 4.992-2z" fill="#436600"/><path d="m29.073 4.67c1.319-.93 3.468-1.67 6.917-1.67-.95.95-3.708 1.9-4.838 5.44a8.585 8.585 0 0 0 -3.029 1.72l-.13-.16-.993-2.22v-.01a4.536 4.536 0 0 1 2.073-3.1z" fill="#689629"/><path d="m18.917 4.67a4.536 4.536 0 0 1 2.069 3.1v.01l-.986 2.22-.13.16a8.585 8.585 0 0 0 -3.029-1.72c-1.133-3.54-3.891-4.49-4.841-5.44 3.449 0 5.6.74 6.917 1.67z" fill="#689629"/><path d="m26.014 13.71.81 1.89a4.309 4.309 0 0 0 -1.824 3.4h-2a4.309 4.309 0 0 0 -1.829-3.4l.81-1.89 2.019-4.71z" fill="#7eaf31"/><path d="m27.993 10 .13.16a6.014 6.014 0 0 0 -2.109 3.55l-2.014-4.71-2.019 4.71a6.014 6.014 0 0 0 -2.109-3.55l.128-.16.989-2.22v-.01l2.1-4.73.911-2.04.91 2.04 2.09 4.73v.01z" fill="#527710"/><path d="m16 14a10.367 10.367 0 0 1 1.97.19 7.563 7.563 0 0 1 3.2 1.41 4.309 4.309 0 0 1 1.83 3.4h-4c0-2-1.892-5-3-5z" fill="#436600"/><path d="m31.992 14c-1.11 0-3 3-3 5h-3.992a4.309 4.309 0 0 1 1.829-3.4 7.563 7.563 0 0 1 3.2-1.41 10.367 10.367 0 0 1 1.963-.19z" fill="#436600"/><path d="m18.997 19h9.996v1h-9.996z" fill="#436600"/><path d="m21.166 15.6a7.561 7.561 0 0 0 -3.2-1.41 10.349 10.349 0 0 0 -1.966-.19 4.677 4.677 0 0 1 5 5h2a4.309 4.309 0 0 0 -1.834-3.4z" fill="#527710"/><path d="m26.994 19h2c0-2 1.889-5 3-5a4.677 4.677 0 0 0 -5 5z" fill="#527710"/><path d="m21.976 13.71-.81 1.89a4.309 4.309 0 0 1 1.834 3.4h1v-10z" fill="#5d881d"/><path d="m27.736 14.015a8.019 8.019 0 0 1 2.287-.825c.014 0 .029 0 .044-.006.267-1.515 1.362-2.621 3.924-5.184-2.742 0-5.107 2.807-6.255 6.015z" fill="#abcc00"/><path d="m20.254 14.015a6.525 6.525 0 0 1 .912.585c.111.085.213.176.314.267l.5-1.157a6.014 6.014 0 0 0 -2.109-3.55 8.585 8.585 0 0 0 -3.029-1.72 9.041 9.041 0 0 0 -2.842-.44c2.742 0 5.106 2.807 6.254 6.015z" fill="#abcc00"/><path d="m20.254 14.015c.143.4.269.806.372 1.215a6.254 6.254 0 0 1 .54.37l.314-.733c-.1-.091-.2-.182-.314-.267a6.525 6.525 0 0 0 -.912-.585z" fill="#7eaf31"/><path d="m17.967 14.19a7.846 7.846 0 0 1 2.659 1.04c-.1-.409-.229-.814-.372-1.215a8.019 8.019 0 0 0 -2.287-.825c-.014 0-.029 0-.044-.006a4.592 4.592 0 0 1 .077.816z" fill="#436600"/><path d="m27.364 15.23c.1-.409.229-.814.372-1.215a6.467 6.467 0 0 0 -.912.585c-.111.085-.213.176-.314.267l.314.733a6.254 6.254 0 0 1 .54-.37z" fill="#436600"/><path d="m27.736 14.015c-.143.4-.269.806-.372 1.215a7.846 7.846 0 0 1 2.659-1.04l-.031-.19a4.59 4.59 0 0 1 .075-.816c-.015 0-.03 0-.044.006a8.019 8.019 0 0 0 -2.287.825z" fill="#7eaf31"/><path d="m27.124 9.16c.114-.1.242-.194.365-.291l-.489-1.089v-.01l-2.1-4.73-.9-2.04v8l1.222 2.852a6.809 6.809 0 0 1 1.902-2.692z" fill="#689629"/><path d="m28.123 10.16-.13-.16-.5-1.131c-.123.1-.251.19-.365.291a6.809 6.809 0 0 0 -1.907 2.692l.8 1.858a6.014 6.014 0 0 1 2.102-3.55z" fill="#527710"/><path d="m20.866 9.16c-.114-.1-.242-.194-.365-.291l-.501 1.131-.13.16a6.014 6.014 0 0 1 2.109 3.55l.8-1.858a6.809 6.809 0 0 0 -1.913-2.692z" fill="#436600"/><path d="m28.615 8.776a8.525 8.525 0 0 1 2.547-1.336c.148-.049.3-.089.456-.13 1.292-2.628 3.543-3.47 4.382-4.31-3.332 0-6.182 2.6-7.385 5.776z" fill="#7eaf31"/><path d="m28.133 10.16c.03-.026.065-.05.1-.076a9.561 9.561 0 0 1 .387-1.308c-.165.126-.33.251-.482.384-.124.11-.239.225-.353.339l.215.501z" fill="#436600"/><path d="m28.615 8.776a9.561 9.561 0 0 0 -.387 1.308 8.563 8.563 0 0 1 2.934-1.644 8.187 8.187 0 0 1 .456-1.13c-.154.041-.308.081-.456.13a8.525 8.525 0 0 0 -2.547 1.336z" fill="#5d881d"/><path d="m19.4 8.776c.165.126.33.251.482.384.124.11.239.225.353.339l.765-1.719v-.01a4.536 4.536 0 0 0 -2.069-3.1c-1.323-.93-3.472-1.67-6.921-1.67 3.332 0 6.182 2.6 7.39 5.776z" fill="#7eaf31"/><path d="m19.4 8.776a9.6 9.6 0 0 1 .387 1.308c.03.026.065.05.095.076l.13-.16.223-.5c-.114-.114-.229-.229-.353-.339-.157-.134-.322-.261-.482-.385z" fill="#689629"/><path d="m19.782 10.084a9.6 9.6 0 0 0 -.382-1.308 8.525 8.525 0 0 0 -2.552-1.336c-.148-.049-.3-.089-.456-.13a8.187 8.187 0 0 1 .456 1.13 8.563 8.563 0 0 1 2.934 1.644z" fill="#5d881d"/><path d="m23 3s-3.338-2-5-2c1.957.979 2.949 3.052 2.991 6.766l2.1-4.726z" fill="#436600"/><path d="m27 7.766a4.536 4.536 0 0 1 2.069-3.1l.923-3.666c-1.956.979-2.948 3.052-2.992 6.766z" fill="#527710"/><path d="m13 28v-1.43c.065-.176.142-.345.215-.516v-.027a14.667 14.667 0 0 0 -1.039 3.521l.824-.548z" fill="#9e4300"/><path d="m12.028 32.713c.009.274.016.55.031.818-.015-.246-.014-.506-.023-.756-.002-.021-.006-.041-.008-.062z" fill="#9e4300"/><path d="m12.048 30.52c.02-.23.054-.46.087-.691-.035.231-.067.461-.087.691z" fill="#9e4300"/><path d="m12.15 29.708v-.022c-.007.048-.011.095-.018.143l.006-.048c.007-.024.008-.048.012-.073z" fill="#c8da00"/><path d="m12.048 30.52c0 .035-.005.071-.007.106v-.034c.006-.024.005-.048.007-.072z" fill="#c8da00"/><path d="m12.141 29.781-.006.048c-.033.231-.067.461-.087.691v.072c.02-.27.052-.54.093-.811z" fill="#c8da00"/><path d="m12.135 34.423-.015-.172c.034.416.065.837.11 1.239-.039-.349-.064-.712-.095-1.067z" fill="#c8da00"/><path d="m12.17 29.55-.001.004z" fill="#c8da00"/><path d="m12.173 29.552v-.004l-.003.002-.001.004z" fill="#c8da00"/><path d="m13 29-.827.548v.004z" fill="#c8da00"/><path d="m12.23 35.49.77.51-.77-.514z" fill="#c8da00"/><path d="m12.169 29.554c-.007.044-.01.088-.016.132.007-.044.009-.088.016-.132z" fill="#fc6b00"/><path d="m12.151 29.707c.008-.052.013-.1.022-.155-.007.044-.009.088-.016.132v.022z" fill="#fc6b00"/><path d="m12.105 34.088c0 .055.01.109.015.163 0-.055-.011-.108-.015-.163z" fill="#fc6b00"/><path d="m12.445 34.63a1 1 0 0 0 1.11 0l2-1.333q-.293-.553-.554-1.126v.529a1 1 0 0 1 -.36.768l-1 .834a1 1 0 0 1 -1.28 0l-.255-.212c0 .055.01.108.015.163l.015.172z" fill="#ff6d00"/><path d="m15.554 33.3-2 1.333a1 1 0 0 1 -1.11 0l-.31-.207c.031.355.056.718.1 1.063l.766.511 2.961-1.974q-.21-.36-.407-.726z" fill="#9e4300"/><path d="m12.06 33.58c0 .049.008.094.013.142-.004-.049-.01-.093-.013-.142z" fill="#ff7f00"/><path d="m12.041 30.626c-.024.283-.035.565-.038.846q.003-.421.038-.846z" fill="#ff7f00"/><path d="m12.105 34.088c-.009-.124-.024-.241-.032-.367.01.122.023.242.032.366z" fill="#ff7f00"/><path d="m12 31.468c0-.291.017-.583.041-.876v.034q-.034.424-.038.845z" fill="#ff7f00"/><path d="m12.141 29.781c0-.024.007-.049.01-.074-.005.026-.006.05-.01.074z" fill="#ff7f00"/><path d="m12.059 33.531v.049c0 .049.009.093.013.141-.003-.064-.01-.121-.013-.19z" fill="#ff7f00"/><path d="m14.119 29.932c-.027-.08-.056-.159-.081-.24l-1.038-.692-.827.552c-.009.052-.014.1-.022.155 0 .025-.006.05-.01.074-.039.271-.073.541-.1.811-.024.293-.039.585-.041.876a1.92 1.92 0 0 1 .289-1.029.789.789 0 0 1 1.414 0 1.928 1.928 0 0 1 .297 1.061v1a1.928 1.928 0 0 1 -.293 1.058.789.789 0 0 1 -1.414 0 1.84 1.84 0 0 1 -.257-.786c.009.25.008.51.023.756 0 .064.01.126.014.19.008.126.023.243.032.367l.255.212a1 1 0 0 0 1.28 0l1-.834a1 1 0 0 0 .36-.763v-.527a21.906 21.906 0 0 1 -.881-2.241z" fill="#e86300"/><path d="m12 31.55v.002-.001z" fill="#ffa008"/><path d="m12 32.5c0 .072.021.138.028.21-.012-.384-.028-.765-.028-1.161z" fill="#ffa008"/><path d="m12 31.5v.053c0-.026 0-.052 0-.078z" fill="#ffa008"/><path d="m12 31.551c0 .4.016.777.028 1.161 0 .021.006.041.008.062-.014-.403-.036-.801-.036-1.223z" fill="#ffa008"/><path d="m12 31.472v.078c0-.026 0-.053 0-.079z" fill="#ffa008"/><path d="m12 31.468v.079c0-.023 0-.047 0-.079z" fill="#ffa008"/><path d="m12.036 32.775a1.84 1.84 0 0 0 .257.786.789.789 0 0 0 1.414 0 1.928 1.928 0 0 0 .293-1.061v-1a1.928 1.928 0 0 0 -.293-1.058.789.789 0 0 0 -1.414 0 1.92 1.92 0 0 0 -.293 1.026v.083c0 .422.022.82.036 1.224zm.964-1.275.5.5-.5.5-.5-.5z" fill="#ff7f00"/><path d="m12.646 31.646h.707v.707h-.707z" fill="#403700" transform="matrix(.707 -.707 .707 .707 -18.82 18.565)"/><path d="m13.215 26.054c-.073.171-.15.34-.215.516v1.43l.681.454a22.026 22.026 0 0 1 -.466-2.4z" fill="#e86300"/><path d="m13.681 28.454-.681-.454v1l1.038.692c-.13-.408-.251-.82-.357-1.238z" fill="#9e4300"/><path d="m32.24 45.17c.083-.095.16-.214.241-.317-.081.102-.158.222-.241.317z" fill="#cc5700"/><path d="m17 41.135v1.565a1 1 0 0 0 .36.768l1 .834a1 1 0 0 0 1.28 0l1-.834a1 1 0 0 0 .36-.768v-1.565a1 1 0 0 0 -.36-.768l-1.64-1.367-1.64 1.367a1 1 0 0 0 -.36.768zm1 .362a1.928 1.928 0 0 1 .293-1.058.789.789 0 0 1 1.414 0 1.928 1.928 0 0 1 .293 1.061v1a1.928 1.928 0 0 1 -.293 1.058.789.789 0 0 1 -1.414 0 1.928 1.928 0 0 1 -.293-1.058z" fill="#e86300"/><path d="m19.707 43.561a1.928 1.928 0 0 0 .293-1.061v-1a1.928 1.928 0 0 0 -.293-1.058.789.789 0 0 0 -1.414 0 1.928 1.928 0 0 0 -.293 1.058v1a1.928 1.928 0 0 0 .293 1.058.789.789 0 0 0 1.414.003zm-.707-2.061.5.5-.5.5-.5-.5z" fill="#ff7f00"/><path d="m18.646 41.646h.707v.707h-.707z" fill="#403700" transform="matrix(.707 -.707 .707 .707 -24.134 25.737)"/><path d="m15.961 34.026.002.005.037-.031z" fill="#e86300"/><path d="m16.555 39.63 2.388-1.592c-.325-.346-.641-.7-.943-1.066v.728a1 1 0 0 1 -.36.768l-1 .834a1 1 0 0 1 -1.28 0l-1-.834a1 1 0 0 1 -.36-.768v-1.565a1 1 0 0 1 .36-.768l1.6-1.336-2.96 1.969v2l2.445 1.63a1 1 0 0 0 1.11 0z" fill="#e86300"/><path d="m14.36 35.367a1 1 0 0 0 -.36.768v1.565a1 1 0 0 0 .36.768l1 .834a1 1 0 0 0 1.28 0l1-.834a1 1 0 0 0 .36-.768v-.726a22.088 22.088 0 0 1 -2.037-2.941zm2.64 1.133v1a1.928 1.928 0 0 1 -.293 1.058.789.789 0 0 1 -1.414 0 1.928 1.928 0 0 1 -.293-1.058v-1a1.928 1.928 0 0 1 .293-1.058.789.789 0 0 1 1.414 0 1.928 1.928 0 0 1 .293 1.058z" fill="#ff6d00"/><path d="m15.293 35.439a1.928 1.928 0 0 0 -.293 1.061v1a1.928 1.928 0 0 0 .293 1.058.789.789 0 0 0 1.414 0 1.928 1.928 0 0 0 .293-1.058v-1a1.928 1.928 0 0 0 -.293-1.058.789.789 0 0 0 -1.414-.003zm.707 2.061-.5-.5.5-.5.5.5z" fill="#ff7f00"/><path d="m15.646 36.646h.707v.707h-.707z" fill="#403700" transform="matrix(.707 -.707 .707 .707 -21.477 22.151)"/><path d="m25.64 44.3a1 1 0 0 1 -1.28 0l-1-.834a1 1 0 0 1 -.36-.766v-1.259q-.417-.272-.819-.561l-.181.12v2l2.445 1.63a1 1 0 0 0 1.11 0l1.606-1.071c-.152-.058-.3-.117-.454-.179-.026.027-.038.063-.067.086z" fill="#e86300"/><path d="m25.707 43.561a.789.789 0 0 1 -1.414 0 1.928 1.928 0 0 1 -.293-1.061v-.449q-.508-.294-1-.613v1.262a1 1 0 0 0 .36.768l1 .834a1 1 0 0 0 1.28 0l1-.834c.029-.023.041-.059.067-.086-.263-.106-.522-.219-.779-.335a1.705 1.705 0 0 1 -.221.514z" fill="#ff7f00"/><path d="m24.293 43.561a.789.789 0 0 0 1.414 0 1.705 1.705 0 0 0 .221-.516q-.992-.45-1.928-.991v.446a1.928 1.928 0 0 0 .293 1.061z" fill="#ffa008"/><path d="m15.24 44.51a5.908 5.908 0 0 0 2.76 2.315 3.164 3.164 0 0 0 .5.129 2.9 2.9 0 0 0 .5.046h10a4.418 4.418 0 0 0 3.24-1.83c.083-.095.16-.215.241-.317q-.544-.063-1.081-.15-.6-.1-1.193-.232a21.724 21.724 0 0 1 -2.207-.613c-.282-.094-.562-.193-.839-.3l-1.606 1.072a1 1 0 0 1 -1.11 0l-2.445-1.63v-2l.181-.12a22.169 22.169 0 0 1 -3.181-2.78l-.057-.061-2.388 1.591a1 1 0 0 1 -1.11 0l-2.445-1.63v1l3 2v2l-1.217.811c.036.059.069.123.107.179.11.179.229.348.348.518m5.762-1.808a1 1 0 0 1 -.36.768l-1 .834a1 1 0 0 1 -1.28 0l-1-.834a1 1 0 0 1 -.36-.768v-1.565a1 1 0 0 1 .36-.768l1.64-1.367 1.64 1.367a1 1 0 0 1 .36.768z" fill="#9e4300"/><path d="m23.64 45.367-1.64-1.367-1.64 1.367a1 1 0 0 0 -.36.768v.865h1v-.5a1.928 1.928 0 0 1 .293-1.058.789.789 0 0 1 1.414 0 1.928 1.928 0 0 1 .293 1.058v.5h1v-.865a1 1 0 0 0 -.36-.768z" fill="#cc5700"/><path d="m22.707 45.439a.789.789 0 0 0 -1.414 0 1.928 1.928 0 0 0 -.293 1.061v.5h2v-.5a1.928 1.928 0 0 0 -.293-1.061z" fill="#e86300"/><path d="m13 39 1.64 1.367a1 1 0 0 1 .36.768v1.565a1 1 0 0 1 -.36.768l-.04.032c.06.107.123.209.185.31l1.215-.81v-2z" fill="#cc5700"/><path d="m13.11 39.91c.014.046.029.089.043.134a.9.9 0 0 1 .554.4 1.928 1.928 0 0 1 .293 1.056v.823c.075.164.148.327.23.49.01.02.02.05.03.07.1.18.19.37.29.54.016.028.033.053.048.081l.042-.035a1 1 0 0 0 .36-.769v-1.565a1 1 0 0 0 -.36-.768l-1.64-1.367-.115.1c.068.271.137.545.225.81z" fill="#e86300"/><path d="m13.92 42.15c.026.057.054.113.08.17v-.82a1.928 1.928 0 0 0 -.293-1.058.9.9 0 0 0 -.554-.4c.066.222.132.44.207.656.17.512.36.992.56 1.452z" fill="#9e4300"/><path d="m15.685 45.092a.774.774 0 0 1 1.022.347 1.873 1.873 0 0 1 .266.853 4.167 4.167 0 0 0 1.027.533v-.69a1 1 0 0 0 -.36-.768l-1.64-1.367-.7.585c.125.177.253.348.385.507z" fill="#cc5700"/><path d="m16.973 46.292a1.873 1.873 0 0 0 -.266-.853.774.774 0 0 0 -1.022-.347 6.522 6.522 0 0 0 1.288 1.2z" fill="#9e4300"/><path d="m26 47v-.865a1 1 0 0 1 .36-.768l1.64-1.367-3 2v1z" fill="#cc5700"/><path d="m28 44 1.64 1.367a1 1 0 0 1 .36.768v.686a4.1 4.1 0 0 0 1-.508v-.313z" fill="#cc5700"/><path d="m26 46.135v.865h1v-.5a1.928 1.928 0 0 1 .293-1.058.789.789 0 0 1 1.414 0 1.928 1.928 0 0 1 .293 1.058v.5a3.11 3.11 0 0 0 1-.179v-.686a1 1 0 0 0 -.36-.768l-1.64-1.367-1.64 1.367a1 1 0 0 0 -.36.768z" fill="#e86300"/><path d="m29 46.5a1.928 1.928 0 0 0 -.293-1.058.789.789 0 0 0 -1.414 0 1.928 1.928 0 0 0 -.293 1.058v.5h2z" fill="#ff7f00"/><ellipse cx="30.36" cy="24.3" fill="#f6fafd" rx="1.65" ry="2.297" transform="matrix(.707 -.707 .707 .707 -8.289 28.598)"/><ellipse cx="32.36" cy="28.3" fill="#f6fafd" rx=".825" ry="1.148" transform="matrix(.707 -.707 .707 .707 -10.532 31.185)"/><ellipse cx="28.106" cy="25.8" fill="#fdf48b" rx=".413" ry=".574" transform="matrix(.707 -.707 .707 .707 -10.011 27.443)"/><ellipse cx="31.106" cy="30.8" fill="#f6fafd" rx=".413" ry=".574" transform="matrix(.707 -.707 .707 .707 -12.668 31.031)"/><ellipse cx="33.106" cy="26.8" fill="#f6fafd" rx=".413" ry=".574" transform="matrix(.707 -.707 .707 .707 -9.253 31.273)"/><ellipse cx="25.106" cy="20.8" fill="#f6fafd" rx=".413" ry=".574" transform="matrix(.707 -.707 .707 .707 -7.354 23.856)"/><ellipse cx="25.106" cy="30.8" fill="#fdf48b" rx=".413" ry=".574" transform="matrix(.707 -.707 .707 .707 -14.427 26.787)"/><ellipse cx="22.106" cy="35.8" fill="#fdf48b" rx=".413" ry=".574" transform="matrix(.707 -.707 .707 .707 -18.843 26.131)"/><ellipse cx="28.106" cy="35.8" fill="#fdf48b" rx=".413" ry=".574" transform="matrix(.707 -.707 .707 .707 -17.084 30.375)"/><ellipse cx="25.106" cy="40.8" fill="#fdf48b" rx=".413" ry=".574" transform="matrix(.707 -.707 .707 .707 -21.501 29.718)"/><ellipse cx="31.106" cy="40.8" fill="#fdf48b" rx=".413" ry=".574" transform="matrix(.707 -.707 .707 .707 -19.742 33.963)"/><ellipse cx="34.106" cy="35.8" fill="#fdf48b" rx=".413" ry=".574" transform="matrix(.707 -.707 .707 .707 -15.326 34.619)"/><ellipse cx="19.106" cy="30.8" fill="#fdf48b" rx=".413" ry=".574" transform="matrix(.707 -.707 .707 .707 -16.186 22.543)"/><ellipse cx="16.106" cy="25.8" fill="#fdf48b" rx=".413" ry=".574" transform="matrix(.707 -.707 .707 .707 -13.528 18.955)"/><ellipse cx="22.106" cy="25.8" fill="#fdf48b" rx=".413" ry=".574" transform="matrix(.707 -.707 .707 .707 -11.77 23.199)"/></g></svg>