<svg height="512" viewBox="0 0 64 64" width="512" xmlns="http://www.w3.org/2000/svg"><g id="Flat"><g id="Color_copy" data-name="Color copy"><path d="m48 48v-6h-3.362a12.883 12.883 0 0 0 -1.582-3.813l2.379-2.379-4.243-4.243-2.379 2.379a12.883 12.883 0 0 0 -3.813-1.582v-3.362h-6v3.362a12.883 12.883 0 0 0 -3.813 1.582l-2.379-2.379-4.243 4.243 2.379 2.379a12.883 12.883 0 0 0 -1.582 3.813h-3.362v6h3.362a12.883 12.883 0 0 0 1.582 3.813l-2.379 2.379 4.243 4.243 2.378-2.379a12.9 12.9 0 0 0 3.814 1.582v3.362h6v-3.362a12.9 12.9 0 0 0 3.814-1.582l2.378 2.379 4.243-4.243-2.379-2.379a12.883 12.883 0 0 0 1.582-3.813zm-16 1.5a4.5 4.5 0 1 1 4.5-4.5 4.5 4.5 0 0 1 -4.5 4.5z" fill="#fcbc04"/><path d="m36 56a15.093 15.093 0 0 1 -2.927-.29l2.179-3.773a8.009 8.009 0 0 0 1.248-2.169l.16-.278a5 5 0 0 0 .327-4.319l-.581-1.487a5 5 0 0 1 .327-4.32l4.49-7.764-.031-.03-2.379 2.379a12.883 12.883 0 0 0 -3.813-1.587v-1.989l-3.459 5.991a4.993 4.993 0 0 1 -2.541 2.166 4.993 4.993 0 0 1 -2.541-2.166l-1.568-2.715-2.083-2.084-4.243 4.243 2.379 2.379a12.883 12.883 0 0 0 -1.582 3.813h-3.362v6h3.362a12.883 12.883 0 0 0 1.582 3.813l-2.379 2.379 4.243 4.243 2.378-2.379a12.9 12.9 0 0 0 3.814 1.582v3.362h6v-3.362a12.9 12.9 0 0 0 3.814-1.582l2.378 2.379 4.243-4.243-.88-.88a14.921 14.921 0 0 1 -8.555 2.688zm-14.347-12.509-.336.581a14.467 14.467 0 0 1 -.188-4.941l.134.233a5 5 0 0 1 .39 4.127zm5.847 1.509a4.5 4.5 0 1 1 4.5 4.5 4.5 4.5 0 0 1 -4.5-4.5z" fill="#e59730"/><path d="m38.192 39.49a5 5 0 0 0 -3.577-2.443l-1.579-.24a5 5 0 0 1 -3.577-2.443l-6.8-11.775-5.2 3 6.8 11.775a5 5 0 0 1 .327 4.32l-.581 1.487a5 5 0 0 0 .327 4.319l6.154 5.219a7.968 7.968 0 0 0 9.145-5.279zm-6.192 10.51a5 5 0 1 1 5-5 5 5 0 0 1 -5 5z" fill="#93999a"/><path d="m38.19 39.49a5.005 5.005 0 0 0 -3.58-2.44l-1.57-.24a4.942 4.942 0 0 1 -2.8-1.43l-.76.38a3 3 0 0 1 -3.91-1.14l-2.65-4.41a3 3 0 0 1 1.61-4.38l-1.87-3.24-5.2 3 6.8 11.77a5.012 5.012 0 0 1 .33 4.32l-.58 1.49a5.006 5.006 0 0 0 .33 4.32l6.15 5.22a7.969 7.969 0 0 0 9.14-5.28zm-6.19 10.51a5 5 0 1 1 5-5 5 5 0 0 1 -5 5z" fill="#656b76"/><path d="m4 10.268 12.125-7a2 2 0 0 1 2.732.732l10 17.321a22.159 22.159 0 0 0 -15.589 9l-10-17.321a2 2 0 0 1 .732-2.732zm11.33 9.625a2 2 0 1 0 .732-2.732 2 2 0 0 0 -.732 2.732z" fill="#d0d8da"/><path d="m4 10.27 1.19-.69 4.79 7.84a7.994 7.994 0 0 0 10.74 2.8l5.67-3.19 2.47 4.29a22.159 22.159 0 0 0 -15.59 9l-10-17.32a2 2 0 0 1 .73-2.73z" fill="#93999a"/><path d="m5.062 12.696h18v2h-18z" fill="#656b76" transform="matrix(.866 -.5 .5 .866 -4.964 8.864)"/><path d="m3.064 9.236h18.001v1.998h-18.001z" fill="#656b76" transform="matrix(.866 -.5 .5 .866 -3.501 7.403)"/><path d="m9.88 17.26-3.11 1.8-1-1.73 3.07-1.77z" fill="#464a51"/><path d="m7.8 13.85-3.03 1.75-1-1.73 2.99-1.72z" fill="#464a51"/><path d="m39.41 41.684a5 5 0 0 1 .327-4.32l6.8-11.775-5.2-3-6.8 11.775a5 5 0 0 1 -3.577 2.443l-1.579.24a5 5 0 0 0 -3.577 2.443l-3.8 6.58 2.356 1.36a7.967 7.967 0 0 0 9.145 5.279l2.356 1.361 3.8-6.58a5 5 0 0 0 .327-4.319zm-4.01 5.189a4 4 0 1 1 -1.465-5.464 4 4 0 0 1 1.465 5.464z" fill="#d0d8da"/><path d="m39.41 41.68a5.012 5.012 0 0 1 .33-4.32l6.8-11.77-5.2-3-2.04 3.53a5.333 5.333 0 0 1 .13 5.92l-2.81 4.41a5.346 5.346 0 0 0 -.27 5.25l.46.91a5.359 5.359 0 0 1 0 4.78l-.05.08a5.335 5.335 0 0 1 -9.04.82l-1.72-2.29-2.93-1.76-1.06 1.83 2.36 1.36a7.969 7.969 0 0 0 9.14 5.28l2.36 1.36 3.79-6.58a5.006 5.006 0 0 0 .33-4.32z" fill="#93999a"/><path d="m60 10.268-12.125-7a2 2 0 0 0 -2.732.732l-10 17.321a22.159 22.159 0 0 1 15.589 9l10-17.321a2 2 0 0 0 -.732-2.732zm-11.33 9.625a2 2 0 1 1 -.733-2.732 2 2 0 0 1 .733 2.732z" fill="#e9f1f2"/><path d="m60 10.27-1.19-.69-4.79 7.84a7.994 7.994 0 0 1 -10.74 2.8l-5.67-3.19-2.47 4.29a22.159 22.159 0 0 1 15.59 9l10-17.32a2 2 0 0 0 -.73-2.73z" fill="#d0d8da"/><path d="m29.08 42.07a4.027 4.027 0 0 0 -.61.8 3.719 3.719 0 0 0 -.38.93l-3.58-2.06 1-1.73z" fill="#93999a"/><path d="m39.36 48.01-1 1.73-3.57-2.07 1-1.73z" fill="#656b76"/><g fill="#93999a"><path d="m37.09 46.69a4.645 4.645 0 0 1 -.28.7l-.05.08a5.471 5.471 0 0 1 -.63.98l-1.34-.78 1-1.73z"/><path d="m48.937 4.696h2v18h-2z" transform="matrix(.5 -.866 .866 .5 13.108 50.096)"/><path d="m50.936 1.234h1.998v18.001h-1.998z" transform="matrix(.5 -.866 .866 .5 17.083 50.076)"/></g><path d="m58.23 17.33-1 1.73-3.11-1.8 1.04-1.7z" fill="#656b76"/><path d="m60.23 13.87-1 1.73-3.03-1.75 1.04-1.7z" fill="#656b76"/></g></g></svg>