<svg height="512" viewBox="0 0 48 48" width="512" xmlns="http://www.w3.org/2000/svg"><path d="m28 4s-3 3.1-3 9" fill="#fff" stroke="#795548" stroke-miterlimit="10" stroke-width="2"/><path d="m39 26c0 8.3-6.7 19-15 19s-15-10.7-15-19c0-9.8 4.4-17 16-13 9.4-4.1 14 4.7 14 13z" fill="#9c27b0"/><path d="m32.9 28.6c.2-.5.2-1.1.2-1.6l.2-1.6c0-.5 0-1.1 0-1.7s0-1.1-.1-1.6-.2-1.1-.3-1.6-.3-1-.4-1.5c-.3-1-.7-1.9-1.1-2.9-.5-.8-.9-1.7-1.4-2.4-.4-.6-.8-1.2-1.3-1.7-1.2.1-2.4.4-3.8 1 5.2 4 6.3 11.9 6.3 12.4v1.5c0 .5 0 1-.1 1.5s-.1 1-.2 1.5c0 .5-.1 1-.2 1.4-.2.9-.4 1.8-.7 2.7-.3.8-.6 1.6-.9 2.3-.1.4-.3.7-.4 1-.2.3-.3.6-.5.9-.3.6-.5 1.1-.7 1.5-.3.8-.5 1.3-.5 1.3s.3-.4.8-1.2c.3-.4.6-.8.9-1.4.2-.3.4-.6.6-.8.2-.3.3-.6.5-1 .4-.7.8-1.5 1.2-2.3s.7-1.8 1-2.7c.2-.5.3-1 .4-1.5.2-.5.4-1 .5-1.5z" fill="#4a148c"/><g><path d="m25 13s-1.3-12.5-14-8c1.4 13 14 8 14 8z" fill="#4caf50"/></g></svg>