<svg height="512" viewBox="0 0 48 48" width="512" xmlns="http://www.w3.org/2000/svg"><g id="_28-plum" data-name="28-plum"><path d="m22 9c.64-4.35 2.7-8 5.95-8l2.05 2a7.335 7.335 0 0 0 -4.17 6z" fill="#4f4600"/><path d="m22 9h3c-6.08 0-11 8.5-11 19 0 7.64 2.65 14.22 7.94 17.24a3.362 3.362 0 0 1 -2.94 1.76c-8.19 0-15-9.84-15-22 0-8.84 6.26-16 14-16z" fill="#4d002f"/><path d="m25 9h5c7.74 0 14 7.16 14 16 0 12.16-6.81 22-15 22a14.02 14.02 0 0 1 -7.06-1.76c-5.29-3.02-7.94-9.6-7.94-17.24 0-10.5 4.92-19 11-19z" fill="#6e0043"/><path d="m22.8 4a2.624 2.624 0 0 1 .2 1c0 2-2 6-16 6 0-3.84 7.05-6.95 15.8-7z" fill="#3f7000"/><path d="m17 1c2.8 0 5.14 1.27 5.8 3-8.75.05-15.8 3.16-15.8 7a9.991 9.991 0 0 1 10-10z" fill="#63b300"/><path d="m22 9c.64-4.35 2.7-8 5.95-8l2.05 2a7.335 7.335 0 0 0 -4.17 6z" fill="#4f4600"/><path d="m28.95 2 1.032 1.007.018-.007-2.05-2c-3.25 0-5.31 3.65-5.95 8h1.178c.793-3.894 2.775-7 5.772-7z" fill="#403700"/><path d="m22 9h3c-6.08 0-11 8.5-11 19 0 7.64 2.65 14.22 7.94 17.24a3.362 3.362 0 0 1 -2.94 1.76c-8.19 0-15-9.84-15-22 0-8.84 6.26-16 14-16z" fill="#4d002f"/><path d="m25 9h5c7.74 0 14 7.16 14 16 0 12.16-6.81 22-15 22a14.02 14.02 0 0 1 -7.06-1.76c-5.29-3.02-7.94-9.6-7.94-17.24 0-10.5 4.92-19 11-19z" fill="#860052"/><path d="m31 42a14.224 14.224 0 0 1 -6.589-1.482c-4.938-2.543-7.411-8.084-7.411-14.518 0-8.842 4.592-16 10.267-16h4.666a12.681 12.681 0 0 1 4.73.923 12.6 12.6 0 0 0 -6.663-1.923h-5c-6.08 0-11 8.5-11 19 0 7.64 2.65 14.22 7.94 17.24a14.02 14.02 0 0 0 7.06 1.76c6.274 0 11.734-5.777 13.947-13.946-2.473 5.357-6.925 8.946-11.947 8.946z" fill="#6e0043"/><path d="m22.8 4a2.624 2.624 0 0 1 .2 1c0 2-2 6-16 6 0-3.84 7.05-6.95 15.8-7z" fill="#3f7000"/><path d="m17 1c2.8 0 5.14 1.27 5.8 3-8.75.05-15.8 3.16-15.8 7a9.991 9.991 0 0 1 10-10z" fill="#63b300"/><path d="m21.762 45.558a1.777 1.777 0 0 0 .178-.318 12.569 12.569 0 0 1 -1.391-.936c-.074-.056-.149-.111-.221-.169a13.266 13.266 0 0 1 -1.257-1.135c-.015-.016-.029-.032-.044-.047a15.226 15.226 0 0 1 -2.207-2.981 24.187 24.187 0 0 1 -2.82-11.972c0-10.5 4.92-19 11-19h-1c-7.74 0-15 7.16-15 16a28.754 28.754 0 0 0 3.253 13.6c-2.537-.723-5.664-2.409-6.943-4.651 2.359 7.69 7.647 13.051 13.69 13.051a3.284 3.284 0 0 0 1.425-.336 3.59 3.59 0 0 0 .977-.683l.042-.042a3.02 3.02 0 0 0 .262-.306c.019-.026.039-.05.056-.075z" fill="#30001e"/><path d="m9.651 18.525a2.746 2.746 0 0 0 .311-1.675 1.106 1.106 0 0 0 -.638-.742 1.527 1.527 0 0 0 -1.178.025 2.361 2.361 0 0 0 -.652.447 4.885 4.885 0 0 0 -1.474 3.22 2.408 2.408 0 0 0 .423 1.88c.564.623 1.375.252 1.792-.464a24.436 24.436 0 0 0 1.416-2.691z" fill="#6e0043"/><path d="m11.517 10.837a14.646 14.646 0 0 0 -4.417 4.128 42.752 42.752 0 0 0 5.851-.542 15.415 15.415 0 0 1 8.026-5.054 3.2 3.2 0 0 0 .023-.369h-1.233a23.234 23.234 0 0 1 -8.25 1.837z" fill="#3b0024"/><path d="m29.183 15.177a1 1 0 0 0 -.119.881 1.428 1.428 0 0 0 .525.471 28.349 28.349 0 0 1 7.6 7.124 3.9 3.9 0 0 0 .939 1.03 1.651 1.651 0 0 0 1.462.232 1.487 1.487 0 0 0 .7-.678 6 6 0 0 0 .26-5.155 16 16 0 0 0 -3.043-4.72 15.016 15.016 0 0 0 -2.344-2.3 5.015 5.015 0 0 0 -2.21-1.026c-2.643-.408-3.088 2.698-3.77 4.141z" fill="#a10062"/><ellipse cx="31" cy="22" fill="#a10062" rx="2" ry="4" transform="matrix(.707 -.707 .707 .707 -6.477 28.364)"/><path d="m41.439 37.247a29.429 29.429 0 0 0 2.561-12.247c0-8.84-6.26-16-14-16h-5c-3.99 0-7.469 3.672-9.4 9.155a38.017 38.017 0 0 0 25.839 19.092z" fill="#a10062"/><path d="m27.267 10h4.666a12.681 12.681 0 0 1 4.73.923 12.6 12.6 0 0 0 -6.663-1.923h-5c-3.99 0-7.469 3.672-9.4 9.155q.859 1.581 1.862 3.067c1.306-6.505 5.198-11.222 9.805-11.222z" fill="#860052"/><path d="m42.947 33.054a18.683 18.683 0 0 1 -2.466 3.977c.316.073.631.15.951.215a26.781 26.781 0 0 0 1.515-4.192z" fill="#860052"/><path d="m24 9h-6a12.472 12.472 0 0 0 -5.572 1.323q.489 1.737 1.133 3.4a14.644 14.644 0 0 1 10.439-4.723z" fill="#4d002f"/><path d="m13.561 13.726a37.918 37.918 0 0 0 2.039 4.429c1.931-5.483 5.41-9.155 9.4-9.155h-1a14.644 14.644 0 0 0 -10.439 4.726z" fill="#4d002f"/><path d="m23 5a2.624 2.624 0 0 0 -.2-1 28.7 28.7 0 0 0 -11.3 2.137 37.819 37.819 0 0 0 1.049 4.609c9.005-.909 10.451-4.046 10.451-5.746z" fill="#589e00"/><path d="m22.8 4c-.66-1.73-3-3-5.8-3a9.953 9.953 0 0 0 -5.878 1.918c.083 1.086.206 2.16.377 3.219a28.7 28.7 0 0 1 11.301-2.137z" fill="#8bc808"/><path d="m20.977 9.369a3.2 3.2 0 0 0 .023-.369h-1.233a21.736 21.736 0 0 1 -7.22 1.741q.45 1.533 1.023 3.008a15.265 15.265 0 0 1 7.407-4.38z" fill="#66003f"/><path d="m22 9c.64-4.35 2.7-8 5.95-8l2.05 2a7.335 7.335 0 0 0 -4.17 6z" fill="#4f4600"/><path d="m28.95 2 1.032 1.007.018-.007-2.05-2c-3.25 0-5.31 3.65-5.95 8h1.178c.793-3.894 2.775-7 5.772-7z" fill="#403700"/><path d="m29.183 15.177a1 1 0 0 0 -.119.881 1.428 1.428 0 0 0 .525.471 28.349 28.349 0 0 1 7.6 7.124 3.9 3.9 0 0 0 .939 1.03 1.651 1.651 0 0 0 1.462.232 1.487 1.487 0 0 0 .7-.678 6 6 0 0 0 .26-5.155 16 16 0 0 0 -3.043-4.72 15.016 15.016 0 0 0 -2.344-2.3 5.015 5.015 0 0 0 -2.21-1.026c-2.643-.408-3.088 2.698-3.77 4.141z" fill="#cf007e"/><ellipse cx="31" cy="22" fill="#cf007e" rx="2" ry="4" transform="matrix(.707 -.707 .707 .707 -6.477 28.364)"/><g fill="#f6fafd"><ellipse cx="35" cy="15" rx="1.65" ry="2.297" transform="matrix(.707 -.707 .707 .707 -.35 29.154)"/><ellipse cx="38" cy="19" rx=".825" ry="1.148" transform="matrix(.707 -.707 .707 .707 -2.3 32.449)"/><ellipse cx="19" cy="3" rx=".825" ry="1.148" transform="matrix(.707 -.707 .707 .707 3.448 14.319)"/><ellipse cx="35.746" cy="19.5" rx=".413" ry=".574" transform="matrix(.707 -.707 .707 .707 -3.315 31.001)"/></g></g></svg>