<svg height="512" viewBox="0 0 64 64" width="512" xmlns="http://www.w3.org/2000/svg"><g id="Artboard_01" data-name="Artboard 01"><path d="m56 23h6v4h-6z" fill="#66a4ff"/><path d="m56 23h6v1.408h-6z" fill="#598ede"/><path d="m62 11a1 1 0 0 1 -1-1v-6a1 1 0 0 0 -2 0v1a1 1 0 0 1 -2 0v-1a3 3 0 0 1 6 0v6a1 1 0 0 1 -1 1z" fill="#b8b8bb"/><path d="m58 11a1 1 0 0 1 -1-1v-2a1 1 0 0 1 2 0v2a1 1 0 0 1 -1 1z" fill="#66a4ff"/><path d="m42 56h13v6h4v-7a3 3 0 0 0 -3-3h-14z" fill="#598ede"/><path d="m2 62v-16a6 6 0 0 1 4.235-5.735l10.765-3.265h10l10.765 3.265a6 6 0 0 1 4.235 5.735v16z" fill="#b8b8bb"/><path d="m19.783 44.8h8.869v-7.3l-1.652-.5h-10l-.68.206a1.256 1.256 0 0 0 -.891 1.2v2.044a4.353 4.353 0 0 0 4.354 4.35z" fill="#d4d4d6"/><path d="m11 38.82-1.348.409v8.655h1.348z" fill="#8a8a8c"/><path d="m11 11v-5a4 4 0 0 1 4-4h14a4 4 0 0 1 4 4v5z" fill="#446aa9"/><path d="m29 2h-14a3.969 3.969 0 0 0 -1.739.413v1.027a5.788 5.788 0 0 0 5.788 5.788h12.005a1.945 1.945 0 0 0 1.946-1.945v-1.283a4 4 0 0 0 -4-4z" fill="#598ede" opacity=".5"/><path d="m34.542 14.308a4 4 0 0 1 2.458 3.692 4 4 0 0 1 -4 4h-22a4 4 0 0 1 -4-4 4 4 0 0 1 2.443-3.686z" fill="#f2b9a1"/><path d="m17 32.8v4.2a9.716 9.716 0 0 0 10 0v-4.2z" fill="#f2b9a1"/><path d="m33 13v10a11 11 0 0 1 -11 11 11 11 0 0 1 -11-11v-10z" fill="#f4c8ad"/><path d="m35 58h7v3h-7z" fill="#f2b9a1"/><path d="m2 58h7v3h-7z" fill="#f2b9a1"/><path d="m35 62v-13a2 2 0 0 0 -2-2h-22a2 2 0 0 0 -2 2v13z" fill="#446aa9"/><path d="m22 9.546a52.809 52.809 0 0 1 11.527 1.617 1.936 1.936 0 0 1 1.473 1.888 1.941 1.941 0 0 1 -2.372 1.9 50.911 50.911 0 0 0 -10.628-1.405 50.911 50.911 0 0 0 -10.628 1.4 1.941 1.941 0 0 1 -2.372-1.895 1.936 1.936 0 0 1 1.473-1.888 52.809 52.809 0 0 1 11.527-1.617z" fill="#598ede"/><path d="m19 9.69v-2.69a1 1 0 0 1 1-1h4a1 1 0 0 1 1 1v2.69z" fill="#f4ac1c"/><path d="m32 52.62h-2a1 1 0 0 1 0-2h2a1 1 0 0 1 0 2z" fill="#355485"/><path d="m14 52.62h-2a1 1 0 0 1 0-2h2a1 1 0 1 1 0 2z" fill="#355485"/><path d="m32 52h-2a1 1 0 0 1 0-2h2a1 1 0 0 1 0 2z" fill="#f4ac1c"/><path d="m14 52h-2a1 1 0 0 1 0-2h2a1 1 0 0 1 0 2z" fill="#f4ac1c"/><path d="m14 37.91v9.09h-3v-8.18z" fill="#598ede"/><path d="m30 37.91v9.09h3v-8.18z" fill="#598ede"/><path d="m14 62v-8h9 4 3v8z" fill="#598ede"/><path d="m55 14h-11a2 2 0 0 1 -2-2 2 2 0 0 1 2-2h19v4z" fill="#eaebef"/><path d="m45 14v2.085a6.915 6.915 0 0 0 3.357 5.929 6.916 6.916 0 0 0 3.558.986h11.085v-9z" fill="#d4d4d6"/><path d="m57 32v-5h4v16a3 3 0 0 1 -3 3h-5v-4h4z" fill="#598ede"/><rect fill="#66a4ff" height="8" rx="1" width="5" x="48" y="40"/><path d="m42 46h6v-4h-7.53z" fill="#598ede"/><circle cx="44" cy="27" fill="#46cff9" r="3"/><path d="m44 24a2.969 2.969 0 0 0 -1.829.638 2.988 2.988 0 0 0 4.343 3.99 2.993 2.993 0 0 0 -2.514-4.628z" fill="#76d8ff"/><ellipse cx="44.342" cy="25.464" fill="#c8efff" rx="1.313" ry=".965"/><circle cx="39" cy="34" fill="#46cff9" r="2"/><path d="m39 32a1.987 1.987 0 0 0 -1.337.522 1.993 1.993 0 0 0 3.163 2.288 2 2 0 0 0 -1.826-2.81z" fill="#76d8ff"/><ellipse cx="39.178" cy="33.042" fill="#c8efff" rx=".879" ry=".75"/><circle cx="4" cy="27" fill="#46cff9" r="2"/><path d="m4 25a1.988 1.988 0 0 0 -1.55.75 1.973 1.973 0 0 0 -.083.541 1.992 1.992 0 0 0 3.55 1.25 1.973 1.973 0 0 0 .083-.541 2 2 0 0 0 -2-2z" fill="#76d8ff"/><ellipse cx="4.183" cy="25.965" fill="#c8efff" rx=".879" ry=".75"/><path d="m14.063 10.389a2.794 2.794 0 0 0 .378 3.934 43.948 43.948 0 0 1 7.559-.777 45.071 45.071 0 0 1 8.065.87 2.809 2.809 0 0 0 .608-3.885 46.556 46.556 0 0 0 -8.673-.985 44.965 44.965 0 0 0 -7.937.843z" fill="#66a4ff"/><path d="m24 6h-4c-.019 0-.035.01-.054.011v1.049a1.842 1.842 0 0 0 1.842 1.84h3.212v-1.9a1 1 0 0 0 -1-1z" fill="#ffc239"/><rect fill="#66a4ff" height="2.011" rx="1.005" width="8.152" x="16.057" y="2"/><rect fill="#66a4ff" height="2.011" rx="1.005" width="5.082" x="24.788" y="2"/><rect fill="#ffc239" height="1.993" rx=".548" width="2.095" x="29.905" y="50.007"/><rect fill="#ffc239" height="1.993" rx=".548" width="2.095" x="11.905" y="50.007"/><path d="m14 54a0 0 0 0 1 0 0v8a0 0 0 0 1 0 0h-1a0 0 0 0 1 0 0v-7a1 1 0 0 1 1-1z" fill="#355485"/><path d="m62 63h-60a1 1 0 0 1 0-2h60a1 1 0 0 1 0 2z" fill="#355485"/><path d="m30 37.91-1.348-.409v9.499h1.348z" fill="#8a8a8c"/><path d="m4.44 57a3.6 3.6 0 0 0 3.6-3.6v-11.794a1.4 1.4 0 0 0 -1.808-1.341 6 6 0 0 0 -4.232 5.735v11z" fill="#d4d4d6"/><path d="m33 44.609h.886a2.69 2.69 0 0 1 2.69 2.69v6.456a2.952 2.952 0 0 0 2.951 2.952h2.473v-10.707a6 6 0 0 0 -4.235-5.735l-4.765-1.445z" fill="#d4d4d6"/><path d="m36.658 58h5.342a0 0 0 0 1 0 0v3a0 0 0 0 1 0 0h-3.6a1.739 1.739 0 0 1 -1.739-1.739v-1.261a0 0 0 0 1 -.003 0z" fill="#f4c8ad"/><path d="m3.739 58h3.6a0 0 0 0 1 0 0v3a0 0 0 0 1 0 0h-5.339a0 0 0 0 1 0 0v-1.261a1.739 1.739 0 0 1 1.739-1.739z" fill="#f4c8ad" transform="matrix(-1 0 0 -1 9.342 119)"/><g fill="#66a4ff"><rect height="4" rx="1.261" width="9.424" x="44.076" y="52"/><rect height="4" rx="1.027" width="4.859" x="42.56" y="42"/><rect height="9.783" rx="2" width="4" x="57" y="30.571"/></g><rect fill="#fbfbfc" height="4" rx="2" width="13" x="47" y="10"/></g></svg>