<svg id="Capa_1" enable-background="new 0 0 510 510" height="512" viewBox="0 0 510 510" width="512" xmlns="http://www.w3.org/2000/svg" xmlns:xlink="http://www.w3.org/1999/xlink"><linearGradient id="SVGID_1_" gradientUnits="userSpaceOnUse" x1="324.521" x2="350.693" y1="153.479" y2="179.652"><stop offset="0" stop-color="#f9f5f3"/><stop offset="1" stop-color="#efe2dd"/></linearGradient><linearGradient id="SVGID_00000119093761793571424570000006703826375137504648_" gradientUnits="userSpaceOnUse" x1="258.279" x2="246.279" y1="230.618" y2="284.618"><stop offset="0" stop-color="#9e9797" stop-opacity="0"/><stop offset=".3107" stop-color="#979090" stop-opacity=".311"/><stop offset=".7858" stop-color="#817a7a" stop-opacity=".786"/><stop offset="1" stop-color="#766e6e"/></linearGradient><linearGradient id="lg1"><stop offset="0" stop-color="#fd4755"/><stop offset="1" stop-color="#a72b2b"/></linearGradient><linearGradient id="SVGID_00000051375483828159128820000003475542435934220715_" gradientUnits="userSpaceOnUse" x1="201.586" x2="229.747" xlink:href="#lg1" y1="275.414" y2="303.574"/><linearGradient id="lg2"><stop offset="0" stop-color="#a72b2b" stop-opacity="0"/><stop offset="1" stop-color="#42210b"/></linearGradient><linearGradient id="SVGID_00000143605663674626465180000005154850252156176803_" gradientUnits="userSpaceOnUse" x1="217.024" x2="199.024" xlink:href="#lg2" y1="284.012" y2="322.012"/><linearGradient id="SVGID_00000062886678236485903670000011593449739645205123_" gradientTransform="matrix(.707 .707 -.707 .707 326.526 -75.997)" gradientUnits="userSpaceOnUse" x1="135.089" x2="230.519" xlink:href="#lg1" y1="392.524" y2="527.18"/><linearGradient id="SVGID_00000098926025488317489110000001586102344006439086_" gradientTransform="matrix(.707 .707 -.707 .707 326.526 -75.997)" gradientUnits="userSpaceOnUse" x1="183.474" x2="183.474" xlink:href="#lg2" y1="437.52" y2="494.163"/><linearGradient id="SVGID_00000137842036963154036290000017953618417941268123_" gradientTransform="matrix(.707 .707 -.707 .707 326.526 -75.997)" gradientUnits="userSpaceOnUse" x1="183.474" x2="183.474" xlink:href="#lg1" y1="482.937" y2="518.182"/><g><path d="m205.042 353.042-48.083-48.083 295-295c13.278-13.278 34.805-13.278 48.083 0 13.278 13.278 13.278 34.805 0 48.083z" fill="url(#SVGID_1_)"/><path d="m299.458 162.458-142.5 142.5 48.084 48.084 142.5-142.5z" fill="url(#SVGID_00000119093761793571424570000006703826375137504648_)"/><path d="m221.387 353.042 35.72-35.72c12.209-12.209 12.209-32.005 0-44.214l-20.214-20.214c-12.209-12.209-32.005-12.209-44.214 0l-35.72 35.72z" fill="url(#SVGID_00000051375483828159128820000003475542435934220715_)"/><path d="m221.387 353.042 35.72-35.72c12.209-12.209 12.209-32.005 0-44.214l-20.214-20.214c-12.209-12.209-32.005-12.209-44.214 0l-35.72 35.72z" fill="url(#SVGID_00000143605663674626465180000005154850252156176803_)"/><g><path d="m206.139 303.861c-49.735-49.735-130.372-49.735-180.108 0l180.108 180.108c49.735-49.735 49.735-130.372 0-180.108z" fill="url(#SVGID_00000062886678236485903670000011593449739645205123_)"/><path d="m26.031 303.861 180.108 180.108c16.686-16.686 27.764-36.851 33.254-58.16l-155.202-155.202c-21.309 5.49-41.474 16.568-58.16 33.254z" fill="url(#SVGID_00000098926025488317489110000001586102344006439086_)"/><g><path d="m191.083 506.851c-76.934-47.069-140.864-111-187.934-187.934-6.376-10.422-2.746-24.061 7.961-29.946.126-.069.253-.139.379-.208 10.028-5.513 22.615-2.168 28.586 7.593 43.491 71.09 102.48 130.078 173.57 173.569 9.761 5.972 13.106 18.559 7.593 28.586-.07.126-.139.253-.209.379-5.885 10.706-19.525 14.337-29.946 7.961z" fill="url(#SVGID_00000137842036963154036290000017953618417941268123_)"/></g></g></g></svg>