<svg height="463pt" viewBox="0 -88 463.023 463" width="463pt" xmlns="http://www.w3.org/2000/svg"><path d="m396.386719 254.367188-5.097657 5.179687c-8.296874 4.699219-13.425781 13.496094-13.425781 23.035156 0 2.097657 1.253907 3.90625 3.0625 4.710938h-46.878906c-4.617187 0-8.367187-3.75-8.367187-8.367188 0-7.554687 4.066406-14.53125 10.632812-18.257812 0 0 10.097656-5.695313 13.53125-7.632813.601562-.339844.777344-1.128906.375-1.6875-9.949219-13.8125-22.097656-25.878906-35.9375-35.707031 4.394531.984375 8.714844 1.570313 12.890625 1.570313 22.429687 0 35.417969-4.0625 46.667969-8.675782l4.460937.617188c9.003907 13.84375 14.976563 27.714844 18.085938 45.214844zm0 0" fill="#9d9e9e"/><path d="m245.238281 263.597656-2.597656 6.4375c-.699219 1.746094-1.636719 3.414063-2.804687 4.984375-1.152344 1.578125-2.546876 3.050781-4.117188 4.394531-5.902344 5.023438-14.175781 7.878907-22.824219 7.878907h-36.222656c6.949219-1.175781 13.375-4.601563 18.253906-9.824219 1.636719-1.746094 3.058594-3.671875 4.265625-5.726562 1.203125-2.054688 2.179688-4.234376 2.910156-6.515626l8.335938-26.074218c4.550781-14.238282 6.871094-29.097656 6.871094-44.042969 0 0 4.660156-1.148437 13.03125-1.148437 4.519531 0 10.128906.335937 16.664062 1.371093.207032 1.136719.425782 2.3125.644532 3.488281 1.421874 7.660157 2.882812 15.648438 3.078124 16.910157 2.605469 16.085937.730469 32.425781-5.488281 47.867187zm0 0" fill="#9d9e9e"/><path d="m153.765625 254.28125c3.351563-1.863281 6.945313-3.265625 10.660156-4.136719 8.476563-26.566406 11.375-50.855469 10.933594-72.367187-.46875-22.734375-4.667969-42.363282-9.957031-58.316406-8.554688-25.800782-34.328125-42.296876-61.675782-39.179688-31.886718 3.636719-56.59375-.519531-62.308593-1.628906l8.21875 4.925781c18.671875 11.175781 35.3125 25.164063 49.34375 41.367187 12.226562 14.113282 22.476562 29.910157 30.359375 46.992188.089844.1875.179687.375.261718.554688 7.945313 17.292968 12.019532 36.035156 12.019532 54.9375 0 2.988281-.097656 5.976562-.300782 8.964843l-1.449218 25.640625zm0 0" fill="#ceccc8"/><path d="m56.144531 12.527344c.605469-6.277344-3.996093-11.859375-10.273437-12.4609378-6.28125-.6054682-11.859375 3.9960938-12.464844 10.2734378-.601562 6.28125 4 11.859375 10.277344 12.464844zm0 0" fill="#9d9e9e"/><path d="m463.023438 123.824219c0 9.441406-.660157 18.863281-1.980469 28.183593-1.328125 9.316407-3.320313 18.546876-5.941407 27.628907-4.46875 15.4375-7.136718 31.351562-7.929687 47.398437l-1.339844 42.902344c-.179687 5.816406-3.210937 11.167969-8.101562 14.308594l-.339844.230468c-2.859375 1.828126-6.179687 2.816407-9.570313 2.816407h-49.199218c-.917969 0-1.667969-.6875-1.789063-1.597657-1.421875-10.652343 3.800781-20.890624 12.929688-26.070312l1.910156-1.238281c2.21875-1.449219 3.289063-4.132813 2.71875-6.722657-1.1875-5.390624-2.820313-10.988281-4.386719-15.488281-2.910156-8.328125-6.710937-15.980469-11.433594-23.550781-.96875-1.550781-2.578124-2.570312-4.390624-2.820312-.257813-.039063-.507813-.050782-.769532-.050782-.75 0-1.488281.140625-2.199218.421875-10.710938 4.277344-23.28125 7.929688-44.328126 7.929688-17.941406 0-38.5625-11-55.859374-16.769531-16.03125-5.351563-29.023438-6.632813-37.84375-6.632813-8.269532 0-12.867188 1.132813-12.867188 1.132813 0 6.949218-.511719 13.878906-1.523438 20.726562-1.117187 7.703125-2.878906 15.3125-5.257812 22.742188l-8.230469 25.75c-1.441406 4.507812-3.859375 8.628906-7.089843 12.078124v.011719c-6.039063 6.46875-14.5 10.148438-23.359376 10.148438h-40.25c-2.339843 0-4.359374-1.640625-4.839843-3.917969-1.878907-8.992188 2.308593-17.839844 9.988281-22.199219l.289062-.160156 13.542969-7.660156c3.257813-1.839844 6.757813-3.230469 10.378907-4.089844 8.261718-26.242187 11.078124-50.242187 10.648437-71.5-.476563-23.933594-5.097656-44.378906-10.71875-60.660156-8.273437-23.929688-32.140625-38.949219-57.273437-35.871094-28.546876 3.5-47.429688 1.152344-56.128907-.328125-1.660156-.292969-7.027343-1.402344-8.539062-2.140625-9.910157-1.972656-19.570313-4.992187-28.832031-8.992187-5.179688-2.238282-9.167969-6.339844-11.316407-11.308594-.023437-.039063-.03125-.078125-.050781-.121094-1.140625-2.648438-1.75-5.539062-1.75-8.539062 0-4.667969 3-8.8125 7.4375-10.261719l9.863281-3.21875c1.976563-.648438 3.828125-1.601563 5.488281-2.832031.921876-.660157 1.789063-1.417969 2.589844-2.257813l4.699219-6.652344c4.789063-6.777343 11.101563-12.1875 18.269531-15.90625 9.910156-5.121093 19-5.730469 23.542969-5.730469h26.597656c20.472657 0 40.871094 2.46875 60.761719 7.328126l26.398438 6.472656c13.523437 3.917968 27.539062 5.9375 41.621093 5.75h130.820313c27.976562 0 56.917968 11.328125 75.25 29.679687 18.34375 18.339844 29.683594 43.671875 29.683594 71.648438zm0 0" fill="#eae6e1"/><path d="m92.195312 37.164062c-1.398437 1.714844-3.566406 2.207032-5.417968 1.589844-1.757813-.585937-3.679688-.382812-5.117188.789063l-.519531.421875c-4.128906 3.371094-2.789063 9.902344 2.257813 11.347656 1.617187.460938 3.285156.691406 4.960937.691406 3.984375 0 7.992187-1.316406 11.316406-4.027344 7.65625-6.246093 8.804688-17.558593 2.558594-25.214843-4.1875-5.136719-10.65625-7.34375-16.773437-6.355469-4.632813.746094-6.820313 6.1875-4.179688 10.066406 1.402344 2.0625 3.867188 3.183594 6.328125 2.777344.453125-.070312.875-.09375 1.234375-.058594 1.617188.164063 3.035156 1.097656 3.84375 2.574219.933594 1.710937.738281 3.890625-.492188 5.398437zm0 0" fill="#9d9e9e"/><path d="m58.023438 34.089844c0 3.34375-2.707032 6.050781-6.050782 6.050781-3.339844 0-6.050781-2.707031-6.050781-6.050781s2.710937-6.050782 6.050781-6.050782c3.34375 0 6.050782 2.707032 6.050782 6.050782zm0 0"/><path d="m22.8125 37.785156c.058594 8.53125-5.570312 16.0625-13.75 18.429688l-7.308594 2.132812c-1.144531-2.652344-1.74999975-5.539062-1.74999975-8.539062 0-4.671875 2.99999975-8.8125 7.43749975-10.261719l9.859375-3.222656c1.980469-.648438 3.832031-1.597657 5.488281-2.828125zm0 0" fill="#9d9e9e"/><path d="m378.570312 212.625c-.96875-1.550781-2.578124-2.570312-4.386718-2.820312-.261719-.039063-.511719-.046876-.773438-.046876-.75 0-1.488281.136719-2.199218.417969-10.707032 4.28125-23.277344 7.929688-44.328126 7.929688-17.941406 0-38.5625-11-55.859374-16.769531-16.03125-5.351563-29.019532-6.628907-37.839844-6.628907-8.273438 0-12.871094 1.128907-12.871094 1.128907v-23.960938c0-8.902344 7.390625-16.007812 16.285156-15.679688 17.089844.632813 42.929688 5.511719 62.304688 18.011719 25.699218 16.578125 40.382812 16.09375 58.457031 17.023438 4.441406.226562 8.558594 2.378906 11.253906 5.914062zm0 0" fill="#ceccc8"/></svg>