<svg id="Capa_1" enable-background="new 0 0 512 512" viewBox="0 0 512 512" xmlns="http://www.w3.org/2000/svg"><g><g><g><path d="m441.655 499.931-116.552-116.552 58.276-58.276 116.552 116.552c16.092 16.092 16.092 42.183 0 58.276-16.093 16.092-42.184 16.092-58.276 0z" fill="#ffdecf"/></g></g><g><g><path d="m470.793 470.793-116.552-116.552-29.138 29.138 116.552 116.552c16.092 16.092 42.183 16.092 58.276 0 5.309-5.309 8.855-11.709 10.661-18.477-13.746 3.668-29.016.122-39.799-10.661z" fill="#ffcdbe"/></g></g><g><g><path d="m246.638 445.281 99.274-99.274 99.274-99.274-10.831-45.483-152.974-152.973c-64.37-64.37-168.733-64.37-233.103 0-64.37 64.37-64.37 168.734 0 233.103l153.13 153.13z" fill="#ff9696"/></g></g><g><g><path d="m246.638 445.281 55.615-55.615-181.131-181.13c-51.649-51.649-61.845-129.043-30.61-190.869-15.227 7.693-29.514 17.889-42.235 30.61-64.37 64.37-64.37 168.733 0 233.103l153.13 153.13z" fill="#ff7d81"/></g></g><g><g><path d="m62.846 179.398c8.046-8.046 21.092-8.046 29.138 0l152.974 152.974c8.046 8.046 8.046 21.092 0 29.138-8.046 8.046-21.092 8.046-29.138 0l-152.974-152.974c-8.046-8.047-8.046-21.092 0-29.138z" fill="#ff636e"/></g></g><g><g><path d="m91.984 91.984c8.046-8.046 21.092-8.046 29.138 0l152.974 152.974c8.046 8.046 8.046 21.092 0 29.138-8.046 8.046-21.092 8.046-29.138 0l-152.974-152.974c-8.046-8.046-8.046-21.092 0-29.138z" fill="#ff636e"/></g></g><g><g><path d="m179.398 62.846c8.046-8.046 21.092-8.046 29.138 0l152.974 152.974c8.046 8.046 8.046 21.092 0 29.138-8.046 8.046-21.092 8.046-29.138 0l-152.974-152.974c-8.046-8.046-8.046-21.092 0-29.138z" fill="#ff636e"/></g></g><g><g><path d="m332.372 478.062 145.69-145.69c24.139-24.139 24.139-63.275 0-87.414l-43.707-43.707c-29.139 29.139-14.57 43.708-43.709 72.847s-43.708 14.57-72.847 43.709c-29.137 29.137-14.569 43.706-43.706 72.844-29.137 29.137-43.706 14.568-72.842 43.704l43.707 43.707c24.139 24.138 63.275 24.138 87.414 0z" fill="#06ccab"/></g></g><g><g><path d="m317.803 405.217-30.682-30.682c-3.04 4.938-7.141 10.229-13.027 16.116-29.137 29.137-43.706 14.568-72.842 43.704l43.707 43.707c24.139 24.139 63.275 24.139 87.414 0l72.845-72.845c-24.14 24.138-63.276 24.138-87.415 0z" fill="#00bd9d"/></g></g><g><g><g><g><path d="m319.85 418.329c-1.919 0-3.839-.732-5.303-2.196l-8.741-8.741c-2.929-2.93-2.929-7.678 0-10.607 2.929-2.928 7.678-2.928 10.606 0l8.741 8.741c2.929 2.93 2.929 7.678 0 10.607-1.465 1.464-3.384 2.196-5.303 2.196z" fill="#495560"/></g></g><g><g><path d="m410.829 327.35c-1.919 0-3.839-.732-5.303-2.196l-8.741-8.741c-2.929-2.93-2.929-7.678 0-10.607 2.929-2.928 7.678-2.928 10.606 0l8.741 8.741c2.929 2.93 2.929 7.678 0 10.607-1.464 1.463-3.383 2.196-5.303 2.196z" fill="#495560"/></g></g><g><g><path d="m354.635 384.625c-.686 0-1.374-.023-2.062-.07-4.133-.283-7.253-3.863-6.969-7.996s3.88-7.251 7.996-6.969c4.334.287 8.578-1.289 11.641-4.351s4.648-7.305 4.35-11.64c-.284-4.132 2.836-7.712 6.968-7.996 4.132-.27 7.713 2.836 7.997 6.969.595 8.661-2.579 17.145-8.708 23.274-5.642 5.641-13.279 8.779-21.213 8.779z" fill="#495560"/></g></g></g></g></g><g/><g/><g/><g/><g/><g/><g/><g/><g/><g/><g/><g/><g/><g/><g/></svg>