<svg id="Layer_1" enable-background="new 0 0 68 68" viewBox="0 0 68 68" xmlns="http://www.w3.org/2000/svg"><g><g><path d="m40.4327927 7.1241312-.4188881 1.2787695-.9278564 2.8294306c-.350914 1.0975094-1.358345 1.8336029-2.5011711 1.8336029h-5.0819206c-1.131773 0-2.1502571-.7360935-2.501173-1.8336029l-.9168015-2.8294306-.4186115-1.2787695c-.5545578-1.6976576.7242126-3.4406309 2.5011711-3.4406309h7.7527504c1.7996139 0 3.0670585 1.7429733 2.5125007 3.4406309z" fill="#454545"/><path d="m37.9205666 3.6787109h-3.9236221v9.3912764h2.5876579c1.1453094 0 2.1505318-.7383051 2.5066948-1.8324986l1.3362427-4.1104102c.5600852-1.7048421-.7126046-3.4483676-2.5069733-3.4483676z" fill="#2c2c2c"/><path d="m40.0139046 8.4029007-.9278564 2.8294306c-.350914 1.0975094-1.358345 1.8336029-2.5011711 1.8336029h-5.0819206c-1.131773 0-2.1502571-.7360935-2.501173-1.8336029l-.9168015-2.8294306z" fill="#0c0c0c"/><path d="m59.1751709 22.8037109c-.5734863-6.9960938-6.4245605-12.5-13.5681152-12.5h-23.1142578c-3.7617188 0-7.1704102 1.5283203-9.6391602 3.9970703-2.2094727 2.2094727-3.6569824 5.1904297-3.9289551 8.5029297z" fill="#108be1"/><path d="m33.9017334 22.8037109h25.2734375c-.5734863-6.9960938-6.4245605-12.5-13.5681152-12.5h-11.7053223z" fill="#0c6bc3"/><g fill="#108be1"><path d="m13.9249268 35.3613281c0 1.0498047-.4199219 2-1.1098633 2.6796875-.6801758.6904297-1.630127 1.1201172-2.6801758 1.1201172h-4.2797852c-2.0900879 0-3.7800293-1.7001953-3.7800293-3.7998047 0-1.050293.4199219-2 1.1098633-2.6899414.6799316-.6801758 1.630127-1.1000977 2.670166-1.1000977h4.2797852c2.0900879.0000001 3.7900391 1.6899415 3.7900391 3.7900391z"/><path d="m65.9249268 35.3613281c0 1.0498047-.4199219 2-1.1098633 2.6796875-.6801758.6904297-1.630127 1.1201172-2.6801758 1.1201172h-4.2797852c-2.0900879 0-3.7800293-1.7001953-3.7800293-3.7998047 0-1.050293.4199219-2 1.1098633-2.6899414.6799316-.6801758 1.630127-1.1000977 2.670166-1.1000977h4.2797852c2.0900879.0000001 3.7900391 1.6899415 3.7900391 3.7900391z"/></g><path d="m13.9249268 35.3613281c0 1.0498047-.4199219 2-1.1098633 2.6796875-.6801758.6904297-1.630127 1.1201172-2.6801758 1.1201172h-2.7797852v-7.5898438h2.7797852c2.0900879.0000001 3.7900391 1.6899415 3.7900391 3.7900391z" fill="#085bb6"/><path d="m60.7349854 31.5712891v7.5898438h-2.8798828c-2.0900879 0-3.7800293-1.7001953-3.7800293-3.7998047 0-1.050293.4199219-2 1.1098633-2.6899414.6799316-.6801758 1.630127-1.1000977 2.670166-1.1000977z" fill="#085bb6"/><path d="m58.7349854 26.9311523v24.5800781c0 7.0698242-5.7399902 12.8100586-12.8100586 12.8100586h-23.75c-7.0800781 0-12.8198242-5.7402344-12.8198242-12.8100586v-24.5800781z" fill="#e8edf2"/><path d="m34.0684814 26.9287109v37.390625h11.8540039c7.0761719 0 12.8125-5.7363281 12.8125-12.8125v-24.578125z" fill="#c4d3e4"/><path d="m63.5278893 24.7700195c0 1.1445198-.4687195 2.1910896-1.2211761 2.9432793-.7521896.7527218-1.7878456 1.2105293-2.9326324 1.2105293h-51.1483079c-2.3002191 0-4.1538091-1.85359-4.1538091-4.1538086 0-1.145052.4580741-2.1804428 1.2102633-2.9326324s1.7990255-1.2211761 2.9435458-1.2211761h51.1483078c2.2895736-.0000001 4.1538086 1.8642368 4.1538086 4.1538085z" fill="#454545"/><path d="m4.0775146 24.824707c.0297852 2.2739258 1.8666992 4.0991211 4.1481934 4.0991211h51.1484375c1.1447754 0 2.1804199-.4580078 2.9326172-1.2104492.7402344-.7397461 1.2006836-1.7661133 1.2155762-2.8886719z" fill="#2c2c2c"/></g><g><path d="m14.9953346 52.1771393c-.2720079.2769432-.6509619.4488487-1.069788.4488182-.8283272.0001945-1.5000658-.6712036-1.5002632-1.4995346l-.0005074-15.3402405c-.0008879-.8283195.67103-1.5002365 1.4995317-1.5002632.8283272-.0001945 1.5000658.6712074 1.5002632 1.4995346l.0005064 15.3402405c.00023.4095001-.1638926.7807693-.4297427 1.051445z" fill="#fff"/></g><g><path d="m30.6987114 11.8701162c.2315712.2274427.3753109.5443096.3752842.8945169.000164.6926165-.5612354 1.2542992-1.2538528 1.2544641l-5.7865429.0004244c-.6926117.000742-1.2544422-.5610905-1.2544651-1.2538528-.000164-.6926165.5612354-1.2542992 1.2538528-1.2544641l5.7865429-.0004234c.342411-.0001917.652853.1370411.8791809.3593349z" fill="#4db6ff"/></g></g></svg>