<svg id="Layer_1" enable-background="new 0 0 70 70" height="512" viewBox="0 0 70 70" width="512" xmlns="http://www.w3.org/2000/svg"><g id="_x33_0"><g><g><g><path d="m66.1479568 32.9560127c-.2133865.6270103-.4169159 1.2597656-.6023865 1.8991852-3.5897255 12.3970299-21.1185837 19.9631004-33.9003754 26.3367538-13.1318969 6.5491829-22.8656596-.4157524-27.1347493-8.3038177-4.2685127-7.887291.976953-19.3010597 9.8778028-26.1659279 13.012724-10.0353527 13.3752766-10.0561943 16.8829098-13.1006012 14.2192135-12.3359527 24.0493984-5.5513115 24.0493984-5.5513115 14.3282776 10.5561409 11.8958664 21.7348099 10.8274002 24.8857193z" fill="#c69c6c"/><path d="m55.3205566 8.0702543s-1.2189941-.8369141-3.4117432-1.3884277c8.6135254 9.0896606 6.6939697 17.7478638 5.7745361 20.4595947-.2133789.6270142-.4169922 1.2597656-.6025391 1.8991699-3.5895995 12.3970347-21.1185301 19.9631358-33.9003905 26.336793-6.0522461 3.0184326-11.3803711 3.1619873-15.7866211 1.671814 5.0654297 5.8231201 13.5236816 9.4929161 24.2514648 4.1427612 12.7817383-6.3736572 30.3105469-13.9397583 33.9003906-26.336792.1853027-.6394043.388916-1.2721558.6022949-1.8991699 1.0684816-3.1508808 3.5008546-14.3295918-10.8273925-24.8857432z" fill="#c19768"/><g opacity=".1"><path d="m66.1479568 32.9560127c-.2133865.6270103-.4169159 1.2597656-.6023865 1.8991852-3.5897255 12.3970299-21.1185837 19.9631004-33.9003754 26.3367538-11.6058426 5.788105-20.5576591 1.0197067-25.4274521-5.6117249 5.1526747 6.1993523 14.7644672 10.6209908 25.7046223 4.2726974 12.1726151-7.0634422 48.7329712-18.8572769 22.942852-52.0526276.2998886.1629095.4553413.2699971.4553413.2699971 14.3282758 10.5561406 11.8958646 21.7348096 10.8273984 24.885719z" fill="#4c5c75"/></g></g></g><g><path d="m45.4354782 49.4824715c7.0852051-2.961647 13.6228294-9.005497 14.1704102-14.4382591-2.7664414 5.8526992-8.4664269 10.347763-14.1704102 14.4382591z" fill="#fff"/></g></g><g fill="#b4895e"><g><ellipse cx="53.175" cy="11.156" rx=".93" ry="1.923" transform="matrix(.845 -.535 .535 .845 2.278 30.169)"/><ellipse cx="50.189" cy="20.67" rx=".93" ry="1.923" transform="matrix(.845 -.535 .535 .845 -3.274 30.048)"/><ellipse cx="40.315" cy="11.826" rx=".93" ry="1.923" transform="matrix(.845 -.535 .535 .845 -.074 23.395)"/><ellipse cx="35.314" cy="37.757" rx=".93" ry="1.923" transform="matrix(.845 -.535 .535 .845 -14.719 24.741)"/><ellipse cx="27.329" cy="22.098" rx=".93" ry="1.923" transform="matrix(.845 -.535 .535 .845 -7.582 18.042)"/><ellipse cx="37.572" cy="24.677" rx=".93" ry="1.923" transform="matrix(.845 -.535 .535 .845 -7.373 23.921)"/><ellipse cx="45.69" cy="28.785" rx=".93" ry="1.923" transform="matrix(.845 -.535 .535 .845 -8.311 28.899)"/><ellipse cx="15.209" cy="30.485" rx=".93" ry="1.923" transform="matrix(.845 -.535 .535 .845 -13.946 12.861)"/><ellipse cx="15.306" cy="42.75" rx=".93" ry="1.923" transform="matrix(.845 -.535 .535 .845 -20.491 14.814)"/><ellipse cx="25.012" cy="34.778" rx=".93" ry="1.923" transform="matrix(.845 -.535 .535 .845 -14.723 18.769)"/><ellipse cx="7.512" cy="43.704" rx=".93" ry="1.923" transform="matrix(.845 -.535 .535 .845 -22.21 10.794)"/><ellipse cx="24.34" cy="46.013" rx=".93" ry="1.923" transform="matrix(.845 -.535 .535 .845 -20.835 20.152)"/></g><g><ellipse cx="55.579" cy="29.185" rx=".93" ry="1.923" transform="matrix(.845 -.535 .535 .845 -6.992 34.25)"/><ellipse cx="45.128" cy="39.717" rx=".93" ry="1.923" transform="matrix(.845 -.535 .535 .845 -14.245 30.294)"/><ellipse cx="52.521" cy="38.502" rx=".93" ry="1.923" transform="matrix(.845 -.535 .535 .845 -12.449 34.059)"/><ellipse cx="31.922" cy="46.649" rx=".93" ry="1.923" transform="matrix(.845 -.535 .535 .845 -20 24.306)"/><ellipse cx="30.473" cy="58.256" rx=".93" ry="1.923" transform="matrix(.845 -.535 .535 .845 -26.433 25.33)"/><ellipse cx="40.52" cy="50.545" rx=".93" ry="1.923" transform="matrix(.845 -.535 .535 .845 -20.751 29.508)"/><ellipse cx="61.516" cy="26.709" rx=".93" ry="1.923" transform="matrix(.845 -.535 .535 .845 -4.747 37.042)"/><ellipse cx="21.412" cy="54.729" rx=".93" ry="1.923" transform="matrix(.845 -.535 .535 .845 -25.951 19.937)"/><ellipse cx="11.944" cy="54.729" rx=".93" ry="1.923" transform="matrix(.845 -.535 .535 .845 -27.419 14.873)"/></g></g><g><g opacity=".08"><path d="m48.5022507 27.1572456c-2.6100769 8.074192-11.7008133 12.4078445-19.6746254 15.8424759-8.5859928 3.7620621-15.721035-.1102982-16.7544365-5.1830711-.5585032-2.4250031.7633209-5.0229301 2.5725174-7.2523632 4.5150204-5.5047035 10.2652416-6.7504139 15.3263626-12.3925972 3.1303177-3.5884991 6.0210075-5.3970747 8.3730888-6.1281128 2.3171539-.7619019 4.0333366-.4070263 3.9874268-.3782873 5.8354568 1.6996479 8.9628868 6.5652761 6.1696663 15.4919557z" fill="#fff"/></g><g opacity=".08"><path d="m41.9250679 26.4744949c-1.7395592 5.3819103-7.7996635 8.2709389-13.1146412 10.5602112-2.7339478 1.1978874-5.5153503 1.2246284-7.5343113.4570007-2.0415363-.7522507-3.3064156-2.3052139-3.6338024-3.9119034-.3723507-1.6164055.5087471-3.3481083 1.714756-4.8342285 2.7482567-3.3504295 5.3321877-3.8072586 8.9556351-7.0144329 1.6881809-1.4679642 3.5571461-4.3100414 6.8418865-5.3310509 1.544384-.5077209 2.6886597-.2713871 2.6578979-.25214 3.2080688.9343719 4.4164658 3.114254 4.7599983 5.0901623.3792535 2.2231426-.1942405 3.7885857-.6474189 5.2363815z" fill="#fff"/></g></g></g></svg>