<svg id="Capa_1" enable-background="new 0 0 512 512" height="512" viewBox="0 0 512 512" width="512" xmlns="http://www.w3.org/2000/svg"><g><g><path clip-rule="evenodd" d="m410.869 380.123c-39.831-68.829-23.361-117.159-13.433-179.914 10.104-63.894-4.76-102.704-52.533-126.825h-177.806c-47.773 24.121-62.637 62.93-52.533 126.825 9.958 62.755 26.427 111.085-13.403 179.914z" fill="#aa6a51" fill-rule="evenodd"/></g><g><path clip-rule="evenodd" d="m397.436 200.209c10.104-63.894-4.76-102.704-52.533-126.825l-20.032 8.819c39.363 24.413 51.277 61.996 41.962 120.926-7.943 50.228-20.09 91.198-4.234 140.812 19.273 7.359 35.976 20.033 48.27 36.181-39.831-68.828-23.361-117.157-13.433-179.913z" fill="#935b44" fill-rule="evenodd"/></g><g><path clip-rule="evenodd" d="m301.861 40.474c-30.107-26.983-37.991-40.474-45.846-40.474-7.884 0-15.769 13.491-45.875 40.474l-39.743-26.807c-11.943-8.031-16.207-1.752-13.725 10.046l10.425 49.673 1.869 8.819h174.098l1.84-8.819 10.425-49.673c2.482-11.798-1.781-18.076-13.695-10.046z" fill="#fec165" fill-rule="evenodd"/></g><g><path clip-rule="evenodd" d="m344.903 73.385 10.425-49.673c2.482-11.798-1.781-18.076-13.695-10.046l-9.198 6.191c-.088 1.197-.292 2.482-.584 3.855l-12.294 58.492h23.507z" fill="#fdb441" fill-rule="evenodd"/></g><path clip-rule="evenodd" d="m410.869 380.123c-18.952-24.909-48.328-41.525-81.501-43.131-1.781-.088-3.563-.146-5.373-.146h-15.71v-57.44c-31.129 26.253-73.441 25.961-104.57-.496v57.937h-15.71c-1.81 0-3.592.058-5.373.146-33.143 1.606-62.549 18.222-81.472 43.131-13.929 18.339-22.222 41.146-22.222 65.792v16.09 8.439c0 1.937 177.047 26.274 177.047 26.274l177.076-26.274v-8.439-16.09c.001-24.647-8.263-47.454-22.192-65.793z" fill="#fed2a4" fill-rule="evenodd"/><g><path d="m256.009 57.138c-1.161 0-2.34-.263-3.449-.818-3.817-1.908-5.364-6.549-3.455-10.366 1.908-3.816 6.564-5.393 10.38-3.484 3.817 1.908 5.378 6.52 3.47 10.337l-.029.058c-1.355 2.707-4.083 4.273-6.917 4.273z" fill="#eb5569"/></g><g><path clip-rule="evenodd" d="m153.547 470.445h-43.247-31.362v38.464c0 1.707 1.384 3.091 3.091 3.091h69.913c15.972-9.607 15.972-34.225 1.605-41.555z" fill="#faf7f7" fill-rule="evenodd"/></g><g><path clip-rule="evenodd" d="m433.062 470.445h-32.18-42.429c-17.024 7.943-17.024 34.108 1.606 41.555h69.913c1.707 0 3.091-1.384 3.091-3.091v-38.464z" fill="#faf7f7" fill-rule="evenodd"/></g><g><path d="m256.015 462.081c-4.267 0-7.726-3.459-7.726-7.726v-20.996c0-4.268 3.459-7.726 7.726-7.726s7.726 3.459 7.726 7.726v20.996c0 4.268-3.459 7.726-7.726 7.726z" fill="#ffbd86"/></g><g><path clip-rule="evenodd" d="m433.062 445.916c0-24.647-8.264-47.453-22.193-65.792-12.323-16.149-28.997-28.822-48.27-36.181-10.425-3.971-21.58-6.395-33.231-6.95-1.781-.088-3.563-.146-5.373-.146h-15.71v-57.44c-9.87 8.323-20.908 13.988-32.326 16.996-.876.234-1.752.438-2.599.642-23.828 5.373-49.146-.73-69.645-18.135v38.576c19.594 16.558 43.627 20.85 66.462 16.324 7.038-1.372 5.782-2.687 5.782 5.052 0 14.659-.38 23.624 15.71 23.624 21.843 0 54.752 6.483 71.835 17.638 27.42 17.901 36.823 54.433 36.823 90.322h32.735z" fill="#ffbd86" fill-rule="evenodd"/></g><g><path d="m256.16 381.776c-27.106 0-53.449-14.219-74.208-40.061-2.672-3.327-2.142-8.19 1.185-10.862 3.326-2.675 8.19-2.142 10.862 1.184 17.765 22.115 39.836 34.287 62.162 34.287h.177c22.228-.064 44.107-12.238 61.605-34.281 2.652-3.343 7.513-3.9 10.855-1.247s3.901 7.513 1.247 10.855c-20.48 25.798-46.64 40.048-73.663 40.126-.072-.001-.149-.001-.222-.001z" fill="#faf7f7"/></g><g><path clip-rule="evenodd" d="m277.448 375.948c-1.81-3.125-4.585-5.782-8.06-7.739-3.796-2.132-8.41-3.358-13.374-3.358-4.993 0-9.607 1.227-13.403 3.358-3.475 1.957-6.249 4.614-8.06 7.739-1.402 2.395-2.219 5.081-2.278 7.914v.35c0 10.688 10.629 19.361 23.741 19.361 13.082 0 23.711-8.673 23.711-19.361v-.35c-.057-2.833-.875-5.52-2.277-7.914z" fill="#fec165" fill-rule="evenodd"/></g><g><path clip-rule="evenodd" d="m277.448 375.948c-.876-1.518-1.957-2.92-3.241-4.176-1.402-1.343-3.008-2.541-4.818-3.563-3.796-2.132-8.41-3.358-13.374-3.358-2.92 0-5.694.409-8.235 1.197 2.979.526 5.782 1.548 8.206 2.92 3.475 1.927 6.278 4.585 8.089 7.709.146.263.292.555.438.847 1.139 2.19 1.752 4.585 1.81 7.096v.321c0 8.352-6.453 15.448-15.477 18.193 1.664.292 3.387.438 5.169.438 13.082 0 23.711-8.673 23.711-19.361v-.35c-.058-2.832-.876-5.519-2.278-7.913z" fill="#fdb441" fill-rule="evenodd"/></g><g><path clip-rule="evenodd" d="m433.062 508.909v-38.464h-32.735v41.555h29.644c1.707 0 3.091-1.384 3.091-3.091z" fill="#dedbee" fill-rule="evenodd"/></g><g><path clip-rule="evenodd" d="m350.043 179.534c-27.478 6.132-69.557-2.541-93.853-43.219-24.295 40.679-66.754 49.352-94.233 43.219 0 171.913 188.086 173.928 188.086 0z" fill="#ffe5c2" fill-rule="evenodd"/></g><g><path clip-rule="evenodd" d="m308.285 289.714c24.295-20.5 41.758-57.178 41.758-110.179-7.125 1.606-15.272 2.19-23.828 1.489-8.176 95.432-77.792 128.781-129.8 101.273 2.365 2.482 4.789 4.76 7.3 6.892 20.499 17.434 45.817 23.508 69.645 18.164 12.352-2.805 24.296-8.674 34.925-17.639z" fill="#fed2a4" fill-rule="evenodd"/></g><g><path clip-rule="evenodd" d="m256.015 454.355c-28.705-36.181-104.073-39.598-104.073 33.232v24.413h208.118v-24.413c-.001-72.83-75.37-69.413-104.045-33.232z" fill="#62dbfb" fill-rule="evenodd"/></g><g><path clip-rule="evenodd" d="m356.263 462.181c-10.425-30.545-40.356-37.758-66.55-29.961 18.514 6.395 32.822 23.624 32.822 55.367v24.413h37.524v-24.413c0-9.841-1.373-18.251-3.796-25.406z" fill="#01d0fb" fill-rule="evenodd"/></g></g></svg>