<svg id="Layer_1" enable-background="new 0 0 55 55" height="512" viewBox="0 0 55 55" width="512" xmlns="http://www.w3.org/2000/svg"><g id="_x31_86"><g><g><path d="m23.9919338 3.8265567c-.2855206-.1191735 1.3778477 5.4478135 1.0151577 5.657042l-8.7344627 9.8908558c-.8042698.4647198-1.6148863.9144821-1.5008516 1.8945179l-5.3827143 4.9236317-.7848244-.2563553-1.3598809-11.7124901c-.1140451-.9808941.445859-2.1512766 1.2509856-2.6159964l13.7128687-7.9175083c.3626919-.2100661.713377-.2400844.9997559-.1200528z" fill="#38425d"/><path d="m22.9929504 3.9466352c.8047352-.4646137 1.5495377-.0470667 1.6634045.9332986l1.3603439 11.712368-16.6279239 9.6001382-1.3603449-11.7123689c-.1138654-.9803658.4464293-2.151412 1.2511635-2.616025z" fill="#262e3f"/></g><g><g><path d="m21.9450436 6.1435666c.6856556-.3958635 1.3202496-.0401025 1.4172649.7951951l1.0937939 9.4174013-14.1674376 8.179575-1.0937939-9.4174023c-.0970163-.8352966.3803701-1.8330593 1.0660248-2.2289228z" fill="#e9e7fc"/></g></g><g><g><g><path d="m47.8871307 35.9136925c.0024338.187397-.1216965.3723755-.3650818.5135422l-25.7309284 14.8563728c-.4867744.2823372-1.2753487.2799034-1.7597027 0l-15.6741505-9.109993c-.2409515-.1387329-.360224-.3212738-.360224-.5038147l-.0048575-11.7677841c0 .1825409.1216938.3650818.3602087.5062504l15.6741657 9.1075573c.4843407.2823257 1.272913.2823257 1.762125 0l25.7284927-14.8539505c.2433853-.1411533.3675156-.3285656.3675156-.5111065z" fill="#e9e7fc"/></g><g><path d="m47.8871307 35.9136925c.0024338.187397-.1216965.3723755-.3650818.5135422l-25.7309284 14.8563728c-.4867744.2823372-1.2753487.2799034-1.7597027 0l-15.6741505-9.109993c-.2409515-.1387329-.360224-.3212738-.360224-.5038147l-.0023861-1.6471291c0 .1825409.1216938.3650818.3602087.5062485l15.6716938 9.1075592c.4843407.2823219 1.272913.2823219 1.762125 0l25.7284927-14.8539505c.2433853-.1411552.3699875-.3285675.3699875-.5111084z" fill="#b0b8cf"/></g><path d="m47.8846588 22.7171726v1.4599609c0 .1799927-.1199951.3699951-.3599854.5100098l-25.7299804 14.8599873c-.4900513.2800293-1.2800293.2800293-1.7600098 0l-15.6799926-9.1099873c-.2400513-.1400146-.3600464-.3300171-.3600464-.5100098v-1.4599609z" fill="#497bfe"/></g><g><path d="m4.3602867 27.9557877c-.4877274.2815895-.4902842.7375793-.0064392 1.0187588l15.6740341 9.1087551c.4838657.281189 1.2717819.281601 1.75951.0000114l25.7296906-14.8550434c.4877243-.2815895.4896011-.7379875.0057335-1.0191784l-15.6740341-9.1087532c-.4838448-.2811804-1.2710781-.2811842-1.7588062.0004053z" fill="#57b3fe"/></g><g><g><path d="m25.9301071 31.854084c-.3867111.2232704-.387867.584938-.0045452.8077011.3842106.223278 1.0085964.2237892 1.3953094.0005226.3858414-.2227669.3878803-.5849457.0036697-.8082237-.3833236-.222763-1.0085906-.2227669-1.3944339 0z" fill="#ffd06c"/></g><g><path d="m23.4698677 33.2745056c-.3858299.2227592-.3878689.584938-.0045471.8077011.3842106.223278 1.0094795.2232819 1.3953094.0005226.3867245-.223278.3887749-.5854607.0045643-.8087425-.3833236-.222763-1.0086021-.2227554-1.3953266.0005188z" fill="#f45170"/></g><g><path d="m20.3949852 34.5439491c-.6296673.3635368-.6318092.9524231-.006815 1.3156319.6255836.3635483 1.6422348.3642311 2.271904.0006943.6296749-.3635445.63241-.9527702.0068264-1.3163223-.6249942-.363205-1.6422386-.3635483-2.2719154-.0000039z" fill="#fff"/></g></g><g><path d="m33.1329765 20.3806953c-.0486794.0535374-.1119652.1022186-.1874123.1460266l-.0462456.026783-15.080286 8.7643738c-.4307995.2506962-1.1293201.2506962-1.5625439 0l-7.1288309-4.1132412 15.9248476-9.1927528.8153572-.4721727 7.0728416 4.0816145c.357773.2068729.421055.5184173.1922723.7593688z" fill="#497bfe"/></g><g><path d="m32.8993187 20.5535049-15.080286 8.7643738c-.4307995.2506962-1.1293201.2506962-1.5625439 0l-7.1288309-4.1132412 15.9248476-9.1927528z" fill="#5094ff"/></g><g><path d="m38.1724396 34.4684258-10.5609627 6.0972862.0219116 7.3430137 16.9081269-9.7622871v-.0006828z" fill="#4c5c75"/><path d="m44.5415154 30.7912712-6.3690758 3.6771546 6.3690758 3.67733z" fill="#1d2943"/></g><g><path d="m50.7346344 41.737133-16.9199829 9.7600098-6.1799927-3.5899658-.0100098-1.7800293 16.920044-9.7600098 6.1799927 3.6000366z" fill="#38425d"/><g><g enable-background="new"><g><path d="m27.6293221 46.1316452.0007743 1.7723579 6.1878701 3.5959969-.0007744-1.7723579z" fill="#2e374c"/></g><g><path d="m33.8171921 49.7276421.0007744 1.7723579 16.9121971-9.7642593-.0007744-1.772358z" fill="#262e3f"/></g><g><path d="m27.6293221 46.1316452 6.18787 3.5959969 16.9121971-9.7642594-6.1878738-3.5959968z" fill="#38425d"/></g></g></g><g><g enable-background="new"><g><path d="m29.1478081 43.8344917.0016021.9171181 9.6374665 5.6006813-.0016022-.9171181z" fill="#f3f1fc"/></g><g><path d="m38.7852745 49.435173.0016022.9171181 12.2209358-7.0557632-.0015984-.9171143z" fill="#dedffb"/></g><g><path d="m29.1478081 43.8344917 9.6374664 5.6006813 12.2209396-7.0557594-9.6374664-5.6006851z" fill="#f8f9fe"/></g></g></g></g></g></g><g><path d="m16.5076103 33.2312431c-.7337456 0-1.3851128.2967987-1.8632727.7750092-.4782095.4699554-.7750082 1.1295242-.7750082 1.8633194 0-1.4593353-1.1789932-2.6383286-2.6300774-2.6383286.7255421 0 1.3851118-.2967987 1.8633213-.766758.4699068-.4782085.7667561-1.1377773.7667561-1.8633213 0 .725544.2967987 1.3851128.7750082 1.8633213.47816.4699593 1.1295271.766758 1.8632727.766758z" fill="#fff"/></g></g></svg>