<svg height="512" viewBox="0 0 59 58" width="512" xmlns="http://www.w3.org/2000/svg"><g id="Page-1" fill="none" fill-rule="evenodd"><g id="017---Racket" fill-rule="nonzero"><path id="Shape" d="m13.34 40.96c4.19-5.73 6.03-12.82 6.81-17.13l1.64 9.39-.01.01c-.9051429 2.6107281-2.0780581 5.1207667-3.5 7.49 2.3692333-1.4219419 4.8792719-2.5948571 7.49-3.5l.01-.01 9.39 1.64c-4.31.78-11.4 2.62-17.13 6.81z" fill="#95a5a5"/><path id="Shape" d="m52.5 17.813 3.9-3.9c.2764931-.2468102.3938043-.6263011.3048273-.9860883-.0889769-.3597872-.3696474-.6408555-.7293082-.730342s-.7393175.027287-.9865191.3034303l-3.9 3.9-3.535-3.536 5.08-5.08c.3789722-.39237889.3735524-1.01608478-.0121814-1.40181858-.3857338-.38573379-1.0094397-.39115363-1.4018186-.01218142l-5.08 5.08-3.54-3.536 3.9-3.9c.3541623-.39505253.33815-.99792982-.0364831-1.37362575-.3746332-.37569593-.9774627-.39341598-1.3735169-.04037425l-3.9 3.9-3.846-3.844c-.3923789-.37897221-1.0160848-.37355237-1.4018186.01218142-.3857338.3857338-.3911536 1.00943969-.0121814 1.40181858l3.843 3.844-3.536 3.535-4.843-4.843c-.3904653-.39074146-1.0237585-.39096532-1.4145-.0005s-.3909653 1.02375854-.0005 1.4145l4.844 4.843-3.536 3.537-3.843-3.843c-.3935832-.3696018-1.0094904-.3600364-1.3914063.0216094s-.391917.997546-.0225937 1.3913906l3.843 3.843-3.536 3.536-2.343-2.344c-.3923789-.3789722-1.0160848-.3735524-1.4018186.0121814s-.3911536 1.0094397-.0121814 1.4018186l2.343 2.344-2.58 2.58c-.2599566.2510745-.3642126.6228779-.2726972.9725073.0915155.3496295.3645604.6226744.7141899.7141899.3496294.0915154.7214328-.0127406.9725073-.2726972l2.58-2.58 3.536 3.536-5.08 5.08c-.2599566.2510745-.3642126.6228779-.2726972.9725073.0915155.3496295.3645604.6226744.7141899.7141899.3496294.0915154.7214328-.0127406.9725073-.2726972l5.08-5.08 3.536 3.536-2.58 2.58c-.2599566.2510745-.3642126.6228779-.2726972.9725073.0915155.3496295.3645604.6226744.7141899.7141899.3496294.0915154.7214328-.0127406.9725073-.2726972l2.58-2.58 2.343 2.342c.2510745.2599566.6228779.3642126.9725073.2726972.3496295-.0915155.6226744-.3645604.7141899-.7141899.0915154-.3496294-.0127406-.7214328-.2726972-.9725073l-2.343-2.342 3.536-3.536 3.843 3.843c.3923789.3789722 1.0160848.3735524 1.4018186-.0121814s.3911536-1.0094397.0121814-1.4018186l-3.844-3.843 3.536-3.536 4.842 4.843c.3904653.3907415 1.0237585.3909653 1.4145.0005s.3909653-1.0237585.0005-1.4145l-4.843-4.843 3.535-3.536 3.845 3.843c.3923789.3789722 1.0160848.3735524 1.4018186-.0121814s.3911536-1.0094397.0121814-1.4018186zm-11.313-8.485 3.535 3.535-3.535 3.537-3.536-3.536zm-4.95 4.949 3.536 3.536-3.536 3.536-3.537-3.536zm-8.485 8.486 3.535-3.536 3.536 3.536-3.536 3.537zm8.485 8.485-3.537-3.535 3.536-3.536 3.536 3.536zm4.95-4.95-3.536-3.535 3.536-3.536 3.536 3.536zm4.95-4.949-3.537-3.536 3.536-3.536 3.535 3.536z" fill="#285680"/><path id="Shape" d="m53.91 5.09c-6.63-6.64-16.75-7.29-25.15 1.1-4.7385617 4.7683412-7.7659385 10.9707717-8.61 17.64-.448654 3.2244852.1249103 6.5084903 1.64 9.39.9380501 1.671404 2.318596 3.0519499 3.99 3.99 2.8815097 1.5150897 6.1655148 2.088654 9.39 1.64 6.6692283-.8440615 12.8716588-3.8714383 17.64-8.61 8.39-8.4 7.74-18.52 1.1-25.15zm-3.93 22.32c-7.29 7.29-19 9.89-23.64 5.25s-2.04-16.35 5.25-23.64c6.26-6.26 13.91-6.69 19.5-1.11s5.15 13.24-1.11 19.5z" fill="#3b97d3"/><path id="Shape" d="m17.85 46.8-8.13 8.09-2.84 2.82c-.39300794.3899779-1.02699206.3899779-1.42 0l-4.24-4.25c-.38772359-.3900375-.38772359-1.0199625 0-1.41l8.14-8.08 1.42-1.41 1.42-1.41c.3012256-.2987403.7581681-.3748974 1.14-.19.0997662.0481736.1909725.1123557.27.19l4.24 4.24c.0776443.0790275.1418264.1702338.19.27.1848974.3818319.1087403.8387744-.19 1.14z" fill="#464f5d"/><g fill="#393f4a"><path id="Shape" d="m13.61 46.8c-.1865536.1916151-.4425705.2997912-.71.3-.2644743-.0003894-.517322-.1087527-.7-.3l-2.83-2.82-.01-.01 1.42-1.41 2.83 2.83c.3877236.3900375.3877236 1.0199625 0 1.41z"/><path id="Shape" d="m9.72 54.89-1.42 1.41-.01-.01-2.83-2.83c-.38772359-.3900375-.38772359-1.0199625 0-1.41.39300794-.3899779 1.02699206-.3899779 1.42 0l2.83 2.83z"/></g></g></g></svg>