<svg height="512pt" viewBox="0 -12 512 512" width="512pt" xmlns="http://www.w3.org/2000/svg"><path d="m52.800781 150.472656 340.4375-122.269531 10.597657 29.496094-340.4375 122.273437zm0 0" fill="#86a4bc"/><path d="m58.097656 165.21875 325.414063-116.875 5.300781 14.753906-325.417969 116.875zm0 0" fill="#b7d0e5"/><path d="m512 198.058594v237.109375c0 29.164062-23.644531 52.808593-52.808594 52.808593h-406.394531c-29.160156 0-52.796875-23.644531-52.796875-52.808593v-237.109375c0-29.160156 23.636719-52.808594 52.796875-52.808594h406.394531c29.164063 0 52.808594 23.648438 52.808594 52.808594zm0 0" fill="#e53a47"/><path d="m512 198.058594v237.109375c0 29.164062-23.644531 52.808593-52.808594 52.808593h-385.496094c-29.160156 0-52.796874-23.644531-52.796874-52.808593v-237.109375c0-29.160156 23.636718-52.808594 52.796874-52.808594h385.496094c29.164063 0 52.808594 23.648438 52.808594 52.808594zm0 0" fill="#f96065"/><g fill="#27425b"><path d="m201.582031 219.816406h-102.230469c-8.410156 0-11.042968-11.371094-3.492187-15.066406 16.484375-8.066406 35.015625-12.59375 54.605469-12.59375s38.121094 4.527344 54.605468 12.59375c7.550782 3.695312 4.917969 15.066406-3.488281 15.066406zm0 0"/><path d="m246.515625 275.132812h-192.101563c-10.570312 0-17.117187-11.445312-11.839843-20.601562.050781-.085938.105469-.175781.15625-.265625 2.445312-4.214844 6.96875-6.792969 11.839843-6.792969h191.789063c4.871094 0 9.394531 2.578125 11.839844 6.792969.050781.089844.105469.179687.15625.265625 5.277343 9.15625-1.269531 20.601562-11.839844 20.601562zm0 0"/><path d="m274.921875 316.613281v.28125c-.015625 7.503907-6.191406 13.542969-13.695313 13.542969h-221.523437c-7.503906 0-13.679687-6.039062-13.695313-13.542969 0-.09375 0-.1875 0-.28125 0-.089843 0-.1875 0-.28125.015626-7.503906 6.191407-13.542969 13.695313-13.542969h221.519531c7.507813 0 13.683594 6.039063 13.699219 13.542969zm0 0"/><path d="m258.355469 378.695312c-.050781.089844-.105469.179688-.15625.269532-2.445313 4.214844-6.96875 6.789062-11.839844 6.789062h-191.789063c-4.871093 0-9.394531-2.578125-11.839843-6.789062-.050781-.089844-.105469-.179688-.15625-.269532-5.277344-9.15625 1.269531-20.597656 11.839843-20.597656h192.101563c10.570313 0 17.117187 11.441406 11.839844 20.597656zm0 0"/><path d="m201.582031 413.414062c8.40625 0 11.042969 11.371094 3.488281 15.066407-16.484374 8.066406-35.015624 12.59375-54.605468 12.59375s-38.121094-4.527344-54.605469-12.59375c-7.550781-3.695313-4.917969-15.066407 3.492187-15.066407zm0 0"/></g><path d="m422.191406 77.773438c-8.757812 3.144531-18.347656-.910157-22.308594-9.113282-.273437-.5625-.523437-1.160156-.742187-1.765625l-15.359375-42.777343c-3.367188-9.363282 1.492188-19.6875 10.867188-23.050782 2.015624-.722656 4.0625-1.066406 6.089843-1.066406 7.386719 0 14.316407 4.578125 16.960938 11.933594l6.664062 18.554687 8.707031 24.222657c3.363282 9.371093-1.507812 19.695312-10.878906 23.0625zm0 0" fill="#86a4bc"/><path d="m422.191406 77.773438c-8.757812 3.144531-18.347656-.910157-22.308594-9.113282l-8.703124-24.253906c-3.367188-9.359375 1.492187-19.683594 10.867187-23.046875 2.015625-.722656 4.0625-1.066406 6.089844-1.066406 6.792969 0 13.1875 3.863281 16.226562 10.195312l8.707031 24.222657c3.363282 9.371093-1.507812 19.695312-10.878906 23.0625zm0 0" fill="#b7d0e5"/><path d="m458 291.539062h-141.730469c-10.203125 0-18.472656-8.269531-18.472656-18.472656v-30.976562c0-10.199219 8.269531-18.46875 18.472656-18.46875h141.734375c10.199219 0 18.46875 8.269531 18.46875 18.46875v30.976562c0 10.203125-8.269531 18.472656-18.472656 18.472656zm0 0" fill="#aef4e9"/><path d="m400.71875 251.832031c-7.792969 0-14.105469 6.316407-14.105469 14.105469v25.601562h28.210938v-25.601562c0-7.789062-6.316407-14.105469-14.105469-14.105469zm0 0" fill="#6399cc"/><path d="m433.109375 376.175781c0 25.390625-20.582031 45.972657-45.976563 45.972657-25.390624 0-45.972656-20.582032-45.972656-45.972657 0-25.394531 20.582032-45.976562 45.972656-45.976562 25.394532 0 45.976563 20.582031 45.976563 45.976562zm0 0" fill="#86a4bc"/><path d="m433.109375 376.175781c0 22.171875-15.695313 40.675781-36.570313 45.011719-20.878906-4.335938-36.570312-22.839844-36.570312-45.011719s15.691406-40.679687 36.570312-45.015625c20.875 4.335938 36.570313 22.84375 36.570313 45.015625zm0 0" fill="#b7d0e5"/><path d="m411.691406 367.046875c-6.78125 0-10.3125-8.390625-5.648437-13.257813 2.394531-2.503906 6.28125-3.128906 9.339843-1.492187 2.882813 1.539063 4.546876 4.828125 4.058594 8.0625-.578125 3.789063-3.902344 6.6875-7.75 6.6875zm0 0" fill="#86a4bc"/></svg>