<svg height="512pt" viewBox="-9 0 512 512.00175" width="512pt" xmlns="http://www.w3.org/2000/svg"><path d="m314.664062 10-168.667968 168.667969c-38.875 38.875-69.25 84.339843-90.289063 135.128906-21.039062 50.792969-31.707031 104.421875-31.707031 159.398437v28.804688h168v-28.808594c0-66.378906 25.851562-128.789062 72.789062-175.730468l204.523438-204.519532-82.9375-82.941406zm0 0" fill="#d8d8e4"/><path d="m26 10h168v492h-168zm0 0" fill="#edf2fa"/><path d="m484.457031 93.941406 6.617188-6.617187c3.902343-3.90625 3.902343-10.238281 0-14.140625-3.90625-3.90625-10.238281-3.90625-14.144531 0l-6.617188 6.613281-76.867188-76.867187c-3.902343-3.902344-10.234374-3.902344-14.140624 0-3.90625 3.90625-3.90625 10.238281 0 14.144531l76.863281 76.867187-53.738281 53.738282-27.53125-27.53125c-3.902344-3.90625-10.234376-3.90625-14.140626 0s-3.90625 10.238281 0 14.144531l27.527344 27.527343-53.738281 53.742188-104.648437-104.652344 53.738281-53.742187 23.957031 23.957031c1.949219 1.953125 4.511719 2.929688 7.070312 2.929688 2.558594 0 5.117188-.976563 7.070313-2.929688 3.90625-3.90625 3.90625-10.238281 0-14.144531l-23.953125-23.953125 25.953125-25.957032c3.90625-3.902343 3.90625-10.234374 0-14.140624-3.90625-3.90625-10.238281-3.90625-14.140625 0l-25.957031 25.953124-3.78125-3.78125c-3.90625-3.90625-10.238281-3.90625-14.144531 0-3.902344 3.90625-3.902344 10.238282 0 14.144532l3.785156 3.78125-57.199219 57.199218c-1.691406.425782-3.292969 1.289063-4.613281 2.609376-1.324219 1.324218-2.1875 2.921874-2.613282 4.613281l-1.070312 1.074219v-34.523438h6c5.523438 0 10-4.476562 10-10 0-5.519531-4.476562-10-10-10h-6v-44c0-5.519531-4.476562-10-10-10s-10 4.480469-10 10v44h-148v-44c0-5.519531-4.476562-10-10-10s-10 4.480469-10 10v44h-6c-5.523438 0-10 4.480469-10 10 0 5.523438 4.476562 10 10 10h6v76h-6c-5.523438 0-10 4.480469-10 10 0 5.523438 4.476562 10 10 10h6v76h-6c-5.523438 0-10 4.480469-10 10 0 5.523438 4.476562 10 10 10h6v76h-6c-5.523438 0-10 4.480469-10 10 0 5.523438 4.476562 10 10 10h6v76h-6c-5.523438 0-10 4.480469-10 10 0 5.523438 4.476562 10 10 10h6v44c0 5.523438 4.476562 10 10 10s10-4.476562 10-10v-28.808594c0-5.074218.09375-10.136718.28125-15.191406h147.71875v44c0 5.523438 4.476562 10 10 10s10-4.476562 10-10v-28.808594c0-5.089844.175781-10.152344.492188-15.191406h5.507812c5.523438 0 10-4.476562 10-10 0-5.519531-4.476562-10-10-10h-3.4375c6.917969-47.042969 27.679688-90.691406 60.265625-126.109375l4.542969 4.542969c1.953125 1.949218 4.511718 2.925781 7.070312 2.925781s5.117188-.976563 7.070313-2.925781c3.90625-3.90625 3.90625-10.238282 0-14.144532l-4.703125-4.703124 53.742187-53.738282 4.699219 4.699219c1.953125 1.953125 4.515625 2.929687 7.074219 2.929687 2.558593 0 5.117187-.976562 7.070312-2.929687 3.90625-3.902344 3.90625-10.234375 0-14.140625l-4.703125-4.703125 53.738282-53.742187 4.703124 4.703124c1.953126 1.953126 4.511719 2.929688 7.070313 2.929688 2.5625 0 5.121094-.976562 7.074219-2.929688 3.902344-3.902343 3.902344-10.234374 0-14.140624l-4.703125-4.703126 53.738281-53.742187 4.703125 4.703125c1.953125 1.953125 4.511719 2.929688 7.070313 2.929688 2.558593 0 5.121093-.976563 7.070312-2.929688 3.90625-3.902344 3.90625-10.234375 0-14.140625zm-448.457031-19.941406h148v54.523438l-21.480469 21.476562h-126.519531zm148 268h-126.253906c2.796875-8.191406 5.863281-16.320312 9.199218-24.375 7.417969-17.910156 16.042969-35.128906 25.804688-51.625h91.25zm0-96h-78.617188c14.511719-21.527344 31.097657-41.671875 49.683594-60.261719l15.738282-15.738281h13.195312zm-148-76h106.519531l-1.59375 1.597656c-22.6875 22.6875-42.535156 47.574219-59.410156 74.402344h-45.515625zm0 96h33.707031c-7.867187 14.179688-14.96875 28.835938-21.238281 43.972656-4.375 10.558594-8.304688 21.242188-11.800781 32.027344h-.667969zm1.511719 172c2.21875-25.773438 6.890625-51.164062 13.972656-76h132.515625v76zm166.488281-64.84375v-124.09375l48.675781 48.675781c-20.761719 22.421875-37.136719 47.910157-48.675781 75.417969zm62.667969-89.710938-62.554688-62.554687c-.035156-.035156-.078125-.066406-.113281-.101563v-50.789062h6c5.523438 0 10-4.476562 10-10 0-5.519531-4.476562-10-10-10h-6v-13.195312l11.753906-11.753907 104.652344 104.652344zm0 0"/><path d="m341.019531 111.023438c2.578125 0 5.15625-.988282 7.109375-2.964844l.046875-.046875c3.882813-3.925781 3.828125-10.234375-.101562-14.117188-3.921875-3.886719-10.277344-3.828125-14.164063.097657-3.882812 3.925781-3.847656 10.257812.078125 14.140624 1.949219 1.929688 4.492188 2.890626 7.03125 2.890626zm0 0"/></svg>