<svg id="Capa_1" enable-background="new 0 0 512 512" viewBox="0 0 512 512" xmlns="http://www.w3.org/2000/svg"><g><path d="m259.23 89.879-8.862-1.056c-9.584 10.313-22.68 26.839-25.536 42.685-1.428 7.92 1.214 15.891 6.31 21.719 0 0 29.569 13.924 37.21-12.525 4.376-15.144-9.122-50.823-9.122-50.823z" fill="#cceffa"/><path d="m264.971 86.925c-1.933-4.311-7.599-5.322-10.915-1.958-1.137 1.154-2.385 2.456-3.687 3.856 4.726 12.704 9.206 29.461 6.745 43.111-2.282 12.652-13.54 21.374-25.971 21.293 4.053 4.59 9.724 7.932 16.036 8.741 13.665 1.751 26.451-7.505 28.924-21.218 3.247-18.01-5.589-41.466-11.132-53.825z" fill="#a5e3f0"/><path d="m321.07 390.238-9.184-.23c-12.84 13.486-32.185 37.067-34.919 59.149-1.391 11.23 2.862 21.431 10.637 28.203 0 0 39.55 16.242 46.846-19.603 5.193-25.518-13.38-67.519-13.38-67.519z" fill="#cceffa"/><path d="m327.457 387.042c-1.948-4.202-7.417-5.246-10.711-1.99-1.456 1.439-3.1 3.107-4.86 4.956 6.675 16.62 14.136 40.828 10.638 60.226-3.03 16.804-18.281 28.19-34.92 27.125 4.486 3.892 10.184 6.686 16.598 7.842 18.082 3.261 35.385-8.755 38.645-26.838 4.386-24.323-8.483-56.423-15.39-71.321z" fill="#a5e3f0"/><g><path d="m478.932 7.102-9.184-.23c-12.84 13.486-32.185 37.067-34.919 59.149-1.391 11.23 2.862 21.431 10.637 28.203 0 0 39.55 16.242 46.846-19.603 5.193-25.518-13.38-67.519-13.38-67.519z" fill="#cceffa"/><path d="m485.319 3.906c-1.948-4.202-7.417-5.246-10.711-1.99-1.456 1.439-3.1 3.107-4.86 4.956 6.675 16.62 14.136 40.828 10.638 60.226-3.03 16.804-18.28 28.19-34.92 27.125 4.486 3.892 10.184 6.686 16.598 7.842 18.082 3.261 35.384-8.755 38.645-26.838 4.386-24.323-8.483-56.423-15.39-71.321z" fill="#a5e3f0"/></g><g><path d="m395.683 157.063-9.184-.23c-12.84 13.486-32.185 37.067-34.919 59.149-1.391 11.23 2.862 21.431 10.637 28.203 0 0 39.55 16.242 46.846-19.603 5.193-25.517-13.38-67.519-13.38-67.519z" fill="#cceffa"/><path d="m402.07 153.867c-1.948-4.202-7.417-5.246-10.711-1.99-1.456 1.439-3.1 3.107-4.86 4.956 6.675 16.62 14.136 40.828 10.638 60.226-3.03 16.804-18.281 28.19-34.92 27.125 4.486 3.892 10.184 6.686 16.598 7.842 18.082 3.261 35.384-8.755 38.645-26.838 4.386-24.323-8.483-56.422-15.39-71.321z" fill="#a5e3f0"/></g><g><path d="m171.234 198.696-9.184-.23c-12.84 13.486-32.185 37.067-34.919 59.149-1.391 11.23 2.862 21.431 10.637 28.203 0 0 39.55 16.242 46.846-19.603 5.193-25.517-13.38-67.519-13.38-67.519z" fill="#cceffa"/><path d="m177.621 195.5c-1.948-4.202-7.417-5.246-10.711-1.99-1.456 1.439-3.1 3.107-4.86 4.956 6.675 16.62 14.136 40.828 10.638 60.226-3.03 16.804-18.281 28.19-34.92 27.125 4.486 3.892 10.184 6.686 16.598 7.842 18.082 3.261 35.384-8.755 38.645-26.838 4.386-24.323-8.483-56.422-15.39-71.321z" fill="#a5e3f0"/></g><path d="m403.614 349.442c-7.168 7.943-16.204 19.869-18.145 31.272-.861 5.057.424 10.098 3.162 14.166 0 0 5.426 4.334 12.937 5.352l16.578-40.374z" fill="#cceffa"/><path d="m416.996 348.847c-1.894-4.436-7.644-5.516-10.969-2.022-.764.803-1.585 1.701-2.413 2.617 3.063 9.085 5.525 20.046 3.876 29.187-1.685 9.348-9.734 15.955-18.859 16.251 2.932 4.342 7.537 7.596 12.937 8.544 10.719 1.881 20.953-5.253 22.886-15.973 2.28-12.642-3.279-28.815-7.458-38.604z" fill="#a5e3f0"/><path d="m112.005 407.665c-7.168 7.943-16.204 19.869-18.145 31.272-.861 5.057.424 10.098 3.162 14.166 0 0 5.426 4.334 12.937 5.352l16.578-40.374z" fill="#cceffa"/><path d="m125.387 407.07c-1.894-4.436-7.644-5.516-10.969-2.022-.764.803-1.585 1.701-2.413 2.617 3.063 9.085 5.525 20.046 3.876 29.187-1.685 9.348-9.734 15.955-18.859 16.251 2.932 4.342 7.537 7.596 12.937 8.544 10.719 1.881 20.953-5.253 22.886-15.973 2.28-12.641-3.279-28.815-7.458-38.604z" fill="#a5e3f0"/><path d="m56.121 290.705c-7.168 7.943-16.204 19.869-18.145 31.272-.861 5.057.424 10.098 3.162 14.166 0 0 5.426 4.334 12.937 5.352l16.578-40.374z" fill="#cceffa"/><path d="m69.503 290.11c-1.894-4.436-7.644-5.516-10.969-2.022-.764.803-1.585 1.701-2.413 2.617 3.063 9.085 5.525 20.046 3.876 29.187-1.685 9.348-9.734 15.955-18.859 16.251 2.932 4.342 7.537 7.596 12.937 8.544 10.719 1.881 20.953-5.253 22.886-15.973 2.28-12.642-3.279-28.815-7.458-38.604z" fill="#a5e3f0"/><path d="m303.517 238.072c-7.168 7.943-16.204 19.869-18.145 31.272-.861 5.057.424 10.098 3.162 14.166 0 0 5.426 4.334 12.937 5.352l16.578-40.374z" fill="#cceffa"/><path d="m316.9 237.477c-1.894-4.436-7.644-5.516-10.969-2.022-.764.803-1.585 1.701-2.413 2.617 3.063 9.085 5.525 20.046 3.876 29.187-1.685 9.348-9.734 15.955-18.859 16.251 2.932 4.342 7.537 7.596 12.937 8.544 10.719 1.881 20.953-5.253 22.886-15.973 2.279-12.641-3.28-28.815-7.458-38.604z" fill="#a5e3f0"/><path d="m488.575 166.193c-7.168 7.943-16.204 19.869-18.145 31.272-.861 5.057.424 10.098 3.162 14.166 0 0 5.426 4.334 12.937 5.352l16.578-40.374z" fill="#cceffa"/><path d="m501.957 165.599c-1.894-4.436-7.644-5.516-10.969-2.022-.764.803-1.586 1.701-2.413 2.617 3.063 9.085 5.525 20.046 3.876 29.187-1.685 9.348-9.734 15.955-18.859 16.251 2.932 4.342 7.537 7.596 12.937 8.544 10.719 1.881 20.953-5.253 22.886-15.973 2.28-12.642-3.279-28.816-7.458-38.604z" fill="#a5e3f0"/><path d="m330.37 21.58c-7.168 7.943-16.204 19.869-18.145 31.272-.861 5.057.424 10.098 3.162 14.166 0 0 5.426 4.334 12.937 5.352l16.578-40.374z" fill="#cceffa"/><path d="m343.752 20.986c-1.894-4.436-7.644-5.516-10.969-2.022-.764.803-1.585 1.701-2.413 2.617 3.063 9.085 5.525 20.046 3.876 29.187-1.685 9.348-9.734 15.955-18.859 16.251 2.932 4.342 7.537 7.596 12.937 8.544 10.719 1.881 20.953-5.253 22.886-15.973 2.279-12.642-3.28-28.816-7.458-38.604z" fill="#a5e3f0"/><path d="m234.25 323.49-8.862-1.056c-9.584 10.313-22.68 26.839-25.536 42.685-1.428 7.92 1.214 15.891 6.31 21.719 0 0 29.569 13.924 37.21-12.525 4.376-15.144-9.122-50.823-9.122-50.823z" fill="#cceffa"/><path d="m239.991 320.535c-1.933-4.311-7.599-5.322-10.915-1.958-1.137 1.154-2.385 2.456-3.687 3.856 4.726 12.704 9.206 29.461 6.745 43.111-2.282 12.652-13.54 21.374-25.971 21.293 4.053 4.59 9.724 7.932 16.036 8.741 13.665 1.751 26.451-7.505 28.924-21.218 3.247-18.01-5.589-41.466-11.132-53.825z" fill="#a5e3f0"/><g><path d="m36.837 439.698-8.862-1.056c-9.584 10.313-22.68 26.839-25.536 42.685-1.428 7.92 1.214 15.891 6.31 21.719 0 0 29.569 13.924 37.21-12.525 4.376-15.144-9.122-50.823-9.122-50.823z" fill="#cceffa"/><path d="m42.578 436.744c-1.933-4.311-7.599-5.322-10.915-1.958-1.137 1.154-2.385 2.456-3.687 3.856 4.726 12.704 9.206 29.461 6.745 43.111-2.282 12.652-13.54 21.374-25.971 21.293 4.053 4.59 9.724 7.932 16.036 8.741 13.665 1.751 26.451-7.505 28.924-21.218 3.247-18.01-5.589-41.466-11.132-53.825z" fill="#a5e3f0"/></g></g><g/><g/><g/><g/><g/><g/><g/><g/><g/><g/><g/><g/><g/><g/><g/></svg>