<svg height="512" viewBox="0 0 48 48" width="512" xmlns="http://www.w3.org/2000/svg"><path d="m28 15s-.5-1 1-2c4.9-2.8 8.6-.5 11-3-.2 3.8-2 5-2 5zm-3 .7c-2.6-8.3 3.2-11.7 3.5-11.8l-.5-.9.5.9-1-1.8c-.1 0-7.5 4.3-4.5 14.2zm-8-.7v-1c-.8-5.5-5.4-1.9-10-4 .6 2.7 3 5 3 5z" fill="#388e3c"/><path d="m32 16h-7c-.3-1-.5-2.3-.6-3.2 1.3-2 5.5-1.7 8.6-6.8 2.4 5.5-1 10-1 10zm-9 0s.4.7 0-2c-.8-5.6-5.6-3.5-8-10-4.9 7.9 1 12 1 12z" fill="#4caf50"/><g fill="#ff4081"><circle cx="15" cy="33" r="5"/><circle cx="24" cy="34" r="5"/><circle cx="33" cy="33" r="5"/><circle cx="28" cy="27" r="5"/><circle cx="36" cy="26" r="5"/><circle cx="12" cy="26" r="5"/><circle cx="20" cy="27" r="5"/><circle cx="11" cy="19" r="5"/><circle cx="37" cy="19" r="5"/><circle cx="17" cy="19" r="5"/><circle cx="31" cy="19" r="5"/><circle cx="24" cy="19" r="5"/><circle cx="24" cy="41" r="5"/><circle cx="29" cy="38" r="5"/><circle cx="19" cy="38" r="5"/></g><g fill="#c51162"><path d="m24 38c-.2-.1-.3-.1-.4-.1.1.1.3.1.4.1z"/><path d="m42 19c0-2.8-2.2-5-5-5 1.7 0 3 3.3 3 5s-1.3 3-3 3c-.6 0-1.2-.2-1.7-.5.4-.7.7-1.6.7-2.5 0-1.2-.4-2.3-1.1-3.1.5-1 1.3-1.9 2.1-1.9-1.1 0-2.2.4-3 1-.8-.6-1.9-1-3-1 1.7 0 3 3.3 3 5s-1.3 3-3 3c-1 0-1.8-.5-2.4-1.2.2-.6.4-1.2.4-1.8 0-.8-.2-1.5-.5-2.2.5-1.4 1.4-2.8 2.5-2.8-1.4 0-2.6.6-3.5 1.4-.9-.8-2.1-1.4-3.5-1.4 1.7 0 3 3.3 3 5s-1.3 3-3 3-3-1.3-3-3 1.3-5 3-5c-1.4 0-2.6.6-3.5 1.4-.9-.8-2.1-1.4-3.5-1.4 1.1 0 2 1.4 2.5 2.8-.3.7-.5 1.4-.5 2.2 0 .6.1 1.3.4 1.8-.6.7-1.4 1.2-2.4 1.2-1.7 0-3-1.3-3-3s1.3-5 3-5c-1.1 0-2.2.4-3 1-.8-.6-1.9-1-3-1 .8 0 1.6.8 2.1 1.9-.7.8-1.1 1.9-1.1 3.1 0 .9.2 1.7.7 2.5-.5.3-1 .5-1.7.5-1.7 0-3-1.3-3-3s1.3-5 3-5c-2.8 0-5 2.2-5 5 0 1.6.8 3.1 2 4-.6.8-1 1.9-1 3 0 2.2 1.5 4.1 3.5 4.8-.3.6-.5 1.4-.5 2.2 0 2.4 1.7 4.4 4 4.9v.1c0 2.8 2.2 5 5 5h.4c.8 1.8 2.5 3 4.6 3s3.8-1.3 4.6-3h.4c2.8 0 5-2.2 5-5v-.1c2.3-.5 4-2.5 4-4.9 0-.8-.2-1.6-.6-2.2 2.1-.6 3.6-2.5 3.6-4.8 0-1.1-.4-2.2-1-3 1.2-.9 2-2.4 2-4zm-15.9 4.5c.5-.2 1-.6 1.4-1 .7.7 1.6 1.2 2.6 1.4.5 1 .9 2.3.9 3.1 0 1.7-1.3 3-3 3s-3-1.3-3-3c0-.9.4-2.4 1.1-3.5zm-2.1 6.5c.6.8 1.5 1.5 2.5 1.8.3.8.5 1.6.5 2.3 0 1.7-1.3 3-3 3s-3-1.3-3-3c0-.6.2-1.4.5-2.3 1-.4 1.9-1 2.5-1.8zm-6.1-6.1c1-.2 1.9-.7 2.6-1.4.4.4.9.7 1.4 1 .7 1.1 1.1 2.5 1.1 3.5 0 1.7-1.3 3-3 3s-3-1.3-3-3c0-.8.3-2 .9-3.1zm-8.9 2.1c0-.6.2-1.4.5-2.3.5.2 1 .3 1.5.3 1.1 0 2.2-.4 3-1 .1.1.2.1.3.2.5 1 .7 2.1.7 2.8 0 1.7-1.3 3-3 3s-3-1.3-3-3zm6 10c-1.7 0-3-1.3-3-3 0-.6.2-1.3.4-2 1.3-.1 2.4-.7 3.2-1.6.5.9 1.2 1.6 2.1 2 .2.6.3 1.2.3 1.6 0 1.7-1.3 3-3 3zm1 2v-.1c1.4-.3 2.5-1.1 3.2-2.3.2.5.4 1 .8 1.4l1.3 1.2c.2.1.4.2.6.3-.2 1.4-1.4 2.5-2.9 2.5-1.7 0-3-1.3-3-3zm8 6c-1.1 0-2.1-.7-2.6-1.6 1.3-.7 2.2-1.9 2.5-3.4h.1s.1 0 .1 0c.3 1.5 1.3 2.7 2.5 3.4-.5.9-1.5 1.6-2.6 1.6zm5-3c-1.5 0-2.7-1.1-2.9-2.5.2-.1.4-.2.6-.3l1.3-1.2c.3-.4.6-.9.8-1.4.7 1.1 1.8 2 3.2 2.3h.1v.1c-.1 1.7-1.4 3-3.1 3zm4-5c-1.7 0-3-1.3-3-3 0-.4.1-1 .3-1.6.9-.5 1.6-1.2 2.1-2 .8.9 2 1.4 3.2 1.6.3.7.4 1.5.4 2 0 1.7-1.3 3-3 3zm3-7c-1.7 0-3-1.3-3-3 0-.8.3-1.8.7-2.8.1-.1.2-.1.3-.2.8.6 1.9 1 3 1 .5 0 1-.1 1.5-.3.3.8.5 1.6.5 2.3 0 1.7-1.3 3-3 3z"/></g></svg>