<svg height="512" viewBox="0 0 512 512" width="512" xmlns="http://www.w3.org/2000/svg"><path d="m392 137.52v-17.52h-56v176h56l8.243-19.234a69.161 69.161 0 0 0 3.906-42.446c-7.165-31.851-12.149-64.153-12.149-96.8z" fill="#61311b"/><path d="m216 208a69.184 69.184 0 0 0 -8.243 68.766l8.243 19.234h56v-104l-16-32z" fill="#61311b"/><path d="m336 280v-64h-64v64h-16v88h96v-88z" fill="#fec9a3"/><path d="m308.824 256a43.894 43.894 0 0 0 27.176-9.81v-30.19h-64v30.19a43.894 43.894 0 0 0 27.176 9.81z" fill="#feb784"/><path d="m264 352h80v80h-80z" fill="#db6ea2"/><path d="m424 320v176h-192v-48c-24-24-20.04-50.81-8-71.58h.03l-.03-.42-78.79 100.01a32.16 32.16 0 0 1 -51.74-38.11l92.27-136.75a48 48 0 0 1 39.79-21.15h30.47l48 136 48-136h32a40 40 0 0 1 40 40z" fill="#3d4d63"/><path d="m424 348v148h-175.11c71.54-33.82 120.56-66.02 175.11-148z" fill="#374559"/><path d="m256 280-40 32 32 24-8 24 64 56z" fill="#4c5d72"/><path d="m352 280 40 32-32 24 8 24-64 56z" fill="#4c5d72"/><path d="m296 416h16v80h-16z" fill="#22303d"/><path d="m264 432h16v16h-16z" fill="#22303d"/><path d="m88 457.772v-41.772h56l4.27 38.434a30.227 30.227 0 0 1 -30.042 33.566 30.227 30.227 0 0 1 -30.228-30.228z" fill="#4c5d72"/><path d="m88 384h56v32h-56z" fill="#db6ea2"/><path d="m160 416h-32l-8-128h48z" fill="#4c5d72"/><path d="m167 304 1-16h-48l1 16z" fill="#374559"/><path d="m96 240h48v48h-48z" fill="#e0e0de"/><path d="m144 240h48v48h-48z" fill="#c7c7c5"/><path d="m176 200v40h-64v-40a24.006 24.006 0 0 1 24-24h16a23.941 23.941 0 0 1 20.92 12.27 23.668 23.668 0 0 1 3.08 11.73z" fill="#3d4d63"/><path d="m88 320h64.591a15.409 15.409 0 0 1 15.409 15.409v33.182a15.409 15.409 0 0 1 -15.409 15.409h-64.591a0 0 0 0 1 0 0v-64a0 0 0 0 1 0 0z" fill="#fec9a3"/><path d="m152.591 320h-32a15.409 15.409 0 0 1 15.409 15.409v33.182a15.409 15.409 0 0 1 -15.409 15.409h32a15.409 15.409 0 0 0 15.409-15.409v-33.182a15.409 15.409 0 0 0 -15.409-15.409z" fill="#fec093"/><path d="m376 112v56a72.006 72.006 0 0 1 -72 72 71.157 71.157 0 0 1 -9.85-.68h-.01a72.006 72.006 0 0 1 -62.14-71.32v-56a64 64 0 0 1 64-64h16c1.53 0 3.05.05 4.56.17a63.983 63.983 0 0 1 59.44 63.83z" fill="#fec9a3"/><path d="m376 112v56a72.006 72.006 0 0 1 -72 72 71.157 71.157 0 0 1 -9.85-.68 88 88 0 0 0 49.85-79.32v-48a87.688 87.688 0 0 0 -25.78-62.22c-.55-.55-1.1-1.08-1.66-1.61a63.983 63.983 0 0 1 59.44 63.83z" fill="#fec093"/><circle cx="268" cy="140" fill="#7a432a" r="12"/><circle cx="340" cy="140" fill="#7a432a" r="12"/><path d="m304 200a24.027 24.027 0 0 1 -24-24h16a8 8 0 0 0 16 0h16a24.027 24.027 0 0 1 -24 24z" fill="#f7a468"/><path d="m392 104v16h-16v-8c-16.93-8.47-30.83-16.4-40-30.83a62.766 62.766 0 0 1 -5.29-10.39l-2.71-6.78-8 3.56-26.44 11.75a63.264 63.264 0 0 0 -37.56 57.79 63.258 63.258 0 0 1 -14.66 40.49l-25.34 30.41v-104a80 80 0 0 1 80-80h16q4.05 0 8 .39a79.139 79.139 0 0 1 16 3.28 80.019 80.019 0 0 1 56 76.33z" fill="#7a432a"/><path d="m376 112h8a24 24 0 0 1 24 24 24 24 0 0 1 -24 24h-8a0 0 0 0 1 0 0v-48a0 0 0 0 1 0 0z" fill="#feb784"/><path d="m336 27.67v53.5a62.766 62.766 0 0 1 -5.29-10.39l-2.71-6.78-8 3.56v-43.17a79.139 79.139 0 0 1 16 3.28z" fill="#61311b"/><path d="m384 496h-16v-48a8.011 8.011 0 0 1 1.875-5.148c15.238-18.133 17.773-43.36 6.305-62.782l13.781-8.14c14.422 24.429 11.949 55.77-5.961 78.89z" fill="#22303d"/><path d="m176 200v40h-63.13c22.95-11.24 42.85-25.77 60.05-51.73a23.668 23.668 0 0 1 3.08 11.73z" fill="#374559"/></svg>