<svg enable-background="new 0 0 128 128" viewBox="0 0 128 128" xmlns="http://www.w3.org/2000/svg"><g id="Crocodile"/><g id="Kangaroo"/><g id="Flamingo"/><g id="Eagle"/><g id="Tapir"/><g id="Pangolin"/><g id="Hedgehog"/><g id="Komodo"/><g id="Ferret"/><g id="Hipotatamus"/><g id="Gorilla"/><g id="Koala"/><g id="Panda"/><g id="Rhinoceros"><g><path d="m37.193 97.679c.253.769.552 1.628.217 2.36-.407.877-1.501 1.149-2.46 1.311-.669.118-1.357.226-2.044.271-.018-1.8-1.022-3.437-1.682-5.119-2.243-5.67-.398-12.697 4.359-16.532 1.176.959 2.853.726 4.273 1.087-.778 1.375-2.048 3.525-2.455 4.664-1.356 3.818-1.474 8.096-.208 11.958z" fill="#3a3a4f"/><path d="m83.316 98.872c-.308 1.076-1.537 1.556-2.623 1.881-.787.235-1.61.461-2.433.606-.515-4.685-.642-9.433-1.555-14.054-.506-2.532-.497-5.752.913-8.212 0 0 1.944-1.13 3.599-1.474-.208 1.185-.796 2.451-.986 3.428-.995 5.11-.217 10.581 2.333 15.13.472.832 1.015 1.773.752 2.695z" fill="#3a3a4f"/><path d="m117.7 78.16s-.87 9.15-4.03 12.83c-1.03 1.19-2.8 1.05-4.62.68-.76-.15-1.52-.34-2.24-.49-.51-.12-1-.21-1.45-.25-2.65-.26-5.09-1.56-7.25-3.13-3.35-2.41-3.19-7.53-9-11.13-1.1.24-2.22.39-3.34.47h-.04c-1.48.11-3.06.18-4.51.48-.22.05-.45.11-.68.18-1.47.44-2.92 1.29-2.92 1.29-.01.02-.03.05-.03.07-1.38 2.45-1.39 5.63-.88 8.15.91 4.62 1.55 14.05 1.55 14.05-1.27 3.26-11.46 2.91-12.62 1.27 0 0-.26-2.32.18-8.05.27-3.54-3.29-12.14-3.29-12.14-1-.17-2.04-.27-3.09-.3-4.66-.16-9.65.81-14.06.77h-.04c-2.12-.03-4.11-.29-5.85-1.02-1.08-.46-2.19-.8-3.19-1.42-.01-.02-.03-.03-.05-.04-.23-.14-.45-.3-.67-.46-.73.59-1.4 1.26-1.98 1.99-3.24 3.99-4.27 9.75-2.38 14.54.66 1.69 1.67 3.32 1.69 5.12v.24c-.14 3.06-13.64 2.57-14.9-.24-1.26-2.79.11-16.12-.16-19.18-.53-5.81-8.86-14.27.13-29.29 4.02-6.71 10.31-10.24 17.74-9.04 8.49 1.38 16.49 1.46 24.67-1.7 3.62-1.39 7.13-3.32 10.99-3.71 8.07-.85 15.15 4.96 21.16 10.4.65.6 1.79 1.4 2.83 2.12.27.18.53.36.77.53.82.57 1.47 1.03 1.59 1.16.05-.03.08-.07.13-.1.16-.11.32-.23.49-.33.21-.15.43-.29.65-.43.77-.47 1.59-.86 2.43-1.16.11-.04.62-.18 1.25-.32 1.13-.26 2.61-.59 2.6-.5-.13 2.4-1.01 4.74-2.45 6.66-.42.56-.88 1.07-1.39 1.55.4.94 1.09 1.64 1.8 2.27.7.63 1.44 1.2 1.92 1.86l3.74 4.72c1.58 1.33 2.74 1.9 2.74 1.9z" fill="#878799"/><g fill="#3a3a4f"><path d="m109.05 91.67c-.76-.15-1.52-.34-2.24-.49-.49-1.12-1.44-1.79-2.5-2.55-1.63-1.16-3.65-2.6-3.14-5.97.08-.54.59-.91 1.13-.84.55.09.93.6.84 1.14-.32 2.16.73 2.91 2.33 4.04 1.36.97 3.06 2.17 3.57 4.58.01.03.01.06.01.09z"/><path d="m35.58 79.97c-.73.59-1.4 1.26-1.98 1.99-1.67-1.84-2.83-4.08-3-6.58-.09-.95.09-1.89.31-2.78.08-.3.38-.48.68-.41.27.07.44.31.43.58-.05.81-.06 1.62.16 2.38.46 1.92 1.83 3.64 3.4 4.82z"/><path d="m103.24 60.55c-.99.51-2.81 1.27-3.02-.08-.02-.59.6-.88.86-1.44.12-.22.31-.52.36-.75.4.94 1.09 1.64 1.8 2.27z"/><path d="m96.14 51.75c.82.57 1.47 1.03 1.59 1.16-.76.31-1.46.94-2.08 1.51-.39.38-1.08.01-.99-.51.14-.91.34-1.83.71-2.69.27.18.53.36.77.53z"/><path d="m89.11 76.67c-1.1.24-2.22.39-3.34.47-1.23-1.84-2.06-4.03-1.04-6.09.12-.2.38-.28.58-.16.19.1.26.31.21.5-.42 2.29 1.87 4.15 3.59 5.28z"/></g><path d="m8.815 64.953c-1.31 0-2.707-.288-4.182-.868-.514-.202-.767-.783-.564-1.297s.782-.766 1.297-.564c4.489 1.767 7.828.31 10.209-4.454.247-.494.847-.693 1.342-.447.494.247.694.848.447 1.342-2.083 4.165-4.994 6.288-8.549 6.288z" fill="#878799"/><path d="m108.9 67.13c-2.32.24-3.36-.54-3.78-1.53-.59-1.39.04-3.19.04-3.19 1.59-.96 4.94-3.4 6.79-1.95 1.02.79-2.83 6.4-3.05 6.67z" fill="#ebe9fb"/><path d="m117.7 78.16c-4.58.52-5.91-1.48-6.81-3.12-.05-.1-.1-.2-.15-.3h-.01c-1.32-2.9.91-5.71.91-5.71s7.2-2.17 12.24-7.42c.83 6.22-6.18 16.55-6.18 16.55z" fill="#ebe9fb"/><path d="m123.88 61.61s-4.097 6.435-8.792 8.285c-2.045.806-3.669 2.412-4.268 4.527l-.09.318c-1.32-2.9.91-5.71.91-5.71s7.2-2.17 12.24-7.42z" fill="#c4c2fc"/><path d="m105.936 63.553c-.265 1.794-.816 2.047-.816 2.047-.59-1.39.04-3.19.04-3.19 1.59-.96 4.94-3.4 6.79-1.95 0 0-5.727 1.15-6.014 3.093z" fill="#c4c2fc"/><path d="m62.53 82.44c-1-.17-2.04-.27-3.09-.3-4.66-.16-9.65.81-14.06.77 4.885-.305 8.01-2.437 9.804-4.236 1.189-1.191 1.731-2.832 1.677-4.514 0-.007 0-.013-.001-.02-.09-1.11-.02-2.19.05-3.26.03-.31.29-.54.6-.52.29.02.51.26.52.54.14 1.98.44 4 1.42 5.71 1.09 1.72 2.53 3.73 3.08 5.83z" fill="#3a3a4f"/></g></g><g id="Racoon"/><g id="Donkey"/><g id="Cow"/><g id="Goat"/><g id="Deer"/><g id="Jaguar"/><g id="Fox"/><g id="Tiger"/><g id="hyena"/><g id="Polar_Bear"/><g id="Squirrel"/><g id="Monkey"/><g id="Giraffe"/><g id="Elephant"/><g id="Lion"/><g id="Horse"/></svg>