<svg id="Layer_1" enable-background="new 0 0 512.256 512.256" height="512" viewBox="0 0 512.256 512.256" width="512" xmlns="http://www.w3.org/2000/svg"><path d="m352.31 82.939c-.507-6.574-4.994-12.165-11.304-14.081-61.479-18.671-122.693 30.251-117.744 94.517.507 6.574 4.994 12.165 11.304 14.081 61.488 18.673 122.693-30.252 117.744-94.517z" fill="#91c656"/><path d="m171.25 68.858c-6.31 1.916-10.797 7.507-11.304 14.081-4.957 64.362 56.379 113.156 117.744 94.517 6.31-1.916 10.797-7.507 11.304-14.081 4.954-64.319-56.315-113.178-117.744-94.517z" fill="#aced70"/><path d="m328.619 149.416h-144.982c-76.713 0-139.124 62.411-139.124 139.124 0 8.837 7.163 16 16 16h391.23c8.837 0 16-7.163 16-16 0-76.713-62.411-139.124-139.124-139.124z" fill="#e0e0e0"/><path d="m496.256 275.76h-480.256c-8.837 0-16 7.163-16 16 0 85.829 69.826 155.655 155.655 155.655h200.945c85.829 0 155.655-69.826 155.655-155.655.001-8.836-7.162-16-15.999-16z" fill="#dfb7a4"/><path d="m496.256 275.76h-480.256c-8.837 0-16 7.163-16 16 0 28.455 7.681 55.147 21.07 78.123 38.687 15.266 84.313 21.733 128.275.225 116.249-56.873 221.165-3.099 310.788 37.775 31.962-28.527 52.123-70.012 52.123-116.123 0-8.836-7.163-16-16-16z" fill="#e0c8bf"/><path d="m496.256 275.76h-480.256c-8.837 0-16 7.163-16 16 0 9.09.792 17.997 2.295 26.664 17.595 1.981 39.625.667 67.248-5.855 132.086-31.187 272.427-29.685 315.538 6.713 18.893 15.951 66.322 35.75 110.329 42.831 10.762-21.142 16.845-45.047 16.845-70.352.001-8.837-7.162-16.001-15.999-16.001z" fill="#e8d9d4"/><path d="m328.619 149.416h-144.982c-70.171 0-128.365 52.224-137.782 119.843 28.16 3.301 68.112-1.957 124.587-21.816 149.312-52.503 237.138-40.688 279.76-26.459-23.794-42.653-69.372-71.568-121.583-71.568z" fill="#f9f9f9"/><path d="m341.006 68.858c-18.403-5.589-37.774-5.172-55.5.729 1.337 23.897 9.175 50.819 37.203 53.57 6.86.673 14.971.423 23.842-.513 4.76-12.461 6.816-25.992 5.76-39.705-.508-6.574-4.996-12.165-11.305-14.081z" fill="#9bd65e"/><path d="m275.145 107.494c-21.793-34.52-64.167-50.704-103.895-38.636-6.31 1.916-10.797 7.507-11.304 14.081-.799 10.369.177 20.635 2.757 30.413 7.025-.589 14.227-2.252 21.498-5.333 22.858-9.685 57.987-6.934 90.944-.525z" fill="#c8f29c"/><g fill="#d3d1d1"><path d="m167.039 216.181c-7.126-5.224-17.138-3.683-22.363 3.445l-3.599 4.909c-7.816 10.66-.003 25.46 12.892 25.46 9.342 0 13.07-6.751 16.516-11.451 5.224-7.126 3.681-17.138-3.446-22.363z"/><path d="m360.484 216.181c-7.125-5.224-17.139-3.683-22.363 3.445l-3.599 4.909c-7.816 10.66-.003 25.46 12.892 25.46 9.342 0 13.07-6.751 16.516-11.451 5.224-7.126 3.681-17.138-3.446-22.363z"/><path d="m267.389 216.182c-7.126-5.224-17.138-3.684-22.364 3.442l-3.6 4.909c-7.817 10.662-.004 25.462 12.891 25.462 9.342 0 13.07-6.749 16.516-11.449 5.224-7.125 3.683-17.138-3.443-22.364z"/></g></svg>