<svg id="Capa_1" enable-background="new 0 0 512 512" height="512" viewBox="0 0 512 512" width="512" xmlns="http://www.w3.org/2000/svg"><g><path d="m240.772 371.139-15.781 7.064-1.364 6.819c-1.05 5.249 2.965 10.146 8.318 10.146h32.066l8.037-24.029z" fill="#c9c5c9"/><path d="m230.081 352.755-5.09 25.448h22.055c9.37 0 16.965 7.596 16.965 16.965h15.101c5.353 0 9.368-4.897 8.318-10.146l-6.454-32.267z" fill="#b0a8af"/><path d="m221.598 276.412-8.483 84.826h-48.029c-7.319 0-11.203-8.648-6.34-14.118z" fill="#c9c5c9"/><path d="m290.401 276.412 7.54 84.826h48.971c7.319 0 11.203-8.648 6.34-14.118z" fill="#b0a8af"/><path d="m290.944 352.894h-64.072l-13.756-8.622v-229.029l67.861-12.706 9.967 8.295z" fill="#dbd8db"/><path d="m247.046 99.212v32.996c0 4.689 3.794 8.483 8.482 8.483 4.689 0 8.483-3.794 8.483-8.483v-32.996z" fill="#b0a8af"/><path d="m280.977 102.537v224.771c0 9.37-7.596 16.965-16.965 16.965h-50.896v16.965h84.826v-245.995z" fill="#c9c5c9"/><path d="m288.989 107.031-8.012 8.212h-67.861v-33.931l67.861-7.946 8.012 10.859z" fill="#ffe077"/><path d="m255.529 369.72c-4.689 0-8.483-3.794-8.483-8.483v-76.343c0-4.689 3.794-8.483 8.483-8.483s8.483 3.794 8.483 8.483v76.343c-.001 4.689-3.795 8.483-8.483 8.483z" fill="#b0a8af"/><path d="m269.605 19.773-25.952-11.386-.724.726c-19.09 19.148-29.814 45.119-29.814 72.199h67.861c.001 0 10.783-38.734-11.371-61.539z" fill="#ff7e92"/><path d="m297.942 115.243h-16.965v-41.877l16.965 7.946z" fill="#ffd05b"/><path d="m268.128 9.113-6.601-6.621c-3.312-3.323-8.683-3.323-11.996 0l-5.877 5.895 7.509 6.679c19.089 17.569 29.814 41.399 29.814 66.245h16.965c0-27.079-10.725-53.05-29.814-72.198z" fill="#ff5f7a"/><path d="m271.974 444.328c-1.491 6.104-6.62 11.037-12.77 12.327-10.974 2.303-20.64-6.009-20.64-16.579 0-4.885 2.088-9.25 5.401-12.329 1.933-1.796 3.081-4.271 3.081-6.91 0-8.428-10.162-12.563-16.176-6.657-7.738 7.599-12.131 18.659-11.358 30.238 1.55 23.205 15.082 45.357 25.104 58.815l15.703-2.43 20.851-55.384z" fill="#ffe077"/><path d="m279.756 413.395c-6.066-5.437-15.745-1.084-15.745 7.062v.386c0 2.541.986 5.017 2.875 6.716 4.384 3.944 6.716 10.098 5.087 16.768-.051.21-.182.387-.242.594-2.064 23.605-18.242 48.576-27.114 58.312 1.554 2.086 3.035 3.998 4.363 5.637 3.392 4.187 9.724 4.166 13.115-.021 10.425-12.872 29.596-40.402 29.596-68.773 0-10.63-4.613-20.118-11.935-26.681z" fill="#ffd05b"/></g></svg>