<svg id="Capa_1" enable-background="new 0 0 514.531 514.531" height="512" viewBox="0 0 514.531 514.531" width="512" xmlns="http://www.w3.org/2000/svg"><path d="m502.519 372.626-8.23 26.43-18.065 58.017h-459.702c-1.729 0-3.437-.29-5.042-.859-1.615-.569-3.126-1.397-4.483-2.485-6.357-5.083-7.62-14.287-2.816-20.871 17.248-23.614 60.76-73.556 120.319-73.556v-5.176l335.913.332v4.845h32.291c6.937 0 11.875 6.708 9.815 13.323z" fill="#756f6f"/><path d="m494.288 399.057-18.065 58.017h-435.186c.414-18.48 7.671-36.835 21.73-50.904 14.049-14.049 32.735-21.782 52.602-21.782 19.877 0 38.553 7.733 52.602 21.782 1.097 1.097 2.143 2.236 3.158 3.375 1.015-1.139 2.06-2.278 3.158-3.375 14.049-14.049 32.725-21.782 52.602-21.782 19.867 0 38.553 7.733 52.602 21.782 1.097 1.097 2.133 2.236 3.147 3.375 1.015-1.139 2.06-2.278 3.158-3.375 14.049-14.049 32.735-21.782 52.602-21.782s38.553 7.733 52.602 21.782c1.097 1.097 2.143 2.236 3.158 3.375 1.015-1.139 2.05-2.278 3.147-3.375 14.059-14.049 32.735-21.782 52.602-21.782 16.212-.001 31.627 5.144 44.381 14.669z" fill="#5b5555"/><path d="m502.519 372.626-26.296 84.447h-32.238l26.296-84.447c2.06-6.615-2.888-13.324-9.814-13.324h32.238c6.936.001 11.874 6.709 9.814 13.324z" fill="#5b5555"/><circle cx="115.373" cy="458.774" fill="#fb4a59" r="55.756"/><circle cx="115.373" cy="458.774" fill="#f3eae6" r="21.527"/><path d="m154.797 498.198c-13.858 13.868-33.207 18.904-51.057 15.109 10.187-2.161 19.877-7.198 27.788-15.109 21.769-21.769 21.769-57.076 0-78.855-7.911-7.911-17.602-12.948-27.788-15.099 17.85-3.795 37.199 1.241 51.057 15.099 21.779 21.78 21.779 57.086 0 78.855z" fill="#f82f40"/><circle cx="226.886" cy="458.774" fill="#fb4a59" r="55.756"/><circle cx="226.886" cy="458.774" fill="#f3eae6" r="21.527"/><path d="m266.309 498.198c-13.858 13.868-33.207 18.904-51.057 15.109 10.187-2.161 19.877-7.198 27.788-15.109 21.769-21.769 21.769-57.076 0-78.855-7.911-7.911-17.602-12.948-27.788-15.099 17.85-3.795 37.199 1.241 51.057 15.099 21.779 21.78 21.779 57.086 0 78.855z" fill="#f82f40"/><circle cx="338.398" cy="458.774" fill="#fb4a59" r="55.756"/><circle cx="338.398" cy="458.774" fill="#f3eae6" r="21.527"/><path d="m377.821 498.198c-13.858 13.868-33.207 18.904-51.057 15.109 10.186-2.161 19.877-7.198 27.788-15.109 21.769-21.769 21.769-57.076 0-78.855-7.911-7.911-17.602-12.948-27.788-15.099 17.85-3.795 37.199 1.241 51.057 15.099 21.78 21.78 21.78 57.086 0 78.855z" fill="#f82f40"/><circle cx="449.91" cy="458.774" fill="#fb4a59" r="55.756"/><circle cx="449.91" cy="458.774" fill="#f3eae6" r="21.527"/><path d="m489.334 498.198c-13.858 13.868-33.207 18.904-51.057 15.109 10.187-2.161 19.877-7.198 27.788-15.109 21.769-21.769 21.769-57.076 0-78.855-7.911-7.911-17.602-12.948-27.788-15.099 17.85-3.795 37.199 1.241 51.057 15.099 21.779 21.78 21.779 57.086 0 78.855z" fill="#f82f40"/><path d="m428.913 250.101c-64.083 24.536-190.356 46.505-259.988-8.034-50.511-39.548-93.93-46.194-122.701-45.883v-118.735c0-11.181 9.069-20.25 20.26-20.25h181.929s15.426 131.5 101.208 166.782c29.267 12.041 56.33 20.375 79.292 26.12z" fill="#756f6f"/><path d="m428.913 250.101c-13.096 5.011-28.801 9.928-46.09 14.09-16.927-5.052-35.396-11.419-54.828-19.411-77.066-31.7-106.654-161.544-111.872-187.591h32.29s15.426 131.511 101.208 166.793c29.278 12.04 56.34 20.374 79.292 26.119z" fill="#5b5555"/><path d="m350.707 224.428c-.704.911-1.491 1.801-2.329 2.64l-57.095 57.095c-11.015 11.015-25.675 17.092-41.255 17.092-15.591 0-30.251-6.077-41.266-17.092-11.212-11.222-11.212-29.464 0-40.686l77.231-77.221c14.929 24.236 35.499 46.152 63.628 57.727.361.144.724.3 1.086.445z" fill="#5b5555"/><path d="m290.682 173.513c-1.015.114-2.039.166-3.075.166h-85.089c-8.437 0-16.036-3.655-21.296-9.452h-90.906c-15.86 0-28.76-12.91-28.76-28.77v-29.588c0-15.86 12.899-28.76 28.76-28.76h90.907c.797-.89 1.656-1.718 2.567-2.495-.683-5.704-1.191-11.523-1.522-17.424h66.143c.001 0 7.672 65.388 42.271 116.323z" fill="#5b5555"/><path d="m502.255 307.499v29.102h-456.028v-151.263c27.441-.294 74.431 6.047 122.607 43.769 67.26 52.683 180.021 39.424 240.402 15.68 19.55 5.662 36.912 9.552 51.194 12.226 24.27 4.539 41.825 25.791 41.825 50.486z" fill="#b9acac"/><path d="m502.25 307.498v29.101h-21.616v-8.303c0-24.691-17.558-45.945-41.825-50.48-19.856-3.717-45.676-9.794-75.036-19.68 16.947-3.582 32.425-8.22 45.469-13.345 19.546 5.663 36.907 9.545 51.194 12.227 24.266 4.534 41.814 25.788 41.814 50.48z" fill="#9e9797"/><path d="m502.25 307.498v29.101h-456.026v-100.473h64.88c10.912 0 21.254 5.766 26.969 15.063l11.781 19.132c10.011 16.264 28.087 26.358 47.188 26.358h303.178c.3 0 .59 0 .88.01.756 3.5 1.15 7.113 1.15 10.809z" fill="#9e9797"/><path d="m310.269 265.176-18.987 18.987c-11.015 11.015-25.675 17.092-41.255 17.092-15.591 0-30.251-6.077-41.266-17.092-9.369-9.38-10.912-23.646-4.617-34.63 32.6 13.572 70.232 17.506 106.125 15.643z" fill="#9e9797"/><path d="m31.959 264.112-8.471 28.762c-4.038 13.711-1.018 28.533 8.063 39.57 13.99 17.003 34.853 26.855 56.872 26.855h390.275c16.839 0 31.281-12.014 34.346-28.572 1.484-8.015-4.669-15.411-12.82-15.411h-303.183c-25.709 0-49.577-13.335-63.056-35.227l-11.778-19.13c-2.373-3.855-6.576-6.202-11.102-6.202h-66.64c-5.782.001-10.873 3.809-12.506 9.355z" fill="#fb4a59"/><path d="m513.265 328.337c0 .787-.072 1.584-.217 2.392-3.064 16.554-17.506 28.574-34.35 28.574h-33.429c16.844 0 31.286-12.02 34.35-28.574.145-.808.217-1.605.217-2.402 0-7.03-5.704-13.013-13.034-13.013h33.419c7.34 0 13.044 5.984 13.044 13.023z" fill="#f82f40"/><path d="m288.139 89.412-21.659-81.781c-1.322-4.994-6.168-8.269-11.28-7.523-26.753 3.902-43.963 24.206-51.056 34.41-2.443 3.514-3.73 7.707-3.641 11.986.324 15.581 1.884 29.841 4.407 42.908z" fill="#fb4a59"/><path d="m288.135 89.408h-26.938l-19.152-72.345c-1.325-4.99-6.17-8.261-11.274-7.516-.383.052-.776.114-1.149.186 7.216-4.555 15.757-8.199 25.582-9.628 5.104-.745 9.949 2.536 11.274 7.526z" fill="#f82f40"/><path d="m204.91 89.408c-1.335-6.905-2.402-14.142-3.147-21.73.248-.021.507-.021.756-.021h79.861l5.756 21.751z" fill="#f82f40"/><path d="m246.311 105.87v29.589c0 5.594-4.535 10.129-10.129 10.129h-145.865c-5.594 0-10.129-4.535-10.129-10.129v-29.589c0-5.594 4.535-10.129 10.129-10.129h145.864c5.595 0 10.13 4.535 10.13 10.129z" fill="#fb4a59"/><path d="m246.31 105.869v29.588c0 5.601-4.534 10.135-10.125 10.135h-62.406c-.021-.228-.021-.456-.021-.683v-48.492c0-.228 0-.445.021-.673h62.406c5.591 0 10.125 4.534 10.125 10.125z" fill="#f82f40"/><path d="m297.735 96.417v48.495c0 5.594-4.535 10.129-10.129 10.129h-85.087c-5.594 0-10.129-4.535-10.129-10.129v-48.495c0-5.594 4.535-10.129 10.129-10.129h85.087c5.594 0 10.129 4.535 10.129 10.129z" fill="#e0d3ce"/><g fill="#b9acac"><path d="m297.732 96.417v48.492c0 5.601-4.534 10.135-10.125 10.135h-25.178c5.59 0 10.125-4.534 10.125-10.135v-48.492c0-5.59-4.534-10.125-10.125-10.125h25.178c5.591 0 10.125 4.534 10.125 10.125z"/><path d="m297.733 112.897v15.529h-26.337c-4.286 0-7.765-3.468-7.765-7.765 0-4.286 3.479-7.765 7.765-7.765h26.337z"/><path d="m252.823 139.192v15.85h-15.529v-15.85c0-4.286 3.479-7.765 7.765-7.765 4.296.001 7.764 3.48 7.764 7.765z"/><path d="m252.823 86.29v15.85c0 4.286-3.468 7.765-7.765 7.765-4.286 0-7.765-3.478-7.765-7.765v-15.85z"/><path d="m224.146 139.192v15.85h-15.529v-15.85c0-4.286 3.479-7.765 7.765-7.765s7.764 3.48 7.764 7.765z"/><path d="m224.146 86.29v15.85c0 4.286-3.479 7.765-7.765 7.765s-7.765-3.478-7.765-7.765v-15.85z"/></g><path d="m314.278 178.641 20.923 20.923c3.956 3.956 3.956 10.369 0 14.325l-57.094 57.094c-15.511 15.511-40.659 15.511-56.17 0-3.956-3.956-3.956-10.369 0-14.325l78.016-78.016c3.956-3.957 10.369-3.957 14.325-.001z" fill="#fb4a59"/><path d="m335.199 213.889-17.196 17.206c3.768-3.965 3.706-10.249-.186-14.142l-20.923-20.923c-3.841-3.831-9.98-3.955-13.955-.362l17.02-17.03c3.955-3.955 10.363-3.955 14.318 0l20.923 20.923c3.953 3.954 3.953 10.373-.001 14.328z" fill="#f82f40"/><path d="m205.351 210.692c-1.378 0-2.774-.367-4.036-1.137l-40.207-24.53c-3.661-2.233-4.817-7.011-2.584-10.672 2.232-3.662 7.01-4.818 10.672-2.584l40.207 24.53c3.661 2.233 4.817 7.011 2.584 10.672-1.463 2.398-4.018 3.721-6.636 3.721z" fill="#5b5555"/><path d="m171.184 395.82c-.025 0-.05 0-.075 0l-.107-.001c-4.288-.04-7.731-3.55-7.691-7.837.04-4.263 3.509-7.692 7.763-7.692h.075l.107.001c4.288.04 7.731 3.55 7.691 7.837-.04 4.264-3.509 7.692-7.763 7.692z" fill="#5b5555"/><path d="m282.697 395.82c-.025 0-.05 0-.075 0l-.107-.001c-4.288-.04-7.731-3.55-7.691-7.837.04-4.263 3.509-7.692 7.763-7.692h.075l.107.001c4.288.04 7.731 3.55 7.691 7.837-.04 4.264-3.509 7.692-7.763 7.692z" fill="#5b5555"/><path d="m394.209 395.82c-.025 0-.05 0-.075 0l-.107-.001c-4.288-.04-7.731-3.55-7.691-7.837.04-4.263 3.509-7.692 7.763-7.692h.075l.107.001c4.288.04 7.731 3.55 7.691 7.837-.04 4.264-3.509 7.692-7.763 7.692z" fill="#5b5555"/></svg>