<svg id="Layer_1" enable-background="new 0 0 64 64" height="512" viewBox="0 0 64 64" width="512" xmlns="http://www.w3.org/2000/svg"><g><g fill="#5e6972"><path d="m44.774 18.84c-4.483 0-8.699 1.746-11.871 4.92l.707.707c2.983-2.984 6.947-4.627 11.164-4.627 4.197 0 8.151 1.643 11.134 4.627l.707-.707c-3.171-3.174-7.376-4.92-11.841-4.92z"/><path d="m35.99 26.816.707.707c2.154-2.152 5.022-3.34 8.077-3.34 3.036 0 5.895 1.188 8.048 3.34l.707-.707c-2.343-2.342-5.452-3.633-8.755-3.633-3.321.001-6.441 1.292-8.784 3.633z"/><path d="m39.048 29.902.707.707c1.344-1.342 3.126-2.082 5.02-2.082 1.875 0 3.647.74 4.99 2.082l.707-.707c-1.532-1.531-3.555-2.375-5.697-2.375-2.161 0-4.194.844-5.727 2.375z"/></g><g clip-rule="evenodd" fill-rule="evenodd"><g><path d="m14.796 37.088-.686-23.522c-.029-.828-.657-1.486-1.486-1.486-.8 0-1.458.658-1.486 1.486l-.686 23.521v2.285h4.344z" fill="#868e95"/><path d="m12.625 12.08c-.8 0-1.458.658-1.486 1.486l-.686 23.521v2.285h2.172z" fill="#5e6972"/></g><path d="m6.594 37.088h50.812c1.543 0 2.829 1.285 2.829 2.828v9.174c0 1.572-1.286 2.83-2.829 2.83h-50.812c-1.543 0-2.829-1.258-2.829-2.83v-9.174c0-1.543 1.286-2.828 2.829-2.828z" fill="#868e95"/><g><path d="m37.401 43.088c.8 0 1.429.629 1.429 1.43 0 .771-.629 1.43-1.429 1.43-.772 0-1.429-.658-1.429-1.43 0-.801.657-1.43 1.429-1.43z" fill="#f1625b"/><path d="m44.06 43.088c.772 0 1.429.629 1.429 1.43 0 .771-.657 1.43-1.429 1.43-.8 0-1.429-.658-1.429-1.43 0-.801.629-1.43 1.429-1.43z" fill="#e9c845"/><path d="m50.69 43.088c.8 0 1.429.629 1.429 1.43 0 .771-.629 1.43-1.429 1.43s-1.429-.658-1.429-1.43c0-.801.629-1.43 1.429-1.43z" fill="#b2c86d"/></g></g></g></svg>