<svg id="Capa_1" enable-background="new 0 0 512 512" height="512" viewBox="0 0 512 512" width="512" xmlns="http://www.w3.org/2000/svg"><g><g><g><path d="m115.898 178.447c17.582 0 34.4 5.452 48.637 15.768l26.602 19.275c6.484 4.698 14.144 7.182 22.151 7.182s15.667-2.483 22.151-7.182l9.392-6.805c11.101-8.043 24.214-12.295 37.923-12.295s26.822 4.252 37.923 12.295l4.789 3.47 22-15.94c14.237-10.315 31.056-15.769 48.638-15.769 6.486 0 12.867.748 19.055 2.202l-62.278-64.562c-22.993-23.836-61.173-23.836-84.166 0l-24.82 25.73c-14.137 14.655-37.611 14.655-51.748 0s-37.611-14.655-51.748 0l-36.129 37.454c3.826-.536 7.706-.823 11.628-.823z" fill="#fdd79b"/><path d="m115.898 178.447c7.336 0 14.535.963 21.473 2.818l38.053-39.449c2.524-2.616 5.348-4.757 8.361-6.439-13.863-7.74-31.774-5.6-43.387 6.439l-36.128 37.454c3.826-.536 7.706-.823 11.628-.823z" fill="#fccd7f"/><path d="m323.815 211.351 1.651-2.431-4.202-3.044c-22.975-16.647-54.045-16.647-77.02 0l-9.392 6.805c-12.865 9.321-30.263 9.321-43.128 0l-26.602-19.275c-29.367-21.278-69.081-21.278-98.448 0l-64.202 46.517c-4.674 3.387-2.278 10.777 3.494 10.777h261.838l4.133-1.759z" fill="#e9b665"/><g><g><path d="m54.596 239.923 64.201-46.518c7.2-5.217 15.023-9.146 23.162-11.805-25.058-8.186-53.119-4.257-75.286 11.805l-64.201 46.518c-4.674 3.387-2.278 10.777 3.494 10.777h52.124c-5.772 0-8.168-7.39-3.494-10.777z" fill="#d8aa5e"/></g></g><g><path d="m346.878 193.405-79.074 57.295h238.23c5.772 0 8.168-7.39 3.494-10.776l-64.201-46.518c-29.367-21.279-69.082-21.279-98.449-.001z" fill="#fccd7f"/></g><g><path d="m417.994 180.358c-23.964-6.471-50.171-2.128-71.116 13.048l-79.074 57.294h43.783l79.074-57.294c8.422-6.103 17.697-10.446 27.333-13.048z" fill="#fbc56d"/></g></g><path d="m435.299 351.426-70.103-50.794c-29.367-21.278-69.081-21.278-98.448 0l-70.103 50.794z" fill="#e9b665"/><path d="m240.165 351.426 70.103-50.794c8.46-6.13 17.781-10.483 27.464-13.081-23.929-6.42-50.078-2.067-70.984 13.081l-70.103 50.794z" fill="#d8aa5e"/><path d="m242.655 351.426-51.587-37.378c-22.49-16.296-52.905-16.296-75.396 0l-51.587 37.378z" fill="#fdd79b"/><path d="m107.606 351.426 51.587-37.378c4.981-3.609 10.351-6.415 15.938-8.425-19.637-7.067-41.948-4.261-59.458 8.425l-51.587 37.378z" fill="#fbc56d"/><g><path d="m141.65 332.35h-2.061c-4.142 0-7.5-3.357-7.5-7.5s3.358-7.5 7.5-7.5h2.061c4.142 0 7.5 3.357 7.5 7.5s-3.358 7.5-7.5 7.5z" fill="#e9b665"/></g><g><path d="m174.616 341.622h-2.061c-4.142 0-7.5-3.357-7.5-7.5s3.358-7.5 7.5-7.5h2.061c4.142 0 7.5 3.357 7.5 7.5s-3.358 7.5-7.5 7.5z" fill="#d8aa5e"/></g><g><path d="m332.233 316.897h-2.061c-4.143 0-7.5-3.357-7.5-7.5s3.357-7.5 7.5-7.5h2.061c4.143 0 7.5 3.357 7.5 7.5s-3.357 7.5-7.5 7.5z" fill="#d8aa5e"/></g><g><path d="m403.315 215.939h-2.06c-4.143 0-7.5-3.357-7.5-7.5s3.357-7.5 7.5-7.5h2.06c4.143 0 7.5 3.357 7.5 7.5s-3.357 7.5-7.5 7.5z" fill="#d8aa5e"/></g><g><path d="m447.613 233.453h-2.06c-4.143 0-7.5-3.357-7.5-7.5s3.357-7.5 7.5-7.5h2.06c4.143 0 7.5 3.357 7.5 7.5s-3.357 7.5-7.5 7.5z" fill="#d8aa5e"/></g><g><path d="m340.475 174.732h-2.061c-4.143 0-7.5-3.357-7.5-7.5s3.357-7.5 7.5-7.5h2.061c4.143 0 7.5 3.357 7.5 7.5s-3.358 7.5-7.5 7.5z" fill="#d8aa5e"/></g><g><path d="m104.563 219.03h-2.061c-4.142 0-7.5-3.357-7.5-7.5s3.358-7.5 7.5-7.5h2.061c4.142 0 7.5 3.357 7.5 7.5s-3.357 7.5-7.5 7.5z" fill="#fbc56d"/></g><g><path d="m158.133 233.453h-2.061c-4.142 0-7.5-3.357-7.5-7.5s3.358-7.5 7.5-7.5h2.061c4.142 0 7.5 3.357 7.5 7.5s-3.358 7.5-7.5 7.5z" fill="#d8aa5e"/></g><g><path d="m267.332 227.271h-2.061c-4.143 0-7.5-3.357-7.5-7.5s3.357-7.5 7.5-7.5h2.061c4.143 0 7.5 3.357 7.5 7.5s-3.357 7.5-7.5 7.5z" fill="#fbc56d"/></g><g><path d="m61.296 234.483h-2.061c-4.142 0-7.5-3.357-7.5-7.5s3.358-7.5 7.5-7.5h2.061c4.142 0 7.5 3.357 7.5 7.5s-3.358 7.5-7.5 7.5z" fill="#d8aa5e"/></g><g><path d="m320.901 141.766h-2.061c-4.143 0-7.5-3.357-7.5-7.5s3.357-7.5 7.5-7.5h2.061c4.143 0 7.5 3.357 7.5 7.5s-3.357 7.5-7.5 7.5z" fill="#d8aa5e"/></g><g><path d="m215.823 194.305h-2.06c-4.142 0-7.5-3.357-7.5-7.5s3.358-7.5 7.5-7.5h2.06c4.142 0 7.5 3.357 7.5 7.5s-3.358 7.5-7.5 7.5z" fill="#d8aa5e"/></g><g><path d="m277.634 166.491h-2.061c-4.143 0-7.5-3.357-7.5-7.5s3.357-7.5 7.5-7.5h2.061c4.143 0 7.5 3.357 7.5 7.5s-3.358 7.5-7.5 7.5z" fill="#d8aa5e"/></g><g><path d="m171.525 169.582h-2.061c-4.142 0-7.5-3.357-7.5-7.5s3.358-7.5 7.5-7.5h2.061c4.142 0 7.5 3.357 7.5 7.5s-3.358 7.5-7.5 7.5z" fill="#d8aa5e"/></g><g><path d="m357.988 231.392h-2.061c-4.143 0-7.5-3.357-7.5-7.5s3.357-7.5 7.5-7.5h2.061c4.143 0 7.5 3.357 7.5 7.5s-3.357 7.5-7.5 7.5z" fill="#d8aa5e"/></g><g><path d="m309.569 338.531h-2.061c-4.143 0-7.5-3.357-7.5-7.5s3.357-7.5 7.5-7.5h2.061c4.143 0 7.5 3.357 7.5 7.5s-3.357 7.5-7.5 7.5z" fill="#d8aa5e"/></g><g><path d="m360.048 339.561h-2.06c-4.143 0-7.5-3.357-7.5-7.5s3.357-7.5 7.5-7.5h2.06c4.143 0 7.5 3.357 7.5 7.5s-3.358 7.5-7.5 7.5z" fill="#d8aa5e"/></g><g><path d="m271.453 333.381h-2.061c-4.143 0-7.5-3.357-7.5-7.5s3.357-7.5 7.5-7.5h2.061c4.143 0 7.5 3.357 7.5 7.5s-3.357 7.5-7.5 7.5z" fill="#fccd7f"/></g><g><path d="m481.609 365.426h-451.219c-4.142 0-7.5-3.357-7.5-7.5s3.358-7.5 7.5-7.5h451.219c4.143 0 7.5 3.357 7.5 7.5s-3.357 7.5-7.5 7.5z" fill="#fccd7f"/></g></g><g><path d="m86.02 158.304h-2.06c-4.142 0-7.5-3.357-7.5-7.5s3.358-7.5 7.5-7.5h2.06c4.142 0 7.5 3.357 7.5 7.5s-3.358 7.5-7.5 7.5z" fill="#fccd7f"/></g><g><path d="m108.684 114.007h-2.061c-4.142 0-7.5-3.357-7.5-7.5s3.358-7.5 7.5-7.5h2.061c4.142 0 7.5 3.357 7.5 7.5s-3.358 7.5-7.5 7.5z" fill="#fdd79b"/></g><g><path d="m438.342 144.912h-2.061c-4.143 0-7.5-3.357-7.5-7.5s3.357-7.5 7.5-7.5h2.061c4.143 0 7.5 3.357 7.5 7.5s-3.358 7.5-7.5 7.5z" fill="#d8aa5e"/></g><g><path d="m403.315 114.007h-2.06c-4.143 0-7.5-3.357-7.5-7.5s3.357-7.5 7.5-7.5h2.06c4.143 0 7.5 3.357 7.5 7.5s-3.357 7.5-7.5 7.5z" fill="#fdd79b"/></g><g><path d="m48.934 135.64h-2.061c-4.142 0-7.5-3.357-7.5-7.5s3.358-7.5 7.5-7.5h2.061c4.142 0 7.5 3.357 7.5 7.5s-3.358 7.5-7.5 7.5z" fill="#d8aa5e"/></g><g><path d="m480.579 304.591h-48.418c-4.143 0-7.5-3.357-7.5-7.5s3.357-7.5 7.5-7.5h48.418c4.143 0 7.5 3.357 7.5 7.5s-3.357 7.5-7.5 7.5z" fill="#fccd7f"/></g><g><path d="m66.447 304.591h-51.509c-4.142 0-7.5-3.357-7.5-7.5s3.358-7.5 7.5-7.5h51.509c4.142 0 7.5 3.357 7.5 7.5s-3.358 7.5-7.5 7.5z" fill="#fccd7f"/></g><g><path d="m171.525 413.79h-51.509c-4.142 0-7.5-3.357-7.5-7.5s3.358-7.5 7.5-7.5h51.509c4.142 0 7.5 3.357 7.5 7.5s-3.358 7.5-7.5 7.5z" fill="#fbc56d"/></g><g><path d="m359.019 413.79h-29.876c-4.143 0-7.5-3.357-7.5-7.5s3.357-7.5 7.5-7.5h29.876c4.143 0 7.5 3.357 7.5 7.5s-3.358 7.5-7.5 7.5z" fill="#fdd79b"/></g><g><path d="m207.582 413.79h-2.061c-4.142 0-7.5-3.357-7.5-7.5s3.358-7.5 7.5-7.5h2.061c4.142 0 7.5 3.357 7.5 7.5s-3.358 7.5-7.5 7.5z" fill="#d8aa5e"/></g><g><path d="m265.271 413.79h-2.061c-4.143 0-7.5-3.357-7.5-7.5s3.357-7.5 7.5-7.5h2.061c4.143 0 7.5 3.357 7.5 7.5s-3.357 7.5-7.5 7.5z" fill="#d8aa5e"/></g><g><path d="m402.286 413.79h-2.061c-4.143 0-7.5-3.357-7.5-7.5s3.357-7.5 7.5-7.5h2.061c4.143 0 7.5 3.357 7.5 7.5s-3.357 7.5-7.5 7.5z" fill="#d8aa5e"/></g></g></svg>