<svg enable-background="new 0 0 64 64" height="512" viewBox="0 0 64 64" width="512" xmlns="http://www.w3.org/2000/svg"><g id="Layer_11"><g><g><g fill="#ffa963"><path d="m47.9990234 46.003418c-.0341797-1.1601562-.0703125-2.0859375-.2089844-2.5693359l-.296875-1.0292969-.8320312.6733398c-.2910156.2358398-.5214844.6606445-.75 1.0800781-.3496094.6445312-.7460938 1.375-1.4423828 1.5224609-.0693359.0141602-.1328125.0209961-.1894531.0209961-.3603516 0-.5918083-.2827148-.9726562-.9165039-.3554688-.5952148-.7578125-1.2700195-1.6025391-1.2700195-.141613 0-.2900391.0200195-.4521484.0610352-.5078125.1289062-1.0214844.1938477-1.5283203.1938477-1.9072266 0-3.3310547-.8989258-4.0097656-1.4355469l-.4775391-.3764648-.4453125.4135742c-2.0429688 1.8959961-5.2333984 2.3383789-7.5488281 2.375l-.4013672.0063477-.2011719.3466797c-.9580078 1.6469727-3.5488281 2.3564453-5.6298828 2.9267578-1.0205078.2802734-1.984375.5449219-2.6484375.8823242-1.0712891.5463867-.6230469 1.9770508-.1484375 3.4926758l.21875.6953125 29.6386719-5.2324219-.0263672-.6220703c-.0185548-.4155274-.0332032-.8305665-.044922-1.2387696z"/><path d="m60.7734375 37.7128906c-.0947266-.2075195-.3583984-.5561523-1.0488281-.5561523-.4726562 0-1.1484375.1591797-1.7617188.4145508l-.1074219.0449219-.1953125.1801758c-.6484375.5415039-.359375 1.5473633.15625 3.0209961.3378906.9628906.7207031 2.0541992.4130859 2.6098633-.1123047.203125-.3164062.3359375-.6240234.4052734-.1552734.0351562-.3007812.0527344-.4326172.0527344-.2412109 0-.4365234-.059082-.5947266-.1811523-.5654297-.4331055-.6103516-1.5791016-.6542969-2.6875-.0527344-1.3476562-.1289062-2.0205078-.6220703-2.3789062l-.2744141-.1171875h-.1533203c-.1005859 0-.2099609.0161133-.3154297.0463867-1.3476562.362793-1.0908203 1.3393555-.8847656 2.1240234.2607422.996582.2714844 1.5131836-.3603516 1.9365234-.2705078.1816406-.5185547.2734375-.7382812.2734375-.3877068 0-.7089844-.2851562-.9931641-.5366211-.3291016-.2924805-.6699219-.5947266-1.1376953-.5947266-.2763672 0-.4970703.109375-.640625.1918945l-.2158203.1259766-.0898438.2329102c-.171875.4458008-.0136719 1.0219727.8896484 3.2460938.1640625.4003906.328125.8115234.4863281 1.2246094l.1982422.5151367.5478516-.0644531c.953125-.1113281 9.34375-1.1269531 10.2246094-2.550293.7714845-1.5444337-.7734373-6.3247072-1.0712889-6.9785158z"/><path d="m15.7285156 51.3710938c-.0527344-1.0229492-.0996094-1.7773438-.2304688-2.1655273l-.1669922-.4951172-.5224609.0126953c-.3964844.0087891-1.09375.2294922-1.6103516.4140625-.6552734.2319336-1.3984375.4946289-2.0234375.4946289-.1357422 0-.2636719-.012207-.3789062-.0371094-.5-.1083984-.6074219-.4873047-.671875-1.3515625-.0429688-.5913086-.0976562-1.3266602-.765625-1.5009766-.1279297-.0336914-.2539062-.050293-.3857422-.050293-.3095703 0-.5849609.0893555-.9433594.2163086-.2568359.090332-.5761719.203125-.9267578.2329102l-.1855469.0244141c-.1933594 0-.8632812.0385742-1.3583984.5302734-.3564453.3540039-.5322266.8535156-.5214844 1.484375.0527344 3.5126953.8066406 5.4916992 2.2412109 5.8813477.3056641.0834961.6884766.1240234 1.1708984.1240234 1.9560547 0 5.2470703-.7001953 6.8837891-1.1137695l.5986328-.1513672-.0664062-.6132812c-.0683593-.631836-.1044921-1.2919923-.1367187-1.9360352z"/></g><path d="m17.2519531 56.4692383c-.2841797 0-.5410156-.0859375-.7636719-.2548828-.9003906-.6860352-1.0664062-2.5839844-1.1787109-4.8095703-.0449219-.8989258-.1074219-2.1137695-.3017578-2.237793-.0527344-.0146484-.1191406-.0229492-.1992188-.0229492-.3701172 0-.9003906.1875-1.4619141.3862305-.6943359.2456055-1.4746094.5219727-2.1708984.5219727-.1650391 0-.3232422-.0161133-.4677734-.0473633-.8867188-.1914062-.9511719-1.043457-1.0029297-1.7280273-.0595703-.8095703-.1572266-1.0517578-.4541016-1.1289062-.0908203-.0234375-.1806641-.034668-.2744141-.034668-.2646484 0-.5361328.0957031-.7988281.1884766-.365243.1298828-.7705078.2739258-1.2880859.2739258-.4726562 0-.9658203-.1230469-1.5087891-.3754883-.4863281-.2255859-.8125-.5888672-.96875-1.0805664-.3818359-1.1982422.3789062-2.8271484.6210938-3.2978516l.2509766-.4912109.5390625.1240234c.1953125.0458984.3007812.0712891.4169922.0844727.1328125.0151367.2568359.0224609.375.0224609 1.0576172 0 1.4101562-.5942383 1.7216797-1.1186523.2529297-.4257812.4902344-.8271484 1.0166016-.8271484.9335938.0952148.9814453.8530273 1.0195312 1.4614258.046875.730957.1230469 1.2719727.6816406 1.5791016.1669922.0922852.3183594.1367188.4609375.1367188.1865234 0 .3857422-.0830078.609375-.2548828l.4335938-.3339844.4326172.3354492c.7177734.5541992 2.7568359 1.8432617 6.1777344 1.8432617 1.1386719 0 2.3339844-.1479492 3.5517578-.4394531.453125-.1088867.8701172-.2207031 1.2636719-.3344727l.1005859-.0288086.2714844.0175781c.2353516.034668 1.7948189-1.8547516 2.6541939-1.8210602l.5831108 2.0212555-1.0332031 1.1293945c-1.2363281 1.3515625-3.5566406 1.987793-5.4208984 2.4990234-1.0117188.2773438-1.9609375.5375977-2.5869141.8569336-.6425781.3271484-.5019531 1.1943359.0302734 2.8964844.3925781 1.2509766.7988281 2.5449219.2929688 3.4204102-.2421875.4199219-.6572266.6904297-1.2685547.8276367-.1220704.0273435-.2421876.0415037-.3554689.0415037z" fill="#f9c900"/></g><g fill="#f49853"><path d="m60.7700195 37.7099609c-.0900269-.1999512-.3500366-.5499878-1.0500488-.5499878-.3299561 0-.75.0800171-1.1899414.210022.5099487 2.2999878.6999512 4.5100098-.2000122 5.3300171.0299683.289978 0 .539978-.1000366.7299805-.1099854.2000122-.3200073.3300171-.6199951.3999634-.1599731.0400391-.3099976.0600586-.4400024.0600586-.2399902 0-.4299927-.0600586-.5899658-.1900024-.1100464-.0800171-.2000122-.1900024-.2700195-.3200073-1.3900146.3399658-3.5499878.8499756-6.2199707 1.4400024.0899658.2299805.1900024.4799805.2999878.75.1599731.3999634.3299561.8099976.4799805 1.2199707l.2000122.5200195.5499878-.0700073c.9500122-.1099854 9.3400269-1.1300049 10.2200317-2.5499878.7799681-1.5400391-.7700197-6.3200074-1.0700075-6.9800416z"/><path d="m48 46c-.0100098-.2399902-.0200195-.4800415-.0200195-.7000122-8.3599854 1.8499756-20.3499756 4.3800049-29.6199951 6.1099854.0599976.2399902.1300049.4899902.2200317.7700195.0899658.2799683.1799927.5700073.2600098.8499756l29.2299805-5.1699829-.0300293-.6199951c-.0099488-.4100342-.0299683-.8300172-.0399781-1.2399903z"/><path d="m5.6699829 53.3599854c.3699951.9400024.9100342 1.5 1.6100464 1.7000122.2999878.0899658.6899414.1300049 1.1699829.1300049 1.9599609 0 5.25-.7000122 6.8800049-1.1199951l.2099609-.0500488c-.0999756-.6099854-.1599731-1.3099976-.1999512-2.0599976-4.4200439.790039-7.9400024 1.330017-9.6700439 1.4000244z"/></g><path d="m49.9326172 52.2744141c-.3652344 0-.6806641-.1010742-.9628906-.309082-1.1503906-.8481445-1.3105469-3.1928711-1.3916016-5.9428711-.0341797-1.230957-.0703125-2.5029297-.3193359-2.7329102-.3505859.0039062-.5703125.3178711-.9746094 1.0625-.3955078.7280273-.8427734 1.5512695-1.7314453 1.7397461-.0830078.0185547-.1708984.0288086-.2578125.0288086-.6767578 0-1.0175781-.5693359-1.3476562-1.1196289-.375-.6245117-.6835938-1.065918-1.2373047-1.065918-.1074219 0-.2275391.0161133-.3574219.0483398-.5371094.1362305-1.0849609.2055664-1.6269531.2055664-1.4882812 0-2.6933594-.5219727-3.4414062-.9594727l-2.1246071-1.4741745 2.4790993.1509323c2.0761719-.0097656 3.8789062-.4233398 5.3574219-1.2290039l.1650391-.0898438.4443359.0063477c1.5917969 0 6.9794922-.2783203 9.3603516-3.8588867l.1474609-.2192383.2519531-.0712891c.4511719-.1259766.7607422-.3110352.9482422-.5649414.4169922-.5664062.2285156-1.4179688.0771484-2.1015625-.0390625-.1767578-.0849609-.3916016-.1103516-.5585938l-.2236328-1.5239258 1.3046875.8183594c.1708984.1074219.4042969.2954102.5761604.4375.4970818.4086914 1.1142693.9169922 1.8906364.9169922.5205078 0 1.0869141-.2333984 1.6855469-.6943359.0371094-.0395508.0703125-.0712891.109375-.1030273l.8261719-.6860352.3056641 1.0322266c.4638672 1.5664062-.0800781 3.112793-1.5722656 4.472168l-.1357423.1074219-.1201172.1245117c-.4355469.3686523-.1425781 1.3330078.2851562 2.5551758.4589844 1.309082.7548828 2.2871094.3847656 2.9545898-.1757812.3149414-.4697266.5146484-.8994141.6113281-.1845703.0419922-.3603516.0639648-.5234375.0639648-.4990234 0-.7617188-.2001953-.8486328-.2661133-.7236328-.5556641-.7753906-1.8554688-.8203125-3.0019531-.0361328-.8837891-.0722656-1.7871094-.4033203-2.0307617-.0595703-.043457-.1367188-.0654297-.2294922-.0654297-.0625 0-.1318359.0097656-.2050781.0297852-.8574219.2319336-.8398438.6474609-.5878906 1.6118164.2021484.7724609.453125 1.730957-.53125 2.3925781-.3525391.2368164-.6630859.3476562-.9775391.3476562-.5380859 0-.8886719-.3110352-1.2607422-.6396484-.2519531-.2236328-.5605469-.496582-.8652344-.496582-.1298828 0-.2705078.0444336-.4287109.1367188-.3984375.2314453.2158203 1.7416992.7578125 3.0742188.8378906 2.0581055 1.7822266 4.375 1.0976562 5.7685547-.2460938.5-.6855469.8408203-1.3056641 1.0136719-.2236326.0620117-.4365233.09375-.6328123.09375z" fill="#f9c900"/><path d="m43.4023438 39.7050781c.1982422-.1728516.3945312-.3520508.5791016-.5512695l.1806641-.1943359.2626953-.0283203c.5234375-.0576172.9199219-.2333984 1.2138672-.5375977.6191406-.644043.6308594-1.6733398.6074219-2.0859375l-.0195312-.3032227.2080078-.2231445c.2695312-.2875977.421875-.6918945.5546875-1.0810547.1796875-.5297852.2822266-.7797852.5117188-.9487305l.0292969-.0219727.1132812-.065918.15625-.0424805.1953125-.0224609c.6669922 0 .9277344.5961914 1.2041016 1.2275391.4208984.9663086.8339844 1.7084961 1.9921875 1.7602539l1.5146484.0673828-1.0214844 1.1196289c-2.1699219 2.3823242-5.7910156 3.0112305-7.7568359 3.1743164l-2.15625.1787109z" fill="#a02e14"/><path d="m36.5566406 42.3085938c-2.46875 0-4.703125-.5297852-5.8154297-.8457031l-.8984375-.2553711.4863281-.7978516c.2646484-.4326172.1289062-1.0146484.0087891-1.527832-.1728516-.7338867-.2519531-1.0688477-.0830078-1.3852539l.2207031-.4116211.4638672.0380859c.2568359.0205078.4873047.1503906 1.0087891.5048828.4287109.2905273 1.0732422.7275391 1.7177734.7275391.1230469 0 .2451172-.0161133.3623047-.0478516l.3017578-.0825195.265625.1679688c.2607422.1665039.9541016.5527344 1.7402344.5527344.1708984 0 .3378906-.0185547.4960938-.0556641.6992188-.1601562 1.2802734-.6738281 1.7275391-1.5258789.4003906-.7651367.7675781-1.1289062 1.1884766-1.1791992h.0029297c.5908203 0 .9765625.4155273 1.5585938 1.0927734.5527344.6396484 1.1757812 1.3623047 2.0058594 1.5932617l1.296875.3603516-1.0302734.8666992c-.4277344.3603516-.8310547.6459961-1.234375.8735352-1.5761721.8872069-3.5244143 1.336914-5.7910159 1.336914z" fill="#f40b1c"/><path d="m44.0859375 39.3808594c-.1474609 0-.3007812-.0083008-.4619141-.0253906-1.1806641-.1201172-1.984375-1.0517578-2.6298828-1.8007812-.3857422-.4482422-.8212891-.9541016-1.1572266-.9541016-.2753906.0307617-.5869141.3530273-.9052734.956543-.5048828.9648438-1.1767578 1.5498047-1.9960938 1.7402344-.1904297.0444336-.390625.0668945-.5957031.0668945-.4414062 0-.9052734-.1040039-1.3779297-.3081055l-1.0107422-.4370117.8144531-.7402344c.0664062-.0600586.1337891-.1230469.2011719-.1958008.4121094-.4487305.5761719-.9121094.4863281-1.3774414-.1416016-.737793-.8583984-1.3671875-1.4345703-1.7651367l-1.3515625-.9335938 1.6054688-.3442383c2.7880859-.5991211 5.7734375-1.2509766 8.6572266-1.8955078l1.4716797-.3291016-.6835938 1.3442383c-.2666016.5253906-.3623047 1.1816406-.2617188 1.800293.1845703 1.125.8945312 1.9243164 1.7675781 1.987793.0507812.0043945.0986328.0058594.1445312.0058594.1376953 0 .2734375-.015625.4277344-.0498047l.9326172-.2060547-.0712891.9516602c-.0566406.7709961-.2998047 1.3818359-.7207031 1.8168945-.4443358.4589843-1.0673827.6918945-1.8505858.6918945z" fill="#599306"/><path d="m26.3564453 45.1586914-2.9521904-.3714561 2.8359795-.986454c2.3876953-1.0571289 2.7060547-2.0732422 2.7451172-2.2661133l.0830078-.3974609.3837891-.1313477c.0917969-.0317383.1826172-.0649414.2636719-.1030273l.2597656-.121582.2714844.0927734c.1845703.0639648 1.859375.6298828 4.0996094.8969727l1.6894531.2011719-1.3310547 1.0595703c-2.2148438 1.7612305-5.4824219 2.1313477-7.8339844 2.1313477z" fill="#a02e14"/><path d="m19.2167969 45.7954102c-3.4130859 0-5.5810547-1.2797852-6.3544922-1.8300781l-.6269531-.4462891.6025391-.7158203c.4101562-.4873047.7070312-.8154297 1.0820312-.9306641l.1191406-.0302734.1318359-.0083008c.4179688 0 .7763672.2543945 1.1914062.5493164.5322266.378418 1.1328125.8051758 1.8466797.8051758.3535061 0 .7099609-.1000977 1.0917969-.3056641.3222656-.175293.5917969-.4453125.7998047-.8022461l.3886719-.6694336.6337891.4458008c.4023438.2836914 1.0429688.6210938 1.8076172.6210938.4033203 0 .8037109-.0966797 1.1923828-.2875977.9306641-.4570312.953125-1.0849609.8867188-1.8588867l-.0048828-.0600586.4335938-.7924805.8271484.2890625.1445312.2241211c.3603516.5717773.8066406 1.2807617 2.3037109 1.2807617.2070312 0 .4316406-.0136719.6738281-.0429688l1.6035156-.1928711-.9414062 1.3120117c-.5966797.8320312-2.1621094 2.0288086-6.2294922 3.0024414-1.2304687.2944337-2.4433594.4438478-3.6035156.4438478z" fill="#f40b1c"/><path d="m21.9267578 42.8950195c-1.1298828 0-1.9814453-.6171875-2.2949219-.8823242l-.3359375-.2856445.1054688-.4277344c.2548828-1.2583008-.1738281-2.8901367-.7285156-3.847168l-.4980469-.859375.9736328-.1938477c3.3671875-.6679688 7.2919922-1.4750977 11.6660156-2.3994141l2.34375-.4975586.2548828.1806641c.8330078.4428711 2.2216797 1.3442383 2.4521484 2.543457.1162109.6044922-.0820312 1.1904297-.5898438 1.7421875-.5048828.5473633-1.0351562.8134766-1.6230469.8134766-.6904297 0-1.3115234-.3813477-1.9394531-.8061523-.2568359-.1748047-.6445312-.4384766-.84375-.4384766-.3164062.2373047-.2851562.5576172-.1240234 1.2470703.1435547.6142578.3066406 1.3105469-.0830078 1.894043-.3115234.46875-.9306641.7749023-1.8935547.9355469-.3935547.0654297-.7578125.0991211-1.0839844.0991211-1.6865234 0-2.2460938-.8881836-2.6162109-1.4760742-.2529297-.4023438-.3505859-.5-.5-.5-.0761719.0039062-.1132812.0205078-.1210938.0297852-.0595703.0688477-.0361328.3325195-.0195312.5244141.0566406.6601562.1425781 1.6567383-1.1201172 2.2773438-.4423827.2167967-.9072265.32666-1.3808593.32666z" fill="#77a505"/><path d="m51.3037109 37.0195312c-1.6054688 0-2.0917969-1.1137695-2.4833984-2.0083008-.2998047-.6879883-.4833984-.9946289-.7802734-.9946289-.0576172 0-.1240234.0087891-.1933594.0263672-.1923828.0488281-.3125.3583984-.4599609.7900391-.2529297.7446289-.5996094 1.765625-1.9697266 1.765625-.0722656 0-.1464844-.0029297-.2246094-.0087891-1.2363281-.0908203-1.9707031-1.2402344-2.1503906-2.3393555-.1962891-1.2089844.2109375-2.6821289 1.5634766-3.2475586 6.8066406-1.5483398 11.0693359-2.5986328 12.7021484-3.1318359l.3945312-.1293945.3066406.2817383c.4511719.4145508 1.921875 1.8930664 1.8759766 3.4921875-.0234375.7685547-.3984375 1.4379883-1.1152344 1.9902344-.6757812.5219727-1.3115234.7758789-1.9433594.7758789-.9335938 0-1.5839844-.5356445-2.1572266-1.0083008-.3144531-.2578125-.6357422-.5214844-.8427734-.5214844-.1181641.0205078-.2216797.0449219-.0253906.9345703.1699219.7670898.3808594 1.722168-.1503906 2.4428711-.3710938.5053711-1.0341797.7924805-2.0273438.8759766-.1103515.0097656-.2177734.0141601-.3193359.0141601z" fill="#77a505"/><path d="m11.5117188 44.2055664c-.2216797 0-.4375-.0595703-.6601562-.1816406-.8027344-.4414062-.8544922-1.2607422-.8964844-1.9194336-.0546875-.8730469-.1777344-1.0253906-.546875-1.065918-.3085938.0014648-.4501953.1816406-.6953125.59375-.3378907.569336-.7998048 1.3500977-2.0917969 1.3500977-.1308594 0-.2724609-.0083008-.4267578-.0253906-.9492188-.1088867-1.6484375-.4785156-2.0800781-1.0981445-.6015625-.8662109-.4951172-1.9692383-.421875-2.402832l.0976562-.5703125.578125-.0200195c1.8212891-.0649414 6.4394531-.8242188 13.7255859-2.2573242l.4257812-.0834961.2685547.3393555c.5195312.6557617 1.3886719 2.7094727 1.0390625 4.4824219-.1708984.8696287-.6308593 1.5283201-1.3291015 1.9052732-.4423828.2402344-.8671875.3569336-1.296875.3569336-.8388672 0-1.4726562-.449707-2.03125-.8461914-.3515625-.2504883-.7138672-.5092773-.9902344-.5092773-.0458984 0-.0908203.0068359-.1367188.0209961-.2841797.0878906-.5878906.4492188-.8818359.7988281-.5585937.6630859-1.0039062 1.1323242-1.649414 1.1323242z" fill="#599306"/><g><path d="m4.6012526 29.09688c5.082448-6.2413311 17.1909551-20.7761345 19.6331224-21.5392628.1494141-.0463867.3212891-.0688477.5263672-.0688477 3.9941406 0 26.890625 9.4614258 31.2304688 12.5209961l.8917694.7242775-1.1183319.5428123c-2.3847656.6328125-14.8867188 3.9243164-26.8349609 6.5776367-11.8457031 2.6289062-23.6142578 4.730957-25.8525391 5.1254883l-1.171875-.2641602c-.0000001.0000001 1.476124-2.1209372 2.6959791-3.6189402z" fill="#fcc683"/><path d="m56.8800049 20.7299805-1.1199951.5499878c-2.3800049.6300049-14.8800049 3.9200439-26.8300171 6.5700073-11.8499756 2.6300049-23.6099854 4.7399902-25.8499756 5.1300049l-1.1700439-.2600098s.6800537-.9899902 1.5-2.0899658c4.9700317-.9400024 11.7900391-2.2800293 18.6300049-3.8000488 11.5200195-2.5599976 23.5599976-5.7099609 26.5400391-6.5.2000122-.0499878.3800049-.1199951.5599976-.2099609l.8499756-.4100342-.7799683-.6300049c-.0800171-.0599976-.1400146-.1099854-.2200317-.1699829-3.4799805-2.3699951-17.2099609-8.2600098-25.4099731-11 .2600098-.1799927.4799805-.2999878.6499634-.3499756.1500244-.0499878.3300171-.0700073.5300293-.0700073 3.9899902 0 26.8900146 9.460022 31.2299805 12.5200195z" fill="#f7be7f"/><path d="m4.3554688 39.3833008c-.1835938 0-.3486328-.0170898-.5029297-.0517578l-.1347656-.0400391c-.7734375-.4550781-1.3681641-1.5922852-1.7011719-3.1611328-.2177734-1.0253906-.2822266-2.0385742-.1806641-2.8520508l.0693359-.5625.5710721-.0892868c.0966797-.0161133 13.0197487-2.2207718 26.3634987-5.1821976 10.2776375-2.2818031 20.7704391-4.9850197 25.1576118-6.1358814 1.2362862-.3243065 2.8855247-.5744114 2.8855247-.5744114l.1433868.3396873c1.4033203 2.8105469 2.6289062 5.8349609 1.0654297 6.9389648-.6152344.4345703-1.4423828.6162109-2.171875.7763672-.2167969.0473633-.421875.0922852-.6044922.1411133-1.8691406.5-3.734375.9418945-5.4853516 1.3515625-5.2324219 1.2290039-10.4072266 2.340332-15.2197266 3.3588867-3.9589844.8398438-8.0859375 1.6904297-12.2675781 2.527832-3.9873047.7978516-7.1962891 1.4179688-10.0976562 1.9511719l-.4599609.0849609c-2.0419922.3764648-4.1328125.762207-6.2099609 1.0332031-.0966797.0126953-.1992188.0292969-.3037109.046875-.2792973.0463869-.594727.098633-.916016.098633z" fill="#ffa963"/><path d="m58.0900269 28.0100098c-.6100464.4400024-1.4400024.6199951-2.1700439.7799683-.2199708.0499877-.419983.0900268-.5999757.1400146-1.8699951.5-3.7399902.9400024-5.4899902 1.3499756-5.2300415 1.2300415-10.4100342 2.3400269-15.2200317 3.3600464-3.9599609.8399658-8.0899658 1.6899414-12.2699585 2.5299683-3.9800415.7999877-7.1900025 1.4199828-10.0900269 1.9500121l-.460022.0800171c-2.0499878.3799438-4.1399536.7699585-6.2099609 1.039978-.1000366.0100098-.2000122.0299683-.3099976.0399781-.2800293.0499878-.5900269.1000366-.9100342.1000366-.1900024 0-.3499756-.0100098-.5100098-.0500488l-.1300049-.039978c-.369995-.210022-.6999511-.5800172-.9699706-1.0800172.0800171-.0099487.1500244-.0199585.2199707-.0299683.1100464-.0200195.210022-.039978.3100586-.0499878 2.0699463-.2700195 4.1699829-.6600342 6.2099609-1.0300293l.460022-.0899658c2.8999634-.5300293 6.1099854-1.1500244 10.0899658-1.9500122 4.1900024-.8400269 8.3099976-1.6900024 12.2700195-2.5300293 4.8099976-1.0100098 9.9899902-2.1300049 15.2200317-3.3499756 1.75-.4100342 3.6199951-.8599854 5.4899902-1.3599854.1799927-.0500488.3899536-.0900269.5999756-.1400146.7299805-.1600342 1.5599976-.3400269 2.1699829-.7700195 1.3800049-.9699707.6000366-3.4099731-.5499878-5.8900146.8699951-.1699829 1.6400146-.289978 1.6400146-.289978l.1500244.3400269c1.3999636 2.8099975 2.629944 5.8399657 1.0599978 6.9400024z" fill="#f49853"/></g></g></g></svg>