<svg id="Capa_1" enable-background="new 0 0 512 512" height="512" viewBox="0 0 512 512" width="512" xmlns="http://www.w3.org/2000/svg"><g><path d="m297.956 126.528-294.913 294.913c-4.057 4.057-4.057 10.635 0 14.691l43.846 43.846c1.702 1.702 3.943 2.761 6.339 2.994l19.254 1.874c5.093.496 9.788-2.791 11.066-7.746l3.54-13.733c1.277-4.955 5.972-8.242 11.065-7.746l14.118 1.373c5.093.495 9.788-2.791 11.065-7.746l3.541-13.733c1.277-4.955 5.973-8.242 11.065-7.746l14.117 1.373c5.093.495 9.788-2.791 11.065-7.746l3.541-13.734c1.277-4.955 5.973-8.242 11.065-7.746l14.116 1.373c5.093.495 9.788-2.792 11.065-7.746l3.54-13.732c1.277-4.955 5.972-8.242 11.065-7.747l14.117 1.373c5.093.495 9.788-2.792 11.065-7.747l3.54-13.731c1.277-4.955 5.973-8.242 11.066-7.747l14.116 1.373c5.093.495 9.788-2.791 11.065-7.746l3.541-13.735c1.277-4.954 5.972-8.241 11.065-7.746l14.121 1.373c5.092.495 9.787-2.791 11.064-7.745l3.543-13.739c1.278-4.954 5.972-8.24 11.064-7.745l14.122 1.373c5.092.495 9.787-2.791 11.064-7.745l3.544-13.74c1.278-4.954 5.972-8.24 11.063-7.745l14.128 1.372c5.092.495 9.785-2.791 11.063-7.745l4.249-16.469c.937-3.632-.157-7.487-2.861-10.086z" fill="#e0d3ce"/><path d="m403.255 227.721-105.295-101.195-54.6 54.6c1.391 2.359 3.101 4.574 5.13 6.603l20.799 20.799c6.222 6.222 14.824 9.797 23.632 9.797l56.293.01c1.898 0 3.717.754 5.059 2.096l8.198 8.198c4.696 4.696 1.01 12.7-5.611 12.196-.003 0-.005 0-.005 0-5.089-.494-9.787 2.792-11.064 7.747l-3.544 13.732c-1.277 4.955-5.975 8.241-11.064 7.747l-14.124-1.37c-5.089-.494-9.787 2.792-11.064 7.747l-3.544 13.732c-1.277 4.955-5.965 8.241-11.064 7.747l-14.113-1.37c-5.099-.494-9.797 2.792-11.074 7.747l-3.534 13.732c-1.277 4.955-5.975 8.241-11.064 7.747l-14.124-1.37c-5.089-.495-9.787 2.792-11.064 7.747l-3.534 13.732c-1.277 4.955-5.975 8.241-11.064 7.747l-14.124-1.381c-5.089-.494-9.787 2.792-11.064 7.747l-3.534 13.732c-1.277 4.955-5.975 8.241-11.074 7.747l-14.113-1.37c-5.089-.494-9.787 2.792-11.064 7.747l-3.544 13.732c-1.277 4.955-5.965 8.241-11.064 7.747l-14.114-1.381c-5.089-.494-9.787 2.792-11.064 7.747l-3.544 13.743c-1.277 4.945-5.975 8.241-11.064 7.737l-14.114-1.37c-5.099-.494-9.787 2.792-11.064 7.747l-3.544 13.732c-1.277 4.955-5.975 8.241-11.064 7.747l-19.254-1.875c-2.4-.227-4.636-1.288-6.346-2.988l19.821 19.821c1.71 1.7 3.946 2.761 6.346 2.988l19.254 1.875c5.089.494 9.787-2.792 11.064-7.747l3.544-13.732c1.277-4.955 5.965-8.241 11.064-7.747l14.113 1.38c5.099.495 9.787-2.792 11.064-7.747l3.544-13.732c1.277-4.955 5.975-8.241 11.064-7.747l14.113 1.37c5.099.494 9.797-2.792 11.074-7.747l3.534-13.732c1.277-4.955 5.975-8.241 11.064-7.747l14.124 1.37c5.089.494 9.787-2.792 11.064-7.747l3.534-13.732c1.277-4.955 5.975-8.241 11.064-7.747l14.124 1.381c5.089.494 9.787-2.792 11.064-7.747l3.534-13.732c1.277-4.955 5.975-8.241 11.074-7.747l14.113 1.37c5.089.494 9.787-2.792 11.064-7.747l3.544-13.732c1.277-4.955 5.965-8.241 11.064-7.747l14.114 1.37c5.099.505 9.787-2.781 11.064-7.737l3.544-13.742c1.277-4.955 5.975-8.241 11.064-7.747l14.124 1.37c5.094.494 9.789-2.794 11.067-7.749l3.541-13.73c1.277-4.955 5.975-8.241 11.064-7.747l14.134 1.37c5.089.494 9.776-2.792 11.054-7.747l4.255-16.462c.939-3.637-.153-7.49-2.863-10.086z" fill="#cdbfbb"/><path d="m472.453 161.295c-11.837-.423-23.478-5.934-32.224-14.979l-47.44-47.44c-5.347-5.336-12.445-8.283-19.996-8.283s-14.649 2.946-19.996 8.283c-7.86 7.871-18.317 12.197-29.432 12.197h-16.349l-43.958 43.958c-5.007 5.007-5.007 13.124 0 18.131l20.81 20.81c2.4 2.4 5.666 3.76 9.066 3.75l63.51.01c2.732 0 5.351 1.086 7.283 3.017l38.757 38.757c5.017 5.007 13.135 4.996 18.131 0l77.954-77.954zm-43.155 14.082-6.16 6.16c-5.007 5.007-13.125 5.007-18.131 0l-25.291-25.291c-2.246-2.246-5.254-3.575-8.427-3.739l-31.781-1.597c-6.181-.309-9.076-7.809-4.698-12.187l28.917-28.917c5.007-5.007 13.125-5.007 18.131 0l47.44 47.44c5.007 5.007 5.007 13.124 0 18.131z" fill="#fcc16d"/><path d="m498.568 161.552-77.954 77.954c-4.996 4.996-13.114 5.007-18.131 0l-17.966-17.966c5.017 5.007 13.135 4.996 18.131 0l61.399-61.399c2.761.659 5.584 1.051 8.406 1.154z" fill="#fca62f"/><path d="m508.241 151.879-25.209 25.209-10.908-.347c-16.233-.517-31.381-7.674-42.678-19.343-.049-.051-.099-.101-.149-.151l-47.44-47.44c-5.007-5.007-13.125-5.007-18.131 0-10.706 10.706-25.225 16.72-40.365 16.72h-31.799l95.663-95.663c5.007-5.007 13.125-5.017 18.131 0l2.74 2.74c8.138 8.138 10.312 20.501 5.45 30.936l-4.699 10.08c-1.83 3.925-1.01 8.575 2.052 11.638l44.688 44.688c3.062 3.062 7.713 3.882 11.637 2.052l10.08-4.699c5.223-2.431 10.909-3.101 16.328-2.153 5.408.958 10.539 3.534 14.608 7.603 5.018 5.005 5.008 13.123.001 18.13z" fill="#5b5555"/><path d="m508.241 151.879-25.209 25.209-10.91-.35c-7.077-.227-13.949-1.71-20.387-4.286l38.539-38.539c2.153-2.153 3.389-4.893 3.678-7.706 5.295.999 10.302 3.554 14.289 7.541 5.017 5.006 5.007 13.124 0 18.131z" fill="#433f43"/><g><path d="m295.678 170.933c-1.978 0-3.955-.755-5.464-2.264-3.017-3.018-3.016-7.909.001-10.927l3.797-3.796c3.018-3.017 7.909-3.016 10.927.001 3.017 3.018 3.016 7.909-.001 10.927l-3.797 3.796c-1.509 1.508-3.486 2.263-5.463 2.263z" fill="#5b5555"/></g></g></svg>