<svg id="Smooth" enable-background="new 0 0 128 128" height="512" viewBox="0 0 128 128" width="512" xmlns="http://www.w3.org/2000/svg" xmlns:xlink="http://www.w3.org/1999/xlink"><linearGradient id="lg1"><stop offset="0" stop-color="#9d766a"/><stop offset="1" stop-color="#53371a"/></linearGradient><linearGradient id="SVGID_1_" gradientTransform="matrix(-.88 .475 .475 .88 -777.488 -74.376)" gradientUnits="userSpaceOnUse" x1="-623.851" x2="-657.731" xlink:href="#lg1" y1="526.427" y2="516.319"/><linearGradient id="SVGID_2_" gradientUnits="userSpaceOnUse" x1="64" x2="64" y1="78.959" y2="124.046"><stop offset=".0132" stop-color="#eeae9a"/><stop offset=".0182" stop-color="#eeaf9b"/><stop offset=".13" stop-color="#f4c8b9"/><stop offset=".2266" stop-color="#f8d8cb"/><stop offset=".2963" stop-color="#f9ddd1"/><stop offset=".6578" stop-color="#f8dbce"/><stop offset=".8749" stop-color="#f6d3c6"/><stop offset="1" stop-color="#f4cabd"/></linearGradient><linearGradient id="SVGID_3_" gradientUnits="userSpaceOnUse" x1="64" x2="64" y1="109.765" y2="126"><stop offset="0" stop-color="#198dc4"/><stop offset="1" stop-color="#12639b"/></linearGradient><linearGradient id="lg2"><stop offset="0" stop-color="#f9ddd1"/><stop offset=".5137" stop-color="#f8dbce"/><stop offset=".8222" stop-color="#f6d3c6"/><stop offset="1" stop-color="#f4cabd"/></linearGradient><linearGradient id="SVGID_4_" gradientUnits="userSpaceOnUse" x1="31" x2="43" xlink:href="#lg2" y1="47" y2="47"/><linearGradient id="SVGID_5_" gradientUnits="userSpaceOnUse" x1="97" x2="85" xlink:href="#lg2" y1="47" y2="47"/><linearGradient id="lg3"><stop offset="0" stop-color="#f7d0bf"/><stop offset="1" stop-color="#f1beae"/></linearGradient><linearGradient id="SVGID_6_" gradientTransform="matrix(.964 -.266 .266 .964 36.596 -412.019)" gradientUnits="userSpaceOnUse" x1="-123.356" x2="-116.478" xlink:href="#lg3" y1="443.085" y2="443.085"/><linearGradient id="SVGID_7_" gradientTransform="matrix(-.964 -.266 -.266 .964 -2934.596 -412.019)" gradientUnits="userSpaceOnUse" x1="-3040.093" x2="-3033.214" xlink:href="#lg3" y1="-362.722" y2="-362.722"/><linearGradient id="SVGID_8_" gradientUnits="userSpaceOnUse" x1="41.945" x2="86.049" xlink:href="#lg2" y1="20.33" y2="64.435"/><linearGradient id="SVGID_9_" gradientUnits="userSpaceOnUse" x1="36.748" x2="74.593" xlink:href="#lg1" y1="5.669" y2="50.394"/><linearGradient id="SVGID_10_" gradientUnits="userSpaceOnUse" x1="64" x2="64" y1="98.464" y2="106.001"><stop offset="0" stop-color="#f9ddd1"/><stop offset=".2012" stop-color="#f8d9cc"/><stop offset="1" stop-color="#f4cabd"/></linearGradient><linearGradient id="lg4"><stop offset="0" stop-color="#d6efff"/><stop offset="1" stop-color="#caeaf8"/></linearGradient><linearGradient id="SVGID_11_" gradientUnits="userSpaceOnUse" x1="43.5" x2="43.5" xlink:href="#lg4" y1="87.441" y2="126"/><linearGradient id="lg5"><stop offset="0" stop-color="#ebf7ff"/><stop offset="1" stop-color="#d7effa"/></linearGradient><linearGradient id="SVGID_12_" gradientUnits="userSpaceOnUse" x1="51.5" x2="51.5" xlink:href="#lg5" y1="86" y2="126"/><linearGradient id="SVGID_13_" gradientTransform="matrix(-1 0 0 1 65 0)" gradientUnits="userSpaceOnUse" x1="-19.5" x2="-19.5" xlink:href="#lg4" y1="87.441" y2="126"/><linearGradient id="SVGID_14_" gradientTransform="matrix(-1 0 0 1 65 0)" gradientUnits="userSpaceOnUse" x1="-11.5" x2="-11.5" xlink:href="#lg5" y1="86" y2="126"/><linearGradient id="lg6"><stop offset="0" stop-color="#fff" stop-opacity=".1"/><stop offset="1" stop-color="#fff"/></linearGradient><linearGradient id="SVGID_15_" gradientUnits="userSpaceOnUse" x1="50" x2="50" xlink:href="#lg6" y1="33" y2="57"/><linearGradient id="SVGID_16_" gradientUnits="userSpaceOnUse" x1="78" x2="78" xlink:href="#lg6" y1="33" y2="57"/><linearGradient id="SVGID_17_" gradientUnits="userSpaceOnUse" x1="106" x2="106" y1="84" y2="126"><stop offset="0" stop-color="#f1f2f2"/><stop offset=".3323" stop-color="#eceded"/><stop offset="1" stop-color="#e6e7e8"/></linearGradient><g><g><path d="m42 62s-9.196-.129-11 9-3.22 16.075-11 20c0 0 3.125 1.013 7 1 6.759-.023 16.834-3.325 24-16 1.981-3.503 2.605-8.554 3-14z" fill="url(#SVGID_1_)"/><g><g><g><path d="m74 88-1-12h-18l-1 12c-27.901 0-28 38-28 38h76s-.099-38-28-38z" fill="url(#SVGID_2_)"/></g></g><path d="m67 126h-6l-3-16h12z" fill="url(#SVGID_3_)"/><g><g><path d="m42.546 45.443c1.262 4.333-.199 8.543-3.262 9.402-3.063.86-6.569-1.956-7.831-6.289s.199-8.543 3.262-9.402c3.064-.859 6.57 1.956 7.831 6.289z" fill="url(#SVGID_4_)"/><path d="m85.454 45.443c-1.262 4.333.199 8.543 3.262 9.402 3.063.86 6.569-1.956 7.831-6.289s-.199-8.543-3.262-9.402c-3.064-.859-6.57 1.956-7.831 6.289z" fill="url(#SVGID_5_)"/></g><path d="m42.321 46.105c.609 2.153-.383 4.298-2.217 4.793s-3.815-.85-4.424-3.002c-.609-2.153.383-4.298 2.217-4.793s3.814.849 4.424 3.002z" fill="url(#SVGID_6_)"/><path d="m85.679 46.105c-.609 2.153.383 4.298 2.217 4.793 1.834.494 3.815-.85 4.424-3.002.609-2.153-.383-4.298-2.217-4.793s-3.814.849-4.424 3.002z" fill="url(#SVGID_7_)"/></g><path d="m64 79c-10.818 0-26-15.7-26-30v-14c0-14.3 11.7-26 26-26 14.3 0 26 11.7 26 26v14c0 14.3-15.21 30-26 30z" fill="url(#SVGID_8_)"/><g fill="#51251f"><path d="m54.263 49h-.527c-.955 0-1.736-.781-1.736-1.737v-2.527c0-.955.781-1.736 1.737-1.736h.527c.955 0 1.736.781 1.736 1.737v2.527c0 .955-.781 1.736-1.737 1.736z"/><path d="m74.263 49h-.527c-.955 0-1.736-.781-1.736-1.737v-2.527c0-.955.781-1.736 1.737-1.736h.527c.955 0 1.736.781 1.736 1.737v2.527c0 .955-.781 1.736-1.737 1.736z"/></g><path d="m51 40.247c-.401 0-.78-.244-.934-.642-.198-.515.06-1.094.575-1.292 1.938-.745 4.964-.741 6.747.012.509.214.747.801.533 1.31-.215.509-.803.748-1.311.533-1.324-.559-3.779-.553-5.253.012-.117.046-.238.067-.357.067z" fill="#7a5954"/><path d="m71 40.247c-.401 0-.78-.244-.934-.642-.198-.515.06-1.094.575-1.292 1.938-.745 4.964-.741 6.747.012.509.214.747.801.533 1.31-.215.509-.803.748-1.311.533-1.324-.559-3.779-.553-5.253.012-.117.046-.238.067-.357.067z" fill="#7a5954"/><path d="m64 6c-6.794 0-33 4.567-33 39v3c17.393-3.62 39.866-17.166 47-22 4.066 11.846 10.875 19.024 19 21 0 0 0-1.283 0-2 0-34.433-26.206-39-33-39z" fill="url(#SVGID_9_)"/><path d="m64 106c2.447-4.342 6.898-7 12-7h-24c5.102 0 9.553 2.658 12 7z" fill="url(#SVGID_10_)"/><g><path d="m54 88c-3.434 0-6.443.581-9.087 1.59-18.832 7.194-18.913 36.41-18.913 36.41h35z" fill="url(#SVGID_11_)"/><g><path d="m45 89-3 21 8 4-5 5 2 7h14l-7-40z" fill="url(#SVGID_12_)"/></g></g><g><path d="m74 88c3.434 0 6.443.581 9.087 1.59 18.832 7.194 18.913 36.41 18.913 36.41h-35z" fill="url(#SVGID_13_)"/><g><path d="m83 89 3 21-8 4 5 5-2 7h-14l7-40z" fill="url(#SVGID_14_)"/></g></g></g><g><circle cx="50" cy="45" fill="url(#SVGID_15_)" r="12"/><circle cx="78" cy="45" fill="url(#SVGID_16_)" r="12"/><path d="m66 47h-4c-.553 0-1-.448-1-1s.447-1 1-1h4c.553 0 1 .448 1 1s-.447 1-1 1z" fill="#9e8582"/></g></g><g><path d="m89 84h34v42h-34z" fill="url(#SVGID_17_)"/><g fill="#bcbec0"><path d="m118 115h-24c-.553 0-1-.447-1-1s.447-1 1-1h24c.553 0 1 .447 1 1s-.447 1-1 1z"/><path d="m108 119h-14c-.553 0-1-.447-1-1s.447-1 1-1h14c.553 0 1 .447 1 1s-.447 1-1 1z"/><path d="m104 123h-10c-.553 0-1-.447-1-1s.447-1 1-1h10c.553 0 1 .447 1 1s-.447 1-1 1z"/><path d="m118 123h-10c-.553 0-1-.447-1-1s.447-1 1-1h10c.553 0 1 .447 1 1s-.447 1-1 1z"/></g><path d="m96 110c-.553 0-1-.447-1-1v-13c0-.553.447-1 1-1s1 .447 1 1v13c0 .553-.447 1-1 1z" fill="#ce444c"/><path d="m100 110c-.553 0-1-.447-1-1v-17c0-.553.447-1 1-1s1 .447 1 1v17c0 .553-.447 1-1 1z" fill="#ffb76a"/><path d="m104 110c-.553 0-1-.447-1-1v-12c0-.553.447-1 1-1s1 .447 1 1v12c0 .553-.447 1-1 1z" fill="#aab454"/><path d="m108 110c-.553 0-1-.447-1-1v-15c0-.553.447-1 1-1s1 .447 1 1v15c0 .553-.447 1-1 1z" fill="#50a8d2"/><path d="m112 110c-.553 0-1-.447-1-1v-16c0-.553.447-1 1-1s1 .447 1 1v16c0 .553-.447 1-1 1z" fill="#82d080"/><path d="m116 110c-.553 0-1-.447-1-1v-21c0-.553.447-1 1-1s1 .447 1 1v21c0 .553-.447 1-1 1z" fill="#9a86c3"/><path d="m118 111h-24c-.553 0-1-.447-1-1s.447-1 1-1h24c.553 0 1 .447 1 1s-.447 1-1 1z" fill="#6d6e71"/></g><g><path d="m64 66c-1.794 0-3.343-.484-4.604-1.44-.44-.333-.526-.961-.193-1.401s.96-.528 1.401-.193c.905.686 2.048 1.034 3.396 1.034s2.491-.348 3.396-1.035c.44-.333 1.068-.248 1.401.192s.248 1.067-.192 1.401c-1.261.957-2.81 1.442-4.605 1.442z" fill="#f09890"/></g></g></svg>