<svg id="Layer_3" enable-background="new 0 0 64 64" height="512" viewBox="0 0 64 64" width="512" xmlns="http://www.w3.org/2000/svg"><g><path d="m7 22v-9.757c0-5.657 4.586-10.243 10.243-10.243h7.515c2.716 0 5.321 1.079 7.242 3 2.761 0 5 2.239 5 5v12" fill="#976947"/><path d="m34 29h1c2.209 0 4-1.791 4-4 0-2.209-1.791-4-4-4" fill="#db9b7c"/><path d="m9 21c-2.209 0-4 1.791-4 4 0 2.209 1.791 4 4 4h1" fill="#db9b7c"/><path d="m52 40v6.262c-3.449.889-6 4.011-6 7.738 0 4.418 3.582 8 8 8s8-3.582 8-8c0-3.726-2.551-6.848-6-7.738v-6.262" fill="#c7e2fc"/><g fill="#f5b953"><path d="m54 62c2.959 0 5.537-1.611 6.921-4h-3.093c-1.811 0-3.548-.719-4.828-2s-3.017-2-4.828-2h-2.172c0 4.418 3.582 8 8 8z"/><circle cx="51" cy="34" r="2"/><circle cx="57" cy="27" r="3"/></g><path d="m15 38-8.765 2.697c-2.517.774-4.235 3.1-4.235 5.734v15.569h40v-15.569c0-2.634-1.718-4.96-4.235-5.735l-8.765-2.696" fill="#ebf7fe"/><path d="m28 47 5-1v-6.769l-4-1.231h-14l-4 1.231v6.769l5 1-2 2 8 13 8-13z" fill="#c7e2fc"/><path d="m15 38 7 17 7-17" fill="#59ac98"/><path d="m9 21c2.209 0 4-1.791 4-4v-1.93c0-1.696 1.375-3.07 3.07-3.07.606 0 1.199.179 1.703.516l.562.375c1.086.723 2.361 1.109 3.665 1.109 1.304 0 2.579-.386 3.664-1.109l.562-.375c.505-.337 1.097-.516 1.704-.516 1.696 0 3.07 1.375 3.07 3.07v1.93c0 2.209 1.791 4 4 4v6c0 7.18-5.82 13-13 13-7.18 0-13-5.82-13-13z" fill="#efbe9a"/><path d="m9 25c2.596 1.947 5.754 3 9 3 .64 0 1.254-.254 1.707-.707l.586-.586c.453-.453 1.067-.707 1.707-.707.64 0 1.254.254 1.707.707l.586.586c.453.453 1.067.707 1.707.707 3.246 0 6.404-1.053 9-3v-5h-26z" fill="#c7e2fc"/><g><path d="m8 50h2v12h-2z" fill="#c7e2fc"/></g><g><path d="m34 50h2v12h-2z" fill="#c7e2fc"/></g><g><path d="m22 36c-2.214 0-4.269-1.1-5.496-2.941l-.336-.504 1.664-1.109.336.504c.856 1.283 2.289 2.05 3.832 2.05s2.976-.767 3.832-2.051l.336-.504 1.664 1.109-.336.504c-1.227 1.842-3.282 2.942-5.496 2.942z" fill="#db9b7c"/></g><g><path d="m16.5 25c-.827 0-1.5-.673-1.5-1.5s.673-1.5 1.5-1.5 1.5.673 1.5 1.5-.673 1.5-1.5 1.5z" fill="#8892a0"/></g><g><path d="m27.5 25c-.827 0-1.5-.673-1.5-1.5s.673-1.5 1.5-1.5 1.5.673 1.5 1.5-.673 1.5-1.5 1.5z" fill="#8892a0"/></g></g></svg>