<svg id="icons" enable-background="new 0 0 64 64" height="512" viewBox="0 0 64 64" width="512" xmlns="http://www.w3.org/2000/svg"><g><g><g><path d="m25.024 20.488c-1.65 0-2.835-.502-3.406-1.492-1.638-2.836 2.733-7.338 7.896-10.32 2.643-1.525 5.357-2.59 7.645-2.994 3.362-.596 4.704.387 5.241 1.316 1.545 2.678-2.242 6.578-5.954 9.104-.456.314-1.078.193-1.389-.264-.312-.455-.193-1.078.264-1.389 4.192-2.854 5.822-5.627 5.347-6.451-.236-.41-1.306-.676-3.159-.348-2.064.365-4.548 1.346-6.994 2.758-5.205 3.006-7.759 6.559-7.164 7.588.282.49 1.844.869 4.985-.102.531-.162 1.088.133 1.251.662.162.527-.134 1.088-.661 1.25-1.481.458-2.796.682-3.902.682z" fill="#ccd1d9"/></g></g><g><g><path d="m23.429 12.004c-.306 0-.607-.141-.804-.404-1.704-2.293-1.488-3.768-1.007-4.602.956-1.652 3.618-1.945 7.308-.809.527.162.823.723.661 1.25-.164.527-.722.824-1.251.662-3.144-.971-4.703-.592-4.985-.104-.184.318-.063 1.139.88 2.408.329.443.237 1.07-.206 1.4-.18.134-.389.199-.596.199z" fill="#ccd1d9"/></g><g><path d="m39.022 20.5c-2.642 0-6.258-1.303-9.509-3.18-.685-.396-1.349-.813-1.974-1.24-.456-.311-.574-.934-.263-1.389.312-.457.935-.572 1.39-.264.584.398 1.206.789 1.847 1.16 5.206 3.004 9.559 3.439 10.153 2.41.184-.316.064-1.137-.873-2.4-.329-.443-.236-1.07.207-1.398.442-.33 1.07-.238 1.398.207 1.696 2.287 1.48 3.76 1 4.592-.605 1.051-1.822 1.502-3.376 1.502z" fill="#ccd1d9"/></g></g><g><path d="m12 46 1-1-3 7-3-7 1 1 2-1z" fill="#5d9cec"/><path d="m13 42.322v2.678l-1 1-2-1-2 1-1-1v-2.678l.01-.012c.91.441 1.92.682 2.99.682 1.08 0 2.09-.24 3-.682z" fill="#87bcf4"/><path d="m9.5 24.002c2.18 0 4.14.92 5.5 2.4l-2 4.068c-1.87.391-4.19 2.34-10 1.66-.32-.039-.65-.08-1-.139v-.49c0-4.149 3.36-7.499 7.5-7.499z" fill="#ffce54"/><path d="m17 31.502v1.369c-1.72-2.25-2.76-2.66-4-2.4l2-4.068c1.24 1.339 2 3.118 2 5.099z" fill="#f6bb42"/><path d="m36 50.061v2.939l-2 2-2-1-2 1-2-2v-2.939c1.2.599 2.57.939 4 .939s2.8-.34 4-.939z" fill="#87bcf4"/><path d="m19 48v4h-9l3-7h3c1.66 0 3 1.34 3 3z" fill="#e6e9ed"/><path d="m16 45h-3c1.659.002 2.997 1.342 2.997 3v4h3.003v-4c0-1.66-1.34-3-3-3z" fill="#ccd1d9"/><path d="m57 42.322v2.678l-1 1-2-1-2 1-1-1v-2.678l.01-.012c.91.441 1.92.682 2.99.682 1.08 0 2.09-.24 3-.682z" fill="#ec87c0"/><path d="m51 45 3 7h-9v-4c0-1.66 1.34-3 3-3z" fill="#e6e9ed"/><path d="m28 53 4 10h-11c-.55 0-1-.451-1-1v-4c0-2.76 2.24-5 5-5z" fill="#e6e9ed"/><path d="m54 45 2 1 1-1-3 7-3-7 1 1z" fill="#d770ad"/><path d="m30.5 42v1.5h-4.5v-3h4.5z" fill="#5d9cec"/><path d="m50 24.992v5c0 1.66-1.34 3-3 3v-5c0-1.66 1.34-3 3-3z" fill="#e9573f"/><path d="m41 36v3.02l-3-2.02s-2 1-5.5 1c-3.49 0-6.5-1-6.5-1l-3 2.02v-3.02c0-4.43 3.58-8 8-8h6v4c2.21 0 4 1.781 4 4z" fill="#965353"/><path d="m37 35c.561 0 1 .439 1 1v1l3 2.02v-3.02c0-2.219-1.79-4-4-4v-4h-3v4c0 1.658 1.343 3 3 3z" fill="#844747"/><path d="m44 58v4c0 .549-.44 1-1 1h-11l4-10h3c2.77 0 5 2.24 5 5z" fill="#e6e9ed"/><path d="m39 53h-3c2.769.002 4.997 2.24 4.997 5v4c0 .549-.44 1-1 1h3.003c.56 0 1-.451 1-1v-4c0-2.76-2.23-5-5-5z" fill="#ccd1d9"/><path d="m55 32.992c2.39 0 4.54 1.049 6 2.709v.291.01c0 2.789-1.64 5.199-4 6.309-.91.441-1.92.682-3 .682-1.07 0-2.08-.24-2.99-.682-2.37-1.109-4.01-3.52-4.01-6.309v-.01-3c1.66 0 3-1.34 3-3 0 1.66 1.34 3 3 3z" fill="#eac6bb"/><path d="m57.997 33.584v2.408.01c0 2.789-1.64 5.199-4 6.309-.473.229-.973.4-1.494.516.482.107.982.166 1.497.166 1.08 0 2.09-.24 3-.682 2.36-1.109 4-3.52 4-6.309v-.01-.291c-.812-.922-1.842-1.646-3.003-2.117z" fill="#d3b1a9"/><path d="m30.5 42v-1.5h-4.5v3h4.5zm7.5 1.5v-3h-4.5v1.5 1.5zm3-1.5c0 3.531-2.04 6.59-5 8.061-1.2.599-2.57.939-4 .939s-2.8-.34-4-.939c-2.95-1.461-4.98-4.5-5-8.01v-.051-2.98l3-2.02s3.01 1 6.5 1c3.5 0 5.5-1 5.5-1l3 2.02z" fill="#eac6bb"/><g><path d="m38 37-.003.002v3.498h.003v3h-.141c-.485 2.881-2.332 5.303-4.862 6.561-.771.385-1.616.648-2.499.799.491.083.99.14 1.502.14 1.43 0 2.8-.34 4-.939 2.96-1.471 5-4.529 5-8.061v-2.98z" fill="#d3b1a9"/></g><path d="m34 55 2-2-4 10-4-10 2 2 2-1z" fill="#5d9cec"/><path d="m63 48v4h-9l3-7h3c1.66 0 3 1.34 3 3z" fill="#e6e9ed"/><path d="m60 45h-3c1.659.002 2.997 1.342 2.997 3v4h3.003v-4c0-1.66-1.34-3-3-3z" fill="#ccd1d9"/><path d="m61 35.701c-1.46-1.66-3.61-2.709-6-2.709h-2c-1.66 0-3-1.34-3-3v-5c1.37-1.102 3.11-2 5-2 4.42 0 8 3.58 8 8v10c0-2.031-.75-3.881-2-5.291z" fill="#fc6e51"/><path d="m55 22.992c-.477 0-.944.057-1.398.16 3.65.744 6.396 3.969 6.396 7.84v3.764c.359.289.699.6 1.003.945 1.25 1.41 2 3.26 2 5.291v-10c-.001-4.42-3.581-8-8.001-8z" fill="#e9573f"/><path d="m17 35.992v.01c0 2.789-1.64 5.199-4 6.309-.91.441-1.92.682-3 .682-1.07 0-2.08-.24-2.99-.682-2.37-1.11-4.01-3.52-4.01-6.309v-.01-3.861c5.81.68 8.13-1.27 10-1.66 1.24-.26 2.28.15 4 2.4z" fill="#eac6bb"/><path d="m13.997 30.441v5.551.01c0 2.789-1.64 5.199-4 6.309-.473.229-.973.4-1.494.516.482.107.982.166 1.497.166 1.08 0 2.09-.24 3-.682 2.36-1.109 4-3.52 4-6.309v-.01-3.121c-1.246-1.631-2.136-2.287-3.003-2.43z" fill="#d3b1a9"/><path d="m38 40.5v3h-4.5v-1.5-1.5z" fill="#5d9cec"/><path d="m7 45 3 7h-9v-4c0-1.66 1.34-3 3-3z" fill="#e6e9ed"/></g><g><path d="m33.497 43.004h-2.998c-.553 0-1-.447-1-1s.447-1 1-1h2.998c.553 0 1 .447 1 1s-.447 1-1 1z" fill="#545c66"/></g><g><g><path d="m32.01 24.996c-3.276 0-4.99-6.035-4.99-11.998 0-5.961 1.713-11.998 4.99-11.998s4.99 6.037 4.99 11.998c0 5.963-1.714 11.998-4.99 11.998zm0-21.996c-1.19 0-2.99 3.988-2.99 9.998 0 6.012 1.8 9.998 2.99 9.998s2.99-3.986 2.99-9.998c0-6.01-1.8-9.998-2.99-9.998z" fill="#e6e9ed"/></g></g><g><path d="m32.04 14.494c-.827 0-1.503-.668-1.503-1.496 0-.826.661-1.496 1.487-1.496h.016c.826 0 1.497.67 1.497 1.496 0 .828-.671 1.496-1.497 1.496z" fill="#ed5565"/></g><g><path d="m30.498 44.504h-4.501c-.553 0-1-.447-1-1v-3.002c0-.553.447-1 1-1h4.501c.553 0 1 .447 1 1v3.002c0 .553-.447 1-1 1zm-3.501-2h2.501v-1.002h-2.501z" fill="#656d78"/></g><g><path d="m37.999 44.504h-4.501c-.553 0-1-.447-1-1v-3.002c0-.553.447-1 1-1h4.501c.553 0 1 .447 1 1v3.002c0 .553-.447 1-1 1zm-3.501-2h2.501v-1.002h-2.501z" fill="#656d78"/></g></g></svg>