<svg id="Flat" height="512" viewBox="0 0 64 64" width="512" xmlns="http://www.w3.org/2000/svg"><g id="Color"><path d="m48.47 11.212a7.947 7.947 0 0 0 -3.629 4.537 17.781 17.781 0 0 1 -6.081 9.036l-.647.489 3 5.2 7.827-4.519a11.881 11.881 0 0 1 3.117-1.177 17.886 17.886 0 0 0 6.816-3.865 5.8 5.8 0 0 0 1.507-7.063c-2.117-4.006-8.015-4.887-11.91-2.638z" fill="#bbefc1"/><path d="m60.38 13.85a6.786 6.786 0 0 0 -2.807-2.775 5.931 5.931 0 0 1 -2.036 5.508 17.87 17.87 0 0 1 -6.8 3.855 8.972 8.972 0 0 1 -6.275.378 16.2 16.2 0 0 1 -3.7 3.969l-.647.489 3 5.2 7.827-4.519a11.9 11.9 0 0 1 3.117-1.177 17.886 17.886 0 0 0 6.816-3.865 5.8 5.8 0 0 0 1.505-7.063z" fill="#95d5b2"/><circle cx="51.836" cy="15.042" fill="#48cae4" r="2"/><path d="m30.823 34.318a14.979 14.979 0 0 1 -.007 12.607l-1.35 2.907a1.29 1.29 0 0 0 1.207 1.833 7.418 7.418 0 0 0 5.527-2.719l.523-.641a22.192 22.192 0 0 0 2.956-23.371z" fill="#52b788"/><path d="m31.5 33.6-.674.714a14.979 14.979 0 0 1 -.007 12.607l-1.178 2.537c.209-.116.419-.224.629-.345a35.071 35.071 0 0 0 4.034-2.71 1.819 1.819 0 0 1 2.926 1.239 22.177 22.177 0 0 0 3.3-20.563z" fill="#40916c"/><ellipse cx="27.767" cy="41.055" fill="#edb88e" rx="16" ry="7" transform="matrix(.866 -.5 .5 .866 -16.808 19.384)"/><path d="m41.623 33.055c-1.933-3.348-9.7-2.48-17.356 1.938s-12.29 10.714-10.357 14.062c.726 1.257 2.273 1.919 4.328 2.023.021-.1.053-.192.073-.29a4.455 4.455 0 0 1 2.636-3.216 67.415 67.415 0 0 0 7.32-3.651q1.4-.806 2.723-1.662a4.5 4.5 0 0 1 5.857.854c4.126-3.678 6.173-7.638 4.776-10.058z" fill="#da9367"/><path d="m34.783 36.744a16.462 16.462 0 0 1 3.178 13.483l-.709 3.449a1.418 1.418 0 0 0 1.755 1.655 8.153 8.153 0 0 0 5.224-4.3l.4-.817a24.382 24.382 0 0 0 -2.747-25.736z" fill="#bbefc1"/><path d="m37.961 50.227-.709 3.449a1.418 1.418 0 0 0 1.755 1.655 8.153 8.153 0 0 0 5.224-4.3l.4-.817c.2-.411.378-.829.553-1.247a2.964 2.964 0 0 1 -2.61-3.5 24.362 24.362 0 0 0 .467-6.216 10.493 10.493 0 0 1 2.721-7.624 24.326 24.326 0 0 0 -3.878-7.148l-7.1 12.271a16.462 16.462 0 0 1 3.177 13.477z" fill="#95d5b2"/><path d="m41.525 38.885c.55.953-.741 2.737-2.9 3.982-.243.14-.49.272-.734.389a16.577 16.577 0 0 0 -1.379-3.788l.113-.065c2.159-1.245 4.35-1.47 4.9-.518z" fill="#52b788"/><path d="m42.427 46.448c.55.952-.741 2.737-2.9 3.982a9.08 9.08 0 0 1 -1.78.8l.209-1a15.917 15.917 0 0 0 .344-3.66c1.886-.884 3.642-.963 4.127-.122z" fill="#52b788"/><path d="m9.394 43.659a11.612 11.612 0 0 1 -4.137 8.852l-1.9 1.6a1 1 0 0 0 .243 1.682 5.746 5.746 0 0 0 4.774-.1l.577-.278a17.2 17.2 0 0 0 9.734-15.444z" fill="#52b788"/><path d="m18.689 39.972-9.295 3.687a11.613 11.613 0 0 1 -3.181 7.947c.177-.029.35-.05.528-.081a1.739 1.739 0 0 1 2.032 1.965 11.638 11.638 0 0 1 -.658 2.31c.087-.037.177-.068.263-.11l.577-.278a17.2 17.2 0 0 0 9.734-15.44z" fill="#40916c"/><path d="m9.812 47.957a11.61 11.61 0 0 1 -2.8 9.359l-1.653 1.859a1 1 0 0 0 .49 1.629 5.747 5.747 0 0 0 4.709-.791l.53-.36a17.2 17.2 0 0 0 7.384-16.7z" fill="#bbefc1"/><path d="m18.472 42.957-8.66 5a11.61 11.61 0 0 1 -2.8 9.359l-1.653 1.859a1 1 0 0 0 .49 1.629 5.747 5.747 0 0 0 4.709-.791l.53-.36c.25-.169.489-.35.728-.531a2.944 2.944 0 0 1 .257-3.241 17.2 17.2 0 0 0 2.248-3.874 5.55 5.55 0 0 1 3.239-3.095c.259-.094.52-.2.779-.3a17.158 17.158 0 0 0 .133-5.654z" fill="#95d5b2"/><path d="m12.845 54.289c0 1.107-1.789 2-4 2a6.885 6.885 0 0 1 -.985-.066 11.321 11.321 0 0 0 1.74-3.894c1.851.171 3.244.979 3.245 1.96z" fill="#52b788"/><path d="m28.267 41.921a60.92 60.92 0 0 0 17.9-15.3c-7.242-5.1-17.836-5.524-26.9-.289s-13.995 14.623-13.202 23.444a60.913 60.913 0 0 0 22.202-7.855z" fill="#fcf2ad"/><path d="m46.17 26.62a60.775 60.775 0 0 1 -17.9 15.3 60.9 60.9 0 0 1 -22.2 7.86 23.312 23.312 0 0 1 4.3-15.3 28.31 28.31 0 0 0 6.56.65c9.47-.17 17.61-4.96 21.73-11.86a21.788 21.788 0 0 1 7.51 3.35z" fill="#f9dbaf"/><path d="m28.1 23.047-.027.374a7.008 7.008 0 0 1 -3.489 5.617l-5.629 3.25a7.009 7.009 0 0 1 -6.609.213l-.337-.164a28.285 28.285 0 0 1 16.091-9.29z" fill="#edb88e"/><path d="m11.37 36.484a19.278 19.278 0 0 1 -2.05-.384 24.343 24.343 0 0 0 -2.985 7.9l4.265-.4a.992.992 0 0 0 .891-.843l.763-5.143a1 1 0 0 0 -.884-1.13z" fill="#da9367"/><path d="m38.558 27.459 2.47-3.494a24.329 24.329 0 0 0 -8.325-1.36 19.246 19.246 0 0 1 -.7 1.966 1 1 0 0 0 .542 1.328l4.834 1.91a.993.993 0 0 0 1.179-.35z" fill="#edb88e"/><path d="m30.125 29.242a.992.992 0 0 0 -1.131.3 19.188 19.188 0 0 1 -3.468 3.289c-.046.034-.094.064-.14.1l2.248 3.9a1 1 0 0 0 1.421.329q1.416-.98 2.733-2.094a34 34 0 0 0 2.742-2.6 1 1 0 0 0 -.348-1.618z" fill="#edb88e"/><path d="m21.922 34.931c-.052.024-.1.05-.155.073a19.391 19.391 0 0 1 -4.583 1.357.991.991 0 0 0 -.827.828l-.64 4.317a1 1 0 0 0 1.226 1.111 34.432 34.432 0 0 0 3.622-1.076c1.082-.387 2.142-.83 3.18-1.32a1 1 0 0 0 .425-1.395z" fill="#da9367"/><path d="m41.03 23.96-2.47 3.5a1 1 0 0 1 -1.18.35l-1.67-.66a22.836 22.836 0 0 0 2.95-3.88 23.1 23.1 0 0 1 2.37.69z" fill="#da9367"/><path d="m34.53 32.46a33.579 33.579 0 0 1 -2.74 2.6 34.026 34.026 0 0 1 -2.73 2.09 1 1 0 0 1 -1.43-.32l-1.88-3.28a25.73 25.73 0 0 0 6.58-3.44l1.85.74a.99.99 0 0 1 .35 1.61z" fill="#da9367"/><circle cx="36" cy="12" fill="#ade8f4" r="2"/><circle cx="55" cy="34" fill="#ade8f4" r="2"/><circle cx="43" cy="5" fill="#ade8f4" r="2"/><path d="m56 35a1.992 1.992 0 0 1 -1.82-2.82 2 2 0 1 0 2.64 2.64 1.99 1.99 0 0 1 -.82.18z" fill="#48cae4"/><path d="m37 13a1.992 1.992 0 0 1 -1.82-2.82 2 2 0 1 0 2.64 2.64 1.99 1.99 0 0 1 -.82.18z" fill="#48cae4"/><path d="m44 6a1.992 1.992 0 0 1 -1.82-2.82 2 2 0 1 0 2.64 2.64 1.99 1.99 0 0 1 -.82.18z" fill="#48cae4"/><circle cx="52" cy="15" fill="#0096c7" r="1"/><path d="m60.347 16.535a6.583 6.583 0 0 0 -5.03 1.843 4.57 4.57 0 0 1 -2.286 1.2l-1.5.31a1 1 0 1 0 .4 1.959l1.492-.309a6.57 6.57 0 0 0 3.277-1.718 4.578 4.578 0 0 1 3.51-1.29l.356.025a5.857 5.857 0 0 0 .42-1.966c-.018 0-.032-.012-.05-.013z" fill="#52b788"/><circle cx="47.773" cy="22.006" fill="#52b788" r="1"/><circle cx="46.639" cy="18.042" fill="#95d5b2" r="1"/><circle cx="43.675" cy="22.908" fill="#52b788" r="1"/><circle cx="42.623" cy="34.787" fill="#52b788" r="1"/><circle cx="44.525" cy="42.349" fill="#95d5b2" r="1"/><circle cx="45.489" cy="37.751" fill="#95d5b2" r="1"/><circle cx="13.91" cy="50.787" fill="#52b788" r="1"/><g fill="#ade8f4"><circle cx="30" cy="8" r="1"/><circle cx="21" cy="6" r="1"/><circle cx="59" cy="29" r="1"/><circle cx="27" cy="4" r="1"/><circle cx="35" cy="4" r="1"/></g></g></svg>