<svg id="Capa_1" enable-background="new 0 0 512.005 512.005" viewBox="0 0 512.005 512.005" xmlns="http://www.w3.org/2000/svg"><g><g><path d="m124.56 275.184s26.841 70.413.734 88.487c-13.206 9.143-42.231 24.171-53.074 34.93-6.961 6.908-2.073 18.783 7.734 18.808l52.084.128c17.798.044 35.366-4.091 51.219-12.18 25.815-13.173 60.621-38.436 73.843-82.561z" fill="#2f7580"/><g><path d="m452.395 294.379c-52.779-61.399-179.909-39.348-224.829-111.485-39.248-49.519-1.25-104.155-31.135-145.334-14.875-16.925-24.418-30.06-85.248-30.06-8.214 1.46-40.386-4.367-45.043 5.648-2.957 4.435-2.825 10.246.329 14.543 61.25 73.959 10.51 58.281 7.491 140.41-5.01 54.932-.666 85.087 20.404 136.094 43.695 117.376 173.75 79.827 269.625 85.665-2.241 5.75-6.262 10.745-11.651 14.051-27.186 17.733-60.696 18.577-91.6 12.057-19.096-.146-6.166 30.658 4.292 40.423 2.622 2.506 3.391 6.38 1.875 9.673-6.169 12.581-7.031 46.578 11.556 36.449 21.492-18.327 46.879-41.929 75.924-46.066 59.315-4.444 112.002-15.597 118.061-87.1l.011-.005c.248-4.693.331-13.286.522-18.092.607-20.871-6.704-41.27-20.584-56.871z" fill="#2f7580"/></g><g><g><path d="m452.395 294.379c-52.779-61.399-179.909-39.348-224.829-111.485-39.248-49.519-1.25-104.155-31.135-145.334-14.448-16.44-23.871-29.302-80.145-30.026 20.839 5.476 28.274 15.351 37.968 26.915 29.885 43.17-8.113 112.448 31.135 164.362 44.92 75.625 172.05 52.508 224.829 116.876 13.88 16.356 21.191 37.741 20.584 59.624-.191 5.038-.274 14.047-.522 18.966l-.011.005c-1.855 22.947-8.085 39.957-17.531 52.659 32.238-10.239 55.779-31.223 59.708-77.592l.011-.005c.248-4.693.331-13.286.522-18.092.607-20.873-6.704-41.272-20.584-56.873z" fill="#245d66"/></g><g><path d="m271.233 504.294c1.987.286 4.378-.226 7.228-1.779 3.564-3.039 7.237-6.224 11.014-9.44-6.282 3.128-12.365 6.97-18.242 11.219z" fill="#245d66"/></g></g></g><g><path d="m458.514 289.98-.501-.57c-3.4-3.843-7.08-7.508-10.938-10.891-3.115-2.731-7.853-2.42-10.584.695-2.731 3.114-2.42 7.853.694 10.584 3.384 2.967 6.612 6.181 9.593 9.551l.444.505c12.321 14.1 18.806 32.277 18.26 51.182l-.307 10.619c-.001.046.003.091.003.137s-.006.092-.006.138c.327 41.709-25.864 75.535-62.276 80.429l-49.511 6.656c-.15.02-.299.045-.448.074-19.018 3.739-36.933 12.284-51.807 24.711l-27.478 22.958c-.289.241-.62.304-.984.186-.491-.16-.578-.506-.61-.636-1.741-6.942-2.866-17.28 1.659-27.105 2.846-6.181 1.438-13.507-3.504-18.231-8.333-7.966-10.976-18.794-11.726-26.474-.032-.334.072-.619.312-.847.233-.221.514-.309.832-.261l18.945 2.828c26.928 4.017 54.521-1.636 77.692-15.917l.209-.129c10.346-6.45 16.717-17.725 17.042-30.16l.526-20.143c.108-4.141-3.161-7.585-7.302-7.693-4.135-.104-7.585 3.161-7.693 7.302l-.526 20.142c-.024.927-.105 1.844-.238 2.744h-129.46c14.962-14.464 28.22-33.251 35.46-57.413 1.189-3.968-1.064-8.148-5.032-9.337-3.971-1.19-8.148 1.064-9.337 5.031-12.361 41.252-44.926 65.204-70.067 78.033-14.571 7.435-31.002 11.361-47.536 11.361-.085 0-.171 0-.256 0l-52.084-.128c-2.119-.005-2.971-1.525-3.239-2.178-.267-.65-.726-2.322.769-3.805 6.388-6.338 20.716-14.9 33.358-22.454 7.128-4.259 13.861-8.282 18.702-11.634 13.441-9.306 17.662-28.978 12.543-58.47-3.53-20.341-10.254-38.108-10.538-38.854-1.476-3.87-5.806-5.809-9.677-4.336-3.87 1.474-5.813 5.806-4.341 9.677 7.257 19.076 14.407 48.94 10.651 66.895-11.796-12.306-20.988-27.051-26.786-43.1l-12.223-33.831c-7.299-20.205-10.486-41.329-9.471-62.786l1.243-26.289c.196-4.137-3-7.65-7.137-7.846-4.15-.193-7.65 3-7.846 7.137l-1.243 26.289c-1.109 23.441 2.372 46.519 10.347 68.592l12.223 33.831c6.972 19.297 18.313 36.915 32.937 51.287-4.397 2.981-10.555 6.665-17.077 10.562-13.378 7.994-28.542 17.055-36.229 24.683-5.332 5.291-6.933 13.2-4.08 20.149 2.856 6.957 9.56 11.463 17.078 11.482l52.084.128h.293c18.892 0 37.683-4.493 54.354-13 7.759-3.959 16.163-8.894 24.548-14.959.537.138 137.446.283 137.446.283-.041.026-.08.055-.122.081l-.136.085c-20.169 12.43-44.181 17.349-67.613 13.854l-18.945-2.827c-4.906-.734-9.784.807-13.379 4.224-3.602 3.424-5.391 8.227-4.907 13.177.997 10.208 4.632 24.715 16.289 35.859.32.305.416.743.244 1.115-6.351 13.791-4.91 27.747-2.583 37.027 1.339 5.339 5.271 9.545 10.519 11.253 1.645.535 3.329.797 4.998.797 3.693 0 7.31-1.284 10.244-3.736l27.478-22.958c12.887-10.767 28.396-18.185 44.864-21.461l49.282-6.625c21.721-2.92 41.268-14.49 55.04-32.579 13.178-17.308 20.355-39.513 20.234-62.553 0-.002 0-.004 0-.006l.307-10.619c.654-22.698-7.144-44.534-21.963-61.492z"/><path d="m119.16 38.773v5.892c0 4.142 3.358 7.5 7.5 7.5s7.5-3.358 7.5-7.5v-5.892c0-4.142-3.358-7.5-7.5-7.5s-7.5 3.358-7.5 7.5z"/><path d="m68.232 79.957 12.695-19.899 2.377 3.237c6.86 9.345 7.833 21.556 2.537 31.868-7.086 13.8-12.336 28.488-15.602 43.656-.872 4.049 1.704 8.039 5.753 8.911 4.052.873 8.039-1.704 8.911-5.753 2.989-13.884 7.794-27.329 14.281-39.961 7.909-15.402 6.457-33.64-3.79-47.597l-19.656-26.776c-.01-.014-.021-.028-.031-.042l-3.192-4.348c-1.284-1.749-1.338-4.138-.135-5.944.964-1.446 2.577-2.309 4.314-2.309h34.489c55.538 0 65.055 10.878 78.228 25.933l1.382 1.577c9.545 10.864 13.206 33.006 9.791 59.23-3.871 29.723 3.511 60.045 20.786 85.378 16.2 23.758 40.33 41.256 67.945 49.272l107.172 31.11c4.005 1.163 7.983 2.575 11.824 4.198.953.403 1.943.594 2.917.594 2.923 0 5.702-1.72 6.912-4.582 1.613-3.815-.173-8.216-3.988-9.828-4.379-1.851-8.915-3.462-13.482-4.787l-107.172-31.109c-24.278-7.047-45.491-22.431-59.733-43.318-15.198-22.289-21.699-48.921-18.305-74.99 1.746-13.407 1.811-26.473.188-37.784-2.028-14.133-6.599-25.332-13.585-33.284l-1.362-1.554c-16.848-19.255-30.185-31.056-89.518-31.056h-34.489c-6.764 0-13.043 3.36-16.795 8.988-3.86 5.79-4.389 13.116-1.666 19.327l-21.783 7.85c-3.897 1.404-5.917 5.702-4.513 9.598 1.102 3.057 3.983 4.959 7.056 4.959.844 0 1.703-.144 2.542-.446l25.473-9.179 4.4 5.993-15.821 24.799c-2.228 3.492-1.203 8.129 2.289 10.356 1.25.798 2.646 1.178 4.026 1.178 2.476.001 4.9-1.224 6.33-3.466z"/></g></g><g/><g/><g/><g/><g/><g/><g/><g/><g/><g/><g/><g/><g/><g/><g/></svg>