<svg id="Capa_1" enable-background="new 0 0 497.014 497.014" height="512" viewBox="0 0 497.014 497.014" width="512" xmlns="http://www.w3.org/2000/svg"><g><path d="m482.007 0c-4.49 0-8.51 1.97-11.26 5.09-1.45 1.65-3.07 3.09-4.82 4.33l-133.9 140.6h30c74.55-.01 134.99-60.46 134.98-135.02 0-8.28-6.72-15-15-15z" fill="#0ea94c"/><path d="m467.007 15.02c0 74.55-60.44 134.99-134.98 135h-62.22c-16.57 0-30 30-30 30l-29.99 29.8-.01-59.79c0-74.56 60.43-135 134.99-135.01l103.06-.01c6.48 0 12.86-1.91 18.07-5.59.69 1.73 1.08 3.61 1.08 5.6z" fill="#5bbb4d"/><path d="m239.807 180.03.01 49.01c0 16.02-6.24 31.09-17.57 42.42-11.33 11.34-26.4 17.58-42.43 17.58h-31.4l-.26-30h31.66c16.57 0 30-13.43 30-30v-19.22c.11-16.47 13.49-29.8 29.99-29.79z" fill="#a9d656"/><path d="m149.237 213.51c-11.2-8.45-23.77-13-36.63-14.17v148.68h40.41c0-10.11 3.07-18.09 10.96-27.96 26.29-32.73 18.79-81.27-14.74-106.55z" fill="#ffeb6b"/><path d="m112.607 199.34c-25.64-2.36-52.41 8.69-71.62 29.01-29.58 31.27-40.98 76.1-40.98 119.67l138.67-44.58c7.09-11.4 11.13-24.9 11.13-39.32 0-27.63-14.95-51.78-37.2-64.78z" fill="#fff1b8"/><path d="m163.977 375.98c-7.89-9.87-10.96-17.85-10.96-27.96 0-16.63-5.32-32.03-14.34-44.58h-75l48.93 193.26c12.86-1.17 25.43-5.72 36.63-14.17 33.53-25.28 41.03-73.82 14.74-106.55z" fill="#b36444"/><path d="m136.567 389.39c8.39 12.05 13.24 26.73 13.24 42.53 0 27.63-14.95 51.78-37.2 64.78-25.64 2.36-52.41-8.69-71.62-29.01-29.58-31.27-40.98-76.1-40.98-119.67 0-42.25 34.25-76.5 76.5-76.5 25.61 0 48.29 12.59 62.17 31.92-.67 1.09-1.38 2.16-2.11 3.21-9.28 13.33-13.56 26.27-13.56 41.37s4.28 28.04 13.56 41.37z" fill="#c7734f"/></g></svg>