<svg id="flat" height="512" viewBox="0 0 340 340" width="512" xmlns="http://www.w3.org/2000/svg"><path d="m135.91 77.417a190.371 190.371 0 0 1 -47.1.861c-21.308-2.391-38.171.649-52.086 6.5a11.326 11.326 0 0 0 -4.889 16.8c2.384 3.526 5.064 7.779 7.637 12.472l14.4-9.163a.829.829 0 0 1 1.128 1.168l-8.9 13.031a7.669 7.669 0 0 0 -.739 7.229c3.271 8.041 5.51 16.589 5.253 24.627z" fill="#485a75"/><path d="m286.259 130.326-8.65 7.631-4.3-7.572 11.742-2.466a1.393 1.393 0 0 1 1.208 2.407z" fill="#b8c9d8"/><path d="m277.832 118.366-6.324 9.646-6.149-6.166 10.672-5.483a1.393 1.393 0 0 1 1.801 2.003z" fill="#b8c9d8"/><path d="m267.527 109.69-3.187 11.085-7.7-4.07 8.572-8.395a1.393 1.393 0 0 1 2.315 1.38z" fill="#b8c9d8"/><path d="m257.338 104.259-2.432 11.275-7.955-3.542 7.986-8.954a1.393 1.393 0 0 1 2.401 1.221z" fill="#b8c9d8"/><path d="m243.778 99.762 1.008 11.49-8.646-1.033 4.983-10.914a1.393 1.393 0 0 1 2.655.457z" fill="#b8c9d8"/><path d="m133.687 205.592s-21.322 20.008-10.857 39.914a26.811 26.811 0 0 0 17.6 13.363 136.738 136.738 0 0 0 31.72 3.442 21.7 21.7 0 0 0 17.663-9c8.681-12.1 26.974-33.765 52.152-43.188a181.353 181.353 0 0 0 27.235-12.512c7.285-4.216 15.757 3.157 12.7 11a40.194 40.194 0 0 1 -13.51 18.235c-19.243 14.073-40.5 32.167-40.5 52.846 0 0-1.528 23.122 16.923 37.412a6.086 6.086 0 0 1 -3.7 10.878c-17.514.221-43.236-5.587-61.758-36.227a119.55 119.55 0 0 1 -22 5.305l-34-3.582-24.133-49.978s10.119-34.688 34.465-37.908z" fill="#485a75"/><path d="m154.633 197.47s2.463 12.3-.973 30.806a4.592 4.592 0 0 0 3.136 5.2 4.591 4.591 0 0 0 4.407-.9c5.786-5.025 22.015-21.264 22.958-46.016z" fill="#a8c1e5"/><path d="m216.223 105.719s27.5-12.512 58.384-29.5a34.7 34.7 0 0 0 16.127-19.064 86.229 86.229 0 0 1 15.766-27.673 15.2 15.2 0 0 0 3.638-9.836 7.629 7.629 0 0 0 -8.737-7.552c-24.155 3.531-96.167 17.745-187.988 69.777 0 0-78.76 45.4-81.855 129.316s83.606 87.122 83.606 87.122l-20.672-73.021 69.473-68.441z" fill="#798eb7"/><path d="m216.223 105.719s-81.669 35.725-124.736 82.152c0 0-15.893 47.132-15.875 62.2.043 35.807 32.675 54.567 81.737 46.984 0 0-18.7-3.074-32.356-16.619-18.231-18.086-16.169-47.936 3.592-64.337a62.077 62.077 0 0 1 11.889-7.713 68.226 68.226 0 0 1 13.867-5.044c10.718-2.712 43.319-12.078 70.716-31.593a255.339 255.339 0 0 1 53.819-30.841 2.33 2.33 0 0 0 1.221-3.185c-3.84-7.846-19.615-32.977-63.874-32.004z" fill="#e1ebff"/><g fill="#485a75"><path d="m192.963 97.984c-4.249-8.947-6.27-19.006-6.563-29.928a1.414 1.414 0 0 0 -2.736-.449 55.314 55.314 0 0 0 -2.656 9.6 21.038 21.038 0 0 0 3.958 16.393 35.833 35.833 0 0 0 5.808 6.066 1.419 1.419 0 0 0 2.189-1.682z"/><path d="m177.85 105.342c-4.249-8.947-6.27-19.006-6.563-29.928a1.414 1.414 0 0 0 -2.736-.449 55.314 55.314 0 0 0 -2.656 9.6 21.038 21.038 0 0 0 3.958 16.394 35.72 35.72 0 0 0 5.808 6.066 1.419 1.419 0 0 0 2.189-1.683z"/><path d="m163.212 112.168c-4.249-8.947-6.27-19.006-6.563-29.928a1.414 1.414 0 0 0 -2.736-.449 55.314 55.314 0 0 0 -2.656 9.6 21.038 21.038 0 0 0 3.958 16.394 35.718 35.718 0 0 0 5.808 6.066 1.419 1.419 0 0 0 2.189-1.683z"/><path d="m282.539 41.775a3.464 3.464 0 0 1 -2.442-5.922l2.594-2.577a3.464 3.464 0 1 1 4.883 4.916l-2.594 2.577a3.455 3.455 0 0 1 -2.441 1.006z"/><circle cx="242.799" cy="49.93" r="5.01"/></g><path d="m157.349 297.06s-18.7-3.074-32.356-16.619c-18.231-18.086-16.169-47.936 3.592-64.337a61.779 61.779 0 0 1 10.946-7.224s-16.37 4.894-24.36-3.964c-9-9.979 6.742-23.688 6.742-23.688l-12.9-10.043a210.429 210.429 0 0 0 -17.523 16.686c-14.772 15.924-23.13 36.936-22.37 58.643a82.367 82.367 0 0 0 1.258 11.743c6.357 35.237 37.909 46.386 86.971 38.803z" fill="#a8c1e5"/><path d="m154.633 138.506s-56.311-5.713-93.58 51.021c-.934 14.049 48.19-11.825 84.241-27.273a89.078 89.078 0 0 0 5.548-7.5 22.758 22.758 0 0 0 3.791-12.556z" fill="#e1ebff"/><path d="m122.1 167.194c-26.5 3-41.354 13.012-46.673 17.34a23.85 23.85 0 0 1 -8.383 4.509 12.035 12.035 0 0 1 -5.98.488 146.845 146.845 0 0 0 -7.729 13.24 4.4 4.4 0 0 0 1.2 5.488 4.385 4.385 0 0 0 5.72-.286c7.008-6.668 27.441-23.63 55.58-25.446a22.221 22.221 0 0 0 10.117-3.239 75 75 0 0 0 13.718-10.872 2.314 2.314 0 0 0 -2.182-3.887 123.739 123.739 0 0 1 -15.388 2.665z" fill="#a8c1e5"/></svg>