<svg id="Layer_1" enable-background="new 0 0 512 512" height="512" viewBox="0 0 512 512" width="512" xmlns="http://www.w3.org/2000/svg"><g id="XMLID_1_"><g id="XMLID_3835_"><g id="XMLID_1449_"><path id="XMLID_2404_" d="m31 76.8h10v28.9h-10z" fill="#69bdfb" transform="matrix(.99 .138 -.138 .99 12.948 -4.09)"/></g><g id="XMLID_1448_"><path id="XMLID_2403_" d="m52 83.7h10v25.2h-10z" fill="#69bdfb" transform="matrix(.977 .212 -.212 .977 21.729 -9.898)"/></g><g id="XMLID_1447_"><path id="XMLID_2402_" d="m75.5 91.5h10v23.2h-10z" fill="#69bdfb" transform="matrix(.923 .385 -.385 .923 45.827 -23.018)"/></g><g id="XMLID_1446_"><path id="XMLID_2401_" d="m98.5 99.6h10v25.8h-10z" fill="#69bdfb" transform="matrix(.905 .425 -.425 .905 57.545 -33.321)"/></g><g id="XMLID_1445_"><path id="XMLID_2400_" d="m118.6 115.1h10v19.6h-10z" fill="#69bdfb" transform="matrix(.836 .549 -.549 .836 88.77 -47.336)"/></g><g id="XMLID_1444_"><path id="XMLID_2399_" d="m93 147h10v24h-10z" fill="#69bdfb"/></g><g id="XMLID_1443_"><path id="XMLID_2398_" d="m62.8 155.8h23.8v10h-23.8z" fill="#69bdfb" transform="matrix(.205 .979 -.979 .205 216.852 54.797)"/></g><g id="XMLID_1442_"><path id="XMLID_2397_" d="m39.7 168.6h28v10h-28z" fill="#69bdfb" transform="matrix(.424 .906 -.906 .424 188.178 51.413)"/></g><g id="XMLID_1441_"><path id="XMLID_2396_" d="m117 151h10v23h-10z" fill="#69bdfb"/></g><path id="XMLID_423_" d="m387.1 169.5s75.1-116.3 64.2-126.3-112.9 27.3-138 63.6c0 .1 13 43.9 73.8 62.7z" fill="#3279af"/><path id="XMLID_730_" d="m260.7 282.2s3 9.6-2.2 18.9c-5.2 9.2-117.1 42.2-134.2 32.3s74.7-86.4 74.7-86.4 38.2.5 61.7 35.2z" fill="#9cd3fc"/><path id="XMLID_1328_" d="m258.5 301c5.2-9.2 2.2-18.9 2.2-18.9-23.5-34.6-61.7-35.1-61.7-35.1s-8.8 7.3-20.4 17.7c24 12.7 49.2 27 72.1 41.4 4.3-2 7.1-3.8 7.8-5.1z" fill="#69bdfb"/><path id="XMLID_1455_" d="m5 5c0 24 7.7 47.4 21.9 66.8l9.9 13.5s42.9 1 81.3 28.1 37.9 56.1 37.9 56.1-94.7-21.4-101.6 17.5c-1.9 10.7 36.2 10.9 59.1 19.5 55.3 20.7 216.6 106.4 234.9 147s-44.4 89.5-44.4 89.5-38.9-74.5-108.3-77.7c0 0 47.1 54.1 49.8 85.7s-26.3 56-26.3 56c53.8 0 84.9-45 84.9-45s139.7-26.8 139.7-145.7c0-143-130.7-230.6-289.1-281.8-50.4-16.3-149.7-29.5-149.7-29.5z" fill="#3279af"/><path id="XMLID_2465_" d="m351.6 366.7c2.4 37.3-47.6 76.3-47.6 76.3s-38.9-74.5-108.3-77.7c0 0 47.1 54.1 49.8 85.7 2.6 31.6-26.3 56-26.3 56 53.8 0 84.9-45 84.9-45s139.7-26.8 139.7-145.7c0-57.4-21.1-105.9-56.6-146.7 0 1.3 3.7 104.8-35.6 197.1z" fill="#275e87"/><g id="XMLID_1453_"><path id="XMLID_2410_" d="m37.9 38.4h10v13.7h-10z" fill="#275e87" transform="matrix(.707 .707 -.707 .707 44.544 -17.098)"/></g><path id="XMLID_425_" d="m191.8 161.2c-45.3-73.9-130.3-111-177.4-111.2 3.3 7.7 7.5 15 12.5 21.8l9.9 13.5s42.9 1 81.3 28.1 37.9 56.1 37.9 56.1-94.7-21.4-101.6 17.5c-1.9 10.7 36.2 10.9 59.1 19.5 55.3 20.7 216.6 106.4 234.9 147 17.7 39.2-40.2 86.1-44.1 89.3 7.2-4.7 111-74.8 69.6-139.6-59.9-93.6-164.1-112.8-182.1-142z" fill="#9cd3fc"/><circle id="XMLID_1450_" cx="91" cy="39" fill="#275e87" r="15"/><g id="XMLID_1440_"><path id="XMLID_2409_" d="m275.5 236.9-6.7-7.5 3.3 3.7-3.3-3.7c.3-.3 29.8-27.3 27.2-68.2l10-.6c3 45.9-29.1 75.1-30.5 76.3z" fill="#275e87"/></g><g id="XMLID_1439_"><path id="XMLID_2408_" d="m250.5 219.9-6.7-7.5 3.3 3.7-3.3-3.7c.3-.3 29.8-27.3 27.2-68.2l10-.6c3 45.9-29.1 75.1-30.5 76.3z" fill="#275e87"/></g><g id="XMLID_1438_"><path id="XMLID_2407_" d="m225.5 202.9-6.7-7.5 3.3 3.7-3.3-3.7c.3-.3 29.8-27.3 27.2-68.2l10-.6c3 45.9-29.1 75.1-30.5 76.3z" fill="#275e87"/></g><path id="XMLID_1456_" d="m306.8 233.2c65.5 0 200.2 33.4 200.2 54.5s-114.4 21.6-133.1 15.5c-26.1-8.7-67.1-70-67.1-70z" fill="#9cd3fc"/><g id="XMLID_2405_"><path id="XMLID_2406_" d="m59.3 187.9-9.8-1.7c1.3-7.6 5.5-13.7 12.3-18.3 22.6-15 70.4-8 88.4-4.7-2.1-9.3-9.4-27.7-34.9-45.7-36.8-25.9-78.2-27.2-78.6-27.2-1.5 0-3-.8-3.9-2l-6.6-9 8.1-5.9 5.2 7.1c10 .7 47.3 4.7 81.6 28.9 40.1 28.3 40 59 40 60.3 0 1.5-.7 2.9-1.9 3.8s-2.7 1.3-4.2.9c-.6-.1-63.6-14.1-87.6 1.8-4.6 3.1-7.2 6.9-8.1 11.7z" fill="#d84861"/></g></g></g></svg>