<svg id="Layer_1" enable-background="new 0 0 80 80" viewBox="0 0 80 80" xmlns="http://www.w3.org/2000/svg"><g><g><g><g><path d="m69.23 54.45c0-.78-.27-1.48-.71-2.05.02-.14.04-.28.05-.41.05-.24.09-.49.09-.75 0-1.06-.49-1.99-1.25-2.61.38-.55.6-1.21.6-1.93 0-.8-.28-1.52-.74-2.1.73-.63 1.2-1.54 1.2-2.58 0-.73-.23-1.4-.62-1.96.02-.59.01-1 .01-1-.1.19-.23.39-.35.59-.62-.64-1.49-1.05-2.45-1.05-1.88 0-3.41 1.53-3.41 3.41 0 .8.28 1.52.74 2.1-.73.63-1.2 1.54-1.2 2.58 0 1.74 1.3 3.15 2.98 3.37.01.35 0 1.26-.23 2.03v.01c-.21 1.44.22 6.5.22 6.5h2.2c.23-.2.41-.55.54-.95 1.35-.45 2.33-1.7 2.33-3.2z" fill="#ceb895"/></g></g><g><g><g><path d="m28.21 64.02-.79.6-.05-.27c-.04-.26.06-.66.31-1.24.3-.68.84-1.18 1.23-1.5.48-.39.77-.94.94-1.34.15-.35.22-.73.22-1.14v-9.94h3.23l-.8 13.21c-.13 2.06-2.07 2.28-2.9 2.28-.31 0-.52-.03-.52-.03l-.08-.01-.15-.34-.64.79z" fill="#666"/></g></g><g><g><path d="m23.39 64.02-.79.6-.04-.27c-.04-.26.06-.66.31-1.24.3-.68.85-1.18 1.23-1.5.48-.39.77-.95.94-1.34.15-.35.22-.74.22-1.14v-9.94h3.23l-.8 13.21c-.14 2.06-2.07 2.28-2.9 2.28-.31 0-.52-.03-.52-.03l-.09-.01-.15-.34-.64.79z" fill="#666"/></g></g></g><g><g><g><path d="m60.04 57.38v3.21s-.25 1.21-1.1 1.91c-.44.36-.84.77-1.07 1.29-.17.38-.31.79-.27 1.03l.75-.57v.84l.46-.57.2.45s2.76.39 2.91-1.89l.71-5.7z" fill="#666"/></g></g><g><g><path d="m64.16 58.11v2.48s-.25 1.21-1.1 1.91c-.44.36-.84.77-1.07 1.29-.17.38-.31.79-.27 1.03l.75-.57v.84l.46-.57.2.45s2.76.39 2.91-1.89l.62-4.97z" fill="#666"/></g></g></g><g><g><path d="m72 32.04c0-1.67-1.2-3.05-2.78-3.35 0-.02.01-.04.01-.06 0-1.88-1.53-3.41-3.41-3.41 0-1.88-1.53-3.41-3.41-3.41-1.2 0-2.26.63-2.86 1.57-.6-.53-1.38-.87-2.25-.87-.76 0-1.45.25-2.01.67-.26-1.62-1.66-2.86-3.35-2.86-1.28 0-2.38.72-2.97 1.76-.63-.73-1.54-1.19-2.57-1.19-.75 0-1.43.25-1.99.65-.56-1.11-1.7-1.88-3.03-1.88-1.29 0-2.41.73-2.98 1.79-.54-.35-1.18-.56-1.87-.56-.97 0-1.85.41-2.47 1.07-.6-.98-1.67-1.64-2.9-1.64-1.22 0-2.29.65-2.89 1.62-.36.01-.67.02-.91.03-.34.01-.64-.19-.74-.51-.48-1.51-2.17-5.7-6.21-6.29 0 0-8.15-1.6-8.15 3.1l.88 7.85c.08.73.1 1.47.05 2.21-.05.64-.06 1.51.12 2.27.13.55.53 1.01 1.05 1.22.17.07.36.16.56.31-.76.63-1.26 1.56-1.26 2.63 0 1.2.62 2.25 1.56 2.86 0 .07-.02.14-.02.21 0 .9.36 1.72.93 2.33-.57.61-.93 1.42-.93 2.32 0 .19.07.39.16.55 1.72 2.94 2.82 2.97 3.83 2.8.61.9 1.65 1.5 2.82 1.5.45 0 .88-.09 1.28-.25.35.91.81 2.01 1.31 2.91.25.43.71.69 1.21.69h6.76c.52 0 1-.29 1.24-.75.14-.27.25-.63.33-1.09 7.98 3.83 17.33 1.91 20.49 1.34.53-.09 1.06.18 1.25.68.52 1.36 1.72 2.67 3.12 2.67.22 0 .44-.02.65-.07.15.56.13 1.16-.11 1.73-.02.04-.03.08-.05.12 0 0-.46 1.49.5 2.52h2.6c.69-.77.59-1.68.59-1.68-.39-1.57.35-3.17.35-3.17.68-.78.67-2.58.66-2.98.59-.61.95-1.44.95-2.36 0-.62-.18-1.2-.47-1.7.29-.5.47-1.08.47-1.7 0-.16-.03-.32-.05-.47 1.41-.42 2.44-1.71 2.44-3.25 0-.25-.03-.48-.08-.71.01-.02.02-.04.04-.06 1.27-.5 2.17-1.72 2.17-3.17 0-.41-.09-.8-.22-1.17.01-.03.02-.04.03-.06 1.45-.41 2.53-1.73 2.53-3.31z" fill="#e5cfa8"/></g></g><g><g><path d="m14.91 32.12s9.71-.46 12.42-10.21c0 0-5.17 8.77-12.42 10.21z" fill="#ccb48d"/></g></g><g><g><path d="m12.23 18.27s.38.35 1.13.44c.63.08 1.25-.15 1.81-.46.35-.2.86-.26 1.35.56.22.38.68.55 1.11.5 1.33-.14 3.96-.18 3 1.96 0 0-3.12 8.55-9.89 6.1 0 0-1.93-.74-.59-3.2l2.08-3.87s-3.49-.52-4.23-2.68c0 .01 1.85-1.24 4.23.65z" fill="#666"/></g></g><g><g><path d="m24.71 24.87c-2.05.36-1.82 1.3-1.82 1.3.05.53.49.79.92.91.47.13.97.11 1.44-.03 2.64-.79 2.82-3.44 2.82-3.44.24-2.26-1.16-2.78-2.17-2.86-.49-.04-.99.04-1.46.19-4.2 1.29-4-.8-4-.8.37-3.47 5.98-2.46 5.98-2.46s4.51.4 4.29 6.19c0 0-.03 5.29-6.17 5.67 0 0-3.92.03-3.38-3.45-.01 0 .87-3.01 3.55-1.22z" fill="#999"/></g></g><g><g><path d="m19.61 22.76s3.46.68 4.89-1.11c0 0-1.32-1.8-4.2-.81z" fill="#4d4d4d"/></g></g><g><g><path d="m20.64 21.27s-3.12 8.55-9.89 6.1c0 0-1.93-.74-.59-3.2l2.07-3.87c.89-1.16.3-1.8.07-1.98.14.1.5.31 1.07.39.63.08 1.25-.15 1.8-.46.35-.2.87-.26 1.35.56.22.37.68.55 1.12.5 1.33-.14 3.96-.18 3 1.96z" fill="#666"/></g></g><g><g><path d="m17.57 22.02c0 .53-.43.95-.95.95-.53 0-.95-.42-.95-.95 0-.52.42-.95.95-.95s.95.43.95.95z" fill="#1a1a1a"/></g></g><g><g><path d="m16.66 21.76c0 .16-.13.28-.28.28-.16 0-.28-.13-.28-.28 0-.16.13-.28.28-.28s.28.13.28.28z" fill="#fff"/></g></g><g><g><path d="m12.23 20.31s-3.49-.52-4.23-2.68c0 0 1.85-1.26 4.23.64 0 0 .03.02.07.06.23.18.82.82-.07 1.98z" fill="#4d4d4d"/></g></g></g><g><g><path d="m37.89 41.59c2.24-4.88 4.93-11.9 6.5-20.04z" fill="#ccb48d"/></g></g><g><g><path d="m49.43 41.59c2.27-5 4.7-11.51 5.85-18.4z" fill="#ccb48d"/></g></g><g><g><path d="m26.25 41.59c3.08-5.9 7.5-15.07 7.79-19.63z" fill="#ccb48d"/></g></g><g><g><path d="m59.89 41.59c2.78-5.58 5.8-12.5 5.92-16.37z" fill="#ccb48d"/></g></g></g></svg>