<svg id="Layer_1" viewBox="0 0 64 64" xmlns="http://www.w3.org/2000/svg" data-name="Layer 1"><g fill="#343433"><path d="m63.01989 17.14a5.5614 5.5614 0 0 0 -3.24589-3.08819 7.754 7.754 0 0 0 -7.3693 1.13181 13.29987 13.29987 0 0 0 -2.23046 2.34173 4.05612 4.05612 0 0 1 -1.70724 1.32044 1.69555 1.69555 0 0 1 -1.81047-.37579 16.217 16.217 0 0 0 -1.63729-1.60045 17.884 17.884 0 0 0 -3.50817-2.17667 15.40336 15.40336 0 0 0 -3.28343-1.17529 11.91806 11.91806 0 0 0 -4.57219.28958 29.81925 29.81925 0 0 0 -7.79 2.2791 2.87556 2.87556 0 0 0 -.94465.62633 1.54438 1.54438 0 0 0 .983.45906 4.11718 4.11718 0 0 0 2.23856-.266 51.92991 51.92991 0 0 1 5.0894-1.81566 8.55145 8.55145 0 0 1 4.11681-.22179 29.93754 29.93754 0 0 1 4.567 1.4936 11.35926 11.35926 0 0 1 2.94816 1.60635 3.66844 3.66844 0 0 1 1.20107 2.05435 28.08859 28.08859 0 0 1 .24758 3.84934 1.25081 1.25081 0 0 0 .84665 1.04928c.20263.07589.36253-.10611.40969-.28516a6.85556 6.85556 0 0 0 .15253-1.72719 9.58681 9.58681 0 0 0 -.30211-2.68584c-.09579-.34338-.23874-.672-.339-1.01392a5.34219 5.34219 0 0 1 1.0795 3.03806 21.58388 21.58388 0 0 1 -.22842 3.52806 11.2 11.2 0 0 1 -1.68225 4.6223 14.65379 14.65379 0 0 1 -5.73052 4.72619 28.48984 28.48984 0 0 1 -9.43323 2.8789 36.25029 36.25029 0 0 1 -4.93472.34411 65.38342 65.38342 0 0 1 -11.30632-.90117c-.34485-.06559-.69117-.12527-1.03675-.18569.05894-.07368 1.17234-1.68372 1.48771-2.296a.35139.35139 0 0 0 -.01769-.44654 1.60185 1.60185 0 0 0 -.80612-.3139q-1.52638-.29289-3.05279-.58653a7.83952 7.83952 0 0 0 -.92475.73832c-.5556.48706-1.13624.94318-1.6874 1.43466-.08695.10611-.21959.00958-.32053-.01253q-.26859-.09615-.53349-.20263l.56369-.5158.00664-.00589c.06926-.05969.13558-.12232.20042-.18275l.07442-.06852a8.0839 8.0839 0 0 0 1.04855-1.16276.3568.3568 0 0 0 -.1459-.546c-.57106-.26748-1.16055-.4959-1.72866-.77149a8.29582 8.29582 0 0 0 -.83044-.37432c-.11052-.053-.21.03537-.294.09432a8.66 8.66 0 0 1 -1.66455 1.2217.90188.90188 0 0 1 -1.19887-.34337 8.27086 8.27086 0 0 0 2.016-1.43392c.10242-.13116.29843-.33085.1319-.4878a2.71573 2.71573 0 0 1 -.81422-.96381c-.07664-.2159-.21517-.51727.00294-.69412 1.022-.91738 1.974-1.90993 2.98943-2.83542a29.8041 29.8041 0 0 1 4.7225-3.82649c.97634-.61528 2.16488-.70222 3.184-1.22244a53.26685 53.26685 0 0 0 5.07841-3.268 44.46992 44.46992 0 0 1 8.60794-4.34966 1.17248 1.17248 0 0 0 .33159-.19379 20.96529 20.96529 0 0 0 -4.61124.99328 38.95338 38.95338 0 0 0 -5.53892 2.27618 46.73264 46.73264 0 0 0 -8.96532 5.91106c-2.76837 2.22972-5.48442 4.53608-8.44289 6.5138-.45464.30727-.92992.58433-1.3654.91886a1.26256 1.26256 0 0 0 -.53864.75822 1.53053 1.53053 0 0 0 .3618.97781 9.10877 9.10877 0 0 0 2.31888 2.06614 30.591 30.591 0 0 0 4.29957 2.23194 8.27571 8.27571 0 0 0 .12452 1.78908c.02727.2417.08769.57549-.15547.73023-.59759.33232-1.36982.34485-1.85982.86581a1.54491 1.54491 0 0 0 -.19969 1.358 1.89437 1.89437 0 0 1 -.18274 1.58056c-.53422.60348-1.34992.8378-1.93941 1.37423a.96449.96449 0 0 0 -.31022.80465 2.23092 2.23092 0 0 1 -.22253 1.30349c-.479.78992-1.14359 1.45529-1.5754 2.27689a1.65461 1.65461 0 0 0 -.235 1.06034 1.5037 1.5037 0 0 0 .92623.82528 6.65314 6.65314 0 0 0 3.54132.21074 13.17986 13.17986 0 0 0 4.1404-1.596 17.28119 17.28119 0 0 0 3.44185-2.5473 9.84033 9.84033 0 0 0 2.41247-3.6806 13.92747 13.92747 0 0 0 .75307-3.937 30.41223 30.41223 0 0 0 6.42611 1.32634 37.37847 37.37847 0 0 0 5.08873.16506 17.53423 17.53423 0 0 0 4.34524-.52759c1.56287-.43917 3.097-.97044 4.65693-1.41918a.27232.27232 0 0 1 .24758.01768 1.5286 1.5286 0 0 1 .82159.75749.95467.95467 0 0 1 -.53053.93654c-.48191.33232-1.07655.61675-1.29466 1.20181-.255.78475.227 1.59382.01916 2.38447a1.83862 1.83862 0 0 1 -.84665.92549 6.41966 6.41966 0 0 0 -2.02562 1.37055c-.40305.56443.01253 1.30423-.325 1.88635a9.49947 9.49947 0 0 1 -.82822 1.07655 1.42383 1.42383 0 0 0 -.353.6978c-.01031.22769.19306.37506.38022.45758a4.76545 4.76545 0 0 0 1.62624.29622 10.16793 10.16793 0 0 0 4.05123-.7538 16.89786 16.89786 0 0 0 5.73937-3.99081 13.47258 13.47258 0 0 0 2.48689-3.475 6.18813 6.18813 0 0 0 .58359-3.52586 12.67867 12.67867 0 0 0 -1.63435-4.28629c1.11413.12674 2.08236-.55559 3.1287-.80391a3.21424 3.21424 0 0 1 2.78089.49443 2.5035 2.5035 0 0 1 1.02718 1.29539c.07221.72728-.24464 1.50688.12526 2.19289.27485.56148.9137.7398 1.4354.99107a2.56559 2.56559 0 0 1 1.56073 1.46774 9.45544 9.45544 0 0 1 -.1098 2.49352 1.381 1.381 0 0 0 .67349 1.2077 3.98482 3.98482 0 0 1 1.708 1.40224 3.05409 3.05409 0 0 1 .06705 1.81414 3.4721 3.4721 0 0 0 .0339 1.75593.76527.76527 0 0 0 .871.47895 2.34575 2.34575 0 0 0 1.24454-1.00433 10.06118 10.06118 0 0 0 1.62477-4.76894 18.1839 18.1839 0 0 0 -.6278-6.69875 13.00982 13.00982 0 0 0 -3.3048-5.79021 7.01676 7.01676 0 0 0 -3.56712-1.8672 9.51029 9.51029 0 0 0 -4.93914.53128c.37211-.55264.717-1.123 1.0736-1.68593a5.57352 5.57352 0 0 1 1.99835-1.90182 15.47053 15.47053 0 0 1 3.41606-1.20034 7.91766 7.91766 0 0 0 2.71163-1.00139c1.26-.91886 2.02267-2.37341 3.35122-3.21269.577-.41632 1.305-.68749 1.694-1.316a2.436 2.436 0 0 0 -.00365-1.96516zm-2.63352.43327c-.58875 1.05739-1.13845 2.13615-1.7574 3.17585a6.848 6.848 0 0 1 -1.22319 1.52971c.01769-.409.087-.94464-.31242-1.20328a5.15144 5.15144 0 0 0 -1.81782-.35443 1.6131 1.6131 0 0 1 -1.25119-.70148 1.42686 1.42686 0 0 1 .19675-1.45972c.04052-.10684.196-.20484.13631-.3279a5.06221 5.06221 0 0 1 -1.68224-.17611c-.17979-.07147-.37506-.23284-.33011-.44874a1.63559 1.63559 0 0 1 .47453-.8238 7.87576 7.87576 0 0 1 1.596-1.13181c.23505-.11938.25274-.42665.45979-.57622a1.60693 1.60693 0 0 1 1.25634-.25275 1.02928 1.02928 0 0 1 .6698.27411c.15327.21516.1179.5018.23948.731a1.11886 1.11886 0 0 0 .57328.01474c.3979-.06779.64106-.448 1.03086-.5379a2.10345 2.10345 0 0 1 1.62255.23947 1.1802 1.1802 0 0 1 .56443.80833 2.54184 2.54184 0 0 1 -.44575 1.2209z"/><path d="m55.62481 15.99269a.84161.84161 0 0 0 .882-.09579.43425.43425 0 0 0 -.02284-.69928 1.59667 1.59667 0 0 0 -1.11781-.20779c-.196.03684-.46127.21147-.36695.44285a1.39529 1.39529 0 0 0 .6256.56001z"/><path d="m39.41766 16.05606a10.33978 10.33978 0 0 0 -4.52724-.6816 21.18988 21.18988 0 0 0 -5.91695 1.95194 4.19566 4.19566 0 0 0 -.76486.42148c-.09726.09137-.2439.2159-.16505.364.13484.21148.34043.36622.48043.57475a2.63708 2.63708 0 0 1 .47306 1.28213 2.09418 2.09418 0 0 0 .41338 1.08171 4.734 4.734 0 0 0 1.638 1.15686 19.27452 19.27452 0 0 0 3.57374 1.34845 1.60593 1.60593 0 0 0 1.49582-.40822 17.94122 17.94122 0 0 0 1.59677-1.78835 24.53513 24.53513 0 0 0 2.27025-3.265 1.80333 1.80333 0 0 0 .30948-1.442c-.12818-.37068-.54449-.48415-.87683-.59615z"/><path d="m58.90971 15.87258c-.39422.059-.57548.48411-.59464.83928a1.25681 1.25681 0 0 0 .27263 1.03749.83446.83446 0 0 0 1.02423-.13926 1.1 1.1 0 0 0 .48559-.97634 1.05255 1.05255 0 0 0 -1.18781-.76117z"/><path d="m55.62775 16.5048c-.23284-.37432-.75454-.38095-1.1436-.33158a2.86162 2.86162 0 0 0 -1.08244.52169c-.23358.1739-.50769.37285-.54159.686-.00958.25422.29254.28148.47969.27927a12.8573 12.8573 0 0 0 1.56219-.08618.87036.87036 0 0 0 .72575-1.0692z"/><path d="m56.32556 16.61017a.8609.8609 0 0 0 -.21074 1.30866 1.43934 1.43934 0 0 0 1.06844.09726c.16431-.03758.44506-.04494.45758-.26895a2.697 2.697 0 0 0 -.563-.86138.65921.65921 0 0 0 -.75228-.27559z"/><path d="m44.07754 18.09788a14.01212 14.01212 0 0 0 -1.81119-.98517c-.16948-.05969-.3677-.171-.5438-.08105a1.26427 1.26427 0 0 0 -.38685.55927c-.40453.85622-.85328 1.694-1.1775 2.58563a1.641 1.641 0 0 0 -.12158.96012 2.60759 2.60759 0 0 0 .70222 1.10749q1.36171 1.47888 2.76248 2.91942c.24242.23506.4819.54307.85033.55559.32716.03095.546-.26453.66612-.52906a6.28247 6.28247 0 0 0 .4539-1.73529 11.54128 11.54128 0 0 0 -.00737-3.1228 3.293 3.293 0 0 0 -1.38676-2.23415z"/><path d="m26.62806 18.29831a2.97108 2.97108 0 0 0 -2.12951-.35 10.99616 10.99616 0 0 0 -3.00932 1.02569 26.24243 26.24243 0 0 0 -4.06892 2.48615 1.43887 1.43887 0 0 0 -.71475 1.01023c-.04421.30505.23874.50106.46348.644a3.23141 3.23141 0 0 1 1.42361 1.305c.2859.53864.12379 1.16718.24905 1.74193a1.65724 1.65724 0 0 0 1.05739 1.0876 15.24226 15.24226 0 0 0 2.05362.591 2.04475 2.04475 0 0 0 1.64908-.12085 6.77792 6.77792 0 0 0 1.17382-1.42213 31.64666 31.64666 0 0 0 2.26288-3.68428 4.69019 4.69019 0 0 0 .65212-2.36457 2.47912 2.47912 0 0 0 -1.06255-1.94977z"/><path d="m56.28355 18.58863a1.43132 1.43132 0 0 0 -1.08907-.168 1.282 1.282 0 0 0 -.98223 1.24233c.03832.39938.47675.57254.82823.57623a1.5645 1.5645 0 0 0 1.58866-.94834.59586.59586 0 0 0 -.34559-.70222z"/><path d="m58.5877 18.89885a1.75482 1.75482 0 0 0 -.9616-.101c-.44579.109-.5659.61527-.59611 1.011a.92562.92562 0 0 0 .37064.96454.70077.70077 0 0 0 .77075-.18864 3.27847 3.27847 0 0 0 .76043-1.22391c.07001-.22915-.15916-.39199-.34411-.46199z"/><path d="m38.0928 30.79833a7.15941 7.15941 0 0 0 2.10372-.62633 8.54772 8.54772 0 0 0 2.9231-1.94014 1.74214 1.74214 0 0 0 .55633-1.05149 1.11809 1.11809 0 0 0 -.33527-.67791c-.8518-1.03528-1.74266-2.03667-2.64162-3.03069a5.85645 5.85645 0 0 0 -1.08245-.97486.66063.66063 0 0 0 -.62043-.01547 2.56974 2.56974 0 0 0 -.68233.50106c-.39348.367-.8017.71917-1.19518 1.08613a2.31379 2.31379 0 0 0 -.6558.76633 3.05067 3.05067 0 0 0 -.02579 1.24455 26.619 26.619 0 0 0 .85181 4.03944.82559.82559 0 0 0 .80391.67938z"/><path d="m17.86611 26.07435c.02947-.19158-.14737-.31685-.24832-.45317a12.92566 12.92566 0 0 1 -1.48179-2.05656 1.843 1.843 0 0 0 -.574-.67423 1.03206 1.03206 0 0 0 -.71622-.08253 3.74931 3.74931 0 0 0 -.83412.33528 21.14423 21.14423 0 0 0 -3.41975 2.254 16.59863 16.59863 0 0 0 -3.086 3.17585c-.25717.3979-.5998.854-.46127 1.35507a2.39749 2.39749 0 0 0 1.27036 1.15912 13.50034 13.50034 0 0 0 4.203 1.05739 1.464 1.464 0 0 0 1.20918-.22474 10.47291 10.47291 0 0 0 .9977-1.20255c.97044-1.28213 1.91288-2.5871 2.79047-3.93408a2.42157 2.42157 0 0 0 .35076-.70885z"/><path d="m25.57583 28.79777a2.46145 2.46145 0 0 0 -.04569 1.72866 8.14369 8.14369 0 0 0 1.19224 1.767 3.44774 3.44774 0 0 0 1.4155 1.11044 6.51725 6.51725 0 0 0 2.25035.05453 19.61892 19.61892 0 0 0 4.97231-1.17823 1.71692 1.71692 0 0 0 1.12665-.97707 2.57347 2.57347 0 0 0 -.20779-1.2541 35.36222 35.36222 0 0 0 -1.34919-3.741 3.76892 3.76892 0 0 0 -.66021-1.13556 4.10855 4.10855 0 0 0 -1.15907-.75307 13.88688 13.88688 0 0 0 -3.20312-1.15686 2.76131 2.76131 0 0 0 -1.21065-.07738 2.04991 2.04991 0 0 0 -1.09939 1.07729 20.51394 20.51394 0 0 0 -2.02194 4.53535z"/><path d="m46.51211 28.58924a12.734 12.734 0 0 0 .57549-2.36531.63439.63439 0 0 0 -.0759-.52169 1.50924 1.50924 0 0 0 -.87981-.5018c-.21442-.05379-.31095.18789-.40453.33158q-.53275 1.00581-1.078 2.00646c-.05085.1179-.14369.23506-.129.36843a6.24227 6.24227 0 0 0 .63885.46053 4.48868 4.48868 0 0 0 1.1075.67865 1.69968 1.69968 0 0 0 .2454-.45685z"/><path d="m24.01959 33.69344a4.69884 4.69884 0 0 0 1.10749-.11127c.15548-.04716.34264-.16947.32275-.35516a2.57335 2.57335 0 0 0 -.29695-.84444 18.6669 18.6669 0 0 0 -1.13108-1.88783 3.23652 3.23652 0 0 0 -1.84214-1.61887 23.96611 23.96611 0 0 0 -2.42941-.40527 1.70909 1.70909 0 0 0 -.56149.00295 2.77891 2.77891 0 0 0 -.97854.63591 21.00094 21.00094 0 0 0 -2.58268 2.64454.82219.82219 0 0 0 -.24906.82528 1.60261 1.60261 0 0 0 1.20181.66538 41.25586 41.25586 0 0 0 7.4393.44878z"/><path d="m43.25373 32.60658a.96969.96969 0 0 0 .62854-.37433 16.11752 16.11752 0 0 0 1.59456-1.94309 1.21032 1.21032 0 0 0 .238-.46127 2.1913 2.1913 0 0 0 -.787-.647 3.37715 3.37715 0 0 0 -1.02275-.4878c-.2078-.039-.36107.14148-.49959.26675-.44728.48337-.9056.95643-1.36319 1.431a2.146 2.146 0 0 0 -.29548.38979 7.13985 7.13985 0 0 0 .77149 1.04266 4.634 4.634 0 0 0 .73542.78329z"/><path d="m38.151 35.46705a4.618 4.618 0 0 0 .66759-.25937 22.16115 22.16115 0 0 0 3.69754-2.04625c-.46938-.518-.96012-1.01539-1.46487-1.49729a1.41447 1.41447 0 0 0 -.52759-.36917 3.74543 3.74543 0 0 0 -.71991.24759c-.6779.27926-1.36834.52979-2.03445.83632-.24169.1238-.53275.25864-.62707.53423a2.60706 2.60706 0 0 0 .31759 1.04117 13.79542 13.79542 0 0 0 .69117 1.51277z"/><path d="m36.2816 33.33459c-.238-.11421-.49811.02579-.73464.07884-.74717.252-1.49361.50769-2.24152.759-.18789.07516-.45758.14295-.4819.38317a22.20933 22.20933 0 0 0 -.06853 2.3852c1.36613-.34706 2.72785-.71475 4.07629-1.12739.15916-.01547.12379-.19453.12379-.30358a8.61625 8.61625 0 0 0 -.31832-1.58351c-.07516-.21594-.12895-.48415-.35517-.59173z"/><path d="m31.62763 34.53345a1.27367 1.27367 0 0 0 -.82823-.06116c-1.05886.11864-2.117.26011-3.18027.33822a.64.64 0 0 0 -.46422.21811 1.35684 1.35684 0 0 0 -.19969.7737c-.02431.46864-.06189.938-.056 1.40813a.295.295 0 0 0 .21811.32938 5.3545 5.3545 0 0 0 1.03381-.07443c1.2195-.11126 2.4331-.27337 3.64965-.41264.01842-.68454.07884-1.36981.04421-2.05509a.55309.55309 0 0 0 -.21737-.46422z"/><path d="m19.45035 34.91a13.95937 13.95937 0 0 0 -2.57752-.15843 2.13374 2.13374 0 0 0 -.63738.07074c-.28148.15032-.336.507-.43843.7818a8.77935 8.77935 0 0 0 -.41117 1.5275c.12379.15622.34411.15991.52391.20411.85622.14443 1.71687.2638 2.5812.34927.21295.01842.4878.05748.61233-.16579a12.64343 12.64343 0 0 0 .87907-1.70951.674.674 0 0 0 .06705-.60127.82477.82477 0 0 0 -.59906-.29842z"/><path d="m25.99952 35.50463a.54482.54482 0 0 0 -.35958-.59464 9.36125 9.36125 0 0 0 -1.473-.0059c-.86286.05748-1.72866.04642-2.59.11347-.40674.06559-.54969.51138-.64327.85476a8.82272 8.82272 0 0 0 -.37138 1.85246c1.72351-.04643 3.44849-.06927 5.172-.12453a17.9581 17.9581 0 0 0 .26523-2.09562z"/></g></svg>