<svg id="Layer_1" viewBox="0 0 64 64" xmlns="http://www.w3.org/2000/svg" data-name="Layer 1"><g fill="#343433"><path d="m51.47448 27.00411a3.89163 3.89163 0 0 1 1.37143-.62631 25.45367 25.45367 0 0 0 4.25022-.997 7.45142 7.45142 0 0 0 2.86262-2.165 12.30149 12.30149 0 0 0 1.88465-3.52791c.33454-.90763.72516-1.79341 1.12718-2.67253a3.464 3.464 0 0 0 .33739-1.06351 1.16323 1.16323 0 0 0 -.80309-.96846 11.45018 11.45018 0 0 0 -2.77613-.75462 13.027 13.027 0 0 0 -3.32262-.16537 7.77076 7.77076 0 0 0 -3.61724 1.21366 21.801 21.801 0 0 0 -2.83981 2.396 22.71112 22.71112 0 0 1 -3.70563 2.893 11.028 11.028 0 0 0 -2.855-2.99568 11.73425 11.73425 0 0 0 -5.87065-2.03862 9.65786 9.65786 0 0 0 -4.97822-4.86512 12.10925 12.10925 0 0 0 -6.62812-1.01979 14.20244 14.20244 0 0 0 -5.84309 2.38172 14.30111 14.30111 0 0 0 -2.69915 2.165 23.03876 23.03876 0 0 1 6.14817.04087.91361.91361 0 0 0 .63772-.01521 3.07221 3.07221 0 0 1 1.743-.45619 1.31384 1.31384 0 0 1 .84966 1.50734 9.299 9.299 0 0 1 4.24261.80784 28.73977 28.73977 0 0 0 -4.96872 1.60334 36.99624 36.99624 0 0 0 -5.48566 2.78756 28.422 28.422 0 0 0 -7.48924 6.76688 31.94068 31.94068 0 0 0 -5.03905 10.49153 5.55991 5.55991 0 0 0 .65483.97132 18.72914 18.72914 0 0 0 2.262 2.41973 27.45334 27.45334 0 0 0 4.60946 3.45377 21.79482 21.79482 0 0 0 11.21382 3.2732 22.79085 22.79085 0 0 0 15.388-5.9676 18.59822 18.59822 0 0 0 3.64859-4.73495 1.46308 1.46308 0 0 0 1.21081.15587c.52463-.17582.82781-.67194 1.24028-1.00743a.46011.46011 0 0 1 .574-.09789c.29177.20434.12735.5997.1245.89148a3.30273 3.30273 0 0 1 1.11673-.09884.83.83 0 0 1 .64722.81734 8.34192 8.34192 0 0 1 -.46855 1.97305 4.83031 4.83031 0 0 1 1.897-.28608.785.785 0 0 1 .71565.79264 7.41106 7.41106 0 0 1 -.78408 2.40738 12.61174 12.61174 0 0 1 1.76775.02091 1.23518 1.23518 0 0 1 .99033.67384 5.66281 5.66281 0 0 1 .32788 1.72783 8.34563 8.34563 0 0 0 .517 2.09469 23.70126 23.70126 0 0 0 2.30949 4.53344 15.884 15.884 0 0 0 2.16312 2.7191 10.50112 10.50112 0 0 0 1.78391-4.771 22.04366 22.04366 0 0 0 .06178-6.28123 13.81371 13.81371 0 0 0 -1.62045-4.69119 15.47974 15.47974 0 0 0 -6.62051-6.60437 11.24219 11.24219 0 0 0 -5.7281-.95516 10.07688 10.07688 0 0 1 3.46431-4.15327zm4.84707-9.70649a5.19553 5.19553 0 0 1 3.95368-.05512 3.40523 3.40523 0 0 1 -1.1633 1.89036 2.35009 2.35009 0 0 1 -1.47312.41247 8.9222 8.9222 0 0 0 -3.20286.41533 5.36633 5.36633 0 0 1 1.8856-2.66304zm-11.11309 17.78874a20.696 20.696 0 0 1 -2.88638 4.13616 19.47339 19.47339 0 0 1 -8.94616 5.88586 21.52982 21.52982 0 0 1 -12.46456-.20624 26.63558 26.63558 0 0 1 -8.99273-5.00293 12.42783 12.42783 0 0 1 -1.629-1.68792.88361.88361 0 0 1 -.2357-.5902 27.531 27.531 0 0 1 5.02574-10.5457 26.06845 26.06845 0 0 1 8.59166-6.88093 32.202 32.202 0 0 1 4.84042-1.91982 31.35151 31.35151 0 0 1 6.25461-1.23172 12.38808 12.38808 0 0 1 5.54942.8316 8.88227 8.88227 0 0 1 3.64955 2.64117 11.53175 11.53175 0 0 1 2.04432 3.75505 14.01248 14.01248 0 0 1 -.80119 10.81562z"/><path d="m37.7934 24.77351a.86024.86024 0 0 0 .84586.27562 21.352 21.352 0 0 1 6.02272-.67574 9.09765 9.09765 0 0 0 -1.67177-3.29125 8.5998 8.5998 0 0 0 -4.84041-2.79324 12.3355 12.3355 0 0 0 -6.07024.31363c1.43512 1.48358 2.84932 2.98807 4.20555 4.54484a17.55941 17.55941 0 0 0 1.50829 1.62614z"/><path d="m25.53128 27.9203a8.69805 8.69805 0 0 0 1.69362 2.37886 2.98506 2.98506 0 0 0 2.52617.55124 11.45892 11.45892 0 0 0 3.93093-1.79151 6.43676 6.43676 0 0 0 2.39217-2.377 2.03055 2.03055 0 0 0 -.44669-1.93027 43.21963 43.21963 0 0 0 -3.085-3.75695 11.677 11.677 0 0 0 -1.64421-1.59288 3.02237 3.02237 0 0 0 -2.48626.03232 22.82559 22.82559 0 0 0 -6.47986 3.57162 14.59891 14.59891 0 0 1 3.59913 4.91457z"/><path d="m19.29852 33.67216a1.52906 1.52906 0 0 0 1.18325.54838 2.74981 2.74981 0 0 0 1.21272-.51037c.79929-.52937 1.58718-1.07681 2.34465-1.66511a3.322 3.322 0 0 0 1.19186-1.54916 1.37885 1.37885 0 0 0 -.20149-1.02264c-.29748-.58259-.64437-1.13763-.98652-1.69457a19.72461 19.72461 0 0 0 -2.14221-2.98142 1.86142 1.86142 0 0 0 -1.33057-.66243 3.43244 3.43244 0 0 0 -1.75825.882 12.41049 12.41049 0 0 0 -4.09624 5.27379 4.78539 4.78539 0 0 1 1.28875.50467 16.45487 16.45487 0 0 1 3.29405 2.87686z"/><path d="m44.71425 26.19247a3.96371 3.96371 0 0 0 -2.281-.59781 8.42339 8.42339 0 0 0 -4.944 1.7516 3.364 3.364 0 0 0 -1.33342 1.71167c-.1169.67289.41058 1.20227.75272 1.71834a53.84863 53.84863 0 0 1 4.9136 6.85527 17.08138 17.08138 0 0 0 2.96906-5.35363 11.59426 11.59426 0 0 0 .37351-5.35648 1.06624 1.06624 0 0 0 -.45047-.72896z"/><path d="m37.61092 33.70162c-1.03214-1.2935-2.11179-2.548-3.14013-3.84439a13.643 13.643 0 0 1 -3.40056 1.91791 3.02578 3.02578 0 0 0 -1.456 1.75445 7.51027 7.51027 0 0 0 -.31363 2.83126 13.54886 13.54886 0 0 0 1.27355 4.64938 5.204 5.204 0 0 0 1.3163 1.93122 2.83548 2.83548 0 0 0 2.08519.38587 9.20766 9.20766 0 0 0 4.04113-1.85424 5.84726 5.84726 0 0 0 1.93787-2.05193 2.93472 2.93472 0 0 0 -.1264-2.51667 18.55824 18.55824 0 0 0 -2.21732-3.20286z"/><path d="m18.57906 34.58644a12.3465 12.3465 0 0 0 -3.46612-2.63737 2.20227 2.20227 0 0 0 -.91239-.2414c-.35546.08933-.537.44764-.6995.74416a33.01812 33.01812 0 0 0 -1.59668 3.81017c-.11975.38016-.36306.825-.1093 1.20416a8.25917 8.25917 0 0 0 2.21445 2.16027 29.42253 29.42253 0 0 0 5.42586 3.06221 19.96724 19.96724 0 0 1 -.40677-2.6925 7.15324 7.15324 0 0 1 .7109-4.12761 10.51684 10.51684 0 0 0 -1.16045-1.28209z"/><path d="m28.9879 31.83787a3.97393 3.97393 0 0 0 -1.96069-.07223 8.22752 8.22752 0 0 0 -3.50984 2.04052 14.76012 14.76012 0 0 0 -2.83791 2.88068 5.0511 5.0511 0 0 0 -.536 3.602 8.33369 8.33369 0 0 0 .66433 2.23821 2.558 2.558 0 0 0 1.5159 1.111 17.63545 17.63545 0 0 0 8.7922.64438 12.29117 12.29117 0 0 1 -3.01189-6.93886 12.04324 12.04324 0 0 1 .8839-5.5057z"/><path d="m10.2155 42.66014a37.7963 37.7963 0 0 1 -3.74935-4.09914 28.76424 28.76424 0 0 1 1.78011-4.96967 11.17518 11.17518 0 0 0 -1.38759.862c-.92284.64722-1.6385 1.55486-2.61647 2.12986a6.65 6.65 0 0 1 -2.50432.8316c-.383.08364-.88482.172-1.03689.5902a2.48849 2.48849 0 0 0 .43054 1.37714 8.65134 8.65134 0 0 0 4.67789 4.15422 19.45358 19.45358 0 0 0 4.8157.78883 27.427 27.427 0 0 0 -1.63279 2.415 5.26169 5.26169 0 0 1 -1.24693 1.246c-.58926.41153-1.30111.61111-1.87135 1.0521a.882.882 0 0 0 -.30033 1.10437 3.57089 3.57089 0 0 0 1.07871.94185 10.55006 10.55006 0 0 0 5.64826 1.90462 8.19342 8.19342 0 0 0 4.15232-.96181 20.56007 20.56007 0 0 0 4.4555-3.36254 18.27478 18.27478 0 0 1 -6.53214-2.67824 31.76274 31.76274 0 0 1 -4.16087-3.32639z"/></g></svg>