<svg height="511pt" viewBox="1 1 511 511.99999" width="511pt" xmlns="http://www.w3.org/2000/svg"><path d="m439.410156 242.96875h-365.816406l28.335938-158.90625h309.132812l3.523438 19.726562zm0 0" fill="#ccc"/><path d="m435.808594 222.75-179.304688-58.417969-141.238281 46.015625-1.925781.628906 19.101562-107.1875h282.144532zm0 0" fill="#e6e6e6"/><path d="m.5 455.90625h512v56.09375h-512zm0 0" fill="#3598ba"/><path d="m472.316406 253.699219-32.683594 213.566406-302.761718-1.355469-63.757813-.285156-32.421875-211.925781 74.574219-24.292969 141.238281-46.015625zm0 0" fill="#2e5968"/><path d="m256.503906 465.910156-183.390625-.285156-32.421875-211.925781 215.8125-70.308594zm0 0" fill="#1a414c"/><path d="m472.316406 253.699219-5.695312 37.21875-210.117188-68.460938-137.769531 44.890625-72.351563 23.570313-5.691406-37.21875 74.574219-24.292969 141.238281-46.015625zm0 0" fill="#f7526e"/><path d="m313.910156 84.0625h-114.824218l5.089843-74.210938c12.054688-4.699218 24.59375-7.730468 37.269531-9.046874 5.003907-.542969 10.03125-.804688 15.058594-.804688 17.742188 0 35.492188 3.292969 52.316406 9.851562zm0 0" fill="#e6e6e6"/><path d="m256.503906 222.457031-210.121094 68.460938-5.691406-37.21875 215.8125-70.308594zm0 0" fill="#d1244a"/><path d="m241.445312.804688-3.125 83.257812h-39.234374l5.089843-74.210938c12.054688-4.699218 24.59375-7.730468 37.269531-9.046874zm0 0" fill="#ccc"/><path d="m512.5 466.28125c-42.667969 0-42.667969 20.898438-85.335938 20.898438-42.671874 0-42.671874-20.898438-85.339843-20.898438-42.664063 0-42.664063 20.898438-85.332031 20.898438-42.664063 0-42.664063-20.898438-85.328126-20.898438-42.667968 0-42.667968 20.898438-85.332031 20.898438-42.664062 0-42.664062-20.898438-85.332031-20.898438v-45.171875c42.667969 0 42.667969 20.898437 85.332031 20.898437 42.664063 0 42.664063-20.898437 85.332031-20.898437 42.664063 0 42.664063 20.898437 85.328126 20.898437 42.667968 0 42.667968-20.898437 85.332031-20.898437 42.667969 0 42.667969 20.898437 85.339843 20.898437 42.667969 0 42.667969-20.898437 85.335938-20.898437" fill="#61b4d8"/><path d="m310.972656 41.378906c-17.660156-6.007812-36.070312-8.996094-54.480468-8.996094-5.433594 0-10.855469.257813-16.269532.792969-12.933594 1.234375-25.757812 3.960938-38.199218 8.191407l-.011719.011718 2.152343-31.527344h.011719c12.054688-4.699218 24.59375-7.730468 37.269531-9.046874 5.003907-.542969 10.019532-.804688 15.046876-.804688 17.753906 0 35.503906 3.292969 52.328124 9.851562zm0 0" fill="#f7526e"/><path d="m241.445312.804688-1.222656 32.371093c-12.933594 1.234375-25.757812 3.960938-38.199218 8.191407l-.011719.011718 2.152343-31.527344h.011719c12.054688-4.699218 24.59375-7.730468 37.269531-9.046874zm0 0" fill="#d1244a"/><path d="m386.855469 155.011719-6.183594-34.652344h-248.347656l-6.179688 34.652344zm0 0" fill="#61b4d8"/><g fill="#e6e6e6"><path d="m172.726562 111.71875 15.582032 1.722656-5.546875 50.230469-15.578125-1.71875zm0 0"/><path d="m340.253906 111.71875 5.542969 50.230469-15.578125 1.71875-5.542969-50.230469zm0 0"/><path d="m248.664062 112.523438h15.671876v50.324218h-15.671876zm0 0"/></g><path d="m216.304688 304.421875c0-16.921875-9.375-30.636719-20.9375-30.636719s-20.933594 13.714844-20.933594 30.636719c0 16.917969 9.371094 30.636719 20.933594 30.636719s20.9375-13.71875 20.9375-30.636719zm0 0" fill="#102e35"/><path d="m338.570312 304.421875c0-16.921875-9.371093-30.636719-20.933593-30.636719s-20.9375 13.714844-20.9375 30.636719c0 16.917969 9.375 30.636719 20.9375 30.636719s20.933593-13.71875 20.933593-30.636719zm0 0" fill="#1a414c"/><path d="m417.34375 91.902344h-321.679688c-4.328124 0-7.839843-3.511719-7.839843-7.839844s3.511719-7.835938 7.839843-7.835938h321.679688c4.328125 0 7.835938 3.507813 7.835938 7.835938s-3.507813 7.839844-7.835938 7.839844zm0 0" fill="#2e5968"/></svg>