<?xml version="1.0" encoding="UTF-8"?>
<!-- Generator: Adobe Illustrator 26.0.3, SVG Export Plug-In . SVG Version: 6.00 Build 0)  -->
<svg xmlns="http://www.w3.org/2000/svg" xmlns:xlink="http://www.w3.org/1999/xlink" version="1.1" id="Capa_1" x="0px" y="0px" viewBox="0 0 512 512" style="enable-background:new 0 0 512 512;" xml:space="preserve" width="512" height="512">
<style type="text/css">
	.st0{fill:#ED5D5D;}
	.st1{fill:#F97878;}
	.st2{fill:#77491A;}
	.st3{fill:#B24646;}
	.st4{fill:#F2B789;}
	.st5{fill:#F6CCA5;}
	.st6{fill:#CECECE;}
	.st7{fill:#E6E6E6;}
	.st8{fill:#5D6972;}
	.st9{fill:#7A838B;}
	.st10{fill:#A6642C;}
</style>
<g id="Layer_22">
	<path class="st0" d="M378.7,333.9L344,320l-48,32v-48l-10.7,7.1c-17.8,11.8-40.9,11.8-58.6,0L216,304v48l-48-32l-34.7,13.9   C105.9,344.8,88,371.3,88,400.7V496h336v-95.3C424,371.3,406.1,344.8,378.7,333.9z"/>
	<path class="st1" d="M378.7,333.9L344,320l-48,32v-48l-10.7,7.1c-17.8,11.8-40.9,11.8-58.6,0L216,304v48l-48-32l-34.7,13.9   c-3.6,1.5-7.1,3.2-10.5,5.3c-7,11.3-10.7,24.3-10.8,37.6v53.7c0,23,18.6,41.6,41.6,41.6c0,0,0,0,0,0H424v-71.3   C424,371.3,406.1,344.8,378.7,333.9z"/>
	<path class="st2" d="M333.9,49.2L328,48c-15.1-20.1-38.8-32-64-32h-9.8c-14.5,0-28.7,3.9-41.2,11.4l-16.3,9.8   c-9,5.4-20.7,2.8-26.5-6L160,16l-10.2,30.7c-3.8,11.4-5.8,23.4-5.8,35.5l0,0c0,9.2,1.1,18.3,3.3,27.2l11.9,55.3   c3.6-3,8.1-4.7,12.7-4.7h12v-14.3c0-6.3,1.9-12.5,5.4-17.8L216,88l8.8,2.9c10.1,3.4,20.6,5.1,31.2,5.1c10.6,0,21.1-1.7,31.2-5.1   L296,88l26.6,39.9c3.5,5.3,5.4,11.4,5.4,17.8V160h12c4.7,0,9.2,1.7,12.7,4.7l14-63.6c5.7-22.7-8.1-45.8-30.9-51.4   C335.2,49.5,334.6,49.3,333.9,49.2z"/>
	<path class="st3" d="M216,304l-42.3-28.2l0,0c2.9-2.4,6.5-3.8,10.3-3.8h144c3.8,0,7.5,1.3,10.3,3.8l0-0.1L296,304H216z"/>
	<path class="st4" d="M328,145.7v25.5c0,23.9-7.5,47.3-21.4,66.8l0,0c-11.7,16.3-30.5,26-50.6,26l0,0c-20.1,0-38.9-9.7-50.6-26l0,0   c-13.9-19.5-21.4-42.8-21.4-66.8v-25.5c0-6.3,1.9-12.5,5.4-17.8L216,88l8.8,2.9c10.1,3.4,20.6,5.1,31.2,5.1l0,0   c10.6,0,21.1-1.7,31.2-5.1L296,88l26.6,39.9C326.1,133.2,328,139.4,328,145.7z"/>
	<path class="st4" d="M328,145.7v25.5c0,23.9-7.5,47.3-21.4,66.8l0,0c-11.7,16.3-30.5,26-50.6,26l0,0c-20.1,0-38.9-9.7-50.6-26l0,0   c-13.9-19.5-21.4-42.8-21.4-66.8v-25.5c0-6.3,1.9-12.5,5.4-17.8L216,88l8.8,2.9c10.1,3.4,20.6,5.1,31.2,5.1l0,0   c10.6,0,21.1-1.7,31.2-5.1L296,88l26.6,39.9C326.1,133.2,328,139.4,328,145.7z"/>
	<path class="st4" d="M340,160h-12v11.2c0,9.7-1.3,19.4-3.7,28.8H340c11,0,20-9,20-20S351,160,340,160z"/>
	<path class="st4" d="M184,171.2V160h-12c-11,0-20,9-20,20s9,20,20,20h15.7C185.3,190.6,184,180.9,184,171.2z"/>
	<path class="st5" d="M328,145.7c0-6.3-1.9-12.5-5.4-17.8L296,88l-8.8,2.9C277.1,94.3,266.6,96,256,96c-9.1,0-18.1-1.3-26.8-3.8   l-23.8,35.7c-3.5,5.3-5.4,11.4-5.4,17.8v25.5c0,23.9,7.5,47.3,21.4,66.8c10,14,25.5,23.3,42.6,25.5c17.1-2.2,32.6-11.4,42.6-25.5   c13.9-19.5,21.4-42.8,21.4-66.8V145.7z"/>
	<path class="st0" d="M116.6,177.4c-2.2-1.5-4.9-1.8-7.4-0.9l-64,24c-3.1,1.2-5.2,4.2-5.2,7.5v65.5c-2.6-0.9-5.3-1.4-8-1.5   c-13.3,0-24,10.7-24,24s10.7,24,24,24s24-10.7,24-24v-50.5l48-18v21.9c-2.6-0.9-5.3-1.4-8-1.5c-13.3,0-24,10.7-24,24s10.7,24,24,24   s24-10.7,24-24v-88C120,181.4,118.7,178.9,116.6,177.4z"/>
	<path class="st0" d="M500.6,9.4c-2.2-1.5-4.9-1.8-7.4-0.9l-64,24c-3.1,1.2-5.2,4.2-5.2,7.5v65.5c-2.6-0.9-5.3-1.4-8-1.5   c-13.3,0-24,10.7-24,24s10.7,24,24,24s24-10.7,24-24V77.5l56-21c4.4,0,8-3.6,8-8V16C504,13.4,502.7,10.9,500.6,9.4z"/>
	<path class="st4" d="M256,232c-17.7,0-32-14.3-32-32c0-4.4,3.6-8,8-8s8,3.6,8,8c0,8.8,7.2,16,16,16c8.8,0,16-7.2,16-16   c0-4.4,3.6-8,8-8s8,3.6,8,8C288,217.7,273.7,232,256,232z"/>
	<path class="st4" d="M224,168c-4.4,0-8-3.6-8-8v-8c0-4.4,3.6-8,8-8s8,3.6,8,8v8C232,164.4,228.4,168,224,168z"/>
	<path class="st4" d="M288,168c-4.4,0-8-3.6-8-8v-8c0-4.4,3.6-8,8-8s8,3.6,8,8v8C296,164.4,292.4,168,288,168z"/>
	<path class="st0" d="M173.7,275.8c-3.6,3-5.7,7.5-5.7,12.2v32l48,32v-48L173.7,275.8z"/>
	<path class="st0" d="M338.3,275.8c3.6,3,5.7,7.5,5.7,12.2v32l-48,32v-48L338.3,275.8z"/>
	<polygon class="st6" points="296,352 296,304 216,304 216,352 208,346.7 208,496 304,496 304,346.7  "/>
	<path class="st7" d="M400,368c-2.8,0-5.6-0.8-8-2.2V424c0,4.4-3.6,8-8,8s-8-3.6-8-8v-16c0-13.3-10.7-24-24-24s-24,10.7-24,24v88h16   v-88c0-4.4,3.6-8,8-8s8,3.6,8,8v16c0,13.3,10.7,24,24,24s24-10.7,24-24v-58.2C405.6,367.2,402.8,368,400,368z"/>
	<path class="st8" d="M400,232L400,232c13.3,0,24,10.7,24,24v16c0,13.3-10.7,24-24,24l0,0c-13.3,0-24-10.7-24-24v-16   C376,242.7,386.7,232,400,232z"/>
	<path class="st6" d="M400,296c-5.9,0-11.6-2.2-16-6.2V352c0,8.8,7.2,16,16,16s16-7.2,16-16v-62.2C411.6,293.8,405.9,296,400,296z"/>
	<path class="st7" d="M400,296c-2.7,0-5.4-0.5-8-1.5V352c0,7.3,4.9,13.6,12,15.4c7.1-1.8,12-8.2,12-15.4v-62.2   C411.6,293.8,405.9,296,400,296z"/>
	<path class="st9" d="M404,232.4c-11.5,1.9-20,11.9-20,23.6v16c0,11.7,8.5,21.7,20,23.6c11.5-1.9,20-11.9,20-23.6v-16   C424,244.3,415.5,234.3,404,232.4z"/>
	<rect x="376" y="256" class="st6" width="48" height="16"/>
	<path class="st10" d="M333.9,49.2L328,48c-15.1-20.1-38.8-32-64-32h-9.8c-14.5,0-28.7,3.9-41.2,11.4l-16.3,9.8   c-8.7,5.3-20,2.9-26-5.3l-5,14.9c-3.8,11.4-5.8,23.4-5.8,35.5l0,0c0,9.2,1.1,18.3,3.3,27.2l10.9,50.6h9.7v-14.3   c0-6.3,1.9-12.5,5.4-17.8L216,88l8.8,2.9c10.1,3.4,20.6,5.1,31.2,5.1c10.6,0,21.1-1.7,31.2-5.1L296,88l26.6,39.9   c3.5,5.3,5.4,11.4,5.4,17.8V160h12c4.7,0,9.2,1.7,12.7,4.7l14-63.6c5.7-22.7-8.1-45.8-30.9-51.4C335.2,49.5,334.6,49.3,333.9,49.2z   "/>
	<path class="st4" d="M256,264c-14.6,0-28.8-5.2-40-14.6V304l10.7,7.1c17.8,11.8,40.9,11.8,58.6,0L296,304v-54.6   C284.8,258.8,270.6,264,256,264z"/>
	<path class="st7" d="M296,352v-48l-10.7,7.1c-17.8,11.8-40.9,11.8-58.6,0L216,304v48l-8-5.3V472h96V346.7L296,352z"/>
	<path class="st5" d="M256,264c-11.3,0-22.3-3.1-32-9v54.3l2.7,1.8c17.8,11.8,40.9,11.8,58.6,0L296,304v-54.6   C284.8,258.8,270.6,264,256,264z"/>
</g>
</svg>
