<svg id="Layer_1" enable-background="new 0 0 512 512" viewBox="0 0 512 512" xmlns="http://www.w3.org/2000/svg" xmlns:xlink="http://www.w3.org/1999/xlink"><linearGradient id="lg1"><stop offset="0" stop-color="#ffa1ae"/><stop offset="1" stop-color="#ff4565"/></linearGradient><linearGradient id="SVGID_1_" gradientTransform="matrix(.707 -.707 -.707 -.707 -2322.376 -6305.987)" gradientUnits="userSpaceOnUse" x1="-3005.69" x2="-2973.156" xlink:href="#lg1" y1="-6583.693" y2="-6583.693"/><linearGradient id="lg2"><stop offset="0" stop-color="#fe0364" stop-opacity="0"/><stop offset=".2343" stop-color="#f90362" stop-opacity=".234"/><stop offset=".5173" stop-color="#ea035b" stop-opacity=".517"/><stop offset=".8243" stop-color="#d20250" stop-opacity=".824"/><stop offset="1" stop-color="#c00148"/></linearGradient><linearGradient id="SVGID_00000020364610400443674390000010086887313220049337_" gradientTransform="matrix(.707 -.707 .707 .707 -59.479 236.714)" gradientUnits="userSpaceOnUse" x1="39.672" x2="39.672" xlink:href="#lg2" y1="367.118" y2="325.295"/><linearGradient id="SVGID_00000078027816837354147100000005235985697566582185_" gradientTransform="matrix(.707 .707 .707 -.707 -1889.897 -5289.383)" gradientUnits="userSpaceOnUse" x1="5537.67" x2="5577.592" xlink:href="#lg1" y1="-2573.568" y2="-2573.568"/><linearGradient id="SVGID_00000007403427184612814600000008886553302150234559_" gradientTransform="matrix(.707 .707 .707 -.707 -1889.897 -5289.383)" gradientUnits="userSpaceOnUse" x1="5593.694" x2="5556.32" xlink:href="#lg1" y1="-2573.568" y2="-2573.568"/><linearGradient id="SVGID_00000134943114271058943840000002599013740855382170_" gradientTransform="matrix(.707 .707 .707 -.707 -1889.897 -5289.383)" gradientUnits="userSpaceOnUse" x1="5607.608" x2="5553.819" xlink:href="#lg2" y1="-2569.49" y2="-2576.049"/><linearGradient id="SVGID_00000044869855833249863000000012859944657549739696_" gradientTransform="matrix(0 1 1 0 91.652 -128.148)" gradientUnits="userSpaceOnUse" x1="609.822" x2="587.336" xlink:href="#lg1" y1="119.364" y2="152.677"/><linearGradient id="SVGID_00000107558227813661728280000010635280995374297497_" gradientTransform="matrix(0 1 1 0 91.652 -128.148)" gradientUnits="userSpaceOnUse" x1="614.299" x2="580.615" xlink:href="#lg2" y1="116.242" y2="159.735"/><linearGradient id="SVGID_00000129884361628628662330000014462366788576895139_" gradientTransform="matrix(0 1 1 0 91.652 -128.148)" gradientUnits="userSpaceOnUse" x1="610.174" x2="580.006" xlink:href="#lg2" y1="144.058" y2="126.846"/><linearGradient id="SVGID_00000151521944992938109780000004660352361212010936_" gradientTransform="matrix(.707 .707 .707 -.707 -1889.897 -5289.383)" gradientUnits="userSpaceOnUse" x1="5559.038" x2="5559.038" xlink:href="#lg2" y1="-2549.953" y2="-2526.279"/><linearGradient id="SVGID_00000016057746734700500720000018438489969733880970_" gradientTransform="matrix(.707 -.707 -.707 -.707 -2322.376 -6305.987)" gradientUnits="userSpaceOnUse" x1="-2671.263" x2="-2638.728" xlink:href="#lg1" y1="-6583.693" y2="-6583.693"/><linearGradient id="SVGID_00000183948182753020050230000013070339848622797701_" gradientTransform="matrix(.707 -.707 .707 .707 -59.479 236.714)" gradientUnits="userSpaceOnUse" x1="374.1" x2="374.1" xlink:href="#lg2" y1="372.537" y2="325.477"/><linearGradient id="SVGID_00000026849266303698390140000017579581768498270637_" gradientTransform="matrix(.707 .707 .707 -.707 -1889.897 -5289.383)" gradientUnits="userSpaceOnUse" x1="5537.67" x2="5577.592" xlink:href="#lg1" y1="-2239.141" y2="-2239.141"/><linearGradient id="SVGID_00000039126481646478086510000015820125205848004481_" gradientTransform="matrix(.707 .707 .707 -.707 -1889.897 -5289.383)" gradientUnits="userSpaceOnUse" x1="5593.694" x2="5556.32" xlink:href="#lg1" y1="-2239.141" y2="-2239.141"/><linearGradient id="SVGID_00000115473300535137186760000010209904967309080962_" gradientTransform="matrix(.707 .707 .707 -.707 -1889.897 -5289.383)" gradientUnits="userSpaceOnUse" x1="5607.608" x2="5553.819" xlink:href="#lg2" y1="-2235.062" y2="-2241.622"/><linearGradient id="SVGID_00000119828619431867532790000001945975487746829489_" gradientTransform="matrix(0 1 1 0 91.652 -128.148)" gradientUnits="userSpaceOnUse" x1="373.346" x2="350.859" xlink:href="#lg1" y1="355.84" y2="389.153"/><linearGradient id="SVGID_00000173872937821830218080000007164843487434314930_" gradientTransform="matrix(0 1 1 0 91.652 -128.148)" gradientUnits="userSpaceOnUse" x1="377.823" x2="344.139" xlink:href="#lg2" y1="352.718" y2="396.211"/><linearGradient id="SVGID_00000183970197750570036480000005157610485344961701_" gradientTransform="matrix(0 1 1 0 91.652 -128.148)" gradientUnits="userSpaceOnUse" x1="373.698" x2="343.53" xlink:href="#lg2" y1="380.534" y2="363.322"/><linearGradient id="SVGID_00000124869415672192538670000003501617997274515644_" gradientTransform="matrix(.707 .707 .707 -.707 -1889.897 -5289.383)" gradientUnits="userSpaceOnUse" x1="5559.038" x2="5559.038" xlink:href="#lg2" y1="-2215.525" y2="-2191.852"/><linearGradient id="lg3"><stop offset="0" stop-color="#fef0ae"/><stop offset="1" stop-color="#fac600"/></linearGradient><linearGradient id="SVGID_00000089556078076190288440000017799276183561782183_" gradientTransform="matrix(.707 -.707 .707 .707 -59.479 236.714)" gradientUnits="userSpaceOnUse" x1="208.358" x2="217.859" xlink:href="#lg3" y1="244.946" y2="356.576"/><linearGradient id="lg4"><stop offset="0" stop-color="#fe9738" stop-opacity="0"/><stop offset="1" stop-color="#fe9738"/></linearGradient><linearGradient id="SVGID_00000076606071570717929960000015080206861846662590_" gradientTransform="matrix(.707 -.707 .707 .707 -59.479 236.714)" gradientUnits="userSpaceOnUse" x1="206.877" x2="206.877" xlink:href="#lg4" y1="312.43" y2="334.369"/><linearGradient id="SVGID_00000126293654560653479990000013165313202036906159_" gradientTransform="matrix(.707 -.707 .707 .707 -59.479 236.714)" gradientUnits="userSpaceOnUse" x1="365.115" x2="399.857" xlink:href="#lg4" y1="326.626" y2="371.019"/><linearGradient id="SVGID_00000093879038534040977550000003528246620492138388_" gradientTransform="matrix(.707 -.707 .707 .707 -59.479 236.714)" gradientUnits="userSpaceOnUse" x1="173.092" x2="274.356" y1="142.547" y2="370.392"><stop offset="0" stop-color="#d9b1ee"/><stop offset="1" stop-color="#814aa0"/></linearGradient><linearGradient id="SVGID_00000169522399105416412520000014744588629053850554_" gradientTransform="matrix(.707 -.707 .707 .707 -59.479 236.714)" gradientUnits="userSpaceOnUse" x1="232.217" x2="311.287" xlink:href="#lg1" y1="171.247" y2="289.852"/><linearGradient id="SVGID_00000036961169000185177370000002702487694080655507_" gradientTransform="matrix(.707 -.707 .707 .707 -59.479 236.714)" gradientUnits="userSpaceOnUse" x1="254.194" x2="297.055" y1="230.412" y2="273.273"><stop offset="0" stop-color="#5a5a5a"/><stop offset="1" stop-color="#444"/></linearGradient><linearGradient id="SVGID_00000018918632045173693070000016082099142442514874_" gradientTransform="matrix(.707 -.707 .707 .707 -59.479 236.714)" gradientUnits="userSpaceOnUse" x1="241.236" x2="309.306" xlink:href="#lg3" y1="206.762" y2="260.925"/><linearGradient id="lg5"><stop offset="0" stop-color="#bbec6c"/><stop offset=".1974" stop-color="#b5e665"/><stop offset=".4799" stop-color="#a5d552"/><stop offset=".8118" stop-color="#8abb33"/><stop offset="1" stop-color="#78a91f"/></linearGradient><linearGradient id="SVGID_00000114069480286551132390000015219273674864980106_" gradientTransform="matrix(.809 -.589 .589 .809 -59.703 198.768)" gradientUnits="userSpaceOnUse" x1="93.488" x2="158.864" xlink:href="#lg5" y1="250.606" y2="346.522"/><linearGradient id="lg6"><stop offset="0" stop-color="#334c0f" stop-opacity="0"/><stop offset=".3197" stop-color="#344c12" stop-opacity=".32"/><stop offset=".5654" stop-color="#374a1c" stop-opacity=".565"/><stop offset=".7856" stop-color="#3c482c" stop-opacity=".786"/><stop offset=".9909" stop-color="#444443" stop-opacity=".991"/><stop offset="1" stop-color="#444"/></linearGradient><linearGradient id="SVGID_00000107566623619385772810000005167393565835532730_" gradientTransform="matrix(.809 -.589 .589 .809 -59.703 198.768)" gradientUnits="userSpaceOnUse" x1="123.682" x2="128.931" xlink:href="#lg6" y1="297.811" y2="310.616"/><linearGradient id="SVGID_00000003068065797956333190000011705742647432354453_" gradientTransform="matrix(.809 -.589 .589 .809 -59.703 198.768)" gradientUnits="userSpaceOnUse" x1="131.81" x2="141.353" xlink:href="#lg6" y1="280.92" y2="278.852"/><linearGradient id="SVGID_00000072246835243149084520000001981566444631423898_" gradientTransform="matrix(.809 -.589 .589 .809 -59.703 198.768)" gradientUnits="userSpaceOnUse" x1="132.318" x2="197.694" xlink:href="#lg5" y1="224.139" y2="320.055"/><linearGradient id="SVGID_00000098179222125495031270000008137357680352051641_" gradientTransform="matrix(.809 -.589 .589 .809 -59.703 198.768)" gradientUnits="userSpaceOnUse" x1="150.718" x2="163.232" xlink:href="#lg6" y1="231.643" y2="232.597"/><linearGradient id="SVGID_00000092452605663863402360000005395372876428073652_" gradientTransform="matrix(.809 -.589 .589 .809 -59.703 198.768)" gradientUnits="userSpaceOnUse" x1="163.959" x2="171.807" xlink:href="#lg6" y1="266.302" y2="272.347"/><linearGradient id="SVGID_00000103981759697779813710000007632400774020616832_" gradientTransform="matrix(.809 -.589 .589 .809 -59.703 198.768)" gradientUnits="userSpaceOnUse" x1="147.772" x2="150.953" xlink:href="#lg6" y1="281.08" y2="294.335"/><linearGradient id="SVGID_00000156576756061532215150000002487890872267152534_" gradientTransform="matrix(.809 -.589 .589 .809 -59.703 198.768)" gradientUnits="userSpaceOnUse" x1="170.462" x2="235.838" xlink:href="#lg5" y1="198.14" y2="294.057"/><linearGradient id="SVGID_00000060717220010024137400000002973665241995459216_" gradientTransform="matrix(.809 -.589 .589 .809 -59.703 198.768)" gradientUnits="userSpaceOnUse" x1="195.769" x2="208.07" xlink:href="#lg6" y1="220.198" y2="221.047"/><linearGradient id="SVGID_00000129188461136018347200000006589007330663268015_" gradientTransform="matrix(.809 -.589 .589 .809 -59.703 198.768)" gradientUnits="userSpaceOnUse" x1="188.452" x2="194.285" xlink:href="#lg6" y1="237.834" y2="245.257"/><linearGradient id="SVGID_00000016069062929612810150000015094015568509605510_" gradientTransform="matrix(.809 -.589 .589 .809 -59.703 198.768)" gradientUnits="userSpaceOnUse" x1="181.947" x2="185.116" xlink:href="#lg6" y1="236.742" y2="240.775"/><linearGradient id="SVGID_00000069397023149961885880000009175385720567797385_" gradientTransform="matrix(.809 -.589 .589 .809 -59.703 198.768)" gradientUnits="userSpaceOnUse" x1="162.829" x2="228.205" xlink:href="#lg5" y1="203.343" y2="299.259"/><linearGradient id="SVGID_00000062150406896600629320000005025716767830304165_" gradientTransform="matrix(.809 -.589 .589 .809 -59.703 198.768)" gradientUnits="userSpaceOnUse" x1="225.713" x2="230.167" xlink:href="#lg6" y1="252.419" y2="251.465"/><linearGradient id="SVGID_00000010301827062393988470000004025787168356179855_" gradientTransform="matrix(.809 -.589 .589 .809 -59.703 198.768)" gradientUnits="userSpaceOnUse" x1="228.886" x2="230" xlink:href="#lg6" y1="294.723" y2="299.336"/><linearGradient id="SVGID_00000106107517366482536190000007642541053727228559_" gradientTransform="matrix(.809 -.589 .589 .809 -59.703 198.768)" gradientUnits="userSpaceOnUse" x1="193.596" x2="197.625" xlink:href="#lg6" y1="278.068" y2="285.067"/><linearGradient id="SVGID_00000032609196719935459860000001350543431273103544_" gradientTransform="matrix(.809 -.589 .589 .809 -59.703 198.768)" gradientUnits="userSpaceOnUse" x1="204.168" x2="269.544" xlink:href="#lg5" y1="175.167" y2="271.083"/><linearGradient id="SVGID_00000060723011209995884430000018179504054432486294_" gradientTransform="matrix(.809 -.589 .589 .809 -59.703 198.768)" gradientUnits="userSpaceOnUse" x1="258.673" x2="267.263" xlink:href="#lg6" y1="231.329" y2="232.442"/><linearGradient id="SVGID_00000084496654376160898690000010682387051459168414_" gradientTransform="matrix(.809 -.589 .589 .809 -59.703 198.768)" gradientUnits="userSpaceOnUse" x1="258.058" x2="256.467" xlink:href="#lg6" y1="252.685" y2="258.888"/><linearGradient id="lg7"><stop offset="0" stop-color="#632f78" stop-opacity="0"/><stop offset="1" stop-color="#632f78"/></linearGradient><linearGradient id="SVGID_00000038409592615227376140000004465612205256627897_" gradientTransform="matrix(.707 -.707 .707 .707 -59.479 236.714)" gradientUnits="userSpaceOnUse" x1="206.796" x2="206.796" xlink:href="#lg7" y1="253.607" y2="324.506"/><linearGradient id="SVGID_00000129171557042963477000000004933551084200124303_" gradientUnits="userSpaceOnUse" x1="-79.603" x2="581.228" xlink:href="#lg7" y1="265.242" y2="639.499"/><linearGradient id="SVGID_00000021113084862259535580000005033414311393244570_" gradientUnits="userSpaceOnUse" x1="-85.404" x2="575.427" xlink:href="#lg7" y1="275.484" y2="649.742"/><linearGradient id="SVGID_00000060030551470959022790000017700483780804912520_" gradientUnits="userSpaceOnUse" x1="92.934" x2="753.766" xlink:href="#lg7" y1="-39.41" y2="334.847"/><linearGradient id="SVGID_00000127745683226954600300000016900785385698405021_" gradientUnits="userSpaceOnUse" x1="87.133" x2="747.965" xlink:href="#lg7" y1="-29.167" y2="345.09"/><g><g><g><g><g><path d="m196.902 505.462-19.978-19.978c-12.226-12.226-6.809-37.464 12.099-56.372s44.146-24.325 56.372-12.099l19.978 19.978c12.226 12.226 6.809 37.464-12.099 56.372s-44.146 24.325-56.372 12.099z" fill="url(#SVGID_1_)"/><path d="m196.902 505.462-19.978-19.978c-12.226-12.226-6.809-37.464 12.099-56.372s44.146-24.325 56.372-12.099l19.978 19.978c12.226 12.226 6.809 37.464-12.099 56.372s-44.146 24.325-56.372 12.099z" fill="url(#SVGID_00000020364610400443674390000010086887313220049337_)"/><path d="m253.274 493.363c18.908-18.908 24.325-44.146 12.099-56.372s-37.464-6.809-56.372 12.099-24.325 44.146-12.099 56.372 37.464 6.809 56.372-12.099z" fill="url(#SVGID_00000078027816837354147100000005235985697566582185_)"/></g></g><g><g><path d="m216.423 456.512c15.071-15.071 34.193-20.385 42.71-11.869 8.516 8.516 3.203 27.638-11.869 42.71-15.071 15.071-34.193 20.385-42.71 11.869-8.516-8.517-3.202-27.639 11.869-42.71z" fill="url(#SVGID_00000007403427184612814600000008886553302150234559_)"/><path d="m216.423 456.512c15.071-15.071 34.193-20.385 42.71-11.869 8.516 8.516 3.203 27.638-11.869 42.71-15.071 15.071-34.193 20.385-42.71 11.869-8.516-8.517-3.202-27.639 11.869-42.71z" fill="url(#SVGID_00000134943114271058943840000002599013740855382170_)"/></g><g><path d="m243.871 482.497c-12.818 12.818-31.687 14.73-42.146 4.271-.382-.382-.743-.779-1.092-1.183 0 0-.589-13.511 16.227-30.327s31.504-14.671 31.504-14.671c10.202 10.504 8.231 29.186-4.493 41.91z" fill="url(#SVGID_00000044869855833249863000000012859944657549739696_)"/></g><g><path d="m243.871 482.497c-12.818 12.818-31.687 14.73-42.146 4.271-.382-.382-.743-.779-1.092-1.183 0 0-.589-13.511 16.227-30.327s31.504-14.671 31.504-14.671c10.202 10.504 8.231 29.186-4.493 41.91z" fill="url(#SVGID_00000107558227813661728280000010635280995374297497_)"/></g><g><path d="m243.871 482.497c-12.818 12.818-31.687 14.73-42.146 4.271-.382-.382-.743-.779-1.092-1.183 0 0-.589-13.511 16.227-30.327s31.504-14.671 31.504-14.671c10.202 10.504 8.231 29.186-4.493 41.91z" fill="url(#SVGID_00000129884361628628662330000014462366788576895139_)"/></g></g><path d="m198.272 421.256c17.225-12.313 36.807-14.559 47.123-4.243l19.978 19.978c10.316 10.316 8.07 29.898-4.243 47.123z" fill="url(#SVGID_00000151521944992938109780000004660352361212010936_)"/></g><g><g><g><path d="m433.378 268.986-19.978-19.978c-12.226-12.226-6.809-37.464 12.099-56.372s44.146-24.325 56.372-12.099l19.978 19.978c12.226 12.226 6.809 37.464-12.099 56.372-18.908 18.907-44.146 24.324-56.372 12.099z" fill="url(#SVGID_00000016057746734700500720000018438489969733880970_)"/><path d="m433.378 268.986-19.978-19.978c-12.226-12.226-6.809-37.464 12.099-56.372s44.146-24.325 56.372-12.099l19.978 19.978c12.226 12.226 6.809 37.464-12.099 56.372-18.908 18.907-44.146 24.324-56.372 12.099z" fill="url(#SVGID_00000183948182753020050230000013070339848622797701_)"/><path d="m489.75 256.887c18.908-18.908 24.325-44.146 12.099-56.372s-37.464-6.809-56.372 12.099-24.325 44.146-12.099 56.372 37.464 6.808 56.372-12.099z" fill="url(#SVGID_00000026849266303698390140000017579581768498270637_)"/></g></g><g><g><path d="m452.899 220.036c15.071-15.071 34.193-20.385 42.71-11.869 8.516 8.516 3.203 27.638-11.869 42.71s-34.193 20.385-42.71 11.869c-8.516-8.517-3.202-27.639 11.869-42.71z" fill="url(#SVGID_00000039126481646478086510000015820125205848004481_)"/><path d="m452.899 220.036c15.071-15.071 34.193-20.385 42.71-11.869 8.516 8.516 3.203 27.638-11.869 42.71s-34.193 20.385-42.71 11.869c-8.516-8.517-3.202-27.639 11.869-42.71z" fill="url(#SVGID_00000115473300535137186760000010209904967309080962_)"/></g><g><path d="m480.347 246.021c-12.818 12.818-31.687 14.73-42.146 4.271-.382-.382-.743-.779-1.092-1.183 0 0-.589-13.511 16.227-30.327s31.504-14.671 31.504-14.671c10.202 10.504 8.231 29.186-4.493 41.91z" fill="url(#SVGID_00000119828619431867532790000001945975487746829489_)"/></g><g><path d="m480.347 246.021c-12.818 12.818-31.687 14.73-42.146 4.271-.382-.382-.743-.779-1.092-1.183 0 0-.589-13.511 16.227-30.327s31.504-14.671 31.504-14.671c10.202 10.504 8.231 29.186-4.493 41.91z" fill="url(#SVGID_00000173872937821830218080000007164843487434314930_)"/></g><g><path d="m480.347 246.021c-12.818 12.818-31.687 14.73-42.146 4.271-.382-.382-.743-.779-1.092-1.183 0 0-.589-13.511 16.227-30.327s31.504-14.671 31.504-14.671c10.202 10.504 8.231 29.186-4.493 41.91z" fill="url(#SVGID_00000183970197750570036480000005157610485344961701_)"/></g></g><path d="m434.748 184.78c17.225-12.313 36.807-14.559 47.123-4.243l19.978 19.978c10.316 10.316 8.07 29.898-4.243 47.123z" fill="url(#SVGID_00000124869415672192538670000003501617997274515644_)"/></g></g><g><g><path d="m485.987 39.41c9.627 29.534 11.541 59.157 6.275 86.17-5.281 26.998-17.756 51.429-36.877 70.55l-261.95 261.951c-34.756 34.756-85.488 50.331-139.706 42.87-11.348-1.557-22.355-7.283-30.929-15.857-2.24-2.24-4.316-4.673-6.186-7.284-1.602-2.225-3.011-4.524-4.213-6.853l456.66-456.66c7.477 6.319 13.574 14.848 16.926 25.113z" fill="url(#SVGID_00000089556078076190288440000017799276183561782183_)"/><path d="m485.987 39.41c9.627 29.534 11.541 59.157 6.275 86.17-5.281 26.998-17.756 51.429-36.877 70.55l-261.95 261.951c-34.756 34.756-85.488 50.331-139.706 42.87-11.348-1.557-22.355-7.283-30.929-15.857-2.24-2.24-4.316-4.673-6.186-7.284-1.602-2.225-3.011-4.524-4.213-6.853l456.66-456.66c7.477 6.319 13.574 14.848 16.926 25.113z" fill="url(#SVGID_00000076606071570717929960000015080206861846662590_)"/><path d="m178.326 305.032 84.079 84.079 192.98-192.981c19.121-19.121 31.596-43.552 36.877-70.55 5.266-27.013 3.352-56.636-6.275-86.17-3.352-10.265-9.449-18.795-16.926-25.114z" fill="url(#SVGID_00000126293654560653479990000013165313202036906159_)"/><path d="m17.536 418.086 36.773-32.393c7.952-7.005 15.681-14.26 23.175-21.754l231.81-231.81c27.512-27.512 52.957-57.016 76.127-88.271l20.41-27.532c20.352-27.453 63.489-18.718 71.557 14.49 12.774 52.577-2.779 108.011-41.038 146.27l-261.95 261.951c-34.762 34.762-82.58 53.24-131.684 50.887-12.984-.622-24.907-7.355-32.146-18.152-11.47-17.11-8.491-40.07 6.966-53.686z" fill="url(#SVGID_00000093879038534040977550000003528246620492138388_)"/><g><g><path d="m354.91 150.439c-2.905-.816-5.804-1.654-8.435-3.131l-7.283-4.089c-.912-.512-2.058-.28-2.707.54-4.063 5.139-19.628 23.218-50.638 41.712-1.738 1.037-2.323 3.28-1.311 5.033l7.006 12.131c1.036 1.794 3.343 2.384 5.123 1.324 9.77-5.819 18.184-11.641 25.341-17.141-11.418 44.037-12.172 83.988-12.151 94.625.003 1.463 1.209 2.633 2.672 2.6l16.205-.364c1.417-.032 2.549-1.181 2.554-2.599.008-1.96.049-5.002.19-8.934.136-3.781 4.718-5.586 7.394-2.911.88.88 2.308.88 3.188 0 .88-.88.88-2.308 0-3.188l-8.264-8.264c-.898-.898-1.36-2.142-1.256-3.408 1.391-16.851 4.305-39.289 10.383-62.702 2.442 3.873 5.549 7.599 9.491 10.987 1.641 1.41 4.139 1.13 5.419-.615l3.668-5.004c1.692-2.308 5.043-2.564 7.066-.541l18.004 18.004c.88.88 2.308.88 3.188 0 .88-.88.88-2.308 0-3.188l-19.204-19.204c-1.609-1.609-3.069-3.38-4.147-5.384-.187-.348-.433-.672-.738-.955-11.461-10.647-10.097-27.303-9.23-32.973.164-1.064-.499-2.072-1.528-2.361z" fill="url(#SVGID_00000169522399105416412520000014744588629053850554_)"/><path d="m343.923 156.841c-2.905-.816-5.804-1.653-8.435-3.131l-7.284-4.089c-.912-.512-2.057-.28-2.706.54-4.063 5.139-19.627 23.218-50.638 41.712-1.738 1.037-2.324 3.28-1.311 5.033l7.006 12.131c1.036 1.794 3.343 2.384 5.123 1.324 9.769-5.819 18.184-11.641 25.341-17.141-11.418 44.037-12.172 83.988-12.151 94.625.003 1.463 1.209 2.633 2.672 2.6l16.205-.364c1.417-.032 2.549-1.179 2.554-2.596.025-6.427.41-24.46 3.504-47.437.158-1.17 1.584-1.657 2.418-.822l14.54 14.54c.557.557 1.461.557 2.019 0 .557-.557.557-1.461 0-2.019l-17.11-17.11c-.603-.603-.882-1.457-.751-2.299l.01-.066c.337-2.177 3.004-3.048 4.562-1.491l8.97 8.97c1.821 1.821 4.775 1.821 6.596 0 1.821-1.821 1.821-4.775 0-6.596l-14.709-14.709c-1.568-1.568-2.253-3.821-1.793-5.991 1.001-4.724 2.121-9.529 3.38-14.379 2.442 3.873 5.549 7.598 9.491 10.987 1.641 1.41 4.139 1.13 5.418-.615l8.324-11.355c1.115-1.521.9-3.629-.482-4.912-11.466-10.646-10.101-27.306-9.234-32.977.163-1.066-.5-2.074-1.529-2.363z" fill="url(#SVGID_00000036961169000185177370000002702487694080655507_)"/><path d="m335.757 142.981c-2.905-.816-5.804-1.654-8.435-3.131l-7.287-4.091c-.909-.511-2.052-.279-2.699.539-4.058 5.134-19.623 23.217-50.641 41.716-1.738 1.037-2.324 3.28-1.311 5.033l7.006 12.131c1.032 1.786 3.329 2.391 5.102 1.336.737-.439 1.466-.878 2.187-1.317.996-.607 2.277-.459 3.102.366l6.069 6.069c1.129 1.129 2.958 1.129 4.087 0 1.129-1.129 1.129-2.958 0-4.087l-4.372-4.372c-1.124-1.124-.94-2.999.383-3.878 5.079-3.378 9.714-6.711 13.907-9.934-11.418 44.037-12.172 83.988-12.151 94.625.003 1.464 1.209 2.633 2.672 2.6l16.205-.364c1.416-.032 2.549-1.178 2.554-2.595.039-10.015.94-48.207 11.636-89.409 2.442 3.873 5.549 7.598 9.491 10.987 1.641 1.41 4.139 1.13 5.419-.615l8.325-11.355c1.115-1.521.9-3.629-.482-4.912-11.466-10.646-10.102-27.306-9.234-32.977.158-1.068-.505-2.076-1.533-2.365z" fill="url(#SVGID_00000018918632045173693070000016082099142442514874_)"/></g><g><g><g><path d="m220.009 385.066c-3.684 2.682-9.095 3.741-16.343 1.196-9.778-3.434-18.054-10.074-24.251-19.386-2.167 7.367-5.749 12.585-7.337 14.658-.41.535-1.185.613-1.694.17l-6.111-5.312 3.513 3.054-2.679-2.31c-.464-.4-.542-1.09-.176-1.58 2.128-2.851 8.368-12.468 6.624-25.21-1.021-3.178-1.583-5.691-1.847-7.042-.119-.607.258-1.199.858-1.353l6.884-1.766c.596-.153 1.203.184 1.401.766.849 2.497 1.438 4.928 1.811 7.277.807 2.411 1.912 5.226 3.398 8.154 5.379 10.599 13.013 17.697 22.69 21.096 7.523 2.642 8.962-.926 9.504-2.27 3.5-8.683-4.135-31.693-26.415-42.466-.577-.279-.832-.961-.566-1.543l2.898-6.343c.27-.591.974-.855 1.56-.573 11.489 5.525 21.043 14.631 26.987 25.75 5.613 10.499 7.172 21.211 4.171 28.656-.98 2.433-2.598 4.716-4.88 6.377z" fill="url(#SVGID_00000114069480286551132390000015219273674864980106_)"/></g><path d="m208.492 334.315-4.194 8.835c11.036 11.354 14.549 25.63 11.958 32.058-.542 1.344-1.98 4.912-9.504 2.27-5.451-1.914-10.253-5.003-14.37-9.229l-4.187 8.818c4.57 4.085 9.762 7.19 15.471 9.195 7.248 2.546 12.66 1.486 16.343-1.196 2.281-1.661 3.9-3.943 4.881-6.377 3.001-7.445 1.441-18.157-4.171-28.656-3.145-5.883-7.309-11.195-12.227-15.718z" fill="url(#SVGID_00000107566623619385772810000005167393565835532730_)" opacity=".55"/><path d="m192.172 324.856-2.898 6.343c-.266.582-.011 1.264.566 1.543 22.28 10.773 29.915 33.783 26.415 42.466-.338.838-1.025 2.541-3.319 3.063l5.617 7.717c.512-.28.997-.588 1.456-.922 2.281-1.661 3.9-3.943 4.881-6.377 3.001-7.445 1.441-18.157-4.171-28.656-5.944-11.118-15.498-20.224-26.987-25.75-.586-.282-1.29-.019-1.56.573z" fill="url(#SVGID_00000003068065797956333190000011705742647432354453_)" opacity=".55"/></g><g><path d="m208.379 317.86-1.491-1.324c-.205-3.449-.505-7.46-.943-11.55-.7-6.531-1.61-11.894-2.707-15.938-1.21-4.463-3.174-9.777-7.656-11.266-1.969-.654-5.872-.982-9.872 4.182-3.954 5.102-5.814 10.916-6.447 16.643l-1.505 1.694c-.773.87-.694 2.202.176 2.975l1.073.953c.149 9.574 3.078 18.115 4.441 21.589.348.886 1.369 1.298 2.237.907l5.461-2.461c.805-.363 1.189-1.288.874-2.113-.654-1.718-1.728-4.827-2.552-8.631l8.325 7.393c.166 3.583.21 5.939.211 5.986l.133 7.122c.018.942 1.107 1.455 1.844.869l5.583-4.436c.03-.024.609-.475 1.656-1.169l24.372 21.644c.469.416 1.186.374 1.602-.095l4.676-5.265c.416-.469.374-1.186-.095-1.602l-21.761-19.325c6.595-2.737 15.79-5.027 26.054-3.132.6.111 1.178-.284 1.305-.882l1.46-6.89c.132-.625-.278-1.234-.906-1.353-14.876-2.807-27.618 1.493-35.548 5.475zm-15.395-30.084c.994 2.189 2.657 7.502 3.872 19.852l-8.393-7.453c.41-4.373 1.71-8.719 4.521-12.399z" fill="url(#SVGID_00000072246835243149084520000001981566444631423898_)"/><path d="m205.945 304.985c-.7-6.531-1.61-11.894-2.707-15.938-1.21-4.463-3.174-9.777-7.656-11.266-1.969-.654-5.872-.982-9.872 4.182-3.954 5.102-5.814 10.916-6.447 16.643l27.624 17.93c-.205-3.449-.504-7.46-.942-11.551zm-17.481-4.811c.408-4.372 1.709-8.718 4.52-12.398.994 2.189 2.657 7.502 3.873 19.852z" fill="url(#SVGID_00000098179222125495031270000008137357680352051641_)" opacity=".55"/><path d="m244.834 313.737c.132-.625-.278-1.234-.906-1.353-12.112-2.285-22.809.141-30.647 3.271l5.718 7.855c6.263-2.172 14.271-3.626 23.071-2.001.6.111 1.178-.285 1.305-.882z" fill="url(#SVGID_00000092452605663863402360000005395372876428073652_)" opacity=".55"/><path d="m231.594 350.928c.469.416 1.186.374 1.602-.095l4.676-5.265c.416-.469.374-1.186-.095-1.602l-17.631-15.657-7.705 5.609z" fill="url(#SVGID_00000103981759697779813710000007632400774020616832_)" opacity=".55"/></g><path d="m230.809 252.973c-1.235.005-2.409.23-3.522.63 1.702-10.231.837-16.033-2.705-18.997-1.591-1.331-5.089-3.115-10.646-.104-12.929 6.996-17.727 33.506-18.762 40.329-.108.709.387 1.367 1.098 1.462l6.686.896c.694.093 1.332-.386 1.437-1.078.254-1.686.583-3.521.979-5.434l24.423 21.689c-1.413 5.908-2.852 10.683-3.331 12.233-.092.296.073.609.369.704l7.788 2.498c.299.096.62-.07.713-.37.675-2.168 3.159-10.386 4.999-19.648 4.076-20.523 1.325-27.294-1.1-30.601-1.999-2.731-4.991-4.225-8.426-4.209zm1.149 28.859-9.392-8.341c.59-1.409 1.463-3.315 2.568-5.223 2.731-4.716 4.879-5.981 5.719-5.985.555-.002.669.121.874.4.494.675 2.646 4.598.231 19.149zm-15.089-23.565c-.681 3-1.446 5.884-2.123 8.28l-6.757-6.001c2.521-8.054 6.07-15.517 10.383-17.858.102-.055.197-.105.287-.149.287 1.75.406 6.063-1.79 15.728z" fill="url(#SVGID_00000156576756061532215150000002487890872267152534_)"/><path d="m224.583 234.605c-1.591-1.331-5.089-3.115-10.646-.104-3.335 1.805-6.127 4.909-8.455 8.638l6.027 8.28c1.977-4.096 4.283-7.33 6.863-8.731.102-.055.197-.105.287-.149.288 1.75.406 6.063-1.789 15.728-.03.131-.061.26-.091.391l7.766 10.669c.189-.351.383-.704.588-1.059 2.731-4.715 4.879-5.981 5.719-5.985.555-.002.669.121.874.4.472.643 2.451 4.255.53 17.236l7.558 10.382c.178-.829.352-1.67.521-2.52 4.076-20.523 1.325-27.294-1.1-30.601-2-2.729-4.993-4.223-8.427-4.207-1.235.005-2.409.23-3.522.63 1.704-10.231.838-16.034-2.703-18.998z" fill="url(#SVGID_00000060717220010024137400000002973665241995459216_)" opacity=".55"/><path d="m230.809 252.973c-1.235.005-2.409.23-3.522.63l-10.665 27.062 13.175 11.7c-1.413 5.908-2.852 10.683-3.331 12.233-.092.297.073.609.369.704l7.788 2.498c.299.096.62-.07.713-.37.675-2.168 3.159-10.386 4.999-19.648 4.076-20.523 1.325-27.294-1.1-30.601-1.999-2.73-4.991-4.224-8.426-4.208zm1.149 28.859-9.392-8.341c.59-1.409 1.463-3.315 2.568-5.223 2.731-4.715 4.879-5.981 5.719-5.985.555-.002.669.121.874.4.494.675 2.646 4.598.231 19.149z" fill="url(#SVGID_00000129188461136018347200000006589007330663268015_)" opacity=".55"/><path d="m229.798 292.365s1.8-6.569 2.16-10.533l-3.131-2.78-6.261-5.561-4.205 8.717z" fill="url(#SVGID_00000016069062929612810150000015094015568509605510_)" opacity=".55"/><g><path d="m308.841 297.007-69.176-61.432c-.593-.526-1.482.134-1.149.854l7.897 17.071c10.028 21.678 11.257 41.144 11.097 50.818-.24 14.491-3.601 21.86-5.223 23.611-.52-.52-1.491-1.766-2.667-4.583-6.542-15.668 1.903-28.446 4.606-31.952.413-.536.34-1.298-.161-1.751l-4.99-4.51c-.556-.502-1.421-.434-1.886.154-3.405 4.302-14.803 20.945-6.16 41.647 2.714 6.501 6.195 10.041 10.345 10.522 1.907.221 5.595-.082 8.866-4.601 6.872-9.495 9.993-36.144 1.372-65.338l19.073 16.938c-3.473.818-7.225 2.472-10.761 5.568-.556.487-.585 1.345-.071 1.877l4.673 4.835c.48.496 1.256.521 1.785.078.325-.272.652-.525.982-.761 5.361-3.843 12.707-3.325 17.639 1.055l7.729 6.864c.536.476 1.357.428 1.834-.109l4.458-5.019c.473-.538.425-1.359-.112-1.836z" fill="url(#SVGID_00000069397023149961885880000009175385720567797385_)"/><path d="m294.93 297.105 7.729 6.864c.536.476 1.357.428 1.834-.109l4.458-5.019c.476-.536.428-1.357-.109-1.834l-69.176-61.432c-.593-.526-1.482.134-1.149.854l7.897 17.071c1.777 3.841 3.272 7.61 4.538 11.269l13.239 12.996c-.705-3.365-1.557-6.789-2.579-10.25l19.073 16.938c-2.22.523-4.555 1.39-6.874 2.755l7.114 6.984c4.732-1.59 10.118-.539 14.005 2.913z" fill="url(#SVGID_00000062150406896600629320000005025716767830304165_)" opacity=".55"/><path d="m304.492 303.86 4.458-5.019c.476-.536.428-1.357-.109-1.834l-31.531-28.002-5.948 7.169 9.322 8.278c-3.473.818-7.225 2.472-10.761 5.568-.556.487-.585 1.345-.071 1.877l4.673 4.835c.48.496 1.256.521 1.785.078.325-.272.652-.525.982-.762 5.361-3.843 12.708-3.325 17.639 1.055l7.729 6.864c.535.478 1.356.429 1.832-.107z" fill="url(#SVGID_00000010301827062393988470000004025787168356179855_)" opacity=".55"/><path d="m256.92 291.55c.539 5.167.644 9.521.591 12.768-.24 14.491-3.601 21.86-5.223 23.611-.52-.52-1.491-1.766-2.667-4.583-2.504-5.998-2.808-11.569-2.083-16.362l-8.496 13.974c.489 1.948 1.138 3.941 1.988 5.975 2.714 6.501 6.195 10.041 10.345 10.522 1.907.221 5.595-.082 8.866-4.601 5.947-8.216 9.078-29.281 4.229-53.721z" fill="url(#SVGID_00000106107517366482536190000007642541053727228559_)" opacity=".55"/></g><path d="m267.13 212.104c-4.418.897-7.813 3.425-9.818 7.314-1.799 3.489-2.296 7.878-2.049 12.457l-2.939-2.61c-.388-.344-.982-.309-1.326.079l-4.935 5.557c-.344.388-.309.982.079 1.326l11.914 10.581c1.387 4.735 2.94 8.694 3.824 10.81.325.777 1.225 1.133 1.994.791l4.827-2.147 31.801 28.241c.563.5 1.425.449 1.925-.114l4.371-4.922c.5-.563.449-1.425-.114-1.925l-40.395-35.874c-1.822-7.02-2.674-14.162-.703-17.983.714-1.384 1.729-2.118 3.394-2.457 4.96-1.007 11.673 4.92 18.42 16.26 4.981 8.373 8.525 17.209 9.524 19.802.162.42.629.63 1.052.476l7.198-2.624c.433-.158.654-.637.49-1.068-1.045-2.737-4.769-12.088-10.199-21.239-9.305-15.683-18.839-22.658-28.335-20.731z" fill="url(#SVGID_00000032609196719935459860000001350543431273103544_)"/><path d="m267.13 212.104c-2.741.557-5.088 1.743-6.954 3.491l5.623 7.724c.701-1.146 1.673-1.783 3.183-2.09 4.959-1.007 11.673 4.92 18.42 16.26 4.982 8.373 8.525 17.209 9.524 19.802.162.42.629.63 1.052.476l7.198-2.624c.433-.158.654-.637.49-1.068-1.045-2.737-4.769-12.088-10.199-21.239-9.307-15.684-18.841-22.659-28.337-20.732z" fill="url(#SVGID_00000060723011209995884430000018179504054432486294_)" opacity=".55"/><path d="m287.401 237.488c4.982 8.373 8.525 17.209 9.524 19.802.162.42.629.63 1.052.476l7.198-2.624c.433-.158.654-.637.49-1.068-1.045-2.737-4.769-12.088-10.199-21.239-1.857-3.129-3.723-5.906-5.595-8.34l-7.531 5.483c1.666 2.144 3.362 4.655 5.061 7.51z" fill="url(#SVGID_00000084496654376160898690000010682387051459168414_)" opacity=".55"/></g></g><path d="m10.994 472.364c7.274 10.445 18.981 16.949 31.723 17.559 49.104 2.354 96.922-16.125 131.684-50.887l261.95-261.95c38.259-38.259 53.812-93.692 41.038-146.269-1.574-6.478-4.495-12.011-8.308-16.539z" fill="url(#SVGID_00000038409592615227376140000004465612205256627897_)"/></g><g><g><path d="m130.463 359.78c5.402 5.402 2.798 16.765-5.816 25.379s-19.977 11.218-25.379 5.816-2.798-16.765 5.816-25.379 19.977-11.218 25.379-5.816z" fill="url(#SVGID_00000129171557042963477000000004933551084200124303_)"/><path d="m161.658 390.975c5.402 5.402 2.798 16.765-5.816 25.379s-19.977 11.218-25.379 5.816-2.798-16.765 5.816-25.379 19.977-11.218 25.379-5.816z" fill="url(#SVGID_00000021113084862259535580000005033414311393244570_)"/></g><g><path d="m387.346 102.897c5.402 5.402 2.798 16.765-5.816 25.379s-19.977 11.218-25.379 5.816-2.798-16.765 5.816-25.379 19.977-11.218 25.379-5.816z" fill="url(#SVGID_00000060030551470959022790000017700483780804912520_)"/><path d="m418.541 134.092c5.402 5.402 2.798 16.765-5.816 25.379s-19.977 11.218-25.379 5.816-2.798-16.765 5.816-25.379 19.977-11.218 25.379-5.816z" fill="url(#SVGID_00000127745683226954600300000016900785385698405021_)"/></g></g></g></g><g/><g/><g/><g/><g/><g/><g/><g/><g/><g/><g/><g/><g/><g/><g/></svg>