<?xml version="1.0" encoding="iso-8859-1"?>
<!-- Generator: Adobe Illustrator 19.0.0, SVG Export Plug-In . SVG Version: 6.00 Build 0)  -->
<svg version="1.1" id="Layer_1" xmlns="http://www.w3.org/2000/svg" xmlns:xlink="http://www.w3.org/1999/xlink" x="0px" y="0px"
	 viewBox="0 0 512 512" style="enable-background:new 0 0 512 512;" xml:space="preserve">
<path style="fill:#328777;" d="M218.949,294.239l28.798-54.596c2.483-4.417-9.821-11.625-4.765-11.294
	c1.561,0.103,48.175,7.212,48.175,7.212l-32.655,71.46L218.949,294.239z"/>
<path style="fill:#1F544A;" d="M267.801,377.213l-70.547-18.777l19.052-71.579c1.124-0.069,25.505,10.152,25.505,10.152
	L267.801,377.213z"/>
<polygon style="fill:#FFD422;" points="340.921,391.875 167.493,345.715 158.974,374.505 334.676,420.442 "/>
<polygon style="fill:#FF9478;" points="369.446,155.56 423.747,153.272 448.692,105.682 400.603,94.283 351.188,128.129 
	351.188,158.638 "/>
<g>
	<path style="fill:#4BCDB2;" d="M183.456,130.212c-12.172,4.328-31.674,19.673-34.9,33.282c-4.963,20.94,8.277,41.925,29.073,47.459
		l91.692,24.405c4.897,1.303,7.249,6.877,4.765,11.294l-30.396,52.801l33.01,13.773l44.242-69.322
		c7.401-11.698,4.446-27.133-6.754-35.268L249.6,156.842L183.456,130.212z"/>
	<path style="fill:#4BCDB2;" d="M195.79,118.399c28.167-16.55,83.759-34.528,168.876,0.858l10.416,102.143l52.189-8.402
		l5.798,32.506l-85.28,11.547l-16.979-88.803L195.79,118.399z"/>
</g>
<polygon style="fill:#D7D5D9;" points="417.397,221.258 337.283,191.682 102.743,105.095 107.844,85.932 333.687,169.308 
	452.091,213.021 "/>
<path style="fill:#FFE477;" d="M512,427.579L512,427.579c0,0-19.504,24.067-34.594,20.05L5.271,321.966L0,341.77l472.134,125.664
	c15.089,4.016,30.579-4.96,34.594-20.05l0,0L512,427.579z"/>
<path style="fill:#1F544A;" d="M449.525,110.214c11.267-22.35,2.562-49.684-19.688-61.346c-22.47-11.778-50.233-3.11-62.01,19.361
	c-11.125,21.224-4,47.164,15.76,59.902l28.477-29.027L449.525,110.214z"/>
<polyline style="fill:#FF9478;" points="414.974,214.976 469.174,206.811 459.984,241.337 416.61,247.731 "/>
<path style="fill:#328777;" d="M242.646,293.866c1.124-0.069,48.072,19.135,48.072,19.135l-22.102,34.209l28.182,27.032l-2.656,9.98
	l-70.547-18.777L242.646,293.866z"/>
<polygon style="fill:#4BCDB2;" points="427.27,212.996 375.082,221.399 367.752,149.541 280.143,149.541 330.808,168.245 
	347.788,257.049 433.068,245.502 "/>
<g style="opacity:0.35;">
	<polyline style="fill:#1F544A;" points="447.957,107.003 445.165,112.41 401.945,103.464 413.837,93.27 447.957,107.003 	"/>
</g>
<g style="opacity:0.35;">
	<path style="fill:#1F544A;" d="M375.274,111.339l-7.667,5.545c0,0,2.593,6.81,14.507,7.252L375.274,111.339z"/>
</g>
<g style="opacity:0.39;">
	<path style="fill:#1F544A;" d="M177.726,132.777c0,0-6.575,3.182-12.015,8l90.943,21.721l-1.092-0.986L177.726,132.777z"/>
</g>
<g>
</g>
<g>
</g>
<g>
</g>
<g>
</g>
<g>
</g>
<g>
</g>
<g>
</g>
<g>
</g>
<g>
</g>
<g>
</g>
<g>
</g>
<g>
</g>
<g>
</g>
<g>
</g>
<g>
</g>
</svg>
