<svg id="Capa_1" enable-background="new 0 0 512 512" height="512" viewBox="0 0 512 512" width="512" xmlns="http://www.w3.org/2000/svg"><g><g><path d="m363.616 316.363h-31.812l20.071 77.479h31.813z" fill="#ab6b51"/></g><path d="m331.933 316.75 20.071 77.478h15.796l-20.071-77.478z" fill="#965a44"/><g><path d="m166.922 316.363h-31.811l-20.072 77.479h31.812z" fill="#ab6b51"/></g><path d="m135.239 316.75-20.071 77.478h15.796l20.071-77.478z" fill="#965a44"/><path d="m394.209 423.528h-351.084c-8.485 0-15.364-6.879-15.364-15.364s6.879-15.364 15.364-15.364h351.084c48.006 0 87.063-39.056 87.063-87.063 0-8.485 6.879-15.364 15.364-15.364s15.364 6.879 15.364 15.365c0 64.949-52.841 117.79-117.791 117.79z" fill="#bc7c63"/><path d="m497.323 297.618c-.296-4.563-.687-7.245-.687-7.245-8.485 0-15.364 6.879-15.364 15.364 0 48.006-39.056 87.063-87.063 87.063h-351.084c-5.747 0-10.75 3.161-13.384 7.835 2.635 4.673 7.637 7.835 13.384 7.835h351.085c.93 0 1.857-.011 2.781-.032 58.72-1.368 104.135-52.206 100.332-110.82z" fill="#ab6b51"/><path d="m413.227 232.364c-5.254 0-10.21 2.38-13.254 6.367-14.527 19.016-37.071 29.488-63.479 29.488h-35.067c-36.367 0-68.529-21.844-81.935-55.649-11.21-28.264-30.43-52.234-55.582-69.316-25.153-17.083-54.519-26.113-84.925-26.113h-58.84l37.712 143.844c9.439 35.489 40.433 56.909 73.613 56.909h244.35c28.494 0 54.626-15.838 67.811-41.099l20.343-41.037c.59-1.13.586-2.351.167-3.393h-50.914z" fill="#fc2d39"/><path d="m413.227 232.364c-5.254 0-10.21 2.38-13.254 6.367-14.527 19.016-37.071 29.488-63.479 29.488h-35.067c-36.367 0-68.529-21.844-81.935-55.649-11.21-28.264-30.43-52.234-55.582-69.316-25.153-17.083-54.519-26.113-84.925-26.113h-58.84l37.712 143.844c9.439 35.489 40.433 56.909 73.613 56.909h244.35c28.494 0 54.626-15.838 67.811-41.099l20.343-41.037c.59-1.13.586-2.351.167-3.393h-50.914z" fill="#ff4756"/><g><path d="m110.051 260.983-37.712-143.844h-52.196l37.712 143.844c9.439 35.489 40.433 56.909 73.612 56.909h52.196c-33.179 0-64.173-21.42-73.612-56.909z" fill="#fc2d39"/></g><g><path d="m336.493 270.279h-35.067c-36.367 0-68.529-21.844-81.935-55.649-11.21-28.264-30.43-52.234-55.582-69.316-25.153-17.084-54.519-26.114-84.925-26.114h-63.62c-8.485 0-15.364-6.879-15.364-15.364s6.879-15.364 15.364-15.364h63.62c36.586 0 71.924 10.865 102.19 31.422 30.266 20.556 53.393 49.398 66.881 83.408 8.733 22.021 29.683 36.25 53.372 36.25h35.067c17.092 0 30.234-5.858 39.06-17.412 8.819-11.548 22.903-18.443 37.674-18.443h58.74c8.485 0 15.364 6.879 15.364 15.364s-6.879 15.364-15.364 15.364h-58.74c-5.254 0-10.21 2.38-13.254 6.367-14.528 19.015-37.072 29.487-63.481 29.487z" fill="#fee55a"/></g><g><path d="m349.798 257.917h-38.158c-36.367 0-68.529-21.844-81.935-55.649-11.21-28.264-30.43-52.234-55.582-69.316-25.152-17.083-54.519-26.113-84.925-26.113h-63.62c-8.485 0-15.364-6.879-15.364-15.364 0-.735.069-1.453.169-2.16-6.037 2.069-10.383 7.782-10.383 14.521 0 8.485 6.879 15.364 15.364 15.364h63.62c30.406 0 59.772 9.03 84.925 26.113 25.152 17.083 44.372 41.053 55.582 69.316 13.407 33.806 45.568 55.649 81.935 55.649h35.067c25.202 0 46.879-9.543 61.433-26.941-13.237 9.5-29.744 14.58-48.128 14.58z" fill="#ffc20c"/></g></g></svg>