<?xml version="1.0" encoding="iso-8859-1"?>
<!-- Generator: Adobe Illustrator 19.0.0, SVG Export Plug-In . SVG Version: 6.00 Build 0)  -->
<svg version="1.1" id="Capa_1" xmlns="http://www.w3.org/2000/svg" xmlns:xlink="http://www.w3.org/1999/xlink" x="0px" y="0px"
	 viewBox="0 0 512 512" style="enable-background:new 0 0 512 512;" xml:space="preserve">
<circle style="fill:#87D7F5;" cx="256" cy="280.83" r="231.17"/>
<path style="fill:#BAEAF7;" d="M474.447,205.05l-132.509-0.001c-6.643,0-12.03-5.387-12.03-12.03c0-3.322,1.349-6.332,3.529-8.502
	c2.171-2.18,5.181-3.529,8.502-3.529h48.907c6.643,0,12.03-5.387,12.03-12.03s-5.386-12.031-12.03-12.031h-80.745
	c-6.643,0-12.03-5.387-12.03-12.03c0-6.686,5.45-12.031,12.031-12.031h57.166c6.643,0,12.03-5.387,12.03-12.03
	c0-6.594-5.333-12.03-12.031-12.03h-9.482c-6.642,0-12.03-5.387-12.03-12.03c0-6.648,5.399-12.04,12.031-12.04h20.665
	C422.782,112.479,457.027,154.828,474.447,205.05z"/>
<g>
	<path style="fill:#E1F8FC;" d="M37.651,356.89C69.104,447.192,154.978,512,256,512c2.009,0,4.012-0.026,6.01-0.077
		c-31.45-90.307-117.326-155.118-218.352-155.118C41.649,356.805,39.648,356.838,37.651,356.89z"/>
	<path style="fill:#E1F8FC;" d="M487.17,280.83c0-1.734-0.028-3.461-0.066-5.185c-56.61-0.335-160.374,16.209-299.065,111.063
		c-34.013,23.262-68.604,39.404-102.562,50.195C127.742,483.054,188.488,512,256,512C383.672,512,487.17,408.502,487.17,280.83z"/>
</g>
<path style="fill:#BAEAF7;" d="M217.652,424.551c0-27.825,9.926-53.33,26.427-73.174c-17.977,10.361-36.667,22.08-56.04,35.33
	c-34.013,23.262-68.604,39.404-102.562,50.195C127.742,483.054,188.488,512,256,512c0.736,0,1.468-0.021,2.203-0.028
	C233.402,490.964,217.652,459.6,217.652,424.551z"/>
<path style="fill:#E2A77A;" d="M80.06,385.73c-6.683,0-12.099,5.417-12.099,12.1v17.482c7.292,10.178,15.388,19.741,24.199,28.593
	V397.83C92.159,391.147,86.743,385.73,80.06,385.73z"/>
<path style="fill:#77C680;" d="M119.675,341.136h4.114c1.942,0,3.33-1.878,2.76-3.735l-18.158-59.155h3.283
	c1.404,0,2.408-1.358,1.996-2.7l-29.31-95.485c-1.301-4.238-7.3-4.238-8.601,0l-29.31,95.485c-0.412,1.342,0.592,2.7,1.995,2.7
	h3.284L33.57,337.401c-0.57,1.857,0.818,3.735,2.76,3.735h4.114l-3.869,12.605c5.48,16.501,12.761,32.181,21.625,46.796h21.86
	h53.104c2.358,0,4.044-2.281,3.352-4.535L119.675,341.136z"/>
<path style="fill:#59AA5F;" d="M100.636,233.085L84.36,180.062c-1.301-4.238-7.3-4.238-8.601,0l-29.31,95.485
	c-0.412,1.342,0.592,2.7,1.995,2.7h3.284L33.57,337.402c-0.57,1.857,0.818,3.735,2.76,3.735h4.114l-3.869,12.605
	c5.48,16.501,12.761,32.181,21.625,46.796h9.907c-2.358,0-4.044-2.281-3.351-4.535l16.84-54.865h-4.113
	c-1.942,0-3.329-1.878-2.76-3.735l18.158-59.155h-3.283c-1.404,0-2.408-1.358-1.996-2.7L100.636,233.085z"/>
<path style="fill:#757575;" d="M236.11,265.651c0.779-1.653,1.823-3.176,3.089-4.518l-10.514-7.14l-58.754,54.563
	c-13.157,12.218-13.621,32.844-1.035,45.644l71.135,72.34l22.544-22.014l-2.158-2.197l0.096-0.103l-54.074-70.568l33.107-32.666
	C227.404,279.975,236.11,265.651,236.11,265.651z"/>
<path style="fill:#666666;" d="M187.328,342.106l63.098,74.283l12.148-11.862l-2.158-2.197l0.096-0.103l-54.074-70.568
	l33.107-32.666c-5.246-8.216-6.597-15.552-6.443-21.239l-45.037,45.363C182.925,328.293,182.605,336.545,187.328,342.106z"/>
<circle style="fill:#F4C48B;" cx="110.69" cy="134.8" r="34.27"/>
<path style="fill:#E4A970;" d="M110.927,134.516c-9.73-8.016-13.897-20.274-12.044-31.884c-5.535,2.027-10.623,5.5-14.641,10.378
	c-12.034,14.609-9.948,36.207,4.661,48.242c14.609,12.034,36.208,9.948,48.242-4.661c4.019-4.878,6.454-10.537,7.383-16.358
	C133.487,144.275,120.658,142.532,110.927,134.516z"/>
<path style="fill:#F95E5A;" d="M323.329,3.776c-6.803-5.719-16.955-4.842-22.675,1.963l-56.632,67.363l-70.941,50.182
	c-1.678,1.187-3.112,2.684-4.226,4.409l-39.749,61.566c-1.408,2.18-2.267,4.667-2.505,7.251l-4.248,46.042l-62.252,40.427
	c-7.454,4.841-9.572,14.808-4.732,22.263c4.861,7.484,14.84,9.553,22.263,4.732l68.795-44.676c4.133-2.684,6.808-7.112,7.26-12.019
	l4.148-44.961l81.588,55.406l56.869-58.808l-90.219-65.543l58.229-41.189c1.123-0.795,2.139-1.73,3.025-2.783l57.965-68.95
	C331.012,19.647,330.133,9.495,323.329,3.776z"/>
<g>
	<path style="fill:#EA5050;" d="M278.902,221.339c0,0-79.432,7.834-126.525-68.125l-23.272,36.044
		c-1.408,2.18-2.267,4.667-2.505,7.252l-4.248,46.042L60.1,282.979c-7.454,4.842-9.572,14.808-4.731,22.263
		c4.86,7.483,14.842,9.554,22.262,4.732l68.795-44.676c4.133-2.684,6.808-7.113,7.26-12.019l4.149-44.961l81.588,55.406
		l40.04-41.404L278.902,221.339z"/>
	<path style="fill:#EA5050;" d="M319.164,1.237c0.809,6.582-3.505,11.522-3.505,11.522l-59.982,71.299
		c-0.889,1.056-1.911,1.992-3.043,2.782l-57.923,40.34c-1.376,0.958-1.393,2.99-0.033,3.971l11.394,8.22l58.229-41.189
		c1.123-0.795,2.139-1.73,3.025-2.783l57.965-68.95C332.284,18.133,329.179,5.412,319.164,1.237z"/>
</g>
<path style="fill:#D84545;" d="M153.687,253.278l4.148-44.961l-9.117-6.578c-2.464-1.778-5.934-0.286-6.34,2.725l-6.285,46.622
	l-73.55,48.112c0,0-4.531,2.205-9.592-0.422c0.322,2.238,1.105,4.445,2.418,6.467c4.861,7.483,14.841,9.553,22.263,4.732
	l68.795-44.676C150.559,262.613,153.235,258.185,153.687,253.278z"/>
<path style="fill:#888889;" d="M60.101,282.979c-7.454,4.841-9.572,14.808-4.732,22.262c4.845,7.458,14.812,9.569,22.263,4.732
	l12.186-7.914l-16.766-27.492L60.101,282.979z"/>
<path style="fill:#757575;" d="M89.818,302.06l-9.025-14.8l-18.249,11.937c0,0-4.531,2.205-9.592-0.422l0.001,0.002
	c0.335,2.347,1.188,4.571,2.417,6.465c4.859,7.481,14.844,9.555,22.263,4.732L89.818,302.06z"/>
<path style="fill:#888889;" d="M300.655,5.738l-10.797,12.843l24.051,21.411l11.384-13.541c5.719-6.804,4.841-16.956-1.963-22.675
	C316.526-1.944,306.375-1.067,300.655,5.738z"/>
<path style="fill:#757575;" d="M319.406,1.348c-0.081-0.035-0.16-0.077-0.241-0.112c0.809,6.582-3.505,11.522-3.505,11.522
	l-13.85,16.463l12.099,10.77l11.384-13.541C332.166,18.272,329.298,5.66,319.406,1.348z"/>
<path style="fill:#888889;" d="M296.292,204.915l-59.845,56.522c-1.335,1.38-2.425,2.964-3.235,4.683
	c0,0-10.194,16.734,6.796,38.046l76.199,95.583c4.361,5.471,11.624,7.265,17.839,4.939c1.812-0.678,3.535-1.706,5.071-3.097
	c6.216-5.625,6.69-15.257,1.465-21.812l-2.367-2.97l-61.759-89.247c-1.043-1.507-0.963-3.523,0.196-4.943l32.175-39.411
	c3.34-3.893,5.38-8.44,4.869-13.189l0.016-0.012C312.897,217.619,296.292,204.915,296.292,204.915z"/>
<path style="fill:#757575;" d="M278.902,221.339L278.902,221.339l-42.455,40.098c-1.335,1.38-2.425,2.964-3.236,4.683
	c0,0-10.194,16.735,6.796,38.046l76.199,95.583c4.361,5.471,11.624,7.264,17.84,4.939c1.435-0.538,2.811-1.302,4.086-2.284
	c-30.641-43.737-62.297-88.696-78.244-111.326c-6.091-8.644-5.074-20.415,2.408-27.889l17.172-17.155
	C286.361,239.148,286.103,227.901,278.902,221.339z"/>
<path style="fill:#EBE4DD;" d="M224.522,435.313L224.522,435.313l14.524-9.774l21.465-23.314l22.338,22.554
	c1.84,1.858,1.831,4.853-0.021,6.7l-20.591,20.537l-31.073,14.337l-5.883,2.714l-6.975-14.738
	C214.385,445.827,217.398,439.951,224.522,435.313z"/>
<path style="fill:#D8D8D8;" d="M238.944,441.543c-3.025-5.535-3.521-10.304-2.07-14.541l-12.352,8.312
	c-7.124,4.638-10.137,10.514-6.214,19.016l6.975,14.738l5.883-2.714l17.212-7.941L238.944,441.543z"/>
<path style="fill:#EBE4DD;" d="M356.758,390.742l-0.041,0.02c-6.972-12.922-22.912-18.287-36.362-11.961
	c-13.449,6.326-19.481,22.027-13.973,35.637l-0.041,0.02l6.275,14.236c0.118-0.048,0.231-0.087,0.353-0.144l50.416-23.714
	c0.083-0.039,0.15-0.082,0.228-0.122L356.758,390.742z"/>
<path style="fill:#D8D8D8;" d="M328.555,401.381l0.049-0.023c-3.354-8.288-3.098-17.226,0.092-24.985
	c-2.819,0.359-5.631,1.152-8.342,2.427c-13.449,6.326-19.481,22.027-13.973,35.637l-0.041,0.02l6.275,14.236
	c0.118-0.048,0.231-0.087,0.353-0.144l22.827-10.738L328.555,401.381z"/>
<path style="fill:#FCCB5B;" d="M166.252,493.929c14.363,6.056,29.47,10.691,45.14,13.754l200.547-93.278
	c21.751-10.116,40.458-25.684,54.362-44.956c4.953-6.865,9.298-14.204,12.951-21.928c3.72-7.866,0.359-17.257-7.507-20.978
	c-7.867-3.719-17.261-0.354-20.978,7.508c-10.767,22.773-29.277,41.163-52.116,51.784L166.252,493.929z"/>
<path style="fill:#F8A748;" d="M166.252,493.929c14.363,6.056,29.47,10.691,45.14,13.754l40.268-18.729l49.947-23.231
	c-5.666-1.629-10.627-5.593-13.309-11.359c-2.611-5.611-2.518-11.776-0.292-17.065L166.252,493.929z"/>
<g>
	<path style="fill:#BAEAF7;" d="M413.954,229.112h-17.928c-6.644,0-12.031,5.386-12.031,12.031c0,6.644,5.386,12.031,12.031,12.031
		h17.928c6.645,0,12.031-5.386,12.031-12.031C425.985,234.498,420.598,229.112,413.954,229.112z"/>
	<path style="fill:#BAEAF7;" d="M187.988,101.768c6.644,0,12.031-5.386,12.031-12.03c0-6.645,5.387-12.031,12.031-12.031h7.384
		c6.837,0,12.343-5.703,12.017-12.612c-0.305-6.471-5.879-11.449-12.357-11.449h-5.97c-38.707,7.26-74.012,24.16-103.326,48.123
		L187.988,101.768L187.988,101.768z"/>
</g>
<path style="fill:#F95E5A;" d="M65.522,100.173c-11.805,15.452-8.849,37.549,6.603,49.354l42.752-55.958
	C99.424,81.765,77.328,84.721,65.522,100.173z"/>
<g>
	<path style="fill:#EA5050;" d="M76.034,90.967c-3.97,2.265-7.562,5.346-10.512,9.207c-11.805,15.452-8.849,37.549,6.603,49.354
		l16.632-21.769C77.165,118.903,72.606,104.256,76.034,90.967z"/>
	<path style="fill:#EA5050;" d="M121.964,101.889l-39.949,52.29c-2.027,2.653-5.855,3.165-8.508,1.138l0,0
		c-2.653-2.027-3.165-5.855-1.138-8.508l39.949-52.29c2.027-2.653,5.855-3.165,8.508-1.138l0,0
		C123.478,95.408,123.99,99.236,121.964,101.889z"/>
</g>
<path style="fill:#D84545;" d="M88.995,135.044c-2.653-2.027-3.165-5.855-1.138-8.508l-15.488,20.273
	c-2.027,2.653-1.515,6.481,1.138,8.508c2.652,2.027,6.481,1.514,8.507-1.138l15.488-20.273
	C95.476,136.559,91.648,137.071,88.995,135.044z"/>
<path style="fill:#888889;" d="M115.041,110.951l-7.198,9.421c-1.648,2.157-2.344,4.75-2.162,7.273
	c0.138,1.912-1.216,3.684-3.097,4.054c-2.482,0.488-4.801,1.841-6.449,3.998l-7.198,9.421c-3.481,4.557-3.128,11.177,1.185,14.956
	c4.706,4.123,11.904,3.34,15.642-1.553l7.462-9.767c2.375-3.109,2.772-7.124,1.415-10.528c-0.134-0.335,0.148-0.705,0.507-0.664
	c3.641,0.415,7.411-1.024,9.786-4.133l7.462-9.767c3.738-4.893,2.602-12.043-2.614-15.5
	C125.002,104.995,118.522,106.394,115.041,110.951z"/>
<path style="fill:#757575;" d="M114.642,138.226c-0.134-0.335,0.148-0.705,0.507-0.664c0.052,0.006,0.105,0.003,0.157,0.008
	c-1.512-0.894-2.98-1.902-4.378-3.054c-2.048-1.687-3.834-3.571-5.385-5.588c-0.384,1.369-1.511,2.486-2.958,2.77
	c-2.482,0.488-4.802,1.841-6.449,3.998l-7.198,9.421c-3.481,4.557-3.127,11.177,1.186,14.957c4.706,4.123,11.904,3.34,15.642-1.553
	l7.462-9.767C115.601,145.646,115.999,141.63,114.642,138.226z"/>
<path style="fill:#888889;" d="M131.587,184.594c-1.62,0-3.259-0.451-4.721-1.395c-4.044-2.612-5.206-8.007-2.595-12.052
	l25.069-38.829c2.61-4.043,8.006-5.207,12.052-2.595c4.044,2.612,5.206,8.007,2.595,12.052l-25.069,38.829
	C137.251,183.187,134.449,184.594,131.587,184.594z"/>
<g>
</g>
<g>
</g>
<g>
</g>
<g>
</g>
<g>
</g>
<g>
</g>
<g>
</g>
<g>
</g>
<g>
</g>
<g>
</g>
<g>
</g>
<g>
</g>
<g>
</g>
<g>
</g>
<g>
</g>
</svg>
