<svg id="Flat" viewBox="0 0 64 64" xmlns="http://www.w3.org/2000/svg"><path d="m29 16h6a5 5 0 0 1 5 5v18a0 0 0 0 1 0 0h-16a0 0 0 0 1 0 0v-18a5 5 0 0 1 5-5z" fill="#f996a4"/><path d="m31 18h4a5 5 0 0 1 5 5v16a0 0 0 0 1 0 0h-14a0 0 0 0 1 0 0v-16a5 5 0 0 1 5-5z" fill="#f77f93"/><path d="m13 16h6a5 5 0 0 1 5 5v18a0 0 0 0 1 0 0h-16a0 0 0 0 1 0 0v-18a5 5 0 0 1 5-5z" fill="#f996a4"/><path d="m15 18h4a5 5 0 0 1 5 5v16a0 0 0 0 1 0 0h-14a0 0 0 0 1 0 0v-16a5 5 0 0 1 5-5z" fill="#f77f93"/><path d="m45 16h6a5 5 0 0 1 5 5v18a0 0 0 0 1 0 0h-16a0 0 0 0 1 0 0v-18a5 5 0 0 1 5-5z" fill="#f996a4"/><path d="m47 18h4a5 5 0 0 1 5 5v16a0 0 0 0 1 0 0h-14a0 0 0 0 1 0 0v-16a5 5 0 0 1 5-5z" fill="#f77f93"/><path d="m9 39h46v5h-46z" fill="#d88666"/><path d="m35 33h17a3 3 0 0 1 3 3v3a0 0 0 0 1 0 0h-23a0 0 0 0 1 0 0v-3a3 3 0 0 1 3-3z" fill="#f06482"/><path d="m12 33h17a3 3 0 0 1 3 3v3a0 0 0 0 1 0 0h-23a0 0 0 0 1 0 0v-3a3 3 0 0 1 3-3z" fill="#f06482"/><path d="m63 28a4 4 0 0 0 -8 0v20h5v-16.141a3.992 3.992 0 0 0 3-3.859z" fill="#db9779"/><path d="m1 28a4 4 0 0 1 8 0v20h-5v-16.141a3.992 3.992 0 0 1 -3-3.859z" fill="#db9779"/><g fill="#f06482"><path d="m34.53 20.47a.749.749 0 0 0 -1.06 0l-1.47 1.469-1.47-1.469a.75.75 0 0 0 -1.06 1.06l1.469 1.47-1.469 1.47a.75.75 0 0 0 1.06 1.06l1.47-1.469 1.47 1.469a.75.75 0 0 0 1.06-1.06l-1.469-1.47 1.469-1.47a.749.749 0 0 0 0-1.06z"/><path d="m18.53 20.47a.749.749 0 0 0 -1.06 0l-1.47 1.469-1.47-1.469a.75.75 0 0 0 -1.06 1.06l1.469 1.47-1.469 1.47a.75.75 0 0 0 1.06 1.06l1.47-1.469 1.47 1.469a.75.75 0 0 0 1.06-1.06l-1.469-1.47 1.469-1.47a.749.749 0 0 0 0-1.06z"/><path d="m49.061 23 1.469-1.47a.75.75 0 0 0 -1.06-1.06l-1.47 1.469-1.47-1.469a.75.75 0 0 0 -1.06 1.06l1.469 1.47-1.469 1.47a.75.75 0 0 0 1.06 1.06l1.47-1.469 1.47 1.469a.75.75 0 0 0 1.06-1.06z"/></g><circle cx="5" cy="28" fill="#f9fcfd" r="1.5"/><circle cx="59" cy="28" fill="#f9fcfd" r="1.5"/></svg>