<svg id="a" height="512" viewBox="0 0 512 512" width="512" xmlns="http://www.w3.org/2000/svg"><path d="m256 272h-192v-128.5487c0-17.3701 14.0812-31.4513 31.4513-31.4513h142.5487c9.9411 0 18 8.0589 18 18z" fill="#ecab2c"/><path d="m114.12 272h-50.12v-103.98c14.45.3799 26.35 11.6299 27.46 26.1299l4.71 61.2301c.72 9.38 8.54 16.62 17.95 16.62z" fill="#d78e0c"/><path d="m274 112h142.5487c17.3701 0 31.4513 14.0812 31.4513 31.4513v128.5487h-192v-142c0-9.9411 8.0589-18 18-18z" fill="#ecab2c"/><path d="m448 168.01v103.99h-51.22c9.41 0 17.23-7.24 17.95-16.62l4.71-61.2301c.56-7.3799 3.92-13.9199 8.99-18.6099 5.07-4.6901 11.85-7.54 19.25-7.54.11 0 .21 0 .32.01z" fill="#ecab2c"/><path d="m448 168.33v103.67h-55.22c9.41 0 17.23-7.24 17.95-16.62l4.71-61.2301c.56-7.3799 3.92-13.9199 8.99-18.6099 5.07-4.6901 11.85-7.54 19.25-7.54 1.47 0 2.91.11 4.32.33z" fill="#ecab2c"/><path d="m256 130c0-6.24-3.18-11.74-8-14.96v140.96h16v-140.96c-4.82 3.22-8 8.72-8 14.96z" fill="#d78e0c"/><path d="m63.9292 384c-8.2407 0-14.4214-7.5392-12.8052-15.6199l12.876-64.3801h48l-36.3906 72.7813c-2.2121 4.4241-6.7338 7.2187-11.6802 7.2187z" fill="#7a4922"/><path d="m448.0708 384c8.2407 0 14.4214-7.5392 12.8052-15.6199l-12.876-64.3801h-48l36.3906 72.7813c2.2121 4.4241 6.7338 7.2187 11.6802 7.2187z" fill="#7a4922"/><g fill="#d78e0c"><path d="m104 224h130c12.1503 0 22 9.8497 22 22v26h-172v-28c0-11.0457 8.9543-20 20-20z"/><path d="m408 224h-130c-12.1503 0-22 9.8497-22 22v26h172v-28c0-11.0457-8.9543-20-20-20z"/><g><path d="m128 160c0-4.4185-3.5815-8-8-8s-8 3.5815-8 8c-4.4185 0-8 3.5815-8 8s3.5815 8 8 8c0 4.4185 3.5815 8 8 8s8-3.5815 8-8c4.4185 0 8-3.5815 8-8s-3.5815-8-8-8z"/><path d="m192 160c0-4.4185-3.5815-8-8-8s-8 3.5815-8 8c-4.4185 0-8 3.5815-8 8s3.5815 8 8 8c0 4.4185 3.5815 8 8 8s8-3.5815 8-8c4.4185 0 8-3.5815 8-8s-3.5815-8-8-8z"/><path d="m336 160c0-4.4185-3.5815-8-8-8s-8 3.5815-8 8c-4.4185 0-8 3.5815-8 8s3.5815 8 8 8c0 4.4185 3.5815 8 8 8s8-3.5815 8-8c4.4185 0 8-3.5815 8-8s-3.5815-8-8-8z"/><path d="m400 160c0-4.4185-3.5815-8-8-8s-8 3.5815-8 8c-4.4185 0-8 3.5815-8 8s3.5815 8 8 8c0 4.4185 3.5815 8 8 8s8-3.5815 8-8c4.4185 0 8-3.5815 8-8s-3.5815-8-8-8z"/></g><path d="m448 168.01v103.99h-51.22c9.41 0 17.23-7.24 17.95-16.62l4.71-61.2301c.56-7.3799 3.92-13.9199 8.99-18.6099 5.07-4.6901 11.85-7.54 19.25-7.54.11 0 .21 0 .32.01z"/></g><path d="m429.9885 194.1495-4.7101 61.231c-.7214 9.3779-8.5413 16.6195-17.947 16.6195h-302.6628c-9.4057 0-17.2256-7.2415-17.947-16.6195l-4.7101-61.231c-1.135-14.7555-13.4392-26.1495-28.2383-26.1495-16.1971 0-29.0952 13.5591-28.2864 29.736l4.138 82.7609c1.3305 26.6105 23.2939 47.5031 49.9376 47.5031h352.8751c26.6437 0 48.6071-20.8927 49.9376-47.5031l4.138-82.7609c.8088-16.1769-12.0893-29.736-28.2864-29.736-14.7991 0-27.1032 11.394-28.2383 26.1495z" fill="#ecab2c"/></svg>