<svg id="Layer_3" height="512" viewBox="0 0 64 64" width="512" xmlns="http://www.w3.org/2000/svg" data-name="Layer 3"><path d="m25 39-11.031 2.068a10.181 10.181 0 0 0 -7.23 5.454 10.2 10.2 0 0 0 -.973 3.114l-1.766 12.364h56l-1.766-12.364a10.2 10.2 0 0 0 -.973-3.114 10.181 10.181 0 0 0 -7.23-5.454l-11.031-2.068z" fill="#38512d"/><path d="m57.261 46.522a10.181 10.181 0 0 0 -7.23-5.454l-11.031-2.068h-9l-11.031 2.068a10.184 10.184 0 0 0 -8.2 8.568l-1.769 12.364h51l-1.766-12.364a10.2 10.2 0 0 0 -.973-3.114z" fill="#3d5b34"/><path d="m44 39.938v9.062h-24v-9.062l-6 1.125v20.937h36v-20.937z" fill="#999"/><path d="m44 49h-24v-9.062l-4 .75v7.312a11 11 0 0 0 11 11h23v-17.938l-6-1.124z" fill="#b3b3b3"/><path d="m14.367 50.1a2.775 2.775 0 0 0 5.266 0l.367-1.1v-9.062l-6 1.124v7.938z" fill="#808080"/><path d="m44.367 50.1a2.775 2.775 0 0 0 5.266 0l.367-1.1v-7.938l-6-1.124v9.062z" fill="#808080"/><path d="m39 32.768v6.232l-1.317.658a12.682 12.682 0 0 1 -5.683 1.342 12.682 12.682 0 0 1 -5.683-1.341l-1.317-.659v-6.233" fill="#d08d78"/><path d="m27 37.528a2.381 2.381 0 0 0 1.317 2.13 12.665 12.665 0 0 0 4.683 1.283 12.665 12.665 0 0 0 4.683-1.283l1.317-.658v-6.232h-12z" fill="#f2b9a1"/><path d="m43.212 27.445a12.1 12.1 0 0 1 -7.6 7h-7.224a12.1 12.1 0 0 1 -7.6-7v-11.445h22.212z" fill="#d08d78"/><path d="m43.212 27.445-.212-11.445h-19.424v7.8a11.054 11.054 0 0 0 6.76 10.353q.414.163.84.3h4.436a12.1 12.1 0 0 0 7.6-7.008z" fill="#f2b9a1"/><path d="m18 21.333v-5.333a14 14 0 0 1 14-14 14 14 0 0 1 14 14v5.333l-6-4.333h-16z" fill="#4d6939"/><path d="m40.216 4.681a13.987 13.987 0 0 0 -19.216 12.986v1.5l3-2.167h16l6 4.333v-5.333a13.968 13.968 0 0 0 -5.784-11.319z" fill="#668951"/><g fill="#4d6939"><path d="m18 62v-8h6l-.001 8"/><path d="m29 62v-8h6l-.001 8"/><path d="m40 62v-8h6l-.001 8"/></g><path d="m41 9.27a2.73 2.73 0 0 0 2.73 2.73h1.683a13.983 13.983 0 0 0 -3.784-6.145l-.576 2.88a2.749 2.749 0 0 0 -.053.535z" fill="#a2a452"/><path d="m25.5 10a2.5 2.5 0 0 0 2.5-2.5 9.235 9.235 0 0 0 -.474-2.921 9.207 9.207 0 0 1 -.391-1.692 14.008 14.008 0 0 0 -8.64 9.473l4.127-1.769a7.314 7.314 0 0 1 2.878-.591z" fill="#a2a452"/><path d="m38.109 12.664a6.608 6.608 0 0 1 -1.109-3.664 2 2 0 0 0 -4 0 6.181 6.181 0 0 1 -.316 1.949l-1.017 3.051h5.333a9.134 9.134 0 0 1 1.8.186v-.007a5.28 5.28 0 0 0 -.691-1.515z" fill="#73743e"/><path d="m28 7.5a9.259 9.259 0 0 0 -.19-1.828 14.03 14.03 0 0 0 -4.785 4.771 7.293 7.293 0 0 1 2.475-.443 2.5 2.5 0 0 0 2.5-2.5z" fill="#cdcb77"/><path d="m29.516 35.937-1.477-.551a13.014 13.014 0 0 1 -8.178-7.566l-.742-1.871 1.859-.738.74 1.865a11.046 11.046 0 0 0 6.969 6.419l1.527.568z" fill="#785349"/><path d="m34.465 35.837-.574-1.916 1.434-.43a11.049 11.049 0 0 0 6.96-6.421l.55-1.2 1.817.837-.532 1.154a13.014 13.014 0 0 1 -8.209 7.54z" fill="#785349"/><path d="m37 18a4.032 4.032 0 0 1 3.862 2.873l1.648 5.493a2.293 2.293 0 0 0 2.196 1.634 2.294 2.294 0 0 0 2.294-2.294 5.3 5.3 0 0 0 -.186-1.388l-.972-3.565a9.165 9.165 0 0 0 -8.842-6.753h-10a9.165 9.165 0 0 0 -8.842 6.753l-.972 3.565a5.3 5.3 0 0 0 -.186 1.388 2.294 2.294 0 0 0 2.294 2.294 2.293 2.293 0 0 0 2.2-1.634l1.648-5.493a4.032 4.032 0 0 1 3.858-2.873z" fill="#38512d"/><path d="m47 25.706a5.3 5.3 0 0 0 -.186-1.388l-.972-3.565a9.155 9.155 0 0 0 -3.781-5.224 9.133 9.133 0 0 0 -3.061-.529h-10a9.165 9.165 0 0 0 -8.842 6.753l-.972 3.565a5.258 5.258 0 0 0 -.186 1.388 2.289 2.289 0 0 0 .394 1.286 2.289 2.289 0 0 0 2.1-1.627l1.648-5.492a4.032 4.032 0 0 1 3.858-2.873h10a4.032 4.032 0 0 1 3.862 2.873l1.648 5.492a2.293 2.293 0 0 0 4.49-.659z" fill="#4d6939"/><path d="m36 36-.207.1a8.493 8.493 0 0 1 -3.793.9 8.478 8.478 0 0 1 -3.789-.894l-.211-.106 1-4 1.105.553a4.241 4.241 0 0 0 1.895.447 4.241 4.241 0 0 0 1.9-.447l1.1-.553z" fill="#38512d"/><path d="m35.552 34.207-.552-2.207-1.1.553a4.24 4.24 0 0 1 -3.79 0l-1.11-.553-.552 2.207a8.352 8.352 0 0 0 7.1 0z" fill="#4d6939"/><path d="m18 54v.313a11.008 11.008 0 0 0 6 4.262v-4.575z" fill="#668951"/><path d="m29 54h6v5h-6z" fill="#668951"/><path d="m40 54h6v5h-6z" fill="#668951"/></svg>