<svg id="Flat" height="512" viewBox="0 0 512 512" width="512" xmlns="http://www.w3.org/2000/svg"><path d="m176 296h160s128 40 144 72c0 0 8 16 8 120h-464c0-104 8-120 8-120 16-32 144-72 144-72" fill="#7b854e"/><path d="m488 488h-248v-56s54.92-68.65 63.01-136h32.99s128 40 144 72c0 0 8 16 8 120z" fill="#828c52"/><path d="m208 248h96v72h-96z" fill="#e0b999"/><path d="m176 136h160a0 0 0 0 1 0 0v64a64 64 0 0 1 -64 64h-32a64 64 0 0 1 -64-64v-64a0 0 0 0 1 0 0z" fill="#f0c6a4"/><path d="m336 120s16-40 0-64-40-32-80-32-96 24-112 80 32 48 32 48h160z" fill="#828c52"/><path d="m336 120v32h-160s16 0 24-32z" fill="#737d49"/><path d="m227.15 103.35c-.71.32-14.4 6.67-19.39 26.59-2.38 9.55-5.5 16.7-8.86 22.06h-22.9a1.606 1.606 0 0 0 -.25 0 .808.808 0 0 0 -.15.01.1.1 0 0 0 .04-.01c.71-.11 10.67-2.22 16.6-25.94 7.03-28.11 27.8-37.07 28.68-37.44a8 8 0 0 1 6.23 14.73z" fill="#737d49"/><circle cx="272" cy="72" fill="#c3c6c7" r="16"/><path d="m304 296v32s-16 16-48 16-48-16-48-16v-32s16 16 48 16 48-16 48-16z" fill="#60663c"/><path d="m304 280 32 16 32 72-128 64s64-80 64-152z" fill="#737d49"/><path d="m328 424h128v32h-128z" fill="#60663c"/><path d="m328 456h128v32h-128z" fill="#737d49"/><path d="m256 409.5c-2.7 4.1-5.19 7.74-7.36 10.82l-104.64-52.32 32-72 32-16c0 48.5 29.05 100.64 48 129.5z" fill="#737d49"/><path d="m56 424h128v32h-128z" fill="#60663c" transform="matrix(-1 0 0 -1 240 880)"/><g fill="#737d49"><path d="m56 456h128v32h-128z" transform="matrix(-1 0 0 -1 240 944)"/><path d="m175.75 152a.808.808 0 0 0 -.15.01.1.1 0 0 0 .04-.01z"/></g></svg>