<?xml version="1.0" encoding="UTF-8"?>
<svg xmlns="http://www.w3.org/2000/svg" xmlns:xlink="http://www.w3.org/1999/xlink" version="1.1" id="Layer_29" x="0px" y="0px" viewBox="0 0 500.7 439.2" xml:space="preserve" width="512" height="512">
<g>
	<path fill="#02648E" d="M431.7,279.7l-36.2,140.9c-3,12.9-15.8,20.9-28.7,17.9c-0.1,0-0.2,0-0.3-0.1l-22.4-5.7   c-12.9-3.5-20.6-16.6-17.4-29.6l28-114.1L431.7,279.7z"/>
	<path fill="#02648E" d="M500.3,223.3l-4.5,31.4c-2.7,18.5-19.9,31.4-38.5,28.7l-25.6-3.7l16.8-98.3l23.1,3.4   C490.1,187.5,503,204.7,500.3,223.3z"/>
	<path fill="#D22732" d="M301.8,368.3l31.5,7.9l17.3-68.9l-52.7,41.5C290.7,354.5,293,366.1,301.8,368.3z"/>
	<path fill="#1F315F" d="M448.5,181.4l-16.8,98.3l-76.9,9.3l-30.8,4.8c11-26.9,18.7-55.1,22.9-83.9c3.8-25.6,4.7-51.5,2.8-77.3   L448.5,181.4z"/>
	<path fill="#1F315F" d="M260.7,195.2c-6.8,46.7-22.1,87.5-41,114.8c-17.2,24.9-37.5,38.7-57.1,35.8c-14.4-2.1-26.5-12.8-35.7-29.7   c5.3,6.1,11.5,9.9,18.3,10.8c11.4,1.6,23.1-4.7,34.1-17c8.6-9.6,16.8-22.8,24.1-38.8c7.3-15.9,13.5-34.6,18.3-55.1   c0.3-1.5,5.3-27.8,5.3-27.8c1.2-8.1,3.5-33.4,3.7-38c1.5-35.9-2.8-67.3-11.9-88.9c-7.1-16.8-17.1-27.4-29.2-29.1   c-5.1-0.7-10.3,0.2-15.4,2.5c11.5-9.3,23.6-13.6,35.5-11.9c21.5,3.2,38,25.7,47,59.1C265,112.6,267,152.5,260.7,195.2z"/>
	<path fill="#F99615" d="M230.7,150.2c-0.2,4.6-2.5,29.9-3.7,38c0,0-5,26.3-5.3,27.8c-4.8,20.5-11,39.2-18.3,55.1   c-7.2,16-15.5,29.2-24.1,38.8c-11.1,12.3-22.7,18.6-34.1,17c-6.8-1-13-4.7-18.3-10.8c-8.7-9.9-15.2-26.1-19-46.4   c0,0-8.6-42.6,0-98.5c9.5-63.5,33.9-115.3,59.7-132.8c2.2-1.5,4.4-2.7,6.6-3.7c5.2-2.3,10.4-3.2,15.4-2.5   c12.1,1.7,22,12.3,29.2,29.1C227.9,82.9,232.2,114.3,230.7,150.2z"/>
	<path fill="#D22732" d="M229.8,164.3c-0.6,7.8-1.5,15.8-2.7,23.9c0,0-2.8,17-4.1,23.2c-0.3,1.5-0.7,3.1-1,4.6l0,0   c-20-1.5-41.3-3.9-43.6-4.3c-17.5-2.5-29.8-17.3-27.5-33s18.3-26.3,35.8-23.8C189,155.5,210.6,159.5,229.8,164.3z"/>
	<path fill="#D3D3D3" d="M346.8,209.9c-4.2,28.8-11.9,56.9-22.9,83.8L219.7,310c18.9-27.3,34.2-68.1,41-114.8   c6.3-42.7,4.3-82.6-4-113.3l92.9,50.7C351.5,158.4,350.6,184.3,346.8,209.9z"/>
	<g>
		
			<rect x="65.4" y="-4" transform="matrix(0.7071 -0.7071 0.7071 0.7071 3.8371 57.5293)" fill="#58595B" width="12" height="56.3"/>
		
			<rect x="25.3" y="97" transform="matrix(0.304 -0.9527 0.9527 0.304 -97.1171 116.6611)" fill="#58595B" width="12" height="55.5"/>
		
			<rect x="20.1" y="323.2" transform="matrix(0.83 -0.5577 0.5577 0.83 -175.4095 82.8487)" fill="#58595B" width="56.3" height="12"/>
		
			<rect x="0.4" y="216.7" transform="matrix(0.9934 -0.1149 0.1149 0.9934 -25.402 4.7087)" fill="#58595B" width="55.5" height="12"/>
	</g>
</g>
</svg>
