<svg id="Capa_1" enable-background="new 0 0 512 512" height="512" viewBox="0 0 512 512" width="512" xmlns="http://www.w3.org/2000/svg"><g><path d="m496.375 15.588c-2.588-2.588-5.448-4.829-8.546-6.743-38.433-23.744-110.168 13.124-153.163 56.118-24.047 24.047-27.483 50.611-18.167 81 3.781 12.335-.168 29.092-9.5 38l-35.333 44c11.314 11.968 13.919 9.695 26.357 20.475l35.652-37.35c8.908-9.332 22.295-12.335 34.629-8.554 30.389 9.317 64.762 1.999 88.809-22.048 46.46-46.46 73.956-130.205 39.262-164.898z" fill="#dad8db"/><path d="m331.477 54.849c-24.047 24.047-31.364 58.42-22.047 88.809 3.781 12.335.778 25.722-8.554 34.63l-37.35 35.652 8.749 23.643 53.375-51.037c9.332-8.908 12.335-22.295 8.554-34.63-9.316-30.389-2-64.762 22.047-88.809 34.941-34.94 91.186-59.16 131.578-54.262-38.476-23.588-113.412 3.064-156.352 46.004z" fill="#c8c5c9"/><path d="m250.254 241.959-200.412 184.911c-4.667 4.455-10.949 8.623-17.092 10.592-16.861 5.406-26.397 13.242-26 32 .29 13.695.981 28.15 11.884 35.491 6.325 4.259 13.817 6.831 21.761 7 18.759.398 34.59-11.757 39.996-28.619 1.969-6.144 4.832-11.963 9.287-16.63l186.099-194.961z" fill="#f6d190"/><path d="m240.219 236.186-194.962 186.099c-4.667 4.455-10.486 7.317-16.629 9.286-16.861 5.406-29.016 21.235-28.619 39.992.289 13.671 7.753 26.044 18.624 33.39-2.124-4.772-3.397-10.05-3.512-15.47-.397-18.758 11.758-34.587 28.619-39.992 6.143-1.969 11.962-4.832 16.629-9.286l198.411-189.72z" fill="#ecbd83"/><path d="m275.777 271.743 22.246-23.305-18.135-18.136-19.9 3.373-3.386 18.894z" fill="#c8c5c9"/><path d="m256.602 252.569 23.286-22.267-16.363-16.363-23.306 22.247z" fill="#b6b1b7"/></g></svg>