<svg height="512" viewBox="0 0 64 64" width="512" xmlns="http://www.w3.org/2000/svg"><g id="Layer_2" data-name="Layer 2"><g fill="#efba1b"><path d="m21 36.818a1 1 0 0 1 -.786-1.617l18-22.909a1 1 0 1 1 1.572 1.235l-18 22.909a1 1 0 0 1 -.786.382z"/><path d="m54.327 3.055a1 1 0 0 0 -1.113.327l-44 56a1 1 0 0 0 .786 1.618h44a1 1 0 0 0 1-1v-56a1 1 0 0 0 -.673-.945zm-8.982 49.566a1 1 0 0 1 -1 1h-16.69a1 1 0 0 1 -.786-1.621l16.69-21.241a1 1 0 0 1 1.786.617z"/><path d="m53.21 3.38-44 56a1.009 1.009 0 0 0 -.21.62h44a1 1 0 0 0 1-1v-56a1.02 1.02 0 0 0 -.79.38zm-7.87 49.24a1 1 0 0 1 -1 1h-16.68a.99.99 0 0 1 -.9-.56.976.976 0 0 1 -.1-.44.951.951 0 0 1 .21-.62l16.69-21.24a1 1 0 0 1 .78-.38 1.257 1.257 0 0 1 .33.05 1 1 0 0 1 .67.95z"/></g><path d="m55 4v56a1 1 0 0 1 -1 1h-44a1.012 1.012 0 0 1 -.9-.56.976.976 0 0 1 -.1-.44h44a1 1 0 0 0 1-1v-56a1.257 1.257 0 0 1 .33.05 1 1 0 0 1 .67.95z" fill="#dda417"/><g fill="#424e48"><path d="m18 57a1 1 0 0 0 -1 1v2a1 1 0 0 0 2 0v-2a1 1 0 0 0 -1-1z"/><path d="m23 57a1 1 0 0 0 -1 1v2a1 1 0 0 0 2 0v-2a1 1 0 0 0 -1-1z"/><path d="m28 57a1 1 0 0 0 -1 1v2a1 1 0 0 0 2 0v-2a1 1 0 0 0 -1-1z"/><path d="m33 57a1 1 0 0 0 -1 1v2a1 1 0 0 0 2 0v-2a1 1 0 0 0 -1-1z"/><path d="m38 57a1 1 0 0 0 -1 1v2a1 1 0 0 0 2 0v-2a1 1 0 0 0 -1-1z"/><path d="m43 57a1 1 0 0 0 -1 1v2a1 1 0 0 0 2 0v-2a1 1 0 0 0 -1-1z"/><path d="m48 57a1 1 0 0 0 -1 1v2a1 1 0 0 0 2 0v-2a1 1 0 0 0 -1-1z"/><path d="m53.5 53.5h-2a1 1 0 0 0 0 2h2a1 1 0 0 0 0-2z"/><path d="m53.5 48.5h-2a1 1 0 0 0 0 2h2a1 1 0 0 0 0-2z"/><path d="m53.5 43.5h-2a1 1 0 0 0 0 2h2a1 1 0 0 0 0-2z"/><path d="m53.5 38.5h-2a1 1 0 0 0 0 2h2a1 1 0 0 0 0-2z"/><path d="m53.5 33.5h-2a1 1 0 0 0 0 2h2a1 1 0 0 0 0-2z"/><path d="m53.5 28.5h-2a1 1 0 0 0 0 2h2a1 1 0 0 0 0-2z"/><path d="m53.5 23.5h-2a1 1 0 0 0 0 2h2a1 1 0 0 0 0-2z"/><path d="m51.5 19.5h2a1 1 0 0 0 0-2h-2a1 1 0 0 0 0 2z"/></g></g></svg>