<svg id="Capa_1" enable-background="new 0 0 512 512" viewBox="0 0 512 512" xmlns="http://www.w3.org/2000/svg"><g><path d="m477.145 222.431v-16.97c0-4.142-3.357-7.5-7.5-7.5s-7.5 3.358-7.5 7.5v16.97z" fill="#ae847f"/><g><path d="m445.064 431.117h-32.253c8.139-13.455 12.576-29.4 11.891-46.425-1.383-34.365-23.904-63.488-54.793-74.755v28.599l.201.267c10.588 14.036 16.316 30.675 16.566 48.119.221 15.439-3.862 30.542-11.808 43.678l-.918 1.518h34.026c12.784 0 23.185 10.4 23.185 23.184v16.016h32.935c2.845 0 5.151-2.306 5.151-5.151v-10.865c.001-13.358-10.827-24.185-24.183-24.185z" fill="#d88a55"/><g><path d="m449.729 247.39c7.196 1.916 12.521 8.471 12.521 16.262 0 9.289-7.557 16.845-16.845 16.845h-9.375c7.053 17.323 19.466 28.831 33.613 28.831 21.97 0 39.78-27.731 39.78-61.939h-59.694z" fill="#d88a55"/><g><path d="m484.936 247.39c0 27.554-11.559 50.894-27.536 58.936 3.858 1.942 7.971 3.003 12.244 3.003 21.97 0 39.78-27.731 39.78-61.939z" fill="#c57a44"/></g><path d="m493.165 221.431h-47.041c-10.402 0-18.835 8.433-18.835 18.835v3.34c0 1.217.439 2.32 1.145 3.201h16.972c2.832 0 5.498.71 7.843 1.95h53.6c2.845 0 5.151-2.306 5.151-5.151v-3.34c0-10.403-8.433-18.835-18.835-18.835z" fill="#82635e"/><g><g><path d="m493.165 221.431h-8.229v27.326h21.913c2.845 0 5.151-2.306 5.151-5.151v-3.34c0-10.403-8.433-18.835-18.835-18.835z" fill="#6d524e"/></g></g></g><g><path d="m294.497 470.287c-31.289-1.3-60.51-14.495-82.28-37.156-21.83-22.724-33.852-52.59-33.852-84.096v-2.706c0-34.887 15.017-68.055 41.207-91.071l-.385-1.039c.172-.15.332-.314.503-.465v-103.225c0-60.666-49.179-109.845-109.845-109.845-60.666-.001-109.845 49.179-109.845 109.845v2.626c0 2.845 2.306 5.151 5.151 5.151h64.172c40.097 0 72.602 32.505 72.602 72.602v135.031c0 58.199 47.18 105.379 105.379 105.379h51.931v-1.034z" fill="#d88a55"/></g><g><path d="m294.497 470.286c-31.289-1.3-60.51-14.495-82.28-37.156-21.83-22.724-33.852-52.59-33.852-84.096v-2.706c0-34.887 15.017-68.055 41.207-91.071l-.385-1.039c.172-.15.332-.314.503-.465v-103.224c0-60.666-49.179-109.845-109.845-109.845-16.672 0-32.473 3.721-46.628 10.368 1.128-.034 2.259-.057 3.395-.057 60.666 0 109.845 49.179 109.845 109.845l-.106 93.76c-.008 6.719-2.68 13.13-7.339 17.971-12.177 12.654-21.37 27.717-27.088 44.08v49.288c0 58.199 47.18 105.379 105.379 105.379h51.931v-1.034z" fill="#c57a44"/></g><g><path d="m336.449 78.924c0 .882.341 1.707.96 2.322.611.607 1.418.942 2.272.941.305 0 .61-.043.906-.129 4.74-1.368 9.418-2.143 14.299-2.367.999-.046 2.011-.069 3.007-.069 4.237 0 8.38.422 12.395 1.205.03-.632.063-1.263.063-1.902 0-14.317-7.582-26.705-18.623-32.709-.945-.514-2.081-.514-3.026 0-6.79 3.692-12.263 9.805-15.477 17.291 2.078 4.712 3.224 9.949 3.224 15.417z" fill="#d88a55"/></g><g><path d="m380.733 267.31c9.084 9.084 21.405 14.188 34.252 14.188h30.421c9.856 0 17.846-7.99 17.846-17.846 0-9.856-7.99-17.846-17.846-17.846h-30.421c-3.381 0-6.624-1.343-9.014-3.734l-34.312-34.312c32.296-2.117 63.907-27.154 67.395-58.728.338-3.064-2.084-5.762-5.166-5.774-6.037-.023-11.193-4.4-12.154-10.364-5.116-31.756-33.356-55.775-66.895-54.232-5.052.232-9.871 1.06-14.536 2.406-1.428.412-2.823-.66-2.823-2.146-.001-14.316-7.584-26.703-18.623-32.706-.941-.512-2.07-.519-3.012-.007-11.048 6.001-18.637 18.393-18.637 32.716v38.918c0 24.633-8.13 48.577-23.127 68.118l-40.406 52.646c-4.332 5.644-9.127 10.933-14.486 15.612-26.489 23.125-41.853 56.67-41.853 92.11v2.706c0 65.811 51.992 119.586 117.141 122.282 0 0 137.685-.115 137.685-.115v-15.901c0-13.356-10.828-24.184-24.184-24.184h-32.253c7.785-12.87 12.183-28.017 11.952-44.21-.26-18.2-6.474-35.061-16.767-48.706v-80.715z" fill="#f6a96c"/></g><path d="m370.908 339.864v-82.379h-19.102c-17.069 0-30.906 13.837-30.906 30.905v19.213c20.397 4.172 38.114 15.966 50.008 32.261z" fill="#fed2a4"/><g><g><path d="m402.286 132.378c8.122 21.658 7.653 53.287-11.363 66.605-4.685 3.281-9.743 6.087-15.03 8.354 30.775-3.912 59.827-28.112 63.162-58.305.338-3.064-2.084-5.762-5.166-5.774-6.037-.023-11.193-4.4-12.154-10.364-5.116-31.756-33.356-55.775-66.895-54.232-3.922.18-7.7.729-11.378 1.59 30.067 3.428 52.643 35.643 58.824 52.126z" fill="#ea9b58"/></g></g><g><g><path d="m445.406 245.807h-3.598c.107.789.181 1.588.181 2.407 0 9.856-7.99 17.846-17.846 17.846h-44.661l1.251 1.251c9.084 9.084 21.405 14.188 34.252 14.188h30.421c9.856 0 17.846-7.99 17.846-17.846-.001-9.856-7.99-17.846-17.846-17.846z" fill="#ea9b58"/></g></g></g><g><g><path d="m387.955 142.83c-4.143 0-7.5-3.358-7.5-7.5v-6.863c0-4.142 3.357-7.5 7.5-7.5s7.5 3.358 7.5 7.5v6.863c0 4.142-3.357 7.5-7.5 7.5z" fill="#6d524e"/></g></g><path d="m407.977 431.117h-32.253c8.138-13.455 12.576-29.398 11.891-46.422-1.74-43.265-36.968-78.253-80.243-79.715-16.747-.565-32.432 3.823-45.705 11.812-4.606 2.772-2.193 9.8 3.155 9.255 3.699-.377 7.47-.511 11.297-.386 43.328 1.416 78.592 36.399 80.335 79.716.468 11.629-1.454 22.754-5.314 32.926-2.475 6.524 2.385 13.498 9.362 13.498h16.313c11.759 0 21.554 8.394 23.729 19.517h31.615v-16.018c.002-13.356-10.826-24.183-24.182-24.183z" fill="#ea9b58"/></g><g/><g/><g/><g/><g/><g/><g/><g/><g/><g/><g/><g/><g/><g/><g/></svg>