<svg id="Capa_1" enable-background="new 0 0 497.004 497.004" height="512" viewBox="0 0 497.004 497.004" width="512" xmlns="http://www.w3.org/2000/svg"><g><g><path d="m370.935 317.428h-44.823c-4.143 0-7.5-3.357-7.5-7.5s3.357-7.5 7.5-7.5h44.823c4.143 0 7.5 3.357 7.5 7.5s-3.357 7.5-7.5 7.5z" fill="#a2aee6"/></g><g><path d="m412.028 432.438h-85.916c-4.143 0-7.5-3.357-7.5-7.5s3.357-7.5 7.5-7.5h85.916c4.143 0 7.5 3.357 7.5 7.5s-3.357 7.5-7.5 7.5z" fill="#d5daf3"/></g><path d="m497.004 247.52v13.58c0 7.95-6.45 14.41-14.42 14.41h-309.65v-110.81c0-9.11 3.61-17.85 10.03-24.31l23.08-23.22 9.92-9.97c19.02-19.13 31.14-20.47 31.14-20.47h89.68l136.65 117.96 10.88 9.39c11.3 8.3 12.69 20.55 12.69 33.44z" fill="#8d9ca8"/><path d="m497.004 247.52v13.58c0 7.95-6.45 14.41-14.42 14.41h-23.57c7.97 0 14.42-6.46 14.42-14.41v-56.41l10.88 9.39c11.3 8.3 12.69 20.55 12.69 33.44z" fill="#7a8c98"/><path d="m258.344 268.24v34.76c0 7.97-6.46 14.43-14.42 14.43h-229.49c-8.96 0-15.74-8.07-14.22-16.88l11.59-66.89c2.22-12.83 11.89-23.09 24.57-26.05l184.07 32.8 28.59 5.09c5.96 6.07 9.31 14.23 9.31 22.74z" fill="#8d9ca8"/><path d="m258.344 268.24v34.76c0 7.97-6.46 14.43-14.42 14.43h-23.57c7.96 0 14.41-6.46 14.41-14.43v-34.76c0-8.51-3.34-16.67-9.31-22.74l-5.01-5.09 28.59 5.09c5.96 6.07 9.31 14.23 9.31 22.74z" fill="#7a8c98"/><g><path d="m387.021 223.259c-3.715 0-6.94-2.759-7.429-6.541l-3.503-27.147c-.53-4.108 2.37-7.868 6.479-8.398 4.113-.53 7.868 2.37 8.398 6.479l3.503 27.147c.53 4.108-2.37 7.868-6.479 8.398-.326.041-.649.062-.969.062z" fill="#7a8c98"/></g><path d="m487.467 180.363c6.076 5.56 9.537 13.417 9.537 21.653v45.5c0-13.419-9.117-25.132-22.129-28.425l-89.48-22.644c-3.884-.983-7.226-3.453-9.306-6.877l-44.08-72.574c-8.678-14.277-24.177-22.998-40.889-22.998h-43.432c-11.906 0-23.33 4.752-31.729 13.204l32.276-32.469c6.468-6.511 15.264-10.169 24.435-10.169h138.135c18.128 0 32.823 14.695 32.823 32.823v33.875c0 5.727 2.406 11.19 6.631 15.055z" fill="#bec6ed"/><g><path d="m487.467 180.363-37.207-34.044c-4.225-3.866-6.631-9.329-6.631-15.055v-33.875c0-18.128-14.695-32.823-32.823-32.823h-23.572c18.128 0 32.823 14.695 32.823 32.823v33.875c0 5.727 2.406 11.19 6.631 15.055l37.207 34.044c6.077 5.56 9.537 13.417 9.537 21.653v16.71l1.443.365c13.011 3.293 22.129 15.006 22.129 28.425v-45.5c0-8.236-3.461-16.093-9.537-21.653z" fill="#a2aee6"/></g><g><path d="m140.971 267.543c-2.6 0-5.126-1.353-6.513-3.769l-13.243-23.085c-2.061-3.594-.819-8.177 2.773-10.238 3.595-2.06 8.177-.818 10.238 2.773l13.243 23.085c2.061 3.594.819 8.177-2.773 10.238-1.176.676-2.459.996-3.725.996z" fill="#7a8c98"/></g><path d="m249.029 245.5-119.569-2.233c-6.75-.126-13.413-1.557-19.62-4.213l-73.464-31.44 124.92-29.155c10.995-2.564 22.547.783 30.474 8.839z" fill="#d5daf3"/><path d="m168.199 187.298 56.817 57.753 24.013.448-57.258-58.202c-7.927-8.056-19.479-11.402-30.474-8.839l-4.994 1.165c4.413 1.629 8.491 4.214 11.896 7.675z" fill="#bec6ed"/><path d="m370.935 317.428h58.436c20.613-.832 16.514-30.013.21-35.021l-36.049-14.443c-14.918-7.015-37.297 10.216-36.856 25.889-1.01 10.609.985 23.383 14.259 23.575z" fill="#bec6ed"/><path d="m429.582 282.406-36.049-14.443c-5.981-2.812-13.159-1.722-19.587 1.597l32.064 12.847c16.304 5.008 20.403 34.189-.21 35.021h23.572c20.612-.833 16.513-30.014.21-35.022z" fill="#a2aee6"/><path d="m326.112 432.438h-101.523c-35.811-1.446-28.69-52.143-.365-60.844l62.63-25.093c25.918-12.187 64.797 17.748 64.031 44.978 1.756 18.433-1.71 40.626-24.773 40.959z" fill="#d5daf3"/><path d="m350.885 391.479c.748-26.583-36.287-55.737-62.161-45.768 20.258 6.35 39.125 26.719 38.589 45.768 1.756 18.433-1.71 40.626-24.772 40.959h23.572c23.062-.333 26.528-22.526 24.772-40.959z" fill="#bec6ed"/><circle cx="412.028" cy="370.302" fill="#8d9ca8" r="7.557"/></g></svg>