<svg height="512" viewBox="0 0 64 64" width="512" xmlns="http://www.w3.org/2000/svg"><g id="_16-Strom" data-name="16-Strom"><g fill="#7aaeef"><path d="m55.76 46.24c.62.61-.04 3.74-1.23 4.93a2.616 2.616 0 0 1 -3.7-3.7c1.19-1.19 4.32-1.85 4.93-1.23z"/><path d="m44.76 54.24c.62.61-.04 3.74-1.23 4.93a2.616 2.616 0 0 1 -3.7-3.7c1.19-1.19 4.32-1.85 4.93-1.23z"/><path d="m8.76 57.24c.62.61-.04 3.74-1.23 4.93a2.478 2.478 0 0 1 -3.7 0 2.478 2.478 0 0 1 0-3.7c1.19-1.19 4.32-1.85 4.93-1.23z"/><path d="m26.76 57.24c.62.61-.04 3.74-1.23 4.93a2.616 2.616 0 0 1 -3.7-3.7c1.19-1.19 4.32-1.85 4.93-1.23z"/><path d="m21.76 47.24c.62.61-.04 3.74-1.23 4.93a2.478 2.478 0 0 1 -3.7 0 2.478 2.478 0 0 1 0-3.7c1.19-1.19 4.32-1.85 4.93-1.23z"/><path d="m35.76 44.24c.62.61-.04 3.74-1.23 4.93a2.616 2.616 0 0 1 -3.7-3.7c1.19-1.19 4.32-1.85 4.93-1.23z"/><path d="m26.76 36.24c.62.61-.04 3.74-1.23 4.93a2.616 2.616 0 0 1 -3.7-3.7c1.19-1.19 4.32-1.85 4.93-1.23z"/></g><path d="m12 30a6.812 6.812 0 0 0 3.87-1.19l.13.19-4 5h6l-13 14 6-11h-6l5-7 .07-.27a6.819 6.819 0 0 0 1.93.27z" fill="#ffdc70"/><path d="m50 29-6 7h9l-18 19 7-14h-7l6-8a7.993 7.993 0 0 0 7.61-5.54 6.494 6.494 0 0 0 1.52 1.35z" fill="#ffdc70"/><path d="m56.32 16.4a7 7 0 0 1 -2.32 13.6 6.812 6.812 0 0 1 -3.87-1.19 6.494 6.494 0 0 1 -1.52-1.35 7.993 7.993 0 0 1 -7.61 5.54c-4.42 0-7-2-8-6-1 4-3.58 6-8 6a7.993 7.993 0 0 1 -7.61-5.54 6.494 6.494 0 0 1 -1.52 1.35 6.933 6.933 0 0 1 -5.8.92 7 7 0 0 1 -1.3-12.94 4.982 4.982 0 0 1 3.23-8.79 4.912 4.912 0 0 1 3.09 1.1 7.9 7.9 0 0 1 -.09-1.1 7 7 0 0 1 13.6-2.32 4.952 4.952 0 0 1 8.8 0 7 7 0 0 1 13.6 2.32v.02a4.981 4.981 0 1 1 5.32 8.38z" fill="#b0afb5"/><path d="m54 22a6.975 6.975 0 0 1 -5.39-2.54 7.993 7.993 0 0 1 -7.61 5.54c-4.42 0-7-2-8-6-1 4-3.58 6-8 6a7.993 7.993 0 0 1 -7.61-5.54 6.992 6.992 0 0 1 -11.123-.448 6.989 6.989 0 0 0 11.123 8.448 7.993 7.993 0 0 0 7.61 5.54c4.42 0 7-2 8-6 1 4 3.58 6 8 6a7.993 7.993 0 0 0 7.61-5.54 6.993 6.993 0 0 0 11.128-8.455 6.983 6.983 0 0 1 -5.738 2.995z" fill="#959499"/><path d="m15.87 28.81a6.933 6.933 0 0 1 -5.8.92l-.07.27-1.479 2.071a6.968 6.968 0 0 0 3.479.929 7.089 7.089 0 0 0 .842-.052l3.158-3.948z" fill="#f3b83a"/><path d="m50.13 28.81a6.494 6.494 0 0 1 -1.52-1.35 7.993 7.993 0 0 1 -7.61 5.54l-2.1 2.8a11.536 11.536 0 0 0 2.1.2 7.936 7.936 0 0 0 3.864-1.008l3.617-4.22c.04-.106.094-.2.129-.312.022.027.049.051.072.078l1.318-1.538z" fill="#f3b83a"/><path d="m48 11.588c.015.572.509.977.925 1.344a8.114 8.114 0 0 1 .822.836c.7.828 1.33 1.859 2.343 2.167a1.1 1.1 0 0 0 .78-.013 1.262 1.262 0 0 0 .4-.327 3.223 3.223 0 0 0 .5-3.251 4.282 4.282 0 0 0 -3.124-2.287c-.931-.237-2.678.263-2.646 1.531z" fill="#e8e7f0"/><path d="m44.5 6c-.044.364.272.652.543.889a7.917 7.917 0 0 1 1.038 1.1c.191.247.425.534.73.506a.581.581 0 0 0 .411-.275 1.543 1.543 0 0 0 .188-.483 2.174 2.174 0 0 0 .084-.635 1.582 1.582 0 0 0 -.8-1.232c-.411-.247-2.082-.754-2.194.13z" fill="#e8e7f0"/><path d="m55.53 49.17a2.478 2.478 0 0 1 -3.7 0 2.641 2.641 0 0 1 -.823-1.856c-.062.051-.123.1-.177.156a2.616 2.616 0 0 0 3.7 3.7 5.444 5.444 0 0 0 1.155-2.17c-.051.056-.102.117-.155.17z" fill="#6994d4"/><path d="m44.53 57.17a2.478 2.478 0 0 1 -3.7 0 2.641 2.641 0 0 1 -.823-1.856c-.062.051-.123.1-.177.156a2.616 2.616 0 0 0 3.7 3.7 5.444 5.444 0 0 0 1.155-2.17c-.051.056-.102.117-.155.17z" fill="#6994d4"/><path d="m26.53 60.17a2.478 2.478 0 0 1 -3.7 0 2.641 2.641 0 0 1 -.823-1.856c-.062.051-.123.1-.177.156a2.616 2.616 0 0 0 3.7 3.7 5.444 5.444 0 0 0 1.155-2.17c-.051.056-.102.117-.155.17z" fill="#6994d4"/><path d="m8.53 60.17a2.478 2.478 0 0 1 -3.7 0 2.641 2.641 0 0 1 -.823-1.856c-.062.051-.123.1-.177.156a2.478 2.478 0 0 0 0 3.7 2.478 2.478 0 0 0 3.7 0 5.444 5.444 0 0 0 1.155-2.17c-.051.056-.102.117-.155.17z" fill="#6994d4"/><path d="m21.53 50.17a2.478 2.478 0 0 1 -3.7 0 2.641 2.641 0 0 1 -.823-1.856c-.062.051-.123.1-.177.156a2.478 2.478 0 0 0 0 3.7 2.478 2.478 0 0 0 3.7 0 5.444 5.444 0 0 0 1.155-2.17c-.051.056-.102.117-.155.17z" fill="#6994d4"/><path d="m35.53 47.17a2.478 2.478 0 0 1 -3.7 0 2.641 2.641 0 0 1 -.823-1.856c-.062.051-.123.1-.177.156a2.616 2.616 0 0 0 3.7 3.7 5.444 5.444 0 0 0 1.155-2.17c-.051.056-.102.117-.155.17z" fill="#6994d4"/><path d="m26.53 39.17a2.478 2.478 0 0 1 -3.7 0 2.641 2.641 0 0 1 -.823-1.856c-.062.051-.123.1-.177.156a2.616 2.616 0 0 0 3.7 3.7 5.444 5.444 0 0 0 1.155-2.175c-.051.061-.102.122-.155.175z" fill="#6994d4"/></g></svg>