<svg id="Capa_1" enable-background="new 0 0 512 512" height="512" viewBox="0 0 512 512" width="512" xmlns="http://www.w3.org/2000/svg" xmlns:xlink="http://www.w3.org/1999/xlink"><linearGradient id="lg1"><stop offset="0" stop-color="#d1f19e"/><stop offset="1" stop-color="#78a91f"/></linearGradient><linearGradient id="SVGID_1_" gradientUnits="userSpaceOnUse" x1="152.52" x2="187.488" xlink:href="#lg1" y1="76.762" y2="83.12"/><linearGradient id="lg2"><stop offset="0" stop-color="#026841" stop-opacity="0"/><stop offset=".3243" stop-color="#046842" stop-opacity=".324"/><stop offset=".5509" stop-color="#0e6546" stop-opacity=".551"/><stop offset=".7476" stop-color="#1d614c" stop-opacity=".748"/><stop offset=".9263" stop-color="#335c54" stop-opacity=".926"/><stop offset="1" stop-color="#3e5959"/></linearGradient><linearGradient id="SVGID_00000103263133184330955900000013690576920223083683_" gradientUnits="userSpaceOnUse" x1="150.614" x2="163.686" xlink:href="#lg2" y1="31.093" y2="68.053"/><linearGradient id="lg3"><stop offset="0" stop-color="#78a91f"/><stop offset=".1553" stop-color="#6da423"/><stop offset=".428" stop-color="#50992e"/><stop offset=".7835" stop-color="#218741"/><stop offset="1" stop-color="#017b4e"/></linearGradient><linearGradient id="SVGID_00000176756107346406066410000010485686359511266990_" gradientTransform="matrix(.259 .966 .966 -.259 -32.75 623.221)" gradientUnits="userSpaceOnUse" x1="-497.047" x2="-419.026" xlink:href="#lg3" y1="227.812" y2="227.812"/><linearGradient id="lg4"><stop offset="0" stop-color="#017b4e" stop-opacity="0"/><stop offset=".473" stop-color="#01774b" stop-opacity=".473"/><stop offset=".8807" stop-color="#016d44" stop-opacity=".881"/><stop offset="1" stop-color="#026841"/></linearGradient><linearGradient id="SVGID_00000034088615871555893250000008857604751215831484_" gradientUnits="userSpaceOnUse" x1="71.926" x2="67.531" xlink:href="#lg4" y1="157.347" y2="103.598"/><linearGradient id="SVGID_00000169533436860718301690000015923873679157922432_" gradientTransform="matrix(.259 .966 .966 -.259 -32.75 623.221)" gradientUnits="userSpaceOnUse" x1="-458.036" x2="-458.036" xlink:href="#lg4" y1="200.354" y2="276.355"/><linearGradient id="SVGID_00000178169639161149680760000015042494629494667191_" gradientUnits="userSpaceOnUse" x1="11.647" x2="69.792" xlink:href="#lg4" y1="135.531" y2="123.361"/><linearGradient id="SVGID_00000144302911119770054240000003592120916022662063_" gradientTransform="matrix(-.259 .966 -.966 -.259 762.163 623.221)" gradientUnits="userSpaceOnUse" x1="-394.683" x2="-316.662" xlink:href="#lg3" y1="609.837" y2="609.837"/><linearGradient id="SVGID_00000089558193835522052780000012674463954692377018_" gradientTransform="matrix(-1 0 0 1 729.413 0)" gradientUnits="userSpaceOnUse" x1="467.428" x2="463.033" xlink:href="#lg4" y1="157.347" y2="103.598"/><linearGradient id="SVGID_00000155121293709688839190000004635471652322121911_" gradientTransform="matrix(-.259 .966 -.966 -.259 762.163 623.221)" gradientUnits="userSpaceOnUse" x1="-355.673" x2="-355.673" xlink:href="#lg4" y1="582.379" y2="658.38"/><linearGradient id="SVGID_00000067217495556829696640000002095960687839625892_" gradientTransform="matrix(-1 0 0 1 729.413 0)" gradientUnits="userSpaceOnUse" x1="407.149" x2="465.293" xlink:href="#lg4" y1="135.531" y2="123.361"/><linearGradient id="lg5"><stop offset="0" stop-color="#fd4755"/><stop offset="1" stop-color="#a72b2b"/></linearGradient><linearGradient id="SVGID_00000054268045512372396850000007739168595270659483_" gradientUnits="userSpaceOnUse" x1="63.707" x2="202.983" xlink:href="#lg5" y1="239.974" y2="283.244"/><linearGradient id="lg6"><stop offset="0" stop-color="#a72b2b" stop-opacity="0"/><stop offset=".2378" stop-color="#a22c2b" stop-opacity=".238"/><stop offset=".5507" stop-color="#912e29" stop-opacity=".551"/><stop offset=".9042" stop-color="#763227" stop-opacity=".904"/><stop offset="1" stop-color="#6d3326"/></linearGradient><linearGradient id="SVGID_00000031915993984386109030000000304391800635311524_" gradientUnits="userSpaceOnUse" x1="67.695" x2="27.805" xlink:href="#lg6" y1="180.025" y2="150.277"/><linearGradient id="SVGID_00000103233096595032044500000010479725282274124968_" gradientUnits="userSpaceOnUse" x1="141.381" x2="96.083" xlink:href="#lg6" y1="164.971" y2="131.842"/><linearGradient id="SVGID_00000001637640672393442730000011221621665908919726_" gradientUnits="userSpaceOnUse" x1="208.481" x2="167.239" xlink:href="#lg6" y1="164.625" y2="134.2"/><linearGradient id="SVGID_00000053537220663475077920000017507960594098715053_" gradientUnits="userSpaceOnUse" x1="269.67" x2="246.007" xlink:href="#lg6" y1="179.173" y2="164.299"/><linearGradient id="SVGID_00000069356022244550995050000000170044740161009032_" gradientUnits="userSpaceOnUse" x1="112.01" x2="61.303" xlink:href="#lg6" y1="233.558" y2="199.077"/><linearGradient id="SVGID_00000057123237399367377560000003358043087235869330_" gradientUnits="userSpaceOnUse" x1="173.428" x2="132.862" xlink:href="#lg6" y1="218.269" y2="192.577"/><linearGradient id="SVGID_00000049220282572281368140000001147104313957505968_" gradientUnits="userSpaceOnUse" x1="255.576" x2="206.345" xlink:href="#lg6" y1="234.446" y2="212.106"/><linearGradient id="SVGID_00000153672450674074174830000008605349019731975843_" gradientUnits="userSpaceOnUse" x1="74.753" x2="24.722" xlink:href="#lg6" y1="288.604" y2="254.123"/><linearGradient id="SVGID_00000048487941283109323950000017311023567060913044_" gradientUnits="userSpaceOnUse" x1="143.688" x2="98.39" xlink:href="#lg6" y1="275.384" y2="249.692"/><linearGradient id="SVGID_00000053542363218100710560000003814241734566140819_" gradientUnits="userSpaceOnUse" x1="221.756" x2="172.525" xlink:href="#lg6" y1="278.919" y2="256.579"/><linearGradient id="SVGID_00000054254220815126034000000017860930548514275217_" gradientUnits="userSpaceOnUse" x1="289.396" x2="240.166" xlink:href="#lg6" y1="291.744" y2="269.404"/><linearGradient id="SVGID_00000131351786562890282000000004762546436843615651_" gradientUnits="userSpaceOnUse" x1="118.759" x2="63.996" xlink:href="#lg6" y1="349.787" y2="309.221"/><linearGradient id="SVGID_00000052076796652419147510000014458045301387236266_" gradientUnits="userSpaceOnUse" x1="187.936" x2="138.705" xlink:href="#lg6" y1="334.148" y2="311.808"/><linearGradient id="SVGID_00000179643570541084699940000013076854658317195930_" gradientUnits="userSpaceOnUse" x1="255.576" x2="206.345" xlink:href="#lg6" y1="344.905" y2="322.565"/><linearGradient id="SVGID_00000046298711933333536030000006316131075987813786_" gradientUnits="userSpaceOnUse" x1="154.116" x2="104.885" xlink:href="#lg6" y1="400.134" y2="377.794"/><linearGradient id="SVGID_00000090271658861002842610000004762398291501044882_" gradientUnits="userSpaceOnUse" x1="221.756" x2="172.525" xlink:href="#lg6" y1="400.134" y2="377.794"/><linearGradient id="lg7"><stop offset="0" stop-color="#fac600"/><stop offset="1" stop-color="#fe9738"/></linearGradient><linearGradient id="SVGID_00000009554271895349086980000012207531741701424769_" gradientUnits="userSpaceOnUse" x1="59.061" x2="68.977" xlink:href="#lg7" y1="175.167" y2="180.125"/><linearGradient id="SVGID_00000091009399720650143380000010324530348877883060_" gradientUnits="userSpaceOnUse" x1="131.351" x2="138.45" xlink:href="#lg7" y1="157.836" y2="162.23"/><linearGradient id="SVGID_00000067201271381462797580000009213203457649545353_" gradientUnits="userSpaceOnUse" x1="199.512" x2="204.921" xlink:href="#lg7" y1="157.993" y2="162.049"/><linearGradient id="SVGID_00000098918006816579764440000008289496781444617874_" gradientUnits="userSpaceOnUse" x1="263.492" x2="272.957" xlink:href="#lg7" y1="174.867" y2="181.628"/><linearGradient id="SVGID_00000079467206261784410330000007190589209478876308_" gradientUnits="userSpaceOnUse" x1="95.849" x2="105.315" xlink:href="#lg7" y1="222.698" y2="228.782"/><linearGradient id="SVGID_00000142875460819581614080000003269212718480993713_" gradientUnits="userSpaceOnUse" x1="162.988" x2="171.44" xlink:href="#lg7" y1="212.265" y2="216.322"/><linearGradient id="SVGID_00000135669322227090294750000007263655654769871542_" gradientUnits="userSpaceOnUse" x1="231.056" x2="236.803" xlink:href="#lg7" y1="223.052" y2="226.094"/><linearGradient id="SVGID_00000053506809556004686940000017854559206761117623_" gradientUnits="userSpaceOnUse" x1="60.673" x2="70.815" xlink:href="#lg7" y1="279.331" y2="285.415"/><linearGradient id="SVGID_00000029025280985802591330000003802461402968209831_" gradientUnits="userSpaceOnUse" x1="130.326" x2="136.749" xlink:href="#lg7" y1="267.92" y2="271.301"/><linearGradient id="SVGID_00000103239810397227508530000006251625767725971645_" gradientUnits="userSpaceOnUse" x1="197.109" x2="202.179" xlink:href="#lg7" y1="267.443" y2="270.147"/><linearGradient id="SVGID_00000114046206322950977680000016404539216980030903_" gradientUnits="userSpaceOnUse" x1="262.093" x2="272.235" xlink:href="#lg7" y1="278.008" y2="284.769"/><linearGradient id="SVGID_00000106114570774618918580000001838371604748027797_" gradientUnits="userSpaceOnUse" x1="94.564" x2="103.353" xlink:href="#lg7" y1="332.094" y2="338.179"/><linearGradient id="SVGID_00000029733198190661269770000014242682030287567492_" gradientUnits="userSpaceOnUse" x1="172.972" x2="158.854" xlink:href="#lg7" y1="327.358" y2="320.952"/><linearGradient id="SVGID_00000036212026217829888960000010107820873039017872_" gradientUnits="userSpaceOnUse" x1="240.612" x2="226.495" xlink:href="#lg7" y1="338.114" y2="331.708"/><linearGradient id="SVGID_00000181809706530318065950000009646766623114194570_" gradientUnits="userSpaceOnUse" x1="128.974" x2="135.059" xlink:href="#lg7" y1="388.764" y2="391.469"/><linearGradient id="SVGID_00000135673432584465178220000010527521134886205841_" gradientUnits="userSpaceOnUse" x1="196.286" x2="203.723" xlink:href="#lg7" y1="388.981" y2="391.685"/><linearGradient id="SVGID_00000124144895758711158190000000110386136673363626_" gradientUnits="userSpaceOnUse" x1="180.74" x2="221.306" xlink:href="#lg6" y1="293.115" y2="431.038"/><linearGradient id="SVGID_00000089555985529437223320000007680346692696581047_" gradientUnits="userSpaceOnUse" x1="123.329" x2="297.761" xlink:href="#lg6" y1="259.98" y2="310.687"/><linearGradient id="SVGID_00000052820343582370202030000017028228949054239907_" gradientUnits="userSpaceOnUse" x1="210.601" x2="178.62" xlink:href="#lg6" y1="225.85" y2="96.822"/><linearGradient id="SVGID_00000178884750155083297160000004759337385911791801_" gradientTransform="matrix(.5 .866 .866 -.5 108.523 667.864)" gradientUnits="userSpaceOnUse" x1="-525.888" x2="-447.866" xlink:href="#lg1" y1="284.85" y2="284.85"/><linearGradient id="SVGID_00000161613180306469195220000000588021642254828165_" gradientTransform="matrix(.5 .866 .866 -.5 108.523 667.864)" gradientUnits="userSpaceOnUse" x1="-458.984" x2="-531.269" xlink:href="#lg2" y1="263.244" y2="337.68"/><linearGradient id="SVGID_00000176020243633751446420000002174133609663744443_" gradientTransform="matrix(.5 .866 .866 -.5 108.523 667.864)" gradientUnits="userSpaceOnUse" x1="-486.877" x2="-486.877" xlink:href="#lg2" y1="274.681" y2="350.682"/><linearGradient id="SVGID_00000033332763556942842280000010776603064967910049_" gradientTransform="matrix(.5 .866 .866 -.5 108.523 667.864)" gradientUnits="userSpaceOnUse" x1="-486.877" x2="-486.877" xlink:href="#lg2" y1="248.865" y2="302.939"/><linearGradient id="SVGID_00000180335588681057221210000012930905919386901140_" gradientTransform="matrix(-.5 .866 -.866 -.5 533.613 667.864)" gradientUnits="userSpaceOnUse" x1="-371.775" x2="-293.754" xlink:href="#lg1" y1="551.781" y2="551.781"/><linearGradient id="SVGID_00000018239558184285839600000006335826394376960938_" gradientUnits="userSpaceOnUse" x1="229.029" x2="186.773" xlink:href="#lg2" y1="99.006" y2="112.19"/><linearGradient id="SVGID_00000108273496062513695400000013979884906916883130_" gradientTransform="matrix(-.5 .866 -.866 -.5 533.613 667.864)" gradientUnits="userSpaceOnUse" x1="-304.871" x2="-377.156" xlink:href="#lg2" y1="530.175" y2="604.61"/><linearGradient id="SVGID_00000153693833212551365890000006773921122698647201_" gradientTransform="matrix(-.5 .866 -.866 -.5 533.613 667.864)" gradientUnits="userSpaceOnUse" x1="-332.764" x2="-332.764" xlink:href="#lg2" y1="541.612" y2="617.613"/><linearGradient id="SVGID_00000103240867905744469980000001020417553216546691_" gradientTransform="matrix(-.5 .866 -.866 -.5 533.613 667.864)" gradientUnits="userSpaceOnUse" x1="-332.764" x2="-332.764" xlink:href="#lg2" y1="515.796" y2="569.869"/><linearGradient id="SVGID_00000141417347725407949580000009856846706335075731_" gradientTransform="matrix(1 0 0 -1 669.339 546.619)" gradientUnits="userSpaceOnUse" x1="-541.394" x2="-463.373" xlink:href="#lg1" y1="446.367" y2="446.367"/><linearGradient id="SVGID_00000034060037722738194200000012431422194653542807_" gradientTransform="matrix(1 0 0 -1 669.339 546.619)" gradientUnits="userSpaceOnUse" x1="-478.514" x2="-532.404" xlink:href="#lg2" y1="430.63" y2="486.123"/><linearGradient id="SVGID_00000018229513005355767320000003336070321034392254_" gradientTransform="matrix(1 0 0 -1 669.339 546.619)" gradientUnits="userSpaceOnUse" x1="-502.384" x2="-502.384" xlink:href="#lg2" y1="439.212" y2="492.688"/><linearGradient id="SVGID_00000183239657918132943340000003901893100783660991_" gradientTransform="matrix(1 0 0 -1 669.339 546.619)" gradientUnits="userSpaceOnUse" x1="-502.384" x2="-502.384" xlink:href="#lg2" y1="421.048" y2="459.095"/><linearGradient id="SVGID_00000076574727513965204330000010869818468286072240_" gradientTransform="matrix(-.5 .866 .866 .5 -132.289 269.015)" gradientUnits="userSpaceOnUse" x1="-345.921" x2="-272.777" xlink:href="#lg3" y1="422.199" y2="422.199"/><linearGradient id="SVGID_00000160881361377048839800000005860419321595717016_" gradientTransform="matrix(.707 .707 -.707 .707 331.552 -148.511)" gradientUnits="userSpaceOnUse" x1="297.974" x2="293.854" xlink:href="#lg4" y1="248.437" y2="198.047"/><linearGradient id="SVGID_00000166669651429983148560000003044101158762185913_" gradientTransform="matrix(-.5 .866 .866 .5 -132.289 269.015)" gradientUnits="userSpaceOnUse" x1="-309.349" x2="-309.349" xlink:href="#lg4" y1="396.457" y2="467.707"/><linearGradient id="SVGID_00000147899944676982630590000013315917521650235035_" gradientTransform="matrix(.707 .707 -.707 .707 331.552 -148.511)" gradientUnits="userSpaceOnUse" x1="241.463" x2="295.973" xlink:href="#lg4" y1="227.984" y2="216.575"/><linearGradient id="SVGID_00000093895020154314409410000016737887143653121196_" gradientTransform="matrix(-.866 .5 -.5 -.866 429.799 831.104)" gradientUnits="userSpaceOnUse" x1="-340.662" x2="-267.517" xlink:href="#lg3" y1="441.827" y2="441.827"/><linearGradient id="SVGID_00000093166423623286019400000014095885465253234828_" gradientTransform="matrix(-.707 -.707 -.707 .707 847.325 367.262)" gradientUnits="userSpaceOnUse" x1="318.294" x2="314.174" xlink:href="#lg4" y1="248.437" y2="198.047"/><linearGradient id="SVGID_00000020379920304718236330000014896507187788543133_" gradientTransform="matrix(-.866 .5 -.5 -.866 429.799 831.104)" gradientUnits="userSpaceOnUse" x1="-304.089" x2="-304.089" xlink:href="#lg4" y1="416.085" y2="487.335"/><linearGradient id="SVGID_00000010991975647735804680000008807610779412939188_" gradientTransform="matrix(-.707 -.707 -.707 .707 847.325 367.262)" gradientUnits="userSpaceOnUse" x1="261.784" x2="316.293" xlink:href="#lg4" y1="227.984" y2="216.575"/><linearGradient id="SVGID_00000071533080465597368600000014896565189460588455_" gradientTransform="matrix(.707 .707 -.707 .707 331.552 -148.511)" gradientUnits="userSpaceOnUse" x1="246.291" x2="498.912" xlink:href="#lg5" y1="297.067" y2="450.444"/><linearGradient id="SVGID_00000085934254274604363400000010433334679032864696_" gradientUnits="userSpaceOnUse" x1="274.414" x2="397.385" y1="237.086" y2="462.709"><stop offset="0" stop-color="#ffa1ae"/><stop offset=".1759" stop-color="#ff9aa8"/><stop offset=".4315" stop-color="#ff8699"/><stop offset=".7343" stop-color="#ff6780"/><stop offset="1" stop-color="#ff4565"/></linearGradient><linearGradient id="lg8"><stop offset="0" stop-color="#fff" stop-opacity="0"/><stop offset="1" stop-color="#fff"/></linearGradient><linearGradient id="SVGID_00000098195756710643863040000001164143061636820353_" gradientTransform="matrix(.707 .707 -.707 .707 356.371 -135.893)" gradientUnits="userSpaceOnUse" x1="328.075" x2="328.075" xlink:href="#lg8" y1="312.662" y2="248.361"/><linearGradient id="SVGID_00000160894995992485208110000007244553893948482465_" gradientTransform="matrix(.707 .707 -.707 .707 356.371 -135.893)" gradientUnits="userSpaceOnUse" x1="328.075" x2="328.075" xlink:href="#lg8" y1="362.563" y2="282.642"/><linearGradient id="SVGID_00000052823243373166908790000004254972848879322811_" gradientTransform="matrix(.707 .707 -.707 .707 356.371 -135.893)" gradientUnits="userSpaceOnUse" x1="328.075" x2="328.075" xlink:href="#lg8" y1="391.078" y2="337.594"/><linearGradient id="SVGID_00000152944419564108120570000013998113002365813380_" gradientTransform="matrix(.707 .707 -.707 .707 356.371 -135.893)" gradientUnits="userSpaceOnUse" x1="328.075" x2="328.075" xlink:href="#lg8" y1="424.583" y2="368.865"/><linearGradient id="SVGID_00000026144293573863814670000005739566537478408596_" gradientTransform="matrix(.707 .707 -.707 .707 356.371 -135.893)" gradientUnits="userSpaceOnUse" x1="328.075" x2="328.075" xlink:href="#lg8" y1="470.92" y2="408.492"/><linearGradient id="SVGID_00000066485747005359114830000014754441957218076090_" gradientTransform="matrix(.707 .707 -.707 .707 331.552 -148.511)" gradientUnits="userSpaceOnUse" x1="354.546" x2="354.546" y1="238.641" y2="163.42"><stop offset="0" stop-color="#d1f19e" stop-opacity="0"/><stop offset="1" stop-color="#78a91f"/></linearGradient><linearGradient id="lg9"><stop offset="0" stop-color="#fd4755" stop-opacity="0"/><stop offset=".2613" stop-color="#f64452" stop-opacity=".261"/><stop offset=".6438" stop-color="#e33a4b" stop-opacity=".644"/><stop offset="1" stop-color="#ca2e43"/></linearGradient><linearGradient id="SVGID_00000175322446529337857990000018306950210814063512_" gradientTransform="matrix(.707 .707 -.707 .707 331.552 -148.511)" gradientUnits="userSpaceOnUse" x1="235.157" x2="433.347" xlink:href="#lg9" y1="264.807" y2="381.635"/><linearGradient id="SVGID_00000168115446407502223670000013611311367693197192_" gradientTransform="matrix(.707 .707 -.707 .707 331.552 -148.511)" gradientUnits="userSpaceOnUse" x1="333.992" x2="264.488" xlink:href="#lg9" y1="342.447" y2="340.219"/><linearGradient id="SVGID_00000080198225740109597280000013221969704139995051_" gradientUnits="userSpaceOnUse" x1="304.095" x2="252.769" xlink:href="#lg6" y1="425.788" y2="541.273"/><linearGradient id="SVGID_00000122718466588939405440000004081254360609160085_" gradientUnits="userSpaceOnUse" x1="341.355" x2="385.196" xlink:href="#lg6" y1="408.882" y2="495.496"/><g><g><g><g><g><path d="m158.311 158.956c11.221 0 20.317-9.096 20.317-20.317 0-37.462 6.704-75.079 19.539-110.353 5.006-13.757-5.303-28.286-19.943-28.286-8.905 0-16.874 5.566-19.914 13.936-14.482 39.866-22.043 82.373-22.043 124.703 0 11.221 9.096 20.317 20.317 20.317z" fill="url(#SVGID_1_)"/></g></g><g><g><path d="m158.311 158.956c11.221 0 20.317-9.096 20.317-20.317 0-37.462 6.704-75.079 19.539-110.353 5.006-13.757-5.303-28.286-19.943-28.286-8.905 0-16.874 5.566-19.914 13.936-14.482 39.866-22.043 82.373-22.043 124.703 0 11.221 9.096 20.317 20.317 20.317z" fill="url(#SVGID_00000103263133184330955900000013690576920223083683_)"/></g></g></g><g><g><path d="m63.516 82.846c14.466-3.876 29.06-3.686 42.575-.133 24.077 6.33 32.243 36.804 14.556 54.324-9.928 9.834-22.471 17.296-36.937 21.172-25.131 6.734-50.648 1.196-70.22-12.926-5.06-3.651-6.88-10.441-4.323-16.133 9.888-22.016 29.218-39.57 54.349-46.304z" fill="url(#SVGID_00000176756107346406066410000010485686359511266990_)"/><path d="m120.647 137.037c-9.927 9.834-22.471 17.296-36.937 21.172-25.131 6.734-50.648 1.196-70.22-12.926-2.53-1.826-4.25-4.436-5.018-7.301l120.559-32.304c2.839 10.6.459 22.599-8.384 31.359z" fill="url(#SVGID_00000034088615871555893250000008857604751215831484_)"/><path d="m83.754 158.196c-.015.004-.03.009-.045.013-25.131 6.734-50.648 1.196-70.22-12.926-5.061-3.651-6.88-10.441-4.323-16.133 9.889-22.016 29.219-39.57 54.35-46.304.015-.004.03-.007.045-.011l47.777 27.584z" fill="url(#SVGID_00000169533436860718301690000015923873679157922432_)"/><path d="m68.751 121.83-21.829 37.809c-12.118-2.274-23.536-7.216-33.432-14.356-5.061-3.651-6.88-10.441-4.323-16.133 5-11.132 12.418-21.121 21.775-29.149z" fill="url(#SVGID_00000178169639161149680760000015042494629494667191_)"/></g><g><path d="m270.395 82.846c-14.466-3.876-29.06-3.686-42.575-.133-24.077 6.33-32.243 36.804-14.556 54.324 9.928 9.834 22.471 17.296 36.937 21.172 25.131 6.734 50.648 1.196 70.22-12.926 5.06-3.651 6.88-10.441 4.323-16.133-9.888-22.016-29.218-39.57-54.349-46.304z" fill="url(#SVGID_00000144302911119770054240000003592120916022662063_)"/><path d="m213.264 137.037c9.927 9.834 22.471 17.296 36.937 21.172 25.131 6.734 50.648 1.196 70.22-12.926 2.53-1.826 4.25-4.436 5.018-7.301l-120.559-32.304c-2.84 10.6-.459 22.599 8.384 31.359z" fill="url(#SVGID_00000089558193835522052780000012674463954692377018_)"/><path d="m250.157 158.196c.015.004.03.009.044.013 25.131 6.734 50.648 1.196 70.22-12.926 5.061-3.651 6.88-10.441 4.323-16.133-9.889-22.016-29.219-39.57-54.35-46.304-.015-.004-.03-.007-.045-.011l-47.777 27.584z" fill="url(#SVGID_00000155121293709688839190000004635471652322121911_)"/><path d="m265.16 121.83 21.829 37.809c12.118-2.274 23.536-7.216 33.432-14.356 5.061-3.651 6.88-10.441 4.323-16.133-5-11.132-12.418-21.121-21.775-29.149z" fill="url(#SVGID_00000067217495556829696640000002095960687839625892_)"/></g></g><g><path d="m251.469 103.097c-47.459-15.761-121.569-15.761-169.028 0-54.816 18.205-88.84 72.724-81.433 130.008 3.989 30.854 13.178 63 32.756 84.21 40.95 44.362 45.538 102.599 97.882 136.476 21.514 13.923 49.105 13.923 70.618 0 52.344-33.877 56.932-92.114 97.882-136.476 19.578-21.21 28.767-53.355 32.756-84.21 7.407-57.284-26.616-111.804-81.433-130.008z" fill="url(#SVGID_00000054268045512372396850000007739168595270659483_)"/><g><g><ellipse cx="65.495" cy="178.384" fill="url(#SVGID_00000031915993984386109030000000304391800635311524_)" rx="19.082" ry="23.736"/></g><g><ellipse cx="133.135" cy="158.94" fill="url(#SVGID_00000103233096595032044500000010479725282274124968_)" rx="19.082" ry="23.736"/></g><g><ellipse cx="200.776" cy="158.94" fill="url(#SVGID_00000001637640672393442730000011221621665908919726_)" rx="19.082" ry="23.736"/></g><g><ellipse cx="268.416" cy="178.384" fill="url(#SVGID_00000053537220663475077920000017507960594098715053_)" rx="19.082" ry="23.736"/></g><g><ellipse cx="99.315" cy="224.926" fill="url(#SVGID_00000069356022244550995050000000170044740161009032_)" rx="19.082" ry="23.736"/></g><g><ellipse cx="166.955" cy="214.169" fill="url(#SVGID_00000057123237399367377560000003358043087235869330_)" rx="19.082" ry="23.736"/></g><g><ellipse cx="234.596" cy="224.926" fill="url(#SVGID_00000049220282572281368140000001147104313957505968_)" rx="19.082" ry="23.736"/></g><g><ellipse cx="65.495" cy="282.223" fill="url(#SVGID_00000153672450674074174830000008605349019731975843_)" rx="19.082" ry="23.736"/></g><g><ellipse cx="133.135" cy="269.399" fill="url(#SVGID_00000048487941283109323950000017311023567060913044_)" rx="19.082" ry="23.736"/></g><g><ellipse cx="200.776" cy="269.399" fill="url(#SVGID_00000053542363218100710560000003814241734566140819_)" rx="19.082" ry="23.736"/></g><g><ellipse cx="268.416" cy="282.223" fill="url(#SVGID_00000054254220815126034000000017860930548514275217_)" rx="19.082" ry="23.736"/></g><g><ellipse cx="99.315" cy="335.384" fill="url(#SVGID_00000131351786562890282000000004762546436843615651_)" rx="19.082" ry="23.736"/></g><g><ellipse cx="166.955" cy="324.628" fill="url(#SVGID_00000052076796652419147510000014458045301387236266_)" rx="19.082" ry="23.736"/></g><g><ellipse cx="234.596" cy="335.384" fill="url(#SVGID_00000179643570541084699940000013076854658317195930_)" rx="19.082" ry="23.736"/></g><g><ellipse cx="133.135" cy="390.613" fill="url(#SVGID_00000046298711933333536030000006316131075987813786_)" rx="19.082" ry="23.736"/></g><g><ellipse cx="200.776" cy="390.613" fill="url(#SVGID_00000090271658861002842610000004762398291501044882_)" rx="19.082" ry="23.736"/></g></g><g><path d="m65.495 187.894c-1.667 0-4.855-3.703-4.855-9.51s3.188-9.51 4.855-9.51 4.856 3.703 4.856 9.51-3.189 9.51-4.856 9.51z" fill="url(#SVGID_00000009554271895349086980000012207531741701424769_)"/><path d="m133.135 168.45c-1.667 0-4.855-3.703-4.855-9.51 0-5.806 3.188-9.51 4.855-9.51s4.856 3.703 4.856 9.51-3.189 9.51-4.856 9.51z" fill="url(#SVGID_00000091009399720650143380000010324530348877883060_)"/><path d="m200.776 168.45c-1.667 0-4.856-3.703-4.856-9.51 0-5.806 3.189-9.51 4.856-9.51s4.855 3.703 4.855 9.51-3.188 9.51-4.855 9.51z" fill="url(#SVGID_00000067201271381462797580000009213203457649545353_)"/><path d="m268.416 187.894c-1.667 0-4.856-3.703-4.856-9.51s3.189-9.51 4.856-9.51 4.855 3.703 4.855 9.51-3.188 9.51-4.855 9.51z" fill="url(#SVGID_00000098918006816579764440000008289496781444617874_)"/><ellipse cx="99.315" cy="224.926" fill="url(#SVGID_00000079467206261784410330000007190589209478876308_)" rx="4.856" ry="9.51"/><ellipse cx="166.955" cy="214.169" fill="url(#SVGID_00000142875460819581614080000003269212718480993713_)" rx="4.856" ry="9.51"/><ellipse cx="234.596" cy="224.926" fill="url(#SVGID_00000135669322227090294750000007263655654769871542_)" rx="4.856" ry="9.51"/><path d="m65.495 291.733c-1.667 0-4.855-3.703-4.855-9.51s3.188-9.51 4.855-9.51 4.856 3.703 4.856 9.51-3.189 9.51-4.856 9.51z" fill="url(#SVGID_00000053506809556004686940000017854559206761117623_)"/><path d="m133.135 278.909c-1.667 0-4.855-3.703-4.855-9.51s3.188-9.51 4.855-9.51 4.856 3.703 4.856 9.51-3.189 9.51-4.856 9.51z" fill="url(#SVGID_00000029025280985802591330000003802461402968209831_)"/><path d="m200.776 278.909c-1.667 0-4.856-3.703-4.856-9.51s3.189-9.51 4.856-9.51 4.855 3.703 4.855 9.51-3.188 9.51-4.855 9.51z" fill="url(#SVGID_00000103239810397227508530000006251625767725971645_)"/><path d="m268.416 291.733c-1.667 0-4.856-3.703-4.856-9.51s3.189-9.51 4.856-9.51 4.855 3.703 4.855 9.51-3.188 9.51-4.855 9.51z" fill="url(#SVGID_00000114046206322950977680000016404539216980030903_)"/><path d="m99.315 344.894c-1.667 0-4.856-3.703-4.856-9.51s3.189-9.51 4.856-9.51 4.856 3.703 4.856 9.51c0 5.806-3.189 9.51-4.856 9.51z" fill="url(#SVGID_00000106114570774618918580000001838371604748027797_)"/><path d="m166.955 334.138c-1.667 0-4.856-3.703-4.856-9.51s3.189-9.51 4.856-9.51 4.856 3.703 4.856 9.51c0 5.806-3.188 9.51-4.856 9.51z" fill="url(#SVGID_00000029733198190661269770000014242682030287567492_)"/><path d="m234.596 344.894c-1.667 0-4.856-3.703-4.856-9.51s3.189-9.51 4.856-9.51 4.856 3.703 4.856 9.51c0 5.806-3.189 9.51-4.856 9.51z" fill="url(#SVGID_00000036212026217829888960000010107820873039017872_)"/><path d="m133.135 400.123c-1.667 0-4.855-3.703-4.855-9.51 0-5.806 3.188-9.51 4.855-9.51s4.856 3.703 4.856 9.51-3.189 9.51-4.856 9.51z" fill="url(#SVGID_00000181809706530318065950000009646766623114194570_)"/><path d="m200.776 400.123c-1.667 0-4.856-3.703-4.856-9.51 0-5.806 3.189-9.51 4.856-9.51s4.855 3.703 4.855 9.51-3.188 9.51-4.855 9.51z" fill="url(#SVGID_00000135673432584465178220000010527521134886205841_)"/></g><path d="m2.519 243.282c4.622 27.593 13.814 55.148 31.246 74.033 40.95 44.362 45.538 102.599 97.882 136.476 21.513 13.923 49.105 13.923 70.618 0 52.344-33.877 56.932-92.114 97.882-136.476 17.432-18.885 26.623-46.439 31.246-74.033z" fill="url(#SVGID_00000124144895758711158190000000110386136673363626_)"/><path d="m251.469 103.097c-44.453-14.763-112.286-15.697-159.701-2.804v312.389c10.015 15.494 22.23 29.687 39.878 41.109 21.513 13.923 49.105 13.923 70.618 0 52.344-33.877 56.932-92.114 97.882-136.476 19.578-21.21 28.767-53.355 32.756-84.21 7.407-57.284-26.616-111.804-81.433-130.008z" fill="url(#SVGID_00000089555985529437223320000007680346692696581047_)"/></g><path d="m251.469 103.097c-42.349-14.064-105.905-15.567-152.824-4.531l-38.97 38.97 215.187 215.187c7.025-12.274 15.01-24.278 25.284-35.409 19.578-21.21 28.767-53.355 32.756-84.21 7.407-57.283-26.617-111.803-81.433-130.007z" fill="url(#SVGID_00000052820343582370202030000017028228949054239907_)"/><g><g><path d="m96.626 67.49c12.97-7.488 27.116-11.082 41.089-11.148 24.895-.118 40.67 27.205 28.12 48.706-7.044 12.068-17.229 22.522-30.199 30.011-22.532 13.009-48.613 14.264-71.173 5.689-5.833-2.217-9.347-8.304-8.351-14.464 3.854-23.826 17.982-45.786 40.514-58.794z" fill="url(#SVGID_00000178884750155083297160000004759337385911791801_)"/><path d="m165.835 105.048c-7.044 12.068-17.229 22.522-30.199 30.011-22.532 13.009-48.613 14.264-71.173 5.689-2.917-1.108-5.254-3.185-6.737-5.754l108.09-62.406c5.488 9.503 6.294 21.709.019 32.46z" fill="url(#SVGID_00000161613180306469195220000000588021642254828165_)"/><path d="m135.676 135.034c-.013.008-.026.016-.04.024-22.532 13.009-48.613 14.264-71.173 5.689-5.833-2.217-9.348-8.304-8.351-14.464 3.854-23.825 17.982-45.784 40.513-58.793.013-.008.027-.015.04-.022l53.288 14.279z" fill="url(#SVGID_00000176020243633751446420000002174133609663744443_)"/><path d="m111.772 103.791-11.3 42.171c-12.294.94-24.601-.878-36.009-5.214-5.833-2.217-9.348-8.304-8.351-14.464 1.949-12.047 6.528-23.615 13.489-33.792z" fill="url(#SVGID_00000033332763556942842280000010776603064967910049_)"/></g><g><path d="m237.285 67.49c-12.97-7.488-27.116-11.082-41.089-11.148-24.895-.118-40.67 27.205-28.12 48.706 7.044 12.068 17.229 22.522 30.199 30.011 22.532 13.009 48.613 14.264 71.173 5.689 5.833-2.217 9.348-8.304 8.351-14.464-3.854-23.826-17.982-45.786-40.514-58.794z" fill="url(#SVGID_00000180335588681057221210000012930905919386901140_)"/><path d="m237.285 67.49c-12.97-7.488-27.116-11.082-41.089-11.148-24.895-.118-40.67 27.205-28.12 48.706 7.044 12.068 17.229 22.522 30.199 30.011 22.532 13.009 48.613 14.264 71.173 5.689 5.833-2.217 9.348-8.304 8.351-14.464-3.854-23.826-17.982-45.786-40.514-58.794z" fill="url(#SVGID_00000018239558184285839600000006335826394376960938_)"/><path d="m168.076 105.048c7.044 12.068 17.229 22.522 30.199 30.011 22.532 13.009 48.613 14.264 71.173 5.689 2.917-1.108 5.254-3.185 6.737-5.754l-108.09-62.406c-5.488 9.503-6.294 21.709-.019 32.46z" fill="url(#SVGID_00000108273496062513695400000013979884906916883130_)"/><path d="m198.235 135.034c.013.008.026.016.04.024 22.532 13.009 48.613 14.264 71.173 5.689 5.833-2.217 9.348-8.304 8.351-14.464-3.854-23.825-17.982-45.784-40.513-58.793-.013-.008-.027-.015-.04-.022l-53.288 14.279z" fill="url(#SVGID_00000153693833212551365890000006773921122698647201_)"/><path d="m222.139 103.791 11.3 42.171c12.294.94 24.601-.878 36.009-5.214 5.833-2.217 9.348-8.304 8.351-14.464-1.949-12.047-6.528-23.615-13.489-33.792z" fill="url(#SVGID_00000103240867905744469980000001020417553216546691_)"/></g></g><g><path d="m127.945 96.71c0-10.538 3.961-20.422 10.89-28.96 12.346-15.211 43.895-15.211 56.241 0 6.93 8.538 10.89 18.422 10.89 28.96 0 18.306-11.953 34.641-30.66 45.371-4.837 2.774-11.866 2.774-16.702 0-18.706-10.731-30.659-27.065-30.659-45.371z" fill="url(#SVGID_00000141417347725407949580000009856846706335075731_)"/><path d="m195.076 67.75c6.93 8.538 10.89 18.422 10.89 28.96 0 18.306-11.953 34.641-30.66 45.371-2.418 1.387-5.385 2.081-8.351 2.081v-87.82c10.974-.001 21.948 3.802 28.121 11.408z" fill="url(#SVGID_00000034060037722738194200000012431422194653542807_)"/><path d="m205.965 96.677c0 .011.001.022.001.033 0 18.306-11.953 34.641-30.66 45.371-4.837 2.775-11.866 2.775-16.702 0-18.706-10.73-30.66-27.065-30.66-45.371 0-.011.001-.022.001-.033l39.01-27.448z" fill="url(#SVGID_00000018229513005355767320000003336070321034392254_)"/><path d="m166.955 100.251 30.871 21.722c-5.333 7.822-13.061 14.682-22.52 20.108-4.837 2.775-11.866 2.775-16.702 0-9.459-5.426-17.187-12.286-22.52-20.108z" fill="url(#SVGID_00000183239657918132943340000003901893100783660991_)"/></g></g><g><g><g><path d="m410.392 182.898c12.159 7.02 21.708 16.82 28.311 28.134 11.765 20.157-3.024 45.772-26.363 45.661-13.1-.062-26.362-3.431-38.521-10.451-21.123-12.195-34.368-32.782-37.981-55.118-.934-5.775 2.361-11.482 7.829-13.56 21.152-8.039 45.602-6.862 66.725 5.334z" fill="url(#SVGID_00000076574727513965204330000010869818468286072240_)"/><path d="m412.341 256.693c-13.1-.062-26.362-3.431-38.521-10.451-21.123-12.195-34.368-32.782-37.981-55.118-.467-2.888.123-5.758 1.513-8.166l101.334 58.505c-5.143 8.91-14.675 15.286-26.345 15.23z" fill="url(#SVGID_00000160881361377048839800000005860419321595717016_)"/><path d="m373.858 246.263c-.013-.007-.025-.014-.038-.021-21.123-12.195-34.368-32.782-37.981-55.118-.934-5.775 2.36-11.482 7.829-13.56 21.15-8.039 45.601-6.862 66.724 5.333.013.007.025.015.037.022l13.386 49.957z" fill="url(#SVGID_00000166669651429983148560000003044101158762185913_)"/><path d="m388.02 212.211-39.535 10.593c-6.525-9.541-10.819-20.385-12.646-31.679-.934-5.775 2.36-11.482 7.829-13.56 10.694-4.065 22.233-5.769 33.758-4.888z" fill="url(#SVGID_00000147899944676982630590000013315917521650235035_)"/></g><g><path d="m501.548 274.053c-7.02-12.159-16.82-21.708-28.135-28.311-20.157-11.765-45.772 3.024-45.661 26.363.062 13.1 3.431 26.362 10.451 38.521 12.195 21.123 32.782 34.368 55.118 37.981 5.775.934 11.482-2.361 13.56-7.829 8.04-21.151 6.862-45.602-5.333-66.725z" fill="url(#SVGID_00000093895020154314409410000016737887143653121196_)"/><path d="m427.752 272.104c.062 13.1 3.431 26.362 10.451 38.521 12.195 21.123 32.782 34.368 55.118 37.981 2.888.467 5.758-.123 8.166-1.513l-58.505-101.334c-8.909 5.144-15.285 14.676-15.23 26.345z" fill="url(#SVGID_00000093166423623286019400000014095885465253234828_)"/><path d="m438.182 310.587c.007.013.014.025.021.038 12.195 21.123 32.782 34.368 55.118 37.981 5.775.934 11.482-2.36 13.56-7.829 8.039-21.15 6.862-45.601-5.333-66.724-.007-.013-.015-.025-.022-.037l-49.957-13.386z" fill="url(#SVGID_00000020379920304718236330000014896507187788543133_)"/><path d="m472.235 296.426-10.593 39.535c9.541 6.525 20.385 10.819 31.679 12.646 5.775.934 11.482-2.36 13.56-7.829 4.065-10.694 5.769-22.233 4.888-33.758z" fill="url(#SVGID_00000010991975647735804680000008807610779412939188_)"/></g></g><g><path d="m486.911 309.584c-21.013-41.909-70.14-91.037-112.049-112.049-48.406-24.27-107.102-10.683-140.165 32.2-17.809 23.098-33.027 50.499-34.109 77.537-2.262 56.554-37.826 98.201-25.584 155.357 5.031 23.491 23.322 41.782 46.813 46.813 57.156 12.242 98.803-23.322 155.357-25.584 27.038-1.082 54.439-16.3 77.537-34.109 42.883-33.063 56.47-91.759 32.2-140.165z" fill="url(#SVGID_00000071533080465597368600000014896565189460588455_)"/><path d="m479.368 301.142c-5.668-12.188-14.082-24.954-24.132-37.204-2.858-3.484-1.301-8.803 3.017-10.091.028-.008.055-.016.083-.025 7.015-2.079 12.498-7.571 14.709-14.546 3.274-10.325-5.521-20.561-16.194-18.716-5.514.953-10.964 2.613-16.068 4.59-10.244 3.967-21.774 2.479-30.662-3.976-8.967-6.513-18.043-12.016-26.818-16.098-42.529-19.779-95.933-5.049-127.517 34.953-17.012 21.546-31.876 46.855-34.002 71.235-4.446 50.992-38.227 89.988-29.647 140.904 3.459 20.528 19.61 36.679 40.138 40.138 50.915 8.58 89.912-25.201 140.904-29.647 24.38-2.126 49.688-16.99 71.235-34.002 40.004-31.582 54.734-84.985 34.954-127.515z" fill="url(#SVGID_00000085934254274604363400000010433334679032864696_)"/><g><g><path d="m373.18 462.66c24.38-2.126 49.688-16.99 71.235-34.001 8.638-6.82 16.09-14.661 22.278-23.186l-30.732-62.385c-6.105 10.71-14.559 20.963-24.912 29.66-14.949 12.562-32.031 24.143-47.351 27.743-32.038 7.524-59.376 32.118-90.148 31.548-12.655-.232-20.915-8.492-21.14-21.14-.57-30.772 24.024-58.11 31.548-90.148 3.6-15.32 15.181-32.403 27.742-47.351 8.697-10.354 18.95-18.808 29.66-24.913l-62.387-30.734c-8.525 6.188-16.366 13.641-23.186 22.279-17.012 21.547-31.876 46.855-34.002 71.235-4.446 50.992-38.227 89.988-29.647 140.904 3.459 20.528 19.61 36.679 40.138 40.138 50.916 8.578 89.913-25.202 140.904-29.649z" fill="url(#SVGID_00000098195756710643863040000001164143061636820353_)"/></g><g><path d="m258.648 493.233c38.91-3.534 72.683-26.924 114.533-30.573 20.645-1.8 41.947-12.746 61.076-26.384l-28.991-58.812c-13.471 10.653-28.191 19.882-41.568 23.025-32.038 7.524-59.376 32.118-90.148 31.548-12.655-.232-20.915-8.492-21.14-21.14-.57-30.772 24.024-58.11 31.548-90.148 3.143-13.377 12.372-28.098 23.026-41.569l-58.813-28.992c-13.638 19.129-24.584 40.431-26.384 61.076-3.649 41.849-27.039 75.623-30.573 114.532l22.266 45.17z" fill="url(#SVGID_00000160894995992485208110000007244553893948482465_)"/></g><path d="m373.18 462.66c6.81-.594 13.692-2.21 20.545-4.561l-24.286-59.294c-1.936.674-3.852 1.241-5.742 1.685-32.038 7.524-59.376 32.118-90.148 31.548-12.655-.232-20.915-8.492-21.14-21.14-.57-30.772 24.024-58.11 31.548-90.148.444-1.89 1.012-3.807 1.685-5.743l-59.296-24.287c-2.351 6.853-3.967 13.735-4.561 20.545-4.446 50.992-38.227 89.988-29.647 140.904 3.459 20.528 19.61 36.679 40.138 40.138 50.916 8.58 89.913-25.2 140.904-29.647z" fill="url(#SVGID_00000052823243373166908790000004254972848879322811_)"/><path d="m349.553 466.753-10.058-57.66c-22.297 10.022-43.183 23.366-65.946 22.945-12.655-.232-20.915-8.492-21.14-21.14-.422-22.763 12.923-43.649 22.945-65.947l-57.662-10.059c-10.075 40.133-32.763 74.499-25.554 117.277 3.459 20.528 19.61 36.679 40.138 40.138 42.778 7.209 77.144-15.479 117.277-25.554z" fill="url(#SVGID_00000152944419564108120570000013998113002365813380_)"/><path d="m302.162 426.287c-9.365 3.558-18.815 5.933-28.613 5.751-12.655-.232-20.915-8.492-21.14-21.14-.181-9.799 2.194-19.249 5.752-28.614l-58.54 6.636c-6.686 20.126-11.317 40.497-7.483 63.25 3.459 20.528 19.61 36.679 40.138 40.138 22.752 3.834 43.123-.797 63.249-7.483z" fill="url(#SVGID_00000026144293573863814670000005739566537478408596_)"/></g><path d="m456.852 220.561c-5.515.953-10.964 2.613-16.068 4.59-10.244 3.967-21.774 2.479-30.662-3.976-8.967-6.513-18.043-12.016-26.818-16.098-31.044-14.438-67.873-10.47-97.79 8.275l185.58 185.58c18.744-29.917 22.712-66.746 8.274-97.79-5.668-12.188-14.082-24.954-24.132-37.204-2.858-3.484-1.301-8.803 3.017-10.091.028-.008.055-.016.083-.025 7.015-2.079 12.498-7.571 14.709-14.546 3.275-10.324-5.52-20.56-16.193-18.715z" fill="url(#SVGID_00000066485747005359114830000014754441957218076090_)"/><path d="m411.049 372.748c-14.949 12.562-32.032 24.143-47.351 27.743-32.038 7.524-59.376 32.118-90.148 31.548-12.655-.232-20.915-8.492-21.14-21.14-.57-30.772 24.024-58.11 31.548-90.148 3.6-15.32 15.181-32.403 27.743-47.351 23.321-27.762 57.825-41.889 82.346-33.596.36.122.721.247 1.081.378 5.603 2.022 7.309 9.057 3.3 13.463-.026.029-.053.058-.079.087-7.65 8.419-15.127 17.7-18.74 25.131-7.57 15.552-22.287 31.17-26.012 45.104-1.531 5.721 1.16 8.412 6.888 6.888 13.934-3.726 29.552-18.442 45.104-26.012 7.431-3.613 16.705-11.097 25.131-18.74.029-.026.058-.052.086-.078 4.403-4.006 11.433-2.305 13.46 3.292.131.363.259.726.381 1.089 8.291 24.517-5.836 59.021-33.598 82.342z" fill="url(#SVGID_00000175322446529337857990000018306950210814063512_)"/><path d="m411.049 372.748c-14.949 12.562-32.032 24.143-47.351 27.743-32.038 7.524-59.376 32.118-90.148 31.548-12.655-.232-20.915-8.492-21.14-21.14-.57-30.772 24.024-58.11 31.548-90.148 3.6-15.32 15.181-32.403 27.743-47.351 23.321-27.762 57.825-41.889 82.346-33.596.36.122.721.247 1.081.378 5.603 2.022 7.309 9.057 3.3 13.463-.026.029-.053.058-.079.087-7.65 8.419-15.127 17.7-18.74 25.131-7.57 15.552-22.287 31.17-26.012 45.104-1.531 5.721 1.16 8.412 6.888 6.888 13.934-3.726 29.552-18.442 45.104-26.012 7.431-3.613 16.705-11.097 25.131-18.74.029-.026.058-.052.086-.078 4.403-4.006 11.433-2.305 13.46 3.292.131.363.259.726.381 1.089 8.291 24.517-5.836 59.021-33.598 82.342z" fill="url(#SVGID_00000168115446407502223670000013611311367693197192_)"/><path d="m237.264 226.535c-.871 1.049-1.729 2.113-2.568 3.2-17.809 23.098-33.027 50.499-34.109 77.537-2.262 56.554-37.826 98.201-25.584 155.357 5.032 23.491 23.322 41.782 46.813 46.813 57.156 12.242 98.803-23.322 155.357-25.584 27.038-1.081 54.439-16.3 77.537-34.109 1.087-.838 2.151-1.697 3.2-2.568z" fill="url(#SVGID_00000080198225740109597280000013221969704139995051_)"/><path d="m486.911 309.584c-15.408-30.73-45.934-65.329-77.645-89.891l-235.587 235.587c.358 2.423.793 4.871 1.324 7.35 5.032 23.491 23.322 41.782 46.813 46.813 57.156 12.242 98.803-23.322 155.357-25.584 27.038-1.081 54.439-16.3 77.537-34.109 42.884-33.064 56.471-91.76 32.201-140.166z" fill="url(#SVGID_00000122718466588939405440000004081254360609160085_)"/></g></g></g></svg>