<svg id="Layer_1" enable-background="new 0 0 70 70" height="512" viewBox="0 0 70 70" width="512" xmlns="http://www.w3.org/2000/svg"><g id="_x34_7"><g><path d="m56.216217 55.6846008c8.839325-10.4537163-2.6848373-25.4114933-6.8100929-30.1507454-4.0201492-4.8284798-16.94907-18.5937042-28.7037621-11.5644245-10.9613637 6.5521622-17.4867541 28.3636456-17.7008902 41.4934139-.0895295 5.4893494 3.9155385 10.1937714 9.3554068 10.9890137 13.0114133 1.9021301 35.6192071-1.0186844 43.8593384-10.7672577z" fill="#f34b58"/><path d="m13.6254559 28.013031c1.3632832-2.5785027 2.9644852-4.9501801 4.6763725-7.2980976-1.2359829.7769451-2.309392 1.7904873-3.2755222 2.9010544-.9810972 1.1165619-1.8189135 2.3740749-2.5550709 3.7066517-.7305336 1.3502274-1.3288975 2.8010521-1.7309561 4.3318405-.4480429 1.5270729-.6164722 3.1649094-.5990572 4.7933197.5336504-1.5200615.9685087-3.0006256 1.5771017-4.4005089.5767231-1.3928394 1.1906262-2.7484398 1.9071322-4.0342598z" fill="#fff"/><g><path d="m3.0014718 55.4628448c-.0895295 5.4893494 3.9155385 10.1937714 9.3554068 10.9890137 13.0114136 1.9021301 35.6192093-1.0186844 43.8593369-10.7672577 4.630722-5.4765244 3.671627-12.1885185 1.1165009-18.0205002-4.5359192 5.6509056-19.9844055 20.3783417-54.1126175 13.9690895-.1252796 1.3375283-.1988982 2.6206627-.2186271 3.8296547z" fill="#e11226"/></g><g><path d="m15.4472513 58.1168594c.9646425-1.0006828.2831421-1.9467354.0267906-2.2369576-.2455883-.2993622-1.0709438-1.123291-2.2152386-.3336296-1.0670109.7361565-2.0631905 2.5845528-2.3460751 3.6225853-.118269.4339867.1285324.7238846.5765028.6771698 1.0714828-.1117324 3.0586988-.7960433 3.9580203-1.7291679z" fill="#febc1f"/><path d="m28.2073631 59.9083595c.9646435-1.0006828.2831421-1.9467316.0267906-2.2369576-.2455883-.2993622-1.0709438-1.1232872-2.2152386-.3336258-1.0670109.7361526-2.0631905 2.5845528-2.3460751 3.6225853-.118269.4339867.1285324.7238808.5765018.6771698 1.0714838-.1117362 3.0586988-.7960471 3.9580213-1.7291717z" fill="#febc1f"/><path d="m42.1135101 57.4469528c.9646416-1.0006866.2831421-1.9467354.0267906-2.2369614-.2455902-.2993622-1.0709457-1.1232872-2.2152405-.3336258-1.067009.7361526-2.0631905 2.5845528-2.3460732 3.6225853-.1182709.4339867.1285324.7238808.5764999.6771698 1.0714838-.1117324 3.0587007-.7960433 3.9580232-1.7291679z" fill="#febc1f"/><path d="m54.6469498 54.4471779c.9646416-1.0006866.2831421-1.9467354.0267906-2.2369614-.2455902-.2993622-1.0709457-1.1232872-2.2152405-.3336258-1.067009.7361526-2.0631905 2.5845528-2.3460732 3.6225853-.1182709.4339867.1285324.7238846.5764999.6771698 1.0714837-.1117325 3.0587007-.7960434 3.9580232-1.7291679z" fill="#febc1f"/><g fill="#ffd06c"><path d="m51.5493927 41.7318039c.9646454-1.0006866.2831421-1.9467354.0267906-2.2369614-.2455864-.2993622-1.0709419-1.1232872-2.2152367-.3336258-1.0670128.7361526-2.0631905 2.5845528-2.346077 3.6225853-.1182671.4339867.1285324.7238846.5765038.6771698 1.0714837-.1117325 3.0586968-.7960434 3.9580193-1.7291679z"/><path d="m38.9357834 46.9429092c.9646416-1.0006828.2831383-1.9467316.0267868-2.2369576-.2455864-.2993622-1.0709419-1.123291-2.2152367-.3336258-1.0670128.7361526-2.0631905 2.584549-2.3460732 3.6225853-.1182709.4339828.1285286.7238808.5764999.677166 1.0714837-.1117324 3.0587007-.7960433 3.9580232-1.7291679z"/><path d="m26.1461143 44.8811188c.9646416-1.0006828.2831421-1.9467354.0267906-2.2369576-.2455883-.2993622-1.0709438-1.123291-2.2152386-.3336258-1.0670109.7361526-2.0631905 2.584549-2.3460751 3.6225853-.1182709.4339828.1285324.7238808.5765018.677166 1.0714838-.1117325 3.0586988-.7960434 3.9580213-1.7291679z"/><path d="m33.719986 30.5304279c.9646454-1.0006828.2831421-1.9467354.0267906-2.2369595-.2455864-.2993603-1.0709419-1.1232891-2.2152367-.3336258-1.0670128.7361546-2.0631924 2.5845509-2.3460751 3.6225853-.1182709.4339867.1285324.7238808.5765018.6771698 1.0714837-.1117362 3.0586969-.7960452 3.9580194-1.7291698z"/><path d="m21.9087677 28.2582226c.9646416-1.0006828.2831402-1.9467335.0267887-2.2369576-.2455864-.2993622-1.0709438-1.1232891-2.2152367-.3336277-1.0670128.7361546-2.0631924 2.5845528-2.3460751 3.6225853-.1182709.4339848.1285324.7238827.5765018.6771698 1.0714837-.1117344 3.0586988-.7960453 3.9580213-1.7291698z"/><path d="m15.3615751 43.018734c.9646425-1.0006828.2831421-1.9467354.0267906-2.2369576-.2455883-.2993622-1.0709448-1.123291-2.2152386-.3336296-1.0670109.7361565-2.0631905 2.5845528-2.3460751 3.6225853-.1182699.4339867.1285324.7238846.5765028.6771698 1.0714828-.1117325 3.0586988-.7960434 3.9580203-1.7291679z"/><path d="m30.6619987 19.7554569c.9646435-1.0006847.2831421-1.9467354.0267906-2.2369595-.2455883-.2993622-1.0709438-1.1232891-2.2152386-.3336277-1.0670109.7361546-2.0631905 2.5845528-2.3460751 3.6225853-.118269.4339867.1285324.7238846.5765018.6771698 1.0714838-.1117324 3.0586988-.7960433 3.9580213-1.7291679z"/></g></g></g><g><g><path d="m66.8962021 39.9504509c-.8775864-1.5812111-2.4682617-4.5095291-3.110527-6.0916748-1.6693459-4.1123562-4.6267052-7.3107681-11.9650345-9.3467884-.4854469-.1346951-.9776306.1969795-1.0349426.6968288-.4299011 3.7476425-.8948746 17.4094734 15.4598999 15.9589424.5938186-.052658.9396057-.6966285.6506042-1.217308z" fill="#78e75a"/><g><path d="m50.7856979 25.2087917c-.4298897 3.7476826-.8948746 17.4094906 15.4598923 15.9589443.4595718-.040741.7690582-.4357376.752243-.853569-2.3159409-1.4237862-13.1187897-8.385746-15.5791664-15.8079891-.3257293.075367-.5918274.3440018-.6329689.7026138z" fill="#72d561"/></g><path d="m53.1351662 31.9188042c.2177277 1.7651024 1.4389572 4.2220993 3.3929977 5.9011383.6042709.5491333 1.3194885.9970093 2.0703468 1.3587341-.5826416-.5862427-1.1684113-1.1188622-1.6798058-1.7117081-1.5772361-1.7665786-2.6493796-3.458065-3.7835387-5.5481643z" fill="#fff"/><path d="m51.2843323 23.4652081-1.1795998 1.0014019c2.8137779 4.1698608 8.4011612 11.6060944 13.6921234 13.667984 0 0-8.9207725-7.1390858-12.5125236-14.6693859z" fill="#5ec363"/></g><g><path d="m41.4149399 3.3209829c1.1015205 1.4346747 3.155262 4.0599771 4.3515739 5.2795696 3.1094971 3.169961 4.865696 7.1543894 3.8058701 14.6859655-.0701027.4982319-.571106.8164749-1.0529289.669426-3.612587-1.1023445-16.3420982-6.1300316-8.4819183-20.5251923.2853889-.5226754 1.0146903-.5822188 1.3774032-.1097688z" fill="#78e75a"/><path d="m48.5291634 19.4450989c.4501038-2.3699265-.4862328-5.8425064-2.8707733-8.0123625.5265426.9996099 2.0341606 3.7204657 2.8707733 8.0123625z" fill="#fff"/><g><path d="m48.5194778 23.9559498c-3.6126175-1.1023674-16.3421173-6.1300354-8.4819221-20.5251827.2208519-.4045112.7070694-.530205 1.0839958-.3480186.3828278 2.6887734 2.462925 15.3587008 8.2957077 20.574131-.1992187.2681464-.5520935.4045505-.8977814.2990703z" fill="#72d561"/></g><path d="m50.3194275 24.1954002-1.3903198.6802883c-2.7054749-4.240736-7.3028946-12.324789-7.0840645-17.992157 0 .000001 2.9939956 11.0174351 8.4743843 17.3118687z" fill="#5ec363"/></g><g><path d="m34.6502075 37.8162804c.9157104-1.5595169 2.5770111-4.448494 3.2574921-6.0146389 1.7686806-4.0707684 4.8028221-7.1967049 12.188446-9.0546227.488575-.1229134.9725685.2205696 1.0177345.7216587.3388062 3.7569389.4720268 17.4259949-15.842804 15.5802917-.5923728-.0670089-.9224318-.7191505-.6208686-1.2326888z" fill="#78e75a"/><g><path d="m51.1138763 23.4686527c.3387985 3.7569771.4720306 17.426012-15.8427925 15.5802937-.4584465-.0518417-.7582626-.4542122-.7313042-.8715134 2.3498306-1.3673477 13.3185387-8.0659542 15.9583702-15.4264984.323803.0832233.5833016.3582172.6157265.7177181z" fill="#72d561"/></g><path d="m63.971138 20.3732891c.1648178-1.391058-.7169113-3.2989292-2.1402512-3.5561714 0 0-5.2391968-1.2467585-11.734726 5.9298611l.2232513 1.4484253s7.0152283-4.1035004 11.7804565-2.6371937c.8519975.262146 1.7665293-.300808 1.8712694-1.1849213z" fill="#5ec363"/><g><path d="m63.971138 20.3732891c.0508041-.4287319.0015144-.9064522-.1317444-1.369976-.1770477.7015686-.9206848 1.1914902-1.7008781 1.0711708-3.8684273-.5965042-8.647049 2.1853161-10.6507301 3.5038166 2.1952858-1.0851173 7.0368881-3.1201935 10.6120834-2.0200901.8519973.262146 1.7665291-.300808 1.8712692-1.1849213z" fill="#50b069"/></g><g><path d="m51.1321411 23.6856689c-.0060234-.0752487-.0120468-.1482697-.0182533-.2169895-.0451813-.5010986-.5291481-.8445415-1.0177345-.7216587-.0005417.0001106-.0010262.0002842-.0015793.0004311-4.0400162 7.0356388-12.3018227 13.3284492-12.3018227 13.3284492 4.9516258-1.7928428 10.268631-8.1985836 13.3393898-12.3902321z" fill="#5ec363"/></g></g></g></g></svg>