<svg id="Layer_1" viewBox="0 0 512 512" xmlns="http://www.w3.org/2000/svg" data-name="Layer 1"><path d="m343.49 304.116a27.364 27.364 0 0 0 6.529-22.673l-3.319-21.975c-5.858-38.644-32-71.052-71.081-71.052h-39.26c-39.082 0-65.224 32.408-71.053 71.052l-3.322 21.975a27.366 27.366 0 0 0 6.528 22.673c20.9 24.335 155.365 22.82 174.978 0z" fill="#fb4455" fill-rule="evenodd"/><path d="m505.121 355.613a27.368 27.368 0 0 0 6.528-22.674l-3.322-21.974c-5.858-38.644-32-71.081-71.082-71.081h-39.256c-39.082 0-65.223 32.437-71.052 71.081l-3.323 21.974a27.365 27.365 0 0 0 6.529 22.674c20.925 24.335 155.364 22.819 174.978 0z" fill="#69a7ff" fill-rule="evenodd"/><path d="m187.048 259.468c5.828-38.644 31.97-71.052 71.052-71.052h-21.741c-39.082 0-65.224 32.408-71.053 71.052l-3.322 21.975a27.366 27.366 0 0 0 6.528 22.673c11.25 13.115 55.519 18.739 97.019 17.545-34.185-.991-65.981-6.7-75.307-17.545a27.463 27.463 0 0 1 -6.528-22.673z" fill="#e82e41" fill-rule="evenodd"/><path d="m348.678 310.965c5.829-38.644 31.971-71.081 71.052-71.081h-21.741c-39.082 0-65.223 32.437-71.052 71.081l-3.323 21.974a27.365 27.365 0 0 0 6.529 22.674c11.278 13.115 55.518 18.71 97.019 17.544-34.186-.99-65.981-6.7-75.307-17.544a27.343 27.343 0 0 1 -6.5-22.674z" fill="#4c8fed" fill-rule="evenodd"/><path d="m474.316 112.73a7.17 7.17 0 0 1 14.339 0v27.482a7.17 7.17 0 1 1 -14.339 0z" fill="#ffab02"/><path d="m466.972 190.952a49.081 49.081 0 0 1 -48.961 48.932h-.787a49.074 49.074 0 0 1 -48.932-48.932v-84.284h98.68z" fill="#faba7b" fill-rule="evenodd"/><path d="m368.292 106.668h98.68v54.499h-98.68z" fill="#4d6c8f"/><path d="m417.632 80.76 77.289 27.191-77.289 27.191-77.318-27.191z" fill="#3b5c82" fill-rule="evenodd"/><path d="m312.686 61.233a7.169 7.169 0 1 1 14.338 0v27.512a7.169 7.169 0 1 1 -14.338 0z" fill="#ffab02"/><path d="m305.341 139.455a49.105 49.105 0 0 1 -48.961 48.961h-.787a49.1 49.1 0 0 1 -48.932-48.961v-84.255h98.68v84.254z" fill="#faba7b" fill-rule="evenodd"/><path d="m206.661 55.201h98.68v54.498h-98.68z" fill="#4d6c8f"/><path d="m256.001 29.263 77.289 27.191-77.289 27.22-77.318-27.22z" fill="#3b5c82" fill-rule="evenodd"/><path d="m181.86 355.613a27.368 27.368 0 0 0 6.528-22.674l-3.322-21.974c-5.858-38.644-32-71.081-71.082-71.081h-39.256c-39.082 0-65.223 32.437-71.052 71.081l-3.322 21.974a27.343 27.343 0 0 0 6.5 22.674c20.925 24.335 155.393 22.819 175.007 0z" fill="#2eb851" fill-rule="evenodd"/><path d="m151.055 112.73a7.17 7.17 0 0 1 14.339 0v27.482a7.17 7.17 0 1 1 -14.339 0z" fill="#ffab02"/><path d="m143.711 190.952a49.081 49.081 0 0 1 -48.961 48.932h-.787a49.055 49.055 0 0 1 -48.932-48.932v-84.284h98.68z" fill="#faba7b" fill-rule="evenodd"/><path d="m45.031 106.668h98.68v54.499h-98.68z" fill="#4d6c8f"/><path d="m94.371 80.76 77.289 27.191-77.289 27.191-77.318-27.191z" fill="#3b5c82" fill-rule="evenodd"/><path d="m256 482.737c59.453 0 107.919-48.495 107.919-107.948a108.11 108.11 0 0 0 -107.919-107.918c-59.453 0-107.948 48.466-107.948 107.918s48.496 107.948 107.948 107.948z" fill="#d5e3f2" fill-rule="evenodd"/><path d="m190.253 335.62c21.916-11.453 43.832-11.162 65.748 0 21.916-11.162 43.8-11.453 65.719 0v86.848c-21.916-11.482-43.8-11.162-65.719 0-21.916-11.162-43.832-11.482-65.748 0z" fill="#ffab02" fill-rule="evenodd"/><path d="m248.8 419.2v-86.844c2.39.962 4.779 2.04 7.2 3.264 2.39-1.224 4.78-2.3 7.2-3.264v86.844c-2.419.962-4.809 2.04-7.2 3.264-2.419-1.224-4.808-2.3-7.2-3.264z" fill="#ed9e00"/><g fill-rule="evenodd"><path d="m25.388 310.965c5.858-38.644 32-71.081 71.081-71.081h-21.741c-39.082 0-65.223 32.437-71.052 71.081l-3.322 21.974a27.343 27.343 0 0 0 6.5 22.674c11.278 13.115 55.547 18.71 97.019 17.544-34.157-.99-65.952-6.7-75.278-17.544a27.458 27.458 0 0 1 -6.528-22.674z" fill="#1ca63e"/><path d="m56.426 190.952v-29.785h-11.4v29.785a49.055 49.055 0 0 0 48.932 48.932h.787a52.517 52.517 0 0 0 5.3-.263 49.156 49.156 0 0 1 -43.628-48.669z" fill="#f5ad65"/><path d="m218.056 139.455v-29.755h-11.4v29.756a49.1 49.1 0 0 0 48.932 48.961h.787a52.7 52.7 0 0 0 5.3-.291 49.136 49.136 0 0 1 -43.628-48.67z" fill="#f5ad65"/><path d="m379.687 190.952v-29.785h-11.4v29.785a49.074 49.074 0 0 0 48.932 48.932h.787a52.517 52.517 0 0 0 5.3-.263 49.156 49.156 0 0 1 -43.628-48.669z" fill="#f5ad65"/><path d="m163.237 365.318a107.2 107.2 0 0 1 19.322-52.75c.729-1.049 1.487-2.069 2.274-3.089 1.544-2.04 3.176-4.051 4.867-5.975a107.693 107.693 0 0 1 73.675-36.4c-2.448-.146-4.9-.233-7.374-.233a107.532 107.532 0 0 0 -71.489 27.045c-.9.816-1.807 1.632-2.71 2.477a108.583 108.583 0 0 0 -9.938 10.783 107.325 107.325 0 0 0 -23.636 61.668q-.174 2.973-.175 5.945a107.935 107.935 0 0 0 107.947 107.948c2.477 0 4.926-.087 7.374-.233a108 108 0 0 1 -100.574-107.715c0-3.176.146-6.353.437-9.471z" fill="#b7cfe8"/></g></svg>