<?xml version="1.0" encoding="iso-8859-1"?>
<!-- Generator: Adobe Illustrator 19.0.0, SVG Export Plug-In . SVG Version: 6.00 Build 0)  -->
<svg version="1.1" id="Capa_1" xmlns="http://www.w3.org/2000/svg" xmlns:xlink="http://www.w3.org/1999/xlink" x="0px" y="0px"
	 viewBox="0 0 426.667 426.667" style="enable-background:new 0 0 426.667 426.667;" xml:space="preserve">
<g>
	<rect x="336.256" y="183.236" style="fill:#3A556A;" width="41.101" height="7.309"/>
	<rect x="14.178" y="231.211" style="fill:#3A556A;" width="9.741" height="49.455"/>
	<rect y="251.076" style="fill:#3A556A;" width="19.046" height="9.741"/>
	<polygon style="fill:#3A556A;" points="380.992,212.297 373.685,212.297 373.685,174.263 330.204,174.263 330.204,166.956 
		380.992,166.956 	"/>
</g>
<g>
	<polygon style="fill:#2F4859;" points="81.841,273.822 54.792,325.506 19.048,325.506 43.199,257.882 19.048,186.395 
		54.792,186.395 81.841,241.943 	"/>
	<polyline style="fill:#2F4859;" points="235.242,200.97 244.292,179.087 337.879,179.087 346.879,200.97 	"/>
</g>
<polygon style="fill:#64798A;" points="330.864,162.126 251.308,162.126 244.292,179.087 337.879,179.087 "/>
<g>
	<polygon style="fill:#D5D6DB;" points="27.984,325.506 48.995,274.129 37.397,274.129 19.048,325.506 	"/>
	<polygon style="fill:#D5D6DB;" points="36.55,238.201 19.048,186.395 27.799,186.395 47.133,235.613 	"/>
	<path style="fill:#D5D6DB;" d="M286.154,162.126h14.226v-32.837c0-7.666,6.238-13.902,13.902-13.902h15.921v-14.226h-15.921
		c-15.509,0-28.128,12.619-28.128,28.128V162.126z"/>
</g>
<path style="fill:#3A556A;" d="M270.777,197.386c-86.096,0-253.318,26.22-253.318,58.564c0,32.344,167.222,58.564,253.318,58.564
	s155.816-7.487,155.89-58.564C426.742,203.533,356.873,197.386,270.777,197.386z"/>
<path style="fill:#64798A;" d="M270.777,197.386c-86.096,0-253.318,26.22-253.318,58.564h409.207
	C423.093,199.516,356.873,197.386,270.777,197.386z"/>
<circle style="fill:#D5D6DB;" cx="244.309" cy="243.456" r="22.37"/>
<circle style="fill:#2D93BA;" cx="244.309" cy="243.456" r="15.586"/>
<circle style="fill:#D5D6DB;" cx="182.729" cy="243.456" r="22.37"/>
<circle style="fill:#2D93BA;" cx="182.729" cy="243.456" r="15.586"/>
<g>
</g>
<g>
</g>
<g>
</g>
<g>
</g>
<g>
</g>
<g>
</g>
<g>
</g>
<g>
</g>
<g>
</g>
<g>
</g>
<g>
</g>
<g>
</g>
<g>
</g>
<g>
</g>
<g>
</g>
</svg>
