<svg id="Layer_1" enable-background="new 0 0 52 52" height="512" viewBox="0 0 52 52" width="512" xmlns="http://www.w3.org/2000/svg"><g id="_x39_9"><g><g><g><g><path d="m44.1075363 28.1883297-.0099487.5500488-4.3900147 2.5499878-1.9800415-1.1500244v-.5499878l-.8099975-.4699707 5.2000122-2.0800171z" fill="#774b24"/></g></g></g><g enable-background="new"><g><g><path d="m44.1029129 28.1848984-.0015602.5501575-4.3904495 2.5514508.0015602-.5501595z" fill="#774b24"/></g></g><g><g><path d="m39.7124634 30.7363472-.0015602.5501595-1.98695-1.1471673.0015603-.5501575z" fill="#6c6f79"/></g></g><g><g><path d="m44.1029129 28.1848984-4.3904495 2.5514488-2.7952919-1.613863 5.1987915-2.0847511z" fill="#b4895e"/></g></g></g><g><g enable-background="new"><g><g><path d="m11.6821222 9.2320795-.0010939.387269-2.5151987 2.1609926.0010948-.3873119c.6211472-.9829101 1.3814469-1.7975464 2.5151978-2.1609497z" fill="#774b24"/></g></g><g><g><path d="m9.1669273 11.3930531-.0010976.387288-1.7693758-1.0215492.0010981-.3872881z" fill="#23201e"/></g></g><g><g><path d="m11.682126 9.2320604-2.5151987 2.1609927-1.7693753-1.0215493 3.1188474-1.8124761z" fill="#b4895e"/></g></g></g><g enable-background="new"><g><g><path d="m7.7595534 13.4897699.3348508-.1945829-.6141701 3.2582016-.3348546.194622c-.3459472-.9136972.1333008-2.0857553.6141739-3.2582407z" fill="#774b24"/></g></g><g><g><path d="m5.9898806 12.4680614.3348522-.1945943 1.7696714 1.0217199-.3348517.1945953z" fill="#39332f"/></g></g><g><g><path d="m7.7595525 13.4897823-.6141706 3.2582016-1.1657266-.6730327.0102253-3.6068898z" fill="#b4895e"/></g></g></g><g><g><g><g><path d="m5.4775314 8.9383297c-.0699463.7800293-.7099609 1.6900024-1.4299926 2.0300293-.4199829.1900024-.7799683.1500244-.9899902-.0800171-.0299683-.039978-.0599976-.0799561-.0899658-.1300049l-.8300172-1.2099609-.0499878-.0700073v-.0100098c-.0700073-.1099854-.1000365-.25-.0800171-.4199829.039978-.5300293.4799805-1.1500244.9699707-1.3800049.1600342-.0800171.3100586-.1000366.4400025-.0599976l.0100098-.0100098 1.5.4000244c.0300292.0099488.0499877.0099488.080017.0199586.3200074.1000366.5100098.4299927.4699707.9199829z" fill="#9ea9c9"/></g></g></g><g><g><g><path d="m2.9736087 7.6724267c.4887929-.2267332.8476009.0225792.8012869.5570388-.0462911.5341988-.480171 1.1512127-.9689639 1.3779459-.4890307.2268438-.84784-.0224705-.8015486-.5566693.0463137-.5344591.480195-1.1514716.9692256-1.3783154z" fill="#9ea9c9"/></g></g><g><path d="m5.0122614 8.0216036-1.9520664 2.8691377-.9769624-1.407896 1.3470686-1.881022z" fill="#9ea9c9"/></g><g><g><path d="m4.2923207 8.1125813c.7207623-.3343354 1.2498513.0332946 1.1815582.8213949-.0682602.7877168-.7080484 1.6975498-1.4288106 2.0318851-.7211125.3344984-1.2502041-.0331335-1.1819439-.8208504.0682931-.7881002.7080838-1.6979312 1.4291963-2.0324296z" fill="#b0b8cf"/></g><g><path d="m5.2470465 8.9191036c-.0599976.7000122-.6500244 1.539978-1.2999876 1.8399658-.1600342.0800171-.3200073.1100464-.4500122.1000366-.1900024-.0100098-.3200073-.1300049-.3699951-.3200073-.039978-.0999756-.0499878-.2299805-.039978-.3699951.0599976-.710022.6599731-1.5499878 1.2999876-1.8500366.0700073-.0299683.1399536-.0599976.2099609-.0799561.0900269-.0200195.1700439-.0300293.25-.0200195.290039.0200195.4400024.2800293.4000244.7000122z" fill="#9ea9c9"/></g><g><path d="m4.6270514 8.6191158c-.0599976.6999512-.6500242 1.5499878-1.2999876 1.8499756-.0700073.0300293-.1400146.0499878-.2000122.0700073-.039978-.0999756-.0499878-.2299805-.039978-.3699951.0599976-.710022.6599731-1.5499878 1.2999876-1.8500366.0700073-.0299683.1399536-.0599976.2099609-.0799561.0300293.0999756.040039.2299805.0300293.3800049z" fill="#191716"/></g></g></g><g><path d="m49.4968033 44.1612358s-2.1599731 3.8800049-11.2800293-2.8900146c-.7299805-.539978-1.5299683-1.1499634-2.3999634-1.8099976v-.0100098c-.1799927-.1299438-.3599854-.2699585-.5400391-.4199829-2.8499756-2.2000122-6.3199444-4.9799805-9.8399639-7.8300171-.1799927-.1599731-.3599854-.2999878-.5499878-.4599609-6.8099976-5.5400391-13.6799936-11.3200073-16.4700317-13.8200073-1.3699946-1.2200317-2.5700068-2.6500244-3.3599849-4.2999878-.4799805-.9700317-.8200073-1.960022-1.0300293-2.9800415-.0299692-.1599732.1000357-.3099976.2600088-.2999878 2.3900146.0800171 4.690002.75 6.8500361 2.1199951 0 0 9.4299936 6.1700439 18.4199829 12.25l.5700073.3900146c4.1599712 2.8200073 8.1900005 5.5900269 11.0800152 7.6900024h.0099487c.1800537.1400146.3500366.2700195.5300293.4000244 1.5 1.0999756 2.6400146 1.9899902 3.2700195 2.5700073 4.4099743 4.0199586 5.8599865 7.0499879 4.4799816 9.3999635z" fill="#423b37"/></g></g><g><g><g enable-background="new"><g><g><path d="m7.4968047 12.3620844v.3900146l-3.7200317 1.460022-1.1699829-.6700439v-.3899536l3.1199951-1.8099976z" fill="#8d613a"/></g></g></g></g><g><g enable-background="new"><g><g><path d="m7.4976563 12.3631277-.0010976.3872881-3.7221942 1.4637833.0010979-.3872872z" fill="#774b24"/></g></g><g><g><path d="m3.7754624 13.8269119-.0010979.3872872-1.1657267-.6730328.0010979-.3872871z" fill="#8d613a"/></g></g><g><g><path d="m7.4976563 12.3631277-3.7221939 1.4637842-1.1657267-.6730327 3.1185453-1.8123007z" fill="#b4895e"/></g></g></g></g><g><g enable-background="new"><g><g><path d="m8.0967798 11.3620844-.3299556.2000122-1.7700195-1.0200195.0100098-3.6099854.3300171-.2000122 1.1699829.6799927z" fill="#774b24"/></g></g></g></g><g><g enable-background="new"><g><g><path d="m7.1716118 7.603363.3348522-.1945948.5934143 3.9557509-.3348522.1945944z" fill="#774b24"/></g></g><g><g><path d="m6.0055804 6.9301543.3348522-.1945948 1.1660314.6732087-.3348522.1945948z" fill="#b4895e"/></g></g><g><g><path d="m7.1716118 7.603363.5934143 3.9557505-1.7696719-1.0217199.0102262-3.6072393z" fill="#8d613a"/></g></g></g></g></g></g><g><g enable-background="new"><g><g><path d="m41.7468033 32.1912651c-.4199829.0099487-.8800049.1099854-1.3900146.3299561-2.2199707.960022-4.25 3.6799927-4.5199585 6.0800171-.0400391.3099976-.0400391.5900269-.0200195.8499756-.1799927-.1299438-.3599854-.2699585-.5400391-.4199829-.0199585-.2600098-.0199585-.5499878.0200195-.8499756.2800293-2.3800049 2.2999878-5.1000366 4.5300293-6.0599976.4899902-.2200317.9599609-.3200073 1.3800049-.3300171h.0099487c.1800537.1400146.3500366.2700195.5300293.4000244z" fill="#191716"/></g></g></g></g><g><g enable-background="new"><g><g><path d="m30.1268101 24.1012383c-.0599976.0100098-.1099854.0300293-.1699829.0599976-2.2200317.960022-4.25 3.6799927-4.5200195 6.0800171-.039978.3499756-.039978.6699829 0 .9599609-.1799927-.1599731-.3599854-.2999878-.5499878-.4599609-.0300293-.2800293-.0300293-.5900269.0100098-.9199829.2799683-2.3800049 2.2999878-5.1000366 4.5299683-6.0599976.039978-.0200195.0900269-.0400391.1300049-.0500488z" fill="#191716"/></g></g></g></g><g><g><g><g><path d="m32.8475876 34.7283669v.5499877l-4.3900147 2.5499878-1.9899902-1.1499633v-.5500489l3.5899658-3.0199585z" fill="#774b24"/></g></g></g><g enable-background="new"><g><g><path d="m32.8493919 34.7247276-.0015602.5501595-4.3951912 2.5542068.0015602-.5501594z" fill="#774b24"/></g></g><g><g><path d="m28.4542007 37.2789345-.0015602.5501594-1.986948-1.1471672.0015583-.5501594z" fill="#8d613a"/></g></g><g><g><path d="m32.8493919 34.7247276-4.3951912 2.5542069-1.9869499-1.1471672 3.5868473-3.0209008z" fill="#b4895e"/></g></g></g></g><g><g enable-background="new"><g><g><path d="m13.8377209 20.3998108-4.6475478-3.9354248c-.0547552-.0462704-.0793924-.1282196-.0608168-.2349796.0373983-.2149334.2361984-.4515743.442235-.5264292l4.6475401 3.9354315c-.2060328.0748501-.4048328.311491-.4422312.5264244-.0185756.10676.0060616.1887092.0608207.2349777z" fill="#282422"/></g></g><g><g><path d="m14.2191353 19.6384029-.13587.7808647c-.2060366.0748539-.3437595-.0395241-.306365-.2544346.0373983-.2149333.2361984-.4515743.442235-.5264301z" fill="#383330"/></g></g></g></g><g><g enable-background="new"><g><g><path d="m20.6660404 25.8229523-4.6475487-3.9354248c-.0547543-.0462704-.0793915-.1282215-.0608158-.2349796.0373993-.2149334.2361984-.4515743.442234-.5264301l4.647541 3.9354324c-.2060318.0748501-.4048328.3114891-.4422302.5264244-.0185775.1067581.0060616.1887092.0608197.2349777z" fill="#282422"/></g></g><g><g><path d="m21.0474548 25.0615444-.13587.7808628c-.2060356.0748558-.3437595-.0395222-.3063641-.2544327.0373975-.2149353.2361985-.4515743.4422341-.5264301z" fill="#383330"/></g></g></g></g></g><g><g><g><path d="m44.4464226 35.6111946c.1949806.1125717.1959991.2944183.0032234.4064484-.1937141.1125755-.5076561.1125755-.7026367.0000076-.1940422-.11203-.1959991-.2944221-.002285-.4069939.1927757-.11203.5076561-.1114921.7016983.0005379z" fill="#9ea9c9"/></g></g><g><g><path d="m43.7066689 36.5271339c.1949806.1125717.1960068.2944145.0022964.4069901-.1927872.1120338-.5067215.11203-.7017021-.0005379-.1940422-.11203-.1960068-.2944183-.0032234-.4064522.1937141-.1125717.5085907-.11203.7026291 0z" fill="#9ea9c9"/></g></g><g><g><path d="m42.2839317 36.867897c.1949806.1125717.1959991.2944183.0022888.4069939-.1927795.11203-.5067215.11203-.7017021-.0005379-.1940384-.11203-.1959991-.2944221-.0032196-.4064522.1937104-.1125717.5085945-.1120338.7026329-.0000038z" fill="#9ea9c9"/></g></g></g><g><g><g enable-background="new"><g><path d="m20.7633286 17.3880978c-.282999.1459732-.3675385.2832947-.722765.2630348-.3594742-.0180626-.6949425-.4652691-.963686-.6389656l-4.7241545-2.489974c-.2709618-.1751347-.5581217-.2028475-.5469246-.4136791l-.0857315 1.6005154c-.0111971.2108316.1172781.4294043.388278.6045828l4.8455067 3.1318207c.2687435.1736965.6288528.2718887.9882889.2899494.3552265.0202599.7224445-.0413857 1.0054417-.1873589.2806473-.1447659.4267921-.3458023.4378452-.5537491l.0857735-1.6005516c-.0110512.2079448-.4272252-.1503907-.7078724-.0056248z" fill="#9ea9c9"/></g><g><g><path d="m21.084959 16.7898636c.5334167.3447647.5143623.8656616-.0516396 1.1576138-.2830009.145977-.6502075.2076187-1.0054169.1873589-.3594532-.0180702-.7195587-.1162491-.9883022-.2899475l-4.8455238-3.1318378c-.5374861-.3473969-.5143614-.8656626.0473661-1.1554098.2787266-.1437702.6459322-.2054129 1.0096903-.1895628.363555.0206861.7236328.1188812.9883041.2899475z" fill="#c9cee2"/></g></g></g></g><g><g><g><g enable-background="new"><g><g><path d="m16.5073814 12.3255157-.1838875 2.3043966c-.004755.0593672-.0475063.1155586-.1279984.1543751-.1670475.0805559-.4267702.0586252-.5774412-.0446081-.0767822-.0526085-.1125116-.1167936-.1076221-.1778288l.1838856-2.3043928c-.0048876.0610323.0612288.0526838.138011.1052923.150671.1032343.3732452.0805559.5402927 0 .080494-.0388154.1300049.0221329.1347599-.0372343z" fill="#b0b8cf"/></g></g><g><g><path d="m16.4000072 12.1468773c.150671.1032343.1430931.2540646-.0206242.3330135-.1670494.0805559-.4267712.0586262-.5774422-.0446081-.1522064-.1042862-.1430902-.2540627.0239573-.3346186.1637183-.0789489.4219027-.058073.5741091.0462132z" fill="#c9cee2"/></g></g></g></g><g><g enable-background="new"><g><g><path d="m16.4712143 10.5757027-.135252 1.7063761c-.0027771.0346813-.02775.0675077-.0747738.0901842-.0975895.04706-.2493172.0342484-.3373375-.0260601-.0448551-.0307331-.0657272-.0682297-.062871-.1038857l.1352491-1.7063742c-.0028553.035655.0597687.0326033.1046238.0633364.0880203.0603094.1839924.0505524.2815819.0034924.0470219-.0226765.0860005.0076131.0887795-.0270691z" fill="#282422"/></g></g><g><g><path d="m16.4084873 10.471343c.0880203.0603085.0835934.1484222-.0120487.1945438-.0975876.04706-.2493153.0342493-.3373375-.0260592-.0889168-.0609236-.0835924-.1484213.0139961-.1954813.0956421-.0461224.2464714-.0339259.3353901.0269967z" fill="#423b37"/></g></g></g></g></g><g><g><g enable-background="new"><g><g><path d="m18.4357872 13.1041222-.2224293 2.8032656c-.004755.0593662-.0475044.1155577-.1279984.1543741-.1670475.0805569-.4267693.0586262-.5774403-.0446072-.0767822-.0526094-.1125126-.1167936-.1076221-.1778288l.2224255-2.8032618c-.0048866.0610323.0455112.0907402.1222935.1433487.150671.1032343.3975258.0805559.5645752 0 .080492-.0388164.121439-.0159235.1261959-.0752906z" fill="#b0b8cf"/></g></g><g><g><path d="m18.3284111 12.9254837c.1506729.1032343.143095.2540646-.0206223.3330135-.1670494.0805559-.4267712.0586262-.5774422-.0446081-.1522064-.1042862-.1430912-.2540627.0239563-.3346186.1637173-.0789489.4219018-.058073.5741082.0462132z" fill="#c9cee2"/></g></g></g></g><g><g enable-background="new"><g><g><path d="m18.4381599 10.8554401-.1737919 2.205245c-.0027771.0346813-.0277519.0675077-.0747757.0901842-.0975876.04706-.2493153.0342484-.3373356-.0260601-.0448551-.0307331-.0657291-.0682297-.0628719-.1038857l.17379-2.2052422c-.0028553.0356541.0313091.0470161.0761642.0777493.0880203.0603094.2211609.04706.3187504 0 .0470219-.0226754.0772915-.0033082.0800705-.0379905z" fill="#282422"/></g></g><g><g><path d="m18.375433 10.7510815c.0880203.0603085.0835934.1484222-.0120487.1945438-.0975876.04706-.2493153.0342484-.3373375-.0260601-.0889168-.0609236-.0835915-.1484213.0139961-.1954813.0956421-.0461216.2464714-.033926.3353901.0269976z" fill="#423b37"/></g></g></g></g></g><g><g><g enable-background="new"><g><g><path d="m20.2485695 15.3793335-.1453476 1.8055286c-.004755.0593662-.0475044.1155586-.1279964.1543751-.1670494.080555-.4267712.0586262-.5774422-.0446091-.0767822-.0526085-.1125107-.1167927-.1076221-.1778278l.1453457-1.8055248c-.0048885.0610323.0602512.0616713.1370335.1142788.150671.1032343.3779469.0772924.5449944-.0032625.0804938-.0388165.1262797.0164098.1310347-.0429583z" fill="#b0b8cf"/></g></g><g><g><path d="m20.1411953 15.200695c.150671.1032343.1430931.2540646-.0206242.3330145-.1670475.0805559-.4267693.0586252-.5774403-.0446081-.1522064-.1042862-.1430912-.2540627.0239563-.3346186.1637173-.0789499.4219018-.058074.5741082.0462122z" fill="#c9cee2"/></g></g></g></g><g><g enable-background="new"><g><g><path d="m20.2124023 13.6295204-.1352501 1.7063761c-.0027771.0346813-.0277519.0675087-.0747757.0901842-.0975876.04706-.2493153.0342493-.3373356-.0260592-.044857-.0307341-.0657291-.0682297-.0628719-.1038857l.1352482-1.7063742c-.0028553.0356541.0515976.013752.0964527.044486.0880203.0603085.1998463.0631857.2974358.0161257.0470219-.0226763.0783195.0138294.0810966-.0208529z" fill="#282422"/></g></g><g><g><path d="m20.1496754 13.5251617c.0880203.0603085.0835953.1484222-.0120487.1945438-.0975876.04706-.2493153.0342484-.3373356-.0260601-.0889187-.0609226-.0835934-.1484213.0139961-.1954813.0956421-.0461215.2464714-.0339259.3353882.0269976z" fill="#423b37"/></g></g></g></g></g></g></g><g><g><g><g enable-background="new"><g><path d="m35.3220406 24.3323269c-.5338326.3102303-1.256855.2059498-1.8077202-.1120815-.033783-.0194988-.1306763-.3328876-.1617546-.3546944l-5.2024498-3.2973022c-.0673313-.0465183-.2164917.0467186-.2163315 0l-.0150814 4.6964054c-.0001202.0467587.028492.096262.0958614.1428204l5.2829285 3.8741112c.0310402.0218067.0634689.0424595.0972557.0619583.5508614.3180313 1.4439125.3300095 1.9777451.0197773.2629967-.1528473.3913307-.3507805.3918877-.5503464l.0150833-4.6964035c-.0005608.1995639-.1944695.0629462-.4574242.2157554z" fill="#c9cee2"/></g><g><g><path d="m35.3494797 23.5226898c.5498886.3174458.5828552.8276196.0380821 1.144207-.5338364.3102303-1.4268761.2982845-1.9777374-.0197582-.0337906-.0195084-.0662193-.0401478-.0972862-.0619507l-5.2829208-3.8741417c-.2957211-.2042999.1550407-.4662533.5086765-.2956123l6.7014256 3.049799c.0385894.0183162.0752257.0375194.1097602.0574569z" fill="#e3e7f0"/></g></g></g></g><g><g><g enable-background="new"><g><g><path d="m31.6238995 17.9815235-.0087013 4.1873283c-.0002499.0886841-.057272.1770115-.1723213.2438698-.2387657.1387558-.6268711.1359863-.862402.0000019-.1200275-.0692978-.1804333-.16049-.1801739-.2516651l.0086975-4.1873226c-.0002575.0911713.1256657.1363564.2456932.2056541.2355309.1359844.5515404.0987167.7903061-.0400372.1150493-.0668601.1786499-.0691432.1789017-.1578292z" fill="#b0b8cf"/></g></g><g><g><path d="m31.4439983 17.7286263c.2355328.1359844.241581.3607807.0075779.496769-.2387657.1387558-.6268711.1359863-.862402.0000019-.2379322-.1373692-.2415771-.3607788-.0028114-.4995327.2340031-.1359883.6197052-.1346074.8576355.0027618z" fill="#c9cee2"/></g></g></g></g><g><g enable-background="new"><g><g><path d="m31.3695087 15.4575138-.0050831 2.4791813c-.0001469.0518093-.0334587.1034088-.1006699.1424675-.1394844.0810604-.3662128.0794411-.5038071.0000019-.0701199-.0404835-.1054077-.0937576-.105257-.1470222l.0050812-2.4791784c-.0001507.0532618.0622158.0557737.1323338.0962563.1375961.0794411.323019.0579348.4625034-.0231247.0672112-.0390588.1147519-.0167724.1148987-.0685817z" fill="#282422"/></g></g><g><g><path d="m31.2644119 15.3097734c.1375961.0794411.1411304.2107649.004427.2902079-.1394844.0810595-.3662128.079442-.503809.000001-.138998-.0802498-.1411266-.210763-.0016422-.2918224.1367035-.079444.3620262-.0786362.5010242.0016135z" fill="#423b37"/></g></g></g></g></g><g><g><g enable-background="new"><g><g><path d="m34.5761642 20.5007439-.0087013 3.3726006c-.000248.0886841-.0572701.1770096-.1723213.2438698-.2387657.1387558-.6268692.1359863-.8624001.0000019-.1200294-.0692978-.1804352-.16049-.1801758-.2516651l.0086975-3.3725967c-.0002556.0911713.0849228.0963192.2049484.165617.2355309.1359844.585907.1387558.8246727 0 .1150514-.0668604.1850282-.0691435.1852799-.1578275z" fill="#b0b8cf"/></g></g><g><g><path d="m34.3962631 20.2478466c.2355309.1359825.241581.3607788.0075798.496767-.2387657.1387558-.626873.1359863-.8624039.0000019-.2379303-.1373692-.2415771-.3607769-.0028114-.4995327.234005-.1359882.6197052-.1346073.8576355.0027638z" fill="#c9cee2"/></g></g></g></g><g><g enable-background="new"><g><g><path d="m34.3217735 17.9767342-.0050812 2.4791813c-.0001488.0518074-.0334587.1034069-.1006699.1424675-.1394844.0810585-.3662148.0794411-.5038109 0-.070118-.0404835-.1054039-.0937576-.1052551-.1470203l.0050812-2.4791794c-.0001488.0532608.057869.0724621.1279869.1129456.1375961.0794411.3277054.0544968.4671898-.0265617.0672112-.0390588.1144143-.0300256.1145592-.081833z" fill="#282422"/></g></g><g><g><path d="m34.2166786 17.8289928c.1375923.0794411.1411285.2107639.004425.2902088-.1394844.0810585-.3662148.0794411-.5038071 0-.1389999-.0802498-.1411285-.2107639-.0016441-.2918224.1367036-.079443.3620263-.0786361.5010262.0016136z" fill="#423b37"/></g></g></g></g></g></g><g><g><path d="m35.3800354 28.6814137c-.5338326.3102322-1.4268837.2982941-1.9777451-.0197372-.0337868-.0194988-.0662193-.0401516-.0972977-.0619583l-5.2829266-3.8741531c-.0673313-.0465183-.0959816-.0960617-.0958233-.1427784v.6818676c-.0001183.0467587.028492.096262.0958633.1428204l5.2829285 3.8741112c.0310364.0218067.0634689.0424595.0972557.0619583.5508614.3180313 1.4439125.3300095 1.9777451.0197773.2629967-.1528473.3913307-.3507805.3918877-.5503464v-.6818676c-.0005569.1995657-.1289329.3974989-.3918876.5503062z" fill="#9ea9c9"/></g></g></g></g></svg>