<svg id="Capa_1" enable-background="new 0 0 494.313 494.313" height="512" viewBox="0 0 494.313 494.313" width="512" xmlns="http://www.w3.org/2000/svg"><path d="m138.009 26.879h-107.272l-10 52.88 10 52.974h107.272l10-55.135z" fill="#fe646f"/><path d="m243.318 26.879h-105.225v105.854h105.225c6.762 0 12.243-5.481 12.243-12.243v-81.368c.001-6.762-5.481-12.243-12.243-12.243z" fill="#fff4f1"/><path d="m243.318 26.879h-30c6.762 0 12.243 5.481 12.243 12.243v81.368c0 6.762-5.481 12.243-12.243 12.243h30c6.762 0 12.243-5.481 12.243-12.243v-81.368c.001-6.762-5.481-12.243-12.243-12.243z" fill="#f0e5e3"/><path d="m87.45 88.172c-1.027 1.738-2.607 2.291-4.107 2.291-1.422 0-2.923-.474-3.871-2.291l-7.504-13.745v30.413c0 2.527-3.081 3.792-6.162 3.792s-6.162-1.264-6.162-3.792v-47.792c0-4.503 3.081-6.162 6.162-6.162 4.424 0 6.32.474 9.559 6.162l8.135 14.219 8.137-14.219c3.239-5.688 5.134-6.162 9.558-6.162 3.16 0 6.162 1.659 6.162 6.162v47.792c0 2.527-3.081 3.792-6.162 3.792s-6.162-1.264-6.162-3.792v-29.623z" fill="#fff4f1"/><g fill="#c5d3dd"><path d="m214.928 62.297h-34.325c-4.142 0-7.5-3.358-7.5-7.5s3.358-7.5 7.5-7.5h34.325c4.142 0 7.5 3.358 7.5 7.5s-3.358 7.5-7.5 7.5z"/><path d="m214.928 87.62h-34.325c-4.142 0-7.5-3.358-7.5-7.5s3.358-7.5 7.5-7.5h34.325c4.142 0 7.5 3.358 7.5 7.5s-3.358 7.5-7.5 7.5z"/><path d="m214.928 112.315h-34.325c-4.142 0-7.5-3.358-7.5-7.5s3.358-7.5 7.5-7.5h34.325c4.142 0 7.5 3.358 7.5 7.5s-3.358 7.5-7.5 7.5z"/></g><path d="m30.737 371.248v-356.038c0-8.4-6.809-15.21-15.21-15.21-8.4 0-15.21 6.81-15.21 15.21v356.038z" fill="#b6c4cf"/><path d="m440.379 457.39-275.54 10-164.52-10v-35.119l10-14.585-10-14.584v-41.335l10-29.686-10-29.686v-46.251h247.505c45.778 0 90.389 14.45 127.473 41.291l6.853 4.96 17.179 36.91 57.854 17.398 10.675 7.726c12.177 8.814 19.387 22.933 19.387 37.965v18.131c-.001 25.883-20.983 46.865-46.866 46.865z" fill="#fff4f1"/><path d="m479.632 494.313h-468.275c-6.097 0-11.039-4.942-11.039-11.039v-24.457c0-.916.742-1.658 1.658-1.658h477.655c7.933 0 14.364 6.431 14.364 14.364v8.426c0 7.934-6.431 14.364-14.363 14.364z" fill="#8d9ca8"/><path d="m467.857 354.429-92.561-66.994c-37.084-26.841-81.694-41.291-127.473-41.291h-247.505v30h217.505c45.778 0 90.389 14.45 127.473 41.291l92.561 66.994c12.177 8.814 19.387 22.933 19.387 37.965v18.131c0 5.081-.819 9.969-2.315 14.551 18.757-6.123 32.315-23.749 32.315-44.551v-18.131c0-15.032-7.21-29.152-19.387-37.965z" fill="#f0e5e3"/><path d="m485.759 422.271c.969-3.754 1.485-7.69 1.485-11.747v-17.422h-486.926v29.169z" fill="#fd4755"/><path d="m457.245 393.102v17.423c0 4.057-.516 7.993-1.485 11.747h30c.969-3.754 1.485-7.69 1.485-11.747v-17.423z" fill="#fb2b3a"/><path d="m72.039 351.767h-71.721v-59.372h71.721c7.561 0 13.691 6.13 13.691 13.691v31.991c0 7.561-6.13 13.69-13.691 13.69z" fill="#8ac9fe"/><path d="m72.039 292.395h-71.721 41.721c7.561 0 13.691 6.13 13.691 13.691v31.991c0 7.56-6.128 13.689-13.688 13.691h29.998c7.561 0 13.691-6.129 13.691-13.691v-31.991c-.001-7.562-6.131-13.691-13.692-13.691z" fill="#60b7ff"/><path d="m202.251 351.767h-58.03c-7.561 0-13.691-6.129-13.691-13.691v-31.991c0-7.561 6.13-13.691 13.691-13.691h58.03c7.561 0 13.691 6.13 13.691 13.691v31.991c0 7.562-6.129 13.691-13.691 13.691z" fill="#8ac9fe"/><path d="m202.251 292.395h-30c7.561 0 13.691 6.13 13.691 13.691v31.991c0 7.561-6.13 13.691-13.691 13.691h30c7.561 0 13.691-6.129 13.691-13.691v-31.991c0-7.562-6.129-13.691-13.691-13.691z" fill="#60b7ff"/><path d="m457.182 346.703-51.361-19.937-23.672-34.371h-63.353c-13.621 0-24.663 11.042-24.663 24.663v10.047c0 13.621 11.042 24.663 24.663 24.663h138.386z" fill="#8ac9fe"/><path d="m457.182 346.703-75.034-54.308h-63.353c-4.228 0-8.207 1.066-11.685 2.94 13.372 6.023 26.175 13.407 38.185 22.1l47.434 34.332h64.452v-5.064z" fill="#60b7ff"/></svg>