<svg height="512pt" viewBox="-113 0 512 512" width="512pt" xmlns="http://www.w3.org/2000/svg"><path d="m74.074219 512c-10.324219 0-18.695313-8.367188-18.695313-18.691406v-69.058594h37.386719v69.058594c0 10.324218-8.371094 18.691406-18.691406 18.691406zm0 0" fill="#4e5a61"/><path d="m212.707031 512c-10.324219 0-18.691406-8.367188-18.691406-18.691406v-69.058594h37.382813v69.058594c0 10.324218-8.367188 18.691406-18.691407 18.691406zm0 0" fill="#4e5a61"/><path d="m108.082031 6.054688c-4.300781 0-7.789062 3.488281-7.789062 7.789062v65.640625c0 4.300781 3.488281 7.789063 7.789062 7.789063s7.789063-3.488282 7.789063-7.789063v-65.640625c0-4.300781-3.488282-7.789062-7.789063-7.789062zm0 0" fill="#a6e0ec"/><path d="m178.695312 6.054688c-4.300781 0-7.785156 3.488281-7.785156 7.789062v65.640625c0 4.300781 3.484375 7.789063 7.785156 7.789063 4.304688 0 7.789063-3.488282 7.789063-7.789063v-65.640625c0-4.300781-3.484375-7.789062-7.789063-7.789062zm0 0" fill="#a6e0ec"/><path d="m286.777344 126.472656v281.941406c0 25.949219-21.039063 46.988282-46.988282 46.988282h-192.800781c-25.949219 0-46.988281-21.039063-46.988281-46.988282v-281.941406c0-25.949218 21.039062-46.988281 46.988281-46.988281h192.800781c25.949219 0 46.988282 21.039063 46.988282 46.988281zm0 0" fill="#2cb3cd"/><path d="m286.777344 126.472656v281.941406c0 25.949219-21.039063 46.988282-46.988282 46.988282h-157.492187c-25.949219 0-46.988281-21.039063-46.988281-46.988282v-281.941406c0-25.949218 21.039062-46.988281 46.988281-46.988281h157.492187c25.949219 0 46.988282 21.039063 46.988282 46.988281zm0 0" fill="#44bfd7"/><g fill="#269ab1"><path d="m43.113281 122.078125c-4.304687 0-7.789062 3.484375-7.789062 7.785156v46.003907c0 4.300781 3.484375 7.789062 7.789062 7.789062 4.300781 0 7.789063-3.488281 7.789063-7.789062v-46.003907c0-4.300781-3.488282-7.785156-7.789063-7.785156zm0 0"/><path d="m43.113281 199.234375c-4.304687 0-7.789062 3.484375-7.789062 7.785156v207.691407c0 4.300781 3.484375 7.789062 7.789062 7.789062 4.300781 0 7.789063-3.488281 7.789063-7.789062v-207.691407c0-4.300781-3.488282-7.785156-7.789063-7.785156zm0 0"/><path d="m93.25 122.078125c-4.300781 0-7.789062 3.484375-7.789062 7.785156v284.847657c0 4.300781 3.488281 7.789062 7.789062 7.789062 4.304688 0 7.789062-3.488281 7.789062-7.789062v-284.847657c0-4.300781-3.484374-7.785156-7.789062-7.785156zm0 0"/><path d="m143.390625 122.078125c-4.304687 0-7.789063 3.484375-7.789063 7.785156v284.847657c0 4.300781 3.484376 7.789062 7.789063 7.789062 4.300781 0 7.789063-3.488281 7.789063-7.789062v-284.847657c0-4.300781-3.488282-7.785156-7.789063-7.785156zm0 0"/><path d="m193.527344 122.078125c-4.300782 0-7.785156 3.484375-7.785156 7.785156v207.691407c0 4.300781 3.484374 7.789062 7.785156 7.789062 4.304687 0 7.789062-3.488281 7.789062-7.789062v-207.691407c0-4.300781-3.484375-7.785156-7.789062-7.785156zm0 0"/><path d="m193.527344 360.921875c-4.300782 0-7.785156 3.484375-7.785156 7.789063v46c0 4.300781 3.484374 7.789062 7.785156 7.789062 4.304687 0 7.789062-3.488281 7.789062-7.789062v-46c0-4.304688-3.484375-7.789063-7.789062-7.789063zm0 0"/><path d="m243.667969 122.078125c-4.300781 0-7.789063 3.484375-7.789063 7.785156v284.847657c0 4.300781 3.488282 7.789062 7.789063 7.789062s7.789062-3.488281 7.789062-7.789062v-284.847657c0-4.300781-3.488281-7.785156-7.789062-7.785156zm0 0"/></g><path d="m202.207031 13.84375c0 3.820312-1.546875 7.277344-4.050781 9.78125-2.511719 2.511719-5.96875 4.058594-9.792969 4.058594h-89.949219c-7.644531 0-13.84375-6.199219-13.84375-13.839844 0-3.824219 1.546876-7.28125 4.050782-9.785156 2.511718-2.511719 5.972656-4.058594 9.792968-4.058594h89.949219c6.824219 0 12.484375 4.933594 13.636719 11.421875.136719.789063.207031 1.601563.207031 2.421875zm0 0" fill="#2cb3cd"/><path d="m202 11.421875h-87.863281c-6.8125 0-12.484375-4.929687-13.625-11.421875h87.851562c6.824219 0 12.484375 4.933594 13.636719 11.421875zm0 0" fill="#44bfd7"/></svg>