<svg id="Capa_1" enable-background="new 0 0 512 512" height="512" viewBox="0 0 512 512" width="512" xmlns="http://www.w3.org/2000/svg"><g><path d="m512 256c0 80.756-37.394 152.756-95.809 199.675h-320.382c-58.415-46.919-95.809-118.919-95.809-199.675 0-141.385 114.615-256 256-256s256 114.615 256 256z" fill="#ace233"/><path d="m324.495 99.806-96.403 96.403-21.571-21.571-34.306 34.306 85.42 85.42-27.937 27.937 133.374 133.374h53.118c51.17-41.1 86.206-101.445 94.111-170.062z" fill="#00cb75"/><path d="m207.174 254.824v97.653h48.826l17.104-48.827-17.104-48.826z" fill="#fcbeac"/><path d="m256 254.824h48.826v97.652h-48.826z" fill="#f7a690"/><path d="m256 105.365h-38.231c-19.952 0-36.125 19.208-36.125 42.902v19.583c-2.692-2.449-5.674-3.651-8.58-3.138-7.377 1.301-11.459 13.119-9.117 26.397 2.341 13.278 10.219 22.988 17.596 21.687.034-.006.067-.016.101-.023v7.723c0 6.548 2.148 12.915 6.114 18.125l30.103 39.546c5.659 7.435 14.467 11.799 23.81 11.799h14.329l12.765-92.301z" fill="#fdcdbf"/><path d="m338.936 164.711c-2.906-.512-5.888.689-8.58 3.138v-19.583c0-23.694-16.174-42.902-36.125-42.902h-38.231v184.601h14.33c9.344 0 18.151-4.365 23.81-11.799l30.103-39.546c3.966-5.21 6.113-11.577 6.113-18.125v-7.723c.034.006.067.017.101.023 7.377 1.301 15.255-8.409 17.596-21.687 2.342-13.278-1.74-25.097-9.117-26.397z" fill="#fcbeac"/><path d="m203.863 91.24c-6.383 5.409-10.305 11.369-12.622 15.592-4.049.974-9.957 3.088-14.476 8.168 0 0-.002.002-.002.002-9.608 10.982.002 55.998.002 55.998 1.56 7.308 3.738 16.981 6.623 28.353 2.653-12.52 5.822-25.609 9.612-39.177 2.338-8.37 4.781-16.45 7.294-24.235 2.753 1.485 7.022 3.582 12.471 5.412 12.57 4.222 22.915 4.166 26.588 4.235 5.654.108 11.286.816 16.647 1.854l12.765-35.148-12.765-34.235c-14.412-.004-35.333-1.06-52.137 13.181z" fill="#c6865c"/><path d="m335.823 199.353c1.447-8.473 2.97-20.372 3.112-34.642.272-27.261.434-43.715-8.759-57.946-17.121-26.505-64.352-28.704-74.176-28.706v69.383c15.538 3.008 28.772 8.796 33.471 10.852 10.525 4.606 29.19 15.176 46.352 41.059z" fill="#ad6d68"/><path d="m207.174 309.821-31.269 10.826-28.778-10.826 108.873 202.179 24.413-91.118-24.413-71.661z" fill="#fff"/><path d="m364.873 309.821-28.778 9.65-31.269-9.65-48.826 39.401v162.778z" fill="#e9edf5"/><path d="m207.174 309.821-25.53 5.179-24.47-5.179h-10.047c-5.29 0-10.397.802-15.199 2.289-20.921 6.477-36.119 25.975-36.119 49.025v94.541c18.517 14.875 39.146 27.214 61.365 36.525l25-.966 25 16.111c15.805 3.054 32.128 4.654 48.826 4.654l10.647-23.588-10.647-20.942z" fill="#8cc7fc"/><path d="m380.072 312.11c-4.802-1.487-9.909-2.289-15.199-2.289h-10.047l-21.238 6.826-28.762-6.826-48.826 157.649v44.53c16.698 0 33.021-1.6 48.826-4.654l25-12.699 25-2.446c22.219-9.311 42.847-21.651 61.365-36.526v-94.541c0-23.049-15.198-42.547-36.119-49.024z" fill="#989dec"/><path d="m157.174 432.998v59.203c15.861 6.647 32.707 11.791 50 15.145v-25.064l-4.118-8.214 4.118-8.214v-24.642l-4-8.23 4-8.167v-24.642l-4.669-8.214 4.669-8.214v-24.642l-4.228-8.214 4.228-8.214v-32.856h-50v123.146z" fill="#fcc515"/><g fill="#555a65"><path d="m183.335 335.266h16.428v31.25h-16.428z" transform="matrix(0 1 -1 0 542.439 159.342)"/><path d="m183.335 376.335h16.428v31.25h-16.428z" transform="matrix(0 1 -1 0 583.509 200.411)"/><path d="m175.924 424.816v8.151.031 8.246h31.25v-8.246-.031-8.151z"/><path d="m183.335 458.443h16.428v31.25h-16.428z" transform="matrix(0 1 -1 0 665.617 282.519)"/></g><path d="m309.054 350.891-4.228 8.214v24.642l4.669 8.214-4.669 8.214v24.642l4 8.167-4 8.23v24.642l4.118 8.214-4.118 8.214v25.064c17.293-3.355 34.139-8.498 50-15.145v-59.203-.032-123.147h-50v32.856z" fill="#ff936b"/><path d="m312.237 335.266h16.428v31.25h-16.428z" fill="#333940" transform="matrix(0 1 -1 0 671.342 30.439)"/><path d="m312.237 376.335h16.428v31.25h-16.428z" fill="#333940" transform="matrix(0 1 -1 0 712.411 71.509)"/><path d="m336.076 424.816v8.151.031 8.246h-31.25v-8.246-.031-8.151z" fill="#333940"/><path d="m312.237 458.443h16.428v31.25h-16.428z" fill="#333940" transform="matrix(0 1 -1 0 794.519 153.617)"/><path d="m256 467.471-48.826-174.706-43.203 17.056 21.8 15.683-12.017 7.689z" fill="#989dec"/><path d="m256 467.471 48.826-174.706 43.203 17.056-21.8 15.683 12.017 7.689z" fill="#7873d5"/></g></svg>