<svg id="Capa_1" enable-background="new 0 0 512 512" height="512" viewBox="0 0 512 512" width="512" xmlns="http://www.w3.org/2000/svg"><g><g><path d="m277.635 114.61 23.753 33.855-21.76 7.399c-1.203-4.224-8.163-14.329-12.357-20.627-4.533-6.808-8-9.355-11.626-12.124z" fill="#f4aa73"/><path d="m284.485 149.073c-6.119-15.663-16.726-26.602-21.2-30.475l-19.876 8.011c3.625 2.77 8.71 7.32 13.243 14.128 4.194 6.299 5.774 11.068 7.602 16.477l12.941 3.522z" fill="#ea9f6c"/></g><g><path d="m354.643 121.118c-1.085-11.632-2.919-31.285-4.004-42.918l24.519-9.186c.266 7.485 1.197 17.109 4.556 26.44 4.783 13.287 11.515 21.436 17.005 26.573z" fill="#ffead8"/><path d="m363.771 117.982c-1.073-11.499-2.875-30.821-3.965-42.5l-18.773 7.909c1.085 11.633 2.919 31.285 4.004 42.918z" fill="#ffe3cb"/></g><g><path d="m359.525 268.712 41.647-13.545c0-32.551 7.626-65.961 8.507-98.249 1.07-39.226-33.464-53.955-59.443-38.006-6.004 3.686-10.877 7.81-14.799 12.162z" fill="#f5f8f9"/><path d="m372.134 247.764c5.4-11.561 13.08-26.765 13.08-46.154 0-18.422-7.743-44.458-22.707-55.665 0 0-12.327-11.471-27.071-14.872-9.727 10.793-13.598 22.995-14.299 33.44-2.433 36.231-2.544 70.252 20.163 100.02l28.07-8.758c.872-3.14 1.77-5.881 2.764-8.011z" fill="#e8edf2"/></g><g><g><g><path d="m316.764 36.617c.996-17.403 3.72-18.468 10.164-28.234.522-.791 3.358-3.869 4.182-4.247 12.363-5.681 22.76-4.873 30.764-1.399 9.062 3.934 16.203 11.8 20.499 21.424 3.608 8.083 4.776 17.719 3.591 26.991l-11.315 5.576z" fill="#c19b81"/></g><path d="m327.775 27.226c-.528-5.077-.277-10.144.765-14.981.603-2.8 1.44-5.505 2.57-8.109-.847.388-1.668.789-2.532 1.238-11.433 5.945-18.37 16.165-20.85 27.687l10.077 1.231c-.027-.065 9.97-7.066 9.97-7.066z" fill="#b89175"/></g><g><path d="m316.166 42.131 10.131-10.33c.719-.214.75-4.449 1.475-4.588 8.087-1.551 16.455 1.493 21.646 8.041l2.991 3.773c7 8.828 17.976 13.535 29.197 12.52l4.357-.393c-.619 4.846-1.883 9.592-3.775 13.966-3.234 7.473-46.67 32.03-56.988 6.509-3.823-9.461-9.034-29.498-9.034-29.498z" fill="#ffead8"/><path d="m331.271 41.222c-1.842-4.556-3.006-9.28-3.496-13.996-.728.139-1.45.301-2.17.516l-17.877 5.319c-2.009 9.332-1.096 19.518 2.728 28.977 10.318 25.521 19.938 41.821 56.564 20.862 6.86-3.926 11.935-10.309 15.169-17.782-31.996 16.13-41.153.257-50.918-23.896z" fill="#ffe3cb"/></g></g><g><g><path d="m66.511 458.267s-23.916-18.69-31.976 12.046c-2.4 9.153-4.872 22.144-12.489 34.545 0 0 2.832 6.796 5.039 7.012 6.325.619 12.746-1.029 18.051-4.788l9.349-6.623c6.534-8.179 17.517-25.451 17.517-25.451s-3.985-9.655-5.491-16.741z" fill="#ff80a7"/><path d="m27.085 511.87c6.445-6.113 10.564-19.564 14.031-28.336 5.731-14.505 11.163-17.415 18.4-17.271 1.097-2.984 8.997-5.699 10.184-8.133 1.201-2.463-4.31-4.636-3.189-6.506 0 0-27.743-19.641-35.803 11.095-2.4 9.153-7.618 22.308-14.091 28.395-6.275 5.901-4.162 16.328 3.932 19.274 2.132.777 4.328 1.266 6.536 1.482z" fill="#ff6498"/></g><g><path d="m54.486 500.459 147.912-104.783 92.193-63.715s-86.839 8.546-89.457 13.192c-2.406 4.269-9.784 9.847-12.026 14.814l-2.154 4.773c-1.662 3.684-4.818 6.483-8.673 7.695l-13.907 5.049c-17.502 5.322-35.437 17.169-47.052 30.578l-44.05 43.162-8.614 7.894-9.143 7.144c-1.537 4.193-2.892 8.919-3.833 14.144-1.392 7.73-1.516 14.584-1.196 20.053z" fill="#f4aa73"/><path d="m60.562 466.313c10.554.785 20.863-3.491 28.332-10.988l34.265-34.393c11.615-13.409 29.55-22.364 47.052-27.686l15.729-4.943c3.856-1.212 8.674-7.695 8.674-7.695l-1.346-39.402c-2.406 4.269-4.667 8.846-6.908 13.813l-2.154 4.773c-1.662 3.684-4.818 6.483-8.674 7.695l-15.729 4.943c-17.502 5.322-35.437 17.169-47.052 30.578l-46.241 48.615c-2.218 3.708-4.792 8.628-6.995 14.639.356.008.711.026 1.047.051z" fill="#ea9f6c"/></g></g><g><g><path d="m491.23 473.491-32.724-97.723-9.595-28.347c-1.351-3.991-3.051-7.867-5.251-11.46-2.9-4.736-6.495-9.038-10.685-12.753-3.571-3.166-7.53-5.866-11.781-8.035l-70.048-38.919-56.553 55.707 118.236 20.841c1.715.425 2.975 1.886 3.144 3.645l.784 8.195c.865 9.034 3.834 17.74 8.67 25.42l29.85 56.158c7 9.012-10.984 7.662 4.783 21.347 7.307 5.181 24.049 7.551 24.049 7.551z" fill="#f4aa73"/><path d="m459.778 456.296c.017-.013-.019.014 0 0 6.324-4.639 8.272-13.277 4.325-20.054l-29.537-50.706c-5.683-9.025-9.172-19.255-10.188-29.871l-.922-9.631c-.198-2.067-1.679-3.784-3.694-4.283l-107.974-26.728-17.196 16.938 112.334 27.807c1.715.425 2.975 1.885 3.144 3.644l.784 8.196c.865 9.034 3.834 17.74 8.67 25.42l30.529 48.482 1.615 8.725z" fill="#ea9f6c"/></g><g><path d="m450.228 455.565s-9.745 13.988-.443 20.948l22.57 18.778c16.315 13.818 23.558 12.505 25.104 9.512 1.594-3.086 1.984-6.787.796-10.332l-7.026-20.981c-1.913-.358-4.56-.959-7.615-2.008-1.564-.537-7.679-2.718-15.558-8.357-2.297-1.644-5.184-3.931-8.279-6.83z" fill="#ff80a7"/><path d="m458.266 473.015c-6.112-6.245-3.287-13.41 1.512-16.719-2.573-2.559-7.034-7.249-9.725-10.785l-9.425 9.089c-8.359 8.07-7.502 21.705 1.8 28.666l34.938 25.853c3.549 2.655 8.182 3.603 12.395 2.227 1.055-.345 5.066-1.55 7.696-6.543z" fill="#ff6498"/></g></g><g><path d="m328.7 368.638 54.209 117.265-61.989 9.141c-22.697 6.331-46.463 6.576-68.984.979-10.393-2.583-18.743-9.811-28.378-14.859-25.647-13.436-30.663-40.41-28.945-69.312.947-15.923 10.078-62.535 10.078-62.535 3.772-4.86 18.717-23.999 23.746-28.292 5.152-4.397 8.589-10.473 9.736-17.149 0 0-.797-26.042 38.804-36.116 11.498-2.925 18.812-20.639 17.614-32.443-1.722-16.961-4.384-31.141-16.558-69.356l6.451-16.889c14.955-6.018 32.07-4.52 45.347 4.623.551.38 1.096.771 1.634 1.174 14.964 11.207 25.227 28.319 25.227 46.741 0 19.389-5.954 35.174-12.492 46.131-1.608 2.694-3.159 5.663-3.458 8.583l10.403 19.93z" fill="#ff80a7"/><path d="m249.881 494.976c-25.647-13.436-40.686-41.015-38.967-69.917.947-15.922 1.894-31.845 2.841-47.768.534-8.978 1.957-14.589 7.614-25.677 3.768-7.386 8.531-12.951 8.531-12.951 3.772-4.86 8.03-9.342 13.059-13.635 5.152-4.397 8.589-10.473 9.736-17.149 4.349-22.03 15.575-26.328 33.576-31.624 11.577-3.406 24.89-14.807 24.006-35.376-.732-17.032-1.419-25.757-25.792-91.806l-20.231 8.141c12.174 38.215 17.01 64.396 18.732 81.357 1.198 11.804-7.742 22.137-19.588 22.785-18.634 2.205-34.455 14.085-38.804 36.116-1.147 6.676-4.585 12.751-9.736 17.149-5.029 4.293-9.287 8.775-13.059 13.635 0 0-4.763 5.565-8.531 12.951-5.657 11.088-7.08 16.698-7.614 25.677-.947 15.923-1.894 31.845-2.841 47.768-1.719 28.902 13.32 56.481 38.967 69.917 9.635 5.048 19.763 8.873 30.156 11.455-.686-.346-1.373-.691-2.055-1.048z" fill="#ff6498"/></g><g><g><g><path d="m399.556 143.641 40.46 44.828c1.026 1.137 2.886.814 3.47-.601l17.476-42.396 37.33-19.262-27.887 87.978c-1.943 6.016-5.653 10.655-10.279 13.779-10.449 7.055-36.424-14.624-46.503-24.735-11.051-11.087-31.785-38.598-31.785-38.598z" fill="#ffead8"/></g></g><g><path d="m445.28 220.061c-8.678-8.707-40.767-44.816-54.146-59.919l-9.297 18.215s31.576 34.779 42.627 45.866c10.078 10.112 25.212 10.798 35.661 3.743-5.361-1.022-10.562-3.608-14.845-7.905z" fill="#ffe3cb"/></g></g><g><g><path d="m479.406 107.577-162.508 53.339c-.981.322-1.913.723-2.806 1.174l-4.769 15.698 14.416 11.559 170.245-65.724 3.587-8.287c-3.204-6.715-10.955-10.126-18.165-7.759z" fill="#f4aa73"/></g><path d="m497.572 115.335-157.393 59.145c-10.585 3.977-22.365-1.566-26.046-12.258-.014-.04-.027-.092-.041-.133-8.919 4.505-13.324 15.084-9.799 24.769 3.867 10.625 15.742 15.963 26.256 11.801l159.032-62.949c7.534-2.982 11.326-11.419 8.555-19.033-.168-.461-.357-.908-.564-1.342z" fill="#ea9f6c"/></g><g><path d="m250.786 52.052c-9.69-2.395-20.24-1.075-30.448 5.274-1.082.673-2.108 1.372-3.087 2.085l-11.629 21.384 9.788 20.616 23.427 9.437z" fill="#73737f"/><path d="m263.947 118.598-18.372-5.118s-7.615-7.533-7.904-11.083c-1.201-14.724 1.874-29.566 8.976-42.693l4.14-7.653c9.834 2.431 18.783 8.688 25.59 17.405 8.563 10.966 15.12 20.59 14.325 30.202l-6.216 9.702z" fill="#f4aa73"/><path d="m224.614 90.477c-6.747-9.262-9.816-20.494-7.364-31.066-19.543 14.224-18.808 35.957-7.207 51.882 7.423 10.19 20.278 17.553 33.215 19.353l3.286-13.47-8.874-14.778c-5.143-3.212-9.668-7.27-13.056-11.921z" fill="#626272"/><path d="m281.047 105.919c-6.88 3.972-15.066 5.048-23.218 3.914-7.031-.978-14.035-3.609-20.159-7.435.29 3.55.826 7.092 1.617 10.603l3.971 17.645c8.153 1.134 16.338.061 23.218-3.911 16.757-9.674 23.505-18.37 24.225-27.075-2.762 2.046-5.964 4.128-9.654 6.259z" fill="#ea9f6c"/><path d="m212.606 105.016c-2.547 4.605-6.497 7.674-9.319 9.303-10.186 5.881-23.212 2.391-29.093-7.795s-2.391-23.212 7.795-29.093c7.64-4.411 17.439-3.963 24.713 2.21z" fill="#626272"/></g><path d="m291.081 249.828-7.128 1.777c-2.679.668-5.393-.962-6.061-3.642l-5.313-21.311c-.668-2.679.962-5.393 3.642-6.061l7.128-1.777c8.229-2.052 16.562 2.956 18.614 11.184l.303 1.215c2.052 8.23-2.956 16.564-11.185 18.615z" fill="#ffe3cb"/><g><path d="m362.33 375.562c-1.665-2.117-1.785-5.064-.297-7.31l35.96-54.27c9.559-15.979 11.489-35.39 5.264-52.938l-2.085-5.877-31.802.609-16.728 16.124c-2.511 10.63-24.545 91.549-19.69 101.332l49.958 112.67 13.004-4.086-11.388-62.435c-2.432-13.336-8.084-25.876-16.464-36.532z" fill="#73737f"/><path d="m345.677 356.316 23.692-100.54-28.627.548-23.686 100.283c-2.511 10.63-1.227 21.803 3.628 31.586l46.608 93.915 15.903 5.432 12.718-5.724-46.608-93.915c-4.855-9.782-6.138-20.955-3.628-31.585z" fill="#626272"/></g><path d="m395.913 481.817h-56.202c-11.496 0-20.816 9.319-20.816 20.816v4.163c0 2.874 2.33 5.204 5.204 5.204h59.325c6.898 0 12.489-5.592 12.489-12.489z" fill="#565668"/></g></svg>