<svg id="Layer_2" viewBox="0 0 64 64" xmlns="http://www.w3.org/2000/svg" data-name="Layer 2"><path d="m17.18 15.32c-2.61-.82-6.99 6.83-8.61 10.53 0 0-.43.84-.83.68s-.44-.86-.44-.86l-.31-1.3c-.06-.27-.28-.46-.56-.49-1.03-.1-3.6-.23-5.18.81-.17.11-.26.31-.26.51v1.36s.12 1.45 2.33 1.7c1.3.15 1.99.16 2.79.12.37-.02 1.13.03 1.31.7l-.11.62c-3.84 3.52-5.63 8.26-5.45 13.65.1 3.11.43 10.68 1.98 12.11 1.01.93 10.03.9 10.03.9.57-.67 1.41-1.06 2.3-1.06h15.83s15.83 0 15.83 0c.88 0 1.72.39 2.3 1.06s9.02.03 10.03-.9c1.55-1.43 1.88-9 1.98-12.11.18-5.39-1.61-10.13-5.45-13.65l-.11-.62c.19-.67.94-.71 1.31-.7.8.04 1.49.03 2.79-.12 2.2-.25 2.32-1.7 2.32-1.7v-1.36c0-.2-.09-.4-.26-.51-1.58-1.04-4.15-.91-5.18-.81-.27.03-.49.23-.56.49l-.31 1.3s-.04.69-.44.86-.83-.68-.83-.68c-1.62-3.7-6-11.35-8.61-10.53-9.29-1.01-19.18-1.01-29.64 0z" fill="#f8d444"/><path d="m41.78 14.88c-6.26-.42-12.78-.41-19.57.03l1.34-8.62c.23-1.47 1.49-2.55 2.98-2.55h10.92c1.49 0 2.75 1.08 2.98 2.55l1.34 8.59z" fill="#fcdd6f"/><path d="m59.17 45.13c.27.03.47.28.45.55-.09 1.05-.4 3.56-1.26 4.2-1.1.82-2.47 1.32-8.33 2.17 0 0-.36-.44 3.54-1.71 0 0 2.1-.86 3.03-3.69.49-1.49 1.85-1.58 2.58-1.51z" fill="#fb9c29"/><path d="m52.38 26.75c.59-.09.93-.72.67-1.25-2.02-4.19-4.75-7.87-5.79-8.21-.15.03-.29.05-.44.05-.07 0-.14 0-.22-.01-4.55-.49-9.32-.74-14.17-.74s-9.92.25-15.07.74c-.06 0-.13 0-.19 0-.14 0-.27-.01-.41-.04-1.13.42-3.83 4.06-5.82 8.21-.25.53.08 1.16.65 1.25 5.92.94 34.79.94 40.77 0z" fill="#a9effe"/><path d="m4.83 45.13c-.27.03-.47.28-.45.55.09 1.05.4 3.56 1.26 4.2 1.1.82 2.47 1.32 8.33 2.17 0 0 .36-.44-3.54-1.71 0 0-2.1-.86-3.03-3.69-.49-1.49-1.85-1.58-2.58-1.51z" fill="#fb9c29"/><path d="m32 41.69s-7.99.13-10.27-.48-3.58-1.4-3.98-1.76-.17-.73.96-1.34 13.28-.52 13.28-.52 12.15-.09 13.28.52 1.35.98.96 1.34-1.7 1.15-3.98 1.76-10.27.48-10.27.48z" fill="#070000"/><path d="m32 52.81c-6.91 0-7.84.08-10.42-.29-3.16-.45-4.01-3.19-4.01-3.19s-.76-1.7 0-2.14c1.51-.88 14.42-.74 14.42-.74s12.92-.14 14.42.74c.76.45 0 2.14 0 2.14s-.84 2.74-4.01 3.19c-2.58.37-3.51.29-10.42.29z" fill="#fb9c29"/><path d="m59.14 36.67c.47 1.3-.3 2.7-1.64 3.03-1.22.29-2.47.44-3.77.45-2.18.06-4.11-1.67-4.67-2.23-.08-.08-.06-.22.04-.28.87-.51 3.98-2.52 6.08-4.02.96-.69 2.33-.4 2.89.64.41.76.77 1.59 1.07 2.41z" fill="#fefdff"/><path d="m4.86 36.67c-.47 1.3.3 2.7 1.64 3.03 1.22.29 2.47.44 3.77.45 2.18.06 4.11-1.67 4.67-2.23.08-.08.06-.22-.04-.28-.87-.51-3.98-2.52-6.08-4.02-.96-.69-2.33-.4-2.89.64-.41.76-.77 1.59-1.07 2.41z" fill="#fefdff"/><path d="m60.12 60.26h-4.26s-.53 0-1.15-.41c-.59-.4-.91-1.11-.95-1.82l-.06-1.75c2.63-.09 5.86-.31 6.44-.84.82-.76 1.31-3.29 1.59-5.94.09 1.41.61 10.77-1.62 10.77z" fill="#3c3c3e"/><path d="m3.88 60.26h4.26s.53 0 1.15-.41c.59-.4.91-1.11.95-1.82l.06-1.75c-2.63-.09-5.86-.31-6.44-.84-.82-.76-1.31-3.29-1.59-5.94-.09 1.41-.61 10.77 1.62 10.77z" fill="#3c3c3e"/><g fill="#070000"><path d="m25.26 9.32h2.7v2.7h-2.7z"/><path d="m30.65 9.32h2.7v2.7h-2.7z"/><path d="m36.04 9.32h2.7v2.7h-2.7z"/><path d="m33.35 6.63h2.7v2.7h-2.7z"/><path d="m27.96 6.63h2.7v2.7h-2.7z"/></g></svg>