<svg height="512" viewBox="0 0 96 96" width="512" xmlns="http://www.w3.org/2000/svg"><g id="Female_teacher" data-name="Female teacher"><path d="m28.87 0h67.13v4.09h-67.13z" fill="#f4a261"/><path d="m77.84 0h-30.84a2 2 0 1 0 0 4.09h30.8a2 2 0 0 0 0-4.09z" fill="#f4d49d"/><path d="m36.94 4.09h59.06v48.44h-59.06z" fill="#264653"/><path d="m44.42 9.19a2.17 2.17 0 0 0 -2.37 1.87v9.2a2.07 2.07 0 0 0 3.54 1.47l9-9a2.08 2.08 0 0 0 -1.46-3.55z" fill="#265a67"/><path d="m61.44 13-15.64 15.58a12.85 12.85 0 0 0 -3.75 9.07v7.89a2.17 2.17 0 0 0 2.37 1.88h28.09a12.78 12.78 0 0 0 9.06-3.76l10.68-10.66a12.85 12.85 0 0 0 3.75-9.08v-14.73h-25.5a12.78 12.78 0 0 0 -9.06 3.81z" fill="#265a67"/><path d="m93.63 39.52-5.52 5.48a1.39 1.39 0 0 0 1 2.38h5.52a1.39 1.39 0 0 0 1.37-1.38v-5.49a1.39 1.39 0 0 0 -2.37-.99z" fill="#265a67"/><path d="m96 52.52h-54.3v3.91h54.3z" fill="#f4a261"/><path d="m80.26 52.52h-19.67a2 2 0 0 0 0 3.91h19.67a2 2 0 0 0 0-3.91z" fill="#f4d49d"/><path d="m96 56.43h-59.39v5.36h59.39z" fill="#f47543"/><path d="m9.89 57.39c-4.32-3.52-2.55-9.39-2.05-11.83l.83-4h7v15.83z" fill="#352d51"/><path d="m50.68 27.67v1.94a45.77 45.77 0 0 1 -3.85 18.39l-2.22 5.54-30.68-.26a42.51 42.51 0 0 1 -6.85-23.67v-1.94c0-4.16 0-24.83 21.79-24.82 21.02 0 21.81 20.66 21.81 24.82z" fill="#353c60"/><path d="m36.94 8.54a21.78 21.78 0 0 0 -16.45 0 1.74 1.74 0 0 0 .69 3.33h15a1.75 1.75 0 0 0 .76-3.33z" fill="#355fa1"/><path d="m42.48 37.74a42.16 42.16 0 0 1 -2.48 15.71l-22.22-.19c-2.09-5.31-2.5-9.87-2.5-15.52 0-3.17 0-18.9 13.6-18.89 13.12 0 13.6 15.72 13.6 18.89z" fill="#352d51"/><path d="m18.09 51.25a1 1 0 0 1 -.93-.61 48.63 48.63 0 0 1 -2.43-6.44 1 1 0 1 1 2-.58 48.38 48.38 0 0 0 2.27 6.2 1 1 0 0 1 -.91 1.43z" fill="#355083"/><path d="m42.48 15.72v14.22a13.82 13.82 0 1 1 -27.63 0v-14.22z" fill="#ffaaa0"/><path d="m39.75 51.56a1 1 0 0 1 -.94-1.43c.48-1.09.82-1.84 1.3-3.11a1 1 0 0 1 1.32-.6 1 1 0 0 1 .57 1.32c-.51 1.35-.9 2.21-1.34 3.21a1 1 0 0 1 -.91.61z" fill="#355083"/><path d="m23.93 14.94c0 5.59-3.8 8.11-9.38 8.75v-8.75z" fill="#353c60"/><path d="m35.35 15.23c0 4.36 3.07 6.26 7.45 6.75v-6.75z" fill="#353c60"/><path d="m12.29 31h2.56v-5h-2.56a2.52 2.52 0 0 0 0 5z" fill="#ffaaa0"/><path d="m45.05 26h-2.57v5h2.57a2.52 2.52 0 0 0 0-5z" fill="#ffaaa0"/><g fill="#302d3d"><path d="m23.93 30.77a1 1 0 0 1 -1-1v-.68a1 1 0 0 1 2.05 0v.68a1 1 0 0 1 -1.05 1z"/><path d="m24.53 26.43h-3.09a1 1 0 0 1 0-2h3.09a1 1 0 0 1 0 2z"/><path d="m34 30.77a1 1 0 0 1 -1-1v-.68a1 1 0 1 1 2 0v.68a1 1 0 0 1 -1 1z"/><path d="m36.78 26.43h-3.09a1 1 0 1 1 0-2h3.09a1 1 0 0 1 0 2z"/></g><path d="m25.81 39.16a1 1 0 0 1 .9-1.83 4.58 4.58 0 0 0 4.29-.13 1 1 0 0 1 1.39.37 1 1 0 0 1 -.39 1.43 6.56 6.56 0 0 1 -6.19.16z" fill="#ff8282"/><path d="m33.17 20.78a1 1 0 0 1 -1.34.53 6.39 6.39 0 0 1 -4.14-5.59h2a4.3 4.3 0 0 0 2.91 3.71 1 1 0 0 1 .57 1.35z" fill="#353c60"/><path d="m68.96 25.37h3.32v32.82h-3.32z" fill="#f4894d" transform="matrix(.975 .22 -.22 .975 10.94 -14.53)"/><path d="m62.81 11.22-2.62 2.62a1 1 0 0 0 1.45 1.45l.87-.88v9.21a1 1 0 1 0 2 0v-11.62a1 1 0 0 0 -1.7-.78z" fill="#fff"/><path d="m80.47 11.22-2.62 2.62a1 1 0 1 0 1.44 1.45l.88-.88v9.21a1 1 0 1 0 2 0v-11.62a1 1 0 0 0 -1.7-.78z" fill="#fff"/><path d="m75.42 16.76h-2.62v-2.62a1 1 0 1 0 -2 0v2.62h-2.66a1 1 0 1 0 0 2h2.62v2.62a1 1 0 1 0 2 0v-2.57h2.62a1 1 0 1 0 0-2z" fill="#fff"/><path d="m68.16 67.57-12 20.16a6.37 6.37 0 0 1 -8.74 2.27l.58 6h-23.06c-17.41-9.14-12.74-6.6-19.82-10.67a10.16 10.16 0 0 1 -3.84-13.68c2.06-3.77 6.83-12.48 9.78-15.59a23 23 0 0 1 4.42-4 15.43 15.43 0 0 1 8.45-2.53c9.18 0 10.14-.09 11.9.23 6.48 1.07 11.89 6.56 14.09 12.77a88.8 88.8 0 0 1 3 11.55l7.19-12.33z" fill="#f4d493"/><path d="m64 64.58-9.36 15.32a2.16 2.16 0 0 1 -3.91-.5l-4.15-13.87c-2.46-8.22-10.63-13-18.75-13-3.28 0-4.86-.12-7.29.58l-1.64.47a4.13 4.13 0 0 1 -4-1 15.48 15.48 0 0 1 9.08-3c9.18 0 10.14-.09 11.9.23 6.48 1.07 11.89 6.56 14.09 12.77a95.7 95.7 0 0 1 3 11.55l7.19-12.33z" fill="#f4f7bb"/><path d="m35.83 49.79c0 6.67-2.7 9.64-5.24 12.88a2.53 2.53 0 0 1 -4 0l-1.72-2.19a16.54 16.54 0 0 1 -3.52-10.69 15.68 15.68 0 0 1 2.7-.22v.68a2.43 2.43 0 0 0 1.07 2l2.18 1.48a2.42 2.42 0 0 0 2.75 0l2.12-1.47a2.43 2.43 0 0 0 1-2v-.69a15.59 15.59 0 0 1 2.66.22z" fill="#497db0"/><path d="m48 96h-23.06c-17.41-9.14-12.74-6.6-19.82-10.67a10.16 10.16 0 0 1 -3.84-13.68c2.06-3.77 6.83-12.48 9.78-15.59l5.58 6.77a6.75 6.75 0 0 0 3.67 2.29l12.5 3a2.79 2.79 0 0 1 2.11 3.17l-2.32 13.71a5.06 5.06 0 0 0 5 5.9h2.73a2.17 2.17 0 0 0 2.17-2.17c0-.36.08.06-1.53-6.62a2 2 0 0 1 1.77-2.42l3.06 10.26h1.65c-.02.1.55 5.94.55 6.05z" fill="#f4b675"/><path d="m8.39 92.27 16.55 3.73h2.17c.83-3.69 4.59-20.36 5.46-24.24l-18.57-4.19c-2.42 10.54-3.26 14.28-5.61 24.7z" fill="#ff4b6e"/><rect fill="#ff8c87" height="10.91" rx="1.26" transform="matrix(.22 -.976 .976 .22 -64.03 83.98)" width="17.15" x="11.91" y="76.56"/><path d="m20.06 83.81c1.32.35 2.64.69 2.54.68a2.35 2.35 0 0 0 2.21-1.1l.17-.26a2.42 2.42 0 0 1 1.68-1.13.68.68 0 0 1 .77.73l-.12 1.27a1 1 0 0 0 .88 1l4.87.46a1.46 1.46 0 0 1 1.33 1.6l-.11 1.19a5 5 0 0 1 -1.81 3.43 4.18 4.18 0 0 1 -3.36 1.39l-3.92-.37c-1.58-.14-2.29-1.08-3.55-2.31l-2.92-1z" fill="#ffaaa0"/><path d="m33.22 43v7.28a2.45 2.45 0 0 1 -1 2l-2.12 1.47a2.42 2.42 0 0 1 -2.75 0l-2.18-1.48a2.44 2.44 0 0 1 -1.07-2v-7.27a13.84 13.84 0 0 0 9.12 0z" fill="#ff7d82"/><path d="m5.12 85.32 12.81 7.38 2.57-10.75-10.04-5.55z" fill="#f4d493"/><path d="m47.58 91.59a1 1 0 0 1 -1.19.12 7.26 7.26 0 0 1 -3.39-4.39l-2.71-9.82a1 1 0 0 1 .71-1.25 1 1 0 0 1 1.26.71l2.74 9.82a5.26 5.26 0 0 0 2.42 3.16z" fill="#f48957"/><path d="m52.88 74.12-2.93 5a1 1 0 1 1 -1.77-1l4.07-7c.39 1.78.63 3 .63 3z" fill="#f4b675"/><path d="m62 63.16c.57-2.83.75-4.53 2-6.63l2.87-4.65a2.58 2.58 0 0 1 4.63.5l.38 1.09a9.76 9.76 0 0 1 -3.45 11.13l-2.2 1.59z" fill="#ffaaa0"/><path d="m9.78 92.59-.52 3.41h15.68z" fill="#f4b675"/></g></svg>