<?xml version="1.0" encoding="iso-8859-1"?>
<!-- Generator: Adobe Illustrator 19.0.0, SVG Export Plug-In . SVG Version: 6.00 Build 0)  -->
<svg version="1.1" id="Capa_1" xmlns="http://www.w3.org/2000/svg" xmlns:xlink="http://www.w3.org/1999/xlink" x="0px" y="0px"
	 viewBox="0 0 512 512" style="enable-background:new 0 0 512 512;" xml:space="preserve">
<polygon style="fill:#575C62;" points="117.43,512 132.483,410.929 178.826,384.803 205.599,410.929 155.063,512 "/>
<g>
	<polygon style="fill:#2A292F;" points="170.116,410.929 138.935,512 155.063,512 205.599,410.929 	"/>
	<polygon style="fill:#2A292F;" points="394.571,512 379.518,410.929 332.884,376.571 306.403,410.929 356.938,512 	"/>
</g>
<polygon style="fill:#575C62;" points="341.885,410.929 373.066,512 356.938,512 306.403,410.929 "/>
<g>
	<path style="fill:#777E84;" d="M274.273,119.368c-1.534,0-3.084-0.456-4.435-1.406c-3.487-2.452-4.324-7.268-1.872-10.755
		L341.082,3.278c2.453-3.487,7.269-4.323,10.755-1.872c3.487,2.452,4.324,7.268,1.872,10.755L280.593,116.09
		C279.089,118.226,276.699,119.368,274.273,119.368z"/>
	<path style="fill:#777E84;" d="M239.879,119.368c-2.427,0-4.816-1.141-6.32-3.278L160.444,12.161
		c-2.452-3.487-1.615-8.301,1.872-10.755c3.486-2.452,8.301-1.615,10.755,1.872l73.116,103.929
		c2.452,3.487,1.615,8.301-1.872,10.755C242.963,118.912,241.413,119.368,239.879,119.368z"/>
</g>
<path style="fill:#AA5D29;" d="M479.002,410.929H32.998c-9.857,0-17.848-7.991-17.848-17.848V119.112
	c0-9.857,7.991-17.848,17.848-17.848h446.004c9.857,0,17.848,7.991,17.848,17.848v273.968
	C496.851,402.938,488.86,410.929,479.002,410.929z"/>
<path style="fill:#874C23;" d="M101.937,384.803c-35.789,0-64.907-29.117-64.907-64.907V192.395
	c0-35.789,29.117-64.907,64.907-64.907h230.947c35.79,0,64.907,29.118,64.907,64.907v127.503c0,35.789-29.117,64.907-64.907,64.907
	H101.937V384.803z"/>
<path style="fill:#3DA1B8;" d="M332.884,135.721H101.938c-31.3,0-56.674,25.374-56.674,56.674v127.503
	c0,31.3,25.374,56.674,56.674,56.674h230.946c31.3,0,56.674-25.374,56.674-56.674V192.395
	C389.558,161.094,364.185,135.721,332.884,135.721z"/>
<path style="fill:#75D4FE;" d="M372.312,192.406v127.479c0,21.762-17.633,39.482-39.397,39.482H101.957
	c-21.763,0-39.482-17.72-39.482-39.482V192.406c0-21.763,17.72-39.482,39.482-39.482h230.958
	C354.679,152.924,372.312,170.644,372.312,192.406z"/>
<g>
	<path style="fill:#2A292F;" d="M463.89,318.799h-40.137c-4.263,0-7.719-3.456-7.719-7.719c0-4.263,3.456-7.719,7.719-7.719h40.137
		c4.263,0,7.719,3.456,7.719,7.719C471.609,315.343,468.153,318.799,463.89,318.799z"/>
	<path style="fill:#2A292F;" d="M463.89,286.381h-40.137c-4.263,0-7.719-3.456-7.719-7.719c0-4.263,3.456-7.719,7.719-7.719h40.137
		c4.263,0,7.719,3.456,7.719,7.719C471.609,282.925,468.153,286.381,463.89,286.381z"/>
	<path style="fill:#2A292F;" d="M463.89,351.217h-40.137c-4.263,0-7.719-3.456-7.719-7.719c0-4.263,3.456-7.719,7.719-7.719h40.137
		c4.263,0,7.719,3.456,7.719,7.719C471.609,347.761,468.153,351.217,463.89,351.217z"/>
</g>
<path style="fill:#55C0E5;" d="M88.717,319.885V192.406c0-21.762,17.72-39.483,39.482-39.483h-26.241
	c-21.763,0-39.482,17.72-39.482,39.483v127.479c0,21.762,17.72,39.482,39.482,39.482H128.2
	C106.437,359.367,88.717,341.647,88.717,319.885z"/>
<path style="fill:#9DE3FC;" d="M346.07,319.885V192.406c0-21.762-17.72-39.483-39.482-39.483h26.242
	c21.763,0,39.482,17.72,39.482,39.483v127.479c0,21.762-17.72,39.482-39.482,39.482h-26.242
	C328.35,359.367,346.07,341.647,346.07,319.885z"/>
<path style="fill:#E8E8EA;" d="M475.727,202.505c0,17.619-14.285,31.903-31.903,31.903c-17.619,0-31.903-14.285-31.903-31.903
	s14.285-31.903,31.903-31.903c6.01,0,11.629,1.657,16.425,4.559c4.477,2.686,8.233,6.442,10.919,10.919
	C474.07,190.876,475.727,196.495,475.727,202.505z"/>
<path style="fill:#B9B9BA;" d="M471.167,186.08l-12.422,12.422c-1.513,1.513-3.489,2.264-5.465,2.264
	c-1.976,0-3.952-0.751-5.454-2.264c-3.015-3.015-3.015-7.904,0-10.919l12.422-12.422
	C464.725,177.847,468.481,181.603,471.167,186.08z"/>
<g>
</g>
<g>
</g>
<g>
</g>
<g>
</g>
<g>
</g>
<g>
</g>
<g>
</g>
<g>
</g>
<g>
</g>
<g>
</g>
<g>
</g>
<g>
</g>
<g>
</g>
<g>
</g>
<g>
</g>
</svg>
