<svg id="Capa_1" enable-background="new 0 0 510 510" height="512" viewBox="0 0 510 510" width="512" xmlns="http://www.w3.org/2000/svg" xmlns:xlink="http://www.w3.org/1999/xlink"><linearGradient id="lg1"><stop offset="0" stop-color="#eaf6ff"/><stop offset="1" stop-color="#b3dafe"/></linearGradient><linearGradient id="SVGID_1_" gradientTransform="matrix(.707 .707 -.707 .707 248.459 -108.334)" gradientUnits="userSpaceOnUse" x1="261.541" x2="261.541" xlink:href="#lg1" y1="66.202" y2="78.22"/><linearGradient id="SVGID_00000116195245037494175010000012230565903575224212_" gradientTransform="matrix(.707 .707 -.707 .707 248.459 -108.334)" gradientUnits="userSpaceOnUse" x1="261.541" x2="261.541" xlink:href="#lg1" y1="125.535" y2="139.539"/><linearGradient id="SVGID_00000109749933525033590530000011915247177517178540_" gradientTransform="matrix(.707 .707 -.707 .707 248.459 -108.334)" gradientUnits="userSpaceOnUse" x1="261.541" x2="261.541" xlink:href="#lg1" y1="186.535" y2="200.903"/><linearGradient id="SVGID_00000066496169368283784360000006572439092211203222_" gradientTransform="matrix(.707 .707 -.707 .707 248.459 -108.334)" gradientUnits="userSpaceOnUse" x1="261.541" x2="261.541" xlink:href="#lg1" y1="247.535" y2="261.872"/><linearGradient id="SVGID_00000094601804371506266880000011265216053464605587_" gradientTransform="matrix(.707 .707 -.707 .707 248.459 -108.334)" gradientUnits="userSpaceOnUse" x1="146.874" x2="161.545" xlink:href="#lg1" y1="147.033" y2="147.033"/><linearGradient id="SVGID_00000063601951970635982460000014686057584528823989_" gradientTransform="matrix(.707 .707 -.707 .707 248.459 -108.334)" gradientUnits="userSpaceOnUse" x1="204.874" x2="226.335" xlink:href="#lg1" y1="147.033" y2="147.033"/><linearGradient id="SVGID_00000012468066495326697950000009615389720294335158_" gradientTransform="matrix(.707 .707 -.707 .707 248.459 -108.334)" gradientUnits="userSpaceOnUse" x1="266.874" x2="286.253" xlink:href="#lg1" y1="147.033" y2="147.033"/><linearGradient id="SVGID_00000139992840113937276260000016850785694963093164_" gradientTransform="matrix(.707 .707 -.707 .707 248.459 -108.334)" gradientUnits="userSpaceOnUse" x1="329.874" x2="347.591" xlink:href="#lg1" y1="147.033" y2="147.033"/><linearGradient id="SVGID_00000032623932639804071160000011929696111583571336_" gradientTransform="matrix(.707 .707 -.707 .707 248.459 -108.334)" gradientUnits="userSpaceOnUse" x1="261.541" x2="261.541" xlink:href="#lg1" y1="35.868" y2="47.873"/><linearGradient id="SVGID_00000162331112710992148970000002309695522010726542_" gradientTransform="matrix(.707 .707 -.707 .707 248.459 -108.334)" gradientUnits="userSpaceOnUse" x1="261.541" x2="261.541" xlink:href="#lg1" y1="95.202" y2="107.535"/><linearGradient id="SVGID_00000012441359595752764620000001222047148115100337_" gradientTransform="matrix(.707 .707 -.707 .707 248.459 -108.334)" gradientUnits="userSpaceOnUse" x1="261.541" x2="261.541" xlink:href="#lg1" y1="155.868" y2="170.298"/><linearGradient id="SVGID_00000130631151368475326070000016108919550455273859_" gradientTransform="matrix(.707 .707 -.707 .707 248.459 -108.334)" gradientUnits="userSpaceOnUse" x1="261.541" x2="261.541" xlink:href="#lg1" y1="215.868" y2="230.217"/><linearGradient id="SVGID_00000039102241747680820800000002603402997668878006_" gradientTransform="matrix(.707 .707 -.707 .707 248.459 -108.334)" gradientUnits="userSpaceOnUse" x1="175.207" x2="194.885" xlink:href="#lg1" y1="147.033" y2="147.033"/><linearGradient id="SVGID_00000000220866542019370600000014611794586642587784_" gradientTransform="matrix(.707 .707 -.707 .707 248.459 -108.334)" gradientUnits="userSpaceOnUse" x1="238.541" x2="254.928" xlink:href="#lg1" y1="147.033" y2="147.033"/><linearGradient id="SVGID_00000041995982949208752190000017930986218892359088_" gradientTransform="matrix(.707 .707 -.707 .707 248.459 -108.334)" gradientUnits="userSpaceOnUse" x1="299.874" x2="313.91" xlink:href="#lg1" y1="147.033" y2="147.033"/><linearGradient id="SVGID_00000072996517415795870790000014673441176946492082_" gradientTransform="matrix(.707 .707 -.707 .707 248.459 -108.334)" gradientUnits="userSpaceOnUse" x1="357.207" x2="373.239" xlink:href="#lg1" y1="147.033" y2="147.033"/><linearGradient id="lg2"><stop offset="0" stop-color="#fe9738"/><stop offset="1" stop-color="#ef4424"/></linearGradient><linearGradient id="SVGID_00000029046331343036248990000004296520835895734950_" gradientTransform="matrix(.707 .707 -.707 .707 248.459 -108.334)" gradientUnits="userSpaceOnUse" x1="114.642" x2="458.642" xlink:href="#lg2" y1="83.442" y2="336.442"/><linearGradient id="SVGID_00000146465898188346075130000011303173184487493544_" gradientTransform="matrix(.707 .707 -.707 .707 248.459 -108.334)" gradientUnits="userSpaceOnUse" x1="439.979" x2="28.979" xlink:href="#lg2" y1="350.221" y2="-117.78"/><linearGradient id="lg3"><stop offset="0" stop-color="#ef4424" stop-opacity="0"/><stop offset="1" stop-color="#883f2e"/></linearGradient><linearGradient id="SVGID_00000002377743290608550330000015504844394558976911_" gradientTransform="matrix(.707 .707 -.707 .707 248.459 -108.334)" gradientUnits="userSpaceOnUse" x1="324.582" x2="480.582" xlink:href="#lg3" y1="204.823" y2="347.823"/><linearGradient id="SVGID_00000050642428954302574470000003781205505094704550_" gradientTransform="matrix(.707 .707 -.707 .707 248.459 -108.334)" gradientUnits="userSpaceOnUse" x1="274.024" x2="208.024" xlink:href="#lg3" y1="389.817" y2="440.817"/><linearGradient id="SVGID_00000050633984133787919200000017249189214962178202_" gradientUnits="userSpaceOnUse" x1="157.25" x2="126.417" xlink:href="#lg3" y1="352.75" y2="383.582"/><linearGradient id="SVGID_00000158010453180020900520000015843313755511209873_" gradientUnits="userSpaceOnUse" x1="5.053" x2="38.191" xlink:href="#lg2" y1="491.167" y2="491.167"/><linearGradient id="SVGID_00000093863754251841249090000006486190904955840430_" gradientUnits="userSpaceOnUse" x1="65.842" x2="86.342" y1="423.158" y2="443.658"><stop offset="0" stop-color="#5a5a5a"/><stop offset="1" stop-color="#444"/></linearGradient><linearGradient id="lg4"><stop offset="0" stop-color="#433f43" stop-opacity="0"/><stop offset="1" stop-color="#1a1a1a"/></linearGradient><linearGradient id="SVGID_00000052800446895883361370000012780547862540197524_" gradientUnits="userSpaceOnUse" x1="42.827" x2="-4.673" xlink:href="#lg4" y1="459.412" y2="495.912"/><linearGradient id="SVGID_00000111872722591074160730000013530533388350723724_" gradientUnits="userSpaceOnUse" x1="78.62" x2="32.12" xlink:href="#lg4" y1="433.801" y2="484.801"/><linearGradient id="SVGID_00000122712813577852263900000012737608123821786286_" gradientUnits="userSpaceOnUse" x1="102.863" x2="58.863" xlink:href="#lg4" y1="410.346" y2="462.346"/><linearGradient id="SVGID_00000070084598163931983420000011520678752571795350_" gradientUnits="userSpaceOnUse" x1="141.807" x2="95.807" xlink:href="#lg4" y1="376.921" y2="432.421"/><linearGradient id="SVGID_00000078736628995884888390000005271768615210275497_" gradientUnits="userSpaceOnUse" x1="412.969" x2="390.636" xlink:href="#lg3" y1="300.85" y2="322.517"/><linearGradient id="SVGID_00000149373979295881950870000007185970757509482675_" gradientUnits="userSpaceOnUse" x1="326.498" x2="393.998" xlink:href="#lg1" y1="345.47" y2="423.97"/><linearGradient id="SVGID_00000098918980108665713450000015202629277746589082_" gradientUnits="userSpaceOnUse" x1="356.953" x2="366.953" y1="401.812" y2="435.145"><stop offset="0" stop-color="#b3dafe" stop-opacity="0"/><stop offset="1" stop-color="#7bacdf"/></linearGradient><linearGradient id="lg5"><stop offset="0" stop-color="#fef0ae"/><stop offset="1" stop-color="#fac600"/></linearGradient><linearGradient id="SVGID_00000121992005111988749540000006264671653474381704_" gradientUnits="userSpaceOnUse" x1="350.287" x2="359.787" xlink:href="#lg5" y1="345" y2="408"/><linearGradient id="SVGID_00000163783942910149669980000006799661964296039612_" gradientUnits="userSpaceOnUse" x1="367.928" x2="377.928" xlink:href="#lg5" y1="304.764" y2="340.264"/><linearGradient id="SVGID_00000050650397527339508460000005580635067551210371_" gradientUnits="userSpaceOnUse" x1="288.567" x2="351.345" xlink:href="#lg5" y1="376.564" y2="439.343"/><linearGradient id="lg6"><stop offset="0" stop-color="#fea613" stop-opacity="0"/><stop offset="1" stop-color="#e94444"/></linearGradient><linearGradient id="SVGID_00000062871745749483040820000018174639553213193612_" gradientUnits="userSpaceOnUse" x1="327.358" x2="327.358" xlink:href="#lg6" y1="396.131" y2="461.639"/><linearGradient id="SVGID_00000040559555645861507280000012915211012257776018_" gradientUnits="userSpaceOnUse" x1="356.015" x2="352.515" xlink:href="#lg6" y1="387.009" y2="431.509"/><g><g><g><g><g><path d="m485.349 238.82-214.169-214.169c5.042-2.213 10.147-4.179 15.302-5.911l204.778 204.778c-1.732 5.155-3.698 10.26-5.911 15.302z" fill="url(#SVGID_1_)"/><path d="m451.04 291.131-232.171-232.171c3.719-3.437 7.538-6.689 11.441-9.772l230.502 230.502c-3.083 3.904-6.335 7.722-9.772 11.441z" fill="url(#SVGID_00000116195245037494175010000012230565903575224212_)"/><path d="m415.706 321.219c-4.328 2.871-8.74 5.53-13.23 7.983l-221.678-221.678c2.454-4.49 5.112-8.902 7.983-13.23z" fill="url(#SVGID_00000109749933525033590530000011915247177517178540_)"/><path d="m355.121 347.254c-5.989 1.379-12.007 2.432-18.038 3.175l-177.512-177.512c.742-6.032 1.796-12.049 3.175-18.038z" fill="url(#SVGID_00000066496169368283784360000006572439092211203222_)"/></g><g><g><path d="m358.876 10.141-199.878 199.878c-.636-6.802-.863-13.661-.672-20.541l180.001-180.001c6.88-.191 13.746.028 20.549.664z" fill="url(#SVGID_00000094601804371506266880000011265216053464605587_)"/><path d="m424.566 31.072-244.638 244.637c-2.666-4.547-5.077-9.207-7.248-13.965l237.92-237.92c4.76 2.171 9.419 4.582 13.966 7.248z" fill="url(#SVGID_00000063601951970635982460000014686057584528823989_)"/><path d="m470.139 72.119-249.163 249.163c-4.016-2.956-7.913-6.145-11.674-9.539l251.298-251.298c3.394 3.762 6.583 7.658 9.539 11.674z" fill="url(#SVGID_00000012468066495326697950000009615389720294335158_)"/><path d="m496.917 131.976-216.092 216.092c-5.65-1.209-11.215-2.715-16.688-4.525l228.261-228.261c1.811 5.472 3.317 11.037 4.519 16.694z" fill="url(#SVGID_00000139992840113937276260000016850785694963093164_)"/></g><g><path d="m496.104 206.271-192.375-192.375c5.989-1.379 12.007-2.432 18.038-3.175l177.512 177.512c-.743 6.032-1.796 12.049-3.175 18.038z" fill="url(#SVGID_00000032623932639804071160000011929696111583571336_)"/><path d="m470.068 266.856-226.924-226.924c4.327-2.871 8.74-5.53 13.23-7.983l221.678 221.678c-2.454 4.49-5.113 8.902-7.984 13.229z" fill="url(#SVGID_00000162331112710992148970000002309695522010726542_)"/><path d="m439.988 302.183c-3.719 3.437-7.538 6.689-11.441 9.772l-230.503-230.502c3.083-3.903 6.336-7.722 9.772-11.441z" fill="url(#SVGID_00000012441359595752764620000001222047148115100337_)"/><path d="m387.683 336.499c-5.049 2.206-10.154 4.172-15.309 5.904l-204.778-204.777c1.732-5.155 3.698-10.26 5.904-15.309z" fill="url(#SVGID_00000130631151368475326070000016108919550455273859_)"/></g></g><g><path d="m394.719 17.601-228.261 228.261c-1.81-5.473-3.316-11.038-4.525-16.688l216.091-216.091c5.657 1.202 11.222 2.708 16.695 4.518z" fill="url(#SVGID_00000039102241747680820800000002603402997668878006_)"/><path d="m449.555 49.4-251.298 251.298c-3.394-3.762-6.583-7.658-9.539-11.674l249.163-249.163c4.016 2.956 7.912 6.145 11.674 9.539z" fill="url(#SVGID_00000000220866542019370600000014611794586642587784_)"/><path d="m486.176 99.399-237.92 237.92c-4.759-2.171-9.419-4.582-13.965-7.248l244.637-244.637c2.666 4.547 5.077 9.206 7.248 13.965z" fill="url(#SVGID_00000041995982949208752190000017930986218892359088_)"/><path d="m500.523 171.673-180.001 180.001c-6.88.191-13.739-.035-20.541-.672l199.878-199.878c.636 6.803.855 13.669.664 20.549z" fill="url(#SVGID_00000072996517415795870790000014673441176946492082_)"/></g></g><g><path d="m452.013 303.159c73.171-73.171 77.709-187.692 10.115-255.286s-182.115-63.057-255.287 10.114c-49.61 49.61-67.664 118.226-53.084 178.339 3.542 14.602 4.748 29.719 2.652 44.597-2.241 15.904-7.361 32.315-15.205 48.313-9.416 19.245-22.298 37.11-38.286 53.098l24.749 24.749c15.988-15.988 33.853-28.87 53.112-38.293 15.991-7.84 32.399-12.959 48.302-15.199 14.877-2.096 29.993-.889 44.593 2.652 60.112 14.58 128.728-3.474 178.339-53.084zm-273.468 28.296c3.787-9.283 6.831-18.667 9.11-28.037 2.864 3.383 5.887 6.672 9.072 9.856 3.184 3.184 6.472 6.207 9.855 9.071-9.371 2.279-18.755 5.323-28.037 9.11zm94.619-11.644.042-.233c-.546-.099-1.096-.186-1.644-.279-18.529-6.131-35.678-16.365-50.088-30.775s-24.644-31.559-30.775-50.088c-.093-.548-.179-1.098-.279-1.644l-.233.042c-16.006-50.519-1.767-110.931 41.401-154.099 59.525-59.525 151.841-64.063 205.789-10.115s49.41 146.264-10.115 205.789c-43.167 43.17-103.578 57.408-154.098 41.402z" fill="url(#SVGID_00000029046331343036248990000004296520835895734950_)"/><path d="m449.603 60.397c-61.214-61.214-164.926-57.105-231.192 9.16s-70.375 169.978-9.161 231.192 164.927 57.105 231.192-9.161 70.375-169.977 9.161-231.191zm-228.128 228.128c-53.948-53.948-49.41-146.264 10.115-205.789 59.525-59.525 151.841-64.063 205.789-10.115s49.41 146.264-10.115 205.789-151.842 64.063-205.789 10.115z" fill="url(#SVGID_00000146465898188346075130000011303173184487493544_)"/><path d="m196.726 313.274c-67.594-67.594-63.056-182.115 10.115-255.287s187.692-77.709 255.286-10.115 63.056 182.115-10.115 255.286-187.692 77.71-255.286 10.116zm240.653-240.653c-53.948-53.948-146.264-49.41-205.789 10.115s-64.063 151.842-10.115 205.789 146.264 49.41 205.789-10.115 64.062-151.841 10.115-205.789z" fill="url(#SVGID_00000002377743290608550330000015504844394558976911_)"/><path d="m197.513 314.04-.003.002c2.94 2.901 5.964 5.672 9.071 8.303-9.37 2.279-18.754 5.323-28.036 9.11l-63.253 63.253 12.375 12.375c15.988-15.988 33.853-28.87 53.112-38.293 15.991-7.84 32.399-12.959 48.302-15.199 14.877-2.096 29.993-.889 44.593 2.652.159.039.319.069.478.107-28.388-6.799-54.897-20.861-76.639-42.31z" fill="url(#SVGID_00000050642428954302574470000003781205505094704550_)"/><path d="m181.249 330.38c-.902.353-1.804.707-2.704 1.075.367-.9.721-1.802 1.075-2.704l-27.561-27.561c-2.686 9.368-6.31 18.776-10.855 28.046-9.417 19.245-22.298 37.11-38.286 53.098l24.749 24.749c15.988-15.988 33.853-28.87 53.112-38.293 9.264-4.542 18.667-8.164 28.032-10.849z" fill="url(#SVGID_00000050633984133787919200000017249189214962178202_)"/></g></g><circle cx="18.833" cy="491.167" fill="url(#SVGID_00000158010453180020900520000015843313755511209873_)" r="18.833"/><path d="m27.609 506.125-23.734-23.734c-5.167-5.167-5.167-13.544 0-18.711l102.49-102.49c5.167-5.167 13.544-5.167 18.711 0l23.733 23.733c5.167 5.167 5.167 13.544 0 18.711l-102.489 102.491c-5.167 5.167-13.545 5.167-18.711 0z" fill="url(#SVGID_00000093863754251841249090000006486190904955840430_)"/><path d="m125.076 361.19c-5.167-5.167-13.544-5.167-18.711 0l-81.675 81.675v60.342l2.918 2.918c5.167 5.167 13.544 5.167 18.711 0l102.49-102.49c5.167-5.167 5.167-13.544 0-18.711z" fill="url(#SVGID_00000052800446895883361370000012780547862540197524_)"/><path d="m125.076 361.19c-5.167-5.167-13.544-5.167-18.711 0l-48.112 48.112v84.889l90.557-90.557c5.167-5.167 5.167-13.544 0-18.711z" fill="url(#SVGID_00000111872722591074160730000013530533388350723724_)"/><path d="m125.076 361.19c-5.167-5.167-13.544-5.167-18.711 0l-14.55 14.55v84.889l56.995-56.995c5.167-5.167 5.167-13.544 0-18.711z" fill="url(#SVGID_00000122712813577852263900000012737608123821786286_)"/><path d="m125.377 361.491v65.576l23.432-23.432c5.167-5.167 5.167-13.544 0-18.711z" fill="url(#SVGID_00000070084598163931983420000011520678752571795350_)"/></g><path d="m477.778 271.62c-5.852-10.756-14.466-19.791-24.889-26.156-6.934 11.699-15.479 22.799-25.625 32.946-22.496 22.496-49.676 37.132-77.698 43.732 3.114 12.059 9.391 22.843 17.889 31.425 30.625-8.945 59.934-25.784 84.558-50.408 9.835-9.836 18.419-20.424 25.765-31.539z" fill="url(#SVGID_00000078736628995884888390000005271768615210275497_)"/><g><circle cx="347.364" cy="369.737" fill="url(#SVGID_00000149373979295881950870000007185970757509482675_)" r="69.038"/><path d="m278.326 369.737c0 38.129 30.91 69.038 69.038 69.038s69.038-30.91 69.038-69.038c0-5.905-.745-11.635-2.139-17.106h-133.798c-1.395 5.471-2.139 11.201-2.139 17.106z" fill="url(#SVGID_00000098918980108665713450000015202629277746589082_)"/><g><path d="m380.527 417.464c6.304 0 12.462-.639 18.413-1.853 8.521-9.573 14.415-21.528 16.557-34.747-5.051-12.851-15.075-31.987-29.962-31.987-.15.001-.301.002-.453.001-9.73 0-19.232-1.998-28.249-5.939-16.521-7.18-29.653-20.384-36.884-36.571-12.85 5.567-23.665 14.927-31.051 26.668 3.834 47.196 43.464 84.428 91.629 84.428z" fill="url(#SVGID_00000121992005111988749540000006264671653474381704_)"/><path d="m362.827 329.189c7.212 3.153 14.749 4.703 22.542 4.689h.177c9.925 0 18.957 4.3 26.847 12.652-9.534-26.71-35.043-45.831-65.029-45.831-4.423 0-8.743.433-12.934 1.228 5.852 12.036 15.891 21.827 28.397 27.262z" fill="url(#SVGID_00000163783942910149669980000006799661964296039612_)"/><path d="m279.097 359.416c-.505 3.367-.771 6.813-.771 10.321 0 38.129 30.91 69.038 69.038 69.038 10.371 0 20.199-2.302 29.025-6.398-45.322-1.734-83.505-31.803-97.292-72.961z" fill="url(#SVGID_00000050650397527339508460000005580635067551210371_)"/><path d="m279.097 359.416c-.505 3.367-.771 6.813-.771 10.321 0 38.129 30.91 69.038 69.038 69.038 10.371 0 20.199-2.302 29.025-6.398-45.322-1.734-83.505-31.803-97.292-72.961z" fill="url(#SVGID_00000062871745749483040820000018174639553213193612_)"/></g><path d="m380.527 417.464c6.304 0 12.462-.639 18.413-1.853 8.521-9.573 14.415-21.528 16.557-34.747-1.652-4.203-3.839-9.076-6.55-13.733h-110.368c15.209 29.84 46.222 50.333 81.948 50.333z" fill="url(#SVGID_00000040559555645861507280000012915211012257776018_)"/></g></g></svg>