<svg id="Layer_1" enable-background="new 0 0 512 512" height="512" viewBox="0 0 512 512" width="512" xmlns="http://www.w3.org/2000/svg"><g><path d="m174.503 342.2c-.305.949-.678 1.864-.983 2.78-2.204 6.237-.847 12.881-2.61 19.05-.373 1.288-.881 2.542-1.559 3.762-10.474 18.542-40.474 11.864-49.083-1.864-3.898-6.237-3.39-13.898 5.254-21.322 1.153-.983 2.508-1.898 3.118-3.322.509-1.22.339-2.61.17-3.932-.136-1.017-.237-2.034-.339-3.051-1.153-11.288-.847-21.491-4.474-32.813-6.305-19.593-8-39.728-4.644-60.168 1.559-9.356 4.17-18.678 9.051-26.813 4.881-8.169 12.169-15.084 21.118-18.271 4.576-1.627 9.864-2.169 14.135.136 4.441 2.441 6.881 7.559 7.39 12.61.78 7.865-1.627 16.644-3.152 24.338-.068.339-.136.644-.169.983-.95 6.644-1.661 13.288-2.068 19.965-.576 8.78-.61 17.559 0 26.338.474 6.542 2 12.949 2.983 19.423.305 1.797.542 3.593.712 5.423.034.373.068.746.034 1.119.203 3.491-.373 7.186-.068 10.745.136 2.373.644 4.712 2 6.881.305.475.644.949.983 1.423 1.051 1.39 2.203 2.712 2.949 4.203.237.509.441 1.017.61 1.526 1.015 3.495-.069 7.224-1.358 10.851z" fill="#fc953a"/><path d="m173.518 344.994c-2.203 6.237-.847 12.881-2.61 19.05-.373 1.288-.881 2.542-1.56 3.763-10.474 18.542-40.473 11.864-49.083-1.864 9.762 2.271 21.559 3.695 27.898-3.932 5.559-6.712 3.627-16.644 1.39-25.05-2.644-9.898-5.254-19.796-7.898-29.694-3.051-11.458-6.102-23.593-2.949-35.05 3.152-11.458 14.948-21.423 26.338-18.135.203.068.407.136.61.203-.576 8.78-.61 17.559 0 26.338.61 8.372 2.915 16.542 3.694 24.847.576 6.102-1.593 12.948 1.966 18.745 1.186 1.932 2.949 3.627 3.932 5.627 2.407 4.78 0 10.17-1.728 15.152z" fill="#fcc99a"/><g><path d="m169.385 306.573c-4.102 1.627-8.373 2.881-12.78 3.152-5.457.373-14.135.237-18.813-2.746-2.542-1.661-.237-5.661 2.407-4.135 2.305 1.356 7.288 1.186 9.966 1.39 3.526.271 7.085-.068 10.508-1.017 2.746-.779 5.322-2.644 7.966-3.186.305 1.797.542 3.593.712 5.423.034.374.068.747.034 1.119z" fill="#523116"/></g><g><path d="m172.3 325.624c-2.407.611-5.051.712-7.39.746-6.203.101-17.898 1.118-23.186-2.712-.611-.44-.78-1.22-.237-1.83.135-.136.237-.271.339-.373.136-.169.407-.169.577-.068.644.339 8.474-1.39 9.559-1.457 3.831-.237 7.729-.271 11.559-.712 2-.237 3.932-1.017 5.796-1.898.136 2.373.644 4.712 2 6.881.305.474.644.948.983 1.423z" fill="#523116"/></g><g><path d="m174.503 342.2c-1.085.508-2.339.881-3.763 1.085-8.678 1.254-17.694 1.797-26.474 1.864-.169 0-.169-.271-.034-.339 6.373-2.576 12.406-5.661 19.084-7.423 3.254-.881 6.203-1.254 9.05-3.186 1.288-.881 2.339-1.898 3.491-2.847 1.019 3.49-.065 7.219-1.354 10.846z" fill="#523116"/></g><path d="m334.296 222.169c-.441 1.118-.847 2.237-1.254 3.322-1.051 2.847-2.068 5.762-2.949 8.711-.678 2.136-1.288 4.305-1.797 6.474-.882 3.762-1.56 7.559-1.865 11.424v.034c-.068.577-.102 1.119-.136 1.695-.101 1.56-.101 3.119 0 4.678.068 3.017.373 6 .475 8.983.203 3.491.136 6.949-.678 10.474-1.288 5.593-5.864 9.796-10.169 13.559-5.864 5.119-9.729 6.746-17.525 5.491-4.271-.678-9.593-2.678-14.304-5.627-9.864-6.034-17.051-16.068-6.135-26.169 1.593-1.492 3.525-2.644 5.322-3.898.78-.576 1.559-1.153 2.237-1.797.644-.576 1.186-1.186 1.695-1.864 1.085-1.458 1.729-3.186 2.169-4.949.271-.915.474-1.864.644-2.779.034-.237.102-.509.136-.746.881-4.44 2.135-9.186 3.288-13.966 1.39-5.695 5.627-17.931 2.44-23.423-2.237-3.865-8.271-5.152-11.389-8.204-4.373-4.271-5.153-8.101-7.254-13.39-6.847-17.016-5.728-28.338 2.373-44.778 4.203-8.474 8.61-17.22 15.762-23.457 2.678-2.339 5.83-4.305 9.322-4.915 6.678-1.153 13.458 3.05 16.949 8.847 3.525 5.797 4.271 12.847 4.034 19.627-.237 6.779-1.389 13.491-1.389 20.304.034 3.695.508 6.915 1.322 9.796 2.508 9.152 8.068 15.288 11.288 25.254 2.235 6.984-.036 14.34-2.612 21.289z" fill="#fc953a"/><path d="m333.046 225.475c-3.373 9.082-6.194 18.626-6.754 28.341-.493 8.178 1.709 16.046-.187 24.146-1.303 5.596-5.863 9.782-10.186 13.572-5.872 5.12-9.71 6.723-17.513 5.481-4.28-.672-9.599-2.68-14.321-5.627 4.501-1.798 8.602-4.65 11.744-8.334 6.965-8.111 9.034-19.221 10.88-29.766 2.951-16.838 5.865-33.707 8.816-50.545 1.355-7.676 2.734-15.457 6.193-22.437.929-1.785 2.261-3.64 3.904-4.672 2.519 9.134 8.072 15.273 11.28 25.264 2.596 8.072-.889 16.654-3.856 24.577z" fill="#fcc99a"/><g><path d="m326.771 267.49c-7.559 8.508-33.694-.17-43.49-6.17.78-.576 1.559-1.153 2.237-1.797 6.136 2.746 13.016 3.119 19.728 3.898 6.169.712 15.355 2.102 19.491-3.898.407-.576.983-.915 1.559-1.017.068 3.018.373 6.001.475 8.984z" fill="#523116"/></g><g><path d="m328.296 240.677c-.882 3.762-1.56 7.559-1.865 11.424v.034c-3.356 1.627-7.389 2.78-10.982 3.424-8.509 1.458-17.966-.271-26.067-2.847.271-.915.474-1.864.644-2.779 8.305.407 18.711-.271 26.372-2.78 4-1.324 7.864-4.849 11.898-6.476z" fill="#523116"/></g><g><path d="m334.296 222.169c-.441 1.118-.847 2.237-1.254 3.322-1.051 2.847-2.068 5.762-2.949 8.711-2.576 1.322-5.288 2.339-7.695 3.288-8 3.186-16.745 3.831-25.254 4.509-3.932.305-4.813-6.339-.915-6.881 13.966-1.899 25.762-6.136 38.067-12.949z" fill="#523116"/></g><g><path d="m485.682 189.627c-7.661 21.389-28.677 50.473-52.033 50.473-.712 0-1.39-.034-2.068-.068-2.102-.169-4.305-.542-6.576-1.322-3.559-1.153-7.254-3.22-10.78-6.576-6.746-6.373-12.948-17.492-16.711-36.338-8.881-44.508-29.321-71.863-45.626-79.252-6.644-2.983-12.61-2.915-18.169.305-5.695 3.288-12.949 1.356-16.237-4.339-3.254-5.661-1.322-12.915 4.373-16.203 12.135-7.017 26.271-7.491 39.83-1.39 27.051 12.271 49.694 49.118 59.117 96.235 3.119 15.694 7.525 22.338 10.576 24.44.746.508 1.39.745 1.932.779 3.424.305 8.441-2.813 13.559-8.034 6.271-6.474 12.712-16.203 16.508-26.745 2.204-6.135 8.983-9.356 15.153-7.152 6.169 2.239 9.389 9.018 7.152 15.187z" fill="#f79743"/></g><g><path d="m446.869 208.339c-.271 5.22-1.729 10.305-5.118 15.559-3.729 5.729-9.932 11.695-16.745 14.813-3.559-1.153-7.254-3.22-10.78-6.576 5.119-5.39 11.525-9.525 16.169-15.254.339-.407.678-.847.983-1.288.746.508 1.39.745 1.932.779 3.424.305 8.441-2.813 13.559-8.033z" fill="#66482e"/></g><g fill="#66482e"><path d="m481.162 191.085c-3.915-4.836-9.02-10.914-14.977-13.849-1.21 1.204-2.203 2.659-2.818 4.372-.233.649-.5 1.285-.752 1.927 4.771 3.811 8.608 11.333 11.669 15.929 1.526 2.292 2.346 4.854 3.112 7.416 2.445-4.072 4.541-8.185 6.26-12.156-.723-1.221-1.519-2.435-2.494-3.639z"/><path d="m478.545 174.454c-1.541-.554-3.12-.769-4.656-.686 1.087 1.156 1.982 2.451 2.913 3.939 2.838 4.532 5.25 9.239 8.225 13.649.221-.573.47-1.161.672-1.724 2.214-6.167-.987-12.963-7.154-15.178z"/><path d="m463.864 224.611c-.362-10.962-3.435-23.079-7.543-28.59-1.919 3.089-3.978 5.946-6.086 8.49.044.592.083 1.129.147 1.53.695 4.359 1.747 8.656 2.344 13.032.776 5.686-.127 10.553-1.27 15.572 4.394-2.633 8.555-6.082 12.408-10.034z"/><path d="m363.093 95.664c5.434 7.208 10.941 13.903 13.929 22.759 2.514 7.451 4.24 17.204 4.685 25.044.153 2.698 3.187 4.999 5.738 3.293 9.218-6.164 4.428-21.084 1.324-29.632-7.788-9.636-16.462-16.972-25.676-21.464z"/><path d="m422.077 196.789c-.702 1.081-1.436 2.143-2.249 3.151-3.227 3.996-7.381 6.704-10.706 10.497-1.437 1.64-.581 4.743 1.91 4.611 6.32-.335 11.215-2.815 15.14-6.5-1.405-2.887-2.812-6.729-4.095-11.759z"/><path d="m411.632 158.665c-3.208-8.614-6.909-16.604-11.003-23.886.147 2.834.148 5.534.036 7.915-.506 10.74-4.238 20.375-9.422 29.442 1.115 3.309 2.145 6.785 3.118 10.362 8.78-4.508 14.543-13.457 17.271-23.833z"/><path d="m398.833 201.608c8.096-.727 16.507-6.006 21.595-12.108-1.206-5.807-2.61-11.453-4.202-16.912-.942 3.099-2.268 6.028-4.27 8.579-4.233 5.396-9.084 9.559-14.797 12.977.118.564.255 1.098.369 1.668.406 2.027.846 3.944 1.305 5.796z"/></g><path d="m71.11 161.116c8.597 2.689 10.779 9.859 13.452 11.638 2.81 1.869 8.072 9.306 5.61 10.622-2.462 1.315-8.381-4.722-11.409-10.961-3.027-6.241-7.653-11.299-7.653-11.299z" fill="#6e4c2e"/><path d="m66.403 172.4c-.196-2.485.102-5.501 1.862-6.62 1.642-1.043 3.581.174 5.148 1.388 3.354 2.598 6.71 5.37 9.224 9.2 1.824 2.779 3.427 6.298 6.196 7.166-.408 1.181-1.428 1.858-2.433 2.052-1.005.193-2.028-.005-3.043-.084-3.89-.301-8.297 1.455-12.075-.28-3.507-1.61-4.541-8.549-4.879-12.822z" fill="#ffcda1"/><path d="m65.325 175.148s-2.07-16.458 5.786-14.032c7.857 2.426 12.76 19.166 17.268 20.558 4.509 1.392-1.179 7.915-7.335-3.72-6.157-11.636-15.732-14.939-11.974-1.264 3.758 13.677-1.554 8.135-3.745-1.542z" fill="#855c37"/><path d="m371.854 195.831c-7.966 7.017-15.932 13.254-24.304 18.745-3.661 2.407-7.424 4.678-11.288 6.813-7.322 4.068-15.05 7.627-23.423 10.712-19.084 7.051-38.846 12.644-56.71 22.338-6.136 3.322-12 7.119-17.796 11.017-.542.339-1.051.712-1.559 1.051-9.525 6.407-18.949 12.915-29.22 17.932-6.203 3.017-12.711 5.458-19.389 7.22-5.017 1.356-10.101 2.305-15.254 2.847-15.355 1.661-30.948-.305-45.185-6.847h-.034c-.712-.339-1.424-.678-2.136-1.017-3.457-1.729-7.695-4-11.966-6.644-6.745-4.17-13.525-9.22-17.118-14.305-.779-1.085-1.492-2.237-2.068-3.39-11.05-20.203-1.423-49.795 6.508-69.151.068-.204.17-.373.237-.576 2.542-6.169 6.339-14.101 11.22-21.694 9.22-14.373 22.203-27.559 37.457-25.253 23.084 3.457 44.609 7.559 67.761 2.441 6.78-1.492 13.457-4 20.033-7.051 14.881-7.017 29.185-16.915 42.88-24.474 12.949-7.084 25.219-15.389 38.033-22.711 3.186-1.831 6.475-3.661 10.068-4.373 8.881-1.763 17.423 3.593 24.88 8.712 12.508 8.576 24.237 18.745 29.118 33.525.847 2.576 1.559 5.322 2.136 8.237 3.695 18.812 1.255 43.456-12.881 55.896z" fill="#ffa657"/><path d="m403.142 263.049c-4.17 8.746-7.83 18-9.254 27.626-1.22 8.102.271 16.135-2.339 24.033-1.797 5.457-6.712 9.22-11.356 12.61-6.305 4.576-10.271 5.83-17.932 3.899-12.915-3.254-34.914-20.034-17.525-33.491 3.186-2.441 7.288-3.695 9.898-6.712 2-2.271 2.881-5.288 3.694-8.169 1.254-4.339 2.915-8.949 4.508-13.627 2.644-7.796 5.051-15.796 4.746-23.355-9.593-4.847-18.44-11.152-26.169-18.644-1.695-1.661-3.457-3.661-5.152-5.83-5.118-6.61-10-14.948-13.254-21.525-.881-1.797-1.695-3.627-2.441-5.491-3.356-8.17-5.424-16.881-6.034-25.66-1.492-20.881 5.796-42.813 25.084-53.253 12.915-6.983 30.202 2.814 38.677 13.051 2.881 3.458 4.949 7.322 6.441 11.423 4.135 11.559 3.83 25.118 4.745 37.728.847 11.694 4.068 24.949 6.712 36.067 2.237 9.424 10.881 15.729 12.982 25.186 1.866 8.27-2.371 16.507-6.031 24.134z" fill="#ffa657"/><path d="m242.434 384.266c-2.203 6.237-.847 12.881-2.61 19.051-.373 1.288-.881 2.542-1.559 3.762-15.22 26.914-71.625.678-43.829-23.186 1.153-.983 2.508-1.898 3.118-3.322.509-1.22.339-2.61.169-3.932-.135-1.017-.237-2.034-.339-3.051-1.153-11.288-.847-21.491-4.475-32.813-4.135-12.746-10.135-25.084-15.932-37.423-1.355-2.949-2.745-5.898-4.068-8.847-3.356-7.457-6.508-15.016-8.983-22.644-4.678-14.271-7.051-28.881-4.271-43.829 1.153-6.135 3.39-12.474 9.017-16.745 6.576-4.983 16.339-6.068 25.423-6.338 12.915-.373 26.711.678 36.982 6.949 8.677 5.288 12.373 11.796 13.355 18.915 1.593 10.949-3.186 23.322-6.102 34.643-.644 2.441-1.187 4.847-1.526 7.152-.068.339-.135.644-.169.983-2.169 15.355-3.152 30.88-2.068 46.304.61 8.373 2.915 16.542 3.695 24.847.576 6.102-1.593 12.949 1.966 18.745 1.187 1.932 2.949 3.627 3.932 5.627 2.409 4.78.002 10.17-1.726 15.152z" fill="#ffa657"/><path d="m146.335 265.863c-.339.746-.712 1.492-1.119 2.203-4.271 7.695-10.305 14.542-17.491 19.593h-.034c-5.322 3.763-11.288 6.508-17.661 7.932-3.593.779-7.288 1.118-10.949.983-9.186-.305-18.338-3.491-25.355-9.288-1.898-1.559-3.661-3.322-5.22-5.288-14.576-18.305-21.389-57.388-10.983-84.167 4.61-11.898 12.61-21.355 24.779-25.559 11.085-3.831 21.186-3.966 30.067-1.39 10.271 2.949 18.881 9.525 25.525 18.169 15.83 20.61 20.339 53.083 8.441 76.812z" fill="#ffa657"/><path d="m120.878 265.625c-1.288 4.475-3.864 9.458-7.288 14.373-4 5.898-9.186 11.728-14.508 16.576-4.407 3.966-8.915 7.288-13.016 9.356-4.644 2.339-10 2.983-15.186 2.78-15.457-.61-30.474-8.508-39.694-20.915-2.339-3.118-4.339-6.576-5.152-10.406-.576-2.678-.542-5.254-.102-7.796 1.864-10.712 11.356-20.338 16.203-30.881 1.424-3.051 2.61-6.61 3.763-10.407 3.118-10.135 5.898-21.932 11.627-30.474.441-.712.949-1.39 1.458-2.034 3.627-4.61 8.305-8 14.712-9.22 7.932-1.492 16.169.542 23.457 3.966 1.423.678 2.746 1.322 4 2.034 11.051 5.932 15.931 12.508 17.423 25.559.203 1.729.441 3.423.678 5.152 2.099 14.101 5.624 28.236 1.625 42.337z" fill="#ffa657"/><path d="m197.384 373.589c-1.153-11.288-.847-21.491-4.475-32.813-4.135-12.746-10.135-25.084-15.932-37.423-1.355-2.949-2.745-5.898-4.068-8.847-15.355 1.661-30.948-.305-45.185-6.847h-.034c-5.322 3.763-11.288 6.508-17.661 7.932-3.593.779-7.288 1.118-10.949.983-4.407 3.966-8.915 7.288-13.016 9.356-4.644 2.339-10 2.983-15.186 2.78-15.457-.61-30.474-8.508-39.694-20.915-2.339-3.118-4.339-6.576-5.152-10.406-.576-2.678-.542-5.254-.102-7.796 3.966 1.864 7.288 4.678 11.796 7.05 6.068 3.186 13.661 5.186 18.542 10.203 1.695 1.729 3.288 3.695 5.526 4.678 4.237 1.864 8.779-.576 11.932-4.237 1.152-1.322 2.136-2.78 2.847-4.271 2.78-5.627 4.136-12.338 8.949-16.406 2.508-2.136 5.661-3.288 8.881-4.305 4.746-1.492 9.627-2.678 12.813-6.339 1.932-2.203 2.949-5.051 3.932-7.796 2.915-8.237 5.83-16.508 8.101-24.881 1.83-6.677 3.288-13.423 3.966-20.304.068-.678.169-1.457.644-1.966.644-.644 1.695-.644 2.61-.508 7.254 1.254 11.593 8.813 13.797 15.83 2.983 9.559 4.033 19.729 3.016 29.728-.711 6.881-1.898 15.085 3.051 19.796.101.136.203.237.339.339 4.678 4.102 10.983 4.881 17.254 5.661 7.695.949 15.423 1.932 20.135 9.017 1.526 2.271 2.373 4.881 3.152 7.458.339 1.084.644 2.203.949 3.322 6.509 23.288 7.661 48.067 9.83 71.998.274 3.319.545 6.878-.608 9.929z" fill="#ffdab8"/><path d="m363.007 268.982c-.068.068-.102.169-.17.237 2.644-7.796 5.051-15.796 4.746-23.355-9.593-4.847-18.44-11.152-26.169-18.644-1.695-1.661-3.457-3.661-5.152-5.83-7.322 4.068-15.05 7.627-23.423 10.712-19.084 7.051-38.846 12.644-56.71 22.338-6.136 3.322-12 7.119-17.796 11.017-.644 2.441-1.187 4.847-1.526 7.152 0-2.034-.034-4.068-.034-6.102 0-1.831-.034-3.661-.034-5.492-.068-10.61.305-22.372 7.593-30.101.034-.034.068-.068.102-.102 3.729-3.864 8.779-6.169 13.695-8.373 20.779-9.389 41.626-18.711 62.439-28.067 2-.881 3.966-1.797 5.966-2.678 10.576 2.644 14.169 14.305 21.017 22.881.203.271.407.542.644.814 4.203 4.983 10.033 8.338 14.237 13.322 9.253 10.983 8.338 28.169.575 40.271z" fill="#ffdab8"/><path d="m47.481 281.81c.607 1.144.809 2.337.424 3.552-.797 2.511-3.516 2.794-5.811 3.046-2.296.253-4.953 1.353-4.91 4.221-3.635-3.14-15.451-15.791-10.297-20.655 1.268-1.197 3.265-.775 5.028-.145 2.864 1.026 12.956 5.055 15.566 9.981z" fill="#6e4c2e"/><path d="m141.19 190.691c4.44 10.312.395 16.848 1.025 20.623.662 3.969-1.236 13.778-4.17 12.084s-2.655-11.322 0-18.15c2.654-6.828 3.145-14.557 3.145-14.557z" fill="#6e4c2e"/><path d="m128.592 192.748c1.83-1.699 4.462-3.22 6.702-2.117 2.089 1.029 2.603 3.724 2.836 6.041.497 4.958.858 10.024-.27 14.878-.818 3.522-2.395 7.267-.967 10.589-1.253.302-2.574-.321-3.498-1.22s-1.549-2.053-2.264-3.126c-2.739-4.113-7.513-7.506-9.023-12.372-1.402-4.515 3.336-9.751 6.484-12.673z" fill="#ffcda1"/><path d="m125.575 193.318s11.532-12.032 15.615-2.627c4.082 9.405-5.506 24.47-3.163 29.867 2.343 5.398-7.211 3.589-2.652-9.66s-.14-24.921-8.162-12.863c-8.021 12.057-7.673 3.342-1.638-4.717z" fill="#855c37"/><path d="m81.911 212.733c.717-1.418 1.524-2.776 2.544-3.996 2.481-2.967 6.773-4.928 10.264-3.264 8.859 4.429 7.458 19.272 7.709 27.162.076 2.402.139 4.882-.744 7.116-2.291 5.756-9.675 5.675-14.631 6.676-6.658 1.345-12.963 3.61-19.498 6.02 1.174-11.706 6.287-23.038 11.476-33.494 1.013-2.04 1.854-4.19 2.88-6.22z" fill="#ffdab8"/><path d="m60.778 197.797c.17 1.017-.136 2.034-.441 2.983-4.373 13.763-8.203 30.406-16.101 42.575.983-4.712 1.322-9.864 1.661-15.05 3.356-10.949 6.339-23.864 13.084-32.507.949.101 1.627 1.05 1.797 1.999z" fill="#ffdab8"/><path d="m51.015 229.287c-.475 1.187-2.678 6.542-4.237 6.305-.136-.034-.881-2.745-.983-5.186-.034-.746-.034-1.492.102-2.102.407-2.034.949-4.068 1.864-5.729.813-1.458 1.898-2.644 3.457-3.22.169-.034.373-.102.508-.034.305.068.407.441.441.712.509 3.119.001 6.373-1.152 9.254z" fill="#9fb872"/><path d="m71.119 247.612c.904-13.609 7.933-16.364 10.65-13.57 5.559 5.714.638 14.214-10.65 13.57z" fill="#9fb872"/><path d="m48.574 225.423c0 2.102-1.118 3.966-2.78 4.983-.61-.983-.745-2.203-.576-3.39.203-1.593.949-3.119 1.898-3.966.203-.203.407-.373.644-.474.544.847.814 1.83.814 2.847z" fill="#6e4c2e"/><circle cx="77.539" cy="242.122" fill="#6e4c2e" r="4.215"/><circle cx="74.819" cy="240.639" fill="#6e4c2e" r="2.247"/><path d="m48.032 224.813c0 1.254-1.017 2.271-2.271 2.271-.203 0-.373-.034-.542-.068.203-1.593.949-3.119 1.898-3.966.542.373.915 1.051.915 1.763z" fill="#6e4c2e"/><g fill="#66482e"><path d="m234.594 142.35c1.028 1.145 2.092 2.26 3.193 3.39 4.625 4.745 8.441 10.176 12.997 14.953 1.765 1.851 5.521-.051 4.515-2.628-1.271-3.256-2.113-5.756-4.4-8.434-2.822-3.303-5.84-6.388-8.965-9.402-.282-.272-.588-.58-.905-.901-1.135.57-2.267 1.153-3.408 1.691-1.005.466-2.017.892-3.027 1.331z"/><path d="m251.488 133.687c-2.078 1.19-4.167 2.348-6.269 3.472 3.5 3.508 6.905 7.115 10.079 11.072 7.869 9.808 10.332 21.705 14.366 33.198.866 2.468 4.075 1.874 4.37-.591 2.344-19.62-9.305-34.333-22.546-47.151z"/><path d="m240.717 262.993c1.379-6.798 1.685-13.765 1.481-20.695-.197-6.711.056-13.625-.573-20.29-.176-1.861-2.63-1.813-2.86 0-.882 6.931-3.291 13.233-3.517 20.29-.222 6.926.106 13.902 1.485 20.695.401 1.97 3.585 1.972 3.984 0z"/><path d="m237.803 159.999c2.782 4.403 5.547 9.12 7.693 13.868 3.069 6.791 2.992 14.026 5.482 20.88.391 1.078 1.387 1.702 2.388 1.788.948 15.913-7.353 32.777-5.678 48.265.232 2.149 3.486 2.999 4.057.549 3.751-16.064 10.3-37.154 4.802-54.145 2.314-17.511-11.554-34.336-26.055-47.163-1.374.537-2.752 1.047-4.135 1.519 4.262 4.525 8.208 9.314 11.446 14.439z"/><path d="m277.806 147.711c3.649 10.82 3.166 21.795 4.662 32.899.257 1.908 3.273 1.724 3.678 0 3.072-13.1 1.799-26.939-3.556-39.267-3.438-7.917-8.505-13.019-14.491-17.553-1.326.801-2.655 1.601-3.991 2.412 5.734 6.256 10.755 12.782 13.698 21.509z"/><path d="m261.737 140.624c3.292 3.772 5.805 8.058 9.122 11.756 1.28 1.428 4.341.388 4.069-1.685-.427-3.256-.63-5.622-2.81-8.261-2.13-2.579-4.47-5.23-6.899-7.519-1.856-1.748-4.427-3.59-7.204-5.046-1.5.896-3.003 1.787-4.515 2.667 3.197 2.271 6.035 5.565 8.237 8.088z"/><path d="m314.481 154.895c-.218-1.01-1.703-.57-1.532.423.875 5.076 2.039 8.852 4.167 13.458 2.165 4.685 3.115 9.209 6.33 13.359.568.733 1.665-.201 1.248-.963-2.2-4.019-3.266-8.545-5.286-12.657-2.262-4.602-3.84-8.591-4.927-13.62z"/><path d="m284.509 130.206c7.38 11.702 8.987 23.982 10.39 37.399.212 2.023 3.149 2.726 3.745.507 5.346-19.9-5.629-37.393-19.994-50.515-.924.521-1.847 1.039-2.776 1.577 3.215 3.459 6.172 7.125 8.635 11.032z"/><path d="m231.614 219.068c.304 3.074 4.187 3.617 5.306.718 6.26-16.221 6.916-36.894-.025-52.968-2.673-6.189-8.834-14.792-16.073-19.58-1.077.288-2.151.593-3.233.831-1.985.439-3.954.787-5.918 1.097 25.203 14.064 17.6 46.239 19.943 69.902z"/><path d="m291.291 215.164c.266 1.82 3.411 1.821 3.677 0 .998-6.825 1.339-13.45.865-20.344-.319-4.638.009-9.355-2.939-13.234-1.097-1.443-3.299-.246-2.47 1.444 2.351 4.791-.146 11.054-.281 16.136-.144 5.416.367 10.657 1.148 15.998z"/><path d="m305.748 122.201c2.564 4.078 4.959 8.413 5.863 13.202.753 3.987.112 6.857 2.164 10.36 1.716 2.931 6.091 1.566 6.218-1.684.634-16.233-8.365-29.354-20.357-38.842-1.989 1.226-3.99 2.432-5.988 3.644 4.644 3.552 8.524 7.63 12.1 13.32z"/><path d="m231.433 306.556c1.955-25.622.468-50.23-4.868-75.285-.301-1.411-2.395-.801-2.145.592 4.452 24.816 3.808 49.626 5.425 74.694.065 1.023 1.51 1.018 1.588-.001z"/><path d="m171.963 208.04c.332 2.631 3.836 2.675 4.131 0 2.427-21.974-2.418-43.229-14.132-60.57-2.535-.378-5.081-.769-7.645-1.161 11.444 18.131 14.766 38.91 17.646 61.731z"/><path d="m172.485 156.422c.641 2.689.808 5.597 3.075 7.446.849.693 1.957-.15 1.497-1.155-2.097-4.592-3.627-9.34-5.676-13.921-.489-.063-.979-.13-1.469-.195 1.016 2.56 1.939 5.163 2.573 7.825z"/><path d="m142.712 165.859c6.014 7.38 6.038 17.319 12.212 24.527 1.237 1.444 3.45.197 3.526-1.461.063-1.367-.081-2.866-.308-4.407 5.28 17.361 7.511 35.073 4.522 53.369-.226 1.382 1.818 2.012 2.145.591 4.604-19.964 1.622-38.35-4.993-57.243-.412-1.177-1.931-1.065-2.382-.236-1.596-6.311-4.837-13.039-8.069-17.355-4.239-5.66-9.772-10.433-15.509-14.903-1.401.757-2.764 1.644-4.1 2.608 4.457 4.746 8.892 9.522 12.956 14.51z"/><path d="m182.538 180.41c2.008 4.459 2.026 9.364 2.839 14.107.889 5.187 2.093 10.301 3.294 15.416.429 1.829 2.995 1.288 3.121-.423.443-6.025-1.144-11.178-2.234-17.058-.904-4.872-1.279-9.604-3.452-14.127-1.161-2.414-4.645-.305-3.568 2.085z"/><path d="m202.579 237.279c-.119-.7-1.314-.545-1.249.169 1.318 14.297-.916 28.361-5.077 42.061-3.188 10.499-9.339 19.809-10.739 30.723-.263 2.046 2.838 2.226 3.433.465 4.741-14.027 11.255-24.975 13.512-39.876 1.709-11.278 2.032-22.286.12-33.542z"/><path d="m193.92 233.772c.127 1.485 2.497 2.082 2.809.38 2.881-15.72 4.567-31.839 1.83-47.78-2.432-14.171-10.266-22.94-20.179-32.674-.892-.876-2.119.418-1.348 1.348 10.304 12.436 16.115 23.343 16.984 39.912.679 12.978-1.211 25.881-.096 38.814z"/><path d="m228.066 192.373c.639-2.39-2.894-3.322-3.677-1.014-2.09 6.157-1.481 12.974-2.891 19.344-1.569 7.087-2.816 14.204-4.736 21.218-.413 1.51 1.946 2.626 2.614 1.102 2.758-6.297 5.607-12.734 6.836-19.522 1.253-6.923.064-14.428 1.854-21.128z"/><path d="m186.007 282.024c4.143-10.711 5.35-24.127 3.72-35.429-1.716-11.903-6.629-21.078-10.521-32.149-.277-.788-1.649-.738-1.561.211.918 9.866 3.872 19.515 4.971 29.435 1.35 12.186.664 25.289-.042 37.467-.122 2.107 2.769 2.18 3.433.465z"/><path d="m44.016 295.269c1.018 1.07 2.285 1.724 3.477 2.56 1.002.702 1.799 1.724 2.869 2.324 1.225.688 2.519.07 3.683.716.562.312 1.418-.215 1.167-.897-.713-1.937-2.625-2.867-4.046-4.262-.945-.928-2.069-1.589-3.093-2.418-1.337-1.082-2.032-2.537-2.815-4.033-1.324-2.528-5.312-.233-3.842 2.246.777 1.308 1.544 2.655 2.6 3.764z"/><path d="m87.347 174.791c2.153.068 4.597-.209 6.622.689.695.308 1.274.777 1.994 1.042.939.345 1.965.261 2.863.701 1.317.645 2.623.276 3.468-.91-.129.18.218-.392.256-.605.26-1.469-.394-2.568-1.77-3.118-.93-.372-1.728-.369-2.685-.518-1.266-.197-2.332-.847-3.583-1.119-2.363-.513-4.784-.129-7.164.025-2.435.157-2.474 3.734-.001 3.813z"/><path d="m205.934 179.516c2.564 7.958 4.134 17.313 3.437 25.618-.588 7.003-2.642 12.199-1.86 19.081.308 2.708 4.143 3.619 4.994.676 3.666-12.686 8.001-22.209 6.714-35.924-1.063-11.322-5.613-22.868-13.001-31.619-1.677-1.986-4.384-4.543-7.558-6.956-4.045.138-8.069.073-12.085-.151 9.259 7.236 17.393 23.175 19.359 29.275z"/><path d="m87.264 281.374c-1.94-.767-3.987-.766-5.913-1.723-2.613-1.298-5.508-2.975-7.131-5.435-.671-1.017-2.301-.087-1.646.962 2.181 3.494 6.484 6.204 10.326 7.525.848.292 2.83.472 3.473.786.761.372 1.781 1.379 2.577 1.901 1.9 1.245 4.233 3.094 6.412 3.949.915.359 1.57-.967.927-1.593-2.567-2.503-5.658-5.04-9.025-6.372z"/><path d="m345.538 101.836c11.288 9.19 14.288 20.414 16.76 34.012.488 2.689 4.091 1.671 4.37-.592 1.634-13.257-.307-24.536-8.161-33.491-1.653-1.23-3.328-2.43-5.025-3.593-7.457-5.119-16-10.474-24.88-8.712-2.386.473-4.631 1.456-6.807 2.588 8.655.888 17.196 4.458 23.743 9.788z"/><path d="m374.397 128.025c1.429 3.506 1.897 7.752 4.198 10.724 1.429 1.846 4.156.528 4.78-1.262.236-.676.309-1.366.317-2.06-.337-1.278-.697-2.526-1.093-3.73-.56-1.696-1.233-3.317-1.965-4.896-.098-.187-.201-.381-.294-.562-1.84-3.61-3.795-6.936-6.575-9.863-1.07-1.126-2.952-.238-2.984 1.236-.084 3.958 2.155 6.827 3.616 10.413z"/><path d="m266.847 180.585c-.389-1.157-2.231-.661-1.839.507 4.521 13.471 1.632 32.957-1.223 46.294-2.465 11.52-6.699 20.845-12.279 29.763 1.539-.907 3.051-1.86 4.622-2.71 3.092-1.678 6.255-3.198 9.447-4.659 8.538-21.943 7.868-49.541 1.272-69.195z"/><path d="m169.11 223.819c-.581-1.094-2.465-.343-2.033.857 4.451 12.347 7.177 27.147 8.125 40.195.796 10.961-1.435 20.676-5.299 29.87 1.003-.077 2.007-.127 3.007-.235.364.813.748 1.625 1.121 2.438 10.063-23.226 8.518-47.794-4.921-73.125z"/><path d="m115.253 285.609c.018-6.441-2.58-11.136-4.505-17.069-.995-3.068-6.004-3.576-6.741 0-.932 4.519-1.497 9.381-1.585 13.993-.074 3.858-2.137 7.891-1.142 11.602.287 1.072.95 1.82 1.763 2.332 2.347-.129 4.689-.377 6.988-.876.101-.023.197-.06.298-.083 3.077-2.216 4.914-6.189 4.924-9.899z"/><path d="m383.38 184.608c3.239 20.633-7.011 40.978-15.966 58.772-.408.811-.388 1.613-.137 2.313.104.053.202.117.307.17.007.165-.006.332-.002.497.896 1.335 2.817 1.923 4.324.486 13.579-12.955 20.262-39.851 18.763-59.257-.284-1.806-.543-3.602-.75-5.372-1.209-3.648-7.197-1.797-6.539 2.391z"/><path d="m136.157 265.732c-.024-3.364-2.22-8.815-1.343-11.881.683-2.389-1.931-4.065-3.968-3.051-3.853 1.92-4.133 8.832-4.496 14.063-.265-1.78-.68-3.582-1.617-4.744-1.051-1.303-1.598-1.466-1.723-3.293-.118-1.719-.279-3.692-.624-5.388-.193-.95-.631-1.564-1.151-1.986.79-.292 1.48-.801 1.851-1.583 5.439-11.445 5.885-26.395-.758-37.498-1.482-2.477-3.901-2.664-5.716-1.613-.095-.072-.159-.163-.259-.232-.762-.524-1.871.539-1.304 1.304.049.067.077.142.122.21-.947 1.25-1.33 2.986-.527 4.822.479 1.094.801 2.197 1.052 3.303-.134 2.163-.125 3.914.532 5.874-.194 8.04-3.272 16.186.272 23.83.319.688.878 1.166 1.532 1.474-.637.427-1.119 1.097-1.234 1.969-3.528 2.878-7.171 4.281-11.887 4.847-3.18.381-6.216.852-8.947 2.802-2.547 1.819-3.6 5.779-6.362 7.102-4.089 1.958-6.927-.667-10.59 2.487-1.61 1.386-.16 3.623 1.573 3.797 3.963.399 8.718.349 12.399-1.46 4.059-1.995 4.171-6.319 8.051-8.753 3.172-1.989 6.932-1.948 10.199-3.988 2.453-1.532 4.289-3.087 5.973-5.014.336.293.851.367 1.206.128-.059.215-.107.402-.115.475-.119 1.004-.281 2.003-.395 3.007-.183 1.616-.206 3.053.691 4.462.731 1.148 2.041 1.428 2.766 2.409.778 1.051 1.614 3.796 1.976 5.013.308 1.034 1.47 1.374 2.364 1.111-2.41 8.795-6.145 17.873-12.197 24.884 5.067-1.55 9.85-3.896 14.189-6.964h.034c.281.129.571.228.852.354.637-1.121 1.241-2.238 1.813-3.323 3.009-5.719 5.812-12.439 5.766-18.956z"/><path d="m395.978 234.853c-3.989 4.071-8.888 7.493-13.483 10.839-4.486 3.265-9.378 5.749-14.067 8.663-.597.372-1.167.716-1.698 1.067-.472 2.436-1.1 4.888-1.825 7.339.651.576 1.542.854 2.576.634 9.882-2.106 18.887-6.751 26.834-12.991 4.131-3.244 7.841-7.098 10.83-11.423 1.047-1.515 1.724-3.17 2.307-4.841-1.531-3.247-3.619-6.226-5.662-9.229-1.86 3.312-2.673 6.739-5.812 9.942z"/><path d="m323.397 128.056c2.458 4.377 5.572 9.294 7.044 14.071.31 1.007 1.886.85 1.872-.253-.136-11.14-9.786-20.487-17.413-27.652-.605-.568-1.421.28-.899.899 3.24 3.839 6.936 8.554 9.396 12.935z"/><path d="m337.638 103.153c-1.036.314-1.264 1.761-.303 2.323 1.863 1.091 3.3 4.279 3.955 6.258.922 2.784 1.997 5.839 2.475 8.717.413 2.483 3.931 2.038 4.597 0 1.42-4.351-.509-8.618-2.719-12.393-1.682-2.874-4.327-6.021-8.005-4.905z"/><path d="m371.415 145.305c-.757-1.83-3.711-1.154-3.064.845 9.638 29.799 5.87 66.487-10.93 93.335-.072.114-.084.228-.131.342 1.206.79 2.395 1.606 3.632 2.347 23.843-23.93 22.439-68.02 10.493-96.869z"/><path d="m332.226 165.151c2.707 6.688 5.814 13.192 8.23 20.001 3.921 11.045 7.726 21.647 14.066 31.618.745 1.172 2.779.445 2.323-.98-4.342-13.573-8.936-27.478-14.53-40.581-3.863-9.049-8.416-23.165-15.827-29.935-1.359-1.242-3.281.67-2.022 2.022 4.182 4.493 5.54 12.369 7.76 17.855z"/><path d="m360.981 193.151c.648 1.797 3.479 2.122 3.984 0 2.292-9.641 1.108-22.706-.887-32.338-1.821-8.788-4.296-20.299-10.611-27.078-.724-.778-2.264.027-1.859 1.082 3.449 8.975 4.533 21.568 5.795 30.973 1.205 8.973.496 18.803 3.578 27.361z"/><path d="m315.225 184.232c-2.487-7.07-4.651-14.237-7.054-21.334-.455-1.345-2.564-.791-2.145.591 3.928 12.966 7.362 25.963 10.721 39.049.399 1.555 2.838 1.242 2.809-.38-.111-6.207-2.289-12.123-4.331-17.926z"/><path d="m340.795 143.466c-1.763-1.713-4.403.928-2.697 2.697 4.852 5.029 6.71 15.511 8.223 22.052 1.582 6.84 3.233 13.601 4.98 20.356.427 1.65 2.663 1.153 2.809-.38.828-8.677-2.022-17.201-4.479-25.465-1.802-6.064-4.205-14.761-8.836-19.26z"/><path d="m309.005 146.284c.599-9.015-3.766-18.01-9.889-24.402-3.657-3.817-8.408-7.454-13.606-8.211-1.139.655-2.272 1.322-3.42 1.962 5.749.877 11.526 7.63 14.278 12.047 3.827 6.143 6.774 12.199 8.893 19.111.644 2.105 3.603 1.624 3.744-.507z"/><path d="m327.34 115.405c6.542 7.674 7.032 16.287 11.382 24.81 1.131 2.216 4.885 1.21 4.738-1.283-.835-14.131-3.579-24.599-15.425-33.535-4.767-3.596-10.015-6.488-15.491-8.017-2.486 1.486-4.971 2.975-7.439 4.494 8.595 1.825 16.775 7.126 22.235 13.531z"/><path d="m137.286 184.652c8.465 11.104 11.004 23.562 15.33 36.52.676 2.024 4.182 2.498 4.597 0 4.397-26.483-16.983-47.31-37.351-60.495-.64.752-1.27 1.519-1.886 2.299 7.093 6.721 13.3 13.792 19.31 21.676z"/><path d="m106.833 170.386c-1.504-.277-3.097-.414-4.617-.253-.806.086-1.174 1.415-.211 1.561 1.609.243 3.31.814 4.7 1.661 1.322.805 2.153 1.414 3.667.764.881-.378.856-1.649.289-2.246-.893-.94-2.58-1.258-3.828-1.487z"/><path d="m63.732 191.431c-1.707 1.844-4.232 3.753-3.687 6.572.104.537.935.4.936-.127.006-2.379 2.856-3.618 4.51-4.848 1.223-.91 3.36-3.123 4.973-3.011 1.466.102 1.673-2.098.338-2.497-3.18-.95-5.19 1.881-7.07 3.911z"/><path d="m78.765 176.491c-.643.072-.941 1.122-.169 1.248 3.028.497 5.191 1.597 7.798 3.151 2.021 1.204 4.032 2.975 6.48 2.806.787-.054 1.684-.687 1.589-1.589-.367-3.468-3.346-3.786-6.234-4.529-3.363-.865-5.969-1.481-9.464-1.087z"/><path d="m58.355 216.983c1.064-.686 2.22-.933 3.403-1.339 1.032-.354 2.028-1.02 3.144-.942 1.825.126 1.85-2.808 0-2.86-1.432-.04-2.523.636-3.808 1.164-1.375.565-2.79.914-4.022 1.782-1.318.929-.11 3.094 1.283 2.195z"/><path d="m62.949 209.538c1.916-.316 3.628-1.278 5.516-1.729 1.309-.313.872-2.055-.296-2.185-1.924-.215-3.377 1.039-5.158 1.531-.847.234-1.849.204-2.641.58-.77.365-1.125 1.343-2.004 1.446-.17.02-.251.3-.045.333 1.583.254 3.034.287 4.628.024z"/><path d="m86.296 213.753c.402.874 1.804.422 1.777-.481-.14-4.538-3.02-9.371-5.823-12.774-1.158-1.405-3.276.65-2.022 2.023 1.511 1.655 2.767 3.48 3.781 5.48.943 1.862 1.422 3.87 2.287 5.752z"/><path d="m83.03 228.016c.539.672 1.58.804 2.358.623 1.27-.296 2.225-1.231 3.44-1.57 1.533-.428 3.269-.56 4.849-.891 2.415-.506 2.436-4.41 0-4.903-1.453-.294-2.979-.771-4.462-.517-1.399.241-2.77.867-3.855 1.793-1.507 1.287-4.223 3.101-2.489 5.265.053.067.106.133.159.2z"/><path d="m80.312 263.007c1.673-.3 1.136-2.703-.381-2.809-2.085-.146-3.909-1.286-6.017-1.123-2.246.174-4.178 1.464-6.398 1.759-.804.106-1.175 1.353-.211 1.56 2.266.488 4.596.242 6.887.584 2.03.304 4.092.393 6.12.029z"/><path d="m63.806 276.117c2.537-.861 4.957-1.156 7.631-1.12 1.228.017 1.228-1.939 0-1.906-2.822.074-5.408.478-8.053 1.494-.937.36-.561 1.866.422 1.532z"/><path d="m71.344 302.49c-3.301-1.51-5.355-3.572-7.586-6.345-2.614-3.247-6.034-4.381-6.557-9.031-.112-.997-1.545-1.045-1.589 0-.204 4.826 2.632 7.55 5.403 11.148 2.098 2.723 6.068 6.428 9.767 6.301 1.016-.035 1.628-1.586.562-2.073z"/><path d="m343.6 202.894c-.245-11.893-11.359-22.88-18.182-31.552-.662-.842-2.157.295-1.497 1.156 3.44 4.487 7.193 8.968 10.429 13.592 2.991 4.275 7.6 11.593 8.297 16.804.077.586.966.634.953 0z"/><path d="m64.901 220.001c-1.968-.155-4.112-.617-6.073-.261-1.308.238-3.123.74-4.087 1.669-.613.59-.551 1.86.289 2.246 1.511.693 2.473.036 3.844-.641 1.793-.884 4.068-.661 6.026-.789 1.437-.093 1.428-2.111.001-2.224z"/><path d="m315.635 175.242c-.49-.6-1.273.165-.998.77 5.957 13.09 9.414 28.108 7.619 42.477-.488 3.902-1.628 7.557-3.035 11.113 2.786-1.153 5.483-2.383 8.139-3.653 3.961-17.285 1.245-34.82-11.725-50.707z"/><path d="m393.138 305.196c.116-2.194.142-4.395.19-6.604-12.336-.033-23.76-11.45-36.001-12.558-.6 1.706-1.364 3.339-2.51 4.724 11.601 6.055 24.995 15.065 38.321 14.438z"/><path d="m387.119 266.115c-8.447 1.685-15.88 2.849-24.219 2.914-.021.063-.041.126-.063.189-.842 2.471-1.692 4.916-2.502 7.319 8.572 4.422 18.559 2.051 27.443-1.303 3.511-1.325 7.689-2.563 11.767-4.079.927-2.264 1.914-4.5 2.944-6.703-5.271.712-11.008.794-15.37 1.663z"/><path d="m307.791 229.735c4.853-18.273.474-33.633-4.031-51.399-.36-1.419-2.358-.788-2.145.592 2.672 17.289 5.2 31.777-.447 48.981-1.014 3.087-2.147 6.285-3.357 9.511 2.908-1.007 5.813-2.019 8.711-3.045.453-1.609.88-3.175 1.269-4.64z"/><path d="m161.311 283.679c4.044-9.239 3.687-17.179 1.142-26.563-.698-2.576-4.107-1.782-4.37.591-1.366 12.388-4.595 25.846-13.102 35.566 3.534.729 7.105 1.246 10.7 1.524 2.244-3.19 3.863-7.081 5.63-11.118z"/><path d="m76.77 288.923c-1.6-1.008-2.94-1.165-4.681-1.807-1.956-.722-2.767-2.303-4.104-3.739-1.395-1.497-3.665.769-2.247 2.247 1.431 1.492 2.093 2.833 3.984 3.792 1.809.917 3.75 1.184 5.528 2.108 2.438 1.265 4.373 3.102 6.586 4.673 1.432 1.017 2.107 1.497 3.724.752.364-.168.519-.764.285-1.087-2.064-2.848-6.118-5.076-9.075-6.939z"/><path d="m140.978 248.399c-.15-.243-.491-.18-.581.076-.808 2.295-.642 3.63-.563 5.929.206 6.025 1.175 11.006.648 17.122-.611 7.085-2.303 13.259-4.679 19.26 2.393.794 4.809 1.49 7.251 2.055 6.641-13.893 6.3-30.915-2.076-44.442z"/><path d="m278.788 181.667c-.659-1.245-2.869-.375-2.323.979 8.412 20.854 4.474 42.855-2.898 63.682 3.265-1.329 6.552-2.61 9.868-3.827 5.087-20.921 4.563-43.45-4.647-60.834z"/><path d="m234.494 318.481c-.057-.913-.105-1.826-.147-2.74-6.095-10.507-13.113-21.577-16.619-33.163-3.92-12.952-2.246-28.027-2.468-41.454-.017-1.022-1.572-1.024-1.589 0-.226 13.664-2.611 28.933 1.183 42.246 3.653 12.821 11.326 23.742 18.639 34.694.258.389.649.492 1.001.417z"/><path d="m101.044 212.193c.339-.499.309-1.262 0-1.765-.997-1.622-2.507-1.646-4.235-1.605-1.713.04-3.412.026-5.115.245-1.578.202-2.377 2.833-.422 3.121 2.935.434 7.655 3.123 9.772.004z"/><path d="m65.675 305.945c-.187-.18-.363-.364-.545-.546.11.234.223.468.262.711.042.264.5.045.283-.165z"/><path d="m49.535 292.025c2.782 2.667 5.436 5.858 8.637 8.022.914.618 2.512 1.442 3.977 2.416-.586-.535-1.19-1.054-1.859-1.524-3.847-2.705-6.84-6.19-10.081-9.587-.424-.446-1.118.248-.674.673z"/><path d="m62.149 302.462c1.029.94 1.987 1.942 2.981 2.936-.507-1.077-1.674-2.067-2.981-2.936z"/><path d="m57.948 230.437c.778-.233 1.196-.18 1.859-.696.509-.396.336-1.154 0-1.573-1.299-1.618-3.529.093-4.684 1.03-.775.629-1.715 1.723-2.613 2.13-.777.352-1.273.274-1.893.985-.677.775.345 1.786 1.123 1.124.456-.387 1.331-.289 1.881-.517.783-.323 1.481-.914 2.21-1.347.676-.402 1.356-.908 2.117-1.136z"/><path d="m53.953 238.378c.371-.171.049-.718-.321-.549-.835.383-1.504.662-2.454.61-.409-.022-.408.613 0 .635 1.056.058 1.827-.261 2.775-.696z"/><path d="m122.585 182.531c1.51 1.39 2.458 3.276 4.347 4.269 1.086.571 2.91-.416 2.334-1.795-.5-1.197-.169-2.481-.612-3.697-.469-1.289-1.541-2.087-2.667-2.794-2.423-1.52-4.73-3.35-7.331-4.555-2.066-.957-3.561 1.674-1.764 3.018 2.122 1.587 3.749 3.764 5.693 5.554z"/><path d="m60.916 247.4c.534 1.077 2.187.993 2.744 0 .662-1.179.668-2.549.321-3.849-.322-1.205-1.367-2.02-1.621-3.214-.335-1.575-2.867-1.228-2.809.38.044 1.206.635 1.923.931 3.019.348 1.288-.204 2.377.434 3.664z"/><path d="m152.936 250.857c3.206-2.189 2.296-6.958 2.023-10.286-.158-1.927-.241-3.833-.572-5.74-.381-2.197-.17-4.556-1.503-6.433-1.4-1.971-4.664-.147-3.293 1.925.761 1.149.636 3.668.832 5.059.224 1.586.243 3.158.319 4.755.138 2.921.376 5.76-.608 8.568-.537 1.531 1.453 3.073 2.802 2.152z"/><path d="m106.772 182.231c2.523 1.544 4.665 3.576 6.433 5.949.859 1.152 1.517 2.431 2.329 3.614.549.8 2.203 1.639 2.536 2.387.845 1.9 4.352 1.511 4.646-.607.52-3.735-2.376-6.461-4.876-8.901-2.756-2.69-5.906-4.788-9.476-6.217-2.232-.894-3.519 2.595-1.592 3.775z"/><path d="m111.363 212.854c-1.22-1.558-2.411-1.014-3.955-.364-4.913 2.068-7.93 6.459-7.469 11.897.278 3.274 2.03 8.441 5.19 9.867-.221.806-.324 1.764-.381 3.025-.153 3.425-1.151 7.57-5.03 7.765-3.188.16-6.056-.319-8.791 1.694-2.427 1.786-4.014 4.545-3.635 7.58.226 1.797 2.723 1.877 2.86 0 .275-3.758 4.088-4.453 6.939-3.961 1.483.256 2.953.731 4.47.78 2.772.089 4.851-.901 6.384-3.218 2.836-4.284 3.644-10.437 3.156-15.492.455-.646.751-1.399.682-2.179-.166-1.887-1.211-3.283-1.405-5.092-.214-1.988.527-3.321 1.312-5.382.78-2.034 1.152-5.031-.327-6.92z"/><path d="m100.948 189.19c.537.841 1.305 1.548 1.979 2.279.765.83 1.537 1.669 2.2 2.584.46.634.862 1.129 1.423 1.671.267.26.429.228.586.545.723 1.455 2.727.885 3.195-.418 1.172-3.266-2.091-5.704-4.264-7.523-2.024-1.695-4.659-3.868-7.509-3.361-.398.071-.468.695-.114.871 1.362.678 1.744 2.162 2.504 3.352z"/><path d="m89.48 237.062c1.792.428 4.65.65 5.828 2.256.942 1.285 2.762-.084 1.747-1.348-1.649-2.052-4.667-2.285-7.068-2.746-1.191-.229-1.713 1.551-.507 1.838z"/><path d="m74.408 206.379c-1.282-1.323-3.337.729-2.023 2.023 1.42 1.396 2.948 2.56 3.459 4.578.499 1.969 1.003 4.143.855 6.173-.12 1.644 2.386 1.607 2.542 0 .23-2.365-.262-5.287-.954-7.555-.666-2.183-2.341-3.631-3.879-5.219z"/><path d="m67.944 216.11c1.845 2.124 2.199 4.901 3.309 7.398.584 1.314.995 2.391 1.177 3.826.129 1.026.297 1.479.946 2.294.587.737 1.921-.059 1.593-.927-.42-1.117-.393-2.314-.813-3.421-.439-1.156-1.292-2.133-1.875-3.217-1.214-2.256-1.942-4.632-3.887-6.402-.305-.278-.718.141-.45.449z"/><path d="m70.783 194.939c1.555.196 2.502.426 3.839 1.224 1.1.656 1.905.751 3.16.497 1.464-.296 1.709-2.515.417-3.195-2.618-1.377-4.874-1.45-7.755-1.023-1.547.229-.94 2.336.339 2.497z"/><path d="m63.594 200.997c2.178.053 4.357.106 6.535.159 1.227.03 1.229-1.937 0-1.906-2.178.053-4.357.106-6.535.159-1.021.023-1.023 1.563 0 1.588z"/><path d="m88.793 186.188c-1.21-1.099-2.921.598-1.798 1.798 1.971 2.107 4.083 4.071 6.109 6.124 1.817 1.84 3.409 4.659 5.608 5.969 1.22.727 2.659-.471 2.334-1.795-.621-2.529-3.459-4.57-5.346-6.209-2.284-1.984-4.666-3.852-6.907-5.887z"/><path d="m64.302 227.648c.377 3.642 1.152 7.627 2.376 11.047.74 2.068 3.579 2.151 4.29 0 .746-2.256.424-3.844-.486-5.971-.801-1.871-1.797-3.644-2.434-5.583-.633-1.924-3.979-1.744-3.746.507z"/><path d="m83.168 184.508c-2.553-.936-4.392-2.926-7.279-3.083-2.425-.133-3.906.543-5.545 2.223-.176.18.155.421.266.205 1.492-2.885 5.972-.844 7.692.597 1.478 1.24 2.59 2.093 4.612 1.931 1.085-.088 1.28-1.497.254-1.873z"/><path d="m82.782 194.544c3.062 1.409 6.103 2.786 7.891 5.796 1.049 1.767 3.681.207 2.744-1.604-1.881-3.636-5.214-5.62-8.71-7.484-2.191-1.17-4.126 2.278-1.925 3.292z"/></g><g fill="#f7dbc1"><path d="m120.37 354.971c-6.073 0-9.48 9.716-9.48 14.742s4.332-4.125 7.89-4.14c3.558-.016 1.59-10.602 1.59-10.602z"/><path d="m125.762 360.666c-6.073 0-9.48 9.717-9.48 14.742s4.332-4.125 7.89-4.14 1.59-10.602 1.59-10.602z"/><path d="m134.648 365.093c-6.073 0-9.481 9.716-9.481 14.742s4.332-4.125 7.89-4.14c3.559-.015 1.591-10.602 1.591-10.602z"/><path d="m144.145 367.104c-6.073 0-9.48 9.716-9.48 14.742s4.332-4.125 7.89-4.14c3.558-.016 1.59-10.602 1.59-10.602z"/><path d="m192.527 394.5c-6.073 0-9.481 9.716-9.481 14.742s4.332-4.125 7.89-4.14c3.559-.015 1.591-10.602 1.591-10.602z"/><path d="m197.918 400.196c-6.073 0-9.48 9.716-9.48 14.742s4.332-4.125 7.89-4.14c3.558-.016 1.59-10.602 1.59-10.602z"/><path d="m206.804 404.623c-6.073 0-9.48 9.716-9.48 14.742s4.332-4.125 7.89-4.14c3.558-.016 1.59-10.602 1.59-10.602z"/><path d="m216.302 406.633c-6.073 0-9.48 9.717-9.48 14.742 0 5.026 4.332-4.125 7.89-4.14 3.557-.015 1.59-10.602 1.59-10.602z"/><path d="m276.667 272.807c-6.073 0-9.48 9.716-9.48 14.742s4.332-4.125 7.89-4.14c3.558-.016 1.59-10.602 1.59-10.602z"/><path d="m282.059 278.502c-6.073 0-9.48 9.716-9.48 14.742s4.332-4.125 7.89-4.14c3.557-.015 1.59-10.602 1.59-10.602z"/><path d="m290.945 282.929c-6.073 0-9.48 9.717-9.48 14.742s4.332-4.125 7.89-4.14c3.557-.015 1.59-10.602 1.59-10.602z"/><path d="m300.442 284.94c-6.073 0-9.48 9.716-9.48 14.742s4.332-4.125 7.89-4.14c3.558-.016 1.59-10.602 1.59-10.602z"/><path d="m344.122 307.752c-6.073 0-9.48 9.716-9.48 14.742s4.332-4.125 7.89-4.14c3.558-.016 1.59-10.602 1.59-10.602z"/><path d="m349.514 313.447c-6.073 0-9.481 9.716-9.481 14.742s4.333-4.125 7.891-4.141c3.558-.014 1.59-10.601 1.59-10.601z"/><path d="m358.4 317.874c-6.073 0-9.48 9.717-9.48 14.742 0 5.026 4.332-4.126 7.89-4.14 3.558-.015 1.59-10.602 1.59-10.602z"/><path d="m367.897 319.885c-6.073 0-9.48 9.716-9.48 14.742s4.332-4.125 7.89-4.14c3.558-.016 1.59-10.602 1.59-10.602z"/></g></g></svg>