<svg id="Layer_1" enable-background="new 0 0 512 512" height="512" viewBox="0 0 512 512" width="512" xmlns="http://www.w3.org/2000/svg"><g><g fill="#ffaa01"><path d="m202.054 239.309c-.377.846-.78 1.691-1.196 2.511-1.34 2.602-2.914 5.06-4.865 7.193-1.483 1.6-3.187 3.031-5.19 4.214-.039.026-.091.053-.13.078-1.821 1.054-3.681 1.717-5.554 2.042.585-6.647 1.041-13.228 1.262-19.861.013-.521.026-1.041.039-1.561 5.553.767 10.86 2.224 15.634 5.384z"/><path d="m180.241 255.49c-2.12-.234-4.228-.819-6.257-1.652-2.198-.91-4.318-2.107-6.283-3.473-.702-.494-1.378-1.001-2.042-1.522-3.29-2.588-6.295-5.567-8.974-8.819-3.187-3.85-5.932-8.116-8.129-12.63 1.196.637 2.393 1.209 3.603 1.703 8.428 3.486 17.728 3.512 26.742 4.11.013.403.026.819.039 1.223.182 7.025.69 14.01 1.301 21.06z"/><path d="m326.881 255.347c-1.873-.325-3.733-.988-5.555-2.042-.038-.026-.091-.052-.13-.078-2.003-1.184-3.707-2.614-5.19-4.214-1.287-1.405-2.406-2.952-3.408-4.578-.988-1.626-1.86-3.356-2.653-5.125 4.774-3.16 10.08-4.617 15.634-5.385.026.936.052 1.86.078 2.797.235 6.216.678 12.395 1.224 18.625z"/><path d="m363.443 227.395c-1.353 2.77-2.913 5.462-4.669 8.012-3.447 5.085-7.648 9.651-12.435 13.436-.663.52-1.34 1.027-2.042 1.522-1.964 1.366-4.084 2.563-6.282 3.473-2.029.833-4.136 1.418-6.256 1.652.599-6.881 1.093-13.709 1.288-20.577.026-.56.039-1.132.052-1.704 9.014-.599 18.313-.624 26.742-4.11 1.21-.495 2.406-1.067 3.602-1.704z"/></g><path d="m423.653 140.117c6.231 6.841 12.513 13.696 18.353 20.902 9.951-18.21 17.417-37.395 21.969-57.777 2.614-11.745 4.032-23.725 4.696-35.717.338-6.126-.117-12.162-1.951-17.69-1.509-2.263-3.187-4.396-5.007-6.386h-.014c-10.445-4.943-24.102-4.409-34.533-1.054-9.82 3.148-17.195 8.845-23.334 16.011 3.603-.273 7.284.013 10.783.807.754.169 1.483.351 2.211.572-.78.468-1.548.963-2.289 1.483-.885.598-1.743 1.222-2.575 1.872-4.383 3.395-8.22 7.466-11.342 12.279-3.07 4.734-4.826 9.56-6.126 14.568 3.772-2.732 8.116-4.631 12.591-5.32 1.053-.156 2.107-.261 3.173-.273-.768 1.223-1.509 2.458-2.198 3.72-2.042 3.772-3.72 7.752-4.89 12.018-2.354 8.572-2.134 17.859-1.691 26.639.026.624-.885.663-1.093.143-4.682-12.018-2.406-26.456 4.24-38.279-3.889.78-7.583 2.237-10.886 4.487-1.457.988-2.849 2.133-4.137 3.447.026-.793.078-1.573.169-2.367 0-.013 0-.013 0-.013 1.366-12.591 10.288-24.817 21.046-32.504.338-.247.689-.495 1.04-.728-3.642-.286-7.232.013-10.756.807-1.73.377-3.447.884-5.138 1.509.689-1.392 1.483-2.732 2.342-4.032h.013c7.244-10.874 19.757-18.652 32.166-21.097 7.544-1.483 17.963-1.6 26.846 1.105-4.5-3.785-9.755-6.711-15.79-8.428-12.344-3.499-24.375-.807-34.729 5.45-1.184.728-2.342 1.483-3.486 2.289-.481-.767-.923-1.573-1.314-2.419-.611-1.301-1.106-2.666-1.483-4.071-9.443 5.567-17.963 11.888-25.858 20.213-5.086 5.359-9.586 11.225-13.359 17.598-2.549 4.279-4.513 8.897-6.855 13.281-.533.949-1.066 1.899-1.639 2.822-1.119.104-2.263.169-3.395.221-.182.013-.351.013-.533.026-16.818.56-34.039-4.709-50.532-8.364-14.19-3.135-28.186-4.487-42.22-4.891-.091 0-.182-.013-.273 0-14.034.403-28.029 1.756-42.22 4.891-16.493 3.655-33.714 8.923-50.532 8.364-.182-.013-.351-.013-.533-.026-1.131-.052-2.276-.117-3.395-.221-.572-.924-1.106-1.873-1.639-2.822-2.341-4.384-4.305-9.001-6.855-13.281-3.772-6.373-8.272-12.239-13.358-17.598-7.895-8.325-16.415-14.645-25.858-20.213-.378 1.405-.872 2.771-1.483 4.071-.39.846-.832 1.652-1.313 2.419-1.145-.807-2.302-1.561-3.486-2.289-10.354-6.256-22.385-8.949-34.729-5.45-5.151 1.47-9.729 3.811-13.748 6.816-.702.507-1.379 1.053-2.042 1.612 3.005-.924 6.179-1.509 9.352-1.834 6.243-.637 12.5-.247 17.495.728 12.409 2.445 24.921 10.223 32.166 21.097h.013c.858 1.301 1.652 2.64 2.341 4.032-1.691-.625-3.407-1.132-5.137-1.509-3.525-.794-7.115-1.093-10.757-.807.351.234.702.481 1.041.728 0 0 0 0 .013.013 10.756 7.687 19.667 19.9 21.032 32.491v.013c.091.794.143 1.574.169 2.367-1.287-1.314-2.679-2.458-4.136-3.447-3.304-2.25-6.998-3.707-10.887-4.487 6.647 11.823 8.923 26.261 4.24 38.279-.143.339-.585.442-.858.286-.143-.078-.247-.221-.234-.429.442-8.78.664-18.067-1.691-26.639-1.171-4.266-2.849-8.246-4.891-12.018-.689-1.262-1.431-2.497-2.198-3.72 1.066.013 2.12.117 3.174.273 0 0 .208.039.572.104.677.104 1.34.247 2.003.43.143.039.286.078.442.104 3.395.949 6.66 2.575 9.573 4.683-.156-.611-.325-1.223-.494-1.834-1.262-4.358-2.939-8.584-5.632-12.734-3.121-4.813-6.958-8.883-11.342-12.279-.832-.65-1.691-1.275-2.575-1.872-.741-.52-1.508-1.015-2.289-1.483.728-.221 1.457-.403 2.212-.572 3.407-.768 6.985-1.066 10.497-.819.091 0 .194 0 .286.013-5.047-5.892-10.926-10.783-18.301-14.086-1.6-.715-3.278-1.366-5.034-1.925-10.431-3.356-24.089-3.889-34.533 1.054h-.013c-1.821 1.99-3.499 4.123-5.008 6.386-1.834 5.528-2.289 11.564-1.951 17.69.664 11.992 2.081 23.972 4.696 35.717 4.553 20.382 12.019 39.567 21.969 57.777 5.84-7.206 12.122-14.061 18.352-20.902 0 0 .013-.013.026-.026.429-.429 1.04.247.663.716-.819 1.001-1.639 2.016-2.445 3.018-5.229 6.451-10.406 12.994-15.153 19.836-.39.559-.767 1.105-1.132 1.664-3.212 4.709-6.205 9.56-8.844 14.607-7.739 14.763-11.642 31.152-12.877 47.71-1.899 25.429-1.274 50.961 3.304 75.934 2.393-5.034 5.424-9.664 9.079-13.489.664-.715 1.366-1.405 2.095-2.055.26 1.561.52 3.122.793 4.683v.013c.195 1.093.391 2.198.599 3.291 7.583 41.31 22.398 85.312 60.573 104.445-.807-2.952-1.132-6.074-1.041-9.17.026-.91.091-1.808.195-2.705 1.015.846 2.055 1.626 3.121 2.367 6.36 4.487 13.579 7.57 21.319 9.638 3.914 1.041 7.843 1.717 11.797 2.185-2.693-5.346-5.151-10.861-7.805-16.324-.377-.755.728-1.418 1.132-.663 2.979 5.645 6.334 11.589 10.132 17.338 1.158 1.756 2.354 3.473 3.59 5.177 3.096 4.227 6.465 8.273 10.146 11.875 3.265 3.213 6.789 6.1 10.561 8.506 1.21.767 2.459 1.496 3.733 2.146v.013c3.421 1.795 7.063 3.2 10.913 4.098 12.591 2.952 24.479-1.379 33.506-10.354 6.75-6.699 11.173-14.23 14.464-22.593-9.17-1.431-19.406-7.232-24.739-10.718-12.057-7.895-18.379-19.341-18.6-32.881-.026-.846-.013-1.691.026-2.55.572.416 1.145.833 1.73 1.236 13.54 9.39 30.215 14.841 46.799 15.426 16.584-.585 33.245-6.035 46.786-15.426.585-.403 1.157-.82 1.73-1.236.039.858.053 1.704.026 2.55-.221 13.54-6.542 24.986-18.6 32.881-5.332 3.486-15.569 9.287-24.739 10.718 3.291 8.363 7.713 15.894 14.464 22.593 9.027 8.975 20.915 13.306 33.505 10.354 3.85-.897 7.492-2.303 10.913-4.098v-.013c1.275-.65 2.523-1.379 3.733-2.146 8.051-5.112 14.867-12.395 20.707-20.382 1.236-1.704 2.432-3.421 3.59-5.177 3.798-5.749 7.154-11.693 10.132-17.338.403-.755 1.509-.092 1.132.663-2.653 5.463-5.112 10.978-7.804 16.324 3.954-.469 7.882-1.145 11.797-2.185 7.739-2.068 14.958-5.151 21.318-9.638 1.067-.741 2.107-1.522 3.122-2.367.104.898.169 1.795.195 2.705.092 3.096-.234 6.218-1.04 9.17 38.175-19.133 52.99-63.135 60.573-104.445.208-1.093.403-2.198.598-3.291v-.013c.273-1.561.533-3.122.794-4.683.728.65 1.431 1.34 2.094 2.055 3.655 3.824 6.686 8.454 9.079 13.489 4.579-24.974 5.203-50.506 3.304-75.934-1.236-16.558-5.137-32.947-12.877-47.71-2.641-5.047-5.632-9.898-8.845-14.607-.364-.559-.741-1.105-1.131-1.664-5.489-7.908-11.55-15.426-17.599-22.853-.395-.483.256-1.173.685-.691zm-32.427 101.232c2.94-12.2 5.424-24.466 6.256-37.07.689-10.418.741-20.941-.013-31.399-.299-4.071-.715-8.129-1.274-12.162 1.054 1.483 2.055 2.992 3.03 4.514 3.421 5.294 6.503 10.783 9.287 16.285 9.221 18.262 14.633 38.084 16.141 58.453.026.377-.585.468-.663.091-4.059-19.471-10.744-38.292-19.979-55.904-.767-1.457-1.548-2.888-2.367-4.306 2.861 23.686.755 48.295-8.597 69.952-.728 1.703-1.509 3.395-2.342 5.06-.416-1.795-.937-3.538-1.522-5.268-.988-3.018-2.198-5.944-3.512-8.858-1.392 3.303-3.005 6.568-4.852 9.768-7.791 13.566-21.448 27.457-36.289 33.142-.234.091-.455-.286-.26-.442 6.074-4.709 12.135-9.027 17.507-14.594 5.645-5.84 10.132-12.811 14.151-19.849 2.615-4.591 4.865-9.469 6.725-14.529.65-1.742 1.262-3.512 1.821-5.293 1.404 1.586 2.614 3.342 3.655 5.19 1.29 2.264 2.304 4.696 3.097 7.219zm-4.187-46.694c-.989 11.836-9.157 23.139-19.185 30.046-3.863 13.371-12.279 25.351-24.856 32.114-1.418.755-2.888 1.418-4.396 1.964-1.04.378-2.094.689-3.148.937-1.366.312-2.758.52-4.136.611-1.34.078-2.68.053-3.993-.13-1.093-.143-2.159-.377-3.213-.715-1.795-.56-3.538-1.431-5.177-2.628-.221-.156-.429-.325-.637-.494-4.982-3.928-7.83-9.911-9.794-16.038-1.405 1.054-2.758 2.276-4.059 3.694-.351.377-1.027-.026-.871-.508.871-2.757 2.198-4.994 3.876-6.815.312-.339.638-.664.976-.976 4.344-4.02 10.587-5.685 17.078-6.465 2.536-.312 5.125-.481 7.648-.598 4.188-.209 8.233-.273 11.667-.599 7.739-.728 14.984-3.33 21.474-7.427 1.028-.624 2.029-1.314 3.018-2.029.741-.533 1.457-1.092 2.172-1.664 7.492-6.035 11.434-13.775 15.271-22.359.063-.129.297-.065.285.079zm-162.886-29.396c5.788-4.566 12.681-8.26 20.017-10.601 3.863-1.223 7.843-2.068 11.824-2.458h.013c3.98.39 7.96 1.235 11.823 2.458 7.336 2.341 14.23 6.035 20.018 10.601 5.619 4.435 10.34 9.703 13.969 15.582 3.277-4.422 5.606-9.365 6.595-14.841.221-1.223.377-2.472.468-3.746.91.273 1.808.572 2.705.91 20.083 7.336 38.696 25.221 48.542 42.767.117.221-.182.481-.364.273-8.506-9.691-17.13-18.535-27.561-26.196-.754-.546-1.509-1.093-2.276-1.612-.378-.261-.755-.521-1.145-.755-5.463-3.668-11.199-6.725-16.949-9.807-.143 6.907-2.536 13.631-6.958 18.6-1.08 1.223-2.277 2.328-3.603 3.304-.95-1.573-1.964-3.121-3.031-4.617-4.071-5.762-8.896-10.964-14.451-15.296-8.545-6.647-17.858-10.458-27.782-12.864-9.938 2.406-19.251 6.204-27.796 12.864-5.554 4.331-10.379 9.534-14.451 15.296-1.066 1.496-2.081 3.044-3.03 4.617-1.327-.976-2.523-2.081-3.603-3.304-4.423-4.968-6.816-11.693-6.959-18.6-5.749 3.082-11.485 6.139-16.948 9.807-.39.234-.768.494-1.145.755-.767.52-1.522 1.066-2.276 1.612-10.431 7.661-19.055 16.506-27.562 26.196-.182.208-.481-.052-.364-.273 9.846-17.546 28.459-35.431 48.542-42.767.897-.338 1.795-.637 2.705-.91.092 1.275.247 2.523.469 3.746.988 5.476 3.317 10.418 6.595 14.841 3.628-5.879 8.35-11.147 13.969-15.582zm-2.355-9.677c6.451-7.935 15.166-15.153 24.921-19.823 3.005-1.444 6.113-2.653 9.287-3.538 3.16.898 6.269 2.095 9.274 3.538 9.755 4.67 18.47 11.888 24.921 19.823.195.234-.117.559-.351.338-8.234-7.648-18.483-13.137-29.07-16.805-1.587-.546-3.174-1.027-4.774-1.444-1.6.416-3.2.898-4.786 1.444-10.588 3.668-20.837 9.157-29.07 16.805-.234.221-.547-.104-.352-.338zm69.405-67.428c12.721.117 25.663 3.057 37.72 6.907 1.99.638 3.98 1.301 5.984 1.99 2.068.716 4.136 1.483 6.191 2.276v.013c1.184 1.652 2.224 3.434 3.083 5.333.806 1.756 1.456 3.603 1.951 5.476 14.035 8.103 26.001 21.526 33.298 34.377.221.403-.338.702-.611.351-7.375-9.768-15.96-18.21-26.079-25.129-1.847-1.262-3.733-2.419-5.645-3.512-1.34-.767-2.693-1.496-4.058-2.198-.221-1.04-.508-2.094-.885-3.174-.416-1.184-.885-2.354-1.379-3.486-.807-1.834-1.704-3.59-2.693-5.32v-.013c-3.29-1.365-6.633-2.666-10.028-3.824-12.123-4.098-24.518-6.53-36.94-9.404-.377-.091-.286-.663.091-.663zm-52.21 8.728c5.554-1.574 11.277-2.81 17.013-3.525 5.736.716 11.459 1.951 17 3.525 5.671 1.6 11.16 3.537 16.285 5.619 14.451 5.866 27.887 14.23 38.813 25.311.715.716 1.431 1.457 2.12 2.198-.572.508-1.171 1.015-1.769 1.509-1.431 1.184-2.914 2.303-4.462 3.356 22.905 8.246 43.834 28.798 49.83 50.298.117.417-.469.664-.689.287-8.65-14.386-17.716-26.651-31.932-36.069-7.401-4.904-15.27-8.22-23.413-10.822-2.705-.871-5.437-1.652-8.194-2.394 1.066-.312 2.133-.637 3.187-1.001 1.847-.638 3.642-1.34 5.398-2.107 2.563-1.118 5.046-2.367 7.453-3.746-12.109-9.338-25.181-17.377-39.515-22.97-9.964-3.889-19.966-5.932-30.111-7.388-10.146 1.456-20.148 3.499-30.124 7.388-13.436 5.242-25.767 12.63-37.226 21.24-.768.572-1.534 1.145-2.289 1.73 2.406 1.379 4.891 2.628 7.453 3.746 1.756.768 3.551 1.47 5.398 2.107 1.054.364 2.12.689 3.187 1.001-2.758.741-5.489 1.522-8.195 2.394-8.142 2.601-16.011 5.918-23.412 10.822-14.217 9.417-23.283 21.682-31.932 36.069-.221.377-.807.13-.689-.287 5.996-21.5 26.924-42.051 49.829-50.298-1.548-1.053-3.03-2.172-4.461-3.356-.599-.494-1.197-1.001-1.769-1.509.689-.741 1.405-1.483 2.12-2.198.676-.689 1.378-1.378 2.08-2.042 10.523-10.08 23.179-17.767 36.732-23.269 5.125-2.082 10.613-4.02 16.284-5.619zm-106.422 47.644c7.297-12.851 19.263-26.274 33.298-34.377.494-1.873 1.145-3.72 1.951-5.476.858-1.899 1.899-3.681 3.082-5.333v-.013c2.055-.794 4.123-1.561 6.191-2.276 2.003-.689 3.993-1.353 5.983-1.99 12.058-3.85 25-6.789 37.72-6.907.378 0 .469.572.092.663-12.422 2.875-24.817 5.307-36.94 9.404-3.395 1.157-6.738 2.458-10.029 3.824v.013c-.988 1.73-1.886 3.486-2.693 5.32-.494 1.132-.962 2.302-1.379 3.486-.377 1.08-.663 2.134-.884 3.174-1.366.702-2.719 1.431-4.058 2.198-1.912 1.093-3.798 2.25-5.645 3.512-10.119 6.919-18.704 15.361-26.079 25.129-.272.351-.831.052-.61-.351zm-7.323 50.051c3.837 8.584 7.778 16.324 15.27 22.359.716.572 1.431 1.131 2.172 1.664.988.716 1.99 1.405 3.018 2.029 6.491 4.097 13.736 6.698 21.474 7.427 3.434.325 7.479.39 11.667.599 2.524.117 5.112.286 7.648.598 6.491.78 12.734 2.445 17.079 6.465.338.312.663.637.976.976 1.678 1.821 3.004 4.058 3.875 6.815.156.481-.52.885-.871.508-1.301-1.418-2.653-2.641-4.058-3.694-1.964 6.126-4.813 12.11-9.794 16.038-.208.169-.416.339-.638.494-1.639 1.197-3.382 2.068-5.177 2.628-1.053.338-2.12.572-3.212.715-1.314.182-2.653.208-3.993.13-1.379-.091-2.771-.299-4.136-.611-1.054-.247-2.107-.559-3.148-.937-1.508-.546-2.978-1.209-4.396-1.964-12.578-6.763-20.994-18.743-24.856-32.114-10.029-6.907-18.197-18.21-19.185-30.046-.014-.145.22-.209.285-.079zm-12.474-29.344c.976-1.522 1.977-3.03 3.031-4.514-.559 4.032-.976 8.091-1.275 12.162-.754 10.458-.702 20.98-.013 31.399.832 12.604 3.317 24.87 6.256 37.07.794-2.523 1.808-4.955 3.096-7.218 1.041-1.847 2.25-3.603 3.655-5.19.559 1.782 1.17 3.551 1.821 5.293 1.86 5.06 4.11 9.938 6.725 14.529 4.02 7.037 8.506 14.008 14.152 19.849 5.372 5.567 11.433 9.885 17.507 14.594.195.156-.026.533-.26.442-14.841-5.685-28.498-19.576-36.29-33.142-1.847-3.2-3.459-6.465-4.852-9.768-1.314 2.913-2.523 5.84-3.512 8.858-.585 1.73-1.106 3.473-1.522 5.268-.832-1.665-1.612-3.356-2.341-5.06-9.352-21.657-11.459-46.266-8.598-69.952-.82 1.418-1.6 2.849-2.367 4.306-9.235 17.611-15.921 36.432-19.979 55.904-.078.377-.689.286-.663-.091 1.509-20.369 6.919-40.192 16.141-58.453 2.785-5.503 5.868-10.992 9.288-16.286zm67.207 150.633c-11.875 12.72-19.224 27.822-24.154 44.405-.963 3.239-1.808 6.491-2.485 9.794-.13.599-.247 1.21-.364 1.808-.234 1.262-.455 2.536-.65 3.811-2.328-.195-4.604-.689-6.816-1.431-6.087-2.029-11.654-5.879-16.362-10.718-2.029.417-4.123.689-6.231.833-3.291.234-6.62.169-9.885-.143-1.418-1.092-2.783-2.289-4.084-3.577-7.688-7.609-13.059-18.405-14.529-27.77-.104-.625.793-1.132 1.118-.469 3.863 7.921 8.351 15.075 14.477 21.487 2.328 2.433 4.904 4.514 7.544 6.491 1.691-.143 3.395-.325 5.112-.598.924-.143 1.834-.3 2.757-.481 2.29-.416 4.565-.898 6.842-1.34.481.416.976.833 1.483 1.249.885.728 1.795 1.417 2.706 2.094 3.304 2.419 6.789 4.539 10.289 6.673.351-1.548.741-3.07 1.144-4.565.468-1.678.962-3.317 1.483-4.93 5.476-16.87 16.662-31.75 30.046-43.183.39-.337.91.183.559.56zm9.651-15.868c-8.195 5.827-17.456 10.249-27.133 12.994-9.989 2.836-21.279 4.409-31.593 2.653-3.187-.546-6.387-1.365-9.561-2.393-.026.468-.026.937-.026 1.417.026 3.694.572 7.609 1.47 11.512.364 1.6.78 3.199 1.262 4.773-.182.013-.378.026-.559.039-2.068.131-4.136.078-6.192-.143-9.209-1.002-18.054-5.45-24.947-12.63-7.999-8.338-12.681-19.238-13.722-30.476-.208-2.315-.273-4.656-.169-6.985-.507.468-1.027.949-1.522 1.444-.182.182-.364.364-.547.547-2.172 2.172-4.149 4.565-5.593 7.245-.676-3.512-1.197-7.063-1.639-10.626-.143-1.235-.286-2.458-.429-3.694-.819-7.284-1.21-14.606-1.158-21.916.039-6.868.481-13.736 1.314-20.578 3.407-27.77 14.932-54.85 30.501-77.963.429-.624 1.417-.065 1.027.598-14.321 24.518-21.526 51.365-24.349 79.485-1.301 13.046-1.417 26.313-.091 39.372 1.132-.65 2.289-1.275 3.46-1.873 1.561-.794 3.16-1.535 4.722-2.225.052 1.718.117 3.447.221 5.177.715 11.16 2.952 22.502 9.079 31.698.937 1.378 1.951 2.718 3.057 4.006 4.709 5.463 11.16 9.833 18.236 12.5-.65-2.588-1.027-5.333-1.144-8.234v-.065c-.078-1.756-.052-3.525.078-5.268.078-1.066.195-2.134.338-3.187 2.575.455 5.177.78 7.817.988 3.265.26 6.595.351 10.029.364 10.054.026 19.809-.442 29.539-3.304 8.702-2.562 16.948-6.659 24.322-11.927 7.414-5.294 15.166-10.263 21.501-16.844.442-.455 1.158.13.859.663-4.892 8.938-10.094 16.898-18.458 22.856zm27.575-20.942c-5.411 10.406-8.571 21.878-9.495 33.584-.832 10.548 1.066 20.772 2.367 31.203.078.624-.898.832-1.171.312-10.744-20.343-4.487-47.255 7.531-65.555.312-.467 1.028-.051.768.456zm58.973-59.259c-1.483-1.028-3.135-2.016-4.838-3.005-1.47-.858-2.992-1.704-4.501-2.588-4.032-2.328-8.012-4.865-10.835-8.104-2.836 3.238-6.816 5.775-10.848 8.104-1.509.884-3.031 1.73-4.5 2.588-1.704.988-3.356 1.977-4.839 3.005-15.101 10.47-16.831 30.553-19.445 47.189-.052.364-.624.26-.624-.092-.195-14.503.897-29.565 9.911-41.609 3.304-4.422 7.388-7.596 12.031-10.34-2.575-2.068-4.552-5.034-5.866-8.207-1.626-3.941-1.951-7.896-1.522-11.797-2.497 1.118-4.956 2.354-7.349 3.72-9.157 5.202-15.335 10.562-21.474 19.159-.208.286-.767.117-.611-.247 5.489-13.384 17.091-25.649 31.034-30.072.728-.234 1.47-.442 2.225-.625-.13 2.198-.104 4.318.104 6.387.676 7.141 3.381 13.462 8.649 18.821 4.189-2.237 8.52-4.617 11.642-7.908.533-.56 1.028-1.145 1.483-1.769.442.624.936 1.209 1.47 1.769.195.208.39.403.599.611 3.07 2.979 7.115 5.203 11.043 7.297 5.268-5.359 7.973-11.68 8.65-18.821.208-2.068.234-4.188.104-6.387.755.182 1.496.39 2.225.625 13.943 4.422 25.546 16.687 31.034 30.072.156.364-.403.533-.611.247-6.139-8.597-12.318-13.957-21.474-19.159-2.393-1.366-4.852-2.602-7.349-3.72.429 3.902.104 7.856-1.522 11.797-1.314 3.173-3.291 6.139-5.866 8.207 4.644 2.744 8.728 5.918 12.032 10.34 9.014 12.044 10.106 27.106 9.911 41.609 0 .351-.572.455-.625.092-2.617-16.636-4.347-36.718-19.448-47.189zm26.911 124.359c-.273.52-1.248.312-1.17-.312 1.3-10.431 3.199-20.655 2.367-31.203-.924-11.706-4.085-23.178-9.495-33.584-.26-.507.455-.923.767-.455 12.019 18.3 18.275 45.211 7.531 65.554zm99.959 16.493c-1.301 1.287-2.667 2.484-4.084 3.577-3.265.312-6.595.378-9.885.143-2.107-.143-4.201-.416-6.231-.833-4.708 4.839-10.276 8.689-16.363 10.718-2.211.741-4.487 1.235-6.816 1.431-.195-1.275-.416-2.549-.65-3.811-.741-3.915-1.717-7.778-2.848-11.603-4.93-16.584-12.279-31.685-24.154-44.405-.351-.377.169-.897.56-.56 13.384 11.433 24.57 26.313 30.045 43.183.989 3.043 1.873 6.217 2.628 9.495 3.499-2.134 6.985-4.254 10.288-6.673.91-.677 1.821-1.365 2.705-2.094.508-.416 1.002-.833 1.483-1.249 2.276.442 4.553.924 6.842 1.34.924.182 1.834.338 2.758.481 1.717.273 3.42.455 5.112.598 2.641-1.977 5.216-4.058 7.544-6.491 6.126-6.412 10.614-13.566 14.476-21.487.325-.663 1.223-.156 1.119.469-1.47 9.366-6.842 20.162-14.529 27.771zm40.061-127.468c1.73 14.126 1.743 28.355.156 42.494-.143 1.236-.286 2.459-.43 3.694-.442 3.564-.962 7.115-1.639 10.626-1.561-2.9-3.759-5.476-6.139-7.791-.494-.494-1.015-.976-1.522-1.444.585 13.618-4.24 27.405-13.892 37.46-6.894 7.179-15.738 11.628-24.947 12.63-2.237.247-4.487.286-6.75.104.481-1.573.897-3.173 1.262-4.773.897-3.902 1.443-7.818 1.47-11.512 0-.481 0-.949-.026-1.417-3.174 1.027-6.373 1.847-9.56 2.393-10.315 1.756-21.604.182-31.594-2.653-9.677-2.744-18.938-7.166-27.133-12.994-8.364-5.957-13.566-13.918-18.457-22.853-.299-.533.417-1.118.858-.663 6.334 6.581 14.086 11.55 21.501 16.844 7.375 5.268 15.622 9.365 24.323 11.927 9.729 2.861 19.484 3.329 29.538 3.304 3.434-.013 6.764-.104 10.029-.364 2.641-.208 5.242-.533 7.818-.988.143 1.053.26 2.12.338 3.187.13 1.769.156 3.551.078 5.332-.117 2.9-.495 5.645-1.145 8.234 7.076-2.666 13.527-7.037 18.235-12.5 8.468-9.781 11.317-22.866 12.136-35.704.104-1.73.169-3.459.221-5.177 1.561.689 3.16 1.431 4.722 2.225 1.17.599 2.328 1.223 3.459 1.873 1.327-13.059 1.21-26.326-.091-39.372-2.822-28.12-10.028-54.967-24.349-79.485-.39-.663.598-1.222 1.027-.598 15.571 23.111 27.096 50.191 30.503 77.961z" fill="#ff6800"/><path d="m238.17 231.803c-7.766 12.619-16.476 108.391-8.671 121.398 7.804 13.007 45.957 13.007 53.761-1.734 7.805-14.741-3.468-106.657-8.671-117.93-5.202-11.273-29.482-13.007-36.419-1.734z" fill="#fff" opacity=".2"/><path d="m64.024 37.414c-3.173.325-6.347.91-9.352 1.834.663-.559 1.34-1.105 2.042-1.612 2.329-.209 4.774-.3 7.31-.222z"/><path d="m48.026 103.242c-2.614-11.745-4.032-23.725-4.696-35.717-.338-6.126.117-12.162 1.951-17.69 1.509-2.263 3.187-4.396 5.008-6.386h.013c10.445-4.943 24.102-4.409 34.533-1.054 1.756.559 3.434 1.21 5.034 1.925 6.022 3.213 12.11 7.765 18.015 14.074 1.014 1.066 2.016 2.198 3.018 3.369-9.716-.078-9.716-.078-9.716-.078s0 0 .013.013c.546.507 18.183 16.805 19.042 27.9-1.053-.533-2.146-1.014-3.226-1.444-3.382-1.366-6.75-2.289-9.079-2.849-.156-.026-.299-.065-.442-.104-.663-.182-1.327-.325-2.003-.43-.364-.065-.572-.104-.572-.104s10.21 31.008 6.699 42.246c-.286.092-.585.195-.858.286-14.607 5.008-21.942 12.422-22.385 12.89-.013.013-.026.026-.026.026-6.231 6.841-12.512 13.696-18.352 20.902-9.953-18.208-17.419-37.393-21.971-57.775z" opacity=".3"/><path d="m178.342 419.974s-.247.065-.728.208c-3.681-3.603-7.05-7.648-10.146-11.875-1.236-1.704-2.432-3.421-3.59-5.177-3.798-5.749-7.154-11.693-10.132-17.338-.403-.755-1.509-.092-1.132.663 2.653 5.463 5.112 10.978 7.805 16.324-3.954-.469-7.883-1.145-11.797-2.185-7.74-2.068-14.958-5.151-21.319-9.638-1.066-.741-2.107-1.522-3.121-2.367-.104.898-.169 1.795-.195 2.705-.091 3.096.234 6.218 1.041 9.17-38.176-19.133-52.99-63.135-60.573-104.445-.208-1.093-.403-2.198-.599-3.291v-.013c-.273-1.561-.533-3.122-.793-4.683-.728.65-1.431 1.34-2.095 2.055-3.655 3.824-6.685 8.454-9.079 13.489-4.578-24.974-5.203-50.506-3.304-75.934 1.236-16.558 5.138-32.947 12.877-47.71 2.64-5.047 5.632-9.898 8.844-14.607.364-.559.741-1.105 1.132-1.664 4.747-6.842 9.924-13.384 15.153-19.836-13.423 28.667-25.936 64.54-20.109 103.587.325 2.159.689 4.279 1.093 6.348 2.159 11.173 5.372 20.889 8.819 28.992.741 1.743 1.483 3.408 2.237 4.994 7.284 15.453 14.724 23.829 14.724 23.829s0-1.613.104-4.123c.3-7.232 1.457-21.943 5.971-27.094.481 9.352 6.217 21.995 14.177 35.301 3.03 5.06 6.386 10.223 9.885 15.335 7.986 11.628 16.766 22.997 24.401 32.427 1.912 2.341 3.733 4.565 5.45 6.646 8.533 10.25 14.594 16.949 14.594 16.949z" opacity=".3"/><path d="m463.165 103.242c2.614-11.745 4.032-23.725 4.695-35.717.338-6.126-.117-12.162-1.951-17.69-1.509-2.263-3.187-4.396-5.008-6.386h-.013c-10.445-4.943-24.102-4.409-34.533-1.054-1.756.559-3.434 1.21-5.033 1.925-6.023 3.213-12.11 7.765-18.015 14.074-1.015 1.066-2.016 2.198-3.018 3.369 9.716-.078 9.716-.078 9.716-.078s0 0-.013.013c-.546.507-18.183 16.805-19.042 27.9 1.054-.533 2.146-1.014 3.226-1.444 3.382-1.366 6.75-2.289 9.079-2.849.156-.026.3-.065.442-.104.663-.182 1.327-.325 2.003-.43.364-.065.572-.104.572-.104s-10.21 31.008-6.699 42.246c.286.092.586.195.859.286 14.607 5.008 21.943 12.422 22.385 12.89.013.013.026.026.026.026 6.231 6.841 12.513 13.696 18.353 20.902 9.95-18.208 17.416-37.393 21.969-57.775z" opacity=".3"/><path d="m332.848 419.974s.247.065.728.208c3.681-3.603 7.049-7.648 10.145-11.875 1.235-1.704 2.433-3.421 3.59-5.177 3.798-5.749 7.154-11.693 10.132-17.338.403-.755 1.509-.092 1.132.663-2.653 5.463-5.111 10.978-7.804 16.324 3.954-.469 7.882-1.145 11.797-2.185 7.739-2.068 14.958-5.151 21.318-9.638 1.066-.741 2.107-1.522 3.121-2.367.104.898.17 1.795.195 2.705.091 3.096-.234 6.218-1.04 9.17 38.175-19.133 52.99-63.135 60.573-104.445.209-1.093.403-2.198.599-3.291v-.013c.273-1.561.533-3.122.794-4.683.728.65 1.431 1.34 2.094 2.055 3.655 3.824 6.685 8.454 9.079 13.489 4.578-24.974 5.203-50.506 3.304-75.934-1.235-16.558-5.138-32.947-12.876-47.71-2.641-5.047-5.632-9.898-8.845-14.607-.364-.559-.741-1.105-1.132-1.664-4.747-6.842-9.924-13.384-15.153-19.836 13.423 28.667 25.936 64.54 20.109 103.587-.325 2.159-.689 4.279-1.093 6.348-2.159 11.173-5.372 20.889-8.819 28.992-.741 1.743-1.483 3.408-2.237 4.994-7.284 15.453-14.724 23.829-14.724 23.829s0-1.613-.104-4.123c-.299-7.232-1.457-21.943-5.97-27.094-.481 9.352-6.218 21.995-14.178 35.301-3.031 5.06-6.386 10.223-9.885 15.335-7.986 11.628-16.766 22.997-24.401 32.427-1.912 2.341-3.733 4.565-5.45 6.646-8.532 10.25-14.593 16.949-14.593 16.949z" opacity=".3"/><g fill="#ffd273"><path d="m305.875 440.863c-12.434 1.548-24.258-3.226-33.011-12.032-.442-.442-.858-.898-1.275-1.353-5.281-.469-10.601-2.276-15.999-2.289-5.606 0-10.496 1.223-15.556 2.693-.286.325-.586.637-.898.949-8.754 8.806-20.577 13.579-33.012 12.032-4.318-.533-8.545-1.704-12.565-3.395 1.743 6.088 4.098 12.019 7.297 17.885 5.996 10.977 14.008 20.096 23.426 27.939.404-2.33.986-4.533 1.704-6.777.208-.65.442-1.288.689-1.925.963.182 1.912.364 2.875.559 8.611 1.678 17.195 3.252 26.027 3.733.143.013.286.013.43.013.143 0 .273 0 .416-.013 8.831-.481 17.417-2.055 26.027-3.733.962-.195 1.912-.377 2.874-.559.247.637.481 1.275.689 1.925.365 1.095.686 2.206.97 3.324.105.414.987 3.243.735 3.453 9.417-7.843 17.429-16.961 23.426-27.939 3.2-5.866 5.553-11.797 7.296-17.885-4.019 1.691-8.247 2.862-12.565 3.395z"/><path d="m216.492 263.886s2.601-25.581 0-31.217c-2.602-5.636 31.217-52.028 15.175-52.895s-51.161 35.986-52.461 20.811c-1.301-15.175 45.09-44.223 45.09-44.223s-25.147 1.734-42.489 11.273-41.188 36.419-42.489 16.042 35.985-50.293 35.985-50.293-14.741 4.336-35.985 21.678c-21.245 17.343-15.609 36.419-13.007 45.09 17.343 33.818 61.132 32.518 72.406 35.552 11.271 3.036 17.775 28.182 17.775 28.182z"/><path d="m231.774 431.133c15.609-8.129 20.486-30.891 20.486-30.891l-39.346-27.64-9.43-19.185s-2.926 10.08-.976 19.185c-4.227-.976-13.982-8.454-14.307-25.689-2.927 3.252-11.381 23.087-3.902 39.671-4.552 0-14.958-4.227-22.437-16.259-3.577 11.706 0 29.916.976 32.517 0 0 10.328 19.771 22.437 28.29 12.109 8.521 30.891 8.131 46.499.001z"/><path d="m296.633 263.886s-2.601-25.581 0-31.217c2.602-5.636-31.216-52.028-15.174-52.895s51.16 35.986 52.461 20.811-45.091-44.223-45.091-44.223 25.147 1.734 42.489 11.273c17.343 9.539 41.189 36.419 42.489 16.042 1.301-20.377-35.986-50.293-35.986-50.293s14.741 4.336 35.986 21.678c21.244 17.343 15.608 36.419 13.007 45.09-17.342 33.818-61.132 32.518-72.405 35.552-11.272 3.036-17.776 28.182-17.776 28.182z"/><path d="m281.35 431.133c-15.608-8.129-20.486-30.891-20.486-30.891l39.346-27.64 9.43-19.185s2.927 10.08.976 19.185c4.227-.976 13.982-8.454 14.307-25.689 2.927 3.252 11.381 23.087 3.902 39.671 4.552 0 14.958-4.227 22.437-16.259 3.577 11.706 0 29.916-.976 32.517 0 0-10.328 19.771-22.437 28.29-12.109 8.521-30.89 8.131-46.499.001z"/></g><g fill="#381700"><path d="m454.154 177.811c-3.278-5.229-6.893-10.21-10.717-15.023.13-.195.26-.39.377-.585 12.89-19.315 21.865-41.44 26.352-64.176 1.821-9.248 4.24-22.515 3.369-34.69v-.013c-.325-4.514-1.106-8.884-2.549-12.838l-.013-.013c-.534-1.496-1.197-2.913-1.938-4.279-.143-.364-.286-.728-.494-.923l-.013-.013c-1.34-2.263-3.005-4.292-5.034-6.035-14.815-15.114-41.453-18.678-58.687-5.462-.677-1.015-1.275-2.068-1.769-3.148-.429-.911-.793-1.848-1.079-2.81-.728.26-1.444.533-2.159.819-11.212 4.448-21.8 11.953-29.824 20.316-8.429 8.767-18.509 21.513-20.708 34.312-17.91-.169-35.743-5.827-53.433-9.534-2.042-.442-4.071-.845-6.113-1.209-10.9-1.964-22.281-3.382-33.714-3.837-11.433.455-22.827 1.873-33.727 3.837-2.042.364-4.071.768-6.113 1.209-17.689 3.707-35.522 9.365-53.432 9.534-2.198-12.799-12.279-25.546-20.707-34.312-8.025-8.363-18.613-15.868-29.825-20.316-.715-.286-1.431-.56-2.159-.819-.285.962-.65 1.899-1.079 2.81-.117.273-.247.533-.39.806-.403.794-.872 1.587-1.379 2.342-17.234-13.215-43.873-9.651-58.687 5.462-2.029 1.743-3.694 3.772-5.033 6.035l-.013.013c-.221.195-.351.559-.494.923-.742 1.366-1.405 2.783-1.938 4.279l-.013.013c-1.444 3.954-2.225 8.324-2.55 12.838v.013c-.871 12.174 1.548 25.441 3.369 34.69 4.487 22.736 13.462 44.861 26.352 64.176.117.195.247.39.378.585-3.824 4.813-7.44 9.794-10.718 15.023-8.962 14.334-13.449 29.539-15.088 46.318-1.73 17.559-1.6 35.691-.572 53.315.677 11.641 2.212 23.49 6.478 34.351v.013c.767 1.951 1.613 3.863 2.575 5.749.586-1.86 1.249-3.72 2.003-5.567.078-.182.156-.364.234-.547 2.198-5.268 5.086-10.093 8.051-14.906 2.289 23.816 7.336 47.397 19.718 68.208 10.679 17.937 25.858 32.621 45.082 39.437.898.312 1.795.611 2.719.898-.377-1.027-.677-2.068-.91-3.135-.131-.611-.247-1.223-.339-1.847-.273-1.873-.403-3.785-.455-5.723 9.872 8.234 22.723 12.539 35.86 13.683 2.822 5.112 6.009 10.029 9.963 14.555 4.487 5.151 10.002 9.573 16.102 12.811 4.266 20.226 17.481 39.346 34.663 50.012.533.325 1.066.65 1.6.963.156-.572.312-1.145.495-1.704.078-.26.156-.52.247-.768.39-1.3.832-2.562 1.3-3.824 8.975 1.99 18.717 2.705 28.434 2.185 9.703.52 19.445-.195 28.42-2.185.469 1.262.91 2.523 1.301 3.824.091.248.169.508.247.768.182.559.338 1.132.494 1.704.533-.312 1.066-.638 1.6-.963 17.182-10.666 30.397-29.785 34.664-50.012 6.1-3.239 11.615-7.661 16.103-12.811 3.954-4.526 7.141-9.443 9.963-14.555 13.137-1.145 25.987-5.45 35.86-13.683-.065 1.938-.169 3.85-.455 5.723-.091.624-.208 1.235-.338 1.847-.234 1.067-.533 2.107-.911 3.135.924-.286 1.821-.585 2.719-.898 19.224-6.816 34.403-21.5 45.082-39.437 12.383-20.811 17.429-44.392 19.719-68.208 2.966 4.813 5.853 9.638 8.052 14.906.078.182.156.364.234.547.755 1.847 1.418 3.707 2.003 5.567.963-1.886 1.808-3.798 2.576-5.749v-.013c4.266-10.861 5.801-22.71 6.477-34.351 1.027-17.625 1.158-35.756-.572-53.315-1.645-16.779-6.132-31.985-15.094-46.318zm-143.011 277.542c-5.996 10.977-14.009 20.096-23.426 27.939-.391-2.276-1.002-4.605-1.704-6.777-.208-.65-.442-1.288-.689-1.925-.963.182-1.912.364-2.874.559-8.611 1.678-17.196 3.252-26.027 3.733-.143.013-.273.013-.416.013s-.286 0-.43-.013c-8.831-.481-17.416-2.055-26.027-3.733-.963-.195-1.912-.377-2.875-.559-.247.637-.481 1.275-.689 1.925-.37 1.11-.606 2.275-.916 3.41-.11.405-1.043 3.154-.787 3.367-9.417-7.843-17.43-16.961-23.426-27.939-3.199-5.866-5.554-11.797-7.297-17.885 4.019 1.691 8.246 2.862 12.565 3.395 12.435 1.548 24.258-3.226 33.012-12.032.312-.312.611-.624.898-.949 5.06-1.47 9.95-2.693 15.556-2.693 5.398.013 10.717 1.821 15.999 2.289.416.455.832.91 1.275 1.353 8.753 8.806 20.577 13.579 33.011 12.032 4.318-.533 8.546-1.704 12.565-3.395-1.744 6.087-4.098 12.018-7.298 17.885zm148.968-151.778c-2.393-5.034-5.423-9.664-9.079-13.489-.663-.715-1.365-1.405-2.094-2.055-.26 1.561-.52 3.122-.794 4.683v.013c-.195 1.093-.39 2.198-.598 3.291-7.583 41.31-22.398 85.312-60.573 104.445.807-2.952 1.132-6.074 1.04-9.17-.026-.91-.091-1.808-.195-2.705-1.015.846-2.055 1.626-3.122 2.367-6.36 4.487-13.579 7.57-21.318 9.638-3.915 1.041-7.843 1.717-11.797 2.185 2.693-5.346 5.151-10.861 7.804-16.324.377-.755-.728-1.418-1.132-.663-2.978 5.645-6.334 11.589-10.132 17.338-1.157 1.756-2.354 3.473-3.59 5.177-5.84 7.986-12.656 15.27-20.707 20.382-1.209.767-2.458 1.496-3.733 2.146v.013c-3.421 1.795-7.063 3.2-10.913 4.098-12.59 2.952-24.479-1.379-33.505-10.354-6.751-6.699-11.173-14.23-14.464-22.593 9.17-1.431 19.407-7.232 24.739-10.718 12.058-7.895 18.379-19.341 18.6-32.881.026-.846.013-1.691-.026-2.55-.572.416-1.145.833-1.73 1.236-13.54 9.39-30.202 14.841-46.786 15.426-16.584-.585-33.259-6.035-46.799-15.426-.586-.403-1.158-.82-1.73-1.236-.039.858-.052 1.704-.026 2.55.221 13.54 6.542 24.986 18.6 32.881 5.333 3.486 15.57 9.287 24.739 10.718-3.29 8.363-7.713 15.894-14.464 22.593-9.027 8.975-20.915 13.306-33.506 10.354-3.85-.897-7.492-2.303-10.913-4.098v-.013c-1.275-.65-2.523-1.379-3.733-2.146-8.051-5.112-14.867-12.395-20.707-20.382-1.236-1.704-2.432-3.421-3.59-5.177-3.798-5.749-7.154-11.693-10.132-17.338-.403-.755-1.509-.092-1.132.663 2.653 5.463 5.112 10.978 7.805 16.324-3.954-.469-7.883-1.145-11.797-2.185-7.74-2.068-14.958-5.151-21.319-9.638-1.066-.741-2.107-1.522-3.121-2.367-.104.898-.169 1.795-.195 2.705-.091 3.096.234 6.218 1.041 9.17-38.176-19.133-52.99-63.135-60.573-104.445-.208-1.093-.403-2.198-.599-3.291v-.013c-.273-1.561-.533-3.122-.793-4.683-.728.65-1.431 1.34-2.095 2.055-3.655 3.824-6.685 8.454-9.079 13.489-4.578-24.974-5.203-50.506-3.304-75.934 1.236-16.558 5.138-32.947 12.877-47.71 2.64-5.047 5.632-9.898 8.844-14.607.364-.559.741-1.105 1.132-1.664 5.489-7.908 11.55-15.426 17.598-22.853.39-.481-.26-1.171-.689-.689-6.231 6.841-12.512 13.696-18.352 20.902-9.95-18.21-17.417-37.395-21.969-57.777-2.614-11.745-4.032-23.725-4.696-35.717-.338-6.126.117-12.162 1.951-17.69 1.509-2.263 3.187-4.396 5.008-6.386h.013c10.445-4.943 24.102-4.409 34.533-1.054 9.821 3.148 17.195 8.845 23.335 16.011-3.603-.273-7.284.013-10.783.807-.755.169-1.483.351-2.212.572.781.468 1.548.963 2.289 1.483.885.598 1.743 1.222 2.575 1.872 4.384 3.395 8.221 7.466 11.342 12.279 3.07 4.734 4.826 9.56 6.126 14.568-3.772-2.732-8.116-4.631-12.59-5.32-1.054-.156-2.107-.261-3.174-.273.768 1.223 1.509 2.458 2.198 3.72 2.042 3.772 3.72 7.752 4.891 12.018 2.354 8.572 2.133 17.859 1.691 26.639-.026.624.885.663 1.093.143 4.683-12.018 2.406-26.456-4.24-38.279 3.889.78 7.583 2.237 10.887 4.487 1.457.988 2.849 2.133 4.136 3.447-.026-.793-.078-1.573-.169-2.367 0-.013 0-.013 0-.013-1.365-12.591-10.288-24.817-21.045-32.504-.339-.247-.689-.495-1.041-.728 3.642-.286 7.232.013 10.757.807 1.73.377 3.447.884 5.137 1.509-.689-1.392-1.483-2.732-2.341-4.032h-.013c-7.245-10.874-19.757-18.652-32.166-21.097-7.544-1.483-17.963-1.6-26.847 1.105 4.5-3.785 9.755-6.711 15.791-8.428 12.343-3.499 24.375-.807 34.729 5.45 1.184.728 2.341 1.483 3.486 2.289.481-.767.924-1.573 1.313-2.419.611-1.301 1.106-2.666 1.483-4.071 9.443 5.567 17.963 11.888 25.858 20.213 5.086 5.359 9.586 11.225 13.358 17.598 2.55 4.279 4.514 8.897 6.855 13.281.533.949 1.066 1.899 1.639 2.822 1.119.104 2.264.169 3.395.221.182.013.352.013.533.026 16.818.56 34.039-4.709 50.532-8.364 14.191-3.135 28.186-4.487 42.22-4.891.092-.013.183 0 .273 0 14.035.403 28.03 1.756 42.22 4.891 16.493 3.655 33.714 8.923 50.532 8.364.182-.013.351-.013.533-.026 1.132-.052 2.276-.117 3.395-.221.572-.924 1.105-1.873 1.639-2.822 2.342-4.384 4.306-9.001 6.855-13.281 3.772-6.373 8.273-12.239 13.359-17.598 7.895-8.325 16.415-14.645 25.858-20.213.377 1.405.871 2.771 1.483 4.071.39.846.833 1.652 1.314 2.419 1.144-.807 2.302-1.561 3.486-2.289 10.353-6.256 22.385-8.949 34.729-5.45 6.035 1.717 11.29 4.643 15.79 8.428-8.883-2.705-19.302-2.588-26.846-1.105-12.409 2.445-24.922 10.223-32.166 21.097h-.013c-.859 1.301-1.652 2.64-2.342 4.032 1.691-.625 3.408-1.132 5.138-1.509 3.525-.794 7.115-1.093 10.756-.807-.351.234-.702.481-1.04.728-10.757 7.687-19.68 19.913-21.046 32.504v.013c-.091.794-.143 1.574-.169 2.367 1.288-1.314 2.68-2.458 4.137-3.447 3.304-2.25 6.998-3.707 10.886-4.487-6.646 11.823-8.922 26.261-4.24 38.279.208.52 1.119.481 1.093-.143-.442-8.78-.663-18.067 1.691-26.639 1.17-4.266 2.848-8.246 4.89-12.018.689-1.262 1.431-2.497 2.198-3.72-1.066.013-2.12.117-3.173.273-4.475.689-8.819 2.588-12.591 5.32 1.301-5.008 3.057-9.833 6.126-14.568 3.122-4.813 6.959-8.883 11.342-12.279.832-.65 1.691-1.275 2.575-1.872.741-.52 1.509-1.015 2.289-1.483-.728-.221-1.457-.403-2.211-.572-3.499-.793-7.18-1.079-10.783-.807 6.139-7.166 13.514-12.864 23.334-16.011 10.432-3.356 24.089-3.889 34.533 1.054h.014c1.82 1.99 3.498 4.123 5.007 6.386 1.834 5.528 2.289 11.564 1.951 17.69-.663 11.992-2.081 23.972-4.696 35.717-4.552 20.382-12.018 39.567-21.969 57.777-5.84-7.206-12.122-14.061-18.353-20.902-.429-.481-1.079.208-.689.689 6.049 7.427 12.11 14.945 17.599 22.853.39.559.767 1.105 1.131 1.664 3.213 4.709 6.204 9.56 8.845 14.607 7.739 14.763 11.641 31.152 12.877 47.71 1.901 25.428 1.277 50.96-3.302 75.934z"/><path d="m412.61 155.218c-.43-.624-1.418-.065-1.027.598 14.321 24.518 21.526 51.365 24.349 79.485 1.301 13.046 1.418 26.313.091 39.372-1.131-.65-2.289-1.275-3.459-1.873-1.561-.794-3.161-1.535-4.722-2.225-.052 1.718-.117 3.447-.221 5.177-.819 12.838-3.668 25.923-12.136 35.704-4.708 5.463-11.16 9.833-18.235 12.5.65-2.588 1.027-5.333 1.145-8.234.078-1.782.052-3.564-.078-5.332-.078-1.066-.195-2.134-.338-3.187-2.576.455-5.177.78-7.818.988-3.265.26-6.595.351-10.029.364-10.054.026-19.809-.442-29.538-3.304-8.702-2.562-16.948-6.659-24.323-11.927-7.414-5.294-15.166-10.263-21.501-16.844-.442-.455-1.157.13-.858.663 4.891 8.936 10.093 16.896 18.457 22.853 8.195 5.827 17.456 10.249 27.133 12.994 9.99 2.836 21.279 4.409 31.594 2.653 3.187-.546 6.386-1.365 9.56-2.393.026.468.026.937.026 1.417-.026 3.694-.572 7.609-1.47 11.512-.364 1.6-.78 3.199-1.262 4.773 2.263.182 4.513.143 6.75-.104 9.209-1.002 18.054-5.45 24.947-12.63 9.652-10.055 14.477-23.842 13.892-37.46.507.468 1.027.949 1.522 1.444 2.38 2.315 4.578 4.891 6.139 7.791.676-3.512 1.196-7.063 1.639-10.626.143-1.235.286-2.458.43-3.694 1.587-14.138 1.573-28.368-.156-42.494-3.409-27.768-14.934-54.848-30.503-77.961z"/><path d="m382.655 234.235c-1.86 5.06-4.11 9.938-6.725 14.529-4.019 7.037-8.506 14.008-14.151 19.849-5.372 5.567-11.433 9.885-17.507 14.594-.195.156.026.533.26.442 14.841-5.685 28.498-19.576 36.289-33.142 1.847-3.2 3.46-6.465 4.852-9.768 1.314 2.913 2.523 5.84 3.512 8.858.585 1.73 1.106 3.473 1.522 5.268.833-1.665 1.613-3.356 2.342-5.06 9.352-21.657 11.459-46.266 8.597-69.952.819 1.418 1.6 2.849 2.367 4.306 9.235 17.611 15.92 36.432 19.979 55.904.078.377.689.286.663-.091-1.509-20.369-6.92-40.192-16.141-58.453-2.784-5.502-5.866-10.991-9.287-16.285-.976-1.522-1.977-3.03-3.03-4.514.559 4.032.976 8.091 1.274 12.162.754 10.458.702 20.98.013 31.399-.832 12.604-3.317 24.87-6.256 37.07-.793-2.523-1.808-4.955-3.096-7.218-1.04-1.847-2.25-3.603-3.655-5.19-.56 1.78-1.172 3.549-1.822 5.292z"/><path d="m416.46 332.411c-3.863 7.921-8.35 15.075-14.476 21.487-2.328 2.433-4.904 4.514-7.544 6.491-1.691-.143-3.395-.325-5.112-.598-.924-.143-1.834-.3-2.758-.481-2.289-.416-4.566-.898-6.842-1.34-.481.416-.975.833-1.483 1.249-.885.728-1.795 1.417-2.705 2.094-3.304 2.419-6.789 4.539-10.288 6.673-.755-3.278-1.639-6.452-2.628-9.495-5.476-16.87-16.662-31.75-30.045-43.183-.39-.338-.911.182-.56.56 11.875 12.72 19.224 27.822 24.154 44.405 1.131 3.824 2.107 7.687 2.848 11.603.234 1.262.455 2.536.65 3.811 2.328-.195 4.605-.689 6.816-1.431 6.087-2.029 11.654-5.879 16.363-10.718 2.029.417 4.123.689 6.231.833 3.291.234 6.62.169 9.885-.143 1.417-1.092 2.783-2.289 4.084-3.577 7.687-7.609 13.059-18.405 14.529-27.77.104-.626-.794-1.133-1.119-.47z"/><path d="m371.482 216.936c-.715.572-1.431 1.131-2.172 1.664-.988.716-1.99 1.405-3.018 2.029-6.491 4.097-13.735 6.698-21.474 7.427-3.434.325-7.479.39-11.667.599-2.523.117-5.112.286-7.648.598-6.491.78-12.734 2.445-17.078 6.465-.338.312-.663.637-.976.976-1.678 1.821-3.005 4.058-3.876 6.815-.156.481.52.885.871.508 1.301-1.418 2.653-2.641 4.059-3.694 1.964 6.126 4.813 12.11 9.794 16.038.208.169.416.339.637.494 1.639 1.197 3.382 2.068 5.177 2.628 1.054.338 2.12.572 3.213.715 1.314.182 2.653.208 3.993.13 1.378-.091 2.77-.299 4.136-.611 1.054-.247 2.107-.559 3.148-.937 1.509-.546 2.979-1.209 4.396-1.964 12.578-6.763 20.993-18.743 24.856-32.114 10.028-6.907 18.196-18.21 19.185-30.046.013-.143-.222-.208-.286-.078-3.837 8.583-7.778 16.322-15.27 22.358zm-50.155 36.367c-.039-.026-.091-.052-.13-.078-2.003-1.184-3.707-2.614-5.19-4.214-2.575-2.81-4.475-6.165-6.062-9.703 4.774-3.16 10.08-4.617 15.634-5.384.182 7.154.677 14.255 1.301 21.422-1.872-.326-3.731-.99-5.553-2.043zm25.013-4.461c-.664.52-1.34 1.027-2.042 1.522-1.965 1.366-4.084 2.562-6.282 3.473-2.029.833-4.137 1.418-6.257 1.652.65-7.453 1.171-14.841 1.34-22.281 9.014-.599 18.314-.624 26.742-4.11 1.21-.494 2.406-1.066 3.603-1.703-4.059 8.309-9.911 15.763-17.104 21.447z"/><path d="m294.793 279.056c5.41 10.406 8.572 21.878 9.495 33.584.832 10.548-1.067 20.772-2.367 31.203-.078.624.897.832 1.17.312 10.744-20.343 4.487-47.255-7.531-65.555-.312-.467-1.027-.051-.767.456z"/><path d="m291.112 88.817c12.421 2.875 24.817 5.307 36.94 9.404 3.395 1.157 6.738 2.458 10.028 3.824v.013c.988 1.73 1.886 3.486 2.693 5.32.494 1.132.963 2.302 1.379 3.486.377 1.08.663 2.134.885 3.174 1.365.702 2.718 1.431 4.058 2.198 1.912 1.093 3.798 2.25 5.645 3.512 10.119 6.919 18.704 15.361 26.079 25.129.273.351.833.053.611-.351-7.297-12.851-19.263-26.274-33.298-34.377-.494-1.873-1.145-3.72-1.951-5.476-.858-1.899-1.899-3.681-3.083-5.333v-.013c-2.055-.794-4.123-1.561-6.191-2.276-2.004-.689-3.993-1.353-5.984-1.99-12.057-3.85-24.999-6.789-37.72-6.907-.377 0-.468.572-.091.663z"/><path d="m296.25 266.895c.195-14.503-.897-29.565-9.911-41.609-3.304-4.422-7.388-7.596-12.032-10.34 2.575-2.068 4.553-5.034 5.866-8.207 1.626-3.941 1.951-7.896 1.522-11.797 2.497 1.118 4.956 2.354 7.349 3.72 9.157 5.202 15.336 10.562 21.474 19.159.208.286.768.117.611-.247-5.489-13.384-17.091-25.649-31.034-30.072-.728-.234-1.47-.442-2.225-.625.131 2.198.104 4.318-.104 6.387-.677 7.141-3.382 13.462-8.65 18.821-3.928-2.094-7.973-4.318-11.043-7.297-.209-.208-.403-.403-.599-.611-.533-.56-1.027-1.145-1.47-1.769-.455.624-.949 1.209-1.483 1.769-3.122 3.291-7.453 5.671-11.642 7.908-5.268-5.359-7.973-11.68-8.649-18.821-.209-2.068-.234-4.188-.104-6.387-.755.182-1.496.39-2.225.625-13.943 4.422-25.545 16.687-31.034 30.072-.156.364.403.533.611.247 6.14-8.597 12.318-13.957 21.474-19.159 2.393-1.366 4.852-2.602 7.349-3.72-.429 3.902-.104 7.856 1.522 11.797 1.314 3.173 3.29 6.139 5.866 8.207-4.643 2.744-8.727 5.918-12.031 10.34-9.014 12.044-10.107 27.106-9.911 41.609 0 .351.572.455.624.092 2.614-16.636 4.345-36.719 19.445-47.189 1.483-1.028 3.135-2.016 4.839-3.005 1.47-.858 2.991-1.704 4.5-2.588 4.032-2.328 8.012-4.865 10.848-8.104 2.822 3.238 6.803 5.775 10.835 8.104 1.509.884 3.03 1.73 4.501 2.588 1.704.988 3.356 1.977 4.838 3.005 15.101 10.47 16.831 30.553 19.445 47.189.056.363.628.259.628-.092z"/><path d="m222.15 155.92c8.233-7.648 18.482-13.137 29.07-16.805 1.586-.546 3.187-1.027 4.786-1.444 1.6.416 3.187.898 4.774 1.444 10.587 3.668 20.837 9.157 29.07 16.805.234.221.546-.104.351-.338-6.451-7.935-15.166-15.153-24.921-19.823-3.005-1.444-6.113-2.641-9.274-3.538-3.174.885-6.282 2.095-9.287 3.538-9.755 4.67-18.47 11.888-24.921 19.823-.195.234.118.559.352.338z"/><path d="m216.44 278.601c-12.019 18.301-18.275 45.212-7.531 65.555.273.52 1.249.312 1.171-.312-1.301-10.431-3.2-20.655-2.367-31.203.924-11.706 4.084-23.178 9.495-33.584.259-.508-.457-.924-.768-.456z"/><path d="m183.896 127.812c-.716.716-1.431 1.457-2.12 2.198.572.508 1.17 1.015 1.769 1.509 1.431 1.184 2.913 2.303 4.461 3.356-22.905 8.246-43.833 28.798-49.829 50.298-.117.417.468.664.689.287 8.649-14.386 17.715-26.651 31.932-36.069 7.401-4.904 15.27-8.22 23.412-10.822 2.706-.871 5.437-1.652 8.195-2.394-1.066-.312-2.133-.637-3.187-1.001-1.847-.638-3.642-1.34-5.398-2.107-2.563-1.118-5.047-2.367-7.453-3.746.755-.585 1.522-1.157 2.289-1.73 11.459-8.611 23.79-15.999 37.226-21.24 9.976-3.889 19.978-5.932 30.124-7.388 10.145 1.456 20.147 3.499 30.111 7.388 14.334 5.593 27.405 13.631 39.515 22.97-2.406 1.379-4.89 2.628-7.453 3.746-1.756.768-3.551 1.47-5.398 2.107-1.054.364-2.12.689-3.187 1.001 2.757.741 5.489 1.522 8.194 2.394 8.143 2.601 16.011 5.918 23.413 10.822 14.216 9.417 23.282 21.682 31.932 36.069.221.377.806.13.689-.287-5.996-21.5-26.925-42.051-49.83-50.298 1.548-1.053 3.03-2.172 4.462-3.356.598-.494 1.196-1.001 1.769-1.509-.689-.741-1.405-1.483-2.12-2.198-10.926-11.082-24.362-19.445-38.813-25.311-5.125-2.081-10.614-4.019-16.285-5.619-5.54-1.574-11.264-2.81-17-3.525-5.736.716-11.459 1.951-17.013 3.525-5.671 1.6-11.16 3.537-16.285 5.619-13.553 5.502-26.209 13.189-36.732 23.269-.7.664-1.403 1.352-2.079 2.042z"/><path d="m210.183 180.841c-3.278-4.422-5.606-9.365-6.595-14.841-.221-1.223-.377-2.472-.469-3.746-.91.273-1.808.572-2.705.91-20.083 7.336-38.696 25.221-48.542 42.767-.117.221.182.481.364.273 8.506-9.691 17.13-18.535 27.562-26.196.755-.546 1.509-1.093 2.276-1.612.377-.261.754-.521 1.145-.755 5.463-3.668 11.199-6.725 16.948-9.807.143 6.907 2.536 13.631 6.959 18.6 1.079 1.223 2.276 2.328 3.603 3.304.949-1.573 1.964-3.121 3.03-4.617 4.071-5.762 8.897-10.964 14.451-15.296 8.545-6.66 17.858-10.458 27.796-12.864 9.924 2.406 19.237 6.218 27.782 12.864 5.555 4.331 10.38 9.534 14.451 15.296 1.067 1.496 2.081 3.044 3.031 4.617 1.326-.976 2.523-2.081 3.603-3.304 4.422-4.968 6.816-11.693 6.958-18.6 5.749 3.082 11.486 6.139 16.949 9.807.39.234.767.494 1.145.755.767.52 1.522 1.066 2.276 1.612 10.432 7.661 19.055 16.506 27.561 26.196.182.208.481-.052.364-.273-9.846-17.546-28.459-35.431-48.542-42.767-.898-.338-1.795-.637-2.705-.91-.091 1.275-.247 2.523-.468 3.746-.989 5.476-3.317 10.418-6.595 14.841-3.629-5.879-8.351-11.147-13.969-15.582-5.788-4.566-12.682-8.26-20.018-10.601-3.863-1.223-7.843-2.068-11.823-2.458-.013 0-.013 0-.013 0-3.98.39-7.96 1.235-11.824 2.458-7.336 2.341-14.23 6.035-20.017 10.601-5.618 4.435-10.34 9.703-13.969 15.582z"/><path d="m133.182 144.877c7.375-9.768 15.96-18.21 26.079-25.129 1.847-1.262 3.733-2.419 5.645-3.512 1.34-.767 2.692-1.496 4.058-2.198.221-1.04.507-2.094.884-3.174.417-1.184.885-2.354 1.379-3.486.807-1.834 1.704-3.59 2.693-5.32v-.013c3.291-1.365 6.634-2.666 10.029-3.824 12.123-4.098 24.518-6.53 36.94-9.404.377-.091.286-.663-.092-.663-12.72.117-25.662 3.057-37.72 6.907-1.99.638-3.98 1.301-5.983 1.99-2.068.716-4.136 1.483-6.191 2.276v.013c-1.184 1.652-2.224 3.434-3.082 5.333-.807 1.756-1.457 3.603-1.951 5.476-14.035 8.103-26.001 21.526-33.298 34.377-.222.403.337.702.61.351z"/><path d="m144.147 224.701c3.863 13.371 12.279 25.351 24.856 32.114 1.418.755 2.888 1.418 4.396 1.964 1.041.378 2.094.689 3.148.937 1.365.312 2.757.52 4.136.611 1.34.078 2.68.053 3.993-.13 1.092-.143 2.159-.377 3.212-.715 1.795-.56 3.538-1.431 5.177-2.628.221-.156.429-.325.638-.494 4.982-3.928 7.83-9.911 9.794-16.038 1.405 1.054 2.757 2.276 4.058 3.694.352.377 1.027-.026.871-.508-.871-2.757-2.197-4.994-3.875-6.815-.313-.339-.638-.664-.976-.976-4.345-4.02-10.588-5.685-17.079-6.465-2.536-.312-5.124-.481-7.648-.598-4.188-.209-8.234-.273-11.667-.599-7.739-.728-14.984-3.33-21.474-7.427-1.027-.624-2.029-1.314-3.018-2.029-.741-.533-1.456-1.092-2.172-1.664-7.492-6.035-11.433-13.775-15.27-22.359-.065-.13-.299-.065-.286.078.989 11.837 9.157 23.14 19.186 30.047zm42.272 9.222c5.554.767 10.861 2.224 15.634 5.384-1.587 3.538-3.486 6.894-6.061 9.703-1.483 1.6-3.187 3.031-5.19 4.214-.039.026-.092.052-.13.078-1.821 1.054-3.681 1.717-5.554 2.042.625-7.166 1.119-14.267 1.301-21.421zm-34.26-4.826c8.429 3.486 17.728 3.512 26.742 4.11.169 7.44.689 14.828 1.34 22.281-2.12-.234-4.228-.819-6.256-1.652-2.198-.91-4.318-2.107-6.282-3.473-.702-.494-1.379-1.001-2.042-1.522-7.193-5.684-13.046-13.137-17.104-21.448 1.196.637 2.393 1.21 3.602 1.704z"/><path d="m207.23 276.481c-6.334 6.581-14.086 11.55-21.501 16.844-7.375 5.268-15.621 9.365-24.322 11.927-9.73 2.861-19.485 3.329-29.539 3.304-3.434-.013-6.764-.104-10.029-.364-2.64-.208-5.242-.533-7.817-.988-.143 1.053-.26 2.12-.338 3.187-.13 1.769-.156 3.551-.078 5.332.117 2.9.494 5.645 1.144 8.234-7.076-2.666-13.527-7.037-18.236-12.5-8.467-9.781-11.316-22.866-12.135-35.704-.104-1.73-.169-3.459-.221-5.177-1.561.689-3.161 1.431-4.722 2.225-1.171.599-2.328 1.223-3.46 1.873-1.326-13.059-1.21-26.326.091-39.372 2.823-28.12 10.029-54.967 24.349-79.485.39-.663-.599-1.222-1.027-.598-15.57 23.113-27.094 50.193-30.501 77.963-1.73 14.126-1.743 28.355-.156 42.494.143 1.236.286 2.459.429 3.694.442 3.564.963 7.115 1.639 10.626 1.561-2.9 3.759-5.476 6.139-7.791.494-.494 1.015-.976 1.522-1.444-.585 13.618 4.24 27.405 13.891 37.46 6.894 7.179 15.739 11.628 24.947 12.63 2.237.247 4.487.286 6.751.104-.481-1.573-.897-3.173-1.262-4.773-.897-3.902-1.444-7.818-1.47-11.512 0-.481 0-.949.026-1.417 3.174 1.027 6.374 1.847 9.561 2.393 10.314 1.756 21.604.182 31.593-2.653 9.677-2.744 18.938-7.166 27.133-12.994 8.364-5.957 13.566-13.918 18.457-22.853.301-.535-.415-1.12-.858-.665z"/><path d="m179.422 315.307c-13.384 11.433-24.57 26.313-30.046 43.183-.988 3.043-1.873 6.217-2.627 9.495-3.499-2.134-6.985-4.254-10.289-6.673-.911-.677-1.821-1.365-2.706-2.094-.507-.416-1.001-.833-1.483-1.249-2.276.442-4.552.924-6.842 1.34-.923.182-1.833.338-2.757.481-1.717.273-3.421.455-5.112.598-2.641-1.977-5.216-4.058-7.544-6.491-6.126-6.412-10.614-13.566-14.477-21.487-.325-.663-1.223-.156-1.118.469 1.47 9.365 6.841 20.16 14.529 27.77 1.301 1.287 2.666 2.484 4.084 3.577 3.265.312 6.594.378 9.885.143 2.107-.143 4.201-.416 6.231-.833 4.708 4.839 10.275 8.689 16.362 10.718 2.212.741 4.487 1.235 6.816 1.431.195-1.275.416-2.549.65-3.811.741-3.915 1.717-7.778 2.849-11.603 4.93-16.584 12.279-31.685 24.154-44.405.351-.377-.169-.897-.559-.559z"/><path d="m88.009 240.062c4.058-19.471 10.744-38.292 19.979-55.904.767-1.457 1.548-2.888 2.367-4.306-2.861 23.686-.754 48.295 8.598 69.952.728 1.703 1.509 3.395 2.341 5.06.416-1.795.937-3.538 1.522-5.268.989-3.018 2.198-5.944 3.512-8.858 1.392 3.303 3.005 6.568 4.852 9.768 7.791 13.566 21.449 27.457 36.29 33.142.234.091.455-.286.26-.442-6.074-4.709-12.136-9.027-17.507-14.594-5.645-5.84-10.132-12.811-14.152-19.849-2.614-4.591-4.865-9.469-6.725-14.529-.65-1.742-1.262-3.512-1.821-5.293-1.405 1.586-2.614 3.342-3.655 5.19-1.287 2.263-2.302 4.696-3.096 7.218-2.94-12.2-5.424-24.466-6.256-37.07-.689-10.418-.741-20.941.013-31.399.3-4.071.716-8.129 1.275-12.162-1.054 1.483-2.055 2.992-3.031 4.514-3.42 5.294-6.503 10.783-9.287 16.285-9.222 18.262-14.633 38.084-16.141 58.453-.027.378.584.469.662.092z"/></g><path d="m178.901 233.209c.013.403.026.819.039 1.223-5.567-.325-11.186.416-16.454 2.289-2.107.741-4.24 1.743-5.801 3.304-3.187-3.85-5.932-8.116-8.129-12.63 1.196.637 2.393 1.209 3.603 1.703 8.428 3.487 17.728 3.512 26.742 4.111z" opacity=".3"/><path d="m202.054 239.309c-.377.846-.78 1.691-1.196 2.511-.053-.026-.092-.065-.143-.091-4.331-2.966-9.222-5.06-14.334-6.243.013-.521.026-1.041.039-1.561 5.553.767 10.86 2.224 15.634 5.384z" opacity=".3"/><path d="m325.58 233.924c.026.936.052 1.86.078 2.797-4.878 1.613-9.417 4.136-13.059 7.713-.988-1.626-1.86-3.356-2.653-5.125 4.774-3.16 10.081-4.617 15.634-5.385z" opacity=".3"/><path d="m363.443 227.395c-1.353 2.77-2.913 5.462-4.669 8.012-7.986-.911-16.038-1.678-23.998-.728-.572.065-1.157.156-1.73.234.026-.56.039-1.132.052-1.704 9.014-.599 18.313-.624 26.742-4.11 1.211-.495 2.407-1.067 3.603-1.704z" opacity=".3"/></g></svg>