<svg id="Layer_1" enable-background="new 0 0 300 300" viewBox="0 0 300 300" xmlns="http://www.w3.org/2000/svg"><g><g><path d="m40 81.1c-3.1.8-3.5 9.2-3.4 12.3 1.6-.5 3.7-.9 4.8-1.2 1.5-2.2 3.3-3.9 4.9-4.6-.3-1.3-3-7.4-6.3-6.5z" fill="#cd6228"/></g><g><path d="m118.4 200.4c-.3.7-.8.8-1.1.8l-2.5-.1c-.4.2-2.8 1.3-3.3 4.8-.1 1.1.9 1.9 1.9 2.4 3.6 2 11.6 2.8 15.4-.2 5-4 4.4-17.8 2-22.6s-6.4-24.2-6.9-27c-3.1.7-5.9 1.3-8.6 1.3-8.5.2-19.1-2.9-22.2-4.1 3.1 4.2 16.9 23.3 20.3 27.3 3.6 3.9 6.3 14.6 5 17.4z" fill="#cd6228"/></g><g><g><path d="m268.1 172s-4.4-7-9.6-11.9c-1.2-1.1-2.9-5.6-4.2-7.3-.4-.6-.9-1.8-1.2-2.4-.7-1.1.3 1-.7-.9 0 0-2.8-5.8-2.8-5.8s-2-3.7-2-3.7c-2.5-5.2-3.5-7.5-5.3-11.5 0 0 0 0-.1 0l-2.9-6-3-7.1c-.3 3.9-1.5 19-7.1 30.9-2.2 4.6-3.5 10.8-4.4 17.2 1.1.8 7.4 5.4 10.2 7l5.7 3.3 17.7 10.1c3.2 1.6 8.7 13.1 8.9 13.6v.1c0 .2.5 3.8-5.8 7-1.4.7-1.7 3.2-1.2 5.1.3 1.4 1 2.3 1.5 2.3.3 0 .7 0 1.4.1 3.3.3 12.2 1 16-2.3 1.1-.9 1.7-2.1 1.7-3.6.5-8.6-12.7-34-12.8-34.2z" fill="#cd6228"/></g></g><g><g><path d="m5.1 125.3v-.4c0 .1-.1.1-.1.2 0 0 .1.1.1.2z" fill="#d68128"/></g><g><g><path d="m152.6 112.8c-.5 6 .5 11.5 7.7 25.8 1-3.8 4.5-18 2.8-23.1-1.1-3.2-4.2-7.2-7.2-11.2-2.5-3.3-4.9-6.4-6-8.8.1.7.3 1.5.5 2.3 0 .3 2.7 8.8 2.2 15z" fill="#d68128"/></g></g><g><g><path d="m238.7 121.8 2.7 5.9c1.8 3.9 4.4 9.6 6.9 14.7 3.9-1.2 6.9-4.4 9-9.7-1.2-3.5-2.6-7.5-4.2-12.2l-1.5-4.5-2.6-7c-1.6 5.4-4.6 11.4-10.3 12.8z" fill="#f58020"/></g></g><g><g><path d="m266.6 164.1c5.5 2 11.7 1.5 16.9-1.5.2-3.8-1.5-8.2-3.1-11.4-2 1.2-4.5 1.7-8.1 1.8s0 0-.1 0l-3.5-.5c-.9 3.7-2.8 7-5.7 9.8z" fill="#f58020"/></g></g><g><g><path d="m248.6 143.1 2.4 4.9c1 1.9 1.8 3.4 2.5 4.5 2.5 4.1 5.4 7.3 8.9 9.5 2.9-2.7 4.8-5.9 5.7-9.6-2.8-1.3-5-4.6-7.8-11.6l-2.6-7c-2.2 4.8-5.3 8.1-9.1 9.3z" fill="#f58020"/></g></g></g><g><g><path d="m156.5 103.8c-2.7-3.5-5.3-6.8-6.1-9.3-.6-1.8-.8-2.1-1.3-2-.4.1-.6.2.5 5.3 0 .1 2.7 8.8 2.2 14.8-.5 6.3.6 12 8.2 27.1.1.1.2.2.3.2.2 0 .3-.1.3-.3.2-.7 5.1-18.4 3.1-24.5-1-3.2-4.2-7.3-7.2-11.3z" fill="none"/></g><g><path d="m216.5 89-.9-.2-7.8-1.1c-4.4-.5-9.1-.7-14-.8h-.7c-12.1-.1-22.4 1.1-22.5 1.1h-.1-.1l-.8.1-6.1.5-10.4.9c-6.9.6-13.2.7-19.3.3l-.8-.1-5.4-.5c-4.5-.5-8.7-1.3-13.2-2l-.9-.2c-1-.2-2.4-.3-4.1-.4h-1.3c-2.7-.1-6.1 0-10.2.1h-.9l-7.7.4c-5.8.3-12.6.8-20.2 1.4l-2.9.2-.9.1c-2.1.2-4.6.6-7.1 1-1.9.3-3.8.6-5.2.8h-.8c-.1-.1-.1-.2-.1-.3s0-.1 0-.1c-.2-.7-.4-1.2-.4-1.4-.7-1.4-1.7-2.2-3-2.4-.9-.1-1.8 0-2.8.4-1.6.7-3.2 2.1-4.8 4.4-.1.1-.1.1-.2.2-7.7 2-19.2 6.3-20.3 8.7-3.7 7.6-14 22.4-15.7 24.8v.4c.3.6 2.1 2.7 3.3 4.1 1.1.1 5.4-.1 8.7-2.9 3.8-3.2 11.9-1.6 18.5.2 6 1.6 19.1.3 22.8 0l4.7 11.6 2.1 2c0 7.9.2 14.8.2 14.9v.1c0 .1-2.5 6.4-5.7 13.3-2 4.2-4.9 9.7-7.1 12.9-6.2 8.7-6.6 12.8-7.1 21.8-.2 3.4.4 5.8 1.8 7.2 1.8 1.9 4.9 2.1 8.1 2.1 4.4 0 6.2-10.1 7-13.9.2-.9.3-1.5.4-1.8.6-1.7 4.8-7.9 12.4-15 1.7-1.6 3.9-3.9 6.3-6.7l6.2-7.5c4.1-5.2 7.3-9.6 7.5-9.8h.9c2 .9 11.4 4.6 20.6 4.3 3.7-.1 7.9-1.1 12.3-2.1.8-.2 1.6-.4 2.4-.5l9.4-1.6.9-.2c.3 0 .6-.1.9-.1 13.8-1.2 23.3-5.5 30.2-8.7 5-2.3 8.6-3.9 11.4-3.3 3.6.7 5.1 6.8 6.2 12.2l1 4.3c1 3.5 2.1 5.7 3.7 6.9.3.2.5.4.8.7l.5.6 3.7 4.6.9 1.5c.8 1.4 1.7 3 2.6 5l1.2 2.6.8 1.8c1.1 2.5 2.2 4.9 3.4 7 4.1 7.8 0 16.2 0 16.2-.1.2-.3.3-.5.2 0 0-2.5-.9-7.4 1.5-1.9 1-2.3 2.5-1.2 4.8.9 1.9 3 3.2 5.3 3.2h10.6c4.3 0 5.7-2.7 5.8-2.9 0-.1 4.6-8.8 5.1-17.3.3-5.7-.9-8.2-1.7-10.1-.5-1-.8-1.8-.8-2.7 0-.2 0-.7 0-1.2-.1-1.6-.1-4.2-.1-7.5l.5-8.7c.8-8.6 2.6-15.9 5.3-21.6 7.1-15 7.1-27.5 7.1-27.7s.1-.3.3-.4c.2 0 .4.1.4.2l.8 1.8c5.7-1.3 8.7-7.9 10.2-13.2-4.5-9-15.3-15.4-32-18.5z" fill="#f58020"/></g></g><g><path d="m31 105.6c-.1-.2-.3-.3-.5-.4-2.5-.5-4.6-.2-6.3.9-2.5 1.7-3 4.6-3.1 4.7 0 .2 0 .5.2.6.1.2.4.3.6.3 7.3-.1 9.1-5.3 9.2-5.5s.1-.4-.1-.6z" fill="#68401c"/></g><g><path d="m48.3 99.4s.6-6.1-1.2-7.4c-1.7-1.3-2.1 1-2.1 1l-.8 1.7z"/></g><g><path d="m43.9 94.4s1.1-4.2 3.5-2.8 1.3 9.1 1.3 9.1z" fill="#a66427"/></g><g><path d="m75.5 94.6c-2.6-1.1-4.5-3.6-5.9-6.1-.2 0-.5.1-.7.1l-3.1.2c2.4 3.2 6.8 8 11.7 10.1 6.8 2.9 9.2 6.7 9.8 7.8-.9-1.6-5.1-9.3-11.8-12.1z" fill="#684532"/></g><g><path d="m75.5 166.5c-5.4-3.6-9.5 1.9-9.5 1.9s4.9-2.5 9.5 3.2c1.5 1.9 3.6 3.1 5.7 3.8l5.8-7.1s.1-.1.1-.1c-3.8.4-8.6.3-11.6-1.7z" fill="#684532"/></g><g><path d="m115.1 103.6s-2.7 14.7 0 26 2.7 11.3 2.7 11.3l3.1 6.2s1.9-8.8 0-12.3-1.9-3.5-1.9-3.5-2.1-9.6-.9-23.5c1.3-13.8-8-19-8-19s3.5 4.4 4.2 9.6c.8 5.2.8 5.2.8 5.2z" fill="#684532"/></g><g><path d="m102.4 97.1s-1.4-4.6-4.8-10.4l-8 .4c1.5 2.5 3.8 6.1 6.6 10 5.8 8 2.3 33.4-4.4 39.2 0 0 15.6-9.9 10.6-39.2z" fill="#684532"/></g><g><path d="m203.3 110.9c-1.6-6.6-6.1-17.1-9.2-24h-1.7c.9 3.6 2.2 8.8 4.2 15.9 4.5 15.6 5 41.5-6.5 54.4l1 4.4c3.3-4.6 6.3-9 8.4-12.5 5.3-9.1 6.3-27.8 3.8-38.2z" fill="#684532"/></g><g><path d="m214.2 176.7c-4 1.3-7.6 3.4-10.5 5.3l1.2 2.5c1.9-1.3 4-2.7 7.2-3.2 6.2-1 10-2.6 11.9-3.7l.5-8.3c-1.7 2-5.2 5.7-10.3 7.4z" fill="#684532"/></g><g><path d="" fill="#d74971"/></g><g><path d="m202.9 164.5c-3.7 2.3-5.7 4.1-6.9 5.7l3.8 4.7c.1-1.5 1.7-4.1 8.8-10.4 0 0 7.2-5.3 7.2-13.2-.1 0-4.7 8-12.9 13.2z" fill="#684532"/></g><g><path d="m218.7 94.6c-.9-1.9-1.8-4-2.5-5.6l-8-1.1c1.8 3.7 4.5 8.5 7.5 12.5 6.7 8.7 0 35.9 0 35.9s15.2-15.7 3-41.7z" fill="#684532"/></g><g><path d="" fill="#d74971"/></g><g><path d="m136 97.7c-1.3-2.6-2.1-5.6-2.5-8l-5.8-.6c.4 3.5 1.1 7.4 1.8 8.5 1.6 2.6 5.7 12.4 8.8 25.7 0 .1 2-17-2.3-25.6z" fill="#684532"/></g><g><path d="m133.5 129.6s-.3 3.6 1.7 10.3c1.4 4.6-1.8 14.5-4 20.3l9.1-1.5c.1 0 .1-.1.2-.1h.4c1.4-4.1 2.4-9.5.5-14.3-3.6-9.1-7.9-14.7-7.9-14.7z" fill="#684532"/></g><g><path d="m172.6 98.4c-1.5-3.4-2.2-7.2-2.5-10.3l-6.4.5c.4 4.3 1.8 9.9 5.4 14.6 6.2 8.1 7.1 11.6 7.2 12.7-.1-1.8-.5-10.2-3.7-17.5z" fill="#684532"/></g><g><g><path d="m149.9 94.6c-1.9-5.2 0 3.1 0 3.1s2.7 8.8 2.2 14.9c-.5 6.2.5 11.7 8.2 26.9 0 0 5.1-18.2 3.1-24.3s-11.6-15.4-13.5-20.6zm9 32s-2.2-6.5-2.4-9.1c-.3-2.6 0-6.3 0-6.3s1.4 1.2 2.4 4.4c1.1 3.2 0 11 0 11z" fill="#684532"/></g></g><g><path d="m247.9 106.5s.9 1.3 1.5 3.6c0 0 .1 9-2.8 11.2s-5.6 5.4-5.6 5.4l-2.7-5.9s1.8-.3 3.7-2 4.7-4.3 5.9-12.3z" fill="#684532"/></g><g><path d="m247.2 140.3 1.8 3.7s3.8-1.1 5.2-2.6c1.4-1.6 3.9-6 3.9-6l-1.6-4.4s-.8 6-6.7 8.1z" fill="#684532"/></g><g><path d="m260.9 160.9s1.6 1.4 3.5 2.1c0 0 3.2-1.2 4.5-4.2s.8-6.2.8-6.2-3-1-3.8-1.8-.9-1.1-.9-1.1l.1.3s.4 4.8-.9 6.3c-1.4 1.5-3.3 4.6-3.3 4.6z" fill="#684532"/></g><g><g><path d="m294.6 140.1c-3.4-1-4.9.3-7.1 2s-2.6 1.9-2.6 1.9c0 .3-.1.6-.2 1-.3 1.3-.8 2.4-1.4 3.3l-2.4 2.4c1.6 3.1 3.3 7.4 3.2 11.3l3.6-2.7c3.8-3.6 6.2-8.3 7-13.7.4-1.9.3-3.8-.1-5.5z" fill="#f58020"/></g><g><path d="m284.6 141.4c2.3-2.2 5.3-3.5 8.8-4l-1.4-1.8c-1.2-1.6-2.7-2.9-4.4-3.9-4.2-2.2-8.8-2.6-10.1-1.7-1.4.9-2.3 1.7-2.3 2.4s.7 1.7 2.4 3.1c1 .9 2.2 1.5 3.3 2.1.3.2.6.3.8.5-.1 0 2.3 1.5 2.9 3.3" fill="#684532"/></g><g><path d="m287.5 142.1c2.2-1.7 3.7-3 7.1-2-.2-.7-.5-1.9-1.2-2.8-3.6.5-6.6 1.7-8.9 3.9.6 1 .5 2.1.4 2.7.1.1.4-.1 2.6-1.8z" fill="#684532"/></g></g><g><path d="m284.2 150.1c-1.3-1.2-1.8-.9-1.8-.9s-.4.9-3.1 2.5c0 0 2.6 3.7 2.9 5.8s.3 2.1.3 2.1l-.1 3.5c3.1-1.9 4.6-3.3 4.6-3.3s-1.5-8.5-2.8-9.7z" fill="#684532"/></g><g><path d="m29.2 95.5s4.5.8 6 6.6c0 0 2.5-4.9-.7-8.6z" fill="#684532"/></g><g><path d="m43 106.1s-3.4-1.5-4.2 1.3c-.5 1.9-2.9 5.2-1.7 7.2s1.8 7.8 0 10.4c0 0 3.9-4 3.6-4.6-.2-.6.6-4.9-.3-6.4s2.7-5.5 2.6-7.9z" fill="#684532"/></g><g><path d="m66.1 128.2s1.5 10.9 5.8 12.8c4.2 1.9 5.5 1.4 10.6 5.6s7 4 7 4-2.9 1.9-9.5-1.5c-6.5-3.5-7.7-1.7-10.6-2.6s-4.2-3.7-4.2-3.7-.5-11.2.9-14.6z" fill="#684532"/></g><g><path d="m68.3 122.6c-2.1-1.2-3.6-.9-3.6-.9-3.7.3-25.9 2.1-31.9.5-6.5-1.8-12.8.4-16.7 3.6-3.4 2.8-7.7 2.8-8.7 2.7.9 1.1 2.1 2.3 3.6 3.6.1.1.5.2 1 .3s3.7 1.2 6.1-.8 8.6-6.1 11.5-3.8c2.9 2.4 3.3 2.5 1.5 4s-8.3 10.5-8.3 10.5c.9.9 2.3 1.6 4.2 1.6 3.5 0 5.3-2.4 7.1-4.9 1.6-2.2 3.2-4.5 6.1-5.4 2.2-.7 4.2-1.7 6.1-2.6.6-.3 1.3-.6 1.9-.9h.2c.9.1 1.5.3 2.1.5 6.1 2 12.9 8.1 14.8 10 0-.8 0-1.6 0-2.5.1-1.9.1-4.8.1-6.2-.1-2.5 2.9-9.3 2.9-9.3z" fill="#edded1"/></g><g><g><path d="m23.9 134.9.5 1.4h.1c2.7-2.9 5.2-4.7 6.1-5.3.1-.1.2-.2.2-.4-.2-.9-.7-1.7-1.6-2.2-1.6-.9-4.9.3-6.8 1.1l2.6 3.2z" fill="none"/></g><g><path d="m29.8 127c-2.9-2.4-9.4.9-11.7 2.9-2.4 2-6.1 2.3-6.1 2.3 1.5.5 4.3 1 6.4-.3 0 0 .1-.1.1-.1l1.9-.8 1.8-1.6c2-.9 5.4-2.1 7-1.2.8.5 1.4 1.2 1.6 2.2 0 .2 0 .3-.2.4-.9.7-3.4 2.5-6.1 5.3 0 0-.1.1-.2.1l-1.2.9-.8 1.3c-.8.9-1.1 1.3-1.2 1.5.3.5.8 1.3 1.5 2.1 0 0 7-8.2 8.8-9.7 1.9-1.3 1.3-2.9-1.6-5.3z" fill="#684532"/></g><g><path d="m22.2 129.6-3.7 2.4h.3l4.8 2.4z" fill="#684532"/></g><g><path d="m24.4 136.3c-.1 0-.1 0-.2 0l-2.8-.3 1 2.1c.1.1 0 .3-.1.4z" fill="#684532"/></g></g></g></svg>