<?xml version="1.0" encoding="iso-8859-1"?>
<!-- Generator: Adobe Illustrator 19.0.0, SVG Export Plug-In . SVG Version: 6.00 Build 0)  -->
<svg version="1.1" id="Capa_1" xmlns="http://www.w3.org/2000/svg" xmlns:xlink="http://www.w3.org/1999/xlink" x="0px" y="0px"
	 viewBox="0 0 504.12 504.12" style="enable-background:new 0 0 504.12 504.12;" xml:space="preserve">
<path style="fill:#B0BFC1;" d="M413.732,253.367L239.715,152.866c-7.259-4.183-13.84-4.592-18.656-1.898l0,0l-0.067,0.039
	c-0.059,0.024-0.122,0.055-0.177,0.091L71.744,237.172L282.12,502.857l150.075-86.583c0.232-0.114,0.441-0.244,0.662-0.378
	l0.134-0.079v-0.016c4.557-2.883,7.381-8.7,7.381-16.9v-99.379C440.376,282.599,428.383,261.823,413.732,253.367z M239.715,313.791
	c-14.659-8.46-26.652,67.194-26.652,50.278v-54.126l51.338,29.645c14.663,8.452,26.656,29.231,26.656,46.155v-42.291
	L239.715,313.791z"/>
<path style="fill:#A0B5B5;" d="M71.747,237.176l210.377,265.685l150.075-86.583c0.232-0.114,0.441-0.244,0.662-0.378l0.134-0.079
	v-0.016c4.557-2.883,7.381-8.7,7.381-16.9v-99.383c0-16.924-11.997-37.699-26.648-46.155 M291.057,343.452l-51.342-29.661
	c-14.659-8.46-26.652,67.194-26.652,50.278v-54.126l51.338,29.645c14.663,8.452,26.656,29.231,26.656,46.155L291.057,343.452
	L291.057,343.452z"/>
<polygon style="opacity:0.3;fill:#B0BFC1;enable-background:new    ;" points="306.771,451.059 161.123,421.638 161.123,230.359 
	306.771,230.359 "/>
<path style="fill:#889999;" d="M436.638,281.945l-149.319,86.229c2.316,5.892,3.738,11.93,3.738,17.569l-38.68,32.654l29.747,84.46
	l150.075-86.583c0.232-0.114,0.441-0.244,0.662-0.378l0.134-0.079v-0.016c4.557-2.883,7.381-8.7,7.381-16.9v-99.379
	C440.376,293.89,438.95,287.837,436.638,281.945z"/>
<path style="fill:#8D9FA0;" d="M436.638,281.945l-149.319,86.229c2.316,5.892,3.738,11.93,3.738,17.569l149.319-86.225
	C440.376,293.89,438.95,287.837,436.638,281.945z"/>
<path style="fill:#BCC9CC;" d="M264.405,339.592L90.396,239.091c-14.655-8.452-26.652-1.54-26.652,15.384v99.375
	c0,16.924,11.997,37.699,26.652,46.171l174.009,100.486c14.663,8.468,26.656,1.54,26.656-15.384v-99.379
	C291.057,368.82,279.064,348.044,264.405,339.592z"/>
<path style="fill:#AABABC;" d="M264.405,500.506c14.663,8.468,26.656,1.54,26.656-15.384v-99.379
	c0-16.924-11.993-37.699-26.656-46.155L90.396,239.091c-14.655-8.452-26.652-1.54-26.652,15.384"/>
<path style="fill:#B0BFC1;" d="M291.057,385.743c0-16.924-11.993-37.699-26.656-46.155L90.396,239.091
	c-14.655-8.452-26.652-1.54-26.652,15.384"/>
<polygon style="fill:#748786;" points="286.256,317.237 324.9,294.922 170.327,205.684 131.679,227.992 "/>
<polygon style="fill:#596868;" points="170.756,205.929 170.327,205.684 131.679,227.992 170.756,250.551 "/>
<polygon style="fill:#748786;" points="344.037,283.891 382.681,261.583 228.108,172.338 189.456,194.645 "/>
<polygon style="fill:#596868;" points="228.538,172.582 228.108,172.338 189.456,194.645 228.538,217.204 "/>
<path style="fill:#E09736;" d="M216.029,11.975l16.648-9.968l0.004,0.079c7.467-4.962,20.673-0.599,35.761,8.117
	c12.513,7.215,23.717,15.955,31.425,26.447c7.735-1.583,18.936,2.623,31.449,9.854c23.284,13.438,42.11,31.968,42.039,57.624
	c-0.039,11.477-3.848,19.747-10.114,24.269l-0.193,65.662c-0.032,11.331,2.958,22.938,0.425,26.707l0.012,0.016l-0.035,0.031
	c-0.453,0.662-1.107,1.056-1.965,1.17l-15.529,9.314l-2.576-17.491v-0.654l-99.545-57.47c-7.652-4.423-9.468-9.2-9.444-15.155
	c0.024-5.431,1.56-11.839,1.579-19.838l0.189-65.67c-6.231-11.733-9.98-24.371-9.945-35.848c0.004-1.091,0.083-2.076,0.161-3.068
	h-1.418L216.029,11.975z"/>
<path style="fill:#E0A444;" d="M226.375,16.107h-1.418l-8.928-4.131l16.648-9.968l0.004,0.079
	c7.467-4.962,20.673-0.599,35.761,8.117c12.493,7.207,23.69,15.931,31.39,26.407l-16.648,9.976l-32.059-6.286l4.021-9.937
	l-28.802-7.696c-0.071-1.178-0.134-2.339-0.13-3.493C226.218,18.084,226.297,17.099,226.375,16.107z"/>
<path style="fill:#CE8024;" d="M314.581,176.977c-0.004-11.347,8.027-25.246,17.849-30.917l31.228-18.022
	c-0.146,0.106-0.272,0.244-0.421,0.354l-0.189,65.666c-0.032,11.331,2.958,22.938,0.425,26.707l0.012,0.016l-0.035,0.031
	c-0.453,0.662-1.107,1.056-1.965,1.17l-15.529,9.314l-2.576-17.491v-0.654l-28.798-16.624V176.977z"/>
<g style="enable-background:new    ;">
	<path style="fill:#B56F1C;" d="M315.55,55.806c23.28,13.446,42.106,31.976,42.035,57.632c-0.035,11.469-3.852,19.747-10.11,24.269
		l-0.193,65.662c-0.043,16.786,6.597,34.253-8.042,25.817L228.073,165c-7.656-4.423-9.472-9.208-9.444-15.163
		c-0.028,5.955,1.788,10.74,9.444,15.163l6.101-7.617c1.071,1.284,2.458,2.454,4.218,3.462l90.589,52.307
		c11.93,6.892,6.534-12.946,6.573-26.656l0.15-53.5c5.12-3.663,8.212-10.437,8.239-19.775c0.059-20.909-15.293-36.017-34.245-46.962
		c-0.579-0.339-1.158-0.67-1.733-0.985L315.55,55.806"/>
	<path style="fill:#C47E22;" d="M252.673,19.498c12.516,7.231,23.725,15.97,31.425,26.455c7.727-1.575,18.936,2.623,31.449,9.854
		l-7.589,9.468c-9.5-5.285-17.975-8.279-23.899-7.054c-6.274-8.539-15.411-15.655-25.616-21.547
		c-18.956-10.945-34.343-13.592-34.402,7.322c-0.024,9.338,3.044,19.669,8.101,29.208l-0.15,53.5
		c-0.02,6.538-1.276,13.032-1.296,18.786c-0.016,4.537,0.736,8.617,3.478,11.894L228.073,165c-7.656-4.423-9.472-9.208-9.444-15.163
		c0.016-5.431,1.56-11.831,1.579-19.838l0.185-65.67c-6.227-11.733-9.972-24.371-9.941-35.848
		C210.523,2.83,229.412,6.075,252.673,19.498"/>
	<path style="fill:#F2E5A2;" d="M282.199,173.531c-3.308-1.898-5.986-6.53-5.963-10.362c0.004-3.801,2.694-5.36,6.002-3.446
		c3.328,1.922,5.994,6.569,5.99,10.37C288.217,173.921,285.527,175.445,282.199,173.531 M314.892,174.445
		c-2.123-1.225-3.805-4.163-3.801-6.577c0.008-2.399,1.705-3.391,3.82-2.17c2.099,1.217,3.777,4.139,3.773,6.561
		C318.677,174.669,316.98,175.654,314.892,174.445 M297.929,146.659c-1.772-1.024-3.218-3.493-3.21-5.537
		c0.004-2.032,1.457-2.832,3.23-1.808c1.749,1.008,3.194,3.486,3.19,5.522C301.131,146.875,299.682,147.667,297.929,146.659
		 M279.529,131.783c-0.847-0.484-1.512-1.646-1.512-2.584c0-0.977,0.673-1.355,1.52-0.87c0.819,0.477,1.489,1.631,1.485,2.599
		C281.022,131.874,280.348,132.26,279.529,131.783 M319.981,141.905c-1.768-1.024-3.19-3.517-3.186-5.522
		c0-2.04,1.434-2.875,3.202-1.855c1.776,1.024,3.194,3.509,3.19,5.553C323.191,142.09,321.757,142.929,319.981,141.905
		 M300.407,120.921c-1.343-0.768-2.395-2.623-2.391-4.139c0-1.54,1.067-2.146,2.406-1.371c1.315,0.752,2.395,2.599,2.387,4.139
		C302.805,121.067,301.718,121.689,300.407,120.921 M312.852,115.198c-3.332-1.93-6.002-6.554-5.99-10.346
		c0.012-3.824,2.702-5.368,6.03-3.438c3.3,1.906,5.994,6.546,5.99,10.378C318.866,115.584,316.153,117.097,312.852,115.198
		 M326.121,100.299c-1.347-0.776-2.395-2.631-2.387-4.155c0.004-1.532,1.067-2.139,2.402-1.371c1.319,0.768,2.395,2.607,2.391,4.147
		C328.523,100.437,327.44,101.051,326.121,100.299 M309.698,66.259l-71.306,94.586c-6.25-3.6-7.715-9.031-7.696-15.352
		c-0.016,4.537,0.736,8.617,3.478,11.894c1.071,1.284,2.458,2.454,4.218,3.462l90.589,52.303c11.93,6.892,6.534-12.946,6.573-26.656
		l0.15-53.5c5.12-3.663,8.212-10.437,8.239-19.775C344.002,92.312,328.649,77.208,309.698,66.259"/>
	<path style="fill:#FFF5CA;" d="M246.694,110.992c-0.819-0.477-1.485-1.631-1.481-2.576c0-0.969,0.67-1.355,1.497-0.878
		c0.839,0.484,1.512,1.646,1.504,2.607C248.206,111.091,247.545,111.476,246.694,110.992 M259.742,105.644
		c-1.768-1.032-3.194-3.525-3.186-5.561c0.004-2.009,1.434-2.855,3.21-1.824c1.768,1.024,3.19,3.509,3.19,5.522
		C262.952,105.821,261.51,106.652,259.742,105.644 M265.543,75.92c-1.319-0.76-2.391-2.631-2.387-4.139
		c0.004-1.548,1.083-2.139,2.402-1.378c1.319,0.76,2.399,2.615,2.395,4.147C267.946,76.058,266.863,76.684,265.543,75.92
		 M243.134,62.159c-3.312-1.914-6.006-6.554-5.99-10.346c0.008-3.832,2.714-5.352,6.022-3.438c3.308,1.906,6.002,6.546,5.99,10.378
		C249.148,62.553,246.442,64.069,243.134,62.159 M258.446,36.673c-18.956-10.945-34.343-13.592-34.402,7.322
		c-0.024,9.338,3.044,19.669,8.101,29.208l-0.15,53.5c-0.02,6.538-1.276,13.032-1.296,18.786c-0.02,6.321,1.445,11.752,7.696,15.352
		l71.302-94.586c-0.579-0.339-1.158-0.67-1.733-0.985c-9.5-5.285-17.975-8.279-23.899-7.054
		C277.788,49.682,268.651,42.569,258.446,36.673"/>
	<g>
		<path style="fill:#E2CE8D;" d="M312.892,101.414c3.3,1.906,5.994,6.546,5.99,10.378c-0.016,3.793-2.725,5.309-6.03,3.407
			c-3.332-1.93-6.002-6.554-5.99-10.346C306.874,101.028,309.564,99.484,312.892,101.414"/>
		<path style="fill:#E2CE8D;" d="M282.243,159.723c3.328,1.922,5.994,6.569,5.99,10.37c-0.016,3.832-2.706,5.352-6.03,3.438
			c-3.308-1.898-5.986-6.53-5.963-10.362C276.244,159.368,278.93,157.805,282.243,159.723"/>
	</g>
	<path style="fill:#F2E5A2;" d="M243.169,48.374c3.308,1.906,6.002,6.546,5.99,10.378c-0.016,3.801-2.718,5.317-6.026,3.407
		c-3.312-1.914-6.006-6.554-5.99-10.346C237.155,47.985,239.861,46.46,243.169,48.374"/>
	<g>
		<path style="fill:#E2CE8D;" d="M314.912,165.697c2.099,1.217,3.777,4.139,3.773,6.561c-0.008,2.406-1.705,3.391-3.793,2.186
			c-2.123-1.225-3.805-4.163-3.801-6.577C311.1,165.469,312.797,164.476,314.912,165.697"/>
		<path style="fill:#E2CE8D;" d="M320.001,134.528c1.776,1.024,3.194,3.509,3.19,5.553c0,2.009-1.43,2.848-3.206,1.824
			c-1.768-1.024-3.19-3.517-3.186-5.522C316.799,134.343,318.232,133.504,320.001,134.528"/>
		<path style="fill:#E2CE8D;" d="M297.949,139.314c1.749,1.008,3.194,3.486,3.19,5.522c-0.008,2.04-1.457,2.832-3.206,1.824
			c-1.772-1.024-3.218-3.493-3.21-5.537C294.723,139.089,296.177,138.29,297.949,139.314"/>
	</g>
	<path style="fill:#F2E5A2;" d="M259.77,98.259c1.768,1.024,3.19,3.509,3.19,5.522c-0.008,2.04-1.445,2.871-3.214,1.863
		c-1.768-1.032-3.194-3.525-3.186-5.561C256.564,98.074,257.993,97.231,259.77,98.259"/>
	<g>
		<path style="fill:#E2CE8D;" d="M326.137,94.773c1.319,0.768,2.395,2.607,2.391,4.147c-0.004,1.516-1.087,2.131-2.406,1.378
			c-1.347-0.776-2.395-2.631-2.387-4.155C323.734,94.612,324.798,94.005,326.137,94.773"/>
		<path style="fill:#E2CE8D;" d="M300.422,115.415c1.315,0.752,2.395,2.599,2.387,4.139c-0.008,1.516-1.091,2.139-2.402,1.371
			c-1.343-0.768-2.395-2.623-2.391-4.139C298.016,115.246,299.079,114.635,300.422,115.415"/>
	</g>
	<path style="fill:#F2E5A2;" d="M265.559,70.406c1.319,0.76,2.399,2.615,2.395,4.147c-0.008,1.508-1.091,2.131-2.41,1.371
		c-1.319-0.76-2.391-2.631-2.387-4.139C263.157,70.237,264.24,69.646,265.559,70.406"/>
	<path style="fill:#E2CE8D;" d="M279.537,128.329c0.819,0.477,1.489,1.631,1.485,2.599c0,0.945-0.673,1.331-1.493,0.855
		c-0.847-0.484-1.512-1.646-1.512-2.584C278.017,128.223,278.69,127.845,279.537,128.329"/>
	<path style="fill:#F2E5A2;" d="M246.71,107.538c0.839,0.484,1.512,1.646,1.505,2.607c-0.004,0.945-0.67,1.331-1.52,0.847
		c-0.819-0.477-1.485-1.631-1.481-2.576C245.213,107.444,245.883,107.061,246.71,107.538"/>
</g>
<path style="fill:#E09736;" d="M158.524,92.489l16.648-9.968l0.004,0.079c7.467-4.962,20.669-0.599,35.761,8.117
	c12.509,7.215,23.717,15.955,31.425,26.447c7.735-1.583,18.936,2.623,31.453,9.854c23.276,13.438,42.106,31.976,42.035,57.624
	c-0.039,11.477-3.848,19.755-10.11,24.269l-0.193,65.67c-0.032,11.331,2.958,22.938,0.421,26.707l0.016,0.016l-0.035,0.032
	c-0.453,0.662-1.103,1.055-1.961,1.17l-15.533,9.314l-2.576-17.491v-0.654l-99.541-57.462c-7.656-4.431-9.468-9.208-9.44-15.163
	c0.016-5.431,1.556-11.839,1.579-19.838l0.185-65.67c-6.231-11.733-9.98-24.371-9.945-35.848c0.004-1.091,0.083-2.068,0.165-3.06
	h-1.422L158.524,92.489z"/>
<path style="fill:#E0A444;" d="M168.874,96.628h-1.422l-8.928-4.139l16.648-9.968l0.004,0.079
	c7.467-4.962,20.669-0.599,35.761,8.117c12.493,7.207,23.69,15.931,31.39,26.407l-16.644,9.976l-32.063-6.278l4.021-9.945
	l-28.802-7.692c-0.063-1.178-0.13-2.339-0.126-3.493C168.712,98.598,168.791,97.621,168.874,96.628z"/>
<path style="fill:#CE8024;" d="M257.076,257.491c-0.004-11.347,8.027-25.246,17.849-30.917l31.224-18.022
	c-0.142,0.106-0.272,0.244-0.414,0.354l-0.193,65.67c-0.032,11.331,2.958,22.938,0.421,26.707l0.016,0.016l-0.035,0.032
	c-0.453,0.662-1.103,1.055-1.961,1.17l-15.533,9.314l-2.576-17.491v-0.654l-28.798-16.624L257.076,257.491L257.076,257.491z"/>
<g style="enable-background:new    ;">
	<path style="fill:#B56F1C;" d="M258.049,136.328c23.28,13.438,42.106,31.961,42.031,57.624
		c-0.032,11.477-3.848,19.747-10.106,24.269l-0.197,65.662c-0.043,16.786,6.597,34.261-8.042,25.809l-111.163-64.177
		c-7.656-4.423-9.472-9.208-9.444-15.163c-0.028,5.955,1.788,10.74,9.444,15.163l6.101-7.617c1.075,1.292,2.454,2.454,4.218,3.47
		l90.589,52.307c11.93,6.884,6.53-12.954,6.573-26.663l0.15-53.5c5.12-3.663,8.212-10.437,8.239-19.775
		c0.059-20.909-15.293-36.017-34.245-46.962c-0.579-0.339-1.158-0.67-1.733-0.985L258.049,136.328"/>
	<path style="fill:#C47E22;" d="M195.171,100.02c12.516,7.223,23.725,15.963,31.425,26.447c7.727-1.575,18.94,2.623,31.449,9.862
		l-7.589,9.46c-9.5-5.285-17.971-8.279-23.899-7.046c-6.274-8.546-15.411-15.663-25.616-21.555
		c-18.956-10.945-34.339-13.592-34.402,7.322c-0.024,9.338,3.044,19.669,8.101,29.215l-0.146,53.492
		c-0.024,6.538-1.28,13.04-1.3,18.786c-0.016,4.537,0.74,8.617,3.478,11.894l-6.101,7.617c-7.656-4.423-9.472-9.208-9.444-15.163
		c0.02-5.431,1.56-11.831,1.579-19.838l0.185-65.662c-6.227-11.737-9.972-24.375-9.941-35.856
		C153.022,83.344,171.906,86.589,195.171,100.02"/>
	<path style="fill:#F2E5A2;" d="M224.698,254.045c-3.308-1.898-5.986-6.53-5.967-10.354c0.008-3.808,2.698-5.368,6.006-3.454
		c3.328,1.922,5.994,6.577,5.99,10.378C230.712,254.439,228.022,255.967,224.698,254.045 M257.391,254.959
		c-2.119-1.225-3.801-4.155-3.801-6.569c0.008-2.406,1.705-3.391,3.82-2.178c2.103,1.217,3.777,4.139,3.777,6.561
		C261.172,255.183,259.478,256.168,257.391,254.959 M240.428,227.177c-1.772-1.024-3.218-3.493-3.21-5.537
		c0.004-2.032,1.457-2.832,3.23-1.808c1.749,1.008,3.194,3.486,3.19,5.514C243.626,227.389,242.177,228.185,240.428,227.177
		 M222.023,212.297c-0.847-0.484-1.512-1.646-1.508-2.584c0-0.969,0.666-1.355,1.516-0.87c0.823,0.477,1.489,1.631,1.485,2.599
		C223.516,212.392,222.843,212.774,222.023,212.297 M262.479,222.423c-1.768-1.024-3.19-3.517-3.19-5.514
		c0.004-2.048,1.438-2.883,3.21-1.863c1.772,1.02,3.19,3.509,3.19,5.553C265.685,222.604,264.256,223.443,262.479,222.423
		 M242.905,201.435c-1.343-0.76-2.395-2.623-2.391-4.139c0-1.54,1.063-2.146,2.406-1.371c1.315,0.76,2.395,2.599,2.387,4.139
		C245.304,201.592,244.221,202.207,242.905,201.435 M255.347,195.712c-3.332-1.922-5.998-6.546-5.99-10.346
		c0.008-3.824,2.702-5.36,6.03-3.438c3.3,1.906,5.994,6.546,5.986,10.378C261.361,196.098,258.655,197.615,255.347,195.712
		 M268.615,180.813c-1.347-0.776-2.395-2.631-2.387-4.155c0-1.532,1.067-2.139,2.402-1.363c1.319,0.76,2.395,2.599,2.391,4.139
		C271.018,180.951,269.935,181.569,268.615,180.813 M252.192,146.777l-71.302,94.59c-6.25-3.608-7.715-9.039-7.696-15.36
		c-0.016,4.537,0.74,8.617,3.478,11.894c1.075,1.292,2.454,2.454,4.218,3.47l90.589,52.303c11.93,6.884,6.53-12.954,6.573-26.663
		l0.15-53.5c5.12-3.663,8.212-10.437,8.239-19.775C286.496,172.83,271.148,157.722,252.192,146.777"/>
	<path style="fill:#FFF5CA;" d="M189.188,191.506c-0.823-0.477-1.485-1.631-1.481-2.576c0-0.969,0.67-1.355,1.497-0.878
		c0.839,0.484,1.512,1.646,1.505,2.615C190.705,191.612,190.039,191.99,189.188,191.506 M202.241,186.154
		c-1.772-1.024-3.19-3.517-3.186-5.553c0.004-2.009,1.434-2.848,3.21-1.824c1.768,1.024,3.194,3.509,3.186,5.522
		C205.446,186.335,204.013,187.174,202.241,186.154 M208.038,156.446c-1.319-0.768-2.391-2.639-2.387-4.147
		c0.008-1.548,1.087-2.139,2.406-1.378c1.315,0.76,2.399,2.615,2.391,4.147C210.444,156.576,209.357,157.198,208.038,156.446
		 M185.632,142.677c-3.312-1.906-6.006-6.554-5.99-10.346c0.008-3.832,2.714-5.344,6.026-3.438c3.304,1.906,5.998,6.546,5.99,10.378
		C191.642,143.067,188.94,144.583,185.632,142.677 M200.945,117.191c-18.956-10.945-34.339-13.592-34.402,7.322
		c-0.024,9.338,3.044,19.669,8.101,29.215l-0.146,53.492c-0.024,6.538-1.28,13.04-1.3,18.786c-0.02,6.321,1.445,11.752,7.696,15.36
		l71.302-94.594c-0.579-0.339-1.158-0.67-1.733-0.985c-9.5-5.285-17.971-8.279-23.899-7.046
		C220.287,130.2,211.145,123.083,200.945,117.191"/>
	<g>
		<path style="fill:#E2CE8D;" d="M255.39,181.928c3.3,1.906,5.994,6.546,5.986,10.378c-0.012,3.793-2.718,5.309-6.026,3.407
			c-3.332-1.922-5.998-6.546-5.99-10.346C249.364,181.546,252.058,180.006,255.39,181.928"/>
		<path style="fill:#E2CE8D;" d="M224.737,240.237c3.328,1.922,5.994,6.577,5.99,10.378c-0.016,3.824-2.706,5.352-6.03,3.43
			c-3.308-1.898-5.986-6.53-5.967-10.354C218.739,239.882,221.429,238.323,224.737,240.237"/>
	</g>
	<path style="fill:#F2E5A2;" d="M185.671,128.892c3.304,1.906,5.998,6.546,5.99,10.378c-0.016,3.801-2.718,5.317-6.026,3.407
		c-3.312-1.906-6.006-6.554-5.99-10.346C179.65,128.499,182.359,126.982,185.671,128.892"/>
	<g>
		<path style="fill:#E2CE8D;" d="M257.407,246.215c2.103,1.217,3.777,4.139,3.777,6.561c-0.012,2.406-1.709,3.391-3.797,2.186
			c-2.119-1.225-3.801-4.155-3.801-6.569C253.598,245.983,255.292,244.998,257.407,246.215"/>
		<path style="fill:#E2CE8D;" d="M262.499,215.046c1.772,1.024,3.19,3.509,3.19,5.553c-0.004,2.009-1.434,2.848-3.21,1.824
			c-1.768-1.024-3.19-3.517-3.19-5.514C259.293,214.861,260.727,214.022,262.499,215.046"/>
		<path style="fill:#E2CE8D;" d="M240.448,219.828c1.749,1.008,3.194,3.486,3.19,5.514c-0.008,2.048-1.457,2.84-3.206,1.831
			c-1.772-1.024-3.218-3.493-3.21-5.537C237.218,219.607,238.675,218.807,240.448,219.828"/>
	</g>
	<path style="fill:#F2E5A2;" d="M202.264,178.777c1.768,1.024,3.194,3.509,3.186,5.522c-0.004,2.04-1.438,2.875-3.21,1.855
		c-1.772-1.02-3.19-3.517-3.186-5.553C199.058,178.592,200.488,177.753,202.264,178.777"/>
	<g>
		<path style="fill:#E2CE8D;" d="M268.631,175.299c1.319,0.76,2.395,2.599,2.391,4.139c-0.004,1.516-1.087,2.131-2.406,1.378
			c-1.347-0.776-2.395-2.631-2.387-4.155C266.229,175.13,267.292,174.519,268.631,175.299"/>
		<path style="fill:#E2CE8D;" d="M242.921,195.929c1.315,0.76,2.395,2.599,2.387,4.139c-0.004,1.524-1.087,2.139-2.402,1.371
			c-1.343-0.76-2.395-2.623-2.391-4.139C240.511,195.76,241.574,195.153,242.921,195.929"/>
	</g>
	<path style="fill:#F2E5A2;" d="M208.058,150.92c1.315,0.76,2.399,2.615,2.391,4.147c-0.008,1.508-1.091,2.131-2.41,1.378
		c-1.319-0.768-2.391-2.639-2.387-4.147C205.659,150.751,206.738,150.16,208.058,150.92"/>
	<path style="fill:#E2CE8D;" d="M222.031,208.843c0.823,0.477,1.489,1.631,1.485,2.599c0,0.945-0.673,1.331-1.493,0.855
		c-0.847-0.484-1.512-1.646-1.508-2.584C220.515,208.745,221.181,208.359,222.031,208.843"/>
	<path style="fill:#F2E5A2;" d="M189.204,188.052c0.839,0.484,1.512,1.646,1.505,2.615c-0.004,0.945-0.67,1.323-1.52,0.839
		c-0.823-0.477-1.485-1.631-1.481-2.576C187.708,187.961,188.377,187.575,189.204,188.052"/>
</g>
<path style="fill:#748786;" d="M381.244,431.906c-0.004,4.021-2.855,8.96-6.345,10.977l-12.67,7.314
	c-3.486,2.017-6.333,0.37-6.333-3.663V336.237c0-4.021,2.851-8.96,6.333-10.977l12.67-7.314c3.493-2.017,6.341-0.37,6.341,3.663
	L381.244,431.906z"/>
<path style="fill:#617271;" d="M355.892,336.237v110.301c0,1.016,0.185,1.887,0.512,2.568l10.78-6.223
	c3.489-2.017,6.337-6.955,6.341-10.977V321.605c0-1.016-0.185-1.879-0.512-2.568l-10.783,6.223
	C358.743,327.277,355.892,332.215,355.892,336.237z"/>
<path style="fill:#A4AFBC;" d="M373.528,376.373l-0.004-44.631l-11.268-6.498l-0.028,0.016c-3.486,2.017-6.333,6.955-6.333,10.977
	v29.952L373.528,376.373z"/>
<path style="fill:#DFE9F2;" d="M394.512,330.928l-6.762-3.868c-0.295-0.217-0.614-0.402-0.949-0.547l-0.098-0.063l-0.004,0.008
	c-1.82-0.74-4.167-0.469-6.731,1.008l-20.819,12.024c-5.727,3.308-10.405,11.422-10.405,18.03v24.033c0,3.23,1.118,5.514,2.918,6.64
	l-0.012,0.032l7.511,4.254l4.222-7.353l16.581-9.57c5.723-3.308,10.409-11.422,10.409-18.03v-19.393L394.512,330.928z"/>
<path style="fill:#C3D0DD;" d="M394.512,330.928l-7.239-1.701c-0.295-0.217-1.772-0.209-2.111-0.354l-0.536-0.217l-0.965-0.177
	c-1.82-0.74-1.13-2.493-3.694-1.016l-20.819,12.024c-5.727,3.308-10.405,11.422-10.405,18.03v24.033c0,3.23,1.118,5.514,2.918,6.64
	l-0.012,0.032l7.511,4.254l4.222-7.353l16.581-9.57c5.723-3.308,10.409-11.422,10.409-18.03v-19.393L394.512,330.928z"/>
<path style="fill:#A4AFBC;" d="M349.133,354.05c-0.248,1.185-0.394,2.347-0.394,3.47v24.033c0,3.23,1.118,5.514,2.918,6.64
	l-0.012,0.032l7.511,4.254l4.222-7.353l16.581-9.57c0.973-0.571,1.91-1.276,2.808-2.083L349.133,354.05z"/>
<path style="fill:#7E8D9E;" d="M366.301,343.637c-5.723,3.308-10.409,11.422-10.409,18.03v24.04c0,6.617,4.683,9.314,10.409,6.006
	l20.823-12.016c5.723-3.308,10.405-11.414,10.405-18.03v-24.04c0-6.609-4.679-9.314-10.405-6.014L366.301,343.637z"/>
<path style="fill:#738093;" d="M397.529,337.631c0-6.609-4.679-9.314-10.405-6.014l-20.823,12.024
	c-5.723,3.308-10.409,11.422-10.409,18.03v24.04c0,6.617,4.683,9.314,10.409,6.006"/>
<path style="fill:#C3D0DD;" d="M361.677,393.561L361.677,393.561c-3.773,0-6.215-3.084-6.215-7.853v-24.04
	c0-6.762,4.769-15.013,10.626-18.4l20.815-12.024c1.694-0.977,3.32-1.461,4.844-1.461c3.769,0,6.211,3.076,6.211,7.845v24.04
	c0,6.762-4.769,15.021-10.626,18.4l-20.819,12.024C364.832,393.061,363.202,393.561,361.677,393.561z M391.751,330.636
	c-1.378,0-2.855,0.453-4.415,1.355l-20.819,12.024c-5.62,3.237-10.197,11.162-10.197,17.652v24.04c0,4.317,2.052,6.991,5.356,6.991
	l0,0c1.375,0,2.855-0.453,4.411-1.355l20.815-12.016c5.624-3.253,10.201-11.169,10.201-17.66v-24.04
	C397.104,333.322,395.052,330.636,391.751,330.636z"/>
<g>
</g>
<g>
</g>
<g>
</g>
<g>
</g>
<g>
</g>
<g>
</g>
<g>
</g>
<g>
</g>
<g>
</g>
<g>
</g>
<g>
</g>
<g>
</g>
<g>
</g>
<g>
</g>
<g>
</g>
</svg>
