<svg id="Tomato" enable-background="new 0 0 450 450" height="512" viewBox="0 0 450 450" width="512" xmlns="http://www.w3.org/2000/svg"><g clip-rule="evenodd" fill-rule="evenodd"><path d="m321.677 156.944c12.966-4.615 22.855-7.252 34.722-27.25 7.911-13.405 18.899 5.274 13.186 13.625-5.274 7.911-12.087 12.087-20.218 24.174 9.889-1.319 21.097-4.395 30.767-7.032-6.153 5.714-12.307 11.647-18.24 17.581 31.646 14.724 37.579 9.01 58.676-17.141 1.099-1.319 4.835.44 4.395 2.198-4.835 26.152-34.942 48.347-67.906 20.218-10.769-8.792-24.614-17.582-35.382-26.373z" fill="#82b361"/><path d="m158.395 366.376c73.4 0 133.175-56.918 133.175-127.022 0-69.884-59.775-127.022-133.175-127.022s-133.395 57.139-133.395 127.022c0 70.104 59.995 127.022 133.395 127.022z" fill="#df5241"/><path d="m258.386 155.626c20.658 22.196 33.184 51.644 33.184 83.729 0 70.323-59.775 127.022-133.175 127.022-4.835 0-9.45-.22-14.065-.659-19.998-85.708 31.865-180.425 114.056-210.092z" fill="#d74434"/><path d="m182.129 336.708c14.284-37.579 108.562-141.746 139.548-179.764 52.083 29.448 107.023 87.245 78.015 160.425-44.392 85.927-166.799 82.63-217.563 19.339z" fill="#f37768"/><path d="m182.129 336.708c14.284-37.579 108.562-141.746 139.548-179.764 3.516 1.978 45.051 76.477 16.482 143.284-23.514 54.501-93.618-12.526-145.482 47.688-3.736-3.516-7.252-7.252-10.548-11.208z" fill="#f8a78f"/><path d="m182.129 336.708c2.198-5.494 5.934-12.526 10.988-20.438 39.117 52.303 59.775 60.654 108.781 61.533 7.472 0 14.944 1.099 27.031-1.099-52.083 16.483-114.276.66-146.8-39.996z" fill="#df5241"/><path d="m161.691 163.757c-10.988-39.117-10.329-52.962-23.734-95.816 16.482 25.272 20.657 43.952 37.14 69.225-4.616 8.79-9.011 17.581-13.406 26.591z" fill="#679647"/><path d="m184.986 144.418 83.289-58.017-64.39 68.565-21.756-.439z" fill="#679647"/><path d="m373.76 296.712c24.833-59.555-52.743-106.144-52.743-67.906 0 21.756 43.952 70.323-30.547 79.993-26.371 3.516-42.853-19.559-45.93 10.549-3.735 39.776 101.31 44.391 129.22-22.636z" fill="#e45a4a"/><g fill="#e9ca87"><path d="m270.692 313.194c3.296.879 4.615 6.373 3.077 12.307-1.758 5.934-5.714 9.889-9.01 9.01s-4.615-6.373-3.077-12.307c1.758-5.933 5.714-9.889 9.01-9.01z"/><path d="m295.305 315.831c3.296 0 6.153 5.055 6.153 11.208s-2.857 10.988-6.153 10.988c-3.516 0-6.373-5.054-6.373-10.988 0-6.153 2.857-11.208 6.373-11.208z"/><path d="m318.82 307.92c3.077-1.319 7.692 2.198 10.109 7.692 2.417 5.714 1.758 11.428-1.319 12.746-3.296 1.319-7.692-1.978-10.109-7.692-2.417-5.494-1.758-11.208 1.319-12.746z"/><path d="m338.818 293.635c2.198-2.857 7.692-2.198 12.526 1.538 4.835 3.516 7.252 8.79 5.055 11.647-1.978 2.857-7.472 1.978-12.307-1.538-5.054-3.735-7.252-8.79-5.274-11.647z"/><path d="m344.971 268.143c.22-3.516 5.494-5.934 11.428-5.494 5.934.439 10.768 3.736 10.329 7.032-.22 3.516-5.274 5.934-11.208 5.494-6.153-.439-10.768-3.516-10.549-7.032z"/><path d="m335.522 240.893c-.44-3.516 4.175-6.813 10.109-7.472 6.153-.659 11.208 1.758 11.647 5.055.22 3.516-4.395 6.813-10.329 7.472-5.933.658-11.208-1.759-11.427-5.055z"/></g><path d="m162.35 147.714c-15.823-12.966-30.766-26.591-46.15-40.216-15.163-13.845-35.82-23.075-30.107-40.656-23.295 27.69 36.041 65.269 58.896 86.586-32.964-22.416-46.809 14.944-43.952 20.438.44 1.099 25.053-16.922 36.92-12.966 3.296 1.099 13.405 3.077 11.208 7.032-8.571 15.603-19.998 56.918-13.186 91.42 8.351-30.327 6.813-96.255 49.446-91.201 34.063-11.428 48.787 12.966 67.466 43.073-4.175-31.206-27.91-70.104-70.763-56.698 1.978-7.032 3.956-14.065 6.153-21.097 1.538-5.934 4.615-5.934 9.889-9.23 1.319-8.79-.659-17.141-9.669-15.383-16.481 12.527-18.02 20.658-26.151 38.898z" fill="#82b361"/><path d="m83.896 174.305c10.988 2.637 15.163 16.043 9.45 30.107-5.714 14.065-19.339 23.295-30.327 20.658s-15.163-16.043-9.45-30.107c5.933-14.065 19.339-23.295 30.327-20.658z" fill="#e97567"/></g></svg>