<svg id="Flat" height="512" viewBox="0 0 64 64" width="512" xmlns="http://www.w3.org/2000/svg"><path d="m23.88 22.316c1.3.14 2.63.48 3.93 1.12.01 0 .01.01.02.01 4.88 2.39 7.01 7.72 7.34 12.91-.2 1.58-.86 3.15-1.65 4.63-1.9 3.59-5.59 6.3-8.95 8.44-2.47 1.58-5.43 3.48-8.47 3.46-4.52-.03-8.67-3.21-11.1-6.86-1.67-2.5-2.56-4.89-3-7.07.08-3.09.91-5.96 2.48-7.97.86-1.1 1.93-1.92 3.08-2.54.97.35 1.84.77 2.45 1.27.43.35.96.54 1.48.54.41 0 .83-.11 1.19-.36.76-.51 1.1-1.43.91-2.33-.21-.96-.29-1.85-.29-2.68.46-.27 3.27-1.91 6.86-2.46 1.18-.18 2.43-.25 3.72-.11z" fill="#e0604f"/><path d="m11.65 21.396c-1.7 2.49-.65 5.63-.65 5.63-.67-1.01-1.41-1.69-2.16-2.1l.02-.03c-.83-3.06-5.86-4.87-5.86-4.87s6.92-.69 8.65 1.37z" fill="#547204"/><path d="m13.59 27.566c.19.9-.15 1.82-.91 2.33-.36.25-.78.36-1.19.36-.52 0-1.05-.19-1.48-.54-.61-.5-1.48-.92-2.45-1.27-2.86-1.03-6.56-1.42-6.56-1.42s4.14-4.14 7.84-2.1c.75.41 1.49 1.09 2.16 2.1 0 0-1.05-3.14.65-5.63.64-.96 1.69-1.82 3.35-2.37 0 0-1.68 2.23-1.7 5.86 0 .83.08 1.72.29 2.68z" fill="#647f0e"/><path d="m13.59 27.566c.19.9-.15 1.82-.91 2.33-.36.25-.78.36-1.19.36-.52 0-1.05-.19-1.48-.54-.12-.1-.26-.2-.4-.29.09.01.18.02.27.02.41 0 .83-.1 1.19-.36.76-.5 1.1-1.42.91-2.32-.21-.96-.29-1.86-.29-2.68.01-1.34.24-2.49.54-3.41.64-.66 1.54-1.24 2.77-1.65 0 0-1.68 2.23-1.7 5.86 0 .83.08 1.72.29 2.68z" fill="#547204"/><path d="m50.01 18.996c2.01-4.96 6.99-2.97 6.99-2.97-4 0-5 4-5 4 6-2 5 4 5 4-.15-.09-.3-.17-.44-.24-3-1.51-6.27-.34-8.37.8-1.06.58-2.4.07-2.76-1.09-.91-2.89-2.49-4.88-3.71-6.07-.97-.95-1.72-1.4-1.72-1.4 4-2 7 3 7 3 1-1 0-7 0-7 3.83.96 3.07 6.51 3.01 6.97z" fill="#647f0e"/><path d="m57 24.026c-.15-.09-.3-.17-.44-.24-3-1.51-6.27-.34-8.37.8-1.06.58-2.4.07-2.76-1.09-.91-2.89-2.49-4.88-3.71-6.07-.97-.95-1.72-1.4-1.72-1.4 1.06-.53 2.06-.57 2.94-.33 1.06 1.21 2.21 2.94 2.93 5.24.36 1.16 1.7 1.67 2.76 1.09 2.02-1.1 5.12-2.22 8.02-.97.63 1.29.35 2.97.35 2.97z" fill="#547204"/><path d="m26.5 8.436c-.31-.26-.74-.31-1.1-.12-1.92 1.03-7.59 4.95-5.24 14.11 1.18-.18 2.43-.25 3.72-.11 1.3.14 2.63.48 3.93 1.12.01 0 .01.01.02.01l.01-.01c.92-1.51 2.01-2.67 3.2-3.55 1.21-.9 2.51-1.5 3.81-1.9-2.75-4.65-6.92-8.36-8.35-9.55z" fill="#e0604f"/><path d="m34.85 17.986c-1.3.4-2.6 1-3.81 1.9-.35-.33-.64-.78-.92-1.19-.69-1-1.55-1.94-1.77-3.13-.12-.67-.04-1.42-.45-1.96-.27-.36-.72-.56-1.18-.58-.45-.01-.9.14-1.28.39-.71.46-1.21 1.25-1.33 2.09-.14 1.05.28 2.17-.1 3.15-.27.7-1.04 1.69-.13 3.66-1.29-.14-2.54-.07-3.72.11-2.35-9.16 3.32-13.08 5.24-14.11.36-.19.79-.14 1.1.12 1.43 1.19 5.6 4.9 8.35 9.55z" fill="#e0604f"/><path d="m27.81 23.436c-1.3-.64-2.63-.98-3.93-1.12-.91-1.97-.14-2.96.13-3.66.38-.98-.04-2.1.1-3.15.12-.84.62-1.63 1.33-2.09.38-.25.83-.4 1.28-.39.46.02.91.22 1.18.58.41.54.33 1.29.45 1.96.22 1.19 1.08 2.13 1.77 3.13.28.41.57.86.92 1.19-1.19.88-2.28 2.04-3.2 3.55l-.01.01c-.01 0-.01-.01-.02-.01z" fill="#d4290b"/><path d="m28.25 14.706h-.03c-.45-.01-.9.14-1.28.39-.71.46-1.21 1.25-1.33 2.09-.14 1.05.28 2.17-.1 3.15-.19.49-.62 1.12-.55 2.14-.36-.07-.72-.12-1.08-.16-.91-1.97-.14-2.96.13-3.66.38-.98-.04-2.1.1-3.15.12-.84.62-1.63 1.33-2.09.38-.25.83-.4 1.28-.39.46.02.91.22 1.18.58.24.31.31.7.35 1.1z" fill="#bc0202"/><path d="m31.24 36.936c.06 1-.06 2.09-.71 2.85-.24.28-.55.5-.91.58-.35.07-.76-.02-.99-.3-.16-.18-.23-.4-.33-.62-.45-1.06-1.41-1.88-2.53-2.16-.31-.07-.63-.11-.93-.22-.29-.12-.58-.33-.68-.63-.12-.38.06-.78.08-1.18.05-.87-.65-1.58-1.24-2.23-.81-.9-1.52-1.96-2.63-2.45-.62-.28-1.36-.38-1.79-.9-.29-.35-.38-.84-.29-1.28.09-.45.35-.85.68-1.16.62-.59 1.5-.88 2.35-.8 1.05.11 2.04.78 3.09.64.74-.1 1.44-.6 2.19-.5.66.1 1.2.74 1.17 1.41-.01.31-.12.67.07.92.12.16.32.22.5.3 1.08.47 1.91 1.77 1.61 2.96.83.4.88 1.16.95 1.97.09.94.28 1.86.34 2.8z" fill="#d4290b"/><path d="m19.47 45.146c.18.14.39.26.52.46.21.29.21.71.06 1.04-.16.33-.45.57-.78.74-.89.45-1.97.31-2.93.02-.9-.28-1.76-.69-2.65-.99-.77-.26-1.5-.48-1.69-1.39-1.23.01-2.29-1.1-2.49-2.26-.04-.2-.05-.4-.18-.56-.2-.24-.57-.21-.88-.28-.65-.13-1.15-.81-1.09-1.47.07-.76.73-1.31 1-2.02.39-.98-.03-2.1.11-3.15.11-.84.61-1.63 1.33-2.09.38-.24.83-.4 1.28-.39.45.02.91.22 1.18.58.4.55.33 1.29.45 1.96.22 1.19 1.08 2.13 1.77 3.13.49.72 1.01 1.57 1.87 1.73.39.07.83-.01 1.17.2.27.17.4.49.44.81.05.32.01.64.01.96 0 1.15.58 2.28 1.5 2.97z" fill="#d4290b"/><path d="m27.76 28.746c-.5.12-.98.37-1.48.44-1.05.14-2.04-.53-3.09-.64-.85-.08-1.73.21-2.35.8-.32.31-.58.7-.68 1.14-.57-.22-1.2-.35-1.58-.81-.29-.35-.38-.84-.29-1.28.09-.45.35-.85.68-1.16.62-.59 1.5-.88 2.35-.8 1.05.11 2.04.78 3.09.64.74-.1 1.44-.6 2.19-.5.66.1 1.2.74 1.17 1.41-.01.25-.08.53-.01.76z" fill="#c60000"/><path d="m14.29 46.636c-.2-.08-.4-.15-.6-.22-.77-.26-1.5-.48-1.69-1.39-1.23.01-2.29-1.1-2.49-2.26-.04-.2-.05-.4-.18-.56-.2-.24-.57-.21-.88-.28-.65-.13-1.15-.81-1.09-1.47.07-.76.73-1.31 1-2.02.39-.98-.03-2.1.11-3.15.11-.84.61-1.63 1.33-2.09.38-.24.83-.4 1.28-.39.45.02.91.22 1.18.58.08.1.14.22.18.33-.27.05-.53.17-.77.32-.72.46-1.22 1.25-1.33 2.09-.14 1.05.28 2.17-.11 3.15-.27.71-.93 1.26-1 2.02-.06.66.44 1.34 1.09 1.47.31.07.68.04.88.28.13.16.14.36.18.56.2 1.16 1.26 2.27 2.49 2.26.07.34.22.59.42.77z" fill="#c60000"/><path d="m27.83 23.446c-.01 0-.01-.01-.02-.01-1.3-.64-2.63-.98-3.93-1.12-1.29-.14-2.54-.07-3.72.11-3.59.55-6.4 2.19-6.86 2.46 0 .83.08 1.72.29 2.68.19.9-.15 1.82-.91 2.33-.36.25-.78.36-1.19.36-.52 0-1.05-.19-1.48-.54-.61-.5-1.48-.92-2.45-1.27-1.15.62-2.22 1.44-3.08 2.54-1.57 2.01-2.4 4.88-2.48 7.97.44 2.18 1.33 4.57 3 7.07 2.43 3.65 6.58 6.83 11.1 6.86 3.04.02 6-1.88 8.47-3.46 3.36-2.14 7.05-4.85 8.95-8.44.79-1.48 1.45-3.05 1.65-4.63-.33-5.19-2.46-10.52-7.34-12.91zm3.92 16.6c-1.72 3.25-5.31 5.82-8.25 7.69-2.33 1.49-4.92 3.15-7.35 3.15h-.04c-4.06-.03-7.62-3.23-9.44-5.97-1.33-1.98-2.2-3.99-2.66-6.14.1-2.67.83-5 2.05-6.56.45-.58 1.01-1.09 1.68-1.54.51.23.82.44 1 .59.79.64 1.77.99 2.75.99.85 0 1.66-.25 2.33-.72 1.4-.94 2.09-2.67 1.73-4.38-.09-.38-.15-.74-.19-1.11 1.15-.56 2.99-1.32 5.1-1.64.7-.11 1.38-.16 2.02-.16.4 0 .8.02 1.19.06 1.17.12 2.26.44 3.26.92.01.01.02.01.03.02 4.99 2.45 6 8.39 6.2 11.04-.17 1.07-.63 2.3-1.41 3.76z" fill="#d4290b"/><path d="m27.83 23.446c-.01 0-.01-.01-.02-.01-.446-.219-.895-.392-1.346-.545.405 1.366.702 2.731.873 4.086.27.268.449.627.432 1.009-.01.31-.12.67.07.92.12.16.32.22.5.3 1.08.47 1.91 1.77 1.61 2.96.83.4.88 1.16.95 1.97.09.94.28 1.86.34 2.8.06 1-.06 2.09-.71 2.85-.24.28-.55.5-.91.58-.35.07-.76-.02-.99-.3-.16-.18-.23-.4-.33-.62-.361-.849-1.055-1.529-1.89-1.916-1.906 6.211-6.118 11.629-11.678 15.244.452.066.907.109 1.368.112 3.04.02 6-1.88 8.47-3.46 3.36-2.14 7.05-4.85 8.95-8.44.79-1.48 1.45-3.05 1.65-4.63-.329-5.19-2.459-10.52-7.339-12.91z" fill="#db3d31"/><path d="m35.17 36.356c-.2 1.58-.86 3.15-1.65 4.63-1.9 3.59-5.59 6.3-8.95 8.44-2.47 1.58-5.43 3.48-8.47 3.46-.24 0-.49-.01-.73-.03-.14-.02-.27-.03-.41-.05-.07-.01-.15-.02-.22-.03.96-.63 1.88-1.31 2.75-2.04 2.02-.45 4.1-1.78 6.01-3 2.94-1.87 6.53-4.44 8.25-7.69.78-1.46 1.24-2.69 1.41-3.76-.2-2.63-1.2-8.51-6.1-10.99-.16-.8-.36-1.6-.6-2.41.22.08.45.16.68.25.22.09.44.19.67.3.01 0 .01.01.02.01 4.88 2.39 7.01 7.72 7.34 12.91z" fill="#c60000"/><path d="m30.55 50.526c-4.22 4.6-12 8.31-18.88 5.5-6.63-2.71-9.86-10.42-9.67-17.07.44 2.18 1.33 4.57 3 7.07 2.43 3.65 6.58 6.83 11.1 6.86 3.04.02 6-1.88 8.47-3.46 3.36-2.14 7.05-4.85 8.95-8.44.79-1.48 1.45-3.05 1.65-4.63.17 2.52-.1 5-.68 7.1-.38 1.37-1.29 3.99-3.49 6.57-.14.17-.29.33-.45.5z" fill="#d4290b"/><path d="m35.17 36.356c-.2 1.58-.86 3.15-1.65 4.63-1.503 2.84-4.128 5.123-6.822 7.015-3.353 4.574-8.732 7.776-14.508 8.205 6.749 2.425 14.246-1.196 18.36-5.681.16-.17.31-.33.45-.5 2.2-2.58 3.11-5.2 3.49-6.57.58-2.099.85-4.579.68-7.099z" fill="#af0000"/><path d="m34.85 17.986c2.48-.75 4.98-.76 6.87-.56 1.22 1.19 2.8 3.18 3.71 6.07.36 1.16 1.7 1.67 2.76 1.09 2.1-1.14 5.37-2.31 8.37-.8l-.02.05c.84.75 6.6 6.09 6.38 14.69-.03 1.16-.35 8.58-6.58 13.83-5.28 4.45-12.51 5.4-18.42 3.23-3.61-1.33-6.02-3.57-7.37-5.06.16-.17.31-.33.45-.5 2.2-2.58 3.11-5.2 3.49-6.57.58-2.1.85-4.58.68-7.1-.33-5.19-2.46-10.52-7.34-12.91l.01-.01c.92-1.51 2.01-2.67 3.2-3.55 1.21-.9 2.51-1.5 3.81-1.9z" fill="#d4290b"/><path d="m23.88 22.316c-1.29-.14-2.54-.07-3.72.11-.18-.7-.31-1.37-.4-2 .77-.24 1.6-.45 2.48-.59.44-.07.89-.13 1.35-.16-.2.63-.26 1.46.29 2.64z" fill="#db3d31"/><path d="m29.97 20.796c-.78.72-1.49 1.6-2.13 2.64l-.01.01c-.01 0-.01-.01-.02-.01-1.3-.64-2.63-.98-3.93-1.12-.55-1.18-.49-2.01-.29-2.64.84-.07 1.71-.06 2.59.04 1.25.15 2.53.47 3.79 1.08z" fill="#bc0202"/><path d="m37.43 43.616c-.4 1.55-1.37 4.51-3.7 7.43-.15.19-.31.37-.48.57-.24.27-.48.55-.74.81-.81-.68-1.46-1.35-1.96-1.9.16-.17.31-.33.45-.5 2.2-2.58 3.11-5.2 3.49-6.57.58-2.1.85-4.58.68-7.1-.33-5.19-2.46-10.52-7.34-12.91l.01-.01c.64-1.04 1.35-1.92 2.13-2.64.13.05.25.11.38.18.01 0 .01.02.02.02 5.17 2.7 7.43 8.72 7.78 14.59.18 2.85-.11 5.66-.72 8.03z" fill="#c60000"/><path d="m57.26 24.529c1.807 6.576 1.303 13.796-2.26 19.497-3.402 6.804-11.869 10.697-20.476 9.868.987.629 2.112 1.219 3.396 1.692 5.91 2.17 13.14 1.22 18.42-3.23 6.23-5.25 6.55-12.67 6.58-13.83.186-7.26-3.88-12.183-5.66-13.997z" fill="#c60000"/><path d="m39.434 21.415c.464-.152.781-.44.48-.974-.307-.545-1.264-1.064-1.908-1.054-.781.013-1.621.254-2.337.602-.632.307-2.689 2.144-1.115 2.274.719.06 1.38-.257 2.064-.467.472-.144.972-.222 1.456-.215.288.004.897-.014 1.36-.166z" fill="#e0604f"/><g fill="#d3620d"><g><ellipse cx="22.62" cy="29.095" rx="1" ry=".5" transform="matrix(.423 -.906 .906 .423 -13.313 37.28)"/><ellipse cx="24.38" cy="30.095" rx="1" ry=".5" transform="matrix(.423 -.906 .906 .423 -13.204 39.451)"/><ellipse cx="25.62" cy="31.956" rx="1" ry=".5" transform="matrix(.423 -.906 .906 .423 -14.175 41.649)"/><ellipse cx="26.86" cy="33.818" rx="1" ry=".5" transform="matrix(.423 -.906 .906 .423 -15.146 43.846)"/><ellipse cx="28.099" cy="35.679" rx="1" ry=".5" transform="matrix(.423 -.906 .906 .423 -16.118 46.043)"/></g><g><ellipse cx="10.865" cy="37.556" rx="1" ry=".5" transform="matrix(.979 -.204 .204 .979 -7.427 3.003)"/><ellipse cx="11.435" cy="39.499" rx="1" ry=".5" transform="matrix(.979 -.204 .204 .979 -7.811 3.16)"/><ellipse cx="12.962" cy="41.133" rx="1" ry=".5" transform="matrix(.979 -.204 .204 .979 -8.112 3.505)"/><ellipse cx="14.489" cy="42.767" rx="1" ry=".5" transform="matrix(.979 -.204 .204 .979 -8.413 3.851)"/><ellipse cx="16.016" cy="44.401" rx="1" ry=".5" transform="matrix(.979 -.204 .204 .979 -8.714 4.196)"/></g></g></svg>