<svg id="color_copy" height="512" viewBox="0 0 256 256" width="512" xmlns="http://www.w3.org/2000/svg" data-name="color copy"><path d="m27.043 72.388h183.053v16.5h-183.053z" fill="#cb8252"/><path d="m39.65 219.23h-13.75v-157.2915a6.875 6.875 0 0 1 6.875-6.875 6.875 6.875 0 0 1 6.875 6.875z" fill="#805333"/><path d="m211.2383 219.23h-13.75v-157.2915a6.875 6.875 0 0 1 6.875-6.875 6.875 6.875 0 0 1 6.875 6.875z" fill="#805333"/><circle cx="50.869" cy="203.575" fill="#fff" r="4.695" transform="matrix(.707 -.707 .707 .707 -129.05 95.596)"/><path d="m50.8691 211.2666a7.6887 7.6887 0 1 1 5.44-2.25 7.6761 7.6761 0 0 1 -5.44 2.25zm0-9.3857a1.6954 1.6954 0 1 0 1.1982.4971 1.6841 1.6841 0 0 0 -1.1982-.4971z"/><path d="m172.5914 122.0782-30.34-30.3406-107.2252 107.2247a10.167 10.167 0 0 0 -.0237 14.3546l12.5222 12.6049 8.2285.8319 2.7541-7.8 8.2287.8317 2.7535-7.7993 8.2295.8314 2.7533-7.7991 8.2295.8313 2.7543-7.8 8.2295.8313 2.7538-7.7994 8.2295.8313 2.7517-7.7982 8.2292.8315 2.7522-7.7984 8.2293.8315 2.7545-7.8 8.2293.8314 2.7538-7.7995 8.23.831 2.7554-7.8 8.23.831 2.7549-7.8 8.2308.8305 2.7533-7.7991 8.23.8308 2.7565-7.8013 8.23.8307 2.7587-7.8025z" fill="#a5a5a4"/><path d="m233.869 95.5434a7.6659 7.6659 0 0 0 -10.8412 0l-2.5288 2.5289-38.6822-24.2181 2.5288-2.5288a7.6659 7.6659 0 0 0 -10.8412-10.8413l-36.0831 36.0832 32.1105 32.1106 37.7046 4.3392 26.6325-26.6325a7.6661 7.6661 0 0 0 .0001-10.8412zm-39.4731 26.4634-36.152-22.411 14.0961-14.0958 36.1519 22.411z" fill="#f29c1f"/><path d="m127.1415 107.5641h-29.5759l5.849 5.233a7.8342 7.8342 0 0 1 2.4166 7.5713l-2.7812 27.1175h18.608l-2.7816-27.1175a7.8342 7.8342 0 0 1 2.4166-7.5713z" fill="#7f8284"/><path d="m97.566 26.056h29.576v81.509h-29.576z" fill="#a5a5a4"/><path d="m107.037 37.121h10.633v70.443h-10.633z" fill="#bdc3c7"/><path d="m106.914 37.023h10.879l9.03-10.967h-28.939z" fill="#ecf0f1"/><path d="m115.9437 189.532h-7.18a5.8757 5.8757 0 0 1 -5.8757-5.8757v-40.7123h18.9318v40.7123a5.8757 5.8757 0 0 1 -5.8761 5.8757z" fill="#a56a43"/><path d="m55.021 34.479h30.22v173.12h-30.22z" fill="#bdc3c7" transform="matrix(.966 -.259 .259 .966 -28.937 22.275)"/><path d="m77.9388 208.5594 29.19-7.8216 53.6585-14.3778a4.4163 4.4163 0 0 0 3.1228-5.4089l-5.5355-20.6587a4.4163 4.4163 0 0 0 -5.4089-3.1228l-53.658 14.3778z" fill="#4482c3"/><g fill="#7f8284"><path d="m93.02 148.374-9.6445 2.585a3 3 0 1 0 1.5527 5.7949l9.6445-2.585c.0251-.0068.0466-.02.0715-.0271l-1.5488-5.78c-.0254.0059-.0507.0054-.0754.0122z"/><path d="m86.55 164.5684a2.9939 2.9939 0 0 0 3.6738 2.1211l7.1875-1.9258c.0251-.0068.0466-.02.0715-.0271l-1.5488-5.78c-.0251.0061-.05.0056-.0754.0125l-7.1875 1.9258a2.9992 2.9992 0 0 0 -2.1211 3.6735z"/><path d="m87.3418 127.1855-9.6445 2.584a3 3 0 1 0 1.5527 5.7949l9.6445-2.584c.0254-.0068.0469-.02.0718-.0272l-1.5488-5.78c-.0252.0061-.0503.0055-.0757.0123z"/><path d="m90.1807 137.7793-7.1875 1.9268a3 3 0 1 0 1.5527 5.7949l7.1875-1.9268c.0251-.0068.0466-.02.0715-.0272l-1.5486-5.78c-.0253.006-.0505.0055-.0756.0123z"/><path d="m81.6641 105.9961-9.6441 2.5839a3 3 0 1 0 1.5527 5.7949l9.6445-2.584c.0254-.0068.0469-.02.0718-.0272l-1.5486-5.78c-.0258.0063-.0509.0056-.0763.0124z"/><path d="m84.5029 116.5908-7.1875 1.9258a3 3 0 1 0 1.5527 5.7949l7.1875-1.9258c.0254-.0068.0469-.02.0718-.0272l-1.5488-5.78c-.0251.006-.0503.0055-.0757.0123z"/><path d="m75.9863 84.8066-9.6445 2.584a3 3 0 1 0 1.5527 5.7949l9.6445-2.584c.0254-.0068.0469-.02.0718-.0272l-1.5486-5.78c-.0253.0057-.0505.0057-.0759.0123z"/><path d="m78.8252 95.4014-7.1875 1.9258a3 3 0 1 0 1.5527 5.7949l7.1875-1.9258c.0254-.0068.0469-.02.0718-.0272l-1.5486-5.78c-.0254.0059-.0505.0054-.0759.0123z"/><path d="m70.31 63.6172-9.6445 2.585a3 3 0 1 0 1.5527 5.7949l9.6445-2.585c.0249-.0067.0464-.02.071-.0269l-1.5488-5.78c-.0255.0057-.0504.0048-.0749.012z"/><path d="m73.1484 74.2119-7.1884 1.9258a3 3 0 1 0 1.5527 5.7949l7.1885-1.9258c.0249-.0067.0464-.02.071-.0269l-1.5488-5.7799c-.0252.0057-.0501.0052-.075.0119z"/><path d="m52.8662 48.6865a2.9939 2.9939 0 0 0 3.6738 2.1211l9.6445-2.584c.0251-.0067.0466-.02.0713-.027l-1.5488-5.78c-.0251.0061-.05.0056-.0752.0123l-9.6445 2.584a2.9992 2.9992 0 0 0 -2.1211 3.6736z"/><path d="m67.4707 53.0225-7.1885 1.9268a3 3 0 1 0 1.5527 5.7949l7.1885-1.9268c.0249-.0067.0464-.02.071-.0269l-1.5488-5.78c-.0248.0057-.05.0052-.0749.012z"/><path d="m80.8916 184.35a3 3 0 0 0 -1.5527-5.7949l-8.8074 2.36 1.5527 5.7949z"/><path d="m73.8887 158.2129a3 3 0 1 0 -1.5527-5.7949l-8.8079 2.3595 1.5527 5.7949z"/><path d="m66.8848 132.0762a3 3 0 0 0 -1.5527-5.7949l-8.8074 2.3594 1.5527 5.7949z"/><path d="m59.8818 105.9395a3 3 0 1 0 -1.5527-5.7949l-8.8076 2.3594 1.5527 5.7949z"/><path d="m52.8789 79.8018a3 3 0 1 0 -1.5527-5.7949l-8.8081 2.36 1.5527 5.7949z"/><path d="m37.0674 56.0253 8.8076-2.36a3 3 0 1 0 -1.5527-5.7953l-8.8076 2.36z"/></g><path d="m111.8343 191.4758 43.7531-11.7236-3.8209-14.26-43.7531 11.7236z" fill="#8fb9e1"/><rect fill="#a56a43" height="48.526" rx="11" width="195.433" x="20.853" y="185.554"/><rect fill="#cb8252" height="32.702" rx="11" width="195.433" x="20.853" y="153.118"/><path d="m167.0635 174.0811c-20.82 0-45.5459-.6826-71.0752-5.7441-26.6924-5.294-59.1083-3.017-60.4756-2.917a3 3 0 0 0 .4355 5.9844c.3252-.0254 32.99-2.3154 58.874 2.8174 26.0381 5.1631 51.13 5.8594 72.2412 5.8594a3 3 0 0 0 0-6z" fill="#a56a43"/><path d="m216.2861 164.1177a11.0356 11.0356 0 0 0 -.1245-1.5685c-34.4719 1.5722-89.8894 2.4694-96.3257-1.7-1.2744-.8252-1.498-1.3779-1.49-1.4531.168-1.4512 4.7861-4.43 9.5029-6.1279a2.976 2.976 0 0 0 .3164-.1509h-12.3442a9.1488 9.1488 0 0 0 -3.4353 5.5884c-.22 1.8955.3291 4.68 4.1885 7.1787 4.8232 3.125 24.7939 4.0137 45.9648 4.0137 21.6265 0 44.5027-.9284 53.7471-1.348z" fill="#a56a43"/><path d="m192.19 230.8906c-5.998-4.5264-12.7969-9.6553-33.5488-13.0137-15.3926-2.4922-33.9443-1.8477-68.4512 2.3818-29.6873 3.6387-58.8052 3.744-69.3379 1.77v1.0513a10.9491 10.9491 0 0 0 1.3208 5.2288c12.6528 1.6919 40.12 1.4141 68.7476-2.0948 33.8877-4.1533 51.9814-4.8076 66.7617-2.4141 16.9019 2.7355 23.5237 6.4942 28.7451 10.28h10.2295c-1.5777-1.0115-2.9918-2.0775-4.4668-3.1893z" fill="#805333"/><path d="m216.2861 215.0533c-10.0913-1.3439-21.6462-3.7259-33.8594-6.2535-30.3037-6.2715-64.6484-13.3789-88.1494-6.3975-24.6826 7.3336-59.2441 9.1292-73.4248 9.5634v6.0035c17.6252-.532 50.5647-2.5155 75.1338-9.815 22.0576-6.5547 55.6152.3926 85.2236 6.5215 12.6367 2.6149 24.582 5.0794 35.0762 6.43z" fill="#805333"/><path d="m89.6533 185.5791c.3848.1182 38.88 11.8633 72.3789 13.4863 16.043.7783 44.167 3.4717 44.4492 3.499.0977.01.1943.0137.291.0137a3 3 0 0 0 .2832-5.9863c-.2842-.0273-28.5479-2.7344-44.7324-3.5186-16.9932-.8239-35.3389-4.3254-49.1169-7.5194h-23.613c.021.007.0388.0188.06.0253z" fill="#805333"/><path d="m53.958 206.4668c1.74 0 3.1494-.0762 3.9658-.1338 8.4492.4834 12.6631-3.6953 13.0957-8.0967a7.2008 7.2008 0 0 0 -6.1729-7.9551 3 3 0 0 0 -.7715 5.9512 1.2176 1.2176 0 0 1 .9736 1.417c-.1484 1.5068-2.3711 2.9922-6.9395 2.6836a2.8439 2.8439 0 0 0 -.4277.002c-8.48.6426-16.415-.916-17.67-3.4756-.1221-.248-.3477-.709.2051-1.7344 2.38-4.4092 13.0059-9.1016 15.2207-9.415a2.96 2.96 0 0 0 .8174-.1561h-14.49a22.0858 22.0858 0 0 0 -6.4756 6.1171 7.7144 7.7144 0 0 0 -.665 7.8291c2.9521 6.0224 13.2021 6.9667 19.3339 6.9667z" fill="#805333"/></svg>