<svg clip-rule="evenodd" fill-rule="evenodd" height="512" stroke-linejoin="round" stroke-miterlimit="2" viewBox="0 0 64 64" width="512" xmlns="http://www.w3.org/2000/svg"><g id="Artboard1"><path d="m50.095 8.255 5.645-5.645c.81-.81 2.13-.81 2.94 0l2.72 2.72c.81.81.81 2.13 0 2.94l-5.645 5.645z" fill="#eceaec" fill-rule="nonzero"/><g transform="translate(17.516)"><path d="m38.195 2.639.029-.029c.81-.81 2.13-.81 2.94 0l2.72 2.72c.81.81.81 2.13 0 2.94l-5.645 5.645-1.5-1.501 4.145-4.145c.81-.81.81-2.13 0-2.94z" fill="#dbd8db" fill-rule="nonzero"/></g><path d="m58.2 13.45-7.65-7.65c-1.18-1.18-2.77-1.84-4.43-1.84-1.97 0-3.87.74-5.32 2.06l-38.8 36.18 19.8 19.8 36.17-38.8c1.33-1.45 2.06-3.35 2.06-5.32 0-1.66-.66-3.26-1.83-4.43z" fill="#7ad7ee" fill-rule="nonzero"/><g transform="translate(17.516)"><path d="m27.019 4.121c1.131.263 2.177.839 3.015 1.678l7.65 7.65c1.17 1.17 1.83 2.77 1.83 4.43 0 1.97-.73 3.87-2.06 5.32l-34.723 37.248 1.553 1.553 36.17-38.8c1.33-1.45 2.06-3.35 2.06-5.32 0-1.66-.66-3.26-1.83-4.43l-7.65-7.65c-1.18-1.18-2.77-1.84-4.43-1.84-.536 0-1.067.055-1.585.161z" fill="#4bc3ef" fill-rule="nonzero"/></g><path d="m6.241 42.205-2.118 2.118 1.414 1.414 2.119-2.119 1.416 1.416-2.119 2.119 1.414 1.414 2.12-2.119 1.412 1.411-2.117 2.125 1.416 1.412 2.116-2.123 1.413 1.413-2.123 2.116 1.412 1.416 2.126-2.118 1.412 1.412-2.121 2.121 1.414 1.414 2.122-2.122 1.416 1.416-2.122 2.122 1.414 1.414 2.123-2.122 2.022 2.021 1.414-1.414-19.602-19.592-1.414 1.414z" fill="#4bc3ef"/><g transform="translate(.007 -2.678)"><path d="m42.45 7.565c-.594.311-1.149.698-1.65 1.155l-.004.004c.029.039.061.077.097.113l16.97 16.97c.034.034.07.065.107.093.461-.503.85-1.059 1.161-1.654z" fill="#4bc3ef" fill-rule="nonzero"/></g><g fill-rule="nonzero"><path d="m37.8 23.1s1.78.1 3.29 1.62c1.39 1.39 1.58 2.93 1.58 2.93l-2.716 3.321-4.573-5.394z" fill="#dbd8db"/><path d="m34.15 20.85s3.81.03 3.97 3.86c.05 2.82 2.29 3 2.99 2.99l1.8-.04c.69-.02 1.35.24 1.83.72 1.24 1.24.34 3.2.34 3.2-1.25 2.99-3.52 5.49-6.38 7.04l-8.39 4.53c-1.3.72-2.15-.33-2.15-.33-.57-.57-.66-1.47-.22-2.18l2.61-4.25c.43-.71.34-1.61-.22-2.18-.57-.57-1.47-.66-2.18-.22l-4.25 2.61c-.71.44-1.61.35-2.18-.22 0 0-1.03-.91-.43-2.11l4.05-8.56c1.5-3.18 4.14-5.71 7.38-7.06.97-.41 2.08-.21 2.8.51.82.82.66 2.23.66 2.23" fill="#eceaec"/></g></g></svg>