<?xml version="1.0" encoding="iso-8859-1"?>
<!-- Generator: Adobe Illustrator 19.0.0, SVG Export Plug-In . SVG Version: 6.00 Build 0)  -->
<svg version="1.1" id="Capa_1" xmlns="http://www.w3.org/2000/svg" xmlns:xlink="http://www.w3.org/1999/xlink" x="0px" y="0px"
	 viewBox="0 0 512 512" style="enable-background:new 0 0 512 512;" xml:space="preserve">
<path style="fill:#4398D1;" d="M18.724,512L18.724,512c-10.337-0.009-18.714-8.386-18.723-18.723l0,0
	c0-4.97,1.969-9.728,5.482-13.241L258.648,226.87c4.07-4.087,9.084-7.124,14.592-8.828l102.179-31.444
	c2.754-0.856,5.261-2.366,7.292-4.414l97.324-97.254c3.513-3.513,8.271-5.482,13.241-5.482l0,0
	c10.337,0.009,18.714,8.386,18.723,18.723l0,0c0,4.97-1.969,9.728-5.482,13.241l-94.27,94.27c-4.07,4.087-9.084,7.124-14.592,8.828
	l-102.153,31.373c-2.754,0.856-5.261,2.366-7.292,4.414L31.966,506.518C28.452,510.031,23.694,512,18.724,512z"/>
<rect x="331.168" y="68.465" transform="matrix(0.7071 -0.7071 0.7071 0.7071 44.0427 318.1585)" style="fill:#97D3E6;" width="149.809" height="74.9"/>
<g>
	
		<rect x="423.721" y="41.962" transform="matrix(0.7071 -0.7071 0.7071 0.7071 70.5374 329.1174)" style="fill:#7DBDD1;" width="17.655" height="74.9"/>
	
		<rect x="397.239" y="68.477" transform="matrix(0.7071 -0.7071 0.7071 0.7071 44.0326 318.1578)" style="fill:#7DBDD1;" width="17.655" height="74.9"/>
	
		<rect x="370.746" y="94.962" transform="matrix(0.7071 -0.7071 0.7071 0.7071 17.5453 307.1817)" style="fill:#7DBDD1;" width="17.655" height="74.9"/>
</g>
<path style="fill:#EBEBEB;" d="M308.966,123.586L308.966,123.586c7.318,7.309,19.165,7.309,26.483,0l78.38-78.38
	c10.337-10.337,10.337-27.11,0-37.447l0,0C408.859,2.79,402.123,0,395.096,0h-24.338l6.091,18.282
	c1.677,5.023,0.371,10.567-3.372,14.31l-64.512,64.512C301.656,104.422,301.656,116.268,308.966,123.586z"/>
<g>
</g>
<g>
</g>
<g>
</g>
<g>
</g>
<g>
</g>
<g>
</g>
<g>
</g>
<g>
</g>
<g>
</g>
<g>
</g>
<g>
</g>
<g>
</g>
<g>
</g>
<g>
</g>
<g>
</g>
</svg>
