<svg id="Layer_1" enable-background="new 0 0 53 53" height="512" viewBox="0 0 53 53" width="512" xmlns="http://www.w3.org/2000/svg"><g id="_x31_17"><g enable-background="new"><g><g><path d="m46.8323441 28.199564-23.2899781 13.5299701-16.8858151-8.9196357c-.9000244-.5200195-1.6416221-1.7594604-2.2215781-2.7794189-.5900271-1.0200195-.7731485-2.1506538-.7731485-3.1906319 0-1.0300293.9305296-1.7502689 1.5205564-2.0902958l23.289978-13.5299683c-.5900269.3399658-.9500122 1.0499878-.960022 2.0899658 0 1.0300293.3599854 2.1699829.9500122 3.1900024.5800171 1.0100098 1.3900146 1.8900146 2.289978 2.4100342z" fill="#ffd06c"/></g></g><g><g><path d="m7.1163783 28.427536 23.2914505-13.535512c.0024261.1801577.0606041.3655252.1628361.5426006.1022339.1770754.2339134.3205547.3892269.410224l-23.2914519 13.535513c-.1553116-.0896702-.2869921-.2331486-.3892255-.4102249-.1022334-.1770745-.1604109-.3624421-.1628361-.5426007z" fill="#ffde9b"/></g></g><g><g><path d="m7.281754 28.074419 23.2914486-13.535512c-.1028976.0586395-.1619358.1763334-.1653728.353117l-23.2914515 13.535512c.003437-.1767826.0624738-.2944775.1653757-.353117z" fill="#ffde9b"/></g></g><g><g><path d="m6.0637188 25.9647083 23.2914467-13.5355072c.4116116-.2345667.9868183-.1959057 1.6139393.1661625l-23.2914524 13.5355129c-.6271205-.3620681-1.2023273-.4007301-1.6139336-.1661682z" fill="#ffd06c"/></g></g><g><g><path d="m7.6684399 29.3803616 23.2914524-13.535513 14.6435928 8.4544831-23.2914505 13.5355148z" fill="#ffde9b"/></g></g><g><g><path d="m23.5396767 41.7309723 23.2914505-13.535511c.5362778.3096199 1.0146484.3395824 1.3703766.1402264l-23.2914544 13.5355129c-.3557262.199356-.834095.1693954-1.3703727-.1402283z" fill="#ffd06c"/></g></g><g><g><path d="m46.2105141 26.34202-23.2914524 13.5355168c.1547871-.0899544.250948-.2809067.2517166-.5519028.0015545-.5488815-.3840046-1.2166977-.8587437-1.4907875l23.2914505-13.5355148c.4747391.2740917.8602982.9419079.8587456 1.4907875-.0007706.270998-.0969315.4619484-.2517166.5519008z" fill="#ffde9b"/></g></g><g><g><path d="m50.502327 28.0795689c-.0099487 1.1699829-.4199829 1.9899902-1.0899658 2.3599854l-23.2900391 13.5399798c.6700439-.3799438.5679741-1.1576881.5679741-2.3177223.0100098-1.1599731-.3011036-2.4299889-.9611378-3.5699425-.6599731-1.1500244-1.6695843-1.8884926-2.6695843-2.4685097l-15.6216101-9.3518142 23.5343952-13.671957 15.8800049 9.1599731c1.0100098.5900269 1.9199829 1.5900269 2.5800171 2.7299805.6599726 1.1400147 1.0699458 2.4400024 1.0699458 3.5900269z" fill="#ffd06c"/></g></g><g><g><path d="m36.0023384 38.2395744c.3699989-.4400024.579998-1.1000023.5900002-1.9400024 0-2.315094-1.6315193-5.1408844-3.6500015-6.3199978l-15.8800011-9.1599998-1.9599991 1.1999989 15.8799992 9.1700001c1.99613 1.1577549 3.6600399 3.9954586 3.6400013 6.3200016 0 .7599983-.170002 1.3699989-.4900017 1.8099976z" fill="#e93565"/></g></g><g><g><path d="m32.692337 40.1595726c.2799988-.4300003.4399986-1.0299988.4500008-1.7599983 0-2.3150978-1.6315174-5.1408844-3.6500015-6.3199997l-15.8799992-9.1599998-1.96 1.1899986 15.8800001 9.170002c1.9961281 1.157753 3.660038 3.9954567 3.6399994 6.3199997 0 .6899986-.1399994 1.25-.3999996 1.6800003z" fill="#e93565"/></g></g><g><path d="m44.3963242 17.3288517-13.6179524-7.8623171c-1.3714428-.7918262-2.6216679-.8727875-3.5213223-.3567066l-23.291424 13.5355062c.8996255-.5160542 2.1498506-.435091 3.5212939.3567066l13.6179523 7.8623161c.4776726.2758007.8632069.9436073.8616657 1.4891319-.0007572.2726631-.0969296.4644508-.2521019.5546265l23.2914544-13.5355033c.1551704-.0901794.2513428-.2819653.2521019-.554657.0015411-.545496-.3840218-1.2133312-.8616676-1.4891033z" fill="#ffde9b"/></g><g><g><path d="m30.0901318 25.6283512-13.6179523-7.8623161c-1.3714428-.7918262-2.6216679-.8727875-3.5213213-.3567066l-1.8884001 1.1117287c.8996258-.5160522 2.1498508-.435091 3.5212936.3567066l13.6179523 7.8623161c.4776726.2758026.8632069.9436092.8616657 1.4891319-.0007572.272665-.0969296.4644508-.2521019.5546284l1.8887444-1.0975666c.1551704-.0901775.25103-.2961273.2517853-.568819.0015411-.5454961-.3840199-1.2133294-.8616657-1.4891034z" fill="#f45170"/></g><g><path d="m26.0944023 27.9281368-13.6179514-7.8623161c-1.3714437-.7918262-2.6216688-.8727875-3.5213223-.3567066l-1.8884001 1.1117287c.8996253-.5160522 2.1498508-.435091 3.5212936.3567066l13.6179523 7.8623161c.4776726.2758026.8632069.9436092.8616657 1.4891319-.0007553.2726631-.0976295.4871845-.2528019.5773621l1.8877277-1.088995c.1551723-.0901775.2527466-.3274326.2535019-.6001244.0015414-.5454959-.3840196-1.2133312-.8616655-1.4891033z" fill="#f45170"/></g></g><g><g><path d="m21.1048527 30.8643723c.4776726.2757835.8632317.9435997.8616848 1.4891129-.0015564.5488777-.3896351.7700348-.8673077.4942513l-13.6179285-7.8623163c-1.8089728-1.0444107-3.251749-.1869068-3.2575417 1.8563747-.0029311 1.0337753.3578124 2.1695862.9449167 3.1898651.5871139 1.016922 1.3918133 1.8963757 2.2914701 2.4157925l16.0795307 9.2835197c.5362778.3096237 1.0146465.3395844 1.3703766.1402283.352808-.2044182.5682926-.6297874.5729809-1.2476883-.0011845-.6179161-.2135582-1.2902985-.5640564-1.9007797-.3534374-.6087952-.8304119-1.1304016-1.3666916-1.4400215l-15.8802571-9.1684723c-.1553121-.0896683-.287374-.0984612-.3902755-.0398197-.1029019.0586395-.1619387.1763344-.1653757.353117.0024252.1801586.0606027.3655262.1628361.5426006.1022334.1770763.2339139.3205547.3892255.4102249l14.6435947 8.4544849c.4747391.2740898.8602982.941906.8587437 1.4907875-.0015469.5455093-.3896275.7666664-.8643665.4925728l-14.6435948-8.4544829c-1.2735233-.7352676-2.2794342-2.5063648-2.269557-3.9310303-.0017834-1.4339485 1.0124898-2.03615 2.2843924-1.3018169l15.8802567 9.1684704c1.0080872.5820198 1.926918 1.5847092 2.584116 2.7264061.6601486 1.1400299 1.070343 2.4359245 1.064127 3.5926018-.0003624 1.1634293-.4165516 1.9822159-1.0809956 2.3574905-.6615143.3803368-1.5830154.3205109-2.5911026-.2615089l-16.0795303-9.2835198c-1.3714657-.7918167-2.6180401-2.1523666-3.5118248-3.7038593-.8967355-1.5498238-1.4494668-3.3057843-1.4449988-4.8817044.0089483-3.156414 2.2408688-4.4299603 4.9892244-2.843195z" fill="#febc1f"/></g></g></g></g></svg>