<svg id="Capa_1" enable-background="new 0 0 512 512" height="512" viewBox="0 0 512 512" width="512" xmlns="http://www.w3.org/2000/svg"><path d="m411.261 66.375c-2.486-3.315-7.188-3.985-10.5-1.5l-12.386 9.29c-1.889 1.417-3 3.64-3 6v56.26h14.64c.122 0 .24.013.36.018v-52.528l9.386-7.04c3.313-2.485 3.985-7.187 1.5-10.5z" fill="#32569d"/><path d="m410.015 215.849v-70.424c0-5.523-4.477-10-10-10h-15.705c-5.523 0-10 4.477-10 10v66.502z" fill="#fed402"/><path d="m389.643 213.611v-68.187c0-5.523 4.477-10 10-10h-15.333c-5.523 0-10 4.477-10 10v66.502z" fill="#fac600"/><path d="m352.276 383.47c-.245-2.472-.381-4.968-.381-7.487 0-41.798 34.005-75.803 75.802-75.803 18.44 0 35.357 6.625 48.512 17.611v-82.504c0-7.304-5.426-13.506-12.751-14.574l-181.46-19.931-.306-1h-223.701v35.42c16.026-7.038 33.473-10.751 51.365-10.751 34.117 0 66.191 13.286 90.315 37.41 15.877 15.877 26.792 35.816 33.069 57.24 9.761 33.317.414 64.37.414 64.37h119.122z" fill="#fed402"/><path d="m87.991 226.241v-26.459h-30v35.42c9.562-4.2 19.631-7.213 30-8.961z" fill="#fac600"/><path d="m463.459 220.713-181.46-19.931v43.856c0 14.252 11.554 25.806 25.806 25.806h168.404v-35.156c0-7.305-5.425-13.506-12.75-14.575z" fill="#fe860a"/><path d="m311.999 244.637v-40.561l-30-3.295v43.856c0 14.252 11.554 25.806 25.806 25.806h30c-14.252.001-25.806-11.553-25.806-25.806z" fill="#fe7701"/><path d="m200.377 261.153c-48.944-48.944-127.496-50.235-178.002-3.873-2.255 2.07-2.294 5.62-.13 7.784l14.515 14.516 13.578-13.578c.954-.954 2.223-1.479 3.573-1.479 1.349 0 2.618.525 3.572 1.479 1.327 1.327 3.092 2.057 4.973 2.057 1.168 0 2.331-.294 3.364-.849 5.518-2.967 11.358-5.385 17.358-7.188 3.018-.906 5.046-3.619 5.046-6.75 0-2.788 2.267-5.055 5.052-5.055h34.017c2.786 0 5.052 2.267 5.052 5.052 0 3.133 2.028 5.846 5.046 6.753 6 1.803 11.84 4.221 17.357 7.188 1.033.556 2.196.849 3.364.849 1.88 0 3.646-.73 4.973-2.057.955-.955 2.223-1.48 3.573-1.48s2.618.525 3.572 1.479l24.054 24.054c1.97 1.97 1.97 5.175 0 7.145-2.214 2.213-2.699 5.563-1.208 8.336 2.967 5.518 5.385 11.357 7.188 17.357.907 3.019 3.62 5.046 6.75 5.046 2.788 0 5.055 2.267 5.055 5.052v34.017c0 2.786-2.267 5.052-5.052 5.052-3.134 0-5.847 2.028-6.753 5.046-.644 2.144-1.37 4.267-2.169 6.363h36.128c10.587-42.409-.686-89.156-33.846-122.316z" fill="#fe860a"/><path d="m244.65 78.671h-186.659v122.111h224.008z" fill="#c4e2ff"/><path d="m57.991 78.671h30v122.111h-30z" fill="#b3dafe"/><path d="m244.65 78.671h-115.727v122.111h153.076z" fill="#eaf6ff"/><path d="m114.923 78.671h15v122.111h-15z" fill="#fe860a"/><path d="m13.552 373.062h.002c2.68 0 5.022 1.767 5.793 4.334 1.81 6.025 4.232 11.905 7.265 17.543 1.268 2.358.859 5.263-1.034 7.156-2.364 2.364-2.364 6.196 0 8.559l24.053 24.053c2.364 2.364 6.196 2.364 8.559 0 1.893-1.893 4.798-2.302 7.156-1.034 5.639 3.032 11.518 5.455 17.544 7.265 2.422.728 4.112 2.859 4.297 5.348h46.194c.185-2.489 1.875-4.62 4.297-5.348 6.025-1.81 11.905-4.232 17.544-7.265 2.358-1.268 5.263-.859 7.156 1.034 2.364 2.364 6.196 2.364 8.559 0l24.053-24.053c2.364-2.364 2.364-6.196 0-8.559-1.893-1.893-2.302-4.798-1.034-7.156 3.032-5.639 5.455-11.519 7.265-17.544.771-2.566 3.113-4.334 5.793-4.334h.002c3.343 0 6.052-2.71 6.052-6.052v-34.017c0-3.343-2.71-6.052-6.052-6.052h-.002c-2.68 0-5.022-1.767-5.793-4.333-1.81-6.025-4.232-11.905-7.265-17.544-1.268-2.358-.859-5.263 1.034-7.156 2.364-2.364 2.364-6.196 0-8.559l-24.053-24.053c-2.364-2.364-6.196-2.364-8.559 0-1.893 1.893-4.798 2.302-7.156 1.034-5.639-3.032-11.518-5.455-17.544-7.265-2.566-.771-4.334-3.113-4.334-5.793v-.002c0-3.343-2.71-6.052-6.052-6.052h-34.017c-3.343 0-6.052 2.71-6.052 6.052v.002c0 2.68-1.767 5.022-4.334 5.793-6.025 1.81-11.905 4.232-17.544 7.265-2.358 1.268-5.263.859-7.156-1.034-2.364-2.364-6.196-2.364-8.559 0l-24.053 24.053c-2.364 2.364-2.364 6.196 0 8.559 1.893 1.893 2.302 4.798 1.034 7.156-3.032 5.639-5.455 11.518-7.265 17.544-.771 2.566-3.113 4.333-5.793 4.334h-.002c-3.343 0-6.052 2.71-6.052 6.052v34.017c.001 3.342 2.711 6.052 6.053 6.052z" fill="#32569d"/><path d="m13.552 373.062h.002c2.68 0 5.022 1.767 5.793 4.334 1.81 6.025 4.232 11.905 7.265 17.543 1.268 2.358.859 5.263-1.034 7.156-2.364 2.364-2.364 6.196 0 8.559l24.053 24.053c2.364 2.364 6.196 2.364 8.559 0 1.893-1.893 4.798-2.302 7.156-1.034 5.639 3.032 11.518 5.455 17.544 7.265 2.422.728 4.112 2.859 4.297 5.348h46.194c.011-.115.013-.233.028-.347-22.61-1.376-44.829-10.681-62.106-27.958-37.544-37.544-37.544-98.416 0-135.96 17.277-17.277 39.495-26.582 62.106-27.958-.035-.261-.065-.523-.065-.792v-.002c0-3.343-2.71-6.052-6.052-6.052h-34.017c-3.343 0-6.052 2.71-6.052 6.052v.002c0 2.68-1.767 5.022-4.334 5.793-6.025 1.81-11.905 4.232-17.544 7.265-2.358 1.268-5.263.859-7.156-1.034-2.364-2.364-6.196-2.364-8.559 0l-24.053 24.053c-2.364 2.364-2.364 6.196 0 8.559 1.893 1.893 2.302 4.798 1.034 7.156-3.032 5.639-5.455 11.518-7.265 17.544-.771 2.566-3.113 4.333-5.793 4.334h-.002c-3.343 0-6.052 2.71-6.052 6.052v34.017c.001 3.342 2.711 6.052 6.053 6.052z" fill="#303a78"/><circle cx="110.285" cy="350.001" fill="#fff" r="54.419"/><circle cx="110.285" cy="350.001" fill="#89a8ec" r="30.131"/><path d="m108.979 371.307c-11.767-11.767-11.767-30.845 0-42.612 3.301-3.301 7.177-5.675 11.306-7.124-10.589-3.716-22.84-1.342-31.306 7.124-11.767 11.767-11.767 30.845 0 42.612 8.466 8.466 20.717 10.84 31.306 7.124-4.129-1.449-8.006-3.823-11.306-7.124z" fill="#718dd9"/><path d="m110.285 387.615c-9.637 0-19.273-3.668-26.609-11.004-14.672-14.672-14.672-38.546 0-53.219s38.547-14.673 53.219 0c14.672 14.672 14.672 38.546 0 53.219-7.337 7.336-16.974 11.004-26.61 11.004zm0-60.235c-5.795 0-11.591 2.206-16.003 6.618-8.824 8.824-8.824 23.182 0 32.006s23.182 8.824 32.006 0 8.824-23.182 0-32.006c-4.413-4.412-10.208-6.618-16.003-6.618z" fill="#303a78"/><path d="m396.775 446.286h61.845c27.013-11.899 45.88-38.89 45.88-70.302 0-42.417-34.386-76.802-76.802-76.802-42.417 0-76.802 34.386-76.802 76.802-.001 31.412 18.867 58.402 45.879 70.302z" fill="#32569d"/><path d="m396.775 446.286h20.041c-27.034-11.885-45.921-38.876-45.921-70.302 0-39.025 29.114-71.229 66.802-76.133-3.276-.426-6.608-.669-10-.669-42.417 0-76.802 34.386-76.802 76.802 0 31.412 18.868 58.402 45.88 70.302z" fill="#303a78"/><circle cx="427.698" cy="375.983" fill="#fff" r="41.445"/><circle cx="427.698" cy="375.983" fill="#89a8ec" r="18.671"/><path d="m423.693 375.983c0-7.708 4.672-14.322 11.338-17.172-2.252-.963-4.729-1.499-7.333-1.499-10.312 0-18.671 8.359-18.671 18.671s8.359 18.671 18.671 18.671c2.604 0 5.082-.536 7.333-1.499-6.666-2.85-11.338-9.464-11.338-17.172z" fill="#718dd9"/><path d="m427.697 402.155c-14.431 0-26.171-11.74-26.171-26.171s11.74-26.171 26.171-26.171c14.432 0 26.172 11.74 26.172 26.171s-11.74 26.171-26.172 26.171zm0-37.343c-6.159 0-11.171 5.011-11.171 11.171s5.012 11.171 11.171 11.171c6.16 0 11.172-5.011 11.172-11.171s-5.012-11.171-11.172-11.171z" fill="#303a78"/><path d="m504.5 460.286h-497c-4.142 0-7.5-3.358-7.5-7.5s3.358-7.5 7.5-7.5h497c4.143 0 7.5 3.358 7.5 7.5s-3.357 7.5-7.5 7.5z" fill="#c57a44"/><path d="m255.888 79.671h-207.733c-5.523 0-10-4.477-10-10v-7.957c0-5.523 4.477-10 10-10h207.733c5.523 0 10 4.477 10 10v7.957c0 5.523-4.477 10-10 10z" fill="#fed402"/><path d="m78.155 69.671v-7.957c0-5.523 4.477-10 10-10h-40c-5.523 0-10 4.477-10 10v7.957c0 5.523 4.477 10 10 10h40c-5.522 0-10-4.477-10-10z" fill="#fac600"/><g fill="#fe860a"><path d="m270.645 363.264c-4.143 0-7.5-3.358-7.5-7.5v-37.159c0-4.142 3.357-7.5 7.5-7.5s7.5 3.358 7.5 7.5v37.159c0 4.142-3.358 7.5-7.5 7.5z"/><path d="m296.966 363.264c-4.143 0-7.5-3.358-7.5-7.5v-37.159c0-4.142 3.357-7.5 7.5-7.5s7.5 3.358 7.5 7.5v37.159c0 4.142-3.358 7.5-7.5 7.5z"/><path d="m323.287 363.264c-4.143 0-7.5-3.358-7.5-7.5v-37.159c0-4.142 3.357-7.5 7.5-7.5s7.5 3.358 7.5 7.5v37.159c0 4.142-3.357 7.5-7.5 7.5z"/></g></svg>