<svg id="Layer_1" enable-background="new 0 0 64 64" viewBox="0 0 64 64" xmlns="http://www.w3.org/2000/svg"><g><path d="m49.05 14.89h4.12v11.93h-4.12z" fill="#445c6c"/><g><path d="m51.76 14.89h-1.3v-3.38c0-.5-.4-.9-.9-.9h-.99v-1.3h.99c1.22 0 2.2.99 2.2 2.2z" fill="#788d9a"/></g><path d="m57.21 18.69h1.09v9.09h-1.09z" fill="#788d9a"/><path d="m61.45 37.33h-4.02v4.3h3.28c.48 0 .91-.3 1.07-.75l.74-2.02c.27-.74-.28-1.53-1.07-1.53z" fill="#379fc8"/><path d="m50.45 42.79h-10.48l-1.43-1.04h-9.39l-23.79-13.49 1.6-1.93h1.26l7.99-1.42 22.33 3.46 19.4 1.26-3.25 9.8-1.37 2.32z" fill="#20323a"/><ellipse cx="15.1" cy="41.92" fill="#445c6c" rx="15.1" ry="15.1" transform="matrix(.655 -.756 .756 .655 -26.468 25.874)"/><circle cx="15.1" cy="41.92" fill="#394f5b" r="11.95"/><path d="m21.95 38.59c-.65.02-1.55-.42-2.33-1.2s-1.21-1.68-1.2-2.33c-.27-.13-.54-.25-.83-.35-.45.47-1.4.8-2.5.8s-2.05-.33-2.5-.8c-.28.1-.56.21-.83.34.02.65-.42 1.55-1.2 2.33s-1.68 1.21-2.33 1.2c-.11.28-.23.56-.33.84.47.45.8 1.4.8 2.5s-.33 2.05-.8 2.5c.1.28.22.56.35.83.65-.02 1.55.42 2.33 1.2s1.21 1.68 1.2 2.33c.27.13.54.25.83.35.45-.47 1.4-.8 2.5-.8s2.05.33 2.5.8c.28-.1.56-.21.83-.34-.02-.65.42-1.55 1.2-2.33s1.68-1.21 2.33-1.2c.13-.27.25-.54.34-.83-.47-.45-.8-1.4-.8-2.5s.33-2.05.8-2.5c-.12-.29-.23-.57-.36-.84z" fill="#dbdfe0"/><path d="m61.69 29.68v1.34l-3.69 9.57h-6.77v-2.98h3.47v-5.18h-16.16v-6.06h14.36c1.3 0 2.6.13 3.88.4l3.05.62c.92.19 1.62.9 1.81 1.79.03.17.05.33.05.5z" fill="#41b3e2"/><path d="m11.42 9.96h23.05l4.07 16v13.89h-6.47l-5.61-9.66c-1.39-2.39-3.95-3.87-6.72-3.87h-11.52z" fill="#379fc8"/><path d="m34.79 11.22-.32-1.26h-23.05l-.25 1.26z" fill="#2e89ac"/><g fill="#445c6c"><path d="m35.44 22.57-2.49-9.79c-.1-.38-.44-.64-.83-.64h-7.92c-.47 0-.86.38-.86.86v9.79c0 .47.38.86.86.86h10.41c.55-.01.96-.54.83-1.08z"/><path d="m20.09 12.14h-6.18c-.41 0-.76.29-.84.69l-1.91 9.79c-.1.53.3 1.02.84 1.02h8.09c.47 0 .86-.38.86-.86v-9.79c-.01-.47-.39-.85-.86-.85z"/><path d="m35.51 27.78h-6.45c-.67 0-1.06.73-.73 1.31 0 0 .01.01.01.01l3.84 6.62c.15.26.43.43.74.43h2.59c.47 0 .86-.38.86-.86v-6.65c0-.48-.38-.86-.86-.86z"/></g><path d="m32.33 6.84h-18.31c-1.73 0-3.13 1.4-3.13 3.13h24.57c0-1.73-1.4-3.13-3.13-3.13z" fill="#dbdfe0"/><path d="m61.69 29.68v1.11h-23.15v-1.6h23.09c.04.16.06.32.06.49z" fill="#445c6c"/><path d="m47.65 34.92h2.81v2.26h-2.81z" fill="#788d9a"/><path d="m50.12 32.44h2.76v2.04h-2.76z" fill="#445c6c"/><path d="m51.5 35.47h2.1v1.1h-2.1z" fill="#445c6c"/><path d="m45.72 35.47c0 .61-.49 1.1-1.1 1.1s-1.1-.49-1.1-1.1.49-1.1 1.1-1.1 1.1.49 1.1 1.1z" fill="#445c6c"/><path d="m38.84 35.47h2.26v6.28h-2.26z" fill="#379fc8"/><path d="m39.28 32.88h3.3v1.6h-3.3z" fill="#dbdfe0"/><circle cx="55.63" cy="48.79" fill="#445c6c" r="8.37"/><path d="m61.63 48.79c0 3.31-2.69 6-6 6s-6-2.69-6-6 2.69-6 6-6c3.32 0 6 2.69 6 6z" fill="#394f5b"/><path d="m15.1 32.46c-5.23 0-9.46 4.24-9.46 9.46 0 5.23 4.24 9.46 9.46 9.46 5.23 0 9.46-4.24 9.46-9.46 0-5.23-4.24-9.46-9.46-9.46zm0 17.05c-4.19 0-7.59-3.4-7.59-7.59s3.4-7.59 7.59-7.59 7.59 3.4 7.59 7.59c-.01 4.19-3.4 7.59-7.59 7.59z" fill="#c6c6c6"/><path d="m19.61 41.92c0 2.49-2.02 4.51-4.52 4.51-2.49 0-4.51-2.02-4.51-4.51s2.02-4.52 4.51-4.52c2.5 0 4.52 2.03 4.52 4.52z" fill="#c6c6c6"/><path d="m18.35 41.92c0 1.79-1.45 3.25-3.25 3.25-1.79 0-3.25-1.45-3.25-3.25 0-1.79 1.45-3.25 3.25-3.25 1.79 0 3.25 1.46 3.25 3.25z" fill="#eff3f5"/><path d="m16.25 41.92c0 .64-.52 1.16-1.16 1.16s-1.16-.52-1.16-1.16.52-1.16 1.16-1.16c.65 0 1.16.52 1.16 1.16z" fill="#445c6c"/><g fill="#dbdfe0"><g><path d="m15.41 40.12c0 .17-.14.32-.32.32-.17 0-.32-.14-.32-.32 0-.17.14-.32.32-.32s.32.14.32.32z"/><path d="m15.41 43.72c0 .17-.14.32-.32.32-.17 0-.32-.14-.32-.32 0-.17.14-.32.32-.32s.32.15.32.32z"/></g><g><path d="m16.9 42.24c-.17 0-.32-.14-.32-.32s.14-.32.32-.32c.17 0 .32.14.32.32s-.15.32-.32.32z"/><path d="m13.3 42.24c-.17 0-.32-.14-.32-.32s.14-.32.32-.32c.17 0 .32.14.32.32s-.15.32-.32.32z"/></g><g><circle cx="16.37" cy="40.65" r=".32"/><path d="m14.05 43.42c-.12.12-.32.12-.45 0-.12-.12-.12-.32 0-.45.12-.12.32-.12.45 0 .12.12.12.32 0 .45z"/></g><g><path d="m16.15 43.42c-.12-.12-.12-.32 0-.45.12-.12.32-.12.45 0 .12.12.12.32 0 .45-.13.12-.33.12-.45 0z"/><path d="m13.6 40.87c-.12-.12-.12-.32 0-.45.12-.12.32-.12.45 0 .12.12.12.32 0 .45-.13.12-.33.12-.45 0z"/></g></g><g><path d="m60.15 48.79c0 2.49-2.02 4.51-4.52 4.51-2.49 0-4.51-2.02-4.51-4.51s2.02-4.52 4.51-4.52c2.49.01 4.52 2.03 4.52 4.52z" fill="#c6c6c6"/><path d="m58.88 48.79c0 1.79-1.45 3.25-3.25 3.25-1.79 0-3.25-1.45-3.25-3.25s1.45-3.25 3.25-3.25c1.79.01 3.25 1.46 3.25 3.25z" fill="#eff3f5"/><path d="m56.79 48.79c0 .64-.52 1.16-1.16 1.16s-1.16-.52-1.16-1.16.52-1.16 1.16-1.16 1.16.53 1.16 1.16z" fill="#445c6c"/><g fill="#dbdfe0"><g><path d="m55.95 46.99c0 .17-.14.32-.32.32-.17 0-.32-.14-.32-.32 0-.17.14-.32.32-.32.18.01.32.15.32.32z"/><path d="m55.95 50.6c0 .17-.14.32-.32.32-.17 0-.32-.14-.32-.32 0-.17.14-.32.32-.32s.32.14.32.32z"/></g><g><path d="m57.43 49.11c-.17 0-.32-.14-.32-.32 0-.17.14-.32.32-.32.17 0 .32.14.32.32s-.14.32-.32.32z"/><circle cx="53.83" cy="48.79" r=".32"/></g><g><path d="m57.13 47.75c-.12.12-.32.12-.45 0-.12-.12-.12-.32 0-.45.12-.12.32-.12.45 0 .12.12.12.32 0 .45z"/><path d="m54.58 50.29c-.12.12-.32.12-.45 0-.12-.12-.12-.32 0-.45.12-.12.32-.12.45 0 .12.13.12.33 0 .45z"/></g><g><path d="m56.68 50.29c-.12-.12-.12-.32 0-.45.12-.12.32-.12.45 0 .12.12.12.32 0 .45-.13.13-.33.13-.45 0z"/><circle cx="54.36" cy="47.52" r=".32"/></g></g></g><path d="m8.34 25.7-1.77.15-2.38 2.69.6.29 2.16-2.38 1.27-.12z" fill="#dbdfe0"/><path d="m31.95 42.79h5.8v.82h-5.8z" fill="#788d9a"/><path d="m31.95 48.03h5.8v.82h-5.8z" fill="#788d9a"/><path d="m31.65 41.6h.3v7.25h-.3z" fill="#fbd984"/><path d="m37.68 41.6h.3v7.25h-.3z" fill="#fbd984"/><path d="m58.81 16.36h-2.11c-.64 0-1.11.48-1 .99l.25 1.09c.09.39.51.68 1 .68h1.61c.49 0 .9-.28 1-.68l.25-1.09c.11-.51-.37-.99-1-.99z" fill="#dbdfe0"/></g></svg>