<svg id="a" height="512" viewBox="0 0 512 512" width="512" xmlns="http://www.w3.org/2000/svg" data-name="flat"><path d="m504 72h-496c-4.418 0-8 3.582-8 8s3.582 8 8 8h238.338l22.781 29.519-56.362 61.252c-.075.081-.138.156-.2.229h21.655l33.311-36.147-5.737 36.147h16.182l9.506-59.771c.347-2.177-.221-4.399-1.567-6.145l-19.358-25.084h237.452c4.418 0 8-3.582 8-8s-3.582-8-8-8z" fill="#7a848d"/><path d="m91.35 176c-28.958 0-54.113 19.917-60.754 48.103l-22.595 95.897v80h495.999v-224z" fill="#eb3958"/><path d="m172.622 208h213.902v82.293h-213.902z" fill="#5e738e"/><path d="m450.524 208h53.476v82.293h-53.476z" fill="#5e738e"/><path d="m271.573 208h16v82.293h-16z" fill="#fdb924"/><path d="m218.098 208h16v82.293h-16z" fill="#fdb924"/><path d="m325.049 208h16v82.293h-16z" fill="#fdb924"/><g fill="#4e6078"><path d="m40 432c17.673 0 32-14.327 32-32h-64c0 17.673 14.327 32 32 32z"/><path d="m148 432c17.673 0 32-14.327 32-32h-64c0 17.673 14.327 32 32 32z"/><path d="m256 432c17.673 0 32-14.327 32-32h-64c0 17.673 14.327 32 32 32z"/><path d="m364 432c17.673 0 32-14.327 32-32h-64c0 17.673 14.327 32 32 32z"/><path d="m440 400c0 17.673 14.327 32 32 32s32-14.327 32-32z"/></g><path d="m504 176h-412.65c-23.054 0-43.686 12.631-54.497 32h467.147z" fill="#fdb924"/><path d="m8 320h496v80h-496z" fill="#fdb924"/><path d="m108.622 208h64v192h-64z" fill="#ffe180"/><path d="m386.524 208h64v192h-64z" fill="#ffe180"/><path d="m132.622 208h16v192h-16z" fill="#f9cb4e"/><path d="m410.524 208h16v192h-16z" fill="#f9cb4e"/><path d="m504 440h-496c-4.418 0-8-3.582-8-8s3.582-8 8-8h496c4.418 0 8 3.582 8 8s-3.582 8-8 8z" fill="#384149"/></svg>