<svg id="Flat" enable-background="new 0 0 496.001 495.998" height="512" viewBox="0 0 496.001 495.998" width="512" xmlns="http://www.w3.org/2000/svg"><g><path d="m475.22 441.89 4.58-58.98 5.43-23.56-13.77-55.12-37.61-78.15-62.67-78.9-60.36-36.42-71.06-23.71-81.18 16.98c-29.407-1.99-36.959-15.725-25.98-39.42l-19.66-38.72-30.52-22.7-38.73-1.45c-6.6 5.6-14.576 7.429-23.46 6.77l-19.85 27.61 20.51 50.81c64.963 4.519 108.435 22.603 87.11 81.59v.01l-64.4 47.94-10.23 45.34-1.79 54.68 21.61 46.91c10.892 5.057 15.147 14.25 15.43 25.92l55.22-21.87 5.06-26.05c-12.262-12.795-15.292-25.962-3.32-39.73-8.93-6.926-10.39-14.859-2.14-24.1-8.018-16.832-7.865-28.405 8.24-29.71 16.438 4.686 23.575 14.777 22.19 29.82l1.37 62.8s0 0 .01.01c23.716 25.639 47.934 44.99 73.72 44.68l1.82-31.76 103.47 56.25 17.62 27.26 31.74 24.68c9.598-1.661 16.077 2.163 20.19 9.79l36.25 13.67 44.12-15.56c-8.639-8.697-12.739-17.801-8.96-27.61z" fill="#9e4949"/><path d="m158.58 104.03s-11.68-9.15-17.94-18.07c-2.13-3.04-4.43-11.2-8.04-21.35l-19.66-38.72c-6.27-8.11-14.07-15.26-23.93-20.03-2.16-1.04-4.36-1.93-6.59-2.67l-38.73-1.44v-.01c-8.62 1.63-16.68 4.17-23.46 6.77l-19.85 27.61c1.18 15.08 5.69 36.25 20.51 50.81 25.39 24.96 54.45 17.06 72.75 33.29 8.17 7.24 12.62 26.57 14.36 48.3 12.68-3.08 22.3-4.3 22.3-4.3h.01c-.85-3.62-1.28-6.89-1.26-9.77.12-19.03 12.39-37.27 29.53-50.42z" fill="#f1c27d"/><path d="m197.93 358.6c6.29 13.79 31.04 26.57 31.04 26.57-7.27 8.23-25.37 13.44-35.8 7.38-9.59-5.57-28.24-30.03-37.92-52.06.42.14 12.29 4.14 20.42-2.23 8.29-6.48 9.96-26.09 9.96-26.09 6.27 6.29 12.74 12.53 19.31 18.61 0 0-13.3 14.03-7.01 27.82z" fill="#e0ac69"/><path d="m495.99 432.55c.21 3.93-2.57 7.44-6.45 8.1-4.7.81-9.47 1.24-14.32 1.24-1-2.26-2.06-4.51-3.19-6.75-3.23-6.42-6.97-12.81-11.22-19.17-4.62-6.91-9.83-13.79-15.62-20.64 15.71-.92 27.95-4.88 34.61-12.42 9.22 15.78 15.24 32.2 16.19 49.64z" fill="#f1c27d"/><path d="m305.76 359.39c5.07 2.54 10.23 4.96 15.44 7.27 0 0 2.19 20.29 13.06 43-16.34-4.5-38.66-12.47-61.94-26.26-12.55-7.44-26.86-17.89-41.53-29.99-8.58-7.08-17.29-14.71-25.85-22.63-6.57-6.08-13.04-12.32-19.31-18.61-11.57-11.6-22.42-23.36-31.76-34.49-9.04-10.77-16.68-20.94-22.19-29.82 2.83-3.19 5.94-5.95 9.08-8.31 10.93-8.27 22.08-11.75 22.08-11.75 7.32 10.66 15.58 21.64 24.53 32.53 10.5 12.79 21.94 25.46 33.89 37.3 11.92 11.84 24.36 22.86 36.89 32.41 4.98 3.79 9.98 7.36 14.97 10.65 10.18 6.72 21.19 12.98 32.64 18.7z" fill="#f1c27d"/><path d="m486.44 487.36c.27 5.57-4.99 9.78-10.38 8.36-8.52-2.23-21.5-5.86-36-10.66 0 0 1.23-30.61-14.5-34.08-15.74-3.47-21.75 20.41-21.75 20.41-7.02-3.05-13.85-6.32-20.19-9.79 0 0 13.4-17.53 2.6-28.52-10.8-11-34.34 3.84-34.34 3.84-7.54-8.71-13.27-18.18-17.62-27.26-10.87-22.71-13.06-43-13.06-43 7.95 3.52 16.04 6.77 24.14 9.73 0 0 5.26 29.36 21.39 33.92 16.13 4.55 24.62-20.44 24.62-20.44 2.86.63 5.7 1.21 8.51 1.73 1.69.32 3.37.62 5.04.9 0 0 4.08 24.17 21.08 31.22 17.01 7.05 34.83-7.75 34.83-7.75 4.25 6.36 7.99 12.75 11.22 19.17 0 0-20.11 5.46-16.78 20.14s28.93 14.22 28.93 14.22c1.21 5.93 1.97 11.88 2.26 17.86z" fill="#ffdbac"/><path d="m136.12 181.17c5.24 12.21 13.21 26.38 23.14 41.34 1.17 1.75 2.36 3.51 3.58 5.29 0 0-11.15 3.48-22.08 11.75-11.43-12.32-31.28-11.09-37.93 4.17-6.56 15.02 4.9 26.91 20.61 33.85.26 7.39 1.15 15.62 2.14 24.1 0 0-11.55-7.65-20.24-3.6-8.68 4.05-17.38 21.99-11.19 33.42 6.19 11.42 34.75 9.91 34.75 9.91-.02 5.7-.46 11-1.52 15.68-.8 3.53-2.02 6.99-3.54 10.37-.56-.32-19.8-11.02-33.94-4.67-14.36 6.43-21.27 26.54-21.27 26.54h-.01c-4.81-7.79-10.24-16.81-15.43-25.92 0 0 26.02-15.51 16.64-33.12-9.37-17.62-38.25-13.79-38.25-13.79-1.87-10.6-1.3-32.14 1.79-54.68 0 0 31.09-2.1 32.69-20.06 1.6-17.95-22.46-25.28-22.46-25.28 3.79-10.85 8.42-19.79 13.91-25 12.38-11.76 34.01-18.93 50.49-22.94v-.01c12.68-3.08 22.3-4.3 22.3-4.3h.01c1.16 5.04 3.13 10.74 5.81 16.95zm-37.22 38.13c9.11-4.54 13.79-13.69 10.44-20.43-3.34-6.74-13.44-8.53-22.56-3.99-9.11 4.55-13.78 13.69-10.44 20.43 3.35 6.74 13.45 8.53 22.56 3.99zm-20.1 78.13c8.74-5.6 12.32-15.62 8.01-22.38-4.32-6.75-14.9-7.68-23.63-2.08-8.74 5.6-12.32 15.62-8.01 22.37 4.32 6.76 14.9 7.69 23.63 2.09z" fill="#ffdbac"/><path d="m485.23 359.35c.54 10.44-1.08 18.63-5.43 23.56-6.66 7.54-18.9 11.5-34.61 12.42-1.51.09-3.06.15-4.63.18l2.71-35.03v-.01c15.24 1.6 29.49 1.38 41.95-1.12z" fill="#a35757"/><path d="m485.23 359.35h-.01c-12.46 2.5-26.71 2.72-41.95 1.12-1.32-.13-2.65-.28-3.99-.45l3.51-54.5v-.01c16.24.35 28.67-1.28 28.67-1.28 7.87 20.99 12.99 40.32 13.77 55.12z" fill="#933a3a"/><path d="m484.18 469.5s-25.6.46-28.93-14.22 16.78-20.14 16.78-20.14c1.13 2.24 2.19 4.49 3.19 6.75 4.07 9.14 7.07 18.34 8.96 27.61z" fill="#ad6a6a"/><path d="m433.85 226.08c14.66 25.12 28.13 52.85 37.61 78.15 0 0-12.43 1.63-28.67 1.28-4.67-.1-9.66-.36-14.75-.87 0 0-1.27-18.44-13.06-44.72 16.05-15.46 18.87-33.84 18.87-33.84z" fill="#a35757"/><path d="m445.19 395.33c5.79 6.85 11 13.73 15.62 20.64 0 0-17.82 14.8-34.83 7.75-17-7.05-21.08-31.22-21.08-31.22 12.89 2.17 24.97 3.23 35.66 3.01 1.57-.03 3.12-.09 4.63-.18z" fill="#9e4949"/><path d="m443.27 360.47v.01l-2.71 35.03c-10.69.22-22.77-.84-35.66-3.01-1.67-.28-3.35-.58-5.04-.9l8.19-37.45c10.66 2.63 21.14 4.63 31.23 5.87 1.34.17 2.67.32 3.99.45z" fill="#ad6a6a"/><path d="m442.79 305.51v.01l-3.51 54.5c-10.09-1.24-20.57-3.24-31.23-5.87-11.69-2.87-23.6-6.49-35.42-10.69l14.18-51.09c1.55.96 3.12 1.85 4.7 2.67 10.79 5.57 23.99 8.34 36.53 9.6 5.09.51 10.08.77 14.75.87z" fill="#9e4949"/><path d="m425.56 450.98c15.73 3.47 14.5 34.08 14.5 34.08-11.62-3.84-24.22-8.43-36.25-13.67 0 0 6.01-23.88 21.75-20.41z" fill="#ad6a6a"/><path d="m433.85 226.08s-2.82 18.38-18.87 33.84c-8.25-18.41-21.66-40.66-43.39-63.12 11.79-19.86-.03-48.7-.41-49.62 5.28 4.23 10.28 8.65 14.93 13.24 14.97 14.78 32.04 38.73 47.74 65.66z" fill="#ad6a6a"/><path d="m414.98 259.92c11.79 26.28 13.06 44.72 13.06 44.72-12.54-1.26-25.74-4.03-36.53-9.6-1.58-.82-3.15-1.71-4.7-2.67-5.37-3.33-10.57-7.49-15.61-12.2 0 0 27.72-4.8 43.78-20.25z" fill="#ad6a6a"/><path d="m408.05 354.15-8.19 37.45c-2.81-.52-5.65-1.1-8.51-1.73-11.87-2.59-24.21-6.03-36.61-10.19v-.01l7.26-40.14c3.53 1.36 7.07 2.67 10.63 3.93 11.82 4.2 23.73 7.82 35.42 10.69z" fill="#a35757"/><path d="m414.98 259.92c-16.06 15.45-43.78 20.25-43.78 20.25-12.53-11.66-24.14-26.63-35.37-40.38-3.17-3.88-6.31-7.66-9.43-11.24 0 0 33.21-11.56 45.19-31.75 21.73 22.46 35.14 44.71 43.39 63.12z" fill="#a35757"/><path d="m386.81 292.37-14.18 51.09c-3.56-1.26-7.1-2.57-10.63-3.93-15.22-5.85-30.16-12.58-44.17-19.78-6.21-3.18-12.23-6.47-18.02-9.82l35.59-69.79.43-.35c11.23 13.75 22.84 28.72 35.37 40.38 5.04 4.71 10.24 8.87 15.61 12.2z" fill="#933a3a"/><path d="m386.22 433.08c10.8 10.99-2.6 28.52-2.6 28.52-8.56-4.68-16.22-9.72-22.24-15.05-3.45-3.06-6.6-6.29-9.5-9.63 0 0 23.54-14.84 34.34-3.84z" fill="#ad6a6a"/><path d="m371.18 147.18c.38.92 12.2 29.76.41 49.62-4.43-4.58-9.21-9.18-14.37-13.75-16.27-14.42-32.64-25.92-48.08-35.04 11.85-20.02 2.07-36.6 1.68-37.25 21.31 9.78 42.44 22.04 60.36 36.42z" fill="#a35757"/><path d="m391.35 389.87s-8.49 24.99-24.62 20.44c-16.13-4.56-21.39-33.92-21.39-33.92 3.13 1.14 6.27 2.24 9.4 3.28v.01c12.4 4.16 24.74 7.6 36.61 10.19z" fill="#9e4949"/><path d="m362 339.53-7.26 40.14c-3.13-1.04-6.27-2.14-9.4-3.28-8.1-2.96-16.19-6.21-24.14-9.73-5.21-2.31-10.37-4.73-15.44-7.27l12.07-39.64c14.01 7.2 28.95 13.93 44.17 19.78z" fill="#ad6a6a"/><path d="m283.51 194.14c-7.34-4.41-14.91-8.86-22.19-13.62 0 0 35.74-12.08 47.82-32.51 15.44 9.12 31.81 20.62 48.08 35.04 5.16 4.57 9.94 9.17 14.37 13.75-11.98 20.19-45.19 31.75-45.19 31.75-4.76-5.46-9.47-10.46-14.18-14.64-8.01-7.1-18.12-13.41-28.71-19.77z" fill="#ad6a6a"/><path d="m335.83 239.79-.43.35-35.59 69.79c-7.69-4.43-14.96-8.98-21.69-13.56-8.7-5.92-16.49-11.88-23.07-17.72-4.19-3.71-8.37-7.68-12.53-11.88-6.17-6.21-12.26-12.91-18.19-19.97l59.18-52.66c10.59 6.36 20.7 12.67 28.71 19.77 4.71 4.18 9.42 9.18 14.18 14.64 3.12 3.58 6.26 7.36 9.43 11.24z" fill="#9e4949"/><path d="m299.81 309.93c5.79 3.35 11.81 6.64 18.02 9.82l-12.07 39.64c-11.45-5.72-22.46-11.98-32.64-18.7-4.99-3.29-9.99-6.86-14.97-10.65l19.97-33.67c6.73 4.58 14 9.13 21.69 13.56z" fill="#a35757"/><path d="m310.82 110.76c.39.65 10.17 17.23-1.68 37.25-47.67-28.18-86.53-33.87-86.53-33.87 4.87-15.97 17.15-27.09 17.15-27.09 20.69 4.1 46.01 12.19 71.06 23.71z" fill="#ad6a6a"/><path d="m283.51 194.14-59.18 52.66c-4.05-4.82-8.01-9.8-11.85-14.91-8.23-10.89-15.93-22.35-22.8-34-5.48-9.28-10.43-18.69-14.68-28l51.12-23.09c7.92 13.89 20.98 24.41 35.2 33.72 7.28 4.76 14.85 9.21 22.19 13.62z" fill="#933a3a"/><path d="m309.14 148.01c-12.08 20.43-47.82 32.51-47.82 32.51-14.22-9.31-27.28-19.83-35.2-33.72-6.69-11.73-6.44-23.07-3.51-32.66 0 0 38.86 5.69 86.53 33.87z" fill="#a35757"/><path d="m278.12 296.37-19.97 33.67c-12.53-9.55-24.97-20.57-36.89-32.41l21.26-30.86c4.16 4.2 8.34 8.17 12.53 11.88 6.58 5.84 14.37 11.8 23.07 17.72z" fill="#ad6a6a"/><path d="m242.52 266.77-21.26 30.86c-11.95-11.84-23.39-24.51-33.89-37.3l25.1-28.43.01-.01c3.84 5.11 7.8 10.09 11.85 14.91 5.93 7.06 12.02 13.76 18.19 19.97z" fill="#a35757"/><path d="m230.79 353.41s5.45 23.52-1.82 31.76c0 0-24.75-12.78-31.04-26.57s7.01-27.82 7.01-27.82c8.56 7.92 17.27 15.55 25.85 22.63z" fill="#a35757"/><path d="m226.12 146.8-51.12 23.09c-2.06-4.5-3.95-8.97-5.66-13.4-7.28-18.81-11.33-36.86-10.76-52.46 16.08-12.34 36.45-20.2 55.12-20.05 7.26.06 16.13 1.1 26.06 3.07 0 0-12.28 11.12-17.15 27.09-2.93 9.59-3.18 20.93 3.51 32.66z" fill="#9e4949"/><path d="m212.48 231.89-.01.01-25.1 28.43c-8.95-10.89-17.21-21.87-24.53-32.53-1.22-1.78-2.41-3.54-3.58-5.29l30.42-24.62c6.87 11.65 14.57 23.11 22.8 34z" fill="#ad6a6a"/><path d="m189.68 197.89-30.42 24.62c-9.93-14.96-17.9-29.13-23.14-41.34l33.21-24.68h.01c1.71 4.43 3.6 8.9 5.66 13.4 4.25 9.31 9.2 18.72 14.68 28z" fill="#a35757"/><path d="m185.63 312.17s-1.67 19.61-9.96 26.09c-8.13 6.37-20 2.37-20.42 2.23-.01-.01-.01-.01-.01-.01-.84-1.92-1.62-3.81-2.31-5.67-8.6-23.07.74-56.43.94-57.13 9.34 11.13 20.19 22.89 31.76 34.49z" fill="#a35757"/><g fill="#ad6a6a"><path d="m169.34 156.49h-.01l-33.21 24.68c-2.68-6.21-4.65-11.91-5.81-16.95-.85-3.62-1.28-6.89-1.26-9.77.12-19.03 12.39-37.27 29.53-50.42-.57 15.6 3.48 33.65 10.76 52.46z"/><path d="m140.76 239.55c-3.14 2.36-6.25 5.12-9.08 8.31-1.42 1.59-2.77 3.29-4.01 5.1-3.69 5.39-4.59 14.16-4.23 24.61-15.71-6.94-27.17-18.83-20.61-33.85 6.65-15.26 26.5-16.49 37.93-4.17z"/><path d="m132.6 64.61c-.54.09-18.52 2.86-26.21-10.62-7.81-13.69 6.55-28.1 6.55-28.1 9.51 12.33 15.47 26.88 19.66 38.72z"/><path d="m125.58 301.67c1.57 13.44 3.39 27.49 3.32 39.73 0 0-28.56 1.51-34.75-9.91-6.19-11.43 2.51-29.37 11.19-33.42 8.69-4.05 20.24 3.6 20.24 3.6z"/><path d="m123.84 367.45c-7.81 17.35-23.71 32.26-32.99 39.96-3.75 3.11-9.37 2.24-12.01-1.86-2.66-4.14-6.22-9.77-10.22-16.23h.01s6.91-20.11 21.27-26.54c14.14-6.35 33.38 4.35 33.94 4.67z"/><path d="m109.34 198.87c3.35 6.74-1.33 15.89-10.44 20.43s-19.21 2.75-22.56-3.99c-3.34-6.74 1.33-15.88 10.44-20.43 9.12-4.54 19.22-2.75 22.56 3.99z"/><path d="m86.81 275.05c4.31 6.76.73 16.78-8.01 22.38-8.73 5.6-19.31 4.67-23.63-2.09-4.31-6.75-.73-16.77 8.01-22.37 8.73-5.6 19.31-4.67 23.63 2.08z"/><path d="m69.83 330.28c9.38 17.61-16.64 33.12-16.64 33.12-10.38-18.21-19.84-36.83-21.61-46.91 0 0 28.88-3.83 38.25 13.79z"/><path d="m43.6 216.47s24.06 7.33 22.46 25.28c-1.6 17.96-32.69 20.06-32.69 20.06 2.16-15.75 5.56-31.99 10.23-45.34z"/><path d="m82.42 3.19s-5.64 18.87-20.67 18.03c-15.02-.84-18.06-19.47-18.06-19.47v-.01c12.46-2.34 26.1-2.74 38.73 1.45z"/><path d="m20.23 8.51c.31.55 10.22 18.33 4.72 24.56-5.59 6.33-24.57 3.05-24.57 3.05-.29-3.62-.38-6.88-.38-9.62 0-5.44 3.1-10.37 7.99-12.73 3.26-1.57 7.42-3.43 12.24-5.26z"/></g><path d="m50.43 47.26c14.396 4.978 23.955 14.14 29.85 26.47-7.29 8.26-19.89 9.03-28.13 1.72-8.25-7.31-9.02-19.93-1.72-28.19z" fill="#d6eae8"/><path d="m78.56 45.54c8.24 7.31 9.01 19.93 1.72 28.19l-29.85-26.47c7.29-8.25 19.89-9.03 28.13-1.72z" fill="#543927"/><path d="m73.36 379.34c-3.17 5.45-4.73 9.98-4.73 9.98h-.01c-2.3-3.73-4.74-7.73-7.23-11.89 4.27 1.22 8.25 1.83 11.97 1.91z" fill="#eac8a0"/><path d="m123.84 367.45c-7.81 17.35-23.71 32.26-32.99 39.96-3.75 3.11-9.37 2.24-12.01-1.86-2.66-4.14-6.22-9.77-10.22-16.23h.01s1.56-4.53 4.73-9.98c14.48.35 24.94-7.32 32.48-18.1 9.52 1.48 17.64 6 18 6.21z" fill="#a35757"/><path d="m125.58 301.67c-.75 7.53-3.83 23.43-9.59 39.31 7.01.73 12.91.42 12.91.42.07-12.24-1.75-26.29-3.32-39.73z" fill="#a35757"/><path d="m128.9 341.4c-.02 5.7-.46 11-1.52 15.68-.8 3.53-2.02 6.99-3.54 10.37-.36-.21-8.48-4.73-18-6.21 4.24-6.06 7.56-13.1 10.15-20.26 7.01.73 12.91.42 12.91.42z" fill="#eac8a0"/><path d="m479.8 382.91c3.07 5.25 5.78 10.56 8.06 15.97-7.87 5.67-18.19 9.78-30.41 12.22-3.74-5.27-7.83-10.53-12.26-15.77 15.71-.92 27.95-4.88 34.61-12.42z" fill="#e0b377"/><path d="m445.19 395.33c4.43 5.24 8.52 10.5 12.26 15.77-12.8 2.57-27.68 3.31-44 2.1-6.64-9.4-8.55-20.7-8.55-20.7 12.89 2.17 24.97 3.23 35.66 3.01 1.57-.03 3.12-.09 4.63-.18z" fill="#933a3a"/><path d="m404.9 392.5s1.91 11.3 8.55 20.7c-10.96-.8-22.56-2.48-34.62-5.07 8.25-5.68 12.52-18.26 12.52-18.26 2.86.63 5.7 1.21 8.51 1.73 1.69.32 3.37.62 5.04.9z" fill="#edca9f"/><path d="m354.74 379.67v.01c12.4 4.16 24.74 7.6 36.61 10.19 0 0-4.27 12.58-12.52 18.26-7.48-1.61-15.12-3.56-22.9-5.88-7.79-10.22-10.59-25.86-10.59-25.86 3.13 1.14 6.27 2.24 9.4 3.28z" fill="#933a3a"/><path d="m345.34 376.39s2.8 15.64 10.59 25.86c-9.39-2.79-18.97-6.11-28.66-9.96-4.9-14.75-6.07-25.63-6.07-25.63 7.95 3.52 16.04 6.77 24.14 9.73z" fill="#edca9f"/><path d="m305.76 359.39c5.07 2.54 10.23 4.96 15.44 7.27 0 0 1.17 10.88 6.07 25.63-31.23-12.43-63.58-30.44-94.3-54.53-47.84-37.51-73.88-72.59-87.88-101.25 9.36-6.09 17.75-8.71 17.75-8.71 7.32 10.66 15.58 21.64 24.53 32.53 10.5 12.79 21.94 25.46 33.89 37.3 11.92 11.84 24.36 22.86 36.89 32.41 4.98 3.79 9.98 7.36 14.97 10.65 10.18 6.72 21.19 12.98 32.64 18.7z" fill="#e0b377"/><path d="m136.12 181.17c5.24 12.21 13.21 26.38 23.14 41.34 1.17 1.75 2.36 3.51 3.58 5.29 0 0-8.39 2.62-17.75 8.71-21.28-43.55-14.79-72.29-14.79-72.29h.01c1.16 5.04 3.13 10.74 5.81 16.95z" fill="#edca9f"/></g></svg>