<svg id="Capa_1" enable-background="new 0 0 512 512" height="512" viewBox="0 0 512 512" width="512" xmlns="http://www.w3.org/2000/svg"><g><g><g><g><path d="m370.778 256.417c7.731-12.273 13.551-26.042 16.932-40.996 15.976-70.656-28.351-140.886-99.008-156.862s-140.886 28.351-156.862 99.008c-4.091 18.095-4.219 36.159-.971 53.294z" fill="#a8e7ef"/><path d="m387.705 215.424c-3.371 14.948-9.191 28.718-16.931 40.994l-35.754-6.789c7.73-12.278 13.55-26.048 16.931-40.994 14.971-66.165-22.952-131.961-85.867-153.171 7.49.368 15.05 1.378 22.625 3.093 70.647 15.98 114.979 86.209 98.996 156.867z" fill="#70d9e6"/><ellipse cx="256" cy="206.375" fill="#1c96f9" rx="94.104" ry="259.951" transform="matrix(.187 -.982 .982 .187 5.489 419.38)"/><circle cx="88.864" cy="129.202" fill="#1785f8" r="22.247"/><path d="m511.383 254.87c-9.695 51.057-131.889 70.742-272.943 43.958-78.301-14.869-145.949-40.928-188.977-69.915 41.898 22.096 97.899 41.248 160.775 53.188 141.044 26.783 263.246 7.11 272.943-43.958 4.317-22.733-14.393-47.847-48.94-71.082 52.163 27.474 82.519 59.495 77.142 87.809z" fill="#1785f8"/><ellipse cx="247.536" cy="250.946" fill="#d4f2f6" rx="48.736" ry="153.442" transform="matrix(.187 -.982 .982 .187 -45.184 447.321)"/><path d="m349.682 485.846-283.287-53.794c-6.22-1.181-9.912-7.64-7.775-13.599l78.967-220.154c29.654-5.272 72.516-4.065 119.041 4.77s86.846 23.423 112.503 39.198l-7.231 233.776c-.195 6.328-5.999 10.984-12.218 9.803z" fill="#d2f0a2"/><g fill="#bcea73"><path d="m369.128 242.263c-25.657-15.775-65.979-30.364-112.503-39.198-46.525-8.835-89.387-10.042-119.041-4.77l-9.971 27.782c18.882-4.019 43.967-5.15 72.35-3.05l-30.175 120.837c-1.034 4.14 1.484 8.334 5.624 9.368.629.157 1.259.232 1.878.232 3.463 0 6.614-2.345 7.49-5.857l30.75-123.141c11.626 1.29 23.685 3.094 35.999 5.432 12.317 2.339 24.2 5.082 35.492 8.144l-7.572 57.652c-.555 4.231 2.424 8.111 6.655 8.667.341.045.68.067 1.016.067 3.819 0 7.14-2.832 7.651-6.721l7.263-55.297c27.177 8.451 50.101 18.697 66.188 29.356z"/><path d="m349.679 485.842-26.519-5.036 7.949-256.9c14.717 5.712 27.59 11.936 38.019 18.357l-7.231 233.776c-.195 6.329-5.999 10.984-12.218 9.803z"/></g></g><g><g><ellipse cx="60.905" cy="179.236" fill="#d4f2f6" rx="15.402" ry="17.745" transform="matrix(.187 -.982 .982 .187 -126.546 205.634)"/></g><g><ellipse cx="154.542" cy="149.46" fill="#d4f2f6" rx="15.402" ry="17.745" transform="matrix(.187 -.982 .982 .187 -21.125 273.406)"/></g><g><ellipse cx="264.749" cy="160.302" fill="#d4f2f6" rx="15.402" ry="17.745" transform="matrix(.187 -.982 .982 .187 57.87 390.498)"/></g><g><ellipse cx="447.463" cy="252.64" fill="#d4f2f6" rx="15.402" ry="17.745" transform="matrix(.187 -.982 .982 .187 115.782 645.116)"/></g><g><ellipse cx="371.259" cy="190.613" fill="#d4f2f6" rx="15.402" ry="17.745" transform="matrix(.187 -.982 .982 .187 114.731 519.794)"/></g></g></g></g><g><path d="m135.731 28.234c-3.017-3.017-7.908-3.018-10.928 0l-4.116 4.116-4.116-4.116c-3.018-3.017-7.909-3.017-10.928 0-3.017 3.018-3.017 7.909 0 10.927l4.116 4.116-4.116 4.116c-3.017 3.017-3.017 7.909 0 10.927 1.509 1.509 3.486 2.263 5.464 2.263 1.977 0 3.955-.755 5.464-2.263l4.116-4.116 4.116 4.116c1.509 1.509 3.487 2.263 5.464 2.263s3.955-.755 5.464-2.263c3.017-3.018 3.017-7.909 0-10.927l-4.116-4.116 4.116-4.116c3.017-3.018 3.017-7.91 0-10.927z" fill="#64b9fc"/><path d="m395.08 60.118c1.509 1.509 3.487 2.263 5.464 2.263s3.955-.755 5.464-2.263c3.017-3.017 3.017-7.909 0-10.927l-4.116-4.116 4.116-4.116c3.017-3.017 3.017-7.909 0-10.927-3.018-3.017-7.909-3.017-10.928 0l-4.115 4.115-4.115-4.115c-3.018-3.017-7.909-3.017-10.928 0-3.017 3.017-3.017 7.909 0 10.927l4.116 4.116-4.116 4.116c-3.017 3.017-3.017 7.909 0 10.927 1.509 1.509 3.487 2.263 5.464 2.263s3.955-.755 5.464-2.263l4.115-4.115z" fill="#64b9fc"/><path d="m421.05 375.721 4.116-4.116c3.017-3.018 3.017-7.909 0-10.927-3.018-3.017-7.909-3.017-10.928 0l-4.115 4.115-4.115-4.115c-3.017-3.017-7.908-3.018-10.928 0-3.017 3.017-3.017 7.909 0 10.927l4.116 4.116-4.116 4.116c-3.017 3.018-3.017 7.909 0 10.927 1.509 1.509 3.487 2.263 5.464 2.263s3.955-.755 5.464-2.263l4.115-4.115 4.115 4.115c1.509 1.509 3.486 2.263 5.464 2.263 1.977 0 3.955-.755 5.464-2.263 3.017-3.017 3.017-7.909 0-10.927z" fill="#a8e7ef"/></g><g><circle cx="439.023" cy="111.165" fill="#a8e7ef" r="22.247"/><path d="m461.268 111.163c0 12.291-9.963 22.254-22.244 22.254-4.117 0-7.981-1.118-11.285-3.08 8.733-2.013 15.24-9.831 15.24-19.174 0-9.333-6.496-17.161-15.229-19.174 3.304-1.952 7.157-3.07 11.275-3.07 12.28-.001 22.243 9.962 22.243 22.244z" fill="#70d9e6"/></g><g><circle cx="88.864" cy="111.165" fill="#bcea73" r="22.247"/><path d="m111.109 111.163c0 12.291-9.963 22.254-22.244 22.254-4.117 0-7.981-1.118-11.285-3.08 8.733-2.013 15.24-9.831 15.24-19.174 0-9.333-6.496-17.161-15.229-19.174 3.304-1.952 7.157-3.07 11.275-3.07 12.28-.001 22.243 9.962 22.243 22.244z" fill="#99d53b"/></g></g></svg>