<svg id="Capa_1" enable-background="new 0 0 512 512" height="512" viewBox="0 0 512 512" width="512" xmlns="http://www.w3.org/2000/svg"><g><g><path d="m259.667 29.799c-17.069 3.432-34.819-17.511-41.614-26.601-1.837-2.458-4.916-3.648-7.925-3.043l-20.171 4.056-20.17 4.056c-3.008.605-5.388 2.892-6.133 5.869-2.754 11.01-11.03 37.185-28.099 40.617" fill="#678d98"/></g><g><path d="m146.171 459.914c17.178 2.838 26.356 28.711 29.49 39.619.847 2.949 3.305 5.153 6.333 5.653l20.299 3.354 20.299 3.354c3.027.5 6.064-.796 7.815-3.316 6.476-9.32 23.489-30.866 40.667-28.027" fill="#678d98"/></g><g><path d="m419.442 389.59c6.769-19.869 39.354-25.674 52.945-27.246 3.675-.425 6.781-2.913 7.974-6.415l7.999-23.479 7.999-23.479c1.193-3.502.251-7.369-2.4-9.949-9.805-9.543-32.069-34.034-25.3-53.903" fill="#678d98"/></g><g><path d="m402.656 415.915c70.691-70.691 85.012-176.405 42.967-261.289l.141.065c-.085-.085-.159-.178-.243-.265-1.94-3.907-4.011-7.765-6.19-11.578-3.941-15.245 2.024-35.454 5.399-44.937 1.183-3.324.361-7.03-2.134-9.525l-16.728-16.726-16.728-16.727c-2.495-2.495-6.201-3.317-9.525-2.134-9.483 3.374-29.692 9.34-44.937 5.399-3.813-2.179-7.671-4.25-11.578-6.19-.087-.084-.18-.158-.265-.243l.065.141c-84.882-42.046-190.596-27.725-261.287 42.966-.847.847-1.67 1.708-2.501 2.565-10.936 3.981-25.469 2.611-32.66 1.549-2.734-.404-5.456.791-6.994 3.087l-10.312 15.395-10.312 15.395c-1.538 2.296-1.606 5.268-.192 7.642 4.21 7.071 12.367 22.692 10.834 35.312-1.034 2.769-2.008 5.556-2.93 8.355-.026.039-.046.08-.072.118l.043-.031c-18.497 56.215-14.46 118.222 12.13 171.902l-.141-.065c.085.085.159.178.243.265 1.94 3.907 4.011 7.765 6.19 11.578 3.941 15.245-2.024 35.454-5.399 44.937-1.183 3.324-.361 7.03 2.134 9.525l16.728 16.728 16.728 16.728c2.495 2.495 6.201 3.317 9.525 2.134 9.483-3.374 29.692-9.34 44.937-5.399 3.813 2.179 7.671 4.25 11.577 6.19.087.084.18.158.265.243l-.065-.141c56.436 27.955 122.079 30.988 180.516 9.108 10.305 1.71 20.941 7.928 26.293 11.429 2.215 1.449 5.061 1.504 7.321.125l15.148-9.244 15.148-9.244c2.259-1.379 3.512-3.935 3.236-6.568-.637-6.075-1.274-17.569 1.45-27.256 4.159-3.6 8.224-7.367 12.175-11.319z" fill="#a8d3d8"/></g><g><path d="m445.623 154.627.141.065c-.085-.085-.159-.178-.243-.265-1.94-3.907-4.011-7.765-6.19-11.578-3.948-15.271 2.044-35.523 5.416-44.985 1.178-3.307.331-6.994-2.151-9.476l-16.728-16.728-16.728-16.728c-2.495-2.495-6.201-3.317-9.525-2.134-1.548.551-3.387 1.172-5.439 1.806l9.529 9.529c2.383 2.383 3.197 5.923 2.065 9.098-1.343 3.77-3.12 9.324-4.468 15.58-2.815 13.061-.794 26.656 5.155 38.618.019.038.037.075.056.113.08.083.152.173.233.254l-.135-.063c40.371 81.503 26.62 183.006-41.255 250.882-.038.038-.076.076-.114.114-9.403 9.389-14.305 22.387-13.099 35.619.042.459.085.894.128 1.304.265 2.528-.938 4.982-3.107 6.306l-14.544 8.876-14.545 8.876c-2.159 1.318-4.882 1.286-6.999-.1-.178-.117-.363-.237-.553-.36-11.69-7.541-26.124-9.641-39.467-5.708-52.231 15.397-109.092 10.842-158.581-13.671l.062.136c-.082-.082-.171-.153-.255-.233-.038-.019-.075-.037-.113-.056-11.966-5.952-25.564-7.97-38.628-5.153-6.251 1.348-11.801 3.123-15.569 4.466-3.176 1.131-6.715.319-9.099-2.065l-9.529-9.529c-.635 2.052-1.255 3.891-1.806 5.439-1.183 3.324-.361 7.03 2.134 9.525l16.728 16.728 16.727 16.728c2.482 2.482 6.169 3.329 9.476 2.151 9.462-3.371 29.715-9.364 44.985-5.416 3.813 2.179 7.671 4.25 11.578 6.19.087.084.18.158.265.243l-.065-.141c56.436 27.955 122.079 30.988 180.516 9.108 10.325 1.713 20.982 7.952 26.324 11.45 2.204 1.444 5.04 1.477 7.29.105l15.148-9.244 15.148-9.244c2.255-1.376 3.514-3.92 3.238-6.548-.637-6.07-1.279-17.579 1.448-27.275 4.16-3.599 8.226-7.366 12.177-11.317 70.693-70.695 85.013-176.409 42.968-261.292z" fill="#8ebac5"/></g><g><circle cx="125.266" cy="277.479" fill="#7ca1b1" r="51.022"/></g><g><circle cx="125.266" cy="277.479" fill="#3e5959" r="20.905"/></g><g><circle cx="301.191" cy="145.683" fill="#7ca1b1" r="51.022"/></g><g><circle cx="301.191" cy="145.683" fill="#3e5959" r="20.905"/></g><g><circle cx="301.492" cy="338.387" fill="#7ca1b1" r="51.022"/></g><g><circle cx="301.492" cy="338.387" fill="#3e5959" r="20.905"/></g><g><path d="m160.228 137.585h-14.057c-4.268 0-7.726-3.459-7.726-7.726s3.459-7.726 7.726-7.726h14.057c4.268 0 7.726 3.459 7.726 7.726s-3.458 7.726-7.726 7.726z" fill="#7ca1b1"/></g><g><path d="m183.318 401.934h-14.058c-4.268 0-7.726-3.459-7.726-7.726s3.459-7.726 7.726-7.726h14.057c4.268 0 7.726 3.459 7.726 7.726.001 4.267-3.458 7.726-7.725 7.726z" fill="#7ca1b1"/></g><g><path d="m380.147 252.845h-14.057c-4.268 0-7.726-3.459-7.726-7.726s3.459-7.726 7.726-7.726h14.057c4.268 0 7.726 3.459 7.726 7.726s-3.459 7.726-7.726 7.726z" fill="#7ca1b1"/></g></g></svg>