<?xml version="1.0" encoding="iso-8859-1"?>
<!-- Generator: Adobe Illustrator 19.0.0, SVG Export Plug-In . SVG Version: 6.00 Build 0)  -->
<svg version="1.1" id="Capa_1" xmlns="http://www.w3.org/2000/svg" xmlns:xlink="http://www.w3.org/1999/xlink" x="0px" y="0px"
	 viewBox="0 0 512.01 512.01" style="enable-background:new 0 0 512.01 512.01;" xml:space="preserve">
<g>
	<path style="fill:#E24B4B;" d="M383.808,126.662c0,0,22.112,25.376,27.328,126.192c64.4,27.968,100.176,109.28,100.176,109.28
		C523.008,228.15,383.808,126.662,383.808,126.662z"/>
	<path style="fill:#E24B4B;" d="M0,53.814c84.56-3.904,158.08,44.24,158.08,44.24s53.344-31.872,108.64-37.072
		C130.096,6.966,0,53.814,0,53.814z"/>
</g>
<path style="fill:#D03F3F;" d="M158.08,98.038L158.08,98.038c0,0-35.344-23.12-85.184-36.016l-40.368,43.824
	c64.4,29.28,111.84,92.368,111.84,92.368l95.072-70.368C214.256,115.862,186.976,105.43,158.08,98.038z"/>
<path style="fill:#F4C534;" d="M239.44,127.846L239.44,127.846l-93.36,69.104l-1.712,1.264
	C278.32,247.654,306.4,295.142,306.4,295.142c8.464-22.112,26.72-110.656,26.72-110.656
	C307.072,165.27,275.392,144.966,239.44,127.846z"/>
<path style="fill:#DF9D27;" d="M325.648,179.046v0.032c2.528,1.808,5.04,3.616,7.472,5.392
	C330.672,182.678,328.192,180.87,325.648,179.046z"/>
<path style="fill:#D03F3F;" d="M411.12,252.87C410.16,234.326,410.16,234.326,411.12,252.87c0,0-29.056-32.272-78-68.384
	c0,0-18.272,88.544-26.736,110.672c81.312,24.064,145.056,59.2,145.056,59.2l-12.624-85.232
	C430.288,262.758,421.04,257.174,411.12,252.87z"/>
<path style="fill:#F4C534;" d="M432.832,264.87c2.032,1.376,4.048,2.784,6,4.24l12.624,85.232c0,0,35.776,1.296,59.84,7.808
	C511.296,362.15,483.504,299.014,432.832,264.87z"/>
<path style="fill:#3E4347;" d="M115.6,477.046c-1.888,0-3.808-0.496-5.536-1.568c-4.992-3.056-6.56-9.584-3.472-14.576
	l231.824-377.28c3.056-4.992,9.568-6.576,14.576-3.472c4.992,3.056,6.56,9.584,3.472,14.576L124.64,472.006
	C122.64,475.254,119.168,477.046,115.6,477.046z"/>
<path style="fill:#FFD93B;" d="M158.08,98.038c0,0,53.344-31.872,108.64-37.088c0,0,44.24,10.416,117.088,65.696
	c0,0,22.112,25.376,27.328,126.192C411.12,252.87,305.744,135.766,158.08,98.038z"/>
<path style="fill:#F4C534;" d="M0,53.814c0,0,26.016,28.624,32.528,52.048c0,0,32.08-20.976,68.432-35.104
	C73.184,60.678,37.696,52.07,0,53.814z"/>
<g>
</g>
<g>
</g>
<g>
</g>
<g>
</g>
<g>
</g>
<g>
</g>
<g>
</g>
<g>
</g>
<g>
</g>
<g>
</g>
<g>
</g>
<g>
</g>
<g>
</g>
<g>
</g>
<g>
</g>
</svg>
