<svg height="512" viewBox="0 0 64 64" width="512" xmlns="http://www.w3.org/2000/svg"><g id="Layer_31" data-name="Layer 31"><path d="m54.012 28.349-8.812-11.749a4 4 0 0 0 -3.2-1.6h-37a4 4 0 0 0 -4 4v22a4 4 0 0 0 4 4h54a4 4 0 0 0 4-4v-5.531a4 4 0 0 0 -3.434-3.96l-.286-.04a8 8 0 0 1 -5.268-3.12z" fill="#e6e6e6"/><path d="m49 38a5.967 5.967 0 0 0 -5.91 7h11.82a5.967 5.967 0 0 0 -5.91-7z" fill="#cecece"/><path d="m62 42h-32a26 26 0 0 1 -26-26 3.974 3.974 0 0 1 .108-.892 4 4 0 0 0 -3.108 3.892v22a4 4 0 0 0 4 4h54a4 4 0 0 0 3.892-3.108 3.974 3.974 0 0 1 -.892.108z" fill="#cecece"/><path d="m47 30h-10a2 2 0 0 1 -2-2v-8a2 2 0 0 1 2-2h4a2 2 0 0 1 1.6.8l6 8a2 2 0 0 1 -1.6 3.2z" fill="#a7d0e1"/><path d="m43.251 24a1 1 0 0 1 -.8-.4l-1.251-1.666a1 1 0 0 1 1.6-1.2l1.25 1.666a1 1 0 0 1 -.8 1.6z" fill="#fff"/><path d="m44 27a6 6 0 0 1 -6-6v-3h-1a2 2 0 0 0 -2 2v8a2 2 0 0 0 2 2h10a1.989 1.989 0 0 0 1.71-3z" fill="#80bbce"/><path d="m13 30h-7a2 2 0 0 1 -2-2v-8a2 2 0 0 1 2-2h7z" fill="#a7d0e1"/><path d="m13 27a6 6 0 0 1 -6-6v-3h-1a2 2 0 0 0 -2 2v8a2 2 0 0 0 2 2h7z" fill="#80bbce"/><path d="m13 18h9v12h-9z" fill="#a7d0e1"/><path d="m16 21v-3h-3v12h9v-3a6 6 0 0 1 -6-6z" fill="#80bbce"/><path d="m29 30h-7v-12h7a2 2 0 0 1 2 2v8a2 2 0 0 1 -2 2z" fill="#a7d0e1"/><path d="m25 21v-3h-3v12h7a2 2 0 0 0 2-2v-1a6 6 0 0 1 -6-6z" fill="#80bbce"/><circle cx="51" cy="43" fill="#7a838b" r="6"/><circle cx="13" cy="43" fill="#7a838b" r="6"/><path d="m16 46a5.993 5.993 0 0 1 -5.466-8.466 6 6 0 1 0 7.932 7.932 5.974 5.974 0 0 1 -2.466.534z" fill="#5d6972"/><path d="m54 46a5.993 5.993 0 0 1 -5.466-8.466 6 6 0 1 0 7.932 7.932 5.974 5.974 0 0 1 -2.466.534z" fill="#5d6972"/><circle cx="13" cy="43" fill="#a7d0e1" r="2"/><circle cx="51" cy="43" fill="#a7d0e1" r="2"/><path d="m1 35h1a2 2 0 0 1 2 2v2a2 2 0 0 1 -2 2h-1a0 0 0 0 1 0 0v-6a0 0 0 0 1 0 0z" fill="#80bbce"/><path d="m57 35h2a4 4 0 0 1 4 4 0 0 0 0 1 0 0h-6a0 0 0 0 1 0 0v-4a0 0 0 0 1 0 0z" fill="#a7d0e1" transform="matrix(-1 0 0 -1 120 74)"/><path d="m39 32h-2a1 1 0 0 0 0 2h2a1 1 0 0 0 0-2z" fill="#7a838b"/><path d="m29 32a1 1 0 0 0 -1 1v1a1 1 0 0 0 2 0v-1a1 1 0 0 0 -1-1z" fill="#7a838b"/><g fill="#e6e6e6"><path d="m21 18h2v12h-2z"/><path d="m12 18h2v12h-2z"/></g></g></svg>