<svg id="Flat" height="512" viewBox="0 0 340 340" width="512" xmlns="http://www.w3.org/2000/svg"><path d="m155.033 84.3c-.117 0-5.345-.778-6.448-1.053a47.532 47.532 0 0 1 -16.944-8.036c-5.092-28.417-37.595-25.594-46.8-24.2a1.223 1.223 0 0 0 -.686 2.067c2.79 2.827 8.688 9.544 15.837 21.964 7.475 12.985 22.743 8.375 29.2 5.664 10.311 8.734 25.822 11.622 25.978 11.619a4.015 4.015 0 0 0 -.139-8.028z" fill="#4d563e"/><path d="m33.1 59.022a4 4 0 0 0 -5.643-.46 37.737 37.737 0 0 0 -5.088 5.24 42.447 42.447 0 0 0 -3.859 6.021 50.921 50.921 0 0 0 -4.2 11.515c-10.848 17.121-5.473 36.132-2.569 43.686a2.433 2.433 0 0 0 4.032.8c20.261-20.961 11.12-36.587 4.766-43.457a43.931 43.931 0 0 1 4.123-9.083 35.083 35.083 0 0 1 3.48-4.649 30.013 30.013 0 0 1 4.221-3.755l.069-.051c.072-.053.142-.109.211-.167a4 4 0 0 0 .457-5.64z" fill="#4d563e"/><path d="m267.182 241.3a25.429 25.429 0 0 1 5.423 6l2.942 4.54a39.513 39.513 0 0 1 4.2 8.628 60.026 60.026 0 0 1 3.339 14.284 36.965 36.965 0 0 1 -3.133 18.893 30.761 30.761 0 0 1 -13.032 13.9 2.906 2.906 0 0 1 -3.87-.886 2.787 2.787 0 0 1 .949-3.859l.108-.064a24.884 24.884 0 0 0 10.221-11.641 30.508 30.508 0 0 0 2.009-15.64 43.948 43.948 0 0 0 -5.178-15.37l-2.125-3.559c-2.313-4.692-7.78-9.847-7.78-9.847l-.057-.064a4.152 4.152 0 0 1 .1-5.669 4 4 0 0 1 5.8.258c.024.025.06.068.084.096z" fill="#4d563e"/><path d="m285.924 169.67s1.407 37.657 37.244 28.692a1.742 1.742 0 0 0 1.22-2.307c-2.606-6.755-13.457-29.955-38.464-26.385z" fill="#4d563e"/><path d="m303.643 188.165a73.881 73.881 0 0 1 -10.9-8.474 59.466 59.466 0 0 1 -4.794-5.095 43.015 43.015 0 0 1 -4.081-5.911 69.406 69.406 0 0 1 -5.723-12.735 52.1 52.1 0 0 1 -1.731-6.945 65.662 65.662 0 0 1 -.8-7.044v-.025a4 4 0 1 1 7.991-.512c.007.1.009.213.008.315a47.286 47.286 0 0 0 1.284 12.286 62.913 62.913 0 0 0 4.332 11.87 37.287 37.287 0 0 0 3.183 5.224 53.933 53.933 0 0 0 4.054 4.841 69.433 69.433 0 0 0 9.62 8.426l.08.058a2.248 2.248 0 0 1 -2.52 3.721z" fill="#92b771"/><path d="m73.14 245.551c-.3.58-.63 1.2-.968 1.717l-1 1.314-.976 1.073c-.327.358-.629.639-.945.962-1.245 1.238-2.417 2.329-3.5 3.448a35.125 35.125 0 0 0 -5.531 7.054 28.062 28.062 0 0 0 -3.117 8.2c-.131.733-.294 1.46-.406 2.2l-.218 2.253a22.306 22.306 0 0 0 .009 4.408 23.5 23.5 0 0 0 7.536 15.4 21.944 21.944 0 0 0 1.718 1.366l.9.648c.394.28.8.539 1.177.839a21.139 21.139 0 0 1 4.016 4.041 20.023 20.023 0 0 1 4.075 10.526 2.537 2.537 0 0 1 -5.05.476v-.042a14.814 14.814 0 0 0 -3.314-7.608 15.616 15.616 0 0 0 -3.071-2.869l-2.011-1.327a27.426 27.426 0 0 1 -2.225-1.644 29.673 29.673 0 0 1 -10.252-19.071 28.935 28.935 0 0 1 -.224-5.5l.165-2.695c.1-.9.259-1.8.39-2.7a35.183 35.183 0 0 1 3.531-10.411 42.5 42.5 0 0 1 6.345-8.785c1.174-1.3 2.381-2.51 3.44-3.647.253-.278.546-.573.765-.836l.668-.788c.157-.232.312-.456.477-.677a3.376 3.376 0 0 1 .236-.452l.711-.981a3.92 3.92 0 0 1 6.654 4.106z" fill="#4d563e"/><path d="m69.466 181.394a4 4 0 0 1 -3.123-1.5c-1.767-2.2-3.621-4.394-5.511-6.511a46.034 46.034 0 0 1 -11.336-23.3c-2.834-17.693 3.647-33.3 3.925-33.961a4 4 0 0 1 7.37 3.112c-.111.267-5.845 14.292-3.4 29.583a38.082 38.082 0 0 0 9.409 19.242c1.984 2.22 3.929 4.519 5.784 6.832a4 4 0 0 1 -3.118 6.5z" fill="#4d563e"/><path d="m142.515 11.88h-14.959s-3.61 107.193 89.785 125.514a90.3 90.3 0 0 0 95.317-42.322c11.219-18.888 19.53-45.575 19.53-83.192h-12.565s.988 59.567-36.192 93.189a68.8 68.8 0 0 1 -59.006 16.362c-30.846-5.825-77.915-28.12-81.91-109.551z" fill="#4d563e"/><path d="m18.862 11.88h23.905s-5.167 91.02 54.975 104.93a62.278 62.278 0 0 0 46.21-7.567c19.764-11.985 44.839-38.949 37.127-97.363h12.636s16.542 60.579-24.225 99.608c-24.725 23.669-61.126 31.192-92.688 17.949-28.119-11.798-57.761-42.131-57.94-117.557z" fill="#92b771"/><path d="m110.825 148.071s25.967.393 23.747 24.494l-.866 18a1.445 1.445 0 0 1 -2.027 1.26c-7.51-3.337-33.769-17.238-20.854-43.754z" fill="#4d563e"/><path d="m263.743 51.806s-19.918-15.082-37.094 6.714a26.615 26.615 0 0 1 -8.949 7.38 25.341 25.341 0 0 1 -3.859 1.552 1.913 1.913 0 0 0 -.558 3.372c4.107 2.97 11.8 7.686 21.012 9.248 16.305 2.761 31.275-10.372 29.623-26.828q-.071-.709-.175-1.438z" fill="#4d563e"/><path d="m268.259 11.88s16.477 119.158-19.544 167.763c-15.568 21.008-47.109 21.138-61.8-.494-3.984-5.868-7.4-13.607-9.739-23.778a1.361 1.361 0 0 0 -2.69.328c.759 23.038 8.758 65.341 58.387 55.951 0 0 79.151-11.307 55.078-199.77z" fill="#92b771"/><path d="m73.38 127.907q1.712.812 3.422 1.53 2.829 1.188 5.709 2.149c.394-5.173.923-11.9 1.26-15.264a25.157 25.157 0 0 0 .061-4.616 56.522 56.522 0 0 1 -8.626-5.53z" fill="#4d563e"/><g fill="#92b771"><path d="m76.182 95.276c4.108 8.2 1.347 31.465 1.347 31.465q-1.39 14.1-2.318 28.272-1.9 28.326-2.329 56.756-.417 28.413.625 56.835 1.17 28.4 3.924 56.722v.021a2.528 2.528 0 0 1 -5.025.558q-3.544-28.386-5.508-56.952-1.856-28.557-2.2-57.2-.355-28.626.783-57.268.56-14.317 1.561-28.633s1.293-18.233 1.207-20.474c-.19-6.185-2.9-8.836-2.9-8.836a5.472 5.472 0 0 1 3.165-4.559c3.832-1.252 5.665.233 7.387 2.838.063.094.122.19.178.287z"/><path d="m92 125.789c2.249 1.609 4.191 3.185 6.174 4.89q2.942 2.533 5.671 5.3a68.967 68.967 0 0 1 9.774 12.24c2.664 4.328 5.136 8.729 7.4 13.273a95.076 95.076 0 0 1 5.854 14.171 2.2 2.2 0 0 1 -4.176 1.411l-.015-.042a90.431 90.431 0 0 0 -6.18-13.158c-2.384-4.269-5-8.45-7.749-12.486-1.323-1.962-7.634-10.085-15.238-14.909-1.905-1.41-3.957-2.82-5.856-3.972l-.07-.043a4 4 0 1 1 4.155-6.846c.09.055.179.114.256.171z"/><path d="m237.79 64.035a56.792 56.792 0 0 0 11.822-4.913 43.213 43.213 0 0 0 5.268-3.463 32.106 32.106 0 0 0 4.426-4.185c5.453-5.122 9.652-14.225 10.612-16.134.481-.955.93-1.92 1.364-2.886.414-.941.855-1.99 1.147-2.812l.017-.047a4 4 0 1 1 7.543 2.683c-.029.084-.066.176-.1.256-.547 1.257-1.052 2.242-1.61 3.319-.555 1.047-1.122 2.079-1.718 3.09-1.19 2.024-7.272 11.281-12.645 16.717a41.359 41.359 0 0 1 -11.857 8.209 62.214 62.214 0 0 1 -6.511 2.634 58.319 58.319 0 0 1 -6.794 1.879 2.225 2.225 0 0 1 -1.072-4.316z"/><path d="m271.215 172.05c-.576 12.506-1.065 25.06-1.475 37.59s-.74 25.072-.845 37.577c-.051 6.251-.05 12.5.106 18.693.033 1.552.125 3.124.184 4.685l.051 1.173.02.688v.61 2.38q0 4.749-.078 9.486c-.215 12.638-.694 25.272-1.843 37.918a3.134 3.134 0 0 1 -6.252-.439v-.019c.642-12.426.63-24.939.354-37.429q-.112-4.685-.289-9.362l-.1-2.332-.026-.568-.034-.489-.1-1.178c-.122-1.575-.274-3.136-.37-4.722-.41-6.36-.656-12.678-.852-18.992-.387-12.626-.539-25.222-.627-37.818s-.081-25.174.006-37.792a6.08 6.08 0 0 1 12.16.085v.212z"/><path d="m69.457 247.988a4 4 0 0 1 -2.781-6.875c.793-.767 1.626-1.541 2.476-2.3a56.87 56.87 0 0 0 5.228-5.36c12.989-14.993 9.9-36.36-7.681-53.171a4 4 0 1 1 5.529-5.783c20.549 19.648 23.921 46.044 8.2 64.192a64.326 64.326 0 0 1 -5.953 6.095q-1.137 1.014-2.236 2.074a3.984 3.984 0 0 1 -2.782 1.128z"/></g><path d="m53.636 76.835c-.752 4.747-3.419 16.28-12.166 24.04q2.2 3.115 4.535 5.883c3.547-3.414 10.407-10.665 13.553-18.4a90.034 90.034 0 0 1 -5.922-11.523z" fill="#4d563e"/><path d="m48.37 107.982a80.326 80.326 0 0 0 9.518-11.8 37.06 37.06 0 0 0 5.912-14.732 22.712 22.712 0 0 0 -.347-8.514 20.015 20.015 0 0 0 -3.6-7.842 34.542 34.542 0 0 0 -13.173-10.252c.6 2.747 1.648 6.911 2.717 10.383l.038.02a20.581 20.581 0 0 1 4.514 4.2 15.179 15.179 0 0 1 3.23 11.232 30.868 30.868 0 0 1 -4.407 12.376 74.783 74.783 0 0 1 -8.317 11.313l-.026.03a2.664 2.664 0 0 0 3.941 3.582z" fill="#92b771"/><path d="m197.014 38.819a120.378 120.378 0 0 0 -3.3-26.939h-12.635c2.571 19.472 1.485 35.433-1.82 48.526a94.55 94.55 0 0 0 17.755-21.587z" fill="#4d563e"/><path d="m220.882 197.182c.046-.047-.035.009-.078.034a1.862 1.862 0 0 0 -.169.116c-.119.08-.243.176-.37.28-.254.191-.506.431-.759.655-4.38 3.118-5.732 10.947-5.9 11.709-.129.77-.189 1.555-.291 2.341l-.033.25a2.27 2.27 0 0 1 -4.519-.186c-.044-.916-1.022-10.112 3.382-16.556a62.926 62.926 0 0 1 3.906-5.019 4 4 0 1 1 4.832 6.376z" fill="#4d563e"/><path d="m238.751 189.073 3.425 19.294a55.892 55.892 0 0 0 8.648-5.332c-4.889-5.985-6.525-14.9-6.959-17.967a38.58 38.58 0 0 1 -5.114 4.005z" fill="#4d563e"/><path d="m264.217 247.988a3.989 3.989 0 0 1 -2.74-1.086c-28.088-26.44-28.411-57.907-28.411-59.233a4 4 0 0 1 8-.007c0 .393.466 29.478 25.894 53.413a4 4 0 0 1 -2.743 6.913z" fill="#92b771"/></svg>