<svg id="Capa_1" enable-background="new 0 0 512 512" height="512" viewBox="0 0 512 512" width="512" xmlns="http://www.w3.org/2000/svg"><g><g><path d="m370.466 160.683c-5.145-12.32-3.321-25.981 3.707-37.267 2.212-3.552 6.489-5.338 10.57-4.414 12.968 2.936 23.965 11.244 29.109 23.564 5.145 12.32 3.321 25.981-3.707 37.267-2.212 3.552-6.489 5.338-10.57 4.414-12.967-2.937-23.964-11.244-29.109-23.564z" fill="#2db181"/><path d="m405.084 129.762c-2.696 16.805-5.774 34.808-9.234 53.483-11.331-3.584-20.74-11.444-25.388-22.558-5.144-12.322-3.316-25.987 3.708-37.266 2.221-3.553 6.497-5.34 10.577-4.421 7.756 1.765 14.821 5.442 20.337 10.762z" fill="#1ca56f"/></g><g><path d="m351.691 490.714c-22.652 0-43.206-9.261-61.091-27.527-40.548-41.412-67.956-129.038-81.462-260.445-9.973-97.025-8.292-183.342-8.275-184.203.091-4.276 3.625-7.711 7.908-7.581 4.277.09 7.672 3.63 7.582 7.908-.072 3.391-6.064 340.162 85.32 433.484 15.07 15.389 31.43 22.87 50.018 22.87 32.479 0 59.717-28.698 80.956-85.298 17.275-46.036 30.243-109.622 38.542-188.992.445-4.256 4.264-7.348 8.51-6.899 4.256.445 7.344 4.255 6.899 8.511-8.437 80.679-21.708 145.555-39.446 192.824-23.741 63.268-55.859 95.348-95.461 95.348z" fill="#ba7c65"/></g><g><g><path d="m150.319 163.82c-6.926 10.794-18.717 16.813-31.475 17.423-4.015.192-7.762-2.213-9.26-5.942-4.762-11.851-4.203-25.078 2.724-35.872 6.926-10.794 18.717-16.813 31.475-17.423 4.015-.192 7.762 2.213 9.26 5.942 4.761 11.851 4.202 25.079-2.724 35.872z" fill="#bcea73"/><path d="m150.323 163.816c-4.163 6.476-10.071 11.238-16.888 14.14-5.836-15.504-10.845-30.914-15.121-45.674 6.838-6.301 15.886-9.823 25.471-10.277 4.008-.186 7.757 2.21 9.255 5.939 4.761 11.857 4.203 25.078-2.717 35.872z" fill="#99d53b"/></g></g><g><path d="m185.47 453.784c-10.844 4.15-22.671 2.207-32.298-4.198-3.03-2.016-4.47-5.78-3.56-9.304 2.892-11.196 10.401-20.537 21.245-24.687s22.671-2.207 32.298 4.198c3.03 2.016 4.47 5.78 3.56 9.304-2.892 11.196-10.401 20.538-21.245 24.687z" fill="#2db181"/></g><g><g><path d="m470.314 214.128c-8.34-8.078-11.572-19.62-9.83-31.051.548-3.597 3.353-6.493 6.931-7.155 11.37-2.105 23.009.758 31.348 8.837 8.34 8.078 11.572 19.62 9.83 31.051-.548 3.597-3.353 6.493-6.931 7.155-11.37 2.105-23.008-.758-31.348-8.837z" fill="#bcea73"/><path d="m495.751 182.181c-4.607 13.779-9.441 26.783-14.481 38.991-4.008-1.57-7.726-3.915-10.959-7.044-8.335-8.077-11.568-19.615-9.823-31.049.547-3.594 3.347-6.497 6.931-7.158 10.05-1.859 20.327.166 28.332 6.26z" fill="#99d53b"/></g></g><g><path d="m80.524 501.045c-3.486 0-6.653-2.37-7.519-5.908-23.705-96.903-22.465-221.664-17.25-309.263 5.638-94.705 17.009-167.65 17.123-168.376.665-4.226 4.631-7.111 8.856-6.448 4.226.665 7.113 4.63 6.448 8.856-.113.72-11.384 73.056-16.972 167.047-5.141 86.485-6.392 209.517 16.844 304.501 1.017 4.156-1.528 8.349-5.684 9.366-.617.152-1.236.225-1.846.225z" fill="#1ca56f"/></g><g><path d="m330.489 327.518c-10.087 0-19.028-4.232-26.573-12.579-20.922-23.146-31.435-80.453-31.25-170.329.136-65.849 6.157-126.086 6.217-126.687.431-4.257 4.227-7.359 8.487-6.927 4.257.431 7.358 4.23 6.928 8.487-6.621 65.468-15.737 244.303 21.113 285.068 4.546 5.029 9.478 7.474 15.078 7.474 4.278 0 7.747 3.468 7.747 7.747 0 4.278-3.469 7.746-7.747 7.746z" fill="#0c6842"/></g><g><g><path d="m483.079 18.703c-2.543 0-4.706 1.843-5.1 4.355-3.479 22.147-13.923 81.837-33.489 140.704-14.117 42.471-30.085 76.071-47.463 99.866-19.642 26.895-40.691 40.532-62.563 40.532-136.874 0-177.192-232.855-184.059-281.031-.363-2.545-2.541-4.426-5.111-4.426h-23.714c-3.119 0-5.529 2.742-5.121 5.835 2.678 20.266 12.63 84.78 37.858 150.221 17.842 46.283 39.701 83.378 64.968 110.255 33.026 35.129 71.778 52.941 115.18 52.941 33.314 0 63.586-18.357 89.975-54.562 19.455-26.691 37.038-63.496 52.259-109.392 21.646-65.264 32.276-129.555 35.243-149.363.468-3.124-1.948-5.933-5.107-5.933h-23.756z" fill="#1ca56f"/></g><g><path d="m506.835 18.706c3.158 0 5.575 2.809 5.107 5.933-2.966 19.807-13.594 84.098-35.248 149.362-15.214 45.891-32.804 82.703-52.254 109.393-26.39 36.203-56.664 54.557-89.975 54.557-7.117 0-14.099-.475-20.957-1.436 27.082-4.958 51.944-22.765 74.068-53.121 13.2-18.107 25.543-40.882 36.874-67.995 7.024-15.369 13.717-32.608 20.038-51.634 19.564-58.864 30.01-118.559 33.488-140.704.395-2.512 2.558-4.355 5.1-4.355h23.759z" fill="#158f5e"/></g><path d="m372.827 289.497c-3.977 15.69-8.057 30.522-12.229 44.497-8.48 2.634-17.198 3.956-26.132 3.956-17.807 0-34.829-2.995-51.004-8.966 3.305-10.246 6.559-21.081 9.761-32.515 12.663 4.948 26.38 7.695 41.243 7.695 13.127.001 25.956-4.916 38.361-14.667z" fill="#158f5e"/></g><g><path d="m370.1 18.703c-2.622 0-4.827 1.962-5.13 4.567-3.19 27.485-14.235 115.848-33.97 206.211-13.797 63.172-29.036 114.763-45.296 153.34-23.475 55.697-43.934 72.513-56.963 76.812-18.88 6.229-36.212 3.917-52.986-7.069-30.33-19.864-74.245-78.118-111.215-242.831-18.676-83.214-27.924-161.119-30.643-186.421-.282-2.624-2.495-4.609-5.134-4.609h-23.597c-3.066 0-5.458 2.647-5.137 5.697 2.442 23.199 11.848 104.901 31.462 192.391 31.677 141.298 73.983 230.134 125.743 264.039 16.336 10.701 33.496 16.063 51.291 16.063 10.078 0 20.362-1.722 30.807-5.168 50.026-16.506 90.81-99.928 124.685-255.033 20.707-94.814 32.012-187.535 34.835-212.24.35-3.064-2.047-5.748-5.131-5.748h-23.621z" fill="#ba7c65"/></g><g><path d="m393.723 18.706c3.084 0 5.482 2.685 5.131 5.749-2.825 24.706-14.133 117.42-34.837 212.242-33.879 155.098-74.657 238.524-124.69 255.03-10.442 3.45-20.72 5.164-30.801 5.164-6.311 0-12.55-.671-18.695-2.024 3.853-.806 7.726-1.849 11.63-3.14 25.719-8.49 49-34.674 70.154-79.202 4.545-8.408 9.255-18.23 14.089-29.706 16.258-38.578 31.503-90.171 45.302-153.342 19.728-90.358 30.776-178.72 33.966-206.204.302-2.605 2.507-4.567 5.13-4.567h23.621z" fill="#a96a53"/></g><g><g><path d="m176.29 411.553c-.707 11.589-7.368 21.554-17.181 27.67-3.088 1.925-7.112 1.679-9.943-.607-8.997-7.264-14.396-17.964-13.689-29.553s7.368-21.554 17.181-27.67c3.088-1.925 7.112-1.679 9.943.607 8.997 7.264 14.396 17.964 13.689 29.553z" fill="#bcea73"/></g></g><g><g><path d="m241.628 205.768c-3.591 11.041-12.538 19.017-23.572 22.476-3.472 1.088-7.306-.158-9.473-3.081-6.888-9.288-9.43-21.001-5.839-32.042s12.538-19.017 23.572-22.476c3.472-1.088 7.306.158 9.473 3.081 6.887 9.287 9.43 21 5.839 32.042z" fill="#bcea73"/></g></g><g><path d="m351.105 119.133c-9.744 6.314-21.717 6.873-32.465 2.61-3.382-1.342-5.574-4.724-5.417-8.36.501-11.552 5.903-22.251 15.647-28.565s21.716-6.873 32.465-2.61c3.382 1.342 5.574 4.724 5.417 8.36-.501 11.552-5.903 22.251-15.647 28.565z" fill="#2db181"/></g></g></svg>