<?xml version="1.0" encoding="iso-8859-1"?>
<!-- Generator: Adobe Illustrator 19.0.0, SVG Export Plug-In . SVG Version: 6.00 Build 0)  -->
<svg version="1.1" id="Layer_1" xmlns="http://www.w3.org/2000/svg" xmlns:xlink="http://www.w3.org/1999/xlink" x="0px" y="0px"
	 viewBox="0 0 512 512" style="enable-background:new 0 0 512 512;" xml:space="preserve">
<polygon style="fill:#FFB432;" points="432.552,375.172 388.414,366.345 326.621,225.103 308.966,225.103 291.31,163.31 
	203.034,163.31 150.069,304.552 97.103,331.034 0,472.276 512,472.276 "/>
<polygon style="fill:#3B546A;" points="432.552,375.172 388.414,366.345 361.931,322.207 335.448,286.897 326.621,295.724 
	300.138,278.069 282.483,313.379 256,304.552 229.517,251.586 158.897,322.207 150.069,304.552 97.103,331.034 0,472.276 
	512,472.276 "/>
<g>
	<polygon style="fill:#2F3F50;" points="114.759,472.276 158.897,375.172 194.207,375.172 256,304.552 229.517,251.586 
		158.897,322.207 150.069,304.552 97.103,331.034 0,472.276 	"/>
	<polygon style="fill:#2F3F50;" points="220.69,472.276 264.828,384 300.138,401.655 335.448,401.655 361.931,454.621 
		423.724,445.793 432.552,472.276 	"/>
</g>
<g>
	<polygon style="fill:#FF9637;" points="256,304.552 238.345,207.448 220.69,207.448 203.034,163.31 150.069,304.552 
		158.897,322.207 229.517,251.586 	"/>
	<polygon style="fill:#FF9637;" points="282.483,313.379 273.655,242.759 308.966,260.414 326.621,295.724 300.138,286.897 	"/>
</g>
<polygon style="fill:#4A6979;" points="432.552,375.172 388.414,366.345 367.816,319.265 335.448,286.897 326.621,295.724 
	397.241,419.31 432.552,410.483 459.034,472.276 512,472.276 "/>
<g>
	<polygon style="fill:#FF9637;" points="273.655,331.034 282.483,392.828 300.138,401.655 300.138,348.69 	"/>
	<polygon style="fill:#FF9637;" points="158.897,339.862 132.414,392.828 123.586,357.517 141.241,339.862 	"/>
	<polygon style="fill:#FF9637;" points="335.448,313.379 335.448,339.862 361.931,375.172 361.931,339.862 	"/>
	<polygon style="fill:#FF9637;" points="379.586,375.172 370.759,401.655 397.241,419.31 	"/>
	<circle style="fill:#FF9637;" cx="229.517" cy="145.655" r="8.828"/>
	<circle style="fill:#FF9637;" cx="264.828" cy="128" r="8.828"/>
</g>
<g>
	<circle style="fill:#FFB432;" cx="238.345" cy="110.345" r="8.828"/>
	<circle style="fill:#FFB432;" cx="264.828" cy="83.862" r="8.828"/>
	<circle style="fill:#FFB432;" cx="247.172" cy="48.552" r="8.828"/>
</g>
<g>
</g>
<g>
</g>
<g>
</g>
<g>
</g>
<g>
</g>
<g>
</g>
<g>
</g>
<g>
</g>
<g>
</g>
<g>
</g>
<g>
</g>
<g>
</g>
<g>
</g>
<g>
</g>
<g>
</g>
</svg>
