<svg id="Layer_1" enable-background="new 0 0 512 512" height="512" viewBox="0 0 512 512" width="512" xmlns="http://www.w3.org/2000/svg"><path d="m480.287 168.29c-37.97-86.148-124.097-146.294-224.287-146.294s-186.317 60.146-224.287 146.294l-18.833 68.259c-1.237 9.977-1.882 20.137-1.882 30.449 0 135.311 109.691 245.002 245.002 245.002s245.002-109.691 245.002-245.002c0-10.312-.645-20.472-1.882-30.449z" fill="#61ccf8"/><path d="m29.366 360.196h453.268c2.094-5.086 4.028-10.254 5.783-15.505h-464.834c1.755 5.251 3.689 10.419 5.783 15.505z" fill="#384051"/><path d="m64.222 419.461h383.557c3.992-5.015 7.802-10.181 11.398-15.505h-406.353c3.596 5.324 7.405 10.49 11.398 15.505z" fill="#384051"/><path d="m13.348 300.932h485.303c.71-5.121 1.275-10.288 1.663-15.505h-488.628c.388 5.216.953 10.383 1.662 15.505z" fill="#384051"/><path d="m402.726 463.221h-293.452c7.478 5.601 15.294 10.774 23.399 15.505h246.654c8.105-4.731 15.921-9.904 23.399-15.505z" fill="#384051"/><g fill="#4e5d6d"><path d="m386.131 228.797c-4.282 0-7.753 3.471-7.753 7.753v242.738c5.298-3.061 10.467-6.318 15.505-9.755v-232.983c.001-4.282-3.47-7.753-7.752-7.753z"/><path d="m321.066 228.797c-4.282 0-7.753 3.471-7.753 7.753v268.692c5.234-1.255 10.408-2.661 15.505-4.246v-264.446c.001-4.282-3.47-7.753-7.752-7.753z"/><path d="m248.247 236.55v275.316c2.575.08 5.158.134 7.753.134s5.177-.054 7.753-.134v-275.316c0-4.282-3.47-7.753-7.753-7.753-4.282 0-7.753 3.471-7.753 7.753z"/><path d="m458.95 404.283v-167.733c0-4.282-3.471-7.753-7.753-7.753s-7.753 3.471-7.753 7.753v188.197c5.511-6.541 10.694-13.365 15.506-20.464z"/><path d="m190.935 228.797c-4.282 0-7.753 3.471-7.753 7.753v264.447c5.097 1.585 10.271 2.992 15.505 4.246v-268.693c.001-4.282-3.47-7.753-7.752-7.753z"/><path d="m68.556 424.748v-188.198c0-4.282-3.47-7.753-7.753-7.753-4.282 0-7.753 3.471-7.753 7.753v167.735c4.813 7.099 9.996 13.923 15.506 20.463z"/><path d="m133.622 479.288v-242.738c0-4.282-3.471-7.753-7.753-7.753s-7.752 3.471-7.752 7.753v232.983c5.037 3.436 10.207 6.694 15.505 9.755z"/></g><path d="m12.88 236.55h486.24c-2.976-24.005-9.431-46.927-18.834-68.26h-448.572c-9.403 21.332-15.858 44.255-18.834 68.26z" fill="#f7f3f1"/><path d="m12.88 236.55h486.24c-1.094-8.822-2.659-17.497-4.665-26.002h-476.91c-2.006 8.505-3.571 17.18-4.665 26.002z" fill="#cde2ff"/><path d="m133.622 168.289s11.918 3.135 11.918 16.135 0 39.125 0 39.125.163 12.994-11.909 13.001h166.909l-80.609-68.26h-86.309z" fill="#cde2ff"/><path d="m145.54 210.548v13.001s.163 12.994-11.909 13.001h166.909l-30.706-26.002z" fill="#aad1f7"/><path d="m441.826 132.742-20.31-79.456c-15.211-22.421-37.731-39.48-64.138-47.754l-79.674 2.458c-17.77 6.804-33.531 17.663-46.148 31.451l-31.643 75.862c-.097 1.987-.148 3.987-.148 5.998 0 20.249 4.968 39.335 13.743 56.117l104.953 65.15c.867.018 1.734.033 2.605.033 63.133 0 114.993-48.233 120.76-109.859z" fill="#3e93d7"/><path d="m321.066 242.601c25.986 0 50.058-8.177 69.796-22.091-174.557-33.042-159.306-181.063-159.306-181.063l-31.642 75.855c-.097 1.987-.148 3.987-.148 5.998 0 20.249 4.968 39.335 13.743 56.117l104.953 65.15c.866.02 1.733.034 2.604.034z" fill="#327fcc"/><path d="m421.515 53.286c-17.546 38.049-83.967 46.038-111.06 47.715-3.723.231-5.59-4.383-2.787-6.844 37.743-33.14 47.42-68.809 49.708-88.625-11.464-3.593-23.66-5.532-36.31-5.532-15.28 0-29.896 2.833-43.362 7.99-4.894 16.177-9.153 33.967-11.285 43.265-.639 2.788-3.982 4.014-6.219 2.232-8.331-6.632-18.47-11.076-28.642-14.046-18.484 20.2-30.221 46.676-31.643 75.862 9.661-6.725 19.948-8.749 26.74-9.28 3.224-.252 5.329 3.235 3.626 5.983-12.766 20.598-16.357 45.62-16.772 65.413 19.876 38.018 59.311 64.188 104.953 65.15-42.123-27.407-50.466-70.073-52.06-88.634-.296-3.449 3.69-5.573 6.358-3.368 17.566 14.514 39.665 27.044 82.91 25.191 44.146-1.891 70.44-25.077 86.157-43.015.353-3.767.541-7.582.541-11.442-.001-25.208-7.692-48.617-20.853-68.015z" fill="#fdca00"/><path d="m199.914 115.302c9.661-6.725 19.948-8.749 26.74-9.28 3.224-.252 5.33 3.235 3.626 5.983-12.767 20.598-16.357 45.62-16.773 65.413 19.876 38.018 59.312 64.188 104.953 65.15-42.124-27.407-50.466-70.073-52.06-88.634-.047-.55.024-1.062.173-1.533-41.267-52.32-35.017-112.961-35.017-112.961-18.484 20.201-30.221 46.676-31.642 75.862z" fill="#feac00"/><path d="m308.839 55.501c-3.596-2.325-4.624-7.125-2.298-10.72 3.983-6.159 8.107-15.557 8.148-15.652 1.715-3.921 6.285-5.712 10.21-3.997 3.923 1.715 5.713 6.286 3.997 10.209-.189.432-4.677 10.658-9.338 17.861-2.313 3.578-7.107 4.636-10.719 2.299z" fill="#ffe400"/></svg>