<svg height="512" viewBox="0 0 58 58" width="512" xmlns="http://www.w3.org/2000/svg"><g id="Page-1" fill="none" fill-rule="evenodd"><g id="089---Chocolate-Dipped-Waffle" fill-rule="nonzero" transform="translate(0 -1)"><circle id="Oval" cx="29" cy="30" fill="#f6bd76" r="29"/><path id="Shape" d="m5.16 27.557c.19127565.2755072.50461134.4407545.84.443h20c.5522847 0 1-.4477153 1-1v-9h-22z" fill="#ed8946"/><path id="Rectangle-path" d="m6.993 23.999h7.996v2h-7.996z" fill="#f6bd76" transform="matrix(.003 -1 1 .003 -14.044 35.906)"/><path id="Shape" d="m52.39 27.92c-.1233727.0523807-.2559687.0795799-.39.08h-20c-.5522847 0-1-.4477153-1-1v-9h21z" fill="#ed8946"/><path id="Rectangle-path" d="m46.014 20h2v8.999h-2z" fill="#f6bd76" transform="matrix(1 -.001 .001 1 -.026 .051)"/><path id="Shape" d="m23 32h3c.5522847 0 1 .4477153 1 1v20c.0001218.2704971-.1093432.5295053-.303419.7179284-.1940759.1884231-.4562056.2901865-.726581.2820716-11.3500961-.5402696-20.42973043-9.6199039-20.97-20.97-.00811494-.2703754.09364848-.5325051.2820716-.726581.18842313-.1940758.4474313-.3035408.7179284-.303419z" fill="#ed8946"/><path id="Shape" d="m28 39.01v-2h-16.017v-6.01h-2v6.01h-6.983v2h6.983v7.006h-1.983v2h1.983v1.984h2v-1.984h6.017v6.983h2v-6.985h8v-2h-8v-7.006zm-10 7.006h-6.017v-7.006h6.017z" fill="#f6bd76"/><path id="Shape" d="m43 32h9c.2704971-.0001218.5295053.1093432.7179284.303419.1884231.1940759.2901865.4562056.2820716.726581-.5402696 11.3500961-9.6199039 20.4297304-20.97 20.97-.2703754.0081149-.5325051-.0936485-.726581-.2820716-.1940758-.1884231-.3035408-.4474313-.303419-.7179284v-20c0-.5522847.4477153-1 1-1z" fill="#ed8946"/><path id="Shape" d="m55 39.01v-2h-6.983v-6.01h-2v6.01h-16.017v2h16.017v7.006h-6.014l-.003-6.016h-2l.003 6.016h-8.003v2h8.004l.005 6.984h2l-.005-6.984h6.013v3.984l2-3v-.984h2.983v-2h-2.983v-7.006z" fill="#f6bd76"/><path id="Shape" d="m57.83 26.84v.01c-.1635406.4555516-.4265881.8689119-.77 1.21-.8607498.8598383-2.1334301 1.1595518-3.2874239.7741814-1.1539938-.3853705-1.9912049-1.3896716-2.1625761-2.5941814l-.08-.56c-.3461698-2.089764-2.13221-3.6362647-4.25-3.68-2.3626365.0027553-4.2772447 1.9173635-4.28 4.28v11.72c.014124 1.065133-.4027664 2.0907756-1.1559954 2.8440046s-1.7788716 1.1701194-2.8440046 1.1559954c-2.209139 0-4-1.790861-4-4v-12c-.0658891-3.2860294-2.7139706-5.9341109-6-6-3.3137085 0-6 2.6862915-6 6v10c-.0527199 2.1869295-1.8130705 3.9472801-4 4-2.209139 0-4-1.790861-4-4v-9.67c-.0503625-2.3702187-1.9597813-4.2796375-4.33-4.33-2.11837851-.0034763-3.92674661 1.5296133-4.27 3.62l-.02.12c-.24301198 1.2902707-1.35731231 2.2334612-2.67 2.26-.71906225.0010637-1.40897956-.2841117-1.91743391-.7925661-.50845435-.5084543-.79362979-1.1983716-.79256609-1.9174339v-2.86c3.6309647-13.46853247 16.3364185-22.44372657 30.24399-21.36450098 13.9075714 1.07922558 25.0763135 11.90705388 26.58601 25.77450098z" fill="#a16a43"/><path id="Shape" d="m9.8 15c-.38811192-.0002099-.74105034-.2249685-.90538835-.5765705-.16433802-.3516019-.11039148-.7665377.13838835-1.0644295 4.933152-5.93316796 12.2508835-9.36315989 19.967-9.359.5522847 0 1 .44771525 1 1s-.4477153 1-1 1c-7.1217749-.00229951-13.875285 3.16446198-18.428 8.641-.1909959.2287067-.4740328.3603262-.772.359z" fill="#cb936a"/></g></g></svg>