<svg id="Layer_1" enable-background="new 0 0 512 512" height="512" viewBox="0 0 512 512" width="512" xmlns="http://www.w3.org/2000/svg"><g><path d="m102.885 122.85v143.034c0 29.406 23.838 53.245 53.245 53.245h139.212c29.406 0 53.245-23.838 53.245-53.245v-143.034c-.001-67.848-55.003-122.85-122.852-122.85-67.848 0-122.85 55.002-122.85 122.85z" fill="#ce9775"/><path d="m225.735 0c-5.155 0-10.235.322-15.223.939 60.665 7.498 107.628 59.218 107.628 121.911v143.034c0 29.406-23.838 53.245-53.245 53.245h30.446c29.406 0 53.245-23.838 53.245-53.245v-143.034c0-67.848-55.002-122.85-122.851-122.85z" fill="#c6855b"/><g><g><g><g><path d="m39.833 512c-5.605 0-10.149-4.544-10.149-10.149v-115.205c0-27.12 17.353-51.212 43.116-59.861l20.072-6.738 17.755-.918 14.809-10.014 38.977-13.085c8.588-2.883 14.372-10.914 14.372-19.954v-34.283h78.678v34.283c0 9.04 5.784 17.071 14.372 19.954l91.612 30.755c25.763 8.649 58.339 32.741 58.339 59.861v115.205c0 5.605-4.544 10.149-10.149 10.149h-53.039l-132.861-15.223-132.865 15.223z" fill="#f8f5f9"/></g></g><g><path d="m277.612 318.304 70.612 23.705c25.763 8.649 43.116 32.741 43.116 59.861v110.13h20.297c5.605 0 10.149-4.544 10.149-10.149v-115.205c0-27.119-17.353-51.212-43.116-59.861l-90.447-30.363z" fill="#dbd9ec"/></g><path d="m225.698 344.816c26.803 0 50.774-16.681 60.087-41.813l2.43-6.559.006-.023-16.388-.39c-8.588-2.883-14.372-10.914-14.372-19.954v-34.283h-78.678v34.283c0 9.04-5.784 17.071-14.372 19.954l-1.232.413 2.431 6.559c9.315 25.132 33.286 41.813 60.088 41.813z" fill="#f1ccbd"/><path d="m256.611 311.254 21.001 7.05c3.352-4.631 6.119-9.76 8.173-15.301l2.43-6.559.006-.022c-9.142-2.503-15.52-10.902-15.536-20.345v-34.283h-30.446v49.506c0 9.04 5.785 17.071 14.372 19.954z" fill="#eaad9c"/><path d="m92.872 512v-71.342c0-3.061.71-6.075 2.026-8.838 4.875-10.237 10.54-25.665 11.9-45.034 2.228-31.748-8.381-55.984-13.926-66.737 10.855-3.644 21.709-7.288 32.564-10.932l2.661 8.465c18.17 57.81 51.959 109.476 97.638 149.296 45.679-39.819 79.468-91.485 97.638-149.296l2.661-8.465 32.564 10.932 17.059 5.498 14.107 6.924-31.166 98.9v80.629z" fill="#4f6d8f"/><path d="m377.133 326.27-18.531-6.221-32.568-10.933-2.66 8.465c-1.527 4.857-3.173 9.667-4.918 14.434l29.769 9.994c12.908 4.333 23.703 12.544 31.264 23.069l10.276-32.609z" fill="#455e7e"/><g><path d="m329.794 158.814h-6.712v-37.584h6.712c10.379 0 18.792 8.413 18.792 18.792 0 10.378-8.414 18.792-18.792 18.792z" fill="#f1ccbd"/><path d="m128.389 121.23v59.053c0 36.653 20.35 68.564 50.393 85.1 13.923 7.663 29.891 7.553 46.916 7.553 0 0 32.645.225 46.438-7.251 30.345-16.447 50.945-48.524 50.945-85.401v-59.054c-13.067 1.356-38.245 2.068-65.65-10.127-12.64-5.625-22.5-12.548-29.754-18.651-1.13-.95-2.763-.947-3.895.001-8.009 6.709-20.046 15.126-36.228 21.287-25.079 9.548-47.27 8.784-59.165 7.49z" fill="#f1ccbd"/><path d="m292.636 180.283c.206 6.586.515 38.452-23.612 63.412-22.446 23.221-57.358 31.481-90.238 21.682 9.434 5.049 22.238 10.132 37.825 11.605 3.172.3 6.219.427 9.126.424 53.763 0 97.346-43.483 97.346-97.123v-59.053c-7.107.738-17.796 1.284-30.477-.332z" fill="#eaad9c"/><g><g><path d="m181.334 183.213c-4.204 0-7.611-3.407-7.611-7.611v-15.672c0-4.204 3.408-7.611 7.611-7.611 4.204 0 7.611 3.407 7.611 7.611v15.672c.001 4.204-3.407 7.611-7.611 7.611z" fill="#455e7e"/></g><g><path d="m270.136 183.213c-4.204 0-7.611-3.407-7.611-7.611v-15.672c0-4.204 3.408-7.611 7.611-7.611s7.612 3.407 7.612 7.611v15.672c-.001 4.204-3.409 7.611-7.612 7.611z" fill="#455e7e"/></g></g><g><path d="m225.729 233.767c-.369 0-.741-.006-1.117-.02-7.714-.277-13.504-3.289-17.003-5.769-3.43-2.43-4.24-7.18-1.81-10.611s7.181-4.242 10.611-1.81c1.479 1.048 4.581 2.827 8.747 2.976 4.715.157 8.232-1.796 9.91-2.981 3.432-2.427 8.182-1.611 10.609 1.822 2.427 3.432 1.611 8.182-1.821 10.609-3.112 2.2-9.507 5.784-18.126 5.784z" fill="#eaad9c"/></g><path d="m121.676 158.814h6.712v-37.584h-6.712c-10.378 0-18.792 8.413-18.792 18.792.001 10.378 8.414 18.792 18.792 18.792z" fill="#eaad9c"/></g></g><path d="m218.123 460.019v51.981h15.223v-51.981c-2.501 2.321-5.034 4.611-7.611 6.857-2.577-2.247-5.111-4.536-7.612-6.857z" fill="#455e7e"/><g fill="#cecce1"><circle cx="225.735" cy="371.948" r="7.611"/><circle cx="225.735" cy="402.394" r="7.611"/><circle cx="225.735" cy="432.84" r="7.611"/></g></g><g><g><g><path d="m323.996 431.592h134.977c12.891 0 23.342-10.451 23.342-23.342 0-3.923-3.181-7.104-7.104-7.104h-167.453c-3.923 0-7.104 3.181-7.104 7.104 0 12.891 10.451 23.342 23.342 23.342z" fill="#f8f5f9"/></g><path d="m475.211 401.146h-30.446c3.923 0 7.104 3.18 7.104 7.104 0 12.891-10.45 23.342-23.342 23.342h30.446c12.891 0 23.342-10.45 23.342-23.342 0-3.924-3.18-7.104-7.104-7.104z" fill="#dbd9ec"/><path d="m370.617 474.165h41.736c9.789 0 17.725-7.936 17.725-17.725v-24.849h-77.185v24.849c-.001 9.79 7.935 17.725 17.724 17.725z" fill="#f1ccbd"/><path d="m399.631 431.592v24.849c0 9.789-7.936 17.724-17.725 17.724h30.446c9.789 0 17.725-7.936 17.725-17.724v-24.849z" fill="#eaad9c"/></g><g><path d="m357.698 401.146h67.574l15.223-97.017h-98.02z" fill="#db8894"/><path d="m410.049 304.129-15.223 97.017h30.446l15.223-97.017z" fill="#d4717f"/><g><path d="m391.485 281.294c-4.204 0-7.612-3.407-7.612-7.611v-72.271c0-1.55.473-3.063 1.357-4.338l15.223-21.951c2.396-3.452 7.139-4.313 10.592-1.917 3.454 2.395 4.313 7.138 1.917 10.593l-13.866 19.994v69.89c0 4.204-3.408 7.611-7.611 7.611z" fill="#dbd8ea"/></g><path d="m331.311 273.683h120.347c2.242 0 4.059 1.817 4.059 4.059v22.327c0 2.242-1.818 4.059-4.059 4.059h-120.347c-2.242 0-4.059-1.818-4.059-4.059v-22.327c0-2.242 1.817-4.059 4.059-4.059z" fill="#f6df7f"/><path d="m451.658 273.683h-30.446c2.242 0 4.059 1.818 4.059 4.059v22.327c0 2.242-1.817 4.059-4.059 4.059h30.446c2.242 0 4.059-1.818 4.059-4.059v-22.327c.001-2.242-1.817-4.059-4.059-4.059z" fill="#efd06f"/></g></g></g></svg>