<svg height="512" viewBox="0 0 64 64" width="512" xmlns="http://www.w3.org/2000/svg"><path d="m18 4h16a4 4 0 0 1 4 4v14a10 10 0 0 1 -10 10h-4a10 10 0 0 1 -10-10v-14a4 4 0 0 1 4-4z" fill="#0a5078" transform="matrix(-1 0 0 -1 52 36)"/><path d="m14 34h24v26h-24z" fill="#0a5078"/><path d="m38 47h-5a1 1 0 0 0 0 2h5z" fill="#00325a"/><path d="m18 34h16a0 0 0 0 1 0 0v12a8 8 0 0 1 -8 8 8 8 0 0 1 -8-8v-12a0 0 0 0 1 0 0z" fill="#00325a"/><path d="m22 34h8a0 0 0 0 1 0 0v16a4 4 0 0 1 -4 4 4 4 0 0 1 -4-4v-16a0 0 0 0 1 0 0z" fill="#f0f0f0"/><path d="m30 34-4 4-4-4v-6h8z" fill="#d2aa82"/><path d="m30 35-2.293 2.293a1 1 0 0 0 -.707-.293h-2a1 1 0 0 0 -.707.293l-2.293-2.293v8l2.293-2.293a1 1 0 0 0 .707.293h2a1 1 0 0 0 .707-.293l2.293 2.293z" fill="#d2d2d2"/><g fill="#c80a50"><path d="m21.707 33.707 4.293 4.293-4.293 4.293a1 1 0 0 1 -1.707-.707v-7.172a1 1 0 0 1 1.707-.707z"/><path d="m30.293 33.707-4.293 4.293 4.293 4.293a1 1 0 0 0 1.707-.707v-7.172a1 1 0 0 0 -1.707-.707z"/><rect height="4" rx="1" width="4" x="24" y="36"/></g><circle cx="26" cy="43" fill="#d2d2d2" r="1"/><circle cx="26" cy="49" fill="#d2d2d2" r="1"/><path d="m14 34a0 0 0 0 1 0 0v26a0 0 0 0 1 0 0h-6a0 0 0 0 1 0 0v-20a6 6 0 0 1 6-6z" fill="#f0f0f0"/><path d="m38 34h6a0 0 0 0 1 0 0v26a0 0 0 0 1 0 0 6 6 0 0 1 -6-6v-20a0 0 0 0 1 0 0z" fill="#f0f0f0" transform="matrix(-1 0 0 -1 82 94)"/><path d="m24.333 32h3.334a8.333 8.333 0 0 0 8.333-8.333v-5.667a6 6 0 0 0 -6-6h-2a6 6 0 0 1 -6 6h-6v5.667a8.333 8.333 0 0 0 8.333 8.333z" fill="#f0c8a0"/><path d="m38 18a0 0 0 0 1 0 0v6a0 0 0 0 1 0 0 2 2 0 0 1 -2-2v-2a2 2 0 0 1 2-2z" fill="#d2aa82" transform="matrix(-1 0 0 -1 74 42)"/><path d="m16 18a0 0 0 0 1 0 0v6a0 0 0 0 1 0 0 2 2 0 0 1 -2-2v-2a2 2 0 0 1 2-2z" fill="#d2aa82"/><rect fill="#fab400" height="2" rx="1" width="28" x="32" y="46"/><path d="m46 34a12 12 0 0 1 12 12 0 0 0 0 1 0 0h-24a0 0 0 0 1 0 0 12 12 0 0 1 12-12z" fill="#fab400"/><path d="m38 48h12a0 0 0 0 1 0 0 4 4 0 0 1 -4 4h-8a0 0 0 0 1 0 0v-4a0 0 0 0 1 0 0z" fill="#f0c8a0"/><path d="m38 52h8v1h-8z" fill="#d2d2d2"/><path d="m50 48h-12v1h11.874a4.024 4.024 0 0 0 .126-1z" fill="#d2aa82"/><path d="m34.042 45c-.027.33-.042.663-.042 1h24c0-.337-.015-.67-.042-1z" fill="#dc9600"/><circle cx="46" cy="32" fill="#fab400" r="2"/><path d="m8 54h20v6h-20z" fill="#f0f0f0"/><path d="m28 54h2a6 6 0 0 1 6 6 0 0 0 0 1 0 0h-8a0 0 0 0 1 0 0v-6a0 0 0 0 1 0 0z" fill="#f0c8a0"/><path d="m24 60h-12v-4a2 2 0 0 1 2-2h12a2 2 0 0 0 -2 2z" fill="#00a0c8"/></svg>