<?xml version="1.0" encoding="iso-8859-1"?>
<!-- Generator: Adobe Illustrator 19.0.0, SVG Export Plug-In . SVG Version: 6.00 Build 0)  -->
<svg version="1.1" id="Capa_1" xmlns="http://www.w3.org/2000/svg" xmlns:xlink="http://www.w3.org/1999/xlink" x="0px" y="0px"
	 viewBox="0 0 512 512" style="enable-background:new 0 0 512 512;" xml:space="preserve">
<path style="fill:#FFC850;" d="M295.763,90.839H191.465c-12.624,0-23.229,9.492-24.623,22.038l-5.809,52.284h165.161l-5.809-52.284
	C318.991,100.331,308.386,90.839,295.763,90.839z"/>
<path style="fill:#FFDC64;" d="M323.494,140.854c-20.638-14.375-45.211-23.484-71.877-25.013c-4.452-0.255-8.003-3.771-8.003-8.23
	V90.839h52.149c12.623,0,23.228,9.492,24.622,22.038L323.494,140.854z"/>
<path style="fill:#E1A546;" d="M194.377,99.097h98.473c4.733,0,8.57-3.837,8.57-8.57V8.57c0-4.733-3.837-8.57-8.57-8.57h-98.473
	c-4.733,0-8.57,3.837-8.57,8.57v81.957C185.807,95.26,189.644,99.097,194.377,99.097z"/>
<g>
	<path style="fill:#FFC850;" d="M214.711,82.581h57.806c6.841,0,12.387-5.546,12.387-12.387l0,0c0-6.841-5.546-12.387-12.387-12.387
		h-57.806c-6.841,0-12.387,5.546-12.387,12.387l0,0C202.324,77.035,207.869,82.581,214.711,82.581z"/>
	<path style="fill:#FFC850;" d="M295.763,421.161H191.465c-12.624,0-23.229-9.492-24.623-22.038l-5.809-52.284h165.161
		l-5.809,52.284C318.991,411.669,308.386,421.161,295.763,421.161z"/>
</g>
<path style="fill:#FFDC64;" d="M384.001,231.226h-24.774v49.548h24.774c4.561,0,8.258-3.698,8.258-8.258v-33.032
	C392.259,234.923,388.562,231.226,384.001,231.226z"/>
<path style="fill:#FFC850;" d="M384.001,264.258h-24.774v16.516h24.774c4.561,0,8.258-3.698,8.258-8.258V256
	C392.259,260.56,388.562,264.258,384.001,264.258z"/>
<circle style="fill:#FFF082;" cx="243.611" cy="256" r="123.87"/>
<path style="fill:#FFDC64;" d="M243.614,140.684v-8.555c-68.412,0-123.871,55.459-123.871,123.871s55.459,123.871,123.871,123.871
	v-8.555c0-4.238,3.197-7.925,7.425-8.213c55.827-3.814,99.93-50.308,99.93-107.102s-44.103-103.288-99.93-107.102
	C246.811,148.609,243.614,144.922,243.614,140.684z"/>
<circle style="fill:#464655;" cx="243.611" cy="256" r="90.84"/>
<circle style="fill:#5B5D6E;" cx="243.611" cy="256" r="74.32"/>
<circle style="fill:#464655;" cx="243.611" cy="256" r="24.774"/>
<g>
	<path style="fill:#E1A546;" d="M177.549,264.258h-24.774c-4.565,0-8.258-3.698-8.258-8.258s3.694-8.258,8.258-8.258h24.774
		c4.565,0,8.258,3.698,8.258,8.258S182.114,264.258,177.549,264.258z"/>
	<path style="fill:#E1A546;" d="M334.453,264.258h-24.774c-4.565,0-8.258-3.698-8.258-8.258s3.694-8.258,8.258-8.258h24.774
		c4.565,0,8.258,3.698,8.258,8.258S339.017,264.258,334.453,264.258z"/>
	<path style="fill:#E1A546;" d="M243.614,198.194c-4.565,0-8.258-3.698-8.258-8.258v-24.774c0-4.56,3.694-8.258,8.258-8.258
		s8.258,3.698,8.258,8.258v24.774C251.872,194.496,248.178,198.194,243.614,198.194z"/>
	<path style="fill:#E1A546;" d="M243.614,355.097c-4.565,0-8.258-3.698-8.258-8.258v-24.774c0-4.56,3.694-8.258,8.258-8.258
		s8.258,3.698,8.258,8.258v24.774C251.872,351.399,248.178,355.097,243.614,355.097z"/>
</g>
<g>
	<path style="fill:#FFDC64;" d="M284.896,289.032c-1.444,0-2.911-0.379-4.242-1.177l-41.29-24.774
		c-3.702-2.218-5.065-6.915-3.137-10.774l24.774-49.549c2.048-4.077,7-5.742,11.081-3.694c4.081,2.04,5.734,7,3.694,11.081
		l-21.355,42.71l34.734,20.839c3.911,2.347,5.177,7.419,2.831,11.331C290.436,287.605,287.703,289.032,284.896,289.032z"/>
	<path style="fill:#FFDC64;" d="M323.494,371.146c-20.638,14.375-45.211,23.484-71.877,25.013c-4.452,0.255-8.003,3.771-8.003,8.23
		v16.773h52.149c12.623,0,23.228-9.492,24.622-22.038L323.494,371.146z"/>
</g>
<path style="fill:#E1A546;" d="M194.377,412.903h98.473c4.733,0,8.57,3.837,8.57,8.57v81.957c0,4.733-3.837,8.57-8.57,8.57h-98.473
	c-4.733,0-8.57-3.837-8.57-8.57v-81.957C185.807,416.74,189.644,412.903,194.377,412.903z"/>
<path style="fill:#FFC850;" d="M214.711,429.419h57.806c6.841,0,12.387,5.546,12.387,12.387l0,0c0,6.841-5.546,12.387-12.387,12.387
	h-57.806c-6.841,0-12.387-5.546-12.387-12.387l0,0C202.324,434.965,207.869,429.419,214.711,429.419z"/>
<g>
</g>
<g>
</g>
<g>
</g>
<g>
</g>
<g>
</g>
<g>
</g>
<g>
</g>
<g>
</g>
<g>
</g>
<g>
</g>
<g>
</g>
<g>
</g>
<g>
</g>
<g>
</g>
<g>
</g>
</svg>
