<?xml version="1.0" encoding="iso-8859-1"?>
<!-- Generator: Adobe Illustrator 19.0.0, SVG Export Plug-In . SVG Version: 6.00 Build 0)  -->
<svg version="1.1" id="Capa_1" xmlns="http://www.w3.org/2000/svg" xmlns:xlink="http://www.w3.org/1999/xlink" x="0px" y="0px"
	 viewBox="0 0 370.054 370.054" style="enable-background:new 0 0 370.054 370.054;" xml:space="preserve">
<path style="fill:#877280;" d="M268.645,4.932h8.721c32.336,0,58.551,26.214,58.551,58.551V305.41H210.842V97.119
	C210.842,56.756,213.333,1.942,268.645,4.932z"/>
<g>
	<path style="fill:#3F404A;" d="M327.573,33.827c-15.174-25.163-51.717-24.101-64.57,2.319c-9.129,18.763-9.847,44.433-9.847,65.982
		V305.41h82.761V63.898C335.917,52.897,332.87,42.61,327.573,33.827z"/>
	<path style="fill:#3F404A;" d="M54.872,183.326c0,0-10.728,14.88-23.531,27.914c-2.952,3.006-6.086,5.816-9.245,8.605
		c-3.34,2.947-11.572,11.461-11.572,23.775v55.313h44.349L54.872,183.326L54.872,183.326z"/>
</g>
<g>
	<path style="fill:#877280;" d="M54.872,183.326c0,0-10.728,14.879-23.531,27.914c-2.952,3.006-6.086,5.816-9.245,8.605
		c-3.34,2.947-11.572,11.461-11.572,23.775v55.313h11.302l0.186-41.081c0,0-2.417-14.956,13.016-30.649
		c4.417-4.492,12.928-13.632,19.846-22.578v-21.299H54.872z"/>
	<path style="fill:#877280;" d="M109.54,4.932h22.995c24.453,0,44.276,19.823,44.276,44.277V305.41H51.737V97.119
		C51.737,56.756,54.228,1.942,109.54,4.932z"/>
</g>
<g>
	<path style="fill:#3F404A;" d="M166.578,24.529c-18.61-26.024-63.434-24.925-79.198,2.398
		C76.184,46.333,75.303,72.881,75.303,95.168v210.241h101.509V55.629C176.811,44.252,173.075,33.613,166.578,24.529z"/>
	<path style="fill:#3F404A;" d="M289.076,307.902v-17.621c0-13.316,3.101-26.451,9.057-38.363l0,0
		c3.548-7.095,5.395-14.918,5.395-22.851v-12.854c0-18.163,14.724-32.888,32.888-32.888l0,0c18.164,0,32.889,14.725,32.889,32.888
		v81.224c0,5.779-4.686,10.465-10.465,10.465L289.076,307.902L289.076,307.902z"/>
</g>
<path style="fill:#877280;" d="M336.415,183.326c-18.164,0-32.889,14.725-32.889,32.888v12.853c0,7.934-1.846,15.757-5.394,22.852
	c-5.956,11.912-9.057,25.047-9.057,38.363v17.621h26.641v-87.959c0-26.225,19.401-33.752,27.931-35.794
	C341.317,183.626,338.903,183.326,336.415,183.326z"/>
<path style="fill:#558971;" d="M336.415,183.326L336.415,183.326c-18.164,0-32.888,14.725-32.888,32.889v12.852
	c0,0.631-0.032,1.26-0.056,1.889c7.066,1.834,14.529-0.898,19.133-6.723c2.569-3.25,6.872-6.861,13.313-6.861
	c6.439,0,9.982,3.869,11.867,7.352c2.607,4.816,7.327,8.286,12.8,8.479c2.8,0.099,5.833-0.426,8.72-2.053v-14.934
	C369.304,198.05,354.579,183.326,336.415,183.326z"/>
<path style="fill:#6BC5D3;" d="M268.645,4.932h-98.49c-34.9,0-63.193,28.293-63.193,63.194v224.55h48.029l37.236,12.734h27.521
	V75.304c0-4.339,0.37-8.663,1.165-12.928C223.901,46.352,234.222,12.6,268.645,4.932z"/>
<path style="fill:#D9F1FA;" d="M268.645,4.932h-98.49c-34.9,0-63.193,28.293-63.193,63.194v95.402
	c7.443-2.895,12.728-10.112,12.728-18.579v-44.707c0-8.736,7.082-15.819,15.819-15.819c8.736,0,15.819,7.083,15.819,15.819v25.775
	c0,7.037,5.704,12.742,12.741,12.742l0,0c7.037,0,12.742-5.705,12.742-12.742v-9.629c0-5.118,4.149-9.268,9.268-9.268l0,0
	c5.118,0,9.268,4.149,9.268,9.268v33.935c0,8.048,6.524,14.573,14.572,14.573l0,0c3.771,0,7.226-1.453,9.831-3.84V75.305
	c0-4.339,0.369-8.663,1.164-12.928C223.901,46.352,234.222,12.6,268.645,4.932z"/>
<path style="fill:#0476A8;" d="M132.33,288.966H50.27c0,0-50.779-1.822-50.203,21.104c0,0-4.039,23.246,50.78,23.246h53.665
	c0,0,27.697,0.498,31.736,15.447c0,0,2.886,16.443,40.971,16.443h91.749c0,0,23.659,1.496,31.161-15.945
	c0,0,5.722-14.451,40.945-14.451c0,0,28.876,1.994,28.876-18.438c0,0,3.414-16.941-28.876-16.941h-121.73
	C219.344,299.431,177.46,281.492,132.33,288.966z"/>
<path style="fill:#6BC5D3;" d="M212.282,298.006c0,0-39.606-15.857-82.282-9.25H89.471v0.947c-0.036,4.35,2.324,16.21,28.723,18.229
	c12.744,0.975,23.889,7.01,28.479,15.867c0.077,0.15,0.155,0.302,0.231,0.455c0,0,4.725,11.371,41.344,11.371h52.565
	c0,0,9.302,0.1,16.196-5.515c5.822-4.742,13.786-7.735,22.441-7.735c0,0,30.941,3.684,24.162-22.918L212.282,298.006z"/>
<path style="fill:#D9F1FA;" d="M236.709,279.076c0-7.477-8.049-13.539-17.978-13.539c-2.325,0-4.541,0.344-6.581,0.949
	c-3.076-10.052-12.96-17.418-24.704-17.418c-10.35,0-19.248,5.728-23.325,13.965c-3.579-2.298-8.124-3.68-13.078-3.68
	c-8.721,0-16.184,4.265-19.304,10.316c-2.98-2.545-7.149-4.133-11.774-4.133c-9.051,0-16.388,6.059-16.388,13.532
	c0,0.39,0.031,0.772,0.07,1.154h-0.07v7.428c0,4.39,3.558,7.948,7.947,7.948h29.887c8.05,0,15.941,2.233,22.799,6.452l6.498,3.998
	c4.272,2.63,9.191,4.021,14.207,4.021h40.563c6.203,0,11.231-5.027,11.231-11.23C236.709,298.84,236.709,279.464,236.709,279.076z"
	/>
<path style="fill:#74B097;" d="M343.647,184.149c-2.33-0.523-4.744-0.823-7.232-0.823l0,0c-18.164,0-32.888,14.725-32.888,32.888
	v12.853c0,0.631-0.032,1.26-0.056,1.889c4.172,1.082,8.467,0.539,12.245-1.258v-9.754
	C315.717,193.718,335.119,186.191,343.647,184.149z"/>
<g>
</g>
<g>
</g>
<g>
</g>
<g>
</g>
<g>
</g>
<g>
</g>
<g>
</g>
<g>
</g>
<g>
</g>
<g>
</g>
<g>
</g>
<g>
</g>
<g>
</g>
<g>
</g>
<g>
</g>
</svg>
