<svg id="_01-watermelon" height="512" viewBox="0 0 48 48" width="512" xmlns="http://www.w3.org/2000/svg" data-name="01-watermelon"><path d="m23 5h-.013a.994.994 0 0 1 -.987-.993 2.916 2.916 0 0 1 3-3 1 1 0 0 1 0 2 .919.919 0 0 0 -1 1.012 1.006 1.006 0 0 1 -1 .981z" fill="#224326"/><path d="m8.58 9.89c-1.08 1.51-2.13 3.22-1.94 5.02.18 1.62 1.35 3.06 1.34 4.69 0 1.48-.97 2.77-1.75 4.07a6.559 6.559 0 0 0 -1.16 4.43c.36 1.96 2.16 3.5 2.53 5.46.29 1.52-.32 3.06-.42 4.6a6.78 6.78 0 0 0 .32 2.45 21.994 21.994 0 0 1 2.97-33.69 18.361 18.361 0 0 1 -1.89 2.97z" fill="#436600"/><path d="m17.21 40.11c-.58 2.27.61 4.56 1.84 6.53a20.964 20.964 0 0 1 -3.46-.92c-1.42-1.43-3-3.47-2.59-4.72a14.1 14.1 0 0 0 1-3c.13-1.18-1.23-2.34-1.68-3.42a18.533 18.533 0 0 1 -1.15-3.87 5.9 5.9 0 0 1 .09-3.15 16.654 16.654 0 0 1 1.42-2.31 5.525 5.525 0 0 0 .42-4.36c-.33-.97-.91-1.81-1.28-2.76a6.617 6.617 0 0 1 .97-6.36 7.411 7.411 0 0 0 1.39-1.86c.22-.58.84-1.28.82-1.91a16.56 16.56 0 0 1 .25-3.59v-.01a21.753 21.753 0 0 1 3.78-1.04 6.394 6.394 0 0 0 -.17 2.69c.19 1.49.54 3.11-.11 4.42-.21.42-.51.78-.75 1.18a7.463 7.463 0 0 0 -.49 5.26c.38 1.77 1.05 3.45 1.3 5.24a4.958 4.958 0 0 1 .02 1.63c-.33 1.88-2.17 3.02-2.68 4.84-.87 3.09 2.41 6.13 1.78 9.28-.16.77-.53 1.45-.72 2.21z" fill="#436600"/><path d="m13 41c-.41 1.25 1.17 3.29 2.59 4.72a21.813 21.813 0 0 1 -8.09-5.11 6.78 6.78 0 0 1 -.32-2.45c.1-1.54.71-3.08.42-4.6-.37-1.96-2.17-3.5-2.53-5.46a6.559 6.559 0 0 1 1.16-4.43c.78-1.3 1.75-2.59 1.75-4.07.01-1.63-1.16-3.07-1.34-4.69-.19-1.8.86-3.51 1.94-5.02a18.361 18.361 0 0 0 1.89-2.97 21.606 21.606 0 0 1 4.78-2.52v.01a16.56 16.56 0 0 0 -.25 3.59c.02.63-.6 1.33-.82 1.91a7.411 7.411 0 0 1 -1.39 1.86 6.617 6.617 0 0 0 -.97 6.36c.37.95.95 1.79 1.28 2.76a5.525 5.525 0 0 1 -.42 4.36 16.654 16.654 0 0 0 -1.42 2.31 5.9 5.9 0 0 0 -.09 3.15 18.533 18.533 0 0 0 1.15 3.87c.45 1.08 1.81 2.24 1.68 3.42a14.1 14.1 0 0 1 -1 3z" fill="#5d881d"/><path d="m23 7v40a21.417 21.417 0 0 1 -3.95-.36c-1.23-1.97-2.42-4.26-1.84-6.53.19-.76.56-1.44.72-2.21.63-3.15-2.65-6.19-1.78-9.28.51-1.82 2.35-2.96 2.68-4.84a4.958 4.958 0 0 0 -.02-1.63c-.25-1.79-.92-3.47-1.3-5.24a7.463 7.463 0 0 1 .49-5.26c.24-.4.54-.76.75-1.18.65-1.31.3-2.93.11-4.42a6.394 6.394 0 0 1 .17-2.69 21.634 21.634 0 0 1 3.97-.36z" fill="#5d881d"/><path d="m23 3a22 22 0 0 1 0 44v-4a18 18 0 1 0 0-36z" fill="#fdf1c1"/><path d="m35.73 12.27a18 18 0 0 1 -12.73 30.73v-36a17.983 17.983 0 0 1 12.73 5.27z" fill="#f84634"/><path d="m25 36h-3.75l-2.25 3h4l2.01-2.68c-.01-.11-.01-.21-.01-.32z" fill="#689629"/><path d="m35 43c-5.38 0-9.75-2.96-9.99-6.68l-2.01 2.68c0 4.26 4.65 7.74 11.26 7.99.24.01.49.01.74.01 7 0 12-3.58 12-8l-2.01-2.68c-.24 3.72-4.61 6.68-9.99 6.68z" fill="#8bc808"/><path d="m23 39h-4s0 7.75 15.26 7.99c-6.61-.25-11.26-3.73-11.26-7.99z" fill="#436600"/><path d="m31 23-9.75 13h3.75c0 .11 0 .21.01.32l9.99-13.32z" fill="#da1202"/><path d="m35 23-9.99 13.32c.24 3.72 4.61 6.68 9.99 6.68s9.75-2.96 9.99-6.68z" fill="#f8695b"/><path d="m8.58 9.89c-1.08 1.51-2.13 3.22-1.94 5.02.18 1.62 1.35 3.06 1.34 4.69 0 1.48-.97 2.77-1.75 4.07a6.559 6.559 0 0 0 -1.16 4.43c.36 1.96 2.16 3.5 2.53 5.46.29 1.52-.32 3.06-.42 4.6a6.78 6.78 0 0 0 .32 2.45 21.994 21.994 0 0 1 2.97-33.69 18.361 18.361 0 0 1 -1.89 2.97z" fill="#436600"/><path d="m17.21 40.11c-.58 2.27.61 4.56 1.84 6.53a20.964 20.964 0 0 1 -3.46-.92c-1.42-1.43-3-3.47-2.59-4.72a14.1 14.1 0 0 0 1-3c.13-1.18-1.23-2.34-1.68-3.42a18.533 18.533 0 0 1 -1.15-3.87 5.9 5.9 0 0 1 .09-3.15 16.654 16.654 0 0 1 1.42-2.31 5.525 5.525 0 0 0 .42-4.36c-.33-.97-.91-1.81-1.28-2.76a6.617 6.617 0 0 1 .97-6.36 7.411 7.411 0 0 0 1.39-1.86c.22-.58.84-1.28.82-1.91a16.56 16.56 0 0 1 .25-3.59v-.01a21.753 21.753 0 0 1 3.78-1.04 6.394 6.394 0 0 0 -.17 2.69c.19 1.49.54 3.11-.11 4.42-.21.42-.51.78-.75 1.18a7.463 7.463 0 0 0 -.49 5.26c.38 1.77 1.05 3.45 1.3 5.24a4.958 4.958 0 0 1 .02 1.63c-.33 1.88-2.17 3.02-2.68 4.84-.87 3.09 2.41 6.13 1.78 9.28-.16.77-.53 1.45-.72 2.21z" fill="#436600"/><path d="m13 41c-.41 1.25 1.17 3.29 2.59 4.72a21.813 21.813 0 0 1 -8.09-5.11 6.78 6.78 0 0 1 -.32-2.45c.1-1.54.71-3.08.42-4.6-.37-1.96-2.17-3.5-2.53-5.46a6.559 6.559 0 0 1 1.16-4.43c.78-1.3 1.75-2.59 1.75-4.07.01-1.63-1.16-3.07-1.34-4.69-.19-1.8.86-3.51 1.94-5.02a18.361 18.361 0 0 0 1.89-2.97 21.606 21.606 0 0 1 4.78-2.52v.01a16.56 16.56 0 0 0 -.25 3.59c.02.63-.6 1.33-.82 1.91a7.411 7.411 0 0 1 -1.39 1.86 6.617 6.617 0 0 0 -.97 6.36c.37.95.95 1.79 1.28 2.76a5.525 5.525 0 0 1 -.42 4.36 16.654 16.654 0 0 0 -1.42 2.31 5.9 5.9 0 0 0 -.09 3.15 18.533 18.533 0 0 0 1.15 3.87c.45 1.08 1.81 2.24 1.68 3.42a14.1 14.1 0 0 1 -1 3z" fill="#5d881d"/><path d="m23 7v40a21.417 21.417 0 0 1 -3.95-.36c-1.23-1.97-2.42-4.26-1.84-6.53.19-.76.56-1.44.72-2.21.63-3.15-2.65-6.19-1.78-9.28.51-1.82 2.35-2.96 2.68-4.84a4.958 4.958 0 0 0 -.02-1.63c-.25-1.79-.92-3.47-1.3-5.24a7.463 7.463 0 0 1 .49-5.26c.24-.4.54-.76.75-1.18.65-1.31.3-2.93.11-4.42a6.394 6.394 0 0 1 .17-2.69 21.634 21.634 0 0 1 3.97-.36z" fill="#5d881d"/><path d="m23 3a22 22 0 0 1 0 44v-4a18 18 0 1 0 0-36z" fill="#fdf1c1"/><path d="m35.73 12.27a18 18 0 0 1 -12.73 30.73v-36a17.983 17.983 0 0 1 12.73 5.27z" fill="#f84634"/><path d="m23 3v1a21 21 0 0 1 0 42v1a22 22 0 0 0 0-44z" fill="#7eaf31"/><path d="m44 25a20.991 20.991 0 0 0 -21-21v1a20 20 0 0 1 0 40v1a21 21 0 0 0 21-21z" fill="#dfe778"/><path d="m27 5.4a20.121 20.121 0 0 0 -4-.4v2a17.993 17.993 0 0 1 4 .462z" fill="#dfe778"/><path d="m27 42.538a17.993 17.993 0 0 1 -4 .462v2a20.047 20.047 0 0 0 4-.4z" fill="#dfe778"/><path d="m27 7.462a17.993 17.993 0 0 0 -4-.462v36a17.993 17.993 0 0 0 4-.462z" fill="#b31700"/><path d="m27 3.37a22.058 22.058 0 0 0 -4-.37v1a21 21 0 0 1 4 .392z" fill="#527710"/><path d="m23 46v1a22.058 22.058 0 0 0 4-.37v-1.021a21.086 21.086 0 0 1 -4 .391z" fill="#527710"/><path d="m27 4.392a21 21 0 0 0 -4-.392v1a20.121 20.121 0 0 1 4 .4z" fill="#c8da00"/><path d="m27 44.6a20.047 20.047 0 0 1 -4 .4v1a21.086 21.086 0 0 0 4-.391z" fill="#c8da00"/><path d="m7.18 38.16c.07-1.08.386-2.16.471-3.233a24.191 24.191 0 0 1 -5.3-17.508 21.989 21.989 0 0 0 5.149 23.191 6.78 6.78 0 0 1 -.32-2.45z" fill="#224326"/><path d="m13.422 39.917c-.144.341-.292.689-.422 1.083-.41 1.25 1.17 3.29 2.59 4.72a20.964 20.964 0 0 0 3.46.92 11.261 11.261 0 0 1 -1.971-4.94 21.974 21.974 0 0 1 -3.657-1.783z" fill="#224326"/><path d="m13 41c.13-.394.278-.742.422-1.083a22.911 22.911 0 0 1 -5.771-4.99c-.085 1.073-.401 2.153-.471 3.233a6.78 6.78 0 0 0 .32 2.45 21.813 21.813 0 0 0 8.09 5.11c-1.42-1.43-3-3.47-2.59-4.72z" fill="#436600"/><path d="m17.079 41.7a11.261 11.261 0 0 0 1.971 4.94 21.417 21.417 0 0 0 3.95.36v-4.031a19.974 19.974 0 0 1 -5.921-1.269z" fill="#436600"/><rect fill="#961300" height="3" rx="1" width="2" x="30" y="19"/><rect fill="#961300" height="3" rx="1" width="2" x="35" y="25"/><rect fill="#362f00" height="3" rx="1" width="2" x="33" y="32"/><rect fill="#362f00" height="3" rx="1" width="2" x="28" y="28"/><rect fill="#362f00" height="3" rx="1" width="2" x="34" y="14"/><rect fill="#362f00" height="3" rx="1" width="2" x="28" y="11"/><path d="m25 36h-3.75l-2.25 3h4l2.01-2.68c-.01-.11-.01-.21-.01-.32z" fill="#fdf1c1"/><path d="m35 43c-5.38 0-9.75-2.96-9.99-6.68l-2.01 2.68c0 4.26 4.65 7.74 11.26 7.99.24.01.49.01.74.01 7 0 12-3.58 12-8l-2.01-2.68c-.24 3.72-4.61 6.68-9.99 6.68z" fill="#fdf1c1"/><path d="m35 46c-.25 0-.5 0-.74-.011-5.877-.243-10.195-3.281-11.083-7.225l-.177.236c0 4.26 4.65 7.74 11.26 7.99.24.01.49.01.74.01 7 0 12-3.58 12-8l-.179-.238c-.921 4.111-5.569 7.238-11.821 7.238z" fill="#8bc808"/><path d="m35 45c-.25 0-.5 0-.74-.011-5.511-.228-9.649-2.915-10.876-6.5l-.207.276c.888 3.944 5.206 6.982 11.083 7.225.24.011.49.011.74.011 6.252 0 10.9-3.127 11.821-7.238l-.206-.276c-1.281 3.747-5.736 6.513-11.615 6.513z" fill="#dfe778"/><path d="m23 39h-4s0 7.75 15.26 7.99c-6.61-.25-11.26-3.73-11.26-7.99z" fill="#436600"/><path d="m31 23-9.75 13h3.75c0 .11 0 .21.01.32l9.99-13.32z" fill="#da1202"/><path d="m35 23-9.99 13.32c.24 3.72 4.61 6.68 9.99 6.68s9.75-2.96 9.99-6.68z" fill="#f8695b"/><path d="m20.5 37-.75 1h4l.75-1z" fill="#dfe778"/><path d="m19 39h4l.75-1h-4z" fill="#8bc808"/><rect fill="#362f00" height="3" rx="1" width="2" x="30" y="36"/><rect fill="#362f00" height="3" rx="1" width="2" x="34" y="28"/><rect fill="#362f00" height="3" rx="1" width="2" x="39" y="34"/><rect fill="#f84634" height="3" rx="1" width="2" x="34" y="33"/><path d="m19.75 38 .75-1 .75-1 1.75-2.333v-4.334l-5.082 6.776a4.711 4.711 0 0 1 .012 1.791c-.16.77-.53 1.45-.72 2.21a4.992 4.992 0 0 0 -.131 1.591 20.518 20.518 0 0 0 3.63.986 6.063 6.063 0 0 1 -1.709-3.687z" fill="#2f4700"/><path d="m27 24v4.333l3.25-4.333z" fill="#b31700"/><path d="m27 28.333v-4.333l-4 5.333v4.334z" fill="#961300"/><path d="m18.063 44.9a13.878 13.878 0 0 0 4.446 2.075c.165 0 .325.022.491.022v-2.48a9.577 9.577 0 0 1 -2.291-1.83 20.518 20.518 0 0 1 -3.63-.986 4.992 4.992 0 0 1 .131-1.591c.19-.76.56-1.44.72-2.21a4.711 4.711 0 0 0 -.012-1.791l-.668.891-.75 1-.75 1-.75 1a3.951 3.951 0 0 0 .134.852 7.334 7.334 0 0 0 2.924 4.048" fill="#224326"/><path d="m15 8c.02.63-.6 1.33-.82 1.91a7.411 7.411 0 0 1 -1.39 1.86 5.743 5.743 0 0 0 -.608.942 37.9 37.9 0 0 0 6.525 11.507 3.51 3.51 0 0 0 .123-.439 4.958 4.958 0 0 0 -.02-1.63c-.25-1.79-.92-3.47-1.3-5.24a7.463 7.463 0 0 1 .49-5.26c.24-.4.54-.76.75-1.18.65-1.31.3-2.93.11-4.42a6.394 6.394 0 0 1 .17-2.69 21.753 21.753 0 0 0 -3.78 1.04v.01a16.56 16.56 0 0 0 -.25 3.59z" fill="#5d881d"/><path d="m12.79 11.77a7.411 7.411 0 0 0 1.39-1.86c.22-.58.84-1.28.82-1.91a16.56 16.56 0 0 1 .25-3.59v-.01a21.627 21.627 0 0 0 -4.629 2.421 37.687 37.687 0 0 0 1.561 5.891 5.743 5.743 0 0 1 .608-.942z" fill="#7eaf31"/><path d="m18.86 6.05c.19 1.49.54 3.11-.11 4.42-.21.42-.51.78-.75 1.18a7.463 7.463 0 0 0 -.49 5.26c.38 1.77 1.05 3.45 1.3 5.24a4.958 4.958 0 0 1 .02 1.63 3.51 3.51 0 0 1 -.123.439 38.106 38.106 0 0 0 4.293 4.398v-25.617a21.634 21.634 0 0 0 -3.97.36 6.394 6.394 0 0 0 -.17 2.69z" fill="#7eaf31"/><path d="m30.25 24-3.25 4.333z" fill="#f84634"/><path d="m27 28.333-1.645 2.193z" fill="#b31700"/><path d="m46.216 37.955-1.226-1.635a5.112 5.112 0 0 1 -.349 1.524c.522.046 1.047.087 1.575.111z" fill="#fdf1c1"/><path d="m31 23-.75 1-3.25 4.333-1.645 2.193c.537.4 1.087.781 1.645 1.151q.5.331 1.008.646l.992-1.323 1-1.333 5-6.667z" fill="#ff604f"/><path d="m35 28a1 1 0 0 0 -1 1v1a1 1 0 0 0 2 0v-1a1 1 0 0 0 -1-1z" fill="#4f4600"/><path d="m40.7 34.29a1 1 0 0 0 -1.7.71v1a1.035 1.035 0 0 0 1 1 .961.961 0 0 0 .258-.052.986.986 0 0 0 .742-.948v-1a1 1 0 0 0 -.3-.71z" fill="#4f4600"/><path d="m35 33a1 1 0 0 0 -1 1v1a.979.979 0 0 0 .073.359c.457.18.918.354 1.385.516a.99.99 0 0 0 .542-.875v-1a1 1 0 0 0 -1-1z" fill="#f8695b"/><path d="m30.25 24h-3.25v4.333z" fill="#b31700"/><path d="m27 28.333v-4.333l-3.674 4.9c.659.563 1.333 1.109 2.029 1.627z" fill="#961300"/><g fill="#ffd2c7"><ellipse cx="33.746" cy="38.5" rx=".574" ry=".413" transform="matrix(.236 -.972 .972 .236 -11.625 62.218)"/><ellipse cx="29.746" cy="40.5" rx=".574" ry=".413" transform="matrix(.236 -.972 .972 .236 -16.625 59.86)"/><ellipse cx="31.746" cy="33.5" rx=".574" ry=".413" transform="matrix(.236 -.972 .972 .236 -8.294 56.453)"/><ellipse cx="28.746" cy="36.5" rx=".574" ry=".413" transform="matrix(.236 -.972 .972 .236 -13.502 55.831)"/><ellipse cx="36.746" cy="41.5" rx=".413" ry=".574" transform="matrix(.972 -.236 .236 .972 -8.748 9.833)"/></g><path d="m44.99 36.32-1.85-2.467-.7-.931-.715-.953-1.454-1.938-5.271-7.031-5 6.667-1 1.333-.992 1.323a37.753 37.753 0 0 0 6.065 3.036.979.979 0 0 1 -.073-.359v-1a1 1 0 0 1 2 0v1a.99.99 0 0 1 -.542.875c.494.173.99.339 1.493.491.684.207 1.377.392 2.076.561.353.085.707.17 1.064.245s.729.142 1.095.208c.382.069.769.125 1.154.182a.573.573 0 0 1 .159-.567c.19-.141.455-.03.591.249a.777.777 0 0 1 .072.436c.491.062.982.121 1.479.164a5.112 5.112 0 0 0 .349-1.524zm-8.99-6.32a1 1 0 0 1 -2 0v-1a1 1 0 0 1 2 0zm5 5.775v.225a.986.986 0 0 1 -.742.948.961.961 0 0 1 -.258.052 1.035 1.035 0 0 1 -1-1v-1a1 1 0 0 1 2 0z" fill="#ffb3a1"/><path d="m42.4 37.756c.136.279.4.391.59.249a.471.471 0 0 0 .17-.325c-.275-.035-.548-.077-.822-.118a.8.8 0 0 0 .062.194z" fill="#ffd2c7"/><path d="m43.09 37.244c-.136-.279-.4-.39-.591-.249a.573.573 0 0 0 -.159.567c.274.041.547.083.822.118a.777.777 0 0 0 -.072-.436z" fill="#f6fafd"/><ellipse cx="39.746" cy="38.5" fill="#ffd2c7" rx=".413" ry=".574" transform="matrix(.972 -.236 .236 .972 -7.956 10.455)"/><ellipse cx="37.746" cy="34.5" fill="#f6fafd" rx=".413" ry=".574" transform="matrix(.972 -.236 .236 .972 -7.07 9.871)"/><ellipse cx="39.746" cy="32.5" fill="#f6fafd" rx=".413" ry=".574" transform="matrix(.972 -.236 .236 .972 -6.542 10.286)"/><ellipse cx="13.246" cy="9" fill="#f6fafd" rx="2.297" ry="1.65" transform="matrix(.707 -.707 .707 .707 -2.485 11.997)"/><ellipse cx="14.246" cy="14" fill="#f6fafd" rx="1.148" ry=".825" transform="matrix(.707 -.707 .707 .707 -5.727 14.167)"/><ellipse cx="16.5" cy="7.5" fill="#f6fafd" rx=".574" ry=".413" transform="matrix(.707 -.707 .707 .707 -.473 13.858)"/></svg>