<svg id="Layer_2" height="512" viewBox="0 0 128 128" width="512" xmlns="http://www.w3.org/2000/svg" data-name="Layer 2"><path d="m98.0186 101.1266a50.6 50.6 0 1 1 -41.01-82.3l3.4589.0093a50.6462 50.6462 0 0 1 47.5259 61.5871z" fill="#3d7546"/><path d="m94.0676 33.3344a62.9494 62.9494 0 0 1 -45.6067 54.6947 62.6277 62.6277 0 0 1 -37.3-1.0007 50.6083 50.6083 0 0 0 86.8577 14.0982l9.9751-20.7033a50.6572 50.6572 0 0 0 -13.9261-47.0889z" fill="#315b35"/><path d="m56.1972 25.8473a16.1106 16.1106 0 0 1 9.082-16.286 14.18 14.18 0 0 1 16.4241 2.5442l-3.2541 3.0791a9.6994 9.6994 0 0 0 -11.1978-1.6c-9.2532 4.5359-5.8966 14.8147-6.5487 12.38z" fill="#2a422b"/><path d="m78.4492 15.1846 2.1763-2.0593a12.9927 12.9927 0 0 0 -14.1335-1.3333c-7.6723 3.6867-8.3108 9.8219-8.2378 14.1088l2.4485.0636c.6521 2.4347-2.7045-7.8442 6.5486-12.38a9.7 9.7 0 0 1 11.1979 1.6002z" fill="#203321"/><g fill="#7fbf6a"><path d="m25.2729 57.1356 5.464-6.5429 2.3418-7.1172 10.1474-5.0737 3.1223-5.0737v-5.4641l-9.7572.8366s-4.6834 8.53-5.8543 9.3109-6.6348 2.732-8.196 3.9029-3.9028 10.928-3.9028 10.928-4.2933 5.464-5.0738 7.0252 1.1709 9.97.39 10.8395c-.7641.8507-4.0021 11.6678-4.1387 12.1247a50.2485 50.2485 0 0 0 3.9044 9.9328l4.5274-8.1177v-10.729l7.0252-6.6349z"/><path d="m86.333 87.362-4.63-12.273 1.723-3.513-3.903-4.683 2.18-8.977-2.961-6.244 1.561-7.806-6.244-8.587-7.025 1.952 5.073 8.196-3.903 10.928 3.903 6.245-3.194 10.537 2.804 4.746-6.804 16.732z"/><path d="m54.9348 37.2309-10.5378 11.3184-1.5612 10.5377-5.464 9.7572.39 10.9478-4.6834 7.6885 1.3362 8.03-5.6294 6.3334 1.8309 9.7122a50.3331 50.3331 0 0 0 15.3771 6.86l-1.9865-21.8615 3.5126-6.6664-1.9514-5.2413 4.2931-7.9969-1.171-7.8058 7.4334-9.7572-1.1886-8.977 3.664-11.7086z"/><path d="m85.2743 26.41-5.7515 3.7959 8.7323 4.6835 1.4149 7.4152 7.143 6.6349-.5081 8.1961 5.0737 5.22-.39 5.8026 2.3417 1.2429-4.238 11 9.127-1.1419a50.5245 50.5245 0 0 0 -22.945-52.8492z"/></g><path d="m94.0651 33.36a62.7112 62.7112 0 0 1 -2.0631 11.111l4.8113 4.469-.5081 8.1961 5.0737 5.22-.39 5.8026 2.3417 1.2429-4.238 11 9.127-1.1419a50.4235 50.4235 0 0 0 -14.1545-45.8997z" fill="#669b50"/><path d="m83.4257 71.5762-3.4413-4.1295a62.8 62.8 0 0 1 -9.0989 9.0284l.8316 1.4076-6.804 16.732 21.42-7.2528-4.63-12.2732z" fill="#669b50"/><path d="m46.9688 88.41a63.0062 63.0062 0 0 1 -13.4122 1.9428l.8583 5.158-5.6294 6.3334 1.8309 9.7122a50.3331 50.3331 0 0 0 15.3771 6.86l-1.9868-21.8618 3.5126-6.6664z" fill="#669b50"/><path d="m11.1907 87.0388a50.32 50.32 0 0 0 2.53 5.7258l2.3832-4.273q-2.4905-.6265-4.9132-1.4528z" fill="#669b50"/><path d="m98.6587 76.1893 21.2755-8.031a47.2562 47.2562 0 0 1 -85.5193 32.2817l21.3982-8.0773z" fill="#3d7546"/><path d="m118.4055 68.7354-19.7468 7.4539-42.8456 16.1731-19.6986 7.4358c12.7778 15.8615 33.8622 22.7556 52.8871 15.5742s30.2946-26.2884 29.4039-46.637z" fill="#afd8a0"/><path d="m113.182 70.7071a40.319 40.319 0 0 1 -72.0149 27.1838z" fill="#db2e40"/><path d="m113.182 70.7071-15.712 5.931a54.2633 54.2633 0 0 1 -31.31 36.167 40.3193 40.3193 0 0 0 47.0222-42.098z" fill="#c61e32"/><g fill="#382326"><path d="m62.688 100.5107a1 1 0 0 1 -.8945-1.4443l1.9389-3.9043a1 1 0 1 1 1.791.8887l-1.9389 3.9043a.9981.9981 0 0 1 -.8965.5556z"/><path d="m75.7637 102.8438a1 1 0 0 1 -.9971-.9375l-.2729-4.3516a1 1 0 1 1 1.996-.125l.273 4.3516a1 1 0 0 1 -.9356 1.0605c-.0209.001-.0424.002-.0634.002z"/><path d="m88.2559 98.3262a1.0006 1.0006 0 0 1 -.834-.4463l-2.4119-3.6319a1 1 0 0 1 1.666-1.1074l2.4121 3.6319a1 1 0 0 1 -.832 1.5537z"/><path d="m96.8125 88.1689a.992.992 0 0 1 -.4438-.1044l-3.9048-1.9395a1 1 0 1 1 .89-1.791l3.9048 1.9394a1 1 0 0 1 -.4458 1.8955z"/></g><path d="m59.2134 27.3325a23.6453 23.6453 0 0 1 -6.7373-.9541 1 1 0 1 1 .5674-1.918 24.112 24.112 0 0 0 12.9726-.0322 1 1 0 1 1 .4981 1.937 29.33 29.33 0 0 1 -7.3008.9673z" fill="#28422b"/></svg>