<svg height="512" viewBox="0 0 64 64" width="512" xmlns="http://www.w3.org/2000/svg"><g id="a"><g><g><path d="m17 6-3-4h-12v25l12.935-9z" fill="#b5b1a5"/><path d="m26 10-3-4h-6l-6 3 1 6v13.696h15z" fill="#c4c1b7"/><path d="m22 25-4-2-1-6-5-2-5-1-5 4v7.484l10.978 8.853 9.022 3.663z" fill="#93918c"/><path d="m2 18 5-4 5 1 5 2 1 6 2.609 1.304v6.324c0 .971-1.198 1.431-1.847.708l-9.261-10.304-1.217 2.968-5.625.603s-.256-.259-.658-.668v-5.936z" fill="#a8a59d"/><path d="m15.646 32c.831-.733 1.354-1.805 1.354-3 0-1.865-1.276-3.431-3.002-3.874.001-.042.002-.083.002-.126 0-2.209-1.791-4-4-4-1.506 0-2.818.832-3.5 2.062-.682-1.23-1.994-2.062-3.5-2.062-.345 0-.681.044-1 .126v14.385z" fill="#5a8b1c"/><path d="m10 32-2-5h-6v21l6.674-3.655z" fill="#c4c1b7"/><path d="m2 44 5-4v-4l3-4h7l5 6v18.69h-20z" fill="#a8a59d"/><path d="m2 44 5-4v-4l3-4h7l3.227 3.872-2.02 1.333c-1.035.683-1.658 1.84-1.658 3.08v6.329c0 1.27-1.029 2.299-2.299 2.299l-12.25-2.392z" fill="#b5b1a5"/><path d="m8 27 1.267 3.169-2.777 3.847c-.308.427-.803.68-1.33.68-.906 0-1.64-.734-1.64-1.64v-6.056h4.478z" fill="#d0cdc5"/><path d="m11 9 6-3h6l1.376 1.835c-.034.033-.057.074-.093.105l-2.258 1.952c-1.142.987-1.798 2.422-1.798 3.931 0 1.173-.951 2.123-2.123 2.123h-.165c-.271 0-.54-.052-.792-.153l-5.374-2.161-.772-4.631z" fill="#d0cdc5"/><path d="m14 2 2.352 3.136-5.602 2.359c-.757.319-1.25 1.061-1.25 1.883v.319c0 1.128-.914 2.043-2.043 2.043-.231 0-.46.039-.677.116l-.538.189c-1.329.467-2.72-.519-2.72-1.927v-8.118z" fill="#bcb8af"/><path d="m3 21c1.506 0 2.818.833 3.5 2.062.682-1.23 1.994-2.062 3.5-2.062 2.209 0 4 1.791 4 4 0 .042 0 .084-.002.126 1.726.443 3.002 2.01 3.002 3.874 0 .414-.083.804-.199 1.179h-2.717c-1.431 0-2.775-.689-3.611-1.85l-1.644-2.284c-.472-.656-1.231-1.045-2.039-1.045h-4.79v-3.874c.32-.082.655-.126 1-.126z" fill="#78b22a"/></g><g><path d="m47 6 3-4h12v25l-12.935-9z" fill="#b5b1a5"/><path d="m38 10 3-4h6l6 3-1 6v13.696h-15z" fill="#c4c1b7"/><path d="m42 25 4-2 1-6 5-2 5-1 5 4v7.484l-10.978 8.853-9.022 3.663z" fill="#93918c"/><path d="m62 18-5-4-5 1-5 2-1 6-2.609 1.304v6.324c0 .971 1.198 1.431 1.847.708l9.261-10.304 1.217 2.968 5.625.603s.256-.259.658-.668v-5.936z" fill="#a8a59d"/><path d="m48.354 32c-.831-.733-1.354-1.805-1.354-3 0-1.865 1.276-3.431 3.002-3.874-.001-.042-.002-.083-.002-.126 0-2.209 1.791-4 4-4 1.506 0 2.818.832 3.5 2.062.682-1.23 1.994-2.062 3.5-2.062.345 0 .681.044 1 .126v14.385z" fill="#5a8b1c"/><path d="m54 32 2-5h6v21l-6.674-3.655z" fill="#c4c1b7"/><path d="m62 44-5-4v-4l-3-4h-7l-5 6v18.69h20z" fill="#a8a59d"/><path d="m62 44-5-4v-4l-3-4h-7l-3.227 3.872 2.02 1.333c1.035.683 1.658 1.84 1.658 3.08v6.329c0 1.27 1.029 2.299 2.299 2.299l12.25-2.392z" fill="#b5b1a5"/><path d="m56 27-1.267 3.169 2.777 3.847c.308.427.803.68 1.33.68.906 0 1.64-.734 1.64-1.64v-6.056h-4.478z" fill="#d0cdc5"/><path d="m53 9-6-3h-6l-1.376 1.835c.034.033.057.074.093.105l2.258 1.952c1.142.987 1.798 2.422 1.798 3.931 0 1.173.951 2.123 2.123 2.123h.165c.271 0 .54-.052.792-.153l5.374-2.161.772-4.631z" fill="#d0cdc5"/><path d="m50 2-2.352 3.136 5.602 2.359c.757.319 1.25 1.061 1.25 1.883v.319c0 1.128.914 2.043 2.043 2.043.231 0 .46.039.677.116l.538.189c1.329.467 2.72-.519 2.72-1.927v-8.118z" fill="#bcb8af"/><path d="m61 21c-1.506 0-2.818.833-3.5 2.062-.682-1.23-1.994-2.062-3.5-2.062-2.209 0-4 1.791-4 4 0 .042 0 .084.002.126-1.726.443-3.002 2.01-3.002 3.874 0 .414.083.804.199 1.179h2.717c1.431 0 2.775-.689 3.611-1.85l1.644-2.284c.472-.656 1.231-1.045 2.039-1.045h4.79v-3.874c-.32-.082-.655-.126-1-.126z" fill="#78b22a"/></g><path d="m50 54 2-4 10-2v14h-12z" fill="#b5b1a5"/><path d="m14 54-2-4-10-2v14h12z" fill="#b5b1a5"/><path d="m22 38v-24c0-2.209 1.791-4 4-4h12c2.209 0 4 1.791 4 4v24z" fill="#76d8ff"/><path d="m38 10h-12c-.347 0-.679.058-1 .141v17.152c0 4.808 3.898 8.707 8.707 8.707h8.293v-22c0-2.209-1.791-4-4-4z" fill="#9fe8ff"/><g fill="#bdecff"><path d="m27 34c-.553 0-1-.448-1-1v-8c0-.552.447-1 1-1s1 .448 1 1v8c0 .552-.447 1-1 1z"/><path d="m33 28c-.553 0-1-.448-1-1v-8c0-.552.447-1 1-1s1 .448 1 1v8c0 .552-.447 1-1 1z"/><path d="m29 21c-.553 0-1-.448-1-1v-6c0-.552.447-1 1-1s1 .448 1 1v6c0 .552-.447 1-1 1z"/><path d="m38 39c-.553 0-1-.448-1-1v-8c0-.552.447-1 1-1s1 .448 1 1v8c0 .552-.447 1-1 1z"/><path d="m37 19c.553 0 1-.448 1-1v-8h-2v8c0 .552.447 1 1 1z"/></g><path d="m18 54v-12c0-2.209 1.791-4 4-4h20c2.209 0 4 1.791 4 4v14.413z" fill="#76d8ff"/><path d="m42 38h-20c-.635 0-1.227.162-1.761.425v3.868c0 3.656 2.964 6.62 6.62 6.62h19.141v-6.913c0-2.209-1.791-4-4-4z" fill="#9fe8ff"/><path d="m50 62c2.209 0 4-1.791 4-4s-1.791-4-4-4c-.937 0-1.798.322-2.479.861-.802-1.691-2.525-2.861-4.521-2.861-1.271 0-2.431.474-3.313 1.255-.708-1.901-2.539-3.255-4.687-3.255-1.126 0-2.164.372-3 1-.836-.628-1.874-1-3-1-1.933 0-3.61 1.097-4.442 2.703-.749-.446-1.624-.703-2.559-.703-1.996 0-3.719 1.17-4.521 2.861-.682-.539-1.543-.861-2.48-.861-2.209 0-4 1.791-4 4s1.791 4 4 4z" fill="#76d8ff"/><path d="m32 48c-.553 0-1-.448-1-1v-6c0-.552.447-1 1-1s1 .448 1 1v6c0 .552-.447 1-1 1z" fill="#bdecff"/><path d="m26 52c-.553 0-1-.448-1-1v-10c0-.552.447-1 1-1s1 .448 1 1v10c0 .552-.447 1-1 1z" fill="#bdecff"/><path d="m38 52c-.553 0-1-.448-1-1v-10c0-.552.447-1 1-1s1 .448 1 1v10c0 .552-.447 1-1 1z" fill="#bdecff"/><path d="m11.141 57c.446 1.722 1.997 3 3.859 3h35c1.862 0 3.413-1.278 3.859-3-.446-1.722-1.997-3-3.859-3-.937 0-1.798.322-2.479.861-.802-1.691-2.525-2.861-4.521-2.861-1.271 0-2.431.474-3.313 1.255-.708-1.901-2.539-3.255-4.687-3.255-1.126 0-2.164.372-3 1-.836-.628-1.875-1-3-1-1.933 0-3.61 1.097-4.442 2.703-.748-.446-1.624-.703-2.559-.703-1.996 0-3.719 1.17-4.521 2.861-.682-.539-1.543-.861-2.479-.861-1.862 0-3.413 1.278-3.859 3z" fill="#ccf1ff"/><path d="m46.619 59.533c-.553 0-1-.448-1-1s.447-1 1-1c2.873 0 3.346-1.77 3.391-1.971.117-.533.634-.885 1.178-.772.535.109.886.62.784 1.157-.233 1.241-1.652 3.587-5.353 3.587z" fill="#e0f7ff"/><path d="m12 50s-7.259-1.452-8.946-1.789v9.784c0 1.252 1.015 2.266 2.266 2.266h2.054c1.27 0 2.299-1.029 2.299-2.299v-1.147c0-.976.517-1.88 1.358-2.375l2.463-1.45-1.495-2.99z" fill="#d9d5ca"/><path d="m52 50-1.285 2.57 2.419 1.449c1.016.609 1.638 1.706 1.638 2.89v1.868c0 .982.796 1.777 1.777 1.777h2.169c1.333 0 2.413-1.08 2.413-2.413v-9.967c-1.45.29-9.13 1.826-9.13 1.826z" fill="#d9d5ca"/></g></g></svg>