<svg height="512" viewBox="0 0 512 512" width="512" xmlns="http://www.w3.org/2000/svg"><g id="Flat"><path d="m488 79.42v148.51a260.094 260.094 0 0 1 -260.07 260.07h-18.12a129.8 129.8 0 0 1 -129.81-129.81v-62.19a56 56 0 0 1 -56-56v-16l16 16h30.11a28.926 28.926 0 0 1 25.89 16 28.939 28.939 0 0 1 25.89-16h38.11l16-16v16a56 56 0 0 1 -56 56h-8l18.51 50.9a56.356 56.356 0 0 0 101.76 8.94l136.26-235.84 9.25-16 34.5-59.72a40.583 40.583 0 0 1 35.14-20.28 33.159 33.159 0 0 1 14.83 3.5c.06.03.11.06.17.09a32.886 32.886 0 0 1 11.53 9.67 70.3 70.3 0 0 1 14.05 42.16z" fill="#677b92"/><path d="m183.475 424a95.824 95.824 0 0 1 -25.614-3.489l4.278-15.418a79.849 79.849 0 0 0 21.336 2.907 80.77 80.77 0 0 0 58.69-25.491l11.672 10.943a96.829 96.829 0 0 1 -70.362 30.548z" fill="#4b637d"/><path d="m488 79.42v148.51a259.918 259.918 0 0 1 -14.91 86.79c-.45 1.26-.91 2.53-1.38 3.79a.035.035 0 0 1 -.01.02 259.407 259.407 0 0 1 -24.03 48.5 262.14 262.14 0 0 1 -17.6 24.53q-2.76 3.42-5.64 6.72l-.01.01a260.089 260.089 0 0 1 -122.41 78.93 377.065 377.065 0 0 0 73.99-205.22v-48l20.15-45.8 13.41-30.46 11.28-25.65 11.16-25.37v-.01l11.67-26.51v-.01l9.99-22.69 8.76-19.91a32.886 32.886 0 0 1 11.53 9.67 70.3 70.3 0 0 1 14.05 42.16z" fill="#dadada"/><path d="m340 248a12 12 0 1 0 12 12 12.013 12.013 0 0 0 -12-12z" fill="#3d5671"/><g fill="#c9c9c9"><path d="m471.71 318.51a.035.035 0 0 1 -.01.02 259.407 259.407 0 0 1 -24.03 48.5c20.91-91.81 12.15-230.42-4-296.83v-.01l9.99-22.69 2.94 9.02c.04.1.07.2.1.3 15.1 53.25 25.23 167.85 15.01 261.69z"/><path d="m424.43 398.28-.01.01a257.54 257.54 0 0 1 -21.78 22.28c36.36-140.67 23.35-262.73 18.2-298.48l11.16-25.37 2.77 11.39c.03.12.06.25.08.37.3 1.52 7.23 37.92 8.44 96.27a831.375 831.375 0 0 1 -18.86 193.53z"/><path d="m410.94 259.95c-3.13 47.16-11.88 114.23-35.13 181.91a255.875 255.875 0 0 1 -21.99 13.63c27.83-72.09 37.76-145.81 41.13-196.26a761.705 761.705 0 0 0 1.2-81.03l13.41-30.46 1.37 10.19c.01.1.02.2.03.31.17 1.69 3.94 42.16-.02 101.71z"/></g><g fill="#7c8ca6"><path d="m359.533 358.911-32.533-67.911-26.624 45.519a16 16 0 0 0 -.5 15.233l65.252 130.5a10.18 10.18 0 0 0 8.338 5.723 9.889 9.889 0 0 0 10.534-9.864 302.6 302.6 0 0 0 -24.467-119.2z"/><path d="m376 136h16v16h-16z"/><path d="m400 96h16v16h-16z"/><path d="m408 64h16v16h-16z"/><path d="m384 104v16h-15.47l9.25-16z"/></g><path d="m302.535 386.273c-15.352 0-27.547-11.971-28.192-12.616l11.289-11.339c.121.119 12.218 11.814 22.79 6.527l7.156 14.31a28.827 28.827 0 0 1 -13.043 3.118z" fill="#4b637d"/></g></svg>