<svg id="Layer_1" enable-background="new 0 0 512 512" height="512" viewBox="0 0 512 512" width="512" xmlns="http://www.w3.org/2000/svg"><g id="XMLID_1_"><g id="XMLID_3751_"><path id="XMLID_1558_" d="m416 366.3s-27.4 140.7-105.5 140.7c-23.8 0 18.7-19.1 16-102.1z" fill="#9cd3fc"/><path id="XMLID_2090_" d="m325.4 435c30.8-5.4 56.8-15 78.8-27.1 8.2-23.4 11.8-41.7 11.8-41.7l-89.5 38.6c.3 11.3-.1 21.3-1.1 30.2z" fill="#69bdfb"/><path id="XMLID_1564_" d="m99.7 130.3c65.2-18.2 64.4-103.8 64.4-103.8s-17.4 19.7-45.5 19.7-36.3 31-36.3 31c-.8-21.2-14.4-39.4-37.2-39.4s-40.1-32.8-40.1-32.8c0 108.9 44.9 119.4 44.9 119.4-26.6 182.7 35.3 287.6 206.1 287.6 208.4 0 251-165 251-200.6 0-18.4-22.5-21.3-22.5-21.3-16.5-50.1-113.3-48.1-174.6-23.2-67.9 27.6-101.9 91-169.8 69.9-69.5-21.7-40.4-106.5-40.4-106.5z" fill="#3279af"/><path id="XMLID_1607_" d="m331 267.7c-20.1 40.1-49.3 44.3-49.3 44.3l-97.8 54.3s-37.3 22.4-78.5 0c34.6 29.9 84.4 45.7 150.6 45.7 208.4 0 251-165 251-200.6 0-18.4-22.5-21.3-22.5-21.3-96.3.1-133.5 37.5-153.5 77.6z" fill="#9cd3fc"/><g id="XMLID_1563_"><path id="XMLID_2241_" d="m451 342.4-8.6-5.1c39.8-67.3 37.2-146.1 37.2-146.9l10-.4c.1 3.3 2.7 82.6-38.6 152.4z" fill="#69bdfb"/></g><g id="XMLID_1562_"><path id="XMLID_2240_" d="m389.7 387.3-8.4-5.5c62.4-94.8 56.1-187.5 56-188.4l10-.8c.1 1 1.8 24.6-4.4 60.5-5.8 33.1-19.7 83.2-53.2 134.2z" fill="#69bdfb"/></g><g id="XMLID_1561_"><path id="XMLID_2239_" d="m330.5 407.9-8.2-5.8c56.2-79.4 54-188.3 53.9-189.4l10-.3c0 1.1.7 28.6-5.8 66.5-5.9 35.2-19.4 86-49.9 129z" fill="#69bdfb"/></g><g id="XMLID_1560_"><path id="XMLID_2238_" d="m276.5 415.2-7.7-6.4c38.3-45.9 39.5-115 39.5-115.7l10 .1c0 3-1.2 73.3-41.8 122z" fill="#69bdfb"/></g><path id="XMLID_2235_" d="m281.7 312s8.4 86-38.5 140.5-91.1 54.5-103.6 54.5 14.2-22 32.6-70 11.7-70.7 11.7-70.7 5.8-68.4 97.8-54.3z" fill="#3279af"/><g fill="#275e87"><circle id="XMLID_1557_" cx="301" cy="249" r="15"/><g id="XMLID_2246_"><path id="XMLID_2247_" d="m140.1 236.7c-69.5-21.6-40.4-106.4-40.4-106.4 65.2-18.2 64.4-103.8 64.4-103.8s-17.4 19.7-45.5 19.7c-28 0-36.4 31.1-36.4 31.1-.7-21.3-14.3-39.5-37.1-39.5-22.7 0-40.1-32.8-40.1-32.8 0 98.6 36.8 116.5 43.8 119l1.1.4s18.9 115.2 113.9 116.5c-7.4-.2-15.3-1.6-23.7-4.2z"/><path id="XMLID_2248_" d=""/></g></g></g></g></svg>