<svg id="Capa_1" enable-background="new 0 0 512 512" height="512" viewBox="0 0 512 512" width="512" xmlns="http://www.w3.org/2000/svg"><g><g><path d="m45 480.956c-8.291 0-15-6.709-15-15v-30c0-8.291 6.709-15 15-15s15 6.709 15 15v30c0 8.291-6.709 15-15 15z" fill="#cce6ff"/></g><g><path d="m467 480.956c-8.291 0-15-6.709-15-15v-30c0-8.291 6.709-15 15-15s15 6.709 15 15v30c0 8.291-6.709 15-15 15z" fill="#b5c9f2"/></g><g><path d="m467 300.956c-8.291 0-15-6.709-15-15v-210c0-8.291 6.709-15 15-15s15 6.709 15 15v210c0 8.291-6.709 15-15 15z" fill="#b5c9f2"/></g><g><path d="m45 300.956c-8.291 0-15-6.709-15-15v-210c0-8.291 6.709-15 15-15s15 6.709 15 15v210c0 8.291-6.709 15-15 15z" fill="#cce6ff"/></g><g><path d="m512 405.956c0 24.814-20.186 45-45 45h-422c-24.814 0-45-20.186-45-45v-90c0-24.814 20.186-45 45-45h422c24.814 0 45 20.186 45 45z" fill="#4d4d99"/></g><path d="m512 315.956c0-24.814-20.186-45-45-45h-211v180h211c24.814 0 45-20.186 45-45z" fill="#292966"/><g id="Wifi_Signal_1_"><g><circle cx="75" cy="345.956" fill="#9ff" r="15"/></g><g><circle cx="135" cy="345.956" fill="#9ff" r="15"/></g><g><circle cx="195" cy="345.956" fill="#9ff" r="15"/></g><g><path d="m437 360.956h-120c-8.291 0-15-6.709-15-15s6.709-15 15-15h120c8.291 0 15 6.709 15 15s-6.709 15-15 15z" fill="#5a5ab3"/></g><g><circle cx="256" cy="225.956" fill="#59abff" r="15"/></g><g><g><path d="m372.66 109.281c-31.113-31.113-72.539-48.237-116.66-48.237s-85.547 17.124-116.66 48.237c-5.859 5.859-15.352 5.859-21.211 0s-5.859-15.352 0-21.211c36.767-36.782 85.723-57.026 137.871-57.026s101.104 20.244 137.871 57.026c5.859 5.859 5.859 15.352 0 21.211s-15.351 5.86-21.211 0z" fill="#59abff"/></g><g><path d="m330.238 151.703c-40.957-40.928-107.52-40.928-148.477 0-5.859 5.859-15.352 5.859-21.211 0s-5.859-15.352 0-21.211c52.617-52.646 138.281-52.646 190.898 0 5.859 5.859 5.859 15.352 0 21.211-5.858 5.859-15.35 5.86-21.21 0z" fill="#59abff"/></g><g><path d="m287.816 194.14c-17.52-17.549-46.113-17.549-63.633 0-5.859 5.859-15.352 5.859-21.211 0s-5.859-15.352 0-21.211c29.238-29.238 76.816-29.238 106.055 0 5.859 5.859 5.859 15.352 0 21.211s-15.351 5.859-21.211 0z" fill="#59abff"/></g></g></g><g fill="#4d87ff"><path d="m372.66 109.281c5.859 5.859 15.352 5.859 21.211 0s5.859-15.352 0-21.211c-36.767-36.782-85.723-57.026-137.871-57.026v30c44.121 0 85.547 17.124 116.66 48.237z"/><path d="m330.238 151.703c5.859 5.859 15.352 5.859 21.211 0s5.859-15.352 0-21.211c-26.308-26.323-60.879-39.485-95.449-39.485v30c26.88 0 53.76 10.232 74.238 30.696z"/><path d="m287.816 194.14c5.859 5.859 15.352 5.859 21.211 0s5.859-15.352 0-21.211c-14.619-14.619-33.823-21.929-53.027-21.929v29.978c11.528 0 23.057 4.387 31.816 13.162z"/><path d="m271 225.956c0-8.286-6.716-15-15-15v30c8.284 0 15-6.716 15-15z"/></g></g></svg>