<svg id="Layer_1" enable-background="new 0 0 100 100" viewBox="0 0 100 100" xmlns="http://www.w3.org/2000/svg"><g fill="#ff7069"><path d="m50 12.826292c-17.9788322 0-34.4560356 6.8510132-46.8175545 18.1192799-.8523066.7769299-.9089844 2.1022453-.1547992 2.9747391l2.37567 2.7483521c.7832069.9060707 2.163312 1.0054398 3.0499802.2003326 11.0169698-10.0035782 25.5419618-16.1076336 41.5467035-16.1076336s30.5297318 6.1040554 41.5467072 16.1076336c.8866653.8051071 2.2667694.7057381 3.0499802-.2003326l2.3756714-2.7483521c.7541809-.8724937.6975021-2.1978092-.1548004-2.9747391-12.361519-11.2682667-28.8387223-18.1192799-46.8175584-18.1192799z"/><path d="m50 32.9690247c-12.9755325 0-24.7705555 4.994503-33.5833244 13.1818047-.857028.7962036-.9499702 2.1198654-.1849785 3.0048676l2.3722095 2.7443466c.7919426.9161758 2.1839466.9973602 3.0725269.174572 7.478365-6.9246255 17.4144669-11.1705171 28.3235665-11.1705171 10.9008293 0 20.9184341 4.2394562 28.3246307 11.1547737.8879395.8290901 2.2848511.7511826 3.0792923-.1678886l2.3643799-2.7352867c.7649918-.8850021.6720505-2.2086639-.1849747-3.0048676-8.8127746-8.1873016-20.6077957-13.1818046-33.5833282-13.1818046z"/><path d="m50 53.1117592c-8.0137672 0-15.1740417 3.158123-20.5425282 8.3015747-.8267403.7920837-.8813896 2.0991516-.1315308 2.9643745l2.4116173 2.7826233c.8244953.9513397 2.264082.9637299 3.1592007.0785141 3.8985748-3.855442 9.228302-6.1920776 15.103302-6.1920776s11.204731 2.3366356 15.103302 6.1920776c.8951187.8852158 2.3347092.8728256 3.1592026-.0785141l2.4116058-2.782608c.7498627-.8652306.6952057-2.1723061-.131546-2.9643898-5.3685837-5.1434517-12.5288582-8.3015747-20.5426254-8.3015747z"/><path d="m50 73.2544937c-3.0324631 0-5.7859573 1.4647598-7.5096512 3.7589264-.6111412.8134003-.5768776 1.9441757.0885391 2.7138062l5.7951889 6.7028656c.8572235.9914856 2.3946228.9914856 3.2518463 0l5.7806931-6.6860962c.6690445-.7738342.7032166-1.9141388.0796852-2.72509-1.7251472-2.2437134-4.4674911-3.764412-7.4863014-3.764412z"/></g></svg>