<svg id="Layer_1" enable-background="new 0 0 300 300" viewBox="0 0 300 300" xmlns="http://www.w3.org/2000/svg"><g><g><g><path d="m224.2 253.3c-.3-.7-.7-1.4-1.3-2-1.4-1.4-3.4-1.9-5.4-1.7l-1.9.2c-.2 0-.4-.1-.5-.3-.2-.6-5.2-14.8-5.2-21v-.4c0-27.4.8-45.4 2.2-50.8.7-2.5 1.7-5.5 2.8-8.7 2.5-7.1 6.2-16.6 6.4-26.3-3.3 5.1-5.5 7.5-11.5 12.5-1.6 1.4-6.1 4.3-8.4 6.3-3.6 3.1-4 11.1-4.8 26.9l6.4 63 2.8 7.4 15.9.1c1.4 0 2.6-1.1 2.8-2.5.1-.7 0-1.7-.3-2.7z" fill="#9b9a9a"/></g></g><g><path d="m59.8 254.3 9.5 21.7 3-17.9c0-.2.1-.3.3-.3.2-.1.3 0 .4.1l3.6 3.1 3.8-25.9c-7.5 6-17.1 10.6-20.6 19.2z" fill="#686766"/></g><g><path d="m68.9 198.4c-3.7-6.8-3.4-11.6-3.4-11.6-3-9-9.1-18.5-9.2-24.8-11.5 25.5-7.8 61.3-6.9 68 0 0 5.4 1.6 15.5-14.4 10.1-15.9 4-17.2 4-17.2z" fill="#686766"/></g><g><path d="" fill="#7f7e7d"/></g><g><g><path d="m237 19.8c2.2-3.8 2.8-8.5 4.5-12.1-2.4-2-4.9-2.5-5.6-2.7l-12.4 16.1c-2.1 2.8-5 4.6-8.2 5.3-10.1 2.1-16.2 15.1-17.9 19-.1.1-.2.2-.3.3-1 .8-9.2 7-18.4 12.9.3.8 4.2 4 11.3 4h.1.1l.1.9c-3.2 4.2-9.6 12.3-14.4 16.5-.5.4-1.1 1-1.7 1.5-.2.1-11.2 6.7-18.7 10.1 1.3.1 3.5.3 6.5.1.2 0 .4.1.4.3.1.2 0 .4-.1.5-3.7 3.2-6.7 5.5-9.1 6.9-9.8 5.7-20.8 11.1-32.4 16.9-14.5 7.2-31 15.3-47.6 25.3-7.9 4.7-13.4 12-17.2 20.5.1 6.3.8 15.8 3.8 24.8 0 0 1.4 6.6 5.1 13.4 0 0-.4 11.6-17.9 32.5l-.9 1.2c-4.3 26-2.2 50.4-.9 58.8.2 1.4 1.4 2.4 2.7 2.4h20c.9 0 1.7-.4 2.3-1s.9-1.4.9-2.2c0-1.1-.3-2.1-.8-3.2-1.7-4-11.2-5.4-11.3-5.4-.2 0-.4-.2-.4-.4v-9.9c-.9-15 10.1-26.7 21.4-35.9 3.3-2.7 6.6-5.1 9.7-7.4 4.1-3 7.6-5.6 10.1-8 3.9-3.7 9-10.7 13.9-18.4 0 0 8.5-10.8 9.7-20.3s37.4-11.8 44.4-18.6l5.7 5.9.4 2.3c1.5 9.3 3.8 32 5.1 45.6.4 4.4.2 9.3-.7 15-1 6.3 1.5 10.6 1.6 10.6 0 0 .1.1.1.2 2.7 16.6 8.9 16.2 14.4 15.8 1.6-.1 3.1-.2 4.5.1 3.5.9 6.2-.2 7.5-1.6.9-.9 1.3-1.9 1-2.9-.8-3.1-4-5.5-8.9-6.8-6.6-1.6-5.7-11.6-3.9-19.6.7-3.1 1-11 1.4-20.2.8-18.9 1.8-42.5 6.6-46.5 2.4-2 4.3-3.6 6-5 8.5-7.1 8.5-7.1 16.5-20.3l2.2-3.6c2.7-4.5 4.9-8.7 6.7-12.9.5-4.8 2.9-9.8 3.5-14 1.8-13-10.1-45.6-10.7-53.3-.4-8.1 6.1-26.4 10.2-33.5z" fill="#7f7e7d"/></g><g><path d="m173.8 170.1-2.6-11.6c-7 6.8-49.6 13.2-50.7 22.6-1.2 9.5-6.4 22.1-6.4 22.1 7.9-5.8 25.1-17.7 35.6-22.3 13.2-5.7 21.5-10.1 23.1-10.9z" fill="#ede4dc"/></g></g><g><path d="m238.9 107.4c.2 0 .4.1.4.3l1.2 3c2.8-6.8 1.5-18.9 1.1-21.3.3-3.8.5-7.5.6-11.3.2-13.4 7.7-32.6 12.2-37.1 3.4-3.4.9-10.4.1-12.4-1.9 1.6-8.2 6.7-10.6 6.3-.4-.1-.7-.3-.9-.6-.7-1.1 0-2.7.8-4.9 1.4-3.5 3.2-8.2 1.9-14.2-.8-3.7-2.5-6.1-4.3-7.6-1.7 3.6-4.1 8.4-6.3 12.1-4.1 7.1-12.4 25.4-11.8 33.1s14.2 40.2 12.4 53.3c-.6 4.3-1.2 9.3-1.7 14 1.8-4.1 3.2-8.2 4.4-12.5.2-.1.3-.2.5-.2z" fill="#ede4dc"/></g><g><path d="m214.6 41.1.9-6.2 3.4-2c-.1 8.6-4.3 8.2-4.3 8.2z" fill="#2b2621"/></g></g></svg>