<svg id="Layer_1" enable-background="new 0 0 52 52" height="512" viewBox="0 0 52 52" width="512" xmlns="http://www.w3.org/2000/svg"><g id="_x34_3"><g><g><path d="m12.4729939 19.5487518c-4.809998 1.3200073-6.4899907 6.1400146-7.0100102 10.2000122-.2299805 1.7200317-.25 3.289978-.2199707 4.4199829.0100098.3600464-.4700317.4700317-.6099854.1400146-.4800415-1.1599731-1.1100464-2.8300171-1.5300293-4.6499634-.8099976-3.4900513-.8900146-7.5100098 2.1799927-9.3800049.8400269-.5300293 1.8500366-.7300415 2.8400273-.7300415h4.3499756z" fill="#312e4b"/></g></g><g><g><path d="m39.2647247 26.866724s-1.1998405 4.8436642-3.3604736 7.2203617l-1.962574 12.9187851h.0000038c1.337471 0 2.4217072 1.0842361 2.4217072 2.4217072v.2884407h-4.1232109l-1.0893174-16.3581467s.3511028-6.3198528.432127-6.3738689c.0810223-.0540161 3.6248035-2.2146492 3.6248035-2.2146492z" fill="#312e4b"/></g></g><g><g><path d="m18.2330055 31.5042515s-.8021679 5.3106327-3.6650066 7.7953625c-1.5383959 2.4631157-.8513288 5.2980232 1.269372 8.3724518h.314744c1.1288414 0 2.0439472.9151077 2.0439472 2.0439491v.0000038h-3.2196217c-.4974518 0-.9510326-.2846527-1.1673689-.7325974l-3.3458128-6.927845c-.3068542-.6353722-.2175245-1.3804131.1992331-1.9497719 1.5865164-2.1674423 2.1650267-4.4945335 1.7737808-6.9751892-.3045244-4.2471981 1.8737803-4.3817768 5.7967329-1.6263637z" fill="#312e4b"/></g></g><g><g><path d="m49.5730286 7.438767c0 .2299805-.1000366.460022-.2800293.6099858l-3.7299805 3.1799927c-.5700073.4800415-.9100342 1.1800537-.9100342 1.9300537 0 .3099976-.0100098.6299438-.0299683.9499512-.3099976 4.4500113-2.9199829 9.249999-5.5800171 13.0900259-4.5016365 6.4975243-6.0056572 6.389328-6.0899658 8.6400146l-.4500122 11.9499512h.1399536c.5300293 0 1.0100098.2200317 1.3600464.5700073.3399658.3500366.5599976.8300171.5599976 1.3600464h-3.3699932c-.6700439 0-1.2300415-.5100098-1.2900391-1.1800537l-1.1499634-12.75c-.1500244-1.6099854-1.4100342-2.8899536-3.0100098-3.0499878-5.5-.5499878-11.1900024-2.1199951-11.539978-2.2099609l-.0200195-.0100098c-5.9548111 9.178299-7.0441594 8.2569618-8.1500244 10.0999756-1.1905503 1.9525223-.3823919 3.5422211-.2299805 7.0700073h.1599731c.6400146 0 1.210022.2600098 1.6300049.6799927.4200444.4199829.6799932.9899902.6799932 1.6300049h-3.0000009c-.75 0-1.3899536-.539978-1.5199585-1.2799683l-1.2900391-7.7800293c-.1599731-.9699707.2200317-1.9500122 1-2.5499878l2.0200195-1.5800171c1.0499878-3.3200073 1.2800293-6.6799927.5100098-10.0899658-.960022-4.3099976 1.5-8.7200317 5.7799687-9.7800293.1800537-.0499878.3600464-.0900269.5500488-.1300049.2699585-.0599976.5499878-.0999756.8199463-.1300049.8700562-.1199951 1.7600098-.1300049 2.6300049-.0499878 5.9205551.4857178 12.9997978.0636196 17.0800152-4.249999-.2799683-.0999756-.5200195-.2000122-.7299805-.3300171-.4700298-.2699585-.7499981-.6099854-.8099957-1.0199585l1.3900127-.8300171 4.4099731-2.6300054c1.789978-1.8300171 3.4199829-2.8400269 4.7700195-2.539978l2.6399536-2.6900022c.0200195-.0200195.0599976-.0500488.0900269-.0700073.6099854-.5200197 1.5900269-.2399902 1.8200073.5499878l.0100098.0299683c.0199585.0900269.039978.1800537.039978.2600098.0046883.1005847.1384811 2.9719255.1300049 2.7900388l1.0599976.8999634.9799805-.1499634c.4800416-.0800172.9200441.2999877.9200441.789978z" fill="#5b5e8b"/></g></g><g><g><path d="m15.4830036 16.6087494c-.4899902.0300293-.9799805.1000366-1.4699707.2000122-.1900024.039978-.3700562.0800171-.5500488.1300049-4.2799683 1.0599976-6.7399907 5.4700317-5.7799687 9.7800293.77002 3.4099731.5399785 6.7699585-.5100098 10.0899658l-2.0200196 1.5800171c-.7799683.5999756-1.1599731 1.5800171-1 2.5499878l1.2900391 7.7800293c.1300049.7399902.7699585 1.2799682 1.5199585 1.2799682h-1.6900024c-.75 0-1.3899536-.539978-1.5199585-1.2799683l-1.2900391-7.7800293c-.1599731-.9699707.2200317-1.9500122 1-2.5499878l2.0200195-1.5800171c1.0499878-3.3200073 1.2800293-6.6799927.5100098-10.0899658-.960022-4.3099976 1.5-8.7200317 5.7799687-9.7800293.1800537-.0499878.3600464-.0900269.5500488-.1300049 1.0399781-.2100219 2.0999757-.2700194 3.1599732-.2000121z" fill="#312e4b"/></g></g><g><g><path d="m47.6721077 6.8015213c-.5617332.9895868-2.5322037.3327456-2.5322037.3327456-.038929-1.2574768 1.3611565-3.6471498 1.3611565-3.6471498l.116684 2.4112742z" fill="#312e4b"/></g></g><g><g><path d="m32.8501968 12.3759651c1.2328606.1639595 2.34515.2589245 3.4248886-.1897707.3518906-.1471224.6545181-.3814211.9795609-.6372147-.8056908 1.6300316-3.0760689 1.6876193-4.4044495.8269854z" fill="#312e4b"/></g></g><g><g><path d="m46.5010605 3.5087183c-.1555595.060504-.3284187.0950816-.5098801.0950816-.74757 0-1.3612099-.5963368-1.382782-1.3396084.6179085-.5185573 1.5945206-.2376645 1.8278847.5574603l.0043259.0259262c.0259018.0864043.038826.1771605.0431519.2635911.0043525.1000662.021656.4976151.0172996.3975492z" fill="#312e4b"/></g></g><g><g><path d="m14.1866179 30.516634c.0547142-3.4515057-.4594231-4.8877258-1.4011412-6.8816128 1.9035787 1.7557087 2.2505073 4.8589249 1.4011412 6.8816128z" fill="#312e4b"/></g></g><g><g><path d="m41.5390968 5.6558924s-.0728455.5246348-.4432449.8950472c-.3674507.3674588-.8950233.4432578-.8950233.4432578s.0778847-.5255756.4453354-.893034c.3704032-.3704124.8929328-.445271.8929328-.445271z" fill="#312e4b"/></g></g><g><g><path d="m28.7530231 35.7887421c-.1500244-1.6099854-1.4100342-2.8899536-3.0100098-3.0499878-5.5-.5499878-11.1900024-2.1199951-11.539978-2.2099609l-.0200195-.0100098s2.0200195-3.8400269 9.0499878-1.9700317c7.0300293 1.8800048 5.5200195 7.2399902 5.5200195 7.2399902z" fill="#deddff"/></g></g><g><g><path d="m44.6230164 14.1087503c-.3099976 4.4500113-2.9199829 9.249999-5.5800171 13.0900259-.2600098-.6199951-.4299927-1.2800293-.5299683-1.9400024-.3700562-2.4199829.0899658-4.9700317 1.3499756-7.0800171.6500244-1.0800171 1.5100098-2.039978 2.5299683-2.7999868.5-.3800049 1.4500122-1.1300049 2.2300415-1.2700196z" fill="#deddff"/></g></g><g opacity=".15"><g><g><path d="m31.7229939 13.4187479c-.5499878 1.7900391-1.1499634 3.5700064-2.1099854 5.1500235-1.3099976 2.1400146-3.4299927 3.9199829-5.9000244 4.0700073-2.1900024.1300049-4.2799683-1.0300293-6.039978-2.3900146-1.5200195-1.1799927-2.9299927-2.539978-4.5300293-3.5700073.8700562-.1199951 1.7600098-.1300049 2.6300049-.0499878 7.0700073.580017 12.4500122-.419983 15.9500122-3.2100211z" fill="#fff"/></g></g></g></g></svg>