<svg id="Layer_1" enable-background="new 0 0 500 500" viewBox="0 0 500 500" xmlns="http://www.w3.org/2000/svg"><g clip-rule="evenodd" fill-rule="evenodd"><path d="m452.975 106.692c7.789 28.539.477 60.338-21.939 82.754-23.991 23.992-58.73 30.678-88.717 20.067-4.172-1.475-8.541-.488-11.669 2.641l-118.496 118.496c-3.129 3.128-4.117 7.496-2.641 11.669 10.611 29.986 3.926 64.725-20.067 88.716-22.415 22.416-54.215 29.729-82.754 21.939-1.659-.454-2.212-2.537-.996-3.754l48.664-48.664c.583-.583.793-1.373.581-2.17l-10.935-40.806c-.212-.797-.79-1.375-1.587-1.588l-40.806-10.934c-.797-.213-1.586-.002-2.169.58l-48.664 48.667c-1.216 1.216-3.3.663-3.754-.996-7.79-28.538-.478-60.339 21.939-82.754 23.992-23.992 58.731-30.677 88.717-20.067 4.172 1.476 8.539.488 11.669-2.641l118.496-118.496c3.129-3.13 4.117-7.498 2.641-11.669-10.611-29.986-3.925-64.725 20.066-88.717 22.416-22.417 54.216-29.729 82.754-21.939 1.659.454 2.212 2.538.996 3.754l-48.665 48.664c-.582.583-.793 1.372-.58 2.169l10.934 40.806c.212.796.791 1.375 1.587 1.587l40.806 10.935c.796.212 1.586.002 2.169-.581l48.665-48.665c1.218-1.217 3.299-.662 3.755.997z" fill="#999"/><path d="m291.227 199.67c2.513-2.513 6.589-2.513 9.103 0 2.513 2.513 2.513 6.589 0 9.103l-91.556 91.557c-2.513 2.513-6.589 2.513-9.103 0-2.513-2.513-2.513-6.589 0-9.103z" fill="#ffbf31"/></g></svg>