<svg height="512" viewBox="0 0 96 96" width="512" xmlns="http://www.w3.org/2000/svg"><g id="Yatch"><path d="m1 67.29 8-1.54v5.36h-8z" fill="#5c5e88"/><path d="m47.07 37.84h-19.8a3.48 3.48 0 0 0 -3.36 2.54l-6.78 24.47h54.87l-22.3-25.85a3.49 3.49 0 0 0 -2.63-1.16z" fill="#718cd8"/><path d="m49.71 39 11.69 13.57h-13.61l-4.79-5.57a3.5 3.5 0 0 0 -2.64-1.21h-17.94l1.49-5.4a3.49 3.49 0 0 1 3.35-2.54h19.81a3.49 3.49 0 0 1 2.64 1.15z" fill="#b3f5f6"/><path d="m48.53 40.74a2.6 2.6 0 0 0 -2-.9h-7.12a2 2 0 0 0 0 3.94h.92a5.5 5.5 0 0 1 4.16 1.91l3 3.49a4.06 4.06 0 0 0 3 1.39h3.27a1.46 1.46 0 0 0 1.11-2.42z" fill="#fff"/><path d="m27.26 37.84h6.74a3.48 3.48 0 0 0 -3.35 2.54l-1.49 5.4h-6.74l1.49-5.4a3.49 3.49 0 0 1 3.35-2.54z" fill="#c3cef2"/><path d="m72.01 64.85h-2.41v-2.78z" fill="#fff"/><path d="m72 65.85h-2.4a1 1 0 0 1 -1-1v-2.78a1 1 0 0 1 1.76-.66l2.4 2.79a1 1 0 0 1 -.76 1.65z" fill="#302d3d"/><path d="m15.24 52.57h54.36v12.43h-54.16l-2.34-9.7a2.2 2.2 0 0 1 2.14-2.73z" fill="#c3cef2"/><path d="m72 56.85v8.15h-37.78l-1.76-5.8a1.81 1.81 0 0 1 1.73-2.33z" fill="#6273c4"/><path d="m72 56.85v8.15h-24.91l-1.76-5.8a1.81 1.81 0 0 1 1.73-2.33z" fill="#535aa1"/><path d="m70.21 51.09-9 11.76a5.46 5.46 0 0 1 -4.32 2.15h-25.62a2.58 2.58 0 0 1 -2.41-1.65l-1.17-3a2.58 2.58 0 0 0 -2.41-1.66h-17.56a1.53 1.53 0 0 0 -1.5 1.82l2 10.67h65.34a10.53 10.53 0 0 0 8.44-4.3l13-17.41h-21.52a4.11 4.11 0 0 0 -3.27 1.62z" fill="#71a5d8"/><path d="m95 49.47-13 17.41a10.53 10.53 0 0 1 -8.43 4.23h-9.75a10.55 10.55 0 0 0 8.44-4.23l13-17.41z" fill="#587db5"/><path d="m91.06 54.74 3.94-5.27h-21.52a4.11 4.11 0 0 0 -3.27 1.62l-2.8 3.65z" fill="#5c5e88"/><path d="m95 49.47-3.94 5.27h-9.73l3.94-5.27z" fill="#484579"/><g fill="#fff"><path d="m24.26 66h-2.26a1 1 0 0 1 0-2h2.27a1 1 0 1 1 0 2z"/><path d="m18.56 66h-2.26a1 1 0 0 1 0-2h2.26a1 1 0 1 1 0 2z"/><path d="m12.87 66h-2.27a1 1 0 0 1 0-2h2.27a1 1 0 0 1 0 2z"/></g><path d="m19.22 34a7.22 7.22 0 0 0 6.4 3.86h20.49a8.45 8.45 0 0 0 -7.11-3.86z" fill="#718cd8"/><path d="m28.23 24.89h-5.41l4.6 9.09h9.21z" fill="#5c5e88"/><rect fill="#d7e7f2" height="4.28" rx=".79" width="7.6" x="37.94" y="52.57"/></g></svg>