<svg id="Layer_1" enable-background="new 0 0 38 38" height="512" viewBox="0 0 38 38" width="512" xmlns="http://www.w3.org/2000/svg"><g id="_x36_0"><g><g><g><path d="m27.8964252 16.2533188c-.0091801.100275-.2771053 3.0266972-.2600098 2.8399658-.4067879 3.5807533-1.1568127 9.6749916-2.2399902 13.0600586-.5091782 1.594944-4.4072514 2.4674873-6.0200195 2.7900391-.1398926.0300293-.25.0499268-.3898926.0499268v-18.7399903z" fill="#fa5f7f"/></g><g><path d="m27.8460045 16.7658787-.2698822 2.9965191-7.2267742 3.6498089c-.412199.1796741-.7522564.4733524-1.3601151.4733524v-7.6315708h7.8436432z" fill="#df3260"/></g></g><g><path d="m26.076479 29.4953594c-.210083.9899902-.4400635 1.9100342-.6800537 2.6600361-.5899658 1.8499756-5.8699951 2.7600098-5.8699951 2.7600098-.2199707.0499268-.3499756.0799561-.539917.0799561v-10.9500752c1.7804604 5.752224 1.8135929 6.293293 2.5300293 6.9300537.9199219.8299561 2.4199219.6099854 3.3999023-.1500244.4699707-.3699951.8400879-.8299561 1.1600342-1.3299561z" fill="#df3260"/></g><g opacity=".5"><path d="m27.6364155 19.0932846c-.0186462.1799908-.0488415.809267-.4399414 3.710083-1.2980824 3.5444355-2.6709805 4.1414547-3.5900879 5.289917-1.2687607 1.6221046-2.0347195 4.6173515-2.5200195 6.4699707-.7832336.2025223-1.2631168.29076-1.7099609.380127 1.6253033-5.642519.7118645-7.7144947 2.0800781-9.6400146.7199707-1.0400391 1.9199219-1.6199951 2.8000488-2.5200195 1.3041248-1.3427563 1.2876816-2.6871777 1.4899902-2.9400635.0898438-.1298828.25-.1899414.3898926-.2299805.3900146-.1298828.7700195-.2800293 1.1600342-.4099121.1199951-.0400391.2299804-.0700684.3399658-.1101075z" fill="#f8f9fe"/></g><g><path d="m18.9865131 16.2533188v18.7399902c-.3836689 0-.3124256-.000824-1.5-.3900146-.4500732-.1599121-1.0100098-.3599854-1.6101065-.5999756-1.25-.5100098-2.6298828-1.1700439-3.2700195-1.8499756-1.3947811-1.4682655-2.6120567-16.9093437-2.5200195-15.9000244z" fill="#e93565"/></g><g><path d="m18.989233 12.507803v11.3777561c-.2741566 0-.5483265-.0621223-.8010693-.1906052-.1006756-.0508518-8.2924604-4.1884613-7.7858095-3.9325562-.0090771-.1007843-.2875328-3.192503-.2698812-2.9965191.1005764-.0508099 8.4275627-4.2574768 8.0556908-4.0696135.2527427-.1263646.5269126-.190606.8010692-.1884621z" fill="#cc104a"/></g><g><path d="m18.9865131 29.8353252v5.1600361c-.1800537 0-.3200684 0-.5400391-.0799561 0 0-4.499999-1.3500977-5.8400869-2.7600098-.9499512-1.0000019-1.8498535-8.9600849-2.119873-11.5600605.5117741 2.3990383 2.0045443 8.3424091 4.0100098 9.75 1.3394889.9378282 3.2888021.8274575 4.4899892-.5100097z" fill="#cc104a"/></g><g opacity=".5"><path d="m17.4865131 34.6032944c-.4500732-.1599121-1.0100098-.3599854-1.6101065-.5999756-.9840794-7.2016087-2.2335501-5.4677315-3.7199707-9.1300049-.5100098-1.25-.7800293-2.5799561-.9699707-3.8999023-.0500488-.3300781-.1000977-.6601563-.1300049-.9899902-.1018381-.7803402-.4183216-1.2609901.2700195-.9400635.0181036.0085125 1.3595867.6658783 1.5799561.7698975.2842941.1532269.4299316.2457924.4299316.6401367.2486277 2.9805012 2.4854898 3.6581955 3.4101553 5.4099121 1.035967 1.9127616.0767232 3.7834052.7399903 8.7399902z" fill="#f8f9fe"/></g><g><g><g><g><g><g><g><path d="m28.089 16.758h1.79v.842h-1.79z" fill="#f45170"/></g><g><path d="m8.102 16.758h1.79v.842h-1.79z" fill="#df3260" transform="matrix(-1 0 0 -1 17.994 34.359)"/></g><g><path d="m8.4624052 18.185606 9.7264509 4.9139099c.5027657.2540035 1.0963001.2540531 1.5991077.0001335l9.7306347-4.9139938c.4808674-.2428398.4808083-.9294987-.0000992-1.1722565l-9.7308044-4.9120121c-.5026608-.2537394-1.0959511-.2536898-1.5985718.0001326l-9.7266188 4.9119291c-.4807781.2427921-.4808363.9292832-.0000991 1.1721573z" fill="#f45170"/></g><g><path d="m18.989233 11.9123487v11.3777552c-.7586994 0-.2314663.0212536-10.527441-5.1041431-.479784-.2441788-.479784-.9295769 0-1.1716137 10.1061287-5.0308886 9.7737751-5.107893 10.527441-5.1019984z" fill="#df3260"/></g><g><path d="m29.5186958 17.3433228-9.72645 4.9139118c-.5027657.2540016-1.0963001.2540512-1.5991077.0001335l-9.7306356-4.9139957c-.4808669-.2428379-.4808087-.9294968.0000992-1.1722546l9.7308035-4.9120131c.5026627-.2537384 1.095953-.2536898 1.5985718.0001326l9.7266197 4.9119301c.4807777.2427921.4808368.9292831.0000991 1.1721554z" fill="#fe90a9"/></g><g><path d="m27.7934895 17.0411282c-.1006718.0508556-8.2632427 4.1742058-8.1603947 4.1222382-.4022274.2050705-.8780746.2050705-1.2803173 0l-8.1656427-4.1222382c-.2313528-.1182919-.2313528-.4495468 0-.5678711.2713938-.1368999 8.5271368-4.3013678 8.0052786-4.0381241 0-.0026321.0026302-.0026321.0026302-.0026321l.1577339-.0788822c.8371372-.4267178 1.4938622.1502285 1.7351437.2287531.1006794.0508385 8.2122498 4.1467333 7.7055683 3.8908854.2313365.1183241.2313365.4495791 0 .567871z" fill="#f8f9fe"/></g><g><path d="m27.7934895 17.0411282c-2.7024632 1.3651962-4.212719 2.1280956-4.0801983 2.0611191-1.0358219.0815144-2.0716457.0815144-3.094326-.0920086-.5021305-.0841446-1.0752487-.2786865-1.2251015-.762413-.2929077-.9412193 1.2894783-1.8467236-.586277-2.7972488-.3864536-.1945429-.8149796-.4074745-.980608-.8097172-.1840324-.4469481.0446892-.9779768.4127541-1.290843.4235363-.3656244.9975052-.5082226 1.8481884-.7676449.1016712.0513201 6.3460789 3.2032642 6.0676975 3.062748l1.6378708.8281374c.2313365.1183241.2313365.4495791 0 .567871z" fill="#f3f1fc"/></g><g><path d="m27.7964497 17.0452862c-.1046333.0525265-2.8345318 1.4228077-2.7299805 1.3701172-1.0342922.2728195-2.8009529.6943054-3.7700195.2299805-.4899902-.2299805-.8800049-.7299805-.8399658-1.2600098.0300293-.3701172.25-.6900635.4099121-1.0300293.1600342-.3300781.25-.749999.0400391-1.0600576-.3972301-.5563164-1.4408951-.2719374-1.75-.8898926-.1599121-.3200684.0100098-.710083.2800293-.9300537.3799782-.2984838.9043446-.3500414 1.4799805-.4699707.1045761.05264 6.3336754 3.1881838 5.9399414 2.9899902l.9400635.4799795c.2299803.1199951.2299803.4500732-.0000001.5699463z" fill="#e9e7fc"/></g><g><path d="m27.7964497 17.0452862c-.154686.0777931-1.8803349.9456139-1.7700195.8901367-1.3968353-.3502769-1.6074524-.1467915-2.5899658.0599365-.3900146.0899658-.8000488.1400146-1.1699219.0100098-.380127-.1300049-.7000732-.4801025-.6801758-.8699951.0203037-.6492367.8621655-1.0996819.6201172-1.7600088-.2489872-.6219635-1.2987652-.4578123-1.5800781-1.0400391-.1098633-.2099609-.0699463-.4799805.0800781-.6599121.1499023-.1700439.4199219-.2399902.6398926-.1601563.7921829.3090591 1.0723114.4436836 1.2700195.5900879 1.0901699.8072777.0618801 1.6343241.3100586 2.3499746.1300049.3599854.5500488.5500488.9399414.5400391.380127-.0200195.7399902-.1900635 1.1000977-.3399658.8487186-.3703022 1.7881069-.6454678 1.8898926-.6600332l.9400635.4799795c.2299803.1199951.2299803.4500732-.0000001.5699463z" fill="#f8f9fe"/></g><g><path d="m23.2374458 19.3414955c-.1005936.0508461-3.836256 1.9390907-3.604351 1.8218708-.4022274.2050705-.8780746.2050705-1.2803173 0l-8.1656427-4.1222382c-.2313528-.1182919-.2313528-.4495468 0-.5678711.1044636-.0528622 2.0758905-1.0504866 1.9533377-.9884701l.9385509.2891502c.8649321-.436389 1.8481884-.633563 2.8156548-.5625753.3391342.0236521.6861629.0841131.980608.2602673.2918148.1761217.5231667.4837255.5310612.8254747.0078793.3785915-.2523899.7098465-.3549232 1.0752792-.1998062.7045517.2234745 1.472229.8386478 1.8692093 1.2802046.8261109 3.8593024.5118066 5.3473738.0999032z" fill="#f3f1fc"/></g><g><path d="m21.2867393 20.3273659c-1.644722.8110847-1.7147331.9155865-2.0585041.9674511-.5974064.1067181-1.0227661-.2271805-1.1909409-.2917824-.1005993-.0507622-7.338522-3.7029476-6.87743-3.4702854l-.9727297-.491621c-.2313528-.1182919-.2313528-.4495468 0-.5678711l.5100241-.2576351 1.4065037.1998062c.7860813-.3207302 1.603694-.6467543 2.4528522-.5994177.8491583.0447044 1.7351437.5757647 1.9007549 1.4091349.0841293.4127693-.0157738.843895.0420723 1.2592964.0999031.6861629.6309643 1.254034 1.2592812 1.5511112 1.0968114.5161419 2.3974305.3037262 3.5281163.2918129z" fill="#e9e7fc"/></g><g><path d="m16.1365395 20.0434151-4.976675-2.5106659c.6835308-.3417511 1.3854828-.6782684 2.1452484-.7466259.7781868-.0736179 1.6404877.1998062 2.0506248.8649483.4292974.6910572.3257446 1.881401.7808018 2.3923435z" fill="#f8f9fe"/></g><g><path d="m27.7934895 17.0411282-.4048748.2050686-7.7555199-3.917201c-.4018974-.2009478-.8636379-.2056313-1.2803173 0l-7.758153 3.917201-.4074898-.2050686c-.2313528-.1182919-.2313528-.4495468 0-.5678711 8.6589079-4.3108606 8.2161703-4.2747078 8.8044844-4.2747078.5916157 0 .1211357-.0496702 8.8018703 4.2747078.2313366.1183242.2313366.4495792.0000001.5678711z" fill="#cc104a"/></g></g><g><path d="m18.9916191 12.1985493v.9779768c-.6012669 0-.2385044.0101061-8.3969946 4.0696707l-.4074898-.2050686c-.2313528-.1182919-.2313528-.4495468 0-.5678711l8.1656427-4.1196384c.2024365-.1025019.4206487-.1550694.6388417-.1550694z" fill="#df3260"/></g></g><g><path d="m19.1841526 20.4542274c-.5041313.0900574-.8183384-.1793518-.9702873-.2377205.4055404.0802842.7242069.1272488.9702873.2377205z" fill="#f8f9fe"/></g></g><g><g><path d="m30.6033764 14.9675236c.0293274.341795-.0097752.6446066-.0976391.9083147-.3516293 1.1719027-1.5724125 1.6113367-1.9825783 1.4649382-1.5235348-.7520199-1.0058937-2.5588741-.6738758-3.2620163.1500053-.4500151.9767532-.5720901 1.4649391-.4883137.6250553.0879821 1.2207833.4687624 1.2891541 1.3770771z" fill="#e93565"/></g><g><path d="m30.5057373 15.8758383c-.3516293 1.1719027-1.5724125 1.6113367-1.9825783 1.4649382-1.5235348-.7520199-1.0058937-2.5588741-.6738758-3.2620163.2818832-.3004608.6814404-.5625191 1.0743256-.693367l.6347713-.0488787c-.7627048.6788797-1.1907597 2.0763569-1.0058937 2.7541533.087862.3320198.341795.6347103.6738739.6835899.5144673.0677585 1.0136948-.4560337 1.279377-.8984194z" fill="#cc104a"/></g><g><path d="m30.0955124 12.8873043c-.0976391.087863-.2050533.1757259-.3320198.2637081-1.8653889 1.3281975-2.5392628 3.5450382-1.2403336 4.189764l-10.3131714-5.0980787c-1.4747143-.8105564-.937582-8.4576159 2.7052746-9.1998615.0390434-.0097759.0683708-.0097759.1074142-.0195515 3.0813962-.4708412 10.9795247 8.1162884 9.072836 9.8640196z" fill="#fe90a9"/></g></g></g><g><path d="m30.0955124 12.8873043c-.0976391.087863-.2050533.1757259-.3320198.2637081-1.8653889 1.3281975-2.5392628 3.5450382-1.2403336 4.189764l-10.3131714-5.0980787c-1.4747143-.8105564-.937582-8.4576159 2.7052746-9.1998615.0390434-.0097759.0683708-.0097759.1074142-.0195515-1.4934959.7307394-2.1483974 1.8594916-2.5191689 3.1174705-.6215496 2.1088228-.5767193 4.4709339 1.1226006 5.8773375.7226944.6055031 1.6211739.947299 2.5099373 1.2695427 3.5070496 1.3319416 3.8874798 1.5017309 4.4143085 1.4649391 1.3673001-.0877433 2.2071858-1.8848215 3.5451585-1.8652702z" fill="#fa5f7f"/></g></g></g><g><path d="m16.2499275 18.984724c-.0491409.1994133.2910137.4549236.7590256.5702553.4691868.1156216.8891144.0474167.9382553-.1519985.0491409-.1994133-.2910118-.4549236-.7602005-.5705452-.4680119-.1153316-.8879394-.0471268-.9370804.1522884z" fill="#dedffb"/></g><g><g><path d="m7.4286036 7.6604366c-.1064033.4317808-.0005893.9110422.2245985 1.2972403.7310171 1.2584629 2.7699776 1.936883 3.9651289 3.4285755.6552382.816865 1.0180063 1.8274946 1.566165 2.7192497.5967712.9684248 1.4030399 1.4976263 2.1138296 2.385848.3618765.4512329.9291067.8835449 1.2404356 1.3984966.2365017.2085457.7556458.2630901.892437.1453934-.225338-1.0362186-1.3773041-1.7564831-1.9209461-2.6435413-1.1279783-1.8457928-1.8504133-1.9818134-3.0754623-4.7901726-.2673407-.6101942-.8773708-1.1824589-1.0209742-1.8324499-.1405888-.6337957-.3040361-1.2718163-.6222305-1.835465.3445902 1.0686011-.7989206 1.4883199-1.5967398.5952592-.8111238-.9113083-.2193718-2.0082145.8080673-1.5040827-.2214757-.1628775-.4683038-.2855786-.7364693-.3502544l-.26577-.5423002.0003271-.001327c0-.0000001-1.2557759.2446927-1.5723968 1.5295304z" fill="#9ea9c9"/></g><g><path d="m8.2335882 8.3946581c.7295694 1.2559185 2.7722073 1.9396658 3.9651299 3.4285765.6549101.8181906 1.0176458 1.8288136 1.5674591 2.7195673.9264517 1.506196 2.2322788 2.4871149 3.0947618 4.1296968.0493507.0965271.0969849.2798653.1736183.414072.1792755.0259113.3305779.0055103.3966408-.0513306.0055847-.0056629.01087-.0099754.0151596-.0159569-.0001259-.0450478-.0056-.0913963-.0113754-.1307964.0003262-.0013275-.0010014-.0016537-.0006771-.002964-.249403-1.4398937-1.4810772-3.4384108-2.4175205-4.5493021-.8745737-1.0396996-1.9408436-1.9635019-2.4849062-3.2086592-.5286627-1.2066031-.512105-2.6537457-1.1855965-3.801259-1.3925714-2.3966241-4.3039665-.9824505-3.1126938 1.0683556z" fill="#c9cee2"/></g></g><g><path d="m9.2732658 7.330946c.2755527-.2486439.737854-.0874295 1.0127707.2216921.2769547.3118134.3844929.7874632.1082859 1.0353518-.2501421.2231321-.7013922.1228828-1.012784-.2256832-.3088026-.346943-.3574753-.8079969-.1082726-1.0313607z" fill="#b0b8cf"/></g></g></g></svg>