<svg id="Layer_1" enable-background="new 0 0 300 300" viewBox="0 0 300 300" xmlns="http://www.w3.org/2000/svg"><g><g><path d="m246.7 201.5c-3.8-6.2-6.1-13.7-8.8-19.8-3.9-8.9-9.3-13.8-13.2-14.8-1.3-.3-2.5 0-4 1.1-2.6 2-6.1 3.6-10 4.8 1.4 2.5 22.7 41.8 21.2 62.6-.8 11.1-2.1 17.5-3.7 21.7 2.3 5 7.6 5.7 13.2-.9.6-12.4 4.6-50.3 4.6-50.7.1-.1.6-3.9.7-4z" fill="#bfbfbf"/><path d="m228.2 257.1c-1.6 4-3.4 6-5.4 8.2-3.3 3.6-3.2 8.7-3 10.2l12 .3.8-3.1c1-3.7 3.7-6.8 7.1-8.4 3-1.4 1.7-5.2 1.6-5.4v-.1c0-.6 0-1.5.1-2.6-3.8 1.3-9.6 1.1-13.2.9z" fill="#6d6d6d"/></g><g><path d="m103.6 58.9c-4.2-5.9-27.3-32-37.5-34.7-2.6-.4-7.2-.7-8.3.2-.1.1-2.1 1.4-2.2 1.4 2 5.5 1.8 9.3 1.4 13.6 2.9.4 7.1 3.7 9.3 5.6 1.1.9 1.9 2.9 3.1 4l4.2 8c1.7 1.7 5.3 1.5 7.1 3.4l5.4 4.8s1.7 1.8 1.6 1.9c3.5 3.8 4.1 4.3 7.1 7.7l6.4 4.5c2.3 2.1 4.6 2.6 7 4.4l5.4 4.8c2 1.2 3.6 1 5.7 2 .1-.4.5-3.3.6-4.1.6-3.1 1.6-8.2 3.7-11.1-2.3-1.8-16.2-11.2-20-16.4z" fill="#bfbfbf"/><path d="m48.9 41.2c-.1-.5-.2-1.1-.3-1.8-.1 0-.1-.1-.1-.1-2.2-4.7-9-16.6-13.6-14.5-.2.1-.4.3-.5.6-1.2 3.4 4 15.9 6.3 20.8 3.2-2 6.4-3.9 8.2-5z" fill="#bfbfbf"/><g fill="#424343"><path d="m78.5 52.9 11.5-9.6s-3.3-3.4-4.4-4.5c-1.5-1.5-5.4-5.1-5.4-5.1l-5.3 15.7c1.1 1 2.4 2.3 3.6 3.5z"/><path d="m85.3 60c1.3 1.3 3.3 3.7 4.5 5l10.7-10s-3.2-3.9-4.5-5.3c-1.6-1.8-5.4-5.7-5.4-5.7z"/><path d="m113.7 86.1 9.3-11.5s-4-2.8-5.3-3.8c-1.4-1-5.3-4-5.3-4l-3.9 15.8c1.2.9 3.9 2.7 5.2 3.5z"/><path d="m100.9 76.7 10.7-10.2s-4.2-3.5-5.5-4.8-4.9-5.7-4.9-5.7l-4.6 16.5c1.3 1.4.7 4.7 4.3 4.2z"/></g></g><path d="m110.7 236.8c-.5-2.8-1.5-5.7-2.2-8.5-1.2-4.6-2.1-9.2-2.1-13.9 0-7.1-9.5-41.6-10-43.7l-.8-1c-2.4 11-8.7 42.5-6.9 46.2 2 3.9 18.8 25.6 22.8 30.8-.3-2.2-.5-7.8-.8-9.4z" fill="#bfbfbf"/><g><path d="m279 122.8c-3.8-16.6-11.9-25.3-16.5-28.9-6.7-8.6-17.3-13.2-31.7-13.6-23.2-.7-39.4 4.2-53.6 8.5-16.2 4.9-30.2 9.1-49.3 3.5-10-3-19.3-8.4-27.3-15.8-.1 0-.1 0-.2 0-.2-.1-.2-.2-.2-.4-1.7-1.6-3.3-3.2-4.9-4.9-8.3-9.3-19.9-22-28.2-29-2.2-1.8-4.8-3-7.7-3.3-.2 0-.4-.2-.4-.5.5-4.3 0-7.9-2-13.3-.1-.1-.1-.2-.1-.3-.2-.5-.4-1-.6-1.6-1-2.5-2.1-3.9-3.2-3.9-1.3 0-2.5 2-2.8 2.7-3 6.4-2.2 13.8-1.5 17.6 0 .2 0 .4-.2.5-8.8 5.2-18 11.3-18.8 13.3-1.3 3.2-8.8 13.2-18.8 23.8-.9 1-1.7 2-2.5 2.9l1.8 8.4s2.1 1 2.7 2.1 1.2 2 3 5c1.7 2.9 10.1 3 8.5 6.2 2.5-.7 5.2-1.2 8.1-1.7 5.9-1 12.5-2.2 17.6-5.6 0 0 .1-.1.2-.1s3.5-.6 5.5 5.3l.1.3c8.2 24.5 19.6 47.1 32.2 63.7l8.7 9.9c0 .1.1.1.1.2.3 1.3 7.5 33.1 7.5 40.5 0 4.6 1.2 9.3 2.4 13.9.7 2.8 1.5 5.6 1.9 8.4l.1.5c.3 2.1.8 4.6 1.1 7.4v.1c.1.1.1.3 0 .4.4 2.7.7 5.5.8 8.3 3 3.5 11.7 6 13.6-6.7l.3-.1c-1.4-3.1-2.5-6.5-2.5-10.4 0-12.3 0-41.1.6-56.6l-.9-2.5c5.5.1 54.7 1.5 60.5 1.5 5.3 0 28.8-1.6 38.9-9.2 1.6-1.2 3.2-1.6 4.7-1.2 4.3 1.1 7.6 8.6 11.8 18 3 6.8 6.4 14.6 10.9 21.3 9.2 13.8 5.6 38.5 3 50.6 4.8 9 12.2 1.4 14.3-4.3-.1-.7-.1-1.3 0-1.9.2-1.3.6-4.5 1.2-8.9 1.5-10.8 3.7-27.1 5-36 .7-4.9-1.6-10.8-4.1-17-3.8-9.4-8.1-20-4-31.6 1.2-3.4 7.2-21.4 6.4-39.2 0-.2.1-.4.3-.4s.4.1.5.2c2.8 6.2 4.9 13.7 6.2 21 3.2 2.5 4.9 2.5 5.8-1.5-1.5-4.9-3-10-4.3-15.6z" fill="#e8e8e6"/><path d="m278.9 161.4c-1.2 7.7.8 19 2.1 24.6.1-6 1.3-16.7 1.4-17.2 0-.2.2-.4.4-.4.2 0 .4.2.4.4 0 .1 1.4 11.2 1.8 22.3.2 4.4 5 10.8 7.4 13.6-.5-2.1-.8-5.7.9-9 2.4-4.8-2.5-20.4-2.5-20.5-.1-.2 0-.5.3-.5.2-.1.5 0 .6.2l5.8 13.8c-.3-4.3-.9-12.7-1.4-14.4-2.1-8.1-10.1-20-10.2-20.1-.1-.2-.1-.4.1-.6.2-.1.4-.1.6.1 1.6 1.8 4.2 4.5 6.1 6.5-2.1-4-5.9-11.8-9.3-21.9-1.8 1-4 1.4-5.8 1.5 1.6 8.5 2.1 16.7 1.3 21.6z" fill="#424343"/></g><path d="m24 92.9c-.7-2-.2-3.1-.1-6.3.1-1.5-.9-3.5-.9-3.5-.7-1.1-4-2.9-5.3-3-2.3 0-9.3-.2-9.3-.2-4.5 6.2-5.4 11.7-5.4 11.8-.1.3-1.7 4.8 1.7 7.7.4.3.8.7 1.3 1.1 3.5 3.1 8 7 13.8 3.2 1.3-.9 3-1.5 4.8-2 1.5-3.2.4-5.7-.6-8.8z" fill="#424343"/><g><path d="m39 63.2c-5.1 0-6.3 4.9-6.4 4.9 0 .2 0 .3.1.4 1.8 1.7 3.8 2.2 5.6 2.2 3.9 0 7.1-2.7 7.1-2.8.1-.1.2-.3.1-.5.1.1-1.4-4.2-6.5-4.2z" fill="none"/><path d="m251.7 257.7c-.9 4.2-1.7 7-1.7 7.1s0 .1-.1.2c-1.9 2.2-6.9 8.3-7.4 9.8s-1 4.6-1.2 5.7c4 .5 13.5 1.2 15.3-1.1.9-1.1 1.4-2.3 2.1-3.8 1.1-2.6 2.4-5.5 6.1-8.7 3.5-3.1 2.6-6.8 1.8-10.3-.3-1.1-.5-2.1-.6-3.1-2.8 1.5-9.3 4.8-14.3 4.2z" fill="#424343"/></g><g><path d="m110.8 253.2c.2 4.7-.1 9.1-1.5 12.2-2.7 5.8-3 11.3-3.1 12.6 1.4.5 7.6 2.5 11.8-.1 4.9-3 5.9-4.7 4.8-7.6-1.3-3.2.9-5.1 5.4-9l1-.8c2.1-1.9.8-4.5-1.7-9-.9-1.6-1.8-3.3-2.7-5.1l-.3.1c-2.8 4.9-10.5 6.4-13.7 6.7z" fill="#424343"/></g><g fill="#424343"><g><path d="m150.9 94.6c-2.3.2-4.6.2-7 .2 1.1 2.9 2.4 6.4 2.7 8.9.6 5 11.2 47.9 9.3 66-.4 3.5-.8 6.1-1.2 8.1 2 0 4 .1 5.9.1.9-5.4 1.8-11.8 1.5-14.5-.6-4.7-3.8-43.4-11.2-68.8z"/><path d="m200.1 91.2c6-4.7 10.3-8.1 13.2-10.5-3.9.4-7.5.9-11 1.5-9.5 8.2-24.6 24.3-25.9 45.1l-5.6-36.8c-2 .6-3.9 1.1-5.8 1.6 2.2 11.2 12.1 63.1 9.1 86 1.8 0 3.3.1 4.6.1 1-12.2 3.3-40.1 3.3-45.9 0-7.5 3.7-29.9 18.1-41.1z"/><path d="m225.6 96.8c10.8-8.8 23.6-9.1 32.1-7.9-3.6-3-7.8-5.2-12.8-6.6-5.7 1.1-12.7 3.6-21.1 8.3-29.5 16.4-33.1 73.4-33.5 87.2 1.5-.1 3.2-.3 5-.6.8-39.5 14.3-67.5 30.3-80.4z"/><path d="m246.7 114.8c10.9-7.1 21.2 2 23.7 4.4 0-.1 0-.3 0-.4 0-.2.1-.3.2-.4l-2.1-8s-13.1-11.8-36.7 5.6c-20 14.8-26.4 49.4-27.9 59.6 2.3-.5 4.6-1.1 6.8-1.7 1.8-7.4 7.5-29.4 11.2-36.1 4.6-8.4 12.4-14.9 24.8-23z"/><path d="m240.5 149c4-4 21.7-7.3 28.1-8.3.4-2.1.8-4.3 1.1-6.6-3.8-.6-12.9 1.8-25.4 5.6-13.6 4.2-19.3 22.3-20.7 28.1.8-.2 1.6-.3 2.4-.1 1.3.4 2.6 1.3 3.8 2.7l.3-1.3c1.4-7.5 5-14.5 10.4-20-.1 0-.1 0 0-.1z"/><path d="m262.4 168.7c-.1-2 .1-4 .4-6.1-15.4-.8-25.7 9.3-29.5 13.7.7 1.3 1.4 2.8 2.1 4.4 10.6-10.7 20.9-12.3 27-12z"/><path d="m268 189.6c-.7-1.7-1.3-3.4-2-5.1-9.3.4-21.4 3.9-26.4 5.5.9 1.9 1.8 3.9 2.7 5.9z"/><path d="m129.5 92.5c-.5-.1-1.1-.3-1.6-.4-1.7-.5-3.3-1.1-5-1.7l4.6 26.6c1.1 6.2 3 12.2 5.4 18 8 19.3 6 34.9 4.2 42.4 1.8 0 3.8.1 5.8.1 4.8-22.6-5.4-46.7-6.6-51.7-1.2-5.6-5.1-24.6-6.8-33.3z"/><path d="m113.7 86c-1.7-1.7-3.3-3-5.3-3.4l-4.6 34.3c-1.2 9.1-4.6 17.9-10.1 25.2-4.7 6.3-7.4 12-9 16.6 1.1 1.6 2.3 3.2 3.5 4.8l1.5 1.7c4.5-12.2 11.2-19.3 17-32.1 6.1-13.9 6.9-39.8 7-47.1z"/><path d="m118.8 127.4c-1.9-.5-7 21.9-9.8 23.3-2.1 1.1-10.3 14.5-14 20.7l1.7 2c0 .1.1.1.1.2.1.4.9 3.8 1.9 8.5 3.7-8.6 14.2-31.5 19.2-30 4.4 1.4 7.6 6.9 9 9.8.7-2.9 1.3-5.7 1.8-8.1-.8-2.8-2.4-5.6-3.8-7.3-1.9-2.3-4.2-18.6-6.1-19.1z"/><path d="m116 170.3c-2.2.7-12.1 12.7-16.1 17.6.4 1.7.7 3.6 1.1 5.4 3.7-4.7 14.2-16.7 21.6-11.6 0-.9.1-1.7.1-2.5 0-.1.5-2 1.2-4.9-2.2-1.9-6-4.6-7.9-4z"/><path d="m100.6 76.3-3.9-3.9c-1.6 4.6-5.5 16.2-7.7 27.5-2 10.3-11.7 28.1-17.2 37.5 1.3 2.5 2.6 4.8 3.9 7.2 4.7-9.5 13.4-27.3 16.1-33 3.2-6.9 7.9-29.1 9-35-.1-.1-.1-.2-.2-.3z"/><path d="m102.3 199.6c.4 2.1.7 4.1 1 6 5.5-3.9 14.3-3.8 18.9-3.4 0-2.1 0-4.2.1-6.3-8.8-2.6-16.5 1.3-20 3.7z"/><path d="m89.8 65c-.7-2.2-2.4-4.2-4.5-4.9-2 6.2-11 33.7-16.4 40.8-2.9 3.8-6.3 7.5-9 10.2 1 2.7 2.1 5.3 3.2 7.9 3.8-3.9 9.8-10.5 12.8-17.2 4-8.9 11.9-30.9 13.9-36.8z"/><path d="m78.5 52.9c-.1-2.1-1.3-3.3-3.5-3.5-2.8 6.3-9.7 21.6-12.2 25.3-2.2 3.3-8.4 13.8-11.8 19.5.9.1 2.5.7 3.9 3.2 3.7-5.3 10.7-16.1 14.8-25.3 3.8-8.7 7.1-15.7 8.8-19.2z"/><path d="m69.4 45.4.4-1c-.6-1.8-1.5-2.2-2.4-3-.2-.1-.8.3-1 .2l-3.3 9.1 1.3-10.4c-1-.5-2-1-3.1-1.2-.3 8.9-5.7 38.7-5.7 38.7s2.8-6.5 5-12.4c2.2-6 8.8-20 8.8-20z"/><path d="m45.4 61s2.5-5 2.2-10.6c-.2-3.5-.6-7.2-.9-9.5-1.2.7-2.4 1.4-3.5 2.2 2.4 5.3 2.2 17.9 2.2 17.9z"/><path d="m38 59.4s0 0 1.2-1.2c.9-.9 1.8-9.4 2.2-14.1-1.1.7-2.2 1.4-3.3 2.1l-2.7 15.7 2.5-1.2v-1.3z"/><path d="m29.9 64.7c1.9-1.6 4.1-11.4 5.1-16.3-1.7 1.2-3.1 2.3-4 3.1-1.1 3.2-2.6 7.3-3.8 10.3-2.5 5.9-14.6 19.3-14.6 19.3h4.4c-.2.1 10.4-14.2 12.9-16.4z"/><path d="m47.9 74.4c-.9 3.4-10.9 6.5-10.9 6.5-7.5-1.2-15.2 3.7-15.2 3.7s11.5-4 14.9.6c2.7 3.6 1.7 10.6 1.2 13.6 1.9-.4 3.8-.9 5.7-1.5 0-3-.3-9-2.3-12.9l6.6-4.8c6.2-6.8-.9-16.5-.9-16.5s1.8 7.8.9 11.3z"/><path d="m23.3 90.8c5.4 2.3 6.6 6.6 6.8 9.5.8-.2 1.6-.3 2.5-.4h.1c-.3-2.5-.7-5.4-.7-6.2 0-1.6-8.7-2.9-8.7-2.9z"/><path d="m122.2 215.9c0-1.5 0-2.9 0-4.4-1.5-.2-3.5-.4-5.8-.5-4.2-.2-9.3.7-12.1 1.3.1.7.1 1.3.1 1.8 0 1.2.1 2.4.2 3.6 6.1-2.6 13.2-2.3 17.6-1.8z"/><path d="m122.1 225.3c-2-.2-4.9-.4-7.6-.4-2.9 0-6.4-.4-8.7-.6.3 1.2.6 2.5.9 3.7.1.4.2.8.3 1.2l15.1-1c0-.9 0-1.9 0-2.9z"/><path d="m115.1 236.5c-1.1-.2-4.1.3-6.3.7.2 1.4.5 3 .8 4.7 3.2-1.6 9.4-2.9 12.7-3.5-.1-.7-.1-1.5-.2-2.3-2.5.3-5.9.5-7 .4z"/><path d="m272.1 202.9c-4.1-.6-10.4-1.6-12.6-1.6-2.6 0-9.8 1.5-13 2.1.7 1.2 1.4 2.4 2.2 3.6.4.6.8 1.3 1.2 1.9 2.6-1.1 6.2-2.6 8.8-3.3 2.9-.8 9.2 1.5 13.2 3.1.1-.8.2-1.5.3-2.2.1-1.1.1-2.4-.1-3.6z"/><path d="m252.9 217.2c.3 1.2.6 2.5.8 3.7 4.7-1.9 12.5-.4 16.3.6.2-1.5.4-2.9.6-4.3-2.9-.5-7.2-1.3-10.2-1.3-2.6 0-5.4.7-7.5 1.3z"/><path d="m254.4 228.1c.1 1.7.1 3.4.1 5.1l13.8.4c.2-1.8.5-3.5.7-5.3-.9-.1-1.9-.2-3-.2-3 0-8.1 0-11.6 0z"/><path d="m254 242c-.1 1.5-.3 3-.5 4.4 2.9-.9 9.7-1 13.2-1 .1-.8.2-1.7.4-2.7-1.4-.3-2.8-.6-3.8-.7-2.1-.2-6.9-.1-9.3 0z"/></g><path d="m61.4 39.1-.9-15.3s2.6-.2 5.1.2c2.8.4 4.3 1.8 4.3 1.8l-5.4 14.6z"/><path d="m66.5 41.6 3.4-15.7s2.3 1.3 5.3 3.5c1.2.9 4.6 4 4.6 4l-10 11.1z"/><path d="m39 64.1c-3.9 0-5.1 3.1-5.4 4 4.7 4 9.9.4 11.1-.5-.4-.9-1.9-3.5-5.7-3.5z"/></g><path d="m55.9 30.4s-1.6-7.2-2.9-7.6c-1.2-.3-1.8 2.6-2.3 7.8s3.5 14.7 3.5 14.7 2.7-7.3 1.7-14.9z" fill="#ababab"/></g></svg>